# This file uses centimeters as units for non-parametric coordinates.

v 4.025421 3.887024 1.946743
v -3.879654 3.887024 1.946743
v 1.071648 2.892769 1.946743
v -0.729370 2.748993 1.946743
v -1.804123 1.137344 1.946743
v -0.729370 -0.093178 1.946743
v 0.911560 -0.093178 1.946743
v 1.732025 1.327908 1.946743
v -1.085899 -3.830765 1.946743
v 1.268082 -3.830765 1.946743
v -3.879654 -4.018059 1.946743
v 4.025421 -4.018059 1.946743
v 0.771492 2.550224 1.254347
v -0.589302 2.550224 1.254347
v 0.091095 1.263481 1.254347
v -1.269691 1.263481 1.254347
v -0.589302 -0.023270 1.254347
v 0.771492 -0.023270 1.254347
v 1.451889 1.263481 1.254347
v -0.884964 -3.519768 1.254347
v 1.067146 -3.519768 1.254347
v 4.587067 4.448669 0.774705
v 0.072884 6.318504 0.774705
v -4.441299 4.448669 0.774705
v -6.311134 -0.065514 0.774705
v -4.441299 -4.579697 0.774705
v 0.072884 -6.449535 0.774705
v 4.587067 -4.579700 0.774705
v 6.456902 -0.065514 0.774705
v 0.072884 5.524220 1.946743
v -5.516853 -0.065514 1.946743
v 0.072884 -5.655251 1.946743
v 5.662621 -0.065514 1.946743
v 4.495354 -2.883553 1.946743
v 5.557831 -0.318504 1.946743
v 5.175613 -1.926956 1.527628
v 4.566185 -1.488392 1.946740
v -4.310753 2.846268 1.946743
v -5.379974 0.264931 1.946743
v -4.294838 1.369141 1.946740
v -5.070465 1.837006 1.442597
v 5.279747 5.141350 0.774705
v -5.133987 5.141350 0.774705
v -5.041328 -5.329380 0.774705
v 5.292915 -5.285549 0.774705
v 6.063461 5.775410 -1.946743
v 0.072884 8.325832 -1.946743
v -5.899078 5.775410 -1.946743
v -8.187431 -0.196548 -1.946743
v -5.637009 -5.906441 -1.946743
v 0.072884 -8.325832 -1.946743
v 5.810730 -5.803364 -1.946743
v 8.187424 -0.065514 -1.946743
v 0.072884 7.039436 0.774705
v -7.032066 -0.065514 0.774705
v 0.072884 -7.170467 0.774705
v 7.177834 -0.065514 0.774705
v 0.072884 -0.065514 -1.946743
v -4.182114 5.488342 0.774705
v -1.327652 6.200546 0.774705
v -1.698776 6.690842 -0.088495
vt 0.048162 0.273473
vt 0.048162 0.273473
vt 0.011710 0.005855
vt 0.048162 0.273473
vt 0.048162 0.273473
vt 0.048162 0.273473
vt 0.048162 0.273473
vt 0.048162 0.273473
vt 0.048162 0.273473
vt 0.048162 0.273473
vt 0.048162 0.273473
vt 0.048162 0.273473
vt 0.048162 0.273473
vt 0.048162 0.273473
vt 0.048162 0.273473
vt 0.048162 0.273473
vt 0.048162 0.273473
vt 0.048162 0.273473
vt 0.048162 0.273473
vt 0.048162 0.273473
vt 0.048162 0.273473
vt 0.048162 0.273473
vt 0.048162 0.273473
vt 0.048162 0.273473
vt 0.048162 0.273473
vt 0.048162 0.273473
vt 0.048162 0.273473
vt 0.048162 0.273473
vt 0.048162 0.273473
vt 0.048162 0.273473
vt 0.048162 0.273473
vt 0.048162 0.273473
vt 0.048162 0.273473
vt 0.048162 0.273473
vt 0.048162 0.273473
vt 0.048162 0.273473
vt 0.048162 0.273473
vt 0.048162 0.273473
vt 0.048162 0.273473
vt 0.048162 0.273473
vt 0.048162 0.273473
vt 0.048162 0.273473
vt 0.048162 0.273473
vt 0.048162 0.273473
vt 0.048162 0.273473
vt 0.011710 0.005855
vt 0.011710 0.005855
vt 0.011710 0.005855
vt 0.011710 0.005855
vt 0.011710 0.005855
vt 0.011710 0.005855
vt 0.011710 0.005855
vt 0.011710 0.005855
vt 0.048162 0.272365
vt 0.048162 0.272365
vt 0.048162 0.272365
vt 0.048162 0.272365
vt 0.048162 0.272365
vt 0.048162 0.272365
vt 0.048162 0.272365
vt 0.048162 0.272365
vt 0.048162 0.272365
vt 0.048162 0.272365
vt 0.048162 0.272365
vt 0.048162 0.272365
vt 0.048162 0.272365
vt 0.048162 0.272365
vt 0.048162 0.272365
vt 0.048162 0.272365
vt 0.048162 0.273473
vt 0.048162 0.273473
vt 0.048162 0.273473
vt 0.048162 0.273473
vt 0.048162 0.273473
vt 0.048162 0.273473
vt 0.048162 0.273473
vt 0.048162 0.273473
vt 0.048162 0.273473
vt 0.048162 0.272365
vt 0.048162 0.273473
vt 0.048162 0.272365
vt 0.048162 0.272365
vt 0.048162 0.273473
vt 0.048162 0.273473
vt 0.048162 0.273473
vt 0.048162 0.272365
vt 0.048162 0.273473
vt 0.048162 0.272365
vt 0.048162 0.273473
vt 0.048162 0.272365
vt 0.048162 0.272365
vt 0.048162 0.273473
vt 0.048162 0.273473
vt 0.048162 0.273473
vt 0.048162 0.273473
vt 0.048162 0.272365
vt 0.048162 0.272365
vt 0.048162 0.272365
vt 0.048162 0.272365
vt 0.048162 0.272365
vt 0.048162 0.272365
vt 0.048162 0.272365
vt 0.048162 0.272365
vt 0.048162 0.272365
vt 0.048162 0.272365
vt 0.048162 0.272365
vt 0.048162 0.272365
vt 0.048162 0.272365
vt 0.048162 0.272365
vt 0.048162 0.272365
vt 0.048162 0.272365
vt 0.048162 0.272365
vt 0.048162 0.272365
vt 0.048162 0.272365
vt 0.048162 0.273473
vt 0.048162 0.273473
vt 0.048162 0.273473
vt 0.048162 0.273473
vt 0.048162 0.273473
vt 0.048162 0.273473
vt 0.048162 0.273473
vt 0.048162 0.273473
vt 0.048162 0.273473
vt 0.048162 0.273473
vt 0.048162 0.273473
vn 0.000000 0.000000 1.000000
vn 0.000000 0.000000 1.000000
vn 0.000000 0.000000 1.000000
vn 0.000000 0.000000 1.000000
vn 0.000000 0.000000 1.000000
vn 0.000000 0.000000 1.000000
vn 0.000000 0.000000 1.000000
vn 0.000000 0.000000 1.000000
vn 0.000000 0.000000 1.000000
vn 0.000000 0.000000 1.000000
vn 0.000000 0.000000 1.000000
vn 0.000000 0.000000 1.000000
vn 0.000000 0.000000 1.000000
vn 0.000000 0.000000 1.000000
vn 0.000000 0.000000 1.000000
vn 0.000000 0.000000 1.000000
vn 0.000000 0.000000 1.000000
vn 0.000000 0.000000 1.000000
vn 0.000000 0.000000 1.000000
vn 0.000000 0.000000 1.000000
vn 0.000000 0.000000 1.000000
vn 0.000000 0.000000 1.000000
vn -0.000000 0.000000 1.000000
vn -0.000000 0.000000 1.000000
vn -0.000000 0.000000 1.000000
vn -0.000000 0.000000 1.000000
vn 0.000000 0.000000 1.000000
vn 0.000000 0.000000 1.000000
vn 0.000000 0.000000 1.000000
vn 0.000000 0.000000 1.000000
vn 0.000000 0.000000 1.000000
vn 0.000000 0.000000 1.000000
vn 0.000000 0.000000 1.000000
vn 0.000000 0.000000 1.000000
vn 0.000000 0.000000 1.000000
vn 0.000000 0.000000 1.000000
vn 0.000000 0.000000 1.000000
vn 0.000000 0.000000 1.000000
vn 0.000000 0.000000 1.000000
vn 0.000000 0.000000 1.000000
vn 0.000000 0.000000 1.000000
vn 0.000000 0.000000 1.000000
vn 0.000000 0.000000 1.000000
vn 0.000000 0.000000 1.000000
vn 0.000000 0.000000 1.000000
vn 0.000000 0.000000 1.000000
vn 0.042389 -0.932186 0.359490
vn 0.042389 -0.932186 0.359490
vn 0.042389 -0.932186 0.359490
vn 0.042389 -0.932186 0.359490
vn 0.781849 -0.473454 0.405652
vn 0.781849 -0.473454 0.405652
vn 0.781849 -0.473454 0.405652
vn 0.781849 -0.473454 0.405653
vn 0.739365 0.515515 0.433109
vn 0.739365 0.515515 0.433109
vn 0.739365 0.515515 0.433109
vn 0.739365 0.515515 0.433109
vn -0.844966 0.468336 0.258252
vn -0.844966 0.468336 0.258252
vn -0.844966 0.468336 0.258252
vn -0.844966 0.468336 0.258252
vn -0.808037 -0.379925 0.450259
vn -0.808037 -0.379925 0.450259
vn -0.808037 -0.379925 0.450259
vn -0.808037 -0.379925 0.450259
vn 0.972586 -0.087684 0.215380
vn 0.972586 -0.087684 0.215380
vn 0.972586 -0.087684 0.215380
vn 0.972586 -0.087684 0.215380
vn 0.000000 0.912208 0.409728
vn 0.000000 0.912208 0.409728
vn 0.000000 0.912208 0.409728
vn 0.000000 0.912208 0.409728
vn -0.972586 -0.087682 0.215380
vn -0.972586 -0.087682 0.215380
vn -0.972586 -0.087682 0.215380
vn -0.972586 -0.087682 0.215380
vn 0.324353 0.783057 0.530675
vn 0.324353 0.783057 0.530675
vn 0.324353 0.783057 0.530675
vn 0.324353 0.783057 0.530675
vn -0.324353 0.783057 0.530675
vn -0.324353 0.783057 0.530675
vn -0.324353 0.783057 0.530675
vn -0.324353 0.783057 0.530675
vn -0.783058 0.324354 0.530673
vn -0.783058 0.324354 0.530674
vn -0.783058 0.324354 0.530673
vn -0.783058 0.324354 0.530673
vn -0.783058 0.324354 0.530674
vn -0.783058 0.324354 0.530674
vn -0.783058 0.324354 0.530674
vn -0.783058 -0.324353 0.530674
vn -0.783058 -0.324353 0.530674
vn -0.783058 -0.324353 0.530674
vn -0.783058 -0.324353 0.530674
vn -0.324353 -0.783058 0.530673
vn -0.324353 -0.783059 0.530673
vn -0.324353 -0.783058 0.530673
vn -0.324353 -0.783058 0.530673
vn 0.324353 -0.783058 0.530675
vn 0.324353 -0.783058 0.530675
vn 0.324353 -0.783058 0.530675
vn 0.324353 -0.783058 0.530675
vn 0.783058 -0.324353 0.530674
vn 0.783058 -0.324353 0.530674
vn 0.783058 -0.324353 0.530674
vn 0.783058 -0.324353 0.530674
vn 0.783058 -0.324353 0.530674
vn 0.783058 -0.324353 0.530674
vn 0.783058 -0.324353 0.530674
vn 0.783058 0.324353 0.530674
vn 0.783058 0.324354 0.530674
vn 0.783058 0.324354 0.530674
vn 0.783058 0.324354 0.530674
vn 0.000001 -0.000000 1.000000
vn 0.000001 -0.000000 1.000000
vn 0.000001 -0.000000 1.000000
vn 0.000001 -0.000000 1.000000
vn 0.000001 -0.000000 1.000000
vn 0.000001 -0.000000 1.000000
vn 0.000000 0.000000 1.000000
vn 0.000000 0.000000 1.000000
vn 0.000000 0.000000 1.000000
vn -0.000001 0.000000 1.000000
vn -0.000001 0.000000 1.000000
vn -0.000001 0.000000 1.000000
vn -0.000001 0.000000 1.000000
vn -0.000001 0.000000 1.000000
vn -0.000001 0.000000 1.000000
vn 0.000000 0.000000 1.000000
vn 0.000000 0.000000 1.000000
vn 0.000000 0.000000 1.000000
vn 0.372700 -0.315918 0.872520
vn 0.372700 -0.315918 0.872520
vn 0.372700 -0.315918 0.872520
vn 0.552640 -0.028056 0.832948
vn 0.552640 -0.028056 0.832948
vn 0.552640 -0.028056 0.832948
vn -0.547468 -0.005900 0.836806
vn -0.547468 -0.005900 0.836806
vn -0.547468 -0.005900 0.836806
vn -0.354201 0.348084 0.867974
vn -0.354201 0.348084 0.867974
vn -0.354201 0.348084 0.867974
vn 0.000000 0.000000 1.000000
vn 0.000000 0.000000 1.000000
vn 0.000000 0.000000 1.000000
vn 0.000000 0.000000 1.000000
vn 0.345008 0.868429 0.356091
vn 0.345009 0.868429 0.356091
vn 0.345009 0.868429 0.356091
vn 0.345009 0.868429 0.356091
vn -0.348194 0.865020 0.361250
vn -0.348194 0.865020 0.361250
vn -0.348194 0.865020 0.361250
vn -0.348194 0.865020 0.361250
vn -0.348194 0.865020 0.361250
vn -0.348194 0.865020 0.361250
vn -0.880327 0.329679 0.341081
vn -0.880327 0.329680 0.341081
vn -0.880327 0.329680 0.341081
vn -0.880327 0.329680 0.341081
vn -0.872944 -0.361242 0.327832
vn -0.872944 -0.361242 0.327832
vn -0.872944 -0.361242 0.327832
vn -0.872944 -0.361242 0.327832
vn -0.347158 -0.881985 0.318722
vn -0.347158 -0.881985 0.318722
vn -0.347158 -0.881985 0.318722
vn -0.347158 -0.881985 0.318722
vn 0.355333 -0.883448 0.305382
vn 0.355333 -0.883448 0.305382
vn 0.355333 -0.883448 0.305382
vn 0.355333 -0.883448 0.305382
vn 0.893665 -0.347554 0.283848
vn 0.893665 -0.347554 0.283848
vn 0.893665 -0.347554 0.283848
vn 0.893665 -0.347554 0.283848
vn 0.887064 0.322944 0.329887
vn 0.887064 0.322944 0.329887
vn 0.887064 0.322944 0.329887
vn 0.887064 0.322944 0.329887
vn 0.000000 0.000000 -1.000000
vn 0.000000 0.000000 -1.000000
vn 0.000000 0.000000 -1.000000
vn 0.000000 0.000000 -1.000000
vn 0.000000 0.000000 -1.000000
vn 0.000000 0.000000 -1.000000
vn -0.000000 0.000000 -1.000000
vn -0.000000 0.000000 -1.000000
vn -0.000000 0.000000 -1.000000
vn 0.000000 0.000000 -1.000000
vn 0.000000 0.000000 -1.000000
vn 0.000000 0.000000 -1.000000
vn 0.000000 0.000000 -1.000000
vn 0.000000 0.000000 -1.000000
vn 0.000000 0.000000 -1.000000
vn -0.000000 0.000000 -1.000000
vn -0.000000 0.000000 -1.000000
vn -0.000000 0.000000 -1.000000
vn 0.000000 0.000000 -1.000000
vn 0.000000 0.000000 -1.000000
vn 0.000000 0.000000 -1.000000
vn 0.000000 0.000000 -1.000000
vn 0.000000 0.000000 -1.000000
vn 0.000000 0.000000 -1.000000
vn 0.000000 0.000000 1.000000
vn 0.000000 0.000000 1.000000
vn 0.000000 0.000000 1.000000
vn 0.000000 0.000000 1.000000
vn 0.000000 0.000000 1.000000
vn 0.000000 0.000000 1.000000
vn 0.000000 0.000000 1.000000
vn 0.000000 0.000000 1.000000
vn 0.000000 0.000000 1.000000
vn 0.000000 0.000000 1.000000
vn 0.000000 0.000000 1.000000
vn 0.000000 0.000000 1.000000
vn 0.000000 0.000000 1.000000
vn 0.000000 0.000000 1.000000
vn -0.202493 0.811577 0.548033
vn -0.202493 0.811577 0.548033
vn -0.202493 0.811577 0.548033
vn -0.419342 0.700095 0.577944
vn -0.419342 0.700095 0.577944
vn -0.419342 0.700095 0.577944
s off
f 13/3/1 14/46/2 15/47/3
f 14/46/4 16/48/5 15/47/6
f 16/48/7 17/49/8 15/47/9
f 17/49/10 18/50/11 15/47/12
f 18/50/13 19/51/14 15/47/15
f 19/51/16 13/3/17 15/47/18
f 18/50/19 17/49/20 20/52/21 21/53/22
f 4/12/23 3/13/24 1/14/25 2/15/26
f 5/16/27 4/17/28 2/18/29
f 1/19/30 8/20/31 7/21/32 10/22/33 12/23/34
f 3/24/35 8/25/36 1/26/37
f 2/27/38 11/28/39 9/29/40 6/30/41 5/31/42
f 10/32/43 9/33/44 11/34/45 12/35/46
f 3/36/47 4/37/48 14/2/49 13/1/50
f 4/37/51 5/38/52 16/4/53 14/2/54
f 5/38/55 6/39/56 17/5/57 16/4/58
f 7/40/59 8/41/60 19/7/61 18/6/62
f 8/41/63 3/36/64 13/1/65 19/7/66
f 6/42/67 9/43/68 20/10/69 17/9/70
f 9/43/71 10/44/72 21/11/73 20/10/74
f 10/44/75 7/45/76 18/8/77 21/11/78
f 22/54/79 23/55/80 30/56/81 1/57/82
f 23/55/83 24/58/84 2/59/85 30/56/86
f 24/58/87 25/60/88 31/61/89 39/88/90 41/90/91 38/86/92 2/59/93
f 25/60/94 26/62/95 11/63/96 31/61/97
f 26/62/98 27/64/99 32/65/100 11/63/101
f 27/64/102 28/66/103 12/67/104 32/65/105
f 28/66/106 29/68/107 33/69/108 35/81/109 36/82/110 34/79/111 12/67/112
f 29/68/113 22/54/114 1/57/115 33/69/116
f 33/70/117 1/71/118 12/72/119 34/78/120 37/83/121 35/80/122
f 32/73/123 12/72/124 11/74/125
f 11/74/126 2/75/127 38/85/128 40/89/129 39/87/130 31/76/131
f 2/75/132 1/71/133 30/77/134
f 35/80/135 37/83/136 36/84/137
f 36/84/138 37/83/139 34/78/140
f 38/86/141 41/90/142 40/91/143
f 40/91/144 41/90/145 39/88/146
f 44/92/147 45/93/148 42/94/149 43/95/150
f 46/96/151 47/97/152 54/98/153 42/99/154
f 47/97/155 48/100/156 43/101/157 59/102/158 61/103/159 54/98/160
f 48/100/161 49/104/162 55/105/163 43/101/164
f 49/104/165 50/106/166 44/107/167 55/105/168
f 50/106/169 51/108/170 56/109/171 44/107/172
f 51/108/173 52/110/174 45/111/175 56/109/176
f 52/110/177 53/112/178 57/113/179 45/111/180
f 53/112/181 46/96/182 42/99/183 57/113/184
f 47/97/185 46/96/186 58/114/187
f 48/100/188 47/97/189 58/114/190
f 49/104/191 48/100/192 58/114/193
f 50/106/194 49/104/195 58/114/196
f 51/108/197 50/106/198 58/114/199
f 52/110/200 51/108/201 58/114/202
f 53/112/203 52/110/204 58/114/205
f 46/96/206 53/112/207 58/114/208
f 57/115/209 42/116/210 45/117/211
f 56/118/212 45/117/213 44/119/214
f 44/119/215 43/120/216 55/121/217
f 43/120/218 42/116/219 54/122/220 60/123/221 59/124/222
f 59/124/223 60/123/224 61/125/225
f 61/125/226 60/123/227 54/122/228
