# This file uses centimeters as units for non-parametric coordinates.

v 11.505631 0.000000 0.339705
v 8.375920 0.000000 -7.895505
v 0.339705 0.000000 -11.505632
v -7.895504 0.000000 -8.375921
v -11.505631 0.000000 -0.339706
v -8.375920 0.000000 7.895504
v -0.339702 0.000000 11.505635
v 7.895504 0.000000 8.375919
v -0.000000 0.000000 -0.000001
v 13.212948 2.812554 0.390117
v 9.618821 2.812554 -9.067118
v 0.390110 2.812554 -13.212949
v -9.067121 2.812554 -9.618827
v -13.212948 2.812554 -0.390119
v -9.618822 2.812554 9.067116
v -0.390111 2.812554 13.212948
v 9.067120 2.812554 9.618825
v -13.212948 25.464016 -0.390119
v -9.618822 22.325567 9.067116
v -0.390111 22.580885 13.212948
v 9.067120 23.752722 9.618825
v 13.212948 26.917994 0.390117
v 9.618821 24.970245 -9.067118
v 0.390110 24.286438 -13.212949
v -9.067121 24.490105 -9.618827
v -2.839324 24.533764 12.112700
v 11.163350 23.166447 -5.003012
v -3.428720 26.336374 -11.761646
v 11.278640 31.097092 0.333003
v 8.210674 31.097092 -7.739737
v 7.946507 34.892784 -7.490721
v 10.915787 34.892784 0.322286
v 0.333003 31.097092 -11.278641
v 0.322294 34.892784 -10.915788
v -7.739737 31.097092 -8.210675
v -7.490728 34.892784 -7.946516
v -11.278640 31.097092 -0.333004
v -10.915787 35.387264 -0.322287
v -8.210675 31.097092 7.739736
v -7.946515 34.892784 7.490727
v -0.333004 31.097092 11.278639
v -0.322294 34.892784 10.915786
v 7.739736 31.097092 8.210674
v 7.490728 34.892784 7.946514
v -0.000000 36.266907 -0.000001
v 14.242579 29.526846 0.303583
v 10.323936 29.526844 -10.007504
v 0.413885 29.526846 -14.018175
v -9.619687 29.526846 -10.205014
v -14.018183 29.526844 -0.413886
v -10.205014 29.526846 9.619686
v -0.588675 29.526846 14.284163
v 9.722423 29.526844 10.365533
v 14.733947 27.913593 0.331824
v 12.885727 24.391888 -5.824187
v 10.683474 25.915277 -10.380935
v 0.425207 25.355543 -14.521322
v -4.094863 27.108477 -13.250582
v -9.954673 25.540916 -10.578963
v -14.501604 26.603853 -0.409052
v -10.556959 23.586035 9.990961
v -3.996291 25.964182 13.748937
v -0.614645 23.778786 14.800643
v 10.049046 24.849043 10.774331
v 8.113014 33.498562 -7.647678
v 0.329047 33.498562 -11.144502
v -7.647682 33.498562 -8.113019
v -11.144493 33.498562 -0.329047
v -8.113023 33.498562 7.647685
v -0.329043 33.498562 11.144505
v 7.647681 33.498562 8.113018
v 11.144501 33.498562 0.329039
v 8.630958 32.504620 -8.135914
v 0.350045 32.504620 -11.855963
v -8.135914 32.504620 -8.630959
v -11.855970 32.504620 -0.350046
v -8.630959 32.504620 8.135913
v -0.350053 32.504620 11.855968
v 8.135914 32.504620 8.630958
v 11.855961 32.504620 0.350052
vt 0.100353 0.375229
vt 0.100258 0.375116
vt 0.100259 0.375027
vt 0.100355 0.375127
vt 0.100407 0.375031
vt 0.100409 0.374952
vt 0.100674 0.375003
vt 0.100676 0.374927
vt 0.100951 0.375036
vt 0.100954 0.374956
vt 0.101124 0.375125
vt 0.101128 0.375035
vt 0.101056 0.375237
vt 0.101060 0.375135
vt 0.100710 0.375290
vt 0.100713 0.375182
vt 0.217646 0.492280
vt 0.217367 0.492256
vt 0.217396 0.492366
vt 0.217806 0.492357
vt 0.217733 0.492451
vt 0.217432 0.492501
vt 0.217104 0.492466
vt 0.216980 0.492375
vt 0.217101 0.492292
vt 0.100692 0.375020
vt 0.100293 0.375350
vt 0.100192 0.375203
vt 0.100375 0.375100
vt 0.100671 0.375066
vt 0.100976 0.375106
vt 0.101175 0.375216
vt 0.101118 0.375361
vt 0.100712 0.375433
vt 0.217367 0.492198
vt 0.217647 0.492221
vt 0.217808 0.492294
vt 0.217734 0.492383
vt 0.217432 0.492430
vt 0.217103 0.492397
vt 0.216978 0.492311
vt 0.217100 0.492232
vt 0.217433 0.491861
vt 0.217096 0.491920
vt 0.216969 0.491861
vt 0.217094 0.491787
vt 0.217366 0.491702
vt 0.217653 0.491755
vt 0.217818 0.491812
vt 0.217743 0.491858
vt 0.217002 0.491828
vt 0.217529 0.491788
vt 0.217788 0.491786
vt 0.100206 0.375374
vt 0.100179 0.375274
vt 0.100368 0.375170
vt 0.100493 0.375120
vt 0.100668 0.375129
vt 0.100981 0.375160
vt 0.101179 0.375336
vt 0.101167 0.375408
vt 0.101122 0.375499
vt 0.100711 0.375557
vt 0.100279 0.375401
vt 0.100330 0.375399
vt 0.100275 0.375391
vt 0.100236 0.375296
vt 0.100393 0.375199
vt 0.100507 0.375148
vt 0.100669 0.375159
vt 0.100956 0.375185
vt 0.101131 0.375359
vt 0.101086 0.375419
vt 0.101061 0.375505
vt 0.100703 0.375550
vt 0.100259 0.375083
vt 0.100408 0.375001
vt 0.100675 0.374975
vt 0.100952 0.375006
vt 0.101126 0.375092
vt 0.101057 0.375199
vt 0.100711 0.375250
vt 0.100354 0.375192
vt 0.047211 0.300201
vt 0.047469 0.300249
vt 0.047452 0.300228
vt 0.047205 0.300184
vt 0.047497 0.300324
vt 0.047477 0.300296
vt 0.047180 0.300379
vt 0.047172 0.300347
vt 0.046718 0.300362
vt 0.046731 0.300331
vt 0.046497 0.300290
vt 0.046518 0.300266
vt 0.046598 0.300224
vt 0.046613 0.300205
vt 0.046881 0.300192
vt 0.046885 0.300176
vt 0.047205 0.300220
vt 0.047454 0.300269
vt 0.047480 0.300344
vt 0.047173 0.300399
vt 0.046728 0.300382
vt 0.046514 0.300310
vt 0.046610 0.300243
vt 0.046884 0.300211
vn 0.924207 0.149912 -0.351238
vn 0.924207 0.149912 -0.351238
vn 0.924207 0.149912 -0.351238
vn 0.924207 0.149912 -0.351238
vn 0.405153 0.149913 -0.901874
vn 0.405153 0.149913 -0.901874
vn 0.405153 0.149913 -0.901874
vn 0.405153 0.149913 -0.901874
vn -0.351237 0.149911 -0.924208
vn -0.351237 0.149911 -0.924208
vn -0.351237 0.149911 -0.924208
vn -0.351237 0.149911 -0.924208
vn -0.903173 0.127730 -0.409834
vn -0.903173 0.127730 -0.409834
vn -0.903173 0.127730 -0.409834
vn -0.903173 0.127730 -0.409834
vn -0.925780 0.127730 0.355833
vn -0.925780 0.127730 0.355833
vn -0.925780 0.127730 0.355833
vn -0.925780 0.127730 0.355833
vn -0.405151 0.149913 0.901875
vn -0.405151 0.149913 0.901875
vn -0.405151 0.149914 0.901875
vn -0.405151 0.149914 0.901875
vn 0.351237 0.149913 0.924207
vn 0.351237 0.149913 0.924207
vn 0.351237 0.149913 0.924207
vn 0.351237 0.149913 0.924207
vn 0.901875 0.149911 0.405152
vn 0.901875 0.149911 0.405152
vn 0.901875 0.149911 0.405152
vn 0.901875 0.149911 0.405152
vn 0.000000 -1.000000 0.000000
vn 0.000000 -1.000000 0.000000
vn 0.000000 -1.000000 0.000000
vn 0.000000 -1.000000 0.000000
vn 0.000000 -1.000000 0.000000
vn 0.000000 -1.000000 0.000000
vn 0.000000 -1.000000 0.000000
vn 0.000000 -1.000000 0.000000
vn 0.000000 -1.000000 0.000000
vn 0.000000 -1.000000 0.000000
vn 0.000000 -1.000000 0.000000
vn 0.000000 -1.000000 0.000000
vn 0.000000 -1.000000 0.000000
vn 0.000000 -1.000000 0.000000
vn 0.000000 -1.000000 0.000000
vn 0.000000 -1.000000 0.000000
vn 0.000000 -1.000000 0.000000
vn 0.000000 -1.000000 0.000000
vn 0.000000 -1.000000 0.000000
vn 0.000000 -1.000000 0.000000
vn 0.000000 -1.000000 0.000000
vn 0.000000 -1.000000 0.000000
vn 0.000000 -1.000000 0.000000
vn 0.000000 -1.000000 0.000000
vn 0.126148 0.990852 -0.047942
vn 0.126148 0.990852 -0.047942
vn 0.126148 0.990852 -0.047942
vn 0.055301 0.990852 -0.123100
vn 0.055301 0.990852 -0.123100
vn 0.055301 0.990852 -0.123100
vn -0.047941 0.990852 -0.126148
vn -0.047941 0.990852 -0.126148
vn -0.047941 0.990852 -0.126148
vn -0.077027 0.992107 -0.098948
vn -0.077027 0.992107 -0.098948
vn -0.077027 0.992107 -0.098948
vn -0.082731 0.992107 0.094231
vn -0.082731 0.992107 0.094231
vn -0.082731 0.992107 0.094231
vn -0.055301 0.990852 0.123100
vn -0.055301 0.990852 0.123100
vn -0.055301 0.990852 0.123100
vn 0.047941 0.990852 0.126148
vn 0.047941 0.990852 0.126148
vn 0.047941 0.990852 0.126148
vn 0.123100 0.990852 0.055301
vn 0.123100 0.990852 0.055301
vn 0.123100 0.990852 0.055301
vn 0.459595 0.870784 -0.174665
vn 0.459595 0.870784 -0.174665
vn 0.459595 0.870784 -0.174665
vn 0.459595 0.870784 -0.174665
vn 0.194620 0.867096 -0.458549
vn 0.194620 0.867096 -0.458549
vn 0.194620 0.867096 -0.458549
vn 0.194620 0.867096 -0.458549
vn -0.187225 0.849851 -0.492646
vn -0.187225 0.849851 -0.492646
vn -0.187225 0.849851 -0.492646
vn -0.187225 0.849851 -0.492646
vn -0.480741 0.849852 -0.215964
vn -0.480741 0.849852 -0.215964
vn -0.480741 0.849852 -0.215964
vn -0.480741 0.849852 -0.215964
vn -0.492645 0.849852 0.187225
vn -0.492645 0.849852 0.187225
vn -0.492645 0.849852 0.187225
vn -0.492645 0.849852 0.187225
vn -0.214078 0.863570 0.456528
vn -0.214078 0.863570 0.456528
vn -0.214078 0.863570 0.456528
vn -0.214078 0.863570 0.456528
vn 0.177679 0.865938 0.467526
vn 0.177679 0.865938 0.467526
vn 0.177679 0.865938 0.467526
vn 0.177679 0.865938 0.467526
vn 0.459655 0.863758 0.206492
vn 0.459655 0.863758 0.206492
vn 0.459655 0.863758 0.206492
vn 0.459655 0.863758 0.206492
vn 0.909056 0.131383 -0.395418
vn 0.909056 0.131383 -0.395419
vn 0.909056 0.131383 -0.395418
vn 0.369040 0.121368 -0.921455
vn 0.369040 0.121368 -0.921455
vn 0.369039 0.121368 -0.921455
vn 0.369040 0.121368 -0.921455
vn -0.333649 0.343391 -0.877930
vn -0.333649 0.343391 -0.877930
vn -0.333649 0.343391 -0.877930
vn -0.902367 0.128863 -0.411253
vn -0.902367 0.128863 -0.411253
vn -0.902367 0.128863 -0.411253
vn -0.902367 0.128863 -0.411253
vn -0.924818 0.102701 0.366284
vn -0.924818 0.102701 0.366284
vn -0.924818 0.102701 0.366284
vn -0.924818 0.102701 0.366284
vn -0.420014 0.271648 0.865907
vn -0.420014 0.271648 0.865907
vn -0.420014 0.271648 0.865907
vn 0.348550 0.092825 0.932682
vn 0.348550 0.092825 0.932682
vn 0.348550 0.092825 0.932682
vn 0.348550 0.092825 0.932682
vn 0.894238 0.145674 0.423222
vn 0.894238 0.145674 0.423222
vn 0.894238 0.145674 0.423222
vn 0.894238 0.145674 0.423222
vn 0.815221 -0.489314 -0.309817
vn 0.815221 -0.489314 -0.309817
vn 0.815221 -0.489314 -0.309817
vn 0.815221 -0.489314 -0.309817
vn 0.357374 -0.489314 -0.795522
vn 0.357374 -0.489314 -0.795522
vn 0.357374 -0.489314 -0.795522
vn 0.357374 -0.489314 -0.795522
vn -0.309816 -0.489315 -0.815221
vn -0.309816 -0.489315 -0.815221
vn -0.309816 -0.489315 -0.815221
vn -0.309816 -0.489315 -0.815220
vn -0.795522 -0.489315 -0.357374
vn -0.795522 -0.489315 -0.357374
vn -0.795522 -0.489315 -0.357374
vn -0.795522 -0.489315 -0.357374
vn -0.815221 -0.489314 0.309817
vn -0.815221 -0.489314 0.309817
vn -0.815221 -0.489314 0.309817
vn -0.815221 -0.489314 0.309817
vn -0.357374 -0.489314 0.795522
vn -0.357374 -0.489314 0.795522
vn -0.357374 -0.489314 0.795522
vn -0.357374 -0.489314 0.795522
vn 0.309817 -0.489315 0.815221
vn 0.309817 -0.489315 0.815221
vn 0.309817 -0.489315 0.815221
vn 0.309817 -0.489314 0.815221
vn 0.795522 -0.489315 0.357374
vn 0.795522 -0.489315 0.357374
vn 0.795522 -0.489315 0.357374
vn 0.795522 -0.489315 0.357374
vn -0.934771 0.000000 0.355250
vn -0.934771 0.000000 0.355250
vn -0.934771 0.000000 0.355250
vn -0.934771 0.000000 0.355250
vn -0.409781 -0.000001 0.912184
vn -0.409781 -0.000001 0.912184
vn -0.409781 -0.000001 0.912184
vn -0.409781 -0.000001 0.912184
vn 0.355250 0.000000 0.934771
vn 0.355250 0.000000 0.934771
vn 0.355250 0.000000 0.934771
vn 0.355250 0.000000 0.934771
vn 0.912184 0.000000 0.409782
vn 0.912184 0.000000 0.409782
vn 0.912184 0.000000 0.409782
vn 0.912184 0.000000 0.409782
vn 0.934771 -0.000000 -0.355251
vn 0.934771 -0.000000 -0.355251
vn 0.934771 -0.000000 -0.355251
vn 0.934771 -0.000000 -0.355251
vn 0.409782 0.000000 -0.912184
vn 0.409782 0.000000 -0.912184
vn 0.409782 0.000000 -0.912184
vn 0.409782 0.000000 -0.912184
vn -0.355250 -0.000000 -0.934771
vn -0.355250 -0.000000 -0.934771
vn -0.355250 -0.000000 -0.934771
vn -0.355250 -0.000000 -0.934771
vn -0.912184 0.000000 -0.409782
vn -0.912184 0.000000 -0.409782
vn -0.912184 0.000000 -0.409782
vn -0.912184 0.000000 -0.409782
vn 0.592894 -0.756410 0.276260
vn 0.592894 -0.756410 0.276260
vn 0.592895 -0.756410 0.276260
vn 0.592895 -0.756410 0.276260
vn 0.303443 -0.837199 -0.454995
vn 0.303443 -0.837199 -0.454995
vn 0.303443 -0.837199 -0.454995
vn 0.303443 -0.837199 -0.454995
vn 0.270033 -0.814973 -0.512738
vn 0.270033 -0.814973 -0.512738
vn 0.270033 -0.814973 -0.512738
vn 0.270033 -0.814973 -0.512738
vn -0.485292 -0.776615 -0.401697
vn -0.485292 -0.776615 -0.401697
vn -0.485292 -0.776615 -0.401697
vn -0.485292 -0.776615 -0.401697
vn -0.009387 -0.804987 -0.593219
vn -0.009387 -0.804987 -0.593219
vn -0.009387 -0.804987 -0.593219
vn -0.009387 -0.804987 -0.593219
vn -0.644445 -0.734781 -0.211632
vn -0.644445 -0.734781 -0.211632
vn -0.644445 -0.734781 -0.211632
vn -0.644445 -0.734781 -0.211632
vn -0.720554 -0.690852 0.059375
vn -0.720554 -0.690852 0.059375
vn -0.720554 -0.690852 0.059375
vn -0.720554 -0.690852 0.059375
vn -0.098353 -0.725065 0.681621
vn -0.098353 -0.725065 0.681621
vn -0.098353 -0.725065 0.681621
vn -0.098353 -0.725065 0.681621
vn -0.623890 -0.714979 0.315543
vn -0.623890 -0.714979 0.315543
vn -0.623889 -0.714979 0.315543
vn -0.623890 -0.714979 0.315543
vn 0.298881 -0.771024 0.562310
vn 0.298881 -0.771024 0.562310
vn 0.298881 -0.771024 0.562310
vn 0.298881 -0.771024 0.562310
vn 0.631009 -0.774851 0.037876
vn 0.631009 -0.774851 0.037876
vn 0.631009 -0.774851 0.037876
vn 0.631009 -0.774851 0.037876
vn -0.518008 0.083887 0.851252
vn -0.518009 0.083887 0.851252
vn -0.518009 0.083887 0.851252
vn -0.243596 0.087888 0.965886
vn -0.243596 0.087888 0.965886
vn -0.243596 0.087888 0.965886
vn 0.913605 0.188510 -0.360264
vn 0.913605 0.188510 -0.360264
vn 0.913605 0.188510 -0.360264
vn 0.913605 0.188510 -0.360264
vn -0.226858 0.116024 -0.966992
vn -0.226858 0.116024 -0.966992
vn -0.226858 0.116024 -0.966992
vn -0.438309 0.120402 -0.890724
vn -0.438309 0.120402 -0.890724
vn -0.438309 0.120402 -0.890724
vn -0.409784 0.000000 0.912183
vn -0.409784 0.000000 0.912182
vn -0.409784 0.000000 0.912183
vn 0.934772 0.000000 -0.355249
vn 0.934772 0.000000 -0.355249
vn 0.934772 0.000000 -0.355249
vn -0.355251 0.000000 -0.934771
vn -0.355251 0.000000 -0.934771
vn -0.355251 0.000000 -0.934771
vn 0.341756 0.551773 -0.760756
vn 0.341756 0.551773 -0.760756
vn 0.341756 0.551773 -0.760756
vn 0.341756 0.551773 -0.760756
vn -0.296278 0.551776 -0.779592
vn -0.296278 0.551776 -0.779592
vn -0.296278 0.551776 -0.779592
vn -0.296278 0.551776 -0.779592
vn -0.760753 0.551777 -0.341755
vn -0.760753 0.551777 -0.341755
vn -0.760753 0.551777 -0.341755
vn -0.760753 0.551777 -0.341755
vn -0.779591 0.551777 0.296276
vn -0.779591 0.551777 0.296276
vn -0.779591 0.551777 0.296276
vn -0.779591 0.551777 0.296276
vn -0.341756 0.551773 0.760756
vn -0.341756 0.551773 0.760756
vn -0.341756 0.551773 0.760756
vn -0.341756 0.551773 0.760756
vn 0.296278 0.551774 0.779593
vn 0.296278 0.551775 0.779593
vn 0.296278 0.551775 0.779592
vn 0.296278 0.551775 0.779593
vn 0.760755 0.551774 0.341757
vn 0.760755 0.551773 0.341757
vn 0.760755 0.551773 0.341757
vn 0.760755 0.551774 0.341757
vn 0.779593 0.551774 -0.296277
vn 0.779593 0.551774 -0.296277
vn 0.779593 0.551774 -0.296277
vn 0.779593 0.551774 -0.296277
vn 0.383171 -0.354491 -0.852945
vn 0.383171 -0.354491 -0.852945
vn 0.383171 -0.354491 -0.852946
vn 0.383171 -0.354491 -0.852946
vn -0.332180 -0.354491 -0.874067
vn -0.332180 -0.354491 -0.874067
vn -0.332180 -0.354491 -0.874067
vn -0.332180 -0.354491 -0.874067
vn -0.852945 -0.354493 -0.383170
vn -0.852945 -0.354493 -0.383170
vn -0.852945 -0.354493 -0.383170
vn -0.852945 -0.354493 -0.383170
vn -0.874065 -0.354494 0.332180
vn -0.874065 -0.354494 0.332180
vn -0.874065 -0.354494 0.332180
vn -0.874065 -0.354494 0.332180
vn -0.383171 -0.354494 0.852944
vn -0.383171 -0.354494 0.852944
vn -0.383171 -0.354494 0.852944
vn -0.383171 -0.354494 0.852944
vn 0.332179 -0.354493 0.874066
vn 0.332179 -0.354492 0.874066
vn 0.332179 -0.354493 0.874066
vn 0.332179 -0.354492 0.874066
vn 0.852946 -0.354492 0.383170
vn 0.852946 -0.354492 0.383170
vn 0.852946 -0.354492 0.383170
vn 0.852946 -0.354492 0.383170
vn 0.874067 -0.354491 -0.332181
vn 0.874067 -0.354491 -0.332181
vn 0.874067 -0.354491 -0.332181
vn 0.874067 -0.354491 -0.332181
s off
f 72/83/1 65/76/2 31/3/3 32/4/4
f 65/76/5 66/77/6 34/6/7 31/3/8
f 66/77/9 67/78/10 36/8/11 34/6/12
f 67/78/13 68/79/14 38/10/15 36/8/16
f 68/79/17 69/80/18 40/12/19 38/10/20
f 69/80/21 70/81/22 42/14/23 40/12/24
f 70/81/25 71/82/26 44/16/27 42/14/28
f 71/82/29 72/83/30 32/4/31 44/16/32
f 2/17/33 1/18/34 9/19/35
f 3/20/36 2/17/37 9/19/38
f 4/21/39 3/20/40 9/19/41
f 5/22/42 4/21/43 9/19/44
f 6/23/45 5/22/46 9/19/47
f 7/24/48 6/23/49 9/19/50
f 8/25/51 7/24/52 9/19/53
f 1/18/54 8/25/55 9/19/56
f 32/4/57 31/3/58 45/26/59
f 31/3/60 34/6/61 45/26/62
f 34/6/63 36/8/64 45/26/65
f 36/8/66 38/10/67 45/26/68
f 38/10/69 40/12/70 45/26/71
f 40/12/72 42/14/73 45/26/74
f 42/14/75 44/16/76 45/26/77
f 44/16/78 32/4/79 45/26/80
f 46/27/81 47/28/82 30/2/83 29/1/84
f 47/28/85 48/29/86 33/5/87 30/2/88
f 48/29/89 49/30/90 35/7/91 33/5/92
f 49/30/93 50/31/94 37/9/95 35/7/96
f 50/31/97 51/32/98 39/11/99 37/9/100
f 51/32/101 52/33/102 41/13/103 39/11/104
f 52/33/105 53/34/106 43/15/107 41/13/108
f 53/34/109 46/27/110 29/1/111 43/15/112
f 47/28/113 55/54/114 56/55/115
f 56/55/116 57/56/117 48/29/118 47/28/119
f 48/29/120 58/57/121 49/30/122
f 59/58/123 60/59/124 50/31/125 49/30/126
f 60/59/127 61/60/128 51/32/129 50/31/130
f 51/32/131 62/61/132 52/33/133
f 63/62/134 64/63/135 53/34/136 52/33/137
f 64/63/138 54/64/139 46/27/140 53/34/141
f 1/18/142 2/17/143 11/36/144 10/35/145
f 2/17/146 3/20/147 12/37/148 11/36/149
f 3/20/150 4/21/151 13/38/152 12/37/153
f 4/21/154 5/22/155 14/39/156 13/38/157
f 5/22/158 6/23/159 15/40/160 14/39/161
f 6/23/162 7/24/163 16/41/164 15/40/165
f 7/24/166 8/25/167 17/42/168 16/41/169
f 8/25/170 1/18/171 10/35/172 17/42/173
f 14/39/174 15/40/175 19/44/176 18/43/177
f 15/40/178 16/41/179 20/45/180 26/51/181
f 16/41/182 17/42/183 21/46/184 20/45/185
f 17/42/186 10/35/187 22/47/188 21/46/189
f 10/35/190 11/36/191 23/48/192 27/52/193
f 11/36/194 12/37/195 24/49/196 23/48/197
f 12/37/198 13/38/199 28/53/200 24/49/201
f 13/38/202 14/39/203 18/43/204 25/50/205
f 22/65/206 27/66/207 55/54/208 54/64/209
f 27/66/210 23/67/211 56/55/212 55/54/213
f 23/67/214 24/68/215 57/56/216 56/55/217
f 24/68/218 28/69/219 58/57/220 57/56/221
f 28/69/222 25/70/223 59/58/224 58/57/225
f 25/70/226 18/71/227 60/59/228 59/58/229
f 18/71/230 19/72/231 61/60/232 60/59/233
f 19/72/234 26/73/235 62/61/236 61/60/237
f 26/73/238 20/74/239 63/62/240 62/61/241
f 20/74/242 21/75/243 64/63/244 63/62/245
f 21/75/246 22/65/247 54/64/248 64/63/249
f 61/60/250 62/61/251 51/32/252
f 52/33/253 62/61/254 63/62/255
f 54/64/256 55/54/257 47/28/258 46/27/259
f 57/56/260 58/57/261 48/29/262
f 49/30/263 58/57/264 59/58/265
f 15/40/266 26/51/267 19/44/268
f 10/35/269 27/52/270 22/47/271
f 28/53/272 13/38/273 25/50/274
f 73/84/275 74/85/276 66/86/277 65/87/278
f 74/85/279 75/88/280 67/89/281 66/86/282
f 75/88/283 76/90/284 68/91/285 67/89/286
f 76/90/287 77/92/288 69/93/289 68/91/290
f 77/92/291 78/94/292 70/95/293 69/93/294
f 78/94/295 79/96/296 71/97/297 70/95/298
f 79/96/299 80/98/300 72/99/301 71/97/302
f 80/98/303 73/84/304 65/87/305 72/99/306
f 30/100/307 33/101/308 74/85/309 73/84/310
f 33/101/311 35/102/312 75/88/313 74/85/314
f 35/102/315 37/103/316 76/90/317 75/88/318
f 37/103/319 39/104/320 77/92/321 76/90/322
f 39/104/323 41/105/324 78/94/325 77/92/326
f 41/105/327 43/106/328 79/96/329 78/94/330
f 43/106/331 29/107/332 80/98/333 79/96/334
f 29/107/335 30/100/336 73/84/337 80/98/338
