# This file uses centimeters as units for non-parametric coordinates.

v 4.227935 6.223411 1.098341
v -4.227931 6.223411 1.098341
v 0.838681 3.568953 1.098341
v -1.107947 3.777342 1.098341
v -1.622711 2.147870 1.098341
v -0.802248 0.726786 1.098341
v 0.838676 0.726786 1.098341
v 1.886193 1.953965 1.098341
v -1.158787 -3.010801 1.098341
v 1.195196 -3.010801 1.098341
v -4.374474 -6.389211 0.618955
v 4.227935 -6.223411 1.098341
v 0.698611 3.370190 0.405946
v -0.662183 3.370191 0.405946
v 0.018214 2.083443 0.405946
v -1.342581 2.083443 0.405946
v -0.662183 0.796695 0.405946
v 0.698611 0.796695 0.405946
v 1.379004 2.083443 0.405946
v -0.957845 -2.699806 0.405946
v 0.994263 -2.699807 0.405946
v 4.899439 6.983155 -1.098341
v -4.899445 6.983155 -1.098341
v -4.899445 -6.983156 -1.098341
v 4.899439 -6.983156 -1.098341
v 1.404341 6.223411 1.098341
v -3.344016 6.223411 1.098341
v -0.765616 5.665733 1.098340
v -1.257809 6.477446 0.363838
v 4.227935 2.932460 1.098341
v 4.227935 -5.087799 1.098341
v 4.492581 -2.873178 0.232619
v 3.684951 -2.783925 1.098340
v -4.227931 -4.305717 1.098341
v -3.078830 -5.277456 1.098341
v -2.826741 -6.223411 1.098341
vt 0.048162 0.273473
vt 0.048162 0.273473
vt 0.011710 0.005855
vt 0.048162 0.273473
vt 0.048162 0.273473
vt 0.048162 0.273473
vt 0.048162 0.273473
vt 0.048162 0.273473
vt 0.048162 0.273473
vt 0.048162 0.273473
vt 0.048162 0.273473
vt 0.048162 0.273473
vt 0.048162 0.273473
vt 0.048162 0.273473
vt 0.048162 0.273473
vt 0.048162 0.273473
vt 0.048162 0.273473
vt 0.048162 0.273473
vt 0.048162 0.273473
vt 0.048162 0.273473
vt 0.048162 0.273473
vt 0.048162 0.273473
vt 0.048162 0.273473
vt 0.048162 0.273473
vt 0.048162 0.273473
vt 0.048162 0.273473
vt 0.048162 0.273473
vt 0.048162 0.273473
vt 0.048162 0.273473
vt 0.048162 0.273473
vt 0.048162 0.273473
vt 0.048162 0.273473
vt 0.048162 0.273473
vt 0.048162 0.273473
vt 0.048162 0.273473
vt 0.048162 0.273473
vt 0.048162 0.273473
vt 0.048162 0.273473
vt 0.048162 0.273473
vt 0.048162 0.273473
vt 0.048162 0.273473
vt 0.048162 0.273473
vt 0.048162 0.273473
vt 0.048162 0.273473
vt 0.048162 0.273473
vt 0.048162 0.273473
vt 0.048162 0.273473
vt 0.048162 0.273473
vt 0.048162 0.273473
vt 0.048162 0.273473
vt 0.048162 0.273473
vt 0.048162 0.273473
vt 0.048162 0.273473
vt 0.048162 0.273473
vt 0.048162 0.273473
vt 0.011710 0.005855
vt 0.011710 0.005855
vt 0.011710 0.005855
vt 0.011710 0.005855
vt 0.011710 0.005855
vt 0.011710 0.005855
vt 0.011710 0.005855
vt 0.011710 0.005855
vt 0.048162 0.273473
vt 0.048162 0.273473
vt 0.048162 0.273473
vt 0.048162 0.273473
vt 0.048162 0.273473
vt 0.048162 0.273473
vt 0.048162 0.273473
vt 0.048162 0.273473
vt 0.048162 0.273473
vt 0.048162 0.273473
vt 0.048162 0.273473
vt 0.048162 0.273473
vt 0.048162 0.273473
vt 0.048162 0.273473
vt 0.048162 0.273473
vt 0.048162 0.273473
vt 0.048162 0.273473
vt 0.048162 0.273473
vt 0.048162 0.273473
vt 0.048162 0.273473
vn 0.000000 0.000000 1.000000
vn 0.000000 0.000000 1.000000
vn 0.000000 0.000000 1.000000
vn 0.000000 0.000000 1.000000
vn 0.000000 0.000000 1.000000
vn 0.000000 0.000000 1.000000
vn 0.000000 0.000000 1.000000
vn 0.000000 0.000000 1.000000
vn 0.000000 0.000000 1.000000
vn -0.000000 0.000000 1.000000
vn -0.000000 0.000000 1.000000
vn -0.000000 0.000000 1.000000
vn 0.000000 0.000000 1.000000
vn 0.000000 0.000000 1.000000
vn 0.000000 0.000000 1.000000
vn 0.000000 0.000000 1.000000
vn 0.000000 0.000000 1.000000
vn 0.000000 0.000000 1.000000
vn 0.000000 0.000000 1.000000
vn 0.000000 0.000000 1.000000
vn 0.000000 0.000000 1.000000
vn 0.000000 0.000000 1.000000
vn 0.000000 0.000000 1.000000
vn 0.000000 0.000000 1.000000
vn 0.000000 0.000000 1.000000
vn 0.000000 0.000000 1.000000
vn 0.000000 0.000000 1.000000
vn 0.000000 0.000000 1.000000
vn 0.000000 0.000000 1.000000
vn -0.000000 0.000000 1.000000
vn -0.000000 0.000000 1.000000
vn -0.000000 0.000000 1.000000
vn 0.000000 0.000000 1.000000
vn 0.000000 0.000000 1.000000
vn 0.000000 0.000000 1.000000
vn 0.000000 0.000000 1.000000
vn 0.000000 0.000000 1.000000
vn 0.000000 0.000000 1.000000
vn 0.000000 0.000000 1.000000
vn 0.000000 0.000000 1.000000
vn -0.000000 0.000000 1.000000
vn -0.000000 0.000000 1.000000
vn -0.000000 0.000000 1.000000
vn -0.000000 0.000000 1.000000
vn -0.000000 0.000000 1.000000
vn -0.000000 0.000000 1.000000
vn -0.000000 0.000000 1.000000
vn -0.000000 0.000000 1.000000
vn -0.000000 0.000000 1.000000
vn 0.000000 0.000000 1.000000
vn 0.000000 0.000000 1.000000
vn 0.000000 0.000000 1.000000
vn 0.000000 0.000000 1.000000
vn 0.000000 0.000000 1.000000
vn -0.057918 -0.919235 0.389426
vn -0.057918 -0.919235 0.389426
vn -0.057918 -0.919235 0.389426
vn -0.057918 -0.919235 0.389426
vn 0.788469 -0.323141 0.523351
vn 0.788469 -0.323141 0.523351
vn 0.788469 -0.323141 0.523351
vn 0.788469 -0.323141 0.523351
vn 0.844967 0.468337 0.258247
vn 0.844967 0.468337 0.258248
vn 0.844967 0.468337 0.258248
vn 0.844967 0.468337 0.258248
vn -0.746768 0.513280 0.422945
vn -0.746768 0.513279 0.422945
vn -0.746768 0.513280 0.422945
vn -0.746768 0.513280 0.422945
vn -0.790126 -0.470499 0.392850
vn -0.790126 -0.470499 0.392850
vn -0.790126 -0.470499 0.392850
vn -0.790126 -0.470499 0.392850
vn 0.972585 -0.087685 0.215382
vn 0.972585 -0.087685 0.215382
vn 0.972585 -0.087685 0.215382
vn 0.972585 -0.087685 0.215382
vn 0.000000 0.912209 0.409725
vn 0.000000 0.912209 0.409726
vn 0.000000 0.912209 0.409725
vn 0.000000 0.912209 0.409726
vn -0.972587 -0.087681 0.215377
vn -0.972587 -0.087681 0.215377
vn -0.972587 -0.087681 0.215377
vn -0.972587 -0.087681 0.215377
vn -0.956315 -0.000000 0.292340
vn -0.956315 -0.000000 0.292340
vn -0.956314 -0.000000 0.292340
vn -0.956315 -0.000000 0.292340
vn -0.956315 -0.000000 0.292340
vn 0.956316 0.000000 0.292336
vn 0.956316 0.000000 0.292336
vn 0.956316 0.000000 0.292336
vn 0.956316 0.000000 0.292336
vn 0.956316 0.000000 0.292336
vn 0.956316 0.000000 0.292336
vn 0.956316 0.000000 0.292336
vn 0.000000 0.000000 -1.000000
vn 0.000000 0.000000 -1.000000
vn 0.000000 0.000000 -1.000000
vn 0.000000 0.000000 -1.000000
vn 0.000000 0.000000 -1.000000
vn 0.000000 0.000000 -1.000000
vn 0.000000 0.945072 0.326863
vn 0.000000 0.945072 0.326863
vn 0.000000 0.945072 0.326863
vn 0.000000 0.945072 0.326863
vn 0.000000 0.945072 0.326863
vn 0.000000 0.945072 0.326863
vn 0.000000 0.945072 0.326863
vn -0.000000 -0.945072 0.326863
vn -0.000000 -0.945072 0.326863
vn -0.000000 -0.945072 0.326863
vn -0.000000 -0.945072 0.326863
vn -0.000000 -0.945072 0.326863
vn -0.156474 0.608846 0.777703
vn -0.156474 0.608846 0.777703
vn -0.156474 0.608846 0.777703
vn 0.154149 0.712699 0.684323
vn 0.154149 0.712699 0.684323
vn 0.154149 0.712699 0.684323
vn 0.725918 -0.068953 0.684316
vn 0.725918 -0.068953 0.684316
vn 0.725918 -0.068953 0.684316
vn 0.729111 0.171840 0.662471
vn 0.729111 0.171840 0.662471
vn 0.729111 0.171840 0.662471
vn -0.176645 -0.208886 0.961854
vn -0.176645 -0.208886 0.961854
vn -0.176645 -0.208886 0.961854
vn -0.287500 -0.076616 0.954711
vn -0.287500 -0.076616 0.954711
vn -0.287500 -0.076616 0.954711
s off
f 13/3/1 14/56/2 15/57/3
f 14/56/4 16/58/5 15/57/6
f 16/58/7 17/59/8 15/57/9
f 17/59/10 18/60/11 15/57/12
f 18/60/13 19/61/14 15/57/15
f 19/61/16 13/3/17 15/57/18
f 18/60/19 17/59/20 20/62/21 21/63/22
f 4/12/23 3/13/24 1/14/25 26/64/26 28/68/27 27/66/28 2/15/29
f 5/16/30 4/17/31 2/18/32
f 1/19/33 8/20/34 7/21/35 10/22/36 12/23/37 31/74/38 33/76/39 30/72/40
f 3/24/41 8/25/42 1/26/43
f 2/27/44 34/78/45 35/81/46 9/29/47 6/30/48 5/31/49
f 10/32/50 9/33/51 35/80/52 36/82/53 12/35/54
f 3/36/55 4/37/56 14/2/57 13/1/58
f 4/37/59 5/38/60 16/4/61 14/2/62
f 5/38/63 6/39/64 17/5/65 16/4/66
f 7/40/67 8/41/68 19/7/69 18/6/70
f 8/41/71 3/36/72 13/1/73 19/7/74
f 6/42/75 9/43/76 20/10/77 17/9/78
f 9/43/79 10/44/80 21/11/81 20/10/82
f 10/44/83 7/45/84 18/8/85 21/11/86
f 11/47/87 34/79/88 2/48/89 23/49/90 24/50/91
f 1/51/92 30/71/93 32/75/94 31/73/95 12/52/96 25/53/97 22/54/98
f 25/55/99 24/50/100 22/54/101
f 24/50/102 23/46/103 22/54/104
f 2/15/105 27/67/106 29/69/107 26/65/108 1/51/109 22/54/110 23/49/111
f 12/35/112 36/83/113 11/47/114 24/50/115 25/53/116
f 29/70/117 28/68/118 26/64/119
f 27/66/120 28/68/121 29/70/122
f 33/77/123 32/75/124 30/71/125
f 31/73/126 32/75/127 33/77/128
f 35/81/129 34/78/130 11/28/131
f 36/82/132 35/80/133 11/34/134
