# This file uses centimeters as units for non-parametric coordinates.

v -39.394424 -1.979890 119.781143
v 33.888062 -6.554638 120.157272
v -44.780899 -6.055063 -124.543068
v -22.565399 11.622562 -56.332047
v 32.521790 -7.824885 16.812805
v 47.038147 -9.593951 0.288895
v -48.621597 -3.993388 90.959244
v 47.500031 -8.777631 93.484024
v 17.847168 -9.897308 125.635086
v 44.626678 -1.627360 -105.488647
v 23.610718 8.600230 -75.378807
v -27.687927 -7.303624 135.036575
v -19.345825 5.046686 93.068970
v -27.859528 4.542865 -95.954514
v -22.891266 -6.940355 -131.448059
v 24.990906 3.529799 52.003281
v -49.696960 -3.309137 -100.679466
v -40.712357 0.217344 -93.049393
v 33.239807 -0.901340 -94.781403
v -39.136826 -7.149880 5.094421
v 11.937897 5.428299 96.157837
v -23.125366 2.566816 25.848068
v 8.889282 5.293876 -35.617622
v 25.516907 9.917448 -24.840591
v 40.752350 0.891460 -16.971588
v 8.131927 -2.322108 1.229599
v -6.279480 3.734639 -66.695068
v 12.741394 7.081037 -93.034103
v 23.066345 1.449850 -105.089218
v 30.455261 -0.665839 -121.547470
v 36.365814 -8.014129 -129.493973
v 38.246124 4.709553 -60.652390
v -66.558533 -27.213600 -141.850739
v -27.135941 -29.140333 -156.128098
v -82.622147 -28.833633 -102.743736
v -64.118134 -28.556316 15.006042
v 75.458527 -30.855185 -122.416931
v 70.688568 -31.553810 -0.123749
v -71.460754 -31.929882 78.458710
v 78.319916 -30.552647 92.690338
v -30.547134 -28.744871 165.135437
v 34.024475 -31.925861 154.014191
v 56.896820 -30.457249 -151.207169
v -66.314667 -29.541178 140.355316
v 60.423126 -30.889107 143.804321
v -50.293213 -5.180711 -132.689362
v -22.499023 -10.610163 -143.811066
v 41.759949 -14.321166 -140.147247
v 54.032501 -6.337044 -113.708473
v 52.683136 -17.411222 0.112350
v 56.561066 -14.590023 91.636139
v 42.480896 -12.463961 132.229767
v 23.318665 -18.459661 140.397888
v -26.059113 -9.495766 150.661987
v -48.031631 -5.231164 130.057205
v -54.194672 -12.563773 82.284363
v -48.673965 -8.964432 13.895447
v -60.025482 -4.739707 -100.256073
vt 0.036566 0.276601
vt 0.036276 0.276486
vt 0.036943 0.275889
vt 0.036390 0.276330
vt 0.036700 0.276177
vt 0.036512 0.276580
vt 0.036540 0.276391
vt 0.036922 0.275749
vt 0.036874 0.275866
vt 0.036355 0.276236
vt 0.036903 0.275965
vt 0.036922 0.275857
vt 0.036706 0.275716
vt 0.036759 0.276236
vt 0.036839 0.275791
vt 0.036430 0.276136
vt 0.036471 0.276162
vt 0.036599 0.276539
vt 0.036330 0.276396
vt 0.036368 0.276522
vt 0.036685 0.275804
vt 0.036662 0.275727
vt 0.036673 0.275859
vt 0.036551 0.275923
vt 0.036521 0.275998
vt 0.036540 0.276152
vt 0.036803 0.275778
vt 0.036760 0.275735
vt 0.036772 0.275726
vt 0.036750 0.275756
vt 0.036729 0.275818
vt 0.036649 0.275811
vt 0.432274 0.177017
vt 0.432174 0.176994
vt 0.432222 0.177008
vt 0.432340 0.177035
vt 0.432269 0.177070
vt 0.432336 0.177098
vt 0.432085 0.177282
vt 0.432125 0.177354
vt 0.431847 0.176970
vt 0.431633 0.177166
vt 0.431589 0.177213
vt 0.431841 0.176980
vt 0.431986 0.177488
vt 0.432009 0.177611
vt 0.431445 0.177355
vt 0.431359 0.177444
vt 0.431537 0.177479
vt 0.431780 0.177554
vt 0.431759 0.177697
vt 0.431465 0.177600
vt 0.431893 0.176949
vt 0.431895 0.176955
vt 0.431906 0.177552
vt 0.431912 0.177694
vt 0.431432 0.177423
vt 0.431339 0.177529
vt 0.432313 0.177028
vt 0.432203 0.177002
vt 0.431894 0.176953
vt 0.431843 0.176977
vt 0.431606 0.177194
vt 0.431393 0.177408
vt 0.431376 0.177486
vt 0.431494 0.177552
vt 0.431767 0.177640
vt 0.431909 0.177637
vt 0.432000 0.177562
vt 0.432109 0.177325
vt 0.432310 0.177087
vn -0.038869 0.960664 0.274980
vn -0.038869 0.960664 0.274980
vn -0.038869 0.960664 0.274980
vn -0.008598 0.999301 -0.036382
vn -0.008598 0.999301 -0.036382
vn -0.008598 0.999301 -0.036382
vn -0.061051 0.947135 -0.314972
vn -0.061051 0.947135 -0.314972
vn -0.061051 0.947135 -0.314972
vn 0.375953 0.919446 0.115229
vn 0.375953 0.919447 0.115229
vn 0.375953 0.919446 0.115229
vn 0.374628 0.924453 0.070999
vn 0.374628 0.924453 0.070999
vn 0.374628 0.924453 0.070999
vn -0.240226 0.957496 -0.159665
vn -0.240226 0.957496 -0.159665
vn -0.240226 0.957496 -0.159665
vn -0.344170 0.928346 -0.140431
vn -0.344170 0.928346 -0.140431
vn -0.344170 0.928346 -0.140431
vn -0.341078 0.932216 -0.120994
vn -0.341078 0.932216 -0.120994
vn -0.341078 0.932216 -0.120994
vn 0.316214 0.925684 -0.207651
vn 0.316214 0.925684 -0.207651
vn 0.316214 0.925684 -0.207651
vn -0.418649 0.905074 0.074661
vn -0.418649 0.905074 0.074661
vn -0.418649 0.905074 0.074661
vn -0.582396 0.809873 0.070143
vn -0.582396 0.809873 0.070143
vn -0.582396 0.809873 0.070143
vn -0.641086 0.763314 0.079744
vn -0.641086 0.763314 0.079744
vn -0.641087 0.763314 0.079744
vn -0.078662 0.985479 -0.150477
vn -0.078662 0.985479 -0.150477
vn -0.078662 0.985479 -0.150477
vn 0.290309 0.956260 -0.035874
vn 0.290309 0.956260 -0.035874
vn 0.290309 0.956260 -0.035874
vn -0.437961 0.895311 -0.081291
vn -0.437961 0.895311 -0.081291
vn -0.437961 0.895311 -0.081291
vn -0.293759 0.955696 -0.018740
vn -0.293759 0.955696 -0.018740
vn -0.293759 0.955696 -0.018740
vn 0.629332 0.768820 -0.113391
vn 0.629332 0.768820 -0.113391
vn 0.629332 0.768819 -0.113391
vn 0.110582 0.993824 -0.009253
vn 0.110582 0.993824 -0.009253
vn 0.110582 0.993824 -0.009253
vn -0.296789 0.954523 0.028332
vn -0.296789 0.954523 0.028332
vn -0.296789 0.954523 0.028332
vn 0.054058 0.954959 0.291773
vn 0.054058 0.954959 0.291773
vn 0.054058 0.954959 0.291773
vn 0.140372 0.889702 0.434427
vn 0.140372 0.889702 0.434427
vn 0.140372 0.889702 0.434427
vn -0.025539 0.884854 0.465167
vn -0.025539 0.884854 0.465167
vn -0.025539 0.884854 0.465167
vn 0.002891 0.999109 -0.042104
vn 0.002891 0.999109 -0.042104
vn 0.002891 0.999109 -0.042104
vn 0.035433 0.746741 -0.664171
vn 0.035433 0.746741 -0.664171
vn 0.035433 0.746741 -0.664171
vn -0.027552 0.965414 -0.259260
vn -0.027552 0.965414 -0.259260
vn -0.027552 0.965414 -0.259260
vn -0.027552 0.965414 -0.259260
vn -0.024447 0.897563 -0.440208
vn -0.024447 0.897563 -0.440208
vn -0.024447 0.897563 -0.440208
vn 0.319551 0.925697 -0.202416
vn 0.319551 0.925697 -0.202416
vn 0.319551 0.925697 -0.202416
vn 0.051508 0.990016 -0.131207
vn 0.051508 0.990016 -0.131207
vn 0.051508 0.990016 -0.131207
vn -0.258579 0.965867 -0.015421
vn -0.258579 0.965867 -0.015421
vn -0.258579 0.965867 -0.015421
vn 0.126256 0.985935 0.109504
vn 0.126256 0.985935 0.109504
vn 0.126256 0.985935 0.109504
vn 0.302449 0.932184 0.198890
vn 0.302450 0.932184 0.198890
vn 0.302449 0.932184 0.198890
vn 0.358536 0.879070 0.314146
vn 0.358536 0.879070 0.314146
vn 0.358536 0.879070 0.314146
vn 0.471202 0.819481 0.326220
vn 0.471202 0.819481 0.326220
vn 0.471202 0.819481 0.326220
vn 0.346377 0.911906 -0.220113
vn 0.346377 0.911906 -0.220113
vn 0.346377 0.911906 -0.220113
vn -0.370465 0.911100 0.180701
vn -0.370465 0.911100 0.180701
vn -0.370465 0.911100 0.180701
vn -0.153442 0.987833 0.025332
vn -0.153442 0.987833 0.025332
vn -0.153442 0.987833 0.025332
vn -0.067754 0.994692 0.077447
vn -0.067754 0.994692 0.077447
vn -0.067754 0.994692 0.077447
vn -0.157296 0.987480 0.011868
vn -0.157296 0.987480 0.011868
vn -0.157296 0.987480 0.011868
vn 0.336671 0.914061 -0.226155
vn 0.336671 0.914061 -0.226155
vn 0.336671 0.914061 -0.226155
vn 0.336671 0.914061 -0.226155
vn 0.241019 0.970380 -0.016536
vn 0.241019 0.970380 -0.016536
vn 0.241019 0.970380 -0.016536
vn 0.258808 0.950587 -0.171474
vn 0.258808 0.950587 -0.171474
vn 0.258808 0.950587 -0.171474
vn 0.258808 0.950587 -0.171474
vn -0.047757 0.916045 0.398222
vn -0.047757 0.916045 0.398222
vn -0.047757 0.916045 0.398222
vn 0.490690 0.870017 0.047893
vn 0.490690 0.870017 0.047893
vn 0.490690 0.870017 0.047893
vn 0.861291 0.508087 -0.005006
vn 0.861291 0.508087 -0.005006
vn 0.861291 0.508087 -0.005006
vn 0.795061 0.605906 0.027508
vn 0.795061 0.605906 0.027508
vn 0.795061 0.605906 0.027508
vn 0.441553 0.872733 -0.208250
vn 0.441553 0.872733 -0.208250
vn 0.441553 0.872733 -0.208250
vn -0.242333 0.548588 -0.800203
vn -0.242333 0.548588 -0.800203
vn -0.242333 0.548588 -0.800203
vn -0.242333 0.548588 -0.800203
vn -0.710035 0.660117 -0.245144
vn -0.710035 0.660117 -0.245144
vn -0.710035 0.660117 -0.245144
vn -0.710035 0.660117 -0.245144
vn -0.751435 0.650938 0.107822
vn -0.751435 0.650938 0.107822
vn -0.751435 0.650938 0.107822
vn -0.751435 0.650938 0.107822
vn 0.705255 0.706931 0.053526
vn 0.705255 0.706931 0.053526
vn 0.705255 0.706931 0.053526
vn 0.705255 0.706931 0.053526
vn -0.763828 0.644151 -0.040456
vn -0.763828 0.644151 -0.040456
vn -0.763828 0.644151 -0.040456
vn -0.763828 0.644151 -0.040456
vn 0.603434 0.795570 -0.054173
vn 0.603434 0.795570 -0.054173
vn 0.603434 0.795570 -0.054173
vn 0.603435 0.795570 -0.054173
vn 0.205954 0.659707 0.722752
vn 0.205954 0.659707 0.722752
vn 0.205954 0.659706 0.722752
vn 0.205954 0.659707 0.722752
vn 0.066724 0.571666 -0.817769
vn 0.066724 0.571666 -0.817768
vn 0.066724 0.571667 -0.817769
vn 0.066724 0.571667 -0.817768
vn -0.467303 0.608843 0.641045
vn -0.467303 0.608843 0.641045
vn -0.467303 0.608843 0.641045
vn -0.467303 0.608843 0.641045
vn 0.605615 0.771212 0.196118
vn 0.605615 0.771212 0.196118
vn 0.605615 0.771212 0.196118
vn 0.605615 0.771212 0.196118
vn -0.773637 0.633188 0.023651
vn -0.773637 0.633188 0.023651
vn -0.773637 0.633188 0.023651
vn -0.773637 0.633188 0.023651
vn 0.171176 0.700791 0.692525
vn 0.171176 0.700791 0.692525
vn 0.171176 0.700791 0.692525
vn 0.171176 0.700791 0.692525
vn 0.567236 0.711675 -0.414442
vn 0.567236 0.711675 -0.414442
vn 0.567236 0.711676 -0.414442
vn 0.567236 0.711676 -0.414442
vn 0.070192 0.985900 -0.151903
vn 0.070192 0.985900 -0.151903
vn 0.070192 0.985900 -0.151903
vn 0.070192 0.985900 -0.151903
vn 0.053228 0.921023 -0.385853
vn 0.053228 0.921023 -0.385853
vn 0.053228 0.921023 -0.385853
vn 0.053228 0.921023 -0.385853
vn 0.227804 0.908077 -0.351428
vn 0.227804 0.908077 -0.351428
vn 0.227804 0.908077 -0.351428
vn 0.227804 0.908077 -0.351428
vn 0.658650 0.749904 0.061837
vn 0.658650 0.749904 0.061837
vn 0.658650 0.749904 0.061837
vn 0.658650 0.749904 0.061837
vn 0.677189 0.735181 -0.030387
vn 0.677189 0.735181 -0.030387
vn 0.677189 0.735181 -0.030387
vn 0.677189 0.735181 -0.030387
vn 0.487609 0.860925 0.145075
vn 0.487609 0.860925 0.145075
vn 0.487609 0.860925 0.145075
vn 0.487609 0.860925 0.145075
vn -0.040677 0.870381 0.490696
vn -0.040677 0.870381 0.490696
vn -0.040677 0.870381 0.490696
vn -0.040677 0.870381 0.490696
vn 0.174981 0.940308 0.291894
vn 0.174981 0.940308 0.291894
vn 0.174981 0.940308 0.291894
vn 0.174981 0.940308 0.291894
vn 0.046118 0.974996 0.217382
vn 0.046118 0.974996 0.217382
vn 0.046118 0.974996 0.217382
vn 0.046118 0.974996 0.217382
vn -0.636902 0.770195 0.033994
vn -0.636902 0.770195 0.033994
vn -0.636902 0.770195 0.033994
vn -0.636902 0.770195 0.033994
vn -0.565917 0.822777 -0.052689
vn -0.565917 0.822777 -0.052689
vn -0.565917 0.822777 -0.052689
vn -0.565917 0.822777 -0.052689
vn -0.138333 0.989120 0.050057
vn -0.138333 0.989120 0.050057
vn -0.138333 0.989120 0.050057
vn -0.138333 0.989120 0.050057
vn -0.006657 0.998280 -0.058244
vn -0.006657 0.998280 -0.058244
vn -0.006657 0.998280 -0.058244
vn -0.006657 0.998280 -0.058244
s off
f 13/7/1 12/6/2 21/4/3
f 13/7/4 21/4/5 22/5/6
f 14/8/7 15/9/8 3/3/9
f 2/2/10 8/19/11 21/4/12
f 21/4/13 8/19/14 16/10/15
f 17/11/16 18/12/17 3/3/18
f 3/3/19 18/12/20 14/8/21
f 18/12/22 4/15/23 14/8/24
f 14/8/25 4/15/26 27/27/27
f 18/12/28 17/11/29 20/14/30
f 18/12/31 20/14/32 22/5/33
f 22/5/34 4/15/35 18/12/36
f 19/13/37 32/32/38 10/21/39
f 24/24/40 32/32/41 11/22/42
f 20/14/43 7/18/44 22/5/45
f 22/5/46 7/18/47 13/7/48
f 16/10/49 8/19/50 5/16/51
f 5/16/52 8/19/53 6/17/54
f 13/7/55 7/18/56 1/1/57
f 12/6/58 13/7/59 1/1/60
f 21/4/61 12/6/62 9/20/63
f 21/4/64 9/20/65 2/2/66
f 22/5/67 21/4/68 16/10/69
f 15/9/70 30/30/71 31/31/72
f 14/8/73 29/29/74 30/30/75 15/9/76
f 14/8/77 28/28/78 29/29/79
f 4/15/80 23/23/81 27/27/82
f 22/5/83 16/10/84 26/26/85
f 23/23/86 24/24/87 11/22/88
f 22/5/89 23/23/90 4/15/91
f 22/5/92 26/26/93 23/23/94
f 5/16/95 25/25/96 24/24/97
f 5/16/98 6/17/99 25/25/100
f 26/26/101 16/10/102 5/16/103
f 23/23/104 26/26/105 24/24/106
f 27/27/107 23/23/108 11/22/109
f 14/8/110 27/27/111 28/28/112
f 28/28/113 27/27/114 11/22/115
f 29/29/116 28/28/117 11/22/118 19/13/119
f 30/30/120 29/29/121 19/13/122
f 31/31/123 30/30/124 19/13/125 10/21/126
f 24/24/127 26/26/128 5/16/129
f 24/24/130 25/25/131 32/32/132
f 25/25/133 6/17/134 32/32/135
f 10/21/136 32/32/137 6/17/138
f 11/22/139 32/32/140 19/13/141
f 46/59/142 47/60/143 34/35/144 33/36/145
f 58/71/146 46/59/147 33/36/148 35/38/149
f 57/70/150 58/71/151 35/38/152 36/40/153
f 49/62/154 50/63/155 38/43/156 37/44/157
f 56/69/158 57/70/159 36/40/160 39/46/161
f 50/63/162 51/64/163 40/48/164 38/43/165
f 53/66/166 54/67/167 41/51/168 42/52/169
f 47/60/170 48/61/171 43/54/172 34/35/173
f 54/67/174 55/68/175 44/56/176 41/51/177
f 51/64/178 52/65/179 45/58/180 40/48/181
f 55/68/182 56/69/183 39/46/184 44/56/185
f 52/65/186 53/66/187 42/52/188 45/58/189
f 48/61/190 49/62/191 37/44/192 43/54/193
f 3/33/194 15/34/195 47/60/196 46/59/197
f 15/34/198 31/53/199 48/61/200 47/60/201
f 31/53/202 10/41/203 49/62/204 48/61/205
f 10/41/206 6/42/207 50/63/208 49/62/209
f 6/42/210 8/47/211 51/64/212 50/63/213
f 8/47/214 2/57/215 52/65/216 51/64/217
f 2/57/218 9/49/219 53/66/220 52/65/221
f 9/49/222 12/50/223 54/67/224 53/66/225
f 12/50/226 1/55/227 55/68/228 54/67/229
f 1/55/230 7/45/231 56/69/232 55/68/233
f 7/45/234 20/39/235 57/70/236 56/69/237
f 20/39/238 17/37/239 58/71/240 57/70/241
f 17/37/242 3/33/243 46/59/244 58/71/245
