# This file uses centimeters as units for non-parametric coordinates.

v 22.617207 -7.328003 -25.976170
v -0.198425 -1.678123 -32.492996
v -22.911884 -7.328003 -25.628620
v -32.210445 -7.327999 -8.412014
v 32.177490 -7.327999 -8.903530
v 22.617207 7.328003 -25.976170
v -0.198425 7.328003 -32.492992
v -22.911863 3.577187 -25.628614
v -32.210445 7.328003 -8.412014
v 32.177490 7.328003 -8.903530
v -38.124229 -7.327999 -6.213336
v -38.124229 7.328003 -6.213330
v 38.124176 -7.327999 -6.795398
v 38.124176 7.328003 -6.795399
v 18.908287 -7.328003 -18.973408
v -0.136230 -7.328003 -24.345631
v -19.096519 -7.328003 -18.683285
v -26.854383 -7.328003 -3.792240
v 26.892595 -7.328003 -4.202533
v -31.790869 -7.328007 -1.956920
v 31.856487 -7.328007 -2.442791
v 19.645756 7.328003 -20.093929
v -0.144775 7.328003 -25.460461
v -19.851017 7.328003 -19.792423
v -27.917803 7.328003 -4.899029
v 27.938984 7.328003 -5.325421
v -33.048645 7.328003 -3.062230
v 33.097298 7.328003 -3.567173
v 18.152107 -3.239090 -18.338444
v -0.130554 -3.239090 -23.604214
v -18.330757 -3.239090 -18.059940
v -25.774647 -3.239090 -3.345540
v 25.819813 -3.239090 -3.739392
v -30.513115 -3.239090 -1.544309
v 30.585203 -3.239090 -2.010716
v 18.152107 3.239090 -18.338451
v -0.130554 3.239090 -23.604218
v -18.330757 3.239090 -18.059940
v -25.774647 3.239090 -3.345538
v 25.819813 3.239090 -3.739398
v -30.513115 3.239090 -1.544314
v 30.585203 3.239090 -2.010715
v -14.474773 7.328003 -28.178471
v -20.903461 7.328003 -21.972469
v -27.823704 7.328003 -16.534214
v 18.807011 7.328003 -27.064476
v 9.657894 7.328003 -29.677731
v 13.768932 2.885674 -28.503536
v 13.606544 7.328003 -25.933643
v 10.187912 -7.328003 -29.481960
v -6.833598 -7.328003 -30.487751
v -0.171814 -7.328003 -29.009705
v -15.069123 3.239090 5.377306
v -7.516076 3.239090 4.058435
v 2.360794 3.239090 5.661043
v 9.642204 3.239090 4.062998
v 11.991841 3.239090 10.706606
v 2.938027 3.239090 10.073244
v -9.604465 3.239090 11.150148
v -15.277042 3.239090 9.860872
v -9.876656 3.239090 16.769312
v -1.386699 3.239090 17.481409
v 6.120031 3.239090 16.020449
v 9.510880 3.239090 19.937677
v 0.379051 3.239090 20.776865
v -12.256502 3.239090 20.584208
v -0.201693 3.239090 -3.540751
v -36.152016 -7.328003 28.137356
v -36.153236 7.328003 27.976994
v 36.706772 7.328003 31.533894
v 36.708664 -7.328003 31.788761
v -30.128225 -7.328003 28.857998
v 30.683954 -7.328003 30.940945
v -31.332960 7.328003 27.356304
v 31.874044 7.328003 30.523838
v -28.907452 -3.239090 29.294636
v 29.466845 -3.239090 30.978466
v -28.918804 3.239094 27.817402
v 29.464464 3.239092 30.673733
v -15.780083 3.239090 28.203617
v -14.692049 -3.239090 30.699909
v -6.691910 -3.239090 27.485277
v -8.378948 3.239090 24.560963
v 18.602474 3.239092 31.650890
v 17.554995 -3.239090 32.493000
vt 0.459393 0.202715
vt 0.459435 0.202705
vt 0.459395 0.202720
vt 0.459367 0.202730
vt 0.459561 0.202658
vt 0.459613 0.202683
vt 0.459735 0.202746
vt 0.459715 0.202760
vt 0.459647 0.202728
vt 0.459805 0.202931
vt 0.459783 0.202949
vt 0.459749 0.202861
vt 0.459326 0.202883
vt 0.459299 0.202899
vt 0.459851 0.202953
vt 0.459829 0.202971
vt 0.459256 0.202911
vt 0.459283 0.202895
vt 0.459845 0.203311
vt 0.459824 0.203331
vt 0.459261 0.203266
vt 0.459287 0.203257
vt 0.459562 0.202656
vt 0.459521 0.202671
vt 0.459393 0.202715
vt 0.459562 0.202656
vt 0.459735 0.202746
vt 0.459805 0.202931
vt 0.459326 0.202883
vt 0.459538 0.202671
vt 0.459538 0.202671
vt 0.459367 0.202730
vt 0.459712 0.202762
vt 0.459333 0.202816
vt 0.459331 0.202819
vt 0.459826 0.202941
vt 0.459827 0.202942
vt 0.459851 0.202953
vt 0.459829 0.202971
vt 0.459797 0.202956
vt 0.459809 0.202961
vt 0.459283 0.202904
vt 0.459299 0.202899
vt 0.459299 0.202899
vt 0.459256 0.202911
vt 0.459561 0.203593
vt 0.459709 0.203614
vt 0.459840 0.203632
vt 0.459840 0.203632
vt 0.459561 0.203593
vt 0.459291 0.203554
vt 0.459291 0.203554
vt 0.459283 0.202895
vt 0.459561 0.203593
vt 0.459824 0.203301
vt 0.459261 0.203306
vt 0.459851 0.155565
vt 0.459653 0.155621
vt 0.459653 0.155631
vt 0.459847 0.155574
vt 0.460053 0.155626
vt 0.460044 0.155635
vt 0.460133 0.155785
vt 0.460122 0.155795
vt 0.459573 0.155773
vt 0.459576 0.155783
vt 0.460186 0.155806
vt 0.460173 0.155815
vt 0.459524 0.155790
vt 0.459527 0.155800
vt 0.460145 0.156138
vt 0.460157 0.156123
vt 0.459540 0.156099
vt 0.459543 0.156111
vt 0.459625 0.155630
vt 0.459836 0.155570
vt 0.459840 0.155577
vt 0.459641 0.155635
vt 0.460050 0.155635
vt 0.460042 0.155639
vt 0.460135 0.155805
vt 0.460122 0.155804
vt 0.459541 0.155791
vt 0.459562 0.155791
vt 0.460191 0.155827
vt 0.460175 0.155825
vt 0.459489 0.155809
vt 0.459513 0.155809
vt 0.460161 0.156147
vt 0.460146 0.156140
vt 0.459529 0.156181
vt 0.459507 0.156185
vt 0.460072 0.155597
vt 0.460000 0.155526
vt 0.460097 0.155554
vt 0.460151 0.155660
vt 0.459727 0.155510
vt 0.459683 0.155552
vt 0.459689 0.155522
vt 0.459626 0.155540
vt 0.459852 0.155514
vt 0.459924 0.155498
vt 0.459847 0.155477
vt 0.459743 0.155510
vt 0.459464 0.202697
vt 0.459791 0.202953
vt 0.459783 0.202949
vt 0.459783 0.202949
vt 0.459543 0.202924
vt 0.459538 0.202671
vt 0.459712 0.202762
vt 0.459556 0.203204
vt 0.459518 0.203138
vt 0.459636 0.203168
vt 0.459638 0.203226
vt 0.459326 0.202883
vt 0.459805 0.202931
vt 0.459735 0.202746
vt 0.459562 0.202656
vt 0.459393 0.202715
vt 0.459287 0.203244
vt 0.459845 0.203329
vt 0.459851 0.202953
vt 0.459283 0.202895
vt 0.459822 0.203451
vt 0.459689 0.203152
vt 0.459685 0.203080
vt 0.459829 0.202971
vt 0.459686 0.155063
vt 0.459687 0.155226
vt 0.459475 0.155272
vt 0.459406 0.155014
vt 0.459661 0.203288
vt 0.459479 0.155472
vt 0.459561 0.155608
vt 0.459102 0.155611
vt 0.459168 0.155495
vt 0.459614 0.203052
vt 0.459432 0.203118
vt 0.459261 0.203317
vt 0.459256 0.202911
vt 0.459299 0.202899
vt 0.459453 0.203038
vt 0.459539 0.203242
vt 0.459453 0.203218
vt 0.459486 0.203187
vt 0.458774 0.155579
vt 0.458897 0.155442
vt 0.459040 0.155072
vt 0.459016 0.155231
vt 0.458687 0.155253
vt 0.458774 0.155014
vt 0.459522 0.203070
vt 0.459367 0.202730
vt 0.459621 0.203403
vt 0.459830 0.173025
vt 0.459760 0.190036
vt 0.459688 0.203305
vt 0.459620 0.203212
vt 0.459579 0.203319
vt 0.459433 0.203358
vt 0.459532 0.188892
vt 0.459637 0.170743
vt 0.459460 0.203271
vt 0.459367 0.202730
vt 0.459538 0.202671
vt 0.459715 0.202760
vt 0.459538 0.202671
vt 0.459367 0.202730
vt 0.459851 0.202953
vt 0.459829 0.202971
vt 0.459256 0.202911
vt 0.459840 0.203632
vt 0.459851 0.202953
vt 0.459851 0.202953
vt 0.459840 0.203632
vt 0.459283 0.202895
vt 0.459291 0.203554
vt 0.459561 0.203593
vt 0.459291 0.203554
vt 0.459829 0.202971
vt 0.459256 0.202911
vt 0.459538 0.202671
vt 0.459538 0.202671
vt 0.459783 0.202949
vn 0.274650 0.000001 -0.961544
vn 0.274650 0.000001 -0.961544
vn 0.274650 0.000001 -0.961544
vn 0.274650 0.000001 -0.961544
vn -0.289294 -0.000000 -0.957240
vn -0.289294 -0.000000 -0.957240
vn -0.289294 -0.000000 -0.957240
vn -0.289294 -0.000000 -0.957240
vn -0.289294 -0.000000 -0.957240
vn -0.879871 0.000001 -0.475213
vn -0.879871 0.000001 -0.475213
vn -0.879871 0.000001 -0.475213
vn -0.879871 0.000001 -0.475212
vn -0.879871 0.000001 -0.475212
vn 0.872515 0.000000 -0.488588
vn 0.872515 0.000000 -0.488588
vn 0.872515 0.000000 -0.488588
vn 0.872515 0.000000 -0.488588
vn -0.348484 0.000000 -0.937315
vn -0.348484 0.000000 -0.937315
vn -0.348483 0.000000 -0.937315
vn -0.348484 0.000000 -0.937315
vn 0.334131 -0.000000 -0.942527
vn 0.334131 -0.000000 -0.942527
vn 0.334131 -0.000000 -0.942527
vn 0.334131 -0.000000 -0.942527
vn -0.998349 0.000273 0.057436
vn -0.998349 0.000273 0.057436
vn -0.998349 0.000273 0.057436
vn -0.998349 0.000273 0.057436
vn 0.999322 0.000385 0.036808
vn 0.999322 0.000385 0.036808
vn 0.999322 0.000385 0.036808
vn 0.999322 0.000385 0.036808
vn 0.000000 -1.000000 0.000000
vn 0.000000 -1.000000 0.000000
vn 0.000000 -1.000000 0.000000
vn 0.000000 -1.000000 0.000000
vn 0.000000 -1.000000 0.000000
vn 0.000000 -1.000000 -0.000000
vn 0.000000 -1.000000 -0.000000
vn 0.000000 -1.000000 -0.000000
vn 0.000000 -1.000000 -0.000000
vn 0.000000 -1.000000 -0.000000
vn -0.000000 -1.000000 -0.000000
vn -0.000000 -1.000000 -0.000000
vn -0.000000 -1.000000 -0.000000
vn -0.000000 -1.000000 -0.000000
vn 0.000000 -1.000000 -0.000000
vn 0.000000 -1.000000 -0.000000
vn 0.000000 -1.000000 -0.000000
vn 0.000000 -1.000000 -0.000000
vn -0.000000 -1.000000 -0.000001
vn -0.000000 -1.000000 -0.000001
vn -0.000000 -1.000000 -0.000001
vn -0.000000 -1.000000 -0.000001
vn 0.000000 -1.000000 -0.000001
vn 0.000000 -1.000000 -0.000001
vn 0.000000 -1.000000 -0.000001
vn 0.000000 -1.000000 -0.000001
vn -0.000001 -1.000000 0.000000
vn -0.000001 -1.000000 0.000000
vn -0.000001 -1.000000 0.000000
vn -0.000001 -1.000000 0.000000
vn 0.000001 -1.000000 0.000000
vn 0.000001 -1.000000 0.000000
vn 0.000001 -1.000000 0.000000
vn 0.000001 -1.000000 0.000000
vn 0.000000 1.000000 -0.000000
vn 0.000000 1.000000 -0.000000
vn 0.000000 1.000000 -0.000000
vn 0.000000 1.000000 -0.000000
vn 0.000000 1.000000 0.000000
vn 0.000000 1.000000 0.000000
vn 0.000000 1.000000 0.000000
vn 0.000000 1.000000 0.000000
vn 0.000000 1.000000 0.000000
vn 0.000000 1.000000 0.000000
vn 0.000000 1.000000 0.000000
vn 0.000000 1.000000 0.000000
vn 0.000000 1.000000 0.000000
vn 0.000000 1.000000 0.000000
vn 0.000000 1.000000 -0.000000
vn 0.000000 1.000000 -0.000000
vn 0.000000 1.000000 -0.000000
vn 0.000000 1.000000 -0.000000
vn 0.000000 1.000000 0.000000
vn 0.000000 1.000000 0.000000
vn 0.000000 1.000000 0.000000
vn 0.000000 1.000000 0.000000
vn 0.000000 1.000000 0.000000
vn 0.000000 1.000000 0.000000
vn 0.000000 1.000000 0.000000
vn 0.000000 1.000000 0.000000
vn 0.000000 1.000000 0.000000
vn 0.000000 1.000000 0.000000
vn 0.000000 1.000000 0.000000
vn 0.000000 1.000000 0.000000
vn 0.000000 1.000000 -0.000000
vn 0.000000 1.000000 -0.000000
vn 0.000000 1.000000 -0.000000
vn 0.000000 1.000000 -0.000000
vn -0.269409 -0.183828 0.945318
vn -0.269409 -0.183828 0.945318
vn -0.269409 -0.183828 0.945318
vn -0.269409 -0.183828 0.945318
vn 0.283809 -0.183828 0.941095
vn 0.283809 -0.183828 0.941095
vn 0.283809 -0.183828 0.941095
vn 0.283809 -0.183828 0.941095
vn 0.860846 -0.252106 0.442026
vn 0.860846 -0.252106 0.442026
vn 0.860846 -0.252106 0.442026
vn 0.860846 -0.252106 0.442026
vn -0.853996 -0.252108 0.455117
vn -0.853996 -0.252108 0.455117
vn -0.853996 -0.252108 0.455117
vn -0.853996 -0.252108 0.455117
vn 0.345021 -0.195915 0.917920
vn 0.345021 -0.195915 0.917920
vn 0.345021 -0.195915 0.917920
vn 0.345021 -0.195915 0.917920
vn -0.330969 -0.195916 0.923080
vn -0.330969 -0.195916 0.923080
vn -0.330969 -0.195916 0.923080
vn -0.330969 -0.195916 0.923080
vn 0.956589 -0.286995 -0.050709
vn 0.956589 -0.286995 -0.050709
vn 0.956589 -0.286995 -0.050709
vn 0.956589 -0.286995 -0.050709
vn -0.956695 -0.289213 -0.033021
vn -0.956695 -0.289213 -0.033021
vn -0.956695 -0.289213 -0.033021
vn -0.956695 -0.289213 -0.033021
vn -0.243044 0.428342 0.870317
vn -0.243044 0.428342 0.870317
vn -0.243044 0.428342 0.870317
vn -0.243044 0.428342 0.870317
vn 0.256302 0.428346 0.866504
vn 0.256302 0.428346 0.866504
vn 0.256302 0.428346 0.866504
vn 0.256302 0.428346 0.866504
vn 0.765162 0.503835 0.400846
vn 0.765162 0.503835 0.400846
vn 0.765162 0.503835 0.400846
vn 0.765162 0.503835 0.400846
vn -0.758953 0.503834 0.412482
vn -0.758953 0.503834 0.412482
vn -0.758953 0.503834 0.412482
vn -0.758953 0.503834 0.412482
vn 0.303021 0.482104 0.822042
vn 0.303021 0.482104 0.822042
vn 0.303021 0.482104 0.822042
vn 0.303021 0.482104 0.822042
vn -0.290436 0.482105 0.826572
vn -0.290436 0.482105 0.826572
vn -0.290436 0.482105 0.826572
vn -0.290436 0.482105 0.826572
vn 0.859593 0.508757 -0.047595
vn 0.859593 0.508757 -0.047595
vn 0.859593 0.508757 -0.047595
vn 0.859593 0.508757 -0.047595
vn -0.859178 0.510788 -0.030159
vn -0.859178 0.510788 -0.030159
vn -0.859178 0.510788 -0.030159
vn -0.859178 0.510788 -0.030159
vn -0.473478 0.731615 -0.490467
vn -0.473478 0.731615 -0.490468
vn -0.473478 0.731615 -0.490468
vn -0.416200 0.739109 -0.529619
vn -0.416200 0.739109 -0.529619
vn -0.416200 0.739109 -0.529619
vn 0.628641 0.406519 -0.662988
vn 0.628641 0.406519 -0.662988
vn 0.628641 0.406519 -0.662988
vn -0.185588 0.486956 -0.853482
vn -0.185588 0.486956 -0.853482
vn -0.185588 0.486956 -0.853482
vn 0.185663 -0.515043 -0.836815
vn 0.185663 -0.515043 -0.836815
vn 0.185663 -0.515043 -0.836815
vn -0.038771 -0.524539 -0.850503
vn -0.038771 -0.524539 -0.850503
vn -0.038771 -0.524539 -0.850503
vn 0.274644 0.000003 -0.961546
vn 0.274644 0.000003 -0.961546
vn 0.274644 0.000003 -0.961546
vn 0.274644 0.000003 -0.961546
vn 0.273763 -0.003849 -0.961790
vn 0.273763 -0.003849 -0.961790
vn 0.273763 -0.003849 -0.961790
vn 0.273763 -0.003849 -0.961790
vn -0.289292 0.000000 -0.957241
vn -0.289292 0.000000 -0.957241
vn -0.289292 0.000000 -0.957241
vn 0.000000 1.000000 0.000000
vn 0.000000 1.000000 0.000000
vn 0.000000 1.000000 0.000000
vn 0.000000 1.000000 0.000000
vn 0.000000 1.000000 0.000000
vn 0.000000 1.000000 0.000000
vn 0.000000 1.000000 0.000000
vn 0.000000 1.000000 0.000000
vn 0.000000 1.000000 0.000000
vn 0.000000 1.000000 0.000000
vn 0.000000 1.000000 0.000000
vn 0.000000 1.000000 0.000000
vn 0.000000 1.000000 0.000000
vn 0.000000 1.000000 0.000000
vn 0.000000 1.000000 0.000000
vn 0.000000 -1.000000 0.000000
vn 0.000000 -1.000000 0.000000
vn 0.000000 -1.000000 0.000000
vn 0.000000 -1.000000 0.000000
vn 0.000000 -1.000000 0.000000
vn 0.000000 -1.000000 -0.000000
vn 0.000000 -1.000000 -0.000000
vn 0.000000 -1.000000 0.000000
vn 0.000000 -1.000000 -0.000000
vn 0.000000 -1.000000 -0.000000
vn 0.000000 1.000000 -0.000000
vn 0.000000 1.000000 -0.000000
vn 0.000000 1.000000 -0.000000
vn 0.000000 1.000000 -0.000000
vn 0.000000 1.000000 -0.000000
vn 0.000000 1.000000 0.000000
vn 0.000000 1.000000 0.000000
vn 0.000000 1.000000 0.000000
vn 0.000000 1.000000 0.000000
vn 0.000000 1.000000 -0.000000
vn 0.000000 1.000000 -0.000000
vn 0.000000 1.000000 -0.000000
vn 0.000000 1.000000 -0.000000
vn 0.000000 1.000000 -0.000000
vn 0.000000 1.000000 0.000000
vn 0.000000 1.000000 0.000000
vn 0.000000 1.000000 0.000000
vn 0.000000 1.000000 0.000000
vn 0.000000 1.000000 0.000000
vn 0.000000 1.000000 0.000000
vn 0.000000 1.000000 0.000000
vn 0.000000 1.000000 0.000000
vn -0.000000 1.000000 -0.000000
vn -0.000000 1.000000 -0.000000
vn -0.000000 1.000000 -0.000000
vn 0.000000 1.000000 0.000000
vn 0.000000 1.000000 0.000000
vn 0.000000 1.000000 0.000000
vn 0.000000 1.000000 0.000000
vn -0.000000 1.000000 -0.000000
vn 0.000000 1.000000 0.000000
vn -0.000000 1.000000 -0.000000
vn -0.000000 1.000000 -0.000000
vn -0.000000 1.000000 -0.000000
vn -0.000000 1.000000 -0.000000
vn -0.000000 1.000000 -0.000000
vn -0.000000 1.000000 -0.000000
vn -0.000000 1.000000 -0.000000
vn -0.000000 1.000000 -0.000000
vn -0.000000 1.000000 -0.000000
vn 0.000000 1.000000 -0.000000
vn 0.000000 1.000000 -0.000000
vn 0.000000 1.000000 -0.000000
vn 0.000000 1.000000 -0.000000
vn 0.000000 1.000000 0.000000
vn 0.000000 1.000000 0.000000
vn 0.000000 1.000000 0.000000
vn 0.000000 1.000000 0.000000
vn 0.000000 1.000000 0.000000
vn 0.000000 1.000000 0.000000
vn 0.000000 1.000000 0.000000
vn 0.000000 1.000000 0.000000
vn 0.000000 1.000000 -0.000000
vn 0.000000 1.000000 -0.000000
vn 0.000000 1.000000 -0.000000
vn 0.000000 1.000000 -0.000000
vn 0.000000 1.000000 0.000000
vn 0.000000 1.000000 0.000000
vn 0.000000 1.000000 0.000000
vn 0.000000 1.000000 0.000000
vn 0.000000 1.000000 -0.000000
vn 0.000000 1.000000 -0.000000
vn 0.000000 1.000000 -0.000000
vn 0.000000 1.000000 -0.000000
vn 0.000000 1.000000 -0.000000
vn 0.000000 1.000000 -0.000000
vn 0.000000 1.000000 -0.000000
vn -0.054236 0.045369 0.997497
vn -0.058283 0.044513 0.997307
vn -0.126783 0.029874 0.991480
vn -0.126783 0.029874 0.991481
vn -0.126783 0.029874 0.991481
vn -0.126783 0.029874 0.991480
vn -0.055274 0.069751 0.996032
vn -0.055274 0.069751 0.996032
vn -0.055274 0.069751 0.996032
vn -0.058203 0.148097 0.987259
vn -0.058237 0.149042 0.987114
vn -0.055274 0.069751 0.996032
vn 0.108422 0.078970 0.990963
vn 0.108422 0.078970 0.990963
vn -0.058283 0.044513 0.997307
vn -0.054236 0.045369 0.997497
vn 0.000000 1.000000 0.000000
vn 0.000000 1.000000 0.000000
vn 0.000000 1.000000 0.000000
vn -0.000000 1.000000 -0.000000
vn 0.000000 1.000000 0.000000
vn -0.058237 0.149042 0.987114
vn -0.058203 0.148097 0.987259
vn -0.062588 0.287773 0.955651
vn -0.062588 0.287773 0.955651
vn 0.000000 -1.000000 0.000000
vn 0.000000 -1.000000 0.000000
vn 0.000000 -1.000000 0.000000
vn 0.000000 -1.000000 0.000000
vn 0.000000 -1.000000 0.000000
vn 0.000000 -1.000000 -0.000000
vn 0.000000 -1.000000 0.000000
vn 0.000000 -1.000000 0.000000
vn -0.043036 0.325572 0.944538
vn -0.098524 0.307180 0.946537
vn -0.221796 0.262081 0.939212
vn -0.221796 0.262081 0.939212
vn 0.368211 0.424858 0.826992
vn -0.098524 0.307180 0.946537
vn -0.043036 0.325572 0.944538
vn 0.368211 0.424858 0.826992
s off
f 1/1/1 48/2/2 46/3/3 6/4/4
f 2/5/5 51/6/6 3/7/7 8/8/8 43/9/9
f 3/7/10 4/10/11 9/11/12 45/12/13 8/8/14
f 5/13/15 1/1/16 6/4/17 10/14/18
f 9/11/19 4/10/20 11/15/21 12/16/22
f 5/13/23 10/14/24 14/17/25 13/18/26
f 12/16/27 11/15/28 68/19/29 69/20/30
f 13/18/31 14/17/32 70/21/33 71/22/34
f 52/23/35 50/24/36 1/1/37 15/25/38 16/26/39
f 3/7/40 51/6/41 52/23/42 16/26/43 17/27/44
f 4/10/45 3/7/46 17/27/47 18/28/48
f 1/1/49 5/13/50 19/29/51 15/25/52
f 11/165/53 4/30/54 18/31/55 20/32/56
f 5/166/57 13/167/58 21/33/59 19/168/60
f 72/34/61 68/35/62 11/169/63 20/32/64
f 13/170/65 71/36/66 73/37/67 21/38/68
f 23/39/69 49/40/70 47/41/71 7/171/72
f 7/172/73 43/42/74 44/43/75 24/44/76 23/45/77
f 44/46/78 45/47/79 9/48/80 25/49/81 24/50/82
f 10/173/83 6/174/84 22/175/85 26/176/86
f 9/177/87 12/51/88 27/52/89 25/53/90
f 14/178/91 10/54/92 26/179/93 28/180/94
f 12/16/95 69/20/96 74/55/97 27/181/98
f 75/56/99 70/21/100 14/17/101 28/182/102
f 16/57/103 15/58/104 29/59/105 30/60/106
f 17/61/107 16/57/108 30/60/109 31/62/110
f 18/63/111 17/61/112 31/62/113 32/64/114
f 15/58/115 19/65/116 33/66/117 29/59/118
f 20/67/119 18/63/120 32/64/121 34/68/122
f 19/65/123 21/69/124 35/70/125 33/66/126
f 76/71/127 72/72/128 20/67/129 34/68/130
f 21/69/131 73/73/132 77/74/133 35/70/134
f 22/75/135 23/76/136 37/77/137 36/78/138
f 23/76/139 24/79/140 38/80/141 37/77/142
f 24/79/143 25/81/144 39/82/145 38/80/146
f 26/83/147 22/75/148 36/78/149 40/84/150
f 25/81/151 27/85/152 41/86/153 39/82/154
f 28/87/155 26/83/156 40/84/157 42/88/158
f 27/85/159 74/89/160 78/90/161 41/86/162
f 79/91/163 75/92/164 28/87/165 42/88/166
f 44/93/167 43/94/168 8/95/169
f 8/95/170 45/96/171 44/93/172
f 47/97/173 49/98/174 48/99/175
f 48/99/176 49/98/177 46/100/178
f 52/101/179 51/102/180 2/103/181
f 2/103/182 50/104/183 52/101/184
f 48/2/185 2/5/186 7/183/187 47/105/188
f 1/1/189 50/24/190 2/5/191 48/2/192
f 2/5/193 43/9/194 7/184/195
f 6/185/196 46/106/197 49/40/198 22/107/199
f 22/107/200 49/40/201 23/39/202
f 39/108/203 67/109/204 37/110/205 38/111/206
f 62/112/207 58/113/208 59/114/209 61/115/210
f 33/116/211 32/117/212 31/118/213 30/119/214 29/120/215
f 77/121/216 85/164/217 82/159/218 33/116/219 35/124/220
f 78/125/221 60/126/222 53/127/223 39/108/224 41/128/225
f 53/129/226 60/130/227 59/131/228 54/132/229
f 78/125/230 66/133/231 61/115/232 59/114/233 60/126/234
f 61/134/235 66/135/236 65/136/237 62/137/238
f 54/138/239 67/109/240 39/108/241 53/127/242
f 57/139/243 79/140/244 42/141/245
f 57/139/246 42/141/247 40/142/248 56/143/249
f 65/144/250 83/160/251 84/161/252 79/140/253
f 64/145/254 79/140/255 57/139/256 63/146/257
f 65/144/258 79/140/259 64/145/260
f 62/137/261 65/136/262 64/147/263 63/148/264
f 63/146/265 57/139/266 58/113/267 62/112/268
f 55/149/269 58/150/270 57/151/271 56/152/272
f 56/143/273 40/142/274 67/109/275 55/153/276
f 37/110/277 67/109/278 40/142/279 36/154/280
f 55/153/281 67/109/282 54/138/283
f 54/132/284 59/131/285 58/150/286 55/149/287
f 79/140/288 77/74/289 73/37/290 71/22/291 70/21/292 75/92/293
f 69/20/294 68/35/295 72/72/296 76/122/297 78/90/298 74/55/299
f 84/162/300 85/163/301 77/74/302 79/140/303
f 78/125/304 80/155/305 83/160/306 65/144/307 66/133/308
f 78/90/309 76/122/310 81/157/311 80/156/312
f 32/117/313 82/159/314 81/158/315 76/122/316 34/123/317
f 33/116/318 82/159/319 32/117/320
f 83/160/321 82/159/322 85/163/323 84/161/324
f 81/158/325 82/159/326 83/160/327 80/156/328
