# This file uses centimeters as units for non-parametric coordinates.

v -29.930269 -146.808731 63.974144
v 64.355682 -144.751556 28.203508
v 26.013741 -150.434494 -65.755661
v -65.407066 -149.370728 -27.794949
v 28.087574 -146.057022 64.944077
v 66.359406 -142.159393 -24.055590
v -27.944485 -142.159393 -64.838066
v -65.586990 -141.059250 28.174547
vt 0.146447 0.146447
vt 0.853553 0.146447
vt 0.853553 0.853553
vt 0.146447 0.853553
vt 0.500000 0.000000
vt 1.000000 0.500000
vt 0.500000 1.000000
vt -0.000825 0.493878
vn -0.003533 0.999940 -0.010393
vn -0.015662 0.984667 0.173740
vn 0.025100 0.997119 0.071585
vn 0.028350 0.998143 0.053910
vn -0.013876 0.998330 -0.056083
vn 0.000483 0.995102 -0.098851
vn 0.111858 0.993159 0.033523
vn -0.319070 0.937301 -0.140215
s 1
f 8/8/1 1/1/2 5/5/3
f 5/5/3 2/2/4 8/8/1
f 8/8/1 2/2/4 6/6/5
f 6/6/5 3/3/6 8/8/1
f 8/8/1 3/3/6 7/7/7
f 7/7/7 4/4/8 8/8/1
