# This file uses centimeters as units for non-parametric coordinates.

v -200.000000 0.000000 -250.000000
v -184.648438 0.000000 -173.574219
v -141.359375 0.000000 -108.777344
v -76.566406 0.000000 -65.484375
v 0.000000 0.000000 -50.000000
v -250.000000 49.290466 -250.000000
v -230.562500 49.290466 -154.556641
v -176.500000 49.290466 -73.636719
v -95.582031 49.290466 -19.574219
v 0.000000 49.290466 -0.453125
v 0.000000 49.290466 -50.000000
v -76.566406 49.290466 -65.484375
v -141.359375 49.290466 -108.777344
v -184.648438 49.290466 -173.574219
v -200.000000 49.290466 -250.000000
v -250.000000 0.000000 -250.000000
v -230.960938 0.000000 -154.289063
v -176.750000 0.000000 -73.152344
v -95.609375 0.000000 -18.937500
v 0.000000 0.000000 0.000000
v -154.000000 250.000000 -249.998047
v -143.015625 250.000000 -190.796875
v -109.476563 250.000000 -140.609375
v -59.285156 250.000000 -107.074219
v 0.000000 250.000000 -95.998047
v -43.910156 222.290833 -144.171875
v -81.160156 222.290833 -168.914063
v -105.910156 222.290833 -206.164063
v -113.968750 222.303284 -250.000000
v -0.003906 222.303284 -136.023438
v 0.000000 222.290833 -249.996094
v 0.000000 250.000000 -249.996094
v -85.070313 238.630737 -176.757813
v -72.515625 238.630737 -164.205078
v -97.566406 233.811523 -164.257813
v -85.015625 233.811523 -151.707031
v -62.640625 141.717407 -174.082031
v -50.734375 154.232910 -185.988281
v -63.285156 154.232910 -198.542969
v -75.195313 141.717407 -186.634766
v -151.496094 2.014740 -113.859375
v -136.039063 2.014740 -98.406250
v -163.121094 36.289673 -102.234375
v -147.664063 36.289673 -86.777344
v -17.796875 212.701172 -247.560547
v -2.339844 212.701172 -232.105469
v -17.796875 246.976196 -247.560547
v -2.339844 246.976196 -232.105469
vt 2.000115 0.098066
vt 1.673412 0.098066
vt 1.419287 0.098066
vt 1.146122 0.098066
vt 1.000000 0.098066
vt 0.488642 0.158405
vt 0.488376 0.158407
vt 0.488391 0.158281
vt 2.000115 -0.000613
vt 1.673412 -0.000613
vt 1.421631 -0.000613
vt 1.141426 -0.000613
vt 0.999117 -0.000613
vt 2.000115 0.499839
vt 1.673412 0.499839
vt 1.429150 0.499839
vt 1.161481 0.499839
vt 1.000000 0.499839
vt 0.488651 0.158279
vt 0.488119 0.158342
vt 0.488139 0.158216
vt 0.487903 0.158216
vt 0.487927 0.158090
vt 0.487757 0.158042
vt 0.487785 0.157916
vt 0.488329 0.157644
vt 0.488467 0.157683
vt 0.488216 0.157569
vt 0.488146 0.157467
vt 0.488611 0.157681
vt 0.488511 0.157407
vt 0.487746 0.178752
vt 0.487775 0.178738
vt 0.487775 0.178809
vt 0.487745 0.178821
vt 0.487947 0.179088
vt 0.487917 0.179096
vt 0.487956 0.179021
vt 0.487926 0.179030
vt 0.487746 0.178752
vt 0.487775 0.178738
vt 0.487775 0.178809
vt 0.487745 0.178821
vt 0.488349 0.179738
vt 0.488319 0.179737
vt 0.488378 0.179679
vt 0.488348 0.179678
vt 0.020944 0.046642
vt 0.020938 0.045990
vt 0.021599 0.045990
vt 0.021599 0.046642
vt 0.022738 0.048933
vt 0.022208 0.049299
vt 0.024247 0.048932
vt 0.024247 0.049299
vt 0.021263 0.043663
vt 0.020650 0.043919
vt 0.020398 0.042652
vt 0.021060 0.042652
vt 0.021836 0.044521
vt 0.021368 0.044993
vt 0.022694 0.045094
vt 0.022442 0.045710
vt 0.023708 0.045299
vt 0.023708 0.045961
vt 0.019000 0.047245
vt 0.019444 0.046580
vt 0.020893 0.048028
vt 0.020108 0.046137
vt 0.018855 0.048028
vt 0.020893 0.045990
vt 0.017041 0.045309
vt 0.017703 0.045309
vt 0.017703 0.045961
vt 0.017041 0.045961
vt 0.018312 0.042652
vt 0.018842 0.043018
vt 0.020351 0.042652
vt 0.020351 0.043019
vn 0.198222 0.000000 -0.980157
vn 0.198222 0.000000 -0.980157
vn 0.198222 0.000000 -0.980157
vn 0.198222 0.000000 -0.980157
vn 0.555568 0.000000 -0.831471
vn 0.555568 0.000000 -0.831471
vn 0.555568 0.000000 -0.831471
vn 0.555568 0.000000 -0.831471
vn 0.831510 0.000000 -0.555510
vn 0.831510 0.000000 -0.555510
vn 0.831510 0.000000 -0.555510
vn 0.831510 0.000000 -0.555510
vn 0.980417 0.000000 -0.196935
vn 0.980417 0.000000 -0.196935
vn 0.980417 0.000000 -0.196935
vn 0.980417 0.000000 -0.196935
vn 0.000000 0.000000 -1.000000
vn 0.000000 0.000000 -1.000000
vn 0.000000 0.000000 -1.000000
vn 0.000000 0.000000 -1.000000
vn 0.000000 -1.000000 0.000000
vn 0.000000 -1.000000 0.000000
vn 0.000000 -1.000000 0.000000
vn 0.000000 -1.000000 0.000000
vn -0.980328 0.004498 0.197326
vn -0.980328 0.004498 0.197326
vn -0.980328 0.004498 0.197326
vn -0.980328 0.004498 0.197326
vn 0.000000 -1.000000 0.000000
vn 0.000000 -1.000000 0.000000
vn 0.000000 -1.000000 0.000000
vn 0.000000 -1.000000 0.000000
vn -0.831453 0.009706 0.555511
vn -0.831453 0.009706 0.555511
vn -0.831453 0.009706 0.555511
vn -0.831453 0.009706 0.555511
vn 0.000000 -1.000000 0.000000
vn 0.000000 -1.000000 0.000000
vn 0.000000 -1.000000 0.000000
vn 0.000000 -1.000000 0.000000
vn -0.555513 0.011018 0.831435
vn -0.555513 0.011018 0.831435
vn -0.555513 0.011018 0.831435
vn -0.555513 0.011018 0.831435
vn 0.000000 -1.000000 0.000000
vn 0.000000 -1.000000 0.000000
vn 0.000000 -1.000000 0.000000
vn 0.000000 -1.000000 0.000000
vn 1.000000 0.000000 0.000000
vn 1.000000 0.000000 0.000000
vn 1.000000 0.000000 0.000000
vn 1.000000 0.000000 0.000000
vn -0.195218 0.010896 0.980699
vn -0.195218 0.010896 0.980699
vn -0.195218 0.010896 0.980699
vn -0.195218 0.010896 0.980699
vn -0.889345 0.422442 0.174953
vn -0.889345 0.422442 0.174953
vn -0.889345 0.422442 0.174953
vn -0.889345 0.422442 0.174953
vn -0.754521 0.420161 0.504145
vn -0.754521 0.420161 0.504145
vn -0.754521 0.420161 0.504145
vn -0.754521 0.420161 0.504145
vn -0.504135 0.420121 0.754550
vn -0.504135 0.420121 0.754550
vn -0.504135 0.420121 0.754550
vn -0.504135 0.420121 0.754550
vn -0.173548 0.421548 0.890044
vn -0.173548 0.421548 0.890044
vn -0.173548 0.421548 0.890044
vn -0.173548 0.421548 0.890044
vn 1.000000 -0.000009 -0.000041
vn 1.000000 -0.000009 -0.000041
vn 1.000000 -0.000009 -0.000041
vn 1.000000 -0.000009 -0.000041
vn 0.000000 1.000000 0.000000
vn 0.000000 1.000000 0.000000
vn 0.000000 1.000000 0.000000
vn 0.000000 1.000000 0.000000
vn 0.000000 1.000000 0.000000
vn 0.000000 1.000000 0.000000
vn 0.000000 1.000000 0.000000
vn 0.000000 1.000000 0.000000
vn 0.000000 1.000000 0.000000
vn 0.000000 1.000000 0.000000
vn 0.000000 1.000000 0.000000
vn 0.000000 1.000000 0.000000
vn 0.499580 -0.434709 -0.749298
vn 0.499580 -0.434709 -0.749299
vn 0.499580 -0.434709 -0.749298
vn 0.499580 -0.434709 -0.749298
vn 0.749275 -0.434757 -0.499574
vn 0.749275 -0.434757 -0.499574
vn 0.749275 -0.434757 -0.499574
vn 0.749275 -0.434757 -0.499574
vn 0.883030 -0.436688 -0.171936
vn 0.883030 -0.436688 -0.171936
vn 0.883030 -0.436688 -0.171936
vn 0.883030 -0.436688 -0.171936
vn 0.173227 -0.436593 -0.882824
vn 0.173227 -0.436593 -0.882824
vn 0.173227 -0.436593 -0.882824
vn 0.173227 -0.436593 -0.882824
vn 0.000263 -1.000000 0.000109
vn 0.000263 -1.000000 0.000109
vn 0.000263 -1.000000 0.000109
vn 0.000000 -1.000000 0.000000
vn 0.000000 -1.000000 0.000000
vn 0.000000 -1.000000 0.000000
vn 0.000000 -1.000000 -0.000001
vn 0.000000 -1.000000 -0.000001
vn 0.000000 -1.000000 -0.000001
vn -0.000109 -1.000000 -0.000263
vn -0.000109 -1.000000 -0.000263
vn -0.000109 -1.000000 -0.000263
vn 0.000022 0.000051 -1.000000
vn 0.000022 0.000051 -1.000000
vn 0.000022 0.000051 -1.000000
vn 0.000022 0.000051 -1.000000
vn -0.000017 0.000014 -1.000000
vn -0.000017 0.000014 -1.000000
vn -0.000017 0.000014 -1.000000
vn -0.000017 0.000014 -1.000000
vn 1.000000 -0.000081 0.000015
vn 1.000000 -0.000081 0.000015
vn 1.000000 -0.000081 0.000015
vn 1.000000 -0.000081 0.000015
vn -0.185995 0.964783 0.186009
vn -0.185995 0.964783 0.186009
vn -0.185995 0.964783 0.186009
vn -0.185995 0.964783 0.186009
vn 0.664265 0.342890 -0.664213
vn 0.664265 0.342890 -0.664213
vn 0.664265 0.342890 -0.664213
vn 0.664265 0.342890 -0.664213
vn 0.707085 -0.000019 0.707128
vn 0.707085 -0.000019 0.707128
vn 0.707085 -0.000019 0.707129
vn 0.707085 -0.000019 0.707128
vn -0.707138 0.000008 -0.707076
vn -0.707138 0.000008 -0.707076
vn -0.707138 0.000008 -0.707076
vn -0.707138 0.000008 -0.707076
vn -0.668709 -0.324942 0.668761
vn -0.668709 -0.324942 0.668761
vn -0.668709 -0.324942 0.668761
vn -0.668709 -0.324942 0.668761
vn 0.707062 0.000000 -0.707151
vn 0.707062 0.000000 -0.707151
vn 0.707062 0.000000 -0.707151
vn 0.707062 0.000000 -0.707151
vn 0.526206 -0.667914 -0.526306
vn 0.526206 -0.667914 -0.526306
vn 0.526206 -0.667914 -0.526306
vn 0.526206 -0.667914 -0.526306
vn 0.707135 -0.000031 0.707079
vn 0.707135 -0.000031 0.707079
vn 0.707135 -0.000031 0.707079
vn 0.707135 -0.000031 0.707079
vn -0.707111 -0.000001 -0.707103
vn -0.707111 -0.000001 -0.707103
vn -0.707111 -0.000001 -0.707103
vn -0.707111 -0.000001 -0.707103
vn -0.559732 0.611028 0.559772
vn -0.559730 0.611032 0.559770
vn -0.506150 0.698278 0.506182
vn -0.506150 0.698278 0.506182
vn -0.637508 -0.432510 0.637588
vn -0.559730 0.611032 0.559770
vn -0.559732 0.611028 0.559772
vn -0.637508 -0.432510 0.637588
s off
f 5/6/1 4/7/2 12/8/3 11/19/4
f 4/7/5 3/20/6 13/21/7 12/8/8
f 3/20/9 2/22/10 14/23/11 13/21/12
f 2/22/13 1/24/14 15/25/15 14/23/16
f 6/72/17 15/73/18 1/74/19 16/75/20
f 2/56/21 17/57/22 16/58/23 1/59/24
f 7/2/25 6/1/26 16/9/27 17/10/28
f 3/60/29 18/61/30 17/57/31 2/56/32
f 8/3/33 7/2/34 17/10/35 18/11/36
f 4/62/37 19/63/38 18/61/39 3/60/40
f 9/4/41 8/3/42 18/11/43 19/12/44
f 5/64/45 20/65/46 19/63/47 4/62/48
f 10/48/49 20/49/50 5/50/51 11/51/52
f 20/13/53 10/5/54 9/4/55 19/12/56
f 22/15/57 21/14/58 6/1/59 7/2/60
f 23/16/61 22/15/62 7/2/63 8/3/64
f 24/17/65 23/16/66 8/3/67 9/4/68
f 25/18/69 24/17/70 9/4/71 10/5/72
f 30/52/73 25/53/74 10/48/75 11/51/76
f 22/66/77 23/67/78 32/68/79
f 21/70/80 22/66/81 32/68/82
f 23/67/83 24/69/84 32/68/85
f 24/69/86 25/71/87 32/68/88
f 12/8/89 13/21/90 27/26/91 26/27/92
f 13/21/93 14/23/94 28/28/95 27/26/96
f 14/23/97 15/25/98 29/29/99 28/28/100
f 11/19/101 12/8/102 26/27/103 30/30/104
f 30/30/105 26/27/106 31/31/107
f 26/27/108 27/26/109 31/31/110
f 27/26/111 28/28/112 31/31/113
f 28/28/114 29/29/115 31/31/116
f 21/76/117 32/78/118 31/79/119 29/77/120
f 21/76/121 29/77/122 15/73/123 6/72/124
f 25/53/125 30/52/126 31/54/127 32/55/128
f 35/32/129 36/33/130 34/34/131 33/35/132
f 33/35/133 34/34/134 38/36/135 39/37/136
f 37/38/137 38/36/138 34/34/139 36/33/140
f 33/35/141 39/37/142 40/39/143 35/32/144
f 40/39/145 37/38/146 36/33/147 35/32/148
f 47/40/149 48/41/150 46/42/151 45/43/152
f 45/43/153 46/42/154 42/44/155 41/45/156
f 42/44/157 46/42/158 48/41/159 44/46/160
f 45/43/161 41/45/162 43/47/163 47/40/164
f 43/47/165 44/46/166 48/41/167 47/40/168
f 42/44/169 44/46/170 43/47/171 41/45/172
