# This file uses centimeters as units for non-parametric coordinates.

v -28.195313 76.438599 9.279297
v -28.195313 149.939087 -13.015625
v -28.195313 217.677979 -49.222656
v -28.195313 277.051636 -97.949219
v -28.195313 325.778198 -157.320313
v -28.195313 361.985352 -225.062500
v -28.195313 384.281494 -298.562500
v -28.195313 391.810059 -374.996094
v -28.195313 69.679199 -24.695313
v -28.195313 136.666992 -45.050781
v -28.195313 198.379944 -78.099609
v -28.195313 252.444702 -122.550781
v -28.195313 296.789734 -176.689453
v -28.195313 329.724121 -238.421875
v -28.195313 349.996826 -305.382813
v -28.195313 356.840576 -374.996094
v -28.195313 30.919556 13.927734
v -28.195313 27.871674 -20.570313
v 28.171875 27.871674 -20.570313
v 28.171875 69.679199 -24.695313
v 28.171875 136.666992 -45.050781
v 28.171875 198.379944 -78.099609
v 28.171875 252.444702 -122.550781
v 28.171875 296.789734 -176.689453
v 28.171875 329.724121 -238.421875
v 28.171875 349.996826 -305.382813
v 28.171875 356.840576 -374.996094
v 28.171875 30.919556 13.927734
v 28.171875 76.438599 9.279297
v 28.171875 149.939087 -13.015625
v 28.171875 217.677979 -49.222656
v 28.171875 277.051636 -97.949219
v 28.171875 325.778198 -157.320313
v 28.171875 361.985352 -225.062500
v 28.171875 384.281494 -298.562500
v 28.171875 391.810059 -374.996094
v -13.529297 35.409393 -32.265625
v 13.517578 35.409393 -32.265625
v -13.529297 67.396545 -36.150391
v 13.517578 67.396545 -36.150391
v -13.529297 132.189697 -55.839844
v 13.517578 132.189697 -55.839844
v -13.529297 191.881592 -87.806641
v 13.517578 191.881592 -87.806641
v -13.529297 244.176819 -130.804688
v 13.517578 244.176819 -130.804688
v -13.529297 287.071045 -183.171875
v 13.517578 287.071045 -183.171875
v -13.529297 318.928406 -242.884766
v 13.517578 318.928406 -242.884766
v -13.529297 338.538330 -307.656250
v 13.517578 338.538330 -307.656250
v -13.529297 345.158447 -374.996094
v 13.517578 345.158447 -374.996094
v -13.529297 35.409393 -374.996094
v 13.517578 35.409393 -374.996094
v -28.195313 0.000000 -18.750000
v -28.195313 0.000000 16.810547
v 28.171875 0.000000 -18.750000
v 28.171875 0.000000 16.810547
v 28.171875 26.913116 -374.996094
v 28.171875 0.000000 -374.996094
v -28.195313 0.000000 -374.996094
v -28.195313 26.913116 -374.996094
vt 0.196450 0.304811
vt 0.197384 0.304712
vt 0.254818 1.011358
vt 0.263089 1.086949
vt 0.197385 0.304770
vt 0.196454 0.304868
vt 0.196385 0.303996
vt 0.196390 0.304034
vt 0.196446 0.304768
vt 0.196440 0.304725
vt 0.197350 0.304683
vt 0.196443 0.304776
vt 0.196439 0.304720
vt 0.197349 0.304626
vt 0.986798 1.011358
vt 0.263089 1.086949
vt 0.254818 1.011358
vt 0.986798 1.011358
vt 0.304998 1.240064
vt 0.304998 1.240064
vt 0.373043 1.381125
vt 0.373043 1.381125
vt 0.464566 1.504705
vt 0.464566 1.504705
vt 0.576031 1.606071
vt 0.576031 1.606071
vt 0.703136 1.681354
vt 0.703136 1.681354
vt 0.841011 1.727695
vt 0.841011 1.727695
vt 0.986798 1.743339
vt 0.986798 1.743339
vt 0.197346 0.304676
vt 0.197329 0.304635
vt 0.020561 0.043353
vt 0.020249 0.043291
vt 0.020287 0.042908
vt 0.020603 0.042936
vt 0.020356 0.044026
vt 0.020063 0.043905
vt 0.020304 0.042653
vt 0.020630 0.042653
vt 0.020025 0.044647
vt 0.019760 0.044470
vt 0.019578 0.045191
vt 0.019353 0.044965
vt 0.019034 0.045637
vt 0.018857 0.045372
vt 0.019277 0.044890
vt 0.019671 0.044411
vt 0.018414 0.045969
vt 0.018291 0.045673
vt 0.018798 0.045283
vt 0.017740 0.046173
vt 0.017678 0.045859
vt 0.017040 0.046242
vt 0.017040 0.045922
vt 0.020515 0.046524
vt 0.020199 0.046552
vt 0.020172 0.046269
vt 0.020498 0.046269
vt 0.020553 0.046907
vt 0.020241 0.046969
vt 0.020739 0.047521
vt 0.020446 0.047643
vt 0.021042 0.048086
vt 0.020777 0.048263
vt 0.021449 0.048582
vt 0.021224 0.048807
vt 0.021131 0.048027
vt 0.021525 0.048506
vt 0.021945 0.048988
vt 0.021768 0.049253
vt 0.022004 0.048899
vt 0.022511 0.049290
vt 0.022388 0.049585
vt 0.023124 0.049475
vt 0.023061 0.049789
vt 0.023762 0.049538
vt 0.023762 0.049858
vt 0.019057 0.046813
vt 0.019057 0.046269
vt 0.019573 0.046269
vt 0.019573 0.046813
vt 0.019057 0.047433
vt 0.019573 0.047433
vt 0.019057 0.048107
vt 0.019573 0.048107
vt 0.019057 0.048807
vt 0.019573 0.048807
vt 0.018313 0.046785
vt 0.017987 0.046785
vt 0.017987 0.046269
vt 0.018313 0.046269
vt 0.018881 0.048086
vt 0.018881 0.047520
vt 0.019015 0.047479
vt 0.019015 0.048026
vt 0.018881 0.046907
vt 0.019015 0.046886
vt 0.018881 0.046269
vt 0.019015 0.046269
vt 0.018840 0.047520
vt 0.018840 0.048086
vt 0.018706 0.048026
vt 0.018706 0.047479
vt 0.018840 0.046907
vt 0.018706 0.046886
vt 0.018840 0.046269
vt 0.018706 0.046269
vt 0.019615 0.046969
vt 0.019615 0.046552
vt 0.020131 0.046552
vt 0.020131 0.046969
vt 0.019615 0.046269
vt 0.020131 0.046269
vt 0.019615 0.047643
vt 0.020131 0.047643
vt 0.019615 0.048263
vt 0.020131 0.048263
vt 0.019615 0.048807
vt 0.020131 0.048807
vt 0.017839 0.046785
vt 0.017518 0.046785
vt 0.017518 0.046269
vt 0.017839 0.046269
vt 0.017946 0.046403
vt 0.017946 0.046651
vt 0.018530 0.047831
vt 0.018530 0.047448
vt 0.018664 0.047469
vt 0.018664 0.047762
vt 0.018530 0.046834
vt 0.018664 0.046875
vt 0.018530 0.046269
vt 0.018664 0.046329
vt 0.018488 0.047448
vt 0.018488 0.047831
vt 0.018354 0.047762
vt 0.018354 0.047469
vt 0.018488 0.046834
vt 0.018354 0.046875
vt 0.018488 0.046269
vt 0.018354 0.046329
vn -1.000000 0.000000 0.000000
vn -1.000000 0.000000 0.000000
vn -1.000000 0.000000 0.000000
vn -1.000000 0.000000 0.000000
vn -1.000000 0.000000 0.000000
vn -1.000000 0.000000 0.000000
vn -1.000000 0.000000 0.000000
vn -1.000000 0.000000 0.000000
vn -1.000000 0.000000 0.000000
vn -1.000000 0.000000 0.000000
vn -1.000000 0.000000 0.000000
vn -1.000000 0.000000 0.000000
vn -1.000000 0.000000 0.000000
vn -1.000000 0.000000 0.000000
vn -1.000000 0.000000 0.000000
vn -1.000000 0.000000 0.000000
vn -1.000000 0.000000 0.000000
vn -1.000000 0.000000 0.000000
vn -1.000000 0.000000 0.000000
vn -1.000000 0.000000 0.000000
vn -1.000000 0.000000 0.000000
vn -1.000000 0.000000 0.000000
vn -1.000000 0.000000 0.000000
vn -1.000000 0.000000 0.000000
vn -1.000000 0.000000 0.000000
vn -1.000000 0.000000 0.000000
vn -1.000000 0.000000 0.000000
vn -1.000000 0.000000 0.000000
vn -1.000000 0.000000 0.000000
vn -1.000000 0.000000 0.000000
vn -1.000000 0.000000 0.000000
vn -1.000000 0.000000 0.000000
vn -1.000000 0.000000 0.000000
vn -1.000000 0.000000 0.000000
vn -1.000000 0.000000 0.000000
vn -1.000000 0.000000 0.000000
vn 0.000000 0.101592 0.994826
vn 0.000000 0.101592 0.994826
vn 0.000000 0.101592 0.994826
vn 0.000000 0.101592 0.994826
vn 0.000000 0.290270 0.956945
vn 0.000000 0.290270 0.956945
vn 0.000000 0.290270 0.956945
vn 0.000000 0.290270 0.956945
vn 0.000000 0.471395 0.881922
vn 0.000000 0.471395 0.881922
vn 0.000000 0.471395 0.881922
vn 0.000000 0.471395 0.881922
vn 0.000000 0.634392 0.773011
vn 0.000000 0.634392 0.773011
vn 0.000000 0.634392 0.773011
vn 0.000000 0.634392 0.773011
vn 0.000000 0.772998 0.634409
vn 0.000000 0.772998 0.634409
vn 0.000000 0.772998 0.634409
vn 0.000000 0.772998 0.634409
vn 0.000000 0.881931 0.471378
vn 0.000000 0.881931 0.471378
vn 0.000000 0.881931 0.471378
vn 0.000000 0.881931 0.471378
vn 0.000000 0.956940 0.290287
vn 0.000000 0.956940 0.290287
vn 0.000000 0.956940 0.290287
vn 0.000000 0.956940 0.290287
vn 0.000000 0.995184 0.098024
vn 0.000000 0.995184 0.098024
vn 0.000000 0.995184 0.098024
vn 0.000000 0.995184 0.098024
vn 0.000000 -1.000000 0.000000
vn 0.000000 -1.000000 0.000000
vn 0.000000 -1.000000 0.000000
vn 0.000000 -1.000000 0.000000
vn 0.000000 0.000000 -1.000000
vn 0.000000 0.000000 -1.000000
vn 0.000000 0.000000 -1.000000
vn 0.000000 0.000000 -1.000000
vn 0.000000 0.092833 0.995682
vn 0.000000 0.092833 0.995682
vn 0.000000 0.092833 0.995682
vn 0.000000 0.092833 0.995682
vn 1.000000 0.000000 0.000000
vn 1.000000 0.000000 0.000000
vn 1.000000 0.000000 0.000000
vn 1.000000 0.000000 0.000000
vn 1.000000 0.000000 0.000000
vn 1.000000 0.000000 0.000000
vn 1.000000 0.000000 0.000000
vn 1.000000 0.000000 0.000000
vn 1.000000 0.000000 0.000000
vn 1.000000 0.000000 0.000000
vn 1.000000 0.000000 0.000000
vn 1.000000 0.000000 0.000000
vn 1.000000 -0.000000 0.000000
vn 1.000000 -0.000000 0.000000
vn 1.000000 -0.000000 0.000000
vn 1.000000 -0.000000 0.000000
vn 1.000000 0.000000 0.000000
vn 1.000000 0.000000 0.000000
vn 1.000000 0.000000 0.000000
vn 1.000000 0.000000 0.000000
vn 1.000000 0.000000 0.000000
vn 1.000000 0.000000 0.000000
vn 1.000000 0.000000 0.000000
vn 1.000000 0.000000 0.000000
vn 1.000000 0.000000 0.000000
vn 1.000000 0.000000 0.000000
vn 1.000000 0.000000 0.000000
vn 1.000000 0.000000 0.000000
vn 1.000000 0.000000 0.000000
vn 1.000000 0.000000 0.000000
vn 1.000000 0.000000 0.000000
vn 1.000000 0.000000 0.000000
vn 1.000000 0.000000 0.000000
vn 1.000000 0.000000 0.000000
vn 1.000000 0.000000 0.000000
vn 1.000000 0.000000 0.000000
vn -0.607754 -0.085692 -0.789489
vn -0.607754 -0.085692 -0.789489
vn -0.607754 -0.085692 -0.789489
vn -0.607754 -0.085692 -0.789489
vn 0.608060 -0.085667 -0.789255
vn 0.608060 -0.085667 -0.789255
vn 0.608060 -0.085667 -0.789255
vn 0.608060 -0.085667 -0.789255
vn -0.621154 -0.227856 -0.749833
vn -0.621154 -0.227856 -0.749833
vn -0.621154 -0.227856 -0.749833
vn -0.621154 -0.227856 -0.749833
vn 0.621459 -0.227785 -0.749602
vn 0.621459 -0.227785 -0.749602
vn 0.621459 -0.227785 -0.749602
vn 0.621459 -0.227785 -0.749602
vn -0.621173 -0.369967 -0.690846
vn -0.621173 -0.369967 -0.690846
vn -0.621173 -0.369967 -0.690846
vn -0.621173 -0.369967 -0.690846
vn 0.621478 -0.369853 -0.690633
vn 0.621478 -0.369853 -0.690633
vn 0.621478 -0.369853 -0.690633
vn 0.621478 -0.369853 -0.690633
vn -0.621202 -0.497693 -0.605318
vn -0.621202 -0.497693 -0.605318
vn -0.621202 -0.497693 -0.605318
vn -0.621202 -0.497693 -0.605318
vn 0.621507 -0.497539 -0.605131
vn 0.621507 -0.497539 -0.605131
vn 0.621507 -0.497539 -0.605131
vn 0.621507 -0.497539 -0.605131
vn -0.621216 -0.606230 -0.496564
vn -0.621216 -0.606230 -0.496564
vn -0.621216 -0.606230 -0.496565
vn -0.621216 -0.606230 -0.496565
vn 0.621521 -0.606043 -0.496411
vn 0.621521 -0.606043 -0.496411
vn 0.621521 -0.606043 -0.496411
vn 0.621521 -0.606043 -0.496411
vn -0.621203 -0.691406 -0.368869
vn -0.621203 -0.691406 -0.368869
vn -0.621203 -0.691406 -0.368869
vn -0.621203 -0.691406 -0.368869
vn 0.621508 -0.691193 -0.368755
vn 0.621508 -0.691193 -0.368755
vn 0.621508 -0.691193 -0.368755
vn 0.621508 -0.691193 -0.368755
vn -0.621199 -0.750032 -0.227076
vn -0.621199 -0.750032 -0.227076
vn -0.621199 -0.750032 -0.227076
vn -0.621199 -0.750032 -0.227076
vn 0.621504 -0.749801 -0.227006
vn 0.621504 -0.749801 -0.227006
vn 0.621504 -0.749801 -0.227006
vn 0.621504 -0.749801 -0.227006
vn -0.621209 -0.779885 -0.076670
vn -0.621209 -0.779885 -0.076670
vn -0.621209 -0.779885 -0.076670
vn -0.621209 -0.779885 -0.076670
vn 0.000000 0.000000 -1.000000
vn 0.000000 0.000000 -1.000000
vn 0.000000 0.000000 -1.000000
vn 0.000000 0.000000 -1.000000
vn 0.621514 -0.779644 -0.076647
vn 0.621514 -0.779645 -0.076647
vn 0.621514 -0.779644 -0.076647
vn 0.621514 -0.779644 -0.076647
vn 1.000000 0.000000 0.000000
vn 1.000000 0.000000 0.000000
vn 1.000000 0.000000 0.000000
vn 1.000000 0.000000 0.000000
vn -1.000000 0.000000 0.000000
vn -1.000000 0.000000 0.000000
vn -1.000000 0.000000 0.000000
vn 1.000000 0.000000 0.000000
vn 1.000000 0.000000 0.000000
vn 1.000000 0.000000 0.000000
vn -1.000000 0.000000 0.000000
vn -1.000000 0.000000 0.000000
vn -1.000000 0.000000 0.000000
vn 1.000000 -0.000000 0.000000
vn 1.000000 -0.000000 0.000000
vn 1.000000 -0.000000 0.000000
vn -1.000000 -0.000000 0.000000
vn -1.000000 -0.000000 0.000000
vn -1.000000 -0.000000 0.000000
vn 1.000000 0.000000 0.000000
vn 1.000000 0.000000 0.000000
vn 1.000000 0.000000 0.000000
vn -1.000000 0.000000 0.000000
vn -1.000000 0.000000 0.000000
vn -1.000000 0.000000 0.000000
vn 1.000000 0.000000 0.000000
vn 1.000000 0.000000 0.000000
vn 1.000000 0.000000 0.000000
vn -1.000000 0.000000 0.000000
vn -1.000000 0.000000 0.000000
vn -1.000000 0.000000 0.000000
vn 1.000000 0.000000 0.000000
vn 1.000000 0.000000 0.000000
vn 1.000000 0.000000 0.000000
vn -1.000000 0.000000 0.000000
vn -1.000000 0.000000 0.000000
vn -1.000000 0.000000 0.000000
vn 1.000000 0.000000 0.000000
vn 1.000000 0.000000 0.000000
vn 1.000000 0.000000 0.000000
vn -1.000000 0.000000 0.000000
vn -1.000000 0.000000 0.000000
vn -1.000000 0.000000 0.000000
vn 1.000000 0.000000 0.000000
vn 1.000000 0.000000 0.000000
vn 1.000000 0.000000 0.000000
vn -1.000000 0.000000 0.000000
vn -1.000000 0.000000 0.000000
vn -1.000000 0.000000 0.000000
vn 0.000000 0.000000 -1.000000
vn 0.000000 0.000000 -1.000000
vn 0.000000 0.000000 -1.000000
vn 0.000000 0.000000 -1.000000
vn 1.000000 0.000000 0.000000
vn 1.000000 0.000000 0.000000
vn 1.000000 0.000000 0.000000
vn 0.000000 -1.000000 0.000000
vn 0.000000 -1.000000 0.000000
vn 0.000000 -1.000000 0.000000
vn 0.000000 -1.000000 0.000000
vn -1.000000 0.000000 0.000000
vn -1.000000 0.000000 0.000000
vn -1.000000 0.000000 0.000000
vn -1.000000 0.000000 0.000000
vn 0.000000 0.000000 -1.000000
vn 0.000000 0.000000 -1.000000
vn 0.000000 0.000000 -1.000000
vn 0.000000 0.000000 -1.000000
vn 0.480317 0.877094 -0.001206
vn 0.480317 0.877094 -0.001206
vn 0.480317 0.877094 -0.001206
vn 0.480317 0.877094 -0.001206
vn -0.480022 0.877256 -0.001206
vn -0.480022 0.877256 -0.001206
vn -0.480022 0.877256 -0.001206
vn -0.480022 0.877256 -0.001206
vn 0.000000 0.000000 -1.000000
vn 0.000000 0.000000 -1.000000
vn 0.000000 0.000000 -1.000000
vn 0.000000 0.000000 -1.000000
s off
f 1/35/1 9/36/2 18/37/3 17/38/4
f 2/39/5 10/40/6 9/36/7 1/35/8
f 3/43/9 11/44/10 10/40/11 2/39/12
f 4/45/13 12/46/14 11/44/15 3/43/16
f 5/47/17 13/48/18 12/46/19 4/45/20
f 6/51/21 14/52/22 13/48/23 5/47/24
f 7/54/25 15/55/26 14/52/27 6/51/28
f 8/56/29 16/57/30 15/55/31 7/54/32
f 17/38/33 18/37/34 57/41/35 58/42/36
f 1/111/37 17/112/38 28/113/39 29/114/40
f 2/117/41 1/111/42 29/114/43 30/118/44
f 3/119/45 2/117/46 30/118/47 31/120/48
f 4/121/49 3/119/50 31/120/51 32/122/52
f 5/81/53 4/82/54 32/83/55 33/84/56
f 6/85/57 5/81/58 33/84/59 34/86/60
f 7/87/61 6/85/62 34/86/63 35/88/64
f 8/89/65 7/87/66 35/88/67 36/90/68
f 58/91/69 57/92/70 59/93/71 60/94/72
f 16/123/73 8/124/74 36/125/75 27/126/76
f 58/115/77 60/116/78 28/113/79 17/112/80
f 19/58/81 28/59/82 60/60/83 59/61/84
f 20/62/85 29/63/86 28/59/87 19/58/88
f 20/62/89 21/64/90 30/65/91 29/63/92
f 30/65/93 21/64/94 22/66/95 31/67/96
f 31/67/97 22/66/98 23/68/99 32/69/100
f 32/69/101 23/68/102 24/72/103 33/73/104
f 33/73/105 24/72/106 25/75/107 34/76/108
f 34/76/109 25/75/110 26/77/111 35/78/112
f 35/78/113 26/77/114 27/79/115 36/80/116
f 18/129/117 9/130/118 39/131/119 37/132/120
f 20/137/121 19/138/122 38/139/123 40/140/124
f 9/130/125 10/133/126 41/134/127 39/131/128
f 21/141/129 20/137/130 40/140/131 42/142/132
f 10/133/133 11/135/134 43/136/135 41/134/136
f 22/143/137 21/141/138 42/142/139 44/144/140
f 11/44/141 12/46/142 45/49/143 43/50/144
f 23/68/145 22/66/146 44/70/147 46/71/148
f 12/46/149 13/48/150 47/53/151 45/49/152
f 24/72/153 23/68/154 46/71/155 48/74/156
f 13/95/157 14/96/158 49/97/159 47/98/160
f 25/103/161 24/104/162 48/105/163 50/106/164
f 14/96/165 15/99/166 51/100/167 49/97/168
f 26/107/169 25/103/170 50/106/171 52/108/172
f 15/99/173 16/101/174 53/102/175 51/100/176
f 16/123/177 27/126/178 54/127/179 53/128/180
f 27/109/181 26/107/182 52/108/183 54/110/184
f 61/1/185 19/2/186 59/5/187 62/6/188
f 37/3/189 39/4/190 55/15/191
f 40/16/192 38/17/193 56/18/194
f 39/4/195 41/19/196 55/15/197
f 42/20/198 40/16/199 56/18/200
f 41/19/201 43/21/202 55/15/203
f 44/22/204 42/20/205 56/18/206
f 43/21/207 45/23/208 55/15/209
f 46/24/210 44/22/211 56/18/212
f 45/23/213 47/25/214 55/15/215
f 48/26/216 46/24/217 56/18/218
f 47/25/219 49/27/220 55/15/221
f 50/28/222 48/26/223 56/18/224
f 49/27/225 51/29/226 55/15/227
f 52/30/228 50/28/229 56/18/230
f 51/29/231 53/31/232 55/15/233
f 53/7/234 54/8/235 56/9/236 55/10/237
f 54/32/238 52/30/239 56/18/240
f 59/5/241 57/11/242 63/12/243 62/6/244
f 64/13/245 63/12/246 57/11/247 18/14/248
f 64/13/249 61/1/250 62/6/251 63/12/252
f 56/9/253 38/33/254 19/2/255 61/1/256
f 37/34/257 55/10/258 64/13/259 18/14/260
f 55/10/261 56/9/262 61/1/263 64/13/264
