# This file uses centimeters as units for non-parametric coordinates.

v 0.000244 221.508301 210.466797
v 500.000244 221.508301 210.466797
v 0.000244 387.964233 -253.097656
v 500.000244 387.964233 -253.097656
v 0.000244 376.005554 -257.337891
v 500.000244 376.005554 -257.337891
v 0.000244 209.549683 206.224609
v 500.000244 209.549683 206.224609
vt 1.002114 0.294775
vt 1.999297 0.294775
vt 1.999739 1.292658
vt 1.001671 1.292658
vt 0.482549 0.104909
vt 0.488955 0.156704
vt 0.489703 0.156493
vt 0.483184 0.104748
vt 2.026022 0.294815
vt 2.026464 1.292513
vt 0.980254 0.294921
vt 0.979812 1.292618
vt 1.002556 0.292716
vt 1.998854 0.292716
vt 2.005631 0.262198
vt 1.000387 0.262198
vt 1.002556 0.316000
vt 1.998854 0.316000
vn 0.000000 0.941164 0.337951
vn 0.000000 0.941164 0.337951
vn 0.000000 0.941164 0.337951
vn 0.000000 0.941164 0.337951
vn 0.000000 0.334189 -0.942506
vn 0.000000 0.334189 -0.942506
vn 0.000000 0.334189 -0.942506
vn 0.000000 0.334189 -0.942506
vn 0.000000 -0.941163 -0.337953
vn 0.000000 -0.941163 -0.337953
vn 0.000000 -0.941163 -0.337953
vn 0.000000 -0.941163 -0.337953
vn 0.000000 -0.334327 0.942457
vn 0.000000 -0.334327 0.942457
vn 0.000000 -0.334327 0.942457
vn 0.000000 -0.334327 0.942457
vn 0.984462 0.166738 0.055068
vn 0.984462 0.166738 0.055068
vn 0.984462 0.166738 0.055068
vn 0.984462 0.166738 0.055068
vn -0.984462 0.166740 0.055068
vn -0.984462 0.166740 0.055068
vn -0.984462 0.166740 0.055068
vn -0.984462 0.166740 0.055068
s off
f 2/2/1 4/3/2 3/4/3 1/1/4
f 3/13/5 4/14/6 6/15/7 5/16/8
f 6/5/9 8/6/10 7/7/11 5/8/12
f 7/17/13 8/18/14 2/2/15 1/1/16
f 2/2/17 8/9/18 6/10/19 4/3/20
f 7/11/21 1/1/22 3/4/23 5/12/24
