# This file uses centimeters as units for non-parametric coordinates.

v 0.000000 500.000000 -0.000771
v 0.000000 500.000000 49.999992
v -16.031265 515.364624 -0.000771
v -16.031265 515.364624 49.999229
v -9.896851 522.475037 6.173698
v -7.437134 524.284973 39.550011
v 3.750610 519.683838 50.000755
v 3.749847 520.475037 0.000755
v -4.338837 520.766052 -0.868996
v -6.085587 515.067688 49.999229
v -30.319977 510.826538 9.252922
v -37.543865 500.000000 -0.000771
v -32.821655 505.839905 49.999229
v -36.348724 500.000000 50.000755
v -20.240021 514.806152 0.000755
v -28.318401 509.375732 0.000755
v -30.356976 504.658905 -0.000008
v 12.252426 538.988892 17.134850
v 8.001709 529.336304 33.567802
v -250.000015 0.000000 50.000755
v 0.000000 0.000000 -0.000008
v -250.000015 0.000000 0.000755
v 0.000000 0.000000 50.000755
v -250.000015 126.498413 0.000755
v -250.000015 135.280411 50.000755
v -166.920090 191.074554 2.265923
v -145.315552 194.587891 50.000755
v -72.993088 356.239716 -0.000008
v -84.344101 332.944489 50.000755
v -64.075089 438.275726 -0.000771
v -54.626080 444.879150 50.000755
v -45.169453 477.079773 -0.000771
v -41.082764 490.241791 50.000755
v -109.904099 261.695099 0.000755
v -144.924927 246.259094 0.000755
v -99.966049 314.998627 0.000755
v -119.077682 269.010345 15.165703
v -250.000015 67.616653 0.000755
v -250.000015 67.101097 50.000755
v -250.000015 165.946579 0.000755
v -76.551056 370.018951 -0.000771
v -74.105835 368.963257 50.000755
v -115.493774 259.247955 50.000755
v -250.000015 163.776398 50.000755
v -217.298126 169.673920 0.993340
v -202.944183 175.199707 50.000755
vt 0.179652 1.113730
vt 0.179670 1.113796
vt 0.179721 1.113786
vt 0.179569 1.113780
vt 0.179505 1.113787
vt 0.179553 1.113855
vt 0.179636 1.113822
vt 0.179670 1.113796
vt 0.179636 1.113822
vt 0.179721 1.113786
vt 0.179652 1.113730
vt 0.179587 1.113774
vt 0.179569 1.113780
vt 0.179523 1.113780
vt 0.179569 1.113780
vt 0.179587 1.113774
vt 0.852663 1.105754
vt 0.773734 1.119402
vt 0.793478 1.006715
vt 0.922921 1.084764
vt 0.884717 1.119381
vt 0.834170 1.119405
vt 0.756100 1.119405
vt 0.793479 1.006712
vt 0.951578 1.006717
vt 0.940181 1.077787
vt 0.943543 1.006724
vt 0.023422 0.023424
vt 0.023422 0.023424
vt 0.023422 0.023424
vt 0.023422 0.023424
vt 0.884713 1.119380
vt 0.023422 0.023424
vt 0.023422 0.023424
vt 0.023422 0.023424
vt 0.888668 1.099329
vt 0.909923 1.083026
vt 0.023422 0.023424
vt 0.934045 1.071372
vt 0.179541 1.113840
vt 0.179523 1.113813
vt 0.014053 0.025766
vt 0.014053 0.025766
vt 0.014053 0.025766
vt 0.014053 0.025766
vt 0.446394 1.995916
vt 0.438716 1.994378
vt 0.431841 1.992996
vt 0.460618 1.998775
vt 0.275487 1.524384
vt 0.295029 1.629202
vt 0.497638 1.009781
vt 0.489755 1.992996
vt 0.431855 1.992973
vt 0.431847 1.992979
vt 0.431828 1.992979
vt 0.431827 1.992979
vt 0.431850 1.992978
vt 0.431827 1.992985
vt 0.431839 1.992992
vt 0.431827 1.993001
vt 0.431830 1.993000
vt 0.431846 1.992990
vt 0.431839 1.992997
vt 0.000000 0.000000
vt 0.000000 0.000000
vt 0.246607 1.555108
vt 0.431848 1.992982
vt 0.431843 1.992986
vt 0.206622 1.494030
vt 0.348070 1.710300
vt -0.001029 1.258532
vt 0.160983 1.388107
vt 0.431865 1.993007
vt 0.431823 1.993024
vt -0.001029 1.009778
vt -0.001029 1.142739
vt 0.431849 1.992980
vt 0.431827 1.992994
vt 0.431849 1.992988
vt 0.431848 1.992986
vt 0.431835 1.992998
vt 0.431836 1.992997
vt 0.431847 1.992986
vt 0.354137 1.737597
vt 0.384189 1.872815
vt 0.419772 1.949162
vt 0.431848 1.992985
vt 0.253721 1.535797
vt 0.497638 1.009805
vt 0.344005 1.664538
vt 0.489755 1.992996
vt -0.001029 1.275830
vt 0.203997 1.397310
vt 0.092014 1.359935
vt -0.001029 1.141916
vt -0.001029 1.009778
vt 0.401814 1.885495
vt 0.361610 1.735603
vt 0.445529 1.976468
vt 0.468281 1.998454
vt 0.483647 1.026514
vt 0.483647 1.026514
vt 0.483647 1.026514
vt 0.483647 1.026514
vt 0.062454 1.349861
vt -0.001029 1.336101
vt -0.001029 1.321631
vt 0.000000 0.000000
vt 0.000000 0.000000
vt 0.000000 0.000000
vt 0.000000 0.000000
vt 0.000000 0.000000
vt 0.000000 0.000000
vt 0.460618 1.998775
vn -0.757160 0.653230 0.000000
vn -0.757160 0.653230 0.000000
vn -0.757160 0.653230 0.000000
vn -0.711624 0.702414 0.014352
vn -0.711624 0.702414 0.014352
vn -0.711624 0.702414 0.014352
vn -0.096171 0.868921 0.485518
vn -0.096171 0.868921 0.485518
vn -0.096171 0.868921 0.485518
vn 0.056043 0.979509 -0.193446
vn 0.056043 0.979509 -0.193446
vn 0.056043 0.979509 -0.193446
vn -0.393828 0.772428 -0.498252
vn -0.393828 0.772428 -0.498252
vn -0.393828 0.772428 -0.498252
vn 0.022427 0.751181 0.659715
vn 0.022427 0.751181 0.659715
vn 0.022427 0.751181 0.659715
vn -0.323236 0.688545 0.649172
vn -0.323236 0.688545 0.649172
vn -0.323236 0.688545 0.649172
vn 0.000002 0.000051 1.000000
vn 0.000002 0.000051 1.000000
vn 0.000002 0.000051 1.000000
vn -0.000151 -0.000010 1.000000
vn -0.000151 -0.000010 1.000000
vn -0.000151 -0.000010 1.000000
vn 0.106201 -0.019376 -0.994156
vn 0.106201 -0.019376 -0.994156
vn 0.106201 -0.019376 -0.994156
vn -0.131540 0.991311 0.000000
vn -0.131540 0.991311 0.000000
vn -0.131540 0.991311 0.000000
vn -0.541123 0.804984 -0.243284
vn -0.541123 0.804984 -0.243284
vn -0.541123 0.804984 -0.243284
vn -0.049974 -0.052142 -0.997388
vn -0.049974 -0.052142 -0.997388
vn -0.049974 -0.052142 -0.997388
vn -0.888213 0.383920 -0.252354
vn -0.888213 0.383920 -0.252354
vn -0.888213 0.383920 -0.252354
vn -0.826066 0.562859 -0.028362
vn -0.826066 0.562859 -0.028362
vn -0.826066 0.562859 -0.028362
vn -0.826066 0.562859 -0.028362
vn -0.826066 0.562859 -0.028362
vn -0.000105 -0.000040 -1.000000
vn -0.000105 -0.000040 -1.000000
vn -0.000105 -0.000040 -1.000000
vn -0.000105 -0.000040 -1.000000
vn -0.000000 0.000162 -1.000000
vn -0.000000 0.000162 -1.000000
vn -0.000000 0.000162 -1.000000
vn 0.000000 0.000164 -1.000000
vn 0.000000 0.000164 -1.000000
vn 0.000000 0.000164 -1.000000
vn -0.434077 0.899371 0.052053
vn -0.434077 0.899371 0.052053
vn -0.434077 0.899371 0.052053
vn -0.434077 0.899371 0.052053
vn 0.000021 0.000249 1.000000
vn 0.000021 0.000249 1.000000
vn 0.000021 0.000249 1.000000
vn -0.000018 0.000031 1.000000
vn -0.000018 0.000031 1.000000
vn -0.000018 0.000031 1.000000
vn -0.199363 0.713346 -0.671856
vn -0.199363 0.713346 -0.671856
vn -0.199363 0.713346 -0.671856
vn -0.597915 0.801559 0.000593
vn -0.597915 0.801559 0.000593
vn -0.597915 0.801559 0.000593
vn -0.096167 0.868918 0.485523
vn -0.096167 0.868918 0.485523
vn -0.096167 0.868918 0.485523
vn 0.000000 -1.000000 0.000000
vn 0.000000 -1.000000 0.000000
vn 0.000000 -1.000000 0.000000
vn 0.000000 -1.000000 0.000000
vn -0.935332 0.353761 0.002840
vn -0.935332 0.353761 0.002840
vn -0.935332 0.353761 0.002840
vn -0.935332 0.353761 0.002840
vn -0.000005 0.000001 -1.000000
vn -0.000005 0.000001 -1.000000
vn -0.000005 0.000001 -1.000000
vn -1.000000 0.000000 0.000000
vn -1.000000 0.000000 0.000000
vn -1.000000 0.000000 0.000000
vn -1.000000 0.000000 0.000000
vn -1.000000 0.000000 0.000000
vn -1.000000 0.000000 0.000000
vn -1.000000 0.000000 0.000000
vn -1.000000 0.000000 0.000000
vn -0.888547 0.409806 0.206262
vn -0.888547 0.409805 0.206262
vn -0.888547 0.409805 0.206262
vn -0.931641 0.359178 0.055109
vn -0.931641 0.359178 0.055109
vn -0.931641 0.359178 0.055109
vn -0.931641 0.359178 0.055109
vn 1.000000 0.000000 0.000000
vn 1.000000 0.000000 0.000000
vn 1.000000 0.000000 0.000000
vn 1.000000 0.000000 0.000000
vn -0.811752 0.151345 -0.564051
vn -0.811752 0.151345 -0.564051
vn -0.811752 0.151345 -0.564051
vn -0.800069 0.420283 0.428080
vn -0.800069 0.420283 0.428080
vn -0.800069 0.420283 0.428080
vn -0.800069 0.420283 0.428080
vn -0.332686 0.754791 -0.565341
vn -0.332686 0.754791 -0.565341
vn -0.332686 0.754791 -0.565341
vn -0.000001 0.000002 -1.000000
vn -0.000001 0.000002 -1.000000
vn -0.000001 0.000002 -1.000000
vn -0.000022 -0.000004 -1.000000
vn -0.000022 -0.000004 -1.000000
vn -0.000022 -0.000004 -1.000000
vn 0.010746 0.021243 -0.999717
vn 0.010746 0.021243 -0.999717
vn 0.010746 0.021243 -0.999717
vn -1.000000 0.000000 0.000000
vn -1.000000 0.000000 0.000000
vn -1.000000 0.000000 0.000000
vn -1.000000 0.000000 0.000000
vn -0.000003 0.000000 -1.000000
vn -0.000003 0.000000 -1.000000
vn -0.000003 0.000000 -1.000000
vn -0.353408 0.934432 0.044050
vn -0.353408 0.934432 0.044050
vn -0.353408 0.934432 0.044050
vn -0.353408 0.934432 0.044050
vn -0.041539 -0.024443 -0.998838
vn -0.041539 -0.024443 -0.998838
vn -0.041539 -0.024443 -0.998838
vn -0.000003 0.000000 -1.000000
vn -0.000003 0.000000 -1.000000
vn -0.000003 0.000000 -1.000000
vn -0.989578 0.132749 -0.055803
vn -0.989578 0.132749 -0.055803
vn -0.989578 0.132749 -0.055803
vn -0.989578 0.132749 -0.055803
vn 0.000000 0.000000 -1.000000
vn 0.000000 0.000000 -1.000000
vn 0.000000 0.000000 -1.000000
vn -0.000000 0.000000 -1.000000
vn -0.000000 0.000000 -1.000000
vn -0.000000 0.000000 -1.000000
vn 0.000000 0.000000 -1.000000
vn 0.000000 0.000000 -1.000000
vn 0.000000 0.000000 -1.000000
vn 0.000065 -0.000038 -1.000000
vn 0.000065 -0.000038 -1.000000
vn 0.000065 -0.000038 -1.000000
vn -0.835134 0.546205 0.064886
vn -0.835135 0.546205 0.064886
vn -0.835135 0.546205 0.064886
vn -0.000000 0.000000 1.000000
vn -0.000000 0.000000 1.000000
vn -0.000000 0.000000 1.000000
vn 0.000006 0.000002 1.000000
vn 0.000006 0.000002 1.000000
vn 0.000006 0.000002 1.000000
vn -0.000000 0.000000 1.000000
vn -0.000000 0.000000 1.000000
vn -0.000000 0.000000 1.000000
vn 0.000000 0.000000 1.000000
vn 0.000000 0.000000 1.000000
vn 0.000000 0.000000 1.000000
vn 0.000000 0.000000 1.000000
vn 0.000000 0.000000 1.000000
vn 0.000000 0.000000 1.000000
vn 0.000019 -0.000005 1.000000
vn 0.000019 -0.000005 1.000000
vn 0.000019 -0.000005 1.000000
vn 0.000020 -0.000006 1.000000
vn 0.000020 -0.000006 1.000000
vn 0.000020 -0.000006 1.000000
vn 0.000021 -0.000010 1.000000
vn 0.000021 -0.000010 1.000000
vn 0.000021 -0.000010 1.000000
vn 0.000021 -0.000006 1.000000
vn 0.000021 -0.000006 1.000000
vn 0.000021 -0.000006 1.000000
vn -0.000007 -0.000002 -1.000000
vn -0.000007 -0.000002 -1.000000
vn -0.000007 -0.000002 -1.000000
vn -0.971057 0.215234 0.103556
vn -0.971057 0.215234 0.103556
vn -0.971056 0.215234 0.103556
vn -0.971056 0.215234 0.103556
vn 0.022839 0.005685 -0.999723
vn 0.022839 0.005685 -0.999723
vn 0.022839 0.005685 -0.999723
vn -0.901610 0.399607 0.165569
vn -0.901610 0.399607 0.165569
vn -0.901610 0.399607 0.165569
vn -0.901610 0.399607 0.165569
vn 0.030339 0.000000 -0.999540
vn 0.030339 0.000000 -0.999540
vn 0.030339 0.000000 -0.999540
vn -0.186542 0.982427 -0.006252
vn -0.186542 0.982427 -0.006252
vn -0.186542 0.982427 -0.006252
vn -0.186542 0.982427 -0.006252
vn 0.000000 0.000000 1.000000
vn 0.000000 0.000000 1.000000
vn 0.000000 0.000000 1.000000
vn 0.911012 -0.412328 -0.006545
vn 0.911012 -0.412328 -0.006545
vn 0.911012 -0.412328 -0.006545
vn 0.983001 -0.183595 -0.001460
vn 0.983001 -0.183595 -0.001460
vn 0.983001 -0.183595 -0.001460
vn 0.983001 -0.183595 -0.001460
vn 0.911001 -0.412352 -0.006539
vn 0.911001 -0.412352 -0.006539
vn 0.911001 -0.412352 -0.006539
vn 0.000000 0.000000 1.000000
vn 0.000000 0.000000 1.000000
vn 0.000000 0.000000 1.000000
vn 0.000000 0.000000 1.000000
vn 0.000000 0.000000 1.000000
vn 0.000000 0.000000 1.000000
s off
f 4/1/1 5/2/2 3/3/3
f 5/2/4 4/1/5 6/4/6
f 19/41/7 6/4/8 7/5/9
f 8/6/10 9/7/11 5/2/12
f 5/8/13 9/9/14 3/10/15
f 6/13/16 4/11/17 10/12/18
f 7/14/19 6/15/20 10/16/21
f 2/19/22 10/17/23 4/32/24
f 2/19/25 7/18/26 10/17/27
f 1/24/28 9/22/29 8/23/30
f 15/35/31 4/30/32 3/31/33
f 15/36/34 16/37/35 11/20/36
f 1/24/37 3/21/38 9/22/39
f 16/37/40 17/39/41 11/20/42
f 11/28/43 17/38/44 12/33/45 14/34/46 13/29/47
f 1/24/48 16/37/49 15/36/50 3/21/51
f 1/24/52 17/39/53 16/37/54
f 1/24/55 12/25/56 17/39/57
f 11/28/58 13/29/59 4/30/60 15/35/61
f 2/19/62 13/26/63 14/27/64
f 2/19/65 4/32/66 13/26/67
f 8/6/68 5/2/69 18/40/70
f 5/2/71 6/4/72 18/40/73
f 18/40/74 6/4/75 19/41/76
f 22/42/77 21/43/78 23/44/79 20/45/80
f 32/46/81 33/47/82 14/48/83 12/115/84
f 34/50/85 36/51/86 21/52/87
f 24/54/88 38/55/89 39/56/90 25/57/91
f 40/58/92 24/54/93 25/57/94 44/59/95
f 37/60/96 27/61/97 43/62/98
f 30/63/99 31/64/100 33/47/101 32/46/102
f 21/65/103 1/66/104 2/109/105 23/110/106
f 36/51/107 34/50/108 37/67/109
f 27/61/110 37/60/111 35/68/112 26/69/113
f 37/67/114 34/50/115 35/70/116
f 34/50/117 21/52/118 35/70/119
f 21/52/120 36/51/121 28/71/122
f 21/52/123 24/72/124 26/73/125
f 39/56/126 38/55/127 22/74/128 20/75/129
f 21/52/130 22/76/131 38/77/132
f 45/78/133 46/79/134 27/61/135 26/80/136
f 35/70/137 21/52/138 26/73/139
f 21/52/140 38/77/141 24/72/142
f 28/81/143 29/82/144 42/83/145 41/84/146
f 1/53/147 41/85/148 30/86/149
f 1/53/150 30/86/151 32/87/152
f 1/53/153 32/87/154 12/49/155
f 1/53/156 28/71/157 41/85/158
f 36/88/159 29/82/160 28/81/161
f 43/89/162 23/90/163 29/91/164
f 23/90/165 2/92/166 29/91/167
f 23/90/168 46/95/169 25/93/170
f 23/90/171 39/96/172 20/97/173
f 23/90/174 25/93/175 39/96/176
f 2/92/177 31/98/178 42/99/179
f 2/92/180 33/100/181 31/98/182
f 2/92/183 14/101/184 33/100/185
f 2/92/186 42/99/187 29/91/188
f 21/52/189 28/71/190 1/53/191
f 30/102/192 41/103/193 42/104/194 31/105/195
f 45/106/196 26/73/197 24/72/198
f 37/60/199 43/62/200 29/82/201 36/88/202
f 45/106/203 24/72/204 40/107/205
f 40/58/206 44/59/207 46/79/208 45/78/209
f 25/93/210 46/95/211 44/108/212
f 19/111/213 8/112/214 18/113/215
f 1/66/216 8/112/217 7/114/218 2/109/219
f 7/114/220 8/112/221 19/111/222
f 43/89/223 27/94/224 23/90/225
f 27/94/226 46/95/227 23/90/228
