# This file uses centimeters as units for non-parametric coordinates.

v 0.000000 0.000000 -0.000153
v 250.000000 -250.000000 -0.000153
v 0.000000 0.000000 -250.000153
v 250.000000 -250.000000 -250.000153
v 14.862671 -7.242432 -236.207123
v 242.757568 -235.137329 -236.207123
v 242.757568 -235.137329 -13.793182
v 14.862671 -7.242432 -13.793182
v -3.840332 -3.839417 -250.000153
v 246.160278 -253.839722 -250.000153
v 237.037079 -244.716492 -238.089752
v 5.284149 -12.963562 -238.089752
v 246.160278 -253.839722 -0.000153
v 237.037079 -244.716492 -11.910553
v -3.840332 -3.839417 -0.000153
v 5.284149 -12.963562 -11.910553
v 232.081909 -267.918091 -46.782074
v 246.159058 -253.839722 -46.782074
v -17.918701 -17.918091 -46.782074
v -3.840332 -3.840332 -46.782074
v -17.918701 -17.918091 -62.077637
v -3.840332 -3.840332 -62.077637
v 232.081909 -267.918091 -62.077637
v 246.159058 -253.839722 -62.077637
v 232.081909 -267.918091 -187.922668
v 246.159058 -253.839722 -187.922668
v -17.918701 -17.918091 -187.922668
v -3.840332 -3.840332 -187.922668
v -17.918701 -17.918091 -203.218231
v -3.840332 -3.840332 -203.218231
v 232.081909 -267.918091 -203.218231
v 246.159058 -253.839722 -203.218231
v 5.753784 5.753784 -0.000153
v 255.754395 -244.245605 -0.000153
v 5.753784 5.753784 -250.000153
v 255.754395 -244.245605 -250.000153
vt 0.188560 0.667273
vt 0.488970 0.156819
vt 0.488355 0.156822
vt 0.488372 0.155936
vt 0.489258 0.155963
vt 0.488315 0.155880
vt 0.489001 0.156859
vt 0.488313 0.156865
vt 0.489190 0.156005
vt 0.188560 0.528618
vt 0.081553 0.528618
vt 0.081553 0.667273
vt 0.489258 0.155963
vt 0.489001 0.156859
vt 0.488977 0.156835
vt 0.489205 0.156004
vt 0.488313 0.156865
vt 0.488349 0.156839
vt 0.488315 0.155880
vt 0.488363 0.155934
vt 0.496789 0.156481
vt 0.496787 0.156426
vt 0.496807 0.155481
vt 0.496809 0.155542
vt 0.496879 0.155481
vt 0.496882 0.155542
vt 0.496840 0.156480
vt 0.496838 0.156425
vt 0.496789 0.156481
vt 0.496787 0.156426
vt 0.496809 0.155542
vt 0.496807 0.155481
vt 0.496879 0.155481
vt 0.496882 0.155542
vt 0.496838 0.156425
vt 0.496840 0.156480
vt 0.237129 0.305227
vt 0.237499 0.305786
vt 0.237504 0.305767
vt 0.237130 0.305203
vt 0.237206 0.306183
vt 0.236683 0.305324
vt 0.237204 0.306203
vt 0.236689 0.305357
vt 0.755685 0.744037
vt 0.755685 0.506807
vt 0.994841 0.506807
vt 0.994841 0.744037
vn -0.707107 -0.707107 0.000000
vn -0.707107 -0.707107 0.000000
vn -0.707107 -0.707107 0.000000
vn -0.707107 -0.707107 0.000000
vn -0.707107 -0.707107 0.000011
vn -0.707107 -0.707107 0.000011
vn -0.707107 -0.707107 0.000011
vn -0.707107 -0.707107 0.000011
vn -0.707108 -0.707106 0.000000
vn -0.707108 -0.707106 0.000000
vn -0.707108 -0.707106 0.000000
vn -0.707108 -0.707106 0.000000
vn -0.707107 -0.707107 -0.000011
vn -0.707107 -0.707107 -0.000011
vn -0.707107 -0.707107 -0.000011
vn -0.707107 -0.707107 -0.000011
vn -0.707094 -0.707120 0.000000
vn -0.707094 -0.707120 0.000000
vn -0.707094 -0.707120 0.000000
vn -0.707094 -0.707120 0.000000
vn -0.121228 -0.121229 0.985194
vn -0.121228 -0.121229 0.985194
vn -0.121228 -0.121229 0.985194
vn -0.121228 -0.121229 0.985194
vn -0.858559 0.512715 0.000000
vn -0.858559 0.512715 0.000000
vn -0.858559 0.512715 0.000000
vn -0.858559 0.512715 0.000000
vn -0.000000 0.000000 -1.000000
vn -0.000000 0.000000 -1.000000
vn -0.000000 0.000000 -1.000000
vn -0.000000 0.000000 -1.000000
vn 0.707107 -0.707107 0.000000
vn 0.707107 -0.707107 0.000000
vn 0.707107 -0.707107 0.000000
vn 0.707107 -0.707107 0.000000
vn 0.000000 0.000000 1.000000
vn 0.000000 0.000000 1.000000
vn 0.000000 0.000000 1.000000
vn 0.000000 0.000000 1.000000
vn -0.121229 -0.121229 -0.985194
vn -0.121229 -0.121229 -0.985194
vn -0.121229 -0.121229 -0.985194
vn -0.121229 -0.121229 -0.985194
vn -0.707022 0.707191 0.000000
vn -0.707022 0.707191 0.000000
vn -0.707022 0.707191 0.000000
vn -0.707022 0.707191 0.000000
vn 0.512782 -0.858519 0.000000
vn 0.512782 -0.858519 0.000000
vn 0.512782 -0.858519 0.000000
vn 0.512782 -0.858519 0.000000
vn 0.000000 0.000000 1.000000
vn 0.000000 0.000000 1.000000
vn 0.000000 0.000000 1.000000
vn 0.000000 0.000000 1.000000
vn -0.707092 0.707122 0.000000
vn -0.707092 0.707122 0.000000
vn -0.707092 0.707122 0.000000
vn -0.707092 0.707122 0.000000
vn 0.707138 -0.707076 0.000000
vn 0.707138 -0.707076 0.000000
vn 0.707138 -0.707076 0.000000
vn 0.707138 -0.707076 0.000000
vn 0.707107 0.707107 0.000000
vn 0.707107 0.707107 0.000000
vn 0.707107 0.707107 0.000000
vn 0.707107 0.707107 0.000000
vn -0.707091 0.707122 0.000000
vn -0.707091 0.707122 0.000000
vn -0.707091 0.707122 0.000000
vn -0.707091 0.707122 0.000000
vn 0.000000 0.000000 -1.000000
vn 0.000000 0.000000 -1.000000
vn 0.000000 0.000000 -1.000000
vn 0.000000 0.000000 -1.000000
vn 0.707137 -0.707076 0.000000
vn 0.707137 -0.707076 0.000000
vn 0.707137 -0.707076 0.000000
vn 0.707137 -0.707076 0.000000
vn 0.707107 0.707107 0.000000
vn 0.707107 0.707107 0.000000
vn 0.707107 0.707107 0.000000
vn 0.707107 0.707107 0.000000
vn 0.000000 0.000000 -1.000000
vn 0.000000 0.000000 -1.000000
vn 0.000000 0.000000 -1.000000
vn 0.000000 0.000000 -1.000000
vn -0.707106 -0.707108 0.000000
vn -0.707106 -0.707108 0.000000
vn -0.707106 -0.707108 0.000000
vn -0.707106 -0.707108 0.000000
vn -0.707106 -0.707108 0.000000
vn -0.707106 -0.707108 0.000000
vn -0.707106 -0.707108 0.000000
vn -0.707106 -0.707108 0.000000
vn -0.000001 0.000000 1.000000
vn -0.000001 0.000000 1.000000
vn -0.000001 0.000000 1.000000
vn -0.000001 0.000000 1.000000
vn 0.000000 0.000000 1.000000
vn 0.000000 0.000000 1.000000
vn 0.000000 0.000000 1.000000
vn 0.000000 0.000000 1.000000
vn 0.707105 0.707108 0.000000
vn 0.707105 0.707108 0.000000
vn 0.707105 0.707108 0.000000
vn 0.707105 0.707108 0.000000
vn 0.000001 0.000000 -1.000000
vn 0.000001 0.000000 -1.000000
vn 0.000001 0.000000 -1.000000
vn 0.000001 0.000000 -1.000000
vn 0.707107 -0.707107 0.000000
vn 0.707107 -0.707107 0.000000
vn 0.707107 -0.707107 0.000000
vn 0.707107 -0.707107 0.000000
vn -0.707107 0.707107 0.000000
vn -0.707107 0.707107 0.000000
vn -0.707107 0.707107 0.000000
vn -0.707107 0.707107 0.000000
s off
f 5/1/1 6/10/2 7/11/3 8/12/4
f 9/13/5 10/14/6 11/15/7 12/16/8
f 10/14/9 13/17/10 14/18/11 11/15/12
f 13/17/13 15/19/14 16/20/15 14/18/16
f 15/19/17 9/13/18 12/16/19 16/20/20
f 6/2/21 5/9/22 12/16/23 11/15/24
f 7/3/25 6/2/26 11/15/27 14/18/28
f 3/5/29 4/7/30 10/14/31 9/13/32
f 4/7/33 2/8/34 13/17/35 10/14/36
f 2/8/37 1/6/38 15/19/39 13/17/40
f 7/3/41 14/18/42 16/20/43 8/4/44
f 1/6/45 3/5/46 9/13/47 15/19/48
f 8/4/49 16/20/50 12/16/51 5/9/52
f 17/21/53 18/22/54 20/23/55 19/24/56
f 19/24/57 20/23/58 22/25/59 21/26/60
f 23/27/61 24/28/62 18/22/63 17/21/64
f 18/22/65 24/28/66 22/25/67 20/23/68
f 27/31/69 28/32/70 30/33/71 29/34/72
f 30/33/73 32/35/74 31/36/75 29/34/76
f 31/36/77 32/35/78 26/30/79 25/29/80
f 26/30/81 32/35/82 30/33/83 28/32/84
f 24/28/85 23/27/86 21/26/87 22/25/88
f 19/24/89 21/26/90 23/27/91 17/21/92
f 31/36/93 25/29/94 27/31/95 29/34/96
f 28/32/97 27/31/98 25/29/99 26/30/100
f 1/37/101 2/38/102 34/39/103 33/40/104
f 33/45/105 34/46/106 36/47/107 35/48/108
f 35/42/109 36/41/110 4/43/111 3/44/112
f 2/38/113 4/43/114 36/41/115 34/39/116
f 3/44/117 1/37/118 33/40/119 35/42/120
