# This file uses centimeters as units for non-parametric coordinates.

v -0.000153 0.000000 -250.000610
v 1.038666 2.127304 -248.961182
v -0.000153 0.000000 0.000000
v 249.989471 0.000000 -250.000610
v 249.999237 2.257681 0.230103
v 248.537460 2.979021 -246.959839
v 2.378998 3.794718 -3.093872
v 248.375107 3.061991 -1.508789
v 36.655121 4.599648 -247.621460
v 2.378998 4.599648 -216.442261
v 17.602386 4.599648 -244.004517
v 7.642670 4.599648 -236.203613
v 246.895615 3.794718 -26.609497
v 222.304520 3.794718 -3.093872
v 244.908295 3.794718 -15.168457
v 237.604233 4.599648 -7.023926
v 246.895599 3.794718 -236.836548
v 242.400360 3.794718 -247.621460
v 246.895615 3.794718 -210.342407
v 246.895584 3.794718 -193.019409
v 244.764267 4.599648 -203.377686
v 247.993027 3.249617 -203.416748
vt 0.361684 0.912696
vt 0.361223 0.912963
vt 0.361238 0.912940
vt 0.361533 0.912760
vt 0.361680 0.912689
vt 0.360840 0.912567
vt 0.361256 0.912401
vt 0.361258 0.912397
vt 0.361274 0.912402
vt 0.361463 0.912528
vt 0.360947 0.912525
vt 0.360911 0.912548
vt 0.360850 0.912565
vt 0.361600 0.912691
vt 0.361576 0.912622
vt 0.361131 0.912452
vt 0.361147 0.912442
vt 0.361229 0.912407
vt 0.360924 0.912626
vt 0.361121 0.912452
vt 0.360899 0.912575
vt 0.361090 0.912465
vn -0.872224 0.489106 0.000947
vn -0.872224 0.489106 0.000947
vn -0.872224 0.489106 0.000947
vn -0.872224 0.489106 0.000947
vn -0.872224 0.489106 0.000947
vn 0.002871 0.492289 -0.870427
vn 0.002871 0.492289 -0.870427
vn 0.002871 0.492289 -0.870427
vn 0.002871 0.492289 -0.870427
vn 0.002871 0.492289 -0.870427
vn 0.002871 0.492289 -0.870427
vn 0.124473 0.991987 0.021621
vn 0.124473 0.991987 0.021621
vn 0.124473 0.991987 0.021621
vn -0.106380 0.985006 -0.135820
vn -0.106380 0.985006 -0.135820
vn -0.106380 0.985006 -0.135820
vn -0.055328 0.954985 -0.291448
vn -0.055328 0.954985 -0.291448
vn -0.055328 0.954985 -0.291448
vn -0.239471 0.968806 -0.063786
vn -0.239471 0.968806 -0.063786
vn -0.239471 0.968806 -0.063786
vn 0.007030 0.999807 -0.018333
vn 0.007030 0.999807 -0.018333
vn 0.007030 0.999807 -0.018333
vn 0.007030 0.999807 -0.018333
vn 0.007030 0.999807 -0.018333
vn -0.003887 0.765464 0.643467
vn -0.003887 0.765464 0.643467
vn -0.003887 0.765464 0.643467
vn -0.003887 0.765464 0.643467
vn -0.003887 0.765464 0.643467
vn 0.816805 0.576890 -0.005237
vn 0.816805 0.576890 -0.005237
vn 0.816805 0.576890 -0.005237
vn 0.012266 0.969130 0.246244
vn 0.012266 0.969130 0.246244
vn 0.012266 0.969130 0.246244
vn 0.131341 0.991139 0.019832
vn 0.131341 0.991139 0.019832
vn 0.131341 0.991139 0.019832
vn 0.137611 0.988824 -0.057357
vn 0.137611 0.988824 -0.057357
vn 0.137611 0.988824 -0.057357
vn 0.385676 0.922603 -0.007662
vn 0.385676 0.922603 -0.007662
vn 0.385676 0.922603 -0.007662
vn 0.385853 0.922489 0.011466
vn 0.385853 0.922489 0.011466
vn 0.385853 0.922489 0.011466
vn 0.141568 0.989923 0.003461
vn 0.141568 0.989922 0.003461
vn 0.141568 0.989922 0.003461
vn 0.141568 0.989923 0.003461
vn 0.141568 0.989923 0.003461
vn -0.003302 0.999969 0.007176
vn -0.003302 0.999969 0.007176
vn -0.003302 0.999969 0.007176
vn -0.003302 0.999969 0.007176
vn 0.000000 1.000000 0.000000
vn 0.000000 1.000000 0.000000
vn 0.000000 1.000000 0.000000
vn 0.000000 1.000000 0.000000
vn 0.000000 1.000000 0.000000
vn 0.000000 1.000000 0.000000
vn 0.747232 0.664543 0.005214
vn 0.747232 0.664543 0.005214
vn 0.747232 0.664543 0.005214
vn 0.747232 0.664543 0.005214
vn 0.747232 0.664543 0.005214
vn 0.444076 0.895989 -0.000006
vn 0.444076 0.895989 -0.000006
vn 0.444076 0.895989 -0.000006
vn 0.444076 0.895989 -0.000006
vn 0.444077 0.895989 -0.000006
s off
f 1/1/1 3/2/2 7/3/3 10/4/4 2/5/5
f 18/9/6 6/8/7 4/7/8 1/1/9 2/5/10 9/10/11
f 13/11/12 15/12/13 8/13/14
f 2/5/15 12/14/16 11/15/17
f 2/5/18 11/15/19 9/10/20
f 2/5/21 10/4/22 12/14/23
f 9/10/24 21/16/25 19/17/26 17/18/27 18/9/28
f 8/13/29 14/19/30 7/3/31 3/2/32 5/6/33
f 4/7/34 22/20/35 5/6/36
f 8/13/37 16/21/38 14/19/39
f 8/13/40 15/12/41 16/21/42
f 18/9/43 17/18/44 6/8/45
f 22/20/46 21/16/47 20/22/48
f 19/17/49 21/16/50 22/20/51
f 21/16/52 16/21/53 15/12/54 13/11/55 20/22/56
f 16/21/57 10/4/58 7/3/59 14/19/60
f 9/10/61 11/15/62 12/14/63 10/4/64 16/21/65 21/16/66
f 6/8/67 17/18/68 19/17/69 22/20/70 4/7/71
f 5/6/72 22/20/73 20/22/74 13/11/75 8/13/76
