# This file uses centimeters as units for non-parametric coordinates.

v -67.817383 0.000000 83.917969
v 67.817383 0.000000 83.917969
v -67.817383 129.486328 83.917969
v 67.817383 129.486328 83.917969
v -67.817383 129.486328 -83.912109
v 67.817383 129.486328 -83.912109
v -67.817383 0.000000 -83.912109
v 67.817383 0.000000 -83.912109
v -67.817383 34.713867 83.917969
v 67.817383 34.713867 83.917969
v 67.817383 94.771729 83.917969
v -67.817383 94.771729 83.917969
v -67.817383 94.771729 -83.912109
v 67.817383 94.771729 -83.912109
v 67.817383 34.713867 -83.912109
v -67.817383 34.713867 -83.912109
v -58.039063 40.815430 71.810547
v 58.042969 40.815430 71.810547
v 58.042969 88.670166 71.810547
v -58.039063 88.670166 71.810547
v -58.039063 88.670166 -71.810547
v 58.042969 88.670166 -71.810547
v 58.042969 40.815430 -71.810547
v -58.039063 40.815430 -71.810547
v -52.092773 129.486328 64.458984
v 52.093750 129.486328 64.458984
v 52.093750 129.486328 -64.458984
v -52.092773 129.486328 -64.458984
v -8.172363 313.115723 10.117188
v 8.173828 313.115723 10.117188
v 8.173828 313.115723 -10.117188
v -8.172363 313.115723 -10.117188
v -42.085938 176.981934 52.070313
v 42.089355 176.981934 52.070313
v 42.089355 176.981934 -52.072266
v -42.085938 176.981934 -52.072266
v -32.054199 186.651367 39.658203
v -32.054199 186.651367 -39.660156
v 32.055664 186.651367 -39.660156
v 32.055664 186.651367 39.658203
v -27.156738 247.845459 33.607422
v -27.156738 247.845459 -33.607422
v 27.158203 247.845459 -33.607422
v 27.158203 247.845459 33.607422
v -17.020020 256.833740 21.064453
v -17.020020 256.833740 -21.062500
v 17.023926 256.833740 -21.062500
v 17.023926 256.833740 21.064453
vt 0.196214 0.303189
vt 0.196171 0.303179
vt 0.196201 0.303159
vt 0.196244 0.303168
vt 0.196480 0.303964
vt 0.196149 0.303876
vt 0.195911 0.304065
vt 0.196249 0.304159
vt 0.195910 0.303975
vt 0.196250 0.304069
vt 0.195908 0.303726
vt 0.196254 0.303817
vt 0.196253 0.303910
vt 0.195909 0.303819
vt 0.196490 0.303630
vt 0.196152 0.303546
vt 0.196151 0.303636
vt 0.196487 0.303721
vt 0.196483 0.303876
vt 0.196150 0.303789
vt 0.195952 0.303952
vt 0.196243 0.304032
vt 0.196245 0.303905
vt 0.195951 0.303828
vt 0.196158 0.303670
vt 0.196446 0.303744
vt 0.196442 0.303867
vt 0.196157 0.303793
vt 0.195977 0.303715
vt 0.196242 0.303784
vt 0.196163 0.303576
vt 0.196424 0.303641
vt 0.196236 0.303635
vt 0.196020 0.303580
vt 0.196064 0.303547
vt 0.196228 0.303588
vt 0.196172 0.303469
vt 0.196179 0.303463
vt 0.196384 0.303521
vt 0.196342 0.303502
vt 0.196227 0.303409
vt 0.196324 0.303338
vt 0.196185 0.303305
vt 0.196086 0.303375
vt 0.196219 0.303364
vt 0.196280 0.303320
vt 0.196193 0.303300
vt 0.196131 0.303343
vt 0.196864 0.280869
vt 0.196292 0.280793
vt 0.196282 0.280520
vt 0.196860 0.280586
vt 0.197282 0.280445
vt 0.196734 0.280390
vt 0.196739 0.280642
vt 0.197282 0.280706
vn 0.000000 0.000000 1.000000
vn 0.000000 0.000000 1.000000
vn 0.000000 0.000000 1.000000
vn 0.000000 0.000000 1.000000
vn 0.000000 1.000000 0.000000
vn 0.000000 1.000000 0.000000
vn 0.000000 1.000000 0.000000
vn 0.000000 1.000000 0.000000
vn 0.000000 0.000000 -1.000000
vn 0.000000 0.000000 -1.000000
vn 0.000000 0.000000 -1.000000
vn 0.000000 0.000000 -1.000000
vn 0.000000 -1.000000 0.000000
vn 0.000000 -1.000000 0.000000
vn 0.000000 -1.000000 0.000000
vn 0.000000 -1.000000 0.000000
vn 1.000000 0.000000 0.000000
vn 1.000000 0.000000 0.000000
vn 1.000000 0.000000 0.000000
vn 1.000000 0.000000 0.000000
vn -1.000000 0.000000 0.000000
vn -1.000000 0.000000 0.000000
vn -1.000000 0.000000 0.000000
vn -1.000000 0.000000 0.000000
vn 0.000000 0.000000 1.000000
vn 0.000000 0.000000 1.000000
vn 0.000000 0.000000 1.000000
vn 0.000000 0.000000 1.000000
vn 0.000000 0.000000 1.000000
vn 0.000000 0.000000 1.000000
vn 0.000000 0.000000 1.000000
vn 0.000000 0.000000 1.000000
vn 0.000000 0.000000 -1.000000
vn 0.000000 0.000000 -1.000000
vn 0.000000 0.000000 -1.000000
vn 0.000000 0.000000 -1.000000
vn 0.000000 0.000000 -1.000000
vn 0.000000 0.000000 -1.000000
vn 0.000000 0.000000 -1.000000
vn 0.000000 0.000000 -1.000000
vn 1.000000 0.000000 0.000000
vn 1.000000 0.000000 0.000000
vn 1.000000 0.000000 0.000000
vn 1.000000 0.000000 0.000000
vn 1.000000 0.000000 0.000000
vn 1.000000 0.000000 0.000000
vn 1.000000 0.000000 0.000000
vn 1.000000 0.000000 0.000000
vn -1.000000 0.000000 0.000000
vn -1.000000 0.000000 0.000000
vn -1.000000 0.000000 0.000000
vn -1.000000 0.000000 0.000000
vn -1.000000 0.000000 0.000000
vn -1.000000 0.000000 0.000000
vn -1.000000 0.000000 0.000000
vn -1.000000 0.000000 0.000000
vn 0.000000 0.893011 0.450035
vn 0.000000 0.893011 0.450035
vn 0.000000 0.893011 0.450035
vn 0.000000 0.893011 0.450035
vn 0.000000 -0.893011 0.450035
vn 0.000000 -0.893011 0.450035
vn 0.000000 -0.893011 0.450035
vn 0.000000 -0.893011 0.450035
vn 0.000000 -0.892923 -0.450209
vn 0.000000 -0.892923 -0.450209
vn 0.000000 -0.892923 -0.450209
vn 0.000000 -0.892923 -0.450209
vn 0.000000 0.892923 -0.450209
vn 0.000000 0.892923 -0.450209
vn 0.000000 0.892923 -0.450209
vn 0.000000 0.892923 -0.450209
vn 0.529534 0.848289 0.000000
vn 0.529534 0.848289 0.000000
vn 0.529534 0.848289 0.000000
vn 0.529534 0.848289 0.000000
vn 0.529534 -0.848289 0.000000
vn 0.529534 -0.848289 0.000000
vn 0.529534 -0.848289 0.000000
vn 0.529534 -0.848289 0.000000
vn -0.529382 0.848384 0.000000
vn -0.529382 0.848384 0.000000
vn -0.529382 0.848384 0.000000
vn -0.529382 0.848384 0.000000
vn -0.529382 -0.848384 0.000000
vn -0.529382 -0.848384 0.000000
vn -0.529382 -0.848384 0.000000
vn -0.529382 -0.848384 0.000000
vn 0.000000 1.000000 -0.000000
vn 0.000000 1.000000 -0.000000
vn 0.000000 1.000000 -0.000000
vn 0.000000 1.000000 -0.000000
vn 0.000000 1.000000 0.000000
vn 0.000000 1.000000 0.000000
vn 0.000000 1.000000 0.000000
vn 0.000000 1.000000 0.000000
vn 0.000000 1.000000 -0.000000
vn 0.000000 1.000000 -0.000000
vn 0.000000 1.000000 -0.000000
vn 0.000000 1.000000 -0.000000
vn 0.000000 1.000000 0.000000
vn 0.000000 1.000000 0.000000
vn 0.000000 1.000000 0.000000
vn 0.000000 1.000000 0.000000
vn 0.000000 0.788873 0.614557
vn 0.000000 0.788872 0.614557
vn 0.000000 0.788873 0.614557
vn 0.000000 0.788872 0.614557
vn 0.693916 0.720056 0.000000
vn 0.693916 0.720056 0.000000
vn 0.693916 0.720056 0.000000
vn 0.693916 0.720056 0.000000
vn 0.000000 0.788872 -0.614557
vn 0.000000 0.788872 -0.614557
vn 0.000000 0.788872 -0.614557
vn 0.000000 0.788872 -0.614557
vn -0.693986 0.719989 0.000000
vn -0.693986 0.719989 0.000000
vn -0.693986 0.719989 0.000000
vn -0.693986 0.719989 0.000000
vn 0.000000 0.252394 0.967625
vn 0.000000 0.252394 0.967625
vn 0.000000 0.252394 0.967625
vn 0.000000 0.252394 0.967625
vn 0.978528 0.206115 0.000000
vn 0.978528 0.206115 0.000000
vn 0.978528 0.206115 0.000000
vn 0.978528 0.206115 0.000000
vn 0.000000 0.252356 -0.967634
vn 0.000000 0.252356 -0.967634
vn 0.000000 0.252356 -0.967634
vn 0.000000 0.252356 -0.967634
vn -0.978518 0.206164 0.000000
vn -0.978518 0.206164 0.000000
vn -0.978518 0.206164 0.000000
vn -0.978518 0.206164 0.000000
vn -0.996813 0.079777 0.000000
vn -0.996813 0.079777 0.000000
vn -0.996813 0.079777 0.000000
vn -0.996813 0.079777 0.000000
vn 0.000000 0.098430 -0.995144
vn 0.000000 0.098430 -0.995144
vn 0.000000 0.098430 -0.995144
vn 0.000000 0.098430 -0.995144
vn 0.996813 0.079777 0.000000
vn 0.996813 0.079777 0.000000
vn 0.996813 0.079777 0.000000
vn 0.996813 0.079777 0.000000
vn 0.000000 0.098399 0.995147
vn 0.000000 0.098399 0.995147
vn 0.000000 0.098399 0.995147
vn 0.000000 0.098399 0.995147
vn -0.663451 0.748220 0.000000
vn -0.663451 0.748220 0.000000
vn -0.663451 0.748220 0.000000
vn -0.663451 0.748220 0.000000
vn 0.000000 0.812886 -0.582422
vn 0.000000 0.812886 -0.582422
vn 0.000000 0.812886 -0.582422
vn 0.000000 0.812886 -0.582422
vn 0.663540 0.748141 0.000000
vn 0.663540 0.748141 0.000000
vn 0.663540 0.748141 0.000000
vn 0.663540 0.748141 0.000000
vn 0.000000 0.812844 0.582482
vn 0.000000 0.812844 0.582482
vn 0.000000 0.812844 0.582482
vn 0.000000 0.812844 0.582482
vn -0.987868 0.155295 0.000000
vn -0.987868 0.155295 0.000000
vn -0.987868 0.155295 0.000000
vn -0.987868 0.155295 0.000000
vn 0.000000 0.190896 -0.981610
vn 0.000000 0.190896 -0.981610
vn 0.000000 0.190896 -0.981610
vn 0.000000 0.190896 -0.981610
vn 0.987862 0.155337 0.000000
vn 0.987862 0.155337 0.000000
vn 0.987862 0.155337 0.000000
vn 0.987862 0.155337 0.000000
vn 0.000000 0.190929 0.981604
vn 0.000000 0.190929 0.981604
vn 0.000000 0.190929 0.981604
vn 0.000000 0.190929 0.981604
s off
f 17/49/1 18/50/2 19/51/3 20/52/4
f 29/1/5 30/2/6 31/3/7 32/4/8
f 21/53/9 22/54/10 23/55/11 24/56/12
f 7/5/13 8/6/14 2/7/15 1/8/16
f 18/50/17 23/55/18 22/54/19 19/51/20
f 24/56/21 17/49/22 20/52/23 21/53/24
f 1/8/25 2/7/26 10/9/27 9/10/28
f 4/11/29 3/12/30 12/13/31 11/14/32
f 5/15/33 6/16/34 14/17/35 13/18/36
f 8/6/37 7/5/38 16/19/39 15/20/40
f 2/7/41 8/6/42 15/20/43 10/9/44
f 6/16/45 4/11/46 11/14/47 14/17/48
f 7/5/49 1/8/50 9/10/51 16/19/52
f 3/12/53 5/15/54 13/18/55 12/13/56
f 9/10/57 10/9/58 18/21/59 17/22/60
f 11/14/61 12/13/62 20/23/63 19/24/64
f 13/18/65 14/17/66 22/25/67 21/26/68
f 15/20/69 16/19/70 24/27/71 23/28/72
f 10/9/73 15/20/74 23/28/75 18/21/76
f 14/17/77 11/14/78 19/24/79 22/25/80
f 16/19/81 9/10/82 17/22/83 24/27/84
f 12/13/85 13/18/86 21/26/87 20/23/88
f 3/12/89 4/11/90 26/29/91 25/30/92
f 4/11/93 6/16/94 27/31/95 26/29/96
f 6/16/97 5/15/98 28/32/99 27/31/100
f 5/15/101 3/12/102 25/30/103 28/32/104
f 33/33/105 34/34/106 40/35/107 37/36/108
f 34/34/109 35/37/110 39/38/111 40/35/112
f 35/37/113 36/39/114 38/40/115 39/38/116
f 36/39/117 33/33/118 37/36/119 38/40/120
f 25/30/121 26/29/122 34/34/123 33/33/124
f 26/29/125 27/31/126 35/37/127 34/34/128
f 27/31/129 28/32/130 36/39/131 35/37/132
f 28/32/133 25/30/134 33/33/135 36/39/136
f 38/40/137 37/36/138 41/41/139 42/42/140
f 39/38/141 38/40/142 42/42/143 43/43/144
f 40/35/145 39/38/146 43/43/147 44/44/148
f 37/36/149 40/35/150 44/44/151 41/41/152
f 42/42/153 41/41/154 45/45/155 46/46/156
f 43/43/157 42/42/158 46/46/159 47/47/160
f 44/44/161 43/43/162 47/47/163 48/48/164
f 41/41/165 44/44/166 48/48/167 45/45/168
f 46/46/169 45/45/170 29/1/171 32/4/172
f 47/47/173 46/46/174 32/4/175 31/3/176
f 48/48/177 47/47/178 31/3/179 30/2/180
f 45/45/181 48/48/182 30/2/183 29/1/184
