# This file uses centimeters as units for non-parametric coordinates.

v -36.349106 500.000000 50.000755
v -250.000381 0.000000 50.000755
v -0.024033 500.142670 50.007622
v -0.000381 0.000000 -0.000008
v -250.000381 0.000000 0.000755
v -0.000381 500.000000 -0.000771
v -0.000381 0.000000 50.000755
v -237.747971 38.988876 17.134850
v -246.249771 19.683838 50.000755
v -37.544247 500.000000 -0.000771
v -189.097977 130.635254 0.000755
v -203.216934 139.417267 50.000755
v -148.973480 208.008301 0.000755
v -147.144684 221.846298 50.000755
v -85.296242 359.776611 -0.000008
v -87.445831 336.481384 50.000755
v -64.075470 438.275726 -0.000771
v -48.572159 444.879150 50.000755
v -53.467178 477.079773 -0.000771
v -41.750717 490.241791 50.000755
v -104.794312 266.048157 0.000755
v -125.290306 246.193817 0.000755
v -106.156532 318.535522 0.000755
v -111.119080 276.797028 7.844536
v -213.874420 75.045013 0.000755
v -220.533752 79.177475 50.000755
v -224.265686 50.865746 0.000755
v -246.250549 20.475006 0.000755
v -200.843414 100.441170 0.000755
v -198.407745 133.124741 7.985680
v -181.742462 163.048172 0.000755
v -138.049316 227.444168 0.000755
v -131.461349 205.691620 0.000755
v -139.488983 215.321259 8.078758
v -115.911102 271.917999 50.000755
v -16.031647 515.364624 -0.000771
v -16.031647 515.364624 49.999229
v -9.897232 522.475037 6.173698
v -7.437515 524.284973 39.550011
v 3.750229 519.683838 50.000755
v 3.749466 520.475037 0.000755
v -4.339218 520.766052 -0.868996
v -6.085968 515.067688 49.999229
v -30.320358 510.826416 9.252922
v -32.822037 505.839844 49.999229
v -20.240402 514.806152 0.000755
v -28.318783 509.375671 0.000755
v -30.357357 504.658905 -0.000008
v 12.252045 538.988892 17.134850
vt 0.014053 0.025766
vt 0.014053 0.025766
vt 0.014053 0.025766
vt 0.014053 0.025766
vt 0.925010 1.993024
vt 0.925052 1.993007
vt 0.982942 1.992996
vt 0.990826 1.009781
vt 0.504889 1.009778
vt 0.505070 1.085053
vt 0.925030 1.992974
vt 0.925005 1.993004
vt 0.925029 1.992996
vt 0.953806 1.998775
vt 0.925039 1.992976
vt 0.612713 1.266667
vt 0.925008 1.993004
vt 0.925032 1.992984
vt 0.642641 1.435411
vt 0.925013 1.993003
vt 0.925035 1.992986
vt 0.841257 1.710300
vt 0.925022 1.992998
vt 0.925033 1.992990
vt 0.877376 1.872815
vt 0.925026 1.992997
vt 0.925030 1.992994
vt 0.882214 1.947924
vt 0.925028 1.992997
vt 0.768674 1.524384
vt 0.925039 1.992979
vt 0.685656 1.501840
vt 0.925035 1.992985
vt 0.788217 1.629203
vt 0.925037 1.992982
vt 0.756244 1.545522
vt 0.925041 1.992971
vt 0.563143 1.157345
vt 0.925009 1.993000
vt 0.925040 1.992973
vt 0.540603 1.109802
vt 0.504889 1.050041
vt 0.925048 1.992986
vt 0.925041 1.992972
vt 0.589337 1.207288
vt 0.925031 1.992982
vt 0.925035 1.992980
vt 0.627593 1.330390
vt 0.925041 1.992977
vt 0.660997 1.465050
vt 0.673825 1.422205
vt 0.925034 1.992983
vt 0.648553 1.448328
vt 0.925018 1.993000
vt 0.746908 1.535798
vt 0.990826 1.009805
vt 0.837192 1.664539
vt 0.982942 1.992996
vt 0.664256 1.445835
vt 0.585657 1.283900
vt 0.504891 1.048490
vt 0.504889 1.009778
vt 0.552651 1.165541
vt 0.895001 1.885495
vt 0.920541 1.976514
vt 0.961468 1.998454
vt 0.000000 0.000000
vt 0.000000 0.000000
vt 0.672840 1.113731
vt 0.672858 1.113796
vt 0.672909 1.113786
vt 0.672756 1.113780
vt 0.672729 1.113840
vt 0.672692 1.113787
vt 0.672740 1.113856
vt 0.672823 1.113822
vt 0.672858 1.113796
vt 0.672823 1.113822
vt 0.672909 1.113786
vt 0.672756 1.113780
vt 0.672840 1.113731
vt 0.672774 1.113774
vt 0.672711 1.113780
vt 0.672756 1.113780
vt 0.672774 1.113774
vt 0.703724 1.006715
vt 0.644539 1.105754
vt 0.612490 1.119381
vt 0.723468 1.119403
vt 0.703723 1.006712
vt 0.663032 1.119405
vt 0.741102 1.119405
vt 0.023422 0.023424
vt 0.023422 0.023424
vt 0.023422 0.023424
vt 0.608535 1.099329
vt 0.587279 1.083027
vt 0.574281 1.084764
vt 0.612486 1.119381
vt 0.563157 1.071372
vt 0.023422 0.023424
vt 0.023422 0.023424
vt 0.023422 0.023424
vt 0.023422 0.023424
vt 0.023422 0.023424
vt 0.545624 1.006717
vt 0.557022 1.077788
vt 0.553659 1.006724
vt 0.000000 0.000000
vt 0.000000 0.000000
vt 0.000000 0.000000
vt 0.000000 0.000000
vt 0.000000 0.000000
vt 0.953806 1.998775
vn 0.000000 -1.000000 0.000000
vn 0.000000 -1.000000 0.000000
vn 0.000000 -1.000000 0.000000
vn 0.000000 -1.000000 0.000000
vn -0.965061 0.262006 0.003184
vn -0.965061 0.262006 0.003184
vn -0.965061 0.262006 0.003184
vn -0.965061 0.262006 0.003184
vn -0.965061 0.262006 0.003184
vn -0.836916 0.546135 0.036176
vn -0.836916 0.546135 0.036176
vn -0.836916 0.546135 0.036176
vn -0.836916 0.546135 0.036176
vn -0.000008 -0.000000 -1.000000
vn -0.000008 -0.000000 -1.000000
vn -0.000008 -0.000000 -1.000000
vn -0.596741 0.232130 -0.768125
vn -0.596741 0.232130 -0.768125
vn -0.596741 0.232130 -0.768125
vn -0.622470 0.141259 -0.769790
vn -0.622470 0.141259 -0.769790
vn -0.622470 0.141259 -0.769790
vn -0.847939 0.528925 -0.035172
vn -0.847939 0.528925 -0.035172
vn -0.847939 0.528925 -0.035172
vn -0.955042 0.197776 0.220862
vn -0.955042 0.197776 0.220862
vn -0.955042 0.197776 0.220862
vn -0.955042 0.197776 0.220862
vn 1.000000 0.000024 0.000236
vn 1.000000 0.000024 0.000236
vn 1.000000 0.000024 0.000236
vn 1.000000 0.000024 0.000236
vn -0.789390 0.571050 -0.225311
vn -0.789390 0.571050 -0.225311
vn -0.789390 0.571050 -0.225311
vn -0.791865 -0.020551 -0.610350
vn -0.791865 -0.020551 -0.610350
vn -0.791865 -0.020551 -0.610350
vn -0.894982 0.421547 -0.145967
vn -0.894982 0.421547 -0.145967
vn -0.894981 0.421547 -0.145967
vn -0.894982 0.421547 -0.145967
vn -0.894982 0.421547 -0.145967
vn -0.378004 0.390220 -0.839548
vn -0.378004 0.390220 -0.839548
vn -0.378004 0.390220 -0.839548
vn -0.818662 -0.247939 -0.517994
vn -0.818662 -0.247939 -0.517995
vn -0.818662 -0.247939 -0.517995
vn -0.000002 0.000002 -1.000000
vn -0.000002 0.000002 -1.000000
vn -0.000002 0.000002 -1.000000
vn -0.000025 -0.000006 -1.000000
vn -0.000025 -0.000006 -1.000000
vn -0.000025 -0.000006 -1.000000
vn -0.000003 0.000002 -1.000000
vn -0.000003 0.000002 -1.000000
vn -0.000003 0.000002 -1.000000
vn -0.890013 0.441062 -0.115508
vn -0.890013 0.441062 -0.115508
vn -0.890013 0.441062 -0.115508
vn -0.890013 0.441062 -0.115508
vn -0.890013 0.441062 -0.115508
vn -0.000003 0.000001 -1.000000
vn -0.000003 0.000001 -1.000000
vn -0.000003 0.000001 -1.000000
vn -0.938898 0.277766 -0.203267
vn -0.938897 0.277766 -0.203267
vn -0.938898 0.277766 -0.203267
vn -0.938898 0.277766 -0.203267
vn -0.938898 0.277766 -0.203267
vn -0.827253 0.549982 -0.114772
vn -0.827253 0.549982 -0.114772
vn -0.827253 0.549982 -0.114772
vn -0.827253 0.549982 -0.114772
vn -0.827253 0.549982 -0.114772
vn -0.000005 0.000001 -1.000000
vn -0.000005 0.000001 -1.000000
vn -0.000005 0.000001 -1.000000
vn -0.471873 0.854010 -0.219097
vn -0.471873 0.854010 -0.219097
vn -0.471873 0.854010 -0.219097
vn 0.090381 0.683202 -0.724614
vn 0.090381 0.683202 -0.724614
vn 0.090381 0.683202 -0.724614
vn -0.000000 0.000000 -1.000000
vn -0.000000 0.000000 -1.000000
vn -0.000000 0.000000 -1.000000
vn -0.000000 0.000000 -1.000000
vn 0.000000 0.000000 -1.000000
vn 0.000000 0.000000 -1.000000
vn 0.000000 0.000000 -1.000000
vn -0.000003 0.000001 -1.000000
vn -0.000003 0.000001 -1.000000
vn -0.000003 0.000001 -1.000000
vn -0.000003 0.000002 -1.000000
vn -0.000003 0.000002 -1.000000
vn -0.000003 0.000002 -1.000000
vn -0.000003 0.000002 -1.000000
vn -0.000003 0.000002 -1.000000
vn -0.000003 0.000002 -1.000000
vn -0.000003 0.000001 -1.000000
vn -0.000003 0.000001 -1.000000
vn -0.000003 0.000001 -1.000000
vn -0.000000 0.000000 -1.000000
vn -0.000000 0.000000 -1.000000
vn -0.000000 0.000000 -1.000000
vn 0.000000 0.000000 -1.000000
vn 0.000000 0.000000 -1.000000
vn 0.000000 0.000000 -1.000000
vn 0.000013 -0.000013 -1.000000
vn 0.000013 -0.000013 -1.000000
vn 0.000013 -0.000013 -1.000000
vn -0.879439 0.444835 0.169439
vn -0.879439 0.444835 0.169439
vn -0.879439 0.444835 0.169439
vn -0.000000 0.000000 1.000000
vn -0.000000 0.000000 1.000000
vn -0.000000 0.000000 1.000000
vn -0.000053 -0.000014 1.000000
vn -0.000053 -0.000014 1.000000
vn -0.000053 -0.000014 1.000000
vn 0.000000 0.000000 1.000000
vn 0.000000 0.000000 1.000000
vn 0.000000 0.000000 1.000000
vn 0.000000 0.000000 1.000000
vn 0.000000 0.000000 1.000000
vn 0.000000 0.000000 1.000000
vn 0.000000 0.000000 1.000000
vn 0.000000 0.000000 1.000000
vn 0.000000 0.000000 1.000000
vn 0.000000 0.000000 1.000000
vn 0.000000 0.000000 1.000000
vn 0.000000 0.000000 1.000000
vn 0.000000 0.000000 1.000000
vn 0.000000 0.000000 1.000000
vn 0.000000 0.000000 1.000000
vn -0.000239 0.000086 1.000000
vn -0.000239 0.000086 1.000000
vn -0.000239 0.000086 1.000000
vn -0.000171 0.000026 1.000000
vn -0.000171 0.000026 1.000000
vn -0.000171 0.000026 1.000000
vn -0.000189 0.000105 1.000000
vn -0.000189 0.000105 1.000000
vn -0.000189 0.000105 1.000000
vn -0.000006 -0.000002 -1.000000
vn -0.000006 -0.000002 -1.000000
vn -0.000006 -0.000002 -1.000000
vn -0.937231 0.301356 0.175453
vn -0.937230 0.301356 0.175453
vn -0.937230 0.301356 0.175453
vn -0.937230 0.301356 0.175453
vn -0.757160 0.653230 0.000000
vn -0.757160 0.653230 0.000000
vn -0.757160 0.653230 0.000000
vn -0.711624 0.702414 0.014352
vn -0.711624 0.702414 0.014352
vn -0.711624 0.702414 0.014352
vn -0.096174 0.868920 0.485520
vn -0.096174 0.868920 0.485520
vn -0.096174 0.868920 0.485520
vn 0.056043 0.979509 -0.193446
vn 0.056043 0.979509 -0.193446
vn 0.056043 0.979509 -0.193446
vn -0.393827 0.772428 -0.498252
vn -0.393827 0.772428 -0.498252
vn -0.393827 0.772428 -0.498252
vn 0.022427 0.751181 0.659715
vn 0.022427 0.751181 0.659715
vn 0.022427 0.751181 0.659715
vn -0.323236 0.688545 0.649172
vn -0.323236 0.688545 0.649172
vn -0.323236 0.688545 0.649172
vn 0.000017 0.000569 1.000000
vn 0.000017 0.000569 1.000000
vn 0.000017 0.000569 1.000000
vn -0.000351 0.000419 1.000000
vn -0.000351 0.000419 1.000000
vn -0.000351 0.000419 1.000000
vn 0.106201 -0.019376 -0.994156
vn 0.106201 -0.019376 -0.994156
vn 0.106201 -0.019376 -0.994156
vn -0.131540 0.991311 0.000000
vn -0.131540 0.991311 0.000000
vn -0.131540 0.991311 0.000000
vn -0.541129 0.804983 -0.243273
vn -0.541129 0.804983 -0.243273
vn -0.541129 0.804983 -0.243273
vn -0.049974 -0.052142 -0.997388
vn -0.049974 -0.052142 -0.997388
vn -0.049974 -0.052142 -0.997388
vn -0.888211 0.383924 -0.252354
vn -0.888211 0.383924 -0.252354
vn -0.888211 0.383924 -0.252354
vn -0.826063 0.562863 -0.028361
vn -0.826063 0.562863 -0.028361
vn -0.826063 0.562863 -0.028361
vn -0.826063 0.562863 -0.028361
vn -0.826063 0.562863 -0.028361
vn -0.000105 -0.000040 -1.000000
vn -0.000105 -0.000040 -1.000000
vn -0.000105 -0.000040 -1.000000
vn -0.000105 -0.000040 -1.000000
vn -0.000000 0.000162 -1.000000
vn -0.000000 0.000162 -1.000000
vn -0.000000 0.000162 -1.000000
vn 0.000000 0.000164 -1.000000
vn 0.000000 0.000164 -1.000000
vn 0.000000 0.000164 -1.000000
vn -0.434082 0.899368 0.052052
vn -0.434082 0.899368 0.052052
vn -0.434082 0.899368 0.052052
vn -0.434082 0.899368 0.052052
vn -0.000191 0.000376 1.000000
vn -0.000191 0.000376 1.000000
vn -0.000191 0.000376 1.000000
vn -0.000196 0.000345 1.000000
vn -0.000196 0.000345 1.000000
vn -0.000196 0.000345 1.000000
vn -0.199363 0.713346 -0.671856
vn -0.199363 0.713347 -0.671856
vn -0.199363 0.713347 -0.671856
vn -0.597915 0.801559 0.000593
vn -0.597915 0.801559 0.000593
vn -0.597915 0.801559 0.000593
vn -0.947056 0.305174 0.099766
vn -0.947056 0.305174 0.099766
vn -0.947056 0.305174 0.099766
vn -0.947056 0.305174 0.099766
vn 0.911009 -0.412334 -0.006538
vn 0.911009 -0.412334 -0.006538
vn 0.911009 -0.412334 -0.006538
vn 0.982778 -0.184788 -0.000973
vn 0.982778 -0.184788 -0.000973
vn 0.982778 -0.184788 -0.000973
vn 0.982778 -0.184788 -0.000973
s off
f 5/1/1 4/2/2 7/3/3 2/4/4
f 2/5/5 9/12/6 8/11/7 28/43/8 5/6/9
f 19/27/10 20/29/11 1/13/12 10/14/13
f 21/30/14 23/34/15 4/8/16
f 29/44/17 30/46/18 11/15/19
f 11/15/20 30/46/21 31/47/22
f 24/35/23 14/20/24 35/54/25
f 17/24/26 18/26/27 20/29/28 19/27/29
f 4/67/30 6/68/31 3/109/32 7/110/33
f 8/10/34 27/41/35 28/42/36
f 23/34/37 21/30/38 24/36/39
f 34/52/40 14/20/41 24/35/42 22/31/43 32/49/44
f 24/36/45 21/30/46 22/32/47
f 32/50/48 33/51/49 34/53/50
f 21/30/51 4/8/52 22/32/53
f 4/8/54 23/34/55 15/22/56
f 4/8/57 11/16/58 33/51/59
f 9/12/60 26/39/61 25/37/62 27/40/63 8/11/64
f 28/42/65 4/8/66 5/9/67
f 25/37/68 26/39/69 12/17/70 30/46/71 29/44/72
f 31/47/73 30/46/74 12/17/75 14/20/76 13/18/77
f 22/32/78 4/8/79 33/51/80
f 13/18/81 14/20/82 34/52/83
f 34/53/84 33/51/85 13/19/86
f 33/51/87 11/16/88 31/48/89 13/19/90
f 22/32/91 33/51/92 32/50/93
f 4/8/94 27/41/95 25/38/96
f 28/42/97 27/41/98 4/8/99
f 4/8/100 25/38/101 29/45/102
f 4/8/103 29/45/104 11/16/105
f 6/7/106 17/25/107 19/28/108
f 6/7/109 19/28/110 10/114/111
f 6/7/112 15/22/113 17/25/114
f 23/33/115 16/23/116 15/21/117
f 35/55/118 7/56/119 16/57/120
f 7/56/121 3/58/122 16/57/123
f 7/56/124 14/59/125 12/60/126
f 9/61/127 2/62/128 7/56/129
f 35/55/130 14/59/131 7/56/132
f 9/61/133 7/56/134 26/63/135
f 7/56/136 12/60/137 26/63/138
f 3/58/139 18/64/140 16/57/141
f 3/58/142 20/65/143 18/64/144
f 3/58/145 1/66/146 20/65/147
f 4/8/148 15/22/149 6/7/150
f 16/23/151 18/26/152 17/25/153 15/21/154
f 37/69/155 38/70/156 36/71/157
f 38/70/158 37/69/159 39/72/160
f 49/73/161 39/72/162 40/74/163
f 41/75/164 42/76/165 38/70/166
f 38/77/167 42/78/168 36/79/169
f 39/80/170 37/81/171 43/82/172
f 40/83/173 39/84/174 43/85/175
f 3/86/176 43/87/177 37/88/178
f 3/86/179 40/89/180 43/87/181
f 6/90/182 42/91/183 41/92/184
f 46/93/185 37/94/186 36/95/187
f 46/96/188 47/97/189 44/98/190
f 6/90/191 36/99/192 42/91/193
f 47/97/194 48/100/195 44/98/196
f 44/101/197 48/102/198 10/103/199 1/104/200 45/105/201
f 6/90/202 47/97/203 46/96/204 36/99/205
f 6/90/206 48/100/207 47/97/208
f 6/90/209 10/106/210 48/100/211
f 44/101/212 45/105/213 37/94/214 46/93/215
f 3/86/216 45/107/217 1/108/218
f 3/86/219 37/88/220 45/107/221
f 41/75/222 38/70/223 49/73/224
f 38/70/225 39/72/226 49/73/227
f 24/35/228 35/54/229 16/23/230 23/33/231
f 40/111/232 41/112/233 49/113/234
f 40/111/235 3/109/236 6/68/237 41/112/238
