# This file uses centimeters as units for non-parametric coordinates.

v -15.964813 0.000000 -15.964661
v 15.964813 0.000000 -15.964661
v -15.399323 298.131622 -15.399475
v 15.399323 298.131622 -15.399475
v -15.399323 298.131622 15.399475
v 15.399323 298.131622 15.399475
v -15.964813 0.000000 15.964661
v 15.964813 0.000000 15.964661
v 14.002228 118.295654 14.002075
v 14.516144 71.680016 14.515991
v 8.985748 95.921082 14.002075
v 14.002228 97.036819 9.997559
v -14.002228 213.585602 14.002075
v -14.516144 163.757462 14.515991
v -14.002228 185.285400 9.560242
v -9.478302 186.244080 14.002075
v -14.516144 22.216949 -14.515991
v -14.002228 88.362213 -14.002075
v -14.002228 55.874329 -9.295959
v -10.000153 58.227661 -14.002075
v 14.516144 124.196823 -14.515991
v 14.002228 171.423218 -14.002075
v 10.365143 151.210083 -14.002075
v 14.002228 151.355103 -10.211792
vt 0.495107 0.158123
vt 0.495168 0.158074
vt 0.495233 0.157180
vt 0.495127 0.157191
vt 0.495343 0.157190
vt 0.495251 0.157212
vt 0.495242 0.158119
vt 0.495185 0.158154
vt 0.495287 0.157700
vt 0.495271 0.157849
vt 0.495274 0.157776
vt 0.495263 0.157765
vt 0.495239 0.157370
vt 0.495229 0.157520
vt 0.495227 0.157450
vt 0.495246 0.157446
vt 0.495108 0.158057
vt 0.495112 0.157894
vt 0.495128 0.157979
vt 0.495116 0.157967
vt 0.495196 0.157601
vt 0.495204 0.157458
vt 0.495195 0.157519
vt 0.495217 0.157522
vn -0.021346 0.035863 -0.999129
vn -0.021346 0.035863 -0.999129
vn -0.021346 0.035863 -0.999129
vn -0.021346 0.035863 -0.999129
vn 0.000000 1.000000 0.000000
vn 0.000000 1.000000 0.000000
vn 0.000000 1.000000 0.000000
vn 0.000000 1.000000 0.000000
vn 0.999796 0.020219 -0.000031
vn 0.999796 0.020219 -0.000031
vn 0.999796 0.020219 -0.000031
vn 0.999796 0.020219 -0.000031
vn -0.999756 -0.005224 0.021490
vn -0.999756 -0.005224 0.021490
vn -0.999756 -0.005224 0.021490
vn -0.999756 -0.005224 0.021490
vn 0.636680 -0.142747 0.757801
vn 0.636680 -0.142747 0.757801
vn 0.636680 -0.142747 0.757801
vn -0.683794 -0.113141 0.720850
vn -0.683794 -0.113140 0.720850
vn -0.683794 -0.113141 0.720850
vn -0.708437 0.174346 0.683901
vn -0.708437 0.174346 0.683901
vn -0.708437 0.174346 0.683901
vn 0.595612 0.152603 0.788644
vn 0.595612 0.152603 0.788644
vn 0.595612 0.152603 0.788644
vn -0.783178 0.106958 -0.612529
vn -0.783178 0.106958 -0.612529
vn -0.783178 0.106958 -0.612529
vn -0.733595 -0.097426 -0.672567
vn -0.733595 -0.097426 -0.672567
vn -0.733595 -0.097426 -0.672567
vn 0.713727 0.122794 -0.689577
vn 0.713727 0.122794 -0.689577
vn 0.713727 0.122794 -0.689577
vn 0.717957 -0.129187 -0.683995
vn 0.717957 -0.129187 -0.683995
vn 0.717957 -0.129187 -0.683995
vn 0.999937 -0.009717 -0.005638
vn 0.999937 -0.009717 -0.005638
vn 0.999937 -0.009717 -0.005638
vn 0.999937 -0.009717 -0.005638
vn 0.999936 -0.006701 -0.009149
vn 0.999936 -0.006701 -0.009149
vn 0.999936 -0.006701 -0.009149
vn 0.999936 -0.006701 -0.009149
vn 0.999358 0.011671 0.033882
vn 0.999358 0.011671 0.033882
vn 0.999358 0.011671 0.033882
vn 0.999358 0.011671 0.033882
vn 0.014197 -0.005505 -0.999884
vn 0.014197 -0.005505 -0.999884
vn 0.014197 -0.005505 -0.999884
vn 0.014197 -0.005505 -0.999884
vn -0.050754 0.011082 -0.998650
vn -0.050754 0.011082 -0.998650
vn -0.050754 0.011082 -0.998650
vn -0.050754 0.011082 -0.998650
vn 0.005697 -0.009706 -0.999937
vn 0.005697 -0.009706 -0.999937
vn 0.005697 -0.009706 -0.999937
vn 0.005697 -0.009706 -0.999937
vn -0.999863 -0.012916 0.010372
vn -0.999863 -0.012916 0.010372
vn -0.999863 -0.012916 0.010372
vn -0.999863 -0.012916 0.010372
vn -0.018313 -0.006328 0.999812
vn -0.018313 -0.006328 0.999812
vn -0.018313 -0.006328 0.999812
vn -0.018313 -0.006328 0.999812
vn 0.047452 0.008873 0.998834
vn 0.047452 0.008873 0.998834
vn 0.047452 0.008873 0.998834
vn 0.047452 0.008873 0.998834
vn -0.010079 -0.013021 0.999864
vn -0.010079 -0.013021 0.999865
vn -0.010079 -0.013021 0.999864
vn -0.010079 -0.013021 0.999864
vn -0.000502 0.020420 0.999791
vn -0.000502 0.020420 0.999791
vn -0.000502 0.020420 0.999791
vn -0.000502 0.020420 0.999791
vn 0.000000 -1.000000 0.000000
vn 0.000000 -1.000000 0.000000
vn 0.000000 -1.000000 0.000000
vn 0.000000 -1.000000 0.000000
vn -0.999094 0.037498 -0.020152
vn -0.999093 0.037498 -0.020152
vn -0.999094 0.037498 -0.020152
vn -0.999094 0.037498 -0.020152
vn -0.998160 0.008497 -0.060041
vn -0.998160 0.008497 -0.060041
vn -0.998160 0.008497 -0.060041
vn -0.998160 0.008497 -0.060041
s off
f 1/1/1 17/17/2 20/20/3 2/2/4
f 3/4/5 5/6/6 6/5/7 4/3/8
f 2/2/9 12/12/10 10/10/11 8/7/12
f 15/15/13 3/4/14 18/18/15 19/19/16
f 9/9/17 11/11/18 12/12/19
f 13/13/20 15/15/21 16/16/22
f 15/15/23 14/14/24 16/16/25
f 11/11/26 10/10/27 12/12/28
f 20/20/29 17/17/30 19/19/31
f 18/18/32 20/20/33 19/19/34
f 21/21/35 23/23/36 24/24/37
f 23/23/38 22/22/39 24/24/40
f 24/24/41 22/22/42 4/3/43 6/5/44
f 24/24/45 6/5/46 9/9/47 12/12/48
f 2/2/49 21/21/50 24/24/51 12/12/52
f 20/20/53 18/18/54 3/4/55 23/23/56
f 20/20/57 23/23/58 21/21/59 2/2/60
f 3/4/61 4/3/62 22/22/63 23/23/64
f 15/15/65 13/13/66 5/6/67 3/4/68
f 16/16/69 11/11/70 9/9/71 6/5/72
f 16/16/73 14/14/74 7/8/75 11/11/76
f 5/6/77 13/13/78 16/16/79 6/5/80
f 7/8/81 8/7/82 10/10/83 11/11/84
f 7/8/85 1/1/86 2/2/87 8/7/88
f 7/8/89 19/19/90 17/17/91 1/1/92
f 7/8/93 14/14/94 15/15/95 19/19/96
