# This file uses centimeters as units for non-parametric coordinates.

v 334.357788 224.604935 -496.882233
v 334.357788 309.875702 -496.882233
v 413.858398 309.875702 -496.882233
v 413.858398 224.604935 -496.882233
v 584.357788 309.875702 2.847885
v 584.357788 224.604935 2.847885
v 663.858459 224.604935 2.847885
v 663.858459 309.875702 2.847885
v 584.357788 224.604935 3.117752
v 584.357788 309.875702 3.117752
v 663.858459 309.875702 3.117752
v 663.858459 224.604935 3.117752
v 537.928589 551.530273 -431.427277
v 537.928589 453.016907 -431.427277
v 462.351593 453.016907 -431.427277
v 462.351593 551.530273 -431.427277
v 537.928589 453.016907 -431.733063
v 537.928589 551.530273 -431.733063
v 462.351593 551.530273 -431.733063
v 462.351593 453.016907 -431.733063
v 334.357788 309.875702 2.847885
v 334.357788 224.604935 2.847885
v 413.858398 224.604935 2.847885
v 413.858398 309.875702 2.847885
v 462.071350 453.016907 -68.266975
v 462.071350 551.530273 -68.266975
v 537.648315 551.530273 -68.267044
v 537.648315 453.016907 -68.267044
v 334.357788 224.604935 3.117752
v 334.357788 309.875702 3.117752
v 413.858398 309.875702 3.117752
v 413.858398 224.604935 3.117752
v 584.357788 309.875702 -497.152130
v 584.357788 224.604935 -497.152130
v 663.858459 224.604935 -497.152130
v 663.858459 309.875702 -497.152130
v 334.357788 309.875702 -497.152130
v 334.357788 224.604935 -497.152130
v 413.858398 224.604935 -497.152130
v 413.858398 309.875702 -497.152130
v 584.357788 224.604935 -496.882233
v 584.357788 309.875702 -496.882233
v 663.858459 309.875702 -496.882233
v 663.858459 224.604935 -496.882233
v 462.071350 551.530273 -68.572777
v 462.071350 453.016907 -68.572777
v 537.648315 453.016907 -68.572845
v 537.648315 551.530273 -68.572845
vt 0.527056 0.523045
vt 0.600250 0.601551
vt 0.527056 0.601551
vt 0.600250 0.523045
vt 0.527056 0.523045
vt 0.600250 0.601551
vt 0.527056 0.601551
vt 0.600250 0.523045
vt 0.527056 0.523045
vt 0.600250 0.601551
vt 0.527056 0.601551
vt 0.600250 0.523045
vt 0.598444 0.607647
vt 0.528862 0.516949
vt 0.598444 0.516949
vt 0.528862 0.607647
vt 0.528862 0.516949
vt 0.598444 0.607647
vt 0.528862 0.607647
vt 0.598444 0.516949
vt 0.527056 0.523045
vt 0.600250 0.601551
vt 0.527056 0.601551
vt 0.600250 0.523045
vt 0.528862 0.516949
vt 0.598444 0.607647
vt 0.528862 0.607647
vt 0.598444 0.516949
vt 0.527056 0.523045
vt 0.600250 0.601551
vt 0.527056 0.601551
vt 0.600250 0.523045
vt 0.527056 0.523045
vt 0.600250 0.601551
vt 0.527056 0.601551
vt 0.600250 0.523045
vt 0.527056 0.523045
vt 0.600250 0.601551
vt 0.527056 0.601551
vt 0.600250 0.523045
vt 0.527056 0.523045
vt 0.600250 0.601551
vt 0.527056 0.601551
vt 0.600250 0.523045
vt 0.598444 0.607647
vt 0.528862 0.516949
vt 0.598444 0.516949
vt 0.528862 0.607647
vn 0.000000 0.000000 1.000000
vn 0.000000 0.000000 1.000000
vn 0.000000 0.000000 1.000000
vn 0.000000 0.000000 1.000000
vn 0.000000 0.000000 1.000000
vn 0.000000 0.000000 1.000000
vn 0.000000 0.000000 -1.000000
vn 0.000000 0.000000 -1.000000
vn 0.000000 0.000000 -1.000000
vn 0.000000 0.000000 -1.000000
vn 0.000000 0.000000 -1.000000
vn 0.000000 0.000000 -1.000000
vn 0.000000 0.000000 1.000000
vn 0.000000 0.000000 1.000000
vn 0.000000 0.000000 1.000000
vn 0.000000 0.000000 1.000000
vn 0.000000 0.000000 1.000000
vn 0.000000 0.000000 1.000000
vn 0.000000 0.000000 1.000000
vn 0.000000 0.000000 1.000000
vn 0.000000 0.000000 1.000000
vn 0.000000 0.000000 1.000000
vn 0.000000 0.000000 1.000000
vn 0.000000 0.000000 1.000000
vn -0.000000 0.000000 -1.000000
vn -0.000000 0.000000 -1.000000
vn -0.000000 0.000000 -1.000000
vn -0.000000 0.000000 -1.000000
vn -0.000000 0.000000 -1.000000
vn -0.000000 0.000000 -1.000000
vn 0.000000 0.000000 -1.000000
vn 0.000000 0.000000 -1.000000
vn 0.000000 0.000000 -1.000000
vn 0.000000 0.000000 -1.000000
vn 0.000000 0.000000 -1.000000
vn 0.000000 0.000000 -1.000000
vn 0.000001 0.000000 1.000000
vn 0.000001 0.000000 1.000000
vn 0.000001 0.000000 1.000000
vn 0.000001 0.000000 1.000000
vn 0.000001 0.000000 1.000000
vn 0.000001 0.000000 1.000000
vn 0.000000 0.000000 1.000000
vn 0.000000 0.000000 1.000000
vn 0.000000 0.000000 1.000000
vn 0.000000 0.000000 1.000000
vn 0.000000 0.000000 1.000000
vn 0.000000 0.000000 1.000000
vn 0.000000 0.000000 -1.000000
vn 0.000000 0.000000 -1.000000
vn 0.000000 0.000000 -1.000000
vn 0.000000 0.000000 -1.000000
vn 0.000000 0.000000 -1.000000
vn 0.000000 0.000000 -1.000000
vn 0.000000 0.000000 -1.000000
vn 0.000000 0.000000 -1.000000
vn 0.000000 0.000000 -1.000000
vn 0.000000 0.000000 -1.000000
vn 0.000000 0.000000 -1.000000
vn 0.000000 0.000000 -1.000000
vn 0.000000 0.000000 1.000000
vn 0.000000 0.000000 1.000000
vn 0.000000 0.000000 1.000000
vn 0.000000 0.000000 1.000000
vn 0.000000 0.000000 1.000000
vn 0.000000 0.000000 1.000000
vn -0.000001 0.000000 -1.000000
vn -0.000001 0.000000 -1.000000
vn -0.000001 0.000000 -1.000000
vn -0.000001 0.000000 -1.000000
vn -0.000001 0.000000 -1.000000
vn -0.000001 0.000000 -1.000000
s off
f 1/1/1 3/2/2 2/3/3
f 1/1/4 4/4/5 3/2/6
f 5/5/7 7/6/8 6/7/9
f 5/5/10 8/8/11 7/6/12
f 9/9/13 11/10/14 10/11/15
f 9/9/16 12/12/17 11/10/18
f 13/13/19 15/14/20 14/15/21
f 13/13/22 16/16/23 15/14/24
f 17/17/25 19/18/26 18/19/27
f 17/17/28 20/20/29 19/18/30
f 21/21/31 23/22/32 22/23/33
f 21/21/34 24/24/35 23/22/36
f 25/25/37 27/26/38 26/27/39
f 25/25/40 28/28/41 27/26/42
f 29/29/43 31/30/44 30/31/45
f 29/29/46 32/32/47 31/30/48
f 33/33/49 35/34/50 34/35/51
f 33/33/52 36/36/53 35/34/54
f 37/37/55 39/38/56 38/39/57
f 37/37/58 40/40/59 39/38/60
f 41/41/61 43/42/62 42/43/63
f 41/41/64 44/44/65 43/42/66
f 45/45/67 47/46/68 46/47/69
f 45/45/70 48/48/71 47/46/72
