# This file uses centimeters as units for non-parametric coordinates.

v 0.000000 125.084846 -16.332397
v 250.000305 125.084846 -16.332397
v 0.000000 125.264412 0.000000
v 250.000305 125.264412 0.000000
v 0.000000 0.000000 0.000000
v 250.000305 0.000000 0.000000
v 250.000305 0.000000 -35.152588
v 250.000305 111.703934 -24.948120
v 0.000000 111.703934 -24.948120
v 0.000000 0.000000 -35.152588
v 0.000000 125.084846 16.332397
v 250.000305 125.084846 16.332397
v 250.000305 0.000000 35.152588
v 250.000305 111.703934 24.948120
v 0.000000 111.703934 24.948120
v 0.000000 0.000000 35.152588
vt 0.257092 0.890380
vt 0.491825 0.890783
vt 0.491825 0.922708
vt 0.257092 0.922323
vt 0.359734 0.909810
vt 0.358396 0.910350
vt 0.491825 0.758392
vt 0.491825 0.876713
vt 0.257092 0.876261
vt 0.257092 0.758392
vt 0.357592 0.910209
vt 0.357516 0.909556
vt 0.357426 0.909598
vt 0.358861 0.910735
vt 0.358883 0.910058
vt 0.358952 0.909992
vt 0.357388 0.909701
vt 0.357415 0.910328
vt 0.358719 0.910916
vt 0.358835 0.910190
vt 0.358170 0.910276
vt 0.359533 0.909634
vt 0.257092 0.890380
vt 0.491825 0.890783
vt 0.491825 0.922708
vt 0.257092 0.922323
vt 0.358883 0.910058
vt 0.358952 0.909992
vt 0.358861 0.910735
vt 0.358719 0.910916
vt 0.358835 0.910190
vt 0.491825 0.758392
vt 0.491825 0.876713
vt 0.257092 0.876261
vt 0.257092 0.758392
vt 0.357426 0.909598
vt 0.357388 0.909701
vt 0.357415 0.910328
vt 0.357592 0.910209
vt 0.357516 0.909556
vt 0.358396 0.910350
vt 0.358170 0.910276
vt 0.359533 0.909634
vt 0.359734 0.909810
vn 0.000000 0.999940 -0.010994
vn 0.000000 0.999940 -0.010994
vn 0.000000 0.999940 -0.010994
vn 0.000000 0.999940 -0.010994
vn -1.000000 0.000000 0.000000
vn -1.000000 0.000000 0.000000
vn -1.000000 0.000000 0.000000
vn -1.000000 0.000000 0.000000
vn -1.000000 0.000000 0.000000
vn 0.000000 0.090974 -0.995853
vn 0.000000 0.090974 -0.995853
vn 0.000000 0.090974 -0.995853
vn 0.000000 0.090974 -0.995853
vn 1.000000 -0.000000 0.000000
vn 1.000000 -0.000000 0.000000
vn 1.000000 -0.000000 0.000000
vn 1.000000 -0.000000 0.000000
vn 1.000000 -0.000000 0.000000
vn 0.000000 0.541367 -0.840787
vn 0.000000 0.541367 -0.840787
vn 0.000000 0.541367 -0.840787
vn 0.000000 0.541367 -0.840787
vn 0.000000 -1.000000 0.000000
vn 0.000000 -1.000000 0.000000
vn 0.000000 -1.000000 0.000000
vn 0.000000 -1.000000 0.000000
vn 0.000000 0.999940 0.010994
vn 0.000000 0.999940 0.010994
vn 0.000000 0.999940 0.010994
vn 0.000000 0.999940 0.010994
vn -1.000000 0.000000 0.000000
vn -1.000000 0.000000 0.000000
vn -1.000000 0.000000 0.000000
vn -1.000000 0.000000 0.000000
vn -1.000000 0.000000 0.000000
vn 0.000000 0.090974 0.995853
vn 0.000000 0.090974 0.995853
vn 0.000000 0.090974 0.995853
vn 0.000000 0.090974 0.995853
vn 1.000000 -0.000000 0.000000
vn 1.000000 -0.000000 0.000000
vn 1.000000 -0.000000 0.000000
vn 1.000000 -0.000000 0.000000
vn 1.000000 -0.000000 0.000000
vn 0.000000 0.541367 0.840787
vn 0.000000 0.541367 0.840787
vn 0.000000 0.541367 0.840787
vn 0.000000 0.541367 0.840787
vn 0.000000 -1.000000 0.000000
vn 0.000000 -1.000000 0.000000
vn 0.000000 -1.000000 0.000000
vn 0.000000 -1.000000 0.000000
s off
f 1/1/1 3/4/2 4/3/3 2/2/4
f 1/15/5 9/20/6 10/19/7 5/14/8 3/16/9
f 7/7/10 10/10/11 9/9/12 8/8/13
f 2/13/14 4/12/15 6/11/16 7/18/17 8/17/18
f 2/2/19 8/8/20 9/9/21 1/1/22
f 6/6/23 5/5/24 10/22/25 7/21/26
f 11/23/27 12/24/28 4/25/29 3/26/30
f 11/27/31 3/28/32 5/29/33 16/30/34 15/31/35
f 13/32/36 14/33/37 15/34/38 16/35/39
f 12/36/40 14/37/41 13/38/42 6/39/43 4/40/44
f 12/24/45 11/23/46 15/34/47 14/33/48
f 6/41/49 13/42/50 16/43/51 5/44/52
