# This file uses centimeters as units for non-parametric coordinates.

v -0.000977 -20.818512 51.718750
v -0.000977 0.000000 51.718750
v -0.000977 -20.818512 -25.000000
v -0.000977 0.000000 -25.000000
v -0.000977 -500.000031 275.000000
v -0.000977 -500.000031 -25.000000
v 25.000977 -20.818512 29.828125
v 25.000977 0.000000 29.828125
v 25.000977 -20.818512 -25.000000
v 25.000977 0.000000 -25.000000
v 25.000977 -500.000031 253.109375
v 25.000977 -500.000031 -25.000000
vt 0.016706 0.028747
vt 0.016707 0.028777
vt 0.016600 0.028759
vt 0.016597 0.028728
vt 0.017064 0.029366
vt 0.016647 0.029274
vt 0.016762 0.028720
vt 0.016763 0.028750
vt 0.016615 0.028725
vt 0.016612 0.028695
vt 0.017103 0.029338
vt 0.016658 0.029242
vn 1.000000 0.000000 0.000000
vn 1.000000 0.000000 0.000000
vn 1.000000 0.000000 0.000000
vn 1.000000 0.000000 0.000000
vn 1.000000 -0.000000 0.000000
vn 1.000000 -0.000000 0.000000
vn 1.000000 -0.000000 0.000000
vn 1.000000 -0.000000 0.000000
vn 0.658742 0.000000 0.752369
vn 0.658742 0.000000 0.752369
vn 0.658742 0.000000 0.752369
vn 0.658742 0.000000 0.752369
vn 0.000000 0.000000 -1.000000
vn 0.000000 0.000000 -1.000000
vn 0.000000 0.000000 -1.000000
vn 0.000000 0.000000 -1.000000
vn 0.000000 1.000000 0.000000
vn 0.000000 1.000000 0.000000
vn 0.000000 1.000000 0.000000
vn 0.000000 1.000000 0.000000
vn 0.621647 0.330835 0.710002
vn 0.621647 0.330835 0.710002
vn 0.621647 0.330835 0.710002
vn 0.621647 0.330835 0.710002
vn 0.000000 -1.000000 0.000000
vn 0.000000 -1.000000 0.000000
vn 0.000000 -1.000000 0.000000
vn 0.000000 -1.000000 0.000000
vn 0.000000 0.000000 -1.000000
vn 0.000000 0.000000 -1.000000
vn 0.000000 0.000000 -1.000000
vn 0.000000 0.000000 -1.000000
vn -1.000000 0.000000 0.000000
vn -1.000000 0.000000 0.000000
vn -1.000000 0.000000 0.000000
vn -1.000000 0.000000 0.000000
vn -1.000000 0.000000 0.000000
vn -1.000000 0.000000 0.000000
vn -1.000000 0.000000 0.000000
vn -1.000000 0.000000 0.000000
s off
f 8/1/1 7/2/2 9/3/3 10/4/4
f 9/3/5 7/2/6 11/5/7 12/6/8
f 2/7/9 1/8/10 7/2/11 8/1/12
f 3/9/13 4/10/14 10/4/15 9/3/16
f 4/10/17 2/7/18 8/1/19 10/4/20
f 1/8/21 5/11/22 11/5/23 7/2/24
f 5/11/25 6/12/26 12/6/27 11/5/28
f 6/12/29 3/9/30 9/3/31 12/6/32
f 2/7/33 4/10/34 3/9/35 1/8/36
f 3/9/37 6/12/38 5/11/39 1/8/40
