# This file uses centimeters as units for non-parametric coordinates.

v -7.078613 1.730469 7.927734
v 7.078125 1.730469 7.927734
v -7.078613 13.146484 -7.925781
v 7.257813 13.242188 -5.011719
v 7.078125 -114.708496 7.927734
v -7.575195 13.414063 0.140625
v 7.575195 13.414063 0.140625
v -7.078613 -18.667969 -7.925781
v -7.078613 -94.618652 -7.925781
v -0.902588 -29.787109 -7.925781
v -7.260498 -29.791016 -4.972656
v 1.206055 13.146484 -7.925781
v 7.078125 4.453125 -7.925781
v 7.078125 -114.083496 7.927734
v 7.078125 -80.458496 7.927734
v 7.300781 -94.987793 4.435547
v 2.465820 -94.849121 7.927734
v -7.078613 -114.710449 7.927734
v -7.078613 -114.710449 -7.925781
v 7.078125 -114.708496 -7.925781
v -8.142578 -5.038300 130.949219
v 8.142578 -5.038300 130.949219
v -8.142578 1.206085 114.335938
v 8.142578 1.206085 114.335938
v -8.142578 -96.579865 17.263672
v 8.142578 -96.579865 17.263672
v -8.142578 -101.449219 33.949219
v 8.142578 -101.449249 33.949219
v -8.142578 0.854645 129.173828
v 8.142578 0.854645 129.173828
v -8.142578 -101.386871 20.472656
v 8.142578 -101.386871 20.472656
v 5.816406 -9.781189 175.835938
v -5.816406 -9.781219 175.835938
v 5.816406 9.306244 183.822266
v -5.963867 5.796234 183.888672
v 5.816406 9.306274 0.001953
v -5.816406 9.306244 0.000000
v 5.816406 -9.781250 0.000000
v -5.816406 -9.781311 0.001953
v 6.224609 -0.406128 184.007813
v -6.224609 -0.406128 184.007813
v 5.816406 9.306244 161.568359
v 5.816406 9.306244 138.816406
v 0.741699 9.306244 153.792969
v 5.966064 5.750397 153.789063
v -0.990967 9.306213 183.822266
v -5.816406 9.306244 177.742188
v -5.816406 -9.781250 99.732422
v -5.816406 -9.781250 123.251953
v -5.999268 -5.579346 113.087891
v -2.026123 -9.781219 113.185547
v 5.816406 -9.781250 61.791016
v 5.816406 -9.781219 92.257813
v 5.981934 -5.979614 76.609375
v 1.675293 -9.781250 77.195313
v -5.816406 9.306244 59.394531
v -5.816406 9.306244 30.810547
v -1.722168 9.306244 46.632813
v -5.954590 6.015472 46.005859
v -5.816406 -108.686584 72.761719
v 5.816406 -108.686615 72.761719
v -5.816406 -91.444427 84.138672
v 5.963867 -94.615112 84.232422
v 5.816406 -108.686676 0.003906
v -6.224609 -100.217865 84.404297
v 6.224609 -100.217865 84.404297
v -5.816406 -91.444427 52.437500
v -5.816406 -91.444427 20.021484
v -0.741699 -91.444427 41.357422
v -5.966064 -94.656525 41.351563
v 0.990723 -91.444458 84.138672
v 5.816406 -91.444427 75.476563
v 5.816406 -108.686646 0.625000
v 5.816406 -108.686646 34.132813
v 5.999268 -104.890961 19.652344
v 2.026123 -108.686615 19.791016
v -5.816406 -108.686584 0.000000
v -5.816406 -91.444427 0.000000
v 5.816406 -91.444397 0.003906
vt 0.495579 0.182375
vt 0.495330 0.182361
vt 0.495344 0.182269
vt 0.495478 0.181167
vt 0.495332 0.181145
vt 0.494993 0.181511
vt 0.494999 0.181710
vt 0.495561 0.182488
vt 0.495290 0.182291
vt 0.495241 0.182342
vt 0.495314 0.182474
vt 0.495210 0.182256
vt 0.495336 0.182233
vt 0.495208 0.181964
vt 0.495534 0.182232
vt 0.495485 0.182121
vt 0.494849 0.181630
vt 0.494893 0.181614
vt 0.495491 0.182189
vt 0.495328 0.181079
vt 0.495169 0.182213
vt 0.495171 0.181968
vt 0.495382 0.181053
vt 0.495460 0.181066
vt 0.495419 0.181315
vt 0.495286 0.181297
vt 0.495171 0.181312
vt 0.495258 0.181274
vt 0.495203 0.181234
vt 0.495302 0.181201
vt 0.495282 0.181084
vt 0.494995 0.181527
vt 0.494988 0.181563
vt 0.494950 0.181525
vt 0.494902 0.181600
vt 0.495579 0.182375
vt 0.495330 0.182361
vt 0.495346 0.182248
vt 0.495597 0.182261
vt 0.494849 0.181488
vt 0.494978 0.181492
vt 0.494970 0.181554
vt 0.494842 0.181550
vt 0.494835 0.181613
vt 0.494963 0.181616
vt 0.495314 0.182474
vt 0.495561 0.182488
vt 0.495579 0.182375
vt 0.495597 0.182261
vt 0.495450 0.182254
vt 0.495344 0.182269
vt 0.495330 0.182361
vt 0.494967 0.181502
vt 0.494846 0.181519
vt 0.494941 0.181629
vt 0.495010 0.181688
vt 0.495561 0.182488
vt 0.495314 0.182474
vt 0.495241 0.182342
vt 0.495290 0.182291
vt 0.495210 0.182256
vt 0.495336 0.182233
vt 0.495010 0.181735
vt 0.494976 0.181706
vt 0.495215 0.181954
vt 0.495485 0.182121
vt 0.495534 0.182232
vt 0.495491 0.182189
vt 0.495570 0.182227
vt 0.495169 0.182213
vt 0.495171 0.181968
vt 0.495154 0.181895
vt 0.495255 0.182042
vt 0.494967 0.181585
vt 0.494849 0.181630
vt 0.494893 0.181614
vt 0.495478 0.181167
vt 0.495332 0.181145
vt 0.495328 0.181079
vt 0.495382 0.181053
vt 0.495460 0.181066
vt 0.495561 0.182488
vt 0.495290 0.182291
vt 0.495241 0.182342
vt 0.495314 0.182474
vt 0.495210 0.182256
vt 0.494999 0.181710
vt 0.495336 0.182233
vt 0.495344 0.182269
vt 0.495208 0.181964
vt 0.495534 0.182232
vt 0.495485 0.182121
vt 0.494993 0.181511
vt 0.495419 0.181315
vt 0.495286 0.181297
vt 0.495171 0.181312
vt 0.495258 0.181274
vt 0.495203 0.181234
vt 0.495302 0.181201
vt 0.495282 0.181084
vt 0.494995 0.181527
vt 0.494988 0.181563
vt 0.494950 0.181525
vt 0.494902 0.181600
vt 0.495491 0.182189
vt 0.495579 0.182375
vt 0.495330 0.182361
vt 0.494849 0.181630
vt 0.495169 0.182213
vt 0.495171 0.181968
vt 0.494893 0.181614
vn 0.000035 0.999449 -0.033182
vn 0.000035 0.999449 -0.033182
vn 0.000035 0.999449 -0.033182
vn 0.000035 0.999449 -0.033182
vn 0.000035 0.999449 -0.033182
vn 0.000000 0.000000 1.000000
vn 0.000000 0.000000 1.000000
vn 0.000000 0.000000 1.000000
vn 0.000000 0.000000 1.000000
vn 0.999693 -0.000840 -0.024764
vn 0.999693 -0.000840 -0.024764
vn 0.999693 -0.000840 -0.024764
vn 0.999693 -0.000840 -0.024764
vn -0.999995 -0.002051 -0.002600
vn -0.999995 -0.002051 -0.002600
vn -0.999995 -0.002051 -0.002600
vn -0.999995 -0.002051 -0.002600
vn 0.000000 0.554604 0.832114
vn 0.000000 0.554604 0.832115
vn 0.000000 0.554604 0.832114
vn 0.000000 0.554604 0.832114
vn -0.420938 0.040100 -0.906203
vn -0.420938 0.040100 -0.906203
vn -0.420938 0.040100 -0.906203
vn -0.410069 -0.227769 -0.883156
vn -0.410069 -0.227769 -0.883156
vn -0.410069 -0.227769 -0.883156
vn 0.413035 0.278991 -0.866929
vn 0.413035 0.278991 -0.866929
vn 0.413035 0.278991 -0.866929
vn 0.572130 -0.183372 0.799401
vn 0.572130 -0.183372 0.799401
vn 0.572131 -0.183372 0.799401
vn 0.582411 0.139659 0.800807
vn 0.582411 0.139659 0.800807
vn 0.582411 0.139659 0.800807
vn 0.000000 0.000000 -1.000000
vn 0.000000 0.000000 -1.000000
vn 0.000000 0.000000 -1.000000
vn -0.000000 0.000000 -1.000000
vn -0.000000 0.000000 -1.000000
vn -0.000000 0.000000 -1.000000
vn -0.000000 0.000000 -1.000000
vn -0.000000 0.000000 -1.000000
vn -0.000000 0.000000 -1.000000
vn -0.000000 0.000000 -1.000000
vn -0.000000 0.000000 -1.000000
vn -0.000000 0.000000 -1.000000
vn -0.998110 0.000002 -0.061452
vn -0.998110 0.000002 -0.061452
vn -0.998110 0.000002 -0.061452
vn -0.998110 0.000002 -0.061452
vn -0.999786 -0.002628 0.020517
vn -0.999786 -0.002628 0.020517
vn -0.999786 -0.002628 0.020517
vn -0.999786 -0.002628 0.020517
vn 0.999776 -0.001694 0.021102
vn 0.999776 -0.001694 0.021102
vn 0.999776 -0.001694 0.021102
vn 0.999776 -0.001694 0.021102
vn 0.999776 -0.001694 0.021102
vn 0.999937 -0.011211 0.000442
vn 0.999937 -0.011211 0.000442
vn 0.999937 -0.011211 0.000442
vn 0.999937 -0.011211 0.000442
vn 0.000000 0.000000 1.000000
vn 0.000000 0.000000 1.000000
vn 0.000000 0.000000 1.000000
vn 0.000000 0.000000 1.000000
vn 0.000000 0.000000 1.000000
vn 0.000000 0.000000 1.000000
vn 0.000000 0.000000 1.000000
vn 0.000138 -1.000000 0.000000
vn 0.000138 -1.000000 0.000000
vn 0.000138 -1.000000 0.000000
vn 0.000138 -1.000000 0.000000
vn 0.000000 0.999720 0.023679
vn 0.000000 0.999720 0.023679
vn 0.000000 0.999720 0.023679
vn 0.000000 0.999720 0.023679
vn 0.000000 0.704512 -0.709692
vn 0.000000 0.704512 -0.709692
vn 0.000000 0.704512 -0.709692
vn 0.000000 0.704512 -0.709692
vn -0.000001 -0.999989 -0.004627
vn -0.000001 -0.999989 -0.004627
vn -0.000001 -0.999989 -0.004627
vn -0.000001 -0.999989 -0.004627
vn -0.000001 -0.709257 0.704950
vn -0.000001 -0.709257 0.704950
vn -0.000001 -0.709257 0.704950
vn -0.000001 -0.709257 0.704950
vn 1.000000 -0.000000 0.000000
vn 1.000000 -0.000000 0.000000
vn 1.000000 -0.000000 0.000000
vn 1.000000 -0.000000 0.000000
vn 1.000000 -0.000000 0.000000
vn 1.000000 -0.000000 0.000000
vn -1.000000 0.000000 0.000000
vn -1.000000 0.000000 0.000000
vn -1.000000 0.000000 0.000000
vn -1.000000 0.000000 0.000000
vn -1.000000 0.000000 0.000000
vn -1.000000 0.000000 0.000000
vn 0.000000 0.288467 0.957490
vn 0.000000 0.288467 0.957490
vn 0.000000 0.288467 0.957490
vn 0.000000 0.288467 0.957490
vn 0.000000 -0.555217 -0.831706
vn 0.000000 -0.555217 -0.831706
vn 0.000000 -0.555217 -0.831706
vn 0.000000 -0.555217 -0.831706
vn -0.000029 0.019116 0.999817
vn -0.000029 0.019116 0.999817
vn -0.000029 0.019116 0.999817
vn -0.000029 0.019116 0.999817
vn -0.000029 0.019116 0.999817
vn -0.000002 1.000000 0.000000
vn -0.000002 1.000000 0.000000
vn -0.000002 1.000000 0.000000
vn -0.000002 1.000000 0.000000
vn 0.000004 -1.000000 0.000000
vn 0.000004 -1.000000 0.000000
vn 0.000004 -1.000000 0.000000
vn 0.000004 -1.000000 0.000000
vn -0.999853 0.017166 -0.000040
vn -0.999853 0.017166 -0.000040
vn -0.999853 0.017166 -0.000040
vn -0.999853 0.017166 -0.000040
vn -0.999853 0.017166 -0.000040
vn 0.999908 0.013516 -0.000661
vn 0.999908 0.013516 -0.000661
vn 0.999908 0.013516 -0.000661
vn 0.999909 0.013516 -0.000661
vn 0.000001 -0.657077 0.753823
vn 0.000001 -0.657077 0.753823
vn 0.000001 -0.657077 0.753823
vn 0.000001 -0.657077 0.753823
vn 0.552802 0.811988 0.187313
vn 0.552802 0.811988 0.187313
vn 0.552802 0.811988 0.187313
vn 0.528021 0.776165 -0.344620
vn 0.528021 0.776165 -0.344620
vn 0.528021 0.776164 -0.344620
vn -0.521288 0.746385 0.413724
vn -0.521288 0.746385 0.413724
vn -0.521288 0.746385 0.413724
vn -0.698006 -0.666118 -0.262821
vn -0.698006 -0.666118 -0.262821
vn -0.698006 -0.666118 -0.262821
vn -0.714079 -0.670533 0.201186
vn -0.714079 -0.670533 0.201186
vn -0.714079 -0.670533 0.201186
vn 0.664685 -0.725441 0.178686
vn 0.664685 -0.725441 0.178686
vn 0.664685 -0.725441 0.178686
vn 0.638004 -0.749790 -0.175404
vn 0.638004 -0.749790 -0.175404
vn 0.638004 -0.749790 -0.175404
vn -0.585400 0.788692 -0.187809
vn -0.585400 0.788692 -0.187809
vn -0.585400 0.788692 -0.187809
vn -0.620561 0.767541 0.160579
vn -0.620561 0.767541 0.160579
vn -0.620561 0.767541 0.160579
vn 0.000000 1.000000 -0.000000
vn 0.000000 1.000000 -0.000000
vn 0.000000 1.000000 -0.000000
vn 0.000000 1.000000 -0.000000
vn -0.000002 1.000000 0.000000
vn -0.000002 1.000000 0.000000
vn -0.000002 1.000000 0.000000
vn -0.000002 1.000000 0.000000
vn -0.000000 1.000000 0.000001
vn -0.000000 1.000000 0.000001
vn -0.000000 1.000000 0.000001
vn -0.000000 1.000000 0.000001
vn -0.000000 1.000000 0.000001
vn 0.999980 -0.006026 -0.001862
vn 0.999980 -0.006026 -0.001862
vn 0.999980 -0.006026 -0.001862
vn 0.999980 -0.006026 -0.001862
vn 0.999117 0.042005 0.000005
vn 0.999117 0.042005 0.000005
vn 0.999117 0.042005 0.000005
vn 0.999117 0.042005 0.000005
vn 0.999859 -0.016718 -0.001392
vn 0.999859 -0.016718 -0.001392
vn 0.999859 -0.016718 -0.001392
vn 0.999859 -0.016718 -0.001392
vn 0.999859 -0.016718 -0.001392
vn -0.999897 -0.014218 -0.002139
vn -0.999897 -0.014218 -0.002139
vn -0.999897 -0.014218 -0.002139
vn -0.999897 -0.014218 -0.002139
vn -0.999897 -0.014218 -0.002139
vn -0.999987 0.004346 -0.002693
vn -0.999987 0.004346 -0.002693
vn -0.999987 0.004346 -0.002693
vn -0.999987 0.004346 -0.002693
vn -0.999919 -0.012648 -0.001147
vn -0.999919 -0.012648 -0.001147
vn -0.999919 -0.012648 -0.001147
vn -0.999919 -0.012648 -0.001147
vn 0.000002 -1.000000 0.000001
vn 0.000002 -1.000000 0.000001
vn 0.000002 -1.000000 0.000001
vn 0.000002 -1.000000 0.000001
vn 0.000001 -1.000000 0.000001
vn 0.000001 -1.000000 0.000001
vn 0.000001 -1.000000 0.000001
vn 0.000001 -1.000000 0.000001
vn 0.000004 -1.000000 0.000000
vn 0.000004 -1.000000 0.000000
vn 0.000004 -1.000000 0.000000
vn 0.000004 -1.000000 0.000000
vn 0.000100 0.030322 0.999540
vn 0.000100 0.030322 0.999540
vn 0.000100 0.030322 0.999540
vn 0.000100 0.030322 0.999540
vn 0.000100 0.030322 0.999540
vn -0.000004 -1.000000 0.000000
vn -0.000004 -1.000000 0.000000
vn -0.000004 -1.000000 0.000000
vn -0.000004 -1.000000 0.000000
vn 0.999837 0.018044 -0.001071
vn 0.999837 0.018044 -0.001071
vn 0.999837 0.018044 -0.001071
vn 0.999837 0.018044 -0.001071
vn -0.999987 0.003855 -0.003320
vn -0.999987 0.003855 -0.003320
vn -0.999987 0.003855 -0.003320
vn -0.999987 0.003855 -0.003320
vn -0.000001 -0.808690 0.588235
vn -0.000001 -0.808690 0.588235
vn -0.000001 -0.808690 0.588235
vn -0.000001 -0.808690 0.588235
vn -0.519837 0.845271 0.123642
vn -0.519837 0.845271 0.123642
vn -0.519837 0.845271 0.123642
vn -0.509127 0.828502 -0.233181
vn -0.509127 0.828502 -0.233181
vn -0.509127 0.828502 -0.233181
vn 0.511479 0.810675 0.284949
vn 0.511479 0.810675 0.284949
vn 0.511479 0.810675 0.284949
vn 0.676377 -0.714536 -0.178755
vn 0.676377 -0.714536 -0.178755
vn 0.676377 -0.714536 -0.178755
vn 0.686844 -0.713999 0.135831
vn 0.686844 -0.713999 0.135831
vn 0.686844 -0.713999 0.135831
vn -0.000002 1.000000 0.000000
vn -0.000002 1.000000 0.000000
vn -0.000002 1.000000 0.000000
vn -0.000002 1.000000 0.000000
vn -0.000002 1.000000 0.000000
vn -0.000002 1.000000 0.000000
vn -0.000002 1.000000 0.000000
vn 0.000000 1.000000 0.000001
vn 0.000000 1.000000 0.000001
vn 0.000000 1.000000 0.000001
vn 0.000000 1.000000 0.000001
vn 0.000000 1.000000 0.000001
vn -0.998919 0.046491 0.000004
vn -0.998919 0.046491 0.000004
vn -0.998919 0.046491 0.000004
vn -0.998919 0.046491 0.000004
vn -0.999841 -0.017549 -0.003075
vn -0.999841 -0.017549 -0.003075
vn -0.999841 -0.017549 -0.003075
vn -0.999841 -0.017549 -0.003075
vn 0.999899 -0.013968 -0.002471
vn 0.999899 -0.013968 -0.002471
vn 0.999899 -0.013968 -0.002471
vn 0.999899 -0.013968 -0.002471
vn 0.999899 -0.013968 -0.002471
vn 0.999957 -0.000333 -0.009242
vn 0.999957 -0.000333 -0.009242
vn 0.999957 -0.000333 -0.009242
vn 0.999957 -0.000333 -0.009242
vn -0.000005 -1.000000 0.000002
vn -0.000005 -1.000000 0.000002
vn -0.000005 -1.000000 0.000002
vn -0.000005 -1.000000 0.000002
vn -0.000004 -1.000000 0.000000
vn -0.000004 -1.000000 0.000000
vn -0.000004 -1.000000 0.000000
vn 0.000000 0.000000 -1.000000
vn 0.000000 0.000000 -1.000000
vn 0.000000 0.000000 -1.000000
vn 0.000000 0.000000 -1.000000
vn 0.000336 0.000000 -1.000000
vn 0.000336 0.000000 -1.000000
vn 0.000336 0.000000 -1.000000
vn 0.000336 0.000000 -1.000000
s off
f 6/4/1 7/5/2 4/20/3 12/23/4 3/24/5
f 1/8/6 17/9/7 15/10/8 2/11/9
f 16/12/10 20/7/11 13/13/12 4/3/13
f 18/14/14 11/15/15 9/16/16 19/6/17
f 1/25/18 2/26/19 7/5/20 6/4/21
f 9/27/22 11/28/23 10/29/24
f 10/29/25 11/28/26 8/30/27
f 13/31/28 12/23/29 4/20/30
f 15/32/31 17/33/32 16/34/33
f 16/34/34 17/33/35 14/35/36
f 10/19/37 13/13/38 20/7/39
f 10/19/40 20/7/41 19/6/42 9/16/43
f 3/24/44 12/23/45 13/31/46 10/29/47 8/30/48
f 6/4/49 3/24/50 8/30/51 11/28/52
f 6/1/53 11/15/54 18/14/55 1/8/56
f 16/12/57 4/3/58 7/2/59 2/11/60 15/10/61
f 5/17/62 20/7/63 16/12/64 14/21/65
f 18/22/66 5/18/67 14/21/68 17/9/69
f 18/22/70 17/9/71 1/8/72
f 20/7/73 5/18/74 18/14/75 19/6/76
f 29/36/77 30/37/78 24/38/79 23/39/80
f 23/39/81 24/38/82 26/40/83 25/41/84
f 31/42/85 32/43/86 28/44/87 27/45/88
f 27/45/89 28/44/90 22/46/91 21/47/92
f 22/46/93 28/44/94 32/43/95 26/40/96 24/38/97 30/37/98
f 27/45/99 21/47/100 29/36/101 23/39/102 25/41/103 31/42/104
f 21/47/105 22/46/106 30/37/107 29/36/108
f 25/41/109 26/40/110 32/43/111 31/42/112
f 41/48/113 35/49/114 47/50/115 36/51/116 42/52/117
f 37/53/118 38/54/119 58/55/120 59/56/121
f 33/57/122 34/58/123 50/59/124 52/60/125
f 51/61/126 36/51/127 48/62/128 57/63/129 60/64/130
f 55/65/131 37/53/132 44/66/133 46/67/134
f 33/57/135 41/48/136 42/52/137 34/58/138
f 44/66/139 45/68/140 46/67/141
f 45/68/142 43/69/143 46/67/144
f 48/62/145 36/51/146 47/50/147
f 50/59/148 51/61/149 52/60/150
f 51/61/151 49/70/152 52/60/153
f 56/71/154 53/72/155 55/65/156
f 54/73/157 56/71/158 55/65/159
f 57/63/160 59/56/161 60/64/162
f 59/56/163 58/55/164 60/64/165
f 45/68/166 59/56/167 57/63/168 48/62/169
f 45/68/170 44/66/171 37/53/172 59/56/173
f 35/49/174 43/69/175 45/68/176 48/62/177 47/50/178
f 55/65/179 53/72/180 39/74/181 37/53/182
f 41/48/183 46/67/184 43/69/185 35/49/186
f 41/48/187 33/57/188 54/73/189 55/65/190 46/67/191
f 51/61/192 50/59/193 34/58/194 42/52/195 36/51/196
f 38/54/197 40/75/198 60/64/199 58/55/200
f 40/75/201 49/70/202 51/61/203 60/64/204
f 56/71/205 52/60/206 49/70/207 40/75/208
f 56/71/209 54/73/210 33/57/211 52/60/212
f 39/74/213 53/72/214 56/71/215 40/76/216
f 66/77/217 67/78/218 64/79/219 72/80/220 63/81/221
f 61/82/222 77/83/223 75/84/224 62/85/225
f 76/86/226 80/87/227 73/88/228 64/89/229
f 78/90/230 71/91/231 69/92/232 79/93/233
f 61/94/234 62/95/235 67/78/236 66/77/237
f 69/96/238 71/97/239 70/98/240
f 70/98/241 71/97/242 68/99/243
f 73/100/244 72/80/245 64/79/246
f 75/101/247 77/102/248 76/103/249
f 76/103/250 77/102/251 74/104/252
f 70/105/253 73/88/254 80/87/255
f 70/105/256 80/87/257 79/93/258 69/92/259
f 63/81/260 72/80/261 73/100/262 70/98/263 68/99/264
f 66/77/265 63/81/266 68/99/267 71/97/268
f 66/106/269 71/91/270 78/90/271 61/82/272
f 76/86/273 64/89/274 67/107/275 62/85/276 75/84/277
f 65/108/278 80/87/279 76/86/280 74/109/281
f 78/110/282 65/111/283 74/109/284 77/83/285
f 78/110/286 77/83/287 61/82/288
f 40/75/289 38/54/290 37/53/291 39/74/292
f 80/87/293 65/111/294 78/90/295 79/93/296
