# This file uses centimeters as units for non-parametric coordinates.

v -0.006104 22.178841 0.000305
v -17.482910 -10.703735 0.000305
v -19.989014 -9.544640 -41.644287
v -19.102173 -7.601624 -83.337097
v -17.482910 -10.703735 -125.001526
v -21.442871 -2.791672 -104.171143
v -21.229248 -2.091637 -20.833130
v -21.163330 -2.790260 0.000305
v -22.702026 4.221687 -20.833130
v -21.159668 -2.741165 -83.389587
v -22.324829 5.520020 -62.500610
v -21.163330 -2.790260 -125.001526
v -22.695313 4.241982 -104.166870
v -20.571289 -3.566628 -41.646118
v -21.215210 -11.471596 -81.965027
v -23.416138 -6.354561 -62.270813
v -26.691284 -0.898781 -62.500000
v -24.100952 -7.225037 -81.937256
v -21.845093 -12.853889 -43.018494
v -23.540649 -8.010597 -43.097229
v 18.012085 -10.703735 0.000305
v 18.012085 -10.703735 -125.001526
v 20.029297 -8.746681 -83.341675
v 19.616699 -7.513504 -41.666565
v 20.994873 -0.501556 -20.833130
v 21.947021 -2.767334 -65.237122
v 21.098022 -1.006813 -104.161682
v 21.594238 -2.790260 0.000000
v 21.712646 5.859489 -20.833130
v 21.594238 -2.790260 -41.666565
v 21.594238 -2.790260 -125.001526
v 20.677490 -0.505791 -83.361816
v 23.042603 4.616165 -104.161682
v 23.243408 3.836823 -66.941833
v -3.157959 31.444702 -0.183105
v -3.385010 37.916183 -20.833130
v -3.070679 31.365776 -41.664734
v -3.329468 38.048210 -62.500000
v -3.157349 31.449699 -83.338928
v -3.383789 37.918243 -104.166565
v -3.157959 31.444702 -124.997864
v 3.145752 31.444588 -125.001831
v 3.359375 37.956200 -104.165955
v 3.010864 31.676903 -83.335876
v 3.388672 37.876968 -62.951355
v 3.145752 31.444626 -41.666565
v 3.163452 38.082619 -20.833130
v 3.145752 31.444588 -0.182800
v -0.006104 22.178841 -124.997864
v -1.284790 12.369690 -83.094788
v -1.657104 12.369690 -42.142029
vt 0.238702 0.276351
vt 0.238573 0.277062
vt 0.238591 0.277062
vt 0.238635 0.269724
vt 0.238655 0.302558
vt 0.238700 0.302557
vt 0.238724 0.302558
vt 0.238701 0.289137
vt 0.238701 0.289161
vt 0.238771 0.302583
vt 0.238772 0.289163
vt 0.238700 0.302582
vt 0.238725 0.289138
vt 0.238641 0.270420
vt 0.238641 0.295893
vt 0.238635 0.295198
vt 0.238772 0.263714
vt 0.238581 0.263647
vt 0.238593 0.263641
vt 0.238701 0.289161
vt 0.238657 0.287405
vt 0.238655 0.302558
vt 0.238700 0.302582
vt 0.238635 0.295198
vt 0.238641 0.295893
vt 0.239027 0.289260
vt 0.239022 0.302673
vt 0.239109 0.300562
vt 0.238966 0.289225
vt 0.238932 0.287921
vt 0.238931 0.302640
vt 0.238966 0.302644
vt 0.238849 0.259409
vt 0.238799 0.261550
vt 0.238798 0.277136
vt 0.238848 0.277161
vt 0.238932 0.287946
vt 0.238879 0.289219
vt 0.238878 0.302638
vt 0.238931 0.302665
vt 0.238849 0.284883
vt 0.238848 0.302635
vt 0.238772 0.263714
vt 0.238771 0.277134
vt 0.238635 0.263493
vt 0.238655 0.263491
vt 0.238699 0.262835
vt 0.238699 0.288308
vt 0.238721 0.288984
vt 0.238766 0.289006
vt 0.238766 0.288981
vt 0.238791 0.288980
vt 0.238839 0.289003
vt 0.238839 0.263554
vt 0.238868 0.263553
vt 0.238918 0.263577
vt 0.238918 0.289051
vt 0.238950 0.289051
vt 0.239003 0.289052
vt 0.239003 0.289077
vt 0.239040 0.289052
vt 0.239096 0.289080
vt 0.238749 0.276426
vt 0.238824 0.273216
vt 0.238914 0.288896
vt 0.238635 0.287341
vt 0.238709 0.289145
vt 0.238786 0.262632
vn -0.008574 0.007265 0.999937
vn -0.008574 0.007265 0.999937
vn -0.008574 0.007265 0.999937
vn -0.008574 0.007265 0.999937
vn -0.986121 -0.164878 -0.019489
vn -0.986121 -0.164878 -0.019489
vn -0.986121 -0.164878 -0.019489
vn -0.986121 -0.164878 -0.019489
vn -0.861621 0.462194 -0.209727
vn -0.861621 0.462194 -0.209727
vn -0.861621 0.462194 -0.209727
vn -0.861621 0.462194 -0.209727
vn -0.843496 -0.534511 0.053030
vn -0.843496 -0.534511 0.053030
vn -0.843496 -0.534511 0.053030
vn -0.843496 -0.534511 0.053030
vn -0.857365 0.475585 -0.196837
vn -0.857365 0.475585 -0.196837
vn -0.857365 0.475585 -0.196837
vn -0.857365 0.475585 -0.196837
vn -0.949547 -0.313366 -0.012764
vn -0.949547 -0.313366 -0.012764
vn -0.949547 -0.313366 -0.012764
vn -0.949547 -0.313366 -0.012764
vn -0.860505 0.472855 -0.189576
vn -0.860505 0.472855 -0.189576
vn -0.860505 0.472855 -0.189576
vn -0.860505 0.472855 -0.189576
vn -0.963315 -0.268019 0.013779
vn -0.963315 -0.268019 0.013779
vn -0.963315 -0.268019 0.013779
vn -0.963315 -0.268019 0.013779
vn -0.860493 0.472963 0.189363
vn -0.860493 0.472963 0.189363
vn -0.860493 0.472963 0.189363
vn -0.860493 0.472963 0.189363
vn -0.899236 -0.435302 -0.043437
vn -0.899236 -0.435302 -0.043437
vn -0.899236 -0.435302 -0.043437
vn -0.899236 -0.435302 -0.043437
vn -0.858528 0.464519 0.217144
vn -0.858528 0.464519 0.217144
vn -0.858528 0.464519 0.217144
vn -0.858528 0.464519 0.217144
vn -0.940188 -0.340552 -0.008445
vn -0.940188 -0.340552 -0.008445
vn -0.940188 -0.340552 -0.008445
vn -0.940188 -0.340552 -0.008445
vn -0.860179 0.473121 0.190393
vn -0.860179 0.473121 0.190393
vn -0.860179 0.473121 0.190393
vn -0.860179 0.473121 0.190393
vn -0.817482 0.513055 -0.261721
vn -0.817482 0.513056 -0.261721
vn -0.817482 0.513056 -0.261721
vn -0.817482 0.513056 -0.261721
vn -0.277160 -0.153015 -0.948561
vn -0.277160 -0.153015 -0.948562
vn -0.277160 -0.153015 -0.948561
vn -0.277160 -0.153015 -0.948561
vn -0.406414 -0.078771 0.910287
vn -0.406414 -0.078771 0.910287
vn -0.406414 -0.078771 0.910287
vn -0.406414 -0.078771 0.910287
vn -0.808274 0.505532 0.301877
vn -0.808274 0.505532 0.301877
vn -0.808274 0.505532 0.301877
vn -0.808274 0.505532 0.301877
vn 0.008502 0.007343 0.999937
vn 0.008502 0.007343 0.999937
vn 0.008502 0.007343 0.999937
vn 0.008502 0.007343 0.999937
vn 0.970276 -0.235937 0.053834
vn 0.970276 -0.235937 0.053834
vn 0.970276 -0.235937 0.053834
vn 0.970276 -0.235937 0.053834
vn 0.859711 0.478608 -0.178411
vn 0.859711 0.478608 -0.178411
vn 0.859711 0.478608 -0.178411
vn 0.859711 0.478608 -0.178411
vn 0.982674 -0.183741 0.024294
vn 0.982674 -0.183741 0.024294
vn 0.982674 -0.183741 0.024294
vn 0.982674 -0.183741 0.024294
vn 0.853171 0.486270 0.188789
vn 0.853171 0.486270 0.188789
vn 0.853171 0.486270 0.188789
vn 0.853171 0.486270 0.188789
vn 0.961148 -0.275673 0.014117
vn 0.961148 -0.275673 0.014117
vn 0.961148 -0.275673 0.014117
vn 0.961148 -0.275673 0.014117
vn 0.863856 0.474800 0.168279
vn 0.863856 0.474800 0.168279
vn 0.863856 0.474800 0.168279
vn 0.863856 0.474800 0.168279
vn 0.955826 -0.287925 -0.059130
vn 0.955826 -0.287925 -0.059130
vn 0.955826 -0.287925 -0.059130
vn 0.955826 -0.287925 -0.059130
vn 0.859359 0.478905 0.179309
vn 0.859359 0.478905 0.179309
vn 0.859359 0.478905 0.179309
vn 0.859359 0.478905 0.179309
vn 0.986472 -0.139267 -0.086474
vn 0.986472 -0.139267 -0.086474
vn 0.986472 -0.139267 -0.086474
vn 0.986472 -0.139267 -0.086474
vn 0.845459 0.491674 -0.208462
vn 0.845459 0.491674 -0.208462
vn 0.845459 0.491674 -0.208462
vn 0.845459 0.491674 -0.208462
vn 0.924442 -0.377436 0.054312
vn 0.924442 -0.377436 0.054312
vn 0.924442 -0.377436 0.054312
vn 0.924442 -0.377436 0.054312
vn 0.854191 0.481996 -0.195032
vn 0.854191 0.481997 -0.195032
vn 0.854191 0.481996 -0.195032
vn 0.854191 0.481996 -0.195032
vn -0.002846 0.954709 -0.297526
vn -0.002846 0.954709 -0.297526
vn -0.002846 0.954709 -0.297526
vn -0.002846 0.954709 -0.297526
vn -0.019718 0.956059 0.292510
vn -0.019718 0.956059 0.292510
vn -0.019718 0.956059 0.292510
vn -0.019718 0.956059 0.292510
vn -0.014459 0.954951 -0.296410
vn -0.014459 0.954951 -0.296410
vn -0.014459 0.954951 -0.296410
vn -0.014459 0.954951 -0.296410
vn 0.017233 0.954648 0.297239
vn 0.017233 0.954648 0.297239
vn 0.017233 0.954648 0.297239
vn 0.017233 0.954648 0.297239
vn -0.018359 0.953180 -0.301845
vn -0.018359 0.953180 -0.301845
vn -0.018359 0.953180 -0.301845
vn -0.018359 0.953180 -0.301845
vn -0.012341 0.953045 0.302577
vn -0.012341 0.953045 0.302577
vn -0.012341 0.953045 0.302577
vn -0.012341 0.953045 0.302577
vn -0.000048 0.019774 0.999804
vn -0.000048 0.019774 0.999805
vn -0.000048 0.019774 0.999805
vn -0.748415 -0.662918 0.020372
vn -0.748415 -0.662918 0.020372
vn -0.748415 -0.662918 0.020372
vn -0.748415 -0.662918 0.020372
vn -0.675861 -0.678833 -0.287050
vn -0.675861 -0.678833 -0.287050
vn -0.675861 -0.678833 -0.287050
vn -0.594322 -0.798430 0.096390
vn -0.594322 -0.798430 0.096390
vn -0.594322 -0.798430 0.096390
vn -0.594322 -0.798430 0.096390
vn -0.665082 -0.716620 -0.210053
vn -0.665082 -0.716620 -0.210053
vn -0.665082 -0.716620 -0.210053
vn -0.659088 -0.698519 0.278702
vn -0.659088 -0.698519 0.278702
vn -0.659088 -0.698519 0.278702
vn -0.742645 -0.669390 -0.019883
vn -0.742645 -0.669390 -0.019883
vn -0.742645 -0.669390 -0.019883
vn -0.742645 -0.669390 -0.019883
vn 0.774337 -0.630433 -0.054381
vn 0.774337 -0.630433 -0.054381
vn 0.774336 -0.630433 -0.054381
vn 0.774337 -0.630433 -0.054381
vn 0.742630 -0.615220 0.264583
vn 0.742630 -0.615220 0.264583
vn 0.742630 -0.615220 0.264583
vn 0.694683 -0.571190 0.437215
vn 0.694683 -0.571190 0.437215
vn 0.694683 -0.571190 0.437215
vn 0.757600 -0.597200 -0.263429
vn 0.757600 -0.597200 -0.263429
vn 0.757600 -0.597200 -0.263429
vn 0.691195 -0.717064 0.089829
vn 0.691195 -0.717064 0.089829
vn 0.691195 -0.717064 0.089829
vn 0.691195 -0.717064 0.089829
vn 0.612360 -0.539306 -0.578069
vn 0.612360 -0.539306 -0.578069
vn 0.612360 -0.539306 -0.578069
vn 0.727425 -0.646170 -0.230907
vn 0.727425 -0.646170 -0.230907
vn 0.727425 -0.646170 -0.230907
vn 0.776534 -0.628406 0.045842
vn 0.776534 -0.628406 0.045842
vn 0.776534 -0.628406 0.045842
vn 0.776534 -0.628406 0.045842
vn -0.000100 -0.000036 -1.000000
vn 0.000011 0.000009 -1.000000
vn -0.000347 -0.000127 -1.000000
vn -0.000100 -0.000036 -1.000000
vn -0.000347 -0.000127 -1.000000
vn -0.000301 -0.000113 -1.000000
vn -0.000301 -0.000113 -1.000000
vn 0.000118 0.000047 -1.000000
vn 0.000011 0.000009 -1.000000
vn -0.000100 -0.000036 -1.000000
vn 0.000118 0.000047 -1.000000
s off
f 1/1/1 35/45/2 8/2/3 2/18/4
f 3/4/5 7/19/6 9/3/7 14/14/8
f 9/3/9 36/46/10 37/47/11 14/14/12
f 15/20/13 16/21/14 17/22/15 18/23/16
f 38/49/17 39/50/18 10/12/19 11/5/20
f 5/11/21 6/13/22 13/7/23 12/10/24
f 40/52/25 41/53/26 12/10/27 13/7/28
f 6/13/29 4/8/30 10/6/31 13/7/32
f 10/6/33 39/51/34 40/52/35 13/7/36
f 17/22/37 16/21/38 19/24/39 20/25/40
f 37/48/41 38/49/42 11/5/43 14/15/44
f 7/19/45 2/18/46 8/2/47 9/3/48
f 8/2/49 35/45/50 36/46/51 9/3/52
f 11/5/53 10/12/54 18/23/55 17/22/56
f 10/12/57 4/9/58 15/20/59 18/23/60
f 3/16/61 14/15/62 20/25/63 19/24/64
f 14/15/65 11/5/66 17/22/67 20/25/68
f 48/62/69 1/28/70 21/26/71 28/27/72
f 25/29/73 24/30/74 30/31/75 29/32/76
f 46/59/77 47/61/78 29/32/79 30/31/80
f 23/33/81 27/34/82 33/35/83 32/36/84
f 43/55/85 44/56/86 32/36/87 33/35/88
f 24/37/89 26/38/90 34/39/91 30/40/92
f 45/58/93 46/60/94 30/40/95 34/39/96
f 21/26/97 25/29/98 29/32/99 28/27/100
f 29/32/101 47/61/102 48/62/103 28/27/104
f 26/38/105 23/41/106 32/42/107 34/39/108
f 32/42/109 44/57/110 45/58/111 34/39/112
f 27/34/113 22/43/114 31/44/115 33/35/116
f 31/44/117 42/54/118 43/55/119 33/35/120
f 40/52/121 43/55/122 42/54/123 41/53/124
f 39/51/125 44/56/126 43/55/127 40/52/128
f 38/49/129 45/58/130 44/57/131 39/50/132
f 37/48/133 46/60/134 45/58/135 38/49/136
f 47/61/137 46/59/138 37/47/139 36/46/140
f 35/45/141 48/62/142 47/61/143 36/46/144
f 1/28/145 48/62/146 35/45/147
f 22/43/148 27/34/149 50/64/150 49/63/151
f 27/34/152 23/41/153 50/64/154
f 23/41/155 26/38/156 51/65/157 50/64/158
f 26/38/159 24/30/160 51/65/161
f 24/30/162 25/29/163 51/65/164
f 25/29/165 21/26/166 1/1/167 51/65/168
f 2/18/169 7/19/170 51/66/171 1/1/172
f 7/19/173 3/16/174 51/66/175
f 3/16/176 19/24/177 51/66/178
f 19/24/179 16/21/180 51/66/181
f 16/21/182 15/20/183 50/67/184 51/66/185
f 15/20/186 4/8/187 50/67/188
f 4/8/189 6/13/190 50/67/191
f 6/13/192 5/17/193 49/68/194 50/67/195
f 49/68/196 41/53/197 42/54/198
f 49/68/199 42/54/200 31/44/201 22/43/202
f 12/10/203 41/53/204 49/68/205 5/11/206
