# This file uses centimeters as units for non-parametric coordinates.

v 0.000000 0.000000 0.000000
v 0.000000 500.000000 -381.328125
v 0.000000 0.000000 -50.000000
v 0.000000 500.000000 -499.996094
v 0.000000 49.290466 0.000000
v 0.000000 49.290466 -50.000000
v -500.000000 500.000000 -381.328125
v -500.000000 500.000000 -499.996094
v -500.000000 49.290466 -50.000000
v -500.000000 49.290466 0.000000
v -500.000000 0.000000 -50.000000
v -500.000000 0.000000 0.000000
v -385.927734 7.391510 -49.187500
v -364.072266 7.391510 -49.187500
v -385.927734 41.666504 -17.773438
v -364.072266 41.666504 -17.773438
v -385.927734 496.990173 -430.824219
v -364.072266 496.990173 -430.824219
v -385.927734 462.715210 -499.996094
v -364.072266 462.715210 -499.996094
v -385.927734 496.990173 -499.996094
v -364.072266 496.990173 -499.996094
v -135.927734 7.391510 -49.187500
v -114.072266 7.391510 -49.187500
v -135.927734 41.666504 -17.773438
v -114.072266 41.666504 -17.773438
v -135.927734 496.990173 -430.824219
v -114.072266 496.990173 -430.824219
v -135.927734 462.715210 -499.996094
v -114.072266 462.715210 -499.996094
v -135.927734 496.990173 -499.996094
v -114.072266 496.990173 -499.996094
vt 2.000115 1.000385
vt 2.000115 0.098066
vt 2.000115 -0.000613
vt 0.999117 1.000385
vt 0.999117 0.098066
vt 0.999117 -0.000613
vt 0.488449 0.156574
vt 0.488450 0.156523
vt 0.488212 0.155782
vt 0.488779 0.155574
vt 0.489033 0.156365
vt 0.489040 0.156418
vt 0.487464 0.178879
vt 0.487486 0.178870
vt 0.487485 0.178930
vt 0.487463 0.178938
vt 0.488039 0.179721
vt 0.488016 0.179720
vt 0.487587 0.178897
vt 0.488070 0.179669
vt 0.488046 0.179668
vt 0.487565 0.178906
vt 0.487746 0.178752
vt 0.487775 0.178738
vt 0.487775 0.178809
vt 0.487745 0.178821
vt 0.488349 0.179738
vt 0.488319 0.179737
vt 0.487882 0.178776
vt 0.488378 0.179679
vt 0.488348 0.179678
vt 0.487852 0.178788
vt 0.017892 0.046242
vt 0.017040 0.046242
vt 0.020271 0.043007
vt 0.020630 0.043007
vt 0.020271 0.042653
vt 0.020630 0.042653
vt 0.022922 0.049858
vt 0.020185 0.046623
vt 0.020544 0.046623
vt 0.023774 0.049858
vt 0.020185 0.046269
vt 0.020544 0.046269
vt 0.020143 0.049858
vt 0.019291 0.049858
vt 0.019291 0.046269
vt 0.020143 0.046269
vt 0.019250 0.049858
vt 0.018891 0.049858
vt 0.018891 0.046269
vt 0.019250 0.046269
vn -1.000000 0.000000 0.000000
vn -1.000000 0.000000 0.000000
vn -1.000000 0.000000 0.000000
vn -1.000000 0.000000 0.000000
vn -1.000000 0.000000 0.000000
vn -1.000000 0.000000 0.000000
vn -1.000000 0.000000 0.000000
vn -1.000000 0.000000 0.000000
vn 1.000000 0.000000 0.000000
vn 1.000000 0.000000 0.000000
vn 1.000000 0.000000 0.000000
vn 1.000000 0.000000 0.000000
vn 1.000000 0.000000 0.000000
vn 1.000000 0.000000 0.000000
vn 1.000000 0.000000 0.000000
vn 1.000000 0.000000 0.000000
vn 0.000000 0.000000 1.000000
vn 0.000000 0.000000 1.000000
vn 0.000000 0.000000 1.000000
vn 0.000000 0.000000 1.000000
vn 0.000000 1.000000 0.000000
vn 0.000000 1.000000 0.000000
vn 0.000000 1.000000 0.000000
vn 0.000000 1.000000 0.000000
vn 0.000000 -0.706546 -0.707667
vn 0.000000 -0.706546 -0.707667
vn 0.000000 -0.706546 -0.707667
vn 0.000000 -0.706546 -0.707667
vn 0.000000 0.645901 0.763421
vn 0.000000 0.645901 0.763421
vn 0.000000 0.645901 0.763421
vn 0.000000 0.645901 0.763421
vn 0.000000 0.000000 -1.000000
vn 0.000000 0.000000 -1.000000
vn 0.000000 0.000000 -1.000000
vn 0.000000 0.000000 -1.000000
vn 0.000000 -1.000000 0.000000
vn 0.000000 -1.000000 0.000000
vn 0.000000 -1.000000 0.000000
vn 0.000000 -1.000000 0.000000
vn 0.000000 0.000000 -1.000000
vn 0.000000 0.000000 -1.000000
vn 0.000000 0.000000 -1.000000
vn 0.000000 0.000000 -1.000000
vn 0.000000 -0.703575 -0.710621
vn 0.000000 -0.703575 -0.710621
vn 0.000000 -0.703575 -0.710621
vn 0.000000 -0.703575 -0.710621
vn 1.000000 -0.000000 0.000000
vn 1.000000 -0.000000 0.000000
vn 1.000000 -0.000000 0.000000
vn 1.000000 -0.000000 0.000000
vn 1.000000 -0.000000 0.000000
vn -1.000000 0.000000 0.000000
vn -1.000000 0.000000 0.000000
vn -1.000000 0.000000 0.000000
vn -1.000000 0.000000 0.000000
vn -1.000000 0.000000 0.000000
vn 0.000000 1.000000 0.000000
vn 0.000000 1.000000 0.000000
vn 0.000000 1.000000 0.000000
vn 0.000000 1.000000 0.000000
vn 0.000000 0.000000 -1.000000
vn 0.000000 0.000000 -1.000000
vn 0.000000 0.000000 -1.000000
vn 0.000000 0.000000 -1.000000
vn 0.000000 -0.703575 -0.710621
vn 0.000000 -0.703575 -0.710621
vn 0.000000 -0.703575 -0.710621
vn 0.000000 -0.703575 -0.710621
vn 1.000000 -0.000000 0.000000
vn 1.000000 -0.000000 0.000000
vn 1.000000 -0.000000 0.000000
vn 1.000000 -0.000000 0.000000
vn 1.000000 -0.000000 0.000000
vn -1.000000 -0.000000 0.000000
vn -1.000000 -0.000000 0.000000
vn -1.000000 -0.000000 0.000000
vn -1.000000 -0.000000 0.000000
vn -1.000000 -0.000000 0.000000
vn 0.000000 1.000000 0.000000
vn 0.000000 1.000000 0.000000
vn 0.000000 1.000000 0.000000
vn 0.000000 1.000000 0.000000
s off
f 7/33/1 8/34/2 9/35/3 10/36/4
f 9/35/5 11/37/6 12/38/7 10/36/8
f 2/39/9 5/40/10 6/41/11 4/42/12
f 6/41/13 5/40/14 1/43/15 3/44/16
f 10/2/17 12/3/18 1/6/19 5/5/20
f 8/45/21 7/46/22 2/47/23 4/48/24
f 9/8/25 8/9/26 4/10/27 6/11/28
f 2/4/29 7/1/30 10/2/31 5/5/32
f 11/7/33 9/8/34 6/11/35 3/12/36
f 12/49/37 11/50/38 3/51/39 1/52/40
f 21/13/41 22/14/42 20/15/43 19/16/44
f 19/16/45 20/15/46 14/17/47 13/18/48
f 14/17/49 20/15/50 22/14/51 18/19/52 16/20/53
f 19/16/54 13/18/55 15/21/56 17/22/57 21/13/58
f 17/22/59 18/19/60 22/14/61 21/13/62
f 31/23/63 32/24/64 30/25/65 29/26/66
f 29/26/67 30/25/68 24/27/69 23/28/70
f 24/27/71 30/25/72 32/24/73 28/29/74 26/30/75
f 29/26/76 23/28/77 25/31/78 27/32/79 31/23/80
f 27/32/81 28/29/82 32/24/83 31/23/84
