# This file uses centimeters as units for non-parametric coordinates.

v -375.000000 -25.000000 -0.001953
v -346.454102 -25.000000 -143.509766
v -265.165039 -25.000000 -265.166016
v -143.506836 -25.000000 -346.458984
v 0.000000 -25.000000 -375.001953
v -375.000000 3.480469 -0.001953
v -346.454102 3.480469 -143.509766
v -265.165039 3.480469 -265.166016
v -143.506836 3.480469 -346.458984
v 0.000000 3.480469 -375.001953
v 0.000000 -25.000000 -0.001953
v 0.000000 3.480469 -0.001953
vt 0.065884 0.729548
vt 0.065884 0.735118
vt 0.079477 0.671210
vt 0.079477 0.671210
vt 0.118186 0.617033
vt 0.118186 0.617033
vt 0.176119 0.580831
vt 0.176119 0.580831
vt 0.244455 0.568121
vt 0.244455 0.568121
vt 0.244455 0.729548
vt 0.244455 0.735118
vt 0.244455 0.729548
vt 0.244455 0.735118
vt 0.065884 0.729548
vt 0.065884 0.735118
vn -0.980785 0.000000 -0.195093
vn -0.980785 0.000000 -0.195093
vn -0.923879 0.000000 -0.382685
vn -0.923879 0.000000 -0.382685
vn -0.923879 0.000000 -0.382685
vn -0.923879 0.000000 -0.382685
vn -0.707110 0.000000 -0.707103
vn -0.707110 0.000000 -0.707103
vn -0.707110 0.000000 -0.707103
vn -0.707110 0.000000 -0.707103
vn -0.382686 0.000000 -0.923878
vn -0.382686 0.000000 -0.923878
vn -0.382686 0.000000 -0.923878
vn -0.382686 0.000000 -0.923878
vn -0.195075 0.000000 -0.980788
vn -0.195075 0.000000 -0.980788
vn 0.000000 -1.000000 0.000000
vn 0.000000 -1.000000 0.000000
vn 0.000000 -1.000000 0.000000
vn 0.000000 -1.000000 0.000000
vn 0.000000 -1.000000 0.000000
vn 0.000000 -1.000000 0.000000
vn 0.000000 -1.000000 0.000000
vn 0.000000 -1.000000 0.000000
vn 0.000000 -1.000000 0.000000
vn 0.000000 -1.000000 0.000000
vn 0.000000 -1.000000 0.000000
vn 0.000000 -1.000000 0.000000
vn 0.000000 1.000000 -0.000000
vn 0.000000 1.000000 0.000000
vn 0.000000 1.000000 -0.000000
vn 0.000000 1.000000 -0.000000
vn 0.000000 1.000000 0.000000
vn 0.000000 1.000000 0.000000
vn 0.000000 1.000000 0.000000
vn 0.000000 1.000000 0.000000
vn 0.000000 1.000000 0.000000
vn 0.000000 1.000000 0.000000
vn 0.000000 1.000000 0.000000
vn 0.000000 1.000000 0.000000
vn 0.000000 0.000000 1.000000
vn 0.000000 0.000000 1.000000
vn 0.707107 0.000000 0.707107
vn 0.707107 0.000000 0.707107
vn 0.707107 0.000000 0.707107
vn 1.000000 0.000000 0.000000
vn 1.000000 0.000000 0.000000
vn 0.707107 0.000000 0.707107
s off
f 1/16/1 6/2/2 7/4/3 2/3/4
f 2/3/5 7/4/6 8/6/7 3/5/8
f 3/5/9 8/6/10 9/8/11 4/7/12
f 4/7/13 9/8/14 10/10/15 5/9/16
f 2/3/17 11/14/18 1/16/19
f 3/5/20 11/14/21 2/3/22
f 4/7/23 11/14/24 3/5/25
f 5/9/26 11/14/27 4/7/28
f 6/2/29 12/12/30 7/4/31
f 7/4/32 12/12/33 8/6/34
f 8/6/35 12/12/36 9/8/37
f 9/8/38 12/12/39 10/10/40
f 6/15/41 1/1/42 11/11/43 12/13/44
f 11/14/45 5/9/46 10/10/47 12/12/48
