# This file uses centimeters as units for non-parametric coordinates.

v 375.000000 -28.772125 480.234375
v 375.000000 -28.772125 400.001953
v 375.000000 0.000000 483.109375
v 375.000000 0.000000 400.001953
v -108.105469 0.000000 0.001953
v -25.000000 0.000000 0.001953
v -105.230469 -28.772125 0.003906
v -25.000000 -28.772125 0.003906
v 375.000000 21.251068 480.234375
v 375.000000 49.290497 358.931641
v 16.066406 49.290497 0.003906
v -105.230469 21.251068 0.001953
v 375.000000 0.000000 497.451172
v -122.449219 0.000000 0.001953
v 375.000000 21.251068 497.451172
v -122.449219 21.251068 0.001953
v 375.000000 -0.000031 375.005859
v 0.000000 0.000000 0.000000
v 375.000000 0.000000 350.003906
v 25.000000 0.000000 0.001953
v 25.000000 49.290497 0.001953
v 375.000000 49.290497 350.003906
v -39.324219 -93.423645 28.052734
v -18.906250 -93.423645 26.779297
v -87.164063 -28.772095 29.031250
v -18.902344 -28.772095 26.779297
v -94.785156 -28.772095 0.003906
v -26.917969 -28.772125 0.007813
v -45.984375 -93.423645 0.003906
v -25.000000 -93.423645 0.003906
v 6.230469 -93.423645 169.191406
v 15.855469 -93.423645 163.509766
v -43.699219 -28.772095 189.468750
v 15.855469 -28.772095 163.509766
v -55.164063 -28.772095 161.029297
v 5.285156 -28.772095 137.289063
v -5.167969 -93.423645 140.914063
v 5.285156 -93.423645 137.289063
v 99.195313 -93.423645 299.197266
v 107.488281 -93.423645 289.644531
v 60.652344 -28.772095 336.166016
v 107.488281 -28.772095 289.644531
v 38.964844 -28.772095 314.480469
v 87.500000 -28.772095 269.654297
v 77.636719 -93.423645 277.638672
v 87.500000 -93.423645 269.654297
v 234.417969 -93.423645 384.060547
v 238.855469 -93.423645 370.611328
v 215.160156 -28.772095 434.041016
v 238.855469 -28.772095 370.611328
v 186.851563 -28.772095 422.248047
v 212.753906 -28.772095 359.740234
v 206.277344 -93.423645 372.335938
v 212.753906 -93.423645 359.740234
v 375.000000 -93.423645 420.986328
v 375.000000 -93.423645 400.000000
v 375.000000 -28.772095 469.787109
v 375.000000 -28.772125 400.001953
v 344.496094 -28.772095 464.230469
v 347.187500 -28.772095 393.535156
v 345.199219 -93.423645 414.896484
v 347.628906 -93.423645 393.789063
v 37.050781 0.000000 338.080078
v 23.507813 0.000000 351.621094
v 23.507813 21.251068 351.621094
v 39.761719 21.251068 335.367188
v 118.558594 49.290497 256.943359
v 127.054688 49.290497 248.886719
v 127.054688 0.000000 248.886719
v 110.113281 -0.000031 265.830078
v 93.167969 -0.000031 282.773438
v 93.167969 -28.772125 282.773438
v 39.761719 -28.772125 335.367188
v -62.605469 -28.772125 180.554688
v 6.480469 -28.772125 153.037109
v 6.480469 -0.000031 153.037109
v 28.621094 -0.000031 143.863281
v 50.753906 0.000000 134.693359
v 50.753906 49.290497 134.693359
v 39.207031 49.290497 138.132813
v -62.605469 21.251068 180.554688
v -83.925781 21.251068 189.144531
v -83.925781 0.000000 189.144531
v -66.167969 0.000000 181.990234
v 193.386719 0.000031 445.404297
v 182.832031 0.000031 461.375000
v 182.832031 21.251068 461.375000
v 195.496094 21.251068 442.199219
v 238.417969 49.290497 336.675781
v 241.246094 49.290497 325.189453
v 241.246094 0.000031 325.189453
v 232.078125 -0.000031 347.322266
v 222.910156 -0.000031 369.457031
v 222.910156 -28.772125 369.457031
v 195.496094 -28.772125 442.199219
vt 0.486934 0.200731
vt 0.487142 0.200721
vt 0.487141 0.200644
vt 0.486932 0.200652
vt 0.487932 0.200834
vt 0.487602 0.200859
vt 0.487927 0.200966
vt 0.487599 0.200998
vt 1.649392 0.125527
vt 1.649951 0.124872
vt 1.653370 0.125392
vt 1.653080 0.126334
vt 1.649408 0.125679
vt 1.649781 0.125497
vt 1.649988 0.125397
vt 1.653286 0.126045
vt 1.653206 0.126213
vt 1.653057 0.126527
vt 1.653021 0.126603
vt 1.649321 0.125722
vt 1.649304 0.125568
vt 1.653044 0.126407
vt 1.649988 0.125397
vt 1.653286 0.126045
vt 1.653370 0.125392
vt 1.649951 0.124872
vt 2.000000 0.463633
vt 2.000000 0.671910
vt 1.000000 0.671910
vt 1.000000 0.463633
vt 2.000000 0.434068
vt 1.000000 0.434067
vt 2.000000 0.687246
vt 1.000000 0.687247
vt 0.487154 0.179774
vt 0.487199 0.179797
vt 0.487172 0.179565
vt 0.487028 0.179511
vt 0.486951 0.179537
vt 0.487095 0.179597
vt 0.487127 0.179839
vt 0.487083 0.179814
vt 0.487449 0.179613
vt 0.487491 0.179628
vt 0.487485 0.179436
vt 0.487347 0.179402
vt 0.487298 0.179419
vt 0.487437 0.179456
vt 0.487446 0.179654
vt 0.487404 0.179638
vt 0.487661 0.179497
vt 0.487699 0.179507
vt 0.487703 0.179347
vt 0.487576 0.179324
vt 0.487543 0.179335
vt 0.487672 0.179359
vt 0.487670 0.179524
vt 0.487631 0.179513
vt 0.487834 0.179402
vt 0.487867 0.179409
vt 0.487876 0.179275
vt 0.487763 0.179260
vt 0.487741 0.179268
vt 0.487855 0.179284
vt 0.487848 0.179421
vt 0.487813 0.179414
vt 0.487910 0.179360
vt 0.487942 0.179366
vt 0.487951 0.179244
vt 0.487846 0.179232
vt 0.487828 0.179238
vt 0.487935 0.179251
vt 0.487926 0.179375
vt 0.487893 0.179370
vt 0.487267 0.200755
vt 1.496891 0.434067
vt 1.496891 0.463633
vt 1.496891 0.671910
vt 1.496891 0.687247
vt 1.651661 0.125132
vt 1.651637 0.125721
vt 1.651637 0.125721
vt 1.651494 0.125855
vt 0.487536 0.200739
vt 0.487534 0.200843
vt 0.487267 0.200864
vt 0.487433 0.200931
vt 0.487731 0.200905
vt 1.652350 0.126034
vt 0.487734 0.200787
vt 1.652462 0.125883
vt 1.652462 0.125883
vt 1.222113 0.687247
vt 1.652516 0.125262
vt 1.222113 0.671910
vt 1.222113 0.463633
vt 1.222113 0.434067
vt 0.487434 0.200807
vt 0.487066 0.200693
vt 1.770978 0.414130
vt 1.770978 0.434068
vt 1.770978 0.463633
vt 1.770978 0.671910
vt 1.770978 0.687247
vt 1.650635 0.124976
vt 1.650648 0.125526
vt 1.650648 0.125526
vt 1.650466 0.125640
vt 0.487299 0.200682
vt 0.487299 0.200770
vt 0.487067 0.200784
vt 2.000000 0.414130
vt 1.000000 0.414130
vt 1.222113 0.414130
vt 1.496891 0.414130
vt 0.032045 0.064854
vt 0.032142 0.064815
vt 0.032702 0.065662
vt 0.032628 0.065735
vt 0.031914 0.063827
vt 0.031836 0.063827
vt 0.033550 0.066244
vt 0.033493 0.066331
vt 0.034536 0.066449
vt 0.034536 0.066527
vn 1.000000 0.000000 0.000000
vn 1.000000 0.000000 0.000000
vn 1.000000 0.000000 0.000000
vn 1.000000 0.000000 0.000000
vn -0.172721 0.969849 0.171933
vn -0.172808 0.969848 0.171851
vn -0.222063 0.970653 0.092307
vn -0.222059 0.970653 0.092321
vn 0.000000 -0.000068 -1.000000
vn 0.000000 -0.000068 -1.000000
vn 0.000000 -0.000068 -1.000000
vn 0.000000 -0.000068 -1.000000
vn 0.000000 -1.000000 -0.000000
vn 0.000000 -1.000000 -0.000000
vn 0.000000 -1.000000 -0.000000
vn 0.000000 -1.000000 -0.000000
vn 0.707091 0.000000 -0.707123
vn 0.707091 0.000000 -0.707123
vn 0.922675 -0.000003 -0.385580
vn 0.922675 -0.000003 -0.385580
vn -0.911473 -0.123645 0.392339
vn -0.911193 -0.123676 0.392978
vn -0.705905 -0.132742 0.695757
vn -0.705704 -0.132743 0.695961
vn 1.000000 0.000000 0.000000
vn 1.000000 0.000000 0.000000
vn 1.000000 0.000000 0.000000
vn 1.000000 0.000000 0.000000
vn 0.707114 0.000000 -0.707099
vn 0.707114 0.000000 -0.707099
vn 0.925236 0.000000 -0.379391
vn 0.925236 0.000000 -0.379391
vn 0.000006 0.000024 -1.000000
vn 0.000006 0.000024 -1.000000
vn 0.000006 0.000024 -1.000000
vn 0.000006 0.000024 -1.000000
vn -0.923590 0.000000 0.383382
vn -0.923590 0.000000 0.383382
vn -0.714250 0.000000 0.699891
vn -0.714250 0.000000 0.699891
vn 0.000000 -1.000000 0.000000
vn 0.000000 -1.000000 0.000000
vn 0.000000 -1.000000 0.000000
vn 0.000000 -1.000000 0.000000
vn 1.000000 0.000000 0.000000
vn 1.000000 0.000000 0.000000
vn 1.000000 0.000000 0.000000
vn 1.000000 0.000000 0.000000
vn 0.000000 1.000000 0.000000
vn 0.000000 1.000000 0.000000
vn 0.000000 1.000000 0.000000
vn 0.000000 1.000000 0.000000
vn 0.000000 0.000000 -1.000000
vn 0.000000 0.000000 -1.000000
vn 0.000000 0.000000 -1.000000
vn 0.000000 0.000000 -1.000000
vn 0.000000 -1.000000 0.000000
vn 0.000000 -1.000000 0.000000
vn -0.000000 -1.000000 -0.000000
vn -0.000000 -1.000000 -0.000000
vn -0.000078 0.000105 -1.000000
vn -0.000078 0.000105 -1.000000
vn -0.000078 0.000105 -1.000000
vn 1.000000 0.000000 0.000000
vn 1.000000 0.000000 0.000000
vn 1.000000 0.000000 0.000000
vn 0.000001 -1.000000 -0.000001
vn 0.000001 -1.000000 -0.000001
vn 0.000001 -1.000000 -0.000000
vn 0.000001 -1.000000 -0.000000
vn 0.000000 0.000040 -1.000000
vn 0.000000 0.000040 -1.000000
vn 0.000000 0.000040 -1.000000
vn 0.000000 0.000040 -1.000000
vn 0.000000 1.000000 -0.000000
vn 0.000000 1.000000 -0.000000
vn 0.000000 1.000000 0.000000
vn 0.000000 1.000000 0.000000
vn 1.000000 0.000000 0.000000
vn 1.000000 0.000000 0.000000
vn 1.000000 0.000000 0.000000
vn 1.000000 0.000000 0.000000
vn 0.039722 0.007134 0.999185
vn 0.039722 0.007134 0.999185
vn 0.039722 0.007134 0.999185
vn 0.039722 0.007134 0.999185
vn 0.000044 0.000047 -1.000000
vn 0.000044 0.000047 -1.000000
vn 0.000044 0.000047 -1.000000
vn 0.000044 0.000047 -1.000000
vn 0.000000 -1.000000 -0.000000
vn 0.000000 -1.000000 -0.000000
vn 0.000000 -1.000000 -0.000000
vn 0.000000 -1.000000 -0.000000
vn -0.784696 -0.587964 0.196342
vn -0.784696 -0.587964 0.196342
vn -0.784696 -0.587964 0.196342
vn -0.784696 -0.587964 0.196342
vn 0.415862 0.017994 0.909250
vn 0.415862 0.017994 0.909250
vn 0.415862 0.017994 0.909250
vn 0.415862 0.017994 0.909250
vn -0.360062 0.005908 -0.932910
vn -0.360062 0.005908 -0.932910
vn -0.360062 0.005908 -0.932910
vn -0.360062 0.005908 -0.932910
vn 0.000000 -1.000000 0.000000
vn 0.000000 -1.000000 0.000000
vn 0.000000 -1.000000 0.000000
vn 0.000000 -1.000000 0.000000
vn -0.712432 -0.640283 0.287190
vn -0.712432 -0.640283 0.287190
vn -0.712432 -0.640283 0.287190
vn -0.712432 -0.640283 0.287190
vn 0.713040 0.012118 0.701019
vn 0.713040 0.012118 0.701019
vn 0.713040 0.012118 0.701019
vn 0.713040 0.012118 0.701019
vn -0.670692 0.010728 -0.741658
vn -0.670692 0.010728 -0.741658
vn -0.670692 0.010728 -0.741658
vn -0.670692 0.010728 -0.741658
vn 0.000000 -1.000000 0.000000
vn 0.000000 -1.000000 0.000000
vn 0.000000 -1.000000 0.000000
vn 0.000000 -1.000000 0.000000
vn -0.545191 -0.636794 0.545215
vn -0.545191 -0.636794 0.545215
vn -0.545191 -0.636794 0.545215
vn -0.545191 -0.636794 0.545215
vn 0.939075 0.007031 0.343642
vn 0.939075 0.007031 0.343642
vn 0.939075 0.007031 0.343642
vn 0.939075 0.007031 0.343642
vn -0.918193 0.014859 -0.395855
vn -0.918193 0.014859 -0.395855
vn -0.918193 0.014859 -0.395855
vn -0.918193 0.014859 -0.395855
vn 0.000000 -1.000000 0.000001
vn 0.000000 -1.000000 0.000001
vn 0.000000 -1.000000 0.000001
vn 0.000000 -1.000000 0.000001
vn -0.296187 -0.637842 0.710937
vn -0.296187 -0.637842 0.710937
vn -0.296187 -0.637842 0.710937
vn -0.296187 -0.637842 0.710937
vn 1.000000 0.000000 0.000000
vn 1.000000 0.000000 0.000000
vn 1.000000 0.000000 0.000000
vn 1.000000 0.000000 0.000000
vn -0.998372 0.012302 -0.055693
vn -0.998372 0.012302 -0.055693
vn -0.998372 0.012302 -0.055693
vn -0.998372 0.012302 -0.055693
vn 0.000000 -1.000000 0.000000
vn 0.000000 -1.000000 0.000000
vn 0.000000 -1.000000 0.000000
vn 0.000000 -1.000000 0.000000
vn -0.151974 -0.598056 0.786914
vn -0.151974 -0.598056 0.786914
vn -0.151974 -0.598056 0.786914
vn -0.151974 -0.598056 0.786914
vn 0.000000 -1.000000 0.000000
vn 0.000000 -1.000000 0.000000
vn -0.000000 -1.000000 0.000000
vn 0.000000 -1.000000 0.000000
vn -0.714250 0.000000 0.699891
vn -0.714250 0.000000 0.699891
vn -0.383216 0.000000 0.923659
vn -0.383216 0.000000 0.923659
vn 0.000000 1.000000 -0.000000
vn 0.000000 1.000000 -0.000000
vn 0.000000 1.000000 0.000000
vn 0.000000 1.000000 0.000000
vn -0.090456 0.971641 0.218476
vn -0.090765 0.971633 0.218385
vn -0.172808 0.969848 0.171851
vn -0.172721 0.969849 0.171933
vn 0.000000 1.000000 0.000000
vn 0.000000 1.000000 0.000000
vn 0.000000 1.000000 0.000000
vn 0.000000 1.000000 0.000000
vn 0.377625 0.000000 -0.925959
vn 0.377625 0.000000 -0.925959
vn 0.707114 0.000000 -0.707099
vn 0.707114 0.000000 -0.707099
vn 0.000001 -1.000000 -0.000002
vn 0.000001 -1.000000 -0.000002
vn 0.000001 -1.000000 -0.000001
vn 0.000001 -1.000000 -0.000001
vn -0.000000 -1.000000 0.000000
vn -0.000000 -1.000000 0.000000
vn 0.000000 -1.000000 0.000000
vn 0.000000 -1.000000 0.000000
vn 0.384053 0.000000 -0.923311
vn 0.384053 0.000000 -0.923311
vn 0.707091 0.000000 -0.707123
vn 0.707091 0.000000 -0.707123
vn 0.000000 -1.000000 -0.000000
vn 0.000000 -1.000000 -0.000000
vn 0.000000 -1.000000 0.000000
vn 0.000000 -1.000000 0.000000
vn -0.705704 -0.132743 0.695961
vn -0.705905 -0.132742 0.695757
vn -0.389904 -0.123011 0.912602
vn -0.395218 -0.123319 0.910272
vn 0.000000 -1.000000 0.000000
vn 0.000000 -1.000000 0.000000
vn 0.000000 -1.000000 -0.000000
vn 0.000000 -1.000000 -0.000000
vn 0.922675 -0.000003 -0.385580
vn 0.922675 -0.000003 -0.385580
vn 0.979491 -0.000007 -0.201490
vn 0.979491 -0.000007 -0.201490
vn -0.000000 -1.000000 -0.000000
vn -0.000000 -1.000000 -0.000000
vn -0.000000 -1.000000 -0.000000
vn -0.000000 -1.000000 -0.000000
vn 0.000001 -1.000000 -0.000000
vn 0.000001 -1.000000 -0.000000
vn 0.000001 -1.000000 -0.000000
vn 0.000001 -1.000000 -0.000000
vn 0.925236 0.000000 -0.379391
vn 0.925236 0.000000 -0.379391
vn 0.982206 0.000000 -0.187804
vn 0.982206 0.000000 -0.187804
vn 0.000000 1.000000 -0.000000
vn 0.000000 1.000000 -0.000000
vn 0.000000 1.000000 -0.000000
vn 0.000000 1.000000 -0.000000
vn -0.222059 0.970653 0.092321
vn -0.222063 0.970653 0.092307
vn -0.234807 0.970833 0.048457
vn -0.234807 0.970833 0.048457
vn 0.000000 1.000000 0.000000
vn 0.000000 1.000000 0.000000
vn 0.000000 1.000000 0.000000
vn 0.000000 1.000000 0.000000
vn -0.979882 0.000000 0.199577
vn -0.923590 0.000000 0.383382
vn -0.923590 0.000000 0.383382
vn -0.979882 0.000000 0.199577
vn 0.000000 -1.000000 0.000000
vn 0.000000 -1.000000 0.000000
vn 0.000000 -1.000000 0.000000
vn 0.000000 -1.000000 0.000000
vn -0.967526 -0.113860 0.225676
vn -0.911193 -0.123676 0.392978
vn -0.911473 -0.123645 0.392339
vn -0.967526 -0.113860 0.225676
vn 0.000000 -1.000000 0.000000
vn -0.000000 -1.000000 0.000000
vn -0.000000 -1.000000 -0.000000
vn -0.000000 -1.000000 -0.000000
vn -0.383216 0.000000 0.923659
vn -0.383216 0.000000 0.923659
vn -0.184509 0.000000 0.982831
vn -0.184509 0.000000 0.982831
vn 0.000000 1.000000 -0.000000
vn 0.000000 1.000000 -0.000000
vn 0.000000 1.000000 -0.000000
vn 0.000000 1.000000 -0.000000
vn -0.044229 0.971739 0.231876
vn -0.044229 0.971739 0.231876
vn -0.090765 0.971633 0.218385
vn -0.090456 0.971641 0.218476
vn 0.000000 1.000000 0.000000
vn 0.000000 1.000000 0.000000
vn 0.000000 1.000000 0.000000
vn 0.000000 1.000000 0.000000
vn 0.182411 0.000000 -0.983222
vn 0.377625 0.000000 -0.925959
vn 0.377625 0.000000 -0.925959
vn 0.182411 0.000000 -0.983222
vn 0.000000 -1.000000 -0.000002
vn 0.000001 -1.000000 -0.000002
vn 0.000001 -1.000000 -0.000002
vn 0.000000 -1.000000 -0.000002
vn -0.000000 -1.000000 0.000001
vn -0.000000 -1.000000 0.000000
vn -0.000000 -1.000000 0.000000
vn -0.000000 -1.000000 0.000001
vn 0.196903 0.000000 -0.980423
vn 0.384053 0.000000 -0.923311
vn 0.384053 0.000000 -0.923311
vn 0.196903 0.000000 -0.980423
vn 0.000000 -1.000000 0.000000
vn 0.000000 -1.000000 0.000000
vn 0.000000 -1.000000 0.000000
vn 0.000000 -1.000000 0.000000
vn -0.395218 -0.123319 0.910272
vn -0.389904 -0.123011 0.912602
vn -0.204021 -0.110257 0.972738
vn -0.204021 -0.110257 0.972738
s off
f 1/1/1 2/2/2 4/3/3 3/4/4
f 66/77/5 67/78/6 80/95/7 81/96/8
f 5/6/9 6/5/10 8/7/11 7/8/12
f 74/87/13 75/88/14 72/85/15 73/86/16
f 71/84/17 72/85/18 75/88/19 76/90/20
f 84/98/21 74/87/22 73/86/23 63/75/24
f 3/13/25 4/14/26 10/10/27 9/9/28
f 68/80/29 69/81/30 78/92/31 79/94/32
f 6/17/33 5/18/34 12/12/35 11/11/36
f 82/97/37 83/114/38 64/115/39 65/76/40
f 83/116/41 84/117/42 63/118/43 64/119/44
f 3/13/45 9/9/46 15/21/47 13/20/48
f 65/76/49 66/77/50 81/96/51 82/97/52
f 12/12/53 5/18/54 14/19/55 16/22/56
f 70/82/57 71/83/58 76/89/59 77/91/60
f 6/17/61 11/11/62 18/16/63
f 10/10/64 4/14/65 17/15/66
f 69/81/67 70/82/68 77/91/69 78/92/70
f 18/16/71 11/11/72 21/25/73 20/24/74
f 79/93/75 80/95/76 67/78/77 68/79/78
f 10/10/79 17/15/80 19/23/81 22/26/82
f 23/35/83 24/36/84 26/37/85 25/38/86
f 27/39/87 28/40/88 30/41/89 29/42/90
f 29/42/91 30/41/92 24/36/93 23/35/94
f 29/42/95 23/35/96 25/38/97 27/39/98
f 31/43/99 32/44/100 34/45/101 33/46/102
f 35/47/103 36/48/104 38/49/105 37/50/106
f 37/50/107 38/49/108 32/44/109 31/43/110
f 37/50/111 31/43/112 33/46/113 35/47/114
f 39/51/115 40/52/116 42/53/117 41/54/118
f 43/55/119 44/56/120 46/57/121 45/58/122
f 45/58/123 46/57/124 40/52/125 39/51/126
f 45/58/127 39/51/128 41/54/129 43/55/130
f 47/59/131 48/60/132 50/61/133 49/62/134
f 51/63/135 52/64/136 54/65/137 53/66/138
f 53/66/139 54/65/140 48/60/141 47/59/142
f 53/66/143 47/59/144 49/62/145 51/63/146
f 55/67/147 56/68/148 58/69/149 57/70/150
f 59/71/151 60/72/152 62/73/153 61/74/154
f 61/74/155 62/73/156 56/68/157 55/67/158
f 61/74/159 55/67/160 57/70/161 59/71/162
f 64/119/163 63/118/164 85/122/165 86/123/166
f 65/76/167 64/115/168 86/100/169 87/101/170
f 87/101/171 88/102/172 66/77/173 65/76/174
f 88/102/175 89/103/176 67/78/177 66/77/178
f 68/79/179 67/78/180 89/103/181 90/104/182
f 90/105/183 91/106/184 69/81/185 68/80/186
f 91/106/187 92/107/188 70/82/189 69/81/190
f 92/107/191 93/108/192 71/83/193 70/82/194
f 93/109/195 94/110/196 72/85/197 71/84/198
f 73/86/199 72/85/200 94/110/201 95/111/202
f 63/75/203 73/86/204 95/111/205 85/99/206
f 7/8/207 8/7/208 75/88/209 74/87/210
f 76/90/211 75/88/212 8/7/213 6/5/214
f 77/91/215 76/89/216 6/17/217 18/16/218
f 78/92/219 77/91/220 18/16/221 20/24/222
f 79/94/223 78/92/224 20/24/225 21/25/226
f 11/29/227 80/95/228 79/93/229 21/34/230
f 81/96/231 80/95/232 11/29/233 12/30/234
f 82/97/235 81/96/236 12/30/237 16/32/238
f 14/113/239 83/114/240 82/97/241 16/32/242
f 5/120/243 84/117/244 83/116/245 14/121/246
f 7/8/247 74/87/248 84/98/249 5/6/250
f 86/123/251 85/122/252 3/124/253 13/125/254
f 87/101/255 86/100/256 13/112/257 15/31/258
f 9/27/259 88/102/260 87/101/261 15/31/262
f 9/27/263 10/28/264 89/103/265 88/102/266
f 90/104/267 89/103/268 10/28/269 22/33/270
f 19/23/271 91/106/272 90/105/273 22/26/274
f 17/15/275 92/107/276 91/106/277 19/23/278
f 4/14/279 93/108/280 92/107/281 17/15/282
f 2/2/283 94/110/284 93/109/285 4/3/286
f 95/111/287 94/110/288 2/2/289 1/1/290
f 85/99/291 95/111/292 1/1/293 3/4/294
