# This file uses centimeters as units for non-parametric coordinates.

v -274.997070 0.000000 275.000000
v 274.999023 0.000000 274.998047
v -274.997070 500.000000 275.000000
v 274.999023 500.000000 274.998047
v -274.999023 0.000000 -274.998047
v -274.999023 500.000000 -274.998047
vt 0.006855 1.009778
vt 0.990072 1.009778
vt 0.990072 1.992996
vt 0.006855 1.992996
vt 0.006855 1.009778
vt 0.990072 1.009778
vt 0.990072 1.992996
vt 0.006855 1.992996
vt 0.006855 1.009778
vt 0.990072 1.009778
vt 0.990072 1.992996
vt 0.006855 1.992996
vt 0.991957 1.009064
vt 0.007419 1.993594
vt 0.007422 1.009060
vt 0.991957 1.009064
vt 0.007422 1.009060
vt 0.007419 1.993594
vn 0.000004 0.000000 1.000000
vn 0.000004 0.000000 1.000000
vn 0.000004 0.000000 1.000000
vn 0.000004 0.000000 1.000000
vn -1.000000 0.000000 0.000004
vn -1.000000 0.000000 0.000004
vn -1.000000 0.000000 0.000004
vn -1.000000 0.000000 0.000004
vn 0.707106 0.000000 -0.707108
vn 0.707106 0.000000 -0.707108
vn 0.707106 0.000000 -0.707108
vn 0.707106 0.000000 -0.707108
vn 0.000000 1.000000 0.000000
vn 0.000000 1.000000 0.000000
vn 0.000000 1.000000 0.000000
vn 0.000000 -1.000000 0.000000
vn 0.000000 -1.000000 0.000000
vn 0.000000 -1.000000 0.000000
s off
f 1/1/1 2/2/2 4/3/3 3/4/4
f 5/5/5 1/6/6 3/7/7 6/8/8
f 2/9/9 5/10/10 6/11/11 4/12/12
f 4/13/13 6/14/14 3/15/15
f 2/16/16 1/17/17 5/18/18
