# This file uses centimeters as units for non-parametric coordinates.

v 208.471680 174.653519 -25.000000
v 263.758789 54.248959 18.435547
v 263.758789 141.966797 18.435547
v 263.559570 54.248959 25.000000
v 263.559570 142.281296 25.000000
v 236.239258 154.808228 18.435547
v 211.444336 154.808212 18.435547
v 288.553711 154.808243 18.435547
v 263.757813 154.808228 18.435547
v 291.527344 242.525909 -25.000000
v 291.527344 174.653519 -25.000000
v 263.757813 242.525925 18.435547
v 250.000000 0.000000 -25.000000
v 250.000000 0.000000 0.000000
v -0.000977 0.000000 0.000000
v -0.000977 0.000000 -25.000000
v 250.000000 0.000000 25.000000
v -0.000977 0.000000 25.000000
v -0.000977 500.000000 0.000000
v -0.000977 500.000000 -25.000000
v -0.000977 500.000000 25.000000
v 208.471680 54.248959 -25.000000
v 208.471680 122.121506 -25.000000
v 236.239258 141.966797 18.435547
v 236.239258 54.248959 18.435547
v 171.074219 122.121506 -25.000000
v 211.444336 141.966797 18.435547
v 171.074219 174.653519 -25.000000
v 236.438477 54.248959 25.000000
v 236.438477 142.281296 25.000000
v 500.000000 0.000000 -25.000000
v 500.000000 0.000000 0.000000
v 291.527344 54.248959 -25.000000
v 291.527344 122.121506 -25.000000
v 212.083984 154.493713 25.000000
v 212.083984 142.281296 25.000000
v 500.000000 0.000000 25.000000
v 236.438477 154.493729 25.000000
v 328.923828 174.653519 -25.000000
v 328.923828 122.121506 -25.000000
v 288.553711 141.966797 18.435547
v 287.914063 142.281296 25.000000
v 287.914063 154.493744 25.000000
v 263.559570 242.525909 25.000000
v 263.559570 154.493729 25.000000
v 250.000000 500.000000 0.000000
v 250.000000 500.000000 -25.000000
v 250.000000 500.000000 25.000000
v 500.000000 500.000000 0.000000
v 500.000000 500.000000 -25.000000
v 500.000000 500.000000 25.000000
v 250.000000 54.248959 -25.000000
v 250.000000 54.248959 25.000000
v 208.471680 242.525909 -25.000000
v 236.239258 242.525925 18.435547
v 236.438477 242.525909 25.000000
v 250.000000 242.525909 -25.000000
v 250.000000 242.525909 25.000000
vt 0.017669 0.031246
vt 0.017549 0.031424
vt 0.017664 0.031374
vt 0.017549 0.031424
vt 0.017663 0.031374
vt 0.017644 0.031284
vt 0.017435 0.031007
vt 0.017548 0.031425
vt 0.017500 0.031246
vt 0.017465 0.030993
vt 0.017529 0.031232
vt 0.017437 0.031006
vt 0.017335 0.031136
vt 0.017315 0.031127
vt 0.017212 0.031290
vt 0.017234 0.031301
vt 0.017295 0.031118
vt 0.017191 0.031279
vt 0.017252 0.030942
vt 0.017281 0.030954
vt 0.017223 0.030931
vt 0.017420 0.030999
vt 0.017401 0.030991
vt 0.017383 0.030984
vt 0.017881 0.031638
vt 0.017842 0.031398
vt 0.017812 0.031412
vt 0.017857 0.031655
vt 0.017812 0.031212
vt 0.017779 0.031230
vt 0.017467 0.030992
vt 0.017856 0.031655
vt 0.017812 0.031412
vt 0.017382 0.030771
vt 0.017408 0.030781
vt 0.017574 0.031410
vt 0.017701 0.031399
vt 0.017434 0.031007
vt 0.017778 0.031231
vt 0.017355 0.030762
vt 0.017644 0.031286
vt 0.017575 0.031409
vt 0.017883 0.031637
vt 0.017855 0.031656
vt 0.017854 0.031656
vt 0.017547 0.031425
vt 0.017437 0.031006
vt 0.017500 0.031247
vt 0.017484 0.030637
vt 0.017508 0.030644
vt 0.017460 0.030630
vt 0.006855 1.992996
vt 0.006855 1.009778
vt 0.416801 1.116455
vt 0.416801 1.249923
vt 0.343262 1.249923
vt 0.989372 1.009674
vt 0.989372 1.992709
vt 0.343262 1.353223
vt 0.416801 1.353223
vt 0.416801 1.486690
vt 0.990072 1.992996
vt 0.990072 1.009778
vt 0.017728 0.031524
vt 0.017703 0.031539
vt 0.017810 0.031213
vt 0.017781 0.031229
vt 0.017780 0.031229
vt 0.017638 0.031103
vt 0.017608 0.031118
vt 0.006855 1.009778
vt 0.498463 1.009778
vt 0.498463 1.116455
vt 0.471795 1.116455
vt 0.471796 1.289565
vt 0.423904 1.289565
vt 0.423905 1.313580
vt 0.471796 1.313580
vt 0.471796 1.486690
vt 0.498463 1.486690
vt 0.498463 1.992996
vt 0.006855 1.992996
vt 0.498463 1.009778
vt 0.498463 1.116455
vt 0.580124 1.116455
vt 0.580124 1.249923
vt 0.653518 1.249891
vt 0.653521 1.353189
vt 0.580124 1.353223
vt 0.580124 1.486690
vt 0.498463 1.486690
vt 0.498463 1.992996
vt 0.525127 1.486690
vt 0.525128 1.313580
vt 0.573019 1.313580
vt 0.573019 1.289566
vt 0.525128 1.289565
vt 0.525128 1.116455
vn 0.000000 -0.909561 -0.415570
vn 0.000000 -0.909561 -0.415570
vn 0.000000 -0.909561 -0.415570
vn 0.000000 -0.909561 -0.415570
vn -0.842537 0.000000 -0.538638
vn -0.842537 0.000000 -0.538638
vn -0.842537 0.000000 -0.538638
vn -0.842537 0.000000 -0.538638
vn -0.999540 0.000000 -0.030334
vn -0.999540 0.000000 -0.030334
vn -0.999540 0.000000 -0.030334
vn -0.999540 0.000000 -0.030334
vn 0.000001 -0.998854 -0.047857
vn 0.000001 -0.998854 -0.047857
vn 0.000001 -0.998854 -0.047857
vn 0.000001 -0.998854 -0.047857
vn 0.000000 -0.909561 -0.415570
vn 0.000000 -0.909561 -0.415570
vn 0.000000 -0.909561 -0.415570
vn 0.000000 -0.909561 -0.415570
vn -0.842529 0.000000 -0.538652
vn -0.842529 0.000000 -0.538652
vn -0.842529 0.000000 -0.538652
vn -0.842529 0.000000 -0.538652
vn -0.999544 0.000000 -0.030186
vn -0.999544 0.000000 -0.030186
vn -0.999544 0.000000 -0.030186
vn -0.999544 0.000000 -0.030186
vn 0.000000 -1.000000 0.000000
vn 0.000000 -1.000000 0.000000
vn 0.000000 -1.000000 0.000000
vn 0.000000 -1.000000 0.000000
vn 0.000000 -1.000000 0.000000
vn 0.000000 -1.000000 0.000000
vn 0.000000 -1.000000 0.000000
vn 0.000000 -1.000000 0.000000
vn -1.000000 0.000000 0.000000
vn -1.000000 0.000000 0.000000
vn -1.000000 0.000000 0.000000
vn -1.000000 0.000000 0.000000
vn -1.000000 0.000000 0.000000
vn -1.000000 0.000000 0.000000
vn -1.000000 0.000000 0.000000
vn -1.000000 0.000000 0.000000
vn 0.842546 0.000000 -0.538625
vn 0.842546 0.000000 -0.538625
vn 0.842546 0.000000 -0.538625
vn 0.842546 0.000000 -0.538625
vn 0.000000 0.909561 -0.415570
vn 0.000000 0.909561 -0.415570
vn 0.000000 0.909561 -0.415570
vn 0.000000 0.909561 -0.415570
vn 0.732482 0.000000 -0.680787
vn 0.732481 0.000000 -0.680787
vn 0.732482 0.000000 -0.680787
vn 0.732481 0.000000 -0.680787
vn 0.999540 0.000000 -0.030334
vn 0.999540 0.000000 -0.030334
vn 0.999540 0.000000 -0.030334
vn 0.999540 0.000000 -0.030334
vn 0.000000 -1.000000 0.000000
vn 0.000000 -1.000000 0.000000
vn 0.000000 -1.000000 0.000000
vn 0.000000 -1.000000 0.000000
vn 0.995286 0.000000 -0.096982
vn 0.995286 0.000000 -0.096982
vn 0.995286 0.000000 -0.096982
vn 0.995286 0.000000 -0.096982
vn 0.000000 -1.000000 0.000000
vn 0.000000 -1.000000 0.000000
vn 0.000000 -1.000000 0.000000
vn 0.000000 -1.000000 0.000000
vn 0.000000 0.998854 -0.047855
vn 0.000000 0.998854 -0.047855
vn 0.000000 0.998854 -0.047855
vn 0.000000 0.998854 -0.047855
vn -0.732481 0.000000 -0.680787
vn -0.732481 0.000000 -0.680787
vn -0.732481 0.000000 -0.680787
vn -0.732481 0.000000 -0.680787
vn -0.995286 0.000000 -0.096982
vn -0.995286 0.000000 -0.096982
vn -0.995286 0.000000 -0.096982
vn -0.995286 0.000000 -0.096982
vn 0.000000 1.000000 0.000000
vn 0.000000 1.000000 0.000000
vn 0.000000 1.000000 0.000000
vn 0.000000 1.000000 0.000000
vn 0.000000 1.000000 0.000000
vn 0.000000 1.000000 0.000000
vn 0.000000 1.000000 0.000000
vn 0.000000 1.000000 0.000000
vn 1.000000 0.000000 0.000000
vn 1.000000 0.000000 0.000000
vn 1.000000 0.000000 0.000000
vn 1.000000 0.000000 0.000000
vn 1.000000 0.000000 0.000000
vn 1.000000 0.000000 0.000000
vn 1.000000 0.000000 0.000000
vn 1.000000 0.000000 0.000000
vn 0.000000 1.000000 0.000000
vn 0.000000 1.000000 0.000000
vn 0.000000 1.000000 0.000000
vn 0.000000 1.000000 0.000000
vn 0.000000 1.000000 0.000000
vn 0.000000 1.000000 0.000000
vn 0.000000 1.000000 0.000000
vn 0.000000 1.000000 0.000000
vn 0.000000 1.000000 0.000000
vn 0.000000 1.000000 0.000000
vn 0.000000 1.000000 0.000000
vn 0.000000 1.000000 0.000000
vn 0.000000 1.000000 0.000000
vn 0.000000 1.000000 -0.000001
vn 0.000000 1.000000 -0.000001
vn 0.000000 1.000000 -0.000001
vn 0.000000 1.000000 -0.000001
vn 0.000000 1.000000 -0.000001
vn 0.842546 0.000000 -0.538625
vn 0.842546 0.000000 -0.538625
vn 0.842546 0.000000 -0.538625
vn 0.842546 0.000000 -0.538625
vn 0.000000 0.909561 -0.415570
vn 0.000000 0.909561 -0.415570
vn 0.000000 0.909561 -0.415570
vn 0.000000 0.909561 -0.415570
vn 0.000000 0.998854 -0.047855
vn 0.000000 0.998854 -0.047855
vn 0.000000 0.998854 -0.047855
vn 0.000000 0.998854 -0.047855
vn 0.999540 0.000000 -0.030334
vn 0.999540 0.000000 -0.030334
vn 0.999540 0.000000 -0.030334
vn 0.999540 0.000000 -0.030334
vn 0.000001 -0.998854 -0.047852
vn 0.000001 -0.998854 -0.047852
vn 0.000001 -0.998854 -0.047852
vn 0.000001 -0.998854 -0.047852
vn 0.000000 -1.000000 0.000000
vn 0.000000 -1.000000 0.000000
vn 0.000000 -1.000000 0.000000
vn 0.000000 -1.000000 0.000000
vn 0.000000 -1.000000 0.000000
vn 0.000000 -1.000000 -0.000001
vn 0.000000 -1.000000 -0.000001
vn 0.000000 -1.000000 -0.000001
vn 0.000000 -1.000000 -0.000001
vn 0.000000 -1.000000 -0.000001
vn 0.000000 0.000000 1.000000
vn 0.000000 0.000000 1.000000
vn 0.000000 0.000000 1.000000
vn -0.000000 0.000000 -1.000000
vn -0.000000 0.000000 -1.000000
vn -0.000000 0.000000 -1.000000
vn -0.000000 0.000000 1.000000
vn -0.000000 0.000000 1.000000
vn -0.000000 0.000000 1.000000
vn 0.000000 0.000000 -1.000000
vn 0.000000 0.000000 -1.000000
vn 0.000000 0.000000 -1.000000
vn 0.000000 0.000000 1.000000
vn 0.000000 0.000000 1.000000
vn 0.000000 0.000000 1.000000
vn 0.000000 0.000000 1.000000
vn 0.000000 0.000000 1.000000
vn 0.000000 0.000000 1.000000
vn 0.000000 0.000000 1.000000
vn 0.000000 0.000000 1.000000
vn 0.000000 0.000000 1.000000
vn 0.000000 0.000000 1.000000
vn 0.000000 0.000000 1.000000
vn 0.000000 0.000000 1.000000
vn 0.000000 0.000000 1.000000
vn 0.000000 0.000000 1.000000
vn 0.000000 0.000000 1.000000
vn 0.000000 0.000000 1.000000
vn 0.000000 0.000000 1.000000
vn 0.000000 0.000000 1.000000
vn 0.000000 0.000000 1.000000
vn 0.000000 0.000000 1.000000
vn 0.000000 0.000000 1.000000
vn 0.000000 0.000000 1.000000
vn 0.000000 0.000000 1.000000
vn 0.000000 0.000000 1.000000
vn 0.000000 0.000000 1.000000
vn 0.000000 0.000000 1.000000
vn 0.000000 0.000000 1.000000
vn 0.000000 0.000000 1.000000
vn 0.000000 0.000000 1.000000
vn 0.000000 0.000000 1.000000
vn 0.000000 0.000000 1.000000
vn 0.000000 0.000000 1.000000
vn -0.000000 0.000000 1.000000
vn -0.000000 0.000000 1.000000
vn -0.000000 0.000000 1.000000
vn 0.000000 0.000000 1.000000
vn 0.000000 0.000000 1.000000
vn 0.000000 0.000000 1.000000
vn 0.000000 0.000000 1.000000
vn 0.000000 0.000000 1.000000
vn 0.000000 0.000000 1.000000
vn 0.000000 0.000000 1.000000
vn 0.000000 0.000000 -1.000000
vn 0.000000 0.000000 -1.000000
vn 0.000000 0.000000 -1.000000
vn 0.000000 0.000000 -1.000000
vn 0.000000 0.000000 -1.000000
vn 0.000000 0.000000 -1.000000
vn 0.000000 0.000000 -1.000000
vn 0.000000 0.000000 -1.000000
vn 0.000000 0.000000 -1.000000
vn 0.000000 0.000000 -1.000000
vn 0.000000 0.000000 -1.000000
vn 0.000000 0.000000 -1.000000
vn 0.000000 0.000000 -1.000000
vn 0.000000 0.000000 -1.000000
vn 0.000000 0.000000 -1.000000
vn 0.000000 0.000000 -1.000000
vn 0.000000 0.000000 -1.000000
vn 0.000000 0.000000 -1.000000
vn 0.000000 0.000000 -1.000000
vn 0.000000 0.000000 -1.000000
vn 0.000000 0.000000 -1.000000
vn 0.000000 0.000000 -1.000000
vn 0.000000 0.000000 -1.000000
vn 0.000000 0.000000 -1.000000
vn 0.000000 0.000000 -1.000000
vn 0.000000 0.000000 -1.000000
vn 0.000000 0.000000 -1.000000
vn 0.000000 0.000000 -1.000000
vn 0.000000 0.000000 -1.000000
vn 0.000000 0.000000 -1.000000
vn 0.000000 0.000000 -1.000000
vn 0.000000 0.000000 -1.000000
vn 0.000000 0.000000 -1.000000
vn 0.000000 0.000000 -1.000000
vn 0.000000 0.000000 -1.000000
vn 0.000000 0.000000 -1.000000
vn 0.000000 0.000000 -1.000000
vn 0.000000 0.000000 -1.000000
vn 0.000000 0.000000 -1.000000
vn 0.000000 0.000000 -1.000000
vn 0.000000 0.000000 -1.000000
vn 0.000000 0.000000 -1.000000
s off
f 1/1/1 6/6/2 7/7/3 28/31/4
f 2/2/5 3/3/6 34/37/7 33/36/8
f 4/4/9 5/5/10 3/3/11 2/2/12
f 7/7/13 6/6/14 38/41/15 35/38/16
f 8/8/17 9/9/18 11/11/19 39/42/20
f 10/10/21 11/11/22 9/9/23 12/12/24
f 12/12/25 9/9/26 45/48/27 44/47/28
f 13/13/29 14/14/30 15/15/31 16/16/32
f 14/14/33 17/17/34 18/18/35 15/15/36
f 16/16/37 15/15/38 19/19/39 20/20/40
f 19/19/41 15/15/42 18/18/43 21/21/44
f 22/25/45 23/26/46 24/27/47 25/28/48
f 24/27/49 23/26/50 26/29/51 27/30/52
f 26/29/53 28/31/54 7/7/55 27/30/56
f 29/32/57 25/28/58 24/27/59 30/33/60
f 31/22/61 32/23/62 14/14/63 13/13/64
f 35/38/65 36/39/66 27/30/67 7/7/68
f 32/23/69 37/24/70 17/17/71 14/14/72
f 36/39/73 30/33/74 24/27/75 27/30/76
f 39/42/77 40/43/78 41/44/79 8/8/80
f 42/45/81 43/46/82 8/8/83 41/44/84
f 46/34/85 47/35/86 20/20/87 19/19/88
f 48/40/89 46/34/90 19/19/91 21/21/92
f 49/49/93 32/23/94 31/22/95 50/50/96
f 37/24/97 32/23/98 49/49/99 51/51/100
f 49/49/101 50/50/102 47/35/103 46/34/104
f 51/51/105 49/49/106 46/34/107 48/40/108
f 33/36/109 52/64/110 22/25/111 25/28/112 2/2/113
f 25/28/114 29/32/115 53/65/116 4/4/117 2/2/118
f 1/1/119 54/66/120 55/67/121 6/6/122
f 41/44/123 40/43/124 34/37/125 3/3/126
f 3/3/127 5/5/128 42/45/129 41/44/130
f 6/6/131 55/67/132 56/68/133 38/41/134
f 8/8/135 43/46/136 45/48/137 9/9/138
f 55/67/139 54/66/140 57/69/141 10/10/142 12/12/143
f 44/47/144 58/70/145 56/68/146 55/67/147 12/12/148
f 56/79/149 35/77/150 38/78/151
f 50/58/152 39/88/153 10/90/154
f 37/63/155 42/96/156 4/98/157
f 16/53/158 26/56/159 22/54/160
f 21/82/161 56/79/162 58/80/163 48/81/164
f 18/71/165 29/74/166 36/76/167
f 21/82/168 35/77/169 56/79/170
f 18/71/171 36/76/172 35/77/173 21/82/174
f 18/71/175 17/72/176 53/73/177 29/74/178
f 36/76/179 29/74/180 30/75/181
f 37/63/182 4/98/183 53/73/184 17/72/185
f 51/62/186 43/95/187 42/96/188 37/63/189
f 4/98/190 42/96/191 5/97/192
f 43/95/193 44/93/194 45/94/195
f 48/81/196 58/80/197 44/93/198 51/62/199
f 51/62/200 44/93/201 43/95/202
f 50/58/203 10/90/204 57/91/205 47/92/206
f 40/87/207 31/57/208 33/85/209
f 10/90/210 39/88/211 11/89/212
f 50/58/213 31/57/214 40/87/215 39/88/216
f 33/85/217 31/57/218 13/83/219 52/84/220
f 40/87/221 33/85/222 34/86/223
f 16/53/224 22/54/225 52/84/226 13/83/227
f 20/52/228 54/61/229 28/59/230
f 22/54/231 26/56/232 23/55/233
f 20/52/234 28/59/235 26/56/236 16/53/237
f 47/92/238 57/91/239 54/61/240 20/52/241
f 28/59/242 54/61/243 1/60/244
