# This file uses centimeters as units for non-parametric coordinates.

v 0.000977 0.000000 0.000000
v 25.000977 0.000031 -0.001953
v 28.614258 0.000000 143.863281
v 50.750977 0.000000 134.693359
v 25.000977 500.000000 0.000000
v 104.524414 54.248959 215.169922
v 127.051758 0.000000 248.884766
v 0.000977 500.000000 0.000000
v 127.051758 54.248959 248.884766
v 6.477539 0.000000 153.033203
v 93.165039 0.000000 282.771484
v 6.477539 500.000000 153.033203
v 93.165039 54.248959 282.771484
v 85.528320 54.248959 271.341797
v 241.243164 0.000000 325.185547
v 50.750977 500.000000 134.693359
v 222.903320 0.000000 369.455078
v 104.594727 54.248959 290.406250
v 160.770508 54.248959 271.414063
v 85.532227 142.408096 271.341797
v 92.270508 154.808228 264.207031
v 74.735352 154.808212 246.675781
v 104.524414 242.525909 215.169922
v 104.524414 173.398026 215.169922
v 104.594727 142.408066 290.406250
v 85.532227 242.525909 271.343750
v 85.532227 154.366974 271.343750
v 104.594727 154.366989 290.406250
v 129.262695 154.808243 301.199219
v 111.727539 154.808228 283.666016
v 160.770508 123.376373 271.414063
v 111.727539 242.525925 283.666016
v 111.727539 154.808197 283.666016
v 127.051758 500.000000 248.886719
v 127.051758 242.525909 248.884766
v 92.270508 242.525925 264.207031
v 93.165039 242.525909 282.771484
v 160.766602 242.525909 271.414063
v 160.766602 173.398438 271.414063
v 104.594727 242.525909 290.406250
v 93.165039 500.000000 282.771484
v 222.903320 500.000000 369.455078
v 241.243164 500.000000 325.185547
v 375.000977 0.000000 349.998047
v 375.000977 500.000000 399.998047
v 375.000977 0.000000 400.000000
v 375.000977 500.000000 350.000000
v -24.999023 0.000000 0.000000
v -24.999023 500.000000 0.000000
v 110.110352 0.000000 265.828125
v 104.524414 123.376854 215.169922
v 79.438477 119.598083 177.625000
v 74.735352 141.966797 246.675781
v 71.579102 154.587265 250.466797
v 71.579102 142.187759 250.466797
v 232.071289 0.000000 347.320313
v 92.270508 54.248959 264.207031
v 92.270508 141.966400 264.207031
v 92.270508 141.966797 264.207031
v 111.727539 54.248959 283.667969
v 111.727539 141.966843 283.667969
v 111.727539 141.966797 283.666016
v 129.262695 141.966797 301.199219
v 28.614258 500.000000 143.863281
v 125.469727 142.187744 304.355469
v 125.469727 154.587296 304.355469
v 375.000977 0.000000 374.998047
v 110.110352 500.000000 265.830078
v 232.071289 500.000000 347.320313
v 375.000977 500.000000 374.998047
v 79.438477 177.176941 177.625000
v 92.270508 154.808624 264.207031
v 198.313477 177.176651 296.501953
v 198.313477 119.598122 296.501953
vt 0.016566 0.031143
vt 0.016582 0.031258
vt 0.016603 0.031251
vt 0.016586 0.031143
vt 0.016602 0.030987
vt 0.016569 0.030996
vt 0.016546 0.031142
vt 0.003044 1.993263
vt 0.249855 1.007171
vt 0.003044 1.007171
vt 0.423797 1.114160
vt 0.496671 1.007171
vt 0.016561 0.031265
vt 0.496671 1.114160
vt 0.249857 1.007171
vt 0.496672 1.007171
vt 0.249857 1.993263
vt 0.496672 1.114160
vt 0.474929 1.114160
vt 0.743487 1.007171
vt 0.249855 1.993263
vt 0.743484 1.007171
vt 0.518413 1.114160
vt 0.569549 1.114160
vt 0.017811 0.031410
vt 0.017586 0.031237
vt 0.017435 0.031007
vt 0.423798 1.485477
vt 0.423798 1.349144
vt 0.017549 0.031424
vt 0.017663 0.031373
vt 0.017780 0.031229
vt 0.017643 0.031286
vt 0.017500 0.031248
vt 0.017548 0.031425
vt 0.017504 0.031260
vt 0.017694 0.031375
vt 0.017437 0.031006
vt 0.017497 0.031231
vt 0.496674 1.993263
vt 0.017808 0.031214
vt 0.017631 0.031106
vt 0.017781 0.031229
vt 0.017608 0.031118
vt 0.017464 0.030994
vt 0.017528 0.031235
vt 0.017436 0.031006
vt 0.569548 1.349145
vt 0.569548 1.485477
vt 0.496672 1.485477
vt 0.496672 1.485477
vt 0.496672 1.993263
vt 0.474932 1.485477
vt 0.743485 1.993263
vt 0.518411 1.485477
vt 0.743488 1.993263
vt 0.990301 1.007171
vt 0.990301 1.993263
vt 0.990301 1.007171
vt 0.990301 1.993263
vt 0.016537 0.031005
vt 0.016579 0.031037
vt 0.016596 0.031044
vt 0.016613 0.031051
vt 0.016662 0.030971
vt 0.016674 0.030981
vt 0.016649 0.030960
vt 0.003044 1.007171
vt 0.003044 1.993263
vt 0.017839 0.031392
vt 0.017816 0.031210
vt 0.017779 0.031230
vt 0.017435 0.031007
vt 0.017778 0.031231
vt 0.016517 0.030850
vt 0.016547 0.030851
vt 0.017669 0.031254
vt 0.017857 0.031655
vt 0.017815 0.031427
vt 0.017809 0.031397
vt 0.016576 0.030852
vt 0.017549 0.031424
vt 0.017608 0.031326
vt 0.017719 0.031422
vt 0.017855 0.031656
vt 0.016750 0.030929
vt 0.016758 0.030942
vt 0.016743 0.030916
vt 0.016568 0.030727
vt 0.017855 0.031656
vt 0.017547 0.031425
vt 0.016592 0.030735
vt 0.016616 0.030743
vt 0.016685 0.030653
vt 0.016702 0.030665
vt 0.016667 0.030642
vt 0.016807 0.030608
vt 0.016818 0.030622
vt 0.016796 0.030594
vt 0.518412 1.288026
vt 0.558130 1.287592
vt 0.558129 1.312046
vt 0.518412 1.311611
vt 0.474931 1.311611
vt 0.435217 1.312046
vt 0.435217 1.287592
vt 0.474931 1.288026
vt 0.342648 1.356597
vt 0.650698 1.356596
vt 0.650699 1.243041
vt 0.569549 1.250492
vt 0.423798 1.250493
vt 0.342648 1.243041
vt 0.017472 0.030990
vt 0.017856 0.031655
vt 0.017703 0.031540
vt 0.017572 0.031411
vt 0.017722 0.031528
vt 0.017880 0.031639
vt 0.017701 0.031332
vt 0.017579 0.031407
vt 0.017887 0.031635
vn 0.000000 -1.000000 -0.000000
vn 0.000000 -1.000000 -0.000000
vn 0.000001 -1.000000 -0.000000
vn 0.000001 -1.000000 -0.000000
vn -0.000039 0.000002 -1.000000
vn -0.000039 0.000002 -1.000000
vn -0.000020 0.000001 -1.000000
vn -0.000020 0.000001 -1.000000
vn 0.982212 0.000000 -0.187773
vn 0.982213 0.000000 -0.187773
vn 0.982213 0.000000 -0.187773
vn 0.982213 0.000000 -0.187773
vn 0.831473 0.000004 -0.555566
vn 0.831471 0.000004 -0.555568
vn 0.707109 0.000003 -0.707104
vn 0.707110 0.000003 -0.707104
vn 0.555567 0.000002 -0.831472
vn 0.707104 -0.000008 -0.707110
vn 0.707104 -0.000008 -0.707110
vn 0.555577 -0.000002 -0.831465
vn 0.031772 0.998990 -0.031780
vn 0.255026 0.932693 -0.255042
vn 0.262886 0.928317 -0.262903
vn 0.031772 0.998990 -0.031780
vn 0.262881 -0.928319 -0.262901
vn 0.255018 -0.932696 -0.255037
vn 0.031767 -0.998990 -0.031774
vn 0.031767 -0.998990 -0.031774
vn -0.686719 0.000000 -0.726923
vn -0.686719 0.000000 -0.726924
vn -0.331167 -0.000010 -0.943572
vn -0.328072 -0.000010 -0.944653
vn 0.727113 0.000000 0.686518
vn 0.727113 0.000000 0.686518
vn 0.727113 0.000000 0.686518
vn 0.910033 0.000000 0.414536
vn 0.944652 0.000000 0.328075
vn 0.031770 -0.998990 -0.031767
vn 0.031770 -0.998990 -0.031767
vn 0.245793 -0.937635 -0.245816
vn 0.262909 -0.928302 -0.262934
vn 0.031770 -0.998990 -0.031767
vn 0.262909 -0.928302 -0.262934
vn 0.245793 -0.937635 -0.245816
vn 0.278743 -0.919016 -0.278770
vn 0.278743 -0.919016 -0.278770
vn 0.278743 0.919023 -0.278744
vn 0.261157 0.929298 -0.261158
vn 0.262910 0.928308 -0.262911
vn 0.278743 0.919023 -0.278744
vn -0.328092 0.000000 -0.944646
vn -0.686822 0.000000 -0.726825
vn -0.686822 0.000000 -0.726825
vn -0.686822 0.000000 -0.726825
vn -0.000000 -1.000000 0.000000
vn -0.000000 -1.000000 0.000000
vn -0.000000 -1.000000 0.000000
vn -0.000000 -1.000000 0.000000
vn -0.000000 -1.000000 0.000000
vn 0.000001 -1.000000 -0.000002
vn 0.000001 -1.000000 -0.000002
vn -0.000000 -1.000000 0.000000
vn -0.000000 -1.000000 0.000000
vn 0.000001 -1.000000 -0.000002
vn -0.242391 0.000000 -0.970179
vn -0.242391 0.000000 -0.970179
vn -0.242391 0.000000 -0.970179
vn -0.686822 0.000000 -0.726825
vn -0.328092 0.000000 -0.944646
vn -0.831467 0.000001 0.555574
vn -0.831472 0.000001 0.555566
vn -0.831404 0.000000 0.555669
vn -0.555551 0.000000 0.831483
vn -0.555552 0.000008 0.831482
vn -0.707098 0.000016 0.707116
vn -0.707098 0.000016 0.707116
vn 0.182398 0.000002 -0.983225
vn 0.182398 0.000002 -0.983225
vn 0.182398 0.000002 -0.983225
vn 0.182398 0.000002 -0.983225
vn -0.196887 0.000002 0.980426
vn -0.196887 0.000002 0.980426
vn -0.196887 0.000002 0.980426
vn -0.196887 0.000002 0.980426
vn -0.000000 -1.000000 0.000000
vn -0.000000 -1.000000 0.000000
vn 0.000000 -1.000000 -0.000000
vn 0.000000 -1.000000 -0.000000
vn 0.000000 0.000000 -1.000000
vn -0.000020 0.000001 -1.000000
vn -0.000020 0.000001 -1.000000
vn 0.000000 0.000000 -1.000000
vn 0.000000 -1.000000 0.000000
vn 0.000000 -1.000000 0.000000
vn 0.000000 -1.000000 0.000000
vn 0.000000 -1.000000 0.000000
vn 0.000000 -1.000000 0.000000
vn 0.000000 -1.000000 0.000000
vn 0.000000 -1.000000 0.000000
vn 0.000000 -1.000000 0.000000
vn -0.979495 0.000000 0.201467
vn -0.979495 0.000000 0.201467
vn -0.979495 0.000000 0.201467
vn -0.979495 0.000000 0.201467
vn 0.278723 0.919031 -0.278740
vn 0.278723 0.919031 -0.278740
vn 0.262886 0.928317 -0.262903
vn 0.255026 0.932693 -0.255042
vn 0.278723 0.919031 -0.278740
vn 0.768514 0.000000 0.639833
vn 0.768514 0.000000 0.639833
vn 0.996807 0.000000 0.079853
vn 0.996807 0.000000 0.079853
vn 0.000000 -1.000000 0.000000
vn 0.000000 -1.000000 0.000000
vn 0.000000 -1.000000 0.000000
vn 0.000000 -1.000000 0.000000
vn 0.278720 -0.919032 -0.278740
vn 0.278720 -0.919032 -0.278740
vn 0.255018 -0.932696 -0.255037
vn 0.262881 -0.928319 -0.262901
vn 0.278720 -0.919032 -0.278740
vn 0.944636 -0.000003 0.328119
vn 0.909992 -0.000006 0.414626
vn 0.726919 -0.000016 0.686723
vn 0.726919 -0.000016 0.686723
vn 0.726919 -0.000016 0.686723
vn 0.000000 -1.000000 0.000000
vn 0.000000 -1.000000 0.000000
vn 0.000000 -1.000000 0.000000
vn 0.000000 -1.000000 0.000000
vn -0.328072 -0.000010 -0.944653
vn -0.331167 -0.000010 -0.943572
vn -0.242412 -0.000012 -0.970173
vn -0.242412 -0.000012 -0.970173
vn -0.242412 -0.000012 -0.970173
vn 0.262910 0.928308 -0.262911
vn 0.261157 0.929298 -0.261158
vn 0.031771 0.998990 -0.031773
vn 0.031771 0.998990 -0.031773
vn 0.031771 0.998990 -0.031773
vn 0.000000 1.000000 0.000000
vn 0.000000 1.000000 0.000000
vn 0.000000 1.000000 0.000000
vn 0.000000 1.000000 0.000000
vn -0.639639 0.000000 -0.768676
vn -0.639639 0.000000 -0.768676
vn -0.079770 0.000000 -0.996813
vn -0.079770 0.000000 -0.996813
vn 0.000000 1.000000 0.000000
vn 0.000000 1.000000 0.000000
vn 0.000000 1.000000 0.000000
vn 0.000000 1.000000 0.000000
vn 0.000000 -1.000000 0.000000
vn 0.000000 -1.000000 0.000000
vn 0.000000 -1.000000 0.000000
vn 0.000000 -1.000000 0.000000
vn 0.000000 -1.000000 0.000000
vn 0.000000 -1.000000 0.000000
vn 0.000000 -1.000000 0.000000
vn 0.000000 -1.000000 0.000000
vn 0.000000 1.000000 0.000000
vn 0.000000 1.000000 0.000000
vn 0.000000 1.000000 0.000000
vn 0.000000 1.000000 0.000000
vn 0.000000 1.000000 0.000000
vn 0.000000 1.000000 0.000000
vn 0.000000 1.000000 0.000000
vn 0.000000 1.000000 0.000000
vn 0.000000 1.000000 0.000000
vn 0.000000 1.000000 0.000000
vn 0.000000 1.000000 0.000000
vn 0.000000 1.000000 0.000000
vn 0.000000 1.000000 0.000000
vn 0.000000 1.000000 0.000000
vn 0.000000 1.000000 0.000000
vn 0.000000 1.000000 0.000000
vn 1.000000 0.000000 0.000000
vn 1.000000 0.000000 0.000000
vn 1.000000 0.000000 0.000000
vn 1.000000 0.000000 0.000000
vn 1.000000 0.000000 0.000000
vn 1.000000 0.000000 0.000000
vn 1.000000 0.000000 0.000000
vn 1.000000 0.000000 0.000000
vn 0.000000 1.000000 0.000000
vn 0.000000 1.000000 0.000000
vn 0.000000 1.000000 0.000000
vn 0.000000 1.000000 0.000000
vn 0.000000 1.000000 0.000000
vn 0.000000 1.000000 0.000000
vn 0.000000 1.000000 0.000000
vn 0.000000 1.000000 0.000000
vn 0.996807 0.000000 0.079853
vn 0.997688 0.000000 0.067954
vn 0.997688 0.000000 0.067954
vn 0.996807 0.000000 0.079853
vn 0.000000 1.000000 0.000000
vn 0.000000 1.000000 0.000000
vn 0.000000 1.000000 0.000000
vn 0.000000 1.000000 0.000000
vn 0.000000 1.000000 0.000000
vn 0.000000 1.000000 0.000000
vn 0.000000 1.000000 0.000000
vn 0.000000 1.000000 0.000000
vn 0.000000 1.000000 0.000000
vn 0.000000 1.000000 0.000000
vn 0.970168 0.000000 0.242436
vn 0.970168 0.000000 0.242436
vn 0.909992 -0.000006 0.414626
vn 0.944636 -0.000003 0.328119
vn 0.970168 0.000000 0.242436
vn 0.970168 0.000000 0.242436
vn 0.944652 0.000000 0.328075
vn 0.910033 0.000000 0.414536
vn -0.067869 0.000000 -0.997694
vn -0.067869 0.000000 -0.997694
vn -0.079770 0.000000 -0.996813
vn -0.079770 0.000000 -0.996813
vn -0.831467 0.000001 0.555574
vn -0.707101 -0.000007 0.707113
vn -0.707101 -0.000007 0.707113
vn -0.831477 -0.000005 0.555559
vn -0.831473 -0.000000 0.555565
vn -0.831474 -0.000001 0.555563
vn -0.831470 -0.000002 0.555570
vn -0.831467 0.000001 0.555574
vn -0.831477 -0.000005 0.555559
vn -0.831472 0.000001 0.555566
vn -0.831472 0.000001 0.555566
vn -0.831477 -0.000005 0.555559
vn -0.831474 -0.000001 0.555563
vn -0.831473 -0.000000 0.555565
vn -0.831470 -0.000002 0.555570
vn -0.831474 -0.000001 0.555563
vn -0.707098 0.000016 0.707116
vn -0.707098 0.000016 0.707116
vn -0.831473 -0.000000 0.555565
vn -0.831470 -0.000002 0.555570
vn -0.831380 0.000037 0.555704
vn -0.555552 0.000008 0.831482
vn -0.555551 -0.000001 0.831482
vn -0.555597 0.000000 0.831452
vn -0.555545 -0.000003 0.831486
vn -0.555552 0.000001 0.831482
vn -0.555551 -0.000001 0.831482
vn -0.555551 0.000000 0.831483
vn -0.555551 0.000000 0.831483
vn -0.555551 -0.000001 0.831482
vn -0.555552 0.000008 0.831482
vn -0.555552 0.000001 0.831482
vn -0.555552 -0.000001 0.831482
vn -0.555596 0.000000 0.831452
vn -0.555545 -0.000003 0.831486
vn -0.707101 -0.000007 0.707113
vn -0.707101 -0.000007 0.707113
vn -0.555552 -0.000001 0.831482
vn -0.555545 -0.000003 0.831486
vn -0.555552 -0.000001 0.831482
vn -0.555552 0.000001 0.831482
vn 0.555567 0.000002 -0.831472
vn 0.555561 0.000002 -0.831476
vn 0.555558 -0.000000 -0.831478
vn 0.555570 0.000001 -0.831470
vn 0.555561 0.000002 -0.831476
vn 0.555577 -0.000002 -0.831465
vn 0.555609 0.000000 -0.831444
vn 0.555567 0.000002 -0.831472
vn 0.555577 -0.000002 -0.831465
vn 0.555561 0.000002 -0.831476
vn 0.555570 0.000001 -0.831470
vn 0.555570 -0.000000 -0.831470
vn 0.707110 0.000003 -0.707104
vn 0.707109 0.000003 -0.707104
vn 0.555570 -0.000000 -0.831470
vn 0.555558 -0.000000 -0.831478
vn 0.555568 0.000000 -0.831471
vn 0.555570 0.000001 -0.831470
vn 0.555558 -0.000000 -0.831478
vn 0.555570 -0.000000 -0.831470
vn 0.831462 -0.000004 -0.555581
vn 0.831469 -0.000006 -0.555570
vn 0.707104 -0.000008 -0.707110
vn 0.707104 -0.000008 -0.707110
vn 0.831459 0.000001 -0.555586
vn 0.831473 0.000004 -0.555566
vn 0.831478 0.000000 -0.555559
vn 0.831459 0.000001 -0.555586
vn 0.831471 0.000004 -0.555568
vn 0.831473 0.000004 -0.555566
vn 0.831458 -0.000001 -0.555587
vn 0.831478 0.000000 -0.555558
vn 0.831469 -0.000006 -0.555570
vn 0.831458 -0.000001 -0.555587
vn 0.831462 -0.000004 -0.555581
vn 0.831471 0.000004 -0.555568
vn 0.831459 0.000001 -0.555586
vn 0.831458 -0.000001 -0.555587
vn 0.831469 -0.000006 -0.555570
vn 0.831462 -0.000004 -0.555581
s off
f 3/1/1 1/2/2 2/3/3 4/4/4
f 5/5/5 2/3/6 1/2/7 8/6/8
f 4/9/9 2/10/10 5/8/11 16/21/12
f 23/28/13 16/21/14 34/40/15 35/50/16
f 15/20/17 7/12/18 9/14/19 19/24/20
f 20/25/21 59/80/22 53/72/23 55/74/24
f 22/27/25 21/26/26 27/33/27 54/73/28
f 18/30/29 25/31/30 61/83/31 60/82/32
f 26/32/33 27/33/34 21/26/35 72/120/36 36/43/37
f 28/34/38 33/39/39 30/36/40 29/35/41 66/91/42
f 29/35/43 30/36/44 39/46/45 73/121/46
f 31/37/47 62/84/48 63/85/49 74/122/50
f 32/38/51 33/39/52 28/34/53 40/47/54
f 32/38/55 36/43/56 23/41/57 35/42/58 38/45/59
f 37/44/60 26/32/61 36/43/62 32/38/63 40/47/64
f 38/45/65 39/46/66 30/36/67 33/39/68 32/38/69
f 26/53/70 54/105/71 27/104/72
f 17/22/73 18/23/74 13/18/75 11/16/76
f 44/57/77 15/20/78 43/56/79 47/60/80
f 17/22/81 46/59/82 45/58/83 42/54/84
f 10/7/85 48/13/86 1/2/87 3/1/88
f 49/61/89 8/6/90 1/2/91 48/13/92
f 11/62/93 10/7/94 3/1/95 50/63/96
f 50/63/97 3/1/98 4/4/99 7/64/100
f 48/68/101 10/15/102 12/17/103 49/69/104
f 51/70/105 52/71/106 53/72/107 59/80/108 58/79/109
f 54/73/110 55/74/111 53/72/112 22/27/113
f 56/65/114 50/63/115 7/64/116 15/66/117
f 24/77/118 72/120/119 21/26/120 22/27/121 71/114/122
f 57/78/123 58/79/124 59/80/125 20/25/126 14/115/127
f 17/67/128 11/62/129 50/63/130 56/65/131
f 60/82/132 61/83/133 62/84/134 31/37/135 19/117/136
f 63/85/137 62/84/138 61/83/139 25/31/140 65/90/141
f 49/61/142 12/75/143 64/76/144 8/6/145
f 65/90/146 66/91/147 29/35/148 63/85/149
f 8/6/150 64/76/151 16/81/152 5/5/153
f 67/86/154 56/65/155 15/66/156 44/87/157
f 46/88/158 17/67/159 56/65/160 67/86/161
f 12/75/162 41/89/163 68/92/164 64/76/165
f 64/76/166 68/92/167 34/93/168 16/81/169
f 68/92/170 69/94/171 43/95/172 34/93/173
f 41/89/174 42/96/175 69/94/176 68/92/177
f 70/97/178 67/86/179 44/87/180 47/98/181
f 45/99/182 46/88/183 67/86/184 70/97/185
f 69/94/186 70/97/187 47/98/188 43/95/189
f 42/96/190 45/99/191 70/97/192 69/94/193
f 53/72/194 52/71/195 71/114/196 22/27/197
f 57/78/198 14/115/199 13/116/200 18/30/201 60/82/202
f 19/117/203 9/118/204 6/119/205 57/78/206 60/82/207
f 6/119/208 51/70/209 58/79/210 57/78/211
f 24/77/212 23/41/213 36/43/214 72/120/215
f 73/121/216 74/122/217 63/85/218 29/35/219
f 26/53/220 37/51/221 41/52/222 12/17/223
f 55/106/224 10/15/225 14/19/226
f 26/53/227 12/17/228 54/105/229
f 54/105/230 12/17/231 10/15/232 55/106/233
f 14/19/234 10/15/235 11/16/236 13/18/237
f 55/106/238 14/19/239 20/107/240
f 18/23/241 65/101/242 25/100/243
f 42/54/244 66/102/245 65/101/246 17/22/247
f 17/22/248 65/101/249 18/23/250
f 66/102/251 40/55/252 28/103/253
f 42/54/254 41/52/255 37/51/256 40/55/257
f 42/54/258 40/55/259 66/102/260
f 15/20/261 74/110/262 73/109/263 43/56/264
f 74/110/265 19/24/266 31/111/267
f 15/20/268 19/24/269 74/110/270
f 43/56/271 38/49/272 35/50/273 34/40/274
f 38/49/275 73/109/276 39/48/277
f 43/56/278 73/109/279 38/49/280
f 4/9/281 6/11/282 9/14/283 7/12/284
f 71/108/285 23/28/286 24/29/287
f 71/108/288 16/21/289 23/28/290
f 52/113/291 51/112/292 6/11/293
f 52/113/294 4/9/295 16/21/296 71/108/297
f 52/113/298 6/11/299 4/9/300
