# This file uses centimeters as units for non-parametric coordinates.

v 483.941406 0.000000 -0.275391
v 483.941406 500.000000 -0.275391
v 501.742188 0.000000 -0.275391
v 501.742188 500.000000 -0.275391
v 500.000000 0.000000 50.279297
v 500.000000 500.000000 50.279297
v 483.941406 0.000000 50.279297
v 483.941406 500.000000 50.279297
v -1.742188 0.000000 -0.275391
v -1.742188 500.000000 -0.275391
v 16.058594 0.000000 -0.275391
v 16.058594 500.000000 -0.275391
v 16.058594 0.000000 50.279297
v 16.058594 500.000000 50.279297
v 0.000000 0.000000 50.279297
v 0.000000 500.000000 50.279297
v 500.000000 483.940857 -0.275391
v 0.000000 483.940857 -0.275391
v 500.000000 501.734406 -0.275391
v 0.000000 501.734406 -0.275391
v 500.000000 501.734406 53.863281
v 0.000000 501.734406 53.863281
v 500.000000 483.940857 53.863281
v 0.000000 483.940857 53.863281
v 488.464844 104.078705 10.705078
v 11.535156 104.078705 10.705078
v 241.968750 -0.000000 -0.277344
v 241.968750 115.969353 -0.277344
v 258.029297 0.000000 -0.277344
v 258.029297 115.969353 -0.277344
v 258.029297 0.000000 50.277344
v 251.751953 115.969353 50.277344
v 241.968750 -0.000000 50.277344
v 241.968750 115.969353 50.277344
v 488.464844 0.000000 10.705078
v 11.535156 0.000000 10.705078
v 488.464844 16.059147 10.705078
v 11.535156 16.059147 10.705078
v 488.464844 16.059147 46.623047
v 11.535156 16.059147 46.623047
v 488.464844 0.000000 46.623047
v 11.535156 0.000000 46.623047
v 488.464844 120.137863 10.705078
v 11.535156 120.137863 10.705078
v 488.464844 120.137863 46.623047
v 11.535156 120.137863 46.623047
v 488.464844 104.078712 46.623047
v 11.535156 104.078712 46.623047
v 16.058594 342.009003 50.279297
v 7.515625 398.419647 50.279297
v 16.058594 436.904999 50.279297
v 16.058594 397.125183 36.160156
v 483.941406 190.173508 50.279297
v 483.941406 263.054993 50.279297
v 490.144531 232.238113 50.279297
v 483.941406 231.610397 38.390625
v 423.210938 501.734406 53.863281
v 348.480469 501.734375 53.863281
v 378.130859 501.734406 40.660156
v 378.537109 496.722351 53.863281
v 218.751953 120.137856 46.623047
v 162.589844 120.137863 46.623047
v 193.667969 120.137863 36.359375
v 195.929688 114.707130 46.623047
v 258.029297 115.969353 45.244141
v 258.029297 84.000664 50.277344
v 368.207031 16.059147 46.623047
v 307.269531 16.059147 46.623047
v 349.585938 16.059147 36.087891
v 347.742188 10.975545 46.623047
v 260.984375 0.547211 10.705078
v 257.041016 16.059151 10.705078
v 257.041016 16.059151 40.283203
v 260.984375 0.547211 40.283203
v 483.300781 119.590630 40.283203
v 483.300781 119.590630 10.705078
v 487.242188 104.078705 10.705078
v 487.242188 104.078690 40.283203
v 239.015625 0.547195 10.705078
v 242.960938 16.059128 10.705078
v 242.960938 16.059128 40.283203
v 239.015625 0.547195 40.283203
v 16.701172 119.590622 10.705078
v 16.701172 119.590622 40.283203
v 12.759766 104.078690 40.283203
v 12.759766 104.078705 10.705078
v 488.464844 9.613411 25.000000
v 11.535156 9.613411 25.000000
v 488.464844 9.613411 33.306641
v 11.535156 9.613411 33.306641
v 11.535156 104.078705 25.000000
v 488.464844 104.078705 25.000000
v 11.535156 104.078705 33.306641
v 488.464844 104.078705 33.306641
vt 0.488319 0.155976
vt 0.489208 0.156438
vt 0.488899 0.156448
vt 0.488214 0.155977
vt 0.488213 0.156057
vt 0.488902 0.156695
vt 0.489213 0.156682
vt 0.488318 0.156055
vt 0.488319 0.155976
vt 0.489208 0.156438
vt 0.488899 0.156448
vt 0.488214 0.155977
vt 0.488213 0.156057
vt 0.488902 0.156695
vt 0.489213 0.156682
vt 0.488318 0.156055
vt 0.488319 0.155976
vt 0.489208 0.156438
vt 0.488899 0.156448
vt 0.488214 0.155977
vt 0.488213 0.156057
vt 0.488902 0.156695
vt 0.489213 0.156682
vt 0.488318 0.156055
vt 0.488319 0.155976
vt 0.489208 0.156438
vt 0.488900 0.156496
vt 0.488214 0.155977
vt 0.488213 0.156057
vt 0.488902 0.156695
vt 0.489213 0.156682
vt 0.488318 0.156055
vt 0.488319 0.155976
vt 0.489208 0.156438
vt 0.488899 0.156448
vt 0.488214 0.155977
vt 0.488213 0.156057
vt 0.488902 0.156695
vt 0.489213 0.156682
vt 0.488318 0.156055
vt 0.488319 0.155976
vt 0.489208 0.156438
vt 0.488899 0.156448
vt 0.488214 0.155977
vt 0.488213 0.156057
vt 0.488902 0.156695
vt 0.489213 0.156682
vt 0.488318 0.156055
vt 0.488683 0.156299
vt 0.488760 0.156405
vt 0.488813 0.156388
vt 0.488844 0.156348
vt 0.488475 0.156300
vt 0.488576 0.156393
vt 0.488533 0.156306
vt 0.488592 0.156350
vt 0.488319 0.156049
vt 0.488421 0.156120
vt 0.488456 0.156089
vt 0.488380 0.156113
vt 0.488601 0.156243
vt 0.488682 0.156299
vt 0.488784 0.156263
vt 0.488636 0.156304
vt 0.488930 0.156447
vt 0.488710 0.156318
vt 0.488386 0.156096
vt 0.488474 0.156156
vt 0.488524 0.156111
vt 0.488416 0.156139
vt 0.488319 0.155976
vt 0.488214 0.155977
vt 0.488899 0.156448
vt 0.489208 0.156438
vt 0.488213 0.156057
vt 0.488318 0.156055
vt 0.489213 0.156682
vt 0.488902 0.156695
vt 0.488319 0.155976
vt 0.489208 0.156438
vt 0.488899 0.156448
vt 0.488214 0.155977
vt 0.488213 0.156057
vt 0.488902 0.156695
vt 0.489213 0.156682
vt 0.488318 0.156055
vt 0.005742 0.597655
vt 0.244232 0.597655
vt 0.244232 0.589149
vt 0.005742 0.589149
vt 0.005704 0.512578
vt 0.244613 0.512578
vt 0.244613 0.562003
vt 0.005704 0.562003
vt 0.244277 0.561938
vt 0.222061 0.561938
vt 0.222061 0.512531
vt 0.244277 0.512531
vt 0.005704 0.562003
vt 0.244613 0.562003
vt 0.244613 0.512578
vt 0.005704 0.512578
vt 0.244277 0.512531
vt 0.222061 0.512531
vt 0.222061 0.561938
vt 0.244277 0.561938
vn 0.999407 0.000000 0.034441
vn 0.999407 0.000000 0.034441
vn 0.999407 0.000000 0.034441
vn 0.999407 0.000000 0.034441
vn -1.000000 0.000000 0.000000
vn -1.000000 0.000000 0.000000
vn -1.000000 0.000000 0.000000
vn 0.000000 0.000000 -1.000000
vn 0.000000 0.000000 -1.000000
vn 0.000000 0.000000 -1.000000
vn 0.000000 0.000000 -1.000000
vn 0.000000 1.000000 0.000000
vn 0.000000 1.000000 0.000000
vn 0.000000 1.000000 0.000000
vn 0.000000 1.000000 0.000000
vn 0.000000 0.000000 1.000000
vn 0.000000 0.000000 1.000000
vn 0.000000 0.000000 1.000000
vn 0.000000 -1.000000 0.000000
vn 0.000000 -1.000000 0.000000
vn 0.000000 -1.000000 0.000000
vn 0.000000 -1.000000 0.000000
vn 0.853602 0.129272 0.504631
vn 0.853602 0.129272 0.504631
vn 0.853602 0.129272 0.504631
vn -0.999407 0.000000 0.034441
vn -0.999407 0.000000 0.034441
vn -0.999407 0.000000 0.034441
vn -0.999407 0.000000 0.034441
vn 0.000000 0.000000 -1.000000
vn 0.000000 0.000000 -1.000000
vn 0.000000 0.000000 -1.000000
vn 0.000000 0.000000 -1.000000
vn 0.000000 1.000000 0.000000
vn 0.000000 1.000000 0.000000
vn 0.000000 1.000000 0.000000
vn 0.000000 1.000000 0.000000
vn 0.000000 -1.000000 0.000000
vn 0.000000 -1.000000 0.000000
vn 0.000000 -1.000000 0.000000
vn 0.000000 -1.000000 0.000000
vn 0.000000 1.000000 -0.000000
vn 0.000000 1.000000 -0.000000
vn 0.000000 1.000000 -0.000000
vn 0.000000 -1.000000 0.000000
vn 0.000000 -1.000000 0.000000
vn 0.000000 -1.000000 0.000000
vn 0.000000 -1.000000 0.000000
vn 0.000000 0.000000 -1.000000
vn 0.000000 0.000000 -1.000000
vn 0.000000 0.000000 -1.000000
vn 0.000000 0.000000 -1.000000
vn -1.000000 0.000000 0.000000
vn -1.000000 0.000000 0.000000
vn -1.000000 0.000000 0.000000
vn -1.000000 0.000000 0.000000
vn 0.000000 0.000000 1.000000
vn 0.000000 0.000000 1.000000
vn 0.000000 0.000000 1.000000
vn 1.000000 0.000000 0.000000
vn 1.000000 0.000000 0.000000
vn 1.000000 0.000000 0.000000
vn 1.000000 0.000000 0.000000
vn 0.620887 0.121917 0.774361
vn 0.620887 0.121917 0.774361
vn 0.620887 0.121917 0.774361
vn -1.000000 0.000000 0.000000
vn -1.000000 0.000000 0.000000
vn -1.000000 0.000000 0.000000
vn -1.000000 0.000000 0.000000
vn -0.000000 0.000000 -1.000000
vn -0.000000 0.000000 -1.000000
vn -0.000000 0.000000 -1.000000
vn -0.000000 0.000000 -1.000000
vn 0.000000 -1.000000 0.000000
vn 0.000000 -1.000000 0.000000
vn 0.000000 -1.000000 0.000000
vn 0.000000 -1.000000 0.000000
vn 0.000000 1.000000 0.000000
vn 0.000000 1.000000 0.000000
vn 0.000000 1.000000 0.000000
vn 0.000000 1.000000 0.000000
vn 0.000000 -1.000000 0.000000
vn 0.000000 -1.000000 0.000000
vn 0.000000 -1.000000 0.000000
vn 0.000000 -1.000000 0.000000
vn 0.000000 0.000000 -1.000000
vn 0.000000 0.000000 -1.000000
vn 0.000000 0.000000 -1.000000
vn 0.000000 0.000000 -1.000000
vn -1.000000 0.000000 0.000000
vn -1.000000 0.000000 0.000000
vn -1.000000 0.000000 0.000000
vn -1.000000 0.000000 0.000000
vn 0.000000 0.000000 1.000000
vn 0.000000 0.000000 1.000000
vn 0.000000 0.000000 1.000000
vn 0.000000 0.000000 1.000000
vn 1.000000 0.000000 0.000000
vn 1.000000 0.000000 0.000000
vn 1.000000 0.000000 0.000000
vn 1.000000 0.000000 0.000000
vn 0.000000 1.000000 0.000000
vn 0.000000 1.000000 0.000000
vn 0.000000 1.000000 0.000000
vn 0.000000 -1.000000 0.000000
vn 0.000000 -1.000000 0.000000
vn 0.000000 -1.000000 0.000000
vn 0.000000 -1.000000 0.000000
vn 0.000000 0.000000 -1.000000
vn 0.000000 0.000000 -1.000000
vn 0.000000 0.000000 -1.000000
vn 0.000000 0.000000 -1.000000
vn -1.000000 0.000000 0.000000
vn -1.000000 0.000000 0.000000
vn -1.000000 0.000000 0.000000
vn -1.000000 0.000000 0.000000
vn 0.000000 0.000000 1.000000
vn 0.000000 0.000000 1.000000
vn 0.000000 0.000000 1.000000
vn 1.000000 0.000000 0.000000
vn 1.000000 0.000000 0.000000
vn 1.000000 0.000000 0.000000
vn 1.000000 0.000000 0.000000
vn 0.000000 0.000000 1.000000
vn 0.000000 0.000000 1.000000
vn 0.000000 0.000000 1.000000
vn 1.000000 0.000000 0.000000
vn 1.000000 0.000000 0.000000
vn 1.000000 0.000000 0.000000
vn 0.833212 -0.184956 0.521103
vn 0.833212 -0.184956 0.521103
vn 0.833212 -0.184956 0.521103
vn -0.881845 0.130043 0.453252
vn -0.881845 0.130043 0.453252
vn -0.881845 0.130043 0.453252
vn -0.869085 -0.174938 0.462697
vn -0.869085 -0.174938 0.462697
vn -0.869085 -0.174938 0.462697
vn 0.154292 0.925276 0.346493
vn 0.154292 0.925276 0.346493
vn 0.154292 0.925276 0.346493
vn -0.104198 0.928748 0.355766
vn -0.104198 0.928748 0.355766
vn -0.104198 0.928748 0.355766
vn 0.144553 0.887425 0.437700
vn 0.144553 0.887425 0.437700
vn 0.144553 0.887425 0.437700
vn -0.201482 0.846718 0.492416
vn -0.201482 0.846718 0.492416
vn -0.201482 0.846718 0.492416
vn 0.000000 1.000000 0.000000
vn 0.000000 1.000000 0.000000
vn 0.000000 1.000000 0.000000
vn 0.000000 1.000000 0.000000
vn 0.000000 1.000000 0.000000
vn -0.000000 0.000000 1.000000
vn -0.000000 0.000000 1.000000
vn -0.000000 0.000000 1.000000
vn -0.000000 0.000000 1.000000
vn -0.000000 0.000000 1.000000
vn 1.000000 0.000000 0.000000
vn 1.000000 0.000000 0.000000
vn 1.000000 0.000000 0.000000
vn 1.000000 0.000000 0.000000
vn 1.000000 0.000000 0.000000
vn 0.000000 1.000000 0.000002
vn 0.000000 1.000000 0.000002
vn 0.000000 1.000000 0.000002
vn 0.000000 1.000000 0.000002
vn 0.000000 1.000000 0.000000
vn 0.000000 1.000000 0.000000
vn 0.000000 1.000000 0.000000
vn 0.000000 1.000000 0.000000
vn 0.000000 0.000000 1.000000
vn 0.000000 0.000000 1.000000
vn 0.000000 0.000000 1.000000
vn 0.000000 0.000000 1.000000
vn 0.000000 0.000000 1.000000
vn 0.000000 0.000000 1.000000
vn 0.000000 0.000000 1.000000
vn 0.000000 0.000000 1.000000
vn 1.000000 0.000000 0.000000
vn 1.000000 0.000000 0.000000
vn 1.000000 0.000000 0.000000
vn 1.000000 0.000000 0.000000
vn 1.000000 0.000000 0.000000
vn 1.000000 0.000000 0.000000
vn 1.000000 0.000000 0.000000
vn 1.000000 0.000000 0.000000
vn 0.000000 0.000000 1.000000
vn 0.000000 0.000000 1.000000
vn 0.000000 0.000000 1.000000
vn 0.000000 0.000000 1.000000
vn 0.000000 0.000000 1.000000
vn 0.000000 0.000000 1.000000
vn 0.000000 0.000000 1.000000
vn 0.000000 0.000000 1.000000
vn -0.000000 0.000000 1.000000
vn -0.000000 0.000000 1.000000
vn -0.000000 0.000000 1.000000
vn -0.000000 0.000000 1.000000
vn -0.000000 0.000000 1.000000
vn -0.000000 0.000000 1.000000
vn -0.000000 0.000000 1.000000
vn -0.000000 0.000000 1.000000
vn -1.000000 0.000000 0.000000
vn -1.000000 0.000000 0.000000
vn -1.000000 0.000000 0.000000
vn -1.000000 0.000000 0.000000
vn -1.000000 0.000000 0.000000
vn -1.000000 0.000000 0.000000
vn -1.000000 0.000000 0.000000
vn -1.000000 0.000000 0.000000
vn 0.000000 1.000000 0.000000
vn 0.000000 1.000000 0.000000
vn 0.000000 1.000000 0.000000
vn 0.000000 1.000000 0.000000
vn -0.000000 1.000000 -0.000000
vn -0.000000 1.000000 -0.000000
vn -0.000000 1.000000 -0.000000
vn -0.000000 1.000000 -0.000000
vn 0.000000 0.000000 1.000000
vn 0.000000 0.000000 1.000000
vn 0.000000 0.000000 1.000000
vn 0.000000 0.000000 1.000000
vn 0.000000 0.000000 1.000000
vn 0.000000 0.000000 1.000000
vn 0.000000 0.000000 1.000000
vn 0.000000 0.000000 1.000000
vn 0.111443 0.887246 0.447633
vn 0.111443 0.887246 0.447633
vn 0.111443 0.887246 0.447633
vn -0.221785 0.892828 0.392008
vn -0.221785 0.892828 0.392008
vn -0.221785 0.892828 0.392008
vn 0.000000 1.000000 0.000000
vn 0.000000 1.000000 0.000000
vn 0.000000 1.000000 0.000000
vn 0.000000 1.000000 0.000000
vn 0.000000 1.000000 0.000000
vn 0.000000 1.000000 0.000000
vn 0.000000 1.000000 0.000000
vn 0.000000 0.000000 1.000000
vn 0.000000 0.000000 1.000000
vn 0.000000 0.000000 1.000000
vn 0.000000 0.000000 1.000000
vn 0.000000 0.000000 1.000000
vn 0.000000 0.000000 1.000000
vn 0.000000 0.000000 1.000000
vn -0.416087 0.909325 0.000000
vn -0.416087 0.909325 0.000000
vn -0.416087 0.909325 0.000000
vn -0.416087 0.909325 0.000000
vn 0.416090 -0.909323 -0.000000
vn 0.416090 -0.909323 -0.000000
vn 0.416090 -0.909324 -0.000000
vn 0.416090 -0.909324 -0.000000
vn 0.000000 0.000000 -1.000000
vn 0.000000 0.000000 -1.000000
vn 0.000000 0.000000 -1.000000
vn 0.000000 0.000000 -1.000000
vn 0.000000 0.000000 1.000000
vn 0.000000 0.000000 1.000000
vn 0.000000 0.000000 1.000000
vn 0.000000 0.000000 1.000000
vn -0.969174 -0.246378 0.000000
vn -0.969174 -0.246378 0.000000
vn -0.969174 -0.246378 0.000000
vn -0.969174 -0.246378 0.000000
vn 0.416087 0.909325 0.000000
vn 0.416087 0.909325 0.000000
vn 0.416087 0.909325 0.000000
vn 0.416087 0.909325 0.000000
vn -0.416093 -0.909322 -0.000000
vn -0.416093 -0.909322 -0.000000
vn -0.416093 -0.909322 -0.000000
vn -0.416093 -0.909322 -0.000000
vn 0.000000 0.000000 -1.000000
vn 0.000000 0.000000 -1.000000
vn 0.000000 0.000000 -1.000000
vn 0.000000 0.000000 -1.000000
vn 0.000000 0.000000 1.000000
vn 0.000000 0.000000 1.000000
vn 0.000000 0.000000 1.000000
vn 0.000000 0.000000 1.000000
vn 0.969145 -0.246494 0.000000
vn 0.969145 -0.246494 0.000000
vn 0.969145 -0.246494 0.000000
vn 0.969145 -0.246494 0.000000
vn 0.000000 -1.000000 0.000000
vn 0.000000 -1.000000 0.000000
vn 0.000000 -1.000000 0.000000
vn 0.000000 -1.000000 0.000000
vn 0.000000 0.000000 -1.000000
vn 0.000000 0.000000 -1.000000
vn 0.000000 0.000000 -1.000000
vn 0.000000 0.000000 -1.000000
vn -1.000000 0.000000 0.000000
vn -1.000000 0.000000 0.000000
vn -1.000000 0.000000 0.000000
vn -1.000000 0.000000 0.000000
vn 0.000000 0.000000 1.000000
vn 0.000000 0.000000 1.000000
vn 0.000000 0.000000 1.000000
vn 0.000000 0.000000 1.000000
vn 1.000000 0.000000 0.000000
vn 1.000000 0.000000 0.000000
vn 1.000000 0.000000 0.000000
vn 1.000000 0.000000 0.000000
s off
f 3/1/1 4/2/2 6/3/3 5/4/4
f 1/8/5 56/56/6 2/7/7
f 1/8/8 2/7/9 4/2/10 3/1/11
f 6/3/12 4/2/13 2/7/14 8/6/15
f 5/4/16 6/3/17 55/55/18
f 7/5/19 1/8/20 3/1/21 5/4/22
f 49/49/23 52/52/24 50/50/25
f 15/13/26 16/14/27 10/15/28 9/16/29
f 9/16/30 10/15/31 12/10/32 11/9/33
f 14/11/34 12/10/35 10/15/36 16/14/37
f 15/13/38 9/16/39 11/9/40 13/12/41
f 19/17/42 20/18/43 59/59/44
f 23/21/45 24/22/46 18/23/47 17/24/48
f 17/24/49 18/23/50 20/18/51 19/17/52
f 22/19/53 20/18/54 18/23/55 24/22/56
f 23/21/57 60/60/58 24/22/59
f 23/21/60 17/24/61 19/17/62 21/20/63
f 66/66/64 65/65/65 32/27/66
f 33/29/67 34/30/68 28/31/69 27/32/70
f 27/32/71 28/31/72 30/26/73 29/25/74
f 33/29/75 27/32/76 29/25/77 31/28/78
f 37/33/79 69/69/80 67/67/81 39/36/82
f 41/37/83 42/38/84 36/39/85 35/40/86
f 35/40/87 36/39/88 38/34/89 37/33/90
f 40/35/91 38/34/92 36/39/93 42/38/94
f 42/38/95 70/70/96 68/68/97 40/35/98
f 41/37/99 35/40/100 37/33/101 39/36/102
f 43/41/103 44/42/104 63/63/105
f 47/45/106 48/46/107 26/47/108 25/48/109
f 25/48/110 26/47/111 44/42/112 43/41/113
f 46/43/114 44/42/115 26/47/116 48/46/117
f 47/45/118 64/64/119 48/46/120
f 47/45/121 25/48/122 43/41/123 45/44/124
f 15/13/125 50/50/126 16/14/127
f 11/9/128 12/10/129 52/52/130
f 50/50/131 52/52/132 51/51/133
f 55/55/134 56/56/135 53/53/136
f 54/54/137 56/56/138 55/55/139
f 60/60/140 59/59/141 58/58/142
f 57/57/143 59/59/144 60/60/145
f 64/64/146 63/63/147 62/62/148
f 61/61/149 63/63/150 64/64/151
f 32/27/152 65/65/153 30/26/154 28/31/155 34/30/156
f 31/28/157 66/66/158 32/27/159 34/30/160 33/29/161
f 29/25/162 30/26/163 65/65/164 66/66/165 31/28/166
f 59/59/167 20/18/168 22/19/169 58/58/170
f 19/17/171 59/59/172 57/57/173 21/20/174
f 21/20/175 57/57/176 60/60/177 23/21/178
f 24/22/179 60/60/180 58/58/181 22/19/182
f 52/52/183 12/10/184 14/11/185 51/51/186
f 11/9/187 52/52/188 49/49/189 13/12/190
f 13/12/191 49/49/192 50/50/193 15/13/194
f 16/14/195 50/50/196 51/51/197 14/11/198
f 55/55/199 6/3/200 8/6/201 54/54/202
f 5/4/203 55/55/204 53/53/205 7/5/206
f 7/5/207 53/53/208 56/56/209 1/8/210
f 2/7/211 56/56/212 54/54/213 8/6/214
f 63/63/215 44/42/216 46/43/217 62/62/218
f 43/41/219 63/63/220 61/61/221 45/44/222
f 45/44/223 61/61/224 64/64/225 47/45/226
f 48/46/227 64/64/228 62/62/229 46/43/230
f 70/70/231 69/69/232 68/68/233
f 67/67/234 69/69/235 70/70/236
f 69/69/237 38/34/238 40/35/239 68/68/240
f 37/33/241 38/34/242 69/69/243
f 39/36/244 67/67/245 70/70/246 41/37/247
f 41/37/248 70/70/249 42/38/250
f 72/71/251 73/72/252 75/73/253 76/74/254
f 74/75/255 71/76/256 77/77/257 78/78/258
f 71/76/259 72/71/260 76/74/261 77/77/262
f 73/72/263 74/75/264 78/78/265 75/73/266
f 74/75/267 73/72/268 72/71/269 71/76/270
f 80/79/271 83/80/272 84/81/273 81/82/274
f 82/83/275 85/84/276 86/85/277 79/86/278
f 79/86/279 86/85/280 83/80/281 80/79/282
f 81/82/283 84/81/284 85/84/285 82/83/286
f 82/83/287 79/86/288 80/79/289 81/82/290
f 89/87/291 90/88/292 88/89/293 87/90/294
f 87/91/295 88/92/296 91/93/297 92/94/298
f 93/95/299 91/96/300 88/97/301 90/98/302
f 94/99/303 93/100/304 90/101/305 89/102/306
f 89/103/307 87/104/308 92/105/309 94/106/310
