# This file uses centimeters as units for non-parametric coordinates.

v 375.001953 0.000000 483.103516
v 375.001953 0.000000 399.994141
v 375.001953 -28.772125 480.228516
v 375.001953 -28.772125 399.994141
v 375.001953 49.290497 358.927734
v 375.001953 21.251068 480.228516
v 375.001953 0.000000 497.447266
v 375.001953 21.251068 497.447266
v 375.001953 0.000000 374.994141
v 375.001953 0.000000 349.994141
v 375.001953 49.290497 349.994141
v 353.847656 -93.423645 420.978516
v 353.847656 -93.423645 399.994141
v 353.847656 -28.772095 469.779297
v 353.847656 -28.772095 399.994141
v 375.001953 -28.772095 469.779297
v 375.001953 -93.423645 420.978516
v 375.001953 -93.423645 399.994141
v 239.423828 -93.423645 420.978516
v 239.423828 -93.423645 399.994141
v 239.423828 -28.772095 469.779297
v 239.423828 -28.772095 399.994141
v 260.578125 -28.772095 469.779297
v 260.578125 -28.772095 399.994141
v 260.578125 -93.423645 420.978516
v 260.578125 -93.423645 399.994141
v 14.421875 -93.423645 420.978516
v 14.421875 -93.423645 399.994141
v 14.421875 -28.772095 469.779297
v 14.421875 -28.772095 399.994141
v 35.578125 -28.772095 469.779297
v 35.578125 -28.772095 399.994141
v 35.578125 -93.423645 420.978516
v 35.578125 -93.423645 399.994141
v -108.107422 -0.000031 483.103516
v -25.000000 0.000000 399.994141
v -105.232422 -28.772125 480.228516
v -25.000000 -28.772125 399.994141
v 16.068359 49.290497 358.927734
v -105.232422 21.251068 480.228516
v -122.451172 0.000000 497.447266
v -122.453125 21.251068 497.447266
v 0.000000 0.000000 374.994141
v 25.000000 0.000000 349.994141
v 25.000000 49.290497 349.994141
v -108.107422 0.000000 0.001953
v -25.000000 0.000000 0.001953
v -105.232422 -28.772125 0.001953
v -25.000000 -28.772125 0.001953
v 16.068359 49.290497 0.001953
v -105.232422 21.251068 0.001953
v -122.451172 0.000000 0.001953
v -122.451172 21.251068 0.001953
v 0.000000 0.000000 0.001953
v 25.000000 0.000000 0.001953
v 25.000000 49.290497 0.001953
v -45.984375 -93.423645 21.158203
v -25.000000 -93.423645 21.158203
v -94.785156 -28.772095 21.158203
v -25.000000 -28.772125 21.158203
v -94.785156 -28.772095 0.001953
v -45.984375 -93.423645 0.001953
v -25.000000 -93.423645 0.001953
v -45.984375 -93.423645 135.580078
v -25.000000 -93.423645 135.580078
v -94.785156 -28.772095 135.580078
v -25.000000 -28.772095 135.580078
v -94.785156 -28.772095 114.427734
v -25.000000 -28.772095 114.427734
v -45.984375 -93.423645 114.427734
v -25.000000 -93.423645 114.427734
v -45.984375 -93.423645 360.572266
v -25.000000 -93.423645 360.572266
v -94.785156 -28.772095 360.572266
v -25.000000 -28.772095 360.572266
v -94.785156 -28.772095 339.416016
v -25.000000 -28.772095 339.416016
v -45.984375 -93.423645 339.416016
v -25.000000 -93.423645 339.416016
vt 0.487932 0.200834
vt 0.487602 0.200859
vt 0.487927 0.200966
vt 0.487599 0.200998
vt 1.653370 0.125392
vt 1.653080 0.126334
vt 1.653286 0.126045
vt 1.653206 0.126213
vt 1.653057 0.126527
vt 1.653021 0.126603
vt 1.653044 0.126407
vt 1.653286 0.126045
vt 1.653370 0.125392
vt 1.198577 0.671205
vt 1.198577 0.462928
vt 1.198577 0.405777
vt 1.198577 0.433363
vt 1.198577 0.686542
vt 0.487154 0.179774
vt 0.487199 0.179797
vt 0.487172 0.179565
vt 0.487028 0.179511
vt 0.486951 0.179537
vt 0.487095 0.179597
vt 0.487127 0.179839
vt 0.487083 0.179814
vt 0.487449 0.179613
vt 0.487491 0.179628
vt 0.487485 0.179436
vt 0.487347 0.179402
vt 0.487298 0.179419
vt 0.487437 0.179456
vt 0.487446 0.179654
vt 0.487404 0.179638
vt 0.487661 0.179497
vt 0.487699 0.179507
vt 0.487703 0.179347
vt 0.487576 0.179324
vt 0.487543 0.179335
vt 0.487672 0.179359
vt 0.487670 0.179524
vt 0.487631 0.179513
vt 0.487123 0.200711
vt 1.651314 0.125818
vt 0.487495 0.200729
vt 0.487128 0.200809
vt 0.487494 0.200831
vt 1.481036 0.671205
vt 1.621931 0.462928
vt 1.641690 0.405777
vt 1.641985 0.433363
vt 1.651625 0.125718
vt 1.651786 0.125750
vt 1.470632 0.686542
vt 1.651811 0.125155
vt 0.487602 0.200859
vt 0.487932 0.200834
vt 0.487927 0.200966
vt 0.487599 0.200998
vt 0.487494 0.200831
vt 0.487128 0.200809
vt 0.487123 0.200711
vt 1.653206 0.126213
vt 1.653057 0.126527
vt 1.653080 0.126334
vt 1.653370 0.125392
vt 1.198577 0.405777
vt 1.641690 0.405777
vt 1.641985 0.433363
vt 1.198577 0.433363
vt 1.653021 0.126603
vt 1.653044 0.126407
vt 1.653286 0.126045
vt 1.653370 0.125392
vt 1.653286 0.126045
vt 1.198577 0.671205
vt 1.481036 0.671205
vt 1.470632 0.686542
vt 1.198577 0.686542
vt 0.487154 0.179774
vt 0.487199 0.179797
vt 0.487172 0.179565
vt 0.487028 0.179511
vt 0.486951 0.179537
vt 0.487095 0.179597
vt 0.487127 0.179839
vt 0.487083 0.179814
vt 0.487449 0.179613
vt 0.487491 0.179628
vt 0.487485 0.179436
vt 0.487347 0.179402
vt 0.487298 0.179419
vt 0.487437 0.179456
vt 0.487446 0.179654
vt 0.487404 0.179638
vt 0.487661 0.179497
vt 0.487699 0.179507
vt 0.487703 0.179347
vt 0.487576 0.179324
vt 0.487543 0.179335
vt 0.487672 0.179359
vt 0.487670 0.179524
vt 0.487631 0.179513
vt 1.621931 0.462928
vt 1.198577 0.462928
vt 0.487495 0.200729
vt 1.651811 0.125155
vt 1.651786 0.125750
vt 1.651625 0.125718
vt 1.651314 0.125818
vt 0.487204 0.179404
vt 0.487203 0.179289
vt 0.487238 0.179292
vt 0.487240 0.179404
vt 0.487380 0.179404
vt 0.487380 0.179301
vt 0.487408 0.179303
vt 0.487409 0.179404
vt 0.487637 0.179404
vt 0.487637 0.179319
vt 0.487656 0.179321
vt 0.487656 0.179404
vt 0.488164 0.179404
vt 0.488165 0.179292
vt 0.488203 0.179290
vt 0.488201 0.179404
vt 0.487988 0.179404
vt 0.487989 0.179304
vt 0.488019 0.179302
vt 0.488018 0.179404
vt 0.487728 0.179404
vt 0.487728 0.179321
vt 0.487749 0.179319
vt 0.487749 0.179404
vt 0.034398 0.064277
vt 0.034452 0.064277
vt 0.034452 0.066160
vt 0.034398 0.066105
vt 0.032570 0.066105
vt 0.032570 0.066160
vn 1.000000 0.000000 0.000000
vn 1.000000 0.000000 0.000000
vn 1.000000 0.000000 0.000000
vn 1.000000 0.000000 0.000000
vn 0.000000 -1.000000 0.000000
vn 0.000000 -1.000000 0.000000
vn 0.000000 -1.000000 0.000000
vn 0.000000 -1.000000 0.000000
vn 0.000000 -0.099428 0.995045
vn 0.000000 -0.099428 0.995045
vn 0.000000 -0.099428 0.995045
vn 0.000000 -0.099428 0.995045
vn 1.000000 -0.000001 0.000000
vn 1.000000 -0.000001 0.000000
vn 1.000000 -0.000001 0.000000
vn 1.000000 -0.000001 0.000000
vn 0.000000 0.000000 1.000000
vn 0.000000 0.000000 1.000000
vn 0.000000 0.000000 1.000000
vn 0.000000 0.000000 1.000000
vn 0.000000 -1.000000 0.000001
vn 0.000000 -1.000000 0.000001
vn 0.000000 -1.000000 0.000001
vn 0.000000 -1.000000 0.000001
vn 1.000000 -0.000001 0.000000
vn 1.000000 -0.000001 0.000000
vn 1.000000 -0.000001 0.000000
vn 1.000000 -0.000001 0.000000
vn 1.000000 0.000000 0.000000
vn 1.000000 0.000000 0.000000
vn 1.000000 0.000000 0.000000
vn 1.000000 0.000000 0.000000
vn 1.000000 0.000000 0.000000
vn 1.000000 0.000000 0.000000
vn 1.000000 0.000000 0.000000
vn 0.000000 1.000000 -0.000001
vn 0.000000 1.000000 -0.000001
vn 0.000000 1.000000 -0.000001
vn 0.000000 1.000000 -0.000001
vn -1.000000 -0.000000 0.000000
vn -1.000000 -0.000000 0.000000
vn -1.000000 -0.000000 0.000000
vn -1.000000 -0.000000 0.000000
vn 1.000000 0.000000 0.000000
vn 1.000000 0.000000 0.000000
vn 1.000000 0.000000 0.000000
vn 1.000000 0.000000 0.000000
vn 0.000000 -1.000000 0.000000
vn 0.000000 -1.000000 0.000000
vn 0.000000 -1.000000 0.000000
vn 0.000000 -1.000000 0.000000
vn 0.000000 -0.602463 0.798147
vn 0.000000 -0.602463 0.798147
vn 0.000000 -0.602463 0.798147
vn 0.000000 -0.602463 0.798147
vn -1.000000 -0.000000 0.000000
vn -1.000000 -0.000000 0.000000
vn -1.000000 -0.000000 0.000000
vn -1.000000 -0.000000 0.000000
vn 1.000000 0.000000 0.000000
vn 1.000000 0.000000 0.000000
vn 1.000000 0.000000 0.000000
vn 1.000000 0.000000 0.000000
vn 0.000000 -1.000000 0.000000
vn 0.000000 -1.000000 0.000000
vn 0.000000 -1.000000 0.000000
vn 0.000000 -1.000000 0.000000
vn 0.000000 -0.602463 0.798147
vn 0.000000 -0.602463 0.798147
vn 0.000000 -0.602463 0.798147
vn 0.000000 -0.602463 0.798147
vn -1.000000 0.000000 0.000000
vn -1.000000 0.000000 0.000000
vn -1.000000 0.000000 0.000000
vn -1.000000 0.000000 0.000000
vn 1.000000 0.000000 0.000000
vn 1.000000 0.000000 0.000000
vn 1.000000 0.000000 0.000000
vn 1.000000 0.000000 0.000000
vn 0.000000 -1.000000 0.000000
vn 0.000000 -1.000000 0.000000
vn 0.000000 -1.000000 0.000000
vn 0.000000 -1.000000 0.000000
vn 0.000000 -0.602463 0.798147
vn 0.000000 -0.602463 0.798147
vn 0.000000 -0.602463 0.798147
vn 0.000000 -0.602463 0.798147
vn 0.000000 0.974308 0.225217
vn 0.000000 0.974308 0.225217
vn 0.000000 0.974308 0.225217
vn 0.000000 0.974309 0.225218
vn 0.000000 0.000000 -1.000000
vn 0.000000 0.000000 -1.000000
vn 0.000000 0.000000 -1.000000
vn 0.000000 0.000000 -1.000000
vn 0.000000 0.000000 -1.000000
vn 0.000000 0.000000 -1.000000
vn 0.000000 0.000000 -1.000000
vn 0.000000 0.000000 -1.000000
vn 0.000000 1.000000 -0.000000
vn 0.000000 1.000000 -0.000000
vn 0.000000 1.000000 -0.000000
vn 0.000000 1.000000 -0.000000
vn 0.000000 -1.000000 0.000000
vn 0.000000 -1.000000 0.000000
vn 0.000000 -1.000000 0.000000
vn 0.000000 -1.000000 0.000000
vn 0.000000 -1.000000 0.000000
vn 0.000000 -1.000000 0.000000
vn 0.000000 -1.000000 0.000000
vn 0.000000 -1.000000 0.000000
vn 0.000000 0.000000 -1.000000
vn 0.000000 0.000000 -1.000000
vn 0.000000 0.000000 -1.000000
vn 0.000000 0.000000 -1.000000
vn 0.000000 -1.000000 0.000000
vn 0.000000 -1.000000 0.000000
vn 0.000000 -1.000000 0.000000
vn 0.000000 -1.000000 0.000000
vn -0.995045 -0.099428 -0.000000
vn -0.995045 -0.099428 -0.000000
vn -0.995045 -0.099428 -0.000000
vn -0.995045 -0.099428 -0.000000
vn 0.000000 0.000000 -1.000000
vn 0.000000 0.000000 -1.000000
vn 0.000000 0.000000 -1.000000
vn 0.000000 0.000000 -1.000000
vn -1.000000 -0.000046 -0.000002
vn -1.000000 -0.000046 -0.000002
vn -1.000000 -0.000046 -0.000002
vn -1.000000 -0.000046 -0.000002
vn -0.000001 -1.000000 -0.000000
vn -0.000001 -1.000000 -0.000000
vn -0.000001 -1.000000 -0.000000
vn -0.000001 -1.000000 -0.000000
vn 0.000000 0.000000 -1.000000
vn 0.000000 0.000000 -1.000000
vn 0.000000 0.000000 -1.000000
vn 0.000000 0.000000 -1.000000
vn 0.000000 0.000000 -1.000000
vn 0.000000 0.000000 -1.000000
vn 0.000000 0.000000 -1.000000
vn 0.000000 0.000000 -1.000000
vn 0.000000 0.000000 -1.000000
vn 0.000000 0.000000 -1.000000
vn 0.000000 0.000000 -1.000000
vn 0.000000 1.000000 0.000000
vn 0.000000 1.000000 0.000000
vn 0.000000 1.000000 0.000000
vn 0.000000 1.000000 0.000000
vn 0.000000 0.000000 1.000000
vn 0.000000 0.000000 1.000000
vn 0.000000 0.000000 1.000000
vn 0.000000 0.000000 1.000000
vn 0.000000 0.000000 -1.000000
vn 0.000000 0.000000 -1.000000
vn 0.000000 0.000000 -1.000000
vn 0.000000 0.000000 -1.000000
vn 0.000000 -1.000000 0.000000
vn 0.000000 -1.000000 0.000000
vn 0.000000 -1.000000 0.000000
vn 0.000000 -1.000000 0.000000
vn -0.798147 -0.602463 0.000000
vn -0.798147 -0.602463 0.000000
vn -0.798147 -0.602463 0.000000
vn -0.798147 -0.602463 0.000000
vn 0.000000 0.000000 1.000000
vn 0.000000 0.000000 1.000000
vn 0.000000 0.000000 1.000000
vn 0.000000 0.000000 1.000000
vn 0.000000 0.000000 -1.000000
vn 0.000000 0.000000 -1.000000
vn 0.000000 0.000000 -1.000000
vn 0.000000 0.000000 -1.000000
vn 0.000000 -1.000000 0.000000
vn 0.000000 -1.000000 0.000000
vn 0.000000 -1.000000 0.000000
vn 0.000000 -1.000000 0.000000
vn -0.798146 -0.602463 0.000000
vn -0.798146 -0.602463 0.000000
vn -0.798146 -0.602463 0.000000
vn -0.798146 -0.602463 0.000000
vn 0.000000 0.000000 1.000000
vn 0.000000 0.000000 1.000000
vn 0.000000 0.000000 1.000000
vn 0.000000 0.000000 1.000000
vn 0.000000 0.000000 -1.000000
vn 0.000000 0.000000 -1.000000
vn 0.000000 0.000000 -1.000000
vn 0.000000 0.000000 -1.000000
vn 0.000000 -1.000000 0.000000
vn 0.000000 -1.000000 0.000000
vn 0.000000 -1.000000 0.000000
vn 0.000000 -1.000000 0.000000
vn -0.798147 -0.602463 0.000000
vn -0.798147 -0.602463 0.000000
vn -0.798147 -0.602463 0.000000
vn -0.798147 -0.602463 0.000000
vn -0.225217 0.974308 0.000000
vn -0.225217 0.974308 0.000000
vn -0.225217 0.974308 0.000000
vn -0.225217 0.974308 0.000000
vn 1.000000 0.000000 0.000000
vn 1.000000 0.000000 0.000000
vn 1.000000 0.000000 0.000000
vn 1.000000 0.000000 0.000000
vn 1.000000 0.000000 0.000000
vn 1.000000 0.000000 0.000000
vn 1.000000 0.000000 0.000000
vn 1.000000 0.000000 0.000000
vn 0.000000 1.000000 0.000000
vn 0.000000 1.000000 0.000000
vn 0.000000 1.000000 0.000000
vn 0.000000 1.000000 0.000000
vn 0.000000 -1.000000 0.000000
vn 0.000000 -1.000000 0.000000
vn 0.000000 -1.000000 0.000000
vn 0.000000 -1.000000 0.000000
vn 0.000000 -1.000000 0.000000
vn 0.000000 -1.000000 0.000000
vn 0.000000 -1.000000 0.000000
vn 0.000000 -1.000000 0.000000
vn 1.000000 0.000000 0.000000
vn 1.000000 0.000000 0.000000
vn 1.000000 0.000000 0.000000
vn 1.000000 0.000000 0.000000
vn 1.000000 0.000000 0.000000
vn 1.000000 0.000000 0.000000
vn 1.000000 0.000000 0.000000
vn 1.000000 0.000000 0.000000
vn 1.000000 0.000000 0.000000
vn 1.000000 0.000000 0.000000
vn 1.000000 0.000000 0.000000
vn 1.000000 0.000000 0.000000
vn -0.000001 0.000000 -1.000000
vn -0.000001 0.000000 -1.000000
vn -0.000001 0.000000 -1.000000
vn -0.000001 0.000000 -1.000000
vn 0.000000 0.000000 -1.000000
vn 0.000000 0.000000 -1.000000
vn 0.000000 0.000000 -1.000000
vn 0.000000 0.000000 -1.000000
vn 0.000000 0.000000 -1.000000
vn 0.000000 0.000000 -1.000000
vn 0.000000 0.000000 -1.000000
vn 0.000000 0.000000 -1.000000
s off
f 1/2/1 3/4/2 4/3/3 2/1/4
f 3/4/5 37/46/6 38/47/7 4/3/8
f 3/4/9 1/2/10 35/43/11 37/46/12
f 2/8/13 5/5/14 6/6/15 1/9/16
f 7/16/17 8/17/18 42/51/19 41/50/20
f 1/135/21 7/136/22 41/137/23 35/138/24
f 6/6/25 8/11/26 7/10/27 1/9/28
f 2/8/29 9/7/30 5/5/31
f 9/7/32 10/12/33 11/13/34 5/5/35
f 5/14/36 11/18/37 45/54/38 39/48/39
f 12/19/40 14/22/41 15/21/42 13/20/43
f 16/23/44 17/26/45 18/25/46 4/24/47
f 17/26/48 12/19/49 13/20/50 18/25/51
f 17/26/52 16/23/53 14/22/54 12/19/55
f 19/27/56 21/30/57 22/29/58 20/28/59
f 23/31/60 25/34/61 26/33/62 24/32/63
f 25/34/64 19/27/65 20/28/66 26/33/67
f 25/34/68 23/31/69 21/30/70 19/27/71
f 27/35/72 29/38/73 30/37/74 28/36/75
f 31/39/76 33/42/77 34/41/78 32/40/79
f 33/42/80 27/35/81 28/36/82 34/41/83
f 33/42/84 31/39/85 29/38/86 27/35/87
f 40/49/88 6/15/89 5/14/90 39/48/91
f 36/45/92 2/1/93 4/3/94 38/47/95
f 45/55/96 11/13/97 10/12/98 44/53/99
f 42/51/100 8/17/101 6/15/102 40/49/103
f 43/52/104 9/7/105 2/8/106 36/44/107
f 44/53/108 10/12/109 9/7/110 43/52/111
f 46/56/112 47/57/113 49/58/114 48/59/115
f 48/59/116 49/58/117 38/60/118 37/61/119
f 48/59/120 37/61/121 35/62/122 46/56/123
f 47/63/124 46/64/125 51/65/126 50/66/127
f 52/67/128 41/68/129 42/69/130 53/70/131
f 46/139/132 35/138/133 41/137/134 52/140/135
f 51/65/136 46/64/137 52/71/138 53/72/139
f 47/63/140 50/66/141 54/73/142
f 54/73/143 50/66/144 56/74/145 55/75/146
f 50/76/147 39/77/148 45/78/149 56/79/150
f 57/80/151 58/81/152 60/82/153 59/83/154
f 61/84/155 49/85/156 63/86/157 62/87/158
f 62/87/159 63/86/160 58/81/161 57/80/162
f 62/87/163 57/80/164 59/83/165 61/84/166
f 64/88/167 65/89/168 67/90/169 66/91/170
f 68/92/171 69/93/172 71/94/173 70/95/174
f 70/95/175 71/94/176 65/89/177 64/88/178
f 70/95/179 64/88/180 66/91/181 68/92/182
f 72/96/183 73/97/184 75/98/185 74/99/186
f 76/100/187 77/101/188 79/102/189 78/103/190
f 78/103/191 79/102/192 73/97/193 72/96/194
f 78/103/195 72/96/196 74/99/197 76/100/198
f 40/104/199 39/77/200 50/76/201 51/105/202
f 36/106/203 38/60/204 49/58/205 47/57/206
f 45/107/207 44/108/208 55/75/209 56/74/210
f 42/69/211 40/104/212 51/105/213 53/70/214
f 43/109/215 36/110/216 47/63/217 54/73/218
f 44/108/219 43/109/220 54/73/221 55/75/222
f 63/111/223 49/112/224 60/113/225 58/114/226
f 71/115/227 69/116/228 67/117/229 65/118/230
f 79/119/231 77/120/232 75/121/233 73/122/234
f 13/123/235 15/124/236 4/125/237 18/126/238
f 20/127/239 22/128/240 24/129/241 26/130/242
f 28/131/243 30/132/244 32/133/245 34/134/246
