# This file uses centimeters as units for non-parametric coordinates.

v -41.773476 219.524277 2.049030
v -41.773476 315.781677 2.049030
v -119.847900 315.781677 2.048894
v -119.847900 219.524277 2.048894
v -130.756119 219.524277 2.048875
v -130.756119 315.781677 2.048875
v -205.311203 315.781677 2.048744
v -205.311203 219.524277 2.048744
v -272.912109 559.114868 -500.172607
v -272.912109 648.640259 -500.172607
v -227.102005 648.640259 -500.172577
v -227.102005 559.114868 -500.172577
v 8.750610 209.143341 -33.132610
v 8.750610 322.889008 -33.132610
v 46.855358 322.889008 -59.976112
v 46.855358 209.143341 -59.976112
v 51.772987 209.143341 -69.878441
v 51.772987 322.889008 -69.878441
v 51.773178 322.889008 -180.118576
v 51.773178 209.143341 -180.118576
v 8.750931 209.143341 -216.882263
v 46.855587 209.143341 -190.038696
v 46.855587 322.889008 -190.038696
v 8.750931 322.889008 -216.882263
v -272.912506 559.114868 0.174722
v -272.912506 648.640259 0.174722
v -227.102402 648.640259 0.174760
v -227.102402 559.114868 0.174760
vt 0.636865 0.517987
vt 0.636865 0.606609
vt 0.708746 0.606609
vt 0.708746 0.517987
vt 0.638485 0.517987
vt 0.638485 0.606609
vt 0.707126 0.606609
vt 0.707126 0.517987
vt 0.651718 0.521086
vt 0.693894 0.603510
vt 0.651718 0.603510
vt 0.693894 0.521086
vt 0.539922 0.504387
vt 0.587384 0.620210
vt 0.539922 0.620210
vt 0.587384 0.504387
vt 0.512160 0.509937
vt 0.613656 0.614659
vt 0.512160 0.614659
vt 0.613656 0.509937
vt 0.587384 0.504387
vt 0.539922 0.620210
vt 0.539922 0.504387
vt 0.587384 0.620210
vt 0.651875 0.521086
vt 0.694051 0.603510
vt 0.651875 0.603510
vt 0.694051 0.521086
vn -0.000002 0.000000 1.000000
vn -0.000002 0.000000 1.000000
vn -0.000002 0.000000 1.000000
vn -0.000002 0.000000 1.000000
vn -0.000002 0.000000 1.000000
vn -0.000002 0.000000 1.000000
vn -0.000002 0.000000 1.000000
vn -0.000002 0.000000 1.000000
vn -0.000002 0.000000 1.000000
vn -0.000002 0.000000 1.000000
vn -0.000002 0.000000 1.000000
vn -0.000002 0.000000 1.000000
vn 0.000001 0.000000 -1.000000
vn 0.000001 0.000000 -1.000000
vn 0.000001 0.000000 -1.000000
vn 0.000001 0.000000 -1.000000
vn 0.000001 0.000000 -1.000000
vn 0.000001 0.000000 -1.000000
vn 0.575910 0.000000 0.817513
vn 0.575910 0.000000 0.817513
vn 0.575910 0.000000 0.817513
vn 0.575910 0.000000 0.817513
vn 0.575910 0.000000 0.817513
vn 0.575910 0.000000 0.817513
vn 1.000000 0.000000 0.000002
vn 1.000000 0.000000 0.000002
vn 1.000000 0.000000 0.000002
vn 1.000000 0.000000 0.000002
vn 1.000000 0.000000 0.000002
vn 1.000000 0.000000 0.000002
vn 0.575912 0.000000 -0.817511
vn 0.575912 0.000000 -0.817511
vn 0.575912 0.000000 -0.817511
vn 0.575912 0.000000 -0.817511
vn 0.575912 0.000000 -0.817511
vn 0.575912 0.000000 -0.817511
vn -0.000001 0.000000 1.000000
vn -0.000001 0.000000 1.000000
vn -0.000001 0.000000 1.000000
vn -0.000001 0.000000 1.000000
vn -0.000001 0.000000 1.000000
vn -0.000001 0.000000 1.000000
s off
f 1/1/1 2/2/2 3/3/3
f 1/1/4 3/3/5 4/4/6
f 5/5/7 6/6/8 7/7/9
f 5/5/10 7/7/11 8/8/12
f 9/9/13 10/11/14 11/10/15
f 9/9/16 11/10/17 12/12/18
f 13/13/19 15/14/20 14/15/21
f 13/13/22 16/16/23 15/14/24
f 17/17/25 19/18/26 18/19/27
f 17/17/28 20/20/29 19/18/30
f 21/21/31 23/22/32 22/23/33
f 21/21/34 24/24/35 23/22/36
f 25/25/37 27/26/38 26/27/39
f 25/25/40 28/28/41 27/26/42
