# This file uses centimeters as units for non-parametric coordinates.

v 0.000000 -25.000000 0.000000
v 0.000000 -25.000000 -500.000000
v 250.000000 -25.000000 0.000000
v 250.000000 -25.000000 -500.000000
v 250.000000 3.480469 0.000000
v 250.000000 3.480469 -500.000000
v 0.000000 3.480469 0.000000
v 0.000000 3.480469 -500.000000
vt 0.006855 1.009778
vt 0.990072 1.009778
vt 0.990072 1.009778
vt 0.006855 1.009778
vt 0.900723 1.009569
vt 0.988672 1.009569
vt 0.988672 1.009569
vt 0.900723 1.009569
vt 0.007011 1.262543
vt 0.988485 1.262543
vt 0.988485 1.356378
vt 0.007011 1.356378
vt 0.007011 1.356378
vt 0.988485 1.356378
vt 0.988485 1.262543
vt 0.007011 1.262543
vt 0.900723 1.500995
vt 0.006855 1.501387
vt 0.990072 1.501387
vt 0.900723 1.500995
vt 0.990072 1.501387
vt 0.988672 1.500995
vt 0.988672 1.500995
vt 0.006855 1.501387
vn 1.000000 0.000000 0.000000
vn 1.000000 0.000000 0.000000
vn 1.000000 0.000000 0.000000
vn 1.000000 0.000000 0.000000
vn -1.000000 0.000000 0.000000
vn -1.000000 0.000000 0.000000
vn -1.000000 0.000000 0.000000
vn -1.000000 0.000000 0.000000
vn 0.000000 -1.000000 0.000000
vn 0.000000 -1.000000 0.000000
vn 0.000000 -1.000000 0.000000
vn 0.000000 -1.000000 0.000000
vn 0.000000 0.000000 -1.000000
vn 0.000000 0.000000 -1.000000
vn 0.000000 0.000000 -1.000000
vn 0.000000 0.000000 -1.000000
vn 0.000000 1.000000 0.000000
vn 0.000000 1.000000 0.000000
vn 0.000000 1.000000 0.000000
vn 0.000000 1.000000 0.000000
vn 0.000000 0.000000 1.000000
vn 0.000000 0.000000 1.000000
vn 0.000000 0.000000 1.000000
vn 0.000000 0.000000 1.000000
s off
f 3/9/1 4/10/2 6/11/3 5/12/4
f 7/13/5 8/14/6 2/15/7 1/16/8
f 1/1/9 2/2/10 4/19/11 3/18/12
f 6/22/13 4/20/14 2/5/15 8/6/16
f 5/24/17 6/21/18 8/3/19 7/4/20
f 7/7/21 1/8/22 3/17/23 5/23/24
