# This file uses centimeters as units for non-parametric coordinates.

v -30.541992 0.000000 5.435547
v -30.541992 55.010925 5.435547
v 30.543945 55.010925 5.435547
v 30.543945 0.000000 5.435547
v -30.541992 515.829468 -290.228516
v 30.543945 515.829468 -290.228516
v -30.541992 0.000000 -50.001953
v 30.543945 0.000000 -50.001953
v -30.541992 486.428345 -374.992188
v 30.543945 486.428345 -374.992188
v -30.541992 515.829468 -374.992188
v 30.543945 515.829468 -374.992188
v -30.541992 24.718140 -50.001953
v 30.543945 24.718140 -50.001953
v 30.543945 0.000000 -374.992188
v 30.543945 24.718140 -374.992188
v -30.541992 24.718140 -374.992188
v -30.541992 0.000000 -374.992188
v -9.752930 39.470947 -107.064453
v 9.754883 39.470947 -107.064453
v 9.754883 476.324097 -374.992188
v -9.752930 476.324097 -374.992188
v -9.752930 39.470947 -374.992188
v 9.754883 39.470947 -374.992188
v 30.543945 486.428345 -346.460938
v -30.541992 486.428345 -346.460938
vt 0.197383 0.305477
vt 0.196733 0.305502
vt 0.196733 0.305454
vt 0.254760 1.012960
vt 0.987071 1.012960
vt 0.197385 0.305430
vt 0.987071 1.989374
vt 0.987071 1.012960
vt 0.987071 1.989374
vt 0.254760 1.012960
vt 0.197353 0.305394
vt 0.196722 0.305416
vt 0.196723 0.305463
vt 0.197351 0.305440
vt 0.197254 0.305382
vt 0.196725 0.305400
vt 0.196729 0.305412
vt 0.197264 0.305393
vt 0.196721 0.304504
vt 0.196717 0.304502
vt 0.017887 0.042653
vt 0.017887 0.042825
vt 0.017501 0.043036
vt 0.017501 0.042653
vt 0.019951 0.046039
vt 0.019559 0.046244
vt 0.018284 0.042928
vt 0.020149 0.045969
vt 0.020149 0.046039
vt 0.020149 0.046244
vt 0.020731 0.049858
vt 0.020140 0.049654
vt 0.020339 0.049654
vt 0.020140 0.049858
vt 0.022403 0.046439
vt 0.022789 0.046650
vt 0.020140 0.049583
vt 0.022006 0.046542
vt 0.022403 0.046267
vt 0.022789 0.046267
vt 0.019680 0.046267
vt 0.020105 0.046267
vt 0.020105 0.046857
vt 0.019680 0.046857
vt 0.019644 0.046692
vt 0.019258 0.046692
vt 0.019258 0.046267
vt 0.019644 0.046267
vt 0.018768 0.046267
vt 0.018912 0.046267
vt 0.018768 0.046466
vt 0.018732 0.046466
vt 0.018588 0.046267
vt 0.018732 0.046267
vt 0.017464 0.042653
vt 0.017464 0.043036
vt 0.017038 0.043036
vt 0.017038 0.042653
vt 0.017464 0.046244
vt 0.017038 0.046244
vt 0.019153 0.046692
vt 0.018948 0.046692
vt 0.019223 0.046548
vt 0.018948 0.046267
vt 0.019223 0.046412
vt 0.019153 0.046267
vn 0.000000 1.000000 0.000000
vn 0.000000 1.000000 0.000000
vn 0.000000 1.000000 0.000000
vn 0.000000 1.000000 0.000000
vn 0.000000 0.000000 1.000000
vn 0.000000 0.000000 1.000000
vn 0.000000 0.000000 1.000000
vn 0.000000 0.000000 1.000000
vn 0.000000 0.540012 0.841657
vn 0.000000 0.540012 0.841657
vn 0.000000 0.540012 0.841657
vn 0.000000 0.540012 0.841657
vn 1.000000 0.000000 0.000000
vn 1.000000 0.000000 0.000000
vn 1.000000 0.000000 0.000000
vn 1.000000 0.000000 0.000000
vn 0.000000 -1.000000 0.000000
vn 0.000000 -1.000000 0.000000
vn 0.000000 -1.000000 0.000000
vn 0.000000 -1.000000 0.000000
vn -1.000000 0.000000 0.000000
vn -1.000000 0.000000 0.000000
vn -1.000000 0.000000 0.000000
vn 1.000000 0.000000 0.000000
vn 1.000000 0.000000 0.000000
vn 1.000000 0.000000 0.000000
vn 1.000000 0.000000 0.000000
vn 1.000000 0.000000 0.000000
vn 1.000000 0.000000 0.000000
vn 1.000000 0.000000 0.000000
vn -1.000000 0.000000 0.000000
vn -1.000000 0.000000 0.000000
vn -1.000000 0.000000 0.000000
vn -1.000000 0.000000 0.000000
vn -1.000000 0.000000 0.000000
vn -1.000000 0.000000 0.000000
vn -1.000000 0.000000 0.000000
vn 1.000000 0.000000 0.000000
vn 1.000000 0.000000 0.000000
vn 1.000000 0.000000 0.000000
vn 1.000000 0.000000 0.000000
vn -1.000000 0.000000 0.000000
vn -1.000000 0.000000 0.000000
vn -1.000000 0.000000 0.000000
vn -1.000000 0.000000 0.000000
vn 0.000000 -1.000000 0.000000
vn 0.000000 -1.000000 0.000000
vn 0.000000 -1.000000 0.000000
vn 0.000000 -1.000000 0.000000
vn 0.859802 -0.271595 -0.432409
vn 0.859802 -0.271595 -0.432409
vn 0.858849 -0.278647 -0.429807
vn 0.859227 -0.275893 -0.430826
vn 0.000002 0.000000 -1.000000
vn 0.000002 0.000000 -1.000000
vn 0.000002 0.000000 -1.000000
vn -0.437139 -0.899394 0.000000
vn -0.858850 -0.278647 -0.429807
vn -0.859227 -0.275893 -0.430826
vn -0.578728 0.815521 0.000000
vn -0.578728 0.815521 0.000000
vn -0.578728 0.815520 0.000000
vn -0.578728 0.815520 0.000000
vn 0.000000 0.000000 -1.000000
vn 0.000000 0.000000 -1.000000
vn 0.000000 0.000000 -1.000000
vn 0.578728 0.815521 0.000000
vn 0.578728 0.815521 0.000000
vn 0.578728 0.815521 0.000000
vn 0.578728 0.815521 0.000000
vn 1.000000 0.000000 0.000000
vn 1.000000 0.000000 0.000000
vn 1.000000 0.000000 0.000000
vn 0.000000 0.000000 -1.000000
vn 0.000000 0.000000 -1.000000
vn 0.000000 0.000000 -1.000000
vn 0.000000 0.000000 -1.000000
vn 0.000000 0.000000 -1.000000
vn 0.000000 0.000000 -1.000000
vn 0.000000 0.000000 -1.000000
vn 0.000000 0.000000 -1.000000
vn 0.000000 0.000000 -1.000000
vn 0.000000 0.000000 -1.000000
vn 0.000000 0.000000 -1.000000
vn 0.000000 0.000000 -1.000000
vn 0.000000 0.000000 -1.000000
vn 0.000000 0.000000 -1.000000
vn 0.000000 0.000000 -1.000000
vn 0.000000 0.000000 -1.000000
vn 0.000000 0.000000 -1.000000
vn 0.000000 0.000000 -1.000000
vn 0.859227 -0.275893 -0.430826
vn 0.858849 -0.278647 -0.429807
vn 0.437139 -0.899394 0.000000
vn 1.000000 0.000000 0.000000
vn 1.000000 0.000000 0.000000
vn 1.000000 0.000001 0.000000
vn -1.000000 0.000000 0.000000
vn -1.000000 0.000000 0.000000
vn -1.000000 0.000000 0.000000
vn -0.859227 -0.275893 -0.430826
vn -0.858850 -0.278647 -0.429807
vn -0.859802 -0.271595 -0.432409
vn -0.859802 -0.271595 -0.432409
vn -1.000000 0.000000 0.000000
vn -1.000000 0.000000 0.000000
vn -1.000000 0.000000 0.000000
vn -1.000000 0.000000 0.000000
s off
f 5/41/1 6/42/2 12/43/3 11/44/4
f 4/55/5 3/56/6 2/57/7 1/58/8
f 3/56/9 6/59/10 5/60/11 2/57/12
f 8/21/13 14/22/14 3/23/15 4/24/16
f 1/45/17 7/46/18 8/47/19 4/48/20
f 5/31/21 9/32/22 26/33/23
f 3/23/24 14/22/25 25/25/26 6/26/27
f 6/26/28 10/29/29 12/30/30
f 9/32/31 5/31/32 11/34/33
f 7/39/34 1/40/35 2/36/36 13/35/37
f 8/1/38 15/2/39 16/3/40 14/6/41
f 13/11/42 17/12/43 18/13/44 7/14/45
f 7/14/46 18/13/47 15/2/48 8/1/49
f 14/22/50 20/27/51 21/28/52 25/25/53
f 9/61/54 11/62/55 22/63/56
f 9/49/57 22/50/58 26/51/59
f 13/11/60 19/15/61 23/16/62 17/12/63
f 18/13/64 17/12/65 23/16/66
f 16/3/67 24/17/68 20/18/69 14/6/70
f 20/4/71 24/5/72 21/7/73
f 21/19/74 24/17/75 23/16/76 22/20/77
f 11/62/78 12/64/79 21/65/80 22/63/81
f 12/64/82 10/66/83 21/65/84
f 16/3/85 15/2/86 24/17/87
f 15/2/88 18/13/89 23/16/90 24/17/91
f 25/52/92 21/53/93 10/54/94
f 6/26/95 25/25/96 10/29/97
f 22/9/98 23/8/99 19/10/100
f 26/33/101 22/37/102 19/38/103 13/35/104
f 5/31/105 26/33/106 13/35/107 2/36/108
