# This file uses centimeters as units for non-parametric coordinates.

v -10.582100 151.344009 32.016602
v -10.582100 167.457016 32.016602
v -16.526482 167.457016 -8.973602
v 18.146294 167.457016 -7.251683
v -16.526482 151.344009 -8.973602
v 18.146294 151.344009 -7.251683
v -12.092428 149.086349 -3.800961
v 13.249302 149.086349 -2.542471
v -7.739509 149.086349 26.158852
v -11.191709 80.889969 -2.856606
v 12.185738 80.889969 -1.695606
v -7.176195 80.889969 24.781612
v -28.061104 17.412266 -14.722984
v 30.284615 17.412266 -11.657406
v -19.896177 17.412266 44.080322
v -6.051601 167.457016 22.519955
v 10.386559 167.457016 0.046576
v -9.456518 167.457016 -0.938710
v -5.048867 201.867615 20.460112
v 8.643275 201.867615 1.742382
v -7.884809 201.867615 0.921610
v -3.118398 201.867615 16.325514
v 5.375237 201.867615 4.711873
v -4.878608 201.867615 4.202644
v 0.052611 176.696915 9.440703
v 0.200964 17.412266 -24.736847
v 0.011439 80.889969 -7.824320
v 0.052611 149.086349 -9.185957
v 0.088705 151.344009 -16.340925
v 0.088705 167.457016 -16.340925
v 0.052611 167.457016 -5.155177
v 0.035275 201.867615 -2.590135
v 0.035275 201.867615 2.023715
v 3.653292 201.867615 15.993088
v 5.866238 201.867615 19.924253
v 7.053400 167.457016 21.876625
v 12.312973 167.457016 30.894073
v 12.312973 151.344009 30.894073
v 9.000034 149.086349 25.335812
v 8.266244 80.889969 24.022333
v 16.346050 17.412266 40.243347
v -38.414356 17.412266 20.767601
v -15.331065 80.889969 13.265979
v -16.578896 149.086349 13.675991
v -22.673302 151.344009 14.937811
v -22.673302 167.457016 14.937811
v -12.971862 167.457016 12.745857
v -10.812759 201.867615 12.319324
v -6.695141 201.867615 11.274470
v 6.969486 201.733063 11.326912
v 11.162346 201.665527 11.921255
v 13.272822 167.239471 10.934216
v 23.220234 167.058716 12.070158
v 23.160536 150.965164 11.496335
v 16.852749 148.869751 10.578011
v 12.842659 80.832863 12.925647
v 34.438530 17.365025 16.507833
v -25.601688 46.449051 -14.341800
v 0.200964 46.449055 -24.200897
v 27.805134 46.449051 -11.535911
v 31.185001 46.393330 16.632282
v 15.975574 46.449051 39.545361
v -17.712048 46.449051 42.648319
v -35.073547 46.449055 19.725000
v -14.646733 48.998531 -4.306353
v 0.020523 48.998535 -9.948339
v 15.720056 48.998531 -2.710975
v 17.361948 48.955441 13.326820
v 9.041151 48.998531 26.519464
v -10.139672 48.998531 28.262667
v -20.032448 48.998535 15.146271
v -0.284946 14.379864 7.118486
vt 0.102166 0.275139
vt 0.102549 0.275211
vt 0.102551 0.275425
vt 0.102174 0.275338
vt 0.102484 0.275136
vt 0.102481 0.274958
vt 0.102169 0.275028
vt 0.102178 0.275216
vt 0.102844 0.275137
vt 0.103157 0.275240
vt 0.103166 0.275049
vt 0.103171 0.246769
vt 0.103166 0.246272
vt 0.103107 0.246288
vt 0.103119 0.246796
vt 0.103126 0.246307
vt 0.103124 0.246815
vt 0.103323 0.246791
vt 0.103338 0.246285
vt 0.103254 0.246269
vt 0.102666 0.278097
vt 0.102666 0.278097
vt 0.102666 0.278097
vt 0.102666 0.278097
vt 0.102666 0.278097
vt 0.102666 0.278097
vt 0.102666 0.278097
vt 0.102666 0.278097
vt 0.102666 0.278097
vt 0.102666 0.278097
vt 0.103249 0.246764
vt 0.496085 0.177905
vt 0.496102 0.177606
vt 0.102847 0.274959
vt 0.102547 0.275219
vt 0.102666 0.278097
vt 0.102666 0.278097
vt 0.102666 0.278097
vt 0.102666 0.278097
vt 0.102666 0.278097
vt 0.102666 0.278097
vt 0.102361 0.275272
vt 0.102365 0.275344
vt 0.102962 0.275287
vt 0.495736 0.177623
vt 0.495697 0.177925
vt 0.495636 0.177647
vt 0.103222 0.246846
vt 0.103224 0.246317
vt 0.103330 0.246305
vt 0.102774 0.275220
vt 0.102426 0.275101
vt 0.102607 0.275133
vt 0.102418 0.275049
vt 0.102666 0.278097
vt 0.102666 0.278097
vt 0.102666 0.278097
vt 0.102666 0.278097
vt 0.102666 0.278097
vt 0.102666 0.278097
vt 0.102567 0.275013
vt 0.102901 0.275059
vt 0.102751 0.275013
vt 0.103080 0.275162
vt 0.103316 0.246826
vt 0.495593 0.177945
vt 0.496594 0.178120
vt 0.102850 0.275111
vt 0.103072 0.275368
vt 0.102594 0.275398
vt 0.102901 0.275366
vt 0.496577 0.177777
vt 0.496437 0.177655
vt 0.496443 0.177966
vt 0.495801 0.178146
vt 0.495819 0.177803
vt 0.496318 0.177848
vt 0.496324 0.178206
vt 0.103261 0.247021
vt 0.103170 0.247030
vt 0.103105 0.247070
vt 0.103098 0.247088
vt 0.103221 0.247128
vt 0.103331 0.247101
vt 0.103344 0.247055
vt 0.496320 0.177647
vt 0.496098 0.177615
vt 0.495853 0.177626
vt 0.495788 0.177642
vt 0.495916 0.177742
vt 0.496234 0.177769
vt 0.496403 0.177725
vt 0.496077 0.178030
vn 0.868947 -0.010426 0.494796
vn 0.868947 -0.010426 0.494796
vn 0.868947 -0.010426 0.494796
vn 0.868947 -0.010426 0.494796
vn 0.449604 0.000000 -0.893228
vn 0.449604 0.000000 -0.893228
vn 0.449604 0.000000 -0.893228
vn 0.449604 0.000000 -0.893228
vn 0.966647 0.002771 -0.256096
vn 0.966647 0.002771 -0.256096
vn 0.966647 0.002771 -0.256096
vn 0.966647 0.002771 -0.256096
vn -0.968511 0.000000 -0.248971
vn -0.968511 0.000000 -0.248971
vn -0.968511 0.000000 -0.248971
vn -0.968511 0.000000 -0.248971
vn 0.149417 -0.943169 -0.296829
vn 0.149417 -0.943169 -0.296829
vn 0.149417 -0.943169 -0.296829
vn 0.149417 -0.943169 -0.296829
vn 0.328597 -0.938459 -0.106392
vn 0.328597 -0.938459 -0.106392
vn 0.328597 -0.938459 -0.106392
vn 0.328597 -0.938459 -0.106392
vn -0.362973 -0.927121 -0.093254
vn -0.362973 -0.927121 -0.093254
vn -0.362974 -0.927121 -0.093254
vn -0.362973 -0.927121 -0.093254
vn 0.449580 -0.018102 -0.893057
vn 0.449580 -0.018102 -0.893057
vn 0.449580 -0.018102 -0.893057
vn 0.449580 -0.018102 -0.893057
vn 0.987548 -0.040344 -0.152058
vn 0.987548 -0.040344 -0.152058
vn 0.987548 -0.040344 -0.152058
vn 0.987548 -0.040344 -0.152058
vn -0.968463 -0.016230 -0.248628
vn -0.968463 -0.016230 -0.248628
vn -0.968463 -0.016230 -0.248628
vn -0.968463 -0.016230 -0.248628
vn 0.407375 0.027727 -0.912840
vn 0.407375 0.027727 -0.912840
vn 0.407375 0.027727 -0.912840
vn 0.407375 0.027727 -0.912840
vn 0.986433 0.097953 -0.131742
vn 0.986433 0.097953 -0.131742
vn 0.986433 0.097953 -0.131742
vn 0.986433 0.097953 -0.131742
vn -0.957575 0.092532 -0.272926
vn -0.957575 0.092532 -0.272926
vn -0.957575 0.092532 -0.272926
vn -0.957575 0.092532 -0.272926
vn 0.018563 0.999778 -0.010005
vn 0.018563 0.999778 -0.010005
vn 0.018563 0.999778 -0.010005
vn 0.018563 0.999778 -0.010005
vn 0.015845 0.999743 0.016206
vn 0.015845 0.999743 0.016206
vn 0.015845 0.999743 0.016206
vn 0.015845 0.999743 0.016206
vn 0.000000 1.000000 0.000000
vn 0.000000 1.000000 0.000000
vn 0.000000 1.000000 0.000000
vn 0.000000 1.000000 0.000000
vn 0.000000 1.000000 0.000000
vn 0.000000 1.000000 0.000000
vn 0.000000 1.000000 0.000000
vn 0.000000 1.000000 0.000000
vn 0.854009 0.048176 0.518023
vn 0.854009 0.048176 0.518023
vn 0.854009 0.048176 0.518023
vn 0.854009 0.048176 0.518023
vn 0.966958 0.063754 -0.246836
vn 0.966958 0.063754 -0.246836
vn 0.966958 0.063754 -0.246836
vn 0.966958 0.063754 -0.246836
vn 0.448600 0.066655 -0.891244
vn 0.448600 0.066655 -0.891244
vn 0.448600 0.066655 -0.891244
vn 0.448600 0.066655 -0.891244
vn -0.966945 0.057593 -0.248395
vn -0.966945 0.057593 -0.248395
vn -0.966945 0.057593 -0.248395
vn -0.966945 0.057593 -0.248395
vn 0.019798 0.999718 -0.013107
vn 0.019798 0.999718 -0.013107
vn 0.019798 0.999718 -0.013107
vn 0.019798 0.999718 -0.013107
vn 0.014314 0.999761 0.016534
vn 0.014314 0.999761 0.016534
vn 0.014314 0.999761 0.016534
vn 0.014314 0.999761 0.016534
vn 0.000000 1.000000 0.000004
vn 0.000000 1.000000 0.000004
vn 0.000000 1.000000 0.000004
vn 0.000000 1.000000 0.000004
vn 0.000000 1.000000 0.000000
vn 0.000000 1.000000 0.000000
vn 0.000000 1.000000 0.000000
vn 0.000000 1.000000 0.000000
vn -0.783750 0.259058 -0.564469
vn -0.783750 0.259058 -0.564469
vn -0.783750 0.259058 -0.564469
vn -0.941948 0.242762 0.231949
vn -0.941948 0.242762 0.231949
vn -0.941948 0.242762 0.231949
vn -0.434868 0.254251 0.863855
vn -0.434868 0.254251 0.863855
vn -0.434868 0.254251 0.863855
vn 0.941485 0.234774 0.241839
vn 0.941486 0.234774 0.241839
vn 0.941486 0.234774 0.241839
vn -0.344859 0.029421 -0.938194
vn -0.344859 0.029421 -0.938193
vn -0.344859 0.029421 -0.938194
vn -0.344859 0.029421 -0.938193
vn -0.405279 -0.018007 -0.914016
vn -0.405279 -0.018007 -0.914016
vn -0.405279 -0.018007 -0.914016
vn -0.405279 -0.018007 -0.914016
vn -0.132520 -0.945048 -0.298870
vn -0.132520 -0.945048 -0.298870
vn -0.132520 -0.945048 -0.298870
vn -0.132520 -0.945048 -0.298870
vn -0.405348 0.000000 -0.914163
vn -0.405348 0.000000 -0.914163
vn -0.405348 0.000000 -0.914163
vn -0.405348 0.000000 -0.914163
vn 0.000000 1.000000 -0.000001
vn 0.000000 1.000000 -0.000001
vn 0.000000 1.000000 -0.000001
vn 0.000000 1.000000 -0.000001
vn -0.404413 0.067782 -0.912061
vn -0.404413 0.067782 -0.912061
vn -0.404413 0.067782 -0.912061
vn -0.404413 0.067782 -0.912061
vn 0.000000 1.000000 -0.000002
vn 0.000000 1.000000 -0.000002
vn 0.000000 1.000000 -0.000002
vn 0.000000 1.000000 -0.000002
vn 0.391379 0.260352 0.882632
vn 0.391379 0.260352 0.882632
vn 0.391379 0.260352 0.882632
vn -0.047372 0.257980 -0.964988
vn -0.047372 0.257980 -0.964988
vn -0.047372 0.257980 -0.964988
vn 0.000000 1.000000 -0.000003
vn 0.000000 1.000000 -0.000003
vn 0.000000 1.000000 -0.000003
vn 0.000000 1.000000 -0.000003
vn 0.048949 0.058261 0.997101
vn 0.048949 0.058261 0.997101
vn 0.048949 0.058261 0.997101
vn 0.048949 0.058261 0.997101
vn 0.000000 1.000000 -0.000000
vn 0.000000 1.000000 -0.000000
vn 0.000000 1.000000 -0.000000
vn 0.000000 1.000000 -0.000000
vn 0.048970 0.000000 0.998800
vn 0.048970 0.000000 0.998800
vn 0.048970 0.000000 0.998800
vn 0.048970 0.000000 0.998800
vn 0.018020 -0.930008 0.367099
vn 0.018020 -0.930007 0.367099
vn 0.018020 -0.930007 0.367099
vn 0.018020 -0.930008 0.367099
vn 0.049099 -0.019761 0.998598
vn 0.049099 -0.019761 0.998598
vn 0.049099 -0.019761 0.998598
vn 0.049099 -0.019761 0.998598
vn 0.098701 0.033395 0.994557
vn 0.098701 0.033395 0.994557
vn 0.098701 0.033395 0.994557
vn 0.098701 0.033395 0.994557
vn -0.786007 0.100769 0.609950
vn -0.786007 0.100769 0.609950
vn -0.786007 0.100769 0.609950
vn -0.786007 0.100769 0.609950
vn -0.815961 -0.018407 0.577814
vn -0.815961 -0.018407 0.577814
vn -0.815961 -0.018407 0.577813
vn -0.815961 -0.018407 0.577813
vn -0.300361 -0.929815 0.212666
vn -0.300361 -0.929815 0.212666
vn -0.300361 -0.929815 0.212666
vn -0.300361 -0.929815 0.212666
vn -0.816166 0.000000 0.577818
vn -0.816166 0.000000 0.577818
vn -0.816166 0.000000 0.577818
vn -0.816166 0.000000 0.577818
vn 0.000000 1.000000 0.000000
vn 0.000000 1.000000 0.000000
vn 0.000000 1.000000 0.000000
vn 0.000000 1.000000 0.000000
vn -0.814757 0.058273 0.576867
vn -0.814757 0.058273 0.576867
vn -0.814757 0.058273 0.576867
vn -0.814757 0.058273 0.576867
vn 0.000000 1.000000 0.000000
vn 0.000000 1.000000 0.000000
vn 0.000000 1.000000 0.000000
vn 0.000000 1.000000 0.000000
vn 0.789676 0.252434 -0.559186
vn 0.789676 0.252434 -0.559186
vn 0.789676 0.252434 -0.559186
vn 0.301451 -0.936074 0.181363
vn 0.301451 -0.936074 0.181363
vn 0.301451 -0.936074 0.181363
vn 0.301451 -0.936074 0.181363
vn 0.900793 -0.028078 0.433339
vn 0.900793 -0.028078 0.433339
vn 0.900793 -0.028078 0.433339
vn 0.900793 -0.028078 0.433339
vn 0.812648 0.056449 0.580015
vn 0.812647 0.056449 0.580015
vn 0.812647 0.056449 0.580015
vn 0.812647 0.056449 0.580015
vn -0.067498 0.982033 -0.176223
vn -0.067498 0.982033 -0.176223
vn -0.067498 0.982033 -0.176223
vn -0.067498 0.982033 -0.176223
vn 0.080097 0.981434 -0.174276
vn 0.080097 0.981434 -0.174276
vn 0.080097 0.981434 -0.174276
vn 0.080097 0.981434 -0.174276
vn 0.189562 0.981678 -0.019340
vn 0.189562 0.981678 -0.019340
vn 0.189562 0.981678 -0.019340
vn 0.189562 0.981678 -0.019340
vn 0.161188 0.981601 0.102360
vn 0.161188 0.981601 0.102360
vn 0.161188 0.981601 0.102360
vn 0.161188 0.981601 0.102360
vn 0.016796 0.982927 0.183230
vn 0.016796 0.982927 0.183230
vn 0.016796 0.982927 0.183230
vn 0.016796 0.982926 0.183230
vn -0.135959 0.985365 0.102816
vn -0.135959 0.985365 0.102816
vn -0.135959 0.985365 0.102816
vn -0.135959 0.985365 0.102816
vn -0.182007 0.981998 -0.050527
vn -0.182007 0.981998 -0.050527
vn -0.182007 0.981998 -0.050527
vn -0.182007 0.981998 -0.050527
vn -0.378451 0.072151 -0.922805
vn -0.378451 0.072151 -0.922805
vn -0.378451 0.072151 -0.922805
vn -0.378451 0.072151 -0.922805
vn 0.431372 0.068242 -0.899590
vn 0.431372 0.068242 -0.899590
vn 0.431372 0.068242 -0.899590
vn 0.431372 0.068242 -0.899590
vn 0.989327 0.125656 -0.073769
vn 0.989327 0.125656 -0.073769
vn 0.989327 0.125656 -0.073769
vn 0.989327 0.125656 -0.073769
vn 0.879445 0.094219 0.466582
vn 0.879446 0.094219 0.466582
vn 0.879445 0.094219 0.466582
vn 0.879445 0.094219 0.466582
vn 0.071793 0.090635 0.993293
vn 0.071793 0.090635 0.993293
vn 0.071793 0.090635 0.993293
vn 0.071793 0.090635 0.993293
vn -0.798120 0.145065 0.584774
vn -0.798120 0.145065 0.584774
vn -0.798120 0.145065 0.584774
vn -0.798120 0.145065 0.584774
vn -0.958891 0.120888 -0.256738
vn -0.958891 0.120888 -0.256738
vn -0.958891 0.120888 -0.256738
vn -0.958891 0.120888 -0.256738
vn 0.040897 -0.994725 -0.094067
vn 0.040897 -0.994725 -0.094067
vn 0.040897 -0.994725 -0.094067
vn 0.089640 -0.995863 -0.014891
vn 0.089640 -0.995863 -0.014891
vn 0.089640 -0.995863 -0.014891
vn 0.070545 -0.995949 0.055755
vn 0.070545 -0.995949 0.055755
vn 0.070545 -0.995949 0.055755
vn 0.009168 -0.996202 0.086594
vn 0.009168 -0.996202 0.086594
vn 0.009168 -0.996202 0.086594
vn -0.061729 -0.996888 0.049034
vn -0.061729 -0.996888 0.049034
vn -0.061729 -0.996888 0.049034
vn -0.088425 -0.995749 -0.025795
vn -0.088425 -0.995749 -0.025795
vn -0.088425 -0.995749 -0.025795
vn -0.033739 -0.994884 -0.095221
vn -0.033739 -0.994884 -0.095221
vn -0.033739 -0.994884 -0.095221
s off
f 53/1/1 37/2/2 38/3/3 54/4/4
f 29/5/5 30/6/6 4/7/7 6/8/8
f 53/1/9 54/4/10 6/8/11 4/7/12
f 5/9/13 45/10/14 46/11/15 3/34/16
f 28/35/17 29/5/18 6/8/19 8/42/20
f 6/8/21 54/4/22 55/43/23 8/42/24
f 44/44/25 45/10/26 5/9/27 7/51/28
f 27/12/29 28/13/30 8/14/31 11/15/32
f 8/14/33 55/16/34 56/17/35 11/15/36
f 43/18/37 44/19/38 7/20/39 10/31/40
f 26/32/41 59/33/42 60/45/43 14/46/44
f 60/45/45 61/47/46 57/66/47 14/46/48
f 42/67/49 64/72/50 58/73/51 13/74/52
f 52/52/53 36/53/54 37/2/55 53/1/56
f 52/52/57 53/1/58 4/7/59 17/54/60
f 4/7/61 30/6/62 31/61/63 17/54/64
f 3/34/65 46/11/66 47/62/67 18/63/68
f 51/59/69 35/40/70 36/41/71 52/60/72
f 51/59/73 52/60/74 17/22/75 20/25/76
f 17/22/77 31/36/78 32/37/79 20/25/80
f 18/23/81 47/55/82 48/56/83 21/26/84
f 50/58/85 34/39/86 35/40/87 51/59/88
f 50/58/89 51/59/90 20/25/91 23/28/92
f 20/25/93 32/37/94 33/38/95 23/28/96
f 21/26/97 48/56/98 49/57/99 24/29/100
f 25/30/101 34/39/102 50/58/103
f 25/30/104 50/58/105 23/28/106
f 23/28/107 33/38/108 25/30/109
f 24/29/110 49/57/111 25/30/112
f 58/73/113 59/33/114 26/32/115 13/74/116
f 7/20/117 28/13/118 27/12/119 10/31/120
f 5/9/121 29/5/122 28/35/123 7/51/124
f 3/34/125 30/6/126 29/5/127 5/9/128
f 31/61/129 30/6/130 3/34/131 18/63/132
f 32/37/133 31/36/134 18/23/135 21/26/136
f 33/38/137 32/37/138 21/26/139 24/29/140
f 25/30/141 33/38/142 24/29/143
f 22/27/144 34/39/145 25/30/146
f 19/24/147 35/40/148 34/39/149 22/27/150
f 16/21/151 36/41/152 35/40/153 19/24/154
f 2/64/155 37/2/156 36/53/157 16/68/158
f 1/69/159 38/3/160 37/2/161 2/64/162
f 39/70/163 38/3/164 1/69/165 9/71/166
f 40/48/167 39/49/168 9/50/169 12/65/170
f 41/75/171 62/76/172 63/77/173 15/78/174
f 63/77/175 64/72/176 42/67/177 15/78/178
f 9/50/179 44/19/180 43/18/181 12/65/182
f 1/69/183 45/10/184 44/44/185 9/71/186
f 46/11/187 45/10/188 1/69/189 2/64/190
f 47/62/191 46/11/192 2/64/193 16/68/194
f 48/56/195 47/55/196 16/21/197 19/24/198
f 49/57/199 48/56/200 19/24/201 22/27/202
f 25/30/203 49/57/204 22/27/205
f 39/70/206 55/43/207 54/4/208 38/3/209
f 40/48/210 56/17/211 55/16/212 39/49/213
f 41/75/214 57/66/215 61/47/216 62/76/217
f 65/86/218 66/87/219 59/33/220 58/73/221
f 60/45/222 59/33/223 66/87/224 67/88/225
f 67/88/226 68/89/227 61/47/228 60/45/229
f 62/76/230 61/47/231 68/89/232 69/90/233
f 63/77/234 62/76/235 69/90/236 70/91/237
f 70/91/238 71/92/239 64/72/240 63/77/241
f 58/73/242 64/72/243 71/92/244 65/86/245
f 10/31/246 27/12/247 66/80/248 65/79/249
f 67/81/250 66/80/251 27/12/252 11/15/253
f 11/15/254 56/17/255 68/82/256 67/81/257
f 69/83/258 68/82/259 56/17/260 40/48/261
f 70/84/262 69/83/263 40/48/264 12/65/265
f 12/65/266 43/18/267 71/85/268 70/84/269
f 65/79/270 71/85/271 43/18/272 10/31/273
f 26/32/274 14/46/275 72/93/276
f 14/46/277 57/66/278 72/93/279
f 57/66/280 41/75/281 72/93/282
f 41/75/283 15/78/284 72/93/285
f 15/78/286 42/67/287 72/93/288
f 42/67/289 13/74/290 72/93/291
f 13/74/292 26/32/293 72/93/294
