# This file uses centimeters as units for non-parametric coordinates.

v 3.530029 103.873535 5.757813
v 3.625488 104.007141 -2.013672
v -3.407715 101.686096 5.560547
v -3.312500 104.009949 -2.177734
v -3.407715 96.968933 5.474609
v -3.311523 97.102905 -2.298828
v 3.626465 97.099854 -2.123047
v 3.530273 96.966125 5.646484
v 3.530273 87.867432 5.482422
v 3.625488 88.001160 -2.289063
v -3.312500 88.003967 -2.453125
v -3.407715 87.870361 5.320313
v 3.530273 11.158508 4.171875
v 3.626465 11.292297 -3.605469
v -3.311523 11.295166 -3.773438
v -3.407715 11.161255 4.000000
v -8.145020 96.880981 10.595703
v -7.919922 97.194824 -7.650391
v -7.920166 88.095703 -7.798828
v -8.144531 87.781982 10.439453
v 8.138672 88.957397 10.851563
v 8.362793 88.089111 -7.402344
v 8.362793 97.187988 -7.250000
v 8.138428 96.874268 10.990234
v -8.145508 -0.153137 8.927734
v -7.919922 0.160339 -9.314453
v 8.362793 0.153687 -8.917969
v 8.137695 -0.159912 9.318359
v 6.433105 11.344604 -6.642578
v 8.138184 11.066650 9.513672
v -7.920166 11.386841 -9.115234
v -8.144531 11.073120 9.123047
v -3.379395 103.916687 3.244141
v -0.520752 103.876282 5.595703
v 3.167725 87.777405 10.710938
v 8.193359 87.851624 6.394531
v 5.630371 87.825439 7.916016
v -3.005371 61.664368 -1.115234
v -3.074219 54.751221 4.388672
v 1.378906 47.607178 4.373047
v 3.292480 53.330811 -2.521484
v 3.279785 54.505371 4.621094
v 3.233887 47.457458 2.152344
v 3.255615 39.551025 4.335938
v -3.071533 69.732666 -2.488281
v -1.390381 60.841919 -2.507813
v -3.029053 56.821655 -2.660156
v 8.307129 11.302673 -4.203125
v 1.555664 11.383179 -8.890625
v 8.362549 9.706848 -8.757813
vt 0.495346 0.182248
vt 0.495592 0.182255
vt 0.458445 0.176610
vt 0.458431 0.176611
vt 0.458429 0.176708
vt 0.458442 0.176717
vt 0.495314 0.182474
vt 0.495561 0.182488
vt 0.495566 0.182222
vt 0.495321 0.182210
vt 0.495290 0.182431
vt 0.495531 0.182444
vt 0.495473 0.182360
vt 0.495243 0.182347
vt 0.495273 0.182136
vt 0.495506 0.182147
vt 0.495040 0.181728
vt 0.494897 0.181723
vt 0.494913 0.181586
vt 0.495057 0.181590
vt 0.458421 0.177610
vt 0.458411 0.177526
vt 0.458249 0.177524
vt 0.458244 0.177607
vt 0.458240 0.176710
vt 0.458246 0.176708
vt 0.458246 0.176612
vt 0.458239 0.176610
vt 0.458258 0.177434
vt 0.458243 0.177505
vt 0.458413 0.177432
vt 0.458423 0.177508
vt 0.458383 0.176610
vt 0.458380 0.176611
vt 0.458379 0.176710
vt 0.458382 0.176714
vt 0.458298 0.176714
vt 0.458299 0.176710
vt 0.458299 0.176611
vt 0.458298 0.176610
vt 0.458296 0.177451
vt 0.458295 0.177483
vt 0.458368 0.177452
vt 0.458370 0.177484
vt 0.495521 0.182257
vt 0.495582 0.182356
vt 0.458302 0.176717
vt 0.458241 0.176715
vt 0.458272 0.176715
vt 0.495172 0.181952
vt 0.495331 0.181931
vt 0.495283 0.182050
vt 0.495105 0.182098
vt 0.495319 0.182136
vt 0.495220 0.182079
vt 0.495238 0.182018
vt 0.495185 0.182001
vt 0.495142 0.181991
vt 0.495124 0.181908
vt 0.458247 0.177449
vt 0.458318 0.177431
vt 0.458249 0.177444
vn -0.000007 0.999852 0.017192
vn -0.000007 0.999852 0.017192
vn -0.000007 0.999852 0.017192
vn -0.000007 0.999852 0.017192
vn -0.000007 0.999852 0.017192
vn -0.999924 0.000193 -0.012315
vn -0.999924 0.000193 -0.012315
vn -0.999924 0.000193 -0.012315
vn -0.999924 0.000193 -0.012315
vn 0.000003 -0.999852 -0.017188
vn 0.000003 -0.999852 -0.017188
vn 0.000003 -0.999852 -0.017188
vn 0.000003 -0.999852 -0.017188
vn 0.999925 -0.000188 0.012291
vn 0.999924 -0.000188 0.012291
vn 0.999924 -0.000188 0.012291
vn 0.999924 -0.000188 0.012291
vn 0.999924 -0.000188 0.012291
vn 0.024466 0.016521 -0.999564
vn 0.024466 0.016521 -0.999564
vn 0.024466 0.016521 -0.999564
vn 0.024466 0.016521 -0.999564
vn -0.024130 -0.017358 0.999558
vn -0.024130 -0.017358 0.999558
vn -0.024130 -0.017358 0.999558
vn -0.024130 -0.017358 0.999558
vn -0.024130 -0.017358 0.999558
vn 0.024488 0.016679 -0.999561
vn 0.024488 0.016679 -0.999561
vn 0.024488 0.016679 -0.999561
vn 0.024488 0.016679 -0.999561
vn 0.999924 -0.000109 0.012329
vn 0.999924 -0.000109 0.012329
vn 0.999924 -0.000109 0.012329
vn 0.999924 -0.000109 0.012329
vn -0.025515 -0.011646 0.999607
vn -0.025515 -0.011646 0.999607
vn -0.025515 -0.011646 0.999607
vn -0.025515 -0.011646 0.999607
vn -0.025515 -0.011646 0.999607
vn 0.999814 0.008390 0.017346
vn 0.999814 0.008390 0.017346
vn 0.999814 0.008390 0.017346
vn 0.999814 0.008390 0.017346
vn 0.999814 0.008390 0.017346
vn -0.553392 0.255604 -0.792732
vn -0.553392 0.255604 -0.792732
vn -0.553392 0.255604 -0.792732
vn -0.030834 -0.026857 0.999164
vn -0.030834 -0.026857 0.999164
vn -0.030834 -0.026857 0.999164
vn -0.030834 -0.026857 0.999164
vn -0.030834 -0.026857 0.999164
vn 0.999924 -0.000233 0.012316
vn 0.999924 -0.000233 0.012316
vn 0.999924 -0.000233 0.012316
vn 0.999924 -0.000233 0.012316
vn 0.999924 -0.000233 0.012316
vn 0.024021 0.017277 -0.999562
vn 0.024021 0.017277 -0.999562
vn 0.024021 0.017277 -0.999562
vn 0.024021 0.017277 -0.999562
vn 0.024021 0.017277 -0.999562
vn -0.999924 0.000249 -0.012329
vn -0.999924 0.000249 -0.012329
vn -0.999924 0.000249 -0.012329
vn -0.999924 0.000249 -0.012329
vn -0.023986 -0.017388 0.999561
vn -0.023986 -0.017388 0.999561
vn -0.023986 -0.017388 0.999561
vn -0.023986 -0.017388 0.999561
vn 0.000000 0.999852 0.017209
vn 0.000000 0.999852 0.017209
vn 0.000000 0.999852 0.017209
vn 0.000000 0.999852 0.017209
vn 0.000058 -0.999852 -0.017194
vn 0.000058 -0.999852 -0.017194
vn 0.000058 -0.999852 -0.017194
vn 0.000058 -0.999852 -0.017194
vn -0.000018 -0.999852 -0.017211
vn -0.000018 -0.999852 -0.017211
vn -0.000018 -0.999852 -0.017211
vn -0.000018 -0.999852 -0.017211
vn -0.000018 -0.999852 -0.017211
vn -0.000001 0.999852 0.017201
vn -0.000001 0.999852 0.017201
vn -0.000001 0.999852 0.017201
vn -0.000001 0.999852 0.017201
vn 0.000010 -0.999852 -0.017178
vn 0.000010 -0.999853 -0.017178
vn 0.000010 -0.999853 -0.017178
vn 0.000010 -0.999852 -0.017178
vn -0.000001 0.999852 0.017180
vn -0.000001 0.999852 0.017180
vn -0.000001 0.999852 0.017180
vn -0.000001 0.999852 0.017180
vn -0.000009 0.999852 0.017179
vn -0.000009 0.999852 0.017179
vn -0.000009 0.999852 0.017179
vn -0.000009 0.999852 0.017179
vn -0.000006 -0.999852 -0.017237
vn -0.000006 -0.999852 -0.017237
vn -0.000006 -0.999851 -0.017237
vn -0.000006 -0.999851 -0.017237
vn -0.000006 -0.999852 -0.017237
vn -0.000016 0.999852 0.017202
vn -0.000016 0.999852 0.017202
vn -0.000016 0.999852 0.017202
vn -0.000016 0.999852 0.017202
vn -0.000016 0.999852 0.017202
vn -0.000015 0.999852 0.017188
vn -0.000015 0.999852 0.017188
vn -0.000015 0.999852 0.017188
vn -0.000015 0.999852 0.017188
vn -0.000015 0.999852 0.017188
vn -0.000024 0.999852 0.017206
vn -0.000024 0.999852 0.017206
vn -0.000024 0.999852 0.017206
vn -0.000024 0.999852 0.017206
vn -0.000020 0.999852 0.017197
vn -0.000020 0.999852 0.017197
vn -0.000020 0.999852 0.017197
vn -0.000020 0.999852 0.017197
vn -0.486908 0.632135 0.602765
vn -0.486908 0.632135 0.602765
vn -0.486908 0.632135 0.602766
vn -0.999924 0.000106 -0.012320
vn -0.999924 0.000106 -0.012320
vn -0.999924 0.000106 -0.012320
vn -0.999924 0.000106 -0.012320
vn -0.999924 0.000106 -0.012320
vn 0.152121 -0.958842 0.239754
vn 0.152121 -0.958842 0.239754
vn 0.152121 -0.958842 0.239754
vn 0.222400 -0.958291 0.179489
vn 0.222400 -0.958291 0.179489
vn 0.222400 -0.958291 0.179489
vn 0.999935 -0.008605 0.007430
vn 0.999935 -0.008605 0.007430
vn 0.999935 -0.008605 0.007430
vn 0.999935 -0.008605 0.007430
vn 0.999935 -0.008605 0.007430
vn -0.684206 -0.127799 -0.718004
vn -0.684206 -0.127799 -0.718004
vn -0.684206 -0.127799 -0.718004
vn -0.017239 -0.007590 0.999823
vn -0.017239 -0.007590 0.999823
vn -0.017239 -0.007590 0.999823
vn -0.017239 -0.007590 0.999823
vn -0.017239 -0.007590 0.999823
vn 0.739925 -0.226669 0.633350
vn 0.739925 -0.226669 0.633350
vn 0.739925 -0.226669 0.633350
vn 0.761454 0.174508 0.624287
vn 0.761454 0.174508 0.624287
vn 0.761454 0.174508 0.624287
vn 0.014882 0.004823 -0.999878
vn 0.014882 0.004823 -0.999878
vn 0.014882 0.004823 -0.999878
vn 0.014882 0.004823 -0.999878
vn 0.014882 0.004823 -0.999878
vn 0.029986 0.025016 -0.999237
vn 0.029986 0.025016 -0.999237
vn 0.029986 0.025016 -0.999237
vn 0.029986 0.025016 -0.999237
vn 0.029986 0.025016 -0.999237
vn -0.999941 0.007016 -0.008277
vn -0.999941 0.007016 -0.008277
vn -0.999941 0.007016 -0.008277
vn -0.999941 0.007016 -0.008277
vn -0.999941 0.007016 -0.008277
vn -0.999763 -0.011031 -0.018793
vn -0.999763 -0.011031 -0.018793
vn -0.999763 -0.011031 -0.018793
vn -0.999763 -0.011031 -0.018793
vn -0.999763 -0.011031 -0.018793
vn 0.220407 0.858261 -0.463475
vn 0.220407 0.858261 -0.463475
vn 0.220407 0.858261 -0.463475
vn 0.406787 0.863670 -0.297654
vn 0.406787 0.863670 -0.297654
vn 0.406787 0.863670 -0.297654
s off
f 4/1/1 33/45/2 34/46/3 1/8/4 2/7/5
f 17/3/6 18/4/7 19/5/8 20/6/9
f 25/21/10 26/22/11 27/23/12 28/24/13
f 21/25/14 36/48/15 22/26/16 23/27/17 24/28/18
f 22/26/19 19/5/20 18/4/21 23/27/22
f 24/28/23 17/3/24 20/6/25 35/47/26 21/25/27
f 7/11/28 6/10/29 4/1/30 2/7/31
f 8/12/32 7/11/33 2/7/34 1/8/35
f 1/8/36 34/46/37 3/2/38 5/9/39 8/12/40
f 13/17/41 14/18/42 41/53/43 43/55/44 44/56/45
f 46/58/46 47/59/47 38/50/48
f 9/13/49 12/16/50 39/51/51 40/52/52 42/54/53
f 28/24/54 27/23/55 50/62/56 48/60/57 30/30/58
f 26/22/59 31/31/60 49/61/61 50/62/62 27/23/63
f 32/32/64 31/31/65 26/22/66 25/21/67
f 30/30/68 32/32/69 25/21/70 28/24/71
f 5/33/72 6/34/73 18/4/74 17/3/75
f 11/35/76 12/36/77 20/6/78 19/5/79
f 9/37/80 10/38/81 22/26/82 36/48/83 37/49/84
f 7/39/85 8/40/86 24/28/87 23/27/88
f 10/38/89 11/35/90 19/5/91 22/26/92
f 6/34/93 7/39/94 23/27/95 18/4/96
f 8/40/97 5/33/98 17/3/99 24/28/100
f 12/36/101 9/37/102 37/49/103 35/47/104 20/6/105
f 14/41/106 13/42/107 30/30/108 48/60/109 29/29/110
f 15/43/111 14/41/112 29/29/113 49/61/114 31/31/115
f 16/44/116 15/43/117 31/31/118 32/32/119
f 13/42/120 16/44/121 32/32/122 30/30/123
f 34/46/124 33/45/125 3/2/126
f 3/2/127 33/45/128 4/1/129 6/10/130 5/9/131
f 37/49/132 36/48/133 21/25/134
f 35/47/135 37/49/136 21/25/137
f 42/54/138 43/55/139 41/53/140 10/14/141 9/13/142
f 45/57/143 46/58/144 38/50/145
f 44/56/146 40/52/147 39/51/148 16/20/149 13/17/150
f 40/52/151 43/55/152 42/54/153
f 44/56/154 43/55/155 40/52/156
f 41/53/157 46/58/158 45/57/159 11/15/160 10/14/161
f 14/18/162 15/19/163 47/59/164 46/58/165 41/53/166
f 39/51/167 38/50/168 47/59/169 15/19/170 16/20/171
f 12/16/172 11/15/173 45/57/174 38/50/175 39/51/176
f 50/62/177 49/61/178 29/29/179
f 48/60/180 50/62/181 29/29/182
