# This file uses centimeters as units for non-parametric coordinates.

v -40.688904 -0.000049 40.691387
v 40.688904 -0.000049 40.691387
v -27.447130 51.824768 27.447130
v 27.442163 51.824768 27.447130
v -27.447130 51.824768 -27.444647
v 27.442163 51.824768 -27.444647
v -40.688904 -0.000049 -40.688904
v 40.688904 -0.000049 -40.688904
v -40.688904 37.901669 40.691387
v 40.688904 37.901669 40.691387
v 40.688904 37.901669 -40.688904
v -40.688904 37.901669 -40.688904
v -40.688904 13.893742 40.691387
v 40.688904 13.893742 40.691387
v 40.688904 13.893742 -40.688904
v -40.688904 13.893742 -40.688904
v -49.877682 17.323177 49.882648
v 49.872715 17.323177 49.882648
v 49.872715 37.901867 49.882648
v -49.877682 37.901867 49.882648
v 49.872715 17.323177 -49.875198
v 49.872715 37.901867 -49.875198
v -49.877682 37.901867 -49.875198
v -49.877682 17.323177 -49.875198
v -24.998444 -9.391013 -24.998444
v 24.998444 -9.391013 -24.998444
v 24.998444 -9.391013 24.998444
v -24.998444 -9.391013 24.998444
vt 0.197865 0.302867
vt 0.197112 0.302819
vt 0.197253 0.302657
vt 0.197756 0.302688
vt 0.197338 0.302456
vt 0.197807 0.302483
vt 0.197250 0.302513
vt 0.197927 0.302552
vt 0.197774 0.302958
vt 0.197362 0.302931
vt 0.197290 0.303136
vt 0.197728 0.303168
vt 0.197938 0.303085
vt 0.197018 0.303021
vt 0.197010 0.302852
vt 0.197944 0.302913
vt 0.197194 0.302631
vt 0.197189 0.302478
vt 0.198010 0.302525
vt 0.198004 0.302680
vt 0.197856 0.303176
vt 0.197123 0.303124
vt 0.197119 0.303014
vt 0.197859 0.303065
vt 0.197257 0.302795
vt 0.197254 0.302693
vt 0.197921 0.302734
vt 0.197918 0.302837
vn 0.000000 0.689223 0.724549
vn 0.000000 0.689223 0.724549
vn 0.000000 0.689223 0.724550
vn 0.000000 0.689223 0.724550
vn 0.000000 1.000000 0.000000
vn 0.000000 1.000000 0.000000
vn 0.000000 1.000000 0.000000
vn 0.000000 1.000000 0.000000
vn 0.000000 0.689223 -0.724550
vn 0.000000 0.689223 -0.724550
vn 0.000000 0.689223 -0.724549
vn 0.000000 0.689223 -0.724549
vn 0.000000 -1.000000 0.000000
vn 0.000000 -1.000000 0.000000
vn 0.000000 -1.000000 0.000000
vn 0.000000 -1.000000 0.000000
vn 0.724485 0.689291 0.000000
vn 0.724485 0.689291 0.000000
vn 0.724485 0.689291 0.000000
vn 0.724485 0.689291 0.000000
vn -0.724614 0.689155 0.000000
vn -0.724614 0.689155 0.000000
vn -0.724614 0.689155 0.000000
vn -0.724614 0.689155 0.000000
vn 0.000000 0.000000 1.000000
vn 0.000000 0.000000 1.000000
vn 0.000000 0.000000 1.000000
vn 0.000000 0.000000 1.000000
vn 1.000000 0.000000 0.000000
vn 1.000000 0.000000 0.000000
vn 1.000000 0.000000 0.000000
vn 1.000000 0.000000 0.000000
vn 0.000000 0.000000 -1.000000
vn 0.000000 0.000000 -1.000000
vn 0.000000 0.000000 -1.000000
vn 0.000000 0.000000 -1.000000
vn -1.000000 0.000000 0.000000
vn -1.000000 0.000000 0.000000
vn -1.000000 0.000000 0.000000
vn -1.000000 0.000000 0.000000
vn 0.000000 0.000000 1.000000
vn 0.000000 0.000000 1.000000
vn 0.000000 0.000000 1.000000
vn 0.000000 0.000000 1.000000
vn 1.000000 0.000000 0.000000
vn 1.000000 0.000000 0.000000
vn 1.000000 0.000000 0.000000
vn 1.000000 0.000000 0.000000
vn 0.000000 0.000000 -1.000000
vn 0.000000 0.000000 -1.000000
vn 0.000000 0.000000 -1.000000
vn 0.000000 0.000000 -1.000000
vn -1.000000 0.000000 0.000000
vn -1.000000 0.000000 0.000000
vn -1.000000 0.000000 0.000000
vn -1.000000 0.000000 0.000000
vn 0.000000 -0.936907 0.349578
vn 0.000000 -0.936907 0.349578
vn 0.000000 -0.936907 0.349578
vn 0.000000 -0.936907 0.349578
vn 0.000000 1.000000 -0.000022
vn 0.000000 1.000000 -0.000022
vn 0.000000 1.000000 -0.000022
vn 0.000000 1.000000 -0.000022
vn 0.349827 -0.936814 0.000000
vn 0.349827 -0.936814 0.000000
vn 0.349827 -0.936814 0.000000
vn 0.349827 -0.936814 0.000000
vn -0.000022 1.000000 0.000000
vn -0.000022 1.000000 0.000000
vn -0.000022 1.000000 0.000000
vn -0.000022 1.000000 0.000000
vn 0.000000 1.000000 0.000021
vn 0.000000 1.000000 0.000021
vn 0.000000 1.000000 0.000021
vn 0.000000 1.000000 0.000021
vn 0.000000 -0.936845 -0.349744
vn 0.000000 -0.936845 -0.349744
vn 0.000000 -0.936845 -0.349744
vn 0.000000 -0.936845 -0.349744
vn -0.349661 -0.936876 0.000000
vn -0.349661 -0.936876 0.000000
vn -0.349661 -0.936876 0.000000
vn -0.349661 -0.936876 0.000000
vn 0.000022 1.000000 0.000000
vn 0.000022 1.000000 0.000000
vn 0.000022 1.000000 0.000000
vn 0.000022 1.000000 0.000000
vn 0.000000 -0.858055 -0.513558
vn 0.000000 -0.858055 -0.513558
vn 0.000000 -0.858055 -0.513558
vn 0.000000 -0.858055 -0.513558
vn 0.513558 -0.858055 0.000000
vn 0.513558 -0.858055 0.000000
vn 0.513558 -0.858055 0.000000
vn 0.513558 -0.858055 0.000000
vn 0.000000 -0.858091 0.513498
vn 0.000000 -0.858091 0.513498
vn 0.000000 -0.858091 0.513498
vn 0.000000 -0.858091 0.513498
vn -0.513558 -0.858055 0.000000
vn -0.513558 -0.858055 0.000000
vn -0.513558 -0.858055 0.000000
vn -0.513558 -0.858055 0.000000
s off
f 9/1/1 10/2/2 4/3/3 3/4/4
f 3/4/5 4/3/6 6/5/7 5/6/8
f 5/6/9 6/5/10 11/7/11 12/8/12
f 25/9/13 26/10/14 27/11/15 28/12/16
f 10/2/17 11/7/18 6/5/19 4/3/20
f 12/8/21 9/1/22 3/4/23 5/6/24
f 17/13/25 18/14/26 19/15/27 20/16/28
f 18/14/29 21/17/30 22/18/31 19/15/32
f 23/19/33 22/18/34 21/17/35 24/20/36
f 24/20/37 17/13/38 20/16/39 23/19/40
f 1/21/41 2/22/42 14/23/43 13/24/44
f 2/22/45 8/25/46 15/26/47 14/23/48
f 16/27/49 15/26/50 8/25/51 7/28/52
f 7/28/53 1/21/54 13/24/55 16/27/56
f 13/24/57 14/23/58 18/14/59 17/13/60
f 10/2/61 9/1/62 20/16/63 19/15/64
f 14/23/65 15/26/66 21/17/67 18/14/68
f 11/7/69 10/2/70 19/15/71 22/18/72
f 12/8/73 11/7/74 22/18/75 23/19/76
f 15/26/77 16/27/78 24/20/79 21/17/80
f 16/27/81 13/24/82 17/13/83 24/20/84
f 9/1/85 12/8/86 23/19/87 20/16/88
f 7/28/89 8/25/90 26/10/91 25/9/92
f 8/25/93 2/22/94 27/11/95 26/10/96
f 2/22/97 1/21/98 28/12/99 27/11/100
f 1/21/101 7/28/102 25/9/103 28/12/104
