# This file uses centimeters as units for non-parametric coordinates.

v 119.516266 254.549423 205.454880
v 119.516266 112.819984 205.454880
v 85.479233 112.819984 171.417847
v 85.479233 256.995636 171.417847
v 89.836639 271.197540 175.775253
v 99.878372 277.080109 185.816986
v 111.772629 270.022339 197.711243
v 74.447388 271.197540 160.386002
v 78.804794 256.995636 164.743408
v 78.804794 112.819984 164.743408
v 44.767776 112.819984 130.706390
v 44.767776 254.549423 130.706390
v 52.511414 270.022339 138.449997
v 64.404266 277.080109 150.342880
v 105.756973 320.554443 191.687286
v 98.837036 296.944244 184.775803
v 82.142639 287.164581 168.081406
v 65.446838 296.944244 151.385605
v 58.535355 320.554443 144.465668
v 65.451065 344.164642 151.381378
v 82.146866 353.944305 168.077179
v 98.841263 344.164642 184.771576
v 45.615982 278.504028 131.554596
v 50.337036 322.451080 136.271194
v 59.422684 351.843903 145.357147
v 82.142700 375.630890 168.081314
v 104.864120 351.843903 190.798584
v 114.214096 323.020355 200.148315
v 118.363739 277.922638 204.302353
v 118.363739 267.377899 204.302353
v 115.695404 276.220581 201.634018
v 98.138672 286.801270 184.077286
v 102.306122 289.269226 188.244736
v 82.146851 363.044342 168.077164
v 62.512451 288.311981 148.451065
v 66.667892 285.851288 152.606506
v 48.794434 276.446014 134.733017
v 46.089905 267.483368 132.028519
v 100.872162 221.455505 186.810776
v 63.411713 221.455505 149.350296
v 82.144745 320.554443 168.078232
v 111.694397 291.878815 197.631729
v 52.542603 291.328430 138.479935
v 120.189598 254.549423 204.781555
v 120.189598 112.819984 204.781555
v 86.152565 112.819984 170.744522
v 86.152565 256.995636 170.744522
v 90.509972 271.197540 175.101929
v 100.551704 277.080109 185.143661
v 112.445961 270.022339 197.037918
v 75.120720 271.197540 159.712677
v 79.478127 256.995636 164.070084
v 79.478127 112.819984 164.070084
v 45.441109 112.819984 130.033066
v 45.441109 254.549423 130.033066
v 53.184746 270.022339 137.776672
v 65.077599 277.080109 149.669556
v 106.430305 320.554443 191.013962
v 99.510368 296.944244 184.102478
v 82.815971 287.164581 167.408081
v 66.120171 296.944244 150.712280
v 59.208687 320.554443 143.792343
v 66.124397 344.164642 150.708054
v 82.820198 353.944305 167.403854
v 99.514595 344.164642 184.098251
v 46.289314 278.504028 130.881271
v 51.010368 322.451080 135.597870
v 60.096016 351.843903 144.683823
v 82.816032 375.630890 167.407990
v 105.537453 351.843903 190.125259
v 114.887428 323.020355 199.474991
v 119.037071 277.922638 203.629028
v 119.037071 267.377899 203.629028
v 116.368736 276.220581 200.960693
v 98.812004 286.801270 183.403961
v 102.979454 289.269226 187.571411
v 82.820183 363.044342 167.403839
v 63.185783 288.311981 147.777740
v 67.341225 285.851288 151.933182
v 49.467766 276.446014 134.059692
v 46.763237 267.483368 131.355194
v 101.545494 221.455505 186.137451
v 64.085045 221.455505 148.676971
v 82.818077 320.554443 167.404907
v 112.367729 291.878815 196.958405
v 53.215935 291.328430 137.806610
vt 0.133270 0.204697
vt 0.133270 0.204697
vt 0.133270 0.204697
vt 0.133255 0.204697
vt 0.133255 0.204697
vt 0.133270 0.204681
vt 0.133270 0.204681
vt 0.133270 0.204681
vt 0.133255 0.204681
vt 0.133255 0.204697
vt 0.133255 0.204697
vt 0.133255 0.204697
vt 0.133255 0.204697
vt 0.133255 0.204697
vt 0.133255 0.204681
vt 0.133255 0.204681
vt 0.102661 0.207107
vt 0.102661 0.207107
vt 0.102661 0.207107
vt 0.102661 0.207107
vt 0.102661 0.207107
vt 0.102661 0.207107
vt 0.102661 0.207107
vt 0.102646 0.207107
vt 0.102646 0.207107
vt 0.102646 0.207107
vt 0.102646 0.207107
vt 0.102646 0.207107
vt 0.102646 0.207107
vt 0.102646 0.207107
vt 0.102051 0.207092
vt 0.102051 0.207092
vt 0.102051 0.207092
vt 0.102051 0.207092
vt 0.112854 0.205902
vt 0.112854 0.205902
vt 0.112854 0.205902
vt 0.112854 0.205902
vt 0.112854 0.205902
vt 0.112854 0.205902
vt 0.112854 0.205902
vt 0.112854 0.205902
vt 0.112854 0.205902
vt 0.133270 0.204697
vt 0.133270 0.204697
vt 0.133270 0.204697
vt 0.133255 0.204697
vt 0.133255 0.204697
vt 0.133270 0.204681
vt 0.133270 0.204681
vt 0.133270 0.204681
vt 0.133255 0.204681
vt 0.133255 0.204697
vt 0.133255 0.204697
vt 0.133255 0.204697
vt 0.133255 0.204697
vt 0.133255 0.204697
vt 0.133255 0.204681
vt 0.133255 0.204681
vt 0.112854 0.205902
vt 0.112854 0.205902
vt 0.112854 0.205902
vt 0.112854 0.205902
vt 0.112854 0.205902
vt 0.112854 0.205902
vt 0.112854 0.205902
vt 0.112854 0.205902
vt 0.112854 0.205902
vt 0.102661 0.207107
vt 0.102661 0.207107
vt 0.102661 0.207107
vt 0.102661 0.207107
vt 0.102661 0.207107
vt 0.102661 0.207107
vt 0.102661 0.207107
vt 0.102646 0.207107
vt 0.102646 0.207107
vt 0.102646 0.207107
vt 0.102646 0.207107
vt 0.102646 0.207107
vt 0.102051 0.207092
vt 0.102051 0.207092
vt 0.102051 0.207092
vt 0.102051 0.207092
vt 0.102646 0.207107
vt 0.102646 0.207107
vn -0.707106 0.000000 0.707107
vn -0.707106 0.000000 0.707107
vn -0.707106 0.000000 0.707107
vn -0.707107 0.000000 0.707107
vn -0.707107 0.000000 0.707107
vn -0.707107 0.000000 0.707107
vn -0.707107 0.000000 0.707107
vn -0.707107 0.000000 0.707107
vn -0.707107 0.000000 0.707107
vn -0.707107 -0.000000 0.707106
vn -0.707107 -0.000000 0.707106
vn -0.707107 -0.000000 0.707106
vn -0.707106 0.000000 0.707107
vn -0.707106 0.000000 0.707107
vn -0.707106 0.000000 0.707107
vn -0.707107 0.000000 0.707106
vn -0.707107 0.000000 0.707106
vn -0.707107 0.000000 0.707106
vn -0.707107 -0.000000 0.707107
vn -0.707107 -0.000000 0.707107
vn -0.707107 -0.000000 0.707107
vn -0.707106 -0.000000 0.707107
vn -0.707106 -0.000000 0.707107
vn -0.707106 -0.000000 0.707107
vn -0.707109 0.000000 0.707105
vn -0.707109 0.000000 0.707105
vn -0.707109 0.000000 0.707105
vn -0.707106 0.000000 0.707107
vn -0.707106 0.000000 0.707107
vn -0.707106 0.000000 0.707107
vn -0.707107 0.000000 0.707106
vn -0.707107 0.000000 0.707106
vn -0.707107 0.000000 0.707106
vn -0.707105 0.000000 0.707108
vn -0.707105 0.000000 0.707108
vn -0.707105 0.000000 0.707108
vn -0.707108 -0.000001 0.707106
vn -0.707108 -0.000001 0.707106
vn -0.707108 -0.000001 0.707106
vn -0.707107 -0.000000 0.707107
vn -0.707107 -0.000000 0.707107
vn -0.707107 -0.000000 0.707107
vn -0.707058 0.000226 0.707155
vn -0.707058 0.000226 0.707155
vn -0.707058 0.000226 0.707155
vn -0.707140 0.000112 0.707074
vn -0.707140 0.000112 0.707074
vn -0.707140 0.000112 0.707074
vn -0.707075 0.000112 0.707139
vn -0.707075 0.000112 0.707139
vn -0.707075 0.000112 0.707139
vn -0.707154 0.000225 0.707059
vn -0.707154 0.000225 0.707059
vn -0.707154 0.000225 0.707059
vn -0.707153 0.000028 0.707061
vn -0.707153 0.000028 0.707061
vn -0.707153 0.000028 0.707061
vn -0.707127 0.000067 0.707087
vn -0.707127 0.000067 0.707087
vn -0.707127 0.000067 0.707087
vn -0.707087 0.000067 0.707126
vn -0.707087 0.000067 0.707126
vn -0.707087 0.000067 0.707126
vn -0.707059 0.000028 0.707155
vn -0.707059 0.000028 0.707154
vn -0.707059 0.000028 0.707155
vn -0.707105 0.000070 0.707109
vn -0.707105 0.000070 0.707109
vn -0.707105 0.000070 0.707109
vn -0.707115 0.000030 0.707098
vn -0.707109 0.000000 0.707105
vn -0.707116 0.000033 0.707098
vn -0.707092 0.000032 0.707121
vn -0.707109 0.000002 0.707105
vn -0.707074 0.000065 0.707139
vn -0.707066 0.000065 0.707147
vn -0.707066 0.000065 0.707147
vn -0.707066 0.000065 0.707147
vn -0.707108 0.000072 0.707106
vn -0.707108 0.000072 0.707106
vn -0.707108 0.000072 0.707106
vn -0.707141 0.000067 0.707073
vn -0.707141 0.000067 0.707073
vn -0.707141 0.000067 0.707073
vn -0.707143 0.000076 0.707071
vn -0.707138 0.000066 0.707076
vn -0.707119 0.000030 0.707094
vn -0.707086 0.000049 0.707127
vn -0.707091 0.000033 0.707123
vn -0.707092 0.000030 0.707122
vn -0.707288 -0.000467 0.706926
vn -0.707288 -0.000467 0.706926
vn -0.707288 -0.000467 0.706926
vn -0.706926 -0.000467 0.707287
vn -0.706926 -0.000467 0.707287
vn -0.706926 -0.000467 0.707287
vn -0.707068 0.000076 0.707146
vn -0.707092 0.000032 0.707121
vn -0.707074 0.000065 0.707139
vn -0.707119 0.000048 0.707094
vn -0.707115 0.000030 0.707098
vn -0.707116 0.000033 0.707098
vn -0.707138 0.000066 0.707076
vn -0.707104 -0.000001 0.707110
vn -0.707119 0.000030 0.707094
vn -0.707091 0.000033 0.707123
vn -0.707100 0.000000 0.707113
vn -0.707092 0.000030 0.707122
vn 0.707106 0.000000 -0.707107
vn 0.707106 0.000000 -0.707107
vn 0.707106 0.000000 -0.707107
vn 0.707107 -0.000000 -0.707107
vn 0.707107 -0.000000 -0.707107
vn 0.707107 -0.000000 -0.707107
vn 0.707107 0.000000 -0.707107
vn 0.707107 0.000000 -0.707107
vn 0.707107 0.000000 -0.707107
vn 0.707107 0.000000 -0.707107
vn 0.707107 0.000000 -0.707107
vn 0.707107 0.000000 -0.707107
vn 0.707107 0.000000 -0.707107
vn 0.707107 0.000000 -0.707106
vn 0.707107 0.000000 -0.707106
vn 0.707106 -0.000000 -0.707107
vn 0.707106 -0.000000 -0.707108
vn 0.707106 -0.000000 -0.707107
vn 0.707107 0.000000 -0.707107
vn 0.707107 0.000000 -0.707107
vn 0.707107 0.000000 -0.707107
vn 0.707108 0.000000 -0.707106
vn 0.707108 0.000000 -0.707106
vn 0.707108 0.000000 -0.707106
vn 0.707107 0.000000 -0.707106
vn 0.707107 0.000000 -0.707106
vn 0.707107 0.000000 -0.707106
vn 0.707107 -0.000000 -0.707106
vn 0.707107 -0.000000 -0.707106
vn 0.707107 -0.000000 -0.707106
vn 0.707106 0.000000 -0.707107
vn 0.707106 0.000000 -0.707107
vn 0.707106 0.000000 -0.707107
vn 0.707106 -0.000000 -0.707107
vn 0.707106 -0.000000 -0.707107
vn 0.707106 -0.000000 -0.707107
vn 0.707107 0.000000 -0.707106
vn 0.707107 0.000000 -0.707107
vn 0.707107 0.000000 -0.707107
vn 0.707107 0.000000 -0.707106
vn 0.707107 0.000000 -0.707106
vn 0.707107 0.000000 -0.707106
vn 0.707059 -0.000225 -0.707155
vn 0.707059 -0.000225 -0.707155
vn 0.707059 -0.000225 -0.707155
vn 0.707140 -0.000112 -0.707074
vn 0.707140 -0.000112 -0.707074
vn 0.707140 -0.000112 -0.707074
vn 0.707075 -0.000112 -0.707139
vn 0.707075 -0.000112 -0.707139
vn 0.707075 -0.000112 -0.707139
vn 0.707154 -0.000225 -0.707060
vn 0.707154 -0.000225 -0.707060
vn 0.707154 -0.000225 -0.707060
vn 0.707154 -0.000028 -0.707060
vn 0.707154 -0.000028 -0.707060
vn 0.707154 -0.000028 -0.707060
vn 0.707127 -0.000067 -0.707087
vn 0.707127 -0.000067 -0.707087
vn 0.707127 -0.000067 -0.707087
vn 0.707088 -0.000067 -0.707126
vn 0.707088 -0.000067 -0.707126
vn 0.707088 -0.000067 -0.707126
vn 0.707058 -0.000028 -0.707155
vn 0.707058 -0.000028 -0.707155
vn 0.707059 -0.000028 -0.707155
vn 0.707100 -0.000070 -0.707113
vn 0.707100 -0.000070 -0.707113
vn 0.707100 -0.000070 -0.707113
vn 0.707115 -0.000031 -0.707099
vn 0.707115 -0.000034 -0.707098
vn 0.707107 0.000000 -0.707107
vn 0.707093 -0.000031 -0.707121
vn 0.707076 -0.000066 -0.707138
vn 0.707108 0.000000 -0.707105
vn 0.707068 -0.000064 -0.707145
vn 0.707069 -0.000064 -0.707145
vn 0.707069 -0.000064 -0.707145
vn 0.707110 -0.000072 -0.707104
vn 0.707110 -0.000072 -0.707104
vn 0.707110 -0.000072 -0.707104
vn 0.707142 -0.000067 -0.707071
vn 0.707142 -0.000067 -0.707071
vn 0.707142 -0.000067 -0.707071
vn 0.707142 -0.000076 -0.707072
vn 0.707120 -0.000031 -0.707093
vn 0.707137 -0.000067 -0.707076
vn 0.707089 -0.000049 -0.707124
vn 0.707095 -0.000030 -0.707118
vn 0.707094 -0.000033 -0.707119
vn 0.707288 0.000466 -0.706926
vn 0.707288 0.000466 -0.706926
vn 0.707288 0.000466 -0.706926
vn 0.706927 0.000466 -0.707287
vn 0.706927 0.000466 -0.707287
vn 0.706927 0.000466 -0.707287
vn 0.707070 -0.000078 -0.707144
vn 0.707076 -0.000066 -0.707138
vn 0.707093 -0.000031 -0.707121
vn 0.707119 -0.000050 -0.707094
vn 0.707115 -0.000034 -0.707098
vn 0.707115 -0.000031 -0.707099
vn 0.707137 -0.000067 -0.707076
vn 0.707120 -0.000031 -0.707093
vn 0.707106 0.000000 -0.707108
vn 0.707094 -0.000033 -0.707119
vn 0.707095 -0.000030 -0.707118
vn 0.707104 -0.000000 -0.707109
s off
f 1/1/1 39/3/2 2/2/3
f 2/2/4 39/3/5 3/4/6
f 3/4/7 39/3/8 4/5/9
f 4/5/10 39/3/11 5/6/12
f 5/6/13 39/3/14 6/7/15
f 6/7/16 39/3/17 7/8/18
f 7/8/19 39/3/20 1/1/21
f 8/9/22 40/11/23 9/10/24
f 9/10/25 40/11/26 10/12/27
f 10/12/28 40/11/29 11/13/30
f 11/13/31 40/11/32 12/14/33
f 12/14/34 40/11/35 13/15/36
f 13/15/37 40/11/38 14/16/39
f 14/16/40 40/11/41 8/9/42
f 15/43/43 41/35/44 16/36/45
f 16/36/46 41/35/47 17/42/48
f 17/42/49 41/35/50 18/41/51
f 18/41/52 41/35/53 19/40/54
f 19/40/55 41/35/56 20/39/57
f 20/39/58 41/35/59 21/38/60
f 21/38/61 41/35/62 22/37/63
f 22/37/64 41/35/65 15/43/66
f 28/21/67 42/19/68 29/20/69
f 31/18/70 30/17/71 29/20/72
f 33/22/73 32/23/74 31/18/75
f 33/22/76 42/19/77 28/21/78
f 23/24/79 43/26/80 24/25/81
f 24/25/82 43/26/83 35/27/84
f 43/26/85 37/28/86 35/27/87
f 43/26/88 23/24/89 37/28/90
f 27/31/91 26/33/92 34/32/93
f 34/32/94 26/33/95 25/34/96
f 42/19/97 33/22/98 31/18/99
f 42/19/100 31/18/101 29/20/102
f 37/28/103 36/29/104 35/27/105
f 23/24/106 38/30/107 37/28/108
f 44/44/109 45/45/110 82/46/111
f 45/45/112 46/47/113 82/46/114
f 46/47/115 47/48/116 82/46/117
f 47/48/118 48/49/119 82/46/120
f 48/49/121 49/50/122 82/46/123
f 49/50/124 50/51/125 82/46/126
f 50/51/127 44/44/128 82/46/129
f 51/52/130 52/53/131 83/54/132
f 52/53/133 53/55/134 83/54/135
f 53/55/136 54/56/137 83/54/138
f 54/56/139 55/57/140 83/54/141
f 55/57/142 56/58/143 83/54/144
f 56/58/145 57/59/146 83/54/147
f 57/59/148 51/52/149 83/54/150
f 58/60/151 59/61/152 84/62/153
f 59/61/154 60/63/155 84/62/156
f 60/63/157 61/64/158 84/62/159
f 61/64/160 62/65/161 84/62/162
f 62/65/163 63/66/164 84/62/165
f 63/66/166 64/67/167 84/62/168
f 64/67/169 65/68/170 84/62/171
f 65/68/172 58/60/173 84/62/174
f 71/69/175 72/70/176 85/71/177
f 74/72/178 72/70/179 73/73/180
f 76/74/181 74/72/182 75/75/183
f 76/74/184 71/69/185 85/71/186
f 66/76/187 67/77/188 86/78/189
f 67/77/190 78/79/191 86/78/192
f 86/78/193 78/79/194 80/80/195
f 86/78/196 80/80/197 66/76/198
f 70/81/199 77/82/200 69/83/201
f 77/82/202 68/84/203 69/83/204
f 85/71/205 74/72/206 76/74/207
f 85/71/208 72/70/209 74/72/210
f 80/80/211 78/79/212 79/85/213
f 66/76/214 80/80/215 81/86/216
