# This file uses centimeters as units for non-parametric coordinates.

v -25.001953 499.999878 0.000000
v -3.830078 499.999878 105.179688
v 55.748047 499.999878 194.347656
v 144.916016 499.999878 253.925781
v 249.998047 499.999878 275.000000
v 24.998047 499.999878 0.000000
v 41.900391 499.999878 86.234375
v 90.751953 499.999878 159.343750
v 163.861328 499.999878 208.195313
v 249.998047 499.999878 225.000000
v -0.001953 499.999878 0.000000
v 19.037109 499.999878 95.707031
v 73.251953 499.999878 176.843750
v 154.388672 499.999878 231.058594
v 249.998047 499.999878 250.000000
v -25.001953 0.000000 0.000000
v 55.748047 0.000000 194.347656
v 249.998047 0.000000 275.000000
v 24.998047 0.000000 0.000000
v 90.751953 0.000000 159.343750
v 249.998047 0.000000 225.000000
v -0.001953 0.000000 0.000000
v 249.998047 0.000000 250.000000
v 73.251953 0.000000 176.843750
v -25.001953 449.999878 0.000000
v 55.748047 449.999878 194.347656
v 249.998047 449.999878 275.000000
v 249.998047 449.999878 250.000000
v 249.998047 449.999878 225.000000
v 90.751953 449.999878 159.343750
v 24.998047 449.999878 0.000000
v -0.001953 449.999878 0.000000
v 25.958984 0.000000 149.765625
v 46.142578 0.000000 136.273438
v 66.326172 0.000000 122.789063
v 66.326172 449.999878 122.789063
v 25.958984 449.999878 149.765625
v 100.333984 0.000000 224.136719
v 113.818359 0.000000 203.953125
v 127.306641 0.000000 183.765625
v 127.306641 449.999878 183.769531
v 100.333984 449.999878 224.136719
v -14.416016 0.000000 52.589844
v 9.517578 0.000000 47.851563
v 33.451172 0.000000 43.117188
v 33.447266 449.999878 43.117188
v -14.416016 449.999878 52.589844
v 197.458984 0.000000 264.460938
v 202.193359 0.000000 240.531250
v 206.931641 0.000000 216.593750
v 206.931641 449.999878 216.597656
v 197.458984 449.999878 264.460938
v -9.123047 474.999878 78.882813
v 37.673828 474.999878 64.675781
v 54.111328 474.999878 104.511719
v 11.064453 474.999878 127.472656
v 122.626953 474.999878 239.031250
v 145.583984 474.999878 195.984375
v 185.396484 474.999878 212.398438
v 171.189453 474.999878 259.195313
v 144.916016 482.499878 253.925781
v -3.830078 482.499878 105.179688
v 163.861328 482.499878 208.195313
v 41.900391 482.499878 86.234375
vt 0.016707 0.029633
vt 0.016888 0.029627
vt 0.016876 0.029646
vt 0.016708 0.029651
vt 0.017056 0.029650
vt 0.017031 0.029667
vt 0.017205 0.029702
vt 0.017167 0.029717
vt 0.017324 0.029793
vt 0.017270 0.029801
vt 0.016706 0.029616
vt 0.016899 0.029610
vt 0.017079 0.029633
vt 0.017242 0.029689
vt 0.017378 0.029785
vt 0.017361 0.029880
vt 0.002725 1.996422
vt 0.249857 1.996434
vt 0.496671 1.996431
vt 0.743483 1.996434
vt 0.989914 1.996259
vt 0.017311 0.029889
vt 0.017260 0.029898
vt 0.017064 0.030008
vt 0.989900 1.996259
vt 0.743486 1.996434
vt 0.496672 1.996431
vt 0.249857 1.996434
vt 0.002722 1.996422
vt 0.016996 0.029993
vt 0.016982 0.030016
vt 0.017045 0.030030
vt 0.017271 0.030183
vt 0.017224 0.030126
vt 0.017189 0.030140
vt 0.017229 0.030192
vt 0.017312 0.030173
vt 0.017259 0.030112
vt 0.017083 0.029987
vt 0.017009 0.029972
vt 0.016727 0.029737
vt 0.016725 0.029717
vt 0.016724 0.029699
vt 0.311561 1.951658
vt 0.249857 1.966449
vt 0.805189 1.951658
vt 0.743484 1.966449
vt 0.016784 0.029987
vt 0.016787 0.030010
vt 0.016782 0.029965
vt 0.805191 1.951658
vt 0.743487 1.966449
vt 0.681783 1.951658
vt 0.311559 1.951658
vt 0.249855 1.966449
vt 0.188152 1.951658
vt 0.017121 0.030040
vt 0.017145 0.030021
vt 0.017097 0.030060
vt 0.373264 1.902353
vt 0.373264 1.006702
vt 0.496672 1.006702
vt 0.496672 1.902353
vt 0.866893 1.902353
vt 0.866893 1.006702
vt 0.990301 1.006702
vt 0.990301 1.902353
vt 0.016857 0.029983
vt 0.016860 0.029961
vt 0.016854 0.030006
vt 0.990301 1.006702
vt 0.866894 1.006702
vt 0.866894 1.902353
vt 0.990301 1.902353
vt 0.496671 1.006702
vt 0.373263 1.006702
vt 0.373263 1.902353
vt 0.496672 1.902353
vt 0.016807 0.029734
vt 0.016817 0.029695
vt 0.017096 0.029780
vt 0.017154 0.029746
vt 0.016918 0.029695
vt 0.016946 0.029658
vt 0.620079 1.902353
vt 0.620078 1.006702
vt 0.620078 1.006702
vt 0.620078 1.902353
vt 0.016903 0.029640
vt 0.016880 0.029676
vt 0.016841 0.029691
vt 0.016857 0.029654
vt 0.016959 0.029742
vt 0.016992 0.029704
vt 0.126449 1.902353
vt 0.126449 1.006702
vt 0.003044 1.006702
vt 0.003044 1.902353
vt 0.003044 1.006702
vt 0.126450 1.006702
vt 0.126450 1.902353
vt 0.003044 1.902353
vt 0.681781 1.951658
vt 0.188153 1.951658
vt 0.017239 0.029721
vt 0.017165 0.029750
vt 0.017188 0.029784
vt 0.017268 0.029757
vt 0.017130 0.029750
vt 0.017196 0.029719
vt 0.017294 0.029825
vt 0.017209 0.029850
vn 0.000000 1.000000 0.000000
vn 0.000000 1.000000 0.000000
vn 0.000000 1.000000 -0.000000
vn 0.000000 1.000000 -0.000000
vn 0.000000 1.000000 -0.000000
vn 0.000000 1.000000 -0.000000
vn 0.000000 1.000000 -0.000000
vn 0.000000 1.000000 -0.000000
vn 0.000000 1.000000 -0.000000
vn 0.000000 1.000000 -0.000000
vn 0.000000 1.000000 0.000001
vn 0.000000 1.000000 0.000001
vn 0.000000 1.000000 -0.000000
vn 0.000000 1.000000 -0.000000
vn 0.000000 1.000000 -0.000000
vn 0.000000 1.000000 -0.000000
vn 0.000000 1.000000 0.000000
vn 0.000000 1.000000 0.000000
vn 0.000000 1.000000 0.000000
vn 0.000000 1.000000 0.000000
vn 0.000000 1.000000 -0.000000
vn 0.000000 1.000000 -0.000000
vn 0.000000 1.000000 -0.000000
vn 0.000000 1.000000 -0.000000
vn 0.000000 1.000000 -0.000001
vn 0.000000 1.000000 -0.000001
vn 0.000000 1.000000 -0.000000
vn 0.000000 1.000000 -0.000000
vn 0.000000 1.000000 -0.000000
vn 0.000000 1.000000 -0.000000
vn 0.000000 1.000000 -0.000000
vn 0.000000 1.000000 -0.000000
vn -0.831474 0.000012 0.555564
vn -0.831480 0.000018 0.555555
vn -0.831480 0.000018 0.555555
vn -0.831477 0.000015 0.555560
vn -0.555555 -0.000033 0.831480
vn -0.555565 -0.000055 0.831473
vn -0.555565 -0.000055 0.831473
vn -0.555543 -0.000007 0.831488
vn -0.196639 -0.000008 0.980476
vn -0.196641 -0.000032 0.980475
vn -0.196637 0.000013 0.980476
vn -0.196637 0.000013 0.980476
vn 1.000000 0.000000 0.000000
vn 1.000000 0.000000 0.000000
vn 1.000000 0.000000 0.000000
vn 1.000000 0.000000 0.000000
vn 1.000000 0.000000 0.000000
vn 1.000000 0.000000 0.000000
vn 1.000000 0.000000 0.000000
vn 1.000000 0.000000 0.000000
vn 0.000000 -1.000000 0.000000
vn 0.000000 -1.000000 0.000000
vn 0.000000 -1.000000 0.000000
vn 0.000000 -1.000000 0.000000
vn 0.000000 -1.000000 0.000000
vn 0.000000 -1.000000 0.000000
vn 0.000000 -1.000000 0.000000
vn 0.000000 -1.000000 0.000000
vn 0.000000 -1.000000 0.000000
vn 0.000000 -1.000000 0.000000
vn 0.000000 -1.000000 0.000000
vn 0.000000 -1.000000 0.000000
vn 0.000000 -1.000000 0.000000
vn 0.000000 -1.000000 0.000000
vn 0.000000 -1.000000 0.000000
vn 0.000000 -1.000000 0.000000
vn 0.191482 -0.000021 -0.981496
vn 0.191470 0.000011 -0.981498
vn 0.191527 0.000006 -0.981487
vn 0.191525 0.000007 -0.981488
vn 0.555593 0.000006 -0.831454
vn 0.555573 -0.000056 -0.831468
vn 0.555573 -0.000056 -0.831468
vn 0.555584 -0.000023 -0.831461
vn 0.831461 -0.000023 -0.555584
vn 0.831468 -0.000055 -0.555572
vn 0.831468 -0.000055 -0.555572
vn 0.831454 0.000006 -0.555593
vn 0.981329 -0.000026 -0.192338
vn 0.981331 -0.000021 -0.192328
vn 0.981326 -0.000033 -0.192351
vn 0.981326 -0.000033 -0.192351
vn 0.000000 0.000000 -1.000000
vn 0.000000 0.000000 -1.000000
vn 0.000000 0.000000 -1.000000
vn 0.000000 0.000000 -1.000000
vn 0.000000 0.000000 -1.000000
vn 0.000000 0.000000 -1.000000
vn 0.000000 0.000000 -1.000000
vn 0.000000 0.000000 -1.000000
vn -0.831468 0.000002 0.555573
vn -0.831467 0.000000 0.555574
vn -0.831467 0.000000 0.555574
vn -0.831468 0.000001 0.555573
vn -0.196672 -0.000006 0.980469
vn -0.196677 0.000000 0.980468
vn -0.196677 0.000000 0.980468
vn -0.196673 -0.000004 0.980469
vn 1.000000 0.000000 0.000000
vn 1.000000 0.000000 0.000000
vn 1.000000 0.000000 0.000000
vn 1.000000 0.000000 0.000000
vn 1.000000 0.000000 0.000000
vn 1.000000 0.000000 0.000000
vn 1.000000 0.000000 0.000000
vn 1.000000 0.000000 0.000000
vn 0.191534 0.000004 -0.981486
vn 0.191534 0.000004 -0.981486
vn 0.191525 0.000007 -0.981488
vn 0.191527 0.000006 -0.981487
vn 0.831462 0.000000 -0.555582
vn 0.831462 0.000000 -0.555582
vn 0.831461 0.000002 -0.555584
vn 0.831461 0.000002 -0.555583
vn 0.000000 0.000000 -1.000000
vn 0.000000 0.000000 -1.000000
vn 0.000000 0.000000 -1.000000
vn 0.000000 0.000000 -1.000000
vn 0.000000 0.000000 -1.000000
vn 0.000000 0.000000 -1.000000
vn 0.000000 0.000000 -1.000000
vn 0.000000 0.000000 -1.000000
vn 0.000000 -1.000000 0.000000
vn 0.000000 -1.000000 0.000000
vn 0.000000 -1.000000 0.000000
vn 0.000000 -1.000000 0.000000
vn 0.000000 -1.000000 0.000000
vn 0.000000 -1.000000 0.000000
vn 0.000000 -1.000000 0.000000
vn 0.000000 -1.000000 0.000000
vn 0.555557 0.000005 -0.831478
vn 0.555551 0.000004 -0.831483
vn 0.555551 0.000004 -0.831483
vn 0.555555 0.000005 -0.831480
vn -0.555540 0.000000 0.831490
vn -0.555540 0.000000 0.831490
vn -0.555540 -0.000000 0.831490
vn -0.555540 -0.000000 0.831490
vn 0.000000 -1.000000 0.000000
vn 0.000000 -1.000000 0.000000
vn 0.000000 -1.000000 0.000000
vn 0.000000 -1.000000 0.000000
vn 0.000000 -1.000000 0.000000
vn 0.000000 -1.000000 0.000000
vn 0.000000 -1.000000 0.000000
vn 0.000000 -1.000000 0.000000
vn 0.981328 0.000001 -0.192342
vn 0.981327 0.000004 -0.192345
vn 0.981327 0.000004 -0.192345
vn 0.981328 0.000002 -0.192343
vn -0.980336 0.000000 0.197334
vn -0.980336 0.000000 0.197334
vn -0.980336 0.000001 0.197335
vn -0.980336 0.000000 0.197335
vn -0.980336 0.000002 0.197337
vn -0.980336 0.000000 0.197335
vn -0.980336 0.000001 0.197335
vn -0.980336 -0.000006 0.197334
vn 0.196444 -0.051191 0.979178
vn 0.196443 -0.051154 0.979180
vn 0.194137 -0.000001 0.980974
vn 0.194137 -0.000001 0.980974
vn 0.194137 -0.000001 0.980974
vn 0.831480 -0.000003 0.555554
vn 0.831480 -0.000003 0.555554
vn 0.831834 -0.051292 0.552649
vn 0.831834 -0.051293 0.552649
vn 0.831480 -0.000003 0.555554
vn -0.280289 -0.824573 -0.491445
vn -0.267936 -0.838876 -0.473811
vn -0.013761 -0.999887 0.006143
vn -0.013755 -0.999886 0.006157
vn 0.148995 -0.824255 0.546264
vn 0.145306 -0.838500 0.525170
vn 0.196443 -0.051154 0.979180
vn 0.196444 -0.051191 0.979178
vn -0.013755 -0.999886 0.006157
vn -0.013761 -0.999887 0.006143
vn 0.145306 -0.838500 0.525170
vn 0.148995 -0.824255 0.546264
vn -0.552722 -0.051289 -0.831786
vn -0.552723 -0.051287 -0.831786
vn -0.267936 -0.838876 -0.473811
vn -0.280289 -0.824573 -0.491445
vn -0.555628 0.000004 -0.831431
vn -0.555628 0.000004 -0.831431
vn -0.552723 -0.051287 -0.831786
vn -0.552722 -0.051289 -0.831786
vn -0.555628 0.000004 -0.831431
vn -0.006088 -0.999886 0.013788
vn -0.006224 -0.999886 0.013732
vn -0.546808 -0.823869 -0.149134
vn -0.525542 -0.838248 -0.145416
vn 0.831834 -0.051293 0.552649
vn 0.831834 -0.051292 0.552649
vn 0.491480 -0.824559 0.280269
vn 0.473829 -0.838875 0.267907
vn 0.473829 -0.838875 0.267907
vn 0.491480 -0.824559 0.280269
vn -0.006224 -0.999886 0.013732
vn -0.006088 -0.999886 0.013788
vn -0.979182 -0.051108 -0.196444
vn -0.979182 -0.051106 -0.196444
vn -0.980974 0.000002 -0.194137
vn -0.980974 0.000002 -0.194137
vn -0.980974 0.000002 -0.194137
vn -0.525542 -0.838248 -0.145416
vn -0.546808 -0.823869 -0.149134
vn -0.979182 -0.051106 -0.196444
vn -0.979182 -0.051108 -0.196444
vn -0.980336 0.000002 0.197337
vn -0.980336 -0.000006 0.197334
vn -0.980337 -0.000013 0.197332
vn -0.980337 -0.000013 0.197332
vn -0.831474 0.000012 0.555564
vn -0.831477 0.000015 0.555560
vn -0.831468 0.000002 0.555573
vn -0.831468 0.000001 0.555573
vn -0.555555 -0.000033 0.831480
vn -0.555543 -0.000007 0.831488
vn -0.555540 -0.000000 0.831490
vn -0.555540 -0.000000 0.831490
vn -0.196673 -0.000004 0.980469
vn -0.196641 -0.000032 0.980475
vn -0.196639 -0.000008 0.980476
vn -0.196672 -0.000006 0.980469
vn 0.191482 -0.000021 -0.981496
vn 0.191495 -0.000059 -0.981494
vn 0.191495 -0.000059 -0.981494
vn 0.191470 0.000011 -0.981498
vn 0.555593 0.000006 -0.831454
vn 0.555584 -0.000023 -0.831461
vn 0.555557 0.000005 -0.831478
vn 0.555555 0.000005 -0.831480
vn 0.831461 -0.000023 -0.555584
vn 0.831454 0.000006 -0.555593
vn 0.831461 0.000002 -0.555583
vn 0.831461 0.000002 -0.555584
vn 0.981328 0.000002 -0.192343
vn 0.981331 -0.000021 -0.192328
vn 0.981329 -0.000026 -0.192338
vn 0.981328 0.000001 -0.192342
s off
f 11/1/1 12/2/2 7/3/3 6/4/4
f 12/2/5 13/5/6 8/6/7 7/3/8
f 13/5/9 14/7/10 9/8/11 8/6/12
f 14/7/13 15/9/14 10/10/15 9/8/16
f 1/11/17 2/12/18 12/2/19 11/1/20
f 2/12/21 3/13/22 13/5/23 12/2/24
f 3/13/25 4/14/26 14/7/27 13/5/28
f 4/14/29 5/15/30 15/9/31 14/7/32
f 3/19/33 2/18/34 62/45/35 56/44/36
f 57/103/37 61/47/38 4/20/39 3/19/40
f 60/46/41 5/21/42 4/20/43 61/47/44
f 15/9/45 5/15/46 27/16/47 28/22/48
f 10/10/49 15/9/50 28/22/51 29/23/52
f 24/24/53 34/30/54 35/31/55 20/32/56
f 23/33/57 49/34/58 50/35/59 21/36/60
f 18/37/61 48/38/62 49/34/63 23/33/64
f 17/39/65 33/40/66 34/30/67 24/24/68
f 59/51/69 10/25/70 29/74/71 51/73/72
f 8/27/73 9/26/74 63/52/75 58/53/76
f 55/54/77 64/55/78 7/28/79 8/27/80
f 54/56/81 6/29/82 7/28/83 64/55/84
f 31/41/85 32/42/86 11/1/87 6/4/88
f 11/1/89 32/42/90 25/43/91 1/11/92
f 37/60/93 33/61/94 17/62/95 26/63/96
f 52/64/97 48/65/98 18/66/99 27/67/100
f 28/22/101 27/16/102 18/37/103 23/33/104
f 29/23/105 28/22/106 23/33/107 21/36/108
f 21/71/109 50/72/110 51/73/111 29/74/112
f 20/75/113 35/76/114 36/77/115 30/78/116
f 22/48/117 32/42/118 31/41/119 19/49/120
f 25/43/121 32/42/122 22/48/123 16/50/124
f 39/57/125 38/58/126 17/39/127 24/24/128
f 40/59/129 39/57/130 24/24/131 20/32/132
f 41/85/133 40/86/134 20/75/135 30/78/136
f 17/62/137 38/87/138 42/88/139 26/63/140
f 44/68/141 43/69/142 16/50/143 22/48/144
f 45/70/145 44/68/146 22/48/147 19/49/148
f 46/95/149 45/96/150 19/97/151 31/98/152
f 16/99/153 43/100/154 47/101/155 25/102/156
f 1/17/157 25/102/158 47/101/159 53/104/160
f 46/79/161 47/80/162 43/69/163 44/68/164 45/70/165
f 39/57/166 40/59/167 41/81/168 42/82/169 38/58/170
f 55/83/171 56/84/172 62/89/173 64/90/174
f 54/91/175 53/92/176 47/80/177 46/79/178
f 64/90/179 62/89/180 53/92/181 54/91/182
f 36/93/183 37/94/184 56/84/185 55/83/186
f 34/30/187 33/40/188 37/94/189 36/93/190 35/31/191
f 61/105/192 63/106/193 59/107/194 60/108/195
f 42/82/196 41/81/197 58/109/198 57/110/199
f 57/110/200 58/109/201 63/106/202 61/105/203
f 52/111/204 51/112/205 50/35/206 49/34/207 48/38/208
f 60/108/209 59/107/210 51/112/211 52/111/212
f 1/17/213 53/104/214 62/45/215 2/18/216
f 3/19/217 56/44/218 37/60/219 26/63/220
f 57/103/221 3/19/222 26/63/223 42/88/224
f 27/67/225 5/21/226 60/46/227 52/64/228
f 59/51/229 63/52/230 9/26/231 10/25/232
f 8/27/233 58/53/234 41/85/235 30/78/236
f 55/54/237 8/27/238 30/78/239 36/77/240
f 31/98/241 6/29/242 54/56/243 46/95/244
