# This file uses centimeters as units for non-parametric coordinates.

v 59.901546 0.000000 -59.893036
v -59.903500 0.000000 -59.893036
v -59.903500 0.000000 59.908661
v 59.901546 0.000000 59.908661
v -0.001805 0.000000 0.006155
v 40.061523 52.124367 -40.053566
v -40.063477 52.124367 -40.053566
v -40.063477 52.124367 40.069191
v 40.061523 52.124367 40.069191
v 10.873878 363.885010 10.857965
v 10.873878 363.885010 -10.846918
v -10.873535 363.885010 -10.846918
v -10.873535 363.885010 10.857965
v 9.307637 383.378082 9.296124
v -0.000776 379.745697 9.767558
v 9.773238 379.745697 0.005224
v 9.307637 383.378082 -9.283254
v -0.000776 379.745697 -9.752730
v -9.308206 383.378082 -9.283254
v -9.774779 379.745697 0.005224
v -9.308206 383.378082 9.296124
v 17.368214 392.995758 17.343122
v -0.001953 392.995758 24.327631
v 24.350599 392.995758 0.004302
v 17.368214 392.995758 -17.327425
v -0.001953 392.995758 -24.308100
v -17.370359 392.995758 -17.327425
v -24.354506 392.995758 0.004302
v -17.370359 392.995758 17.343122
v 16.417488 413.577362 16.394394
v -0.001953 413.577362 22.996611
v 23.017685 413.577362 0.004601
v 16.417488 413.577362 -16.378490
v -0.001953 413.577362 -22.977079
v -16.419714 413.577362 -16.378490
v -23.021591 413.577362 0.004601
v -16.419714 413.577362 16.394394
v 17.134422 215.144012 17.128284
v -17.134741 215.144012 17.128284
v -17.134741 215.144012 -17.115913
v 17.134422 215.144012 -17.115913
v 6.401170 425.869415 6.397349
v -0.001638 425.869415 8.971902
v 8.974936 425.869415 0.006103
v 6.401170 425.869415 -6.382530
v -0.001638 425.869415 -8.955668
v -6.403790 425.869415 -6.382530
v -8.978211 425.869415 0.006103
v -6.403790 425.869415 6.397349
v -4.935006 643.459534 4.931529
v -0.001638 643.459534 6.915427
v 4.932235 643.459534 4.931529
v 6.915526 643.459534 0.006565
v 4.932235 643.459534 -4.916384
v -0.001638 643.459534 -6.899193
v -4.935006 643.459534 -4.916384
v -6.918802 643.459534 0.006565
v -11.486618 656.406006 11.469919
v -0.001638 656.406006 16.088476
v 11.484518 656.406006 11.469919
v 16.101662 656.406006 0.004505
v 11.484518 656.406006 -11.456219
v -0.001638 656.406006 -16.072243
v -11.486618 656.406006 -11.456219
v -16.104939 656.406006 0.004505
v -8.778648 667.920837 8.767414
v -0.001638 667.920837 12.296991
v 8.776268 667.920837 8.767414
v 12.304764 667.920837 0.005356
v 8.776268 667.920837 -8.753116
v -0.001638 667.920837 -12.280758
v -8.778648 667.920837 -8.753116
v -12.308041 667.920837 0.005356
v -0.001414 675.808594 0.006943
vt 0.094219 0.209686
vt 0.094188 0.209686
vt 0.094096 0.209686
vt 0.094127 0.209686
vt 0.094158 0.209686
vt 0.094141 0.209636
vt 0.094192 0.209636
vt 0.094174 0.209636
vt 0.094123 0.209636
vt 0.094123 0.209636
vt 0.094141 0.209636
vt 0.094169 0.209636
vt 0.094192 0.209636
vt 0.094192 0.209636
vt 0.094174 0.209636
vt 0.094146 0.209636
vt 0.094123 0.209636
vt 0.094123 0.209636
vt 0.094141 0.209636
vt 0.094169 0.209636
vt 0.094192 0.209636
vt 0.094192 0.209636
vt 0.094174 0.209636
vt 0.094146 0.209636
vt 0.094123 0.209636
vt 0.094123 0.209636
vt 0.094141 0.209636
vt 0.094169 0.209636
vt 0.094192 0.209636
vt 0.094192 0.209636
vt 0.094174 0.209636
vt 0.094146 0.209636
vt 0.094123 0.209636
vt 0.094219 0.209669
vt 0.094188 0.209669
vt 0.094096 0.209669
vt 0.094127 0.209669
vt 0.094137 0.209646
vt 0.094115 0.209646
vt 0.094178 0.209646
vt 0.094200 0.209646
vt 0.094149 0.209636
vt 0.094141 0.209636
vt 0.094163 0.209636
vt 0.094175 0.209636
vt 0.094175 0.209636
vt 0.094166 0.209636
vt 0.094152 0.209636
vt 0.094141 0.209636
vt 0.094141 0.209636
vt 0.094141 0.209636
vt 0.094149 0.209636
vt 0.094163 0.209636
vt 0.094175 0.209636
vt 0.094175 0.209636
vt 0.094166 0.209636
vt 0.094152 0.209636
vt 0.094141 0.209636
vt 0.094141 0.209636
vt 0.094149 0.209636
vt 0.094163 0.209636
vt 0.094175 0.209636
vt 0.094175 0.209636
vt 0.094166 0.209636
vt 0.094152 0.209636
vt 0.094141 0.209636
vt 0.094141 0.209636
vt 0.094149 0.209636
vt 0.094163 0.209636
vt 0.094175 0.209636
vt 0.094175 0.209636
vt 0.094166 0.209636
vt 0.094152 0.209636
vt 0.094158 0.209636
vn 0.990255 0.139269 0.000000
vn 0.990255 0.139269 0.000000
vn 0.990255 0.139269 0.000000
vn 0.990255 0.139269 0.000000
vn 0.000000 0.139332 -0.990246
vn 0.000000 0.139332 -0.990246
vn 0.000000 0.139332 -0.990246
vn 0.000000 0.139332 -0.990246
vn -0.990253 0.139279 0.000000
vn -0.990253 0.139279 0.000000
vn -0.990253 0.139279 0.000000
vn -0.990253 0.139279 0.000000
vn 0.000000 0.139352 0.990243
vn 0.000000 0.139352 0.990243
vn 0.000000 0.139352 0.990243
vn 0.000000 0.139352 0.990243
vn 0.000000 -1.000000 0.000000
vn 0.000000 -1.000000 0.000000
vn 0.000000 -1.000000 0.000000
vn 0.000000 -1.000000 0.000000
vn 0.000000 -1.000000 0.000000
vn 0.000000 -1.000000 0.000000
vn 0.000000 -1.000000 0.000000
vn 0.000000 -1.000000 0.000000
vn 0.000000 -1.000000 0.000000
vn 0.000000 -1.000000 0.000000
vn 0.000000 -1.000000 0.000000
vn 0.000000 -1.000000 0.000000
vn 0.018725 0.081348 0.996510
vn 0.018725 0.081348 0.996510
vn 0.018725 0.081348 0.996510
vn 0.996508 0.081516 0.018069
vn 0.996508 0.081516 0.018069
vn 0.996508 0.081516 0.018069
vn 0.996508 0.081518 -0.018073
vn 0.996508 0.081518 -0.018073
vn 0.996508 0.081518 -0.018073
vn 0.018487 0.081422 -0.996508
vn 0.018487 0.081422 -0.996508
vn 0.018487 0.081422 -0.996508
vn -0.018489 0.081421 -0.996508
vn -0.018489 0.081421 -0.996508
vn -0.018489 0.081421 -0.996508
vn -0.996509 0.081481 -0.018192
vn -0.996509 0.081481 -0.018192
vn -0.996509 0.081481 -0.018192
vn -0.996509 0.081479 0.018188
vn -0.996509 0.081479 0.018188
vn -0.996509 0.081479 0.018188
vn -0.018727 0.081347 0.996510
vn -0.018727 0.081347 0.996510
vn -0.018727 0.081347 0.996510
vn 0.275465 -0.723195 0.633331
vn 0.275465 -0.723195 0.633331
vn 0.275465 -0.723195 0.633331
vn 0.275465 -0.723195 0.633331
vn 0.632869 -0.723513 0.275693
vn 0.632869 -0.723513 0.275693
vn 0.632869 -0.723513 0.275693
vn 0.632869 -0.723513 0.275693
vn 0.632840 -0.723504 -0.275782
vn 0.632840 -0.723504 -0.275782
vn 0.632840 -0.723504 -0.275782
vn 0.632840 -0.723504 -0.275782
vn 0.275357 -0.723101 -0.633485
vn 0.275357 -0.723101 -0.633485
vn 0.275357 -0.723101 -0.633485
vn 0.275357 -0.723101 -0.633485
vn -0.275379 -0.723122 -0.633452
vn -0.275379 -0.723122 -0.633452
vn -0.275379 -0.723122 -0.633452
vn -0.275379 -0.723122 -0.633452
vn -0.632761 -0.723553 -0.275834
vn -0.632761 -0.723553 -0.275834
vn -0.632761 -0.723553 -0.275834
vn -0.632761 -0.723553 -0.275834
vn -0.632790 -0.723562 0.275744
vn -0.632790 -0.723562 0.275744
vn -0.632790 -0.723562 0.275744
vn -0.632790 -0.723562 0.275744
vn -0.275486 -0.723216 0.633297
vn -0.275486 -0.723216 0.633297
vn -0.275486 -0.723216 0.633297
vn -0.275486 -0.723216 0.633297
vn 0.372398 0.059894 0.926138
vn 0.372398 0.059894 0.926138
vn 0.372398 0.059894 0.926138
vn 0.372398 0.059894 0.926138
vn 0.925941 0.059960 0.372878
vn 0.925941 0.059960 0.372878
vn 0.925941 0.059960 0.372878
vn 0.925941 0.059960 0.372878
vn 0.925888 0.059968 -0.373009
vn 0.925888 0.059968 -0.373009
vn 0.925888 0.059968 -0.373009
vn 0.925888 0.059968 -0.373009
vn 0.372222 0.059898 -0.926209
vn 0.372222 0.059898 -0.926209
vn 0.372222 0.059898 -0.926209
vn 0.372222 0.059898 -0.926209
vn -0.372255 0.059897 -0.926196
vn -0.372255 0.059897 -0.926196
vn -0.372255 0.059897 -0.926196
vn -0.372255 0.059897 -0.926196
vn -0.925855 0.059966 -0.373091
vn -0.925855 0.059966 -0.373091
vn -0.925855 0.059966 -0.373091
vn -0.925855 0.059966 -0.373091
vn -0.925908 0.059959 0.372960
vn -0.925908 0.059959 0.372960
vn -0.925908 0.059959 0.372960
vn -0.925908 0.059959 0.372960
vn -0.372431 0.059893 0.926125
vn -0.372431 0.059893 0.926125
vn -0.372431 0.059893 0.926125
vn -0.372431 0.059893 0.926125
vn 0.000000 0.355722 -0.934592
vn 0.000000 0.355722 -0.934592
vn 0.000000 0.355722 -0.934592
vn 0.000000 0.355722 -0.934592
vn -0.934588 0.355731 0.000000
vn -0.934588 0.355731 0.000000
vn -0.934588 0.355731 0.000000
vn -0.934588 0.355731 0.000000
vn 0.000000 0.355722 0.934592
vn 0.000000 0.355722 0.934592
vn 0.000000 0.355722 0.934592
vn 0.000000 0.355722 0.934592
vn 0.934588 0.355731 0.000000
vn 0.934588 0.355731 0.000000
vn 0.934588 0.355731 0.000000
vn 0.934588 0.355731 0.000000
vn 0.000000 0.068587 0.997645
vn 0.000000 0.068587 0.997645
vn 0.000000 0.068587 0.997645
vn 0.997601 0.069228 0.000000
vn 0.997601 0.069228 0.000000
vn 0.997601 0.069228 0.000000
vn 0.000000 0.068824 -0.997629
vn 0.000000 0.068824 -0.997629
vn 0.000000 0.068824 -0.997629
vn -0.997609 0.069110 0.000000
vn -0.997609 0.069110 0.000000
vn -0.997609 0.069110 0.000000
vn 0.000000 0.042119 0.999113
vn 0.000000 0.042119 0.999113
vn 0.000000 0.042119 0.999113
vn 0.000000 0.042119 0.999113
vn -0.999115 0.042057 0.000000
vn -0.999115 0.042057 0.000000
vn -0.999115 0.042057 0.000000
vn -0.999115 0.042057 0.000000
vn 0.000000 0.042110 -0.999113
vn 0.000000 0.042110 -0.999113
vn 0.000000 0.042110 -0.999113
vn 0.000000 0.042110 -0.999113
vn 0.999115 0.042053 0.000000
vn 0.999115 0.042053 0.000000
vn 0.999115 0.042053 0.000000
vn 0.999115 0.042053 0.000000
vn -0.256211 0.726934 0.637121
vn -0.256211 0.726934 0.637121
vn -0.256211 0.726934 0.637121
vn -0.256211 0.726934 0.637121
vn 0.256189 0.726933 0.637131
vn 0.256189 0.726933 0.637131
vn 0.256189 0.726933 0.637131
vn 0.256189 0.726933 0.637131
vn 0.636647 0.727290 0.256380
vn 0.636647 0.727290 0.256380
vn 0.636647 0.727290 0.256380
vn 0.636647 0.727290 0.256380
vn 0.636600 0.727300 -0.256467
vn 0.636600 0.727300 -0.256467
vn 0.636600 0.727300 -0.256467
vn 0.636600 0.727300 -0.256467
vn 0.256089 0.726878 -0.637234
vn 0.256089 0.726878 -0.637234
vn 0.256089 0.726878 -0.637234
vn 0.256089 0.726878 -0.637234
vn -0.256111 0.726879 -0.637224
vn -0.256111 0.726879 -0.637224
vn -0.256111 0.726879 -0.637224
vn -0.256111 0.726879 -0.637224
vn -0.636575 0.727303 -0.256521
vn -0.636575 0.727303 -0.256521
vn -0.636575 0.727303 -0.256521
vn -0.636575 0.727303 -0.256521
vn -0.636621 0.727294 0.256432
vn -0.636621 0.727294 0.256432
vn -0.636621 0.727294 0.256432
vn -0.636621 0.727294 0.256432
vn -0.373086 0.008768 0.927755
vn -0.373086 0.008768 0.927755
vn -0.373086 0.008768 0.927755
vn -0.373086 0.008768 0.927755
vn 0.373053 0.008768 0.927768
vn 0.373053 0.008768 0.927768
vn 0.373053 0.008768 0.927768
vn 0.373053 0.008768 0.927768
vn 0.927574 0.008778 0.373536
vn 0.927574 0.008778 0.373536
vn 0.927574 0.008778 0.373536
vn 0.927574 0.008778 0.373536
vn 0.927521 0.008779 -0.373667
vn 0.927521 0.008779 -0.373667
vn 0.927521 0.008779 -0.373667
vn 0.927521 0.008779 -0.373667
vn 0.372877 0.008769 -0.927839
vn 0.372877 0.008769 -0.927839
vn 0.372877 0.008769 -0.927839
vn 0.372877 0.008769 -0.927839
vn -0.372910 0.008769 -0.927826
vn -0.372910 0.008769 -0.927826
vn -0.372910 0.008769 -0.927826
vn -0.372910 0.008769 -0.927826
vn -0.927488 0.008779 -0.373749
vn -0.927488 0.008779 -0.373749
vn -0.927488 0.008779 -0.373749
vn -0.927488 0.008779 -0.373749
vn -0.927541 0.008778 0.373618
vn -0.927541 0.008778 0.373618
vn -0.927541 0.008778 0.373618
vn -0.927541 0.008778 0.373618
vn -0.311769 -0.549313 0.775278
vn -0.311769 -0.549313 0.775278
vn -0.311769 -0.549313 0.775278
vn -0.311769 -0.549313 0.775278
vn 0.311740 -0.549318 0.775286
vn 0.311740 -0.549318 0.775286
vn 0.311740 -0.549318 0.775286
vn 0.311740 -0.549318 0.775286
vn 0.774860 -0.549750 0.312037
vn 0.774860 -0.549750 0.312037
vn 0.774860 -0.549750 0.312037
vn 0.774860 -0.549750 0.312037
vn 0.774787 -0.549798 -0.312135
vn 0.774787 -0.549798 -0.312135
vn 0.774787 -0.549798 -0.312135
vn 0.774787 -0.549798 -0.312135
vn 0.311586 -0.549346 -0.775328
vn 0.311586 -0.549346 -0.775328
vn 0.311586 -0.549346 -0.775328
vn 0.311586 -0.549346 -0.775328
vn -0.311616 -0.549343 -0.775318
vn -0.311616 -0.549343 -0.775318
vn -0.311616 -0.549343 -0.775318
vn -0.311616 -0.549343 -0.775318
vn -0.774767 -0.549784 -0.312209
vn -0.774767 -0.549784 -0.312209
vn -0.774767 -0.549784 -0.312209
vn -0.774767 -0.549784 -0.312209
vn -0.774839 -0.549736 0.312114
vn -0.774839 -0.549736 0.312114
vn -0.774839 -0.549736 0.312114
vn -0.774839 -0.549736 0.312114
vn -0.356822 0.292164 0.887310
vn -0.356822 0.292164 0.887310
vn -0.356822 0.292164 0.887310
vn -0.356822 0.292164 0.887310
vn 0.356789 0.292167 0.887322
vn 0.356789 0.292167 0.887322
vn 0.356789 0.292167 0.887322
vn 0.356789 0.292167 0.887322
vn 0.887050 0.292469 0.357218
vn 0.887050 0.292469 0.357218
vn 0.887050 0.292469 0.357218
vn 0.887050 0.292469 0.357218
vn 0.886990 0.292502 -0.357339
vn 0.886990 0.292502 -0.357339
vn 0.886990 0.292502 -0.357339
vn 0.886990 0.292502 -0.357339
vn 0.356618 0.292188 -0.887384
vn 0.356618 0.292188 -0.887384
vn 0.356618 0.292188 -0.887384
vn 0.356618 0.292188 -0.887384
vn -0.356651 0.292185 -0.887372
vn -0.356651 0.292185 -0.887372
vn -0.356651 0.292185 -0.887372
vn -0.356651 0.292185 -0.887372
vn -0.886961 0.292493 -0.357418
vn -0.886961 0.292493 -0.357418
vn -0.886961 0.292493 -0.357418
vn -0.886961 0.292493 -0.357418
vn -0.887021 0.292460 0.357297
vn -0.887021 0.292460 0.357297
vn -0.887021 0.292460 0.357297
vn -0.887021 0.292460 0.357297
vn -0.212255 0.822403 0.527826
vn -0.212255 0.822403 0.527826
vn -0.212255 0.822403 0.527826
vn 0.212237 0.822407 0.527828
vn 0.212237 0.822407 0.527828
vn 0.212237 0.822407 0.527828
vn 0.527339 0.822691 0.212354
vn 0.527339 0.822691 0.212354
vn 0.527339 0.822691 0.212354
vn 0.527293 0.822705 -0.212415
vn 0.527293 0.822705 -0.212415
vn 0.527293 0.822705 -0.212415
vn 0.212154 0.822377 -0.527909
vn 0.212154 0.822377 -0.527909
vn 0.212154 0.822377 -0.527909
vn -0.212171 0.822373 -0.527907
vn -0.212171 0.822373 -0.527907
vn -0.212171 0.822373 -0.527907
vn -0.527271 0.822701 -0.212480
vn -0.527271 0.822701 -0.212480
vn -0.527271 0.822701 -0.212480
vn -0.527318 0.822689 0.212412
vn -0.527318 0.822689 0.212412
vn -0.527318 0.822689 0.212412
s off
f 41/41/1 38/38/2 9/37/3 6/34/4
f 40/40/5 41/41/6 6/34/7 7/35/8
f 39/39/9 40/40/10 7/35/11 8/36/12
f 9/37/13 38/38/14 39/39/15 8/36/16
f 5/5/17 3/3/18 2/2/19
f 5/5/20 2/2/21 1/1/22
f 5/5/23 1/1/24 4/4/25
f 5/5/26 4/4/27 3/3/28
f 15/10/29 10/6/30 14/11/31
f 10/6/32 16/12/33 14/11/34
f 16/12/35 11/7/36 17/13/37
f 11/7/38 18/14/39 17/13/40
f 18/14/41 12/8/42 19/15/43
f 12/8/44 20/16/45 19/15/46
f 20/16/47 13/9/48 21/17/49
f 13/9/50 15/10/51 21/17/52
f 15/10/53 14/11/54 22/19/55 23/18/56
f 14/11/57 16/12/58 24/20/59 22/19/60
f 16/12/61 17/13/62 25/21/63 24/20/64
f 17/13/65 18/14/66 26/22/67 25/21/68
f 18/14/69 19/15/70 27/23/71 26/22/72
f 19/15/73 20/16/74 28/24/75 27/23/76
f 20/16/77 21/17/78 29/25/79 28/24/80
f 21/17/81 15/10/82 23/18/83 29/25/84
f 23/18/85 22/19/86 30/27/87 31/26/88
f 22/19/89 24/20/90 32/28/91 30/27/92
f 24/20/93 25/21/94 33/29/95 32/28/96
f 25/21/97 26/22/98 34/30/99 33/29/100
f 26/22/101 27/23/102 35/31/103 34/30/104
f 27/23/105 28/24/106 36/32/107 35/31/108
f 28/24/109 29/25/110 37/33/111 36/32/112
f 29/25/113 23/18/114 31/26/115 37/33/116
f 6/34/117 1/1/118 2/2/119 7/35/120
f 7/35/121 2/2/122 3/3/123 8/36/124
f 8/36/125 3/3/126 4/4/127 9/37/128
f 4/4/129 1/1/130 6/34/131 9/37/132
f 15/10/133 13/9/134 10/6/135
f 16/12/136 10/6/137 11/7/138
f 18/14/139 11/7/140 12/8/141
f 20/16/142 12/8/143 13/9/144
f 39/39/145 38/38/146 10/6/147 13/9/148
f 40/40/149 39/39/150 13/9/151 12/8/152
f 41/41/153 40/40/154 12/8/155 11/7/156
f 38/38/157 41/41/158 11/7/159 10/6/160
f 37/33/161 31/26/162 43/43/163 49/49/164
f 31/26/165 30/27/166 42/42/167 43/43/168
f 30/27/169 32/28/170 44/44/171 42/42/172
f 32/28/173 33/29/174 45/45/175 44/44/176
f 33/29/177 34/30/178 46/46/179 45/45/180
f 34/30/181 35/31/182 47/47/183 46/46/184
f 35/31/185 36/32/186 48/48/187 47/47/188
f 36/32/189 37/33/190 49/49/191 48/48/192
f 49/49/193 43/43/194 51/51/195 50/50/196
f 43/43/197 42/42/198 52/52/199 51/51/200
f 42/42/201 44/44/202 53/53/203 52/52/204
f 44/44/205 45/45/206 54/54/207 53/53/208
f 45/45/209 46/46/210 55/55/211 54/54/212
f 46/46/213 47/47/214 56/56/215 55/55/216
f 47/47/217 48/48/218 57/57/219 56/56/220
f 48/48/221 49/49/222 50/50/223 57/57/224
f 50/50/225 51/51/226 59/59/227 58/58/228
f 51/51/229 52/52/230 60/60/231 59/59/232
f 52/52/233 53/53/234 61/61/235 60/60/236
f 53/53/237 54/54/238 62/62/239 61/61/240
f 54/54/241 55/55/242 63/63/243 62/62/244
f 55/55/245 56/56/246 64/64/247 63/63/248
f 56/56/249 57/57/250 65/65/251 64/64/252
f 57/57/253 50/50/254 58/58/255 65/65/256
f 58/58/257 59/59/258 67/67/259 66/66/260
f 59/59/261 60/60/262 68/68/263 67/67/264
f 60/60/265 61/61/266 69/69/267 68/68/268
f 61/61/269 62/62/270 70/70/271 69/69/272
f 62/62/273 63/63/274 71/71/275 70/70/276
f 63/63/277 64/64/278 72/72/279 71/71/280
f 64/64/281 65/65/282 73/73/283 72/72/284
f 65/65/285 58/58/286 66/66/287 73/73/288
f 66/66/289 67/67/290 74/74/291
f 67/67/292 68/68/293 74/74/294
f 68/68/295 69/69/296 74/74/297
f 69/69/298 70/70/299 74/74/300
f 70/70/301 71/71/302 74/74/303
f 71/71/304 72/72/305 74/74/306
f 72/72/307 73/73/308 74/74/309
f 73/73/310 66/66/311 74/74/312
