# This file uses centimeters as units for non-parametric coordinates.

v 4.335938 6.422180 -20.203125
v -1.816406 6.422180 -20.203125
v -1.816406 33.228455 -20.203125
v -1.816406 60.034668 -20.203125
v -3.414063 61.222961 -20.662109
v -1.816406 86.840820 -17.648438
v -3.414063 88.375183 -18.826172
v -1.816406 113.647034 -20.203125
v -3.414063 119.207458 -21.382813
v -1.816406 140.453247 -20.203125
v -3.152344 146.746826 -21.187500
v -1.816406 167.259460 -20.203125
v -3.414063 169.042053 -21.380859
v -1.816406 194.065674 -20.203125
v -3.414063 196.266479 -20.203125
v -1.816406 220.871826 -20.203125
v -3.414063 223.336365 -20.203125
v -1.816406 290.907898 -20.205078
v 4.335938 290.907898 -20.205078
v 2.734375 227.617493 -20.205078
v 4.335938 220.871826 -20.205078
v 2.734375 196.266479 -20.205078
v 4.335938 194.065735 -20.205078
v 2.734375 173.323181 -21.382813
v 4.335938 167.259460 -20.205078
v 2.734375 142.701477 -21.382813
v 4.335938 140.453247 -20.205078
v 2.734375 114.975647 -21.382813
v 4.335938 113.647034 -20.205078
v 2.734375 92.656250 -18.828125
v 4.335938 86.840820 -17.650391
v 2.734375 61.222900 -20.664063
v 4.335938 60.034668 -20.205078
v 2.734375 36.983948 -20.205078
v 4.335938 33.228455 -20.205078
v -0.910156 142.701477 -21.380859
v -3.414063 142.701477 -7.931641
v -3.085938 39.876465 -20.203125
v -3.414063 34.877014 2.480469
v -3.414063 197.106323 123.177734
v -3.414063 196.817017 96.207031
v -1.816406 194.065674 109.300781
v -3.171875 200.740051 108.730469
v -1.816406 233.364075 157.019531
v 4.335938 233.364075 156.968750
v 2.734375 225.493713 156.968750
v 4.335938 220.871826 156.953125
v 2.734375 198.389954 156.953125
v 4.335938 194.065735 156.937500
v 2.734375 171.195251 156.937500
v 4.335938 167.259460 156.921875
v 2.734375 142.701477 156.919922
v 4.335938 140.453247 156.906250
v 2.734375 117.102966 156.906250
v 4.335938 113.647034 156.890625
v 2.734375 90.539246 156.890625
v 4.335938 86.840820 156.875000
v 2.734375 61.222900 156.871094
v 4.335938 60.034729 156.859375
v 2.734375 35.819153 156.857422
v 4.335938 33.228455 156.843750
v 4.335938 6.422180 156.828125
v -1.816406 33.228455 156.894531
v -3.414063 35.835449 156.908203
v -1.816406 60.034668 156.910156
v -3.414063 61.222961 156.921875
v -1.816406 86.840820 156.925781
v -1.816406 140.453247 156.957031
v -3.414063 142.701477 156.970703
v -1.816406 167.259460 156.972656
v -3.414063 170.247314 156.986328
v -1.816406 194.065674 156.988281
v -3.414063 197.469299 157.001953
v -1.816406 220.871826 157.003906
v -3.414063 223.336365 157.017578
v -1.816406 113.647034 156.941406
v -3.414063 118.002441 156.957031
v -3.414063 90.117920 156.939453
v -1.816406 6.422241 156.878906
v 1.753906 6.422241 156.847656
v -1.816406 19.801575 156.886719
v -2.671875 127.856140 156.957031
v -2.246094 106.865784 156.939453
v -2.765625 206.735413 157.001953
v -2.285156 187.421814 156.988281
vt 0.488846 0.158831
vt 0.488841 0.158832
vt 0.488833 0.158876
vt 0.488838 0.158876
vt 0.488839 0.158871
vt 0.488834 0.158871
vt 0.488842 0.158836
vt 0.488840 0.158837
vt 0.488845 0.158836
vt 0.488847 0.158836
vt 0.488609 0.181661
vt 0.488613 0.181665
vt 0.488597 0.181671
vt 0.488593 0.181668
vt 0.488572 0.181952
vt 0.488578 0.181993
vt 0.488581 0.181994
vt 0.488566 0.182001
vt 0.488566 0.181991
vt 0.488586 0.181945
vt 0.488603 0.181607
vt 0.488619 0.181601
vt 0.488673 0.158874
vt 0.488620 0.158871
vt 0.488531 0.181976
vt 0.488402 0.181878
vt 0.488399 0.181878
vt 0.488404 0.181831
vt 0.487649 0.158889
vt 0.487646 0.158889
vt 0.487155 0.158884
vt 0.487153 0.158884
vt 0.487641 0.158876
vt 0.487154 0.158872
vt 0.488573 0.181900
vt 0.488576 0.181901
vt 0.488406 0.181783
vt 0.488402 0.181782
vt 0.488581 0.181847
vt 0.488405 0.181746
vt 0.488407 0.181732
vt 0.488578 0.181846
vt 0.488403 0.181731
vt 0.488432 0.203617
vt 0.488511 0.203621
vt 0.488028 0.203617
vt 0.488011 0.203614
vt 0.488518 0.203577
vt 0.488517 0.203611
vt 0.488030 0.203580
vt 0.488588 0.181730
vt 0.488592 0.181733
vt 0.488410 0.181624
vt 0.488405 0.181622
vt 0.488490 0.181611
vt 0.488411 0.181582
vt 0.488463 0.181595
vt 0.488411 0.181567
vt 0.488407 0.181563
vt 0.488487 0.181604
vt 0.488407 0.181545
vt 0.488413 0.181507
vt 0.488622 0.158837
vt 0.488623 0.158836
vt 0.495043 0.180219
vt 0.495039 0.180170
vt 0.495039 0.180166
vt 0.495044 0.180215
vt 0.495041 0.180168
vt 0.495042 0.180165
vt 0.495046 0.180120
vt 0.495047 0.180117
vt 0.495049 0.180110
vt 0.495049 0.180116
vt 0.495048 0.180069
vt 0.495049 0.180067
vt 0.495051 0.180064
vt 0.495051 0.180063
vt 0.495051 0.180057
vt 0.495050 0.180017
vt 0.495051 0.180016
vt 0.495053 0.180014
vt 0.495053 0.180013
vt 0.495053 0.179965
vt 0.495053 0.179964
vt 0.495021 0.180064
vt 0.495041 0.180258
vt 0.495040 0.180269
vt 0.494992 0.180262
vt 0.488622 0.158832
vt 0.488621 0.158832
vt 0.494915 0.179952
vt 0.494914 0.179964
vt 0.494885 0.179958
vt 0.488508 0.181620
vt 0.488671 0.158876
vt 0.488682 0.158876
vt 0.488586 0.181791
vt 0.488406 0.181712
vt 0.488408 0.181679
vt 0.494941 0.179959
vt 0.488619 0.158876
vt 0.488622 0.158837
vt 0.488621 0.158837
vt 0.488428 0.181502
vt 0.488423 0.181558
vt 0.488426 0.181561
vt 0.488420 0.181616
vt 0.488603 0.181723
vt 0.488424 0.181618
vt 0.488607 0.181726
vt 0.488047 0.203580
vt 0.488043 0.203614
vt 0.488527 0.203617
vt 0.488529 0.203577
vt 0.488045 0.203617
vt 0.488522 0.203621
vt 0.488423 0.181673
vt 0.488417 0.181725
vt 0.488593 0.181839
vt 0.488601 0.181784
vt 0.488421 0.181726
vt 0.488596 0.181840
vt 0.488416 0.181775
vt 0.488587 0.181892
vt 0.488420 0.181777
vt 0.488591 0.181893
vt 0.487165 0.158872
vt 0.487164 0.158883
vt 0.487650 0.158888
vt 0.487642 0.158875
vt 0.487167 0.158884
vt 0.487647 0.158888
vt 0.488418 0.181825
vt 0.488413 0.181871
vt 0.488416 0.181872
vt 0.488619 0.158871
vt 0.495038 0.180464
vt 0.495039 0.180333
vt 0.495064 0.180323
vt 0.495062 0.180452
vt 0.495057 0.180307
vt 0.495034 0.180303
vt 0.495040 0.180199
vt 0.495035 0.180196
vt 0.495061 0.180187
vt 0.495065 0.180190
vt 0.495038 0.179466
vt 0.495065 0.179464
vt 0.495072 0.179476
vt 0.495045 0.179478
vn -1.000000 0.000000 0.000000
vn -1.000000 0.000000 0.000000
vn -1.000000 0.000000 0.000000
vn -0.795158 -0.606400 0.001753
vn -0.795158 -0.606400 0.001753
vn -0.795158 -0.606400 0.001753
vn -0.795158 -0.606400 0.001753
vn -0.997922 0.064430 -0.000208
vn -0.997922 0.064430 -0.000208
vn -0.997922 0.064430 -0.000208
vn -0.997922 0.064430 -0.000208
vn -0.997922 0.064430 -0.000208
vn -0.596797 -0.802392 0.000000
vn -0.596797 -0.802392 0.000000
vn -0.596797 -0.802392 0.000000
vn -0.596797 -0.802392 0.000000
vn -0.998061 0.062244 0.000000
vn -0.998061 0.062244 0.000000
vn -0.998061 0.062244 0.000000
vn -0.998061 0.062244 0.000000
vn -0.833338 -0.552758 0.002750
vn -0.833338 -0.552758 0.002750
vn -0.833338 -0.552758 0.002750
vn -0.833338 -0.552758 0.002750
vn -0.998006 0.063123 -0.000004
vn -0.998006 0.063123 -0.000004
vn -0.998006 0.063123 -0.000004
vn -0.998006 0.063123 -0.000004
vn -0.951766 -0.306823 -0.001040
vn -0.951766 -0.306823 -0.001040
vn -0.951766 -0.306823 -0.001040
vn -0.951766 -0.306823 -0.001040
vn -0.815141 -0.579263 0.000000
vn -0.815141 -0.579263 0.000000
vn -0.815141 -0.579263 0.000000
vn -0.815141 -0.579263 0.000000
vn -0.997890 0.064921 0.000004
vn -0.997890 0.064921 0.000004
vn -0.997890 0.064921 0.000004
vn -0.997890 0.064921 0.000004
vn -0.997890 0.064921 0.000004
vn -0.831053 -0.556191 0.001885
vn -0.831053 -0.556191 0.001885
vn -0.831053 -0.556191 0.001885
vn -0.831053 -0.556191 0.001885
vn -0.997822 0.065965 -0.000482
vn -0.997822 0.065965 -0.000482
vn -0.997822 0.065965 -0.000482
vn -0.997822 0.065965 -0.000482
vn -0.894195 -0.447672 0.001993
vn -0.894195 -0.447672 0.001993
vn -0.894195 -0.447672 0.001993
vn -0.894195 -0.447673 0.001993
vn -0.997743 0.067149 0.000012
vn -0.997743 0.067149 0.000012
vn -0.997743 0.067149 0.000012
vn -0.997743 0.067149 0.000012
vn -0.839111 -0.543960 0.000000
vn -0.839111 -0.543960 0.000000
vn -0.839111 -0.543960 0.000000
vn -0.839111 -0.543960 0.000000
vn -0.000315 0.116853 -0.993149
vn -0.000315 0.116853 -0.993149
vn -0.000315 0.116853 -0.993149
vn -0.000315 0.116853 -0.993149
vn 0.092648 -0.267081 -0.959210
vn 0.092648 -0.267081 -0.959210
vn 0.092648 -0.267081 -0.959210
vn 0.092648 -0.267081 -0.959210
vn 0.020860 -0.060847 -0.997929
vn 0.020860 -0.060847 -0.997929
vn 0.020860 -0.060847 -0.997929
vn 0.020860 -0.060847 -0.997929
vn -0.128849 -0.374108 -0.918391
vn -0.128849 -0.374108 -0.918391
vn -0.128849 -0.374108 -0.918391
vn -0.128849 -0.374108 -0.918391
vn 0.016780 0.049238 -0.998646
vn 0.016780 0.049238 -0.998646
vn 0.016780 0.049238 -0.998646
vn 0.016780 0.049238 -0.998646
vn -0.000353 -0.464076 -0.885796
vn -0.000353 -0.464076 -0.885796
vn -0.000353 -0.464076 -0.885796
vn -0.000353 -0.464076 -0.885796
vn -0.000274 0.047909 -0.998852
vn -0.000274 0.047909 -0.998852
vn -0.000274 0.047909 -0.998852
vn -0.000274 0.047909 -0.998852
vn -0.000274 0.047909 -0.998852
vn 0.087878 -0.253374 -0.963369
vn 0.087878 -0.253374 -0.963369
vn 0.087878 -0.253374 -0.963369
vn 0.087878 -0.253374 -0.963369
vn -0.018656 0.052691 -0.998437
vn -0.018656 0.052691 -0.998437
vn -0.018656 0.052691 -0.998437
vn -0.018656 0.052691 -0.998437
vn -0.971734 -0.219760 -0.086251
vn -0.971734 -0.219760 -0.086251
vn -0.971734 -0.219760 -0.086251
vn -0.498159 -0.236234 -0.834285
vn -0.498159 -0.236234 -0.834285
vn -0.498158 -0.236234 -0.834285
vn -0.980738 -0.187286 -0.055464
vn -0.980738 -0.187286 -0.055464
vn -0.980738 -0.187286 -0.055464
vn 0.001275 0.951106 0.308863
vn 0.001275 0.951106 0.308863
vn 0.001275 0.951106 0.308863
vn 0.001275 0.951106 0.308863
vn -0.999131 0.041141 0.006679
vn -0.999131 0.041141 0.006679
vn -0.999131 0.041141 0.006679
vn -0.999131 0.041141 0.006679
vn -0.976602 -0.204119 -0.067711
vn -0.976601 -0.204119 -0.067711
vn -0.976602 -0.204119 -0.067711
vn -0.841720 -0.539913 0.001209
vn -0.841720 -0.539913 0.001209
vn -0.841720 -0.539913 0.001209
vn -0.841720 -0.539913 0.001209
vn 0.000000 -1.000000 0.000000
vn 0.000000 -1.000000 0.000000
vn 0.000000 -1.000000 0.000000
vn 0.000000 -1.000000 0.000000
vn -1.000000 -0.000000 0.000000
vn -1.000000 -0.000000 0.000000
vn -1.000000 -0.000000 0.000000
vn -1.000000 -0.000000 0.000000
vn -0.997183 0.075006 0.000512
vn -0.997183 0.075006 0.000512
vn -0.997183 0.075006 0.000512
vn -0.997183 0.075006 0.000512
vn -0.997702 0.067754 0.000000
vn -0.997702 0.067754 0.000000
vn -0.997702 0.067754 0.000000
vn -0.997917 0.064517 -0.000364
vn -0.997917 0.064517 -0.000364
vn -0.997917 0.064517 -0.000364
vn -0.997917 0.064517 -0.000364
vn -0.997520 0.070379 0.000000
vn -0.997520 0.070379 0.000000
vn -0.997520 0.070379 0.000000
vn -0.997968 0.063716 0.000000
vn -0.997968 0.063716 0.000000
vn -0.997968 0.063716 0.000000
vn -0.978225 -0.191910 0.079035
vn -0.978225 -0.191910 0.079035
vn -0.978225 -0.191910 0.079035
vn -0.000024 -1.000000 0.000000
vn -0.000024 -1.000000 0.000000
vn -0.000024 -1.000000 0.000000
vn 0.998960 -0.044966 -0.007572
vn 0.998960 -0.044966 -0.007572
vn 0.998960 -0.044966 -0.007572
vn 0.998960 -0.044966 -0.007572
vn 0.962518 0.271214 0.001626
vn 0.962518 0.271214 0.001626
vn 0.962518 0.271214 0.001626
vn 0.962518 0.271214 0.001626
vn 0.997694 -0.067869 0.000407
vn 0.997694 -0.067869 0.000407
vn 0.997694 -0.067869 0.000407
vn 0.997694 -0.067869 0.000407
vn 0.897664 0.440672 -0.002641
vn 0.897664 0.440672 -0.002641
vn 0.897664 0.440672 -0.002641
vn 0.897664 0.440672 -0.002641
vn 0.997315 -0.073235 -0.000438
vn 0.997315 -0.073235 -0.000438
vn 0.997315 -0.073235 -0.000438
vn 0.997315 -0.073235 -0.000438
vn 0.952270 0.305251 0.001827
vn 0.952270 0.305251 0.001827
vn 0.952270 0.305251 0.001827
vn 0.952270 0.305251 0.001827
vn 0.997880 -0.065077 0.000000
vn 0.997880 -0.065077 0.000000
vn 0.997880 -0.065077 0.000000
vn 0.997880 -0.065077 0.000000
vn 0.814472 0.580202 0.000000
vn 0.814472 0.580202 0.000000
vn 0.814472 0.580202 0.000000
vn 0.814472 0.580202 0.000000
vn 0.997855 -0.065469 0.000392
vn 0.997855 -0.065469 0.000392
vn 0.997855 -0.065469 0.000392
vn 0.997855 -0.065469 0.000392
vn 0.831341 0.555753 -0.003327
vn 0.831341 0.555753 -0.003327
vn 0.831341 0.555753 -0.003327
vn 0.831341 0.555753 -0.003327
vn 0.997371 -0.072458 -0.000435
vn 0.997371 -0.072458 -0.000435
vn 0.997371 -0.072458 -0.000435
vn 0.997371 -0.072458 -0.000435
vn 0.947654 0.319292 0.001930
vn 0.947654 0.319292 0.001930
vn 0.947654 0.319292 0.001930
vn 0.947654 0.319292 0.001930
vn 0.998052 -0.062395 0.000000
vn 0.998052 -0.062395 0.000000
vn 0.998052 -0.062395 0.000000
vn 0.998052 -0.062395 0.000000
vn 0.595829 0.803111 -0.000000
vn 0.595829 0.803111 -0.000000
vn 0.595829 0.803111 -0.000000
vn 0.595829 0.803111 -0.000000
vn 0.997712 -0.067613 -0.000222
vn 0.997712 -0.067613 -0.000222
vn 0.997712 -0.067613 -0.000222
vn 0.997712 -0.067613 -0.000222
vn 0.892731 0.450587 0.001482
vn 0.892731 0.450587 0.001482
vn 0.892731 0.450587 0.001482
vn 0.892731 0.450587 0.001482
vn 1.000000 0.000000 0.000000
vn 1.000000 0.000000 0.000000
vn 1.000000 0.000000 0.000000
vn 1.000000 0.000000 0.000000
vn -0.997577 0.069569 -0.000690
vn -0.997577 0.069569 -0.000690
vn -0.997577 0.069569 -0.000690
vn -0.997653 0.068470 -0.000366
vn -0.997653 0.068470 -0.000366
vn -0.997653 0.068470 -0.000366
vn -0.997653 0.068470 -0.000366
vn 0.008308 -0.001196 0.999965
vn 0.008329 -0.001320 0.999964
vn 0.008380 -0.001607 0.999964
vn 0.008380 -0.001607 0.999964
vn 0.008071 -0.000500 0.999967
vn 0.008094 -0.000550 0.999967
vn 0.008100 -0.000614 0.999967
vn 0.008120 -0.000580 0.999967
vn 0.008115 -0.000592 0.999967
vn 0.008329 -0.001320 0.999964
vn 0.008308 -0.001196 0.999965
vn 0.008220 -0.000541 0.999966
vn 0.008228 -0.000551 0.999966
vn 0.008094 -0.000550 0.999967
vn 0.008071 -0.000500 0.999967
vn 0.008100 -0.000614 0.999967
vn 0.008094 -0.000550 0.999967
vn 0.008115 -0.000592 0.999967
vn 0.008120 -0.000580 0.999967
vn 0.008235 -0.000583 0.999966
vn 0.008113 -0.000582 0.999967
vn 0.008228 -0.000551 0.999966
vn 0.008220 -0.000541 0.999966
vn 0.008237 -0.000595 0.999966
vn 0.008244 -0.000602 0.999966
vn 0.008113 -0.000582 0.999967
vn 0.008065 -0.000595 0.999967
vn 0.008065 -0.000595 0.999967
vn 0.008113 -0.000582 0.999967
vn 0.008235 -0.000583 0.999966
vn 0.008256 -0.000595 0.999966
vn 0.008256 -0.000572 0.999966
vn 0.008244 -0.000602 0.999966
vn 0.008237 -0.000595 0.999966
vn 0.008260 -0.000513 0.999966
vn 0.008261 -0.000538 0.999966
vn 0.008256 -0.000572 0.999966
vn 0.008256 -0.000595 0.999966
vn 0.008256 -0.000567 0.999966
vn 0.008224 -0.000602 0.999966
vn 0.008261 -0.000538 0.999966
vn 0.008260 -0.000513 0.999966
vn 0.008087 -0.000618 0.999967
vn 0.008076 -0.000617 0.999967
vn 0.008224 -0.000602 0.999966
vn 0.008184 -0.000623 0.999966
vn 0.008184 -0.000623 0.999966
vn 0.008224 -0.000602 0.999966
vn 0.008256 -0.000567 0.999966
vn 0.008046 -0.000609 0.999968
vn 0.008035 -0.000547 0.999968
vn 0.008076 -0.000617 0.999967
vn 0.008087 -0.000618 0.999967
vn 0.008235 -0.000640 0.999966
vn 0.008242 -0.000650 0.999966
vn 0.008035 -0.000547 0.999968
vn 0.008015 -0.000536 0.999968
vn 0.008015 -0.000536 0.999968
vn 0.008035 -0.000547 0.999968
vn 0.008046 -0.000609 0.999968
vn 0.008255 -0.000631 0.999966
vn 0.008255 -0.000541 0.999966
vn 0.008242 -0.000650 0.999966
vn 0.008235 -0.000640 0.999966
vn 0.008255 -0.000495 0.999966
vn 0.008255 -0.000588 0.999966
vn 0.008255 -0.000541 0.999966
vn 0.008255 -0.000631 0.999966
vn 0.008255 -0.000523 0.999966
vn 0.008255 -0.000551 0.999966
vn 0.008255 -0.000571 0.999966
vn 0.008255 -0.000596 0.999966
vn 0.008255 -0.000596 0.999966
vn 0.008255 -0.000571 0.999966
vn 0.008255 -0.000588 0.999966
vn 0.008255 -0.000495 0.999966
vn 0.008257 -0.000645 0.999966
vn 0.008255 -0.000551 0.999966
vn 0.008255 -0.000523 0.999966
vn 0.008255 -0.000589 0.999966
vn 0.008257 -0.000645 0.999966
vn 0.008255 -0.000589 0.999966
vn 0.008258 -0.000717 0.999966
vn 0.008258 -0.000717 0.999966
vn -0.000159 -0.000036 -1.000000
vn -0.000190 -0.000046 -1.000000
vn -0.000181 -0.000043 -1.000000
vn -0.000159 -0.000036 -1.000000
vn -0.000330 -0.014233 -0.999899
vn -0.000323 -0.018542 -0.999828
vn -0.000321 -0.020349 -0.999793
vn -0.000321 -0.020349 -0.999793
vn -0.000321 -0.020349 -0.999793
vn -0.000321 -0.020349 -0.999793
vn -0.000181 -0.000043 -1.000000
vn -0.000190 -0.000046 -1.000000
vn -0.000323 -0.018542 -0.999828
vn -0.000330 -0.014233 -0.999899
vn -0.000318 0.000007 -1.000000
vn -0.000318 -0.000006 -1.000000
vn -0.000318 -0.000231 -1.000000
vn -0.000318 -0.000231 -1.000000
vn -0.000160 -0.000015 -1.000000
vn -0.000170 -0.000022 -1.000000
vn -0.000155 -0.000011 -1.000000
vn -0.000155 -0.000011 -1.000000
vn -0.000312 0.000002 -1.000000
vn -0.000310 -0.000005 -1.000000
vn -0.000170 -0.000022 -1.000000
vn -0.000160 -0.000015 -1.000000
vn -0.000318 0.000007 -1.000000
vn -0.000310 -0.000005 -1.000000
vn -0.000312 0.000002 -1.000000
vn -0.000318 -0.000006 -1.000000
s off
f 3/5/1 81/23/2 63/24/3
f 39/25/4 3/18/5 63/26/6 64/27/7
f 4/15/8 38/19/9 39/25/10 64/27/11 65/28/12
f 5/29/13 4/30/14 65/31/15 66/32/16
f 6/33/17 5/29/18 66/32/19 67/34/20
f 7/35/21 6/36/22 67/37/23 78/38/24
f 8/39/25 7/35/26 83/40/27 76/41/28
f 9/42/29 8/39/30 76/41/31 77/43/32
f 37/44/33 10/45/34 68/46/35 69/47/36
f 12/48/37 11/49/38 37/44/39 69/47/40 70/50/41
f 13/51/42 12/52/43 70/53/44 71/54/45
f 42/55/46 13/51/47 71/54/48 85/56/49
f 40/57/50 42/55/51 72/58/52 73/59/53
f 16/21/54 43/60/55 84/61/56 74/62/57
f 17/10/58 16/9/59 74/63/60 75/64/61
f 5/65/62 6/66/63 31/67/64 32/68/65
f 6/66/66 7/69/67 30/70/68 31/67/69
f 7/69/70 8/71/71 29/72/72 30/70/73
f 8/71/74 9/73/75 28/74/76 29/72/77
f 9/73/78 10/75/79 27/76/80 28/74/81
f 10/75/82 36/77/83 26/78/84 27/76/85
f 36/77/86 11/79/87 12/80/88 25/81/89 26/78/90
f 12/80/91 13/82/92 24/83/93 25/81/94
f 13/82/95 14/84/96 23/85/97 24/83/98
f 11/79/99 10/75/100 37/86/101
f 10/75/102 11/79/103 36/77/104
f 39/89/105 38/87/106 3/88/107
f 19/2/108 18/1/109 44/90/110 45/91/111
f 18/1/112 17/10/113 75/64/114 44/90/115
f 43/92/116 42/93/117 40/94/118
f 15/14/119 14/13/120 42/55/121 41/95/122
f 1/3/123 80/96/124 79/97/125 2/4/126
f 3/5/127 2/4/128 79/97/129 81/23/130
f 10/98/131 9/42/132 77/43/133 82/99/134
f 10/98/135 82/99/136 68/100/137
f 16/21/138 15/14/139 41/95/140 43/60/141
f 42/55/142 85/56/143 72/58/144
f 14/13/145 13/51/146 42/55/147
f 41/101/148 42/93/149 43/92/150
f 62/102/151 80/96/152 1/3/153
f 45/91/154 46/103/155 20/7/156 19/2/157
f 46/103/158 47/104/159 21/8/160 20/7/161
f 47/105/162 48/106/163 22/11/164 21/22/165
f 48/106/166 49/107/167 23/12/168 22/11/169
f 49/107/170 50/108/171 24/109/172 23/12/173
f 50/108/174 51/110/175 25/111/176 24/109/177
f 51/112/178 52/113/179 26/114/180 25/115/181
f 52/113/182 53/116/183 27/117/184 26/114/185
f 53/118/186 54/119/187 28/120/188 27/121/189
f 54/119/190 55/122/191 29/123/192 28/120/193
f 55/122/194 56/124/195 30/125/196 29/123/197
f 56/124/198 57/126/199 31/127/200 30/125/201
f 57/128/202 58/129/203 32/130/204 31/131/205
f 58/129/206 59/132/207 33/133/208 32/130/209
f 59/134/210 60/135/211 34/16/212 33/20/213
f 60/135/214 61/136/215 35/17/216 34/16/217
f 61/137/218 62/102/219 1/3/220 35/6/221
f 78/38/222 83/40/223 7/35/224
f 73/59/225 84/61/226 43/60/227 40/57/228
f 75/64/229 46/103/230 45/91/231 44/90/232
f 73/59/233 48/106/234 84/61/235
f 74/62/236 47/104/237 46/103/238 75/64/239
f 72/58/240 49/107/241 48/106/242 73/59/243
f 84/61/244 48/106/245 47/104/246 74/62/247
f 85/56/248 50/108/249 49/107/250 72/58/251
f 70/50/252 51/110/253 50/108/254 71/54/255
f 71/54/256 50/108/257 85/56/258
f 69/47/259 52/113/260 51/110/261 70/50/262
f 68/100/263 53/116/264 52/113/265 69/47/266
f 82/99/267 54/119/268 53/116/269 68/100/270
f 76/41/271 55/122/272 54/119/273 77/43/274
f 77/43/275 54/119/276 82/99/277
f 83/40/278 56/124/279 55/122/280 76/41/281
f 67/34/282 57/126/283 56/124/284 78/38/285
f 78/38/286 56/124/287 83/40/288
f 66/32/289 58/129/290 57/126/291 67/34/292
f 65/28/293 59/132/294 58/129/295 66/32/296
f 63/24/297 61/136/298 60/135/299 64/27/300
f 64/27/301 60/135/302 59/132/303 65/28/304
f 62/102/305 61/136/306 63/24/307 81/23/308
f 62/102/309 81/23/310 79/97/311 80/96/312
f 2/138/313 3/139/314 35/140/315 1/141/316
f 34/142/317 38/143/318 4/144/319 5/145/320 32/146/321 33/147/322
f 35/140/323 3/139/324 38/143/325 34/142/326
f 15/148/327 22/149/328 23/150/329 14/151/330
f 20/7/331 17/10/332 18/1/333 19/2/334
f 21/22/335 16/9/336 17/10/337 20/7/338
f 15/14/339 16/9/340 21/22/341 22/11/342
