# This file uses centimeters as units for non-parametric coordinates.

v 181.354858 -165.694611 -92.353531
v 181.354858 -165.694611 -158.333740
v 181.354858 -79.988083 -92.353531
v 181.354858 -79.988083 -158.333740
v 181.136169 -79.988083 -92.353531
v 181.136169 -79.988083 -158.333740
v 181.136169 -165.694611 -92.353531
v 181.136169 -165.694611 -158.333740
vt 0.533279 0.522844
vt 0.594026 0.522844
vt 0.594026 0.601752
vt 0.533279 0.601752
vt 0.594026 0.601752
vt 0.533279 0.601752
vt 0.533279 0.522844
vt 0.594026 0.522844
vn 1.000000 0.000000 0.000000
vn 1.000000 0.000000 0.000000
vn 1.000000 0.000000 0.000000
vn 1.000000 0.000000 0.000000
vn -1.000000 0.000000 0.000000
vn -1.000000 0.000000 0.000000
vn -1.000000 0.000000 0.000000
vn -1.000000 0.000000 0.000000
s off
f 1/1/1 2/2/2 4/3/3 3/4/4
f 5/5/5 6/6/6 8/7/7 7/8/8
