# This file uses centimeters as units for non-parametric coordinates.

v -30.542969 0.000000 5.435547
v -30.542969 55.010925 5.435547
v 30.542969 55.010925 5.435547
v 30.542969 0.000000 5.435547
v -30.542969 253.850159 -140.197266
v 30.542969 253.850159 -140.197266
v -30.542969 0.000000 -50.001953
v 30.542969 0.000000 -50.001953
v -30.542969 224.449036 -499.996094
v 30.542969 224.449036 -499.996094
v -30.542969 253.850159 -499.996094
v 30.542969 253.850159 -499.996094
v -30.542969 24.718140 -50.001953
v 30.542969 24.718140 -50.001953
v 30.542969 0.000000 -499.996094
v 30.542969 24.718140 -499.996094
v -30.542969 24.718140 -499.996094
v -30.542969 0.000000 -499.996094
v -9.753906 39.470947 -90.126953
v 9.753906 39.470947 -90.126953
v 9.753906 214.344788 -499.996094
v -9.753906 214.344788 -499.996094
v -9.753906 39.470947 -499.996094
v 9.753906 39.470947 -499.996094
v 9.753906 214.344849 -219.003906
v 30.542969 224.449097 -207.412109
v -9.753906 214.344849 -219.003906
v -30.542969 224.449097 -207.412109
vt 0.196749 0.303595
vt 0.195754 0.303599
vt 0.195752 0.303545
vt 0.009097 1.012072
vt 0.985511 1.012072
vt 0.196751 0.303541
vt 0.316115 1.500280
vt 0.985511 1.500279
vt 0.985511 1.012072
vt 0.985511 1.500279
vt 0.316115 1.500280
vt 0.009097 1.012072
vt 0.196713 0.303518
vt 0.195782 0.303521
vt 0.195783 0.303572
vt 0.196712 0.303568
vt 0.196642 0.303495
vt 0.195771 0.303498
vt 0.195762 0.303505
vt 0.196652 0.303502
vt 0.195751 0.303119
vt 0.195761 0.303120
vt 0.017041 0.047884
vt 0.017329 0.047884
vt 0.017681 0.048528
vt 0.017041 0.048528
vt 0.019650 0.046054
vt 0.019992 0.046835
vt 0.017500 0.047417
vt 0.019533 0.045919
vt 0.019650 0.042653
vt 0.019992 0.042653
vt 0.022997 0.044346
vt 0.022655 0.048528
vt 0.022655 0.045127
vt 0.022997 0.048528
vt 0.020333 0.043297
vt 0.020685 0.042653
vt 0.022537 0.045262
vt 0.020505 0.043764
vt 0.020046 0.043297
vt 0.020046 0.042653
vt 0.023049 0.042653
vt 0.023759 0.042653
vt 0.023759 0.046835
vt 0.023049 0.046835
vt 0.023206 0.049267
vt 0.022562 0.049267
vt 0.022562 0.048557
vt 0.023206 0.048557
vt 0.023810 0.042653
vt 0.024052 0.042653
vt 0.024052 0.045919
vt 0.023810 0.046054
vt 0.024247 0.049484
vt 0.024005 0.049349
vt 0.024005 0.046083
vt 0.024247 0.046083
vt 0.023961 0.046864
vt 0.023961 0.047503
vt 0.023251 0.047503
vt 0.023251 0.046864
vt 0.023961 0.049815
vt 0.023251 0.049815
vt 0.022400 0.049267
vt 0.022058 0.049267
vt 0.022517 0.049025
vt 0.022058 0.048557
vt 0.022517 0.048799
vt 0.022400 0.048557
vn 0.000000 1.000000 0.000000
vn 0.000000 1.000000 0.000000
vn 0.000000 1.000000 0.000000
vn 0.000000 1.000000 0.000000
vn 0.000000 0.000000 1.000000
vn 0.000000 0.000000 1.000000
vn 0.000000 0.000000 1.000000
vn 0.000000 0.000000 1.000000
vn 0.000000 0.590882 0.806758
vn 0.000000 0.590882 0.806758
vn 0.000000 0.590882 0.806758
vn 0.000000 0.590882 0.806758
vn 1.000000 0.000000 0.000000
vn 1.000000 0.000000 0.000000
vn 1.000000 0.000000 0.000000
vn 1.000000 0.000000 0.000000
vn 0.000000 -1.000000 0.000000
vn 0.000000 -1.000000 0.000000
vn 0.000000 -1.000000 0.000000
vn 0.000000 -1.000000 0.000000
vn -1.000000 0.000000 0.000000
vn -1.000000 0.000000 0.000000
vn -1.000000 0.000000 0.000000
vn 1.000000 -0.000000 0.000000
vn 1.000000 -0.000000 0.000000
vn 1.000000 -0.000000 0.000000
vn 1.000000 -0.000000 0.000000
vn 1.000000 0.000000 0.000000
vn 1.000000 0.000000 0.000000
vn 1.000000 0.000000 0.000000
vn -1.000000 0.000000 0.000000
vn -1.000000 0.000000 0.000000
vn -1.000000 0.000000 0.000000
vn -1.000000 0.000000 0.000000
vn -1.000000 0.000000 0.000000
vn -1.000000 0.000000 0.000000
vn -1.000000 0.000000 0.000000
vn 1.000000 0.000000 0.000000
vn 1.000000 0.000000 0.000000
vn 1.000000 0.000000 0.000000
vn 1.000000 0.000000 0.000000
vn -1.000000 0.000000 0.000000
vn -1.000000 0.000000 0.000000
vn -1.000000 0.000000 0.000000
vn -1.000000 0.000000 0.000000
vn 0.000000 -1.000000 0.000000
vn 0.000000 -1.000000 0.000000
vn 0.000000 -1.000000 0.000000
vn 0.000000 -1.000000 0.000000
vn 0.677213 -0.446781 -0.584610
vn 0.677213 -0.446781 -0.584610
vn 0.677213 -0.446781 -0.584610
vn 0.677213 -0.446781 -0.584610
vn -0.000002 0.000000 -1.000000
vn -0.000002 0.000000 -1.000000
vn -0.000002 0.000000 -1.000000
vn -0.437138 -0.899394 0.000000
vn -0.437139 -0.899394 0.000000
vn -0.437138 -0.899394 0.000000
vn -0.437139 -0.899394 0.000000
vn -0.578728 0.815520 0.000000
vn -0.578728 0.815520 0.000000
vn -0.578728 0.815520 0.000000
vn -0.578728 0.815520 0.000000
vn 0.000000 0.000000 -1.000000
vn 0.000000 0.000000 -1.000000
vn 0.000000 0.000000 -1.000000
vn 0.578728 0.815520 0.000000
vn 0.578728 0.815520 0.000000
vn 0.578728 0.815520 0.000000
vn 0.578728 0.815520 0.000000
vn 1.000000 0.000000 0.000000
vn 1.000000 0.000000 0.000000
vn 1.000000 0.000000 0.000000
vn 0.000000 0.000000 -1.000000
vn 0.000000 0.000000 -1.000000
vn 0.000000 0.000000 -1.000000
vn 0.000000 0.000000 -1.000000
vn -1.000000 0.000000 0.000000
vn -1.000000 0.000000 0.000000
vn -1.000000 0.000000 0.000000
vn 0.000000 0.000000 -1.000000
vn 0.000000 0.000000 -1.000000
vn 0.000000 0.000000 -1.000000
vn 0.000000 0.000000 -1.000000
vn 0.000000 0.000000 -1.000000
vn 0.000000 0.000000 -1.000000
vn 0.000000 0.000000 -1.000000
vn 0.000002 0.000000 -1.000000
vn 0.000002 0.000000 -1.000000
vn 0.000002 0.000000 -1.000000
vn 0.000000 0.000000 -1.000000
vn 0.000000 0.000000 -1.000000
vn 0.000000 0.000000 -1.000000
vn 0.000000 0.000000 -1.000000
vn 1.000000 0.000000 0.000000
vn 1.000000 0.000000 0.000000
vn 1.000000 0.000000 0.000000
vn 0.437139 -0.899394 0.000000
vn 0.437138 -0.899394 0.000000
vn 0.437139 -0.899394 0.000000
vn 0.437138 -0.899394 0.000000
vn 1.000000 0.000000 0.000000
vn 1.000000 0.000000 0.000000
vn 1.000000 0.000000 0.000000
vn -1.000000 0.000000 0.000000
vn -1.000000 0.000000 0.000000
vn -1.000000 0.000000 0.000000
vn -0.677213 -0.446781 -0.584610
vn -0.677213 -0.446781 -0.584610
vn -0.677213 -0.446781 -0.584610
vn -0.677213 -0.446781 -0.584610
vn -1.000000 0.000000 0.000000
vn -1.000000 0.000000 0.000000
vn -1.000000 0.000000 0.000000
vn -1.000000 0.000000 0.000000
s off
f 5/43/1 6/44/2 12/45/3 11/46/4
f 4/59/5 3/60/6 2/61/7 1/62/8
f 3/60/9 6/63/10 5/64/11 2/61/12
f 8/23/13 14/24/14 3/25/15 4/26/16
f 1/47/17 7/48/18 8/49/19 4/50/20
f 5/33/21 9/34/22 28/35/23
f 3/25/24 14/24/25 26/27/26 6/28/27
f 6/28/28 10/31/29 12/32/30
f 9/34/31 5/33/32 11/36/33
f 7/41/34 1/42/35 2/38/36 13/37/37
f 8/1/38 15/2/39 16/3/40 14/6/41
f 13/13/42 17/14/43 18/15/44 7/16/45
f 7/16/46 18/15/47 15/2/48 8/1/49
f 14/24/50 20/29/51 25/30/52 26/27/53
f 9/65/54 11/66/55 22/67/56
f 9/51/57 22/52/58 27/53/59 28/54/60
f 13/13/61 19/17/62 23/18/63 17/14/64
f 18/15/65 17/14/66 23/18/67
f 16/3/68 24/19/69 20/20/70 14/6/71
f 20/4/72 24/5/73 25/7/74
f 21/21/75 24/19/76 23/18/77 22/22/78
f 22/10/79 23/9/80 27/11/81
f 11/66/82 12/68/83 21/69/84 22/67/85
f 12/68/86 10/70/87 21/69/88
f 16/3/89 15/2/90 24/19/91
f 15/2/92 18/15/93 23/18/94 24/19/95
f 25/7/96 24/5/97 21/8/98
f 26/55/99 25/56/100 21/57/101 10/58/102
f 6/28/103 26/27/104 10/31/105
f 27/11/106 23/9/107 19/12/108
f 28/35/109 27/39/110 19/40/111 13/37/112
f 5/33/113 28/35/114 13/37/115 2/38/116
