# This file uses centimeters as units for non-parametric coordinates.

v 181.647873 -169.513336 -85.609741
v 181.647873 -169.513336 -163.595337
v 181.647873 -76.282013 -85.609741
v 181.647873 -76.282013 -163.595337
v 181.332352 -76.282013 -85.609741
v 181.332352 -76.282013 -163.595337
v 181.332352 -169.513336 -85.609741
v 181.332352 -169.513336 -163.595337
vt 0.527753 0.519380
vt 0.599552 0.519380
vt 0.599552 0.605216
vt 0.527753 0.605216
vt 0.599552 0.605216
vt 0.527753 0.605216
vt 0.527753 0.519380
vt 0.599552 0.519380
vn 1.000000 0.000000 0.000000
vn 1.000000 0.000000 0.000000
vn 1.000000 0.000000 0.000000
vn 1.000000 0.000000 0.000000
vn -1.000000 0.000000 0.000000
vn -1.000000 0.000000 0.000000
vn -1.000000 0.000000 0.000000
vn -1.000000 0.000000 0.000000
s off
f 1/1/1 2/2/2 4/3/3 3/4/4
f 5/5/5 6/6/6 8/7/7 7/8/8
