# This file uses centimeters as units for non-parametric coordinates.

v 31.603088 -15.820160 -125.000000
v 31.603088 -15.820160 -77.313843
v 7.362061 28.549004 -125.000000
v 12.008057 26.675758 -72.810211
v 35.934448 -3.009682 -125.000000
v 32.783203 3.935242 -74.082336
v 8.537598 31.372566 -29.373779
v 38.111572 2.197342 -24.732666
v 31.603088 -15.820160 -29.974976
v -0.002441 30.287971 -125.000000
v 2.528687 31.426849 -79.115295
v -0.002441 33.111572 -29.373779
v 7.335815 30.333595 0.000000
v 33.644714 3.787231 0.000000
v 31.603088 -15.820160 0.000000
v -0.002441 32.072563 0.000000
v -31.607361 -15.820160 -125.000000
v -31.607361 -15.820160 -77.313843
v -7.366333 28.549004 -125.000000
v -11.140137 27.854500 -77.144470
v -33.400574 0.138321 -125.000000
v -32.165222 5.635681 -74.082336
v -8.541260 31.372566 -29.373779
v -38.115234 2.197342 -24.732666
v -31.607361 -15.820160 -29.974976
v -7.339478 30.333595 0.000000
v -27.602539 0.900307 0.000000
v -31.607361 -15.820160 0.000000
v 1.719360 11.519051 2.606354
v 1.719360 10.609283 -25.599518
v 1.719360 3.065491 -72.938385
v 1.719360 10.609283 -125.000000
v -0.004578 -2.627907 0.000000
vt 0.048330 0.122202
vt 0.048590 0.122333
vt 0.048194 0.122472
vt 0.048482 0.122528
vt 0.048215 0.122543
vt 0.048470 0.122646
vt 0.048848 0.122386
vt 0.049021 0.122454
vt 0.048730 0.122662
vt 0.048892 0.122696
vt 0.048731 0.122752
vt 0.048900 0.122820
vt 0.048365 0.122174
vt 0.048601 0.122266
vt 0.048889 0.122354
vt 0.049056 0.122425
vt 0.048400 0.122169
vt 0.048521 0.122291
vt 0.048676 0.122262
vt 0.048788 0.122363
vt 0.048512 0.122396
vt 0.048766 0.122494
vt 0.048929 0.122345
vt 0.049087 0.122475
vt 0.049090 0.122418
vt 0.049178 0.122562
vt 0.049025 0.122595
vt 0.049194 0.122661
vt 0.049059 0.122571
vt 0.048636 0.122462
vt 0.048357 0.122304
vt 0.049050 0.122654
vt 0.048899 0.122515
vn 0.740660 0.670574 -0.041866
vn 0.740661 0.670574 -0.041866
vn 0.740660 0.670574 -0.041866
vn 0.736193 0.675170 -0.046528
vn 0.736193 0.675170 -0.046528
vn 0.736193 0.675170 -0.046528
vn 0.947317 -0.320298 0.000000
vn 0.947317 -0.320298 0.000000
vn 0.947317 -0.320298 0.000000
vn 0.994920 -0.071091 0.071271
vn 0.994920 -0.071091 0.071271
vn 0.994920 -0.071091 0.071271
vn 0.696982 0.715067 0.053808
vn 0.696982 0.715067 0.053808
vn 0.696982 0.715067 0.053808
vn 0.707841 0.701509 0.082745
vn 0.707841 0.701509 0.082745
vn 0.707841 0.701509 0.082745
vn 0.940518 -0.339744 0.000000
vn 0.940518 -0.339744 0.000000
vn 0.940518 -0.339744 0.000000
vn 0.977800 -0.101814 0.183141
vn 0.977800 -0.101814 0.183141
vn 0.977800 -0.101814 0.183141
vn 0.998221 -0.059630 0.000000
vn 0.998221 -0.059630 0.000000
vn 0.998221 -0.059630 0.000000
vn 0.944550 -0.308368 -0.112844
vn 0.944550 -0.308368 -0.112844
vn 0.944550 -0.308368 -0.112844
vn 0.737827 0.674844 -0.014021
vn 0.737827 0.674844 -0.014021
vn 0.737827 0.674844 -0.014021
vn 0.705434 0.706919 -0.051272
vn 0.705434 0.706919 -0.051272
vn 0.705434 0.706919 -0.051272
vn 0.365919 0.930436 -0.019811
vn 0.365919 0.930436 -0.019811
vn 0.365919 0.930436 -0.019811
vn 0.365919 0.930436 -0.019811
vn 0.213805 0.976102 0.038900
vn 0.213805 0.976102 0.038900
vn 0.213805 0.976102 0.038900
vn 0.213805 0.976102 0.038900
vn 0.351371 0.935319 -0.041426
vn 0.351371 0.935319 -0.041426
vn 0.351371 0.935319 -0.041426
vn 0.351371 0.935319 -0.041426
vn -0.736409 0.674811 -0.048279
vn -0.736409 0.674811 -0.048279
vn -0.736409 0.674811 -0.048279
vn -0.729050 0.682169 -0.055963
vn -0.729050 0.682169 -0.055963
vn -0.729050 0.682169 -0.055963
vn -0.993746 -0.111665 0.000000
vn -0.993746 -0.111665 0.000000
vn -0.993746 -0.111665 0.000000
vn -0.999168 -0.030120 0.027493
vn -0.999168 -0.030120 0.027493
vn -0.999168 -0.030120 0.027493
vn -0.696982 0.715067 0.053808
vn -0.696982 0.715067 0.053808
vn -0.696982 0.715067 0.053808
vn -0.770002 0.530101 0.355091
vn -0.770002 0.530101 0.355091
vn -0.770002 0.530101 0.355091
vn -0.940528 -0.339716 0.000000
vn -0.940528 -0.339716 0.000000
vn -0.940528 -0.339716 0.000000
vn -0.894830 0.214326 0.391590
vn -0.894830 0.214326 0.391590
vn -0.894830 0.214326 0.391590
vn -0.999662 -0.025992 0.000000
vn -0.999662 -0.025992 0.000000
vn -0.999662 -0.025992 0.000000
vn -0.943829 -0.301683 -0.134815
vn -0.943828 -0.301683 -0.134815
vn -0.943828 -0.301683 -0.134815
vn -0.727062 0.686484 -0.011002
vn -0.727062 0.686484 -0.011002
vn -0.727062 0.686484 -0.011002
vn -0.704671 0.708641 -0.035588
vn -0.704671 0.708641 -0.035588
vn -0.704671 0.708641 -0.035588
vn -0.245524 0.969359 -0.007850
vn -0.245524 0.969359 -0.007850
vn -0.245524 0.969359 -0.007850
vn -0.245524 0.969359 -0.007850
vn -0.213836 0.976095 0.038900
vn -0.213836 0.976095 0.038900
vn -0.213836 0.976095 0.038900
vn -0.213836 0.976095 0.038900
vn -0.236627 0.970229 -0.051602
vn -0.236627 0.970229 -0.051602
vn -0.236627 0.970229 -0.051602
vn -0.236627 0.970229 -0.051602
vn 0.093034 0.048916 0.994461
vn 0.093034 0.048916 0.994461
vn 0.093034 0.048916 0.994461
vn 0.093034 0.048916 0.994461
vn -0.605866 -0.793302 -0.059996
vn -0.605866 -0.793302 -0.059996
vn -0.605866 -0.793302 -0.059996
vn -0.605866 -0.793302 -0.059996
vn -0.108959 0.057291 0.992394
vn -0.108959 0.057291 0.992394
vn -0.108959 0.057291 0.992394
vn -0.108959 0.057291 0.992394
vn 0.000000 0.125801 0.992056
vn 0.000000 0.125801 0.992056
vn 0.000000 0.125801 0.992056
vn 0.000000 0.125801 0.992056
vn -0.540024 -0.814815 -0.210831
vn -0.540024 -0.814815 -0.210831
vn -0.540024 -0.814815 -0.210831
vn -0.540024 -0.814815 -0.210831
vn -0.597000 -0.799707 0.063720
vn -0.597000 -0.799707 0.063720
vn -0.597000 -0.799707 0.063720
vn -0.597000 -0.799707 0.063720
vn 0.521087 -0.833779 -0.182432
vn 0.521087 -0.833779 -0.182432
vn 0.521087 -0.833779 -0.182432
vn 0.521087 -0.833779 -0.182432
vn 0.555056 -0.829185 0.066068
vn 0.555057 -0.829185 0.066068
vn 0.555057 -0.829185 0.066068
vn 0.555056 -0.829185 0.066068
vn 0.563933 -0.823469 -0.062278
vn 0.563933 -0.823469 -0.062278
vn 0.563933 -0.823469 -0.062278
vn 0.563933 -0.823469 -0.062278
vn -0.071887 -0.172237 0.982429
vn -0.071887 -0.172237 0.982429
vn -0.071887 -0.172237 0.982429
vn 0.079293 -0.189952 0.978586
vn 0.079293 -0.189952 0.978586
vn 0.079293 -0.189952 0.978586
vn -0.000000 0.000000 -1.000000
vn -0.000000 0.000000 -1.000000
vn 0.000000 0.000000 -1.000000
vn 0.000000 0.000000 -1.000000
vn -0.000000 0.000000 -1.000000
vn 0.000000 0.000000 -1.000000
vn -0.000000 0.000000 -1.000000
vn 0.000000 0.000000 -1.000000
vn 0.000000 0.000000 -1.000000
vn -0.000000 0.000000 -1.000000
vn 0.000000 0.000000 -1.000000
vn -0.000000 0.000000 -1.000000
vn 0.000000 0.000000 -1.000000
vn 0.000000 0.000000 -1.000000
s off
f 3/1/1 4/2/2 5/3/3
f 5/3/4 4/2/5 6/4/6
f 1/5/7 5/3/8 2/6/9
f 2/6/10 5/3/11 6/4/12
f 7/7/13 13/8/14 8/9/15
f 8/9/16 13/8/17 14/10/18
f 9/11/19 8/9/20 15/12/21
f 15/12/22 8/9/23 14/10/24
f 2/6/25 6/4/26 9/11/27
f 9/11/28 6/4/29 8/9/30
f 4/2/31 7/7/32 6/4/33
f 6/4/34 7/7/35 8/9/36
f 4/2/37 3/1/38 10/13/39 11/14/40
f 13/8/41 7/7/42 12/15/43 16/16/44
f 7/7/45 4/2/46 11/14/47 12/15/48
f 19/17/49 21/18/50 20/19/51
f 21/18/52 22/20/53 20/19/54
f 17/21/55 18/22/56 21/18/57
f 18/22/58 22/20/59 21/18/60
f 23/23/61 24/24/62 26/25/63
f 24/24/64 27/26/65 26/25/66
f 25/27/67 28/28/68 24/24/69
f 28/28/70 27/26/71 24/24/72
f 18/22/73 25/27/74 22/20/75
f 25/27/76 24/24/77 22/20/78
f 20/19/79 22/20/80 23/23/81
f 22/20/82 24/24/83 23/23/84
f 20/19/85 11/14/86 10/13/87 19/17/88
f 26/25/89 16/16/90 12/15/91 23/23/92
f 23/23/93 12/15/94 11/14/95 20/19/96
f 14/10/97 13/8/98 29/29/99 15/12/100
f 2/6/101 31/30/102 32/31/103 1/5/104
f 29/29/105 26/25/106 27/26/107 28/28/108
f 29/29/109 13/8/110 16/16/111 26/25/112
f 15/12/113 33/32/114 30/33/115 9/11/116
f 2/6/117 9/11/118 30/33/119 31/30/120
f 25/27/121 30/33/122 33/32/123 28/28/124
f 31/30/125 30/33/126 25/27/127 18/22/128
f 32/31/129 31/30/130 18/22/131 17/21/132
f 29/29/133 33/32/134 15/12/135
f 28/28/136 33/32/137 29/29/138
f 3/1/139 32/31/140 10/13/141
f 10/13/142 32/31/143 19/17/144
f 3/1/145 5/3/146 1/5/147 32/31/148
f 19/17/149 32/31/150 17/21/151 21/18/152
