# This file uses centimeters as units for non-parametric coordinates.

v -0.000977 -500.002747 499.998047
v -0.000977 -500.002747 424.992188
v 75.005371 -500.002747 499.998047
v 75.005371 -500.002747 424.992188
v 75.005371 -0.000031 499.998047
v 75.005371 -0.000031 424.992188
v -0.000977 -0.000031 499.998047
v -0.000977 -0.000031 424.992188
v -0.000977 -500.002747 -0.001953
v 75.005371 -500.002747 -0.001953
v -0.000977 -500.002747 75.005859
v 75.005371 -500.002747 75.005859
v -0.000977 -0.000031 75.003906
v 75.005371 -0.000031 75.003906
v -0.000977 -0.000031 -0.001953
v 75.005371 -0.000031 -0.001953
v 499.999023 -500.002747 -0.001953
v 499.999023 -500.002747 75.005859
v 424.992676 -500.002747 -0.001953
v 424.992676 -500.002747 75.005859
v 424.992676 -0.000031 -0.001953
v 424.992676 -0.000031 75.003906
v 499.999023 -0.000031 -0.001953
v 499.999023 -0.000031 75.003906
v 499.999023 -500.002747 499.998047
v 424.992676 -500.002747 499.998047
v 499.999023 -500.002747 424.992188
v 424.992676 -500.002747 424.992188
v 499.999023 -0.000031 424.992188
v 424.992676 -0.000031 424.992188
v 499.999023 -0.000031 499.998047
v 424.992676 -0.000031 499.998047
vt 0.987967 1.008772
vt 0.987967 1.156767
vt 0.987967 1.008772
vt 0.839972 1.008772
vt 0.839972 1.995342
vt 0.987967 1.995342
vt 0.839968 1.156767
vt 0.839968 1.008772
vt 0.839968 1.008772
vt 0.987967 1.995342
vt 0.839972 1.995342
vt 0.839968 1.156767
vt 0.839972 1.008772
vt 0.987967 1.156767
vt 0.987967 1.008772
vt 0.987967 1.008772
vt 0.987967 1.995342
vt 0.839968 1.995342
vt 0.839968 1.847340
vt 0.987967 1.847340
vt 0.987967 1.847343
vt 0.839968 1.847343
vt 0.839968 1.995342
vt 0.987967 1.995342
vt 0.001396 1.995342
vt 0.001396 1.847340
vt 0.149394 1.847340
vt 0.149394 1.995342
vt 0.149394 1.995342
vt 0.149394 1.847343
vt 0.001396 1.847343
vt 0.001396 1.995342
vt 0.839968 1.008772
vt 0.987967 1.008772
vt 0.987967 1.995342
vt 0.839968 1.995342
vt 0.987967 1.995342
vt 0.987967 1.008772
vt 0.839968 1.008772
vt 0.839968 1.995342
vt 0.987967 1.008772
vt 0.839968 1.008772
vt 0.839968 1.995342
vt 0.987967 1.995342
vt 0.987967 1.995342
vt 0.839968 1.995342
vt 0.839968 1.008772
vt 0.987967 1.008772
vt 0.149394 1.008772
vt 0.001396 1.008772
vt 0.001396 1.995342
vt 0.149394 1.995342
vt 0.001396 1.995342
vt 0.001396 1.008772
vt 0.149394 1.008772
vt 0.149394 1.995342
vt 0.001396 1.008772
vt 0.149394 1.008772
vt 0.149394 1.995342
vt 0.001396 1.995342
vt 0.001396 1.995342
vt 0.149394 1.995342
vt 0.149394 1.008772
vt 0.001396 1.008772
vt 0.149399 1.008772
vt 0.001397 1.008772
vt 0.001397 1.995342
vt 0.149395 1.995342
vt 0.001397 1.995342
vt 0.001397 1.008772
vt 0.149399 1.008772
vt 0.149395 1.995342
vt 0.001397 1.008772
vt 0.149399 1.008772
vt 0.149395 1.995342
vt 0.001397 1.995342
vt 0.001397 1.995342
vt 0.149395 1.995342
vt 0.149399 1.008772
vt 0.001397 1.008772
vt 0.839972 1.008772
vt 0.987967 1.008772
vt 0.987967 1.995342
vt 0.839972 1.995342
vt 0.987967 1.995342
vt 0.987967 1.008772
vt 0.839972 1.008772
vt 0.839972 1.995342
vt 0.001396 1.008772
vt 0.149394 1.008772
vt 0.149394 1.156767
vt 0.001396 1.156767
vt 0.001396 1.156767
vt 0.149394 1.156767
vt 0.149394 1.008772
vt 0.001396 1.008772
vn 0.000000 -1.000000 0.000000
vn 0.000000 -1.000000 0.000000
vn 0.000000 -1.000000 0.000000
vn 0.000000 -1.000000 0.000000
vn 1.000000 0.000000 0.000000
vn 1.000000 0.000000 0.000000
vn 1.000000 0.000000 0.000000
vn 1.000000 0.000000 0.000000
vn 0.000000 1.000000 0.000000
vn 0.000000 1.000000 0.000000
vn 0.000000 1.000000 0.000000
vn 0.000000 1.000000 0.000000
vn -1.000000 0.000000 0.000000
vn -1.000000 0.000000 0.000000
vn -1.000000 0.000000 0.000000
vn -1.000000 0.000000 0.000000
vn 0.000000 0.000000 -1.000000
vn 0.000000 0.000000 -1.000000
vn 0.000000 0.000000 -1.000000
vn 0.000000 0.000000 -1.000000
vn 0.000000 0.000000 1.000000
vn 0.000000 0.000000 1.000000
vn 0.000000 0.000000 1.000000
vn 0.000000 0.000000 1.000000
vn 0.000000 -1.000000 0.000000
vn 0.000000 -1.000000 0.000000
vn 0.000000 -1.000000 0.000000
vn 0.000000 -1.000000 0.000000
vn 0.000000 0.000004 1.000000
vn 0.000000 0.000004 1.000000
vn 0.000000 0.000004 1.000000
vn 0.000000 0.000004 1.000000
vn 0.000000 1.000000 0.000000
vn 0.000000 1.000000 0.000000
vn 0.000000 1.000000 0.000000
vn 0.000000 1.000000 0.000000
vn 0.000000 0.000000 -1.000000
vn 0.000000 0.000000 -1.000000
vn 0.000000 0.000000 -1.000000
vn 0.000000 0.000000 -1.000000
vn 1.000000 -0.000000 0.000000
vn 1.000000 -0.000000 0.000000
vn 1.000000 -0.000000 0.000000
vn 1.000000 -0.000000 0.000000
vn -1.000000 0.000000 0.000000
vn -1.000000 0.000000 0.000000
vn -1.000000 0.000000 0.000000
vn -1.000000 0.000000 0.000000
vn 0.000000 -1.000000 0.000000
vn 0.000000 -1.000000 0.000000
vn 0.000000 -1.000000 0.000000
vn 0.000000 -1.000000 0.000000
vn -1.000000 0.000000 0.000000
vn -1.000000 0.000000 0.000000
vn -1.000000 0.000000 0.000000
vn -1.000000 0.000000 0.000000
vn 0.000000 1.000000 0.000000
vn 0.000000 1.000000 0.000000
vn 0.000000 1.000000 0.000000
vn 0.000000 1.000000 0.000000
vn 1.000000 0.000000 0.000000
vn 1.000000 0.000000 0.000000
vn 1.000000 0.000000 0.000000
vn 1.000000 0.000000 0.000000
vn 0.000000 0.000004 1.000000
vn 0.000000 0.000004 1.000000
vn 0.000000 0.000004 1.000000
vn 0.000000 0.000004 1.000000
vn 0.000000 0.000000 -1.000000
vn 0.000000 0.000000 -1.000000
vn 0.000000 0.000000 -1.000000
vn 0.000000 0.000000 -1.000000
vn 0.000000 -1.000000 0.000000
vn 0.000000 -1.000000 0.000000
vn 0.000000 -1.000000 0.000000
vn 0.000000 -1.000000 0.000000
vn 0.000000 0.000000 -1.000000
vn 0.000000 0.000000 -1.000000
vn 0.000000 0.000000 -1.000000
vn 0.000000 0.000000 -1.000000
vn 0.000000 1.000000 0.000000
vn 0.000000 1.000000 0.000000
vn 0.000000 1.000000 0.000000
vn 0.000000 1.000000 0.000000
vn 0.000000 0.000000 1.000000
vn 0.000000 0.000000 1.000000
vn 0.000000 0.000000 1.000000
vn 0.000000 0.000000 1.000000
vn -1.000000 0.000000 0.000000
vn -1.000000 0.000000 0.000000
vn -1.000000 0.000000 0.000000
vn -1.000000 0.000000 0.000000
vn 1.000000 0.000000 0.000000
vn 1.000000 0.000000 0.000000
vn 1.000000 0.000000 0.000000
vn 1.000000 0.000000 0.000000
s off
f 1/1/1 2/2/2 4/7/3 3/8/4
f 3/3/5 4/4/6 6/5/7 5/6/8
f 5/9/9 6/12/10 8/14/11 7/16/12
f 7/10/13 8/11/14 2/13/15 1/15/16
f 4/33/17 2/34/18 8/35/19 6/36/20
f 7/37/21 1/38/22 3/39/23 5/40/24
f 9/17/25 10/18/26 12/19/27 11/20/28
f 11/41/29 12/42/30 14/43/31 13/44/32
f 13/21/33 14/22/34 16/23/35 15/24/36
f 15/45/37 16/46/38 10/47/39 9/48/40
f 12/65/41 10/66/42 16/67/43 14/68/44
f 15/69/45 9/70/46 11/71/47 13/72/48
f 17/25/49 18/26/50 20/27/51 19/28/52
f 19/73/53 20/74/54 22/75/55 21/76/56
f 21/29/57 22/30/58 24/31/59 23/32/60
f 23/77/61 24/78/62 18/79/63 17/80/64
f 20/49/65 18/50/66 24/51/67 22/52/68
f 23/53/69 17/54/70 19/55/71 21/56/72
f 25/89/73 26/90/74 28/91/75 27/92/76
f 27/57/77 28/58/78 30/59/79 29/60/80
f 29/93/81 30/94/82 32/95/83 31/96/84
f 31/61/85 32/62/86 26/63/87 25/64/88
f 28/81/89 26/82/90 32/83/91 30/84/92
f 31/85/93 25/86/94 27/87/95 29/88/96
