# This file uses centimeters as units for non-parametric coordinates.

v 192.026535 254.549423 382.862091
v 192.026535 112.819984 382.862091
v 157.989502 112.819984 348.825073
v 157.989502 256.995636 348.825073
v 162.346909 271.197540 353.182465
v 172.388641 277.080109 363.224182
v 184.282898 270.022339 375.118469
v 146.957657 271.197540 337.793213
v 151.315063 256.995636 342.150635
v 151.315063 112.819984 342.150635
v 117.278046 112.819984 308.113586
v 117.278046 254.549423 308.113586
v 125.021683 270.022339 315.857208
v 136.914536 277.080109 327.750092
v 178.267242 320.554443 369.094482
v 171.347305 296.944244 362.183014
v 154.652908 287.164581 345.488617
v 137.957108 296.944244 328.792816
v 131.045624 320.554443 321.872864
v 137.961334 344.164642 328.788574
v 154.657135 353.944305 345.484375
v 171.351532 344.164642 362.178772
v 118.600174 278.171143 309.435730
v 122.955978 321.373871 313.787079
v 133.997040 351.843903 324.828430
v 154.652969 373.586578 345.488525
v 175.310303 351.843903 366.141724
v 186.286240 321.527832 377.117401
v 190.579346 278.903442 381.414917
v 190.579346 268.358734 381.414917
v 187.911026 277.201385 378.746582
v 171.811386 286.582245 362.646942
v 175.978836 289.050201 366.814392
v 154.657120 363.044342 345.484375
v 133.398773 288.455566 324.234314
v 137.554214 285.994904 328.389771
v 121.304703 276.446014 312.140228
v 118.600174 267.483368 309.435730
v 173.382431 221.455505 364.217987
v 135.921982 221.455505 326.757507
v 154.655014 320.554443 345.485443
v 184.204666 291.878815 375.038940
v 125.052872 291.328430 315.887146
v 190.964996 254.549423 383.923645
v 190.964996 112.819984 383.923645
v 156.927948 112.819984 349.886597
v 156.927948 256.995636 349.886597
v 161.285370 271.197540 354.244019
v 171.327087 277.080109 364.285736
v 183.221344 270.022339 376.179993
v 145.896118 271.197540 338.854736
v 150.253510 256.995636 343.212158
v 150.253510 112.819984 343.212158
v 116.216499 112.819984 309.175140
v 116.216499 254.549423 309.175140
v 123.960136 270.022339 316.918762
v 135.852997 277.080109 328.811646
v 177.205688 320.554443 370.156036
v 170.285767 296.944244 363.244568
v 153.591370 287.164581 346.550171
v 136.895569 296.944244 329.854370
v 129.984070 320.554443 322.934418
v 136.899780 344.164642 329.850128
v 153.595581 353.944305 346.545929
v 170.289978 344.164642 363.240326
v 117.538628 278.171143 310.497253
v 121.894432 321.373871 314.848633
v 132.935486 351.843903 325.889984
v 153.591431 373.586578 346.550049
v 174.248749 351.843903 367.203247
v 185.224701 321.527832 378.178955
v 189.517792 278.903442 382.476440
v 189.517792 268.358734 382.476440
v 186.849487 277.201385 379.808105
v 170.749847 286.582245 363.708496
v 174.917297 289.050201 367.875916
v 153.595581 363.044342 346.545898
v 132.337219 288.455566 325.295868
v 136.492676 285.994904 329.451294
v 120.243156 276.446014 313.201782
v 117.538628 267.483368 310.497253
v 172.320892 221.455505 365.279541
v 134.860443 221.455505 327.819031
v 153.593475 320.554443 346.546997
v 183.143127 291.878815 376.100464
v 123.991325 291.328430 316.948669
vt 0.133270 0.204697
vt 0.133270 0.204697
vt 0.133270 0.204697
vt 0.133255 0.204697
vt 0.133255 0.204697
vt 0.133270 0.204681
vt 0.133270 0.204681
vt 0.133270 0.204681
vt 0.133255 0.204681
vt 0.133255 0.204697
vt 0.133255 0.204697
vt 0.133255 0.204697
vt 0.133255 0.204697
vt 0.133255 0.204697
vt 0.133255 0.204681
vt 0.133255 0.204681
vt 0.102661 0.207107
vt 0.102661 0.207107
vt 0.102661 0.207107
vt 0.102661 0.207107
vt 0.102661 0.207107
vt 0.102661 0.207107
vt 0.102661 0.207107
vt 0.102646 0.207107
vt 0.102646 0.207107
vt 0.102646 0.207107
vt 0.102646 0.207107
vt 0.102646 0.207107
vt 0.102646 0.207107
vt 0.102646 0.207107
vt 0.102051 0.207092
vt 0.102051 0.207092
vt 0.102051 0.207092
vt 0.102051 0.207092
vt 0.112854 0.205902
vt 0.112854 0.205902
vt 0.112854 0.205902
vt 0.112854 0.205902
vt 0.112854 0.205902
vt 0.112854 0.205902
vt 0.112854 0.205902
vt 0.112854 0.205902
vt 0.112854 0.205902
vt 0.133270 0.204697
vt 0.133270 0.204697
vt 0.133270 0.204697
vt 0.133255 0.204697
vt 0.133255 0.204697
vt 0.133270 0.204681
vt 0.133270 0.204681
vt 0.133270 0.204681
vt 0.133255 0.204681
vt 0.133255 0.204697
vt 0.133255 0.204697
vt 0.133255 0.204697
vt 0.133255 0.204697
vt 0.133255 0.204697
vt 0.133255 0.204681
vt 0.133255 0.204681
vt 0.112854 0.205902
vt 0.112854 0.205902
vt 0.112854 0.205902
vt 0.112854 0.205902
vt 0.112854 0.205902
vt 0.112854 0.205902
vt 0.112854 0.205902
vt 0.112854 0.205902
vt 0.112854 0.205902
vt 0.102661 0.207107
vt 0.102661 0.207107
vt 0.102661 0.207107
vt 0.102661 0.207107
vt 0.102661 0.207107
vt 0.102661 0.207107
vt 0.102661 0.207107
vt 0.102646 0.207107
vt 0.102646 0.207107
vt 0.102646 0.207107
vt 0.102646 0.207107
vt 0.102646 0.207107
vt 0.102051 0.207092
vt 0.102051 0.207092
vt 0.102051 0.207092
vt 0.102051 0.207092
vt 0.102646 0.207107
vt 0.102646 0.207107
vn 0.707107 0.000000 -0.707107
vn 0.707107 0.000000 -0.707107
vn 0.707107 0.000000 -0.707107
vn 0.707106 0.000000 -0.707107
vn 0.707106 0.000000 -0.707107
vn 0.707106 0.000000 -0.707107
vn 0.707105 0.000000 -0.707109
vn 0.707105 0.000000 -0.707109
vn 0.707105 0.000000 -0.707109
vn 0.707104 0.000000 -0.707110
vn 0.707104 0.000000 -0.707110
vn 0.707104 0.000000 -0.707110
vn 0.707105 0.000000 -0.707109
vn 0.707105 0.000000 -0.707109
vn 0.707105 0.000000 -0.707109
vn 0.707108 0.000000 -0.707105
vn 0.707108 0.000000 -0.707105
vn 0.707108 0.000000 -0.707105
vn 0.707107 0.000000 -0.707107
vn 0.707107 0.000000 -0.707107
vn 0.707107 0.000000 -0.707107
vn 0.707106 0.000000 -0.707108
vn 0.707106 0.000000 -0.707108
vn 0.707106 0.000000 -0.707108
vn 0.707108 0.000000 -0.707105
vn 0.707108 0.000000 -0.707105
vn 0.707108 0.000000 -0.707105
vn 0.707107 -0.000000 -0.707106
vn 0.707107 -0.000000 -0.707106
vn 0.707107 -0.000000 -0.707106
vn 0.707107 0.000000 -0.707106
vn 0.707107 0.000000 -0.707106
vn 0.707107 0.000000 -0.707106
vn 0.707109 -0.000001 -0.707105
vn 0.707109 -0.000001 -0.707105
vn 0.707109 -0.000001 -0.707105
vn 0.707106 0.000001 -0.707108
vn 0.707105 0.000001 -0.707108
vn 0.707105 0.000001 -0.707108
vn 0.707110 0.000000 -0.707104
vn 0.707110 0.000000 -0.707104
vn 0.707110 0.000000 -0.707104
vn 0.707058 -0.000225 -0.707155
vn 0.707058 -0.000225 -0.707155
vn 0.707058 -0.000225 -0.707155
vn 0.707140 -0.000111 -0.707074
vn 0.707140 -0.000111 -0.707074
vn 0.707140 -0.000111 -0.707074
vn 0.707075 -0.000112 -0.707139
vn 0.707075 -0.000112 -0.707139
vn 0.707075 -0.000112 -0.707139
vn 0.707154 -0.000225 -0.707059
vn 0.707155 -0.000225 -0.707059
vn 0.707154 -0.000225 -0.707059
vn 0.707154 -0.000028 -0.707060
vn 0.707154 -0.000028 -0.707060
vn 0.707154 -0.000028 -0.707060
vn 0.707128 -0.000068 -0.707086
vn 0.707128 -0.000068 -0.707086
vn 0.707128 -0.000068 -0.707086
vn 0.707086 -0.000068 -0.707128
vn 0.707086 -0.000068 -0.707128
vn 0.707086 -0.000068 -0.707128
vn 0.707060 -0.000028 -0.707154
vn 0.707060 -0.000028 -0.707154
vn 0.707060 -0.000028 -0.707154
vn 0.707103 -0.000074 -0.707111
vn 0.707103 -0.000074 -0.707111
vn 0.707103 -0.000074 -0.707111
vn 0.707116 -0.000032 -0.707097
vn 0.707118 -0.000035 -0.707096
vn 0.707099 0.000000 -0.707114
vn 0.707090 -0.000032 -0.707123
vn 0.707073 -0.000068 -0.707141
vn 0.707107 0.000001 -0.707107
vn 0.707067 -0.000068 -0.707146
vn 0.707067 -0.000068 -0.707146
vn 0.707067 -0.000068 -0.707146
vn 0.707112 -0.000074 -0.707102
vn 0.707112 -0.000074 -0.707102
vn 0.707112 -0.000074 -0.707102
vn 0.707149 -0.000068 -0.707065
vn 0.707149 -0.000068 -0.707065
vn 0.707149 -0.000068 -0.707065
vn 0.707147 -0.000079 -0.707067
vn 0.707126 -0.000035 -0.707088
vn 0.707141 -0.000066 -0.707073
vn 0.707092 -0.000050 -0.707122
vn 0.707094 -0.000030 -0.707119
vn 0.707094 -0.000033 -0.707120
vn 0.707332 0.000558 -0.706882
vn 0.707332 0.000558 -0.706882
vn 0.707332 0.000558 -0.706881
vn 0.706884 0.000557 -0.707330
vn 0.706884 0.000557 -0.707330
vn 0.706884 0.000557 -0.707330
vn 0.707065 -0.000083 -0.707148
vn 0.707073 -0.000068 -0.707141
vn 0.707090 -0.000032 -0.707123
vn 0.707128 -0.000053 -0.707086
vn 0.707118 -0.000035 -0.707096
vn 0.707116 -0.000032 -0.707097
vn 0.707141 -0.000066 -0.707073
vn 0.707126 -0.000035 -0.707088
vn 0.707111 -0.000004 -0.707102
vn 0.707094 -0.000033 -0.707120
vn 0.707094 -0.000030 -0.707119
vn 0.707098 0.000000 -0.707116
vn -0.707106 0.000000 0.707107
vn -0.707106 0.000000 0.707107
vn -0.707106 0.000000 0.707107
vn -0.707107 -0.000000 0.707107
vn -0.707107 -0.000000 0.707107
vn -0.707107 -0.000000 0.707107
vn -0.707107 0.000000 0.707107
vn -0.707107 0.000000 0.707107
vn -0.707107 0.000000 0.707107
vn -0.707107 0.000000 0.707106
vn -0.707107 0.000000 0.707106
vn -0.707107 0.000000 0.707106
vn -0.707107 0.000000 0.707106
vn -0.707107 0.000000 0.707106
vn -0.707107 0.000000 0.707106
vn -0.707105 0.000000 0.707109
vn -0.707105 0.000000 0.707109
vn -0.707105 0.000000 0.707109
vn -0.707108 0.000000 0.707106
vn -0.707108 0.000000 0.707106
vn -0.707108 0.000000 0.707106
vn -0.707106 0.000000 0.707107
vn -0.707106 0.000000 0.707107
vn -0.707106 0.000000 0.707107
vn -0.707109 0.000000 0.707104
vn -0.707109 0.000000 0.707104
vn -0.707109 0.000000 0.707104
vn -0.707107 0.000000 0.707106
vn -0.707107 0.000000 0.707106
vn -0.707107 0.000000 0.707106
vn -0.707106 0.000000 0.707107
vn -0.707106 0.000000 0.707107
vn -0.707106 0.000000 0.707107
vn -0.707107 0.000000 0.707106
vn -0.707107 0.000000 0.707106
vn -0.707107 0.000000 0.707106
vn -0.707107 -0.000001 0.707107
vn -0.707107 -0.000001 0.707106
vn -0.707107 -0.000001 0.707107
vn -0.707107 -0.000001 0.707107
vn -0.707107 -0.000001 0.707107
vn -0.707107 -0.000001 0.707107
vn -0.707059 0.000225 0.707155
vn -0.707059 0.000225 0.707155
vn -0.707059 0.000225 0.707155
vn -0.707141 0.000111 0.707073
vn -0.707141 0.000111 0.707073
vn -0.707141 0.000111 0.707073
vn -0.707074 0.000112 0.707139
vn -0.707074 0.000112 0.707139
vn -0.707074 0.000112 0.707139
vn -0.707154 0.000225 0.707060
vn -0.707154 0.000225 0.707060
vn -0.707154 0.000225 0.707060
vn -0.707153 0.000028 0.707060
vn -0.707153 0.000028 0.707060
vn -0.707153 0.000028 0.707060
vn -0.707125 0.000068 0.707088
vn -0.707125 0.000068 0.707088
vn -0.707125 0.000068 0.707088
vn -0.707089 0.000068 0.707124
vn -0.707089 0.000068 0.707124
vn -0.707089 0.000068 0.707124
vn -0.707059 0.000028 0.707155
vn -0.707059 0.000028 0.707155
vn -0.707059 0.000028 0.707155
vn -0.707107 0.000073 0.707107
vn -0.707107 0.000073 0.707107
vn -0.707107 0.000073 0.707107
vn -0.707115 0.000032 0.707098
vn -0.707108 0.000000 0.707105
vn -0.707116 0.000035 0.707098
vn -0.707088 0.000036 0.707125
vn -0.707102 0.000004 0.707111
vn -0.707073 0.000069 0.707141
vn -0.707067 0.000067 0.707147
vn -0.707067 0.000067 0.707147
vn -0.707067 0.000067 0.707147
vn -0.707112 0.000074 0.707102
vn -0.707112 0.000074 0.707102
vn -0.707112 0.000074 0.707102
vn -0.707152 0.000068 0.707062
vn -0.707152 0.000068 0.707062
vn -0.707152 0.000068 0.707062
vn -0.707149 0.000082 0.707065
vn -0.707141 0.000067 0.707073
vn -0.707122 0.000030 0.707091
vn -0.707090 0.000052 0.707123
vn -0.707096 0.000034 0.707117
vn -0.707097 0.000031 0.707116
vn -0.707329 -0.000557 0.706884
vn -0.707329 -0.000557 0.706884
vn -0.707329 -0.000557 0.706884
vn -0.706882 -0.000556 0.707331
vn -0.706882 -0.000556 0.707331
vn -0.706882 -0.000556 0.707331
vn -0.707067 0.000083 0.707147
vn -0.707088 0.000036 0.707125
vn -0.707073 0.000069 0.707141
vn -0.707120 0.000053 0.707094
vn -0.707115 0.000032 0.707098
vn -0.707116 0.000035 0.707098
vn -0.707141 0.000067 0.707073
vn -0.707105 -0.000004 0.707109
vn -0.707122 0.000030 0.707091
vn -0.707096 0.000034 0.707117
vn -0.707108 0.000000 0.707105
vn -0.707097 0.000031 0.707116
s off
f 1/1/1 2/2/2 39/3/3
f 2/2/4 3/4/5 39/3/6
f 3/4/7 4/5/8 39/3/9
f 4/5/10 5/6/11 39/3/12
f 5/6/13 6/7/14 39/3/15
f 6/7/16 7/8/17 39/3/18
f 7/8/19 1/1/20 39/3/21
f 8/9/22 9/10/23 40/11/24
f 9/10/25 10/12/26 40/11/27
f 10/12/28 11/13/29 40/11/30
f 11/13/31 12/14/32 40/11/33
f 12/14/34 13/15/35 40/11/36
f 13/15/37 14/16/38 40/11/39
f 14/16/40 8/9/41 40/11/42
f 15/43/43 16/36/44 41/35/45
f 16/36/46 17/42/47 41/35/48
f 17/42/49 18/41/50 41/35/51
f 18/41/52 19/40/53 41/35/54
f 19/40/55 20/39/56 41/35/57
f 20/39/58 21/38/59 41/35/60
f 21/38/61 22/37/62 41/35/63
f 22/37/64 15/43/65 41/35/66
f 28/21/67 29/20/68 42/19/69
f 31/18/70 29/20/71 30/17/72
f 33/22/73 31/18/74 32/23/75
f 33/22/76 28/21/77 42/19/78
f 23/24/79 24/25/80 43/26/81
f 24/25/82 35/27/83 43/26/84
f 43/26/85 35/27/86 37/28/87
f 43/26/88 37/28/89 23/24/90
f 27/31/91 34/32/92 26/33/93
f 34/32/94 25/34/95 26/33/96
f 42/19/97 31/18/98 33/22/99
f 42/19/100 29/20/101 31/18/102
f 37/28/103 35/27/104 36/29/105
f 23/24/106 37/28/107 38/30/108
f 44/44/109 82/45/110 45/46/111
f 45/46/112 82/45/113 46/47/114
f 46/47/115 82/45/116 47/48/117
f 47/48/118 82/45/119 48/49/120
f 48/49/121 82/45/122 49/50/123
f 49/50/124 82/45/125 50/51/126
f 50/51/127 82/45/128 44/44/129
f 51/52/130 83/53/131 52/54/132
f 52/54/133 83/53/134 53/55/135
f 53/55/136 83/53/137 54/56/138
f 54/56/139 83/53/140 55/57/141
f 55/57/142 83/53/143 56/58/144
f 56/58/145 83/53/146 57/59/147
f 57/59/148 83/53/149 51/52/150
f 58/60/151 84/61/152 59/62/153
f 59/62/154 84/61/155 60/63/156
f 60/63/157 84/61/158 61/64/159
f 61/64/160 84/61/161 62/65/162
f 62/65/163 84/61/164 63/66/165
f 63/66/166 84/61/167 64/67/168
f 64/67/169 84/61/170 65/68/171
f 65/68/172 84/61/173 58/60/174
f 71/69/175 85/70/176 72/71/177
f 74/72/178 73/73/179 72/71/180
f 76/74/181 75/75/182 74/72/183
f 76/74/184 85/70/185 71/69/186
f 66/76/187 86/77/188 67/78/189
f 67/78/190 86/77/191 78/79/192
f 86/77/193 80/80/194 78/79/195
f 86/77/196 66/76/197 80/80/198
f 70/81/199 69/82/200 77/83/201
f 77/83/202 69/82/203 68/84/204
f 85/70/205 76/74/206 74/72/207
f 85/70/208 74/72/209 72/71/210
f 80/80/211 79/85/212 78/79/213
f 66/76/214 81/86/215 80/80/216
