# This file uses centimeters as units for non-parametric coordinates.

v 233.907227 -500.000000 -0.001953
v 112.016602 -500.000000 0.115234
v 223.525391 -500.000000 76.771484
v 107.038086 -500.000000 38.933594
v 193.274414 -500.000000 136.240234
v 92.539063 -500.000000 67.425781
v 145.848633 -500.000000 184.625000
v 69.815430 -500.000000 90.609375
v 85.463867 -500.000000 217.632813
v 40.889648 -500.000000 106.425781
v 17.484619 -500.000000 232.318359
v 8.321533 -500.000000 113.449219
v -52.043701 -500.000000 227.384766
v -24.989502 -500.000000 111.099609
v -116.950928 -500.000000 203.269531
v -56.086670 -500.000000 99.542969
v -171.466064 -500.000000 162.121094
v -82.203369 -500.000000 79.832031
v -210.743408 -500.000000 107.578125
v -101.019775 -500.000000 53.691406
v -231.295654 -500.000000 44.505859
v -110.862061 -500.000000 23.472656
v -233.907959 -500.000000 -0.003906
v -112.115234 -500.000000 0.115234
v 233.907227 0.000000 -0.001953
v 112.016602 0.000000 0.115234
v 223.525391 0.000000 76.771484
v 107.038086 0.000000 38.933594
v 193.274414 0.000000 136.240234
v 92.539063 0.000000 67.425781
v 145.848633 0.000000 184.625000
v 69.815430 0.000000 90.609375
v 85.463867 0.000000 217.632813
v 40.889648 0.000000 106.425781
v 17.484619 0.000000 232.318359
v 8.321533 0.000000 113.449219
v -52.043701 0.000000 227.384766
v -24.989502 0.000000 111.099609
v -116.950928 0.000000 203.269531
v -56.086670 0.000000 99.542969
v -171.466064 0.000000 162.121094
v -82.203369 0.000000 79.832031
v -210.743408 0.000000 107.578125
v -101.019775 0.000000 53.691406
v -231.295654 0.000000 44.505859
v -110.862061 0.000000 23.472656
v -233.907959 0.000000 -0.003906
v -112.115479 0.000000 0.115234
vt 0.983993 1.008732
vt 0.983993 1.038639
vt 0.837470 1.041355
vt 0.837469 1.011432
vt 0.983993 1.986346
vt 0.837469 1.983342
vt 0.983993 1.921420
vt 0.837470 1.918925
vt 0.983993 1.823292
vt 0.837470 1.821865
vt 0.983993 1.725740
vt 0.837469 1.724923
vt 0.983993 1.633709
vt 0.837469 1.632890
vt 0.983993 1.529216
vt 0.837470 1.528432
vt 0.983993 1.424459
vt 0.837469 1.424272
vt 0.983993 1.333303
vt 0.837470 1.333997
vt 0.983993 1.233664
vt 0.837470 1.235285
vt 0.983993 1.119543
vt 0.837470 1.122056
vt 0.983993 1.008732
vt 0.983993 1.038639
vt 0.837470 1.041355
vt 0.837469 1.011432
vt 0.837469 1.983342
vt 0.837470 1.918925
vt 0.983993 1.921420
vt 0.983993 1.986346
vt 0.837470 1.821865
vt 0.983993 1.823292
vt 0.837469 1.724923
vt 0.983993 1.725740
vt 0.837469 1.632890
vt 0.983993 1.633709
vt 0.837470 1.528432
vt 0.983993 1.529216
vt 0.837469 1.424272
vt 0.983993 1.424459
vt 0.837470 1.333997
vt 0.983993 1.333303
vt 0.837470 1.235285
vt 0.983993 1.233664
vt 0.837470 1.122056
vt 0.983993 1.119543
vt 0.824218 1.003769
vt 0.621338 1.003769
vt 0.621338 1.989542
vt 0.824217 1.989542
vt 0.780378 1.991900
vt 0.993796 1.991900
vt 0.993796 1.008744
vt 0.780378 1.008744
vt 0.053996 1.992879
vt 0.004824 1.992879
vt 0.004824 1.004515
vt 0.053996 1.004515
vt 0.010062 1.992879
vt 0.074121 1.992879
vt 0.074121 1.004515
vt 0.010062 1.004515
vt 0.903725 1.004515
vt 0.995498 1.004515
vt 0.995498 1.992879
vt 0.903725 1.992879
vt 0.818041 1.004515
vt 0.818041 1.992879
vt 0.716659 1.004515
vt 0.716659 1.992879
vt 0.607478 1.004515
vt 0.607478 1.992879
vt 0.503647 1.004515
vt 0.503647 1.992879
vt 0.404373 1.004515
vt 0.404373 1.992879
vt 0.312940 1.004515
vt 0.312940 1.992879
vt 0.222243 1.004515
vt 0.222243 1.992879
vt 0.134578 1.004515
vt 0.134578 1.992879
vt 0.992771 1.004515
vt 0.890757 1.004515
vt 0.890757 1.992879
vt 0.992771 1.992879
vt 0.789514 1.004515
vt 0.789514 1.992879
vt 0.683357 1.004515
vt 0.683357 1.992879
vt 0.578599 1.004515
vt 0.578599 1.992879
vt 0.483026 1.004515
vt 0.483026 1.992879
vt 0.401316 1.004515
vt 0.401316 1.992879
vt 0.332814 1.004515
vt 0.332814 1.992879
vt 0.254822 1.004515
vt 0.254822 1.992879
vt 0.166778 1.004515
vt 0.166778 1.992879
vn 0.000000 -1.000000 0.000000
vn 0.000000 -1.000000 0.000000
vn 0.000000 -1.000000 0.000000
vn 0.000000 -1.000000 0.000000
vn 0.000000 -1.000000 0.000000
vn 0.000000 -1.000000 0.000000
vn 0.000000 -1.000000 0.000000
vn 0.000000 -1.000000 0.000000
vn 0.000000 -1.000000 0.000000
vn 0.000000 -1.000000 0.000000
vn 0.000000 -1.000000 0.000000
vn 0.000000 -1.000000 0.000000
vn 0.000000 -1.000000 0.000000
vn 0.000000 -1.000000 0.000000
vn 0.000000 -1.000000 0.000000
vn 0.000000 -1.000000 0.000000
vn 0.000000 -1.000000 0.000000
vn 0.000000 -1.000000 0.000000
vn 0.000000 -1.000000 0.000000
vn 0.000000 -1.000000 0.000000
vn 0.000000 -1.000000 -0.000000
vn 0.000000 -1.000000 -0.000000
vn 0.000000 -1.000000 -0.000000
vn 0.000000 -1.000000 -0.000000
vn 0.000000 -1.000000 0.000000
vn 0.000000 -1.000000 0.000000
vn 0.000000 -1.000000 0.000000
vn 0.000000 -1.000000 0.000000
vn 0.000000 -1.000000 0.000000
vn 0.000000 -1.000000 0.000000
vn 0.000000 -1.000000 0.000000
vn 0.000000 -1.000000 0.000000
vn 0.000000 -1.000000 0.000000
vn 0.000000 -1.000000 0.000000
vn 0.000000 -1.000000 0.000000
vn 0.000000 -1.000000 0.000000
vn 0.000000 -1.000000 0.000000
vn 0.000000 -1.000000 0.000000
vn 0.000000 -1.000000 0.000000
vn 0.000000 -1.000000 0.000000
vn 0.000000 -1.000000 0.000000
vn 0.000000 -1.000000 0.000000
vn 0.000000 -1.000000 0.000000
vn 0.000000 -1.000000 0.000000
vn 0.000000 1.000000 0.000000
vn 0.000000 1.000000 0.000000
vn 0.000000 1.000000 0.000000
vn 0.000000 1.000000 0.000000
vn 0.000000 1.000000 0.000000
vn 0.000000 1.000000 0.000000
vn 0.000000 1.000000 0.000000
vn 0.000000 1.000000 0.000000
vn 0.000000 1.000000 0.000000
vn 0.000000 1.000000 0.000000
vn 0.000000 1.000000 0.000000
vn 0.000000 1.000000 0.000000
vn 0.000000 1.000000 0.000000
vn 0.000000 1.000000 0.000000
vn 0.000000 1.000000 0.000000
vn 0.000000 1.000000 0.000000
vn 0.000000 1.000000 0.000000
vn 0.000000 1.000000 0.000000
vn 0.000000 1.000000 0.000000
vn 0.000000 1.000000 0.000000
vn 0.000000 1.000000 0.000000
vn 0.000000 1.000000 0.000000
vn 0.000000 1.000000 0.000000
vn 0.000000 1.000000 0.000000
vn 0.000000 1.000000 0.000000
vn 0.000000 1.000000 0.000000
vn 0.000000 1.000000 0.000000
vn 0.000000 1.000000 0.000000
vn 0.000000 1.000000 0.000000
vn 0.000000 1.000000 0.000000
vn 0.000000 1.000000 0.000000
vn 0.000000 1.000000 0.000000
vn 0.000000 1.000000 0.000000
vn 0.000000 1.000000 0.000000
vn 0.000000 1.000000 0.000000
vn 0.000000 1.000000 0.000000
vn 0.000000 1.000000 0.000000
vn 0.000000 1.000000 0.000000
vn 0.000000 1.000000 0.000000
vn 0.000000 1.000000 0.000000
vn 0.000000 1.000000 0.000000
vn 0.000000 1.000000 0.000000
vn 0.000000 1.000000 0.000000
vn 0.000000 1.000000 0.000000
vn 0.000978 0.000000 -1.000000
vn 0.000978 0.000000 -1.000000
vn 0.000978 0.000000 -1.000000
vn 0.000978 0.000000 -1.000000
vn -0.000961 0.000000 -1.000000
vn -0.000961 0.000000 -1.000000
vn -0.000961 0.000000 -1.000000
vn -0.000961 0.000000 -1.000000
vn -0.998282 0.000000 0.058590
vn -0.998282 0.000000 0.058590
vn -0.998282 0.000000 0.058590
vn -0.998282 0.000000 0.058590
vn 0.998564 0.000000 -0.053580
vn 0.998564 0.000000 -0.053580
vn 0.998564 0.000000 -0.053580
vn 0.998564 0.000000 -0.053580
vn 0.990980 0.000000 0.134007
vn 0.990980 0.000000 0.134007
vn 0.990980 0.000000 0.134007
vn 0.990980 0.000000 0.134007
vn 0.891309 0.000000 0.453397
vn 0.891309 0.000000 0.453397
vn 0.891309 0.000000 0.453397
vn 0.891309 0.000000 0.453397
vn 0.714149 0.000000 0.699994
vn 0.714149 0.000000 0.699994
vn 0.714149 0.000000 0.699994
vn 0.714149 0.000000 0.699994
vn 0.479643 0.000000 0.877464
vn 0.479643 0.000000 0.877464
vn 0.479643 0.000000 0.877464
vn 0.479643 0.000000 0.877464
vn 0.211159 0.000000 0.977452
vn 0.211159 0.000000 0.977452
vn 0.211159 0.000000 0.977452
vn 0.211159 0.000000 0.977452
vn -0.070780 0.000000 0.997492
vn -0.070780 0.000000 0.997492
vn -0.070780 0.000000 0.997492
vn -0.070780 0.000000 0.997492
vn -0.348273 0.000000 0.937393
vn -0.348273 0.000000 0.937393
vn -0.348273 0.000000 0.937393
vn -0.348273 0.000000 0.937393
vn -0.602453 0.000000 0.798154
vn -0.602453 0.000000 0.798154
vn -0.602453 0.000000 0.798154
vn -0.602453 0.000000 0.798154
vn -0.811489 0.000000 0.584368
vn -0.811489 0.000000 0.584368
vn -0.811489 0.000000 0.584368
vn -0.811489 0.000000 0.584368
vn -0.950796 0.000000 0.309819
vn -0.950796 0.000000 0.309819
vn -0.950796 0.000000 0.309819
vn -0.950796 0.000000 0.309819
vn -0.991876 0.000000 -0.127210
vn -0.991876 0.000000 -0.127210
vn -0.991876 0.000000 -0.127210
vn -0.991876 0.000000 -0.127210
vn -0.891240 0.000000 -0.453532
vn -0.891240 0.000000 -0.453532
vn -0.891240 0.000000 -0.453532
vn -0.891240 0.000000 -0.453532
vn -0.714156 0.000000 -0.699987
vn -0.714156 0.000000 -0.699987
vn -0.714156 0.000000 -0.699987
vn -0.714156 0.000000 -0.699987
vn -0.479757 0.000000 -0.877402
vn -0.479757 0.000000 -0.877402
vn -0.479757 0.000000 -0.877402
vn -0.479757 0.000000 -0.877402
vn -0.210808 0.000000 -0.977528
vn -0.210808 0.000000 -0.977528
vn -0.210808 0.000000 -0.977528
vn -0.210808 0.000000 -0.977528
vn 0.070361 0.000000 -0.997522
vn 0.070361 0.000000 -0.997522
vn 0.070361 0.000000 -0.997522
vn 0.070361 0.000000 -0.997522
vn 0.348352 0.000000 -0.937364
vn 0.348352 0.000000 -0.937364
vn 0.348352 0.000000 -0.937364
vn 0.348352 0.000000 -0.937364
vn 0.602411 0.000000 -0.798186
vn 0.602411 0.000000 -0.798186
vn 0.602411 0.000000 -0.798186
vn 0.602411 0.000000 -0.798186
vn 0.811606 0.000000 -0.584206
vn 0.811606 0.000000 -0.584206
vn 0.811606 0.000000 -0.584206
vn 0.811606 0.000000 -0.584206
vn 0.950838 0.000000 -0.309689
vn 0.950838 0.000000 -0.309689
vn 0.950838 0.000000 -0.309689
vn 0.950838 0.000000 -0.309689
s off
f 23/1/1 24/4/2 22/3/3 21/2/4
f 2/6/5 1/5/6 3/7/7 4/8/8
f 4/8/9 3/7/10 5/9/11 6/10/12
f 6/10/13 5/9/14 7/11/15 8/12/16
f 8/12/17 7/11/18 9/13/19 10/14/20
f 10/14/21 9/13/22 11/15/23 12/16/24
f 12/16/25 11/15/26 13/17/27 14/18/28
f 14/18/29 13/17/30 15/19/31 16/20/32
f 16/20/33 15/19/34 17/21/35 18/22/36
f 18/22/37 17/21/38 19/23/39 20/24/40
f 20/24/41 19/23/42 21/2/43 22/3/44
f 47/25/45 45/26/46 46/27/47 48/28/48
f 26/29/49 28/30/50 27/31/51 25/32/52
f 28/30/53 30/33/54 29/34/55 27/31/56
f 30/33/57 32/35/58 31/36/59 29/34/60
f 32/35/61 34/37/62 33/38/63 31/36/64
f 34/37/65 36/39/66 35/40/67 33/38/68
f 36/39/69 38/41/70 37/42/71 35/40/72
f 38/41/73 40/43/74 39/44/75 37/42/76
f 40/43/77 42/45/78 41/46/79 39/44/80
f 42/45/81 44/47/82 43/48/83 41/46/84
f 44/47/85 46/27/86 45/26/87 43/48/88
f 24/49/89 23/50/90 47/51/91 48/52/92
f 26/53/93 25/54/94 1/55/95 2/56/96
f 45/57/97 47/58/98 23/59/99 21/60/100
f 48/61/101 46/62/102 22/63/103 24/64/104
f 3/65/105 1/66/106 25/67/107 27/68/108
f 5/69/109 3/65/110 27/68/111 29/70/112
f 7/71/113 5/69/114 29/70/115 31/72/116
f 9/73/117 7/71/118 31/72/119 33/74/120
f 11/75/121 9/73/122 33/74/123 35/76/124
f 13/77/125 11/75/126 35/76/127 37/78/128
f 15/79/129 13/77/130 37/78/131 39/80/132
f 17/81/133 15/79/134 39/80/135 41/82/136
f 19/83/137 17/81/138 41/82/139 43/84/140
f 21/60/141 19/83/142 43/84/143 45/57/144
f 2/85/145 4/86/146 28/87/147 26/88/148
f 4/86/149 6/89/150 30/90/151 28/87/152
f 6/89/153 8/91/154 32/92/155 30/90/156
f 8/91/157 10/93/158 34/94/159 32/92/160
f 10/93/161 12/95/162 36/96/163 34/94/164
f 12/95/165 14/97/166 38/98/167 36/96/168
f 14/97/169 16/99/170 40/100/171 38/98/172
f 16/99/173 18/101/174 42/102/175 40/100/176
f 18/101/177 20/103/178 44/104/179 42/102/180
f 20/103/181 22/63/182 46/62/183 44/104/184
