# This file uses centimeters as units for non-parametric coordinates.

v 874.648499 472.522919 -903.685486
v 874.648499 541.062866 -903.685486
v 874.648499 541.062866 -848.392456
v 874.648499 472.522919 -848.392456
v 340.127563 464.048889 -124.739838
v 340.127563 594.262695 -124.739838
v 409.872406 594.262695 -124.739838
v 409.872406 464.048889 -124.739838
v 949.740234 495.431000 -602.466248
v 949.740234 553.023926 -602.466248
v 949.740234 553.023926 -652.536743
v 949.740234 495.431000 -652.536743
v -90.127548 464.048889 -1000.260193
v -90.127548 594.262695 -1000.260193
v -159.872406 594.262695 -1000.260193
v -159.872406 464.048889 -1000.260193
v -159.872452 464.048889 -249.739838
v -159.872452 594.262695 -249.739838
v -90.127594 594.262695 -249.739838
v -90.127594 464.048889 -249.739838
v 291.771240 219.524277 -1002.047607
v 291.771240 315.781677 -1002.047607
v 369.845581 315.781677 -1002.047607
v 369.845581 219.524277 -1002.047607
v 380.753784 219.524277 -1002.047607
v 380.753784 315.781677 -1002.047607
v 455.308807 315.781677 -1002.047607
v 455.308807 219.524277 -1002.047607
v 346.314484 472.522919 -999.648499
v 346.314484 541.062866 -999.648499
v 401.607513 541.062866 -999.648499
v 401.607513 472.522919 -999.648499
v 96.314491 222.522934 -999.648499
v 96.314491 291.062866 -999.648499
v 151.607513 291.062866 -999.648499
v 151.607513 222.522934 -999.648499
v 216.865845 459.143341 -1008.752747
v 216.865845 572.889038 -1008.752747
v 190.022278 572.889038 -1046.857422
v 190.022278 459.143341 -1046.857422
v 180.119934 459.143341 -1051.775024
v 180.119934 572.889038 -1051.775024
v 69.879807 572.889038 -1051.775024
v 69.879807 459.143341 -1051.775024
v 33.116196 459.143341 -1008.752747
v 59.959702 459.143341 -1046.857422
v 59.959702 572.889038 -1046.857422
v 33.116196 572.889038 -1008.752747
v 534.842041 469.007446 -125.415161
v 534.842041 536.480591 -125.415161
v 589.026367 536.480591 -125.415161
v 589.026367 469.007446 -125.415161
v -252.047577 219.524277 -958.228760
v -252.047577 315.781677 -958.228760
v -252.047577 315.781677 -880.154419
v -252.047577 219.524277 -880.154419
v -252.047577 219.524277 -869.246216
v -252.047577 315.781677 -869.246216
v -252.047577 315.781677 -794.691162
v -252.047577 219.524277 -794.691162
v 383.552185 767.885803 -409.872223
v 383.552185 898.099609 -409.872223
v 383.552185 898.099609 -340.127380
v 383.552185 767.885803 -340.127380
v 596.314514 222.522934 -999.648499
v 596.314514 291.062866 -999.648499
v 651.607544 291.062866 -999.648499
v 651.607544 222.522934 -999.648499
v -249.648514 222.522934 -653.685486
v -249.648514 291.062866 -653.685486
v -249.648514 291.062866 -598.392456
v -249.648514 222.522934 -598.392456
v -449.740295 495.431000 -897.533691
v -449.740295 553.023926 -897.533691
v -449.740295 553.023926 -847.463196
v -449.740295 495.431000 -847.463196
v 874.648499 472.522919 -403.685516
v 874.648499 541.062866 -403.685516
v 874.648499 541.062866 -348.392487
v 874.648499 472.522919 -348.392487
v 596.314514 472.522919 -999.648499
v 596.314514 541.062866 -999.648499
v 651.607544 541.062866 -999.648499
v 651.607544 472.522919 -999.648499
v 541.771240 719.524292 -1002.047607
v 541.771240 815.781677 -1002.047607
v 619.845581 815.781677 -1002.047607
v 619.845581 719.524292 -1002.047607
v 630.753784 719.524292 -1002.047607
v 630.753784 815.781677 -1002.047607
v 705.308838 815.781677 -1002.047607
v 705.308838 719.524292 -1002.047607
v 715.127563 464.048889 -124.739838
v 715.127563 594.262695 -124.739838
v 784.872437 594.262695 -124.739838
v 784.872437 464.048889 -124.739838
v -181.648056 705.486694 -914.390564
v -181.648056 798.718018 -914.390564
v -181.648193 798.718018 -836.405029
v -181.648193 705.486694 -836.405029
v 866.447937 767.885803 -340.127258
v 866.447937 898.099609 -340.127258
v 866.447998 898.099609 -409.872070
v 866.447998 767.885803 -409.872070
v 383.552185 767.885803 -784.872437
v 383.552185 898.099609 -784.872437
v 383.552185 898.099609 -715.127563
v 383.552185 767.885803 -715.127563
v -252.047577 219.524277 -458.228760
v -252.047577 315.781677 -458.228760
v -252.047577 315.781677 -380.154419
v -252.047577 219.524277 -380.154419
v -252.047577 219.524277 -369.246216
v -252.047577 315.781677 -369.246216
v -252.047577 315.781677 -294.691193
v -252.047577 219.524277 -294.691193
v -181.648056 705.486694 -414.390564
v -181.648056 798.718018 -414.390564
v -181.648193 798.718018 -336.405029
v -181.648193 705.486694 -336.405029
v -449.740295 495.431000 -397.533691
v -449.740295 553.023926 -397.533691
v -449.740295 553.023926 -347.463196
v -449.740295 495.431000 -347.463196
v -383.752747 459.143341 -716.865845
v -383.752747 572.889038 -716.865845
v -421.857452 572.889038 -690.022278
v -421.857452 459.143341 -690.022278
v -426.775055 459.143341 -680.119934
v -426.775055 572.889038 -680.119934
v -426.775055 572.889038 -569.879822
v -426.775055 459.143341 -569.879822
v -383.752747 459.143341 -533.116211
v -421.857452 459.143341 -559.959717
v -421.857452 572.889038 -559.959717
v -383.752747 572.889038 -533.116211
v 596.314514 222.522934 -250.351486
v 596.314514 291.062866 -250.351486
v 651.607544 291.062866 -250.351486
v 651.607544 222.522934 -250.351486
v 96.314491 222.522934 -250.351486
v 96.314491 291.062866 -250.351486
v 151.607513 291.062866 -250.351486
v 151.607513 222.522934 -250.351486
v 866.447937 767.885803 -715.127258
v 866.447937 898.099609 -715.127258
v 866.447998 898.099609 -784.872070
v 866.447998 767.885803 -784.872070
vt 0.651947 0.530747
vt 0.651947 0.593850
vt 0.702854 0.593850
vt 0.702854 0.530747
vt 0.645294 0.502356
vt 0.709507 0.622240
vt 0.645294 0.622240
vt 0.709507 0.502356
vt 0.654351 0.535786
vt 0.700450 0.588810
vt 0.654351 0.588810
vt 0.700450 0.535786
vt 0.645294 0.502356
vt 0.709507 0.622240
vt 0.645294 0.622240
vt 0.709507 0.502356
vt 0.645294 0.502356
vt 0.709507 0.622240
vt 0.645294 0.622240
vt 0.709507 0.502356
vt 0.527712 0.517987
vt 0.599593 0.606609
vt 0.527712 0.606609
vt 0.599593 0.517987
vt 0.529332 0.517987
vt 0.597973 0.606609
vt 0.529332 0.606609
vt 0.597973 0.517987
vt 0.651947 0.530747
vt 0.702854 0.593850
vt 0.651947 0.593850
vt 0.702854 0.530747
vt 0.651947 0.530747
vt 0.702854 0.593850
vt 0.651947 0.593850
vt 0.702854 0.530747
vt 0.539922 0.504387
vt 0.587384 0.620210
vt 0.539922 0.620210
vt 0.587384 0.504387
vt 0.512160 0.509937
vt 0.613656 0.614659
vt 0.512160 0.614659
vt 0.613656 0.509937
vt 0.587384 0.504387
vt 0.539922 0.620210
vt 0.539922 0.504387
vt 0.587384 0.620210
vt 0.652458 0.531238
vt 0.702344 0.593359
vt 0.652458 0.593359
vt 0.702344 0.531238
vt 0.527712 0.517987
vt 0.599593 0.606609
vt 0.527712 0.606609
vt 0.599593 0.517987
vt 0.529332 0.517987
vt 0.597973 0.606609
vt 0.529332 0.606609
vt 0.597973 0.517987
vt 0.645294 0.502356
vt 0.709507 0.622240
vt 0.645294 0.622240
vt 0.709507 0.502356
vt 0.651947 0.530747
vt 0.702854 0.593850
vt 0.651947 0.593850
vt 0.702854 0.530747
vt 0.651947 0.530747
vt 0.702854 0.593850
vt 0.651947 0.593850
vt 0.702854 0.530747
vt 0.654351 0.535786
vt 0.700450 0.588810
vt 0.654351 0.588810
vt 0.700450 0.535786
vt 0.651947 0.530747
vt 0.702854 0.593850
vt 0.651947 0.593850
vt 0.702854 0.530747
vt 0.651947 0.530747
vt 0.702854 0.593850
vt 0.651947 0.593850
vt 0.702854 0.530747
vt 0.527712 0.517987
vt 0.599593 0.606609
vt 0.527712 0.606609
vt 0.599593 0.517987
vt 0.529332 0.517987
vt 0.597973 0.606609
vt 0.529332 0.606609
vt 0.597973 0.517987
vt 0.645294 0.502356
vt 0.709507 0.622240
vt 0.645294 0.622240
vt 0.709507 0.502356
vt 0.641501 0.519380
vt 0.713300 0.605216
vt 0.641501 0.605216
vt 0.713300 0.519380
vt 0.645294 0.502356
vt 0.709507 0.622240
vt 0.645294 0.622240
vt 0.709507 0.502356
vt 0.645294 0.502356
vt 0.709507 0.622240
vt 0.645294 0.622240
vt 0.709507 0.502356
vt 0.527712 0.517987
vt 0.599593 0.606609
vt 0.527712 0.606609
vt 0.599593 0.517987
vt 0.529332 0.517987
vt 0.597973 0.606609
vt 0.529332 0.606609
vt 0.597973 0.517987
vt 0.641501 0.519380
vt 0.713300 0.605216
vt 0.641501 0.605216
vt 0.713300 0.519380
vt 0.654351 0.535786
vt 0.700450 0.588810
vt 0.654351 0.588810
vt 0.700450 0.535786
vt 0.539922 0.504387
vt 0.587384 0.620210
vt 0.539922 0.620210
vt 0.587384 0.504387
vt 0.512160 0.509937
vt 0.613656 0.614659
vt 0.512160 0.614659
vt 0.613656 0.509937
vt 0.587384 0.504387
vt 0.539922 0.620210
vt 0.539922 0.504387
vt 0.587384 0.620210
vt 0.651947 0.530747
vt 0.702854 0.593850
vt 0.651947 0.593850
vt 0.702854 0.530747
vt 0.651947 0.530747
vt 0.702854 0.593850
vt 0.651947 0.593850
vt 0.702854 0.530747
vt 0.645294 0.502356
vt 0.709507 0.622240
vt 0.645294 0.622240
vt 0.709507 0.502356
vn 1.000000 0.000000 0.000000
vn 1.000000 0.000000 0.000000
vn 1.000000 0.000000 0.000000
vn 1.000000 0.000000 0.000000
vn 1.000000 0.000000 0.000000
vn 1.000000 0.000000 0.000000
vn 0.000000 0.000000 1.000000
vn 0.000000 0.000000 1.000000
vn 0.000000 0.000000 1.000000
vn 0.000000 0.000000 1.000000
vn 0.000000 0.000000 1.000000
vn 0.000000 0.000000 1.000000
vn 1.000000 0.000000 -0.000000
vn 1.000000 0.000000 -0.000000
vn 1.000000 0.000000 -0.000000
vn 1.000000 0.000000 -0.000000
vn 1.000000 0.000000 -0.000000
vn 1.000000 0.000000 -0.000000
vn -0.000000 0.000000 -1.000000
vn -0.000000 0.000000 -1.000000
vn -0.000000 0.000000 -1.000000
vn -0.000000 0.000000 -1.000000
vn -0.000000 0.000000 -1.000000
vn -0.000000 0.000000 -1.000000
vn 0.000000 0.000000 1.000000
vn 0.000000 0.000000 1.000000
vn 0.000000 0.000000 1.000000
vn 0.000000 0.000000 1.000000
vn 0.000000 0.000000 1.000000
vn 0.000000 0.000000 1.000000
vn 0.000000 0.000000 -1.000000
vn 0.000000 0.000000 -1.000000
vn 0.000000 0.000000 -1.000000
vn 0.000000 0.000000 -1.000000
vn 0.000000 0.000000 -1.000000
vn 0.000000 0.000000 -1.000000
vn 0.000000 0.000000 -1.000000
vn 0.000000 0.000000 -1.000000
vn 0.000000 0.000000 -1.000000
vn 0.000000 0.000000 -1.000000
vn 0.000000 0.000000 -1.000000
vn 0.000000 0.000000 -1.000000
vn 0.000000 0.000000 -1.000000
vn 0.000000 0.000000 -1.000000
vn 0.000000 0.000000 -1.000000
vn 0.000000 0.000000 -1.000000
vn 0.000000 0.000000 -1.000000
vn 0.000000 0.000000 -1.000000
vn 0.000000 0.000000 -1.000000
vn 0.000000 0.000000 -1.000000
vn 0.000000 0.000000 -1.000000
vn 0.000000 0.000000 -1.000000
vn 0.000000 0.000000 -1.000000
vn 0.000000 0.000000 -1.000000
vn 0.817512 0.000000 -0.575911
vn 0.817512 0.000000 -0.575911
vn 0.817512 0.000000 -0.575911
vn 0.817512 0.000000 -0.575911
vn 0.817512 0.000000 -0.575911
vn 0.817512 0.000000 -0.575911
vn -0.000000 0.000000 -1.000000
vn -0.000000 0.000000 -1.000000
vn -0.000000 0.000000 -1.000000
vn -0.000000 0.000000 -1.000000
vn -0.000000 0.000000 -1.000000
vn -0.000000 0.000000 -1.000000
vn -0.817512 0.000000 -0.575911
vn -0.817512 0.000000 -0.575911
vn -0.817512 0.000000 -0.575911
vn -0.817512 0.000000 -0.575911
vn -0.817512 0.000000 -0.575911
vn -0.817512 0.000000 -0.575911
vn 0.000000 0.000000 1.000000
vn 0.000000 0.000000 1.000000
vn 0.000000 0.000000 1.000000
vn 0.000000 0.000000 1.000000
vn 0.000000 0.000000 1.000000
vn 0.000000 0.000000 1.000000
vn -1.000000 0.000000 0.000000
vn -1.000000 0.000000 0.000000
vn -1.000000 0.000000 0.000000
vn -1.000000 0.000000 0.000000
vn -1.000000 0.000000 0.000000
vn -1.000000 0.000000 0.000000
vn -1.000000 0.000000 0.000000
vn -1.000000 0.000000 0.000000
vn -1.000000 0.000000 0.000000
vn -1.000000 0.000000 0.000000
vn -1.000000 0.000000 0.000000
vn -1.000000 0.000000 0.000000
vn -1.000000 0.000000 0.000000
vn -1.000000 0.000000 0.000000
vn -1.000000 0.000000 0.000000
vn -1.000000 0.000000 0.000000
vn -1.000000 0.000000 0.000000
vn -1.000000 0.000000 0.000000
vn 0.000000 0.000000 -1.000000
vn 0.000000 0.000000 -1.000000
vn 0.000000 0.000000 -1.000000
vn 0.000000 0.000000 -1.000000
vn 0.000000 0.000000 -1.000000
vn 0.000000 0.000000 -1.000000
vn -1.000000 0.000000 0.000000
vn -1.000000 0.000000 0.000000
vn -1.000000 0.000000 0.000000
vn -1.000000 0.000000 0.000000
vn -1.000000 0.000000 0.000000
vn -1.000000 0.000000 0.000000
vn -1.000000 0.000000 0.000000
vn -1.000000 0.000000 0.000000
vn -1.000000 0.000000 0.000000
vn -1.000000 0.000000 0.000000
vn -1.000000 0.000000 0.000000
vn -1.000000 0.000000 0.000000
vn 1.000000 0.000000 0.000000
vn 1.000000 0.000000 0.000000
vn 1.000000 0.000000 0.000000
vn 1.000000 0.000000 0.000000
vn 1.000000 0.000000 0.000000
vn 1.000000 0.000000 0.000000
vn 0.000000 0.000000 -1.000000
vn 0.000000 0.000000 -1.000000
vn 0.000000 0.000000 -1.000000
vn 0.000000 0.000000 -1.000000
vn 0.000000 0.000000 -1.000000
vn 0.000000 0.000000 -1.000000
vn 0.000000 0.000000 -1.000000
vn 0.000000 0.000000 -1.000000
vn 0.000000 0.000000 -1.000000
vn 0.000000 0.000000 -1.000000
vn 0.000000 0.000000 -1.000000
vn 0.000000 0.000000 -1.000000
vn 0.000000 0.000000 -1.000000
vn 0.000000 0.000000 -1.000000
vn 0.000000 0.000000 -1.000000
vn 0.000000 0.000000 -1.000000
vn 0.000000 0.000000 -1.000000
vn 0.000000 0.000000 -1.000000
vn 0.000000 0.000000 1.000000
vn 0.000000 0.000000 1.000000
vn 0.000000 0.000000 1.000000
vn 0.000000 0.000000 1.000000
vn 0.000000 0.000000 1.000000
vn 0.000000 0.000000 1.000000
vn -1.000000 0.000000 -0.000002
vn -1.000000 0.000000 -0.000002
vn -1.000000 0.000000 -0.000002
vn -1.000000 0.000000 -0.000002
vn -1.000000 0.000000 -0.000002
vn -1.000000 0.000000 -0.000002
vn 1.000000 0.000000 0.000001
vn 1.000000 0.000000 0.000001
vn 1.000000 0.000000 0.000001
vn 1.000000 0.000000 0.000001
vn 1.000000 0.000000 0.000001
vn 1.000000 0.000000 0.000001
vn -1.000000 0.000000 0.000000
vn -1.000000 0.000000 0.000000
vn -1.000000 0.000000 0.000000
vn -1.000000 0.000000 0.000000
vn -1.000000 0.000000 0.000000
vn -1.000000 0.000000 0.000000
vn -1.000000 0.000000 0.000000
vn -1.000000 0.000000 0.000000
vn -1.000000 0.000000 0.000000
vn -1.000000 0.000000 0.000000
vn -1.000000 0.000000 0.000000
vn -1.000000 0.000000 0.000000
vn -1.000000 0.000000 0.000000
vn -1.000000 0.000000 0.000000
vn -1.000000 0.000000 0.000000
vn -1.000000 0.000000 0.000000
vn -1.000000 0.000000 0.000000
vn -1.000000 0.000000 0.000000
vn -1.000000 0.000000 -0.000002
vn -1.000000 0.000000 -0.000002
vn -1.000000 0.000000 -0.000002
vn -1.000000 0.000000 -0.000002
vn -1.000000 0.000000 -0.000002
vn -1.000000 0.000000 -0.000002
vn -1.000000 0.000000 0.000000
vn -1.000000 0.000000 0.000000
vn -1.000000 0.000000 0.000000
vn -1.000000 0.000000 0.000000
vn -1.000000 0.000000 0.000000
vn -1.000000 0.000000 0.000000
vn -0.575911 0.000000 -0.817512
vn -0.575911 0.000000 -0.817512
vn -0.575911 0.000000 -0.817512
vn -0.575911 0.000000 -0.817512
vn -0.575911 0.000000 -0.817512
vn -0.575911 0.000000 -0.817512
vn -1.000000 0.000000 0.000000
vn -1.000000 0.000000 0.000000
vn -1.000000 0.000000 0.000000
vn -1.000000 0.000000 0.000000
vn -1.000000 0.000000 0.000000
vn -1.000000 0.000000 0.000000
vn -0.575911 0.000000 0.817512
vn -0.575911 0.000000 0.817512
vn -0.575911 0.000000 0.817512
vn -0.575911 0.000000 0.817512
vn -0.575911 0.000000 0.817512
vn -0.575911 0.000000 0.817512
vn 0.000000 0.000000 1.000000
vn 0.000000 0.000000 1.000000
vn 0.000000 0.000000 1.000000
vn 0.000000 0.000000 1.000000
vn 0.000000 0.000000 1.000000
vn 0.000000 0.000000 1.000000
vn 0.000000 0.000000 1.000000
vn 0.000000 0.000000 1.000000
vn 0.000000 0.000000 1.000000
vn 0.000000 0.000000 1.000000
vn 0.000000 0.000000 1.000000
vn 0.000000 0.000000 1.000000
vn 1.000000 0.000000 0.000001
vn 1.000000 0.000000 0.000001
vn 1.000000 0.000000 0.000001
vn 1.000000 0.000000 0.000001
vn 1.000000 0.000000 0.000001
vn 1.000000 0.000000 0.000001
s off
f 1/1/1 2/2/2 3/3/3
f 1/1/4 3/3/5 4/4/6
f 5/5/7 7/6/8 6/7/9
f 5/5/10 8/8/11 7/6/12
f 9/9/13 11/10/14 10/11/15
f 9/9/16 12/12/17 11/10/18
f 13/13/19 15/14/20 14/15/21
f 13/13/22 16/16/23 15/14/24
f 17/17/25 19/18/26 18/19/27
f 17/17/28 20/20/29 19/18/30
f 21/21/31 22/23/32 23/22/33
f 21/21/34 23/22/35 24/24/36
f 25/25/37 26/27/38 27/26/39
f 25/25/40 27/26/41 28/28/42
f 29/29/43 30/31/44 31/30/45
f 29/29/46 31/30/47 32/32/48
f 33/33/49 34/35/50 35/34/51
f 33/33/52 35/34/53 36/36/54
f 37/37/55 39/38/56 38/39/57
f 37/37/58 40/40/59 39/38/60
f 41/41/61 43/42/62 42/43/63
f 41/41/64 44/44/65 43/42/66
f 45/45/67 47/46/68 46/47/69
f 45/45/70 48/48/71 47/46/72
f 49/49/73 51/50/74 50/51/75
f 49/49/76 52/52/77 51/50/78
f 53/53/79 55/54/80 54/55/81
f 53/53/82 56/56/83 55/54/84
f 57/57/85 59/58/86 58/59/87
f 57/57/88 60/60/89 59/58/90
f 61/61/91 63/62/92 62/63/93
f 61/61/94 64/64/95 63/62/96
f 65/65/97 66/67/98 67/66/99
f 65/65/100 67/66/101 68/68/102
f 69/69/103 71/70/104 70/71/105
f 69/69/106 72/72/107 71/70/108
f 73/73/109 75/74/110 74/75/111
f 73/73/112 76/76/113 75/74/114
f 77/77/115 78/79/116 79/78/117
f 77/77/118 79/78/119 80/80/120
f 81/81/121 82/83/122 83/82/123
f 81/81/124 83/82/125 84/84/126
f 85/85/127 86/87/128 87/86/129
f 85/85/130 87/86/131 88/88/132
f 89/89/133 90/91/134 91/90/135
f 89/89/136 91/90/137 92/92/138
f 93/93/139 95/94/140 94/95/141
f 93/93/142 96/96/143 95/94/144
f 97/97/145 99/98/146 98/99/147
f 97/97/148 100/100/149 99/98/150
f 101/101/151 103/102/152 102/103/153
f 101/101/154 104/104/155 103/102/156
f 105/105/157 107/106/158 106/107/159
f 105/105/160 108/108/161 107/106/162
f 109/109/163 111/110/164 110/111/165
f 109/109/166 112/112/167 111/110/168
f 113/113/169 115/114/170 114/115/171
f 113/113/172 116/116/173 115/114/174
f 117/117/175 119/118/176 118/119/177
f 117/117/178 120/120/179 119/118/180
f 121/121/181 123/122/182 122/123/183
f 121/121/184 124/124/185 123/122/186
f 125/125/187 127/126/188 126/127/189
f 125/125/190 128/128/191 127/126/192
f 129/129/193 131/130/194 130/131/195
f 129/129/196 132/132/197 131/130/198
f 133/133/199 135/134/200 134/135/201
f 133/133/202 136/136/203 135/134/204
f 137/137/205 139/138/206 138/139/207
f 137/137/208 140/140/209 139/138/210
f 141/141/211 143/142/212 142/143/213
f 141/141/214 144/144/215 143/142/216
f 145/145/217 147/146/218 146/147/219
f 145/145/220 148/148/221 147/146/222
