# This file uses centimeters as units for non-parametric coordinates.

v 30.541016 0.000000 5.876953
v 30.541016 39.715881 5.876953
v -30.544922 39.715881 5.876953
v -30.544922 0.000000 5.876953
v 30.541016 285.299377 -228.749023
v -30.544922 285.299377 -228.749023
v 30.541016 0.000000 -25.000000
v -30.544922 0.000000 -25.000000
v 30.541016 255.898254 -250.000977
v -30.544922 255.898254 -250.000977
v 30.541016 285.299377 -250.000977
v -30.544922 285.299377 -250.000977
v 30.541016 24.718079 -25.000000
v -30.544922 24.718079 -25.000000
v -30.544922 0.000000 -249.999023
v -30.544922 24.718079 -249.999023
v 30.541016 24.718079 -249.999023
v 30.541016 0.000000 -249.999023
v 9.750000 39.471008 -53.531250
v -9.754883 39.471008 -53.531250
v -9.754883 245.794006 -250.000977
v 9.750000 245.794006 -250.000977
v 9.750000 39.471008 -249.999023
v -9.754883 39.471008 -249.999023
vt 0.396645 0.898816
vt 0.396580 0.898815
vt 0.396620 0.898813
vt 0.396683 0.898814
vt 0.397576 0.899389
vt 0.397569 0.899416
vt 0.397574 0.899338
vt 0.397580 0.899314
vt 0.397463 0.899375
vt 0.397465 0.899329
vt 0.397452 0.899401
vt 0.397455 0.899354
vt 0.396582 0.898866
vt 0.396621 0.898862
vt 0.197851 0.304193
vt 0.197851 0.304103
vt 0.196943 0.304118
vt 0.196943 0.304214
vt 0.197938 0.304120
vt 0.197938 0.304215
vt 0.196976 0.304238
vt 0.196976 0.304137
vt 0.396608 0.898880
vt 0.397350 0.899297
vt 0.396596 0.898882
vt 0.397345 0.899305
vt 0.196964 0.304071
vt 0.197805 0.304059
vt 0.197779 0.304055
vt 0.196953 0.304066
vt 0.196952 0.303250
vt 0.196962 0.303238
vt 0.013773 0.036015
vt 0.547638 0.036015
vt 0.013768 0.555908
vt 0.013773 0.036015
vt 0.547638 0.036015
vt 0.013768 0.555908
vn 0.000000 1.000000 0.000000
vn 0.000000 1.000000 0.000000
vn 0.000000 1.000000 0.000000
vn 0.000000 1.000000 0.000000
vn 0.000000 0.000000 1.000000
vn 0.000000 0.000000 1.000000
vn 0.000000 0.000000 1.000000
vn 0.000000 0.000000 1.000000
vn 0.000000 0.690792 0.723053
vn 0.000000 0.690792 0.723053
vn 0.000000 0.690792 0.723053
vn 0.000000 0.690792 0.723053
vn -1.000000 0.000000 0.000000
vn -1.000000 0.000000 0.000000
vn -1.000000 0.000000 0.000000
vn -1.000000 0.000000 0.000000
vn 0.000000 -1.000000 0.000000
vn 0.000000 -1.000000 0.000000
vn 0.000000 -1.000000 0.000000
vn 0.000000 -1.000000 0.000000
vn 1.000000 -0.000000 0.000000
vn 1.000000 -0.000000 0.000000
vn 1.000000 -0.000000 0.000000
vn 1.000000 -0.000000 0.000000
vn -1.000000 -0.000000 0.000000
vn -1.000000 -0.000000 0.000000
vn -1.000000 -0.000000 0.000000
vn -1.000000 -0.000000 0.000000
vn -1.000000 0.000000 0.000000
vn -1.000000 0.000000 0.000000
vn -1.000000 0.000000 0.000000
vn 1.000000 0.000000 0.000000
vn 1.000000 0.000000 0.000000
vn 1.000000 0.000000 0.000000
vn 1.000000 0.000000 0.000000
vn 1.000000 0.000000 0.000000
vn 1.000000 0.000000 0.000000
vn 1.000000 0.000000 0.000000
vn -1.000000 0.000000 0.000000
vn -1.000000 0.000000 0.000000
vn -1.000000 0.000000 0.000000
vn -1.000000 0.000000 0.000000
vn 1.000000 0.000000 0.000000
vn 1.000000 0.000000 0.000000
vn 1.000000 0.000000 0.000000
vn 1.000000 0.000000 0.000000
vn 0.000000 -1.000000 0.000000
vn 0.000000 -1.000000 0.000000
vn 0.000000 -1.000000 0.000000
vn 0.000000 -1.000000 0.000000
vn -0.384566 -0.640434 -0.664796
vn -0.384566 -0.640434 -0.664796
vn -0.384566 -0.640434 -0.664796
vn -0.384566 -0.640434 -0.664796
vn 0.000002 0.000000 -1.000000
vn 0.000002 0.000000 -1.000000
vn 0.000002 0.000000 -1.000000
vn 0.384551 -0.640438 -0.664800
vn 0.384551 -0.640438 -0.664800
vn 0.384551 -0.640438 -0.664800
vn 0.384551 -0.640438 -0.664800
vn 0.578695 0.815544 0.000000
vn 0.578695 0.815544 0.000000
vn 0.578695 0.815544 0.000000
vn 0.578695 0.815544 0.000000
vn 0.000002 0.000000 -1.000000
vn 0.000002 0.000000 -1.000000
vn 0.000002 0.000000 -1.000000
vn -0.578713 0.815531 0.000000
vn -0.578713 0.815531 0.000000
vn -0.578713 0.815531 0.000000
vn -0.578713 0.815531 0.000000
vn -1.000000 0.000000 0.000000
vn -1.000000 0.000000 0.000000
vn -1.000000 0.000000 0.000000
vn 0.000000 -0.000009 -1.000000
vn 0.000000 -0.000009 -1.000000
vn 0.000000 -0.000009 -1.000000
vn 0.000000 -0.000009 -1.000000
vn 1.000000 0.000000 0.000000
vn 1.000000 0.000000 0.000000
vn 1.000000 0.000000 0.000000
vn 0.000000 0.000000 -1.000000
vn 0.000000 0.000000 -1.000000
vn 0.000000 0.000000 -1.000000
vn 0.000000 0.000000 -1.000000
vn -0.000002 0.000000 -1.000000
vn -0.000002 0.000000 -1.000000
vn -0.000002 0.000000 -1.000000
vn -0.000002 0.000000 -1.000000
vn -0.000002 0.000000 -1.000000
vn -0.000002 0.000000 -1.000000
vn 0.000000 0.000000 -1.000000
vn 0.000000 0.000000 -1.000000
vn 0.000000 0.000000 -1.000000
vn 0.000000 0.000000 -1.000000
s off
f 5/1/1 11/2/2 12/3/3 6/4/4
f 4/5/5 1/6/6 2/7/7 3/8/8
f 3/8/9 2/7/10 5/1/11 6/4/12
f 8/9/13 4/5/14 3/8/15 14/10/16
f 1/6/17 4/5/18 8/9/19 7/11/20
f 5/1/21 2/7/22 13/12/23 9/13/24
f 3/8/25 6/4/26 10/14/27 14/10/28
f 6/4/29 12/3/30 10/14/31
f 9/13/32 11/2/33 5/1/34
f 7/11/35 13/12/36 2/7/37 1/6/38
f 8/15/39 14/16/40 16/17/41 15/18/42
f 13/19/43 7/20/44 18/21/45 17/22/46
f 7/20/47 8/15/48 15/18/49 18/21/50
f 14/10/51 10/14/52 21/23/53 20/24/54
f 9/13/55 22/25/56 11/2/57
f 9/13/58 13/12/59 19/26/60 22/25/61
f 13/19/62 17/22/63 23/27/64 19/28/65
f 18/21/66 23/27/67 17/22/68
f 16/17/69 14/16/70 20/29/71 24/30/72
f 20/34/73 21/35/74 24/36/75
f 21/31/76 22/32/77 23/27/78 24/30/79
f 22/38/80 19/37/81 23/33/82
f 11/2/83 22/25/84 21/23/85 12/3/86
f 12/3/87 21/23/88 10/14/89
f 16/17/90 24/30/91 15/18/92
f 15/18/93 24/30/94 23/27/95 18/21/96
