# This file uses centimeters as units for non-parametric coordinates.

v -385.927734 5.260864 -25.000000
v -364.072266 5.260864 -25.000000
v -385.927734 41.414185 -9.291016
v -364.072266 41.414185 -9.291016
v -385.927734 329.332581 -374.310547
v -364.072266 329.332581 -374.310547
v -385.927734 353.727417 -374.310547
v -364.072266 353.727417 -374.310547
v -135.927734 5.260864 -25.000000
v -114.072266 5.260864 -25.000000
v -135.927734 41.414185 -9.291016
v -114.072266 41.414185 -9.291016
v -135.927734 329.332581 -374.310547
v -114.072266 329.332581 -374.310547
v -135.927734 353.727417 -374.310547
v -114.072266 353.727417 -374.310547
v -364.072266 176.445923 -70.392578
v -364.072266 152.051147 -86.585938
v -385.927734 152.051147 -86.585938
v -385.927734 176.445923 -70.392578
v -114.072266 176.445923 -70.392578
v -114.072266 152.051147 -86.585938
v -135.927734 152.051147 -86.585938
v -135.927734 176.445923 -70.392578
v -385.927734 315.705322 -236.531250
v -385.927734 291.310486 -243.009766
v -364.072266 291.310486 -243.009766
v -364.072266 315.705322 -236.531250
v -135.927734 315.705322 -236.531250
v -135.927734 291.310486 -243.009766
v -114.072266 291.310486 -243.009766
v -114.072266 315.705322 -236.531250
v -364.072266 260.232178 -143.433594
v -364.072266 235.837402 -154.769531
v -385.927734 235.837402 -154.769531
v -385.927734 260.232178 -143.433594
v -114.072266 260.232178 -143.433594
v -114.072266 235.837402 -154.769531
v -135.927734 235.837402 -154.769531
v -135.927734 260.232178 -143.433594
v -500.000000 0.000000 0.003906
v -500.000000 73.158875 -7.203125
v -500.000000 143.506226 -28.542969
v -500.000000 208.338806 -63.195313
v -500.000000 265.165100 -109.832031
v -500.000000 311.801147 -166.656250
v -500.000000 346.454773 -231.488281
v -500.000000 367.794434 -301.835938
v -500.000000 375.000000 -374.996094
v -500.000000 0.000000 -25.000000
v -500.000000 66.308960 -41.632813
v -500.000000 130.056641 -61.003906
v -500.000000 188.784668 -92.453125
v -500.000000 240.234375 -134.757813
v -500.000000 282.434509 -186.277344
v -500.000000 313.775879 -245.023438
v -500.000000 333.067993 -308.742188
v -500.000000 339.580750 -374.996094
v -500.000000 29.263550 -2.878906
v -500.000000 26.523621 -37.707031
v -500.000000 0.000000 -25.000000
v 0.007813 26.523621 -37.707031
v 0.003906 66.308960 -41.632813
v 0.003906 130.056641 -61.003906
v 0.005859 188.784668 -92.453125
v 0.001953 240.234375 -134.757813
v 0.001953 282.434509 -186.277344
v 0.001953 313.775879 -245.023438
v 0.001953 333.067993 -308.742188
v 0.001953 339.580750 -374.996094
v 0.005859 29.263550 -2.878906
v 0.003906 73.158875 -7.203125
v 0.001953 143.506226 -28.542969
v 0.003906 208.338806 -63.195313
v 0.003906 265.165100 -109.832031
v 0.001953 311.801147 -166.656250
v 0.003906 346.454773 -231.488281
v 0.001953 367.794434 -301.835938
v 0.001953 375.000000 -374.996094
v 0.000000 0.000000 0.000000
v 0.000000 0.000000 -25.000000
v 0.000000 0.000000 -25.000000
vt 0.487464 0.178879
vt 0.487486 0.178870
vt 0.487485 0.178930
vt 0.487463 0.178938
vt 0.488039 0.179721
vt 0.488016 0.179720
vt 0.488070 0.179669
vt 0.488046 0.179668
vt 0.487746 0.178752
vt 0.487775 0.178738
vt 0.487775 0.178809
vt 0.487745 0.178821
vt 0.488349 0.179738
vt 0.488319 0.179737
vt 0.488378 0.179679
vt 0.488348 0.179678
vt 0.487895 0.179429
vt 0.487873 0.179483
vt 0.487850 0.179485
vt 0.487872 0.179432
vt 0.488197 0.179397
vt 0.488177 0.179460
vt 0.488147 0.179462
vt 0.488167 0.179400
vt 0.487627 0.179100
vt 0.487618 0.179157
vt 0.487640 0.179151
vt 0.487649 0.179094
vt 0.487914 0.179011
vt 0.487906 0.179077
vt 0.487936 0.179069
vt 0.487944 0.179002
vt 0.487772 0.179261
vt 0.487756 0.179317
vt 0.487734 0.179321
vt 0.487750 0.179266
vt 0.488071 0.179199
vt 0.488056 0.179264
vt 0.488026 0.179270
vt 0.488041 0.179206
vt 1.999996 0.128104
vt 2.000000 0.850026
vt 2.000000 0.053345
vt 1.999996 0.252702
vt 1.999996 0.377298
vt 1.999996 0.501897
vt 1.999996 0.626492
vt 1.999996 0.751088
vt 1.999996 0.875686
vt 1.999996 1.000286
vt 1.999996 0.909497
vt 1.999996 0.003506
vt 1.999996 0.909497
vt 0.488329 0.157312
vt 0.488324 0.157251
vt 0.489152 0.157154
vt 0.489166 0.157220
vt 0.488312 0.157148
vt 0.489131 0.157043
vt 0.488296 0.157045
vt 0.489112 0.156933
vt 0.488277 0.156946
vt 0.489096 0.156825
vt 0.488256 0.156852
vt 0.489082 0.156721
vt 0.488231 0.156764
vt 0.489072 0.156624
vt 0.488204 0.156685
vt 0.489066 0.156534
vt 0.488175 0.156617
vt 0.489064 0.156455
vt 3.000002 0.053349
vt 2.999995 0.128107
vt 2.999995 0.252704
vt 2.999995 0.377300
vt 2.999995 0.501898
vt 2.999995 0.626492
vt 2.999995 0.751089
vt 2.999995 0.875686
vt 2.999995 1.000286
vt 2.999995 0.909497
vt 2.999995 0.003510
vt 0.489175 0.157270
vt 0.488336 0.157359
vt 2.999995 0.909497
vt 3.000002 0.850026
vt 0.018422 0.042722
vt 0.018357 0.043051
vt 0.017976 0.043014
vt 0.018002 0.042681
vt 0.019096 0.042926
vt 0.018967 0.043237
vt 0.017722 0.042892
vt 0.017722 0.042653
vt 0.019716 0.043258
vt 0.019529 0.043538
vt 0.020260 0.043704
vt 0.020021 0.043943
vt 0.020706 0.044248
vt 0.020425 0.044436
vt 0.021038 0.044869
vt 0.020725 0.044998
vt 0.021242 0.045542
vt 0.020910 0.045608
vt 0.021311 0.046242
vt 0.020972 0.046242
vt 0.020500 0.046523
vt 0.020166 0.046549
vt 0.020139 0.046269
vt 0.020378 0.046269
vt 0.020537 0.046904
vt 0.020208 0.046969
vt 0.020723 0.047514
vt 0.020412 0.047643
vt 0.021024 0.048076
vt 0.020744 0.048263
vt 0.021429 0.048568
vt 0.021190 0.048807
vt 0.021922 0.048972
vt 0.021734 0.049253
vt 0.022484 0.049272
vt 0.022355 0.049585
vt 0.023094 0.049457
vt 0.023028 0.049789
vt 0.023728 0.049519
vt 0.023728 0.049858
vt 0.017280 0.047439
vt 0.017040 0.047439
vt 0.017040 0.042653
vt 0.017280 0.042653
vt 0.017668 0.047439
vt 0.017329 0.047439
vt 0.017329 0.042653
vt 0.017668 0.042653
vn 0.000000 0.000000 -1.000000
vn 0.000000 0.000000 -1.000000
vn 0.000000 0.000000 -1.000000
vn 0.000000 0.000000 -1.000000
vn 0.000000 -0.920044 -0.391816
vn 0.000000 -0.920044 -0.391816
vn 0.000000 -0.746897 -0.664939
vn 0.000000 -0.746897 -0.664939
vn 1.000000 0.000000 0.000000
vn 1.000000 0.000000 0.000000
vn 1.000000 0.000000 0.000000
vn 1.000000 0.000000 0.000000
vn -1.000000 0.000000 0.000000
vn -1.000000 0.000000 0.000000
vn -1.000000 0.000000 0.000000
vn -1.000000 0.000000 0.000000
vn 0.000000 0.000000 -1.000000
vn 0.000000 0.000000 -1.000000
vn 0.000000 0.000000 -1.000000
vn 0.000000 0.000000 -1.000000
vn 0.000000 -0.920044 -0.391816
vn 0.000000 -0.920044 -0.391816
vn 0.000000 -0.746897 -0.664940
vn 0.000000 -0.746897 -0.664940
vn 1.000000 -0.000000 0.000000
vn 1.000000 -0.000000 0.000000
vn 1.000000 -0.000000 0.000000
vn 1.000000 0.000000 0.000000
vn -1.000000 -0.000000 0.000000
vn -1.000000 -0.000000 0.000000
vn -1.000000 -0.000000 0.000000
vn -1.000000 -0.000000 0.000000
vn 1.000000 -0.000000 0.000000
vn 1.000000 0.000000 0.000000
vn 1.000000 0.000000 0.000000
vn 1.000000 -0.000000 0.000000
vn 0.000000 -0.490463 -0.871462
vn 0.000000 -0.490463 -0.871462
vn 0.000000 -0.386880 -0.922130
vn 0.000000 -0.386880 -0.922130
vn -1.000000 0.000000 0.000000
vn -1.000000 0.000000 0.000000
vn -1.000000 0.000000 0.000000
vn -1.000000 0.000000 0.000000
vn 1.000000 0.000000 0.000000
vn 1.000000 0.000000 0.000000
vn 1.000000 0.000000 0.000000
vn 1.000000 0.000000 0.000000
vn 0.000000 -0.490463 -0.871462
vn 0.000000 -0.490463 -0.871462
vn 0.000000 -0.386880 -0.922130
vn 0.000000 -0.386880 -0.922130
vn -1.000000 0.000000 0.000000
vn -1.000000 0.000000 0.000000
vn -1.000000 0.000000 0.000000
vn -1.000000 0.000000 0.000000
vn -1.000000 0.000000 0.000000
vn -1.000000 0.000000 0.000000
vn -1.000000 0.000000 0.000000
vn -1.000000 0.000000 0.000000
vn 0.000000 -0.960537 -0.278152
vn 0.000000 -0.960537 -0.278152
vn 0.000000 -0.920044 -0.391816
vn 0.000000 -0.920044 -0.391816
vn 1.000000 0.000000 0.000000
vn 1.000000 0.000000 0.000000
vn 1.000000 0.000000 0.000000
vn 1.000000 0.000000 0.000000
vn -1.000000 0.000000 0.000000
vn -1.000000 -0.000000 0.000000
vn -1.000000 -0.000000 0.000000
vn -1.000000 0.000000 0.000000
vn 0.000000 -0.960537 -0.278152
vn 0.000000 -0.960537 -0.278152
vn 0.000000 -0.920044 -0.391816
vn 0.000000 -0.920044 -0.391816
vn 1.000000 0.000000 0.000000
vn 1.000000 -0.000000 0.000000
vn 1.000000 0.000000 0.000000
vn 1.000000 0.000000 0.000000
vn 1.000000 0.000000 0.000000
vn 1.000000 0.000000 0.000000
vn 1.000000 0.000000 0.000000
vn 1.000000 0.000000 0.000000
vn 0.000000 -0.746897 -0.664939
vn 0.000000 -0.746897 -0.664939
vn 0.000000 -0.490463 -0.871462
vn 0.000000 -0.490463 -0.871462
vn -1.000000 0.000000 0.000000
vn -1.000000 0.000000 0.000000
vn -1.000000 0.000000 0.000000
vn -1.000000 0.000000 0.000000
vn 1.000000 0.000000 0.000000
vn 1.000000 0.000000 0.000000
vn 1.000000 -0.000000 0.000000
vn 1.000000 -0.000000 0.000000
vn 0.000000 -0.746897 -0.664940
vn 0.000000 -0.746897 -0.664940
vn 0.000000 -0.490463 -0.871462
vn 0.000000 -0.490463 -0.871462
vn -1.000000 -0.000000 0.000000
vn -1.000000 -0.000000 0.000000
vn -1.000000 0.000000 0.000000
vn -1.000000 0.000000 0.000000
vn -1.000000 0.000000 0.000000
vn -1.000000 0.000000 0.000000
vn -1.000000 0.000000 0.000000
vn -1.000000 0.000000 0.000000
vn -1.000000 0.000000 0.000000
vn -1.000000 0.000000 0.000000
vn -1.000000 0.000000 0.000000
vn -1.000000 0.000000 0.000000
vn -1.000000 0.000000 0.000000
vn -1.000000 0.000000 0.000000
vn -1.000000 0.000000 0.000000
vn -1.000000 0.000000 0.000000
vn -1.000000 0.000000 0.000000
vn -1.000000 0.000000 0.000000
vn -1.000000 0.000000 0.000000
vn -1.000000 0.000000 0.000000
vn -1.000000 0.000000 0.000000
vn -1.000000 0.000000 0.000000
vn -1.000000 0.000000 0.000000
vn -1.000000 0.000000 0.000000
vn -1.000000 0.000000 0.000000
vn -1.000000 0.000000 0.000000
vn -1.000000 0.000000 0.000000
vn -1.000000 0.000000 0.000000
vn -1.000000 0.000000 0.000000
vn -1.000000 0.000000 0.000000
vn -1.000000 0.000000 0.000000
vn -1.000000 0.000000 0.000000
vn -1.000000 0.000000 0.000000
vn -1.000000 0.000000 0.000000
vn -1.000000 0.000000 0.000000
vn -1.000000 0.000000 0.000000
vn -1.000000 0.000000 0.000000
vn -1.000000 0.000000 0.000000
vn -1.000000 0.000000 0.000000
vn -1.000000 0.000000 0.000000
vn 0.000000 0.000000 0.000000
vn 0.000000 0.000000 0.000000
vn 0.000000 0.000000 0.000000
vn 0.000000 -0.098197 -0.995167
vn 0.000000 -0.098197 -0.995167
vn 0.000000 -0.098197 -0.995167
vn 0.000000 -0.098197 -0.995167
vn 0.000000 -0.290744 -0.956801
vn 0.000000 -0.290744 -0.956801
vn 0.000000 -0.290744 -0.956801
vn 0.000000 -0.290744 -0.956801
vn 0.000000 -0.472079 -0.881556
vn 0.000000 -0.472079 -0.881556
vn 0.000000 -0.472079 -0.881556
vn 0.000000 -0.472079 -0.881556
vn 0.000000 -0.635120 -0.772414
vn 0.000000 -0.635120 -0.772414
vn 0.000000 -0.635120 -0.772414
vn 0.000000 -0.635120 -0.772414
vn 0.000000 -0.773605 -0.633668
vn 0.000000 -0.773605 -0.633668
vn 0.000000 -0.773605 -0.633668
vn 0.000000 -0.773605 -0.633668
vn 0.000000 -0.882290 -0.470706
vn 0.000000 -0.882290 -0.470706
vn 0.000000 -0.882290 -0.470706
vn 0.000000 -0.882290 -0.470706
vn 0.000000 -0.957094 -0.289779
vn 0.000000 -0.957094 -0.289779
vn 0.000000 -0.957094 -0.289779
vn 0.000000 -0.957094 -0.289779
vn 0.000000 -0.995203 -0.097828
vn 0.000000 -0.995203 -0.097828
vn 0.000000 -0.995203 -0.097828
vn 0.000000 -0.995203 -0.097828
vn 0.000000 0.098038 0.995183
vn 0.000000 0.098038 0.995183
vn 0.000000 0.098038 0.995183
vn 0.000000 0.098038 0.995183
vn 0.000000 0.290287 0.956940
vn 0.000000 0.290287 0.956940
vn 0.000000 0.290287 0.956940
vn 0.000000 0.290287 0.956940
vn 0.000000 0.471382 0.881929
vn 0.000000 0.471382 0.881929
vn 0.000000 0.471382 0.881929
vn 0.000000 0.471382 0.881929
vn 0.000000 0.634398 0.773006
vn 0.000000 0.634398 0.773006
vn 0.000000 0.634398 0.773006
vn 0.000000 0.634398 0.773006
vn 0.000000 0.772999 0.634407
vn 0.000000 0.772999 0.634407
vn 0.000000 0.772999 0.634407
vn 0.000000 0.773000 0.634407
vn 0.000000 0.881920 0.471399
vn 0.000000 0.881920 0.471399
vn 0.000000 0.881920 0.471399
vn 0.000000 0.881920 0.471399
vn 0.000000 0.956940 0.290284
vn 0.000000 0.956940 0.290284
vn 0.000000 0.956941 0.290284
vn 0.000000 0.956940 0.290284
vn 0.000000 0.995185 0.098016
vn 0.000000 0.995185 0.098016
vn 0.000000 0.995185 0.098016
vn 0.000000 0.995185 0.098016
vn 0.000000 -1.000000 0.000000
vn 0.000000 -1.000000 0.000000
vn 0.000000 -1.000000 0.000000
vn 0.000000 -1.000000 0.000000
vn 0.000000 0.000000 -1.000000
vn 0.000000 0.000000 -1.000000
vn 0.000000 0.000000 -1.000000
vn 0.000000 0.000000 -1.000000
vn 0.000004 0.097972 0.995189
vn 0.000004 0.097972 0.995189
vn 0.000004 0.097972 0.995189
vn 0.000004 0.097972 0.995189
vn 0.000000 -0.432059 -0.901845
vn 0.000000 -0.432059 -0.901845
vn 0.000000 -0.432059 -0.901845
vn 0.000000 -0.432059 -0.901845
vn 0.000000 0.000000 0.000000
vn 0.000000 0.000000 0.000000
vn 0.000000 0.000000 0.000000
vn 0.000000 0.000000 0.000000
vn 1.000000 -0.000233 0.000043
vn 1.000000 -0.000233 0.000043
vn 1.000000 -0.000233 0.000043
vn 1.000000 -0.000233 0.000043
vn 0.000000 0.000000 0.000000
vn 0.000000 0.000000 0.000000
vn 0.000000 0.000000 0.000000
vn 1.000000 0.000072 0.000018
vn 1.000000 0.000072 0.000018
vn 1.000000 0.000072 0.000018
vn 1.000000 0.000072 0.000018
vn 1.000000 0.000021 0.000023
vn 1.000000 0.000021 0.000023
vn 1.000000 0.000021 0.000023
vn 1.000000 0.000021 0.000023
vn 1.000000 0.000002 0.000062
vn 1.000000 0.000002 0.000062
vn 1.000000 0.000002 0.000062
vn 1.000000 0.000002 0.000062
vn 1.000000 0.000022 -0.000018
vn 1.000000 0.000022 -0.000018
vn 1.000000 0.000022 -0.000018
vn 1.000000 0.000022 -0.000018
vn 1.000000 -0.000013 -0.000028
vn 1.000000 -0.000013 -0.000028
vn 1.000000 -0.000013 -0.000028
vn 1.000000 -0.000013 -0.000028
vn 1.000000 -0.000031 -0.000001
vn 1.000000 -0.000031 -0.000001
vn 1.000000 -0.000031 -0.000001
vn 1.000000 -0.000031 -0.000001
vn 1.000000 -0.000022 -0.000021
vn 1.000000 -0.000022 -0.000021
vn 1.000000 -0.000022 -0.000021
vn 1.000000 -0.000022 -0.000021
vn 1.000000 0.000000 0.000000
vn 1.000000 0.000000 0.000000
vn 1.000000 0.000000 0.000000
vn 1.000000 0.000000 0.000000
s off
f 7/1/1 8/2/2 6/3/3 5/4/4
f 26/26/5 27/27/6 34/34/7 35/35/8
f 33/33/9 34/34/10 27/27/11 28/28/12
f 25/25/13 26/26/14 35/35/15 36/36/16
f 15/9/17 16/10/18 14/11/19 13/12/20
f 30/30/21 31/31/22 38/38/23 39/39/24
f 37/37/25 38/38/26 31/31/27 32/32/28
f 29/29/29 30/30/30 39/39/31 40/40/32
f 2/5/33 18/18/34 17/17/35 4/7/36
f 19/19/37 18/18/38 2/5/39 1/6/40
f 20/20/41 19/19/42 1/6/43 3/8/44
f 10/13/45 22/22/46 21/21/47 12/15/48
f 23/23/49 22/22/50 10/13/51 9/14/52
f 24/24/53 23/23/54 9/14/55 11/16/56
f 5/4/57 26/26/58 25/25/59 7/1/60
f 5/4/61 6/3/62 27/27/63 26/26/64
f 28/28/65 27/27/66 6/3/67 8/2/68
f 13/12/69 30/30/70 29/29/71 15/9/72
f 13/12/73 14/11/74 31/31/75 30/30/76
f 32/32/77 31/31/78 14/11/79 16/10/80
f 17/17/81 18/18/82 34/34/83 33/33/84
f 35/35/85 34/34/86 18/18/87 19/19/88
f 36/36/89 35/35/90 19/19/91 20/20/92
f 21/21/93 22/22/94 38/38/95 37/37/96
f 39/39/97 38/38/98 22/22/99 23/23/100
f 40/40/101 39/39/102 23/23/103 24/24/104
f 42/87/105 51/88/106 60/89/107 59/90/108
f 43/91/109 52/92/110 51/88/111 42/87/112
f 44/95/113 53/96/114 52/92/115 43/91/116
f 45/97/117 54/98/118 53/96/119 44/95/120
f 46/99/121 55/100/122 54/98/123 45/97/124
f 47/101/125 56/102/126 55/100/127 46/99/128
f 48/103/129 57/104/130 56/102/131 47/101/132
f 49/105/133 58/106/134 57/104/135 48/103/136
f 59/90/137 60/89/138 50/93/139 41/94/140
f 50/51/141 60/42/142 61/53/143
f 60/54/144 51/55/145 63/56/146 62/57/147
f 51/55/148 52/58/149 64/59/150 63/56/151
f 52/58/152 53/60/153 65/61/154 64/59/155
f 53/60/156 54/62/157 66/63/158 65/61/159
f 54/62/160 55/64/161 67/65/162 66/63/163
f 55/64/164 56/66/165 68/67/166 67/65/167
f 56/66/168 57/68/169 69/69/170 68/67/171
f 57/68/172 58/70/173 70/71/174 69/69/175
f 42/41/176 59/43/177 71/72/178 72/73/179
f 43/44/180 42/41/181 72/73/182 73/74/183
f 44/45/184 43/44/185 73/74/186 74/75/187
f 45/46/188 44/45/189 74/75/190 75/76/191
f 46/47/192 45/46/193 75/76/194 76/77/195
f 47/48/196 46/47/197 76/77/198 77/78/199
f 48/49/200 47/48/201 77/78/202 78/79/203
f 49/50/204 48/49/205 78/79/206 79/80/207
f 41/127/208 50/128/209 81/129/210 80/130/211
f 58/131/212 49/132/213 79/133/214 70/134/215
f 41/52/216 80/82/217 71/72/218 59/43/219
f 82/83/220 61/84/221 60/54/222 62/57/223
f 50/51/224 61/53/225 82/85/226 81/81/227
f 62/107/228 71/108/229 80/109/230 81/110/231
f 62/86/232 81/81/233 82/85/234
f 63/111/235 72/112/236 71/108/237 62/107/238
f 63/111/239 64/113/240 73/114/241 72/112/242
f 73/114/243 64/113/244 65/115/245 74/116/246
f 74/116/247 65/115/248 66/117/249 75/118/250
f 75/118/251 66/117/252 67/119/253 76/120/254
f 76/120/255 67/119/256 68/121/257 77/122/258
f 77/122/259 68/121/260 69/123/261 78/124/262
f 78/124/263 69/123/264 70/125/265 79/126/266
