# This file uses centimeters as units for non-parametric coordinates.

v -25.000000 0.000000 0.000000
v 5.441406 0.000000 153.033203
v 92.128906 0.000000 282.771484
v 221.863281 0.000000 369.455078
v 375.000000 0.000000 400.000000
v -25.000000 76.101807 0.000000
v 5.441406 76.101807 153.033203
v 92.128906 76.101807 282.771484
v 221.863281 76.101807 369.455078
v 375.000000 76.101807 400.000000
v 22.921875 0.000000 0.000000
v 49.714844 0.000000 134.693359
v 126.011719 0.000000 248.886719
v 240.203125 0.000000 325.185547
v 375.000000 0.000000 350.000000
v 22.921875 76.101807 0.000000
v 49.714844 76.101807 134.693359
v 126.011719 76.101807 248.886719
v 240.203125 76.101807 325.185547
v 375.000000 76.101807 350.000000
v 341.062500 76.101807 343.751953
v 336.445313 76.101807 392.308594
v 274.492188 76.101807 331.498047
v 260.816406 76.101807 377.224609
v 211.730469 76.101807 306.162109
v 189.515625 76.101807 347.841797
v 154.937500 76.101807 268.212891
v 124.992188 76.101807 304.728516
v 106.945313 76.101807 220.349609
v 70.464844 76.101807 250.349609
v 69.023438 76.101807 163.591797
v 27.378906 76.101807 185.865234
v 43.015625 76.101807 101.013672
v -2.167969 76.101807 114.767578
v 29.730469 76.101807 34.240234
v -17.261719 76.101807 38.904297
v 274.492188 138.217896 331.498047
v 260.816406 138.217896 377.224609
v 336.445313 138.217896 392.308594
v 341.062500 138.217896 343.751953
v 154.937500 138.217896 268.212891
v 124.992188 138.217896 304.728516
v 189.515625 138.217896 347.841797
v 211.730469 138.217896 306.162109
v 69.023438 138.217896 163.591797
v 27.378906 138.217896 185.865234
v 70.464844 138.217896 250.349609
v 106.945313 138.217896 220.349609
v 29.730469 138.217896 34.240234
v -17.261719 138.217896 38.904297
v -2.167969 138.217896 114.767578
v 43.015625 138.217896 101.013672
vt 0.172503 1.218015
vt 0.228917 1.006886
vt 0.228917 1.218015
vt 0.429200 1.218015
vt 0.495925 1.006886
vt 0.495925 1.218015
vt 0.696908 1.218015
vt 0.763668 1.006886
vt 0.763668 1.218015
vt 0.934248 1.218015
vt 0.991650 1.006886
vt 0.991650 1.218014
vt 0.211842 1.218015
vt 0.261496 1.218015
vt 0.437777 1.218015
vt 0.496509 1.218015
vt 0.673412 1.218015
vt 0.732171 1.218015
vt 0.880420 1.218014
vt 0.930308 1.218014
vt 0.261496 1.006886
vt 0.496509 1.006886
vt 0.732171 1.006886
vt 0.930308 1.006886
vt 0.003307 1.218014
vt 0.062922 1.218015
vt 0.062922 1.006886
vt 0.003307 1.006886
vt 0.782571 1.218015
vt 0.782571 1.360237
vt 0.821657 1.360237
vt 0.934248 1.360237
vt 0.880420 1.360236
vt 0.821657 1.218015
vt 0.556200 1.218015
vt 0.556200 1.360237
vt 0.563744 1.360237
vt 0.696908 1.360237
vt 0.673412 1.360237
vt 0.563744 1.218015
vt 0.320968 1.218015
vt 0.320968 1.360237
vt 0.296488 1.360237
vt 0.429200 1.360237
vt 0.437777 1.360237
vt 0.296488 1.218015
vt 0.113402 1.218014
vt 0.113402 1.360236
vt 0.060660 1.360237
vt 0.172503 1.360237
vt 0.211842 1.360237
vt 0.060660 1.218015
vt 0.194821 0.299806
vt 0.194694 0.299778
vt 0.194722 0.299727
vt 0.194841 0.299759
vt 0.194988 0.299659
vt 0.194894 0.299621
vt 0.194944 0.299589
vt 0.195032 0.299629
vt 0.195226 0.299580
vt 0.195160 0.299538
vt 0.195227 0.299522
vt 0.195287 0.299565
vt 0.195517 0.299559
vt 0.195476 0.299514
vt 0.195559 0.299511
vt 0.195594 0.299556
vt 0.194595 0.299964
vt 0.194751 0.299975
vt 0.194741 0.300165
vt 0.194594 0.300153
vt 0.195522 0.299659
vt 0.195553 0.299709
vt 0.195201 0.299671
vt 0.195258 0.299718
vt 0.195394 0.299428
vt 0.195337 0.299389
vt 0.195507 0.299384
vt 0.195551 0.299424
vt 0.195312 0.299519
vt 0.195365 0.299563
vt 0.194929 0.299746
vt 0.195012 0.299790
vt 0.195119 0.299472
vt 0.195036 0.299435
vt 0.195180 0.299405
vt 0.195250 0.299443
vt 0.195020 0.299571
vt 0.195100 0.299612
vt 0.194715 0.299897
vt 0.194828 0.299932
vt 0.194907 0.299572
vt 0.194792 0.299541
vt 0.194906 0.299479
vt 0.195005 0.299514
vt 0.194784 0.299689
vt 0.194894 0.299723
vt 0.194787 0.299744
vt 0.194635 0.299728
vt 0.194699 0.299622
vt 0.194833 0.299647
vt 0.194632 0.299895
vt 0.194777 0.299913
vn -0.980783 0.000011 0.195104
vn -0.980782 0.000011 0.195105
vn -0.980796 0.000000 0.195038
vn -0.831473 -0.000003 0.555566
vn -0.831473 -0.000003 0.555565
vn -0.831464 0.000000 0.555578
vn -0.555564 0.000004 0.831474
vn -0.555564 0.000004 0.831474
vn -0.555557 0.000000 0.831479
vn -0.195607 0.000008 0.980682
vn -0.195607 0.000008 0.980682
vn -0.195638 0.000000 0.980676
vn 0.000000 1.000000 0.000000
vn 0.000000 1.000000 0.000000
vn 0.000000 1.000000 0.000000
vn 0.000000 1.000000 0.000000
vn 0.000000 1.000000 -0.000000
vn 0.000000 1.000000 -0.000000
vn 0.000000 1.000000 -0.000000
vn 0.000000 1.000000 -0.000000
vn 0.000000 1.000000 0.000000
vn 0.000000 1.000000 0.000000
vn 0.000000 1.000000 0.000000
vn 0.000000 1.000000 0.000000
vn 0.000000 1.000000 0.000000
vn 0.000000 1.000000 0.000000
vn 0.000000 1.000000 0.000000
vn 0.000000 1.000000 0.000000
vn 0.980782 0.000013 -0.195107
vn 0.980782 0.000013 -0.195107
vn 0.980786 0.000000 -0.195088
vn 0.831486 -0.000004 -0.555546
vn 0.831486 -0.000004 -0.555546
vn 0.831490 0.000000 -0.555540
vn 0.555568 -0.000000 -0.831471
vn 0.555568 -0.000000 -0.831471
vn 0.555543 0.000000 -0.831488
vn 0.181043 -0.000002 -0.983475
vn 0.181043 -0.000002 -0.983475
vn 0.181062 0.000000 -0.983472
vn 0.000000 0.000000 -1.000000
vn 0.000000 0.000000 -1.000000
vn 0.000000 0.000000 -1.000000
vn 0.000000 0.000000 -1.000000
vn 1.000000 0.000000 0.000000
vn 1.000000 0.000000 0.000000
vn 1.000000 0.000000 0.000000
vn 1.000000 0.000000 0.000000
vn 0.000000 -1.000000 0.000000
vn 0.000000 -1.000000 0.000000
vn 0.000000 -1.000000 0.000000
vn 0.000000 -1.000000 0.000000
vn 0.181043 -0.000002 -0.983475
vn 0.181043 -0.000002 -0.983475
vn 0.181042 -0.000002 -0.983475
vn 0.181043 -0.000002 -0.983475
vn 0.000000 1.000000 0.000000
vn 0.000000 1.000000 0.000000
vn 0.000000 1.000000 0.000000
vn 0.000000 1.000000 0.000000
vn -0.195604 0.000008 0.980683
vn -0.195604 0.000008 0.980683
vn -0.195607 0.000008 0.980682
vn -0.195607 0.000008 0.980682
vn 0.181043 -0.000002 -0.983475
vn 0.181042 -0.000002 -0.983475
vn 0.181055 0.000000 -0.983473
vn 0.000000 1.000000 0.000000
vn 0.000000 1.000000 0.000000
vn 0.000000 1.000000 0.000000
vn 0.000000 1.000000 0.000000
vn -0.195604 0.000008 0.980683
vn -0.195604 0.000008 0.980683
vn -0.195605 0.000000 0.980683
vn 0.000000 -1.000000 0.000000
vn 0.000000 -1.000000 0.000000
vn 0.000000 -1.000000 0.000000
vn 0.000000 -1.000000 0.000000
vn 0.555568 -0.000000 -0.831471
vn 0.555568 -0.000000 -0.831471
vn 0.555568 -0.000000 -0.831471
vn 0.555568 -0.000000 -0.831472
vn 0.000000 1.000000 0.000000
vn 0.000000 1.000000 0.000000
vn 0.000000 1.000000 0.000000
vn 0.000000 1.000000 0.000000
vn -0.555563 0.000004 0.831475
vn -0.555563 0.000004 0.831475
vn -0.555564 0.000004 0.831474
vn -0.555564 0.000004 0.831474
vn 0.555568 -0.000000 -0.831472
vn 0.555568 -0.000000 -0.831471
vn 0.555542 0.000000 -0.831488
vn 0.000000 1.000000 -0.000000
vn 0.000000 1.000000 -0.000000
vn 0.000000 1.000000 -0.000000
vn 0.000000 1.000000 -0.000000
vn -0.555563 0.000004 0.831475
vn -0.555563 0.000004 0.831475
vn -0.555544 0.000000 0.831487
vn 0.000000 -1.000000 0.000000
vn 0.000000 -1.000000 0.000000
vn 0.000000 -1.000000 0.000000
vn 0.000000 -1.000000 0.000000
vn 0.831486 -0.000004 -0.555546
vn 0.831486 -0.000004 -0.555546
vn 0.831485 -0.000004 -0.555547
vn 0.831485 -0.000004 -0.555547
vn 0.000000 1.000000 0.000000
vn 0.000000 1.000000 0.000000
vn 0.000000 1.000000 0.000000
vn 0.000000 1.000000 0.000000
vn -0.831473 -0.000003 0.555565
vn -0.831473 -0.000003 0.555565
vn -0.831473 -0.000003 0.555565
vn -0.831473 -0.000003 0.555566
vn 0.831485 -0.000004 -0.555547
vn 0.831485 -0.000004 -0.555547
vn 0.831479 0.000000 -0.555556
vn 0.000000 1.000000 0.000000
vn 0.000000 1.000000 0.000000
vn 0.000000 1.000000 0.000000
vn 0.000000 1.000000 0.000000
vn -0.831473 -0.000003 0.555565
vn -0.831473 -0.000003 0.555565
vn -0.831471 0.000000 0.555568
vn 0.000000 -1.000000 0.000000
vn 0.000000 -1.000000 0.000000
vn 0.000000 -1.000000 0.000000
vn 0.000000 -1.000000 0.000000
vn 0.980782 0.000013 -0.195107
vn 0.980782 0.000013 -0.195107
vn 0.980783 0.000013 -0.195104
vn 0.980783 0.000013 -0.195102
vn 0.000000 1.000000 -0.000000
vn 0.000000 1.000000 -0.000000
vn 0.000000 1.000000 -0.000000
vn 0.000000 1.000000 -0.000000
vn -0.980782 0.000011 0.195108
vn -0.980782 0.000011 0.195108
vn -0.980782 0.000011 0.195105
vn -0.980783 0.000011 0.195104
vn 0.980783 0.000013 -0.195102
vn 0.980783 0.000013 -0.195104
vn 0.980797 0.000000 -0.195029
vn 0.000000 1.000000 0.000000
vn 0.000000 1.000000 0.000000
vn 0.000000 1.000000 0.000000
vn 0.000000 1.000000 0.000000
vn -0.980782 0.000011 0.195108
vn -0.980782 0.000011 0.195108
vn -0.980787 0.000000 0.195084
vn -0.958069 0.000000 -0.286537
vn -0.958069 0.000000 -0.286537
vn -0.958069 0.000000 -0.286537
vn -0.958069 0.000000 -0.286537
vn -0.195595 0.000000 0.980685
vn -0.195595 0.000000 0.980685
vn -0.195595 0.000000 0.980685
vn -0.195595 0.000000 0.980685
vn 0.995510 0.000000 0.094662
vn 0.995510 0.000000 0.094662
vn 0.995510 0.000000 0.094662
vn 0.995510 0.000000 0.094662
vn 0.181033 0.000000 -0.983477
vn 0.181033 0.000000 -0.983477
vn 0.181033 0.000000 -0.983477
vn 0.181033 0.000000 -0.983477
vn -0.773242 0.000000 -0.634111
vn -0.773242 0.000000 -0.634111
vn -0.773242 0.000000 -0.634111
vn -0.773242 0.000000 -0.634111
vn -0.555571 0.000000 0.831469
vn -0.555571 0.000000 0.831469
vn -0.555571 0.000000 0.831469
vn -0.555571 0.000000 0.831469
vn 0.882479 0.000000 0.470352
vn 0.882479 0.000000 0.470352
vn 0.882479 0.000000 0.470352
vn 0.882479 0.000000 0.470352
vn 0.555584 0.000000 -0.831460
vn 0.555584 0.000000 -0.831460
vn 0.555584 0.000000 -0.831460
vn 0.555584 0.000000 -0.831460
vn -0.471627 0.000000 -0.881798
vn -0.471627 0.000000 -0.881798
vn -0.471627 0.000000 -0.881798
vn -0.471627 0.000000 -0.881798
vn -0.831477 0.000000 0.555560
vn -0.831477 0.000000 0.555560
vn -0.831477 0.000000 0.555560
vn -0.831477 0.000000 0.555560
vn 0.635168 0.000000 0.772374
vn 0.635168 0.000000 0.772374
vn 0.635168 0.000000 0.772374
vn 0.635168 0.000000 0.772374
vn 0.831486 0.000000 -0.555545
vn 0.831486 0.000000 -0.555545
vn 0.831486 0.000000 -0.555545
vn 0.831486 0.000000 -0.555545
vn -0.098767 0.000000 -0.995111
vn -0.098767 0.000000 -0.995111
vn -0.098767 0.000000 -0.995111
vn -0.098767 0.000000 -0.995111
vn -0.980776 0.000000 0.195135
vn -0.980776 0.000000 0.195135
vn -0.980776 0.000000 0.195135
vn -0.980776 0.000000 0.195135
vn 0.291208 0.000000 0.956660
vn 0.291208 0.000000 0.956660
vn 0.291208 0.000000 0.956660
vn 0.291208 0.000000 0.956660
vn 0.980777 0.000000 -0.195134
vn 0.980777 0.000000 -0.195134
vn 0.980777 0.000000 -0.195134
vn 0.980777 0.000000 -0.195134
s off
f 34/1/1 2/2/2 7/3/3
f 30/4/4 3/5/5 8/6/6
f 26/7/7 4/8/8 9/9/9
f 22/10/10 5/11/11 10/12/12
f 33/53/13 34/54/14 7/55/15 17/56/16
f 29/57/17 30/58/18 8/59/19 18/60/20
f 25/61/21 26/62/22 9/63/23 19/64/24
f 21/65/25 22/66/26 10/67/27 20/68/28
f 12/21/29 33/13/30 17/14/31
f 13/22/32 29/15/33 18/16/34
f 14/23/35 25/17/36 19/18/37
f 15/24/38 21/19/39 20/20/40
f 6/69/41 16/70/42 11/71/43 1/72/44
f 10/67/45 5/73/46 15/74/47 20/68/48
f 15/74/49 5/73/50 4/75/51 14/76/52
f 21/19/53 15/24/54 14/23/55 23/29/56
f 37/77/57 38/78/58 39/79/59 40/80/60
f 24/34/61 4/8/62 5/11/63 22/10/64
f 23/29/65 14/23/66 19/18/67
f 9/63/68 24/81/69 23/82/70 19/64/71
f 4/8/72 24/34/73 9/9/74
f 14/76/75 4/75/76 3/83/77 13/84/78
f 25/17/79 14/23/80 13/22/81 27/35/82
f 41/85/83 42/86/84 43/87/85 44/88/86
f 28/40/87 3/5/88 4/8/89 26/7/90
f 27/35/91 13/22/92 18/16/93
f 8/59/94 28/89/95 27/90/96 18/60/97
f 3/5/98 28/40/99 8/6/100
f 13/84/101 3/83/102 2/91/103 12/92/104
f 29/15/105 13/22/106 12/21/107 31/41/108
f 45/93/109 46/94/110 47/95/111 48/96/112
f 32/46/113 2/2/114 3/5/115 30/4/116
f 31/41/117 12/21/118 17/14/119
f 7/55/120 32/97/121 31/98/122 17/56/123
f 2/2/124 32/46/125 7/3/126
f 12/92/127 2/91/128 1/72/129 11/71/130
f 33/13/131 12/21/132 11/27/133 35/47/134
f 49/99/135 50/100/136 51/101/137 52/102/138
f 36/52/139 1/28/140 2/2/141 34/1/142
f 35/47/143 11/27/144 16/26/145
f 6/69/146 36/103/147 35/104/148 16/70/149
f 1/28/150 36/52/151 6/25/152
f 23/82/153 24/81/154 38/78/155 37/77/156
f 24/34/157 22/10/158 39/32/159 38/31/160
f 22/66/161 21/65/162 40/80/163 39/79/164
f 21/19/165 23/29/166 37/30/167 40/33/168
f 27/90/169 28/89/170 42/86/171 41/85/172
f 28/40/173 26/7/174 43/38/175 42/37/176
f 26/62/177 25/61/178 44/88/179 43/87/180
f 25/17/181 27/35/182 41/36/183 44/39/184
f 31/98/185 32/97/186 46/94/187 45/93/188
f 32/46/189 30/4/190 47/44/191 46/43/192
f 30/58/193 29/57/194 48/96/195 47/95/196
f 29/15/197 31/41/198 45/42/199 48/45/200
f 35/104/201 36/103/202 50/100/203 49/99/204
f 36/52/205 34/1/206 51/50/207 50/49/208
f 34/54/209 33/53/210 52/102/211 51/101/212
f 33/13/213 35/47/214 49/48/215 52/51/216
