# This file uses centimeters as units for non-parametric coordinates.

v -30.543945 0.000000 5.435547
v -30.543945 55.010925 5.435547
v 30.541992 55.010925 5.435547
v 30.541992 0.000000 5.435547
v -30.543945 253.850159 -116.666016
v 30.541992 253.850159 -116.666016
v -30.543945 0.000000 -16.394531
v 30.541992 0.000000 -16.394531
v -30.543945 233.183960 -374.998047
v 30.541992 233.183960 -374.998047
v -30.543945 253.850159 -374.998047
v 30.541992 253.850159 -374.998047
v -30.543945 24.718140 -16.394531
v 30.541992 24.718140 -16.394531
v 30.541992 0.000000 -374.998047
v 30.541992 24.718140 -374.998047
v -30.543945 24.718140 -374.998047
v -30.543945 0.000000 -374.998047
v -9.752930 39.470947 -43.701172
v 9.752930 39.470947 -43.701172
v 9.752930 223.079712 -374.998047
v -9.752930 223.079712 -374.998047
v -9.752930 39.470947 -374.998047
v 9.752930 39.470947 -374.998047
v 9.752930 223.079773 -146.316406
v 30.541992 233.184021 -132.376953
v -9.752930 223.079773 -146.316406
v -30.543945 233.184021 -132.376953
v 9.752930 54.774353 -66.425781
v 9.752930 54.774353 -357.587891
v 9.752930 207.776367 -156.476563
v 9.752930 207.776306 -357.587891
v -9.752930 207.776306 -357.587891
v -9.752930 54.774353 -357.587891
v -9.752930 207.776367 -156.474609
v -9.752930 54.774353 -66.425781
vt 0.487358 0.180320
vt 0.487839 0.180943
vt 0.487849 0.180889
vt 0.487356 0.180270
vt 0.487212 0.180313
vt 0.487661 0.180976
vt 0.487655 0.181030
vt 0.487216 0.180363
vt 0.487302 0.180324
vt 0.487732 0.180912
vt 0.487792 0.180884
vt 0.487350 0.180310
vt 0.487875 0.180382
vt 0.487801 0.180408
vt 0.487761 0.180801
vt 0.487387 0.180325
vt 0.487500 0.180030
vt 0.487520 0.180099
vt 0.487820 0.180390
vt 0.487700 0.180827
vt 0.487749 0.180415
vt 0.487437 0.180046
vt 0.487459 0.180115
vt 0.487337 0.180341
vt 0.017041 0.046784
vt 0.017326 0.046784
vt 0.017675 0.047035
vt 0.017041 0.047035
vt 0.019727 0.045448
vt 0.019965 0.045629
vt 0.019727 0.042653
vt 0.019965 0.042653
vt 0.022933 0.044059
vt 0.022695 0.047035
vt 0.022695 0.044240
vt 0.022933 0.047035
vt 0.020294 0.042904
vt 0.020643 0.042653
vt 0.020009 0.042904
vt 0.020009 0.042653
vt 0.022990 0.042653
vt 0.023693 0.042653
vt 0.023693 0.045629
vt 0.022990 0.045629
vt 0.022246 0.047767
vt 0.021994 0.047767
vt 0.021994 0.047064
vt 0.022246 0.047064
vt 0.023139 0.045657
vt 0.023378 0.045657
vt 0.023378 0.048291
vt 0.023139 0.048452
vt 0.023095 0.049858
vt 0.022856 0.049698
vt 0.022856 0.047064
vt 0.023095 0.047064
vt 0.024126 0.045657
vt 0.024126 0.046291
vt 0.023422 0.046291
vt 0.023422 0.045657
vt 0.024126 0.048581
vt 0.023422 0.048581
vt 0.022812 0.049465
vt 0.022573 0.049295
vt 0.022573 0.047180
vt 0.022812 0.047064
vt 0.021834 0.047767
vt 0.021596 0.047767
vt 0.021951 0.047528
vt 0.021596 0.047064
vt 0.021951 0.047303
vt 0.021834 0.047064
vt 0.022289 0.047064
vt 0.022529 0.047180
vt 0.022529 0.049295
vt 0.022289 0.049465
vn 0.000000 1.000000 0.000000
vn 0.000000 1.000000 0.000000
vn 0.000000 1.000000 0.000000
vn 0.000000 1.000000 0.000000
vn 0.000000 0.000000 1.000000
vn 0.000000 0.000000 1.000000
vn 0.000000 0.000000 1.000000
vn 0.000000 0.000000 1.000000
vn 0.000000 0.523286 0.852157
vn 0.000000 0.523286 0.852157
vn 0.000000 0.523286 0.852157
vn 0.000000 0.523286 0.852157
vn 1.000000 0.000000 0.000000
vn 1.000000 0.000000 0.000000
vn 1.000000 0.000000 0.000000
vn 1.000000 0.000000 0.000000
vn 0.000000 -1.000000 0.000000
vn 0.000000 -1.000000 0.000000
vn 0.000000 -1.000000 0.000000
vn 0.000000 -1.000000 0.000000
vn -1.000000 0.000000 0.000000
vn -1.000000 0.000000 0.000000
vn -1.000000 0.000000 0.000000
vn 1.000000 0.000000 0.000000
vn 1.000000 0.000000 0.000000
vn 1.000000 -0.000000 0.000000
vn 1.000000 -0.000000 0.000000
vn 1.000000 0.000000 0.000000
vn 1.000000 0.000000 0.000000
vn 1.000000 0.000000 0.000000
vn -1.000000 0.000000 0.000000
vn -1.000000 0.000000 0.000000
vn -1.000000 0.000000 0.000000
vn -1.000000 0.000000 0.000000
vn -1.000000 0.000000 0.000000
vn -1.000000 0.000000 0.000000
vn -1.000000 0.000000 0.000000
vn 1.000000 0.000000 0.000000
vn 1.000000 0.000000 0.000000
vn 1.000000 0.000000 0.000000
vn 1.000000 0.000000 0.000000
vn -1.000000 0.000000 0.000000
vn -1.000000 0.000000 0.000000
vn -1.000000 0.000000 0.000000
vn -1.000000 0.000000 0.000000
vn 0.000000 -1.000000 0.000000
vn 0.000000 -1.000000 0.000000
vn 0.000000 -1.000000 0.000000
vn 0.000000 -1.000000 0.000000
vn 0.630359 -0.378035 -0.678039
vn 0.630359 -0.378034 -0.678039
vn 0.585333 -0.732116 -0.348412
vn 0.614884 -0.639282 -0.461776
vn 0.000000 0.000000 -1.000000
vn 0.000000 0.000000 -1.000000
vn 0.000000 0.000000 -1.000000
vn -0.437105 -0.899410 0.000000
vn -0.437105 -0.899410 0.000000
vn -0.585297 -0.732138 -0.348426
vn -0.614847 -0.639309 -0.461787
vn -0.578692 0.815546 0.000000
vn -0.578692 0.815546 0.000000
vn -0.578692 0.815546 0.000000
vn -0.578692 0.815546 0.000000
vn -0.000004 0.000000 -1.000000
vn -0.000004 0.000000 -1.000000
vn -0.000004 0.000000 -1.000000
vn 0.578728 0.815520 0.000000
vn 0.578728 0.815520 0.000000
vn 0.578728 0.815521 0.000000
vn 0.578728 0.815521 0.000000
vn 0.000000 0.000000 -1.000000
vn 0.000000 0.000000 -1.000000
vn 0.000000 0.000000 -1.000000
vn 0.000000 0.000000 -1.000000
vn 0.000000 0.000000 -1.000000
vn 0.000000 0.000000 -1.000000
vn 0.000000 0.000000 -1.000000
vn 0.000000 0.000000 -1.000000
vn 0.000000 0.000000 -1.000000
vn 0.000000 0.000000 -1.000000
vn 0.000000 0.000000 -1.000000
vn 0.000002 0.000000 -1.000000
vn 0.000002 0.000000 -1.000000
vn 0.000002 0.000000 -1.000000
vn 0.000000 0.000000 -1.000000
vn 0.000000 0.000000 -1.000000
vn 0.000000 0.000000 -1.000000
vn 0.000000 0.000000 -1.000000
vn 0.614884 -0.639282 -0.461776
vn 0.585333 -0.732116 -0.348412
vn 0.437139 -0.899394 0.000000
vn 0.437139 -0.899394 0.000000
vn 1.000000 -0.000000 0.000000
vn 1.000000 -0.000000 0.000000
vn 1.000000 -0.000000 0.000000
vn -0.614847 -0.639309 -0.461787
vn -0.585297 -0.732138 -0.348426
vn -0.630324 -0.378049 -0.678064
vn -0.630324 -0.378049 -0.678064
vn -1.000000 0.000000 0.000000
vn -1.000000 0.000000 0.000000
vn -1.000000 0.000000 0.000000
vn -1.000000 0.000000 0.000000
vn 1.000000 0.000000 0.000000
vn 1.000000 0.000000 0.000000
vn 1.000000 0.000000 0.000000
vn 1.000000 0.000000 0.000000
vn 1.000000 -0.000000 0.000000
vn 1.000000 -0.000000 0.000000
vn 1.000000 -0.000000 0.000000
vn 1.000000 -0.000000 0.000000
vn 1.000000 0.000000 0.000000
vn 1.000000 0.000000 0.000000
vn 1.000000 0.000000 0.000000
vn 1.000000 0.000000 0.000000
vn 1.000000 0.000000 0.000000
vn 1.000000 0.000000 0.000000
vn 1.000000 0.000000 0.000000
vn 1.000000 0.000000 0.000000
vn -1.000000 0.000000 0.000000
vn -1.000000 0.000000 0.000000
vn -1.000000 0.000000 0.000000
vn -1.000000 0.000000 0.000000
vn -1.000000 0.000000 0.000000
vn -1.000000 0.000000 0.000000
vn -1.000000 0.000000 0.000000
vn -1.000000 0.000000 0.000000
vn -1.000000 0.000000 0.000000
vn -1.000000 0.000000 0.000000
vn -1.000000 0.000000 0.000000
vn -1.000000 0.000000 0.000000
vn -1.000000 -0.000000 0.000000
vn -1.000000 -0.000000 0.000000
vn -1.000000 -0.000000 0.000000
vn -1.000000 -0.000000 0.000000
vn 0.000000 1.000000 0.000000
vn 0.000000 1.000000 0.000000
vn 0.000000 1.000000 0.000000
vn 0.000000 1.000000 0.000000
vn -0.000043 -0.507223 -0.861815
vn -0.000043 -0.507224 -0.861815
vn -0.000043 -0.507224 -0.861815
vn -0.000043 -0.507224 -0.861814
vn 0.000000 0.000000 1.000000
vn 0.000000 0.000000 1.000000
vn 0.000000 0.000000 1.000000
vn 0.000000 0.000000 1.000000
vn 0.000000 -1.000000 0.000000
vn 0.000000 -1.000000 0.000000
vn 0.000000 -1.000000 0.000000
vn 0.000000 -1.000000 0.000000
s off
f 5/41/1 6/42/2 12/43/3 11/44/4
f 4/57/5 3/58/6 2/59/7 1/60/8
f 3/58/9 6/61/10 5/62/11 2/59/12
f 8/25/13 14/26/14 3/27/15 4/28/16
f 1/45/17 7/46/18 8/47/19 4/48/20
f 5/33/21 9/34/22 28/35/23
f 3/27/24 14/26/25 26/29/26 6/30/27
f 6/30/28 10/31/29 12/32/30
f 9/34/31 5/33/32 11/36/33
f 7/39/34 1/40/35 2/38/36 13/37/37
f 8/1/38 15/2/39 16/3/40 14/4/41
f 13/5/42 17/6/43 18/7/44 7/8/45
f 7/8/46 18/7/47 15/2/48 8/1/49
f 14/63/50 20/64/51 25/65/52 26/66/53
f 9/67/54 11/68/55 22/69/56
f 9/49/57 22/50/58 27/51/59 28/52/60
f 13/5/61 19/9/62 23/10/63 17/6/64
f 18/7/65 17/6/66 23/10/67
f 16/3/68 24/11/69 20/12/70 14/4/71
f 21/13/72 24/11/73 23/10/74 22/14/75
f 11/68/76 12/70/77 21/71/78 22/69/79
f 12/70/80 10/72/81 21/71/82
f 16/3/83 15/2/84 24/11/85
f 15/2/86 18/7/87 23/10/88 24/11/89
f 26/53/90 25/54/91 21/55/92 10/56/93
f 6/30/94 26/29/95 10/31/96
f 28/73/97 27/74/98 19/75/99 13/76/100
f 5/33/101 28/35/102 13/37/103 2/38/104
f 20/12/105 24/11/106 30/15/107 29/16/108
f 25/17/109 20/12/110 29/16/111 31/18/112
f 24/11/113 21/13/114 32/19/115 30/15/116
f 21/13/117 25/17/118 31/18/119 32/19/120
f 22/14/121 23/10/122 34/20/123 33/21/124
f 27/22/125 22/14/126 33/21/127 35/23/128
f 23/10/129 19/9/130 36/24/131 34/20/132
f 19/9/133 27/22/134 35/23/135 36/24/136
f 29/16/137 30/15/138 34/20/139 36/24/140
f 31/18/141 29/16/142 36/24/143 35/23/144
f 30/15/145 32/19/146 33/21/147 34/20/148
f 32/19/149 31/18/150 35/23/151 33/21/152
