# This file uses centimeters as units for non-parametric coordinates.

v 124.999969 7.425657 110.093994
v 124.999969 7.425657 125.940552
v 124.999969 -7.425704 110.093994
v 124.999969 -7.425704 125.940552
v 0.000000 7.425657 125.000000
v 0.000000 7.425657 111.034546
v 0.000000 -7.425704 111.034546
v 0.000000 -7.425699 119.441528
v 47.526093 7.425657 125.000000
v 83.283264 7.425657 125.000000
v 71.963379 4.400330 125.000610
v 72.252319 7.425657 121.424561
v 0.000000 -5.153632 125.000610
v 36.366653 -7.425704 125.000000
v 75.115479 -2.111773 15.438843
v 75.115479 1.138917 15.438843
v 96.040466 2.789078 15.438843
v 98.341034 -2.111773 15.438843
v 98.341034 1.138917 15.438843
v 122.623718 -3.629891 15.438843
v 122.623718 4.606026 15.438843
v 100.952911 -3.629891 15.438843
v 100.952911 4.606026 15.438843
v 76.275246 -4.144766 15.438843
v 76.275246 2.809072 15.438843
v 96.040466 -4.135260 15.438843
v 21.463699 2.789078 15.438843
v 50.353928 -2.111773 15.438843
v 50.353928 1.138917 15.438843
v 23.764343 -2.111773 15.438843
v 23.764343 1.138917 15.438843
v 52.905884 -4.631639 15.438843
v 48.046951 -3.629891 15.438843
v 48.046951 4.606026 15.438843
v 26.376114 -3.629891 15.438843
v 26.376114 4.606026 15.438843
v 1.698456 -4.144766 15.438843
v 73.348846 2.302065 15.438843
v 1.698456 2.809072 15.438843
v 73.348846 -4.564446 15.439453
v 52.905884 2.359893 15.438843
v 21.463699 -4.135260 15.438843
v 0.000000 -7.425656 15.846558
v 0.000000 -7.425656 0.000000
v 124.999969 -7.425656 15.846558
v 124.999969 -7.425656 0.000000
v 124.999969 7.425704 15.846558
v 124.999969 7.425704 0.000000
v 0.000000 7.425704 15.846558
v 0.000000 7.425704 0.000000
v 88.702477 7.425704 15.846558
v 50.881729 7.425704 15.846558
v 74.449547 3.057565 15.846558
v 75.329369 7.425704 11.231689
v 122.623718 4.409096 111.113892
v 100.952911 4.409096 111.113892
v 98.341034 1.138914 111.113892
v 96.040466 2.905524 111.113892
v 76.275246 2.913430 111.113892
v 75.115479 1.138914 111.113892
v 73.348846 2.715010 111.113892
v 52.905884 2.737560 111.113892
v 50.353928 1.138914 111.113892
v 48.046951 4.409096 111.113892
v 26.376114 4.409096 111.113892
v 23.764343 1.138914 111.113892
v 21.463699 2.905524 111.113892
v 1.698456 2.913430 111.113892
v 1.698456 -4.028318 111.113892
v 21.463699 -4.024598 111.113892
v 23.764343 -2.111779 111.113892
v 26.376114 -3.826818 111.113892
v 48.046951 -3.826818 111.113892
v 50.353928 -2.111779 111.113892
v 52.905884 -4.218778 111.113892
v 73.348846 -4.192563 111.113892
v 75.115479 -2.111779 111.113892
v 76.275246 -4.028318 111.113892
v 96.040466 -4.024598 111.113892
v 98.341034 -2.111779 111.113892
v 100.952911 -3.826818 111.113892
v 122.623718 -3.826818 111.113892
v 110.296478 6.644664 1.391602
v 126.211395 6.644664 1.391602
v 110.296478 -6.644706 1.391602
v 126.211395 -6.644706 1.391602
v 125.266876 6.644664 123.608398
v 111.241302 6.644664 123.608398
v 111.241302 -6.644706 123.608398
v 119.684296 -6.644701 123.608398
v 125.267487 -4.611598 123.608398
v 125.266876 -6.644706 88.051147
v 15.643158 -6.644663 123.608398
v -0.271759 -6.644664 123.608398
v 15.643158 -6.644663 1.391602
v -0.271759 -6.644664 1.391602
v 15.643158 6.644706 1.391602
v -0.271759 6.644706 1.391602
v 15.643158 6.644706 123.608398
v -0.271759 6.644706 123.608398
vt 0.496057 0.152314
vt 0.496057 0.152314
vt 0.496057 0.152314
vt 0.496057 0.152314
vt 0.496057 0.152314
vt 0.496057 0.152314
vt 0.496057 0.152314
vt 0.496057 0.152314
vt 0.496057 0.152314
vt 0.496057 0.152314
vt 0.496057 0.152314
vt 0.496057 0.152314
vt 0.496057 0.152314
vt 0.496057 0.152314
vt 0.496057 0.152314
vt 0.496057 0.152314
vt 0.496057 0.152314
vt 0.496057 0.152314
vt 0.496057 0.152314
vt 0.488358 0.179633
vt 0.488111 0.179600
vt 0.488659 0.154125
vt 0.488426 0.154048
vt 0.488415 0.154121
vt 0.488662 0.154054
vt 0.488396 0.154074
vt 0.488391 0.154086
vt 0.488126 0.179574
vt 0.488396 0.179594
vt 0.488368 0.179606
vt 0.488391 0.179606
vt 0.488674 0.154110
vt 0.488672 0.154123
vt 0.488358 0.179633
vt 0.488111 0.179600
vt 0.488659 0.154125
vt 0.488426 0.154048
vt 0.488415 0.154121
vt 0.488662 0.154054
vt 0.488055 0.153996
vt 0.488089 0.154047
vt 0.488096 0.154035
vt 0.488073 0.154047
vt 0.488396 0.154074
vt 0.488391 0.154086
vt 0.487838 0.154043
vt 0.487852 0.153933
vt 0.488089 0.179566
vt 0.488126 0.179574
vt 0.488096 0.179555
vt 0.488396 0.179594
vt 0.488368 0.179606
vt 0.488391 0.179606
vt 0.487823 0.154012
vt 0.487833 0.154000
vt 0.496466 0.154371
vt 0.496494 0.154403
vt 0.496331 0.154404
vt 0.496334 0.154445
vt 0.496338 0.154399
vt 0.496336 0.154359
vt 0.496390 0.154357
vt 0.496495 0.154360
vt 0.496494 0.154320
vt 0.496389 0.154358
vt 0.496438 0.154333
vt 0.496381 0.154348
vt 0.488099 0.179049
vt 0.488370 0.179068
vt 0.488407 0.153557
vt 0.488407 0.179077
vt 0.488434 0.153553
vt 0.488702 0.153534
vt 0.488715 0.153580
vt 0.487787 0.153511
vt 0.487800 0.153507
vt 0.488039 0.153494
vt 0.488076 0.153532
vt 0.488076 0.179052
vt 0.488099 0.179049
vt 0.488370 0.179068
vt 0.488407 0.153557
vt 0.488407 0.179077
vt 0.488434 0.153553
vt 0.488702 0.153534
vt 0.488703 0.153555
vt 0.488444 0.153519
vt 0.488411 0.153549
vt 0.488411 0.179069
vt 0.488381 0.179052
vt 0.488115 0.179033
vt 0.488084 0.153525
vt 0.488084 0.179045
vt 0.488058 0.153509
vt 0.487821 0.153459
vt 0.488717 0.153571
vt 0.487798 0.153504
vt 0.488703 0.153555
vt 0.488444 0.153519
vt 0.488411 0.153549
vt 0.488411 0.179069
vt 0.488381 0.179052
vt 0.488115 0.179033
vt 0.496057 0.152314
vt 0.496057 0.152314
vt 0.496057 0.152314
vt 0.496057 0.152314
vt 0.496057 0.152314
vt 0.496057 0.152314
vt 0.496057 0.152314
vt 0.496057 0.152314
vt 0.496057 0.152314
vt 0.496057 0.152314
vt 0.496057 0.152314
vt 0.496057 0.152314
vt 0.496057 0.152314
vt 0.496057 0.152314
vt 0.496057 0.152314
vt 0.496331 0.154404
vt 0.496334 0.154445
vt 0.496338 0.154399
vt 0.496336 0.154359
vt 0.496495 0.154360
vt 0.496494 0.154320
vt 0.496494 0.154403
vt 0.496466 0.154371
vn 1.000000 0.000000 0.000000
vn 1.000000 0.000000 0.000000
vn 1.000000 0.000000 0.000000
vn 1.000000 0.000000 0.000000
vn 0.000000 1.000000 0.000000
vn 0.000000 1.000000 0.000000
vn 0.000000 1.000000 0.000000
vn 0.000000 1.000000 0.000000
vn -0.007524 0.000000 -0.999972
vn -0.007524 0.000000 -0.999972
vn -0.007524 0.000000 -0.999972
vn -0.007524 0.000000 -0.999972
vn -0.000000 -1.000000 0.000000
vn -0.000000 -1.000000 0.000000
vn -0.000000 -1.000000 0.000000
vn -0.000000 -1.000000 0.000000
vn -0.000000 -1.000000 0.000000
vn -0.010606 0.031872 0.999436
vn -0.010606 0.031872 0.999436
vn -0.010606 0.031872 0.999436
vn -0.201934 0.755702 0.623007
vn -0.201934 0.755702 0.623007
vn -0.201934 0.755702 0.623006
vn 0.093620 0.756350 0.647434
vn 0.093620 0.756350 0.647434
vn 0.093620 0.756350 0.647434
vn -0.057730 -0.924126 0.377702
vn -0.057730 -0.924126 0.377702
vn -0.057730 -0.924126 0.377702
vn 0.000000 1.000000 0.000000
vn 0.000000 1.000000 0.000000
vn 0.000000 1.000000 0.000000
vn 0.000000 1.000000 0.000000
vn 0.000000 1.000000 -0.000000
vn 0.000000 1.000000 -0.000000
vn 0.000000 1.000000 -0.000000
vn -0.018384 0.011675 0.999763
vn -0.018384 0.011675 0.999763
vn -0.018384 0.011675 0.999763
vn -0.018384 0.011675 0.999763
vn -0.000000 0.000019 1.000000
vn -0.000000 0.000019 1.000000
vn -0.000000 0.000019 1.000000
vn -0.000000 0.000019 1.000000
vn -0.000000 0.000019 1.000000
vn 1.000000 0.000000 0.000000
vn 1.000000 0.000000 0.000000
vn 1.000000 0.000000 0.000000
vn 1.000000 0.000000 0.000000
vn 0.000000 1.000000 0.000000
vn 0.000000 1.000000 0.000000
vn 0.000000 1.000000 0.000000
vn -1.000000 0.000000 0.000000
vn -1.000000 0.000000 0.000000
vn -1.000000 0.000000 0.000000
vn -1.000000 0.000000 0.000000
vn 0.000000 0.000000 -1.000000
vn 0.000000 0.000000 -1.000000
vn 0.000000 0.000000 -1.000000
vn 0.000000 0.000000 -1.000000
vn 0.000000 0.000000 1.000000
vn 0.000000 0.000000 1.000000
vn 0.000000 0.000000 1.000000
vn 0.131109 0.707386 0.694562
vn 0.131109 0.707386 0.694562
vn 0.131109 0.707386 0.694562
vn -0.223360 0.728810 0.647261
vn -0.223360 0.728810 0.647261
vn -0.223360 0.728810 0.647261
vn 0.000000 -1.000000 0.000000
vn 0.000000 -1.000000 0.000000
vn 0.000000 -1.000000 0.000000
vn 0.000000 -1.000000 0.000000
vn 0.000000 0.000000 1.000000
vn 0.000000 0.000000 1.000000
vn 0.000000 0.000000 1.000000
vn 0.000000 0.000000 1.000000
vn 0.000000 0.000000 1.000000
vn 0.000000 0.000000 1.000000
vn 0.000000 0.000000 1.000000
vn 0.000000 0.000000 1.000000
vn 0.000000 1.000000 -0.000000
vn 0.000000 1.000000 -0.000000
vn 0.000000 1.000000 -0.000000
vn 0.000000 1.000000 -0.000000
vn 0.000000 1.000000 0.000000
vn 0.000000 1.000000 0.000000
vn 0.000000 1.000000 0.000000
vn 0.000000 1.000000 0.000000
vn 0.000000 0.999998 0.002058
vn 0.000000 0.999998 0.002058
vn 0.000000 0.999998 0.002058
vn 0.000000 0.999998 0.002058
vn -0.790281 0.612744 0.000631
vn -0.790281 0.612744 0.000631
vn -0.790281 0.612744 0.000631
vn -0.790281 0.612744 0.000631
vn 0.596188 0.802845 -0.000489
vn 0.596188 0.802845 -0.000489
vn 0.596188 0.802845 -0.000489
vn 0.596188 0.802845 -0.000489
vn 0.000706 0.999999 -0.001154
vn 0.000706 0.999999 -0.001154
vn 0.000706 0.999999 -0.001154
vn 0.000706 0.999999 -0.001154
vn -0.829476 0.558542 -0.000305
vn -0.829476 0.558542 -0.000305
vn -0.829476 0.558542 -0.000305
vn -0.829476 0.558542 -0.000305
vn 0.612705 0.790310 -0.001706
vn 0.612705 0.790310 -0.001706
vn 0.612705 0.790310 -0.001706
vn 0.612705 0.790310 -0.001706
vn 0.001966 0.999990 -0.004132
vn 0.001966 0.999990 -0.004132
vn 0.001966 0.999990 -0.004132
vn 0.001966 0.999990 -0.004132
vn -0.483559 0.875310 -0.001728
vn -0.483559 0.875310 -0.001728
vn -0.483559 0.875310 -0.001728
vn -0.483559 0.875310 -0.001728
vn 0.825066 0.565036 0.000582
vn 0.825066 0.565036 0.000582
vn 0.825066 0.565036 0.000582
vn 0.825066 0.565036 0.000582
vn 0.000000 0.999998 0.002058
vn 0.000000 0.999998 0.002058
vn 0.000000 0.999998 0.002058
vn 0.000000 0.999998 0.002058
vn -0.790294 0.612728 0.000631
vn -0.790294 0.612728 0.000631
vn -0.790294 0.612728 0.000631
vn -0.790294 0.612728 0.000631
vn 0.596175 0.802855 -0.000489
vn 0.596175 0.802855 -0.000489
vn 0.596175 0.802855 -0.000489
vn 0.596175 0.802855 -0.000489
vn 0.000706 0.999999 -0.001154
vn 0.000706 0.999999 -0.001154
vn 0.000706 0.999999 -0.001154
vn 0.000706 0.999999 -0.001154
vn 0.000335 -0.999999 0.001187
vn 0.000335 -0.999999 0.001187
vn 0.000335 -0.999999 0.001187
vn 0.000335 -0.999999 0.001187
vn 0.650062 -0.759881 0.000439
vn 0.650062 -0.759881 0.000439
vn 0.650062 -0.759881 0.000439
vn 0.650062 -0.759881 0.000439
vn -0.526300 -0.850298 -0.000875
vn -0.526300 -0.850298 -0.000875
vn -0.526300 -0.850298 -0.000875
vn -0.526300 -0.850298 -0.000875
vn 0.000000 -0.999998 -0.002058
vn 0.000000 -0.999998 -0.002058
vn 0.000000 -0.999998 -0.002058
vn 0.000000 -0.999998 -0.002058
vn 0.573867 -0.818948 -0.000843
vn 0.573867 -0.818948 -0.000843
vn 0.573867 -0.818948 -0.000843
vn 0.573867 -0.818948 -0.000843
vn -0.671633 -0.740882 0.001599
vn -0.671633 -0.740882 0.001599
vn -0.671633 -0.740882 0.001599
vn -0.671634 -0.740882 0.001599
vn 0.002285 -0.999989 0.004101
vn 0.002285 -0.999989 0.004101
vn 0.002285 -0.999989 0.004101
vn 0.002285 -0.999989 0.004101
vn 0.788741 -0.614725 0.001195
vn 0.788741 -0.614725 0.001195
vn 0.788741 -0.614725 0.001195
vn 0.788741 -0.614725 0.001195
vn -0.862290 -0.506415 0.000308
vn -0.862290 -0.506415 0.000308
vn -0.862290 -0.506415 0.000308
vn -0.862290 -0.506416 0.000308
vn 0.000335 -0.999999 0.001187
vn 0.000335 -0.999999 0.001187
vn 0.000335 -0.999999 0.001187
vn 0.000335 -0.999999 0.001187
vn 0.650076 -0.759870 0.000439
vn 0.650075 -0.759870 0.000439
vn 0.650076 -0.759870 0.000439
vn 0.650076 -0.759870 0.000439
vn -0.526284 -0.850308 -0.000875
vn -0.526284 -0.850308 -0.000875
vn -0.526284 -0.850308 -0.000875
vn -0.526284 -0.850308 -0.000875
vn 0.000000 -0.999998 -0.002058
vn 0.000000 -0.999998 -0.002058
vn 0.000000 -0.999998 -0.002058
vn 0.000000 -0.999998 -0.002058
vn -1.000000 0.000000 0.000000
vn -1.000000 0.000000 0.000000
vn -1.000000 0.000000 0.000000
vn -1.000000 0.000000 0.000000
vn -1.000000 0.000000 0.000000
vn 0.000000 0.000000 -1.000000
vn 0.000000 0.000000 -1.000000
vn 0.000000 0.000000 -1.000000
vn 0.000000 0.000000 -1.000000
vn -0.999970 0.000000 0.007730
vn -0.999970 0.000000 0.007730
vn -0.999970 0.000000 0.007730
vn -0.999970 0.000000 0.007730
vn 0.000000 -1.000000 0.000000
vn 0.000000 -1.000000 0.000000
vn 0.000000 -1.000000 0.000000
vn 0.000000 -1.000000 0.000000
vn 0.000000 -1.000000 0.000000
vn 0.999913 -0.010567 0.007901
vn 0.999913 -0.010567 0.007901
vn 0.999913 -0.010567 0.007901
vn 0.999913 -0.010567 0.007901
vn 0.999913 -0.010567 0.007901
vn 0.341674 -0.938287 0.053644
vn 0.341674 -0.938287 0.053644
vn 0.341674 -0.938287 0.053644
vn 0.000000 1.000000 0.000000
vn 0.000000 1.000000 0.000000
vn 0.000000 1.000000 0.000000
vn 0.000000 1.000000 0.000000
vn 0.000000 0.000000 -1.000000
vn 0.000000 0.000000 -1.000000
vn 0.000000 0.000000 -1.000000
vn 0.000000 0.000000 -1.000000
vn 0.000000 1.000000 0.000000
vn 0.000000 1.000000 0.000000
vn 0.000000 1.000000 0.000000
vn 0.000000 1.000000 0.000000
vn 0.000000 0.000000 1.000000
vn 0.000000 0.000000 1.000000
vn 0.000000 0.000000 1.000000
vn 0.000000 0.000000 1.000000
vn -1.000000 0.000000 0.000000
vn -1.000000 0.000000 0.000000
vn -1.000000 0.000000 0.000000
vn -1.000000 0.000000 0.000000
vn 1.000000 0.000000 0.000000
vn 1.000000 0.000000 0.000000
vn 1.000000 0.000000 0.000000
vn 1.000000 0.000000 0.000000
vn 0.000000 -1.000000 0.000000
vn 0.000000 -1.000000 0.000000
vn 0.000000 -1.000000 0.000000
vn 0.000000 -1.000000 0.000000
vn 0.000000 0.000000 1.000000
vn 0.000000 0.000000 1.000000
vn 0.000000 0.000000 1.000000
vn 0.000000 0.000000 1.000000
vn 0.000000 0.000000 1.000000
s off
f 1/3/1 2/4/2 4/5/3 3/6/4
f 1/3/5 12/12/6 10/13/7 2/4/8
f 7/10/9 6/2/10 1/3/11 3/14/12
f 3/6/13 4/5/14 14/18/15 8/8/16 7/7/17
f 11/16/18 14/19/19 4/15/20
f 12/12/21 11/16/22 10/13/23
f 9/11/24 11/16/25 12/12/26
f 14/19/27 13/17/28 8/9/29
f 6/2/30 5/1/31 9/11/32 12/12/33
f 6/2/34 12/12/35 1/3/36
f 11/16/37 4/15/38 2/4/39 10/13/40
f 5/1/41 13/17/42 14/19/43 11/16/44 9/11/45
f 45/58/46 46/59/47 48/60/48 47/61/49
f 54/62/50 48/60/51 50/63/52
f 49/64/53 50/63/54 44/57/55 43/56/56
f 44/57/57 50/63/58 48/60/59 46/59/60
f 53/65/61 43/56/62 45/58/63
f 52/66/64 53/65/65 54/62/66
f 54/62/67 53/65/68 51/67/69
f 46/59/70 45/58/71 43/56/72 44/57/73
f 53/65/74 45/58/75 47/61/76 51/67/77
f 49/64/78 43/56/79 53/65/80 52/66/81
f 54/62/82 50/63/83 49/64/84 52/66/85
f 47/61/86 48/60/87 54/62/88 51/67/89
f 23/20/90 56/69/91 55/68/92 21/21/93
f 57/71/94 56/69/95 23/20/96 19/31/97
f 58/72/98 57/70/99 19/27/100 17/24/101
f 59/73/102 58/72/103 17/24/104 25/25/105
f 16/33/106 60/74/107 59/73/108 25/25/109
f 61/76/110 60/75/111 16/54/112 38/46/113
f 62/77/114 61/76/115 38/46/116 41/40/117
f 63/78/118 62/77/119 41/40/120 29/41/121
f 64/80/122 63/79/123 29/48/124 34/35/125
f 36/34/126 65/81/127 64/80/128 34/35/129
f 66/83/130 65/81/131 36/34/132 31/53/133
f 67/84/134 66/82/135 31/45/136 27/38/137
f 68/85/138 67/84/139 27/38/140 39/39/141
f 37/36/142 42/37/143 70/87/144 69/86/145
f 30/44/146 71/88/147 70/87/148 42/37/149
f 30/51/150 35/52/151 72/90/152 71/89/153
f 35/52/154 33/49/155 73/91/156 72/90/157
f 33/49/158 28/50/159 74/93/160 73/91/161
f 28/42/162 32/43/163 75/94/164 74/92/165
f 32/43/166 40/47/167 76/95/168 75/94/169
f 15/55/170 77/97/171 76/95/172 40/47/173
f 78/98/174 77/96/175 15/32/176 24/22/177
f 24/22/178 26/23/179 79/99/180 78/98/181
f 18/26/182 80/100/183 79/99/184 26/23/185
f 18/29/186 22/30/187 81/102/188 80/101/189
f 22/30/190 20/28/191 82/103/192 81/102/193
f 6/2/194 7/7/195 8/9/196 13/17/197 5/1/198
f 83/104/199 84/105/200 86/106/201 85/107/202
f 89/108/203 88/109/204 83/104/205 85/110/206
f 85/107/207 86/106/208 92/111/209 90/112/210 89/113/211
f 92/114/212 86/115/213 84/105/214 87/116/215 91/117/216
f 92/114/217 91/117/218 90/118/219
f 88/109/220 87/116/221 84/105/222 83/104/223
f 95/119/224 96/120/225 98/121/226 97/122/227
f 98/121/228 100/123/229 99/124/230 97/122/231
f 99/124/232 100/123/233 94/125/234 93/126/235
f 94/125/236 100/123/237 98/121/238 96/120/239
f 93/126/240 95/119/241 97/122/242 99/124/243
f 96/120/244 95/119/245 93/126/246 94/125/247
f 88/109/248 89/113/249 90/118/250 91/117/251 87/116/252
