# This file uses centimeters as units for non-parametric coordinates.

v 112.787445 -6.098863 -129.121094
v 141.614685 -15.942313 -83.022461
v -0.001831 -17.247549 -161.324463
v 44.728699 -16.428457 -156.333008
v 109.810486 11.073913 -102.382813
v 120.186462 -1.700522 -68.181152
v -0.001831 -0.460058 -143.060303
v -0.000610 3.204006 -73.869629
v 40.684509 -1.418616 -126.286621
v 150.188904 4.270548 -16.809082
v 160.796814 -17.247549 -30.104980
v 48.523865 0.369867 -63.814697
v 73.487244 1.398081 -50.230713
v 29.839783 -1.616141 -71.813965
v 76.360779 2.622751 -29.504395
v 73.867493 3.204008 -0.002441
v 143.755188 -0.460058 -0.002441
v 161.322601 -17.247549 -0.002441
v 87.106628 -11.537101 -0.129395
v -0.000305 -11.537101 -87.634277
v 38.724060 -11.153228 -46.882324
v 102.876892 6.338800 -0.002441
v 99.762878 7.224573 -5.786133
v 98.078308 8.132776 -33.942871
v 95.878601 5.930933 -62.191162
v 72.482605 5.490259 -83.101807
v 30.903015 4.025415 -108.406982
v -0.001831 6.338800 -102.878418
v 163.263855 -18.063971 -15.959473
v 150.992126 -17.934423 -64.487305
v 129.299896 -6.456834 -112.442627
v 65.779724 -18.104559 -161.962891
v 26.418152 -18.668600 -163.651123
v 120.037537 -4.160543 1.010742
v 158.879089 -5.268179 -0.002441
v 160.379333 -1.701132 -20.297852
v 149.978943 -4.555975 -67.067871
v 139.130554 -9.293220 -81.770020
v 130.033539 6.821822 -108.481445
v 105.829437 4.262542 -132.524414
v 48.883972 -9.353568 -161.671143
v 22.247009 -9.140174 -161.940918
v -0.001831 -5.268179 -158.881836
v 145.547791 -5.550161 -78.857422
v 147.217712 -13.757255 -80.146484
v 41.272888 -8.724600 -152.239990
v 41.272888 -16.895910 -152.802734
v -0.000610 8.327941 -20.473633
v 20.471802 8.327943 -0.002441
v 0.000000 0.000000 0.000000
v 93.408234 -5.663880 -139.448242
v 96.713226 -17.319992 -142.375488
v 74.086609 4.617836 -114.736328
v -0.000610 -19.873447 -107.567139
v -0.000610 -12.857456 -107.523193
v -0.000610 -19.783154 -121.593018
v -0.000610 -12.767143 -121.547852
v 121.589661 -19.783154 0.706787
v 121.544220 -12.767143 0.706787
v 107.518890 -12.857456 0.706787
v 107.564056 -19.873447 0.706787
v 121.266449 -19.783154 -103.082275
v 121.229828 -12.767143 -103.082275
v 107.518890 -12.857456 -98.371582
v 107.564056 -19.873447 -98.371582
v 102.626648 -19.783154 -121.787109
v 102.626648 -12.767143 -121.750488
v 98.449066 -12.857456 -107.523193
v 98.449066 -19.873447 -107.567139
v -0.000610 -11.537101 -87.634277
v 87.631531 -11.537101 -86.925049
v -0.000610 -0.000000 -0.002441
v 87.631531 -11.537101 0.706787
v 16.199341 -10.266658 -13.085938
v 72.837494 -18.461798 -13.085938
v 72.837494 -15.326279 -73.131104
v 16.199341 -18.461798 -73.841553
v -0.000610 -10.697229 -0.002441
v 86.922638 -22.149586 0.706787
v 74.130890 -20.465546 -11.203613
v 12.083435 -12.296611 -11.203613
v 86.922638 -22.149586 -86.925049
v 74.130890 -20.465546 -75.014648
v -0.000610 -22.149588 -86.925049
v 12.083435 -20.465546 -75.723877
v 131.038849 -20.319191 -120.517578
v 130.960052 -5.530048 -120.438232
v 90.731232 -28.592583 -80.209961
v 92.568390 -8.853813 -82.047119
v 79.915802 -28.592583 -91.025391
v 81.752960 -8.853813 -92.862549
v 120.223419 -20.319191 -131.333008
v 120.144623 -5.530048 -131.253662
v 79.917023 -28.591354 -91.026611
v 81.753510 -8.852604 -92.862549
v -11.338501 -17.055275 0.228271
v -9.500732 2.683720 -1.608887
v -0.523071 -17.055275 11.043701
v 1.314697 2.683720 9.206543
v 90.732452 -28.591354 -80.211182
v 92.568939 -8.852604 -82.047119
vt 0.048548 0.122438
vt 0.048550 0.122357
vt 0.048727 0.122370
vt 0.048689 0.122439
vt 0.048603 0.122241
vt 0.048743 0.122180
vt 0.048867 0.122245
vt 0.048763 0.122330
vt 0.048209 0.122419
vt 0.048206 0.122342
vt 0.048317 0.122367
vt 0.048289 0.122572
vt 0.048424 0.122517
vt 0.048574 0.122149
vt 0.048490 0.122257
vt 0.048413 0.122202
vt 0.048509 0.122147
vt 0.048799 0.122566
vt 0.048785 0.122544
vt 0.048913 0.122522
vt 0.048571 0.122750
vt 0.048472 0.122694
vt 0.048530 0.122646
vt 0.048633 0.122691
vt 0.048307 0.122597
vt 0.048770 0.122476
vt 0.048664 0.122483
vt 0.048408 0.122309
vt 0.048228 0.122357
vt 0.048312 0.122253
vt 0.048860 0.122628
vt 0.048197 0.122480
vt 0.048838 0.122440
vt 0.048194 0.122415
vt 0.048807 0.122297
vt 0.048481 0.122797
vt 0.048427 0.122759
vt 0.048316 0.122675
vt 0.048204 0.122418
vt 0.048245 0.122329
vt 0.048391 0.122255
vt 0.048500 0.122203
vt 0.048734 0.122661
vt 0.048561 0.122820
vt 0.048274 0.122609
vt 0.048263 0.122615
vt 0.048274 0.122571
vt 0.048350 0.122290
vt 0.048380 0.122251
vt 0.048378 0.122292
vt 0.049102 0.122310
vt 0.049118 0.122386
vt 0.049194 0.122389
vt 0.496840 0.156480
vt 0.496838 0.156425
vt 0.496787 0.156426
vt 0.496789 0.156481
vt 0.496840 0.156480
vt 0.496838 0.156425
vt 0.496787 0.156426
vt 0.496789 0.156481
vt 0.496787 0.156426
vt 0.496838 0.156425
vt 0.496840 0.156480
vt 0.496789 0.156481
vt 0.496840 0.156480
vt 0.496838 0.156425
vt 0.496787 0.156426
vt 0.496789 0.156481
vt 0.489113 0.156467
vt 0.489034 0.156627
vt 0.488352 0.156613
vt 0.488314 0.156434
vt 0.488315 0.155880
vt 0.488363 0.155934
vt 0.489205 0.156004
vt 0.489258 0.155963
vt 0.488362 0.156435
vt 0.489067 0.156463
vt 0.489113 0.156467
vt 0.488314 0.156434
vt 0.488315 0.155880
vt 0.489258 0.155963
vt 0.488372 0.155936
vt 0.489190 0.156005
vt 0.188560 0.667273
vt 0.081553 0.632609
vt 0.188560 0.632609
vt 0.081553 0.667273
vt 0.496789 0.156481
vt 0.496787 0.156426
vt 0.496807 0.155481
vt 0.496809 0.155542
vt 0.496840 0.156480
vt 0.496838 0.156425
vt 0.496879 0.155481
vt 0.496882 0.155542
vt 0.496809 0.155542
vt 0.496882 0.155542
vt 0.496879 0.155481
vt 0.496807 0.155481
vt 0.496840 0.156480
vt 0.496838 0.156425
vt 0.496787 0.156426
vt 0.496789 0.156481
vn -0.119968 0.984717 0.126256
vn -0.119968 0.984717 0.126256
vn -0.119968 0.984717 0.126256
vn -0.119968 0.984717 0.126256
vn 0.093233 0.989882 0.106966
vn 0.093233 0.989882 0.106966
vn 0.093233 0.989882 0.106966
vn 0.147132 0.976915 0.154886
vn 0.147132 0.976915 0.154886
vn 0.147132 0.976915 0.154886
vn 0.131617 0.963041 -0.235011
vn 0.131617 0.963041 -0.235011
vn 0.131617 0.963041 -0.235011
vn 0.405099 0.869423 0.282841
vn 0.405099 0.869423 0.282841
vn 0.405099 0.869423 0.282841
vn 0.405099 0.869423 0.282841
vn 0.133860 0.950804 -0.279380
vn 0.133860 0.950804 -0.279380
vn 0.133860 0.950804 -0.279380
vn 0.133860 0.950804 -0.279380
vn -0.105140 0.972968 0.205619
vn -0.105140 0.972968 0.205619
vn -0.105140 0.972968 0.205619
vn 0.408530 0.868239 0.281538
vn 0.408530 0.868239 0.281538
vn 0.408530 0.868239 0.281537
vn 0.408530 0.868239 0.281538
vn 0.202783 0.964319 -0.170202
vn 0.202783 0.964319 -0.170202
vn 0.202783 0.964319 -0.170202
vn 0.202783 0.964319 -0.170202
vn -0.237086 0.970521 -0.043343
vn -0.237086 0.970521 -0.043343
vn -0.237086 0.970521 -0.043343
vn -0.237086 0.970521 -0.043343
vn -0.104577 0.972937 -0.206051
vn -0.104577 0.972937 -0.206051
vn -0.104577 0.972937 -0.206051
vn 0.025438 0.976693 -0.213128
vn 0.025438 0.976693 -0.213128
vn 0.025438 0.976693 -0.213128
vn -0.128978 0.982885 0.131540
vn -0.128978 0.982885 0.131540
vn -0.128978 0.982885 0.131540
vn -0.128978 0.982885 0.131540
vn -0.195693 0.980661 0.002816
vn -0.195693 0.980661 0.002816
vn -0.195693 0.980661 0.002816
vn -0.195693 0.980661 0.002816
vn 0.000848 -0.007850 0.999969
vn 0.000848 -0.007850 0.999969
vn 0.000848 -0.007850 0.999969
vn 0.021131 -0.998879 -0.042360
vn 0.021131 -0.998879 -0.042360
vn 0.021131 -0.998879 -0.042360
vn -1.000000 -0.000054 0.000036
vn -1.000000 -0.000054 0.000036
vn -1.000000 -0.000054 0.000036
vn -0.042929 -0.997821 -0.050103
vn -0.042929 -0.997821 -0.050103
vn -0.042929 -0.997821 -0.050103
vn -0.054701 -0.997870 0.035534
vn -0.054701 -0.997870 0.035534
vn -0.054701 -0.997870 0.035534
vn -0.011196 -0.998273 0.057667
vn -0.011196 -0.998273 0.057667
vn -0.011196 -0.998273 0.057667
vn -0.046771 -0.995920 0.077177
vn -0.046771 -0.995920 0.077177
vn -0.046771 -0.995920 0.077177
vn 0.028528 0.089735 0.995557
vn 0.028528 0.089735 0.995557
vn 0.028528 0.089735 0.995557
vn 0.133318 0.957030 0.257527
vn 0.133318 0.957030 0.257527
vn 0.133318 0.957030 0.257527
vn 0.133318 0.957030 0.257527
vn 0.064624 0.997508 0.028309
vn 0.064624 0.997508 0.028309
vn 0.064624 0.997508 0.028309
vn 0.135146 0.972062 -0.191913
vn 0.135146 0.972062 -0.191913
vn 0.135146 0.972062 -0.191913
vn 0.276524 0.956194 -0.096065
vn 0.276524 0.956193 -0.096065
vn 0.276524 0.956193 -0.096065
vn 0.343448 0.909194 0.235393
vn 0.343448 0.909194 0.235393
vn 0.343448 0.909194 0.235393
vn -0.100747 0.990664 0.091844
vn -0.100747 0.990664 0.091844
vn -0.100747 0.990664 0.091844
vn -0.165799 0.985517 -0.035585
vn -0.165799 0.985517 -0.035585
vn -0.165799 0.985517 -0.035585
vn 0.108760 0.965983 -0.234625
vn 0.108760 0.965983 -0.234625
vn 0.108760 0.965983 -0.234625
vn 0.075118 0.978199 -0.193609
vn 0.075118 0.978199 -0.193609
vn 0.075118 0.978199 -0.193609
vn 0.075118 0.978199 -0.193609
vn -1.000000 -0.000075 0.000013
vn -1.000000 -0.000075 0.000013
vn -1.000000 -0.000075 0.000013
vn -0.072699 -0.995505 0.060706
vn -0.072699 -0.995505 0.060706
vn -0.072699 -0.995505 0.060706
vn -0.072699 -0.995505 0.060706
vn 0.115979 -0.886639 0.447683
vn 0.115979 -0.886639 0.447683
vn 0.115979 -0.886639 0.447683
vn -0.152779 0.756627 -0.635747
vn -0.152779 0.756627 -0.635747
vn -0.152779 0.756627 -0.635747
vn -0.133487 -0.958197 -0.253061
vn -0.133487 -0.958197 -0.253061
vn -0.133487 -0.958197 -0.253061
vn -0.067503 -0.996733 0.044337
vn -0.067503 -0.996733 0.044337
vn -0.067503 -0.996733 0.044337
vn 0.115112 0.956866 -0.266752
vn 0.115112 0.956866 -0.266752
vn 0.115112 0.956866 -0.266752
vn 0.040268 -0.993423 0.107192
vn 0.040268 -0.993423 0.107192
vn 0.040268 -0.993423 0.107192
vn -0.010065 -0.108707 0.994023
vn -0.010065 -0.108707 0.994023
vn -0.010065 -0.108707 0.994023
vn 0.026228 0.005350 0.999642
vn 0.026228 0.005350 0.999642
vn 0.026228 0.005350 0.999642
vn 0.974205 0.198716 0.106939
vn 0.974205 0.198716 0.106939
vn 0.974205 0.198716 0.106939
vn 0.973732 0.200344 0.108209
vn 0.973732 0.200344 0.108209
vn 0.973732 0.200344 0.108209
vn 0.978111 0.129174 -0.163132
vn 0.978111 0.129174 -0.163132
vn 0.978111 0.129174 -0.163132
vn 0.960254 0.166917 -0.223723
vn 0.960254 0.166917 -0.223723
vn 0.960254 0.166917 -0.223723
vn 0.961369 0.019850 -0.274547
vn 0.961369 0.019850 -0.274547
vn 0.961369 0.019850 -0.274547
vn 0.319445 0.245880 -0.915149
vn 0.319445 0.245880 -0.915149
vn 0.319445 0.245880 -0.915149
vn 0.319445 0.245880 -0.915149
vn 0.926399 0.364152 -0.095806
vn 0.926399 0.364152 -0.095806
vn 0.926399 0.364152 -0.095806
vn 0.927469 0.058905 -0.369232
vn 0.927469 0.058905 -0.369232
vn 0.927469 0.058905 -0.369232
vn 0.687846 0.197590 -0.698445
vn 0.687846 0.197590 -0.698445
vn 0.687846 0.197590 -0.698445
vn 0.687846 0.197590 -0.698445
vn 0.393506 0.510162 -0.764780
vn 0.393505 0.510162 -0.764780
vn 0.393505 0.510162 -0.764780
vn 0.393506 0.510162 -0.764780
vn -0.262228 -0.478351 -0.838103
vn -0.262228 -0.478351 -0.838103
vn -0.262228 -0.478351 -0.838103
vn 0.494727 0.224404 -0.839576
vn 0.494727 0.224404 -0.839576
vn 0.494727 0.224404 -0.839576
vn 0.494727 0.224404 -0.839576
vn -0.079227 0.142403 -0.986633
vn -0.079227 0.142403 -0.986633
vn -0.079227 0.142403 -0.986633
vn -0.099456 0.198801 -0.974980
vn -0.099456 0.198801 -0.974980
vn -0.099456 0.198801 -0.974980
vn -1.000000 -0.000004 0.000021
vn -1.000000 -0.000004 0.000021
vn -1.000000 -0.000004 0.000021
vn -0.015956 0.070170 0.997407
vn -0.015956 0.070170 0.997407
vn -0.015956 0.070170 0.997407
vn -0.015956 0.070170 0.997407
vn -1.000000 -0.000055 0.000017
vn -1.000000 -0.000055 0.000017
vn -1.000000 -0.000055 0.000017
vn 0.099175 0.987739 -0.120569
vn 0.099175 0.987739 -0.120569
vn 0.099175 0.987739 -0.120569
vn 0.956260 0.102472 -0.273983
vn 0.956260 0.102472 -0.273983
vn 0.956260 0.102472 -0.273983
vn 0.956260 0.102472 -0.273983
vn -0.095287 -0.967298 -0.235064
vn -0.095287 -0.967298 -0.235064
vn -0.095287 -0.967298 -0.235064
vn -0.254530 0.929364 -0.267390
vn -0.254530 0.929364 -0.267390
vn -0.254530 0.929364 -0.267390
vn -0.760470 0.003870 -0.649362
vn -0.760470 0.003870 -0.649362
vn -0.760470 0.003870 -0.649362
vn -0.760470 0.003870 -0.649362
vn -0.027037 -0.998203 0.053469
vn -0.027037 -0.998204 0.053469
vn -0.027037 -0.998203 0.053469
vn -0.027037 -0.998204 0.053469
vn 0.052941 0.993515 -0.100629
vn 0.052941 0.993514 -0.100629
vn 0.052941 0.993514 -0.100629
vn 0.052941 0.993515 -0.100629
vn 0.165076 0.981771 -0.094212
vn 0.165076 0.981771 -0.094212
vn 0.165076 0.981771 -0.094212
vn 0.095516 0.995361 -0.011539
vn 0.095516 0.995361 -0.011539
vn 0.095516 0.995361 -0.011539
vn 0.065760 0.995520 -0.067940
vn 0.065760 0.995520 -0.067940
vn 0.065760 0.995520 -0.067940
vn -0.018330 0.979546 -0.200382
vn -0.018330 0.979546 -0.200382
vn -0.018330 0.979546 -0.200382
vn 0.000271 -0.005482 0.999985
vn 0.000271 -0.005482 0.999985
vn 0.000271 -0.005482 0.999985
vn 0.000271 -0.005482 0.999985
vn -1.000000 -0.000038 0.000007
vn -1.000000 -0.000038 0.000007
vn -1.000000 -0.000038 0.000007
vn -1.000000 -0.000038 0.000007
vn -0.352578 0.866812 0.352599
vn -0.352578 0.866812 0.352599
vn -0.352578 0.866812 0.352599
vn 0.464450 0.197828 -0.863221
vn 0.464450 0.197828 -0.863221
vn 0.464450 0.197828 -0.863221
vn 0.464450 0.197828 -0.863221
vn 0.378227 -0.880254 0.286527
vn 0.378227 -0.880254 0.286527
vn 0.378227 -0.880254 0.286527
vn -0.026552 0.915416 -0.401632
vn -0.026552 0.915416 -0.401632
vn -0.026552 0.915416 -0.401632
vn -0.165798 0.985518 -0.035585
vn -0.165798 0.985518 -0.035585
vn -0.165798 0.985517 -0.035585
vn -0.304644 0.771147 -0.559039
vn -0.304644 0.771147 -0.559039
vn -0.304644 0.771147 -0.559039
vn -0.000000 0.000000 1.000000
vn -0.000000 0.000000 1.000000
vn -0.000000 0.000000 1.000000
vn -0.000000 0.000000 1.000000
vn 0.988282 0.005684 -0.152534
vn 0.988192 0.005683 -0.153118
vn 0.999978 0.005848 -0.003072
vn 0.999978 0.005848 -0.003072
vn -0.006287 0.999980 0.000695
vn -0.006253 0.999980 0.000800
vn -0.006510 0.999979 0.000010
vn -0.006510 0.999979 0.000010
vn -0.996452 -0.006406 0.083916
vn -0.996489 -0.006406 0.083477
vn -0.999979 -0.006438 0.000000
vn -0.999979 -0.006438 0.000000
vn 0.006253 -0.999980 -0.000802
vn 0.006287 -0.999980 -0.000698
vn 0.006511 -0.999979 -0.000010
vn 0.006511 -0.999979 -0.000010
vn -1.000000 0.000000 0.000000
vn -1.000000 0.000000 0.000000
vn -1.000000 0.000000 0.000000
vn -1.000000 0.000000 0.000000
vn 0.150440 0.005671 -0.988603
vn 0.151033 0.005670 -0.988513
vn 0.988192 0.005683 -0.153118
vn 0.988282 0.005684 -0.152534
vn -0.000635 0.999981 0.006198
vn -0.000818 0.999981 0.006143
vn -0.006253 0.999980 0.000800
vn -0.006287 0.999980 0.000695
vn -0.085211 -0.006251 0.996343
vn -0.084773 -0.006251 0.996381
vn -0.996489 -0.006406 0.083477
vn -0.996452 -0.006406 0.083916
vn 0.000820 -0.999981 -0.006142
vn 0.000637 -0.999981 -0.006198
vn 0.006287 -0.999980 -0.000698
vn 0.006253 -0.999980 -0.000802
vn -0.001933 0.005828 -0.999981
vn -0.001933 0.005828 -0.999981
vn 0.151033 0.005670 -0.988513
vn 0.150440 0.005671 -0.988603
vn 0.000006 0.999980 0.006394
vn 0.000006 0.999980 0.006394
vn -0.000818 0.999981 0.006143
vn -0.000635 0.999981 0.006198
vn 0.000000 -0.006263 0.999980
vn 0.000000 -0.006263 0.999980
vn -0.084773 -0.006251 0.996381
vn -0.085211 -0.006251 0.996343
vn -0.000006 -0.999980 -0.006394
vn -0.000006 -0.999980 -0.006394
vn 0.000637 -0.999981 -0.006198
vn 0.000820 -0.999981 -0.006142
vn -0.130524 -0.991445 0.000000
vn -0.130524 -0.991445 0.000000
vn -0.130524 -0.991445 0.000000
vn -0.130524 -0.991445 0.000000
vn 0.003474 -0.991705 0.128488
vn 0.003474 -0.991705 0.128488
vn 0.003474 -0.991705 0.128488
vn 0.003474 -0.991705 0.128488
vn -0.940210 -0.340487 -0.008620
vn -0.940210 -0.340487 -0.008620
vn -0.940210 -0.340487 -0.008620
vn -0.940210 -0.340487 -0.008620
vn 0.997776 -0.066649 0.000000
vn 0.997776 -0.066649 0.000000
vn 0.997776 -0.066649 0.000000
vn 0.997776 -0.066649 0.000000
vn -1.000000 0.000000 0.000000
vn -1.000000 0.000000 0.000000
vn -1.000000 0.000000 0.000000
vn -1.000000 0.000000 0.000000
vn 0.437029 -0.891871 0.116500
vn 0.437029 -0.891871 0.116500
vn 0.437029 -0.891871 0.116500
vn 0.437029 -0.891871 0.116500
vn -0.008090 0.000269 0.999967
vn -0.008090 0.000269 0.999967
vn -0.008090 0.000269 0.999967
vn -0.008090 0.000269 0.999967
vn -0.130586 -0.991437 0.000367
vn -0.130586 -0.991437 0.000367
vn -0.130586 -0.991437 0.000367
vn -0.130586 -0.991437 0.000367
vn -0.089013 -0.645597 -0.758473
vn -0.089013 -0.645597 -0.758473
vn -0.089013 -0.645597 -0.758473
vn -0.089013 -0.645597 -0.758473
vn -0.143011 -0.988374 -0.051612
vn -0.143011 -0.988374 -0.051612
vn -0.143011 -0.988375 -0.051612
vn 0.001757 -0.466908 0.884304
vn 0.001757 -0.466908 0.884304
vn 0.001757 -0.466908 0.884304
vn 0.001757 -0.466908 0.884304
vn -0.000686 -0.989550 0.144187
vn -0.000686 -0.989550 0.144187
vn -0.000686 -0.989550 0.144187
vn -0.000686 -0.989550 0.144187
vn 0.004061 -0.033531 -0.999429
vn 0.004061 -0.033531 -0.999429
vn 0.004061 -0.033531 -0.999429
vn 0.004061 -0.033531 -0.999429
vn 0.053112 -0.989626 0.133488
vn 0.053112 -0.989626 0.133488
vn 0.053112 -0.989626 0.133488
vn 0.707105 -0.000011 0.707108
vn 0.707105 -0.000011 0.707108
vn 0.707105 -0.000011 0.707108
vn 0.707105 -0.000011 0.707108
vn 0.707087 0.007561 -0.707087
vn 0.707087 0.007561 -0.707087
vn 0.707087 0.007561 -0.707087
vn 0.707087 0.007561 -0.707087
vn -0.043207 0.998131 0.043207
vn -0.043207 0.998131 0.043207
vn -0.043207 0.998131 0.043207
vn -0.043207 0.998131 0.043207
vn -0.707105 0.000011 -0.707108
vn -0.707105 0.000011 -0.707108
vn -0.707105 0.000011 -0.707108
vn -0.707105 0.000011 -0.707108
vn 0.101564 -0.989631 -0.101564
vn 0.101564 -0.989631 -0.101564
vn 0.101564 -0.989631 -0.101564
vn 0.101564 -0.989631 -0.101564
vn -0.701058 0.130520 0.701058
vn -0.701058 0.130520 0.701058
vn -0.701058 0.130520 0.701058
vn -0.701058 0.130520 0.701058
vn 0.707103 -0.000020 0.707110
vn 0.707103 -0.000020 0.707110
vn 0.707103 -0.000020 0.707110
vn 0.707103 -0.000020 0.707110
vn 0.062959 0.996028 -0.062959
vn 0.062959 0.996028 -0.062959
vn 0.062959 0.996028 -0.062959
vn 0.062959 0.996028 -0.062959
vn -0.062957 -0.996029 0.062957
vn -0.062957 -0.996029 0.062957
vn -0.062957 -0.996029 0.062957
vn -0.062957 -0.996029 0.062957
vn -0.707103 0.000020 -0.707110
vn -0.707103 0.000020 -0.707110
vn -0.707103 0.000020 -0.707110
vn -0.707103 0.000020 -0.707110
s off
f 25/1/1 26/2/2 12/3/3 13/4/4
f 27/5/5 28/6/6 8/7/7
f 27/5/8 8/7/9 14/8/10
f 39/9/11 40/10/12 5/11/13
f 38/12/14 39/9/15 5/11/16 6/13/17
f 7/14/18 9/15/19 42/16/20 43/17/21
f 22/18/22 23/19/23 16/20/24
f 35/21/25 36/22/26 10/23/27 17/24/28
f 36/22/29 37/25/30 6/13/31 10/23/32
f 15/26/33 24/27/34 25/1/35 13/4/36
f 40/10/37 53/28/38 5/11/39
f 9/15/40 51/29/41 41/30/42
f 12/3/43 26/2/44 27/5/45 14/8/46
f 15/26/47 16/20/48 23/19/49 24/27/50
f 19/31/51 22/18/52 16/20/53
f 31/32/54 21/33/55 1/34/56
f 20/35/57 8/7/58 28/6/59
f 29/36/60 21/33/61 11/37/62
f 21/33/63 30/38/64 11/37/65
f 52/39/66 21/33/67 32/40/68
f 33/41/69 20/35/70 3/42/71
f 17/24/72 34/43/73 35/21/74
f 10/23/75 23/19/76 22/18/77 17/24/78
f 24/27/79 23/19/80 10/23/81
f 6/13/82 24/27/83 10/23/84
f 25/1/85 24/27/86 6/13/87
f 5/11/88 25/1/89 6/13/90
f 26/2/91 25/1/92 5/11/93
f 53/28/94 26/2/95 5/11/96
f 27/5/97 26/2/98 9/15/99
f 7/14/100 28/6/101 27/5/102 9/15/103
f 20/35/104 28/6/105 7/14/106
f 18/44/107 19/31/108 21/33/109 29/36/110
f 2/45/111 45/46/112 21/33/113
f 6/13/114 44/47/115 38/12/116
f 2/45/117 21/33/118 31/32/119
f 32/40/120 21/33/121 4/48/122
f 9/15/123 46/49/124 42/16/125
f 47/50/126 20/35/127 33/41/128
f 34/43/129 19/31/130 18/44/131
f 35/21/132 34/43/133 18/44/134
f 18/44/135 36/22/136 35/21/137
f 29/36/138 36/22/139 18/44/140
f 11/37/141 36/22/142 29/36/143
f 11/37/144 37/25/145 36/22/146
f 30/38/147 37/25/148 11/37/149
f 2/45/150 38/12/151 44/47/152 45/46/153
f 2/45/154 39/9/155 38/12/156
f 31/32/157 39/9/158 2/45/159
f 1/34/160 40/10/161 39/9/162 31/32/163
f 41/30/164 51/29/165 52/39/166 32/40/167
f 41/30/168 32/40/169 4/48/170
f 33/41/171 42/16/172 46/49/173 47/50/174
f 3/42/175 42/16/176 33/41/177
f 43/17/178 42/16/179 3/42/180
f 20/35/181 43/17/182 3/42/183
f 17/24/184 22/18/185 19/31/186 34/43/187
f 20/35/188 7/14/189 43/17/190
f 37/25/191 44/47/192 6/13/193
f 45/46/194 44/47/195 37/25/196 30/38/197
f 21/33/198 45/46/199 30/38/200
f 41/30/201 46/49/202 9/15/203
f 47/50/204 46/49/205 41/30/206 4/48/207
f 4/48/208 21/33/209 20/35/210 47/50/211
f 13/4/212 12/3/213 48/51/214 49/52/215
f 14/8/216 8/7/217 48/51/218
f 16/20/219 15/26/220 49/52/221
f 15/26/222 13/4/223 49/52/224
f 12/3/225 14/8/226 48/51/227
f 19/31/228 16/20/229 49/52/230 50/53/231
f 20/35/232 50/53/233 48/51/234 8/7/235
f 49/52/236 48/51/237 50/53/238
f 52/39/239 51/29/240 40/10/241 1/34/242
f 1/34/243 21/33/244 52/39/245
f 9/15/246 53/28/247 51/29/248
f 9/15/249 26/2/250 53/28/251
f 51/29/252 53/28/253 40/10/254
f 58/54/255 59/55/256 60/56/257 61/57/258
f 62/58/259 63/59/260 59/55/261 58/54/262
f 63/59/263 64/60/264 60/56/265 59/55/266
f 64/60/267 65/61/268 61/57/269 60/56/270
f 65/61/271 62/58/272 58/54/273 61/57/274
f 55/62/275 57/63/276 56/64/277 54/65/278
f 66/66/279 67/67/280 63/59/281 62/58/282
f 67/67/283 68/68/284 64/60/285 63/59/286
f 68/68/287 69/69/288 65/61/289 64/60/290
f 69/69/291 66/66/292 62/58/293 65/61/294
f 56/64/295 57/63/296 67/67/297 66/66/298
f 57/63/299 55/62/300 68/68/301 67/67/302
f 55/62/303 54/65/304 69/69/305 68/68/306
f 54/65/307 56/64/308 66/66/309 69/69/310
f 79/70/311 80/71/312 83/72/313 82/73/314
f 84/74/315 85/75/316 81/76/317 78/77/318
f 76/78/319 83/72/320 80/71/321 75/79/322
f 73/80/323 79/70/324 82/73/325 71/81/326
f 70/82/327 84/74/328 78/77/329 72/83/330
f 77/84/331 74/85/332 81/76/333 85/75/334
f 72/83/335 78/77/336 79/70/337 73/80/338
f 80/71/339 79/70/340 78/77/341 81/76/342
f 75/79/343 80/71/344 81/76/345 74/85/346
f 74/86/347 76/87/348 75/88/349
f 83/72/350 76/78/351 77/84/352 85/75/353
f 82/73/354 83/72/355 85/75/356 84/74/357
f 71/81/358 82/73/359 84/74/360 70/82/361
f 74/86/362 77/89/363 76/87/364
f 86/90/365 87/91/366 89/92/367 88/93/368
f 92/94/369 93/95/370 87/91/371 86/90/372
f 87/91/373 93/95/374 91/96/375 89/92/376
f 93/95/377 92/94/378 90/97/379 91/96/380
f 88/93/381 90/97/382 92/94/383 86/90/384
f 96/98/385 98/99/386 99/100/387 97/101/388
f 99/100/389 98/99/390 100/102/391 101/103/392
f 95/104/393 97/101/394 99/100/395 101/103/396
f 100/102/397 98/99/398 96/98/399 94/105/400
f 97/101/401 95/104/402 94/105/403 96/98/404
