# This file uses centimeters as units for non-parametric coordinates.

v -30.544922 0.000000 5.433594
v -30.544922 55.010925 5.433594
v 30.541016 55.010925 5.433594
v 30.541016 0.000000 5.433594
v -30.544922 253.850159 -92.785156
v 30.541016 253.850159 -92.785156
v -30.544922 0.000000 -14.927734
v 30.541016 0.000000 -14.927734
v -30.544922 232.692810 -250.000000
v 30.541016 232.692810 -250.000000
v -30.544922 253.850159 -250.000000
v 30.541016 253.850159 -250.000000
v -30.544922 24.718140 -14.927734
v 30.541016 24.718140 -14.927734
v 30.541016 0.000000 -250.000000
v 30.541016 24.718140 -250.000000
v -30.544922 24.718140 -250.000000
v -30.544922 0.000000 -250.000000
v -9.751953 39.470947 -41.039063
v 9.751953 39.470947 -41.039063
v 9.751953 222.588562 -250.000000
v -9.751953 222.588562 -250.000000
v -9.751953 39.470947 -250.000000
v 9.751953 39.470947 -250.000000
v 9.751953 222.588623 -130.111328
v 30.541016 232.692871 -112.365234
v -9.751953 222.588623 -130.111328
v -30.544922 232.692871 -112.365234
v 9.751953 56.327576 -77.375000
v 9.751953 56.327576 -232.015625
v 9.751953 205.731995 -150.048828
v 9.751953 205.731995 -232.015625
v -9.751953 205.732056 -232.015625
v -9.751953 56.327576 -232.015625
v -9.751953 205.732056 -150.048828
v -9.751953 56.327576 -77.375000
vt 0.487829 0.180942
vt 0.488479 0.181302
vt 0.488488 0.181236
vt 0.487825 0.180880
vt 0.487680 0.180980
vt 0.488356 0.181379
vt 0.488350 0.181446
vt 0.487687 0.181044
vt 0.487791 0.180942
vt 0.488408 0.181287
vt 0.488450 0.181242
vt 0.487838 0.180909
vt 0.488531 0.180621
vt 0.488482 0.180660
vt 0.488395 0.181160
vt 0.487930 0.180914
vt 0.488080 0.180446
vt 0.488147 0.180536
vt 0.488449 0.180659
vt 0.488351 0.181204
vt 0.488400 0.180698
vt 0.488026 0.180478
vt 0.488094 0.180570
vt 0.487883 0.180948
vt 0.017040 0.045956
vt 0.017388 0.045956
vt 0.017813 0.046242
vt 0.017040 0.046242
vt 0.020310 0.044587
vt 0.020607 0.044862
vt 0.017595 0.045589
vt 0.020168 0.044337
vt 0.020310 0.042653
vt 0.020607 0.042653
vt 0.023806 0.047649
vt 0.023509 0.049858
vt 0.023509 0.047924
vt 0.023806 0.049858
vt 0.020587 0.046555
vt 0.021012 0.046269
vt 0.023367 0.048174
vt 0.020794 0.046922
vt 0.020239 0.046555
vt 0.020239 0.046269
vt 0.018439 0.046269
vt 0.019298 0.046269
vt 0.019298 0.048478
vt 0.018439 0.048478
vt 0.017730 0.047127
vt 0.017444 0.047127
vt 0.017444 0.046269
vt 0.017730 0.046269
vt 0.018106 0.046269
vt 0.018398 0.046269
vt 0.018398 0.047954
vt 0.018106 0.048203
vt 0.018064 0.048203
vt 0.017772 0.047954
vt 0.017772 0.046269
vt 0.018064 0.046269
vt 0.020198 0.046269
vt 0.020198 0.047042
vt 0.019339 0.047042
vt 0.019339 0.046269
vt 0.020198 0.049836
vt 0.019339 0.049836
vt 0.017338 0.048013
vt 0.017040 0.048013
vt 0.017480 0.047721
vt 0.017040 0.047155
vt 0.017480 0.047447
vt 0.017338 0.047155
vn 0.000000 1.000000 0.000000
vn 0.000000 1.000000 0.000000
vn 0.000000 1.000000 0.000000
vn 0.000000 1.000000 0.000000
vn 0.000000 0.000000 1.000000
vn 0.000000 0.000000 1.000000
vn 0.000000 0.000000 1.000000
vn 0.000000 0.000000 1.000000
vn 0.000000 0.442876 0.896583
vn 0.000000 0.442876 0.896583
vn 0.000000 0.442876 0.896583
vn 0.000000 0.442876 0.896583
vn 1.000000 0.000000 0.000000
vn 1.000000 0.000000 0.000000
vn 1.000000 0.000000 0.000000
vn 1.000000 0.000000 0.000000
vn 0.000000 -1.000000 0.000000
vn 0.000000 -1.000000 0.000000
vn 0.000000 -1.000000 0.000000
vn 0.000000 -1.000000 0.000000
vn -1.000000 -0.000000 0.000000
vn -1.000000 -0.000000 0.000000
vn -1.000000 -0.000000 0.000000
vn 1.000000 0.000000 0.000000
vn 1.000000 0.000000 0.000000
vn 1.000000 0.000000 0.000000
vn 1.000000 0.000000 0.000000
vn 1.000000 0.000000 0.000000
vn 1.000000 0.000000 0.000000
vn 1.000000 0.000000 0.000000
vn -1.000000 0.000000 0.000000
vn -1.000000 0.000000 0.000000
vn -1.000000 0.000000 0.000000
vn -1.000000 0.000000 0.000000
vn -1.000000 0.000000 0.000000
vn -1.000000 0.000000 0.000000
vn -1.000000 0.000000 0.000000
vn 1.000000 0.000000 0.000000
vn 1.000000 0.000000 0.000000
vn 1.000000 0.000000 0.000000
vn 1.000000 0.000000 0.000000
vn -1.000000 0.000000 0.000000
vn -1.000000 0.000000 0.000000
vn -1.000000 0.000000 0.000000
vn -1.000000 0.000000 0.000000
vn 0.000000 -1.000000 0.000000
vn 0.000000 -1.000000 0.000000
vn 0.000000 -1.000000 0.000000
vn 0.000000 -1.000000 0.000000
vn 0.670590 -0.319321 -0.669584
vn 0.670590 -0.319321 -0.669584
vn 0.645338 -0.619121 -0.447468
vn 0.668688 -0.489626 -0.559574
vn -0.000002 0.000000 -1.000000
vn -0.000002 0.000000 -1.000000
vn -0.000002 0.000000 -1.000000
vn -0.437072 -0.899427 0.000000
vn -0.437072 -0.899427 0.000000
vn -0.645269 -0.619164 -0.447508
vn -0.668617 -0.489677 -0.559613
vn -0.578656 0.815572 0.000000
vn -0.578656 0.815572 0.000000
vn -0.578656 0.815572 0.000000
vn -0.578656 0.815572 0.000000
vn 0.000004 0.000000 -1.000000
vn 0.000004 0.000000 -1.000000
vn 0.000004 0.000000 -1.000000
vn 0.578728 0.815521 0.000000
vn 0.578728 0.815521 0.000000
vn 0.578728 0.815521 0.000000
vn 0.578728 0.815520 0.000000
vn 0.000000 0.000000 -1.000000
vn 0.000000 0.000000 -1.000000
vn 0.000000 0.000000 -1.000000
vn 0.000000 0.000000 -1.000000
vn 0.000000 0.000000 -1.000000
vn 0.000000 0.000000 -1.000000
vn 0.000000 0.000000 -1.000000
vn 0.000000 0.000000 -1.000000
vn 0.000002 0.000000 -1.000000
vn 0.000002 0.000000 -1.000000
vn 0.000002 0.000000 -1.000000
vn -0.000003 0.000000 -1.000000
vn -0.000003 0.000000 -1.000000
vn -0.000003 0.000000 -1.000000
vn 0.000000 0.000000 -1.000000
vn 0.000000 0.000000 -1.000000
vn 0.000000 0.000000 -1.000000
vn 0.000000 0.000000 -1.000000
vn 0.668688 -0.489626 -0.559574
vn 0.645338 -0.619121 -0.447468
vn 0.437139 -0.899394 0.000000
vn 0.437138 -0.899394 0.000000
vn 1.000000 0.000000 0.000000
vn 1.000000 0.000000 0.000000
vn 1.000000 0.000000 0.000000
vn -0.668617 -0.489677 -0.559613
vn -0.645269 -0.619164 -0.447508
vn -0.670521 -0.319348 -0.669641
vn -0.670521 -0.319348 -0.669641
vn -1.000000 -0.000000 0.000000
vn -1.000000 -0.000000 0.000000
vn -1.000000 0.000000 0.000000
vn -1.000000 0.000000 0.000000
vn 1.000000 -0.000000 0.000000
vn 1.000000 -0.000000 0.000000
vn 1.000000 -0.000000 0.000000
vn 1.000000 -0.000000 0.000000
vn 1.000000 0.000000 0.000000
vn 1.000000 0.000000 0.000000
vn 1.000000 0.000000 0.000000
vn 1.000000 0.000000 0.000000
vn 1.000000 0.000000 0.000000
vn 1.000000 0.000000 0.000000
vn 1.000000 0.000000 0.000000
vn 1.000000 0.000000 0.000000
vn 1.000000 0.000000 0.000000
vn 1.000000 0.000000 0.000000
vn 1.000000 0.000000 0.000000
vn 1.000000 0.000000 0.000000
vn -1.000000 0.000000 0.000000
vn -1.000000 0.000000 0.000000
vn -1.000000 0.000000 0.000000
vn -1.000000 0.000000 0.000000
vn -1.000000 0.000000 0.000000
vn -1.000000 0.000000 0.000000
vn -1.000000 0.000000 0.000000
vn -1.000000 0.000000 0.000000
vn -1.000000 0.000000 0.000000
vn -1.000000 0.000000 0.000000
vn -1.000000 0.000000 0.000000
vn -1.000000 0.000000 0.000000
vn -1.000000 0.000000 0.000000
vn -1.000000 0.000000 0.000000
vn -1.000000 0.000000 0.000000
vn -1.000000 0.000000 0.000000
vn 0.000000 1.000000 0.000000
vn 0.000000 1.000000 0.000000
vn 0.000000 1.000000 0.000000
vn 0.000000 1.000000 0.000000
vn -0.000000 -0.437420 -0.899257
vn -0.000000 -0.437420 -0.899257
vn -0.000000 -0.437420 -0.899257
vn -0.000000 -0.437420 -0.899257
vn 0.000001 0.000000 1.000000
vn 0.000001 0.000000 1.000000
vn 0.000001 0.000000 1.000000
vn 0.000001 0.000000 1.000000
vn -0.000003 -1.000000 0.000000
vn -0.000003 -1.000000 0.000000
vn -0.000003 -1.000000 0.000000
vn -0.000003 -1.000000 0.000000
s off
f 5/45/1 6/46/2 12/47/3 11/48/4
f 4/61/5 3/62/6 2/63/7 1/64/8
f 3/62/9 6/65/10 5/66/11 2/63/12
f 8/25/13 14/26/14 3/27/15 4/28/16
f 1/49/17 7/50/18 8/51/19 4/52/20
f 5/35/21 9/36/22 28/37/23
f 3/27/24 14/26/25 26/29/26 6/30/27
f 6/30/28 10/33/29 12/34/30
f 9/36/31 5/35/32 11/38/33
f 7/43/34 1/44/35 2/40/36 13/39/37
f 8/1/38 15/2/39 16/3/40 14/4/41
f 13/5/42 17/6/43 18/7/44 7/8/45
f 7/8/46 18/7/47 15/2/48 8/1/49
f 14/26/50 20/31/51 25/32/52 26/29/53
f 9/67/54 11/68/55 22/69/56
f 9/53/57 22/54/58 27/55/59 28/56/60
f 13/5/61 19/9/62 23/10/63 17/6/64
f 18/7/65 17/6/66 23/10/67
f 16/3/68 24/11/69 20/12/70 14/4/71
f 21/13/72 24/11/73 23/10/74 22/14/75
f 11/68/76 12/70/77 21/71/78 22/69/79
f 12/70/80 10/72/81 21/71/82
f 16/3/83 15/2/84 24/11/85
f 15/2/86 18/7/87 23/10/88 24/11/89
f 26/57/90 25/58/91 21/59/92 10/60/93
f 6/30/94 26/29/95 10/33/96
f 28/37/97 27/41/98 19/42/99 13/39/100
f 5/35/101 28/37/102 13/39/103 2/40/104
f 20/12/105 24/11/106 30/15/107 29/16/108
f 25/17/109 20/12/110 29/16/111 31/18/112
f 24/11/113 21/13/114 32/19/115 30/15/116
f 21/13/117 25/17/118 31/18/119 32/19/120
f 22/14/121 23/10/122 34/20/123 33/21/124
f 27/22/125 22/14/126 33/21/127 35/23/128
f 23/10/129 19/9/130 36/24/131 34/20/132
f 19/9/133 27/22/134 35/23/135 36/24/136
f 29/16/137 30/15/138 34/20/139 36/24/140
f 31/18/141 29/16/142 36/24/143 35/23/144
f 30/15/145 32/19/146 33/21/147 34/20/148
f 32/19/149 31/18/150 35/23/151 33/21/152
