# This file uses centimeters as units for non-parametric coordinates.

v -49.456955 0.000001 -49.456825
v -49.457043 0.000001 49.456825
v -45.760941 249.999985 -45.760841
v -45.760944 249.999985 45.760880
v 45.761276 249.999985 -45.760864
v 45.761272 249.999985 45.760895
v 49.457077 0.000001 -49.456825
v 49.457142 0.000001 49.456863
v -31.965160 237.766235 -47.695251
v -47.695465 237.766235 47.695160
v 47.695126 237.766159 40.229340
v 47.695175 237.766159 -47.695274
v -49.456955 20.118793 -49.456825
v -38.285168 20.118793 49.456848
v 49.457142 20.118753 49.456863
v 28.776531 20.118753 -49.456848
v -38.458557 21.788179 -38.458557
v -38.458546 21.788179 38.458405
v -38.458546 231.081314 38.458405
v -38.458557 231.081314 -38.458557
v 38.458416 21.788141 38.458389
v 38.458416 231.081253 38.458389
v 38.458405 231.081253 -38.458542
v 38.458405 21.788141 -38.458542
v -35.556843 167.532486 35.556870
v -35.556843 179.210587 35.556870
v -35.556976 172.614716 17.672806
v -23.141075 172.698730 35.556870
v 35.557014 148.338577 -35.557022
v 35.557014 137.547607 -35.557022
v 21.885750 141.390488 -35.557022
v 35.556984 142.543228 -23.086166
v 35.557049 93.773804 35.556831
v 35.557049 72.640358 35.556831
v 35.557007 80.353470 30.903053
v 31.205086 79.666481 35.556885
v -35.556877 69.454018 -35.557022
v -35.556877 91.361664 -35.557022
v -35.556885 80.787209 -29.346313
v -29.285820 81.586983 -35.557007
v 46.232113 247.020401 46.232010
v 34.262085 237.766159 47.695145
v -49.457195 8.984606 49.456848
v -49.456913 20.118793 39.275017
v 49.457077 8.387249 -49.456825
v 49.457096 20.118753 -39.860191
v -46.405758 245.922897 -46.405525
v -47.695427 237.766235 -37.461128
v -35.556976 172.616302 17.672806
v -35.556843 179.212173 35.556870
v -23.141075 172.700302 35.556870
v 21.885750 141.392044 -35.557022
v 35.556984 142.544800 -23.086166
v 35.557014 137.549194 -35.557022
v 35.557014 148.340118 -35.557022
v 31.205086 79.668060 35.556885
v 35.557049 93.775375 35.556831
v 35.557007 80.355049 30.903053
v 35.557049 72.641930 35.556831
v -29.285820 81.588562 -35.557007
v -35.556877 91.363228 -35.557022
v -35.556885 80.788795 -29.346313
v -35.556877 69.455597 -35.557022
vt 0.361713 0.909152
vt 0.361902 0.909088
vt 0.361888 0.909017
vt 0.361721 0.909083
vt 0.361363 0.908995
vt 0.361273 0.909067
vt 0.361350 0.909072
vt 0.361263 0.909132
vt 0.361265 0.910314
vt 0.361356 0.910488
vt 0.361899 0.910435
vt 0.361725 0.910277
vt 0.361866 0.910324
vt 0.361725 0.910185
vt 0.361355 0.910373
vt 0.361310 0.910216
vt 0.361821 0.910303
vt 0.361692 0.910194
vt 0.361697 0.909173
vt 0.361832 0.909132
vt 0.361405 0.910338
vt 0.361398 0.909119
vt 0.361318 0.909163
vt 0.361327 0.910220
vt 0.301521 0.765704
vt 0.393714 0.765704
vt 0.393714 0.987343
vt 0.301521 0.987343
vt 0.301521 0.987343
vt 0.393714 0.987343
vt 0.393714 0.765704
vt 0.301521 0.765704
vt 0.348760 0.765704
vt 0.440953 0.765704
vt 0.440953 0.987343
vt 0.348760 0.987343
vt 0.440953 0.765704
vt 0.348760 0.765704
vt 0.348760 0.987343
vt 0.440953 0.987343
vt 0.394187 0.920084
vt 0.344948 0.920182
vt 0.393710 0.932423
vt 0.345176 0.932596
vt 0.370529 0.925428
vt 0.356808 0.925846
vt 0.445014 0.900140
vt 0.301524 0.899731
vt 0.445106 0.888668
vt 0.301265 0.888278
vt 0.432091 0.893220
vt 0.317688 0.893582
vt 0.395157 0.841983
vt 0.441229 0.841933
vt 0.395076 0.819545
vt 0.440951 0.819545
vt 0.390698 0.827782
vt 0.435311 0.826997
vt 0.440953 0.827841
vt 0.348764 0.816167
vt 0.299001 0.815890
vt 0.348078 0.839322
vt 0.298653 0.839131
vt 0.305546 0.827793
vt 0.356890 0.829030
vt 0.348760 0.827402
vt 0.301521 0.894077
vt 0.393714 0.926175
vt 0.361361 0.909013
vt 0.361393 0.909084
vt 0.361899 0.910386
vt 0.361882 0.910311
vt 0.361265 0.910274
vt 0.361273 0.910233
vt 0.361722 0.909104
vt 0.361745 0.909139
vt 0.393710 0.932423
vt 0.370529 0.925428
vt 0.393714 0.926175
vt 0.317688 0.893582
vt 0.301265 0.888278
vt 0.301521 0.894077
vt 0.441229 0.841933
vt 0.435311 0.826997
vt 0.440953 0.827841
vt 0.440951 0.819545
vt 0.348078 0.839322
vt 0.356890 0.829030
vt 0.348760 0.827402
vt 0.348764 0.816167
vt 0.301524 0.899731
vt 0.361126 0.909540
vt 0.361125 0.909642
vt 0.361266 0.909609
vt 0.361912 0.910149
vt 0.362042 0.910076
vt 0.362086 0.910188
vt 0.361863 0.910351
vt 0.361820 0.910475
vt 0.361870 0.910486
vt 0.361859 0.910532
vt 0.361172 0.910796
vt 0.361259 0.910897
vt 0.361180 0.910868
vt 0.361188 0.911033
vt 0.362093 0.910052
vt 0.361266 0.909609
vt 0.361125 0.909642
vt 0.361134 0.909668
vt 0.441229 0.841933
vt 0.435311 0.826997
vt 0.441229 0.841933
vt 0.435311 0.826997
vt 0.440951 0.819545
vt 0.435311 0.826997
vt 0.440951 0.819545
vt 0.440953 0.827841
vt 0.440953 0.827841
vt 0.440951 0.819545
vt 0.348078 0.839322
vt 0.356890 0.829030
vt 0.348078 0.839322
vt 0.348078 0.839322
vt 0.356890 0.829030
vt 0.348764 0.816167
vt 0.356890 0.829030
vt 0.348764 0.816167
vt 0.348760 0.827402
vt 0.348760 0.827402
vt 0.348764 0.816167
vt 0.301524 0.899731
vt 0.317688 0.893582
vt 0.317688 0.893582
vt 0.301521 0.894077
vt 0.301524 0.899731
vt 0.301524 0.899731
vt 0.301521 0.894077
vn -0.419024 -0.640005 -0.644059
vn -0.419024 -0.640005 -0.644059
vn -0.419024 -0.640005 -0.644059
vn 0.000000 1.000000 0.000000
vn 0.000000 1.000000 0.000000
vn 0.000000 1.000000 0.000000
vn 0.000000 1.000000 0.000000
vn 0.987735 0.156137 0.000001
vn 0.987736 0.156137 0.000001
vn 0.987735 0.156137 0.000001
vn 0.987735 0.156137 0.000001
vn 0.987735 0.156137 0.000001
vn 0.000000 -1.000000 0.000000
vn 0.000000 -1.000000 0.000000
vn 0.000000 -1.000000 0.000000
vn 0.000000 -1.000000 0.000000
vn -0.000000 0.156169 0.987730
vn -0.000000 0.156169 0.987730
vn -0.000000 0.156169 0.987730
vn -0.000000 0.156169 0.987730
vn -0.000000 0.156169 0.987730
vn -0.000000 0.156180 -0.987729
vn -0.000000 0.156180 -0.987729
vn -0.000000 0.156180 -0.987729
vn -0.000000 0.156180 -0.987729
vn -0.000000 0.156180 -0.987729
vn -0.998717 0.050175 -0.006841
vn -0.998717 0.050175 -0.006841
vn -0.998717 0.050175 -0.006841
vn -0.998717 0.050175 -0.006841
vn -0.024195 -0.017995 0.999545
vn -0.024195 -0.017995 0.999545
vn -0.024195 -0.017995 0.999545
vn -0.024195 -0.017995 0.999545
vn 0.998734 0.050090 0.004736
vn 0.998734 0.050090 0.004736
vn 0.998734 0.050090 0.004736
vn 0.998734 0.050090 0.004736
vn 0.016042 -0.018419 -0.999702
vn 0.016042 -0.018419 -0.999702
vn 0.016042 -0.018419 -0.999702
vn 0.016042 -0.018419 -0.999702
vn -1.000000 0.000003 -0.000001
vn -1.000000 0.000003 -0.000001
vn -1.000000 0.000003 -0.000001
vn -1.000000 0.000003 -0.000001
vn -1.000000 0.000003 -0.000001
vn -0.000000 -0.000001 1.000000
vn -0.000000 -0.000001 1.000000
vn -0.000000 -0.000001 1.000000
vn -0.000000 -0.000001 1.000000
vn -0.000000 -0.000001 1.000000
vn 0.338034 0.595892 -0.728455
vn 0.338034 0.595892 -0.728455
vn 0.338034 0.595892 -0.728455
vn -0.000000 -0.000001 -1.000000
vn -0.000000 -0.000001 -1.000000
vn -0.000000 -0.000001 -1.000000
vn -0.000000 -0.000001 -1.000000
vn -0.000000 -0.000001 -1.000000
vn -0.137400 0.978976 0.150759
vn -0.137400 0.978976 0.150759
vn -0.137400 0.978976 0.150759
vn -0.461730 -0.532102 -0.709699
vn -0.461730 -0.532102 -0.709699
vn -0.461730 -0.532102 -0.709699
vn 0.360587 -0.670109 0.648793
vn 0.360587 -0.670109 0.648793
vn 0.360587 -0.670109 0.648793
vn 0.114582 0.962238 -0.246921
vn 0.114582 0.962238 -0.246921
vn 0.114582 0.962238 -0.246921
vn -0.441521 -0.841820 0.310479
vn -0.441522 -0.841820 0.310479
vn -0.441522 -0.841820 0.310479
vn 0.252479 0.898216 -0.359809
vn 0.252479 0.898216 -0.359809
vn 0.252479 0.898216 -0.359809
vn 0.728061 -0.224597 0.647675
vn 0.728061 -0.224597 0.647675
vn 0.728061 -0.224597 0.647675
vn 0.640518 0.396730 0.657528
vn 0.640518 0.396730 0.657528
vn 0.640518 0.396730 0.657528
vn -0.619602 -0.397514 -0.676813
vn -0.619602 -0.397514 -0.676813
vn -0.619602 -0.397514 -0.676813
vn -0.680934 0.351949 -0.642231
vn -0.680934 0.351949 -0.642231
vn -0.680934 0.351949 -0.642231
vn 0.418572 -0.823597 -0.382735
vn 0.418572 -0.823597 -0.382735
vn 0.418572 -0.823597 -0.382735
vn -0.371595 0.893035 0.253783
vn -0.371595 0.893035 0.253783
vn -0.371595 0.893035 0.253783
vn 0.436208 -0.440131 0.784861
vn 0.436208 -0.440131 0.784861
vn 0.436208 -0.440131 0.784861
vn -0.558084 0.559981 0.612343
vn -0.558084 0.559981 0.612343
vn -0.558084 0.559981 0.612343
vn 0.000000 0.988676 0.150065
vn 0.000000 0.988676 0.150065
vn 0.000000 0.988676 0.150065
vn 0.000000 0.988676 0.150065
vn 1.000000 -0.000001 -0.000001
vn 1.000000 -0.000001 -0.000001
vn 1.000000 -0.000001 -0.000001
vn 1.000000 -0.000001 -0.000001
vn 1.000000 -0.000001 -0.000001
vn 0.000000 0.988676 -0.150068
vn 0.000000 0.988676 -0.150068
vn 0.000000 0.988676 -0.150068
vn 0.000000 0.988676 -0.150068
vn 0.150062 0.988677 -0.000000
vn 0.150062 0.988677 -0.000000
vn 0.150062 0.988677 -0.000000
vn 0.150062 0.988677 -0.000000
vn 0.999711 -0.018474 -0.015364
vn 0.999711 -0.018474 -0.015364
vn 0.999711 -0.018474 -0.015364
vn 0.999711 -0.018474 -0.015364
vn 0.999592 0.021646 0.018628
vn 0.999592 0.021646 0.018628
vn 0.999592 0.021646 0.018628
vn 0.999592 0.021646 0.018628
vn 0.999449 -0.033125 -0.002147
vn 0.999449 -0.033125 -0.002147
vn 0.999449 -0.033125 -0.002147
vn 0.999449 -0.033125 -0.002147
vn -0.003689 -0.050602 0.998712
vn -0.003689 -0.050602 0.998712
vn -0.003689 -0.050602 0.998712
vn -0.003689 -0.050602 0.998712
vn 0.004377 0.050615 0.998709
vn 0.004377 0.050615 0.998709
vn 0.004377 0.050615 0.998709
vn 0.004377 0.050615 0.998709
vn 0.022314 0.016954 0.999607
vn 0.022314 0.016954 0.999607
vn 0.022314 0.016954 0.999607
vn 0.022314 0.016954 0.999607
vn -0.999481 -0.017662 0.026959
vn -0.999480 -0.017662 0.026959
vn -0.999481 -0.017662 0.026959
vn -0.999481 -0.017662 0.026959
vn -0.999633 0.016240 -0.021704
vn -0.999633 0.016240 -0.021704
vn -0.999633 0.016240 -0.021704
vn -0.999633 0.016240 -0.021704
vn -0.998702 -0.050821 0.003537
vn -0.998702 -0.050821 0.003537
vn -0.998702 -0.050821 0.003537
vn -0.998702 -0.050821 0.003537
vn 0.002516 -0.032798 -0.999459
vn 0.002516 -0.032798 -0.999459
vn 0.002516 -0.032798 -0.999459
vn 0.002516 -0.032798 -0.999459
vn -0.007229 0.049570 -0.998745
vn -0.007229 0.049570 -0.998745
vn -0.007229 0.049570 -0.998745
vn -0.007229 0.049570 -0.998745
vn -0.018693 0.021660 -0.999591
vn -0.018693 0.021660 -0.999591
vn -0.018693 0.021660 -0.999591
vn -0.018693 0.021660 -0.999591
vn -0.150066 0.988676 0.000000
vn -0.150066 0.988676 0.000000
vn -0.150066 0.988676 0.000000
vn -0.150066 0.988676 0.000000
vn -0.987727 0.156188 0.000000
vn -0.987727 0.156188 0.000000
vn -0.987727 0.156188 0.000000
vn -0.987727 0.156188 0.000000
vn -0.987727 0.156188 0.000000
vn -0.000001 -0.810097 -0.586296
vn -0.000001 -0.810097 -0.586296
vn -0.000001 -0.810097 -0.586296
vn -0.000001 -0.810097 -0.586296
vn -0.586287 -0.810103 0.000000
vn -0.586287 -0.810103 0.000000
vn -0.586287 -0.810103 0.000000
vn -0.586287 -0.810103 0.000000
vn 0.586293 -0.810099 0.000000
vn 0.586293 -0.810099 0.000000
vn 0.586293 -0.810099 0.000000
vn 0.586293 -0.810099 0.000000
vn -0.000001 -0.810099 0.586293
vn -0.000001 -0.810099 0.586293
vn -0.000001 -0.810099 0.586293
vn -0.000001 -0.810099 0.586293
vn 1.000000 0.000000 -0.000007
vn 1.000000 0.000000 -0.000007
vn 1.000000 0.000000 -0.000007
vn 1.000000 0.000000 -0.000007
vn -0.822496 0.000000 0.568771
vn -0.822496 0.000000 0.568772
vn -0.822496 0.000000 0.568771
vn -0.822496 0.000000 0.568772
vn 0.000276 0.000000 -1.000000
vn 0.000276 0.000000 -1.000000
vn 0.000276 0.000000 -1.000000
vn 0.000276 0.000000 -1.000000
vn 1.000000 0.000000 0.000002
vn 1.000000 0.000000 0.000002
vn 1.000000 0.000000 0.000002
vn 1.000000 0.000000 0.000002
vn 0.000050 0.000000 -1.000000
vn 0.000050 0.000000 -1.000000
vn 0.000050 0.000000 -1.000000
vn 0.000050 0.000000 -1.000000
vn -1.000000 0.000000 -0.000002
vn -1.000000 0.000000 -0.000002
vn -1.000000 0.000000 -0.000002
vn -1.000000 0.000000 -0.000002
vn 0.000131 0.000000 1.000000
vn 0.000131 0.000000 1.000000
vn 0.000131 0.000000 1.000000
vn 0.000131 0.000000 1.000000
vn 0.000786 0.000000 -1.000000
vn 0.000786 0.000000 -1.000000
vn 0.000786 0.000000 -1.000000
vn 0.000786 0.000000 -1.000000
vn -1.000000 0.000000 0.000009
vn -1.000000 0.000000 0.000009
vn -1.000000 0.000000 0.000009
vn -1.000000 0.000000 0.000009
vn 0.000306 0.000000 1.000000
vn 0.000306 0.000000 1.000000
vn 0.000306 0.000000 1.000000
vn 0.000306 0.000000 1.000000
vn 1.000000 0.000000 -0.000009
vn 1.000000 0.000000 -0.000009
vn 1.000000 0.000000 -0.000009
vn 1.000000 0.000000 -0.000009
vn -0.000923 0.000000 1.000000
vn -0.000923 0.000000 1.000000
vn -0.000923 0.000000 1.000000
vn -0.000923 0.000000 1.000000
vn 1.000000 0.000000 0.000001
vn 1.000000 0.000000 0.000001
vn 1.000000 0.000000 0.000001
vn 1.000000 0.000000 0.000001
vn -0.000232 0.000000 -1.000000
vn -0.000232 0.000000 -1.000000
vn -0.000232 0.000000 -1.000000
vn -0.000232 0.000000 -1.000000
vn -1.000000 0.000000 -0.000001
vn -1.000000 0.000000 -0.000001
vn -1.000000 0.000000 -0.000001
vn -1.000000 0.000000 -0.000001
s off
f 9/1/1 48/76/2 47/75/3
f 3/4/4 4/3/5 6/5/6 5/6/7
f 5/6/8 6/5/9 41/69/10 11/7/11 12/8/12
f 7/9/13 8/10/14 2/11/15 1/12/16
f 10/2/17 42/70/18 41/69/19 6/5/20 4/3/21
f 12/8/22 9/1/23 47/75/24 3/4/25 5/6/26
f 17/25/27 18/26/28 39/64/29 37/61/30
f 28/46/31 36/58/32 33/54/33 22/35/34
f 24/32/35 35/57/36 34/55/37 21/31/38
f 31/51/39 40/65/40 38/62/41 20/39/42
f 1/12/43 2/11/44 43/71/45 44/72/46 13/14/47
f 2/11/48 8/10/49 15/15/50 14/13/51 43/71/52
f 16/16/53 46/74/54 45/73/55
f 7/9/56 1/12/57 13/14/58 16/16/59 45/73/60
f 18/17/61 44/72/62 14/13/63
f 20/19/64 48/76/65 9/1/66
f 22/22/67 11/7/68 42/70/69
f 24/24/70 46/74/71 16/16/72
f 50/92/73 49/93/74 51/94/75
f 52/95/76 53/96/77 54/97/78
f 57/98/79 56/99/80 58/100/81
f 58/100/82 56/99/83 59/101/84
f 61/102/85 60/103/86 62/104/87
f 62/104/88 60/103/89 63/105/90
f 55/106/91 53/96/92 52/95/93
f 28/107/94 27/108/95 25/109/96
f 41/69/97 42/70/98 11/7/99
f 44/72/100 43/71/101 14/13/102
f 14/13/103 15/15/104 21/21/105 18/17/106
f 45/73/107 46/74/108 15/15/109 8/10/110 7/9/111
f 16/16/112 13/14/113 17/18/114 24/24/115
f 15/15/116 46/74/117 24/24/118 21/21/119
f 32/52/120 22/30/121 33/53/122 35/57/123
f 32/52/124 35/57/125 24/32/126 30/50/127
f 23/29/128 22/30/129 32/52/130 29/48/131
f 28/46/132 22/35/133 19/36/134 26/44/135
f 18/33/136 21/34/137 34/56/138 36/58/139
f 18/33/140 36/58/141 28/46/142 25/42/143
f 39/64/144 27/45/145 20/28/146 38/63/147
f 39/64/148 18/26/149 25/41/150 27/45/151
f 20/28/152 27/45/153 26/43/154 19/27/155
f 31/51/156 20/39/157 23/40/158 29/47/159
f 24/37/160 17/38/161 37/60/162 40/65/163
f 24/37/164 40/65/165 31/51/166 30/49/167
f 13/14/168 44/72/169 18/17/170 17/18/171
f 47/75/172 48/76/173 10/2/174 4/3/175 3/4/176
f 9/1/177 12/8/178 23/23/179 20/19/180
f 10/2/181 48/76/182 20/19/183 19/20/184
f 12/8/185 11/7/186 22/22/187 23/23/188
f 22/22/189 42/70/190 10/2/191 19/20/192
f 26/43/193 27/45/194 49/78/195 50/77/196
f 27/45/197 28/68/198 51/79/199 49/78/200
f 28/68/201 26/43/202 50/77/203 51/79/204
f 32/52/205 30/50/206 54/81/207 53/80/208
f 30/50/209 31/67/210 52/82/211 54/81/212
f 29/110/213 32/111/214 53/84/215 55/83/216
f 31/59/217 29/112/218 55/83/219 52/85/220
f 33/113/221 36/114/222 56/86/223 57/115/224
f 35/116/225 33/117/226 57/118/227 58/119/228
f 36/120/229 34/121/230 59/88/231 56/87/232
f 34/66/233 35/122/234 58/123/235 59/89/236
f 38/124/237 40/125/238 60/90/239 61/126/240
f 39/127/241 38/128/242 61/129/243 62/130/244
f 40/131/245 37/132/246 63/133/247 60/91/248
f 37/134/249 39/135/250 62/136/251 63/137/252
