# This file uses centimeters as units for non-parametric coordinates.

v 54.307251 -203.151245 19.496307
v 19.714661 -107.564392 21.150665
v 115.440369 -395.040100 20.002136
v 82.498169 -294.040405 19.112091
v 98.448792 -180.241394 7.362061
v 60.096130 -92.404556 13.497009
v 62.037048 -184.626312 35.934448
v 37.466736 -95.822983 32.783203
v 134.609375 -387.841858 32.496185
v 160.563354 -378.095642 6.187286
v 99.148865 -290.764282 28.373413
v 112.307129 -283.764099 10.530701
v 44.877625 -29.280319 8.537598
v 14.108887 -33.545837 38.111572
v -0.970764 -47.441483 21.150665
v 100.148621 -179.602722 -0.002441
v 66.778870 -92.720795 2.528687
v 162.264130 -377.458252 -1.150970
v 116.089172 -279.342102 -2.157898
v 46.578369 -28.641663 -0.002441
v 29.656372 11.135178 7.335815
v 3.702393 1.389160 33.644714
v -15.466919 -5.809250 21.150665
v 31.356812 11.773300 -0.002441
v 54.307251 -203.151245 -19.481049
v 19.714661 -107.564392 -21.154938
v 115.440369 -395.040100 -22.303314
v 82.498169 -294.040405 -19.116364
v 98.448792 -180.241394 -7.366333
v 62.333374 -91.295090 -11.140137
v 65.115356 -183.470764 -33.400574
v 39.128723 -95.198135 -32.165222
v 160.563354 -378.095642 -8.488007
v 99.148865 -290.764282 -28.377686
v 111.564636 -279.488678 -9.848938
v 44.877625 -29.280319 -8.541260
v 14.108887 -33.545837 -38.115234
v -0.970764 -47.441483 -21.154938
v 29.656372 11.135178 -7.339478
v 0.880737 0.329361 -27.602539
v -15.466919 -5.809250 -21.154938
v 131.787689 -388.901611 -28.751068
v 10.001221 7.847824 1.719360
v 140.076599 -392.489044 0.570831
v 12.448730 -36.525955 1.040497
v 25.758057 -99.417648 1.040497
v 66.130981 -186.009293 1.040497
v 89.035034 -291.927002 0.939941
v 120.602722 -394.096313 -1.149292
v -10.304565 -4.865189 -0.003510
v 81.298523 -288.883514 21.150665
v 95.966492 -276.971497 32.115784
v 117.482910 -266.478333 10.926514
v 121.620178 -263.479614 -2.015381
v 81.862488 -290.503235 -21.154938
v 96.927490 -278.087402 -31.697693
v 117.975464 -266.713257 -10.468750
v 90.267029 -285.446625 1.040497
v 51.641235 -195.440918 21.150665
v 93.695679 -196.639938 7.578430
v 51.872864 -196.107101 -21.154938
v 93.837280 -196.809998 -7.453918
v 64.693604 -190.979004 0.968475
v 65.022583 -194.525223 32.573242
v 96.423950 -197.509827 -0.480042
v 68.379822 -196.050873 -30.473938
v 58.305664 -108.759079 12.019501
v 38.182678 -106.287155 30.578003
v 22.188416 -113.602676 19.398041
v 60.932617 -103.750687 2.123718
v 57.644958 -104.215088 -9.846802
v 39.546814 -104.146576 -29.675598
v 21.575012 -111.842499 -19.402313
v 29.016724 -110.001068 0.954132
v 133.757935 -375.455688 35.857391
v 160.845642 -366.443604 8.535919
v 163.542206 -366.355682 -2.004242
v 160.585327 -365.068634 -11.422272
v 132.589386 -382.028809 -33.029633
vt 0.048975 0.122334
vt 0.049052 0.122144
vt 0.049089 0.122332
vt 0.049121 0.122136
vt 0.048968 0.122798
vt 0.048874 0.122784
vt 0.049011 0.122583
vt 0.048957 0.122566
vt 0.049077 0.122331
vt 0.049069 0.122348
vt 0.049077 0.122353
vt 0.049132 0.122113
vt 0.049124 0.122127
vt 0.049127 0.122114
vt 0.048968 0.122799
vt 0.049020 0.122563
vt 0.049070 0.121953
vt 0.049095 0.121847
vt 0.049178 0.121959
vt 0.049188 0.121867
vt 0.049168 0.121963
vt 0.049194 0.121857
vt 0.049053 0.122112
vt 0.049024 0.122555
vt 0.049026 0.122553
vt 0.048950 0.122537
vt 0.049029 0.122128
vt 0.049020 0.122109
vt 0.048850 0.122776
vt 0.048927 0.122549
vt 0.049051 0.121946
vt 0.049077 0.121841
vt 0.048983 0.122364
vt 0.048964 0.122361
vt 0.048959 0.122327
vt 0.048948 0.122320
vt 0.048953 0.122271
vt 0.049011 0.122115
vt 0.049003 0.122082
vt 0.048838 0.122760
vt 0.048845 0.122740
vt 0.048907 0.122529
vt 0.048921 0.122537
vt 0.049051 0.122078
vt 0.048999 0.122060
vt 0.049051 0.122090
vt 0.048892 0.122757
vt 0.048950 0.122527
vt 0.049037 0.121939
vt 0.049030 0.121899
vt 0.049066 0.121836
vt 0.049073 0.121820
vt 0.049086 0.121929
vt 0.049111 0.121825
vt 0.049001 0.122091
vt 0.048953 0.122303
vt 0.048996 0.122313
vt 0.048997 0.122295
vt 0.048948 0.122517
vt 0.048904 0.122498
vt 0.048909 0.122517
vt 0.048955 0.122350
vt 0.049115 0.121833
vt 0.049084 0.122084
vt 0.049078 0.122110
vt 0.048893 0.122803
vt 0.048843 0.122789
vt 0.048854 0.122797
vt 0.048870 0.122804
vt 0.048921 0.122782
vt 0.048960 0.122820
vt 0.048854 0.122757
vt 0.049144 0.121843
vt 0.049108 0.121934
vt 0.049018 0.122316
vt 0.048975 0.122537
vt 0.048977 0.122548
vt 0.049016 0.122307
vt 0.048919 0.122523
vn 0.573622 0.271789 0.772715
vn 0.573622 0.271789 0.772715
vn 0.573622 0.271789 0.772715
vn 0.672579 0.252367 0.695663
vn 0.672579 0.252367 0.695664
vn 0.672579 0.252367 0.695664
vn 0.619340 0.316582 0.718466
vn 0.619340 0.316582 0.718467
vn 0.619340 0.316582 0.718467
vn 0.668579 0.377037 0.640972
vn 0.668579 0.377037 0.640972
vn 0.668579 0.377037 0.640972
vn -0.582237 -0.390045 0.713348
vn -0.582237 -0.390045 0.713348
vn -0.582237 -0.390045 0.713348
vn -0.582237 -0.390045 0.713348
vn -0.419597 -0.287586 0.860949
vn -0.419597 -0.287586 0.860949
vn -0.419597 -0.287586 0.860949
vn -0.419597 -0.287586 0.860949
vn -0.549112 -0.151769 0.821853
vn -0.549112 -0.151769 0.821853
vn -0.549112 -0.151769 0.821853
vn -0.459630 -0.142188 0.876654
vn -0.459630 -0.142188 0.876654
vn -0.459630 -0.142188 0.876654
vn 0.648709 0.265524 0.713214
vn 0.648709 0.265524 0.713214
vn 0.648709 0.265524 0.713214
vn 0.629463 0.280175 0.724761
vn 0.629463 0.280175 0.724761
vn 0.629463 0.280175 0.724761
vn -0.632413 -0.220203 0.742674
vn -0.632413 -0.220203 0.742674
vn -0.632413 -0.220203 0.742674
vn -0.531988 -0.050394 0.845251
vn -0.531988 -0.050394 0.845251
vn -0.531988 -0.050394 0.845251
vn -0.464851 -0.159933 0.870825
vn -0.464851 -0.159933 0.870825
vn -0.464851 -0.159933 0.870825
vn -0.588179 -0.285348 0.756718
vn -0.588179 -0.285348 0.756718
vn -0.588179 -0.285348 0.756718
vn 0.616024 0.208204 0.759714
vn 0.616024 0.208204 0.759714
vn 0.616024 0.208204 0.759714
vn 0.666854 0.188427 0.720972
vn 0.666854 0.188427 0.720972
vn 0.666854 0.188427 0.720972
vn -0.382845 -0.349419 0.855182
vn -0.382845 -0.349419 0.855182
vn -0.382845 -0.349419 0.855182
vn -0.382845 -0.349419 0.855182
vn 0.769755 -0.132518 0.624433
vn 0.769755 -0.132518 0.624433
vn 0.769755 -0.132518 0.624433
vn 0.769755 -0.132518 0.624433
vn 0.899645 -0.274240 0.339753
vn 0.899645 -0.274240 0.339753
vn 0.899645 -0.274240 0.339753
vn 0.899645 -0.274240 0.339753
vn 0.825988 0.463766 0.320414
vn 0.825988 0.463766 0.320414
vn 0.825988 0.463766 0.320414
vn 0.825988 0.463766 0.320414
vn 0.911157 0.346481 0.223034
vn 0.911157 0.346481 0.223034
vn 0.911157 0.346481 0.223034
vn 0.911157 0.346481 0.223034
vn 0.883379 0.268587 0.384061
vn 0.883379 0.268587 0.384060
vn 0.883379 0.268587 0.384060
vn 0.883379 0.268587 0.384060
vn 0.933820 -0.232838 0.271601
vn 0.933820 -0.232838 0.271601
vn 0.933820 -0.232838 0.271601
vn 0.933820 -0.232838 0.271601
vn 0.573290 0.282596 -0.769076
vn 0.573290 0.282596 -0.769076
vn 0.573290 0.282596 -0.769076
vn 0.713544 0.260537 -0.650366
vn 0.713544 0.260537 -0.650366
vn 0.713544 0.260537 -0.650366
vn 0.504884 0.227440 -0.832685
vn 0.504884 0.227440 -0.832685
vn 0.504884 0.227440 -0.832685
vn 0.643964 0.381062 -0.663402
vn 0.643964 0.381062 -0.663402
vn 0.643964 0.381062 -0.663402
vn -0.321460 -0.338964 -0.884176
vn -0.321460 -0.338964 -0.884176
vn -0.321460 -0.338964 -0.884176
vn -0.321460 -0.338964 -0.884176
vn -0.463681 -0.123551 -0.877346
vn -0.463681 -0.123551 -0.877346
vn -0.463681 -0.123551 -0.877345
vn 0.648709 0.265524 -0.713214
vn 0.648709 0.265524 -0.713214
vn 0.648709 0.265524 -0.713213
vn 0.415243 0.413601 -0.810252
vn 0.415243 0.413601 -0.810251
vn 0.415243 0.413601 -0.810251
vn -0.632400 -0.220199 -0.742686
vn -0.632400 -0.220199 -0.742686
vn -0.632400 -0.220199 -0.742686
vn -0.403899 0.123573 -0.906419
vn -0.403899 0.123573 -0.906419
vn -0.403899 0.123573 -0.906419
vn -0.417409 -0.143610 -0.897299
vn -0.417409 -0.143610 -0.897299
vn -0.417409 -0.143610 -0.897299
vn -0.573109 -0.305949 -0.760225
vn -0.573109 -0.305949 -0.760225
vn -0.573109 -0.305949 -0.760225
vn 0.636765 0.210323 -0.741819
vn 0.636765 0.210323 -0.741819
vn 0.636765 0.210323 -0.741819
vn 0.664389 0.200128 -0.720095
vn 0.664389 0.200128 -0.720095
vn 0.664389 0.200128 -0.720095
vn -0.463636 -0.327628 -0.823226
vn -0.463636 -0.327628 -0.823226
vn -0.463636 -0.327628 -0.823226
vn -0.463636 -0.327628 -0.823226
vn -0.365702 -0.349524 -0.862610
vn -0.365702 -0.349524 -0.862610
vn -0.365702 -0.349524 -0.862610
vn -0.365702 -0.349524 -0.862610
vn 0.804302 -0.217958 -0.552804
vn 0.804302 -0.217958 -0.552804
vn 0.804302 -0.217958 -0.552804
vn 0.804302 -0.217958 -0.552804
vn 0.875213 -0.395315 -0.278797
vn 0.875213 -0.395315 -0.278797
vn 0.875213 -0.395315 -0.278797
vn 0.875213 -0.395315 -0.278797
vn 0.823117 0.462800 -0.329082
vn 0.823117 0.462800 -0.329082
vn 0.823117 0.462800 -0.329082
vn 0.823117 0.462800 -0.329082
vn 0.911150 0.346479 -0.223066
vn 0.911150 0.346479 -0.223066
vn 0.911150 0.346479 -0.223066
vn 0.911150 0.346479 -0.223066
vn 0.928430 0.277396 -0.247123
vn 0.928430 0.277396 -0.247123
vn 0.928430 0.277396 -0.247123
vn 0.928430 0.277396 -0.247123
vn 0.934091 -0.221269 -0.280205
vn 0.934091 -0.221269 -0.280205
vn 0.934091 -0.221269 -0.280205
vn 0.934091 -0.221269 -0.280205
vn -0.313952 0.940721 0.128370
vn -0.313952 0.940721 0.128370
vn -0.313952 0.940721 0.128370
vn -0.313952 0.940721 0.128370
vn -0.887686 -0.264437 -0.376944
vn -0.887686 -0.264437 -0.376944
vn -0.887686 -0.264437 -0.376944
vn -0.887686 -0.264437 -0.376944
vn 0.560862 -0.827910 0.000002
vn 0.560862 -0.827910 0.000002
vn 0.560862 -0.827910 0.000002
vn 0.560862 -0.827910 0.000002
vn 0.084325 -0.996152 -0.023868
vn 0.084325 -0.996152 -0.023868
vn 0.084325 -0.996152 -0.023868
vn -0.457637 -0.122797 -0.880618
vn -0.457638 -0.122797 -0.880618
vn -0.457637 -0.122797 -0.880618
vn -0.308597 0.940068 -0.145056
vn -0.308597 0.940068 -0.145056
vn -0.308597 0.940068 -0.145056
vn -0.308597 0.940068 -0.145056
vn -0.180786 0.983522 0.000000
vn -0.180786 0.983522 0.000000
vn -0.180786 0.983522 0.000000
vn -0.180786 0.983522 0.000000
vn 0.397224 -0.896008 0.198451
vn 0.397224 -0.896008 0.198451
vn 0.397224 -0.896008 0.198451
vn 0.397224 -0.896008 0.198451
vn 0.401658 -0.888415 -0.222239
vn 0.401658 -0.888415 -0.222239
vn 0.401658 -0.888415 -0.222239
vn 0.401658 -0.888415 -0.222239
vn -0.784311 -0.405298 -0.469670
vn -0.784311 -0.405298 -0.469670
vn -0.784311 -0.405298 -0.469670
vn -0.784311 -0.405298 -0.469670
vn -0.829185 -0.229143 -0.509849
vn -0.829185 -0.229143 -0.509849
vn -0.829185 -0.229143 -0.509849
vn -0.829185 -0.229143 -0.509849
vn -0.823539 -0.245129 -0.511562
vn -0.823539 -0.245129 -0.511562
vn -0.823539 -0.245129 -0.511562
vn -0.823539 -0.245129 -0.511562
vn -0.911607 -0.287719 -0.293582
vn -0.911607 -0.287719 -0.293582
vn -0.911607 -0.287719 -0.293582
vn -0.911607 -0.287719 -0.293582
vn -0.798090 -0.399182 0.451339
vn -0.798090 -0.399182 0.451339
vn -0.798090 -0.399182 0.451339
vn -0.798090 -0.399182 0.451339
vn -0.849185 -0.234670 0.473091
vn -0.849185 -0.234670 0.473091
vn -0.849185 -0.234670 0.473091
vn -0.849185 -0.234670 0.473091
vn -0.795777 -0.339921 0.501191
vn -0.795777 -0.339921 0.501191
vn -0.795777 -0.339921 0.501191
vn -0.795777 -0.339921 0.501191
vn -0.942401 0.116740 0.313452
vn -0.942401 0.116740 0.313452
vn -0.942401 0.116740 0.313452
vn -0.942401 0.116740 0.313452
vn -0.912548 -0.297051 0.281100
vn -0.912548 -0.297051 0.281100
vn -0.912548 -0.297051 0.281100
vn -0.912548 -0.297051 0.281100
vn 0.080042 -0.996480 0.024925
vn 0.080042 -0.996480 0.024925
vn 0.080042 -0.996480 0.024925
vn -0.523026 0.847572 -0.089811
vn -0.523026 0.847572 -0.089811
vn -0.523026 0.847572 -0.089811
vn -0.534011 0.840366 0.092826
vn -0.534011 0.840366 0.092826
vn -0.534011 0.840366 0.092826
vn -0.513876 -0.145470 0.845441
vn -0.513876 -0.145470 0.845441
vn -0.513876 -0.145470 0.845441
vn 0.616610 0.245874 0.747889
vn 0.616610 0.245874 0.747889
vn 0.616610 0.245874 0.747889
vn 0.647992 0.239193 0.723114
vn 0.647992 0.239193 0.723114
vn 0.647992 0.239193 0.723114
vn 0.931460 -0.304103 0.199756
vn 0.931460 -0.304103 0.199756
vn 0.931461 -0.304103 0.199756
vn 0.931460 -0.304103 0.199756
vn -0.489148 -0.137799 -0.861246
vn -0.489148 -0.137799 -0.861246
vn -0.489148 -0.137798 -0.861246
vn 0.619200 0.245977 -0.745712
vn 0.619200 0.245977 -0.745712
vn 0.619200 0.245977 -0.745712
vn 0.655225 0.238701 -0.716730
vn 0.655225 0.238701 -0.716730
vn 0.655225 0.238701 -0.716730
vn 0.859445 -0.364360 -0.358603
vn 0.859445 -0.364360 -0.358603
vn 0.859445 -0.364360 -0.358603
vn 0.859445 -0.364360 -0.358603
vn -0.928081 0.069816 -0.365775
vn -0.928081 0.069816 -0.365775
vn -0.928081 0.069816 -0.365775
vn -0.928081 0.069816 -0.365775
vn -0.844352 -0.250895 0.473415
vn -0.844352 -0.250895 0.473415
vn -0.844352 -0.250895 0.473415
vn -0.844352 -0.250895 0.473415
vn 0.888722 0.324863 0.323477
vn 0.888722 0.324863 0.323477
vn 0.888722 0.324863 0.323477
vn 0.888722 0.324863 0.323477
vn -0.565168 -0.186495 -0.803620
vn -0.565168 -0.186495 -0.803620
vn -0.565168 -0.186495 -0.803620
vn 0.857278 0.324653 -0.399594
vn 0.857278 0.324653 -0.399594
vn 0.857278 0.324653 -0.399594
vn 0.857278 0.324653 -0.399594
vn 0.632548 -0.133748 0.762886
vn 0.632548 -0.133748 0.762886
vn 0.632548 -0.133748 0.762886
vn 0.632548 -0.133748 0.762886
vn 0.639770 -0.103738 -0.761533
vn 0.639770 -0.103738 -0.761533
vn 0.639770 -0.103738 -0.761533
vn 0.639770 -0.103738 -0.761533
vn 0.658944 -0.128181 0.741190
vn 0.658944 -0.128181 0.741190
vn 0.658944 -0.128181 0.741190
vn 0.658944 -0.128181 0.741190
vn -0.536600 -0.106156 0.837133
vn -0.536600 -0.106156 0.837133
vn -0.536600 -0.106156 0.837133
vn 0.831453 0.431748 0.349684
vn 0.831453 0.431748 0.349684
vn 0.831453 0.431748 0.349684
vn 0.831453 0.431748 0.349684
vn 0.692242 -0.252147 -0.676182
vn 0.692242 -0.252147 -0.676182
vn 0.692242 -0.252147 -0.676182
vn 0.692242 -0.252147 -0.676182
vn -0.458713 -0.106430 -0.882188
vn -0.458713 -0.106430 -0.882188
vn -0.458713 -0.106430 -0.882188
vn 0.857551 0.451240 -0.246958
vn 0.857551 0.451240 -0.246958
vn 0.857551 0.451240 -0.246958
vn 0.857551 0.451240 -0.246958
vn -0.773284 -0.332400 -0.539947
vn -0.773284 -0.332400 -0.539947
vn -0.773284 -0.332400 -0.539947
vn -0.773284 -0.332400 -0.539947
vn -0.897736 -0.270214 0.347928
vn -0.897736 -0.270214 0.347928
vn -0.897736 -0.270214 0.347928
vn -0.897736 -0.270214 0.347928
vn -0.703473 -0.238838 0.669389
vn -0.703473 -0.238838 0.669389
vn -0.703473 -0.238838 0.669389
vn -0.660502 -0.251826 0.707334
vn -0.660502 -0.251826 0.707334
vn -0.660502 -0.251826 0.707334
vn -0.864723 -0.004796 0.502226
vn -0.864723 -0.004796 0.502226
vn -0.864723 -0.004796 0.502226
vn -0.864723 -0.004796 0.502226
vn -0.838949 -0.007203 -0.544163
vn -0.838949 -0.007203 -0.544163
vn -0.838949 -0.007203 -0.544163
vn -0.838949 -0.007203 -0.544163
vn -0.548171 -0.178568 -0.817081
vn -0.548171 -0.178568 -0.817081
vn -0.548171 -0.178568 -0.817081
vn -0.455925 -0.262148 0.850536
vn -0.455925 -0.262148 0.850536
vn -0.455925 -0.262148 0.850536
vn 0.728179 -0.142026 0.670510
vn 0.728179 -0.142026 0.670510
vn 0.728179 -0.142026 0.670510
vn 0.728179 -0.142026 0.670510
vn 0.968566 -0.081856 0.234905
vn 0.968566 -0.081856 0.234905
vn 0.968566 -0.081856 0.234905
vn 0.968566 -0.081856 0.234905
vn 0.958252 -0.094013 -0.270025
vn 0.958252 -0.094013 -0.270025
vn 0.958252 -0.094013 -0.270025
vn 0.958252 -0.094013 -0.270025
vn 0.654896 -0.281334 -0.701401
vn 0.654896 -0.281334 -0.701401
vn 0.654896 -0.281334 -0.701401
vn 0.654896 -0.281334 -0.701401
vn -0.142419 -0.511077 -0.847654
vn -0.142419 -0.511077 -0.847654
vn -0.142419 -0.511077 -0.847654
s off
f 5/1/1 67/2/2 7/3/3
f 7/3/4 67/2/5 68/4/6
f 75/5/7 76/6/8 11/7/9
f 11/7/10 76/6/11 12/8/12
f 59/9/13 1/10/14 64/11/15 7/3/16
f 2/12/17 69/13/18 68/4/19 8/14/20
f 3/15/21 75/5/22 11/7/23
f 3/15/24 11/7/25 4/16/26
f 13/17/27 21/18/28 14/19/29
f 14/19/30 21/18/31 22/20/32
f 15/21/33 14/19/34 23/22/35
f 23/22/36 14/19/37 22/20/38
f 2/12/39 8/14/40 15/21/41
f 15/21/42 8/14/43 14/19/44
f 6/23/45 13/17/46 8/14/47
f 8/14/48 13/17/49 14/19/50
f 11/7/51 52/24/52 51/25/53 4/16/54
f 12/8/55 53/26/56 52/24/57 11/7/58
f 6/23/59 67/2/60 70/27/61 17/28/62
f 12/8/63 76/6/64 77/29/65 19/30/66
f 21/18/67 13/17/68 20/31/69 24/32/70
f 13/17/71 6/23/72 17/28/73 20/31/74
f 5/1/75 60/33/76 65/34/77 16/35/78
f 29/36/79 31/37/80 71/38/81
f 31/37/82 72/39/83 71/38/84
f 78/40/85 79/41/86 34/42/87
f 34/42/88 35/43/89 78/40/90
f 26/44/91 32/45/92 72/39/93 73/46/94
f 27/47/95 28/48/96 34/42/97
f 36/49/98 37/50/99 39/51/100
f 37/50/101 40/52/102 39/51/103
f 38/53/104 41/54/105 37/50/106
f 41/54/107 40/52/108 37/50/109
f 26/44/110 38/53/111 32/45/112
f 38/53/113 37/50/114 32/45/115
f 30/55/116 32/45/117 36/49/118
f 32/45/119 37/50/120 36/49/121
f 31/37/122 66/56/123 25/57/124 61/58/125
f 34/42/126 28/48/127 55/59/128 56/60/129
f 35/43/130 34/42/131 56/60/132 57/61/133
f 30/55/134 17/28/135 70/27/136 71/38/137
f 35/43/138 19/30/139 77/29/140 78/40/141
f 39/51/142 24/32/143 20/31/144 36/49/145
f 36/49/146 20/31/147 17/28/148 30/55/149
f 29/36/150 16/35/151 65/34/152 62/62/153
f 22/20/154 21/18/155 43/63/156 23/22/157
f 2/12/158 46/64/159 74/65/160 69/13/161
f 44/66/162 33/67/163 18/68/164 10/69/165
f 3/15/166 49/70/167 44/66/168
f 27/47/169 34/42/170 79/41/171
f 43/63/172 39/51/173 40/52/174 41/54/175
f 43/63/176 21/18/177 24/32/178 39/51/179
f 44/66/180 10/69/181 9/71/182 3/15/183
f 42/72/184 33/67/185 44/66/186 27/47/187
f 23/22/188 50/73/189 45/74/190 15/21/191
f 2/12/192 15/21/193 45/74/194 46/64/195
f 1/10/196 63/75/197 58/76/198 51/25/199
f 4/16/200 48/77/201 49/70/202 3/15/203
f 38/53/204 45/74/205 50/73/206 41/54/207
f 46/64/208 45/74/209 38/53/210 26/44/211
f 47/78/212 74/65/213 73/46/214 61/58/215
f 48/77/216 58/76/217 55/59/218 28/48/219
f 49/70/220 48/77/221 28/48/222 27/47/223
f 44/66/224 49/70/225 27/47/226
f 43/63/227 50/73/228 23/22/229
f 41/54/230 50/73/231 43/63/232
f 51/25/233 52/24/234 1/10/235
f 52/24/236 53/26/237 60/33/238
f 52/24/239 60/33/240 64/11/241
f 54/79/242 53/26/243 12/8/244 19/30/245
f 56/60/246 55/59/247 25/57/248
f 57/61/249 56/60/250 62/62/251
f 56/60/252 66/56/253 62/62/254
f 57/61/255 54/79/256 19/30/257 35/43/258
f 51/25/259 58/76/260 48/77/261 4/16/262
f 55/59/263 58/76/264 63/75/265 25/57/266
f 65/34/267 60/33/268 53/26/269 54/79/270
f 31/37/271 61/58/272 73/46/273
f 62/62/274 65/34/275 54/79/276 57/61/277
f 64/11/278 60/33/279 5/1/280 7/3/281
f 62/62/282 66/56/283 31/37/284 29/36/285
f 68/4/286 67/2/287 6/23/288 8/14/289
f 68/4/290 69/13/291 7/3/292
f 70/27/293 67/2/294 5/1/295 16/35/296
f 71/38/297 72/39/298 32/45/299 30/55/300
f 73/46/301 72/39/302 31/37/303
f 71/38/304 70/27/305 16/35/306 29/36/307
f 69/13/308 74/65/309 47/78/310 59/9/311
f 73/46/312 74/65/313 46/64/314 26/44/315
f 59/9/316 7/3/317 69/13/318
f 64/11/319 1/10/320 52/24/321
f 63/75/322 47/78/323 61/58/324 25/57/325
f 59/9/326 47/78/327 63/75/328 1/10/329
f 25/57/330 66/56/331 56/60/332
f 9/71/333 75/5/334 3/15/335
f 9/71/336 10/69/337 76/6/338 75/5/339
f 77/29/340 76/6/341 10/69/342 18/68/343
f 78/40/344 77/29/345 18/68/346 33/67/347
f 42/72/348 79/41/349 78/40/350 33/67/351
f 27/47/352 79/41/353 42/72/354
