# This file uses centimeters as units for non-parametric coordinates.

v 0.000000 0.000000 0.000000
v 0.000000 500.000000 -286.746094
v 0.000000 0.000000 -50.000000
v 0.000000 500.000000 -374.992188
v 0.000000 49.290466 0.000000
v 0.000000 49.290466 -50.000000
v -500.000000 500.000000 -286.746094
v -500.000000 500.000000 -374.992188
v -500.000000 49.290466 -50.000000
v -500.000000 49.290466 0.000000
v -500.000000 0.000000 -50.000000
v -500.000000 0.000000 0.000000
v -385.927734 7.391510 -48.255859
v -364.072266 7.391510 -48.255859
v -385.927734 41.666504 -24.804688
v -364.072266 41.666504 -24.804688
v -385.927734 496.990173 -321.640625
v -364.072266 496.990173 -321.640625
v -385.927734 462.715210 -373.283203
v -364.072266 462.715210 -373.283203
v -385.927734 496.990173 -373.283203
v -364.072266 496.990173 -373.283203
v -135.927734 7.391510 -48.255859
v -114.072266 7.391510 -48.255859
v -135.927734 41.666504 -24.804688
v -114.072266 41.666504 -24.804688
v -135.927734 496.990173 -321.640625
v -114.072266 496.990173 -321.640625
v -135.927734 462.715210 -373.283203
v -114.072266 462.715210 -373.283203
v -135.927734 496.990173 -373.283203
v -114.072266 496.990173 -373.283203
vt 2.000115 1.000385
vt 2.000115 0.098066
vt 2.000115 -0.000613
vt 0.999117 1.000385
vt 0.999117 0.098066
vt 0.999117 -0.000613
vt 0.488372 0.156022
vt 0.488566 0.156793
vt 0.487816 0.156972
vt 0.487673 0.156215
vt 0.488579 0.156843
vt 0.487817 0.157022
vt 0.487464 0.178879
vt 0.487486 0.178870
vt 0.487485 0.178930
vt 0.487463 0.178938
vt 0.488039 0.179721
vt 0.488016 0.179720
vt 0.487587 0.178897
vt 0.488070 0.179669
vt 0.488046 0.179668
vt 0.487565 0.178906
vt 0.487746 0.178752
vt 0.487775 0.178738
vt 0.487775 0.178809
vt 0.487745 0.178821
vt 0.488349 0.179738
vt 0.488319 0.179737
vt 0.487882 0.178776
vt 0.488378 0.179679
vt 0.488348 0.179678
vt 0.487852 0.178788
vt 0.017672 0.046244
vt 0.017039 0.046244
vt 0.019373 0.043007
vt 0.019732 0.043007
vt 0.019373 0.042653
vt 0.019732 0.042653
vt 0.021831 0.046244
vt 0.019772 0.043007
vt 0.020131 0.043007
vt 0.022465 0.046244
vt 0.019772 0.042653
vt 0.020131 0.042653
vt 0.022321 0.046267
vt 0.022955 0.046267
vt 0.022955 0.049858
vt 0.022321 0.049858
vt 0.021926 0.046267
vt 0.022285 0.046267
vt 0.022285 0.049858
vt 0.021926 0.049858
vn -1.000000 0.000000 0.000000
vn -1.000000 0.000000 0.000000
vn -1.000000 0.000000 0.000000
vn -1.000000 0.000000 0.000000
vn -1.000000 0.000000 0.000000
vn -1.000000 0.000000 0.000000
vn -1.000000 0.000000 0.000000
vn -1.000000 0.000000 0.000000
vn 1.000000 0.000000 0.000000
vn 1.000000 0.000000 0.000000
vn 1.000000 0.000000 0.000000
vn 1.000000 0.000000 0.000000
vn 1.000000 0.000000 0.000000
vn 1.000000 0.000000 0.000000
vn 1.000000 0.000000 0.000000
vn 1.000000 0.000000 0.000000
vn 0.000000 1.000000 0.000000
vn 0.000000 1.000000 0.000000
vn 0.000000 1.000000 0.000000
vn 0.000000 1.000000 0.000000
vn 0.000000 -0.584875 -0.811123
vn 0.000000 -0.584875 -0.811123
vn 0.000000 -0.584875 -0.811123
vn 0.000000 -0.584875 -0.811123
vn 0.000000 0.536784 0.843720
vn 0.000000 0.536784 0.843720
vn 0.000000 0.536784 0.843720
vn 0.000000 0.536784 0.843720
vn 0.000000 0.000000 -1.000000
vn 0.000000 0.000000 -1.000000
vn 0.000000 0.000000 -1.000000
vn 0.000000 0.000000 -1.000000
vn 0.000000 -1.000000 0.000000
vn 0.000000 -1.000000 0.000000
vn 0.000000 -1.000000 0.000000
vn 0.000000 -1.000000 0.000000
vn 0.000000 0.000000 1.000000
vn 0.000000 0.000000 1.000000
vn 0.000000 0.000000 1.000000
vn 0.000000 0.000000 1.000000
vn 0.000000 0.000000 -1.000000
vn 0.000000 0.000000 -1.000000
vn 0.000000 0.000000 -1.000000
vn 0.000000 0.000000 -1.000000
vn 0.000000 -0.580997 -0.813906
vn 0.000000 -0.580997 -0.813906
vn 0.000000 -0.580997 -0.813906
vn 0.000000 -0.580997 -0.813906
vn 1.000000 0.000000 0.000000
vn 1.000000 0.000000 0.000000
vn 1.000000 0.000000 0.000000
vn 1.000000 0.000000 0.000000
vn 1.000000 0.000000 0.000000
vn -1.000000 -0.000000 0.000000
vn -1.000000 -0.000000 0.000000
vn -1.000000 -0.000000 0.000000
vn -1.000000 -0.000000 0.000000
vn -1.000000 -0.000000 0.000000
vn 0.000000 1.000000 0.000000
vn 0.000000 1.000000 0.000000
vn 0.000000 1.000000 0.000000
vn 0.000000 1.000000 0.000000
vn 0.000000 0.000000 -1.000000
vn 0.000000 0.000000 -1.000000
vn 0.000000 0.000000 -1.000000
vn 0.000000 0.000000 -1.000000
vn 0.000000 -0.580997 -0.813906
vn 0.000000 -0.580997 -0.813906
vn 0.000000 -0.580997 -0.813906
vn 0.000000 -0.580997 -0.813906
vn 1.000000 -0.000000 0.000000
vn 1.000000 -0.000000 0.000000
vn 1.000000 -0.000000 0.000000
vn 1.000000 -0.000000 0.000000
vn 1.000000 -0.000000 0.000000
vn -1.000000 -0.000000 0.000000
vn -1.000000 -0.000000 0.000000
vn -1.000000 -0.000000 0.000000
vn -1.000000 -0.000000 0.000000
vn -1.000000 -0.000000 0.000000
vn 0.000000 1.000000 0.000000
vn 0.000000 1.000000 0.000000
vn 0.000000 1.000000 0.000000
vn 0.000000 1.000000 0.000000
s off
f 7/33/1 8/34/2 9/35/3 10/36/4
f 9/35/5 11/37/6 12/38/7 10/36/8
f 2/39/9 5/40/10 6/41/11 4/42/12
f 6/41/13 5/40/14 1/43/15 3/44/16
f 2/45/17 4/46/18 8/47/19 7/48/20
f 4/7/21 6/8/22 9/9/23 8/10/24
f 5/5/25 2/4/26 7/1/27 10/2/28
f 6/8/29 3/11/30 11/12/31 9/9/32
f 3/49/33 1/50/34 12/51/35 11/52/36
f 12/3/37 1/6/38 5/5/39 10/2/40
f 21/13/41 22/14/42 20/15/43 19/16/44
f 19/16/45 20/15/46 14/17/47 13/18/48
f 14/17/49 20/15/50 22/14/51 18/19/52 16/20/53
f 19/16/54 13/18/55 15/21/56 17/22/57 21/13/58
f 17/22/59 18/19/60 22/14/61 21/13/62
f 31/23/63 32/24/64 30/25/65 29/26/66
f 29/26/67 30/25/68 24/27/69 23/28/70
f 24/27/71 30/25/72 32/24/73 28/29/74 26/30/75
f 29/26/76 23/28/77 25/31/78 27/32/79 31/23/80
f 27/32/81 28/29/82 32/24/83 31/23/84
