# This file uses centimeters as units for non-parametric coordinates.

v 121.421875 0.000610 -50.296875
v 92.931641 0.000610 -92.937500
v 50.293945 0.000610 -121.425781
v 0.000000 0.000610 -131.433594
v -50.293945 0.000610 -121.425781
v -92.932617 0.000610 -92.937500
v -121.422852 0.000610 -50.296875
v -131.425781 0.000610 0.000000
v -121.422852 0.000610 50.285156
v -92.932617 0.000610 92.921875
v -50.293945 0.000610 121.417969
v 0.000000 0.000610 131.417969
v 50.293945 0.000610 121.417969
v 92.931641 0.000610 92.921875
v 121.421875 0.000610 50.312500
v 131.425781 0.000610 0.000000
v 121.421875 38.524048 -50.296875
v 92.931641 38.524048 -92.937500
v 50.293945 38.524048 -121.425781
v 0.000000 38.524048 -131.433594
v -50.293945 38.524048 -121.425781
v -92.932617 38.524048 -92.937500
v -121.422852 38.524048 -50.296875
v -131.425781 38.524048 0.000000
v -121.422852 38.524048 50.285156
v -92.932617 38.524048 92.921875
v -50.293945 38.524048 121.417969
v 0.000000 38.524048 131.417969
v 50.293945 38.524048 121.417969
v 92.931641 38.524048 92.921875
v 121.421875 38.524048 50.312500
v 131.425781 38.524048 0.000000
v 0.000000 0.000610 0.000000
v 94.632813 38.718262 -39.191406
v 72.428711 38.718262 -72.429688
v 39.197266 38.718262 -94.632813
v 0.000000 38.718262 -102.437500
v -39.196289 38.718262 -94.632813
v -72.427734 38.718262 -72.429688
v -94.631836 38.718262 -39.195313
v -102.428711 38.718262 0.000000
v -94.631836 38.718262 39.191406
v -72.427734 38.718262 72.429688
v -39.196289 38.718262 94.632813
v 0.000000 38.718262 102.421875
v 39.197266 38.718262 94.632813
v 72.428711 38.718262 72.429688
v 94.632813 38.718262 39.207031
v 102.426758 38.718262 0.000000
v 79.012695 71.586060 -32.730469
v 60.474609 71.586060 -60.480469
v -0.002930 71.586304 0.003906
v 32.727539 71.586060 -79.023438
v 0.000000 71.586060 -85.527344
v -32.728516 71.586060 -79.023438
v -60.474609 71.586060 -60.480469
v -79.014648 71.586060 -32.734375
v -85.523438 71.586060 0.000000
v -79.014648 71.586060 32.714844
v -60.474609 71.586060 60.464844
v -32.728516 71.586060 79.011719
v 0.000000 71.586060 85.523438
v 32.727539 71.586060 79.011719
v 60.474609 71.586060 60.464844
v 79.012695 71.586060 32.730469
v 85.521484 71.586060 0.000000
vt 0.094155 0.209862
vt 0.094278 0.209863
vt 0.094278 0.209716
vt 0.094155 0.209715
vt 0.094334 0.209865
vt 0.094335 0.209717
vt 0.094315 0.209866
vt 0.094315 0.209719
vt 0.094222 0.209868
vt 0.094222 0.209720
vt 0.094069 0.209869
vt 0.094070 0.209720
vt 0.093880 0.209869
vt 0.093881 0.209721
vt 0.093685 0.209869
vt 0.093685 0.209721
vt 0.093512 0.209868
vt 0.093512 0.209720
vt 0.093389 0.209867
vt 0.093389 0.209719
vt 0.093335 0.209865
vt 0.093335 0.209718
vt 0.093357 0.209864
vt 0.093357 0.209716
vt 0.093451 0.209862
vt 0.093451 0.209715
vt 0.093603 0.209861
vt 0.093603 0.209715
vt 0.093790 0.209861
vt 0.093790 0.209714
vt 0.093983 0.209861
vt 0.093984 0.209714
vt 0.093835 0.209865
vt 0.094044 0.209590
vt 0.094124 0.209590
vt 0.093835 0.209591
vt 0.094160 0.209591
vt 0.094147 0.209592
vt 0.094087 0.209592
vt 0.093987 0.209592
vt 0.093865 0.209593
vt 0.093738 0.209593
vt 0.093625 0.209592
vt 0.093545 0.209592
vt 0.093510 0.209591
vt 0.093524 0.209591
vt 0.093585 0.209590
vt 0.093684 0.209590
vt 0.093806 0.209589
vt 0.093932 0.209590
vt 0.094181 0.209716
vt 0.094085 0.209715
vt 0.094224 0.209717
vt 0.094209 0.209718
vt 0.094136 0.209718
vt 0.094018 0.209719
vt 0.093871 0.209719
vt 0.093718 0.209719
vt 0.093584 0.209719
vt 0.093488 0.209718
vt 0.093445 0.209717
vt 0.093462 0.209716
vt 0.093535 0.209715
vt 0.093654 0.209715
vt 0.093800 0.209714
vt 0.093951 0.209714
vn 0.831481 0.000000 -0.555552
vn 0.831481 0.000000 -0.555552
vn 0.831481 0.000000 -0.555552
vn 0.831481 0.000000 -0.555552
vn 0.555552 0.000000 -0.831482
vn 0.555552 0.000000 -0.831482
vn 0.555552 0.000000 -0.831482
vn 0.555552 0.000000 -0.831482
vn 0.195160 0.000000 -0.980771
vn 0.195160 0.000000 -0.980771
vn 0.195160 0.000000 -0.980771
vn 0.195160 0.000000 -0.980771
vn -0.195160 0.000000 -0.980771
vn -0.195160 0.000000 -0.980771
vn -0.195160 0.000000 -0.980771
vn -0.195160 0.000000 -0.980771
vn -0.555544 0.000000 -0.831487
vn -0.555544 0.000000 -0.831487
vn -0.555544 0.000000 -0.831487
vn -0.555544 0.000000 -0.831487
vn -0.831481 0.000000 -0.555552
vn -0.831481 0.000000 -0.555552
vn -0.831481 0.000000 -0.555552
vn -0.831481 0.000000 -0.555552
vn -0.980792 0.000000 -0.195058
vn -0.980792 0.000000 -0.195058
vn -0.980792 0.000000 -0.195058
vn -0.980792 0.000000 -0.195058
vn -0.980783 0.000000 0.195101
vn -0.980783 0.000000 0.195101
vn -0.980783 0.000000 0.195101
vn -0.980783 0.000000 0.195101
vn -0.831458 0.000000 0.555588
vn -0.831458 0.000000 0.555588
vn -0.831458 0.000000 0.555588
vn -0.831458 0.000000 0.555588
vn -0.555649 0.000000 0.831417
vn -0.555649 0.000000 0.831417
vn -0.555649 0.000000 0.831417
vn -0.555649 0.000000 0.831417
vn -0.195014 0.000000 0.980801
vn -0.195014 0.000000 0.980801
vn -0.195014 0.000000 0.980801
vn -0.195014 0.000000 0.980801
vn 0.195014 0.000000 0.980801
vn 0.195014 0.000000 0.980801
vn 0.195014 0.000000 0.980801
vn 0.195014 0.000000 0.980801
vn 0.555658 0.000000 0.831411
vn 0.555658 0.000000 0.831411
vn 0.555658 0.000000 0.831411
vn 0.555658 0.000000 0.831411
vn 0.831293 0.000000 0.555834
vn 0.831293 0.000000 0.555834
vn 0.831293 0.000000 0.555834
vn 0.831293 0.000000 0.555834
vn 0.980800 0.000000 0.195018
vn 0.980800 0.000000 0.195018
vn 0.980800 0.000000 0.195018
vn 0.980800 0.000000 0.195018
vn 0.980788 0.000000 -0.195076
vn 0.980788 0.000000 -0.195076
vn 0.980788 0.000000 -0.195076
vn 0.980788 0.000000 -0.195076
vn 0.000000 -1.000000 0.000000
vn 0.000000 -1.000000 0.000000
vn 0.000000 -1.000000 0.000000
vn 0.000000 -1.000000 0.000000
vn 0.000000 -1.000000 0.000000
vn 0.000000 -1.000000 0.000000
vn 0.000000 -1.000000 0.000000
vn 0.000000 -1.000000 0.000000
vn 0.000000 -1.000000 0.000000
vn 0.000000 -1.000000 0.000000
vn 0.000000 -1.000000 0.000000
vn 0.000000 -1.000000 0.000000
vn 0.000000 -1.000000 0.000000
vn 0.000000 -1.000000 0.000000
vn 0.000000 -1.000000 0.000000
vn 0.000000 -1.000000 0.000000
vn 0.000000 -1.000000 0.000000
vn 0.000000 -1.000000 0.000000
vn 0.000000 -1.000000 0.000000
vn 0.000000 -1.000000 0.000000
vn 0.000000 -1.000000 0.000000
vn 0.000000 -1.000000 0.000000
vn 0.000000 -1.000000 0.000000
vn 0.000000 -1.000000 0.000000
vn 0.000000 -1.000000 0.000000
vn 0.000000 -1.000000 0.000000
vn 0.000000 -1.000000 0.000000
vn 0.000000 -1.000000 0.000000
vn 0.000000 -1.000000 0.000000
vn 0.000000 -1.000000 0.000000
vn 0.000000 -1.000000 0.000000
vn 0.000000 -1.000000 0.000000
vn 0.000000 -1.000000 0.000000
vn 0.000000 -1.000000 0.000000
vn 0.000000 -1.000000 0.000000
vn 0.000000 -1.000000 0.000000
vn 0.000000 -1.000000 0.000000
vn 0.000000 -1.000000 0.000000
vn 0.000000 -1.000000 0.000000
vn 0.000000 -1.000000 0.000000
vn 0.000000 -1.000000 0.000000
vn 0.000000 -1.000000 0.000000
vn 0.000000 -1.000000 0.000000
vn 0.000000 -1.000000 0.000000
vn 0.000000 -1.000000 0.000000
vn 0.000000 -1.000000 0.000000
vn 0.000000 -1.000000 0.000000
vn 0.000000 -1.000000 0.000000
vn 0.000002 1.000000 -0.000002
vn 0.000002 1.000000 -0.000002
vn 0.000002 1.000000 -0.000002
vn 0.000002 1.000000 -0.000002
vn 0.000002 1.000000 -0.000002
vn 0.000002 1.000000 -0.000002
vn 0.000001 1.000000 -0.000003
vn 0.000001 1.000000 -0.000003
vn 0.000001 1.000000 -0.000003
vn -0.000001 1.000000 -0.000003
vn -0.000001 1.000000 -0.000003
vn -0.000001 1.000000 -0.000003
vn -0.000002 1.000000 -0.000002
vn -0.000002 1.000000 -0.000002
vn -0.000002 1.000000 -0.000002
vn -0.000002 1.000000 -0.000002
vn -0.000002 1.000000 -0.000002
vn -0.000002 1.000000 -0.000002
vn -0.000003 1.000000 -0.000000
vn -0.000003 1.000000 -0.000000
vn -0.000003 1.000000 -0.000000
vn -0.000003 1.000000 0.000000
vn -0.000003 1.000000 0.000000
vn -0.000003 1.000000 0.000000
vn -0.000002 1.000000 0.000002
vn -0.000002 1.000000 0.000002
vn -0.000002 1.000000 0.000002
vn -0.000002 1.000000 0.000002
vn -0.000002 1.000000 0.000002
vn -0.000002 1.000000 0.000002
vn -0.000001 1.000000 0.000003
vn -0.000001 1.000000 0.000003
vn -0.000001 1.000000 0.000003
vn 0.000001 1.000000 0.000003
vn 0.000001 1.000000 0.000003
vn 0.000001 1.000000 0.000003
vn 0.000002 1.000000 0.000002
vn 0.000002 1.000000 0.000002
vn 0.000002 1.000000 0.000002
vn 0.000002 1.000000 0.000002
vn 0.000002 1.000000 0.000002
vn 0.000002 1.000000 0.000002
vn 0.000003 1.000000 0.000001
vn 0.000003 1.000000 0.000001
vn 0.000003 1.000000 0.000001
vn 0.000003 1.000000 -0.000001
vn 0.000003 1.000000 -0.000001
vn 0.000003 1.000000 -0.000001
vn 0.005678 0.999977 -0.003793
vn 0.005678 0.999977 -0.003793
vn 0.005678 0.999977 -0.003793
vn 0.005678 0.999977 -0.003793
vn 0.003793 0.999977 -0.005677
vn 0.003793 0.999977 -0.005677
vn 0.003793 0.999977 -0.005677
vn 0.003793 0.999977 -0.005677
vn 0.001333 0.999977 -0.006697
vn 0.001333 0.999977 -0.006697
vn 0.001333 0.999977 -0.006697
vn 0.001333 0.999977 -0.006697
vn -0.001333 0.999977 -0.006697
vn -0.001333 0.999977 -0.006697
vn -0.001333 0.999977 -0.006697
vn -0.001333 0.999977 -0.006697
vn -0.003793 0.999977 -0.005677
vn -0.003793 0.999977 -0.005677
vn -0.003793 0.999977 -0.005677
vn -0.003793 0.999977 -0.005677
vn -0.005677 0.999977 -0.003793
vn -0.005677 0.999977 -0.003793
vn -0.005677 0.999977 -0.003793
vn -0.005677 0.999977 -0.003793
vn -0.006697 0.999977 -0.001332
vn -0.006697 0.999977 -0.001332
vn -0.006697 0.999977 -0.001332
vn -0.006697 0.999977 -0.001332
vn -0.006697 0.999977 0.001332
vn -0.006697 0.999977 0.001332
vn -0.006697 0.999977 0.001332
vn -0.006697 0.999977 0.001332
vn -0.005679 0.999977 0.003794
vn -0.005679 0.999977 0.003794
vn -0.005679 0.999977 0.003794
vn -0.005679 0.999977 0.003794
vn -0.003795 0.999977 0.005679
vn -0.003795 0.999977 0.005679
vn -0.003795 0.999977 0.005679
vn -0.003795 0.999977 0.005679
vn -0.001332 0.999977 0.006698
vn -0.001332 0.999977 0.006698
vn -0.001332 0.999977 0.006698
vn -0.001332 0.999977 0.006698
vn 0.001332 0.999977 0.006698
vn 0.001332 0.999977 0.006698
vn 0.001332 0.999977 0.006698
vn 0.001332 0.999977 0.006698
vn 0.003795 0.999977 0.005679
vn 0.003795 0.999977 0.005679
vn 0.003795 0.999977 0.005679
vn 0.003795 0.999977 0.005679
vn 0.005677 0.999977 0.003795
vn 0.005677 0.999977 0.003795
vn 0.005677 0.999977 0.003795
vn 0.005677 0.999977 0.003795
vn 0.006697 0.999977 0.001332
vn 0.006697 0.999977 0.001332
vn 0.006697 0.999977 0.001332
vn 0.006697 0.999977 0.001332
vn 0.006697 0.999977 -0.001332
vn 0.006697 0.999977 -0.001332
vn 0.006697 0.999977 -0.001332
vn 0.006697 0.999977 -0.001332
vn 0.742436 0.450334 -0.495972
vn 0.742436 0.450334 -0.495972
vn 0.742436 0.450334 -0.495972
vn 0.742436 0.450334 -0.495972
vn 0.496076 0.450276 -0.742402
vn 0.496076 0.450276 -0.742402
vn 0.496076 0.450276 -0.742402
vn 0.496076 0.450276 -0.742402
vn 0.174208 0.450352 -0.875691
vn 0.174208 0.450352 -0.875691
vn 0.174208 0.450352 -0.875691
vn 0.174208 0.450352 -0.875691
vn -0.174209 0.450348 -0.875693
vn -0.174209 0.450348 -0.875693
vn -0.174209 0.450348 -0.875693
vn -0.174209 0.450348 -0.875693
vn -0.496086 0.450258 -0.742405
vn -0.496086 0.450258 -0.742405
vn -0.496086 0.450258 -0.742405
vn -0.496086 0.450258 -0.742405
vn -0.742410 0.450299 -0.496042
vn -0.742410 0.450299 -0.496042
vn -0.742410 0.450299 -0.496042
vn -0.742410 0.450299 -0.496042
vn -0.875694 0.450364 -0.174162
vn -0.875694 0.450364 -0.174162
vn -0.875694 0.450364 -0.174162
vn -0.875694 0.450364 -0.174162
vn -0.875667 0.450397 0.174213
vn -0.875667 0.450397 0.174213
vn -0.875667 0.450397 0.174213
vn -0.875667 0.450397 0.174213
vn -0.742361 0.450487 0.495945
vn -0.742361 0.450487 0.495945
vn -0.742361 0.450487 0.495945
vn -0.742361 0.450487 0.495945
vn -0.496050 0.450505 0.742280
vn -0.496050 0.450505 0.742280
vn -0.496050 0.450505 0.742280
vn -0.496050 0.450505 0.742280
vn -0.174117 0.450348 0.875711
vn -0.174117 0.450348 0.875711
vn -0.174117 0.450348 0.875711
vn -0.174117 0.450348 0.875711
vn 0.174117 0.450352 0.875709
vn 0.174117 0.450352 0.875709
vn 0.174117 0.450352 0.875709
vn 0.174117 0.450352 0.875709
vn 0.496040 0.450522 0.742276
vn 0.496040 0.450522 0.742276
vn 0.496040 0.450522 0.742276
vn 0.496040 0.450522 0.742276
vn 0.742240 0.450522 0.496095
vn 0.742240 0.450522 0.496095
vn 0.742240 0.450522 0.496095
vn 0.742240 0.450522 0.496095
vn 0.875673 0.450428 0.174103
vn 0.875673 0.450428 0.174103
vn 0.875673 0.450428 0.174103
vn 0.875673 0.450428 0.174103
vn 0.875682 0.450395 -0.174142
vn 0.875682 0.450395 -0.174142
vn 0.875682 0.450395 -0.174142
vn 0.875682 0.450395 -0.174142
s off
f 1/1/1 2/2/2 18/3/3 17/4/4
f 2/2/5 3/5/6 19/6/7 18/3/8
f 3/5/9 4/7/10 20/8/11 19/6/12
f 4/7/13 5/9/14 21/10/15 20/8/16
f 5/9/17 6/11/18 22/12/19 21/10/20
f 6/11/21 7/13/22 23/14/23 22/12/24
f 7/13/25 8/15/26 24/16/27 23/14/28
f 8/15/29 9/17/30 25/18/31 24/16/32
f 9/17/33 10/19/34 26/20/35 25/18/36
f 10/19/37 11/21/38 27/22/39 26/20/40
f 11/21/41 12/23/42 28/24/43 27/22/44
f 12/23/45 13/25/46 29/26/47 28/24/48
f 13/25/49 14/27/50 30/28/51 29/26/52
f 14/27/53 15/29/54 31/30/55 30/28/56
f 15/29/57 16/31/58 32/32/59 31/30/60
f 16/31/61 1/1/62 17/4/63 32/32/64
f 2/2/65 1/1/66 33/33/67
f 3/5/68 2/2/69 33/33/70
f 4/7/71 3/5/72 33/33/73
f 5/9/74 4/7/75 33/33/76
f 6/11/77 5/9/78 33/33/79
f 7/13/80 6/11/81 33/33/82
f 8/15/83 7/13/84 33/33/85
f 9/17/86 8/15/87 33/33/88
f 10/19/89 9/17/90 33/33/91
f 11/21/92 10/19/93 33/33/94
f 12/23/95 11/21/96 33/33/97
f 13/25/98 12/23/99 33/33/100
f 14/27/101 13/25/102 33/33/103
f 15/29/104 14/27/105 33/33/106
f 16/31/107 15/29/108 33/33/109
f 1/1/110 16/31/111 33/33/112
f 50/34/113 51/35/114 52/36/115
f 51/35/116 53/37/117 52/36/118
f 53/37/119 54/38/120 52/36/121
f 54/38/122 55/39/123 52/36/124
f 55/39/125 56/40/126 52/36/127
f 56/40/128 57/41/129 52/36/130
f 57/41/131 58/42/132 52/36/133
f 58/42/134 59/43/135 52/36/136
f 59/43/137 60/44/138 52/36/139
f 60/44/140 61/45/141 52/36/142
f 61/45/143 62/46/144 52/36/145
f 62/46/146 63/47/147 52/36/148
f 63/47/149 64/48/150 52/36/151
f 64/48/152 65/49/153 52/36/154
f 65/49/155 66/50/156 52/36/157
f 66/50/158 50/34/159 52/36/160
f 17/4/161 18/3/162 35/51/163 34/52/164
f 18/3/165 19/6/166 36/53/167 35/51/168
f 19/6/169 20/8/170 37/54/171 36/53/172
f 20/8/173 21/10/174 38/55/175 37/54/176
f 21/10/177 22/12/178 39/56/179 38/55/180
f 22/12/181 23/14/182 40/57/183 39/56/184
f 23/14/185 24/16/186 41/58/187 40/57/188
f 24/16/189 25/18/190 42/59/191 41/58/192
f 25/18/193 26/20/194 43/60/195 42/59/196
f 26/20/197 27/22/198 44/61/199 43/60/200
f 27/22/201 28/24/202 45/62/203 44/61/204
f 28/24/205 29/26/206 46/63/207 45/62/208
f 29/26/209 30/28/210 47/64/211 46/63/212
f 30/28/213 31/30/214 48/65/215 47/64/216
f 31/30/217 32/32/218 49/66/219 48/65/220
f 32/32/221 17/4/222 34/52/223 49/66/224
f 34/52/225 35/51/226 51/35/227 50/34/228
f 35/51/229 36/53/230 53/37/231 51/35/232
f 36/53/233 37/54/234 54/38/235 53/37/236
f 37/54/237 38/55/238 55/39/239 54/38/240
f 38/55/241 39/56/242 56/40/243 55/39/244
f 39/56/245 40/57/246 57/41/247 56/40/248
f 40/57/249 41/58/250 58/42/251 57/41/252
f 41/58/253 42/59/254 59/43/255 58/42/256
f 42/59/257 43/60/258 60/44/259 59/43/260
f 43/60/261 44/61/262 61/45/263 60/44/264
f 44/61/265 45/62/266 62/46/267 61/45/268
f 45/62/269 46/63/270 63/47/271 62/46/272
f 46/63/273 47/64/274 64/48/275 63/47/276
f 47/64/277 48/65/278 65/49/279 64/48/280
f 48/65/281 49/66/282 66/50/283 65/49/284
f 49/66/285 34/52/286 50/34/287 66/50/288
