# This file uses centimeters as units for non-parametric coordinates.

v 0.000000 7.425642 109.153748
v 0.000000 7.425642 125.000305
v 249.999863 7.425642 109.153748
v 249.999863 7.425642 125.000305
v 249.999863 -7.425718 109.153748
v 249.999863 -7.425718 125.000305
v 0.000000 -7.425718 109.153748
v 0.000000 -7.425718 125.000305
v 96.127930 7.425642 124.059753
v 96.127930 7.425642 110.094299
v 96.127930 -7.425718 110.094299
v 96.127930 -7.425714 118.501282
v 153.941498 7.425642 124.059753
v 215.917343 7.425642 124.059753
v 196.297302 4.400315 124.060059
v 196.798096 7.425642 120.484314
v 74.679565 -7.425718 124.059753
v 96.127930 -5.153646 124.060059
v 130.624237 -7.425718 124.059753
v 249.999832 1.138902 15.439148
v 166.289215 1.138902 15.439148
v 249.999832 -2.111788 15.439148
v 166.289215 -2.111788 15.439148
v 226.104889 -3.762043 15.439148
v 193.895569 1.138902 15.439148
v 193.895569 -2.111788 15.439148
v 223.539886 1.138902 15.439148
v 223.539886 -2.111788 15.439148
v 191.050415 3.658720 15.439453
v 196.467590 2.657020 15.439148
v 196.467590 -5.578943 15.439148
v 220.628036 2.657020 15.439148
v 220.628036 -5.578943 15.439148
v 248.140854 3.171847 15.439148
v 168.258820 -3.274983 15.439148
v 248.140854 -3.781943 15.439453
v 168.258820 3.591481 15.439453
v 191.050415 -3.332857 15.439148
v 226.104889 3.162296 15.439148
v 83.144531 -2.111788 15.439148
v 83.144531 1.138902 15.439148
v 106.473541 2.789063 15.439148
v 138.682861 -2.111788 15.439148
v 138.682861 1.138902 15.439148
v 109.038391 -2.111788 15.439148
v 109.038391 1.138902 15.439148
v 141.528015 -4.631654 15.439148
v 136.110840 -3.629906 15.439148
v 136.110840 4.606010 15.439148
v 111.950378 -3.629906 15.439148
v 111.950378 4.606010 15.439148
v 84.437561 -4.144781 15.439148
v 164.319611 2.302051 15.439148
v 84.437561 2.809057 15.439148
v 164.319611 -4.564461 15.439453
v 141.528015 2.359878 15.439148
v 106.473541 -4.135275 15.439148
v 0.000000 -2.111788 15.439148
v 0.000000 1.138902 15.439148
v 23.328857 2.789063 15.439148
v 55.538177 -2.111788 15.439148
v 55.538177 1.138902 15.439148
v 25.893860 -2.111788 15.439148
v 25.893860 1.138902 15.439148
v 58.383331 -4.631654 15.439148
v 52.966156 -3.629906 15.439148
v 52.966156 4.606010 15.439148
v 28.805695 -3.629906 15.439148
v 28.805695 4.606010 15.439148
v 1.292877 -4.144781 15.439148
v 81.174927 2.302051 15.439148
v 1.292877 2.809057 15.439148
v 81.174927 -4.564461 15.439453
v 58.383331 2.359878 15.439148
v 23.328857 -4.135275 15.439148
v 0.000000 -7.425671 15.846863
v 0.000000 -7.425671 0.000000
v 249.999832 -7.425671 15.846863
v 249.999832 -7.425671 0.000000
v 249.999832 7.425689 15.846863
v 249.999832 7.425689 0.000000
v 0.000000 7.425689 15.846863
v 0.000000 7.425689 0.000000
v 61.712341 -7.425671 15.846863
v 131.612244 -7.425671 15.846863
v 76.345215 -5.344215 15.846863
v 77.032471 -7.425672 9.479980
v 180.302429 7.425689 15.846863
v 89.837341 7.425689 15.846863
v 166.049500 3.057550 15.846863
v 166.929321 7.425689 11.231995
v 249.999832 -2.111794 110.173340
v 249.999832 1.138899 110.173340
v 248.140854 3.055396 110.173340
v 226.104889 3.051658 110.173340
v 223.539886 1.138899 110.173340
v 220.628036 2.853915 110.173340
v 196.467590 2.853915 110.173340
v 193.895569 1.138899 110.173340
v 191.050415 3.245856 110.173340
v 168.258820 3.219623 110.173340
v 166.289215 1.138899 110.173340
v 164.319611 2.714995 110.173340
v 141.528015 2.737545 110.173340
v 138.682861 1.138899 110.173340
v 136.110840 4.409081 110.173340
v 111.950378 4.409081 110.173340
v 109.038391 1.138899 110.173340
v 106.473541 2.905510 110.173340
v 84.437561 2.913416 110.173340
v 83.144531 1.138899 110.173340
v 81.174927 2.714995 110.173340
v 58.383331 2.737545 110.173340
v 55.538177 1.138899 110.173340
v 52.966156 4.409081 110.173340
v 28.805695 4.409081 110.173340
v 25.893860 1.138899 110.173340
v 23.328857 2.905510 110.173340
v 1.292877 2.913416 110.173340
v 0.000000 1.138899 110.173340
v 0.000000 -2.111794 110.173340
v 1.292877 -4.028333 110.173340
v 23.328857 -4.024612 110.173340
v 25.893860 -2.111794 110.173340
v 28.805695 -3.826833 110.173340
v 52.966156 -3.826833 110.173340
v 55.538177 -2.111794 110.173340
v 58.383331 -4.218793 110.173340
v 81.174927 -4.192577 110.173340
v 83.144531 -2.111794 110.173340
v 84.437561 -4.028333 110.173340
v 106.473541 -4.024612 110.173340
v 109.038391 -2.111794 110.173340
v 111.950378 -3.826833 110.173340
v 136.110840 -3.826833 110.173340
v 138.682861 -2.111794 110.173340
v 141.528015 -4.218793 110.173340
v 164.319611 -4.192577 110.173340
v 166.289215 -2.111794 110.173340
v 168.258820 -3.687931 110.173340
v 191.050415 -3.710499 110.173340
v 193.895569 -2.111794 110.173340
v 196.467590 -5.382018 110.173340
v 220.628036 -5.382018 110.173340
v 223.539886 -2.111794 110.173340
v 226.104889 -3.878464 110.173340
v 248.140854 -3.886333 110.173340
vt 0.496057 0.152314
vt 0.496057 0.152314
vt 0.496057 0.152314
vt 0.496057 0.152314
vt 0.496057 0.152314
vt 0.496057 0.152314
vt 0.496057 0.152314
vt 0.496057 0.152314
vt 0.496057 0.152314
vt 0.496057 0.152314
vt 0.496057 0.152314
vt 0.496057 0.152314
vt 0.496057 0.152314
vt 0.496057 0.152314
vt 0.496057 0.152314
vt 0.496057 0.152314
vt 0.496057 0.152314
vt 0.496057 0.152314
vt 0.496057 0.152314
vt 0.496057 0.152314
vt 0.496057 0.152314
vt 0.496057 0.152314
vt 0.496057 0.152314
vt 0.496057 0.152314
vt 0.496057 0.152314
vt 0.496057 0.152314
vt 0.496057 0.152314
vt 0.496057 0.152314
vt 0.496057 0.152314
vt 0.488358 0.179633
vt 0.488111 0.179600
vt 0.488672 0.154123
vt 0.488674 0.154110
vt 0.488659 0.154125
vt 0.488426 0.154048
vt 0.488415 0.154121
vt 0.488662 0.154054
vt 0.488055 0.179516
vt 0.488089 0.179566
vt 0.488096 0.179555
vt 0.488073 0.179567
vt 0.488396 0.154074
vt 0.488391 0.154086
vt 0.487838 0.179563
vt 0.487852 0.179453
vt 0.488126 0.179574
vt 0.488396 0.179594
vt 0.488368 0.179606
vt 0.488391 0.179606
vt 0.487823 0.179532
vt 0.487833 0.179520
vt 0.488358 0.179633
vt 0.488111 0.179600
vt 0.488659 0.154125
vt 0.488426 0.154048
vt 0.488415 0.154121
vt 0.488662 0.154054
vt 0.488055 0.153996
vt 0.488089 0.154047
vt 0.488096 0.154035
vt 0.488073 0.154047
vt 0.488396 0.154074
vt 0.488391 0.154086
vt 0.487838 0.154043
vt 0.487852 0.153933
vt 0.488089 0.179566
vt 0.488126 0.179574
vt 0.488096 0.179555
vt 0.488396 0.179594
vt 0.488368 0.179606
vt 0.488391 0.179606
vt 0.488674 0.154110
vt 0.488672 0.154123
vt 0.487823 0.154012
vt 0.487833 0.154000
vt 0.488358 0.179633
vt 0.488111 0.179600
vt 0.488672 0.154123
vt 0.488674 0.154110
vt 0.488659 0.154125
vt 0.488426 0.154048
vt 0.488415 0.154121
vt 0.488662 0.154054
vt 0.488055 0.153996
vt 0.488089 0.154047
vt 0.488096 0.154035
vt 0.488073 0.154047
vt 0.488396 0.154074
vt 0.488391 0.154086
vt 0.487838 0.154043
vt 0.487852 0.153933
vt 0.488089 0.179566
vt 0.488126 0.179574
vt 0.488096 0.179555
vt 0.488396 0.179594
vt 0.488368 0.179606
vt 0.488391 0.179606
vt 0.487823 0.154012
vt 0.487833 0.154000
vt 0.496493 0.154363
vt 0.496494 0.154403
vt 0.496445 0.154392
vt 0.496454 0.154373
vt 0.496331 0.154404
vt 0.496334 0.154445
vt 0.496338 0.154399
vt 0.496336 0.154359
vt 0.496390 0.154357
vt 0.496495 0.154360
vt 0.496494 0.154320
vt 0.496389 0.154358
vt 0.496445 0.154369
vt 0.496409 0.154384
vt 0.496438 0.154333
vt 0.496381 0.154348
vt 0.488715 0.153580
vt 0.488717 0.153571
vt 0.488703 0.153555
vt 0.488444 0.153519
vt 0.488411 0.153549
vt 0.488411 0.179069
vt 0.488381 0.179052
vt 0.488115 0.179033
vt 0.488084 0.179045
vt 0.488058 0.179029
vt 0.487821 0.178979
vt 0.487787 0.153511
vt 0.487798 0.179024
vt 0.487800 0.153507
vt 0.488039 0.153494
vt 0.488076 0.153532
vt 0.488076 0.179052
vt 0.488099 0.179049
vt 0.488370 0.179068
vt 0.488407 0.153557
vt 0.488407 0.179077
vt 0.488434 0.153553
vt 0.488702 0.153534
vt 0.488715 0.153580
vt 0.487787 0.153511
vt 0.487800 0.153507
vt 0.488039 0.153494
vt 0.488076 0.153532
vt 0.488076 0.179052
vt 0.488099 0.179049
vt 0.488370 0.179068
vt 0.488407 0.153557
vt 0.488407 0.179077
vt 0.488434 0.153553
vt 0.488702 0.153534
vt 0.488715 0.153580
vt 0.488717 0.153571
vt 0.488703 0.153555
vt 0.488444 0.153519
vt 0.488411 0.153549
vt 0.488411 0.179069
vt 0.488381 0.179052
vt 0.488115 0.179033
vt 0.488084 0.153525
vt 0.488084 0.179045
vt 0.488058 0.153509
vt 0.487821 0.153459
vt 0.488717 0.153571
vt 0.487798 0.153504
vt 0.488703 0.153555
vt 0.488444 0.153519
vt 0.488411 0.153549
vt 0.488411 0.179069
vt 0.488381 0.179052
vt 0.488115 0.179033
vt 0.488084 0.153525
vt 0.488084 0.179045
vt 0.488058 0.153509
vt 0.487821 0.153459
vt 0.487798 0.153504
vt 0.487787 0.179031
vt 0.487800 0.179027
vt 0.488039 0.179014
vt 0.488076 0.179052
vt 0.488099 0.179049
vt 0.488370 0.179068
vt 0.488407 0.153557
vt 0.488407 0.179077
vt 0.488434 0.153553
vt 0.488702 0.153534
vn 0.000000 1.000000 0.000000
vn 0.000000 1.000000 0.000000
vn 0.000000 1.000000 0.000000
vn 0.000000 1.000000 0.000000
vn 1.000000 0.000000 0.000000
vn 1.000000 0.000000 0.000000
vn 1.000000 0.000000 0.000000
vn 1.000000 0.000000 0.000000
vn 0.000000 -1.000000 0.000000
vn 0.000000 -1.000000 0.000000
vn 0.000000 -1.000000 0.000000
vn 0.000000 -1.000000 0.000000
vn 0.000000 -1.000000 0.000000
vn -1.000000 0.000000 0.000000
vn -1.000000 0.000000 0.000000
vn -1.000000 0.000000 0.000000
vn -1.000000 0.000000 0.000000
vn 0.009952 -0.007185 0.999925
vn 0.009952 -0.007185 0.999925
vn 0.009952 -0.007185 0.999925
vn 0.009952 -0.007185 0.999925
vn 0.009952 -0.007185 0.999925
vn 0.009784 0.000000 -0.999952
vn 0.009784 0.000000 -0.999952
vn 0.009784 0.000000 -0.999952
vn 0.009784 0.000000 -0.999952
vn 0.000000 1.000000 0.000000
vn 0.000000 1.000000 0.000000
vn 0.000000 1.000000 0.000000
vn 0.000000 1.000000 0.000000
vn -0.006112 0.000000 -0.999981
vn -0.006112 0.000000 -0.999981
vn -0.006112 0.000000 -0.999981
vn -0.006112 0.000000 -0.999981
vn -0.000000 -1.000000 0.000000
vn -0.000000 -1.000000 0.000000
vn -0.000000 -1.000000 0.000000
vn -0.000000 -1.000000 0.000000
vn -0.000000 -1.000000 0.000000
vn -0.007871 0.043685 0.999014
vn -0.007871 0.043685 0.999014
vn -0.007871 0.043685 0.999014
vn -0.118130 0.766170 0.631687
vn -0.118130 0.766170 0.631687
vn -0.118130 0.766170 0.631687
vn 0.054176 0.758543 0.649367
vn 0.054176 0.758543 0.649367
vn 0.054176 0.758543 0.649367
vn 0.097584 -0.921244 0.376545
vn 0.097584 -0.921244 0.376545
vn 0.097584 -0.921244 0.376545
vn -0.060852 -0.923947 0.377650
vn -0.060852 -0.923947 0.377650
vn -0.060852 -0.923947 0.377650
vn 0.000000 1.000000 -0.000000
vn 0.000000 1.000000 -0.000000
vn 0.000000 1.000000 -0.000000
vn 0.000000 1.000000 -0.000000
vn 0.000000 1.000000 0.000000
vn 0.000000 1.000000 0.000000
vn 0.000000 1.000000 0.000000
vn -0.018656 0.020493 0.999616
vn -0.018656 0.020493 0.999616
vn -0.018656 0.020493 0.999616
vn -0.018656 0.020493 0.999616
vn 0.000000 0.000009 1.000000
vn 0.000000 0.000009 1.000000
vn 0.000000 0.000009 1.000000
vn 0.000000 0.000009 1.000000
vn 0.000000 0.000009 1.000000
vn -0.000000 -1.000000 0.000000
vn -0.000000 -1.000000 0.000000
vn -0.000000 -1.000000 0.000000
vn -0.000000 -1.000000 0.000000
vn 1.000000 0.000000 0.000000
vn 1.000000 0.000000 0.000000
vn 1.000000 0.000000 0.000000
vn 1.000000 0.000000 0.000000
vn 0.000000 1.000000 0.000000
vn 0.000000 1.000000 0.000000
vn 0.000000 1.000000 0.000000
vn -1.000000 0.000000 0.000000
vn -1.000000 0.000000 0.000000
vn -1.000000 0.000000 0.000000
vn -1.000000 0.000000 0.000000
vn 0.000000 0.000000 -1.000000
vn 0.000000 0.000000 -1.000000
vn 0.000000 0.000000 -1.000000
vn 0.000000 0.000000 -1.000000
vn 0.000000 0.000000 1.000000
vn 0.000000 0.000000 1.000000
vn 0.000000 0.000000 1.000000
vn 0.000000 0.000000 1.000000
vn -0.035817 -0.951022 0.307041
vn -0.035817 -0.951022 0.307041
vn -0.035817 -0.951022 0.307041
vn 0.133378 -0.937662 0.320937
vn 0.133378 -0.937662 0.320937
vn 0.133378 -0.937662 0.320937
vn 0.041364 0.721684 0.690986
vn 0.041364 0.721684 0.690986
vn 0.041364 0.721684 0.690986
vn -0.223361 0.728810 0.647261
vn -0.223361 0.728810 0.647261
vn -0.223361 0.728810 0.647261
vn 0.000000 -1.000000 0.000000
vn 0.000000 -1.000000 0.000000
vn 0.000000 -1.000000 0.000000
vn 0.000000 -1.000000 0.000000
vn 0.000000 -1.000000 -0.000000
vn 0.000000 -1.000000 -0.000000
vn 0.000000 -1.000000 -0.000000
vn -0.000000 0.000000 1.000000
vn -0.000000 0.000000 1.000000
vn -0.000000 0.000000 1.000000
vn -0.000000 0.000000 1.000000
vn 0.000000 0.000000 1.000000
vn 0.000000 0.000000 1.000000
vn 0.000000 0.000000 1.000000
vn 0.000000 0.000000 1.000000
vn -0.000000 0.000000 1.000000
vn -0.000000 0.000000 1.000000
vn -0.000000 0.000000 1.000000
vn -0.000000 0.000000 1.000000
vn 0.000000 1.000000 0.000000
vn 0.000000 1.000000 0.000000
vn 0.000000 1.000000 0.000000
vn 0.000000 1.000000 0.000000
vn 0.000000 1.000000 0.000000
vn 0.000000 1.000000 0.000000
vn 0.000000 1.000000 0.000000
vn 0.000000 1.000000 0.000000
vn 1.000000 0.000000 0.000000
vn 1.000000 0.000000 0.000000
vn 1.000000 0.000000 0.000000
vn 1.000000 0.000000 0.000000
vn 0.728126 0.685443 0.000421
vn 0.728126 0.685443 0.000421
vn 0.728126 0.685443 0.000421
vn 0.728126 0.685443 0.000421
vn -0.000302 0.999999 0.001199
vn -0.000302 0.999999 0.001199
vn -0.000302 0.999999 0.001199
vn -0.000302 0.999999 0.001199
vn -0.608740 0.793370 0.000463
vn -0.608740 0.793370 0.000463
vn -0.608740 0.793370 0.000463
vn -0.608740 0.793370 0.000463
vn 0.485384 0.874300 -0.000909
vn 0.485384 0.874300 -0.000909
vn 0.485384 0.874300 -0.000909
vn 0.485384 0.874300 -0.000909
vn 0.000000 0.999998 -0.002078
vn 0.000000 0.999998 -0.002078
vn 0.000000 0.999998 -0.002078
vn 0.000000 0.999998 -0.002078
vn -0.532137 0.846658 -0.000880
vn -0.532137 0.846658 -0.000880
vn -0.532137 0.846658 -0.000880
vn -0.532137 0.846658 -0.000880
vn 0.630873 0.775884 0.001691
vn 0.630873 0.775884 0.001691
vn 0.630873 0.775884 0.001691
vn 0.630873 0.775884 0.001691
vn -0.002051 0.999989 0.004142
vn -0.002051 0.999989 0.004142
vn -0.002051 0.999989 0.004142
vn -0.002051 0.999989 0.004142
vn -0.754836 0.655912 0.001287
vn -0.754836 0.655912 0.001287
vn -0.754836 0.655912 0.001287
vn -0.754836 0.655912 0.001287
vn 0.570913 0.821009 -0.001789
vn 0.570913 0.821009 -0.001789
vn 0.570913 0.821009 -0.001789
vn 0.570913 0.821009 -0.001789
vn 0.001763 0.999990 -0.004173
vn 0.001763 0.999990 -0.004173
vn 0.001763 0.999990 -0.004173
vn 0.001763 0.999990 -0.004173
vn -0.443994 0.896028 -0.001786
vn -0.443994 0.896028 -0.001786
vn -0.443994 0.896028 -0.001786
vn -0.443994 0.896028 -0.001786
vn 0.794813 0.606854 0.000631
vn 0.794813 0.606854 0.000631
vn 0.794813 0.606854 0.000631
vn 0.794813 0.606854 0.000631
vn 0.000000 0.999998 0.002079
vn 0.000000 0.999998 0.002079
vn 0.000000 0.999998 0.002079
vn 0.000000 0.999998 0.002079
vn -0.756523 0.653967 0.000680
vn -0.756523 0.653967 0.000680
vn -0.756523 0.653967 0.000680
vn -0.756523 0.653967 0.000680
vn 0.554359 0.832277 -0.000512
vn 0.554359 0.832277 -0.000512
vn 0.554359 0.832277 -0.000512
vn 0.554359 0.832277 -0.000512
vn 0.000633 0.999999 -0.001165
vn 0.000633 0.999999 -0.001165
vn 0.000633 0.999999 -0.001165
vn 0.000633 0.999999 -0.001165
vn -0.799715 0.600380 -0.000331
vn -0.799715 0.600380 -0.000331
vn -0.799715 0.600380 -0.000331
vn -0.799715 0.600380 -0.000331
vn 0.570913 0.821009 -0.001789
vn 0.570913 0.821009 -0.001789
vn 0.570913 0.821009 -0.001789
vn 0.570913 0.821009 -0.001789
vn 0.001763 0.999990 -0.004173
vn 0.001763 0.999990 -0.004173
vn 0.001763 0.999990 -0.004173
vn 0.001763 0.999990 -0.004173
vn -0.443993 0.896028 -0.001786
vn -0.443993 0.896028 -0.001786
vn -0.443993 0.896028 -0.001786
vn -0.443993 0.896028 -0.001786
vn 0.794813 0.606854 0.000631
vn 0.794813 0.606854 0.000631
vn 0.794813 0.606854 0.000631
vn 0.794813 0.606854 0.000631
vn 0.000000 0.999998 0.002079
vn 0.000000 0.999998 0.002079
vn 0.000000 0.999998 0.002079
vn 0.000000 0.999998 0.002079
vn -0.756539 0.653948 0.000680
vn -0.756540 0.653948 0.000680
vn -0.756539 0.653948 0.000680
vn -0.756539 0.653948 0.000680
vn 0.554337 0.832292 -0.000512
vn 0.554337 0.832292 -0.000512
vn 0.554337 0.832292 -0.000512
vn 0.554337 0.832292 -0.000512
vn 0.000633 0.999999 -0.001165
vn 0.000633 0.999999 -0.001165
vn 0.000633 0.999999 -0.001165
vn 0.000633 0.999999 -0.001165
vn -0.799749 0.600334 -0.000331
vn -0.799749 0.600334 -0.000331
vn -0.799749 0.600334 -0.000331
vn -0.799749 0.600334 -0.000331
vn -1.000000 0.000000 0.000000
vn -1.000000 0.000000 0.000000
vn -1.000000 0.000000 0.000000
vn -1.000000 0.000000 0.000000
vn -0.836643 -0.547749 0.000337
vn -0.836643 -0.547749 0.000337
vn -0.836643 -0.547749 0.000337
vn -0.836643 -0.547749 0.000337
vn 0.000300 -0.999999 0.001199
vn 0.000300 -0.999999 0.001199
vn 0.000300 -0.999999 0.001199
vn 0.000300 -0.999999 0.001199
vn 0.608753 -0.793360 0.000463
vn 0.608753 -0.793360 0.000463
vn 0.608753 -0.793360 0.000463
vn 0.608753 -0.793360 0.000463
vn -0.485389 -0.874298 -0.000909
vn -0.485389 -0.874298 -0.000909
vn -0.485389 -0.874298 -0.000909
vn -0.485389 -0.874298 -0.000909
vn 0.000000 -0.999998 -0.002079
vn 0.000000 -0.999998 -0.002079
vn 0.000000 -0.999998 -0.002079
vn 0.000000 -0.999998 -0.002079
vn 0.532143 -0.846654 -0.000880
vn 0.532143 -0.846654 -0.000880
vn 0.532143 -0.846654 -0.000880
vn 0.532143 -0.846654 -0.000880
vn -0.630878 -0.775880 0.001691
vn -0.630878 -0.775880 0.001691
vn -0.630878 -0.775880 0.001691
vn -0.630878 -0.775880 0.001691
vn 0.002049 -0.999989 0.004142
vn 0.002049 -0.999989 0.004142
vn 0.002049 -0.999989 0.004142
vn 0.002049 -0.999989 0.004142
vn 0.754846 -0.655901 0.001287
vn 0.754846 -0.655901 0.001287
vn 0.754846 -0.655901 0.001287
vn 0.754846 -0.655901 0.001287
vn -0.836613 -0.547794 0.000337
vn -0.836613 -0.547794 0.000337
vn -0.836613 -0.547794 0.000337
vn -0.836613 -0.547794 0.000337
vn 0.000300 -0.999999 0.001199
vn 0.000300 -0.999999 0.001199
vn 0.000300 -0.999999 0.001199
vn 0.000300 -0.999999 0.001199
vn 0.608775 -0.793343 0.000463
vn 0.608775 -0.793343 0.000463
vn 0.608775 -0.793343 0.000463
vn 0.608775 -0.793343 0.000463
vn -0.485370 -0.874308 -0.000909
vn -0.485370 -0.874308 -0.000909
vn -0.485370 -0.874308 -0.000909
vn -0.485370 -0.874308 -0.000909
vn 0.000000 -0.999998 -0.002079
vn 0.000000 -0.999998 -0.002079
vn 0.000000 -0.999998 -0.002079
vn 0.000000 -0.999998 -0.002079
vn 0.532143 -0.846654 -0.000880
vn 0.532143 -0.846654 -0.000880
vn 0.532143 -0.846654 -0.000880
vn 0.532143 -0.846654 -0.000880
vn -0.630879 -0.775880 0.001691
vn -0.630879 -0.775880 0.001691
vn -0.630879 -0.775880 0.001691
vn -0.630879 -0.775880 0.001691
vn 0.002049 -0.999989 0.004142
vn 0.002049 -0.999989 0.004142
vn 0.002049 -0.999989 0.004142
vn 0.002049 -0.999989 0.004142
vn 0.754847 -0.655900 0.001287
vn 0.754847 -0.655900 0.001287
vn 0.754847 -0.655900 0.001287
vn 0.754847 -0.655900 0.001287
vn -0.570925 -0.821000 -0.001789
vn -0.570925 -0.821000 -0.001789
vn -0.570925 -0.821000 -0.001789
vn -0.570925 -0.821000 -0.001789
vn -0.001765 -0.999990 -0.004173
vn -0.001765 -0.999990 -0.004173
vn -0.001765 -0.999990 -0.004173
vn -0.001765 -0.999990 -0.004173
vn 0.444013 -0.896018 -0.001786
vn 0.444013 -0.896018 -0.001786
vn 0.444013 -0.896019 -0.001786
vn 0.444013 -0.896019 -0.001786
vn -0.794815 -0.606852 0.000631
vn -0.794815 -0.606852 0.000631
vn -0.794815 -0.606852 0.000631
vn -0.794815 -0.606852 0.000631
vn 0.000000 -0.999998 0.002079
vn 0.000000 -0.999998 0.002079
vn 0.000000 -0.999998 0.002079
vn 0.000000 -0.999998 0.002079
vn 0.756542 -0.653944 0.000680
vn 0.756542 -0.653944 0.000680
vn 0.756542 -0.653944 0.000680
vn 0.756542 -0.653944 0.000680
vn -0.554356 -0.832279 -0.000511
vn -0.554356 -0.832279 -0.000511
vn -0.554356 -0.832279 -0.000511
vn -0.554356 -0.832279 -0.000511
vn -0.000630 -0.999999 -0.001165
vn -0.000630 -0.999999 -0.001165
vn -0.000630 -0.999999 -0.001165
vn -0.000630 -0.999999 -0.001165
vn 0.679637 -0.733548 -0.000404
vn 0.679638 -0.733548 -0.000404
vn 0.679637 -0.733548 -0.000404
vn 0.679638 -0.733548 -0.000404
s off
f 1/1/1 2/2/2 9/3/3 10/4/4
f 3/5/5 4/6/6 6/7/7 5/8/8
f 11/9/9 12/10/10 17/25/11 8/11/12 7/12/13
f 7/12/14 8/11/15 2/13/16 1/14/17
f 2/2/18 8/15/19 17/26/20 18/27/21 9/3/22
f 7/17/23 1/1/24 10/4/25 11/18/26
f 3/5/27 16/20/28 14/21/29 4/6/30
f 11/18/31 10/4/32 3/5/33 5/22/34
f 5/8/35 6/7/36 19/28/37 12/10/38 11/9/39
f 15/24/40 19/29/41 6/23/42
f 16/20/43 15/24/44 14/21/45
f 13/19/46 15/24/47 16/20/48
f 18/27/49 17/26/50 12/16/51
f 19/29/52 18/27/53 12/16/54
f 10/4/55 9/3/56 13/19/57 16/20/58
f 10/4/59 16/20/60 3/5/61
f 15/24/62 6/23/63 4/6/64 14/21/65
f 9/3/66 18/27/67 19/29/68 15/24/69 13/19/70
f 76/100/71 77/101/72 87/102/73 84/103/74
f 78/104/75 79/105/76 81/106/77 80/107/78
f 91/108/79 81/106/80 83/109/81
f 82/110/82 83/109/83 77/101/84 76/100/85
f 77/101/86 83/109/87 81/106/88 79/105/89
f 90/111/90 86/112/91 85/113/92 78/104/93
f 85/113/94 86/112/95 87/102/96
f 87/102/97 86/112/98 84/103/99
f 89/114/100 90/111/101 91/108/102
f 91/108/103 90/111/104 88/115/105
f 87/102/106 79/105/107 78/104/108 85/113/109
f 87/102/110 77/101/111 79/105/112
f 90/111/113 78/104/114 80/107/115 88/115/116
f 82/110/117 76/100/118 84/103/119 86/112/120
f 82/110/121 86/112/122 90/111/123 89/114/124
f 91/108/125 83/109/126 82/110/127 89/114/128
f 80/107/129 81/106/130 91/108/131 88/115/132
f 93/117/133 92/116/134 22/32/135 20/33/136
f 94/118/137 93/117/138 20/33/139 34/34/140
f 34/34/141 39/35/142 95/119/143 94/118/144
f 27/42/145 96/120/146 95/119/147 39/35/148
f 27/47/149 32/48/150 97/122/151 96/121/152
f 32/48/153 30/46/154 98/123/155 97/122/156
f 30/46/157 25/40/158 99/124/159 98/123/160
f 25/40/161 29/41/162 100/125/163 99/124/164
f 29/41/165 37/45/166 101/126/167 100/125/168
f 21/51/169 102/128/170 101/126/171 37/45/172
f 103/129/173 102/127/174 21/74/175 53/64/176
f 104/130/177 103/129/178 53/64/179 56/58/180
f 105/131/181 104/130/182 56/58/183 44/59/184
f 106/133/185 105/132/186 44/66/187 49/53/188
f 51/52/189 107/134/190 106/133/191 49/53/192
f 108/136/193 107/134/194 51/52/195 46/71/196
f 109/137/197 108/135/198 46/63/199 42/56/200
f 110/138/201 109/137/202 42/56/203 54/57/204
f 41/73/205 111/139/206 110/138/207 54/57/208
f 112/141/209 111/140/210 41/98/211 71/90/212
f 113/142/213 112/141/214 71/90/215 74/84/216
f 114/143/217 113/142/218 74/84/219 62/85/220
f 115/145/221 114/144/222 62/92/223 67/77/224
f 69/76/225 116/146/226 115/145/227 67/77/228
f 117/148/229 116/146/230 69/76/231 64/97/232
f 118/149/233 117/147/234 64/89/235 60/82/236
f 119/150/237 118/149/238 60/82/239 72/83/240
f 59/78/241 120/151/242 119/150/243 72/83/244
f 121/152/245 120/151/246 59/78/247 58/79/248
f 122/153/249 121/152/250 58/79/251 70/80/252
f 70/80/253 75/81/254 123/154/255 122/153/256
f 63/88/257 124/155/258 123/154/259 75/81/260
f 63/95/261 68/96/262 125/157/263 124/156/264
f 68/96/265 66/93/266 126/158/267 125/157/268
f 66/93/269 61/94/270 127/160/271 126/158/272
f 61/86/273 65/87/274 128/161/275 127/159/276
f 65/87/277 73/91/278 129/162/279 128/161/280
f 40/99/281 130/164/282 129/162/283 73/91/284
f 131/165/285 130/163/286 40/72/287 52/54/288
f 52/54/289 57/55/290 132/166/291 131/165/292
f 45/62/293 133/167/294 132/166/295 57/55/296
f 45/69/297 50/70/298 134/169/299 133/168/300
f 50/70/301 48/67/302 135/170/303 134/169/304
f 48/67/305 43/68/306 136/172/307 135/170/308
f 43/60/309 47/61/310 137/173/311 136/171/312
f 47/61/313 55/65/314 138/174/315 137/173/316
f 23/75/317 139/175/318 138/174/319 55/65/320
f 140/177/321 139/176/322 23/50/323 35/44/324
f 141/178/325 140/177/326 35/44/327 38/38/328
f 142/179/329 141/178/330 38/38/331 26/39/332
f 143/180/333 142/179/334 26/39/335 31/31/336
f 33/30/337 144/181/338 143/180/339 31/31/340
f 145/183/341 144/181/342 33/30/343 28/49/344
f 146/184/345 145/182/346 28/43/347 24/36/348
f 147/185/349 146/184/350 24/36/351 36/37/352
f 22/32/353 92/116/354 147/185/355 36/37/356
