# This file uses centimeters as units for non-parametric coordinates.

v -385.927734 7.391510 -49.187500
v -364.072266 7.391510 -49.187500
v -385.927734 11.122175 -17.773438
v -364.072266 11.122175 -17.773438
v -385.927734 200.015747 -248.642044
v -364.072266 200.015747 -248.642044
v -385.927734 234.290634 -248.077621
v -364.072266 234.290634 -248.077621
v -135.927734 7.391510 -49.187500
v -114.072266 7.391510 -49.187500
v -135.927734 11.122175 -17.773438
v -114.072266 11.122175 -17.773438
v -135.927734 200.015747 -248.642044
v -114.072266 200.015747 -248.642044
v -135.927734 234.290634 -248.077621
v -114.072266 234.290634 -248.077621
v 0.000000 0.000000 0.000000
v 0.000000 39.715881 0.000000
v -500.000000 39.715881 0.000000
v -500.000000 0.000000 0.000000
v 0.000000 273.696594 -228.748047
v -500.000000 273.696594 -228.748047
v 0.000000 0.000000 -12.500977
v -500.000000 0.000000 -12.500977
v 0.000000 220.812805 -250.000977
v -500.000000 220.812805 -250.000977
v 0.000000 273.696594 -250.000977
v -500.000000 273.696594 -250.000977
vt 0.487464 0.178879
vt 0.487486 0.178870
vt 0.487485 0.178930
vt 0.487463 0.178938
vt 0.488039 0.179721
vt 0.488016 0.179720
vt 0.488070 0.179669
vt 0.488046 0.179668
vt 0.487746 0.178752
vt 0.487775 0.178738
vt 0.487775 0.178809
vt 0.487745 0.178821
vt 0.488349 0.179738
vt 0.488319 0.179737
vt 0.488378 0.179679
vt 0.488348 0.179678
vt 0.487661 0.179379
vt 0.487630 0.179334
vt 0.487771 0.179150
vt 0.487799 0.179198
vt 0.487187 0.178697
vt 0.487129 0.178614
vt 0.487330 0.178379
vt 0.487380 0.178467
vt 0.257144 0.761320
vt 0.257177 0.761316
vt 0.257792 0.761442
vt 0.257757 0.761448
vt 0.257354 0.762135
vt 0.256795 0.761871
vt 0.256792 0.761799
vt 0.257353 0.762047
vt 0.000000 -0.000391
vt 1.000000 -0.000391
vt 1.000000 0.612860
vt 0.000000 0.612860
vt 0.256816 0.761867
vt 0.257377 0.762128
vt 0.257179 0.761411
vt 0.257790 0.761557
vt 0.486740 0.156534
vt 0.486820 0.156182
vt 0.487740 0.156182
vt 0.487518 0.156529
vn 0.000000 0.016465 -0.999865
vn 0.000000 0.016465 -0.999865
vn 0.000000 0.016465 -0.999865
vn 0.000000 0.016465 -0.999865
vn 0.000000 -0.719316 -0.694683
vn 0.000000 -0.719316 -0.694683
vn 0.000000 -0.719316 -0.694683
vn 0.000000 -0.719316 -0.694683
vn 1.000000 0.000000 0.000000
vn 1.000000 0.000000 0.000000
vn 1.000000 0.000000 0.000000
vn 1.000000 0.000000 0.000000
vn -1.000000 -0.000001 0.000000
vn -1.000000 -0.000001 0.000000
vn -1.000000 -0.000001 0.000000
vn -1.000000 -0.000001 0.000000
vn 0.000000 0.016465 -0.999865
vn 0.000000 0.016465 -0.999865
vn 0.000000 0.016465 -0.999865
vn 0.000000 0.016465 -0.999865
vn 0.000000 -0.719316 -0.694683
vn 0.000000 -0.719316 -0.694683
vn 0.000000 -0.719316 -0.694683
vn 0.000000 -0.719316 -0.694683
vn 1.000000 -0.000000 0.000000
vn 1.000000 -0.000000 0.000000
vn 1.000000 -0.000000 0.000000
vn 1.000000 -0.000000 0.000000
vn -1.000000 0.000000 0.000000
vn -1.000000 0.000000 0.000000
vn -1.000000 0.000000 0.000000
vn -1.000000 0.000000 0.000000
vn 0.000000 -0.993022 0.117929
vn 0.000000 -0.993022 0.117929
vn 0.000000 -0.993022 0.117929
vn 0.000000 -0.993022 0.117929
vn 0.000000 -0.993022 0.117929
vn 0.000000 -0.993022 0.117929
vn 0.000000 -0.993022 0.117929
vn 0.000000 -0.993022 0.117929
vn 0.000000 1.000000 0.000000
vn 0.000000 1.000000 0.000000
vn 0.000000 1.000000 0.000000
vn 0.000000 1.000000 0.000000
vn 0.000000 0.000000 1.000000
vn 0.000000 0.000000 1.000000
vn 0.000000 0.000000 1.000000
vn 0.000000 0.000000 1.000000
vn 0.000000 0.699066 0.715057
vn 0.000000 0.699066 0.715057
vn 0.000000 0.699066 0.715057
vn 0.000000 0.699066 0.715057
vn 1.000000 0.000000 0.000000
vn 1.000000 0.000000 0.000000
vn 1.000000 0.000000 0.000000
vn -1.000000 0.000000 0.000000
vn -1.000000 0.000000 0.000000
vn -1.000000 0.000000 0.000000
vn 0.000000 -1.000000 0.000000
vn 0.000000 -1.000000 0.000000
vn 0.000000 -1.000000 0.000000
vn 0.000000 -1.000000 0.000000
vn 1.000000 0.000000 0.000000
vn 1.000000 0.000000 0.000000
vn 1.000000 0.000000 0.000000
vn 1.000000 0.000000 0.000000
vn -1.000000 0.000000 0.000000
vn -1.000000 0.000000 0.000000
vn -1.000000 0.000000 0.000000
vn -1.000000 0.000000 0.000000
vn -1.000000 0.000000 0.000000
vn -1.000000 0.000000 0.000000
vn -1.000000 0.000000 0.000000
vn 0.000000 -0.732367 -0.680910
vn 0.000000 -0.732367 -0.680910
vn 0.000000 -0.732367 -0.680910
vn 0.000000 -0.732367 -0.680910
vn 1.000000 0.000000 0.000000
vn 1.000000 0.000000 0.000000
vn 1.000000 0.000000 0.000000
vn 0.000000 0.000000 -1.000000
vn 0.000000 0.000000 -1.000000
vn 0.000000 0.000000 -1.000000
vn 0.000000 0.000000 -1.000000
s off
f 7/1/1 8/2/2 6/3/3 5/4/4
f 5/4/5 6/3/6 2/5/7 1/6/8
f 2/5/9 6/3/10 8/2/11 4/7/12
f 5/4/13 1/6/14 3/8/15 7/1/16
f 15/9/17 16/10/18 14/11/19 13/12/20
f 13/12/21 14/11/22 10/13/23 9/14/24
f 10/13/25 14/11/26 16/10/27 12/15/28
f 13/12/29 9/14/30 11/16/31 15/9/32
f 1/17/33 2/18/34 4/19/35 3/20/36
f 9/21/37 10/22/38 12/23/39 11/24/40
f 21/25/41 27/26/42 28/27/43 22/28/44
f 20/29/45 17/30/46 18/31/47 19/32/48
f 19/33/49 18/34/50 21/35/51 22/36/52
f 18/31/53 17/30/54 23/37/55
f 20/29/56 19/32/57 24/38/58
f 17/30/59 20/29/60 24/38/61 23/37/62
f 21/25/63 18/31/64 23/37/65 25/39/66
f 19/32/67 22/28/68 26/40/69 24/38/70
f 22/28/71 28/27/72 26/40/73
f 24/41/74 26/42/75 25/43/76 23/44/77
f 25/39/78 27/26/79 21/25/80
f 25/39/81 26/40/82 28/27/83 27/26/84
