# This file uses centimeters as units for non-parametric coordinates.

v 499.999023 250.281738 -25.000000
v 499.999023 499.992432 -25.001953
v 424.991699 250.281738 -25.000000
v 424.995605 499.992432 -25.000000
v 249.999023 442.965088 -25.001953
v 249.999023 499.992432 -24.998047
v 337.495117 418.017700 -25.000000
v 381.244629 386.039551 -25.000000
v 499.999023 250.281738 25.001953
v 499.999023 499.992432 25.001953
v 424.991211 250.281738 25.001953
v 424.991211 499.992432 25.001953
v 249.999023 437.982422 25.001953
v 249.999023 499.992432 25.001953
v 337.495117 418.017761 25.001953
v 381.245117 386.039551 25.001953
v -0.000977 250.281738 25.001953
v -0.000977 499.992432 25.001953
v 75.005371 250.281738 25.001953
v 75.005859 499.992432 25.001953
v -0.000977 250.281738 -25.001953
v -0.000977 499.992432 -25.001953
v 75.005859 250.281738 -25.001953
v 162.502441 418.017700 25.001953
v 162.502930 418.017700 -25.001953
v 118.753906 386.039551 25.001953
v 118.753418 386.039551 -25.001953
v 75.002930 499.992432 -25.000000
v 499.999023 0.000000 -25.000000
v 424.991699 0.000000 -25.000000
v 499.999023 0.000000 25.001953
v 424.991211 0.000000 25.001953
v -0.000977 0.000000 25.001953
v -0.000977 0.000000 -25.001953
v 75.005859 0.000000 -25.001953
v 75.005371 0.000000 25.001953
v -0.000977 499.992432 0.000000
v -0.000977 250.281738 0.000000
v -0.000977 0.000000 0.000000
v 75.005859 0.000000 0.000000
v 424.991211 0.000000 0.001953
v 499.999023 0.000000 0.001953
v 499.999023 250.281738 0.001953
v 499.999023 499.992432 0.000000
v 75.004395 499.992432 0.001953
v 249.999023 499.992432 0.001953
v 424.993164 499.992432 0.001953
v 424.991211 250.281738 0.001953
v 381.245117 386.039551 0.001953
v 337.495117 418.017700 0.001953
v 249.999023 440.473755 0.000000
v 162.502441 418.017700 0.000000
v 118.753906 386.039551 0.000000
v 75.005859 250.281738 0.000000
vt 0.990667 1.994988
vt 0.990667 1.502120
vt 0.842626 1.502120
vt 0.842626 1.994988
vt 0.990667 1.008124
vt 0.842626 1.008124
vt 0.669931 1.833189
vt 0.497236 1.872595
vt 0.497236 1.994988
vt 0.756279 1.770072
vt 0.990669 1.994988
vt 0.990669 1.502120
vt 0.842623 1.994988
vt 0.842623 1.502120
vt 0.898143 1.008124
vt 0.787235 1.008124
vt 0.016978 0.027498
vt 0.017017 0.027784
vt 0.657862 1.833189
vt 0.497236 1.994988
vt 0.497236 1.872595
vt 0.017011 0.027765
vt 0.722552 1.770072
vt 0.016972 0.027482
vt 0.003803 1.994988
vt 0.003803 1.502120
vt 0.151846 1.502120
vt 0.151847 1.994988
vt 0.158836 1.008124
vt 0.017048 0.028013
vt 0.017134 0.027992
vt 0.269742 1.008124
vt 0.324541 1.833189
vt 0.238195 1.770072
vt 0.003803 1.994988
vt 0.003803 1.502120
vt 0.017128 0.027972
vt 0.151849 1.994988
vt 0.151849 1.502120
vt 0.003803 1.008124
vt 0.151849 1.008124
vt 0.324543 1.833189
vt 0.238191 1.770072
vt 0.017042 0.027992
vt 0.017195 0.027528
vt 0.017204 0.027545
vt 0.017315 0.027500
vt 0.017305 0.027481
vt 0.017315 0.027428
vt 0.017079 0.027465
vt 0.017072 0.027449
vt 0.017304 0.027414
vt 0.017141 0.027574
vt 0.017149 0.027591
vt 0.017099 0.027728
vt 0.017106 0.027746
vt 0.017637 0.027394
vt 0.017622 0.027381
vt 0.017593 0.027648
vt 0.017606 0.027663
vt 0.017581 0.027884
vt 0.017569 0.027867
vt 0.017496 0.027884
vt 0.017507 0.027902
vt 0.017423 0.027507
vt 0.017411 0.027492
vt 0.017533 0.027394
vt 0.017520 0.027381
vt 0.017608 0.027367
vt 0.017473 0.027533
vt 0.017461 0.027518
vt 0.017513 0.027664
vt 0.017501 0.027648
vt 0.017121 0.027953
vt 0.017525 0.027680
vt 0.016966 0.027465
vt 0.017580 0.027632
vt 0.017557 0.027850
vt 0.017485 0.027867
vt 0.017037 0.027973
vt 0.017005 0.027746
vt 0.017547 0.027408
vt 0.017326 0.027443
vt 0.017086 0.027481
vt 0.017113 0.027764
vt 0.017157 0.027608
vt 0.017213 0.027561
vt 0.017326 0.027518
vt 0.017435 0.027522
vt 0.017485 0.027549
vn -0.000013 -0.000004 -1.000000
vn -0.000013 -0.000004 -1.000000
vn -0.000013 -0.000004 -1.000000
vn -0.000013 -0.000004 -1.000000
vn 0.000003 0.000027 -1.000000
vn 0.000003 0.000027 -1.000000
vn 0.000003 0.000027 -1.000000
vn 0.000003 0.000027 -1.000000
vn 0.000000 0.000000 -1.000000
vn 0.000000 0.000000 -1.000000
vn 0.000000 0.000000 -1.000000
vn -0.000000 0.000000 -1.000000
vn -0.000000 0.000000 -1.000000
vn -0.000000 0.000000 -1.000000
vn 1.000000 0.000000 0.000000
vn 1.000000 0.000000 0.000000
vn 1.000000 0.000000 0.000000
vn 1.000000 0.000000 0.000000
vn 0.000000 0.000000 1.000000
vn 0.000000 0.000000 1.000000
vn 0.000000 0.000000 1.000000
vn 0.000000 0.000000 1.000000
vn 0.000000 -1.000000 0.000000
vn 0.000000 -1.000000 0.000000
vn 0.000000 -1.000000 0.000000
vn 0.000000 -1.000000 0.000000
vn 0.000000 0.000000 1.000000
vn 0.000000 0.000000 1.000000
vn 0.000000 0.000000 1.000000
vn 0.000000 0.000000 1.000000
vn -0.261163 -0.964099 -0.048035
vn -0.248305 -0.967482 -0.048203
vn -0.248508 -0.967430 -0.048201
vn -0.261163 -0.964099 -0.048035
vn 0.000000 1.000000 0.000001
vn 0.000000 1.000000 0.000000
vn 0.000000 1.000000 0.000001
vn 0.000000 1.000000 0.000002
vn -0.000000 0.000000 1.000000
vn -0.000000 0.000000 1.000000
vn -0.000000 0.000000 1.000000
vn -0.590103 -0.807328 0.000004
vn -0.590102 -0.807329 0.000003
vn -0.590102 -0.807329 0.000003
vn -0.590103 -0.807328 0.000004
vn 0.000000 0.000000 1.000000
vn 0.000000 0.000000 1.000000
vn 0.000000 0.000000 1.000000
vn -0.951803 -0.306709 0.000000
vn -0.951804 -0.306707 0.000000
vn -0.951804 -0.306707 0.000000
vn -0.951803 -0.306709 0.000000
vn 0.000000 0.000000 1.000000
vn 0.000000 0.000000 1.000000
vn 0.000000 0.000000 1.000000
vn 0.000000 0.000000 1.000000
vn -1.000000 0.000000 0.000000
vn -1.000000 0.000000 0.000000
vn -1.000000 0.000000 0.000000
vn -1.000000 0.000000 0.000000
vn 0.000000 -1.000000 0.000000
vn 0.000000 -1.000000 0.000000
vn 0.000000 -1.000000 0.000000
vn 0.000000 -1.000000 0.000000
vn 0.248508 -0.967430 -0.048199
vn 0.248305 -0.967482 -0.048201
vn 0.261163 -0.964099 -0.048031
vn 0.261163 -0.964099 -0.048031
vn 0.000000 1.000000 -0.000001
vn 0.000000 1.000000 -0.000001
vn 0.000000 1.000000 -0.000001
vn 0.000000 1.000000 0.000000
vn 0.000000 0.000000 1.000000
vn 0.000000 0.000000 1.000000
vn 0.000000 0.000000 1.000000
vn 0.000000 0.000000 1.000000
vn 0.590111 -0.807322 0.000000
vn 0.590111 -0.807322 0.000000
vn 0.590109 -0.807323 0.000001
vn 0.590109 -0.807323 0.000001
vn 0.000000 0.000000 1.000000
vn 0.000000 0.000000 1.000000
vn 0.000000 0.000000 1.000000
vn 0.951800 -0.306718 0.000000
vn 0.951800 -0.306718 0.000000
vn 0.951801 -0.306717 -0.000009
vn 0.951801 -0.306717 -0.000009
vn -0.000000 0.000000 1.000000
vn -0.000000 0.000000 1.000000
vn -0.000000 0.000000 1.000000
vn 0.000013 0.000004 -1.000000
vn 0.000013 0.000004 -1.000000
vn 0.000013 0.000004 -1.000000
vn 0.000013 0.000004 -1.000000
vn 0.000003 0.000044 -1.000000
vn 0.000003 0.000044 -1.000000
vn 0.000003 0.000044 -1.000000
vn 0.000003 0.000044 -1.000000
vn -0.000010 0.000013 -1.000000
vn -0.000010 0.000013 -1.000000
vn -0.000010 0.000013 -1.000000
vn -0.000024 0.000008 -1.000000
vn -0.000024 0.000008 -1.000000
vn -0.000024 0.000008 -1.000000
vn 0.000000 0.000000 -1.000000
vn 0.000000 0.000000 -1.000000
vn 0.000000 0.000000 -1.000000
vn 0.000000 0.000000 -1.000000
vn 0.000000 0.000000 1.000000
vn 0.000000 0.000000 1.000000
vn 0.000000 0.000000 1.000000
vn 0.000000 0.000000 1.000000
vn -1.000000 0.000000 -0.000010
vn -1.000000 0.000000 -0.000010
vn -1.000000 0.000000 -0.000020
vn -1.000000 0.000000 -0.000020
vn 1.000000 0.000000 0.000000
vn 1.000000 0.000000 0.000000
vn 1.000000 0.000000 0.000000
vn 1.000000 0.000000 0.000000
vn -1.000000 0.000000 0.000000
vn -1.000000 0.000000 0.000000
vn -1.000000 0.000000 0.000000
vn -1.000000 0.000000 0.000000
vn 1.000000 0.000000 0.000010
vn 1.000000 0.000000 0.000010
vn 1.000000 0.000000 0.000020
vn 1.000000 0.000000 0.000020
vn 0.000000 0.000000 1.000000
vn 0.000000 0.000000 1.000000
vn 0.000000 0.000000 1.000000
vn 0.000000 0.000000 1.000000
vn 0.000000 0.000000 -1.000000
vn 0.000000 0.000000 -1.000000
vn 0.000000 0.000000 -1.000000
vn 0.000000 0.000000 -1.000000
vn 0.000000 1.000000 -0.000001
vn 0.000000 1.000000 -0.000001
vn 0.000000 1.000000 -0.000001
vn 0.000000 1.000000 -0.000002
vn 0.000000 1.000000 -0.000001
vn 0.000000 1.000000 -0.000002
vn 0.000000 1.000000 0.000001
vn 0.000000 1.000000 0.000000
vn -1.000000 0.000000 0.000000
vn -1.000000 0.000000 0.000000
vn -1.000000 0.000000 0.000000
vn -1.000000 0.000000 0.000000
vn -1.000000 0.000000 0.000000
vn -1.000000 0.000000 0.000000
vn -1.000000 0.000000 0.000000
vn -1.000000 0.000000 0.000000
vn 0.000000 -1.000000 0.000000
vn 0.000000 -1.000000 0.000000
vn 0.000000 -1.000000 0.000000
vn 0.000000 -1.000000 0.000000
vn 0.000000 -1.000000 0.000000
vn 0.000000 -1.000000 0.000000
vn 0.000000 -1.000000 0.000000
vn 0.000000 -1.000000 0.000000
vn 1.000000 0.000000 0.000000
vn 1.000000 0.000000 0.000000
vn 1.000000 0.000000 0.000000
vn 1.000000 0.000000 0.000000
vn 1.000000 0.000000 0.000000
vn 1.000000 0.000000 0.000000
vn 1.000000 0.000000 0.000000
vn 1.000000 0.000000 0.000000
vn 0.000000 1.000000 -0.000001
vn 0.000000 1.000000 -0.000001
vn 0.000000 1.000000 -0.000001
vn 0.000000 1.000000 -0.000002
vn 0.000000 1.000000 -0.000001
vn 0.000000 1.000000 -0.000001
vn 0.000000 1.000000 -0.000001
vn 0.000000 1.000000 0.000000
vn 0.000000 1.000000 0.000000
vn 0.000000 1.000000 0.000000
vn 0.000000 1.000000 0.000001
vn 0.000000 1.000000 0.000000
vn 0.000000 1.000000 -0.000001
vn 0.000000 1.000000 0.000000
vn 0.000000 1.000000 0.000000
vn 0.000000 1.000000 0.000000
vn -0.951804 -0.306707 0.000000
vn -0.951804 -0.306707 0.000000
vn -0.951804 -0.306706 0.000000
vn -0.951804 -0.306706 0.000000
vn -0.590102 -0.807329 0.000003
vn -0.590102 -0.807329 0.000003
vn -0.590101 -0.807329 0.000001
vn -0.590101 -0.807329 0.000001
vn -0.248508 -0.967430 -0.048201
vn -0.248305 -0.967482 -0.048203
vn -0.235315 -0.970715 -0.048364
vn -0.235315 -0.970715 -0.048364
vn 0.235315 -0.970715 -0.048364
vn 0.248305 -0.967482 -0.048201
vn 0.248508 -0.967430 -0.048199
vn 0.235315 -0.970715 -0.048364
vn 0.590114 -0.807320 0.000000
vn 0.590111 -0.807322 0.000000
vn 0.590111 -0.807322 0.000000
vn 0.590114 -0.807320 0.000000
vn 0.951800 -0.306720 0.000009
vn 0.951800 -0.306718 0.000000
vn 0.951800 -0.306718 0.000000
vn 0.951800 -0.306720 0.000009
vn -1.000000 0.000000 0.000000
vn -1.000000 0.000000 -0.000010
vn -1.000000 0.000000 -0.000010
vn -1.000000 0.000000 0.000000
vn 1.000000 0.000000 0.000010
vn 1.000000 0.000000 0.000000
vn 1.000000 0.000000 0.000000
vn 1.000000 0.000000 0.000010
s off
f 2/1/1 1/2/2 3/3/3 4/4/4
f 4/4/5 7/7/6 5/8/7 6/9/8
f 4/4/9 8/10/10 7/7/11
f 4/4/12 3/3/13 8/10/14
f 10/17/15 9/18/16 43/22/17 44/24/18
f 10/11/19 12/13/20 11/14/21 9/12/22
f 31/30/23 32/31/24 41/37/25 42/44/26
f 15/19/27 12/13/28 14/20/29 13/21/30
f 7/45/31 50/46/32 51/47/33 5/48/34
f 46/49/35 47/50/36 4/51/37 6/52/38
f 16/23/39 12/13/40 15/19/41
f 8/53/42 49/54/43 50/46/44 7/45/45
f 11/14/46 12/13/47 16/23/48
f 3/55/49 48/56/50 49/54/51 8/53/52
f 18/25/53 17/26/54 19/27/55 20/28/56
f 18/57/57 37/58/58 38/59/59 17/60/60
f 33/61/61 39/62/62 40/63/63 36/64/64
f 51/47/65 52/65/66 25/66/67 5/48/68
f 37/58/69 45/67/70 28/68/71 22/69/72
f 20/28/73 24/33/74 13/21/75 14/20/76
f 52/65/77 53/70/78 27/71/79 25/66/80
f 20/28/81 26/34/82 24/33/83
f 53/70/84 54/72/85 23/73/86 27/71/87
f 20/28/88 19/27/89 26/34/90
f 22/35/91 28/38/92 23/39/93 21/36/94
f 25/42/95 28/38/96 6/9/97 5/8/98
f 27/43/99 28/38/100 25/42/101
f 23/39/102 28/38/103 27/43/104
f 3/3/105 1/2/106 29/5/107 30/6/108
f 9/12/109 11/14/110 32/16/111 31/15/112
f 41/37/113 48/56/114 3/55/115 30/74/116
f 42/44/117 43/22/118 9/18/119 31/30/120
f 17/60/121 38/59/122 39/62/123 33/61/124
f 40/63/125 54/72/126 19/75/127 36/64/128
f 19/27/129 17/26/130 33/29/131 36/32/132
f 21/36/133 23/39/134 35/41/135 34/40/136
f 28/68/137 45/67/138 46/49/139 6/52/140
f 44/24/141 2/76/142 4/51/143 47/50/144
f 38/59/145 37/58/146 22/69/147 21/77/148
f 39/62/149 38/59/150 21/77/151 34/78/152
f 40/63/153 39/62/154 34/78/155 35/79/156
f 42/44/157 41/37/158 30/74/159 29/80/160
f 1/81/161 43/22/162 42/44/163 29/80/164
f 44/24/165 43/22/166 1/81/167 2/76/168
f 20/82/169 45/67/170 37/58/171 18/57/172
f 46/49/173 45/67/174 20/82/175 14/83/176
f 12/84/177 47/50/178 46/49/179 14/83/180
f 44/24/181 47/50/182 12/84/183 10/17/184
f 49/54/185 48/56/186 11/85/187 16/86/188
f 50/46/189 49/54/190 16/86/191 15/87/192
f 51/47/193 50/46/194 15/87/195 13/88/196
f 24/89/197 52/65/198 51/47/199 13/88/200
f 26/90/201 53/70/202 52/65/203 24/89/204
f 19/75/205 54/72/206 53/70/207 26/90/208
f 11/85/209 48/56/210 41/37/211 32/31/212
f 40/63/213 35/79/214 23/73/215 54/72/216
