# This file uses centimeters as units for non-parametric coordinates.

v -122.339844 0.000000 122.335938
v 122.333984 0.000000 122.335938
v -122.339844 38.523682 122.335938
v 122.333984 38.523682 122.335938
v -122.339844 38.523682 -122.326172
v 122.333984 38.523682 -122.326172
v -122.339844 0.000000 -122.326172
v 122.333984 0.000000 -122.326172
v -91.529297 38.523682 91.541016
v 91.523438 38.523682 91.541016
v 91.523438 38.523682 -91.509766
v -91.529297 38.523682 -91.509766
v -34.964844 106.643188 34.980469
v 34.958984 106.643188 34.980469
v 34.958984 106.643188 -34.937500
v -34.964844 106.643188 -34.937500
vt 0.093335 0.209853
vt 0.093433 0.209807
vt 0.093435 0.209668
vt 0.093337 0.209713
vt 0.094246 0.209728
vt 0.094335 0.209683
vt 0.094333 0.209822
vt 0.094244 0.209869
vt 0.093536 0.209675
vt 0.093463 0.209709
vt 0.094210 0.209687
vt 0.094143 0.209721
vt 0.211605 0.202461
vt 0.715608 0.202461
vt 0.559842 0.390019
vt 0.367335 0.390019
vt 0.404285 0.202461
vt 0.908288 0.202461
vt 0.752557 0.390019
vt 0.560050 0.390019
vt 0.403956 0.202465
vt 0.907967 0.202465
vt 0.752225 0.390023
vt 0.559698 0.390023
vt 0.018921 0.202465
vt 0.522931 0.202465
vt 0.367189 0.390023
vt 0.174663 0.390023
vt 0.600114 0.425144
vt 0.600114 0.397742
vt 0.627513 0.397742
vt 0.627513 0.425144
vn 0.000000 0.000000 1.000000
vn 0.000000 0.000000 1.000000
vn 0.000000 0.000000 1.000000
vn 0.000000 0.000000 1.000000
vn 0.000000 1.000000 0.000000
vn 0.000000 1.000000 0.000000
vn 0.000000 1.000000 0.000000
vn 0.000000 1.000000 0.000000
vn 0.000000 0.000000 -1.000000
vn 0.000000 0.000000 -1.000000
vn 0.000000 0.000000 -1.000000
vn 0.000000 0.000000 -1.000000
vn 0.000000 -1.000000 0.000000
vn 0.000000 -1.000000 0.000000
vn 0.000000 -1.000000 0.000000
vn 0.000000 -1.000000 0.000000
vn 1.000000 0.000000 0.000000
vn 1.000000 0.000000 0.000000
vn 1.000000 0.000000 0.000000
vn 1.000000 0.000000 0.000000
vn -1.000000 0.000000 0.000000
vn -1.000000 0.000000 0.000000
vn -1.000000 0.000000 0.000000
vn -1.000000 0.000000 0.000000
vn 0.000000 1.000000 0.000000
vn 0.000000 1.000000 0.000000
vn 0.000000 1.000000 0.000000
vn 0.000000 1.000000 0.000000
vn 0.000000 1.000000 0.000000
vn 0.000000 1.000000 0.000000
vn 0.000000 1.000000 0.000000
vn 0.000000 1.000000 0.000000
vn 0.000000 1.000000 -0.000000
vn 0.000000 1.000000 -0.000000
vn 0.000000 1.000000 -0.000000
vn 0.000000 1.000000 -0.000000
vn 0.000000 1.000000 0.000000
vn 0.000000 1.000000 0.000000
vn 0.000000 1.000000 0.000000
vn 0.000000 1.000000 0.000000
vn 0.000000 0.638812 0.769363
vn 0.000000 0.638812 0.769363
vn 0.000000 0.638812 0.769363
vn 0.000000 0.638812 0.769363
vn 0.769341 0.638838 0.000000
vn 0.769341 0.638838 0.000000
vn 0.769341 0.638839 0.000000
vn 0.769341 0.638838 0.000000
vn 0.000000 0.638891 -0.769298
vn 0.000000 0.638891 -0.769298
vn 0.000000 0.638891 -0.769298
vn 0.000000 0.638891 -0.769298
vn -0.769341 0.638838 0.000000
vn -0.769341 0.638838 0.000000
vn -0.769341 0.638838 0.000000
vn -0.769341 0.638838 0.000000
s off
f 1/1/1 2/2/2 4/3/3 3/4/4
f 13/29/5 14/30/6 15/31/7 16/32/8
f 5/5/9 6/6/10 8/7/11 7/8/12
f 7/8/13 8/7/14 2/2/15 1/1/16
f 2/2/17 8/7/18 6/6/19 4/3/20
f 7/8/21 1/1/22 3/4/23 5/5/24
f 3/4/25 4/3/26 10/9/27 9/10/28
f 4/3/29 6/6/30 11/11/31 10/9/32
f 6/6/33 5/5/34 12/12/35 11/11/36
f 5/5/37 3/4/38 9/10/39 12/12/40
f 9/21/41 10/22/42 14/23/43 13/24/44
f 10/13/45 11/14/46 15/15/47 14/16/48
f 11/25/49 12/26/50 16/27/51 15/28/52
f 12/17/53 9/18/54 13/19/55 16/20/56
