# This file uses centimeters as units for non-parametric coordinates.

v 250.001953 81.126587 44.513672
v 225.009766 7.123230 44.517578
v 225.009766 0.000000 25.000000
v 233.263672 0.000000 9.007813
v 250.001953 81.126587 9.007813
v 228.697266 -27.870575 44.517578
v 228.697266 -42.456879 25.000000
v 233.263672 70.235352 9.007813
v 225.009766 38.489136 37.986328
v 225.009766 0.447510 39.720703
v 250.001953 86.193481 4.376953
v 250.001953 86.193481 49.140625
v 250.001953 95.686890 4.376953
v 250.001953 95.686890 49.140625
v 50.087891 81.126587 44.513672
v 25.099609 7.123230 44.517578
v 50.087891 81.126587 9.007813
v 33.353516 70.235352 9.007813
v 25.099609 38.489136 37.986328
v 25.099609 0.447510 39.720703
v 50.087891 86.193481 4.376953
v 50.087891 86.193481 49.140625
v 50.087891 95.686890 4.376953
v 50.087891 95.686890 49.140625
v 25.099609 0.000000 25.000000
v 33.353516 0.000000 9.007813
v 75.080078 7.123230 44.517578
v 75.080078 0.000000 25.000000
v 66.826172 0.000000 9.003906
v 150.044922 81.126587 44.513672
v 125.056641 7.123230 44.517578
v 150.044922 81.126587 9.007813
v 71.392578 -27.870575 44.517578
v 71.392578 -42.456879 25.000000
v 28.783203 -27.870575 44.517578
v 28.783203 -42.456879 25.000000
v 133.306641 70.235352 9.007813
v 66.826172 70.235352 9.003906
v 125.056641 38.489136 37.986328
v 75.080078 38.489136 37.986328
v 75.080078 0.447510 39.720703
v 125.056641 0.447510 39.720703
v 150.044922 86.193481 4.376953
v 150.044922 86.193481 49.140625
v 150.044922 95.686890 4.376953
v 150.044922 95.686890 49.140625
v 125.056641 0.000000 25.000000
v 133.306641 0.000000 9.007813
v 175.033203 7.123230 44.517578
v 175.033203 0.000000 25.000000
v 166.779297 0.000000 9.003906
v 171.349609 -27.870575 44.517578
v 171.349609 -42.456879 25.000000
v 128.740234 -27.870575 44.517578
v 128.740234 -42.456879 25.000000
v 166.779297 70.235352 9.003906
v 175.033203 38.489136 37.986328
v 175.033203 0.447510 39.720703
v -0.009766 81.126587 44.513672
v 0.001953 86.193481 49.140625
v 0.001953 95.686890 49.140625
v 0.001953 95.686890 4.376953
v 0.001953 86.193481 4.376953
v -0.009766 81.126587 9.007813
v 0.001953 70.235352 9.005859
v 0.001953 38.489136 37.986328
v 0.001953 0.447540 39.720703
v 0.001953 7.123230 44.517578
v 250.000000 7.123230 44.517578
v 250.001953 -27.870575 44.517578
v 250.001953 -42.456879 25.000000
v 250.000000 0.000000 25.000000
v 250.000000 0.000000 9.005859
vt 0.196557 0.304424
vt 0.196632 0.304520
vt 0.196637 0.304563
vt 0.196649 0.304553
vt 0.196642 0.304501
vt 0.196633 0.304478
vt 0.196573 0.304373
vt 0.196550 0.304412
vt 0.196570 0.304347
vt 0.196636 0.304521
vt 0.196609 0.304388
vt 0.196624 0.304471
vt 0.196573 0.304360
vt 0.196553 0.304424
vt 0.196946 0.304432
vt 0.197012 0.304528
vt 0.196917 0.304526
vt 0.196942 0.304559
vt 0.196933 0.304570
vt 0.197013 0.304571
vt 0.197022 0.304561
vt 0.196945 0.304484
vt 0.196925 0.304507
vt 0.197019 0.304509
vt 0.197008 0.304486
vt 0.196752 0.304428
vt 0.196822 0.304524
vt 0.196920 0.304528
vt 0.196825 0.304526
vt 0.196800 0.304392
vt 0.196815 0.304475
vt 0.196911 0.304477
vt 0.196928 0.304395
vt 0.196765 0.304377
vt 0.196957 0.304381
vt 0.196955 0.304355
vt 0.196941 0.304420
vt 0.196745 0.304416
vt 0.196762 0.304351
vt 0.197015 0.304530
vt 0.196992 0.304396
vt 0.197007 0.304479
vt 0.196958 0.304368
vt 0.196765 0.304364
vt 0.196748 0.304428
vt 0.196943 0.304432
vt 0.196727 0.304522
vt 0.196756 0.304555
vt 0.196744 0.304566
vt 0.196825 0.304567
vt 0.196835 0.304557
vt 0.196758 0.304480
vt 0.196736 0.304503
vt 0.196830 0.304505
vt 0.196820 0.304482
vt 0.196731 0.304523
vt 0.196719 0.304473
vt 0.196736 0.304391
vt 0.197041 0.304435
vt 0.197044 0.304434
vt 0.197039 0.304422
vt 0.197052 0.304357
vt 0.197054 0.304370
vt 0.197054 0.304383
vt 0.197056 0.304397
vt 0.197055 0.304480
vt 0.197063 0.304531
vt 0.197060 0.304529
vt 0.196584 0.304519
vt 0.196597 0.304562
vt 0.196610 0.304552
vt 0.196595 0.304500
vt 0.196602 0.304477
vn -0.984083 -0.103698 0.144315
vn -0.984083 -0.103698 0.144315
vn -0.984083 -0.103698 0.144315
vn -0.888624 0.000000 -0.458637
vn -0.888624 0.000000 -0.458637
vn -0.888624 0.000000 -0.458637
vn -0.976751 0.068535 -0.203126
vn -0.976751 0.068535 -0.203126
vn -0.976751 0.068535 -0.203126
vn -1.000000 -0.000001 0.000000
vn -1.000000 -0.000001 0.000000
vn -1.000000 -0.000001 0.000000
vn 0.000000 0.000053 1.000000
vn 0.000000 0.000053 1.000000
vn 0.000000 0.000053 1.000000
vn 0.000000 -0.801021 0.598636
vn 0.000000 -0.801021 0.598636
vn 0.000000 -0.801021 0.598636
vn 0.000000 -0.801021 0.598636
vn 0.000000 -1.000000 0.000000
vn 0.000000 -1.000000 0.000000
vn 0.000000 -1.000000 0.000000
vn 0.000000 -1.000000 0.000000
vn 0.000000 0.000053 1.000000
vn 0.000000 0.000053 1.000000
vn 0.000000 0.000053 1.000000
vn 0.000000 0.000053 1.000000
vn 0.000000 -0.583532 0.812090
vn 0.000000 -0.583532 0.812090
vn 0.000000 -0.583532 0.812090
vn 0.000000 -0.583532 0.812090
vn 0.000025 -0.674203 -0.738546
vn 0.000025 -0.674203 -0.738546
vn 0.000025 -0.674203 -0.738546
vn 0.000025 -0.674203 -0.738546
vn 0.000023 0.000179 -1.000000
vn 0.000023 0.000179 -1.000000
vn 0.000023 0.000179 -1.000000
vn 0.000023 0.000179 -1.000000
vn 0.000000 1.000000 0.000000
vn 0.000000 1.000000 0.000000
vn 0.000000 1.000000 0.000000
vn 0.000000 1.000000 0.000000
vn 0.993948 -0.100580 0.044164
vn 0.993948 -0.100580 0.044164
vn 0.993948 -0.100580 0.044164
vn 0.993948 -0.100580 0.044164
vn 0.000000 0.000000 1.000000
vn 0.000000 0.000000 1.000000
vn 0.000000 0.000000 1.000000
vn 0.000000 0.000000 1.000000
vn -0.984116 -0.103592 0.144167
vn -0.984116 -0.103592 0.144167
vn -0.984116 -0.103592 0.144167
vn 0.000000 0.000000 -1.000000
vn 0.000000 0.000000 -1.000000
vn 0.000000 0.000000 -1.000000
vn 0.000000 0.000000 -1.000000
vn -0.888624 0.000000 -0.458637
vn -0.888624 0.000000 -0.458637
vn -0.888624 0.000000 -0.458637
vn 0.888669 0.000000 -0.458549
vn 0.888669 0.000000 -0.458549
vn 0.888669 0.000000 -0.458549
vn -0.000117 0.000013 -1.000000
vn -0.000117 0.000013 -1.000000
vn -0.000117 0.000013 -1.000000
vn -0.000117 0.000013 -1.000000
vn -0.000117 0.000013 -1.000000
vn -0.976751 0.068535 -0.203126
vn -0.976751 0.068535 -0.203126
vn -0.976751 0.068535 -0.203126
vn 0.976756 0.068529 -0.203107
vn 0.976756 0.068529 -0.203107
vn 0.976756 0.068529 -0.203107
vn -1.000000 0.000000 0.000000
vn -1.000000 0.000000 0.000000
vn -1.000000 0.000000 0.000000
vn 1.000000 0.000000 0.000000
vn 1.000000 0.000000 0.000000
vn 1.000000 0.000000 0.000000
vn 0.000000 -0.045544 -0.998962
vn 0.000000 -0.045544 -0.998962
vn 0.000000 -0.045544 -0.998962
vn 0.000000 -0.045544 -0.998962
vn 0.000000 -0.674632 -0.738154
vn 0.000000 -0.674632 -0.738154
vn 0.000000 -0.674632 -0.738154
vn 0.000000 -0.674632 -0.738154
vn 0.000000 -0.674322 0.738438
vn 0.000000 -0.674322 0.738438
vn 0.000000 -0.674322 0.738438
vn 0.000000 -0.674322 0.738438
vn 0.000000 0.000000 -1.000000
vn 0.000000 0.000000 -1.000000
vn 0.000000 0.000000 -1.000000
vn 0.000000 0.000000 -1.000000
vn 0.000000 0.000000 1.000000
vn 0.000000 0.000000 1.000000
vn 0.000000 0.000000 1.000000
vn 0.000000 0.000000 1.000000
vn 0.000000 0.000053 1.000000
vn 0.000000 0.000053 1.000000
vn 0.000000 0.000053 1.000000
vn 0.000000 -0.801021 0.598636
vn 0.000000 -0.801021 0.598636
vn 0.000000 -0.801021 0.598636
vn 0.000000 -0.801021 0.598636
vn 0.000000 -1.000000 0.000000
vn 0.000000 -1.000000 0.000000
vn 0.000000 -1.000000 0.000000
vn 0.000000 -1.000000 0.000000
vn 0.000000 0.000053 1.000000
vn 0.000000 0.000053 1.000000
vn 0.000000 0.000053 1.000000
vn 0.000000 0.000053 1.000000
vn 0.000000 -0.583532 0.812090
vn 0.000000 -0.583532 0.812090
vn 0.000000 -0.583532 0.812090
vn 0.000000 -0.583532 0.812090
vn 0.000025 -0.674203 -0.738546
vn 0.000025 -0.674203 -0.738546
vn 0.000025 -0.674203 -0.738546
vn 0.000025 -0.674203 -0.738546
vn 0.000023 0.000179 -1.000000
vn 0.000023 0.000179 -1.000000
vn 0.000023 0.000179 -1.000000
vn 0.000023 0.000179 -1.000000
vn 0.000000 1.000000 0.000000
vn 0.000000 1.000000 0.000000
vn 0.000000 1.000000 0.000000
vn 0.000000 1.000000 0.000000
vn 0.993961 -0.100475 0.044118
vn 0.993961 -0.100475 0.044118
vn 0.993961 -0.100475 0.044118
vn 0.993961 -0.100475 0.044118
vn 0.000000 0.000000 1.000000
vn 0.000000 0.000000 1.000000
vn 0.000000 0.000000 1.000000
vn 0.000000 0.000000 1.000000
vn -0.984116 -0.103592 0.144167
vn -0.984116 -0.103592 0.144167
vn -0.984116 -0.103592 0.144167
vn 0.000000 0.000000 -1.000000
vn 0.000000 0.000000 -1.000000
vn 0.000000 0.000000 -1.000000
vn 0.000000 0.000000 -1.000000
vn -0.888712 0.000000 -0.458466
vn -0.888712 0.000000 -0.458466
vn -0.888712 0.000000 -0.458466
vn 0.888669 0.000000 -0.458549
vn 0.888669 0.000000 -0.458549
vn 0.888669 0.000000 -0.458549
vn -0.000117 0.000013 -1.000000
vn -0.000117 0.000013 -1.000000
vn -0.000117 0.000013 -1.000000
vn -0.000117 0.000013 -1.000000
vn -0.000117 0.000013 -1.000000
vn -0.976772 0.068504 -0.203034
vn -0.976772 0.068504 -0.203034
vn -0.976772 0.068504 -0.203034
vn 0.976756 0.068529 -0.203107
vn 0.976756 0.068529 -0.203107
vn 0.976756 0.068529 -0.203107
vn -1.000000 0.000000 0.000000
vn -1.000000 0.000000 0.000000
vn -1.000000 0.000000 0.000000
vn 1.000000 0.000000 0.000000
vn 1.000000 0.000000 0.000000
vn 1.000000 0.000000 0.000000
vn 0.000000 -0.045544 -0.998962
vn 0.000000 -0.045544 -0.998962
vn 0.000000 -0.045544 -0.998962
vn 0.000000 -0.045544 -0.998962
vn 0.000000 -0.674632 -0.738154
vn 0.000000 -0.674632 -0.738154
vn 0.000000 -0.674632 -0.738154
vn 0.000000 -0.674632 -0.738154
vn 0.000000 -0.674322 0.738438
vn 0.000000 -0.674322 0.738438
vn 0.000000 -0.674322 0.738438
vn 0.000000 -0.674322 0.738438
vn 0.000000 0.000000 -1.000000
vn 0.000000 0.000000 -1.000000
vn 0.000000 0.000000 -1.000000
vn 0.000000 0.000000 -1.000000
vn 0.000000 0.000000 1.000000
vn 0.000000 0.000000 1.000000
vn 0.000000 0.000000 1.000000
vn 0.000000 0.000000 1.000000
vn 0.000000 -0.674321 0.738438
vn 0.000000 -0.674321 0.738438
vn 0.000000 -0.674321 0.738438
vn 0.000000 -0.674321 0.738438
vn 0.000000 0.000000 1.000000
vn 0.000000 0.000000 1.000000
vn 0.000000 0.000000 1.000000
vn 0.000000 0.000000 1.000000
vn 0.000000 1.000000 0.000000
vn 0.000000 1.000000 0.000000
vn 0.000000 1.000000 0.000000
vn 0.000000 1.000000 0.000000
vn 0.000000 0.000000 -1.000000
vn 0.000000 0.000000 -1.000000
vn 0.000000 0.000000 -1.000000
vn 0.000000 0.000000 -1.000000
vn 0.000000 -0.674632 -0.738155
vn 0.000000 -0.674632 -0.738155
vn 0.000000 -0.674632 -0.738155
vn 0.000000 -0.674632 -0.738155
vn 0.000023 0.000072 -1.000000
vn 0.000023 0.000072 -1.000000
vn 0.000023 0.000072 -1.000000
vn 0.000023 0.000072 -1.000000
vn 0.000025 -0.674193 -0.738555
vn 0.000025 -0.674193 -0.738556
vn 0.000025 -0.674193 -0.738556
vn 0.000025 -0.674193 -0.738555
vn 0.000000 -0.045544 -0.998962
vn 0.000000 -0.045544 -0.998962
vn 0.000000 -0.045544 -0.998962
vn 0.000000 -0.045544 -0.998962
vn -0.000000 -0.583533 0.812090
vn -0.000000 -0.583533 0.812090
vn -0.000000 -0.583533 0.812090
vn -0.000000 -0.583533 0.812090
vn 0.000000 0.000053 1.000000
vn 0.000000 0.000053 1.000000
vn 0.000000 0.000053 1.000000
vn 0.000000 0.000053 1.000000
vn -0.993961 -0.100474 0.044118
vn -0.993961 -0.100474 0.044118
vn -0.993961 -0.100474 0.044118
vn -0.993961 -0.100474 0.044118
vn -0.993961 -0.100474 0.044118
vn -0.993961 -0.100474 0.044118
vn -0.993961 -0.100474 0.044118
vn -0.993961 -0.100474 0.044118
vn -0.993948 -0.100579 0.044164
vn -0.993948 -0.100579 0.044164
vn -0.993948 -0.100579 0.044164
vn -0.993948 -0.100579 0.044164
vn 0.984083 -0.103698 0.144315
vn 0.984083 -0.103698 0.144315
vn 0.984083 -0.103698 0.144315
vn 0.984116 -0.103592 0.144167
vn 0.984116 -0.103592 0.144167
vn 0.984116 -0.103592 0.144167
vn -1.000000 -0.000413 -0.000203
vn -1.000000 -0.000413 -0.000203
vn -1.000000 -0.000413 -0.000203
vn -1.000000 -0.000413 -0.000203
vn -1.000000 0.000749 0.000000
vn -1.000000 0.000749 0.000000
vn -1.000000 0.000749 0.000000
vn -1.000000 0.000749 0.000000
vn -1.000000 0.000749 0.000000
vn -1.000000 0.000749 0.000000
vn -1.000000 -0.000113 -0.000543
vn -1.000000 -0.000113 -0.000543
vn -1.000000 -0.000113 -0.000543
vn -1.000000 -0.000113 -0.000543
vn 0.000000 0.000053 1.000000
vn 0.000000 0.000053 1.000000
vn 0.000000 0.000053 1.000000
vn 0.000000 0.000000 1.000000
vn 0.000000 0.000000 1.000000
vn 0.000000 0.000000 1.000000
vn 0.000000 0.000000 1.000000
vn 0.000000 -0.801021 0.598636
vn 0.000000 -0.801021 0.598636
vn 0.000000 -0.801021 0.598636
vn 0.000000 -0.801021 0.598636
vn 0.000000 0.000000 -1.000000
vn 0.000000 0.000000 -1.000000
vn 0.000000 0.000000 -1.000000
vn 0.000000 0.000000 -1.000000
vn 0.000000 -1.000000 0.000000
vn 0.000000 -1.000000 0.000000
vn 0.000000 -1.000000 0.000000
vn 0.000000 -1.000000 0.000000
vn -0.000063 0.000013 -1.000000
vn -0.000063 0.000013 -1.000000
vn -0.000063 0.000013 -1.000000
vn -0.000063 0.000013 -1.000000
vn 1.000000 -0.000025 0.000002
vn 1.000000 -0.000025 0.000002
vn 1.000000 -0.000025 0.000002
vn 1.000000 -0.000025 0.000002
vn 1.000000 -0.000025 0.000002
vn 1.000000 0.000050 -0.000028
vn 1.000000 0.000050 -0.000028
vn 1.000000 0.000050 -0.000028
vn 1.000000 0.000050 -0.000028
vn 1.000000 -0.000001 0.000000
vn 1.000000 -0.000001 0.000000
vn 1.000000 -0.000001 0.000000
vn 1.000000 -0.000001 0.000000
vn 1.000000 -0.000001 0.000000
vn 1.000000 -0.000001 0.000000
s off
f 2/2/1 10/10/2 6/3/3
f 4/6/4 3/5/5 8/11/6
f 8/11/7 3/5/8 9/12/9
f 3/5/10 10/10/11 9/12/12
f 15/15/13 16/16/14 27/17/15
f 34/18/16 33/19/17 35/20/18 36/21/19
f 29/22/20 28/23/21 25/24/22 26/25/23
f 30/26/24 15/15/25 27/17/26 31/27/27
f 41/28/28 42/29/29 31/27/30 27/17/31
f 37/30/32 39/31/33 40/32/34 38/33/35
f 32/34/36 37/30/37 38/33/38 17/35/39
f 23/36/40 24/37/41 46/38/42 45/39/43
f 28/23/44 41/28/45 33/19/46 34/18/47
f 27/17/48 16/16/49 35/20/50 33/19/51
f 16/16/52 20/40/53 35/20/54
f 25/24/55 28/23/56 34/18/57 36/21/58
f 26/25/59 25/24/60 18/41/61
f 28/23/62 29/22/63 38/33/64
f 17/35/65 38/33/66 29/22/67 26/25/68 18/41/69
f 18/41/70 25/24/71 19/42/72
f 28/23/73 38/33/74 40/32/75
f 25/24/76 20/40/77 19/42/78
f 41/28/79 28/23/80 40/32/81
f 39/31/82 42/29/83 41/28/84 40/32/85
f 32/34/86 17/35/87 21/43/88 43/44/89
f 15/15/90 30/26/91 44/45/92 22/46/93
f 43/44/94 21/43/95 23/36/96 45/39/97
f 22/46/98 44/45/99 46/38/100 24/37/101
f 30/26/102 31/27/103 49/47/104
f 53/48/105 52/49/106 54/50/107 55/51/108
f 51/52/109 50/53/110 47/54/111 48/55/112
f 1/1/113 30/26/114 49/47/115 2/2/116
f 58/56/117 10/10/118 2/2/119 49/47/120
f 8/11/121 9/12/122 57/57/123 56/58/124
f 5/7/125 8/11/126 56/58/127 32/34/128
f 45/39/129 46/38/130 14/8/131 13/9/132
f 50/53/133 58/56/134 52/49/135 53/48/136
f 49/47/137 31/27/138 54/50/139 52/49/140
f 31/27/141 42/29/142 54/50/143
f 47/54/144 50/53/145 53/48/146 55/51/147
f 48/55/148 47/54/149 37/30/150
f 50/53/151 51/52/152 56/58/153
f 32/34/154 56/58/155 51/52/156 48/55/157 37/30/158
f 37/30/159 47/54/160 39/31/161
f 50/53/162 56/58/163 57/57/164
f 47/54/165 42/29/166 39/31/167
f 58/56/168 50/53/169 57/57/170
f 9/12/171 10/10/172 58/56/173 57/57/174
f 5/7/175 32/34/176 43/44/177 11/13/178
f 30/26/179 1/1/180 12/14/181 44/45/182
f 11/13/183 43/44/184 45/39/185 13/9/186
f 44/45/187 12/14/188 14/8/189 46/38/190
f 60/59/191 59/60/192 15/15/193 22/46/194
f 61/61/195 60/59/196 22/46/197 24/37/198
f 62/62/199 61/61/200 24/37/201 23/36/202
f 21/43/203 63/63/204 62/62/205 23/36/206
f 17/35/207 64/64/208 63/63/209 21/43/210
f 17/35/211 18/41/212 65/65/213 64/64/214
f 18/41/215 19/42/216 66/66/217 65/65/218
f 19/42/219 20/40/220 67/67/221 66/66/222
f 68/68/223 67/67/224 20/40/225 16/16/226
f 15/15/227 59/60/228 68/68/229 16/16/230
f 35/20/231 20/40/232 25/24/233 36/21/234
f 54/50/235 42/29/236 47/54/237 55/51/238
f 6/3/239 10/10/240 3/5/241 7/4/242
f 33/19/243 41/28/244 27/17/245
f 52/49/246 58/56/247 49/47/248
f 59/60/249 64/64/250 65/65/251 66/66/252
f 60/59/253 61/61/254 62/62/255 63/63/256 64/64/257 59/60/258
f 59/60/259 66/66/260 67/67/261 68/68/262
f 1/1/263 2/2/264 69/69/265
f 70/70/266 69/69/267 2/2/268 6/3/269
f 71/71/270 70/70/271 6/3/272 7/4/273
f 3/5/274 72/72/275 71/71/276 7/4/277
f 73/73/278 72/72/279 3/5/280 4/6/281
f 5/7/282 73/73/283 4/6/284 8/11/285
f 5/7/286 1/1/287 69/69/288 72/72/289 73/73/290
f 72/72/291 69/69/292 70/70/293 71/71/294
f 11/13/295 13/9/296 14/8/297 12/14/298 1/1/299 5/7/300
