# This file uses centimeters as units for non-parametric coordinates.

v 0.000000 0.000000 0.000000
v 1.038971 2.127304 -1.038818
v 248.465134 2.744150 -1.535034
v 249.999832 0.000000 0.000000
v 124.999832 0.000000 0.000000
v 124.999832 2.257681 -3.625488
v 0.000000 0.000000 -125.000000
v 125.230103 2.257681 -125.009766
v 249.999832 0.000000 -125.000000
v 3.040314 2.979021 -123.547974
v 247.004562 3.034668 -123.435669
v 121.905960 3.794718 -2.379150
v 123.490768 3.061991 -123.385620
v 127.324661 3.097105 -2.944946
v 128.008255 3.318138 -122.868652
v 2.379150 4.599648 -57.709961
v 46.018677 4.599648 -2.379150
v 6.826324 4.599648 -23.482666
v 19.538422 4.599648 -7.642822
v 98.390060 3.794718 -121.906128
v 121.905960 3.794718 -97.315063
v 109.831238 3.794718 -119.918823
v 117.975632 4.599648 -112.614746
v 136.877441 3.794718 -121.906128
v 129.256760 3.794718 -119.616089
v 13.164063 3.794718 -121.906128
v 2.379150 3.794718 -117.410889
v 247.620682 4.599648 -97.407227
v 217.182175 3.794718 -121.906128
v 243.219299 4.599648 -113.284302
v 234.702591 3.794718 -119.400635
v 221.205444 3.794718 -2.379150
v 247.620682 4.599648 -21.224365
v 241.518250 4.599648 -7.392578
v 129.256760 3.794718 -10.942383
v 132.107376 3.794718 -2.378540
v 129.288025 2.673740 -1.477661
v 129.256760 3.794718 -58.807983
v 129.256760 3.794718 -86.508179
v 132.699753 4.139910 -75.643921
v 127.657913 3.217430 -74.903564
v 39.657745 3.794718 -121.906128
v 56.981049 3.794718 -121.906128
v 46.622467 4.599648 -119.774780
v 46.583405 3.249617 -123.003540
vt 0.361684 0.912696
vt 0.361228 0.912974
vt 0.361238 0.912940
vt 0.361533 0.912760
vt 0.361680 0.912689
vt 0.361217 0.912951
vt 0.361208 0.912969
vt 0.361211 0.912955
vt 0.360840 0.912567
vt 0.361256 0.912401
vt 0.361258 0.912397
vt 0.360302 0.912801
vt 0.360298 0.912805
vt 0.361274 0.912402
vt 0.361463 0.912528
vt 0.360947 0.912525
vt 0.360911 0.912548
vt 0.360850 0.912565
vt 0.360965 0.912704
vt 0.360577 0.913370
vt 0.360347 0.912879
vt 0.360525 0.913222
vt 0.360580 0.913346
vt 0.361193 0.912967
vt 0.360742 0.913237
vt 0.360340 0.912811
vt 0.360942 0.912707
vt 0.360604 0.913277
vt 0.360834 0.912572
vt 0.360802 0.912586
vt 0.360454 0.912732
vt 0.361600 0.912691
vt 0.361576 0.912622
vt 0.361131 0.912452
vt 0.361147 0.912442
vt 0.361229 0.912407
vt 0.360924 0.912626
vt 0.361121 0.912452
vt 0.360899 0.912575
vt 0.360838 0.912580
vt 0.360373 0.912777
vt 0.361173 0.912925
vt 0.360925 0.912670
vt 0.361007 0.912754
vt 0.361090 0.912465
vn 0.002021 0.481085 0.876672
vn 0.002021 0.481085 0.876672
vn 0.002021 0.481085 0.876672
vn 0.002021 0.481085 0.876672
vn 0.002021 0.481085 0.876672
vn -0.344054 0.769659 0.537821
vn -0.344054 0.769659 0.537821
vn -0.344054 0.769659 0.537821
vn -0.344054 0.769659 0.537821
vn -0.874299 0.485348 -0.006246
vn -0.874299 0.485348 -0.006246
vn -0.874299 0.485348 -0.006246
vn -0.874299 0.485348 -0.006246
vn -0.874299 0.485348 -0.006246
vn -0.874299 0.485348 -0.006246
vn 0.021621 0.991987 -0.124474
vn 0.021621 0.991987 -0.124474
vn 0.021621 0.991987 -0.124474
vn -0.355561 0.934653 -0.000675
vn -0.355561 0.934653 -0.000675
vn -0.355561 0.934653 -0.000675
vn 0.873639 0.486550 -0.005000
vn 0.873639 0.486550 -0.005000
vn 0.873639 0.486550 -0.005000
vn 0.873639 0.486550 -0.005000
vn 0.873639 0.486550 -0.005000
vn 0.873639 0.486550 -0.005000
vn 0.535853 0.716706 0.446312
vn 0.535853 0.716706 0.446312
vn 0.535853 0.716706 0.446312
vn 0.000049 0.526510 0.850169
vn 0.000049 0.526510 0.850169
vn 0.000049 0.526510 0.850169
vn 0.000049 0.526510 0.850169
vn 0.000049 0.526510 0.850169
vn 0.000049 0.526510 0.850169
vn -0.003865 0.999993 -0.000062
vn -0.003865 0.999993 -0.000062
vn -0.003865 0.999993 -0.000062
vn -0.003865 0.999993 -0.000062
vn -0.003865 0.999993 -0.000062
vn 0.003838 0.746200 -0.665711
vn 0.003838 0.746200 -0.665711
vn 0.003838 0.746200 -0.665711
vn 0.003838 0.746200 -0.665711
vn 0.003838 0.746200 -0.665711
vn 0.003838 0.746200 -0.665711
vn -0.102973 0.991245 0.082640
vn -0.102973 0.991245 0.082640
vn -0.102973 0.991245 0.082640
vn -0.273080 0.961337 0.035482
vn -0.273080 0.961337 0.035482
vn -0.273080 0.961337 0.035482
vn -0.046425 0.971235 0.233553
vn -0.046425 0.971235 0.233553
vn -0.046425 0.971235 0.233553
vn -0.018652 0.999565 -0.022844
vn -0.018652 0.999565 -0.022844
vn -0.018652 0.999565 -0.022844
vn -0.018652 0.999565 -0.022844
vn -0.018652 0.999565 -0.022844
vn 0.432867 0.901458 0.000435
vn 0.432867 0.901458 0.000435
vn 0.432867 0.901458 0.000435
vn 0.432867 0.901458 0.000435
vn 0.432867 0.901458 0.000435
vn -0.011573 0.638619 -0.769436
vn -0.011573 0.638619 -0.769436
vn -0.011573 0.638619 -0.769436
vn 0.246239 0.969132 -0.012269
vn 0.246239 0.969132 -0.012269
vn 0.246239 0.969132 -0.012269
vn 0.019832 0.991139 -0.131340
vn 0.019832 0.991139 -0.131340
vn 0.019832 0.991139 -0.131340
vn -0.039111 0.990722 -0.130152
vn -0.039111 0.990722 -0.130152
vn -0.039111 0.990722 -0.130152
vn -0.057356 0.988825 -0.137606
vn -0.057356 0.988825 -0.137606
vn -0.057356 0.988825 -0.137606
vn 0.012639 0.988944 -0.147747
vn 0.012639 0.988944 -0.147747
vn 0.012639 0.988944 -0.147747
vn 0.230270 0.971031 -0.063834
vn 0.230270 0.971031 -0.063834
vn 0.230270 0.971031 -0.063834
vn 0.018596 0.991335 -0.130036
vn 0.018596 0.991335 -0.130036
vn 0.018596 0.991335 -0.130036
vn 0.190414 0.978103 0.084009
vn 0.190414 0.978103 0.084009
vn 0.190414 0.978103 0.084009
vn 0.028699 0.962217 0.270766
vn 0.028699 0.962217 0.270766
vn 0.028699 0.962217 0.270766
vn -0.149940 0.987435 0.049910
vn -0.149940 0.987435 0.049910
vn -0.149940 0.987435 0.049910
vn -0.182366 0.852444 0.489982
vn -0.182366 0.852444 0.489982
vn -0.182366 0.852444 0.489982
vn -0.176420 0.984007 0.024644
vn -0.176420 0.984007 0.024644
vn -0.176420 0.984007 0.024644
vn -0.182385 0.983078 -0.017142
vn -0.182385 0.983078 -0.017142
vn -0.182385 0.983078 -0.017142
vn -0.007662 0.922604 -0.385673
vn -0.007662 0.922604 -0.385673
vn -0.007662 0.922604 -0.385673
vn 0.011465 0.922488 -0.385856
vn 0.011465 0.922488 -0.385856
vn 0.011465 0.922488 -0.385856
vn 0.010737 0.989257 -0.145791
vn 0.010737 0.989257 -0.145791
vn 0.010737 0.989257 -0.145791
vn 0.010737 0.989257 -0.145791
vn 0.010737 0.989257 -0.145791
vn 0.018895 0.999800 0.006627
vn 0.018895 0.999799 0.006627
vn 0.018895 0.999800 0.006627
vn 0.018895 0.999800 0.006627
vn 0.000000 1.000000 0.000000
vn 0.000000 1.000000 0.000000
vn 0.000000 1.000000 0.000000
vn 0.000000 1.000000 0.000000
vn 0.000000 1.000000 0.000000
vn 0.000000 1.000000 0.000000
vn -0.007181 0.999782 -0.019613
vn -0.007181 0.999782 -0.019613
vn -0.007181 0.999782 -0.019613
vn -0.007181 0.999782 -0.019613
vn -0.007181 0.999782 -0.019613
vn -0.007181 0.999782 -0.019613
vn -0.007181 0.999782 -0.019613
vn -0.008679 0.999885 0.012443
vn -0.008679 0.999885 0.012443
vn -0.008679 0.999885 0.012443
vn -0.008679 0.999885 0.012443
vn -0.008679 0.999885 0.012443
vn -0.008679 0.999885 0.012443
vn -0.339608 0.940567 -0.000000
vn -0.339608 0.940567 -0.000000
vn -0.339608 0.940567 -0.000000
vn -0.339608 0.940567 -0.000000
vn -0.339608 0.940567 -0.000000
vn -0.352426 0.935839 -0.000502
vn -0.352426 0.935839 -0.000502
vn -0.352426 0.935839 -0.000502
vn -0.352426 0.935840 -0.000502
vn -0.352426 0.935840 -0.000502
vn 0.005214 0.664542 -0.747233
vn 0.005214 0.664542 -0.747232
vn 0.005214 0.664542 -0.747233
vn 0.005214 0.664542 -0.747233
vn 0.005214 0.664542 -0.747233
vn -0.000016 0.895985 -0.444085
vn -0.000016 0.895985 -0.444085
vn -0.000016 0.895985 -0.444085
vn -0.000016 0.895985 -0.444085
vn -0.000016 0.895985 -0.444085
s off
f 1/1/1 5/2/2 12/3/3 17/4/4 2/5/5
f 6/6/6 5/2/7 37/7/8 14/8/9
f 27/14/10 10/11/11 7/10/12 1/1/13 2/5/14 16/15/15
f 20/16/16 22/17/17 13/18/18
f 6/6/19 41/19/20 8/9/21
f 4/20/22 9/13/23 11/12/24 28/21/25 33/22/26 3/23/27
f 12/3/28 5/2/29 6/6/30
f 36/24/31 37/7/32 5/2/33 4/20/34 3/23/35 32/25/36
f 28/21/37 30/26/38 40/27/39 34/28/40 33/22/41
f 9/13/42 8/9/43 15/29/44 24/30/45 29/31/46 11/12/47
f 2/5/48 19/32/49 18/33/50
f 2/5/51 18/33/52 16/15/53
f 2/5/54 17/4/55 19/32/56
f 16/15/57 44/34/58 42/35/59 26/36/60 27/14/61
f 13/18/62 21/37/63 12/3/64 6/6/65 8/9/66
f 7/10/67 45/38/68 8/9/69
f 13/18/70 23/39/71 21/37/72
f 13/18/73 22/17/74 23/39/75
f 25/40/76 24/30/77 15/29/78
f 27/14/79 26/36/80 10/11/81
f 11/12/82 31/41/83 30/26/84
f 11/12/85 30/26/86 28/21/87
f 11/12/88 29/31/89 31/41/90
f 33/22/91 34/28/92 3/23/93
f 3/23/94 34/28/95 32/25/96
f 36/24/97 35/42/98 14/8/99
f 14/8/100 37/7/101 36/24/102
f 41/19/103 40/27/104 39/43/105
f 38/44/106 40/27/107 41/19/108
f 45/38/109 44/34/110 43/45/111
f 42/35/112 44/34/113 45/38/114
f 44/34/115 23/39/116 22/17/117 20/16/118 43/45/119
f 23/39/120 17/4/121 12/3/122 21/37/123
f 16/15/124 18/33/125 19/32/126 17/4/127 23/39/128 44/34/129
f 40/27/130 30/26/131 31/41/132 29/31/133 24/30/134 25/40/135 39/43/136
f 34/28/137 40/27/138 38/44/139 35/42/140 36/24/141 32/25/142
f 14/8/143 35/42/144 38/44/145 41/19/146 6/6/147
f 8/9/148 41/19/149 39/43/150 25/40/151 15/29/152
f 10/11/153 26/36/154 42/35/155 45/38/156 7/10/157
f 8/9/158 45/38/159 43/45/160 20/16/161 13/18/162
