# This file uses centimeters as units for non-parametric coordinates.

v 97.249573 90.023247 102.344780
v 151.454971 90.023247 102.344780
v 97.249573 154.935471 102.344780
v 151.454971 154.935471 102.344780
v 97.249573 154.935471 102.126099
v 151.454971 154.935471 102.126099
v 97.249573 90.023247 102.126099
v 151.454971 90.023247 102.126099
vt 0.538700 0.532416
vt 0.588605 0.532416
vt 0.588605 0.592180
vt 0.538700 0.592180
vt 0.538700 0.532417
vt 0.588606 0.532417
vt 0.588606 0.592180
vt 0.538700 0.592180
vn 0.000000 0.000000 1.000000
vn 0.000000 0.000000 1.000000
vn 0.000000 0.000000 1.000000
vn 0.000000 0.000000 1.000000
vn 0.000000 0.000000 -1.000000
vn 0.000000 0.000000 -1.000000
vn 0.000000 0.000000 -1.000000
vn 0.000000 0.000000 -1.000000
s off
f 1/1/1 2/2/2 4/3/3 3/4/4
f 5/5/5 6/6/6 8/7/7 7/8/8
