# This file uses centimeters as units for non-parametric coordinates.

v 357.123840 310.827576 -500.120789
v 311.847961 356.103394 -500.120819
v 249.999924 372.675507 -500.120819
v 188.152054 356.103394 -500.120819
v 142.876205 310.827576 -500.120819
v 127.053299 248.979599 -500.120789
v 372.947174 248.979599 -500.120789
v 357.123810 310.827576 5.785080
v 311.847961 356.103394 5.785080
v 249.999924 372.675507 5.785080
v 188.152054 356.103394 5.785080
v 142.876205 310.827576 5.785080
v 127.053299 248.979599 5.785080
v 372.947174 248.979599 5.785080
v 332.821259 303.314117 -500.120819
v 297.816925 338.318451 -500.120819
v 202.183212 338.318451 -500.120819
v 167.178864 303.314117 -500.120819
v 345.054810 255.497253 -500.120789
v 249.999985 351.130981 5.785080
v 202.183212 338.318451 5.785080
v 154.945602 255.497253 5.785080
v 345.054810 255.497253 5.785080
v 167.178864 303.314117 5.785080
v 332.821289 303.314117 5.785080
v 297.816925 338.318451 5.785080
v 249.999985 351.130981 -500.120819
v 345.054810 0.000015 -500.120850
v 345.054810 0.000015 5.785065
v 372.947174 0.000015 -500.120850
v 372.947174 0.000015 5.785065
v 127.053307 0.000015 -500.120850
v 127.053307 0.000015 5.785065
v 154.945618 0.000015 -500.120850
v 154.945618 0.000015 5.785065
v 154.945602 255.497253 -500.120819
v 154.945602 218.902634 -500.120789
vt 0.601665 0.901450
vt 0.601837 0.901267
vt 0.601876 0.901356
vt 0.601691 0.901547
vt 0.602078 0.901192
vt 0.602133 0.901275
vt 0.602317 0.901246
vt 0.602383 0.901326
vt 0.602479 0.901400
vt 0.602560 0.901495
vt 0.602530 0.901616
vt 0.602612 0.901723
vt 0.601612 0.901676
vt 0.601634 0.901791
vt 0.601787 0.901505
vt 0.601909 0.901379
vt 0.602245 0.901361
vt 0.602364 0.901471
vt 0.601748 0.901667
vt 0.602133 0.901418
vt 0.602311 0.901454
vt 0.602475 0.901732
vt 0.601780 0.901781
vt 0.601817 0.901596
vt 0.602409 0.901636
vt 0.601946 0.901460
vt 0.602086 0.901339
vt 0.602427 0.901558
vt 0.602561 0.904330
vt 0.602670 0.904199
vt 0.602570 0.904172
vt 0.602455 0.904299
vt 0.602632 0.903824
vt 0.602521 0.903801
vt 0.602506 0.903938
vt 0.603280 0.904542
vt 0.603341 0.904378
vt 0.603217 0.904345
vt 0.603147 0.904503
vt 0.603240 0.903965
vt 0.603243 0.904005
vt 0.603323 0.904126
vt 0.603388 0.903980
vt 0.603170 0.904091
vt 0.602388 0.903911
vn 0.707106 0.707107 0.000000
vn 0.707106 0.707107 0.000000
vn 0.707106 0.707107 0.000000
vn 0.707106 0.707107 0.000000
vn 0.258819 0.965926 0.000000
vn 0.258819 0.965926 0.000000
vn 0.258819 0.965926 0.000000
vn 0.258819 0.965926 0.000000
vn -0.258819 0.965926 0.000000
vn -0.258819 0.965926 0.000000
vn -0.258819 0.965926 0.000000
vn -0.258819 0.965926 0.000000
vn -0.707107 0.707107 0.000000
vn -0.707107 0.707107 0.000000
vn -0.707107 0.707107 0.000000
vn -0.707107 0.707107 0.000000
vn -0.968798 0.247853 0.000000
vn -0.968798 0.247853 0.000000
vn -0.968798 0.247853 0.000000
vn -0.968798 0.247853 0.000000
vn 0.968796 0.247859 0.000000
vn 0.968796 0.247859 0.000000
vn 0.968796 0.247859 0.000000
vn 0.968796 0.247859 0.000000
vn 0.000002 0.000000 -1.000000
vn 0.000002 0.000000 -1.000000
vn 0.000002 0.000000 -1.000000
vn 0.000002 0.000000 -1.000000
vn 0.000000 0.000000 -1.000000
vn 0.000000 0.000000 -1.000000
vn 0.000000 0.000000 -1.000000
vn 0.000000 0.000000 -1.000000
vn 0.000000 0.000000 -1.000000
vn 0.000000 0.000000 -1.000000
vn 0.000000 0.000000 -1.000000
vn 0.000000 0.000000 -1.000000
vn -0.000001 0.000000 -1.000000
vn -0.000001 0.000000 -1.000000
vn -0.000001 0.000000 -1.000000
vn -0.000001 0.000000 -1.000000
vn 0.000000 -0.000000 -1.000000
vn 0.000000 -0.000000 -1.000000
vn 0.000000 -0.000000 -1.000000
vn 0.000000 -0.000000 -1.000000
vn 0.000000 0.000000 1.000000
vn 0.000000 0.000000 1.000000
vn 0.000000 0.000000 1.000000
vn 0.000000 0.000000 1.000000
vn -0.968796 -0.247859 0.000000
vn -0.968796 -0.247859 0.000000
vn -0.968796 -0.247859 0.000000
vn -0.968796 -0.247859 0.000000
vn -0.707106 -0.707107 0.000000
vn -0.707106 -0.707107 0.000000
vn -0.707106 -0.707107 0.000000
vn -0.707106 -0.707107 0.000000
vn -0.258819 -0.965926 0.000000
vn -0.258819 -0.965926 0.000000
vn -0.258819 -0.965926 0.000000
vn -0.258819 -0.965926 0.000000
vn 0.258820 -0.965926 0.000000
vn 0.258820 -0.965926 0.000000
vn 0.258820 -0.965926 0.000000
vn 0.258820 -0.965926 0.000000
vn 0.707107 -0.707107 0.000000
vn 0.707107 -0.707107 0.000000
vn 0.707107 -0.707107 0.000000
vn 0.707107 -0.707107 0.000000
vn 0.000000 0.000000 1.000000
vn 0.000000 0.000000 1.000000
vn 0.000000 0.000000 1.000000
vn 0.000000 0.000000 1.000000
vn 0.000000 0.000000 1.000000
vn 0.000000 0.000000 1.000000
vn 0.000000 0.000000 1.000000
vn 0.000000 0.000000 1.000000
vn -0.000000 0.000000 1.000000
vn -0.000000 0.000000 1.000000
vn -0.000000 0.000000 1.000000
vn -0.000000 0.000000 1.000000
vn 0.000000 0.000000 1.000000
vn 0.000000 0.000000 1.000000
vn 0.000000 0.000000 1.000000
vn 0.000000 0.000000 1.000000
vn 0.000000 0.000000 1.000000
vn 0.000000 0.000000 1.000000
vn 0.000000 0.000000 1.000000
vn 0.000000 0.000000 1.000000
vn 0.000000 -1.000000 0.000000
vn 0.000000 -1.000000 0.000000
vn 0.000000 -1.000000 0.000000
vn 0.000000 -1.000000 0.000000
vn 1.000000 -0.000000 0.000000
vn 1.000000 -0.000000 0.000000
vn 1.000000 -0.000000 0.000000
vn 1.000000 -0.000000 0.000000
vn -0.000000 -0.000000 1.000000
vn -0.000000 -0.000000 1.000000
vn -0.000000 -0.000000 1.000000
vn -0.000000 -0.000000 1.000000
vn 0.000000 -1.000000 0.000000
vn 0.000000 -1.000000 0.000000
vn 0.000000 -1.000000 0.000000
vn 0.000000 -1.000000 0.000000
vn 0.000000 -0.000000 1.000000
vn 0.000000 -0.000000 1.000000
vn 0.000000 -0.000000 1.000000
vn 0.000000 -0.000000 1.000000
vn 0.968798 -0.247853 0.000000
vn 0.968798 -0.247853 0.000000
vn 0.968798 -0.247853 0.000000
vn 0.968798 -0.247853 0.000000
vn 0.000000 0.000000 -1.000000
vn 0.000000 0.000000 -1.000000
vn 0.000000 0.000000 -1.000000
vn 0.000000 0.000000 -1.000000
vn 0.000000 0.000000 -1.000000
vn -0.000001 -0.000000 -1.000000
vn -0.000001 -0.000000 -1.000000
vn -0.000001 -0.000000 -1.000000
vn -0.000001 -0.000000 -1.000000
vn -1.000000 0.000000 0.000000
vn -1.000000 0.000000 0.000000
vn -1.000000 0.000000 0.000000
vn -1.000000 0.000000 0.000000
vn -0.000001 0.000000 -1.000000
vn -0.000001 0.000000 -1.000000
vn -0.000001 0.000000 -1.000000
vn -0.000001 0.000000 -1.000000
vn -1.000000 -0.000000 0.000000
vn -1.000000 -0.000000 0.000000
vn -1.000000 -0.000000 0.000000
vn -1.000000 -0.000000 0.000000
vn 1.000000 0.000000 -0.000000
vn 1.000000 0.000000 -0.000000
vn 1.000000 0.000000 -0.000000
vn 1.000000 0.000000 -0.000000
vn 1.000000 0.000000 -0.000000
s off
f 1/1/1 2/2/2 9/3/3 8/4/4
f 2/2/5 3/5/6 10/6/7 9/3/8
f 3/5/9 4/7/10 11/8/11 10/6/12
f 4/7/13 5/9/14 12/10/15 11/8/16
f 5/9/17 6/11/18 13/12/19 12/10/20
f 7/13/21 1/1/22 8/4/23 14/14/24
f 15/15/25 16/16/26 2/2/27 1/1/28
f 27/27/29 3/5/30 2/2/31 16/16/32
f 4/7/33 3/5/34 27/27/35 17/17/36
f 17/17/37 18/18/38 5/9/39 4/7/40
f 1/1/41 7/13/42 19/19/43 15/15/44
f 21/21/45 20/20/46 10/6/47 11/8/48
f 23/23/49 25/24/50 15/15/51 19/19/52
f 25/24/53 26/26/54 16/16/55 15/15/56
f 20/20/57 27/27/58 16/16/59 26/26/60
f 21/21/61 17/17/62 27/27/63 20/20/64
f 21/21/65 24/28/66 18/18/67 17/17/68
f 11/8/69 12/10/70 24/28/71 21/21/72
f 22/22/73 24/28/74 12/10/75 13/12/76
f 8/4/77 25/24/78 23/23/79 14/14/80
f 9/3/81 26/26/82 25/24/83 8/4/84
f 20/20/85 26/26/86 9/3/87 10/6/88
f 29/29/89 28/30/90 30/31/91 31/32/92
f 7/34/93 14/45/94 31/32/95 30/31/96
f 23/35/97 29/29/98 31/32/99 14/45/100
f 33/36/101 32/37/102 34/38/103 35/39/104
f 13/42/105 33/36/106 35/39/107 22/44/108
f 22/22/109 36/25/110 18/18/111 24/28/112
f 37/41/113 34/38/114 32/37/115 6/43/116 36/40/117
f 6/11/118 5/9/119 18/18/120 36/25/121
f 23/35/122 19/33/123 28/30/124 29/29/125
f 30/31/126 28/30/127 19/33/128 7/34/129
f 13/42/130 6/43/131 32/37/132 33/36/133
f 37/41/134 36/40/135 22/44/136 35/39/137 34/38/138
