# This file uses centimeters as units for non-parametric coordinates.

v 0.000000 -25.000000 0.000000
v 0.000000 3.480469 0.000000
v 250.001953 3.480469 0.000000
v 250.001953 -25.000000 0.000000
v 122.447266 -25.000000 8.974609
v 122.447266 3.480469 8.974609
v 216.466797 3.480469 8.845703
v 216.466797 -25.000000 8.845703
v 0.000000 -25.000000 250.000000
v 0.000000 3.480469 250.000000
v 95.671875 -25.000000 230.970703
v 95.671875 3.480469 230.970703
v 230.970703 3.480469 95.671875
v 230.970703 -25.000000 95.671875
v 176.777344 -25.000000 176.775391
v 176.777344 3.480469 176.775391
v 47.593750 -25.000000 114.902344
v 47.634766 3.480469 114.998047
v 0.000000 -25.000000 123.636719
v 0.000000 3.480469 123.636719
v 87.623047 -25.000000 87.621094
v 114.548828 -25.000000 47.447266
v 114.548828 3.480469 47.447266
v 87.623047 3.480469 87.621094
v 0.000000 -25.000000 214.115234
v 0.000000 3.480469 214.115234
v 82.675781 -25.000000 199.593750
v 82.675781 3.480469 199.593750
v 200.736328 -25.000000 83.148438
v 200.736328 3.480469 83.148438
v 152.787109 -25.000000 152.785156
v 152.787109 3.480469 152.785156
v 0.000000 -4.432922 214.117188
v 82.673828 -4.432922 199.593750
v 152.787109 -4.432922 152.785156
v 200.736328 -4.432922 83.148438
v 216.466797 -4.432922 8.845703
v 122.447266 -4.432922 8.974609
v 114.548828 -4.432922 47.447266
v 87.623047 -4.432922 87.621094
v 47.623047 -4.432922 114.972656
v 0.000000 -4.432922 123.636719
v 122.447266 -18.130737 8.974609
v 216.466797 -18.130737 8.845703
v 200.736328 -18.130737 83.148438
v 152.787109 -18.130737 152.785156
v 82.675781 -18.130737 199.593750
v 0.000000 -18.130737 214.115234
v 0.000000 -18.130737 123.636719
v 47.603516 -18.130737 114.925781
v 87.623047 -18.130737 87.621094
v 114.548828 -18.130737 47.447266
v -0.054688 -16.513580 220.271484
v 84.955078 -16.512970 205.279297
v 157.103516 -16.512878 157.164063
v 206.376953 -16.513245 85.572266
v 219.525391 -16.513245 6.363281
v 119.376953 -16.513245 5.214844
v 108.882813 -16.513245 45.074219
v 83.257813 -16.508453 83.292969
v 45.277344 -16.503632 109.265625
v 0.041016 -16.508362 117.486328
v -0.056641 -6.391663 220.273438
v 84.953125 -6.391052 205.279297
v 157.103516 -6.390961 157.164063
v 206.376953 -6.391327 85.572266
v 219.525391 -6.391327 6.363281
v 119.376953 -6.391327 5.214844
v 108.882813 -6.391327 45.074219
v 83.257813 -6.386536 83.292969
v 45.292969 -6.381714 109.304688
v 0.039063 -6.386444 117.486328
vt 0.242936 0.735094
vt 0.242936 0.735094
vt 0.242936 0.731380
vt 0.242936 0.731380
vt 0.123888 0.731380
vt 0.123888 0.731380
vt 0.488068 0.180842
vt 0.488072 0.180786
vt 0.488306 0.180787
vt 0.488298 0.180843
vt 0.242936 0.623762
vt 0.242936 0.623762
vt 0.197378 0.632236
vt 0.197378 0.632236
vt 0.123888 0.735094
vt 0.123888 0.735094
vt 0.132950 0.692488
vt 0.132950 0.692488
vt 0.158756 0.656370
vt 0.158756 0.656370
vt 0.487923 0.180775
vt 0.487925 0.180727
vt 0.242936 0.680035
vt 0.242936 0.680035
vt 0.487853 0.180771
vt 0.487854 0.180724
vt 0.201211 0.696073
vt 0.188389 0.713964
vt 0.220272 0.683924
vt 0.188389 0.713964
vt 0.201211 0.696073
vt 0.488040 0.180812
vt 0.488043 0.180760
vt 0.487988 0.180789
vt 0.487991 0.180739
vt 0.487848 0.180717
vt 0.487848 0.180676
vt 0.487974 0.180724
vt 0.487976 0.180682
vt 0.488210 0.180787
vt 0.488215 0.180741
vt 0.488097 0.180747
vt 0.488100 0.180704
vt 0.242936 0.639743
vt 0.220253 0.683882
vt 0.242936 0.639743
vt 0.203567 0.646209
vt 0.170180 0.667054
vt 0.147348 0.698065
vt 0.170180 0.667054
vt 0.203567 0.646209
vt 0.147348 0.698065
vt 0.139857 0.731154
vt 0.184628 0.731097
vt 0.184628 0.731097
vt 0.139857 0.731154
vt 0.487848 0.180687
vt 0.487975 0.180694
vt 0.488099 0.180716
vt 0.488214 0.180754
vt 0.488303 0.180802
vt 0.488071 0.180802
vt 0.488042 0.180774
vt 0.487990 0.180753
vt 0.487925 0.180740
vt 0.487853 0.180737
vt 0.488069 0.180828
vt 0.488300 0.180829
vt 0.488212 0.180776
vt 0.488098 0.180737
vt 0.487975 0.180714
vt 0.487848 0.180707
vt 0.487853 0.180760
vt 0.487924 0.180763
vt 0.487989 0.180777
vt 0.488041 0.180799
vt 0.487848 0.180706
vt 0.487975 0.180713
vt 0.488098 0.180735
vt 0.488212 0.180774
vt 0.488300 0.180828
vt 0.488069 0.180827
vt 0.488041 0.180798
vt 0.487989 0.180776
vt 0.487924 0.180762
vt 0.487853 0.180758
vt 0.487848 0.180689
vt 0.487975 0.180696
vt 0.488099 0.180718
vt 0.488214 0.180756
vt 0.488303 0.180805
vt 0.488071 0.180804
vt 0.488042 0.180776
vt 0.487990 0.180755
vt 0.487925 0.180742
vt 0.487853 0.180739
vt 0.488067 0.155772
vt 0.488053 0.155704
vt 0.488120 0.155569
vt 0.488110 0.155513
vt 0.488330 0.155431
vt 0.488323 0.155384
vt 0.488595 0.155344
vt 0.488591 0.155303
vt 0.488871 0.155263
vt 0.488872 0.155301
vt 0.489053 0.155343
vt 0.489053 0.155387
vt 0.488911 0.155420
vt 0.488910 0.155374
vt 0.488787 0.155476
vt 0.488784 0.155426
vt 0.488727 0.155552
vt 0.488723 0.155497
vt 0.488772 0.155584
vt 0.488775 0.155644
vt 0.488332 0.180637
vt 0.487898 0.180715
vt 0.487899 0.180691
vt 0.487922 0.180682
vt 0.487348 0.180702
vt 0.487516 0.180675
vt 0.487520 0.180706
vt 0.487493 0.180718
vt 0.487498 0.180756
vt 0.487368 0.180811
vt 0.487526 0.180757
vt 0.487529 0.180782
vt 0.488348 0.180541
vt 0.487923 0.180645
vt 0.487899 0.180642
vt 0.487900 0.180613
vn 0.000000 0.000000 -1.000000
vn 0.000000 0.000000 -1.000000
vn 0.000000 0.000000 -1.000000
vn 0.000000 0.000000 -1.000000
vn 0.046743 0.965395 0.256569
vn 0.046743 0.965395 0.256569
vn 0.046743 0.965395 0.256569
vn 0.046743 0.965395 0.256569
vn 0.302191 0.950603 0.070955
vn 0.302191 0.950603 0.070955
vn 0.302191 0.950603 0.070955
vn 0.302191 0.950603 0.070955
vn -0.002416 0.887849 0.460129
vn -0.002416 0.887849 0.460128
vn -0.002416 0.887849 0.460128
vn -0.002416 0.887849 0.460128
vn -0.348189 0.935133 -0.065502
vn -0.348189 0.935133 -0.065502
vn -0.348189 0.935133 -0.065502
vn -0.348189 0.935133 -0.065502
vn 0.195080 0.000000 0.980787
vn 0.195080 0.000000 0.980787
vn 0.195080 0.000000 0.980787
vn 0.195080 0.000000 0.980787
vn 0.980784 0.000000 0.195100
vn 0.980784 0.000000 0.195100
vn 0.980784 0.000000 0.195100
vn 0.980784 0.000000 0.195100
vn 0.555587 0.000000 0.831458
vn 0.555587 0.000000 0.831458
vn 0.555587 0.000000 0.831458
vn 0.555587 0.000000 0.831458
vn 0.831462 0.000000 0.555582
vn 0.831462 0.000000 0.555582
vn 0.831462 0.000000 0.555582
vn 0.831462 0.000000 0.555582
vn 0.000000 -1.000000 0.000000
vn 0.000000 -1.000000 0.000000
vn 0.000000 -1.000000 0.000000
vn 0.000000 -1.000000 0.000000
vn 0.000000 -1.000000 0.000000
vn 0.000000 -1.000000 0.000000
vn 0.000000 1.000000 0.000000
vn 0.000000 1.000000 0.000000
vn 0.000000 1.000000 0.000000
vn 0.000000 1.000000 -0.000000
vn 0.000000 1.000000 -0.000000
vn 0.000000 1.000000 -0.000000
vn 0.000000 -1.000000 0.000000
vn 0.000000 -1.000000 0.000000
vn 0.000000 -1.000000 0.000000
vn 0.000000 -1.000000 0.000000
vn 0.000000 -1.000000 0.000000
vn 0.000000 -1.000000 0.000000
vn 0.000000 -1.000000 0.000000
vn 0.000000 -1.000000 0.000000
vn 0.000000 1.000000 0.000000
vn 0.000000 1.000000 0.000000
vn 0.000000 1.000000 0.000000
vn 0.000000 1.000000 0.000000
vn 0.000000 1.000000 0.000000
vn 0.000000 1.000000 0.000000
vn 0.000000 1.000000 0.000000
vn 0.000000 1.000000 0.000000
vn 0.000000 1.000000 0.000000
vn 0.000000 1.000000 0.000000
vn 0.000000 1.000000 0.000000
vn 0.000000 -1.000000 0.000000
vn 0.000000 -1.000000 0.000000
vn 0.000000 -1.000000 0.000000
vn 0.000000 -1.000000 0.000000
vn 0.000000 -1.000000 0.000000
vn 0.000000 -1.000000 0.000000
vn 0.000000 -1.000000 0.000000
vn 0.000000 1.000000 0.000000
vn 0.000000 1.000000 0.000000
vn 0.000000 1.000000 0.000000
vn 0.000000 1.000000 0.000000
vn 0.000000 -1.000000 0.000000
vn 0.000000 -1.000000 0.000000
vn 0.000000 -1.000000 0.000000
vn 0.000000 1.000000 -0.000000
vn 0.000000 1.000000 -0.000000
vn 0.000000 1.000000 -0.000000
vn 0.000000 1.000000 -0.000000
vn 0.000000 1.000000 0.000000
vn 0.000000 1.000000 0.000000
vn 0.000000 1.000000 0.000000
vn 0.000000 1.000000 0.000000
vn 0.000000 1.000000 0.000000
vn 0.000000 1.000000 0.000000
vn 0.000000 1.000000 0.000000
vn 0.000000 -1.000000 0.000000
vn 0.000000 -1.000000 0.000000
vn 0.000000 -1.000000 0.000000
vn 0.000000 -1.000000 0.000000
vn 0.000000 -1.000000 0.000000
vn 0.000000 -1.000000 0.000000
vn 0.000000 -1.000000 0.000000
vn 0.000000 -1.000000 0.000000
vn 0.147209 0.965359 0.215432
vn 0.147209 0.965359 0.215432
vn 0.147209 0.965359 0.215432
vn 0.147209 0.965359 0.215432
vn 0.215466 0.965779 0.144380
vn 0.215466 0.965779 0.144380
vn 0.215466 0.965779 0.144380
vn 0.215466 0.965779 0.144380
vn -0.213443 0.965842 -0.146938
vn -0.213443 0.965842 -0.146938
vn -0.213443 0.965842 -0.146938
vn -0.213443 0.965842 -0.146938
vn -0.144132 0.965696 -0.216005
vn -0.144132 0.965696 -0.216005
vn -0.144132 0.965695 -0.216005
vn -0.144132 0.965695 -0.216005
vn -0.044953 0.965793 -0.255389
vn -0.044953 0.965793 -0.255389
vn -0.044953 0.965793 -0.255389
vn -0.044953 0.965793 -0.255389
vn -0.173009 -0.000100 -0.984920
vn -0.173009 -0.000100 -0.984920
vn -0.173009 -0.000100 -0.984920
vn -0.173009 -0.000100 -0.984920
vn -0.555251 0.000068 -0.831683
vn -0.555251 0.000068 -0.831683
vn -0.555251 0.000068 -0.831683
vn -0.555251 0.000068 -0.831683
vn -0.823633 0.000000 -0.567123
vn -0.823633 0.000000 -0.567123
vn -0.823633 0.000000 -0.567123
vn -0.823633 0.000000 -0.567123
vn -0.978316 0.000000 -0.207117
vn -0.978316 0.000000 -0.207117
vn -0.978316 0.000000 -0.207117
vn -0.978316 0.000000 -0.207117
vn 0.001371 0.000000 0.999999
vn 0.001371 0.000000 0.999999
vn 0.001371 0.000000 0.999999
vn 0.001371 0.000000 0.999999
vn 0.979570 0.000000 0.201106
vn 0.979570 0.000000 0.201106
vn 0.979570 0.000000 0.201106
vn 0.979570 0.000000 0.201106
vn 0.830681 0.000000 0.556749
vn 0.830681 0.000000 0.556749
vn 0.830681 0.000000 0.556749
vn 0.830681 0.000000 0.556749
vn 0.564681 -0.001742 0.825308
vn 0.564681 -0.001742 0.825308
vn 0.564681 -0.001742 0.825308
vn 0.564681 -0.001742 0.825308
vn 0.178716 -0.001711 0.983899
vn 0.178716 -0.001711 0.983899
vn 0.178716 -0.001711 0.983899
vn 0.178716 -0.001711 0.983899
vn 0.001371 0.000000 0.999999
vn 0.001371 0.000000 0.999999
vn 0.001371 0.000000 0.999999
vn 0.001371 0.000000 0.999999
vn -0.978316 0.000000 -0.207117
vn -0.978316 0.000000 -0.207117
vn -0.978316 0.000000 -0.207117
vn -0.978316 0.000000 -0.207117
vn -0.823633 0.000000 -0.567123
vn -0.823633 0.000000 -0.567123
vn -0.823633 0.000000 -0.567123
vn -0.823633 0.000000 -0.567123
vn -0.555256 0.000000 -0.831679
vn -0.555256 0.000000 -0.831679
vn -0.555256 0.000000 -0.831679
vn -0.555256 0.000000 -0.831679
vn -0.172996 0.000000 -0.984923
vn -0.172996 0.000000 -0.984923
vn -0.172996 0.000000 -0.984923
vn -0.172996 0.000000 -0.984923
vn 0.180252 -0.001806 0.983619
vn 0.180252 -0.001806 0.983619
vn 0.180252 -0.001806 0.983619
vn 0.180252 -0.001806 0.983619
vn 0.563387 -0.001810 0.826191
vn 0.563387 -0.001810 0.826192
vn 0.563387 -0.001810 0.826192
vn 0.563386 -0.001810 0.826191
vn 0.830681 0.000000 0.556749
vn 0.830681 0.000000 0.556749
vn 0.830681 0.000000 0.556749
vn 0.830681 0.000000 0.556749
vn 0.979570 0.000000 0.201106
vn 0.979570 0.000000 0.201106
vn 0.979570 0.000000 0.201106
vn 0.979570 0.000000 0.201106
vn -0.173689 0.000062 -0.984801
vn -0.173689 0.000062 -0.984800
vn -0.173689 0.000062 -0.984801
vn -0.173689 0.000062 -0.984801
vn -0.554825 -0.000053 -0.831967
vn -0.554825 -0.000053 -0.831967
vn -0.554825 -0.000053 -0.831967
vn -0.554825 -0.000053 -0.831967
vn -0.823751 0.000000 -0.566951
vn -0.823751 0.000000 -0.566951
vn -0.823751 0.000000 -0.566951
vn -0.823751 0.000000 -0.566951
vn -0.986501 0.000000 -0.163756
vn -0.986501 0.000000 -0.163756
vn -0.986501 0.000000 -0.163756
vn -0.986501 0.000000 -0.163756
vn -0.011467 0.000000 0.999934
vn -0.011467 0.000000 0.999934
vn -0.011467 0.000000 0.999934
vn -0.011467 0.000000 0.999934
vn 0.967046 0.000000 0.254603
vn 0.967046 0.000000 0.254603
vn 0.967046 0.000000 0.254603
vn 0.967046 0.000000 0.254603
vn 0.830585 0.000000 0.556892
vn 0.830585 0.000000 0.556892
vn 0.830585 0.000000 0.556892
vn 0.830585 0.000000 0.556892
vn 0.564844 -0.002028 0.825195
vn 0.564844 -0.002028 0.825195
vn 0.564844 -0.002028 0.825195
vn 0.564844 -0.002028 0.825195
vn 0.178354 -0.002019 0.983964
vn 0.178354 -0.002019 0.983964
vn 0.178354 -0.002019 0.983964
vn 0.178354 -0.002019 0.983964
vn -0.053598 -0.951003 -0.304500
vn -0.053598 -0.951003 -0.304500
vn -0.053598 -0.951003 -0.304500
vn -0.053598 -0.951003 -0.304500
vn -0.171771 -0.950906 -0.257436
vn -0.171771 -0.950906 -0.257436
vn -0.171771 -0.950906 -0.257436
vn -0.171771 -0.950906 -0.257436
vn -0.254434 -0.951097 -0.175152
vn -0.254434 -0.951097 -0.175152
vn -0.254434 -0.951097 -0.175152
vn -0.254434 -0.951097 -0.175152
vn -0.409762 -0.908930 -0.077085
vn -0.409762 -0.908930 -0.077085
vn -0.409762 -0.908930 -0.077085
vn -0.409762 -0.908930 -0.077085
vn -0.002791 -0.847050 0.531507
vn -0.002791 -0.847049 0.531507
vn -0.002791 -0.847050 0.531507
vn -0.002791 -0.847049 0.531507
vn 0.357935 -0.929956 0.084044
vn 0.357935 -0.929956 0.084044
vn 0.357935 -0.929956 0.084044
vn 0.357935 -0.929956 0.084044
vn 0.256197 -0.951235 0.171801
vn 0.256197 -0.951235 0.171801
vn 0.256197 -0.951235 0.171801
vn 0.256197 -0.951235 0.171801
vn 0.174234 -0.951209 0.254645
vn 0.174234 -0.951209 0.254645
vn 0.174234 -0.951209 0.254645
vn 0.174234 -0.951209 0.254645
vn 0.055082 -0.951263 0.303421
vn 0.055082 -0.951263 0.303421
vn 0.055082 -0.951263 0.303421
vn 0.055082 -0.951263 0.303421
vn -1.000000 0.000003 0.000334
vn -0.999989 0.004643 -0.000258
vn -0.999989 0.004643 -0.000258
vn -0.999999 0.001319 0.000166
vn -0.999999 0.000370 0.001627
vn -0.999987 0.005044 -0.001112
vn -0.999987 0.005044 -0.001112
vn -0.999998 0.001570 0.000924
vn -0.999999 0.000370 0.001627
vn -0.999998 0.001570 0.000924
vn -0.999998 -0.001726 0.000990
vn -0.999999 -0.000393 0.001693
vn -0.999999 -0.000393 0.001693
vn -0.999998 -0.001726 0.000990
vn -0.999983 -0.005658 -0.001083
vn -0.999983 -0.005658 -0.001083
vn -1.000000 -0.000109 0.000331
vn -0.999999 -0.001243 0.000155
vn -0.999993 -0.003807 -0.000244
vn -0.999993 -0.003807 -0.000244
vn -1.000000 0.000003 0.000334
vn -0.999999 0.001319 0.000166
vn -0.999999 -0.001243 0.000155
vn -1.000000 -0.000109 0.000331
s off
f 3/5/1 4/6/2 1/4/3 2/3/4
f 61/85/5 62/86/6 49/73/7 50/74/8
f 52/76/9 43/67/10 58/82/11 59/83/12
f 57/81/13 58/82/14 43/67/15 44/68/16
f 56/80/17 57/81/18 44/68/19 45/69/20
f 11/13/21 12/14/22 10/12/23 9/11/24
f 4/15/25 3/16/26 13/17/27 14/18/28
f 15/19/29 16/20/30 12/14/31 11/13/32
f 14/18/33 13/17/34 16/20/35 15/19/36
f 21/27/37 1/1/38 22/28/39
f 17/29/40 1/1/41 21/27/42
f 23/30/43 2/2/44 24/31/45
f 24/31/46 2/2/47 18/45/48
f 11/13/49 27/47/50 31/48/51 15/19/52
f 15/19/53 31/48/54 29/49/55 14/18/56
f 16/20/57 32/50/58 28/51/59 12/14/60
f 13/17/61 30/52/62 32/50/63 16/20/64
f 18/45/65 2/2/66 20/24/67
f 19/23/68 1/1/69 17/29/70
f 9/11/71 25/44/72 27/47/73 11/13/74
f 12/14/75 28/51/76 26/46/77 10/12/78
f 1/1/79 5/54/80 22/28/81
f 3/16/82 2/2/83 6/55/84 7/56/85
f 6/55/86 2/2/87 23/30/88
f 3/16/89 7/56/90 30/52/91 13/17/92
f 14/18/93 29/49/94 8/53/95 4/15/96
f 4/15/97 8/53/98 5/54/99 1/1/100
f 50/74/101 51/75/102 60/84/103 61/85/104
f 51/75/105 52/76/106 59/83/107 60/84/108
f 45/69/109 46/70/110 55/79/111 56/80/112
f 46/70/113 47/71/114 54/78/115 55/79/116
f 47/71/117 48/72/118 53/77/119 54/78/120
f 34/58/121 33/57/122 26/37/123 28/39/124
f 35/59/125 34/58/126 28/39/127 32/43/128
f 36/60/129 35/59/130 32/43/131 30/41/132
f 7/9/133 37/61/134 36/60/135 30/41/136
f 7/9/137 6/8/138 38/62/139 37/61/140
f 39/63/141 38/62/142 6/8/143 23/33/144
f 40/64/145 39/63/146 23/33/147 24/35/148
f 41/65/149 40/64/150 24/35/151 18/22/152
f 20/26/153 42/66/154 41/65/155 18/22/156
f 44/68/157 43/67/158 5/7/159 8/10/160
f 45/69/161 44/68/162 8/10/163 29/40/164
f 29/40/165 31/42/166 46/70/167 45/69/168
f 27/38/169 47/71/170 46/70/171 31/42/172
f 25/36/173 48/72/174 47/71/175 27/38/176
f 50/74/177 49/73/178 19/25/179 17/21/180
f 17/21/181 21/34/182 51/75/183 50/74/184
f 22/32/185 52/76/186 51/75/187 21/34/188
f 5/7/189 43/67/190 52/76/191 22/32/192
f 54/99/193 53/97/194 63/98/195 64/100/196
f 55/101/197 54/99/198 64/100/199 65/102/200
f 56/103/201 55/101/202 65/102/203 66/104/204
f 66/104/205 67/105/206 57/106/207 56/103/208
f 67/105/209 68/107/210 58/108/211 57/106/212
f 59/109/213 58/108/214 68/107/215 69/110/216
f 60/111/217 59/109/218 69/110/219 70/112/220
f 61/113/221 60/111/222 70/112/223 71/114/224
f 71/114/225 72/115/226 62/116/227 61/113/228
f 64/88/229 63/87/230 33/57/231 34/58/232
f 65/89/233 64/88/234 34/58/235 35/59/236
f 66/90/237 65/89/238 35/59/239 36/60/240
f 36/60/241 37/61/242 67/91/243 66/90/244
f 37/61/245 38/62/246 68/92/247 67/91/248
f 69/93/249 68/92/250 38/62/251 39/63/252
f 70/94/253 69/93/254 39/63/255 40/64/256
f 71/95/257 70/94/258 40/64/259 41/65/260
f 41/65/261 42/66/262 72/96/263 71/95/264
f 1/117/265 19/118/266 49/119/267 62/120/268
f 10/121/269 26/122/270 33/123/271 63/124/272
f 10/121/273 63/124/274 53/125/275 9/126/276
f 9/126/277 53/125/278 48/127/279 25/128/280
f 2/129/281 72/130/282 42/131/283 20/132/284
f 1/117/285 62/120/286 72/130/287 2/129/288
