# This file uses centimeters as units for non-parametric coordinates.

v -758.752625 209.143341 -841.865845
v -758.752625 322.889008 -841.865845
v -796.857300 322.889008 -815.022156
v -796.857300 209.143341 -815.022156
v -801.774841 209.143341 -805.119812
v -801.774841 322.889008 -805.119812
v -801.774536 322.889008 -694.879639
v -801.774536 209.143341 -694.879639
v -758.752075 209.143341 -658.116150
v -796.856873 209.143341 -684.959595
v -796.856873 322.889008 -684.959595
v -758.752075 322.889008 -658.116150
v -741.447510 517.885803 -534.871155
v -741.447510 648.099609 -534.871155
v -741.447144 648.099609 -465.126343
v -741.447144 517.885803 -465.126343
v -278.685516 222.522934 -999.648499
v -278.685516 291.062866 -999.648499
v -223.392487 291.062866 -999.648499
v -223.392487 222.522934 -999.648499
v -216.633057 564.598999 -1352.224731
v -216.633057 694.812805 -1352.224731
v -283.263458 694.812805 -1352.224487
v -283.263458 564.598999 -1352.224487
v -715.157959 219.007431 -999.584839
v -715.157959 286.480591 -999.584839
v -660.973633 286.480591 -999.584839
v -660.973633 219.007431 -999.584839
v -682.471741 226.162903 0.788117
v -682.471741 305.631592 0.788117
v -566.518921 305.631592 0.788117
v -566.518921 226.162903 0.788117
v 0.850464 226.162903 -192.627380
v 0.850464 305.631592 -192.627380
v 0.957520 305.631592 -308.580200
v 0.957520 226.162903 -308.580200
v -758.752625 209.143341 -341.865814
v -758.752625 322.889008 -341.865814
v -796.857300 322.889008 -315.022156
v -796.857300 209.143341 -315.022156
v -801.774841 209.143341 -305.119781
v -801.774841 322.889008 -305.119781
v -801.774536 322.889008 -194.879654
v -801.774536 209.143341 -194.879654
v -758.752075 209.143341 -158.116165
v -796.856873 209.143341 -184.959564
v -796.856873 322.889008 -184.959564
v -758.752075 322.889008 -158.116165
v -182.471771 226.162903 0.788117
v -182.471771 305.631592 0.788117
v -66.518906 305.631592 0.788117
v -66.518906 226.162903 0.788117
v 159.842056 219.007431 -999.584839
v 159.842056 286.480591 -999.584839
v 214.026382 286.480591 -999.584839
v 214.026382 219.007431 -999.584839
vt 0.539922 0.504387
vt 0.539922 0.620210
vt 0.587384 0.620210
vt 0.587384 0.504387
vt 0.512160 0.509937
vt 0.512160 0.614659
vt 0.613656 0.614659
vt 0.613656 0.509937
vt 0.587384 0.504387
vt 0.539922 0.504387
vt 0.539922 0.620210
vt 0.587384 0.620210
vt 0.531546 0.502356
vt 0.595759 0.622240
vt 0.531546 0.622240
vt 0.595759 0.502356
vt 0.538199 0.530747
vt 0.589106 0.593850
vt 0.538199 0.593850
vt 0.589106 0.530747
vt 0.532980 0.502356
vt 0.594325 0.622240
vt 0.532980 0.622240
vt 0.594325 0.502356
vt 0.538710 0.531238
vt 0.588596 0.593359
vt 0.538710 0.593359
vt 0.588596 0.531238
vt 0.527070 0.615676
vt 0.600235 0.508921
vt 0.600235 0.615676
vt 0.527070 0.508921
vt 0.527070 0.615676
vt 0.600235 0.508921
vt 0.600235 0.615676
vt 0.527070 0.508921
vt 0.539922 0.504387
vt 0.587384 0.620210
vt 0.539922 0.620210
vt 0.587384 0.504387
vt 0.512160 0.509937
vt 0.613656 0.614659
vt 0.512160 0.614659
vt 0.613656 0.509937
vt 0.587384 0.504387
vt 0.539922 0.620210
vt 0.539922 0.504387
vt 0.587384 0.620210
vt 0.527070 0.615676
vt 0.600235 0.508921
vt 0.600235 0.615676
vt 0.527070 0.508921
vt 0.538710 0.531238
vt 0.588596 0.593359
vt 0.538710 0.593359
vt 0.588596 0.531238
vn -0.575914 0.000000 -0.817510
vn -0.575914 0.000000 -0.817510
vn -0.575914 0.000000 -0.817510
vn -0.575914 0.000000 -0.817510
vn -0.575914 0.000000 -0.817510
vn -0.575914 0.000000 -0.817510
vn -1.000000 0.000000 0.000003
vn -1.000000 0.000000 0.000003
vn -1.000000 0.000000 0.000003
vn -1.000000 0.000000 0.000003
vn -1.000000 0.000000 0.000003
vn -1.000000 0.000000 0.000003
vn -0.575909 0.000000 0.817514
vn -0.575909 0.000000 0.817514
vn -0.575909 0.000000 0.817514
vn -0.575909 0.000000 0.817514
vn -0.575909 0.000000 0.817514
vn -0.575909 0.000000 0.817514
vn -1.000000 0.000000 0.000005
vn -1.000000 0.000000 0.000005
vn -1.000000 0.000000 0.000005
vn -1.000000 0.000000 0.000005
vn -1.000000 0.000000 0.000005
vn -1.000000 0.000000 0.000005
vn 0.000000 0.000000 -1.000000
vn 0.000000 0.000000 -1.000000
vn 0.000000 0.000000 -1.000000
vn 0.000000 0.000000 -1.000000
vn 0.000000 0.000000 -1.000000
vn 0.000000 0.000000 -1.000000
vn -0.000003 0.000000 -1.000000
vn -0.000003 0.000000 -1.000000
vn -0.000003 0.000000 -1.000000
vn -0.000003 0.000000 -1.000000
vn -0.000003 0.000000 -1.000000
vn -0.000003 0.000000 -1.000000
vn 0.000000 0.000000 -1.000000
vn 0.000000 0.000000 -1.000000
vn 0.000000 0.000000 -1.000000
vn 0.000000 0.000000 -1.000000
vn 0.000000 0.000000 -1.000000
vn 0.000000 0.000000 -1.000000
vn 0.000000 0.000000 1.000000
vn 0.000000 0.000000 1.000000
vn 0.000000 0.000000 1.000000
vn 0.000000 0.000000 1.000000
vn 0.000000 0.000000 1.000000
vn 0.000000 0.000000 1.000000
vn 1.000000 0.000000 0.000923
vn 1.000000 0.000000 0.000923
vn 1.000000 0.000000 0.000923
vn 1.000000 0.000000 0.000923
vn 1.000000 0.000000 0.000923
vn 1.000000 0.000000 0.000923
vn -0.575914 0.000000 -0.817510
vn -0.575914 0.000000 -0.817510
vn -0.575914 0.000000 -0.817510
vn -0.575914 0.000000 -0.817510
vn -0.575914 0.000000 -0.817510
vn -0.575914 0.000000 -0.817510
vn -1.000000 0.000000 0.000003
vn -1.000000 0.000000 0.000003
vn -1.000000 0.000000 0.000003
vn -1.000000 0.000000 0.000003
vn -1.000000 0.000000 0.000003
vn -1.000000 0.000000 0.000003
vn -0.575909 0.000000 0.817514
vn -0.575909 0.000000 0.817514
vn -0.575909 0.000000 0.817514
vn -0.575909 0.000000 0.817514
vn -0.575909 0.000000 0.817514
vn -0.575909 0.000000 0.817514
vn 0.000000 0.000000 1.000000
vn 0.000000 0.000000 1.000000
vn 0.000000 0.000000 1.000000
vn 0.000000 0.000000 1.000000
vn 0.000000 0.000000 1.000000
vn 0.000000 0.000000 1.000000
vn 0.000000 0.000000 -1.000000
vn 0.000000 0.000000 -1.000000
vn 0.000000 0.000000 -1.000000
vn 0.000000 0.000000 -1.000000
vn 0.000000 0.000000 -1.000000
vn 0.000000 0.000000 -1.000000
s off
f 1/1/1 3/3/2 2/2/3
f 1/1/4 4/4/5 3/3/6
f 5/5/7 7/7/8 6/6/9
f 5/5/10 8/8/11 7/7/12
f 9/9/13 11/11/14 10/10/15
f 9/9/16 12/12/17 11/11/18
f 13/13/19 15/14/20 14/15/21
f 13/13/22 16/16/23 15/14/24
f 17/17/25 18/19/26 19/18/27
f 17/17/28 19/18/29 20/20/30
f 21/21/31 23/22/32 22/23/33
f 21/21/34 24/24/35 23/22/36
f 25/25/37 26/27/38 27/26/39
f 25/25/40 27/26/41 28/28/42
f 29/29/43 31/30/44 30/31/45
f 29/29/46 32/32/47 31/30/48
f 33/33/49 35/34/50 34/35/51
f 33/33/52 36/36/53 35/34/54
f 37/37/55 39/38/56 38/39/57
f 37/37/58 40/40/59 39/38/60
f 41/41/61 43/42/62 42/43/63
f 41/41/64 44/44/65 43/42/66
f 45/45/67 47/46/68 46/47/69
f 45/45/70 48/48/71 47/46/72
f 49/49/73 51/50/74 50/51/75
f 49/49/76 52/52/77 51/50/78
f 53/53/79 54/55/80 55/54/81
f 53/53/82 55/54/83 56/56/84
