# This file uses centimeters as units for non-parametric coordinates.

v -0.000954 499.999878 25.001049
v 499.999023 499.999878 25.001049
v -0.000954 499.999878 -25.000950
v 499.999023 499.999878 -25.000950
v -0.000954 -0.000000 25.001049
v 499.999023 -0.000000 25.001049
v 499.999023 -0.000000 -25.000950
v -0.000954 -0.000000 -25.000950
v 62.376976 499.999878 25.001049
v 62.376976 -0.000000 25.001049
v 437.632538 -0.000000 25.001049
v 437.632538 499.999878 25.001049
v 347.540863 499.999878 25.001049
v 347.540863 -0.000000 25.001049
v 152.464859 -0.000000 25.001049
v 152.464859 499.999878 25.001049
v 218.504898 400.000183 25.001049
v 281.500824 400.000183 25.001049
v 276.621796 393.759003 4.615306
v 276.621796 63.585819 4.615306
v 223.387711 393.759003 4.615306
v 223.387711 63.585819 4.615306
v 354.136444 -0.000000 43.175793
v 431.036957 -0.000000 43.175793
v 68.972588 -0.000000 43.175793
v 145.873062 -0.000000 43.175793
v 68.972588 450.000336 43.175793
v 145.873062 450.000336 43.175793
v 431.036957 450.000336 43.175793
v 354.136444 450.000336 43.175793
v 218.504898 60.560677 25.001049
v 281.500824 61.415226 25.001049
v -0.000954 499.999878 0.000049
v 499.999023 499.999878 0.000049
v 499.999023 -0.000000 0.000049
v -0.000954 -0.000000 0.000049
v 354.136444 405.923157 43.175793
v 354.136444 196.710693 43.175793
v 360.137573 232.021759 43.175793
v 351.253418 236.937561 35.231304
v 431.036957 17.939804 43.175789
v 431.036957 151.588470 43.175793
v 434.462646 67.158707 33.735989
v 421.483032 66.793251 43.175793
v 68.972588 68.840591 43.175789
v 68.972588 134.887146 43.175789
v 73.070580 81.949623 43.175793
v 65.559235 100.152924 33.770027
v 145.873062 232.486450 43.175793
v 145.873062 374.457428 43.175793
v 149.027695 337.317963 34.477909
v 141.218887 324.646423 43.175793
vt 0.689612 1.991295
vt 0.866841 1.991295
vt 0.989520 1.007789
vt 0.989520 1.007789
vt 0.989520 1.991295
vt 0.989520 1.991295
vt 0.006015 1.007789
vt 0.006015 1.007789
vt 0.006015 1.991295
vt 0.006015 1.991295
vt 0.128689 1.991295
vt 0.305913 1.991295
vt 0.128689 1.007789
vt 0.866841 1.007789
vt 0.559722 1.794594
vt 0.559722 1.128594
vt 0.689612 1.007789
vt 0.305913 1.007789
vt 0.435800 1.126913
vt 0.435800 1.794594
vt 0.989520 1.991295
vt 0.989520 1.007789
vt 0.034723 0.134099
vt 0.034844 0.134099
vt 0.034844 0.136514
vt 0.034723 0.136514
vt 0.034964 0.134099
vt 0.034964 0.136514
vt 0.036434 0.134099
vt 0.036434 0.135735
vt 0.036336 0.135704
vt 0.036336 0.134110
vt 0.036218 0.135739
vt 0.036218 0.134099
vt 0.036316 0.134114
vt 0.036316 0.135709
vt 0.034985 0.136514
vt 0.034985 0.134099
vt 0.035073 0.136273
vt 0.035035 0.135244
vt 0.035073 0.135049
vt 0.035073 0.136060
vt 0.035073 0.134099
vt 0.035180 0.136514
vt 0.035093 0.136273
vt 0.035180 0.134099
vt 0.035093 0.134831
vt 0.035138 0.134424
vt 0.035093 0.134186
vt 0.035093 0.134099
vt 0.035655 0.136514
vt 0.035655 0.134099
vt 0.035743 0.136273
vt 0.035698 0.134583
vt 0.035743 0.134432
vt 0.035743 0.134751
vt 0.035743 0.134099
vt 0.035743 0.134495
vt 0.035850 0.134099
vt 0.035850 0.136514
vt 0.035763 0.134099
vt 0.035804 0.135728
vt 0.035763 0.135908
vt 0.035763 0.135222
vt 0.035763 0.135667
vt 0.035763 0.136273
vt 0.034581 0.136514
vt 0.034581 0.134099
vt 0.034702 0.134099
vt 0.034702 0.136514
vt 0.034460 0.134836
vt 0.034460 0.134400
vt 0.034460 0.134099
vt 0.034460 0.136514
vt 0.034460 0.136213
vt 0.034460 0.135778
vt 0.036743 0.135705
vt 0.036743 0.136009
vt 0.036644 0.135986
vt 0.036644 0.135728
vt 0.036529 0.136009
vt 0.036529 0.135705
vt 0.036628 0.135728
vt 0.036628 0.135986
vt 0.036111 0.136213
vt 0.036111 0.135778
vt 0.036199 0.135810
vt 0.036199 0.136181
vt 0.036111 0.136514
vt 0.035990 0.136514
vt 0.035990 0.134099
vt 0.036111 0.134099
vt 0.036111 0.134400
vt 0.036111 0.134836
vt 0.035870 0.136514
vt 0.035870 0.134099
vt 0.036199 0.134432
vt 0.036199 0.134804
vt 0.034407 0.136273
vt 0.034036 0.136273
vt 0.034407 0.134831
vt 0.034439 0.136514
vt 0.034004 0.136514
vt 0.034036 0.136060
vt 0.034065 0.135220
vt 0.034022 0.135244
vt 0.034036 0.135049
vt 0.034036 0.134099
vt 0.034361 0.134422
vt 0.034407 0.134186
vt 0.034424 0.134424
vt 0.034407 0.134099
vt 0.036711 0.134099
vt 0.036711 0.135694
vt 0.036454 0.135694
vt 0.036454 0.134099
vt 0.035635 0.136514
vt 0.035200 0.136514
vt 0.035232 0.136273
vt 0.035603 0.136273
vt 0.035603 0.135908
vt 0.035232 0.134751
vt 0.035581 0.135667
vt 0.035603 0.135222
vt 0.035603 0.134099
vt 0.035251 0.134495
vt 0.035232 0.134432
vt 0.035215 0.134583
vt 0.035232 0.134099
vn 0.000000 0.000000 1.000000
vn 0.000000 0.000000 1.000000
vn 0.000000 0.000000 1.000000
vn 0.000000 0.000000 1.000000
vn 0.000000 0.000000 1.000000
vn 0.000000 0.000000 1.000000
vn 0.000000 0.000000 1.000000
vn 0.000000 0.000000 1.000000
vn 0.000000 0.000000 1.000000
vn 0.000000 0.000000 1.000000
vn 0.000000 0.000000 1.000000
vn 0.000000 0.000000 1.000000
vn 0.000000 0.000000 1.000000
vn 0.000000 0.000000 1.000000
vn 0.000000 0.000000 1.000000
vn 0.000000 0.000000 1.000000
vn 0.000000 0.000000 1.000000
vn 0.000000 0.000000 1.000000
vn 0.000000 0.000000 1.000000
vn 0.000000 0.000000 1.000000
vn 0.000000 0.000000 1.000000
vn 0.000000 0.000000 1.000000
vn 0.000000 0.000000 1.000000
vn 0.000000 0.000000 1.000000
vn 0.000000 1.000000 0.000000
vn 0.000000 1.000000 0.000000
vn 0.000000 1.000000 0.000000
vn 0.000000 1.000000 0.000000
vn 0.000000 0.000000 -1.000000
vn 0.000000 0.000000 -1.000000
vn 0.000000 0.000000 -1.000000
vn 0.000000 0.000000 -1.000000
vn 1.000000 0.000000 0.000000
vn 1.000000 0.000000 0.000000
vn 1.000000 0.000000 0.000000
vn 1.000000 0.000000 0.000000
vn -1.000000 0.000000 0.000000
vn -1.000000 0.000000 0.000000
vn -1.000000 0.000000 0.000000
vn -1.000000 0.000000 0.000000
vn 0.000000 0.000000 1.000000
vn 0.000000 0.000000 1.000000
vn 0.000000 0.000000 1.000000
vn 0.000000 0.000000 1.000000
vn 0.000000 0.000000 1.000000
vn 0.000000 0.000000 1.000000
vn 0.000000 0.000000 1.000000
vn 0.000000 0.000000 1.000000
vn 0.000000 0.000000 1.000000
vn 0.000000 0.000000 1.000000
vn 0.000000 0.000000 1.000000
vn 0.000000 0.000000 1.000000
vn 0.000000 0.000000 1.000000
vn 0.000000 0.000000 1.000000
vn 0.000000 0.000000 1.000000
vn 0.000000 0.000000 1.000000
vn -0.972534 0.000000 0.232762
vn -0.972534 0.000000 0.232762
vn -0.972534 0.000000 0.232762
vn -0.972534 0.000000 0.232762
vn 0.000000 -0.956191 0.292743
vn 0.000000 -0.956191 0.292743
vn 0.000000 -0.956191 0.292743
vn 0.000000 -0.956191 0.292743
vn 0.972493 0.000000 0.232932
vn 0.972493 0.000000 0.232932
vn 0.972493 0.000000 0.232932
vn 0.972493 0.000000 0.232932
vn -0.007293 0.991951 0.126409
vn -0.007293 0.991951 0.126409
vn -0.007293 0.991951 0.126409
vn -0.007293 0.991951 0.126409
vn -0.940016 0.000000 0.341130
vn -0.940016 0.000000 0.341130
vn -0.940016 0.000000 0.341130
vn -0.940016 0.000000 0.341130
vn -0.940016 0.000000 0.341130
vn -0.940016 0.000000 0.341130
vn -0.940016 0.000000 0.341130
vn -0.940016 0.000000 0.341130
vn -0.940016 0.000000 0.341130
vn -0.940016 0.000000 0.341130
vn -0.940016 0.000000 0.341130
vn -0.940016 0.000000 0.341130
vn -0.940016 0.000000 0.341130
vn -0.940016 0.000000 0.341130
vn -0.940016 0.000000 0.341130
vn 0.940016 0.000000 0.341130
vn 0.940016 0.000000 0.341130
vn 0.940016 0.000000 0.341130
vn 0.940016 0.000000 0.341130
vn 0.940016 0.000000 0.341130
vn 0.940016 0.000000 0.341130
vn 0.940016 0.000000 0.341130
vn 0.940016 0.000000 0.341130
vn 0.940016 0.000000 0.341130
vn 0.940016 0.000000 0.341130
vn 0.940016 0.000000 0.341130
vn 0.940016 0.000000 0.341130
vn 0.940016 0.000000 0.341130
vn 0.940016 0.000000 0.341130
vn 0.940016 0.000000 0.341130
vn 0.000000 0.341628 0.939835
vn 0.000000 0.341628 0.939835
vn 0.000000 0.341628 0.939835
vn 0.000000 0.341628 0.939835
vn 0.000000 0.341629 0.939835
vn 0.000000 0.341629 0.939835
vn 0.000000 0.341629 0.939835
vn 0.000000 0.341629 0.939835
vn -0.940016 0.000000 0.341132
vn -0.940016 0.000000 0.341132
vn -0.940016 0.000000 0.341132
vn -0.940016 0.000000 0.341132
vn -0.940016 0.000000 0.341132
vn -0.940016 0.000000 0.341132
vn -0.940016 0.000000 0.341132
vn -0.940016 0.000000 0.341132
vn -0.940016 0.000000 0.341132
vn -0.940016 0.000000 0.341132
vn -0.940016 0.000000 0.341132
vn -0.940016 0.000000 0.341132
vn -0.940016 0.000000 0.341132
vn -0.940016 0.000000 0.341132
vn -0.940016 0.000000 0.341132
vn 0.000000 0.000000 1.000000
vn 0.000000 0.000000 1.000000
vn -0.000000 0.000000 1.000000
vn 0.000000 0.000000 1.000000
vn -0.000000 0.000000 1.000000
vn -0.000000 0.000000 1.000000
vn -0.000000 0.000000 1.000000
vn -0.000000 0.000000 1.000000
vn -0.000000 0.000000 1.000000
vn -0.000000 0.000000 1.000000
vn -0.000000 0.000000 1.000000
vn -0.000000 0.000000 1.000000
vn -0.000000 0.000000 1.000000
vn -0.000000 0.000000 1.000000
vn 0.000000 0.000000 1.000000
vn -0.000000 0.000000 1.000000
vn -0.000000 0.000000 1.000000
vn 0.000000 0.000000 1.000000
vn -0.000000 0.000000 1.000000
vn -0.000000 0.000000 1.000000
vn 0.000000 0.000000 1.000000
vn -0.000000 0.000000 1.000000
vn 0.000000 0.000000 1.000000
vn 0.000000 0.000000 1.000000
vn 0.940079 0.000000 0.340957
vn 0.940079 0.000000 0.340957
vn 0.940079 0.000000 0.340957
vn 0.940079 0.000000 0.340957
vn 0.940079 0.000000 0.340957
vn 0.940079 0.000000 0.340957
vn 0.940079 0.000000 0.340957
vn 0.940079 0.000000 0.340957
vn 0.940079 0.000000 0.340957
vn 0.940079 0.000000 0.340957
vn 0.940079 0.000000 0.340957
vn 0.940079 0.000000 0.340957
vn 0.940079 0.000000 0.340957
vn 0.940079 0.000000 0.340957
vn 0.940079 0.000000 0.340957
vn 0.000000 -1.000000 -0.000000
vn 0.000000 -1.000000 -0.000000
vn 0.000000 -1.000000 0.000000
vn 0.000000 -1.000000 0.000000
vn 0.000000 0.000000 1.000000
vn 0.000000 0.000000 1.000000
vn 0.000000 0.000000 1.000000
vn 0.000000 0.000000 1.000000
vn 0.000000 0.000000 1.000000
vn 0.000000 0.000000 1.000000
vn 0.000000 0.000000 1.000000
vn 0.000000 0.000000 1.000000
vn 0.000000 0.000000 1.000000
vn 0.000000 0.000000 1.000000
vn 0.000000 0.000000 1.000000
vn 0.000000 0.000000 1.000000
vn 0.000000 -1.000000 -0.000000
vn 0.000000 -1.000000 -0.000000
vn 0.000000 -1.000000 0.000000
vn 0.000000 -1.000000 0.000000
vn 0.000000 -1.000000 -0.000000
vn 0.000000 -1.000000 -0.000000
vn 0.000000 -1.000000 0.000000
vn 0.000000 -1.000000 0.000000
vn 0.000000 1.000000 0.000000
vn 0.000000 1.000000 0.000000
vn 0.000000 1.000000 0.000000
vn 0.000000 1.000000 0.000000
vn 0.000000 1.000000 0.000000
vn 0.000000 1.000000 0.000000
vn 0.000000 1.000000 0.000000
vn 0.000000 1.000000 0.000000
vn 1.000000 0.000000 0.000000
vn 1.000000 0.000000 0.000000
vn 1.000000 0.000000 0.000000
vn 1.000000 0.000000 0.000000
vn 0.000000 -1.000000 -0.000000
vn 0.000000 -1.000000 -0.000000
vn 0.000000 -1.000000 -0.000000
vn 0.000000 -1.000000 -0.000000
vn 0.000000 -1.000000 -0.000000
vn 0.000000 -1.000000 -0.000000
vn 0.000000 -1.000000 -0.000000
vn 0.000000 -1.000000 -0.000000
vn -1.000000 0.000000 0.000000
vn -1.000000 0.000000 0.000000
vn -1.000000 0.000000 0.000000
vn -1.000000 0.000000 0.000000
vn -0.673521 -0.023242 0.738803
vn -0.673521 -0.023242 0.738803
vn -0.673521 -0.023242 0.738803
vn -0.629231 0.106938 0.769826
vn -0.629231 0.106938 0.769826
vn -0.629231 0.106938 0.769826
vn 0.588102 -0.066262 0.806068
vn 0.588102 -0.066262 0.806068
vn 0.588102 -0.066262 0.806068
vn 0.582251 0.113867 0.804996
vn 0.582251 0.113867 0.804996
vn 0.582251 0.113867 0.804996
vn -0.570936 0.178479 0.801360
vn -0.570936 0.178479 0.801360
vn -0.570936 0.178479 0.801360
vn -0.837151 -0.064805 0.543120
vn -0.837151 -0.064805 0.543120
vn -0.837151 -0.064805 0.543120
vn 0.793337 -0.074127 0.604253
vn 0.793337 -0.074127 0.604253
vn 0.793337 -0.074127 0.604253
vn 0.716835 0.036201 0.696302
vn 0.716835 0.036201 0.696302
vn 0.716835 0.036201 0.696302
s off
f 29/99/1 30/100/2 42/101/3
f 30/100/4 37/104/5 42/101/6
f 37/104/7 39/105/8 42/101/9
f 39/105/10 38/107/11 42/101/12
f 38/107/13 23/108/14 42/101/15
f 42/101/16 23/108/17 44/109/18
f 44/109/19 23/108/20 41/110/21
f 23/108/22 24/112/23 41/110/24
f 33/67/25 34/68/26 4/69/27 3/70/28
f 4/5/29 7/4/30 8/7/31 3/10/32
f 34/21/33 35/22/34 7/4/35 4/5/36
f 8/23/37 36/24/38 33/25/39 3/26/40
f 5/8/41 10/13/42 9/11/43 1/9/44
f 12/2/45 11/14/46 6/3/47 2/6/48
f 13/1/49 16/12/50 17/20/51 18/15/52
f 20/113/53 19/114/54 21/115/55 22/116/56
f 32/29/57 18/30/58 19/31/59 20/32/60
f 18/77/61 17/78/62 21/79/63 19/80/64
f 17/33/65 31/34/66 22/35/67 21/36/68
f 31/81/69 32/82/70 20/83/71 22/84/72
f 13/37/73 14/38/74 30/39/75
f 23/43/76 38/41/77 14/38/78
f 37/42/79 30/39/80 40/40/81
f 30/39/82 14/38/83 40/40/84
f 14/38/85 38/41/86 40/40/87
f 12/44/88 29/45/89 11/46/90
f 24/50/91 11/46/92 41/49/93
f 29/45/94 42/47/95 11/46/96
f 42/47/97 43/48/98 11/46/99
f 11/46/100 43/48/101 41/49/102
f 12/102/103 13/103/104 30/100/105 29/99/106
f 16/117/107 9/118/108 27/119/109 28/120/110
f 9/51/111 10/52/112 27/53/113
f 25/57/114 45/55/115 10/52/116
f 45/55/117 48/54/118 10/52/119
f 10/52/120 48/54/121 27/53/122
f 48/54/123 46/56/124 27/53/125
f 28/120/126 27/119/127 50/121/128
f 27/119/129 46/122/130 50/121/131
f 50/121/132 46/122/133 52/123/134
f 52/123/135 46/122/136 49/124/137
f 49/124/138 46/122/139 26/125/140
f 46/122/141 47/126/142 26/125/143
f 47/126/144 45/127/145 26/125/146
f 45/127/147 25/129/148 26/125/149
f 15/59/150 16/60/151 26/61/152
f 28/66/153 50/63/154 16/60/155
f 50/63/156 51/62/157 16/60/158
f 16/60/159 51/62/160 26/61/161
f 51/62/162 49/64/163 26/61/164
f 10/85/165 15/86/166 26/87/167 25/88/168
f 32/16/169 31/19/170 15/18/171 14/17/172
f 13/1/173 18/15/174 32/16/175 14/17/176
f 16/12/177 15/18/178 31/19/179 17/20/180
f 14/94/181 11/93/182 24/97/183 23/98/184
f 35/91/185 36/90/186 8/95/187 7/96/188
f 13/71/189 12/72/190 2/73/191 34/68/192 33/67/193 1/74/194 9/75/195 16/76/196
f 6/3/197 35/22/198 34/21/199 2/6/200
f 10/85/201 5/89/202 36/90/203 35/91/204 6/92/205 11/93/206 14/94/207 15/86/208
f 33/25/209 36/24/210 5/27/211 1/28/212
f 37/104/213 40/106/214 39/105/215
f 39/105/216 40/106/217 38/107/218
f 44/109/219 43/111/220 42/101/221
f 41/110/222 43/111/223 44/109/224
f 47/126/225 48/128/226 45/127/227
f 46/56/228 48/54/229 47/58/230
f 52/65/231 51/62/232 50/63/233
f 49/64/234 51/62/235 52/65/236
