# This file uses centimeters as units for non-parametric coordinates.

v 21.726563 35.523743 -37.179688
v 37.179688 35.523743 -21.726563
v 15.802734 41.414185 -31.253906
v 31.255859 41.414185 -15.800781
v 357.482422 320.916687 -372.937500
v 372.935547 320.916687 -357.484375
v 357.482422 345.311523 -372.937500
v 372.935547 345.311523 -357.484375
v 74.458984 176.445923 -59.007813
v 85.910156 152.051147 -70.457031
v 70.457031 152.051147 -85.910156
v 59.005859 176.445923 -74.460938
v 241.158203 326.199829 -256.609375
v 245.738281 301.804993 -261.191406
v 261.191406 301.804993 -245.738281
v 256.611328 326.199829 -241.156250
v 150.343750 261.909729 -134.890625
v 158.359375 237.514954 -142.906250
v 142.906250 237.514954 -158.359375
v 134.890625 261.909729 -150.343750
v 0.000000 0.000000 0.000000
v 7.203125 73.158875 -7.203125
v 28.542969 143.506226 -28.542969
v 63.195313 208.338806 -63.195313
v 109.832031 265.165100 -109.832031
v 166.656250 311.801147 -166.656250
v 231.488281 346.454773 -231.488281
v 301.835938 367.794434 -301.835938
v 374.996094 375.000000 -374.996094
v 25.000000 0.000000 -25.000000
v 41.632813 66.308960 -41.632813
v 61.003906 130.056641 -61.003906
v 92.453125 188.784668 -92.453125
v 134.757813 240.234375 -134.757813
v 186.277344 282.434509 -186.277344
v 245.023438 313.775879 -245.023438
v 308.742188 333.067993 -308.742188
v 374.996094 339.580750 -374.996094
v 2.878906 29.263550 -2.878906
v 37.707031 26.523621 -37.707031
v 37.708984 26.523621 0.003906
v 41.634766 66.308960 0.000000
v 61.005859 130.056641 0.000000
v 92.455078 188.784668 0.001953
v 134.759766 240.234375 -0.001953
v 186.279297 282.434509 -0.001953
v 245.025391 313.775879 -0.001953
v 308.744141 333.067993 -0.001953
v 374.998047 339.580750 -0.001953
v 2.880859 29.263550 0.001953
v 7.205078 73.158875 0.000000
v 28.544922 143.506226 -0.001953
v 63.197266 208.338806 0.000000
v 109.833984 265.165100 0.000000
v 166.658203 311.801147 -0.001953
v 231.490234 346.454773 0.000000
v 301.837891 367.794434 -0.001953
v 374.998047 375.000000 -0.001953
v 25.001953 0.000000 -0.003906
v -0.003906 26.523621 -37.708984
v 0.000000 66.308960 -41.634766
v 0.000000 130.056641 -61.005859
v -0.001953 188.784668 -92.455078
v 0.001953 240.234375 -134.759766
v 0.001953 282.434509 -186.279297
v 0.001953 313.775879 -245.025391
v 0.001953 333.067993 -308.744141
v 0.001953 339.580750 -374.998047
v -0.001953 29.263550 -2.880859
v 0.000000 73.158875 -7.205078
v 0.001953 143.506226 -28.544922
v 0.000000 208.338806 -63.197266
v 0.000000 265.165100 -109.833984
v 0.001953 311.801147 -166.658203
v 0.000000 346.454773 -231.490234
v 0.001953 367.794434 -301.837891
v 0.001953 375.000000 -374.998047
v 0.003906 0.000000 -25.001953
vt 0.487746 0.178752
vt 0.487775 0.178738
vt 0.487775 0.178809
vt 0.487745 0.178821
vt 0.488349 0.179738
vt 0.488319 0.179737
vt 0.488378 0.179679
vt 0.488348 0.179678
vt 0.488197 0.179397
vt 0.488177 0.179460
vt 0.488147 0.179462
vt 0.488167 0.179400
vt 0.487914 0.179011
vt 0.487906 0.179077
vt 0.487936 0.179069
vt 0.487944 0.179002
vt 0.488071 0.179199
vt 0.488056 0.179264
vt 0.488026 0.179270
vt 0.488041 0.179206
vt 0.488329 0.157312
vt 0.488324 0.157251
vt 0.489152 0.157154
vt 0.489166 0.157220
vt 0.488312 0.157148
vt 0.489131 0.157043
vt 0.488296 0.157045
vt 0.489112 0.156933
vt 0.488277 0.156946
vt 0.489096 0.156825
vt 0.488256 0.156852
vt 0.489082 0.156721
vt 0.488231 0.156764
vt 0.489072 0.156624
vt 0.488204 0.156685
vt 0.489066 0.156534
vt 0.488175 0.156617
vt 0.489064 0.156455
vt 1.988989 0.127830
vt 1.996462 0.053146
vt 2.000000 0.053157
vt 2.000000 0.127855
vt 1.952606 0.252257
vt 2.000000 0.252352
vt 1.893680 0.376639
vt 2.000000 0.376848
vt 1.814458 0.500984
vt 2.000000 0.501346
vt 1.717983 0.625293
vt 2.000000 0.625840
vt 1.607948 0.749577
vt 2.000000 0.750336
vt 1.488571 0.873845
vt 2.000000 0.874834
vt 1.364431 0.998105
vt 2.000000 0.999333
vt 2.000000 0.003358
vt 0.489175 0.157270
vt 0.488336 0.157359
vt 0.488329 0.157312
vt 0.489166 0.157220
vt 0.489152 0.157154
vt 0.488324 0.157251
vt 0.489131 0.157043
vt 0.488312 0.157148
vt 0.489112 0.156933
vt 0.488296 0.157045
vt 0.489096 0.156825
vt 0.488277 0.156946
vt 0.489082 0.156721
vt 0.488256 0.156852
vt 0.489072 0.156624
vt 0.488231 0.156764
vt 0.489066 0.156534
vt 0.488204 0.156685
vt 0.489064 0.156455
vt 0.488175 0.156617
vt 1.011320 0.125146
vt 1.000000 0.125138
vt 1.000000 0.050440
vt 1.004045 0.050443
vt 1.047372 0.249669
vt 1.000000 0.249636
vt 1.105968 0.374207
vt 1.000000 0.374132
vt 1.184860 0.498762
vt 1.000000 0.498630
vt 1.281004 0.623326
vt 1.000000 0.623124
vt 1.390710 0.747901
vt 1.000000 0.747621
vt 1.509756 0.872485
vt 1.000000 0.872118
vt 1.633566 0.997074
vt 1.000000 0.996617
vt 1.000000 0.000641
vt 0.489175 0.157270
vt 0.488336 0.157359
vt 0.017040 0.042653
vt 0.017379 0.042653
vt 0.017379 0.046242
vt 0.017040 0.046242
vt 0.023359 0.046523
vt 0.023481 0.046269
vt 0.023720 0.046269
vt 0.023692 0.046549
vt 0.023321 0.046904
vt 0.023651 0.046969
vt 0.023447 0.047643
vt 0.023136 0.047514
vt 0.023115 0.048263
vt 0.022835 0.048076
vt 0.022669 0.048807
vt 0.022430 0.048568
vt 0.022125 0.049253
vt 0.021937 0.048972
vt 0.021504 0.049585
vt 0.021375 0.049272
vt 0.020831 0.049789
vt 0.020765 0.049457
vt 0.020131 0.049858
vt 0.020131 0.049519
vt 0.019850 0.046508
vt 0.020089 0.046269
vt 0.020089 0.046508
vt 0.019850 0.046269
vt 0.017782 0.042907
vt 0.017448 0.042933
vt 0.017421 0.042653
vt 0.017660 0.042653
vt 0.017819 0.043288
vt 0.017490 0.043353
vt 0.018005 0.043898
vt 0.017694 0.044026
vt 0.018306 0.044460
vt 0.018025 0.044647
vt 0.018710 0.044952
vt 0.018472 0.045191
vt 0.019204 0.045356
vt 0.019016 0.045637
vt 0.019766 0.045656
vt 0.019636 0.045969
vt 0.020376 0.045841
vt 0.020310 0.046173
vt 0.021010 0.045903
vt 0.021010 0.046242
vt 0.021393 0.042653
vt 0.021393 0.046242
vt 0.021054 0.046242
vt 0.021054 0.042653
vn 0.707107 0.000000 -0.707107
vn 0.707107 0.000000 -0.707107
vn 0.707107 0.000000 -0.707107
vn 0.707107 0.000000 -0.707107
vn 0.187391 -0.964245 -0.187391
vn 0.187391 -0.964245 -0.187392
vn 0.365638 -0.855931 -0.365638
vn 0.365638 -0.855931 -0.365638
vn 0.707103 -0.000007 0.707110
vn 0.707102 -0.000004 0.707112
vn 0.707115 -0.000026 0.707099
vn 0.707115 -0.000026 0.707099
vn -0.707115 0.000026 -0.707099
vn -0.707115 0.000026 -0.707099
vn -0.707102 0.000004 -0.707112
vn -0.707103 0.000007 -0.707110
vn 0.707113 0.000007 0.707101
vn 0.707102 0.000012 0.707111
vn 0.707098 0.000014 0.707115
vn 0.707113 0.000007 0.707101
vn 0.539192 -0.646950 -0.539192
vn 0.539192 -0.646950 -0.539192
vn 0.608634 -0.509048 -0.608634
vn 0.608634 -0.509048 -0.608634
vn -0.707098 -0.000014 -0.707115
vn -0.707102 -0.000012 -0.707111
vn -0.707113 -0.000007 -0.707101
vn -0.707113 -0.000007 -0.707101
vn -0.707118 0.000026 -0.707095
vn -0.707115 0.000026 -0.707099
vn -0.707115 0.000026 -0.707099
vn -0.707118 0.000026 -0.707095
vn 0.084896 -0.992766 -0.084896
vn 0.084896 -0.992767 -0.084896
vn 0.187391 -0.964245 -0.187392
vn 0.187391 -0.964245 -0.187391
vn 0.707115 -0.000026 0.707099
vn 0.707115 -0.000026 0.707099
vn 0.707118 -0.000026 0.707095
vn 0.707118 -0.000026 0.707095
vn 0.707098 0.000014 0.707115
vn 0.707102 0.000012 0.707111
vn 0.707102 -0.000004 0.707112
vn 0.707103 -0.000007 0.707110
vn 0.365638 -0.855931 -0.365638
vn 0.365638 -0.855931 -0.365638
vn 0.539192 -0.646950 -0.539192
vn 0.539192 -0.646950 -0.539192
vn -0.707103 0.000007 -0.707110
vn -0.707102 0.000004 -0.707112
vn -0.707102 -0.000012 -0.707111
vn -0.707098 -0.000014 -0.707115
vn 0.995167 -0.098200 -0.000049
vn 0.995167 -0.098200 -0.000049
vn 0.995167 -0.098200 -0.000049
vn 0.995167 -0.098200 -0.000049
vn 0.956799 -0.290749 -0.000036
vn 0.956799 -0.290749 -0.000036
vn 0.956799 -0.290749 -0.000036
vn 0.956799 -0.290749 -0.000036
vn 0.881554 -0.472084 -0.000022
vn 0.881554 -0.472084 -0.000022
vn 0.881554 -0.472084 -0.000022
vn 0.881554 -0.472084 -0.000022
vn 0.772411 -0.635123 -0.000013
vn 0.772411 -0.635123 -0.000013
vn 0.772411 -0.635123 -0.000013
vn 0.772411 -0.635123 -0.000013
vn 0.633665 -0.773607 -0.000008
vn 0.633665 -0.773607 -0.000008
vn 0.633665 -0.773607 -0.000008
vn 0.633665 -0.773607 -0.000008
vn 0.470705 -0.882291 -0.000004
vn 0.470705 -0.882291 -0.000004
vn 0.470705 -0.882291 -0.000004
vn 0.470705 -0.882291 -0.000004
vn 0.289778 -0.957094 -0.000002
vn 0.289778 -0.957094 -0.000002
vn 0.289778 -0.957094 -0.000002
vn 0.289778 -0.957094 -0.000002
vn 0.097828 -0.995203 -0.000001
vn 0.097828 -0.995203 -0.000001
vn 0.097828 -0.995203 -0.000001
vn 0.097828 -0.995203 -0.000001
vn -0.995181 0.098056 0.000385
vn -0.995181 0.098056 0.000385
vn -0.995181 0.098056 0.000385
vn -0.995181 0.098056 0.000385
vn -0.956935 0.290302 0.000105
vn -0.956935 0.290302 0.000105
vn -0.956935 0.290302 0.000105
vn -0.956935 0.290302 0.000105
vn -0.881925 0.471390 0.000038
vn -0.881925 0.471390 0.000038
vn -0.881925 0.471390 0.000038
vn -0.881925 0.471390 0.000038
vn -0.773003 0.634402 0.000017
vn -0.773003 0.634402 0.000017
vn -0.773003 0.634402 0.000017
vn -0.773003 0.634402 0.000017
vn -0.634404 0.773002 0.000009
vn -0.634404 0.773002 0.000009
vn -0.634404 0.773002 0.000009
vn -0.634404 0.773002 0.000009
vn -0.471397 0.881921 0.000005
vn -0.471397 0.881921 0.000005
vn -0.471397 0.881921 0.000005
vn -0.471397 0.881921 0.000005
vn -0.290283 0.956941 0.000002
vn -0.290283 0.956941 0.000002
vn -0.290283 0.956941 0.000002
vn -0.290283 0.956941 0.000002
vn -0.098016 0.995185 0.000001
vn -0.098016 0.995185 0.000001
vn -0.098016 0.995185 0.000001
vn -0.098016 0.995185 0.000001
vn 0.000000 -1.000000 0.000000
vn 0.000000 -1.000000 0.000000
vn 0.000000 -1.000000 0.000000
vn 1.000000 0.000000 -0.000005
vn 1.000000 0.000000 -0.000005
vn 1.000000 0.000000 -0.000005
vn 1.000000 0.000000 -0.000005
vn -0.995189 0.097972 0.000675
vn -0.995189 0.097972 0.000675
vn -0.995189 0.097972 0.000675
vn 0.901840 -0.432070 -0.000056
vn 0.901840 -0.432070 -0.000056
vn 0.901840 -0.432070 -0.000056
vn 0.901840 -0.432070 -0.000056
vn 0.000024 -0.000182 1.000000
vn 0.000024 -0.000182 1.000000
vn 0.000024 -0.000182 1.000000
vn 0.000024 -0.000182 1.000000
vn -0.000018 0.000072 1.000000
vn -0.000018 0.000072 1.000000
vn -0.000018 0.000072 1.000000
vn -0.000018 0.000072 1.000000
vn -0.000023 0.000021 1.000000
vn -0.000023 0.000021 1.000000
vn -0.000023 0.000021 1.000000
vn -0.000023 0.000021 1.000000
vn -0.000062 0.000002 1.000000
vn -0.000062 0.000002 1.000000
vn -0.000062 0.000002 1.000000
vn -0.000062 0.000002 1.000000
vn 0.000018 0.000022 1.000000
vn 0.000018 0.000022 1.000000
vn 0.000018 0.000022 1.000000
vn 0.000018 0.000022 1.000000
vn 0.000028 -0.000013 1.000000
vn 0.000028 -0.000013 1.000000
vn 0.000028 -0.000013 1.000000
vn 0.000028 -0.000013 1.000000
vn 0.000001 -0.000031 1.000000
vn 0.000001 -0.000031 1.000000
vn 0.000001 -0.000031 1.000000
vn 0.000001 -0.000031 1.000000
vn 0.000021 -0.000022 1.000000
vn 0.000021 -0.000022 1.000000
vn 0.000021 -0.000022 1.000000
vn 0.000021 -0.000022 1.000000
vn 0.000000 0.000000 1.000000
vn 0.000000 0.000000 1.000000
vn 0.000000 0.000000 1.000000
vn 0.000000 0.000000 1.000000
vn 0.000049 -0.098200 -0.995167
vn 0.000049 -0.098200 -0.995167
vn 0.000049 -0.098200 -0.995167
vn 0.000049 -0.098200 -0.995167
vn 0.000036 -0.290749 -0.956799
vn 0.000036 -0.290749 -0.956799
vn 0.000036 -0.290749 -0.956799
vn 0.000036 -0.290749 -0.956799
vn 0.000022 -0.472083 -0.881554
vn 0.000022 -0.472083 -0.881554
vn 0.000022 -0.472083 -0.881554
vn 0.000022 -0.472083 -0.881554
vn 0.000013 -0.635123 -0.772411
vn 0.000013 -0.635123 -0.772411
vn 0.000013 -0.635123 -0.772411
vn 0.000013 -0.635123 -0.772411
vn 0.000008 -0.773607 -0.633665
vn 0.000008 -0.773607 -0.633665
vn 0.000008 -0.773607 -0.633665
vn 0.000008 -0.773607 -0.633665
vn 0.000004 -0.882291 -0.470705
vn 0.000004 -0.882291 -0.470705
vn 0.000004 -0.882291 -0.470705
vn 0.000004 -0.882291 -0.470705
vn 0.000002 -0.957094 -0.289778
vn 0.000002 -0.957094 -0.289778
vn 0.000002 -0.957094 -0.289778
vn 0.000002 -0.957094 -0.289778
vn 0.000001 -0.995203 -0.097828
vn 0.000001 -0.995203 -0.097828
vn 0.000001 -0.995203 -0.097828
vn 0.000001 -0.995203 -0.097828
vn -0.000385 0.098056 0.995181
vn -0.000385 0.098056 0.995181
vn -0.000385 0.098056 0.995181
vn -0.000385 0.098056 0.995181
vn -0.000105 0.290302 0.956935
vn -0.000105 0.290302 0.956935
vn -0.000105 0.290302 0.956935
vn -0.000105 0.290302 0.956935
vn -0.000038 0.471390 0.881925
vn -0.000038 0.471390 0.881925
vn -0.000038 0.471390 0.881925
vn -0.000038 0.471390 0.881925
vn -0.000017 0.634402 0.773003
vn -0.000017 0.634402 0.773003
vn -0.000017 0.634402 0.773003
vn -0.000017 0.634402 0.773003
vn -0.000009 0.773002 0.634404
vn -0.000009 0.773002 0.634404
vn -0.000009 0.773002 0.634404
vn -0.000009 0.773002 0.634404
vn -0.000005 0.881921 0.471397
vn -0.000005 0.881921 0.471397
vn -0.000005 0.881921 0.471397
vn -0.000005 0.881921 0.471397
vn -0.000002 0.956941 0.290283
vn -0.000002 0.956941 0.290283
vn -0.000002 0.956941 0.290283
vn -0.000002 0.956941 0.290283
vn -0.000001 0.995185 0.098016
vn -0.000001 0.995185 0.098016
vn -0.000001 0.995185 0.098016
vn -0.000001 0.995185 0.098016
vn 0.000000 -1.000000 0.000000
vn 0.000000 -1.000000 0.000000
vn 0.000000 -1.000000 0.000000
vn 0.000005 0.000000 -1.000000
vn 0.000005 0.000000 -1.000000
vn 0.000005 0.000000 -1.000000
vn 0.000005 0.000000 -1.000000
vn -0.000675 0.097972 0.995189
vn -0.000675 0.097972 0.995189
vn -0.000675 0.097972 0.995189
vn 0.000056 -0.432070 -0.901840
vn 0.000056 -0.432070 -0.901840
vn 0.000056 -0.432070 -0.901840
vn 0.000056 -0.432070 -0.901840
vn -1.000000 -0.000182 -0.000024
vn -1.000000 -0.000182 -0.000024
vn -1.000000 -0.000182 -0.000024
vn -1.000000 -0.000182 -0.000024
vn -1.000000 0.000072 0.000018
vn -1.000000 0.000072 0.000018
vn -1.000000 0.000072 0.000018
vn -1.000000 0.000072 0.000018
vn -1.000000 0.000021 0.000023
vn -1.000000 0.000021 0.000023
vn -1.000000 0.000021 0.000023
vn -1.000000 0.000021 0.000023
vn -1.000000 0.000002 0.000062
vn -1.000000 0.000002 0.000062
vn -1.000000 0.000002 0.000062
vn -1.000000 0.000002 0.000062
vn -1.000000 0.000022 -0.000018
vn -1.000000 0.000022 -0.000018
vn -1.000000 0.000022 -0.000018
vn -1.000000 0.000022 -0.000018
vn -1.000000 -0.000013 -0.000028
vn -1.000000 -0.000013 -0.000028
vn -1.000000 -0.000013 -0.000028
vn -1.000000 -0.000013 -0.000028
vn -1.000000 -0.000031 -0.000001
vn -1.000000 -0.000031 -0.000001
vn -1.000000 -0.000031 -0.000001
vn -1.000000 -0.000031 -0.000001
vn -1.000000 -0.000022 -0.000021
vn -1.000000 -0.000022 -0.000021
vn -1.000000 -0.000022 -0.000021
vn -1.000000 -0.000022 -0.000021
vn -1.000000 0.000000 0.000000
vn -1.000000 0.000000 0.000000
vn -1.000000 0.000000 0.000000
vn -1.000000 0.000000 0.000000
s off
f 7/1/1 8/2/2 6/3/3 5/4/4
f 14/14/5 15/15/6 18/18/7 19/19/8
f 17/17/9 18/18/10 15/15/11 16/16/12
f 13/13/13 14/14/14 19/19/15 20/20/16
f 2/5/17 10/10/18 9/9/19 4/7/20
f 11/11/21 10/10/22 2/5/23 1/6/24
f 12/12/25 11/11/26 1/6/27 3/8/28
f 5/4/29 14/14/30 13/13/31 7/1/32
f 5/4/33 6/3/34 15/15/35 14/14/36
f 16/16/37 15/15/38 6/3/39 8/2/40
f 9/9/41 10/10/42 18/18/43 17/17/44
f 19/19/45 18/18/46 10/10/47 11/11/48
f 20/20/49 19/19/50 11/11/51 12/12/52
f 40/21/53 31/22/54 42/23/55 41/24/56
f 31/22/57 32/25/58 43/26/59 42/23/60
f 32/25/61 33/27/62 44/28/63 43/26/64
f 33/27/65 34/29/66 45/30/67 44/28/68
f 34/29/69 35/31/70 46/32/71 45/30/72
f 35/31/73 36/33/74 47/34/75 46/32/76
f 36/33/77 37/35/78 48/36/79 47/34/80
f 37/35/81 38/37/82 49/38/83 48/36/84
f 22/39/85 39/40/86 50/41/87 51/42/88
f 23/43/89 22/39/90 51/42/91 52/44/92
f 24/45/93 23/43/94 52/44/95 53/46/96
f 25/47/97 24/45/98 53/46/99 54/48/100
f 26/49/101 25/47/102 54/48/103 55/50/104
f 27/51/105 26/49/106 55/50/107 56/52/108
f 28/53/109 27/51/110 56/52/111 57/54/112
f 29/55/113 28/53/114 57/54/115 58/56/116
f 21/123/117 30/124/118 59/125/119
f 38/99/120 29/100/121 58/101/122 49/102/123
f 21/57/124 50/41/125 39/40/126
f 59/58/127 30/59/128 40/21/129 41/24/130
f 41/127/131 50/128/132 21/129/133 59/130/134
f 42/131/135 51/132/136 50/128/137 41/127/138
f 42/131/139 43/133/140 52/134/141 51/132/142
f 52/134/143 43/133/144 44/135/145 53/136/146
f 53/136/147 44/135/148 45/137/149 54/138/150
f 54/138/151 45/137/152 46/139/153 55/140/154
f 55/140/155 46/139/156 47/141/157 56/142/158
f 56/142/159 47/141/160 48/143/161 57/144/162
f 57/144/163 48/143/164 49/145/165 58/146/166
f 40/60/167 60/61/168 61/62/169 31/63/170
f 31/63/171 61/62/172 62/64/173 32/65/174
f 32/65/175 62/64/176 63/66/177 33/67/178
f 33/67/179 63/66/180 64/68/181 34/69/182
f 34/69/183 64/68/184 65/70/185 35/71/186
f 35/71/187 65/70/188 66/72/189 36/73/190
f 36/73/191 66/72/192 67/74/193 37/75/194
f 37/75/195 67/74/196 68/76/197 38/77/198
f 22/78/199 70/79/200 69/80/201 39/81/202
f 23/82/203 71/83/204 70/79/205 22/78/206
f 24/84/207 72/85/208 71/83/209 23/82/210
f 25/86/211 73/87/212 72/85/213 24/84/214
f 26/88/215 74/89/216 73/87/217 25/86/218
f 27/90/219 75/91/220 74/89/221 26/88/222
f 28/92/223 76/93/224 75/91/225 27/90/226
f 29/94/227 77/95/228 76/93/229 28/92/230
f 21/123/231 78/126/232 30/124/233
f 38/147/234 68/148/235 77/149/236 29/150/237
f 21/96/238 39/81/239 69/80/240
f 78/97/241 60/61/242 40/60/243 30/98/244
f 60/103/245 78/104/246 21/105/247 69/106/248
f 61/107/249 60/103/250 69/106/251 70/108/252
f 61/107/253 70/108/254 71/109/255 62/110/256
f 71/109/257 72/111/258 63/112/259 62/110/260
f 72/111/261 73/113/262 64/114/263 63/112/264
f 73/113/265 74/115/266 65/116/267 64/114/268
f 74/115/269 75/117/270 66/118/271 65/116/272
f 75/117/273 76/119/274 67/120/275 66/118/276
f 76/119/277 77/121/278 68/122/279 67/120/280
