# This file uses centimeters as units for non-parametric coordinates.

v -0.102051 -25.000000 0.000000
v -0.102051 -25.000000 -500.000000
v 500.000488 -25.000000 0.000000
v 500.000488 -25.000000 -500.000000
v 500.000488 3.480469 0.000000
v 500.000488 3.480469 -500.000000
v -0.102051 3.480469 0.000000
v -0.102051 3.480469 -500.000000
vt 0.007343 0.514389
vt 0.243524 0.514389
vt 0.243524 0.735262
vt 0.007343 0.735262
vt 0.243524 0.735262
vt 0.007343 0.735262
vt 0.243524 0.514389
vt 0.007343 0.514389
vt 0.222061 0.514342
vt 0.243187 0.514342
vt 0.243187 0.735133
vt 0.222061 0.735133
vt 0.243187 0.514342
vt 0.222061 0.514342
vt 0.222061 0.735133
vt 0.243187 0.735133
vt 0.007381 0.571171
vt 0.243143 0.571171
vt 0.243143 0.592250
vt 0.007381 0.592250
vt 0.007381 0.592250
vt 0.243143 0.592250
vt 0.243143 0.571171
vt 0.007381 0.571171
vn 0.000000 -1.000000 0.000000
vn 0.000000 -1.000000 0.000000
vn 0.000000 -1.000000 0.000000
vn 0.000000 -1.000000 0.000000
vn 1.000000 0.000000 0.000000
vn 1.000000 0.000000 0.000000
vn 1.000000 0.000000 0.000000
vn 1.000000 0.000000 0.000000
vn 0.000000 1.000000 0.000000
vn 0.000000 1.000000 0.000000
vn 0.000000 1.000000 0.000000
vn 0.000000 1.000000 0.000000
vn -1.000000 0.000000 0.000000
vn -1.000000 0.000000 0.000000
vn -1.000000 0.000000 0.000000
vn -1.000000 0.000000 0.000000
vn 0.000000 0.000000 -1.000000
vn 0.000000 0.000000 -1.000000
vn 0.000000 0.000000 -1.000000
vn 0.000000 0.000000 -1.000000
vn 0.000000 0.000000 1.000000
vn 0.000000 0.000000 1.000000
vn 0.000000 0.000000 1.000000
vn 0.000000 0.000000 1.000000
s off
f 1/1/1 2/2/2 4/3/3 3/4/4
f 3/17/5 4/18/6 6/19/7 5/20/8
f 5/6/9 6/5/10 8/7/11 7/8/12
f 7/21/13 8/22/14 2/23/15 1/24/16
f 4/12/17 2/9/18 8/10/19 6/11/20
f 7/13/21 1/14/22 3/15/23 5/16/24
