# This file uses centimeters as units for non-parametric coordinates.

v -2.474365 17.077293 29.179016
v 0.356445 4.113563 32.323547
v 129.046936 -4.795851 161.012634
v 71.247864 3.451952 103.214783
v 72.871094 -8.354159 104.837646
v 105.128174 4.321683 73.220825
v 30.143433 15.987806 -1.606445
v 32.294617 4.113563 0.387573
v 160.983917 -4.795555 129.076477
v -0.838623 8.342340 -0.811157
v 146.600006 5.767752 146.673645
v 90.195007 13.023802 90.224548
v -1.383667 22.156252 -1.353760
v 69.974670 8.696269 101.940369
v 87.185974 18.669909 87.215027
v 127.785339 1.650769 159.752197
v 144.863281 11.886402 144.906555
v 161.665619 2.520571 129.757751
v 101.910095 7.607211 70.003113
v 70.468445 -3.387686 102.435242
v 104.808655 -8.354159 72.900330
v 102.405396 -3.387686 70.497986
v 87.493591 6.014160 87.523193
v 89.896545 1.048116 89.926086
v 0.173340 4.279653 40.352783
v 64.014587 -4.459766 105.786804
v 64.702454 0.639149 106.482544
v 63.568115 5.289808 105.357117
v -1.311646 13.188419 40.183044
v 110.223083 -5.624090 70.302063
v 112.320557 -9.958507 72.399902
v 112.600708 0.574724 72.678772
v 164.138489 -0.714425 124.216248
v 163.544312 -6.570047 123.621826
v 73.589172 -8.989267 112.330994
v 120.996704 -5.986359 159.736938
v 119.931641 -1.465398 158.674927
v 72.219238 0.054646 110.961365
v 71.560669 -4.797989 110.303894
v 107.564697 -19.873446 0.000610
v 107.519531 -12.857454 0.000610
v 121.590271 -19.783152 0.000610
v 121.544800 -12.767141 0.000610
v 121.590271 -19.783152 125.001221
v 121.544800 -12.767141 125.001221
v 107.519531 -12.857454 125.001221
v 107.564697 -19.873446 125.001221
v 0.000000 0.000000 0.000610
v 0.000000 0.000000 125.001221
v 87.632141 -11.537101 125.001221
v 16.199951 0.435021 111.208496
v 72.838135 -7.021707 111.208496
v 14.996033 0.435021 14.997559
v -0.709534 -5.383855 125.001221
v 86.923218 -16.920900 125.001221
v 74.131470 -15.236858 113.090820
v 12.084045 -7.067924 113.090820
v -0.709534 -5.383857 -0.709229
v 12.084045 -7.067924 11.911072
v 1.062012 8.067460 1.062622
v 1.062012 8.067459 125.001221
v 88.694458 -3.469331 125.001221
v 88.643494 -3.469331 88.953186
v 74.208679 -7.021707 73.122559
v 76.070862 -15.236858 74.255371
v 87.204895 -16.920900 87.027588
v 87.832947 -11.537102 87.573242
v 125.000305 -19.873446 107.565369
v 125.000305 -12.857454 107.520081
v 125.000305 -19.783152 121.590576
v 125.000305 -12.767141 121.545410
v -0.000305 -19.783152 121.590576
v -0.000305 -12.767141 121.545410
v -0.000305 -12.857454 107.520081
v -0.000305 -19.873446 107.565369
v 125.000305 0.000000 0.000610
v 125.000305 -11.537101 87.633057
v -0.000305 0.000000 0.000610
v 111.206970 -7.021707 72.838806
v 111.206970 0.435021 16.200623
v 11.910095 -7.067924 12.084961
v 125.000305 -16.920900 86.923828
v 113.089905 -15.236858 74.132080
v 125.000305 -5.383855 -0.709229
v 113.089905 -7.067924 12.084961
v 125.000305 8.067459 1.062622
v 125.000305 -3.469330 88.695068
vt 0.238717 0.302326
vt 0.238674 0.302305
vt 0.238663 0.288759
vt 0.238706 0.288781
vt 0.238654 0.302307
vt 0.238642 0.288762
vt 0.238581 0.288978
vt 0.238575 0.288972
vt 0.238573 0.302393
vt 0.238635 0.295055
vt 0.238641 0.295751
vt 0.238591 0.302393
vt 0.238593 0.288972
vt 0.238587 0.288984
vt 0.238509 0.289084
vt 0.238503 0.302503
vt 0.238520 0.302505
vt 0.238563 0.302529
vt 0.238565 0.289108
vt 0.238523 0.289085
vt 0.238654 0.302307
vt 0.238642 0.288762
vt 0.238573 0.302393
vt 0.238575 0.288972
vt 0.238581 0.288978
vt 0.238587 0.288984
vt 0.238503 0.302503
vt 0.238509 0.289084
vt 0.239194 0.261148
vt 0.239243 0.276040
vt 0.239331 0.276045
vt 0.239271 0.261150
vt 0.239394 0.275763
vt 0.239324 0.260936
vt 0.239238 0.260932
vt 0.239302 0.275759
vt 0.239500 0.275776
vt 0.239410 0.260941
vt 0.239418 0.276050
vt 0.239348 0.261153
vt 0.238654 0.302307
vt 0.238581 0.288978
vt 0.238575 0.288972
vt 0.238573 0.302393
vt 0.238642 0.288762
vt 0.238587 0.288984
vt 0.238581 0.288978
vt 0.238575 0.288972
vt 0.238503 0.302503
vt 0.238509 0.289084
vt 0.238587 0.288984
vt 0.238509 0.289084
vt 0.238503 0.302503
vt 0.238575 0.288972
vt 0.238581 0.288978
vt 0.496840 0.156480
vt 0.496838 0.156425
vt 0.496787 0.156426
vt 0.496789 0.156481
vt 0.496840 0.156480
vt 0.496838 0.156425
vt 0.496787 0.156426
vt 0.496789 0.156481
vt 0.236683 0.305324
vt 0.236689 0.305357
vt 0.236979 0.305833
vt 0.236977 0.305807
vt 0.489258 0.155963
vt 0.489258 0.155963
vt 0.489113 0.156467
vt 0.489113 0.156467
vt 0.489034 0.156627
vt 0.489205 0.156004
vt 0.489067 0.156463
vt 0.489190 0.156005
vt 0.237018 0.305233
vt 0.237019 0.305260
vt 0.962259 0.697824
vt 0.875469 0.744037
vt 0.994841 0.744037
vt 0.994841 0.697824
vt 0.488932 0.156460
vt 0.488934 0.156460
vt 0.488838 0.156623
vt 0.488862 0.156455
vt 0.188560 0.667273
vt 0.135056 0.667273
vt 0.167798 0.632609
vt 0.188560 0.632609
vt 0.488574 0.155951
vt 0.488576 0.155953
vt 0.488551 0.155900
vt 0.488551 0.155900
vt 0.496840 0.156480
vt 0.496838 0.156425
vt 0.496787 0.156426
vt 0.496789 0.156481
vt 0.496840 0.156480
vt 0.496838 0.156425
vt 0.496787 0.156426
vt 0.496789 0.156481
vt 0.237019 0.305260
vt 0.237018 0.305233
vt 0.237250 0.305592
vt 0.237247 0.305614
vt 0.488523 0.156617
vt 0.488538 0.156442
vt 0.488576 0.155953
vt 0.488574 0.155951
vt 0.488514 0.156442
vt 0.488551 0.155900
vt 0.488514 0.156442
vt 0.488551 0.155900
vt 0.236689 0.305357
vt 0.236683 0.305324
vt 0.489190 0.156005
vt 0.489205 0.156004
vt 0.489258 0.155963
vt 0.489258 0.155963
vt 0.875469 0.697824
vt 0.875469 0.744037
vt 0.994841 0.744037
vt 0.910889 0.697824
vt 0.188560 0.667273
vt 0.135056 0.667273
vt 0.135056 0.632609
vt 0.154624 0.632609
vt 0.488700 0.156620
vt 0.488732 0.156450
vt 0.488694 0.156450
vt 0.488691 0.156450
vn -0.001262 -0.098400 -0.995146
vn -0.001262 -0.098400 -0.995146
vn -0.001262 -0.098400 -0.995146
vn -0.001262 -0.098400 -0.995146
vn -0.991710 -0.127365 -0.016994
vn -0.991710 -0.127365 -0.016994
vn -0.991710 -0.127365 -0.016994
vn -0.991710 -0.127365 -0.016994
vn -0.714511 -0.051182 0.697749
vn -0.714511 -0.051182 0.697750
vn -0.714511 -0.051182 0.697749
vn -0.714511 -0.051182 0.697749
vn -0.714511 -0.051182 0.697749
vn 0.712413 0.661005 0.235670
vn 0.712413 0.661005 0.235670
vn 0.712413 0.661005 0.235670
vn 0.712413 0.661005 0.235670
vn 0.273252 0.940090 -0.203874
vn 0.273252 0.940090 -0.203874
vn 0.273252 0.940090 -0.203874
vn 0.273252 0.940090 -0.203874
vn 0.368449 0.462176 0.806622
vn 0.368449 0.462176 0.806622
vn 0.368449 0.462176 0.806622
vn 0.368449 0.462176 0.806622
vn -0.176055 0.953191 0.245831
vn -0.176055 0.953191 0.245831
vn -0.176054 0.953190 0.245831
vn -0.176055 0.953191 0.245831
vn -0.707098 -0.000169 0.707116
vn -0.707098 -0.000169 0.707116
vn -0.707098 -0.000169 0.707116
vn -0.707098 -0.000169 0.707116
vn -0.707098 -0.000169 0.707116
vn 0.274893 0.928314 -0.250334
vn 0.274893 0.928314 -0.250334
vn 0.274893 0.928314 -0.250334
vn 0.274893 0.928314 -0.250334
vn 0.752646 0.111550 0.648908
vn 0.752646 0.111550 0.648908
vn 0.752646 0.111550 0.648908
vn 0.752646 0.111550 0.648908
vn -0.273229 0.914833 0.297366
vn -0.273229 0.914833 0.297366
vn -0.273229 0.914833 0.297366
vn -0.273229 0.914833 0.297366
vn 0.494840 0.313367 0.810515
vn 0.494840 0.313367 0.810515
vn 0.494840 0.313367 0.810515
vn 0.494840 0.313367 0.810515
vn 0.706980 0.004746 -0.707218
vn 0.706980 0.004746 -0.707218
vn 0.706980 0.004746 -0.707218
vn 0.706980 0.004746 -0.707218
vn 0.706980 0.004746 -0.707218
vn 0.707099 -0.000046 -0.707114
vn 0.707099 -0.000046 -0.707114
vn 0.707099 -0.000046 -0.707114
vn 0.707099 -0.000046 -0.707114
vn 0.707099 -0.000046 -0.707114
vn 0.316988 -0.914943 -0.249796
vn 0.316988 -0.914943 -0.249796
vn 0.316988 -0.914943 -0.249796
vn 0.316988 -0.914943 -0.249796
vn 0.160425 -0.962192 -0.220114
vn 0.160425 -0.962192 -0.220114
vn 0.160425 -0.962192 -0.220114
vn 0.160425 -0.962192 -0.220114
vn -0.363767 -0.542376 -0.757299
vn -0.363767 -0.542376 -0.757299
vn -0.363767 -0.542376 -0.757299
vn -0.363767 -0.542376 -0.757299
vn -0.220129 -0.962187 0.160435
vn -0.220129 -0.962187 0.160435
vn -0.220129 -0.962187 0.160435
vn -0.220129 -0.962187 0.160435
vn -0.757286 -0.542413 -0.363738
vn -0.757286 -0.542413 -0.363738
vn -0.757286 -0.542413 -0.363738
vn -0.757286 -0.542413 -0.363738
vn -0.249570 -0.915153 0.316558
vn -0.249570 -0.915153 0.316558
vn -0.249570 -0.915154 0.316558
vn -0.249570 -0.915154 0.316558
vn -0.025466 -0.995239 -0.094079
vn -0.025466 -0.995239 -0.094079
vn -0.025466 -0.995239 -0.094079
vn -0.025466 -0.995239 -0.094079
vn 0.486382 -0.165788 0.857873
vn 0.486382 -0.165788 0.857873
vn 0.486382 -0.165788 0.857873
vn 0.486382 -0.165788 0.857873
vn 0.321776 0.296383 0.899232
vn 0.321776 0.296383 0.899231
vn 0.321776 0.296383 0.899232
vn 0.321776 0.296383 0.899231
vn -0.255935 0.896894 0.360664
vn -0.255935 0.896894 0.360664
vn -0.255935 0.896894 0.360664
vn -0.255935 0.896894 0.360664
vn -0.981374 -0.191668 0.013021
vn -0.981373 -0.191668 0.013021
vn -0.981373 -0.191668 0.013021
vn -0.981373 -0.191668 0.013021
vn -0.162183 -0.492266 -0.855202
vn -0.162183 -0.492266 -0.855202
vn -0.162183 -0.492266 -0.855202
vn -0.162183 -0.492266 -0.855202
vn 0.078682 0.317618 -0.944949
vn 0.078682 0.317618 -0.944949
vn 0.078682 0.317618 -0.944949
vn 0.078682 0.317618 -0.944949
vn 0.380874 0.853145 -0.356482
vn 0.380874 0.853145 -0.356482
vn 0.380874 0.853145 -0.356482
vn 0.380874 0.853145 -0.356482
vn 0.877914 -0.129678 0.460924
vn 0.877914 -0.129678 0.460924
vn 0.877914 -0.129678 0.460924
vn 0.877914 -0.129678 0.460924
vn -0.178242 -0.954277 0.239971
vn -0.178242 -0.954277 0.239971
vn -0.178242 -0.954277 0.239971
vn -0.178242 -0.954277 0.239971
vn 0.160856 -0.982035 -0.098654
vn 0.160856 -0.982035 -0.098654
vn 0.160856 -0.982035 -0.098654
vn 0.160856 -0.982035 -0.098654
vn -0.187961 0.165146 0.968193
vn -0.187961 0.165146 0.968193
vn -0.187961 0.165146 0.968193
vn -0.187961 0.165146 0.968193
vn -0.384411 0.826751 0.410745
vn -0.384411 0.826751 0.410745
vn -0.384411 0.826751 0.410745
vn -0.384411 0.826751 0.410745
vn -0.981801 0.100980 0.160838
vn -0.981802 0.100980 0.160838
vn -0.981802 0.100980 0.160838
vn -0.981802 0.100980 0.160838
vn -0.908555 -0.414532 0.051873
vn -0.908555 -0.414532 0.051873
vn -0.908555 -0.414532 0.051873
vn -0.908555 -0.414532 0.051873
vn 0.000000 0.000000 1.000000
vn 0.000000 0.000000 1.000000
vn 0.000000 0.000000 1.000000
vn 0.000000 0.000000 1.000000
vn 0.999979 0.006482 0.000000
vn 0.999979 0.006482 0.000000
vn 0.999979 0.006482 0.000000
vn 0.999979 0.006482 0.000000
vn -0.006439 0.999979 0.000000
vn -0.006439 0.999979 0.000000
vn -0.006439 0.999979 0.000000
vn -0.006439 0.999979 0.000000
vn -0.999979 -0.006437 0.000000
vn -0.999979 -0.006437 0.000000
vn -0.999979 -0.006437 0.000000
vn -0.999979 -0.006437 0.000000
vn 0.006438 -0.999979 0.000000
vn 0.006438 -0.999979 0.000000
vn 0.006438 -0.999979 0.000000
vn 0.006438 -0.999979 0.000000
vn 0.000000 0.000000 -1.000000
vn 0.000000 0.000000 -1.000000
vn 0.000000 0.000000 -1.000000
vn 0.000000 0.000000 -1.000000
vn 0.000000 0.000000 1.000000
vn 0.000000 0.000000 1.000000
vn 0.000000 0.000000 1.000000
vn 0.000000 0.000000 1.000000
vn -0.000000 0.000000 1.000000
vn -0.000000 0.000000 1.000000
vn -0.000000 0.000000 1.000000
vn -0.000000 0.000000 1.000000
vn -0.130528 -0.991445 -0.000009
vn -0.130528 -0.991445 -0.000009
vn -0.130528 -0.991445 -0.000009
vn -0.130528 -0.991445 -0.000009
vn -0.029981 -0.227723 -0.973264
vn -0.029981 -0.227723 -0.973264
vn -0.029981 -0.227723 -0.973264
vn -0.029981 -0.227723 -0.973264
vn -0.991446 0.130515 0.000000
vn -0.991446 0.130515 0.000000
vn -0.991446 0.130515 0.000000
vn -0.991446 0.130515 0.000000
vn 0.130581 0.991438 -0.000042
vn 0.130581 0.991438 -0.000042
vn 0.130581 0.991438 -0.000042
vn 0.130581 0.991438 -0.000042
vn 0.992320 -0.123536 0.006350
vn 0.992320 -0.123536 0.006350
vn 0.992320 -0.123536 0.006350
vn 0.992320 -0.123536 0.006350
vn -0.135434 -0.990779 -0.003916
vn -0.135434 -0.990779 -0.003916
vn -0.135434 -0.990779 -0.003916
vn -0.135434 -0.990779 -0.003916
vn -0.979718 -0.195896 -0.042157
vn -0.979718 -0.195896 -0.042157
vn -0.979718 -0.195896 -0.042157
vn -0.979718 -0.195896 -0.042157
vn -0.127598 -0.991826 -0.000158
vn -0.127598 -0.991826 -0.000158
vn -0.127598 -0.991826 -0.000158
vn -0.127598 -0.991826 -0.000158
vn 0.905757 -0.423761 -0.005524
vn 0.905757 -0.423761 -0.005524
vn 0.905757 -0.423761 -0.005524
vn 0.905757 -0.423761 -0.005524
vn -0.130508 -0.991447 0.000000
vn -0.130508 -0.991447 0.000000
vn -0.130508 -0.991447 0.000000
vn -0.130508 -0.991447 0.000000
vn -0.991427 0.130659 -0.000000
vn -0.991427 0.130659 -0.000000
vn -0.991427 0.130659 -0.000000
vn -0.991427 0.130659 -0.000000
vn -1.000000 0.000000 0.000000
vn -1.000000 0.000000 0.000000
vn -1.000000 0.000000 0.000000
vn -1.000000 0.000000 0.000000
vn 0.000000 0.006437 0.999979
vn 0.000000 0.006437 0.999979
vn 0.000000 0.006437 0.999979
vn 0.000000 0.006437 0.999979
vn 0.000000 0.999979 -0.006439
vn 0.000000 0.999979 -0.006439
vn 0.000000 0.999979 -0.006439
vn 0.000000 0.999979 -0.006439
vn 0.000000 -0.006455 -0.999979
vn 0.000000 -0.006455 -0.999979
vn 0.000000 -0.006455 -0.999979
vn 0.000000 -0.006455 -0.999979
vn 0.000000 -0.999979 0.006438
vn 0.000000 -0.999979 0.006438
vn 0.000000 -0.999979 0.006438
vn 0.000000 -0.999979 0.006438
vn 1.000000 0.000000 0.000000
vn 1.000000 0.000000 0.000000
vn 1.000000 0.000000 0.000000
vn 1.000000 0.000000 0.000000
vn 1.000000 0.000000 0.000000
vn 1.000000 0.000000 0.000000
vn 1.000000 0.000000 0.000000
vn 1.000000 0.000000 0.000000
vn -0.973248 -0.227793 -0.029990
vn -0.973248 -0.227793 -0.029990
vn -0.973248 -0.227793 -0.029990
vn -0.973248 -0.227793 -0.029990
vn -0.000012 -0.991445 -0.130528
vn -0.000012 -0.991445 -0.130528
vn -0.000012 -0.991445 -0.130528
vn -0.000012 -0.991445 -0.130528
vn 1.000000 -0.000002 0.000000
vn 1.000000 -0.000002 0.000000
vn 1.000000 -0.000002 0.000000
vn 1.000000 -0.000002 0.000000
vn 0.000000 0.130515 -0.991446
vn 0.000000 0.130515 -0.991446
vn 0.000000 0.130515 -0.991446
vn 0.000000 0.130515 -0.991446
vn -0.005520 -0.423780 0.905748
vn -0.005520 -0.423780 0.905748
vn -0.005520 -0.423780 0.905748
vn -0.005520 -0.423780 0.905748
vn 0.000000 -0.991448 -0.130502
vn 0.000000 -0.991448 -0.130502
vn 0.000000 -0.991448 -0.130502
vn 0.000000 -0.991448 -0.130502
vn -0.000000 0.130715 -0.991420
vn -0.000000 0.130715 -0.991420
vn -0.000000 0.130715 -0.991420
vn -0.000000 0.130715 -0.991420
vn 0.000210 0.991484 0.130232
vn 0.000210 0.991484 0.130232
vn 0.000210 0.991484 0.130232
vn 0.000210 0.991484 0.130232
vn 0.000892 -0.991603 -0.129319
vn 0.000892 -0.991603 -0.129319
vn 0.000892 -0.991603 -0.129319
vn 0.000892 -0.991603 -0.129319
vn -0.005439 -0.147286 -0.989079
vn -0.005439 -0.147286 -0.989079
vn -0.005439 -0.147286 -0.989079
vn -0.005439 -0.147286 -0.989079
vn -0.000395 -0.991478 -0.130272
vn -0.000395 -0.991478 -0.130272
vn -0.000395 -0.991478 -0.130272
vn -0.000395 -0.991478 -0.130272
vn 0.000582 -0.115792 0.993273
vn 0.000582 -0.115793 0.993273
vn 0.000582 -0.115792 0.993273
vn 0.000582 -0.115792 0.993273
s off
f 8/1/1 10/2/2 13/3/3 7/4/4
f 10/2/5 2/5/6 1/6/7 13/3/8
f 25/41/9 26/42/10 27/43/11 28/44/12 29/45/13
f 6/10/14 19/11/15 15/12/16 12/13/17
f 15/12/18 19/11/19 7/4/20 13/3/21
f 12/13/22 15/12/23 14/9/24 4/8/25
f 14/9/26 15/12/27 13/3/28 1/6/29
f 35/51/30 36/52/31 37/53/32 38/54/33 39/55/34
f 12/13/35 17/17/36 18/18/37 6/10/38
f 9/19/39 18/18/40 17/17/41 11/20/42
f 16/16/43 17/17/44 12/13/45 4/8/46
f 11/20/47 17/17/48 16/16/49 3/15/50
f 8/21/51 7/22/52 19/23/53 6/24/54 22/25/55
f 31/46/56 30/47/57 32/48/58 33/49/59 34/50/60
f 3/29/61 5/30/62 24/31/63 11/32/64
f 10/33/65 23/34/66 20/35/67 2/36/68
f 5/30/69 20/35/70 23/34/71 24/31/72
f 8/37/73 22/38/74 23/34/75 10/33/76
f 24/31/77 23/34/78 22/38/79 21/39/80
f 11/32/81 24/31/82 21/39/83 9/40/84
f 2/5/85 20/7/86 26/42/87 25/41/88
f 20/7/89 4/8/90 27/43/91 26/42/92
f 4/8/93 14/9/94 28/44/95 27/43/96
f 14/9/97 1/6/98 29/45/99 28/44/100
f 1/6/101 2/5/102 25/41/103 29/45/104
f 21/26/105 22/25/106 30/47/107 31/46/108
f 22/25/109 6/24/110 32/48/111 30/47/112
f 6/24/113 18/27/114 33/49/115 32/48/116
f 18/27/117 9/28/118 34/50/119 33/49/120
f 9/28/121 21/26/122 31/46/123 34/50/124
f 5/14/125 3/15/126 36/52/127 35/51/128
f 3/15/129 16/16/130 37/53/131 36/52/132
f 16/16/133 4/8/134 38/54/135 37/53/136
f 4/8/137 20/7/138 39/55/139 38/54/140
f 20/7/141 5/14/142 35/51/143 39/55/144
f 44/56/145 45/57/146 46/58/147 47/59/148
f 42/60/149 43/61/150 45/57/151 44/56/152
f 43/61/153 41/62/154 46/58/155 45/57/156
f 41/62/157 40/63/158 47/59/159 46/58/160
f 40/63/161 42/60/162 44/56/163 47/59/164
f 41/62/165 43/61/166 42/60/167 40/63/168
f 61/64/169 49/65/170 50/66/171 62/67/172
f 49/68/173 54/69/174 55/70/175 50/71/176
f 56/72/177 55/70/178 54/69/179 57/73/180
f 52/74/181 56/72/182 57/73/183 51/75/184
f 49/65/185 61/64/186 60/76/187 48/77/188
f 63/78/189 60/79/190 61/80/191 62/81/192
f 50/71/193 55/70/194 66/82/195 67/83/196
f 55/70/197 56/72/198 65/84/199 66/82/200
f 64/85/201 65/84/202 56/72/203 52/74/204
f 51/86/205 53/87/206 64/88/207 52/89/208
f 59/90/209 53/91/210 51/75/211 57/73/212
f 58/92/213 59/90/214 57/73/215 54/69/216
f 48/93/217 58/92/218 54/69/219 49/68/220
f 72/94/221 73/95/222 74/96/223 75/97/224
f 70/98/225 71/99/226 73/95/227 72/94/228
f 71/99/229 69/100/230 74/96/231 73/95/232
f 69/100/233 68/101/234 75/97/235 74/96/236
f 68/101/237 70/98/238 72/94/239 75/97/240
f 69/100/241 71/99/242 70/98/243 68/101/244
f 76/102/245 86/103/246 87/104/247 77/105/248
f 83/106/249 79/107/250 80/108/251 85/109/252
f 82/110/253 83/106/254 85/109/255 84/111/256
f 77/112/257 82/110/258 84/111/259 76/113/260
f 78/114/261 60/115/262 86/103/263 76/102/264
f 85/109/265 80/108/266 53/116/267 81/117/268
f 84/111/269 85/109/270 81/117/271 58/118/272
f 76/113/273 84/111/274 58/118/275 78/119/276
f 87/120/277 86/121/278 60/122/279 63/123/280
f 53/124/281 80/125/282 79/126/283 64/127/284
f 79/107/285 83/106/286 65/128/287 64/129/288
f 66/130/289 65/128/290 83/106/291 82/110/292
f 67/131/293 66/130/294 82/110/295 77/112/296
