# This file uses centimeters as units for non-parametric coordinates.

v 10.768158 279.520782 -180.660095
v 7.521088 275.661835 -178.226624
v 10.768158 279.520782 -184.607849
v 7.521088 279.520782 -185.868835
v 10.768158 177.447220 -184.607849
v 7.521088 177.447220 -185.868835
v 10.768158 177.447220 -180.660095
v 7.521088 177.447220 -178.226624
v 5.420807 279.520782 -182.048035
v 5.420807 177.447220 -182.048035
v 6.549133 221.240280 -121.662277
v 4.115601 224.829117 -124.909348
v 10.496887 221.240280 -121.662277
v 11.757874 226.611252 -124.909348
v 10.496887 126.761467 -121.662277
v 11.757874 126.761467 -124.909348
v 6.549133 126.761467 -121.662277
v 4.115601 126.761467 -124.909348
v 7.937073 226.611252 -127.009567
v 7.937073 126.761467 -127.009567
v 6.320190 351.253540 -254.044571
v 4.455566 351.253540 -257.291626
v 9.345703 351.253601 -254.044571
v 10.311890 351.253601 -257.291626
v 9.345703 254.289688 -254.044571
v 10.311890 254.289688 -257.291626
v 6.320190 254.289688 -254.044571
v 4.455566 254.289688 -257.291626
v 7.384033 351.253540 -259.391846
v 7.384033 254.289688 -259.391846
v 10.643311 282.199158 -255.321732
v 11.636963 282.199158 -258.509888
v 8.807983 282.199158 -260.647339
v 5.914917 282.199158 -258.634399
v 7.687988 282.199158 -255.386124
v 3.118591 35.452194 0.000610
v 13.100281 35.452194 0.000610
v 3.118591 31.172600 0.000610
v 13.100281 31.172600 0.000610
v 3.118591 35.452194 15.307007
v 3.118591 31.172600 15.307007
v 13.100281 31.172600 15.307007
v 13.100281 35.452194 15.307007
v 3.118591 80.117722 0.000610
v 13.100281 80.117722 0.000610
v 3.118591 75.838135 0.000610
v 13.100281 75.838135 0.000610
v 3.118591 80.117722 15.307007
v 3.118591 75.838135 15.307007
v 13.100281 75.838135 15.307007
v 13.100281 80.117722 15.307007
v 14.898071 95.381264 0.000610
v 1.322021 95.381264 0.000610
v 14.898071 102.711891 0.000610
v 1.322021 102.711891 0.000610
v 14.898071 95.381264 15.307007
v 14.898071 102.711891 15.307007
v 1.322021 102.711891 15.307007
v 1.322021 95.381264 15.307007
v 10.768127 153.835892 -55.658569
v 7.521057 153.835892 -53.225098
v 10.768127 158.749893 -59.606323
v 7.521057 158.749893 -60.867310
v 5.420837 153.835892 -57.046509
v 9.490967 60.372009 -61.300049
v 6.302795 60.371994 -62.596436
v 4.165344 60.372009 -58.905029
v 6.178284 60.371994 -55.129395
v 9.426575 60.371994 -57.443237
v 11.443062 97.019661 8.790588
v 8.546448 97.019661 10.627136
v 11.443062 97.019661 5.811462
v 8.546448 97.019661 4.859924
v 6.672935 97.019661 7.743225
v 10.303764 0.823293 4.533386
v 7.459679 0.823269 3.554993
v 5.552940 0.823293 6.340637
v 7.348633 0.823269 9.189758
v 10.246315 0.823269 7.443542
v 14.898071 352.711853 -250.000610
v 1.322021 352.711853 -250.000610
v 14.898071 345.381226 -250.000610
v 1.322021 345.381226 -250.000000
v 14.898071 352.711853 -264.959869
v 14.898071 345.381226 -264.959869
v 1.322021 345.381226 -264.959259
v 1.322021 352.711853 -264.959869
v 3.118561 325.838135 -250.000610
v 13.100250 325.838135 -250.000610
v 3.118561 330.117737 -250.000610
v 13.100250 330.117737 -250.000610
v 3.118561 325.838135 -264.959869
v 3.118561 330.117737 -264.959869
v 13.100250 330.117737 -264.959869
v 13.100250 325.838135 -264.959869
v 3.118561 281.172607 -250.000610
v 13.100250 281.172607 -250.000610
v 3.118561 285.452209 -250.000610
v 13.100250 285.452209 -250.000610
v 3.118561 281.172607 -264.959869
v 3.118561 285.452209 -264.959869
v 13.100250 285.452209 -264.959869
v 13.100250 281.172607 -264.959869
vt 0.495891 0.156154
vt 0.495876 0.156118
vt 0.494895 0.156155
vt 0.494891 0.156192
vt 0.495884 0.156172
vt 0.494895 0.156209
vt 0.495878 0.156189
vt 0.494898 0.156227
vt 0.495863 0.156153
vt 0.494902 0.156190
vt 0.495891 0.156154
vt 0.495876 0.156118
vt 0.494895 0.156155
vt 0.494891 0.156192
vt 0.495884 0.156172
vt 0.494895 0.156209
vt 0.495878 0.156189
vt 0.494898 0.156227
vt 0.495863 0.156153
vt 0.494902 0.156190
vt 0.495604 0.156128
vt 0.494895 0.156155
vt 0.494891 0.156192
vt 0.495614 0.156164
vt 0.494902 0.156190
vt 0.495597 0.156163
vt 0.495606 0.156200
vt 0.494898 0.156227
vt 0.494895 0.156209
vt 0.495610 0.156182
vt 0.495876 0.156118
vt 0.495891 0.156154
vt 0.495884 0.156172
vt 0.495878 0.156189
vt 0.495863 0.156153
vt 0.494895 0.156155
vt 0.494902 0.156190
vt 0.494898 0.156227
vt 0.494891 0.156192
vt 0.494895 0.156155
vt 0.494902 0.156190
vt 0.494898 0.156227
vt 0.494891 0.156192
vt 0.494895 0.156155
vt 0.494902 0.156190
vt 0.494898 0.156227
vt 0.494891 0.156192
vt 0.494895 0.156155
vt 0.494902 0.156190
vt 0.494898 0.156227
vt 0.494891 0.156192
vt 0.495863 0.156153
vt 0.495876 0.156118
vt 0.495891 0.156154
vt 0.495878 0.156189
vt 0.495863 0.156153
vt 0.495876 0.156118
vt 0.495891 0.156154
vt 0.495878 0.156189
vt 0.495876 0.156118
vt 0.495604 0.156128
vt 0.495614 0.156164
vt 0.495891 0.156154
vt 0.495884 0.156172
vt 0.495610 0.156182
vt 0.495878 0.156189
vt 0.495606 0.156200
vt 0.495597 0.156163
vt 0.495863 0.156153
vt 0.495876 0.156118
vt 0.495604 0.156128
vt 0.495614 0.156164
vt 0.495891 0.156154
vt 0.495884 0.156172
vt 0.495610 0.156182
vt 0.495878 0.156189
vt 0.495606 0.156200
vt 0.495597 0.156163
vt 0.495863 0.156153
vt 0.494895 0.156155
vt 0.494902 0.156190
vt 0.494898 0.156227
vt 0.494891 0.156192
vt 0.494898 0.156227
vt 0.494902 0.156190
vt 0.494895 0.156155
vt 0.494891 0.156192
vt 0.495863 0.156153
vt 0.495876 0.156118
vt 0.495891 0.156154
vt 0.495878 0.156189
vt 0.495863 0.156153
vt 0.495878 0.156189
vt 0.495891 0.156154
vt 0.495876 0.156118
vt 0.495863 0.156153
vt 0.495876 0.156118
vt 0.495891 0.156154
vt 0.495878 0.156189
vt 0.495863 0.156153
vt 0.495878 0.156189
vt 0.495891 0.156154
vt 0.495876 0.156118
vn 0.362006 0.000000 -0.932176
vn 0.362006 0.000000 -0.932176
vn 0.362006 0.000000 -0.932176
vn 0.362006 0.000000 -0.932176
vn -0.876328 0.000000 -0.481714
vn -0.876328 0.000000 -0.481714
vn -0.876328 0.000000 -0.481714
vn -0.876328 0.000000 -0.481714
vn -0.876360 0.000000 0.481656
vn -0.876360 0.000000 0.481656
vn -0.876360 0.000000 0.481656
vn -0.876360 0.000000 0.481656
vn 0.599711 0.000000 0.800217
vn 0.599711 0.000000 0.800217
vn 0.599711 0.000000 0.800217
vn 0.599711 0.000000 0.800217
vn 1.000000 0.000000 -0.000000
vn 1.000000 0.000000 -0.000000
vn 1.000000 0.000000 -0.000000
vn 1.000000 0.000000 -0.000000
vn 0.932175 0.000000 0.362007
vn 0.932175 0.000000 0.362007
vn 0.932175 0.000000 0.362007
vn 0.932175 0.000000 0.362007
vn 0.481704 0.000000 -0.876334
vn 0.481704 0.000000 -0.876334
vn 0.481704 0.000000 -0.876334
vn 0.481704 0.000000 -0.876334
vn -0.481638 0.000000 -0.876370
vn -0.481638 0.000000 -0.876370
vn -0.481638 0.000000 -0.876370
vn -0.481638 0.000000 -0.876370
vn -0.800209 0.000000 0.599721
vn -0.800209 0.000000 0.599721
vn -0.800209 0.000000 0.599721
vn -0.800209 0.000000 0.599721
vn 0.000000 0.000000 1.000000
vn 0.000000 0.000000 1.000000
vn 0.000000 0.000000 1.000000
vn 0.000000 0.000000 1.000000
vn 0.956133 -0.031907 0.291189
vn 0.956133 -0.031907 0.291189
vn 0.956133 -0.031907 0.291189
vn 0.956133 -0.031907 0.291189
vn -0.870498 0.067534 0.487517
vn -0.870498 0.067534 0.487517
vn -0.870498 0.067534 0.487516
vn -0.870498 0.067534 0.487517
vn 0.591573 -0.064750 -0.803647
vn 0.591573 -0.064750 -0.803647
vn 0.591573 -0.064750 -0.803647
vn 0.591573 -0.064750 -0.803647
vn -0.010754 0.047373 0.998819
vn -0.010754 0.047373 0.998819
vn -0.010754 0.047373 0.998819
vn -0.010754 0.047373 0.998819
vn -0.577024 -0.008210 -0.816686
vn -0.577024 -0.008210 -0.816686
vn -0.577024 -0.008210 -0.816686
vn -0.577024 -0.008210 -0.816686
vn 0.956541 0.012901 0.291313
vn 0.956541 0.012901 0.291313
vn 0.956541 0.012901 0.291313
vn 0.956541 0.012901 0.291313
vn 0.592611 0.026216 -0.805062
vn 0.592611 0.026216 -0.805062
vn 0.592611 0.026216 -0.805062
vn 0.592611 0.026216 -0.805062
vn -0.577040 0.003318 -0.816709
vn -0.577040 0.003318 -0.816709
vn -0.577040 0.003318 -0.816709
vn -0.577040 0.003318 -0.816709
vn -0.872163 -0.027347 0.488451
vn -0.872163 -0.027347 0.488451
vn -0.872163 -0.027347 0.488451
vn -0.872163 -0.027347 0.488451
vn -0.010764 -0.019164 0.999758
vn -0.010764 -0.019164 0.999758
vn -0.010764 -0.019164 0.999758
vn -0.010764 -0.019164 0.999758
vn 0.000000 0.000000 1.000000
vn 0.000000 0.000000 1.000000
vn 0.000000 0.000000 1.000000
vn 0.000000 0.000000 1.000000
vn -1.000000 0.000000 0.000000
vn -1.000000 0.000000 0.000000
vn -1.000000 0.000000 0.000000
vn -1.000000 0.000000 0.000000
vn 0.000000 -1.000000 0.000000
vn 0.000000 -1.000000 0.000000
vn 0.000000 -1.000000 0.000000
vn 0.000000 -1.000000 0.000000
vn 1.000000 0.000000 0.000000
vn 1.000000 0.000000 0.000000
vn 1.000000 0.000000 0.000000
vn 1.000000 0.000000 0.000000
vn 0.000000 1.000000 0.000000
vn 0.000000 1.000000 0.000000
vn 0.000000 1.000000 0.000000
vn 0.000000 1.000000 0.000000
vn 0.000000 0.000000 1.000000
vn 0.000000 0.000000 1.000000
vn 0.000000 0.000000 1.000000
vn 0.000000 0.000000 1.000000
vn -1.000000 0.000000 0.000000
vn -1.000000 0.000000 0.000000
vn -1.000000 0.000000 0.000000
vn -1.000000 0.000000 0.000000
vn 0.000000 -1.000000 0.000000
vn 0.000000 -1.000000 0.000000
vn 0.000000 -1.000000 0.000000
vn 0.000000 -1.000000 0.000000
vn 1.000000 0.000000 0.000000
vn 1.000000 0.000000 0.000000
vn 1.000000 0.000000 0.000000
vn 1.000000 0.000000 0.000000
vn 0.000000 1.000000 0.000000
vn 0.000000 1.000000 0.000000
vn 0.000000 1.000000 0.000000
vn 0.000000 1.000000 0.000000
vn 0.000000 0.000000 1.000000
vn 0.000000 0.000000 1.000000
vn 0.000000 0.000000 1.000000
vn 0.000000 0.000000 1.000000
vn 1.000000 0.000000 0.000000
vn 1.000000 0.000000 0.000000
vn 1.000000 0.000000 0.000000
vn 1.000000 0.000000 0.000000
vn 0.000000 1.000000 0.000000
vn 0.000000 1.000000 0.000000
vn 0.000000 1.000000 0.000000
vn 0.000000 1.000000 0.000000
vn -1.000000 0.000000 0.000000
vn -1.000000 0.000000 0.000000
vn -1.000000 0.000000 0.000000
vn -1.000000 0.000000 0.000000
vn 0.000000 -1.000000 0.000000
vn 0.000000 -1.000000 0.000000
vn 0.000000 -1.000000 0.000000
vn 0.000000 -1.000000 0.000000
vn 0.369283 0.011482 -0.929246
vn 0.369283 0.011482 -0.929246
vn 0.369283 0.011482 -0.929246
vn 0.369283 0.011482 -0.929246
vn -0.876422 0.020299 -0.481116
vn -0.876422 0.020299 -0.481116
vn -0.876422 0.020299 -0.481116
vn -0.876422 0.020299 -0.481116
vn -0.879382 0.002639 0.476111
vn -0.879381 0.002639 0.476111
vn -0.879381 0.002639 0.476111
vn -0.879381 0.002639 0.476111
vn 0.589898 -0.024399 0.807109
vn 0.589898 -0.024399 0.807109
vn 0.589898 -0.024399 0.807109
vn 0.589898 -0.024399 0.807109
vn 0.999907 -0.013643 -0.000340
vn 0.999907 -0.013643 -0.000340
vn 0.999907 -0.013643 -0.000340
vn 0.999907 -0.013643 -0.000340
vn 0.318646 0.009038 -0.947831
vn 0.318646 0.009038 -0.947831
vn 0.318646 0.009038 -0.947831
vn 0.318645 0.009038 -0.947831
vn -0.831860 0.017348 -0.554714
vn -0.831860 0.017348 -0.554714
vn -0.831860 0.017348 -0.554714
vn -0.831860 0.017348 -0.554714
vn -0.842265 0.002190 0.539059
vn -0.842265 0.002190 0.539059
vn -0.842265 0.002190 0.539059
vn -0.842265 0.002190 0.539059
vn 0.525817 -0.018852 0.850389
vn 0.525817 -0.018852 0.850389
vn 0.525817 -0.018852 0.850389
vn 0.525817 -0.018852 0.850389
vn 0.999877 -0.012274 0.009754
vn 0.999877 -0.012274 0.009754
vn 0.999877 -0.012274 0.009754
vn 0.999877 -0.012274 0.009754
vn -0.000022 -0.000042 -1.000000
vn -0.000022 -0.000042 -1.000000
vn -0.000022 -0.000042 -1.000000
vn -0.000022 -0.000042 -1.000000
vn -0.000016 -0.707106 -0.707108
vn -0.000024 -0.710813 -0.703381
vn -0.000024 -0.710813 -0.703381
vn -0.000016 -0.707106 -0.707108
vn 0.000000 0.707107 0.707107
vn 0.000008 0.710814 0.703380
vn 0.000008 0.710814 0.703380
vn 0.000000 0.707107 0.707107
vn 1.000000 0.000000 -0.000004
vn 1.000000 0.000000 0.000000
vn 1.000000 0.000000 0.000000
vn 1.000000 0.000000 -0.000004
vn -1.000000 0.000000 0.000001
vn -1.000000 0.000000 -0.000000
vn -1.000000 0.000000 -0.000000
vn -1.000000 0.000000 0.000001
vn 1.000000 0.000000 -0.000000
vn 1.000000 0.000000 -0.000000
vn 1.000000 0.000000 -0.000000
vn 1.000000 0.000000 -0.000000
vn 0.000000 -1.000000 0.000000
vn 0.000000 -1.000000 0.000000
vn 0.000000 -1.000000 0.000000
vn 0.000000 -1.000000 0.000000
vn -1.000000 0.000000 0.000000
vn -1.000000 0.000000 0.000000
vn -1.000000 0.000000 0.000000
vn -1.000000 0.000000 0.000000
vn 0.000000 1.000000 0.000000
vn 0.000000 1.000000 0.000000
vn 0.000000 1.000000 0.000000
vn 0.000000 1.000000 0.000000
vn -0.000000 0.000000 -1.000000
vn -0.000000 0.000000 -1.000000
vn -0.000000 0.000000 -1.000000
vn -0.000000 0.000000 -1.000000
vn 0.000000 -0.707107 -0.707107
vn -0.000012 -0.715762 -0.698345
vn -0.000012 -0.715762 -0.698345
vn 0.000000 -0.707107 -0.707107
vn 0.000000 0.707107 0.707107
vn 0.000011 0.715762 0.698345
vn 0.000011 0.715762 0.698345
vn 0.000000 0.707107 0.707107
vn -1.000000 0.000000 0.000001
vn -1.000000 0.000000 0.000001
vn -1.000000 0.000000 0.000001
vn -1.000000 0.000000 0.000001
vn 1.000000 0.000000 -0.000004
vn 1.000000 0.000000 -0.000001
vn 1.000000 0.000000 -0.000001
vn 1.000000 0.000000 -0.000004
vn -1.000000 0.000000 0.000000
vn -1.000000 0.000000 0.000000
vn -1.000000 0.000000 0.000000
vn -1.000000 0.000000 0.000000
vn 0.000000 1.000000 0.000000
vn 0.000000 1.000000 0.000000
vn 0.000000 1.000000 0.000000
vn 0.000000 1.000000 0.000000
vn 1.000000 0.000000 -0.000000
vn 1.000000 0.000000 -0.000000
vn 1.000000 0.000000 -0.000000
vn 1.000000 0.000000 -0.000000
vn 0.000000 -1.000000 0.000000
vn 0.000000 -1.000000 0.000000
vn 0.000000 -1.000000 0.000000
vn 0.000000 -1.000000 0.000000
vn -0.000000 0.000000 -1.000000
vn -0.000000 0.000000 -1.000000
vn -0.000000 0.000000 -1.000000
vn -0.000000 0.000000 -1.000000
vn 0.000000 -0.707107 -0.707107
vn -0.000010 -0.715762 -0.698345
vn -0.000010 -0.715762 -0.698345
vn 0.000000 -0.707107 -0.707107
vn 1.000000 0.000000 -0.000002
vn 1.000000 0.000000 -0.000000
vn 1.000000 0.000000 -0.000000
vn 1.000000 0.000000 -0.000002
vn 0.000000 0.707107 0.707107
vn 0.000011 0.715762 0.698345
vn 0.000011 0.715762 0.698345
vn 0.000000 0.707107 0.707107
vn -1.000000 0.000000 0.000001
vn -1.000000 0.000000 0.000001
vn -1.000000 0.000000 0.000001
vn -1.000000 0.000000 0.000001
vn -1.000000 0.000000 0.000000
vn -1.000000 0.000000 0.000000
vn -1.000000 0.000000 0.000000
vn -1.000000 0.000000 0.000000
vn 0.000000 1.000000 0.000000
vn 0.000000 1.000000 0.000000
vn 0.000000 1.000000 0.000000
vn 0.000000 1.000000 0.000000
vn 1.000000 0.000000 -0.000000
vn 1.000000 0.000000 -0.000000
vn 1.000000 0.000000 -0.000000
vn 1.000000 0.000000 -0.000000
vn 0.000000 -1.000000 0.000000
vn 0.000000 -1.000000 0.000000
vn 0.000000 -1.000000 0.000000
vn 0.000000 -1.000000 0.000000
s off
f 4/1/1 3/2/2 5/3/3 6/4/4
f 9/5/5 4/1/6 6/4/7 10/6/8
f 2/7/9 9/5/10 10/6/11 8/8/12
f 1/9/13 2/7/14 8/8/15 7/10/16
f 5/3/17 3/2/18 1/9/19 7/10/20
f 14/11/21 13/12/22 15/13/23 16/14/24
f 19/15/25 14/11/26 16/14/27 20/16/28
f 12/17/29 19/15/30 20/16/31 18/18/32
f 11/19/33 12/17/34 18/18/35 17/20/36
f 15/13/37 13/12/38 11/19/39 17/20/40
f 31/21/41 25/22/42 26/23/43 32/24/44
f 27/25/45 35/26/46 34/27/47 28/28/48
f 32/24/49 26/23/50 30/29/51 33/30/52
f 27/25/53 25/22/54 31/21/55 35/26/56
f 33/30/57 30/29/58 28/28/59 34/27/60
f 23/31/61 31/21/62 32/24/63 24/32/64
f 29/33/65 24/32/66 32/24/67 33/30/68
f 22/34/69 29/33/70 33/30/71 34/27/72
f 35/26/73 21/35/74 22/34/75 34/27/76
f 31/21/77 23/31/78 21/35/79 35/26/80
f 40/36/81 41/37/82 42/38/83 43/39/84
f 36/40/85 38/41/86 41/37/87 40/36/88
f 38/41/89 39/42/90 42/38/91 41/37/92
f 39/42/93 37/43/94 43/39/95 42/38/96
f 37/43/97 36/40/98 40/36/99 43/39/100
f 48/44/101 49/45/102 50/46/103 51/47/104
f 44/48/105 46/49/106 49/45/107 48/44/108
f 46/49/109 47/50/110 50/46/111 49/45/112
f 47/50/113 45/51/114 51/47/115 50/46/116
f 45/51/117 44/48/118 48/44/119 51/47/120
f 56/52/121 57/53/122 58/54/123 59/55/124
f 52/56/125 54/57/126 57/53/127 56/52/128
f 54/57/129 55/58/130 58/54/131 57/53/132
f 55/58/133 53/59/134 59/55/135 58/54/136
f 53/59/137 52/56/138 56/52/139 59/55/140
f 62/60/141 65/61/142 66/62/143 63/63/144
f 64/64/145 63/63/146 66/62/147 67/65/148
f 61/66/149 64/64/150 67/65/151 68/67/152
f 69/68/153 60/69/154 61/66/155 68/67/156
f 65/61/157 62/60/158 60/69/159 69/68/160
f 72/70/161 75/71/162 76/72/163 73/73/164
f 74/74/165 73/73/166 76/72/167 77/75/168
f 71/76/169 74/74/170 77/75/171 78/77/172
f 79/78/173 70/79/174 71/76/175 78/77/176
f 75/71/177 72/70/178 70/79/179 79/78/180
f 84/80/181 85/81/182 86/82/183 87/83/184
f 53/59/185 83/84/186 82/85/187 52/56/188
f 54/57/189 80/86/190 81/87/191 55/58/192
f 52/56/193 82/85/194 80/86/195 54/57/196
f 55/58/197 81/87/198 83/84/199 53/59/200
f 80/86/201 82/85/202 85/81/203 84/80/204
f 82/85/205 83/84/206 86/82/207 85/81/208
f 83/84/209 81/87/210 87/83/211 86/82/212
f 81/87/213 80/86/214 84/80/215 87/83/216
f 92/88/217 93/89/218 94/90/219 95/91/220
f 46/49/221 88/92/222 89/93/223 47/50/224
f 45/51/225 91/94/226 90/95/227 44/48/228
f 44/48/229 90/95/230 88/92/231 46/49/232
f 47/50/233 89/93/234 91/94/235 45/51/236
f 88/92/237 90/95/238 93/89/239 92/88/240
f 90/95/241 91/94/242 94/90/243 93/89/244
f 91/94/245 89/93/246 95/91/247 94/90/248
f 89/93/249 88/92/250 92/88/251 95/91/252
f 100/96/253 101/97/254 102/98/255 103/99/256
f 38/41/257 96/100/258 97/101/259 39/42/260
f 39/42/261 97/101/262 99/102/263 37/43/264
f 37/43/265 99/102/266 98/103/267 36/40/268
f 36/40/269 98/103/270 96/100/271 38/41/272
f 96/100/273 98/103/274 101/97/275 100/96/276
f 98/103/277 99/102/278 102/98/279 101/97/280
f 99/102/281 97/101/282 103/99/283 102/98/284
f 97/101/285 96/100/286 100/96/287 103/99/288
