# This file uses centimeters as units for non-parametric coordinates.

v -0.006104 22.112808 -250.000000
v -0.006104 22.178841 0.000000
v -17.482910 -10.703735 -250.000000
v -17.482910 -10.703735 0.000000
v -19.989014 -9.544640 -41.644363
v -19.102173 -7.601624 -83.337250
v -20.172119 -10.259132 -125.001831
v -19.499512 -8.746681 -166.658081
v -19.086914 -7.513504 -208.333374
v -20.465698 -0.501556 -229.166565
v -21.417847 -2.767334 -184.762634
v -20.568237 -1.006813 -145.838318
v -21.442871 -2.791672 -104.171295
v -21.229248 -2.091637 -20.833359
v -21.163330 -2.790260 -250.000000
v -21.281738 5.859489 -229.166565
v -21.163330 -2.790260 -208.333374
v -21.163330 -2.790260 0.000000
v -22.702026 4.221687 -20.833359
v -21.159668 -2.741165 -83.389587
v -22.324829 5.520020 -62.500763
v -20.961914 -1.860733 -124.981003
v -22.695313 4.241982 -104.166946
v -20.246582 -0.505791 -166.637939
v -22.611694 4.616165 -145.838257
v -22.812500 3.836823 -183.057861
v -20.571289 -3.566628 -41.646347
v -21.215210 -11.471596 -81.965027
v -23.416138 -6.354561 -62.271118
v -26.691284 -0.898781 -62.500153
v -24.100952 -7.225037 -81.937485
v -21.845093 -12.853889 -43.018494
v -23.540649 -8.010597 -43.097458
v 18.012085 -10.703735 0.000000
v 18.012085 -10.703735 -250.000000
v 20.518799 -9.544640 -208.355652
v 19.631348 -7.601624 -166.662750
v 20.701294 -10.259132 -124.998169
v 20.029297 -8.746681 -83.341904
v 19.616699 -7.513504 -41.666718
v 20.994873 -0.501556 -20.833282
v 21.947021 -2.767334 -65.237350
v 21.098022 -1.006813 -104.161682
v 21.972656 -2.791672 -145.828705
v 21.758423 -2.091637 -229.166626
v 21.594238 -2.790260 -0.000076
v 21.712646 5.859489 -20.833282
v 21.594238 -2.790260 -41.666641
v 21.594238 -2.790260 -250.000000
v 23.132935 4.221687 -229.166626
v 21.590576 -2.741165 -166.610474
v 22.755737 5.520020 -187.499237
v 21.392212 -1.860733 -125.018997
v 23.126221 4.241982 -145.833130
v 20.677490 -0.505791 -83.362045
v 23.042603 4.616165 -104.161758
v 23.243408 3.836823 -66.942139
v 21.002197 -3.566628 -208.353516
v 21.594238 -11.468124 -167.844086
v 24.794312 -8.901443 -187.731079
v 28.106689 -2.662277 -187.499756
v 24.930420 -7.906876 -168.101501
v 21.870117 -12.694702 -207.172546
v 24.212036 -8.229637 -206.863861
v -3.157959 31.444702 -0.183182
v -3.385010 37.916183 -20.833359
v -3.070679 31.365776 -41.664810
v -3.329468 38.048210 -62.500076
v -3.157349 31.449699 -83.339081
v -3.383789 37.918243 -104.166718
v -3.128052 31.539230 -124.998093
v -3.371582 37.956314 -145.833893
v -3.023071 31.676979 -166.663818
v -3.400879 37.877045 -187.048340
v -3.157959 31.444702 -208.333374
v -3.175659 38.082733 -229.166809
v -3.157959 31.444702 -249.816895
v 3.145752 31.444588 -249.816895
v 3.372803 37.916069 -229.166626
v 3.058472 31.365662 -208.335327
v 3.317261 38.048096 -187.499939
v 3.145142 31.449585 -166.660828
v 3.371582 37.918129 -145.833191
v 3.116455 31.539116 -125.001907
v 3.359375 37.956200 -104.166107
v 3.010864 31.676903 -83.336182
v 3.388672 37.876968 -62.951660
v 3.145752 31.444626 -41.666641
v 3.163452 38.082619 -20.833282
v 3.145752 31.444588 -0.183105
v 1.696777 12.369690 -207.879272
v 1.696777 12.369690 -166.172119
v 0.206299 12.369690 -135.416718
v -1.284790 12.369690 -83.094864
v -1.657104 12.369690 -42.142258
vt 0.239109 0.300562
vt 0.238702 0.276351
vt 0.239027 0.289260
vt 0.239022 0.302673
vt 0.238931 0.302665
vt 0.238966 0.302644
vt 0.238573 0.277062
vt 0.238591 0.277062
vt 0.238635 0.269724
vt 0.238655 0.302558
vt 0.238700 0.302557
vt 0.238724 0.302558
vt 0.238771 0.277134
vt 0.238849 0.284883
vt 0.238798 0.277136
vt 0.238848 0.302635
vt 0.238879 0.289219
vt 0.238878 0.302638
vt 0.238701 0.289137
vt 0.238701 0.289161
vt 0.238771 0.302583
vt 0.238772 0.289163
vt 0.238700 0.302582
vt 0.238931 0.302640
vt 0.238932 0.287921
vt 0.238725 0.289138
vt 0.238966 0.289225
vt 0.238641 0.270420
vt 0.238641 0.295893
vt 0.238635 0.295198
vt 0.238932 0.287946
vt 0.238848 0.277161
vt 0.238849 0.259409
vt 0.238772 0.263714
vt 0.238581 0.263647
vt 0.238593 0.263641
vt 0.238799 0.261550
vt 0.238701 0.289161
vt 0.238657 0.287405
vt 0.238655 0.302558
vt 0.238700 0.302582
vt 0.238635 0.295198
vt 0.238641 0.295893
vt 0.239027 0.289260
vt 0.239022 0.302673
vt 0.239109 0.300562
vt 0.238966 0.289225
vt 0.238932 0.287921
vt 0.238931 0.302640
vt 0.238966 0.302644
vt 0.238702 0.276351
vt 0.238573 0.277062
vt 0.238581 0.263647
vt 0.238635 0.269724
vt 0.238593 0.263641
vt 0.238591 0.277062
vt 0.238641 0.270420
vt 0.238701 0.289161
vt 0.238657 0.287405
vt 0.238655 0.302558
vt 0.238700 0.302582
vt 0.238700 0.302582
vt 0.238655 0.302558
vt 0.238772 0.289163
vt 0.238725 0.289138
vt 0.238724 0.302558
vt 0.238771 0.302583
vt 0.238849 0.259409
vt 0.238799 0.261550
vt 0.238798 0.277136
vt 0.238848 0.277161
vt 0.238932 0.287946
vt 0.238879 0.289219
vt 0.238878 0.302638
vt 0.238931 0.302665
vt 0.238849 0.284883
vt 0.238848 0.302635
vt 0.238772 0.263714
vt 0.238771 0.277134
vt 0.238701 0.289137
vt 0.238700 0.302557
vt 0.238635 0.295198
vt 0.238641 0.295893
vt 0.238641 0.295893
vt 0.238701 0.289161
vt 0.238635 0.295198
vt 0.238635 0.263493
vt 0.238655 0.263491
vt 0.238699 0.262835
vt 0.238699 0.288308
vt 0.238721 0.288984
vt 0.238766 0.289006
vt 0.238766 0.288981
vt 0.238791 0.288980
vt 0.238839 0.289003
vt 0.238839 0.263554
vt 0.238868 0.263553
vt 0.238918 0.263577
vt 0.238918 0.289051
vt 0.238950 0.289051
vt 0.239003 0.289052
vt 0.239003 0.289077
vt 0.239040 0.289052
vt 0.239096 0.289080
vt 0.238635 0.263493
vt 0.238655 0.263491
vt 0.238699 0.262835
vt 0.238699 0.288308
vt 0.238721 0.288984
vt 0.238766 0.289006
vt 0.238766 0.288981
vt 0.238791 0.288980
vt 0.238839 0.289003
vt 0.238839 0.263554
vt 0.238868 0.263553
vt 0.238918 0.263577
vt 0.238918 0.289051
vt 0.238950 0.289051
vt 0.239003 0.289052
vt 0.239003 0.289077
vt 0.239040 0.289052
vt 0.239096 0.289080
vt 0.238621 0.284679
vt 0.238687 0.288568
vt 0.238749 0.276426
vt 0.238824 0.273216
vt 0.238914 0.288896
vt 0.238949 0.288573
vt 0.238635 0.287341
vt 0.238709 0.289145
vt 0.238786 0.262632
vt 0.238864 0.287051
vn -0.008520 0.007241 -0.999938
vn -0.008520 0.007241 -0.999938
vn -0.008520 0.007241 -0.999938
vn -0.008520 0.007241 -0.999938
vn -0.965853 -0.252040 -0.060032
vn -0.965853 -0.252040 -0.060032
vn -0.965853 -0.252040 -0.060032
vn -0.965853 -0.252040 -0.060032
vn -0.865059 0.470049 0.175290
vn -0.865059 0.470049 0.175290
vn -0.865059 0.470049 0.175290
vn -0.865059 0.470049 0.175290
vn -0.008564 0.007256 0.999937
vn -0.008564 0.007256 0.999937
vn -0.008564 0.007256 0.999937
vn -0.008564 0.007256 0.999937
vn -0.986121 -0.164878 -0.019489
vn -0.986121 -0.164878 -0.019489
vn -0.986121 -0.164878 -0.019489
vn -0.986121 -0.164878 -0.019489
vn -0.861621 0.462194 -0.209728
vn -0.861621 0.462194 -0.209728
vn -0.861621 0.462194 -0.209728
vn -0.861621 0.462194 -0.209728
vn -0.843497 -0.534510 0.053030
vn -0.843497 -0.534510 0.053030
vn -0.843497 -0.534510 0.053030
vn -0.843497 -0.534510 0.053030
vn -0.857365 0.475585 -0.196837
vn -0.857365 0.475585 -0.196837
vn -0.857365 0.475585 -0.196837
vn -0.857365 0.475585 -0.196837
vn -0.990953 -0.131093 -0.028768
vn -0.990953 -0.131093 -0.028768
vn -0.990953 -0.131093 -0.028768
vn -0.990953 -0.131093 -0.028768
vn -0.859934 0.476167 -0.183788
vn -0.859934 0.476167 -0.183788
vn -0.859934 0.476167 -0.183788
vn -0.859934 0.476167 -0.183788
vn -0.980150 -0.197256 -0.019909
vn -0.980150 -0.197256 -0.019909
vn -0.980150 -0.197256 -0.019909
vn -0.980150 -0.197256 -0.019909
vn -0.858455 0.477670 -0.186780
vn -0.858455 0.477670 -0.186780
vn -0.858455 0.477670 -0.186780
vn -0.858455 0.477670 -0.186780
vn -0.956492 -0.291587 -0.010045
vn -0.956492 -0.291587 -0.010045
vn -0.956492 -0.291587 -0.010045
vn -0.956492 -0.291587 -0.010045
vn -0.868817 0.466430 -0.166132
vn -0.868817 0.466430 -0.166132
vn -0.868817 0.466430 -0.166132
vn -0.868817 0.466430 -0.166132
vn -0.951794 -0.299814 0.064809
vn -0.951794 -0.299814 0.064809
vn -0.951794 -0.299814 0.064809
vn -0.951794 -0.299814 0.064809
vn -0.864718 0.470347 -0.176173
vn -0.864718 0.470347 -0.176173
vn -0.864718 0.470347 -0.176173
vn -0.864718 0.470347 -0.176173
vn -0.984971 -0.151699 0.082580
vn -0.984971 -0.151699 0.082580
vn -0.984971 -0.151699 0.082580
vn -0.984971 -0.151699 0.082580
vn -0.850817 0.483201 0.206464
vn -0.850817 0.483201 0.206464
vn -0.850817 0.483201 0.206464
vn -0.850817 0.483201 0.206464
vn -0.979850 -0.197955 -0.026599
vn -0.979850 -0.197955 -0.026599
vn -0.979850 -0.197955 -0.026599
vn -0.979850 -0.197955 -0.026599
vn -0.858818 0.477107 0.186549
vn -0.858818 0.477107 0.186549
vn -0.858818 0.477107 0.186549
vn -0.858818 0.477107 0.186549
vn -0.963315 -0.268019 0.013779
vn -0.963315 -0.268019 0.013779
vn -0.963315 -0.268019 0.013779
vn -0.963315 -0.268019 0.013779
vn -0.860493 0.472964 0.189362
vn -0.860493 0.472964 0.189362
vn -0.860493 0.472964 0.189362
vn -0.860493 0.472964 0.189362
vn -0.899236 -0.435303 -0.043437
vn -0.899236 -0.435303 -0.043437
vn -0.899236 -0.435303 -0.043437
vn -0.899236 -0.435303 -0.043437
vn -0.858528 0.464518 0.217144
vn -0.858528 0.464518 0.217144
vn -0.858528 0.464518 0.217144
vn -0.858528 0.464518 0.217144
vn -0.940188 -0.340553 -0.008445
vn -0.940188 -0.340553 -0.008445
vn -0.940188 -0.340553 -0.008445
vn -0.940188 -0.340553 -0.008445
vn -0.860179 0.473120 0.190392
vn -0.860179 0.473120 0.190392
vn -0.860179 0.473120 0.190392
vn -0.860179 0.473120 0.190392
vn -0.817479 0.513059 -0.261722
vn -0.817479 0.513059 -0.261722
vn -0.817479 0.513059 -0.261722
vn -0.817479 0.513059 -0.261722
vn -0.277144 -0.153016 -0.948566
vn -0.277144 -0.153016 -0.948566
vn -0.277144 -0.153016 -0.948566
vn -0.277144 -0.153016 -0.948566
vn -0.406437 -0.078744 0.910279
vn -0.406437 -0.078744 0.910279
vn -0.406437 -0.078744 0.910279
vn -0.406437 -0.078744 0.910279
vn -0.808274 0.505532 0.301879
vn -0.808274 0.505532 0.301879
vn -0.808274 0.505532 0.301879
vn -0.808274 0.505532 0.301879
vn 0.008484 0.007337 0.999937
vn 0.008484 0.007337 0.999937
vn 0.008484 0.007337 0.999937
vn 0.008484 0.007337 0.999937
vn 0.970276 -0.235938 0.053834
vn 0.970276 -0.235938 0.053834
vn 0.970276 -0.235938 0.053834
vn 0.970276 -0.235938 0.053834
vn 0.859711 0.478608 -0.178412
vn 0.859711 0.478608 -0.178412
vn 0.859711 0.478608 -0.178412
vn 0.859711 0.478608 -0.178412
vn 0.008438 0.007321 -0.999938
vn 0.008438 0.007321 -0.999938
vn 0.008438 0.007321 -0.999938
vn 0.008438 0.007321 -0.999938
vn 0.988450 -0.149415 0.025326
vn 0.988450 -0.149415 0.025326
vn 0.988450 -0.149415 0.025326
vn 0.988450 -0.149415 0.025326
vn 0.856483 0.470500 0.212286
vn 0.856483 0.470500 0.212286
vn 0.856484 0.470500 0.212286
vn 0.856484 0.470500 0.212286
vn 0.827358 -0.561216 0.022698
vn 0.827358 -0.561216 0.022698
vn 0.827358 -0.561216 0.022698
vn 0.827358 -0.561216 0.022698
vn 0.852022 0.483943 0.199642
vn 0.852022 0.483943 0.199642
vn 0.852022 0.483943 0.199642
vn 0.852022 0.483943 0.199642
vn 0.992399 -0.118560 0.032985
vn 0.992399 -0.118560 0.032985
vn 0.992399 -0.118560 0.032985
vn 0.992399 -0.118560 0.032985
vn 0.854738 0.484567 0.186057
vn 0.854738 0.484567 0.186057
vn 0.854738 0.484567 0.186057
vn 0.854738 0.484567 0.186057
vn 0.982674 -0.183741 0.024294
vn 0.982674 -0.183741 0.024294
vn 0.982674 -0.183741 0.024294
vn 0.982674 -0.183741 0.024294
vn 0.853171 0.486270 0.188790
vn 0.853171 0.486270 0.188790
vn 0.853170 0.486270 0.188790
vn 0.853170 0.486270 0.188790
vn 0.961148 -0.275673 0.014117
vn 0.961148 -0.275673 0.014117
vn 0.961148 -0.275673 0.014117
vn 0.961148 -0.275673 0.014117
vn 0.863856 0.474800 0.168278
vn 0.863856 0.474800 0.168278
vn 0.863856 0.474800 0.168278
vn 0.863856 0.474800 0.168278
vn 0.955826 -0.287925 -0.059130
vn 0.955826 -0.287925 -0.059130
vn 0.955826 -0.287925 -0.059130
vn 0.955826 -0.287925 -0.059130
vn 0.859359 0.478906 0.179310
vn 0.859359 0.478906 0.179310
vn 0.859359 0.478906 0.179310
vn 0.859359 0.478906 0.179310
vn 0.986472 -0.139268 -0.086474
vn 0.986472 -0.139268 -0.086474
vn 0.986472 -0.139268 -0.086474
vn 0.986472 -0.139268 -0.086474
vn 0.845459 0.491674 -0.208463
vn 0.845459 0.491674 -0.208463
vn 0.845459 0.491674 -0.208463
vn 0.845459 0.491674 -0.208463
vn 0.982570 -0.184655 0.021419
vn 0.982570 -0.184655 0.021419
vn 0.982570 -0.184655 0.021419
vn 0.982570 -0.184655 0.021419
vn 0.853574 0.485515 -0.188912
vn 0.853574 0.485515 -0.188912
vn 0.853574 0.485515 -0.188912
vn 0.853573 0.485515 -0.188912
vn 0.967273 -0.253070 -0.018399
vn 0.967273 -0.253070 -0.018399
vn 0.967273 -0.253070 -0.018399
vn 0.967273 -0.253070 -0.018399
vn 0.855315 0.481286 -0.191834
vn 0.855315 0.481286 -0.191834
vn 0.855315 0.481286 -0.191834
vn 0.855315 0.481286 -0.191834
vn 0.884292 -0.464928 -0.043237
vn 0.884292 -0.464928 -0.043237
vn 0.884292 -0.464928 -0.043237
vn 0.884292 -0.464928 -0.043237
vn 0.853221 0.472858 -0.220042
vn 0.853222 0.472858 -0.220042
vn 0.853221 0.472858 -0.220042
vn 0.853221 0.472858 -0.220042
vn 0.944322 -0.329005 0.003591
vn 0.944322 -0.329005 0.003591
vn 0.944322 -0.329005 0.003591
vn 0.944322 -0.329005 0.003591
vn 0.854997 0.481436 -0.192874
vn 0.854997 0.481436 -0.192874
vn 0.854997 0.481436 -0.192874
vn 0.854997 0.481436 -0.192874
vn 0.822499 0.506640 0.258480
vn 0.822499 0.506640 0.258480
vn 0.822499 0.506640 0.258480
vn 0.822499 0.506640 0.258480
vn 0.252349 -0.135331 0.958126
vn 0.252349 -0.135331 0.958126
vn 0.252349 -0.135331 0.958126
vn 0.252349 -0.135331 0.958126
vn 0.397801 -0.080420 -0.913940
vn 0.397801 -0.080420 -0.913940
vn 0.397801 -0.080420 -0.913940
vn 0.397801 -0.080420 -0.913940
vn 0.809940 0.505259 -0.297843
vn 0.809940 0.505259 -0.297843
vn 0.809940 0.505259 -0.297843
vn 0.809940 0.505259 -0.297843
vn 0.000000 0.019618 -0.999808
vn 0.000000 0.019618 -0.999808
vn 0.000000 0.019618 -0.999808
vn 0.012372 0.953045 -0.302577
vn 0.012372 0.953045 -0.302577
vn 0.012372 0.953045 -0.302577
vn 0.012372 0.953045 -0.302577
vn 0.018388 0.953179 0.301847
vn 0.018388 0.953179 0.301847
vn 0.018388 0.953179 0.301847
vn 0.018388 0.953179 0.301847
vn -0.017214 0.954649 -0.297237
vn -0.017214 0.954649 -0.297237
vn -0.017214 0.954649 -0.297237
vn -0.017214 0.954649 -0.297237
vn 0.014494 0.954951 0.296408
vn 0.014494 0.954951 0.296408
vn 0.014494 0.954951 0.296409
vn 0.014494 0.954951 0.296408
vn 0.019749 0.956058 -0.292511
vn 0.019749 0.956058 -0.292511
vn 0.019749 0.956058 -0.292511
vn 0.019749 0.956058 -0.292511
vn 0.002889 0.955933 0.293571
vn 0.002889 0.955933 0.293571
vn 0.002889 0.955933 0.293571
vn 0.002889 0.955933 0.293571
vn -0.002858 0.955933 -0.293570
vn -0.002858 0.955933 -0.293570
vn -0.002858 0.955933 -0.293570
vn -0.002858 0.955933 -0.293570
vn -0.019714 0.956059 0.292511
vn -0.019714 0.956059 0.292511
vn -0.019714 0.956059 0.292511
vn -0.019714 0.956059 0.292511
vn -0.014468 0.954951 -0.296409
vn -0.014468 0.954951 -0.296409
vn -0.014468 0.954951 -0.296409
vn -0.014468 0.954951 -0.296409
vn 0.017239 0.954648 0.297237
vn 0.017239 0.954648 0.297237
vn 0.017239 0.954648 0.297237
vn 0.017239 0.954648 0.297237
vn -0.018358 0.953180 -0.301846
vn -0.018358 0.953180 -0.301846
vn -0.018358 0.953180 -0.301846
vn -0.018358 0.953180 -0.301846
vn -0.012337 0.953045 0.302577
vn -0.012337 0.953045 0.302577
vn -0.012337 0.953045 0.302577
vn -0.012337 0.953045 0.302577
vn -0.000012 0.019762 0.999805
vn -0.000012 0.019762 0.999805
vn -0.000012 0.019762 0.999805
vn -0.765444 -0.641171 0.054737
vn -0.765444 -0.641171 0.054737
vn -0.765444 -0.641171 0.054737
vn -0.765444 -0.641171 0.054737
vn -0.733850 -0.624486 -0.267359
vn -0.733850 -0.624486 -0.267359
vn -0.733850 -0.624486 -0.267359
vn -0.590425 -0.493221 -0.638851
vn -0.590425 -0.493221 -0.638851
vn -0.590425 -0.493221 -0.638851
vn -0.711071 -0.698852 0.077356
vn -0.711071 -0.698852 0.077356
vn -0.711071 -0.698852 0.077356
vn -0.711071 -0.698852 0.077356
vn -0.758800 -0.619202 -0.202017
vn -0.758800 -0.619202 -0.202017
vn -0.758800 -0.619202 -0.202017
vn -0.513048 -0.478237 0.712791
vn -0.513048 -0.478237 0.712791
vn -0.513048 -0.478237 0.712791
vn -0.647900 -0.757375 0.081299
vn -0.647900 -0.757375 0.081299
vn -0.647900 -0.757375 0.081299
vn -0.647900 -0.757375 0.081299
vn -0.637031 -0.712453 -0.294285
vn -0.637031 -0.712453 -0.294285
vn -0.637031 -0.712453 -0.294285
vn -0.627575 -0.773517 0.088439
vn -0.627575 -0.773517 0.088439
vn -0.627575 -0.773517 0.088439
vn -0.627575 -0.773517 0.088439
vn -0.675861 -0.678832 -0.287053
vn -0.675861 -0.678831 -0.287053
vn -0.675861 -0.678832 -0.287053
vn -0.594321 -0.798430 0.096391
vn -0.594321 -0.798430 0.096391
vn -0.594321 -0.798430 0.096391
vn -0.594321 -0.798430 0.096391
vn -0.665082 -0.716621 -0.210052
vn -0.665082 -0.716620 -0.210052
vn -0.665082 -0.716620 -0.210052
vn -0.659088 -0.698519 0.278702
vn -0.659088 -0.698519 0.278702
vn -0.659088 -0.698519 0.278702
vn -0.742645 -0.669390 -0.019883
vn -0.742645 -0.669390 -0.019883
vn -0.742645 -0.669390 -0.019883
vn -0.742645 -0.669390 -0.019883
vn 0.750534 -0.660527 0.020075
vn 0.750534 -0.660527 0.020075
vn 0.750534 -0.660527 0.020075
vn 0.750534 -0.660527 0.020075
vn 0.774336 -0.630433 -0.054381
vn 0.774336 -0.630433 -0.054381
vn 0.774336 -0.630433 -0.054381
vn 0.774337 -0.630433 -0.054381
vn 0.742631 -0.615219 0.264584
vn 0.742631 -0.615219 0.264584
vn 0.742631 -0.615219 0.264584
vn 0.694680 -0.571183 0.437229
vn 0.694680 -0.571183 0.437229
vn 0.694680 -0.571183 0.437229
vn 0.757599 -0.597202 -0.263426
vn 0.757599 -0.597202 -0.263426
vn 0.757599 -0.597202 -0.263426
vn 0.691195 -0.717064 0.089830
vn 0.691195 -0.717064 0.089830
vn 0.691195 -0.717064 0.089830
vn 0.691195 -0.717064 0.089830
vn 0.612386 -0.539326 -0.578024
vn 0.612386 -0.539326 -0.578024
vn 0.612386 -0.539326 -0.578024
vn 0.727425 -0.646169 -0.230907
vn 0.727425 -0.646169 -0.230907
vn 0.727425 -0.646169 -0.230907
vn 0.664131 -0.740804 0.100696
vn 0.664131 -0.740804 0.100696
vn 0.664131 -0.740804 0.100696
vn 0.664131 -0.740804 0.100696
vn 0.622169 -0.711058 -0.327569
vn 0.622169 -0.711058 -0.327569
vn 0.622169 -0.711058 -0.327569
vn 0.604830 -0.782584 0.147454
vn 0.604830 -0.782584 0.147454
vn 0.604830 -0.782584 0.147454
vn 0.604830 -0.782584 0.147454
vn 0.677887 -0.673679 -0.294322
vn 0.677887 -0.673679 -0.294322
vn 0.677887 -0.673679 -0.294322
vn 0.600413 -0.795749 0.079296
vn 0.600413 -0.795749 0.079296
vn 0.600413 -0.795749 0.079296
vn 0.600413 -0.795749 0.079296
vn 0.667411 -0.691315 -0.276851
vn 0.667411 -0.691315 -0.276851
vn 0.667411 -0.691315 -0.276851
s off
f 77/104/1 1/1/2 3/3/3 15/4/4
f 10/27/5 9/25/6 17/24/7 16/6/8
f 75/101/9 76/103/10 16/6/11 17/24/12
f 2/2/13 65/87/14 18/7/15 4/35/16
f 5/9/17 14/36/18 19/8/19 27/28/20
f 19/8/21 66/88/22 67/89/23 27/28/24
f 28/38/25 29/39/26 30/40/27 31/41/28
f 68/91/29 69/92/30 20/23/31 21/10/32
f 7/22/33 13/26/34 23/12/35 22/21/36
f 70/94/37 71/95/38 22/21/39 23/12/40
f 8/33/41 12/37/42 25/15/43 24/32/44
f 72/97/45 73/98/46 24/32/47 25/15/48
f 9/31/49 11/17/50 26/18/51 17/5/52
f 74/100/53 75/102/54 17/5/55 26/18/56
f 3/3/57 10/27/58 16/6/59 15/4/60
f 16/6/61 76/103/62 77/104/63 15/4/64
f 11/17/65 8/14/66 24/16/67 26/18/68
f 24/16/69 73/99/70 74/100/71 26/18/72
f 12/37/73 7/34/74 22/13/75 25/15/76
f 22/13/77 71/96/78 72/97/79 25/15/80
f 13/26/81 6/19/82 20/11/83 23/12/84
f 20/11/85 69/93/86 70/94/87 23/12/88
f 30/40/89 29/39/90 32/42/91 33/43/92
f 67/90/93 68/91/94 21/10/95 27/29/96
f 14/36/97 4/35/98 18/7/99 19/8/100
f 18/7/101 65/87/102 66/88/103 19/8/104
f 21/10/105 20/23/106 31/41/107 30/40/108
f 20/23/109 6/20/110 28/38/111 31/41/112
f 5/30/113 27/29/114 33/43/115 32/42/116
f 27/29/117 21/10/118 30/40/119 33/43/120
f 90/122/121 2/46/122 34/44/123 46/45/124
f 41/47/125 40/48/126 48/49/127 47/50/128
f 88/119/129 89/121/130 47/50/131 48/49/132
f 1/51/133 78/105/134 49/52/135 35/53/136
f 36/54/137 45/55/138 50/56/139 58/57/140
f 50/56/141 79/106/142 80/107/143 58/57/144
f 59/58/145 60/59/146 61/60/147 62/61/148
f 81/109/149 82/110/150 51/62/151 52/63/152
f 38/64/153 44/65/154 54/66/155 53/67/156
f 83/112/157 84/113/158 53/67/159 54/66/160
f 39/68/161 43/69/162 56/70/163 55/71/164
f 85/115/165 86/116/166 55/71/167 56/70/168
f 40/72/169 42/73/170 57/74/171 48/75/172
f 87/118/173 88/120/174 48/75/175 57/74/176
f 34/44/177 41/47/178 47/50/179 46/45/180
f 47/50/181 89/121/182 90/122/183 46/45/184
f 42/73/185 39/76/186 55/77/187 57/74/188
f 55/77/189 86/117/190 87/118/191 57/74/192
f 43/69/193 38/78/194 53/79/195 56/70/196
f 53/79/197 84/114/198 85/115/199 56/70/200
f 44/65/201 37/80/202 51/81/203 54/66/204
f 51/81/205 82/111/206 83/112/207 54/66/208
f 61/60/209 60/59/210 63/82/211 64/83/212
f 80/108/213 81/109/214 52/63/215 58/84/216
f 45/55/217 35/53/218 49/52/219 50/56/220
f 49/52/221 78/105/222 79/106/223 50/56/224
f 52/63/225 51/62/226 62/61/227 61/60/228
f 51/62/229 37/85/230 59/58/231 62/61/232
f 36/86/233 58/84/234 64/83/235 63/82/236
f 58/84/237 52/63/238 61/60/239 64/83/240
f 77/104/241 78/105/242 1/1/243
f 76/103/244 79/106/245 78/105/246 77/104/247
f 80/107/248 79/106/249 76/103/250 75/101/251
f 74/100/252 81/109/253 80/108/254 75/102/255
f 73/99/256 82/110/257 81/109/258 74/100/259
f 72/97/260 83/112/261 82/111/262 73/98/263
f 71/96/264 84/113/265 83/112/266 72/97/267
f 70/94/268 85/115/269 84/114/270 71/95/271
f 69/93/272 86/116/273 85/115/274 70/94/275
f 68/91/276 87/118/277 86/117/278 69/92/279
f 67/90/280 88/120/281 87/118/282 68/91/283
f 89/121/284 88/119/285 67/89/286 66/88/287
f 65/87/288 90/122/289 89/121/290 66/88/291
f 2/46/292 90/122/293 65/87/294
f 35/53/295 45/55/296 91/123/297 1/51/298
f 45/55/299 36/86/300 91/123/301
f 36/86/302 63/82/303 91/123/304
f 63/82/305 60/59/306 92/124/307 91/123/308
f 60/59/309 59/58/310 92/124/311
f 59/58/312 37/80/313 92/124/314
f 37/80/315 44/65/316 93/125/317 92/124/318
f 44/65/319 38/78/320 93/125/321
f 38/78/322 43/69/323 94/126/324 93/125/325
f 43/69/326 39/76/327 94/126/328
f 39/76/329 42/73/330 95/127/331 94/126/332
f 42/73/333 40/48/334 95/127/335
f 40/48/336 41/47/337 95/127/338
f 41/47/339 34/44/340 2/2/341 95/127/342
f 10/27/343 3/3/344 1/51/345 91/128/346
f 4/35/347 14/36/348 95/129/349 2/2/350
f 14/36/351 5/30/352 95/129/353
f 5/30/354 32/42/355 95/129/356
f 32/42/357 29/39/358 95/129/359
f 29/39/360 28/38/361 94/130/362 95/129/363
f 28/38/364 6/19/365 94/130/366
f 6/19/367 13/26/368 94/130/369
f 13/26/370 7/34/371 93/131/372 94/130/373
f 7/34/374 12/37/375 93/131/376
f 12/37/377 8/14/378 92/132/379 93/131/380
f 8/14/381 11/17/382 92/132/383
f 11/17/384 9/25/385 91/128/386 92/132/387
f 9/25/388 10/27/389 91/128/390
