# This file uses centimeters as units for non-parametric coordinates.

v 0.000000 -25.000000 0.000000
v 0.000000 -25.000000 -500.000000
v 500.000000 -25.000000 0.000000
v 500.000000 -25.000000 -500.000000
v 500.000000 3.480469 0.000000
v 500.000000 3.480469 -500.000000
v 0.000000 3.480469 0.000000
v 0.000000 3.480469 -500.000000
v 0.000000 -25.000000 -250.000000
v 0.000000 3.480469 -250.000000
v 500.000000 3.480469 -250.000000
v 500.000000 -25.000000 -250.000000
v 28.157593 3.480469 -161.302734
v 471.842407 3.480469 -161.302734
v 28.157593 3.480469 -28.539063
v 471.842407 3.480469 -28.539063
v 471.842407 -25.000000 -161.302734
v 28.157593 -25.000000 -161.302734
v 471.842407 -25.000000 -28.539063
v 28.157593 -25.000000 -28.539063
vt 0.006855 1.009778
vt 0.990072 1.009778
vt 0.990072 1.992996
vt 0.006855 1.992996
vt 0.990072 1.992996
vt 0.006855 1.992996
vt 0.990072 1.009778
vt 0.006855 1.009778
vt 0.871407 1.009569
vt 0.988672 1.009569
vt 0.988672 1.992421
vt 0.871407 1.992421
vt 0.988672 1.009569
vt 0.871407 1.009569
vt 0.871407 1.992421
vt 0.988672 1.992421
vt 0.007011 1.231265
vt 0.988485 1.231265
vt 0.988485 1.356378
vt 0.007011 1.356378
vt 0.007011 1.356378
vt 0.988485 1.356378
vt 0.988485 1.231265
vt 0.007011 1.231265
vt 0.498463 1.009778
vt 0.497748 1.231265
vt 0.497748 1.356378
vt 0.498463 1.009778
vt 0.498463 1.992996
vt 0.497748 1.356378
vt 0.497748 1.231265
vt 0.498463 1.992996
vt 0.400261 1.064852
vt 0.400261 1.937922
vt 0.106065 1.064852
vt 0.106065 1.937922
vt 0.400261 1.937922
vt 0.400261 1.064852
vt 0.106065 1.937922
vt 0.106065 1.064852
vt 0.400261 1.937922
vt 0.106065 1.937922
vt 0.106065 1.064852
vt 0.400261 1.064852
vn 0.000000 -1.000000 0.000000
vn 0.000000 -1.000000 0.000000
vn 0.000000 -1.000000 0.000000
vn 0.000000 -1.000000 0.000000
vn 1.000000 0.000000 0.000000
vn 1.000000 0.000000 0.000000
vn 1.000000 0.000000 0.000000
vn 1.000000 0.000000 0.000000
vn 0.000000 1.000000 0.000000
vn 0.000000 1.000000 0.000000
vn 0.000000 1.000000 0.000000
vn 0.000000 1.000000 0.000000
vn -1.000000 0.000000 0.000000
vn -1.000000 0.000000 0.000000
vn -1.000000 0.000000 0.000000
vn -1.000000 0.000000 0.000000
vn 0.000000 0.000000 -1.000000
vn 0.000000 0.000000 -1.000000
vn 0.000000 0.000000 -1.000000
vn 0.000000 0.000000 -1.000000
vn 0.000000 0.000000 1.000000
vn 0.000000 0.000000 1.000000
vn 0.000000 0.000000 1.000000
vn 0.000000 0.000000 1.000000
vn -1.000000 0.000000 0.000000
vn -1.000000 0.000000 0.000000
vn -1.000000 0.000000 0.000000
vn -1.000000 0.000000 0.000000
vn 0.000000 1.000000 0.000000
vn 0.000000 1.000000 0.000000
vn 0.000000 1.000000 0.000000
vn 0.000000 1.000000 0.000000
vn 1.000000 0.000000 0.000000
vn 1.000000 0.000000 0.000000
vn 1.000000 0.000000 0.000000
vn 1.000000 0.000000 0.000000
vn 0.000000 -1.000000 -0.000000
vn 0.000000 -1.000000 0.000000
vn 0.000000 -1.000000 0.000000
vn 0.000000 -1.000000 -0.000000
vn 0.000000 1.000000 -0.000000
vn 0.000000 1.000000 0.000000
vn 0.000000 1.000000 0.000000
vn 0.000000 1.000000 -0.000000
vn 0.000000 1.000000 -0.000000
vn 0.000000 1.000000 0.000000
vn 0.000000 1.000000 0.000000
vn 0.000000 1.000000 -0.000000
vn 0.000000 1.000000 -0.000000
vn 0.000000 1.000000 -0.000000
vn 0.000000 1.000000 -0.000000
vn 0.000000 1.000000 -0.000000
vn 0.000000 -1.000000 -0.000000
vn 0.000000 -1.000000 0.000000
vn 0.000000 -1.000000 0.000000
vn 0.000000 -1.000000 -0.000000
vn 0.000000 -1.000000 0.000000
vn 0.000000 -1.000000 0.000000
vn 0.000000 -1.000000 0.000000
vn 0.000000 -1.000000 0.000000
vn 0.000000 -1.000000 -0.000000
vn 0.000000 -1.000000 -0.000000
vn 0.000000 -1.000000 -0.000000
vn 0.000000 -1.000000 -0.000000
vn -1.000000 0.000000 0.000000
vn -1.000000 0.000000 0.000000
vn -1.000000 0.000000 0.000000
vn -1.000000 0.000000 0.000000
vn 0.000000 0.000000 -1.000000
vn 0.000000 0.000000 -1.000000
vn 0.000000 0.000000 -1.000000
vn 0.000000 0.000000 -1.000000
vn 1.000000 0.000000 0.000000
vn 1.000000 0.000000 0.000000
vn 1.000000 0.000000 0.000000
vn 1.000000 0.000000 0.000000
vn 0.000000 0.000000 1.000000
vn 0.000000 0.000000 1.000000
vn 0.000000 0.000000 1.000000
vn 0.000000 0.000000 1.000000
s off
f 12/32/1 9/25/2 2/2/3 4/3/4
f 11/30/5 12/31/6 4/18/7 6/19/8
f 10/28/9 11/29/10 6/5/11 8/7/12
f 9/26/13 10/27/14 8/22/15 2/23/16
f 2/9/17 8/10/18 6/11/19 4/12/20
f 7/13/21 1/14/22 3/15/23 5/16/24
f 10/27/25 9/26/26 1/24/27 7/21/28
f 10/28/29 13/33/30 14/34/31 11/29/32
f 12/31/33 11/30/34 5/20/35 3/17/36
f 1/1/37 9/25/38 18/38/39 20/40/40
f 15/35/41 13/33/42 10/28/43 7/8/44
f 5/6/45 11/29/46 14/34/47 16/36/48
f 5/6/49 16/36/50 15/35/51 7/8/52
f 19/39/53 17/37/54 12/32/55 3/4/56
f 12/32/57 17/37/58 18/38/59 9/25/60
f 1/1/61 20/40/62 19/39/63 3/4/64
f 17/37/65 19/39/66 16/42/67 14/41/68
f 19/39/69 20/40/70 15/43/71 16/42/72
f 20/40/73 18/38/74 13/44/75 15/43/76
f 18/38/77 17/37/78 14/41/79 13/44/80
