# This file uses centimeters as units for non-parametric coordinates.

v 0.000000 0.000000 0.000000
v 0.000000 39.715942 0.000000
v -500.000000 39.715942 0.000000
v -500.000000 0.000000 0.000000
v 0.003906 273.696533 -457.500000
v -499.996094 273.696533 -457.500000
v 0.000000 0.000000 -25.000000
v -500.000000 0.000000 -25.000000
v 0.000000 220.812866 -500.000000
v -500.000000 220.812866 -500.000000
v 0.000000 273.696533 -500.000000
v -500.000000 273.696533 -500.000000
v -385.927734 7.391510 -49.187500
v -364.072266 7.391510 -49.187500
v -385.927734 41.666504 -17.773438
v -364.072266 41.666504 -17.773438
v -385.927734 234.290649 -430.824219
v -364.072266 234.290649 -430.824219
v -385.927734 200.015747 -499.996094
v -364.072266 200.015747 -499.996094
v -385.927734 234.290649 -499.431641
v -364.072266 234.290649 -499.431641
v -135.927734 7.391510 -49.187500
v -114.072266 7.391510 -49.187500
v -135.927734 41.666504 -17.773438
v -114.072266 41.666504 -17.773438
v -135.927734 234.290649 -430.824219
v -114.072266 234.290649 -430.824219
v -135.927734 200.015747 -499.996094
v -114.072266 200.015747 -499.996094
v -135.927734 234.290649 -499.431641
v -114.072266 234.290649 -499.431641
vt 1.000000 0.859282
vt 0.261506 0.761395
vt 0.261565 0.761403
vt 0.000000 0.859282
vt 0.261280 0.761655
vt 0.261201 0.761638
vt 1.000000 0.000000
vt 0.000000 0.000000
vt 0.487515 0.152208
vt 0.488133 0.151681
vt 0.488515 0.151941
vt 0.487999 0.152301
vt 0.260571 0.761881
vt 0.260973 0.761625
vt 0.260972 0.761583
vt 0.260565 0.761829
vt 0.260997 0.761631
vt 0.260600 0.761891
vt 0.261557 0.761475
vt 0.261276 0.761753
vt 0.487464 0.178879
vt 0.487486 0.178870
vt 0.487485 0.178930
vt 0.487463 0.178938
vt 0.488039 0.179721
vt 0.488016 0.179720
vt 0.487587 0.178897
vt 0.488070 0.179669
vt 0.488046 0.179668
vt 0.487565 0.178906
vt 0.487746 0.178752
vt 0.487775 0.178738
vt 0.487775 0.178809
vt 0.487745 0.178821
vt 0.488349 0.179738
vt 0.488319 0.179737
vt 0.487882 0.178776
vt 0.488378 0.179679
vt 0.488348 0.179678
vt 0.487852 0.178788
vn 0.000000 1.000000 0.000000
vn 0.000000 1.000000 0.000000
vn 0.000000 1.000000 0.000000
vn 0.000000 1.000000 0.000000
vn 0.000000 0.000000 1.000000
vn 0.000000 0.000000 1.000000
vn 0.000000 0.000000 1.000000
vn 0.000000 0.000000 1.000000
vn 0.000000 0.890319 0.455338
vn 0.000000 0.890319 0.455338
vn 0.000000 0.890319 0.455338
vn 0.000000 0.890319 0.455338
vn 1.000000 0.000000 0.000000
vn 1.000000 0.000000 0.000000
vn 1.000000 0.000000 0.000000
vn -1.000000 0.000000 0.000000
vn -1.000000 0.000000 0.000000
vn -1.000000 0.000000 0.000000
vn 0.000000 -1.000000 0.000000
vn 0.000000 -1.000000 0.000000
vn 0.000000 -1.000000 0.000000
vn 0.000000 -1.000000 0.000000
vn 1.000000 -0.000033 -0.000012
vn 1.000000 -0.000033 -0.000012
vn 1.000000 -0.000033 -0.000012
vn 1.000000 -0.000033 -0.000012
vn -1.000000 0.000033 0.000012
vn -1.000000 0.000033 0.000012
vn -1.000000 0.000033 0.000012
vn -1.000000 0.000033 0.000012
vn -1.000000 0.000000 0.000092
vn -1.000000 0.000000 0.000092
vn -1.000000 0.000000 0.000092
vn 0.000000 -0.906807 -0.421547
vn 0.000000 -0.906807 -0.421547
vn 0.000000 -0.906807 -0.421547
vn 0.000000 -0.906807 -0.421547
vn 1.000000 0.000000 -0.000092
vn 1.000000 0.000000 -0.000092
vn 1.000000 0.000000 -0.000092
vn 0.000000 0.000000 -1.000000
vn 0.000000 0.000000 -1.000000
vn 0.000000 0.000000 -1.000000
vn 0.000000 0.000000 -1.000000
vn 0.000000 0.016466 -0.999865
vn 0.000000 0.016466 -0.999865
vn 0.000000 0.016466 -0.999865
vn 0.000000 0.016466 -0.999865
vn 0.000000 -0.919573 -0.392920
vn 0.000000 -0.919573 -0.392920
vn 0.000000 -0.919573 -0.392920
vn 0.000000 -0.919573 -0.392920
vn 1.000000 -0.000000 0.000000
vn 1.000000 -0.000000 0.000000
vn 1.000000 -0.000000 0.000000
vn 1.000000 -0.000000 0.000000
vn 1.000000 -0.000000 0.000000
vn -1.000000 0.000001 0.000000
vn -1.000000 0.000001 0.000000
vn -1.000000 0.000001 0.000000
vn -1.000000 0.000001 0.000000
vn -1.000000 0.000001 0.000000
vn 0.000000 1.000000 0.000000
vn 0.000000 1.000000 0.000000
vn 0.000000 1.000000 0.000000
vn 0.000000 1.000000 0.000000
vn 0.000000 0.016466 -0.999865
vn 0.000000 0.016466 -0.999865
vn 0.000000 0.016466 -0.999865
vn 0.000000 0.016466 -0.999865
vn 0.000000 -0.919573 -0.392921
vn 0.000000 -0.919573 -0.392921
vn 0.000000 -0.919573 -0.392921
vn 0.000000 -0.919573 -0.392921
vn 1.000000 -0.000000 0.000000
vn 1.000000 -0.000000 0.000000
vn 1.000000 -0.000000 0.000000
vn 1.000000 -0.000000 0.000000
vn 1.000000 -0.000000 0.000000
vn -1.000000 -0.000000 0.000000
vn -1.000000 -0.000000 0.000000
vn -1.000000 -0.000000 0.000000
vn -1.000000 -0.000000 0.000000
vn -1.000000 -0.000000 0.000000
vn 0.000000 1.000000 0.000000
vn 0.000000 1.000000 0.000000
vn 0.000000 1.000000 0.000000
vn 0.000000 1.000000 0.000000
s off
f 5/2/1 11/3/2 12/5/3 6/6/4
f 4/13/5 1/14/6 2/15/7 3/16/8
f 3/8/9 2/7/10 5/1/11 6/4/12
f 2/15/13 1/14/14 7/17/15
f 4/13/16 3/16/17 8/18/18
f 1/14/19 4/13/20 8/18/21 7/17/22
f 5/2/23 2/15/24 7/17/25 9/19/26
f 3/16/27 6/6/28 10/20/29 8/18/30
f 6/6/31 12/5/32 10/20/33
f 8/9/34 10/10/35 9/11/36 7/12/37
f 9/19/38 11/3/39 5/2/40
f 9/19/41 10/20/42 12/5/43 11/3/44
f 21/21/45 22/22/46 20/23/47 19/24/48
f 19/24/49 20/23/50 14/25/51 13/26/52
f 14/25/53 20/23/54 22/22/55 18/27/56 16/28/57
f 19/24/58 13/26/59 15/29/60 17/30/61 21/21/62
f 17/30/63 18/27/64 22/22/65 21/21/66
f 31/31/67 32/32/68 30/33/69 29/34/70
f 29/34/71 30/33/72 24/35/73 23/36/74
f 24/35/75 30/33/76 32/32/77 28/37/78 26/38/79
f 29/34/80 23/36/81 25/39/82 27/40/83 31/31/84
f 27/40/85 28/37/86 32/32/87 31/31/88
