# This file uses centimeters as units for non-parametric coordinates.

v 0.000000 0.000000 0.000000
v 0.000000 0.000000 -50.000000
v 0.000000 49.290466 0.000000
v 0.000000 49.290466 -50.000000
v -500.000000 49.290466 -50.000000
v -500.000000 49.290466 0.000000
v -500.000000 0.000000 -50.000000
v -500.000000 0.000000 0.000000
v 0.000000 250.000000 -96.000000
v -500.000000 250.000000 -96.000000
v 0.000000 222.303284 -136.027344
v -500.001953 222.303284 -136.027344
v 0.000000 250.000000 -250.000000
v -500.000000 250.000000 -250.000000
v 0.000000 222.303284 -250.000000
v -500.001953 222.303284 -250.000000
v -384.318359 247.959534 -131.548828
v -366.566406 247.959534 -131.548828
v -384.318359 242.143127 -114.951172
v -366.566406 242.143127 -114.951172
v -133.433594 247.959534 -131.548828
v -115.681641 247.959534 -131.548828
v -133.433594 242.143127 -114.951172
v -115.681641 242.143127 -114.951172
v -115.681641 130.990784 -144.660156
v -115.681641 146.096252 -160.470703
v -133.433594 146.096252 -160.470703
v -133.433594 130.990784 -144.660156
v -366.566406 130.990784 -144.660156
v -366.566406 146.096252 -160.470703
v -384.318359 146.096252 -160.470703
v -384.318359 130.990784 -144.660156
v -385.927734 7.391510 -45.134766
v -364.072266 7.391510 -45.134766
v -385.927734 41.666504 -29.697266
v -364.072266 41.666504 -29.697266
v -385.927734 208.765747 -245.470703
v -364.072266 208.765747 -245.470703
v -385.927734 243.040710 -245.470703
v -364.072266 243.040710 -245.470703
v -135.927734 7.391510 -45.134766
v -114.072266 7.391510 -45.134766
v -135.927734 41.666504 -29.697266
v -114.072266 41.666504 -29.697266
v -135.927734 208.765747 -245.470703
v -114.072266 208.765747 -245.470703
v -135.927734 243.040710 -245.470703
v -114.072266 243.040710 -245.470703
vt 2.000115 0.098066
vt 2.000115 -0.000613
vt 0.999117 0.098066
vt 0.999117 -0.000613
vt 0.999117 0.499720
vt 2.000115 0.499720
vt 0.488634 0.157162
vt 0.488651 0.157229
vt 0.487725 0.157359
vt 0.487726 0.157292
vt 0.487698 0.156972
vt 0.488570 0.156834
vt 0.487651 0.156824
vt 0.488559 0.156675
vt 0.487464 0.178879
vt 0.487486 0.178870
vt 0.487485 0.178930
vt 0.487463 0.178938
vt 0.487651 0.179167
vt 0.487629 0.179173
vt 0.487661 0.179110
vt 0.487639 0.179116
vt 0.487746 0.178752
vt 0.487775 0.178738
vt 0.487775 0.178809
vt 0.487745 0.178821
vt 0.487947 0.179088
vt 0.487917 0.179096
vt 0.487956 0.179021
vt 0.487926 0.179030
vt 0.487464 0.178879
vt 0.487486 0.178870
vt 0.487485 0.178930
vt 0.487463 0.178938
vt 0.488039 0.179721
vt 0.488016 0.179720
vt 0.488070 0.179669
vt 0.488046 0.179668
vt 0.487746 0.178752
vt 0.487775 0.178738
vt 0.487775 0.178809
vt 0.487745 0.178821
vt 0.488349 0.179738
vt 0.488319 0.179737
vt 0.488378 0.179679
vt 0.488348 0.179678
vt 0.020892 0.043310
vt 0.020243 0.043310
vt 0.020243 0.042652
vt 0.020892 0.042652
vt 0.023533 0.043915
vt 0.023169 0.044442
vt 0.023533 0.045942
vt 0.023169 0.045942
vt 0.021605 0.048603
vt 0.021605 0.049261
vt 0.020957 0.049261
vt 0.020957 0.048603
vt 0.023882 0.047471
vt 0.024247 0.047998
vt 0.023882 0.045971
vt 0.024247 0.045971
vt 0.017041 0.042652
vt 0.017699 0.042652
vt 0.017699 0.049232
vt 0.017041 0.049232
vt 0.018171 0.049232
vt 0.018171 0.042652
vt 0.020197 0.042652
vt 0.020197 0.049232
vt 0.017748 0.049232
vt 0.017748 0.042652
vt 0.018112 0.042652
vt 0.018112 0.049232
vn -1.000000 0.000004 0.000017
vn -1.000000 0.000000 0.000000
vn -1.000000 0.000000 0.000000
vn -1.000000 0.000004 0.000015
vn 1.000000 0.000000 0.000000
vn 1.000000 0.000000 0.000000
vn 1.000000 0.000000 0.000000
vn 1.000000 0.000000 0.000000
vn 0.000000 0.000000 1.000000
vn 0.000000 0.000000 1.000000
vn 0.000000 0.000000 1.000000
vn 0.000000 0.000000 1.000000
vn 0.000000 0.000000 -1.000000
vn 0.000000 0.000000 -1.000000
vn 0.000000 0.000000 -1.000000
vn 0.000000 0.000000 -1.000000
vn 0.000000 -1.000000 0.000000
vn 0.000000 -1.000000 0.000000
vn 0.000000 -1.000000 0.000000
vn 0.000000 -1.000000 0.000000
vn 1.000000 0.000000 0.000000
vn 1.000000 0.000000 0.000000
vn 1.000000 0.000000 0.000000
vn 1.000000 0.000000 0.000000
vn 0.000000 0.000000 -1.000000
vn 0.000000 0.000000 -1.000000
vn 0.000000 0.000000 -1.000000
vn 0.000000 0.000000 -1.000000
vn 0.000000 0.431487 0.902119
vn 0.000000 0.431487 0.902119
vn 0.000000 0.431487 0.902119
vn 0.000000 0.431487 0.902119
vn 0.000000 1.000000 0.000000
vn 0.000000 1.000000 0.000000
vn 0.000000 1.000000 0.000000
vn 0.000000 1.000000 0.000000
vn 0.000000 -0.445229 -0.895417
vn 0.000000 -0.445229 -0.895417
vn 0.000000 -0.445229 -0.895417
vn 0.000000 -0.445229 -0.895417
vn 0.000000 -1.000000 0.000000
vn 0.000000 -1.000000 0.000000
vn 0.000000 -1.000000 0.000000
vn 0.000000 -1.000000 0.000000
vn -1.000000 0.000014 0.000017
vn -1.000000 0.000071 0.000000
vn -1.000000 0.000071 0.000000
vn -1.000000 0.000029 0.000013
vn 1.000000 0.000000 0.000000
vn 1.000000 0.000000 0.000000
vn 1.000000 0.000000 0.000000
vn 1.000000 0.000000 0.000000
vn -1.000000 0.000014 0.000017
vn -1.000000 0.000029 0.000013
vn -1.000000 0.000004 0.000017
vn -1.000000 0.000004 0.000015
vn 0.000000 0.943730 0.330716
vn 0.000000 0.943730 0.330716
vn 0.000000 0.943730 0.330716
vn 0.000000 0.943730 0.330716
vn 0.000000 0.273132 -0.961976
vn 0.000000 0.273132 -0.961976
vn 0.000000 0.273132 -0.961976
vn 0.000000 0.273132 -0.961976
vn 1.000000 0.000000 0.000000
vn 1.000000 0.000000 0.000000
vn 1.000000 0.000000 0.000000
vn 1.000000 0.000000 0.000000
vn -1.000000 -0.000000 0.000000
vn -1.000000 -0.000000 0.000000
vn -1.000000 -0.000000 0.000000
vn -1.000000 -0.000000 0.000000
vn 0.000000 0.943730 0.330716
vn 0.000000 0.943730 0.330716
vn 0.000000 0.943730 0.330716
vn 0.000000 0.943730 0.330716
vn 0.000000 0.273132 -0.961976
vn 0.000000 0.273132 -0.961976
vn 0.000000 0.273132 -0.961976
vn 0.000000 0.273132 -0.961976
vn 1.000000 0.000000 0.000000
vn 1.000000 0.000000 0.000000
vn 1.000000 0.000000 0.000000
vn 1.000000 0.000000 0.000000
vn -1.000000 0.000000 0.000000
vn -1.000000 0.000000 0.000000
vn -1.000000 0.000000 0.000000
vn -1.000000 0.000000 0.000000
vn 0.000000 -0.258217 0.966087
vn 0.000000 -0.258217 0.966087
vn 0.000000 -0.258217 0.966087
vn 0.000000 -0.258217 0.966087
vn 0.000000 -0.258217 0.966087
vn 0.000000 -0.258217 0.966087
vn 0.000000 -0.258217 0.966087
vn 0.000000 -0.258217 0.966087
vn 0.000000 0.000000 -1.000000
vn 0.000000 0.000000 -1.000000
vn 0.000000 0.000000 -1.000000
vn 0.000000 0.000000 -1.000000
vn 0.000000 -0.705277 -0.708932
vn 0.000000 -0.705277 -0.708932
vn 0.000000 -0.705277 -0.708932
vn 0.000000 -0.705277 -0.708932
vn 1.000000 0.000000 0.000000
vn 1.000000 0.000000 0.000000
vn 1.000000 0.000000 0.000000
vn 1.000000 0.000000 0.000000
vn -1.000000 0.000000 0.000000
vn -1.000000 0.000000 0.000000
vn -1.000000 0.000000 0.000000
vn -1.000000 0.000000 0.000000
vn 0.000000 0.000000 -1.000000
vn 0.000000 0.000000 -1.000000
vn 0.000000 0.000000 -1.000000
vn 0.000000 0.000000 -1.000000
vn 0.000000 -0.705277 -0.708932
vn 0.000000 -0.705277 -0.708932
vn 0.000000 -0.705277 -0.708932
vn 0.000000 -0.705277 -0.708932
vn 1.000000 0.000000 0.000000
vn 1.000000 0.000000 0.000000
vn 1.000000 0.000000 0.000000
vn 1.000000 0.000000 0.000000
vn -1.000000 0.000000 0.000000
vn -1.000000 0.000000 0.000000
vn -1.000000 0.000000 0.000000
vn -1.000000 0.000000 0.000000
vn 0.000000 0.647712 0.761885
vn 0.000000 0.647712 0.761885
vn 0.000000 0.731079 0.682292
vn 0.000000 0.731079 0.682292
vn 0.000000 0.647712 0.761885
vn 0.000000 0.647712 0.761885
vn 0.000000 0.731079 0.682292
vn 0.000000 0.731079 0.682292
vn 0.000000 -0.410669 0.911785
vn 0.000000 0.647712 0.761885
vn 0.000000 0.647712 0.761885
vn 0.000000 -0.410669 0.911785
vn 0.000000 -0.410669 0.911785
vn 0.000000 0.647712 0.761885
vn 0.000000 0.647712 0.761885
vn 0.000000 -0.410669 0.911785
s off
f 5/47/1 7/48/2 8/49/3 6/50/4
f 4/55/5 3/56/6 1/57/7 2/58/8
f 8/2/9 1/4/10 3/3/11 6/1/12
f 4/7/13 2/8/14 7/9/15 5/10/16
f 2/63/17 1/64/18 8/65/19 7/66/20
f 11/59/21 9/60/22 3/56/23 4/55/24
f 14/71/25 13/72/26 15/73/27 16/74/28
f 3/3/29 9/5/30 10/6/31 6/1/32
f 10/67/33 9/68/34 13/69/35 14/70/36
f 12/11/37 11/12/38 4/7/39 5/10/40
f 11/12/41 12/11/42 16/13/43 15/14/44
f 10/51/45 14/53/46 16/54/47 12/52/48
f 9/60/49 11/59/50 15/61/51 13/62/52
f 10/51/53 12/52/54 5/47/55 6/50/56
f 19/15/57 20/16/58 18/17/59 17/18/60
f 17/18/61 18/17/62 30/19/63 31/20/64
f 29/21/65 30/19/66 18/17/67 20/16/68
f 17/18/69 31/20/70 32/22/71 19/15/72
f 23/23/73 24/24/74 22/25/75 21/26/76
f 21/26/77 22/25/78 26/27/79 27/28/80
f 25/29/81 26/27/82 22/25/83 24/24/84
f 21/26/85 27/28/86 28/30/87 23/23/88
f 32/22/89 29/21/90 20/16/91 19/15/92
f 28/30/93 25/29/94 24/24/95 23/23/96
f 39/31/97 40/32/98 38/33/99 37/34/100
f 37/34/101 38/33/102 34/35/103 33/36/104
f 34/35/105 38/33/106 40/32/107 36/37/108
f 37/34/109 33/36/110 35/38/111 39/31/112
f 47/39/113 48/40/114 46/41/115 45/42/116
f 45/42/117 46/41/118 42/43/119 41/44/120
f 42/43/121 46/41/122 48/40/123 44/45/124
f 45/42/125 41/44/126 43/46/127 47/39/128
f 35/38/129 36/37/130 40/32/131 39/31/132
f 43/46/133 44/45/134 48/40/135 47/39/136
f 34/35/137 36/37/138 35/38/139 33/36/140
f 42/43/141 44/45/142 43/46/143 41/44/144
