# This file uses centimeters as units for non-parametric coordinates.

v 181.373138 -166.203491 -91.503967
v 181.373138 -166.203491 -158.073364
v 181.373138 -78.672745 -91.503967
v 181.373138 -78.672745 -158.073364
v 181.154449 -78.672745 -91.503967
v 181.154449 -78.672745 -158.073364
v 181.154449 -166.203491 -91.503967
v 181.154449 -166.203491 -158.073364
vt 0.533008 0.522004
vt 0.594297 0.522004
vt 0.594297 0.602592
vt 0.533008 0.602592
vt 0.594297 0.602592
vt 0.533008 0.602592
vt 0.533008 0.522004
vt 0.594297 0.522004
vn 1.000000 0.000000 0.000000
vn 1.000000 0.000000 0.000000
vn 1.000000 0.000000 0.000000
vn 1.000000 0.000000 0.000000
vn -1.000000 0.000000 0.000000
vn -1.000000 0.000000 0.000000
vn -1.000000 0.000000 0.000000
vn -1.000000 0.000000 0.000000
s off
f 1/1/1 2/2/2 4/3/3 3/4/4
f 5/5/5 6/6/6 8/7/7 7/8/8
