# This file uses centimeters as units for non-parametric coordinates.

v -250.003906 -25.000000 -0.001953
v -230.972656 -25.000000 -95.673828
v -176.780273 -25.000000 -176.775391
v -95.670898 -25.000000 -230.970703
v -0.003906 -25.000000 -250.001953
v -250.003906 3.480469 -0.001953
v -230.972656 3.480469 -95.673828
v -176.780273 3.480469 -176.775391
v -95.670898 3.480469 -230.970703
v -0.003906 3.480469 -250.001953
v -0.003906 -25.000000 -0.001953
v -0.003906 3.480469 -0.001953
vt 0.197174 0.303965
vt 0.492029 1.998920
vt 0.529755 1.809261
vt 0.529755 1.809261
vt 0.637185 1.648481
vt 0.637185 1.648481
vt 0.797967 1.541046
vt 0.797967 1.541046
vt 0.987623 1.503326
vt 0.987623 1.503326
vt 0.197174 0.303866
vt 0.987623 1.998920
vt 0.197476 0.303652
vt 0.987623 1.998920
vt 0.197469 0.303750
vt 0.492029 1.998920
vt 0.197597 0.303416
vt 0.197589 0.303510
vt 0.197555 0.303199
vt 0.197548 0.303290
vt 0.197388 0.303028
vt 0.197384 0.303117
vt 0.196608 0.303410
vt 0.196597 0.303317
vn -0.980784 0.000000 -0.195100
vn -0.980784 0.000000 -0.195100
vn -0.980784 0.000000 -0.195100
vn -0.980784 0.000000 -0.195100
vn -0.831460 0.000000 -0.555585
vn -0.831460 0.000000 -0.555585
vn -0.831460 0.000000 -0.555585
vn -0.831460 0.000000 -0.555585
vn -0.555569 0.000000 -0.831471
vn -0.555569 0.000000 -0.831471
vn -0.555569 0.000000 -0.831471
vn -0.555569 0.000000 -0.831471
vn -0.195109 0.000000 -0.980782
vn -0.195109 0.000000 -0.980782
vn -0.195109 0.000000 -0.980782
vn -0.195109 0.000000 -0.980782
vn 0.000000 -1.000000 0.000000
vn 0.000000 -1.000000 0.000000
vn 0.000000 -1.000000 0.000000
vn 0.000000 -1.000000 0.000000
vn 0.000000 -1.000000 0.000000
vn 0.000000 -1.000000 0.000000
vn 0.000000 -1.000000 0.000000
vn 0.000000 -1.000000 0.000000
vn 0.000000 -1.000000 0.000000
vn 0.000000 -1.000000 0.000000
vn 0.000000 -1.000000 0.000000
vn 0.000000 -1.000000 0.000000
vn 0.000000 1.000000 0.000000
vn 0.000000 1.000000 0.000000
vn 0.000000 1.000000 0.000000
vn 0.000000 1.000000 0.000000
vn 0.000000 1.000000 0.000000
vn 0.000000 1.000000 0.000000
vn 0.000000 1.000000 -0.000000
vn 0.000000 1.000000 -0.000000
vn 0.000000 1.000000 -0.000000
vn 0.000000 1.000000 0.000000
vn 0.000000 1.000000 0.000000
vn 0.000000 1.000000 0.000000
vn 0.000000 0.000000 1.000000
vn 0.000000 0.000000 1.000000
vn 0.000000 0.000000 1.000000
vn 0.000000 0.000000 1.000000
vn 1.000000 0.000000 0.000000
vn 1.000000 0.000000 0.000000
vn 1.000000 0.000000 0.000000
vn 1.000000 0.000000 0.000000
s off
f 1/1/1 6/11/2 7/13/3 2/15/4
f 2/15/5 7/13/6 8/17/7 3/18/8
f 3/18/9 8/17/10 9/19/11 4/20/12
f 4/20/13 9/19/14 10/21/15 5/22/16
f 2/3/17 11/14/18 1/16/19
f 3/5/20 11/14/21 2/3/22
f 4/7/23 11/14/24 3/5/25
f 5/9/26 11/14/27 4/7/28
f 6/2/29 12/12/30 7/4/31
f 7/4/32 12/12/33 8/6/34
f 8/6/35 12/12/36 9/8/37
f 9/8/38 12/12/39 10/10/40
f 6/11/41 1/1/42 11/23/43 12/24/44
f 11/23/45 5/22/46 10/21/47 12/24/48
