# This file uses centimeters as units for non-parametric coordinates.

v 30.542969 0.000000 5.876953
v 30.542969 39.715942 5.876953
v -30.542969 39.715942 5.876953
v -30.542969 0.000000 5.876953
v 30.542969 285.299316 -457.498047
v -30.542969 285.299316 -457.498047
v 30.542969 0.000000 -49.560547
v -30.542969 0.000000 -49.560547
v 30.542969 255.898193 -499.998047
v -30.542969 255.898193 -499.998047
v 30.542969 285.299316 -499.998047
v -30.542969 285.299316 -499.998047
v 30.542969 24.718140 -49.560547
v -30.542969 24.718140 -49.560547
v -30.542969 0.000000 -499.998047
v -30.542969 24.718140 -499.998047
v 30.542969 24.718140 -499.998047
v 30.542969 0.000000 -499.998047
v 9.753906 39.470947 -104.208984
v -9.753906 39.470947 -104.208984
v -9.753906 245.793945 -500.001953
v 9.753906 245.793945 -500.001953
v 9.753906 39.470947 -499.998047
v -9.753906 39.470947 -499.998047
vt 0.260696 0.761372
vt 0.260661 0.761338
vt 0.260762 0.761311
vt 0.260799 0.761344
vt 0.261261 0.762265
vt 0.261156 0.762311
vt 0.261159 0.762252
vt 0.261266 0.762206
vt 0.261198 0.762195
vt 0.261200 0.762159
vt 0.261094 0.762239
vt 0.261095 0.762203
vt 0.260664 0.761386
vt 0.260764 0.761359
vt 0.196330 0.304981
vt 0.196331 0.304928
vt 0.197328 0.304934
vt 0.197330 0.304993
vt 0.260731 0.761384
vt 0.261106 0.762086
vt 0.260699 0.761393
vt 0.261073 0.762099
vt 0.196380 0.304924
vt 0.196379 0.304974
vt 0.197318 0.304984
vt 0.197316 0.304929
vt 0.197319 0.304897
vt 0.196471 0.304895
vt 0.196458 0.304896
vt 0.197323 0.304898
vt 0.197311 0.304433
vt 0.197307 0.304442
vt 0.990822 0.029254
vt 0.000003 0.480329
vt -0.000003 0.029254
vt 0.000003 0.480329
vt 0.990822 0.029254
vt -0.000003 0.029254
vn 0.000000 1.000000 0.000000
vn 0.000000 1.000000 0.000000
vn 0.000000 1.000000 0.000000
vn 0.000000 1.000000 0.000000
vn 0.000000 0.000000 1.000000
vn 0.000000 0.000000 1.000000
vn 0.000000 0.000000 1.000000
vn 0.000000 0.000000 1.000000
vn 0.000000 0.883577 0.468286
vn 0.000000 0.883577 0.468286
vn 0.000000 0.883577 0.468286
vn 0.000000 0.883577 0.468286
vn -1.000000 0.000000 0.000000
vn -1.000000 0.000000 0.000000
vn -1.000000 0.000000 0.000000
vn -1.000000 0.000000 0.000000
vn 0.000000 -1.000000 0.000000
vn 0.000000 -1.000000 0.000000
vn 0.000000 -1.000000 0.000000
vn 0.000000 -1.000000 0.000000
vn 1.000000 0.000000 0.000000
vn 1.000000 0.000000 0.000000
vn 1.000000 0.000000 0.000000
vn 1.000000 0.000000 0.000000
vn -1.000000 0.000000 0.000000
vn -1.000000 0.000000 0.000000
vn -1.000000 0.000000 0.000000
vn -1.000000 0.000000 0.000000
vn -1.000000 0.000000 0.000000
vn -1.000000 0.000000 0.000000
vn -1.000000 0.000000 0.000000
vn 1.000000 0.000000 0.000000
vn 1.000000 0.000000 0.000000
vn 1.000000 0.000000 0.000000
vn 1.000000 0.000000 0.000000
vn 1.000000 0.000000 0.000000
vn 1.000000 0.000000 0.000000
vn 1.000000 0.000000 0.000000
vn -1.000000 0.000000 0.000000
vn -1.000000 0.000000 0.000000
vn -1.000000 0.000000 0.000000
vn -1.000000 0.000000 0.000000
vn 1.000000 0.000000 0.000000
vn 1.000000 0.000000 0.000000
vn 1.000000 0.000000 0.000000
vn 1.000000 0.000000 0.000000
vn 0.000000 -1.000000 0.000000
vn 0.000000 -1.000000 0.000000
vn 0.000000 -1.000000 0.000000
vn 0.000000 -1.000000 0.000000
vn -0.450320 -0.793138 -0.410054
vn -0.450320 -0.793138 -0.410054
vn -0.450320 -0.793138 -0.410054
vn -0.450320 -0.793138 -0.410054
vn 0.000189 0.000000 -1.000000
vn 0.000189 0.000000 -1.000000
vn 0.000189 0.000000 -1.000000
vn 0.450320 -0.793138 -0.410054
vn 0.450320 -0.793138 -0.410054
vn 0.450320 -0.793138 -0.410054
vn 0.450320 -0.793138 -0.410054
vn 0.578728 0.815521 0.000000
vn 0.578728 0.815521 0.000000
vn 0.578728 0.815521 0.000000
vn 0.578728 0.815521 0.000000
vn 0.000000 0.000000 -1.000000
vn 0.000000 0.000000 -1.000000
vn 0.000000 0.000000 -1.000000
vn -0.578728 0.815520 0.000000
vn -0.578728 0.815520 0.000000
vn -0.578728 0.815520 0.000000
vn -0.578728 0.815520 0.000000
vn -1.000000 0.000000 0.000000
vn -1.000000 0.000000 0.000000
vn -1.000000 0.000000 0.000000
vn 0.000000 -0.000019 -1.000000
vn 0.000000 -0.000019 -1.000000
vn 0.000000 -0.000019 -1.000000
vn 0.000000 -0.000019 -1.000000
vn 1.000000 0.000000 0.000000
vn 1.000000 0.000000 0.000000
vn 1.000000 0.000000 0.000000
vn 0.000000 0.000099 -1.000000
vn 0.000000 0.000099 -1.000000
vn 0.000000 0.000099 -1.000000
vn 0.000000 0.000099 -1.000000
vn -0.000189 0.000000 -1.000000
vn -0.000189 0.000000 -1.000000
vn -0.000189 0.000000 -1.000000
vn 0.000000 0.000000 -1.000000
vn 0.000000 0.000000 -1.000000
vn 0.000000 0.000000 -1.000000
vn 0.000000 0.000000 -1.000000
vn 0.000000 0.000000 -1.000000
vn 0.000000 0.000000 -1.000000
vn 0.000000 0.000000 -1.000000
s off
f 5/1/1 11/2/2 12/3/3 6/4/4
f 4/5/5 1/6/6 2/7/7 3/8/8
f 3/8/9 2/7/10 5/1/11 6/4/12
f 8/9/13 4/5/14 3/8/15 14/10/16
f 1/6/17 4/5/18 8/9/19 7/11/20
f 5/1/21 2/7/22 13/12/23 9/13/24
f 3/8/25 6/4/26 10/14/27 14/10/28
f 6/4/29 12/3/30 10/14/31
f 9/13/32 11/2/33 5/1/34
f 7/11/35 13/12/36 2/7/37 1/6/38
f 8/15/39 14/16/40 16/17/41 15/18/42
f 13/23/43 7/24/44 18/25/45 17/26/46
f 7/24/47 8/15/48 15/18/49 18/25/50
f 14/10/51 10/14/52 21/19/53 20/20/54
f 9/13/55 22/21/56 11/2/57
f 9/13/58 13/12/59 19/22/60 22/21/61
f 13/23/62 17/26/63 23/27/64 19/28/65
f 18/25/66 23/27/67 17/26/68
f 16/17/69 14/16/70 20/29/71 24/30/72
f 20/33/73 21/34/74 24/35/75
f 21/31/76 22/32/77 23/27/78 24/30/79
f 22/36/80 19/37/81 23/38/82
f 11/2/83 22/21/84 21/19/85 12/3/86
f 12/3/87 21/19/88 10/14/89
f 16/17/90 24/30/91 15/18/92
f 15/18/93 24/30/94 23/27/95 18/25/96
