# This file uses centimeters as units for non-parametric coordinates.

v 88.013916 -106.882088 1.170654
v 88.013916 -106.882088 42.269287
v 97.475586 -97.080688 1.170654
v 97.476807 -97.080078 42.269287
v 107.381592 -106.987000 1.170654
v 107.382813 -106.986389 42.269287
v 97.919922 -116.788399 1.170654
v 97.919922 -116.788399 42.269287
v -1.342773 -17.823868 1.170654
v -1.342773 -17.823868 42.269287
v 8.118896 -8.022461 1.170654
v 8.120117 -8.021851 42.269287
v 18.025513 -17.928772 1.170654
v 18.026123 -17.928162 42.269287
v 8.563232 -27.730179 1.170654
v 8.563232 -27.730179 42.269287
v 0.000000 0.000000 28.261414
v 124.999695 -125.000069 28.261414
v 7.070313 7.070999 28.261414
v 132.070007 -117.929077 28.261414
v 7.070313 7.070999 14.251709
v 132.070007 -117.929077 14.251709
v 0.000000 0.000000 14.251709
v 124.999695 -125.000069 14.251709
v -1.373291 12.629089 43.097534
v -1.903076 -1.635742 43.313599
v 131.672974 -118.326721 43.313599
v 90.006104 -76.659851 43.313599
v 84.482422 -85.504761 43.313599
v 48.339233 -34.994202 43.313599
v 43.952637 -45.045471 43.313599
v 51.391602 -35.530396 -0.800781
v -1.373291 12.629089 -0.692749
v -1.903076 -1.635742 -0.800781
v 131.930542 -117.514343 -0.800476
v 90.007324 -76.660156 -0.800781
v 5.411377 5.545349 21.256409
v 141.695862 -113.384399 21.250305
v 98.060913 -69.446716 21.287231
v 58.045654 -28.853149 21.256409
v 6.550293 20.552063 21.256409
v 49.927979 -29.672546 43.313599
v 57.851563 -21.748657 21.256409
v 91.676025 -71.257629 43.313599
v 99.605713 -63.014526 21.265259
v 94.727783 -71.793518 -0.800781
v 133.410034 -112.856750 43.313599
v 141.040955 -104.096680 21.253052
v 133.410645 -112.856750 -0.800781
v 49.927979 -29.672241 -0.800781
v 85.732422 -80.666504 43.313599
v 44.066162 -39.000854 43.313599
v 84.482422 -85.504761 -0.800781
v 43.952637 -45.045471 -0.800781
v 85.732422 -80.666504 -0.800781
v 44.066162 -39.000854 -0.800781
v 50.799561 -32.266846 21.256409
v 50.687256 -38.311157 21.256409
v 92.467041 -73.932190 21.256409
v 91.215820 -78.770752 21.256409
v 1.518555 6.803322 -7.633667
v 1.051025 -5.806236 -7.732849
v 46.867065 -30.589447 -7.732849
v 48.161011 -35.767822 -7.731323
v 41.685791 -38.835602 -7.729187
v 46.769409 -48.348202 49.274292
v 83.616943 -79.764130 49.274292
v 87.386475 -76.230469 49.274292
v 88.859253 -71.465988 49.274292
v 50.638428 -39.483490 49.274292
v 46.869507 -43.017155 49.274292
v 130.644531 -121.576233 43.313599
v 134.993591 -121.169670 21.147156
v 130.644531 -121.576233 -0.800476
v 129.832458 -127.483673 -0.910034
v 185.042114 -143.664185 -0.910034
v 186.965332 -143.376404 43.204346
v 129.832458 -127.483673 43.204346
v 189.868774 -135.180206 21.147156
v 184.051819 -136.768433 -0.910034
v 189.604797 -127.035065 21.147156
v 184.052124 -136.768188 43.204346
vt 0.488241 0.155979
vt 0.487357 0.156563
vt 0.487345 0.156529
vt 0.488197 0.155881
vt 0.487391 0.156514
vt 0.488303 0.155858
vt 0.487403 0.156547
vt 0.488345 0.155952
vt 0.488241 0.155979
vt 0.487357 0.156563
vt 0.487345 0.156529
vt 0.488197 0.155881
vt 0.487391 0.156514
vt 0.488303 0.155858
vt 0.487403 0.156547
vt 0.488345 0.155952
vt 0.488241 0.155979
vt 0.487357 0.156563
vt 0.487345 0.156529
vt 0.488197 0.155881
vt 0.487391 0.156514
vt 0.488303 0.155858
vt 0.487403 0.156547
vt 0.488345 0.155952
vt 0.238717 0.302326
vt 0.238674 0.302305
vt 0.238663 0.288759
vt 0.238706 0.288781
vt 0.238654 0.302307
vt 0.238642 0.288762
vt 0.238581 0.288978
vt 0.238575 0.288972
vt 0.238573 0.302393
vt 0.238635 0.295055
vt 0.238641 0.295751
vt 0.238591 0.302393
vt 0.238593 0.288972
vt 0.238587 0.288984
vt 0.238512 0.289087
vt 0.238506 0.289082
vt 0.238503 0.302503
vt 0.238520 0.302505
vt 0.238563 0.302529
vt 0.238565 0.289108
vt 0.238523 0.289085
vt 0.238519 0.263455
vt 0.238440 0.263558
vt 0.238434 0.276977
vt 0.238506 0.263445
vt 0.238512 0.263450
vt 0.238523 0.263448
vt 0.238449 0.276983
vt 0.238491 0.277007
vt 0.238565 0.263471
vt 0.238493 0.263586
vt 0.238451 0.263561
vt 0.238654 0.302307
vt 0.238642 0.288762
vt 0.238573 0.302393
vt 0.238575 0.288972
vt 0.238581 0.288978
vt 0.238587 0.288984
vt 0.238503 0.302503
vt 0.238506 0.289082
vt 0.238512 0.289087
vt 0.239194 0.261148
vt 0.239243 0.276040
vt 0.239331 0.276045
vt 0.239271 0.261150
vt 0.239276 0.276261
vt 0.239198 0.276259
vt 0.239159 0.261321
vt 0.239228 0.261322
vt 0.239394 0.275763
vt 0.239324 0.260936
vt 0.239238 0.260932
vt 0.239302 0.275759
vt 0.239500 0.275776
vt 0.239410 0.260941
vt 0.239418 0.276050
vt 0.239348 0.261153
vt 0.239354 0.276263
vt 0.239298 0.261323
vt 0.238654 0.302307
vt 0.238642 0.288762
vt 0.238573 0.302393
vt 0.238575 0.288972
vt 0.238581 0.288978
vt 0.238587 0.288984
vt 0.238512 0.289087
vt 0.238506 0.289082
vt 0.238503 0.302503
vt 0.238575 0.288972
vt 0.238581 0.288978
vt 0.238444 0.263552
vt 0.239161 0.262095
vt 0.239231 0.262096
vt 0.239301 0.262096
vt 0.238654 0.302307
vt 0.238578 0.288975
vt 0.238573 0.302393
vt 0.238642 0.288762
vt 0.238650 0.297176
vt 0.238635 0.295055
vt 0.238641 0.295751
vt 0.238591 0.302393
vt 0.238593 0.288972
vt 0.238706 0.288781
vt 0.238663 0.288759
vt 0.238654 0.302307
vt 0.238646 0.292826
vt 0.238642 0.288762
vt 0.238573 0.302393
vt 0.238578 0.288975
vt 0.239394 0.275763
vt 0.239324 0.260936
vt 0.239238 0.260932
vt 0.239302 0.275759
vt 0.239500 0.275776
vt 0.239410 0.260941
vt 0.239059 0.274316
vt 0.239179 0.274362
vt 0.239166 0.274460
vt 0.238874 0.274297
vt 0.238866 0.274370
vt 0.238474 0.273459
vt 0.239221 0.274215
vt 0.239199 0.274294
vt 0.238386 0.273540
vt 0.238364 0.273649
vn -0.719454 0.694540 0.000006
vn -0.719454 0.694540 0.000006
vn -0.719454 0.694540 0.000006
vn -0.719454 0.694540 0.000006
vn 0.707118 0.707096 -0.000031
vn 0.707118 0.707096 -0.000031
vn 0.707118 0.707096 -0.000031
vn 0.707118 0.707096 -0.000031
vn 0.719454 -0.694540 -0.000005
vn 0.719454 -0.694540 -0.000005
vn 0.719454 -0.694540 -0.000005
vn 0.719454 -0.694540 -0.000005
vn -0.707118 -0.707096 0.000000
vn -0.707118 -0.707096 0.000000
vn -0.707118 -0.707096 0.000000
vn -0.707118 -0.707096 0.000000
vn 0.000000 0.000000 1.000000
vn 0.000000 0.000000 1.000000
vn 0.000000 0.000000 1.000000
vn 0.000000 0.000000 1.000000
vn 0.000000 0.000000 -1.000000
vn 0.000000 0.000000 -1.000000
vn 0.000000 0.000000 -1.000000
vn 0.000000 0.000000 -1.000000
vn -0.719454 0.694540 0.000006
vn -0.719454 0.694540 0.000006
vn -0.719454 0.694540 0.000006
vn -0.719454 0.694540 0.000006
vn 0.707107 0.707107 -0.000026
vn 0.707107 0.707107 -0.000026
vn 0.707107 0.707107 -0.000026
vn 0.707107 0.707107 -0.000026
vn 0.719443 -0.694551 -0.000000
vn 0.719443 -0.694551 -0.000000
vn 0.719443 -0.694551 -0.000000
vn 0.719443 -0.694551 -0.000000
vn -0.707118 -0.707096 0.000000
vn -0.707118 -0.707096 0.000000
vn -0.707118 -0.707096 0.000000
vn -0.707118 -0.707096 0.000000
vn 0.000000 0.000000 1.000000
vn 0.000000 0.000000 1.000000
vn 0.000000 0.000000 1.000000
vn 0.000000 0.000000 1.000000
vn 0.000000 0.000000 -1.000000
vn 0.000000 0.000000 -1.000000
vn 0.000000 0.000000 -1.000000
vn 0.000000 0.000000 -1.000000
vn 0.000000 0.000000 1.000000
vn 0.000000 0.000000 1.000000
vn 0.000000 0.000000 1.000000
vn 0.000000 0.000000 1.000000
vn 0.707108 0.707106 0.000000
vn 0.707108 0.707106 0.000000
vn 0.707108 0.707106 0.000000
vn 0.707108 0.707106 0.000000
vn -0.000000 0.000000 -1.000000
vn -0.000000 0.000000 -1.000000
vn -0.000000 0.000000 -1.000000
vn -0.000000 0.000000 -1.000000
vn -0.707108 -0.707106 0.000000
vn -0.707108 -0.707106 0.000000
vn -0.707108 -0.707106 0.000000
vn -0.707108 -0.707106 0.000000
vn 0.707140 -0.707073 0.000000
vn 0.707140 -0.707073 0.000000
vn 0.707140 -0.707073 0.000000
vn 0.707140 -0.707073 0.000000
vn -0.707141 0.707072 0.000000
vn -0.707141 0.707072 0.000000
vn -0.707141 0.707072 0.000000
vn -0.707141 0.707072 0.000000
vn -0.949107 0.052960 0.310469
vn -0.949107 0.052960 0.310469
vn -0.949107 0.052960 0.310469
vn -0.949107 0.052960 0.310469
vn -0.948822 0.051790 -0.311537
vn -0.948822 0.051790 -0.311537
vn -0.948822 0.051790 -0.311537
vn -0.948822 0.051790 -0.311537
vn 0.004271 0.007895 0.999960
vn 0.004271 0.007895 0.999960
vn 0.004271 0.007895 0.999960
vn 0.004271 0.007895 0.999960
vn 0.004271 0.007895 0.999960
vn 0.930356 0.118978 -0.346816
vn 0.930356 0.118978 -0.346816
vn 0.930356 0.118978 -0.346816
vn 0.930356 0.118978 -0.346816
vn 0.567159 0.688408 -0.452134
vn 0.567159 0.688408 -0.452134
vn 0.567159 0.688408 -0.452134
vn 0.567159 0.688408 -0.452134
vn 0.934543 -0.104888 0.340042
vn 0.934543 -0.104888 0.340042
vn 0.934543 -0.104888 0.340042
vn 0.934543 -0.104888 0.340042
vn 0.566593 0.688300 0.453008
vn 0.566593 0.688299 0.453008
vn 0.566593 0.688299 0.453008
vn 0.566593 0.688299 0.453008
vn 0.000000 0.000000 1.000000
vn 0.000000 0.000000 1.000000
vn 0.000000 0.000000 1.000000
vn 0.000000 0.000000 1.000000
vn 0.000000 0.000000 1.000000
vn 0.000000 0.000000 1.000000
vn 0.585173 0.705372 -0.400030
vn 0.585173 0.705372 -0.400030
vn 0.585173 0.705372 -0.400030
vn 0.585173 0.705372 -0.400030
vn 0.871666 -0.483500 -0.080166
vn 0.871666 -0.483500 -0.080166
vn 0.871666 -0.483500 -0.080166
vn 0.871666 -0.483500 -0.080166
vn 0.569583 0.686687 0.451704
vn 0.569583 0.686687 0.451704
vn 0.569583 0.686687 0.451704
vn 0.569583 0.686687 0.451704
vn 0.934490 -0.253383 0.250053
vn 0.934490 -0.253383 0.250053
vn 0.934490 -0.253383 0.250053
vn 0.934490 -0.253383 0.250053
vn 0.000000 0.000000 1.000000
vn 0.000000 0.000000 1.000000
vn 0.000000 0.000000 1.000000
vn 0.000000 0.000000 1.000000
vn 0.000000 0.000000 1.000000
vn 0.000000 0.000000 1.000000
vn 0.565928 0.690255 -0.450859
vn 0.565928 0.690255 -0.450859
vn 0.565928 0.690255 -0.450859
vn 0.565928 0.690255 -0.450859
vn 0.934241 -0.055222 -0.352342
vn 0.934241 -0.055222 -0.352342
vn 0.934241 -0.055222 -0.352342
vn 0.934241 -0.055222 -0.352342
vn 0.565989 0.689896 0.451331
vn 0.565989 0.689896 0.451331
vn 0.565989 0.689896 0.451331
vn 0.565989 0.689896 0.451331
vn 0.933420 -0.068511 0.352182
vn 0.933421 -0.068511 0.352182
vn 0.933421 -0.068511 0.352182
vn 0.933420 -0.068511 0.352182
vn 0.002084 0.003851 -0.999990
vn 0.002084 0.003851 -0.999990
vn 0.002084 0.003851 -0.999990
vn 0.002084 0.003851 -0.999990
vn 0.002084 0.003851 -0.999990
vn 0.000000 0.000000 -1.000000
vn 0.000000 0.000000 -1.000000
vn 0.000000 0.000000 -1.000000
vn 0.000000 0.000000 -1.000000
vn 0.000000 0.000000 -1.000000
vn 0.000000 0.000000 -1.000000
vn -0.595933 -0.698968 -0.395357
vn -0.595933 -0.698968 -0.395357
vn -0.595933 -0.698968 -0.395357
vn -0.595933 -0.698968 -0.395357
vn -0.945731 0.244448 -0.214098
vn -0.945731 0.244448 -0.214098
vn -0.945731 0.244448 -0.214098
vn -0.945731 0.244448 -0.214098
vn 0.802823 -0.564241 0.192633
vn 0.802823 -0.564241 0.192633
vn 0.802823 -0.564241 0.192633
vn 0.802823 -0.564241 0.192633
vn -0.580333 -0.705235 -0.407256
vn -0.580333 -0.705235 -0.407256
vn -0.580333 -0.705235 -0.407256
vn -0.580333 -0.705235 -0.407256
vn -0.957780 0.017892 -0.286946
vn -0.957780 0.017892 -0.286946
vn -0.957780 0.017892 -0.286946
vn -0.957780 0.017892 -0.286946
vn -0.580333 -0.705235 0.407256
vn -0.580333 -0.705235 0.407256
vn -0.580333 -0.705235 0.407256
vn -0.580333 -0.705235 0.407256
vn -0.957780 0.017892 0.286945
vn -0.957780 0.017892 0.286945
vn -0.957780 0.017892 0.286945
vn -0.957780 0.017892 0.286945
vn -0.595933 -0.698968 0.395357
vn -0.595933 -0.698968 0.395357
vn -0.595933 -0.698968 0.395357
vn -0.595933 -0.698968 0.395357
vn -0.945731 0.244448 0.214098
vn -0.945731 0.244448 0.214098
vn -0.945731 0.244448 0.214098
vn -0.945731 0.244448 0.214098
vn 0.812458 -0.546042 -0.204331
vn 0.812458 -0.546042 -0.204331
vn 0.812458 -0.546042 -0.204331
vn 0.812458 -0.546042 -0.204331
vn -0.911081 0.036976 -0.410565
vn -0.911082 0.036976 -0.410565
vn -0.911081 0.036976 -0.410565
vn -0.911081 0.036976 -0.410565
vn 0.593654 0.720889 -0.357623
vn 0.593654 0.720889 -0.357623
vn 0.593654 0.720889 -0.357623
vn 0.593654 0.720889 -0.357623
vn 0.881240 0.220127 -0.418283
vn 0.881240 0.220127 -0.418283
vn 0.881240 0.220127 -0.418283
vn 0.881240 0.220127 -0.418283
vn 0.422163 -0.891140 -0.166277
vn 0.422163 -0.891140 -0.166277
vn 0.422163 -0.891140 -0.166277
vn 0.422163 -0.891140 -0.166277
vn -0.618726 -0.761188 0.194348
vn -0.618726 -0.761188 0.194348
vn -0.618726 -0.761188 0.194348
vn -0.618726 -0.761188 0.194348
vn -0.644540 -0.755979 -0.114300
vn -0.644540 -0.755978 -0.114300
vn -0.644540 -0.755978 -0.114300
vn -0.644540 -0.755979 -0.114300
vn 0.644898 -0.687910 0.332997
vn 0.644898 -0.687910 0.332997
vn 0.644897 -0.687910 0.332997
vn 0.644898 -0.687910 0.332997
vn 0.874115 -0.270204 0.403624
vn 0.874115 -0.270204 0.403624
vn 0.874115 -0.270204 0.403624
vn 0.874115 -0.270204 0.403624
vn 0.609406 0.728274 0.313436
vn 0.609406 0.728274 0.313436
vn 0.609406 0.728274 0.313436
vn 0.609406 0.728274 0.313436
vn -0.530661 0.565968 0.630934
vn -0.530661 0.565968 0.630934
vn -0.530662 0.565968 0.630934
vn -0.530662 0.565968 0.630934
vn -0.900352 0.016907 0.434834
vn -0.900352 0.016907 0.434834
vn -0.900352 0.016907 0.434834
vn -0.900352 0.016907 0.434834
vn -0.632200 -0.724221 -0.275366
vn -0.632200 -0.724221 -0.275366
vn -0.632200 -0.724221 -0.275366
vn -0.632200 -0.724221 -0.275366
vn -0.631589 -0.724288 0.276592
vn -0.631589 -0.724288 0.276592
vn -0.631589 -0.724288 0.276592
vn -0.631589 -0.724288 0.276592
vn 0.000616 0.006546 -0.999978
vn 0.000616 0.006546 -0.999978
vn 0.000616 0.006546 -0.999978
vn 0.000616 0.006546 -0.999978
vn 0.000616 0.006546 -0.999978
vn 0.943087 0.203098 0.263321
vn 0.943087 0.203098 0.263321
vn 0.943087 0.203098 0.263321
vn 0.943087 0.203098 0.263321
vn 0.281286 0.876434 0.390822
vn 0.281286 0.876434 0.390822
vn 0.281286 0.876434 0.390822
vn 0.281286 0.876434 0.390822
vn 0.962382 0.080252 -0.259579
vn 0.962382 0.080252 -0.259579
vn 0.962382 0.080252 -0.259579
vn 0.962382 0.080252 -0.259579
vn 0.288710 0.880114 -0.376890
vn 0.288710 0.880114 -0.376890
vn 0.288710 0.880114 -0.376890
vn 0.288710 0.880114 -0.376890
vn -0.000777 -0.007116 0.999974
vn -0.000777 -0.007116 0.999974
vn -0.000777 -0.007116 0.999974
vn -0.000777 -0.007116 0.999974
vn -0.000777 -0.007116 0.999974
vn -0.246959 -0.900481 0.357975
vn -0.246959 -0.900481 0.357975
vn -0.246959 -0.900481 0.357975
vn -0.246959 -0.900480 0.357975
vn -0.242308 -0.907609 -0.342829
vn -0.242308 -0.907609 -0.342829
vn -0.242308 -0.907609 -0.342829
vn -0.242308 -0.907609 -0.342829
vn -0.973030 0.130232 0.190400
vn -0.973030 0.130232 0.190400
vn -0.973030 0.130232 0.190400
vn -0.972488 0.137169 -0.188287
vn -0.972488 0.137169 -0.188287
vn -0.972488 0.137169 -0.188287
vn -0.000016 -0.000024 -1.000000
vn -0.000016 -0.000024 -1.000000
vn -0.000016 -0.000024 -1.000000
vn -0.000016 -0.000024 -1.000000
vn 0.000005 -0.000002 -1.000000
vn 0.000005 -0.000002 -1.000000
vn 0.000005 -0.000002 -1.000000
vn 0.000005 -0.000002 -1.000000
s off
f 1/1/1 2/2/2 4/3/3 3/4/4
f 3/4/5 4/3/6 6/5/7 5/6/8
f 5/6/9 6/5/10 8/7/11 7/8/12
f 7/8/13 8/7/14 2/2/15 1/1/16
f 2/2/17 8/7/18 6/5/19 4/3/20
f 7/8/21 1/1/22 3/4/23 5/6/24
f 9/9/25 10/10/26 12/11/27 11/12/28
f 11/12/29 12/11/30 14/13/31 13/14/32
f 13/14/33 14/13/34 16/15/35 15/16/36
f 15/16/37 16/15/38 10/10/39 9/9/40
f 10/10/41 16/15/42 14/13/43 12/11/44
f 15/16/45 9/9/46 11/12/47 13/14/48
f 17/17/49 18/18/50 20/19/51 19/20/52
f 19/20/53 20/19/54 22/21/55 21/22/56
f 21/22/57 22/21/58 24/23/59 23/24/60
f 23/24/61 24/23/62 18/18/63 17/17/64
f 18/18/65 24/23/66 22/21/67 20/19/68
f 23/24/69 17/17/70 19/20/71 21/22/72
f 34/25/73 37/26/74 41/27/75 33/28/76
f 37/26/77 26/29/78 25/30/79 41/27/80
f 26/29/81 52/31/82 30/32/83 42/33/84 25/30/85
f 32/34/86 50/35/87 43/36/88 40/37/89
f 43/36/90 50/35/91 33/28/92 41/27/93
f 40/37/94 43/36/95 42/33/96 30/32/97
f 42/33/98 43/36/99 41/27/100 25/30/101
f 66/89/102 67/90/103 68/91/104 69/92/105 70/93/106 71/94/107
f 40/37/108 45/42/109 46/43/110 32/34/111
f 36/44/112 46/43/113 45/42/114 39/45/115
f 44/41/116 45/42/117 40/37/118 30/32/119
f 39/45/120 45/42/121 44/41/122 28/40/123
f 29/46/124 72/95/125 27/47/126 47/48/127 28/49/128 51/50/129
f 39/51/130 48/52/131 49/53/132 36/54/133
f 35/55/134 49/53/135 48/52/136 38/56/137
f 47/48/138 48/52/139 39/51/140 28/49/141
f 38/56/142 48/52/143 47/48/144 27/47/145
f 62/84/146 61/85/147 63/86/148 64/87/149 65/88/150
f 54/62/151 56/61/152 32/60/153 46/63/154 36/64/155 55/65/156
f 51/66/157 31/67/158 58/68/159 59/69/160
f 59/69/161 60/70/162 29/71/163 51/66/164
f 72/96/165 73/97/166 38/73/167 27/72/168
f 37/74/169 57/75/170 52/76/171 26/77/172
f 31/67/173 52/76/174 57/75/175 58/68/176
f 34/78/177 56/79/178 57/75/179 37/74/180
f 58/68/181 57/75/182 56/79/183 54/80/184
f 59/69/185 58/68/186 54/80/187 55/81/188
f 53/82/189 60/70/190 59/69/191 55/81/192
f 35/83/193 38/73/194 73/97/195 74/98/196
f 34/57/197 33/58/198 61/85/199 62/84/200
f 33/58/201 50/59/202 63/86/203 61/85/204
f 50/59/205 32/60/206 64/87/207 63/86/208
f 32/60/209 56/61/210 65/88/211 64/87/212
f 56/61/213 34/57/214 62/84/215 65/88/216
f 31/38/217 51/39/218 67/90/219 66/89/220
f 51/39/221 28/40/222 68/91/223 67/90/224
f 28/40/225 44/41/226 69/92/227 68/91/228
f 44/41/229 30/32/230 70/93/231 69/92/232
f 30/32/233 52/31/234 71/94/235 70/93/236
f 52/31/237 31/38/238 66/89/239 71/94/240
f 60/70/241 73/97/242 72/96/243 29/71/244
f 74/98/245 73/97/246 60/70/247 53/82/248
f 75/99/249 74/103/250 35/102/251 80/101/252 76/100/253
f 77/104/254 79/107/255 81/106/256 82/105/257
f 81/106/258 38/109/259 27/108/260 82/105/261
f 79/107/262 76/100/263 80/101/264 81/106/265
f 80/101/266 35/102/267 38/109/268 81/106/269
f 78/110/270 77/114/271 82/113/272 27/112/273 72/111/274
f 73/115/275 75/118/276 76/117/277 79/116/278
f 78/119/279 73/115/280 79/116/281 77/120/282
f 73/121/283 74/122/284 75/123/285
f 72/124/286 73/121/287 78/125/288
f 36/126/289 49/127/290 35/128/291 55/129/292
f 55/129/293 35/128/294 74/122/295 53/130/296
