# This file uses centimeters as units for non-parametric coordinates.

v -44.910126 -53.689789 0.181709
v 44.910126 -53.689789 0.181709
v -44.910126 53.689789 0.181709
v 44.910126 53.689789 0.181709
v -44.910126 53.689789 -0.181709
v 44.910126 53.689789 -0.181709
v -44.910126 -53.689789 -0.181709
v 44.910126 -53.689789 -0.181709
vt 0.522305 0.512867
vt 0.605000 0.512867
vt 0.605000 0.611729
vt 0.522305 0.611729
vt 0.522305 0.512867
vt 0.605000 0.512867
vt 0.605000 0.611729
vt 0.522305 0.611729
vn 0.000000 0.000000 1.000000
vn 0.000000 0.000000 1.000000
vn 0.000000 0.000000 1.000000
vn 0.000000 0.000000 1.000000
vn 0.000000 0.000000 -1.000000
vn 0.000000 0.000000 -1.000000
vn 0.000000 0.000000 -1.000000
vn 0.000000 0.000000 -1.000000
s off
f 1/1/1 2/2/2 4/3/3 3/4/4
f 5/5/5 6/6/6 8/7/7 7/8/8
