# This file uses centimeters as units for non-parametric coordinates.

v -75.707031 0.000000 75.703125
v 75.699219 0.000000 75.703125
v -75.707031 0.000000 -75.703125
v 75.699219 0.000000 -75.703125
v -75.707031 333.911407 75.703125
v -75.707031 333.911407 -75.703125
v 75.699219 333.911407 -75.703125
v 75.699219 333.911407 75.703125
v -75.707031 166.955704 75.703125
v -75.707031 166.955704 -75.703125
v 75.699219 166.955704 -75.703125
v 75.699219 166.955704 75.703125
v -75.708008 484.171600 -75.703125
v 75.699219 484.171600 -75.703125
v 75.699219 484.171600 75.703125
v -75.707031 484.171600 75.703125
v -75.708008 317.215851 -75.703125
v 75.699219 317.215851 -75.703125
v 75.699219 317.215851 75.703125
v -75.707031 317.215851 75.703125
v -75.707031 150.260132 75.703125
v 75.699219 150.260132 75.703125
v 75.699219 150.260132 -75.703125
v -75.708008 150.260132 -75.703125
v -93.809570 150.260132 93.804688
v 93.800781 150.260132 93.804688
v 93.800781 166.955704 93.804688
v -93.809570 166.955704 93.804688
v -93.809570 166.955704 -93.804688
v 93.800781 166.955704 -93.804688
v 93.800781 150.260132 -93.804688
v -93.809570 150.260132 -93.804688
v -93.809570 500.000000 93.804688
v 93.800781 500.000000 93.804688
v 93.800781 500.000000 -93.804688
v -93.809570 500.000000 -93.804688
v 93.800781 484.171600 -93.804688
v -93.809570 484.171600 -93.804688
v 93.800781 484.171600 93.804688
v -93.809570 484.171600 93.804688
v -93.809570 333.911407 -93.804688
v 93.800781 333.911407 -93.804688
v 93.800781 317.215851 -93.804688
v -93.809570 317.215851 -93.804688
v 93.800781 317.215851 93.804688
v 93.800781 333.911407 93.804688
v -93.809570 317.215851 93.804688
v -93.809570 333.911407 93.804688
v -0.003906 502.564148 0.000000
vt 0.408621 1.004392
vt 0.611812 1.004392
vt 0.196950 0.303543
vt 0.196522 0.303449
vt 0.196521 0.303419
vt 0.196952 0.303512
vt 0.854932 1.004392
vt 0.344308 1.004392
vt 0.612363 1.004392
vt 0.623215 1.004392
vt 0.197016 0.302765
vt 0.196814 0.302635
vt 0.202329 1.004392
vt 0.344640 1.004392
vt 0.197090 0.302588
vt 0.197025 0.303250
vt 0.408621 1.664573
vt 0.344640 1.664573
vt 0.202329 1.664573
vt 0.344308 1.664573
vt 0.612363 1.664573
vt 0.854932 1.664573
vt 0.611812 1.664573
vt 0.623215 1.664573
vt 0.408621 1.334482
vt 0.344640 1.334482
vt 0.202329 1.334482
vt 0.344308 1.334482
vt 0.612363 1.334482
vt 0.854932 1.334482
vt 0.611812 1.334482
vt 0.623215 1.334482
vt 0.202329 1.961654
vt 0.344308 1.961654
vt 0.612363 1.961654
vt 0.854932 1.961654
vt 0.611812 1.961654
vt 0.623215 1.961654
vt 0.408621 1.961654
vt 0.344640 1.961654
vt 0.202329 1.631564
vt 0.344308 1.631564
vt 0.612363 1.631564
vt 0.854932 1.631564
vt 0.611812 1.631564
vt 0.623215 1.631564
vt 0.408621 1.631564
vt 0.344640 1.631564
vt 0.408621 1.301473
vt 0.344640 1.301473
vt 0.611812 1.301473
vt 0.623215 1.301473
vt 0.612363 1.301473
vt 0.854932 1.301473
vt 0.202329 1.301473
vt 0.344308 1.301473
vt 0.196651 0.303182
vt 0.196651 0.303209
vt 0.197022 0.303279
vt 0.196654 0.302543
vt 0.196654 0.302578
vt 0.197087 0.302624
vt 0.196501 0.302741
vt 0.196500 0.302701
vt 0.197013 0.302807
vt 0.197055 0.302944
vt 0.196652 0.302885
vt 0.196652 0.302916
vt 0.197052 0.302976
vt 0.196512 0.303125
vt 0.196511 0.303089
vt 0.196978 0.303208
vt 0.196982 0.303172
vt 0.196915 0.303505
vt 0.196575 0.303431
vt 0.196574 0.303401
vt 0.196918 0.303474
vt 0.196981 0.303265
vt 0.196675 0.303208
vt 0.196675 0.303236
vt 0.196978 0.303294
vt 0.196682 0.302596
vt 0.197036 0.302634
vt 0.196564 0.302728
vt 0.196970 0.302780
vt 0.197008 0.302956
vt 0.196678 0.302907
vt 0.196678 0.302940
vt 0.197005 0.302989
vt 0.196570 0.303109
vt 0.196569 0.303074
vt 0.196940 0.303174
vt 0.196943 0.303138
vn 0.000000 0.000000 1.000000
vn 0.000000 0.000000 1.000000
vn 0.000000 0.000000 1.000000
vn 0.000000 0.000000 1.000000
vn -0.027324 0.999627 0.000000
vn -0.027324 0.999627 0.000000
vn -0.027324 0.999627 0.000000
vn 0.000000 0.000000 -1.000000
vn 0.000000 0.000000 -1.000000
vn 0.000000 0.000000 -1.000000
vn 0.000000 0.000000 -1.000000
vn 0.000000 -1.000000 0.000000
vn 0.000000 -1.000000 0.000000
vn 0.000000 -1.000000 0.000000
vn 0.000000 -1.000000 0.000000
vn 1.000000 0.000000 0.000000
vn 1.000000 0.000000 0.000000
vn 1.000000 0.000000 0.000000
vn 1.000000 0.000000 0.000000
vn -1.000000 0.000000 0.000000
vn -1.000000 0.000000 0.000000
vn -1.000000 0.000000 0.000000
vn -1.000000 0.000000 0.000000
vn -1.000000 -0.000003 0.000003
vn -1.000000 -0.000003 0.000003
vn -1.000000 -0.000003 0.000003
vn -1.000000 -0.000003 0.000003
vn 0.000000 0.000000 -1.000000
vn 0.000000 0.000000 -1.000000
vn 0.000000 0.000000 -1.000000
vn 0.000000 0.000000 -1.000000
vn 1.000000 0.000000 0.000000
vn 1.000000 0.000000 0.000000
vn 1.000000 0.000000 0.000000
vn 1.000000 0.000000 0.000000
vn 0.000000 0.000000 1.000000
vn 0.000000 0.000000 1.000000
vn 0.000000 0.000000 1.000000
vn 0.000000 0.000000 1.000000
vn -1.000000 -0.000003 0.000003
vn -1.000000 -0.000003 0.000003
vn -1.000000 -0.000003 0.000003
vn -1.000000 -0.000003 0.000003
vn 0.000000 0.000000 -1.000000
vn 0.000000 0.000000 -1.000000
vn 0.000000 0.000000 -1.000000
vn 0.000000 0.000000 -1.000000
vn 1.000000 0.000000 0.000000
vn 1.000000 0.000000 0.000000
vn 1.000000 0.000000 0.000000
vn 1.000000 0.000000 0.000000
vn 0.000000 0.000000 1.000000
vn 0.000000 0.000000 1.000000
vn 0.000000 0.000000 1.000000
vn 0.000000 0.000000 1.000000
vn 0.000000 0.000000 -1.000000
vn 0.000000 0.000000 -1.000000
vn 0.000000 0.000000 -1.000000
vn 0.000000 0.000000 -1.000000
vn 1.000000 0.000000 0.000000
vn 1.000000 0.000000 0.000000
vn 1.000000 0.000000 0.000000
vn 1.000000 0.000000 0.000000
vn 0.000000 0.000000 1.000000
vn 0.000000 0.000000 1.000000
vn 0.000000 0.000000 1.000000
vn 0.000000 0.000000 1.000000
vn -1.000000 0.000000 0.000000
vn -1.000000 0.000000 0.000000
vn -1.000000 0.000000 0.000000
vn -1.000000 0.000000 0.000000
vn 0.000000 0.000000 -1.000000
vn 0.000000 0.000000 -1.000000
vn 0.000000 0.000000 -1.000000
vn 0.000000 0.000000 -1.000000
vn 1.000000 0.000000 0.000000
vn 1.000000 0.000000 0.000000
vn 1.000000 0.000000 0.000000
vn 1.000000 0.000000 0.000000
vn 0.000000 0.000000 1.000000
vn 0.000000 0.000000 1.000000
vn 0.000000 0.000000 1.000000
vn 0.000000 0.000000 1.000000
vn -1.000000 0.000000 0.000000
vn -1.000000 0.000000 0.000000
vn -1.000000 0.000000 0.000000
vn -1.000000 0.000000 0.000000
vn 0.000000 0.000000 1.000000
vn 0.000000 0.000000 1.000000
vn 0.000000 0.000000 1.000000
vn 0.000000 0.000000 1.000000
vn 1.000000 0.000000 0.000000
vn 1.000000 0.000000 0.000000
vn 1.000000 0.000000 0.000000
vn 1.000000 0.000000 0.000000
vn 0.000000 0.000000 -1.000000
vn 0.000000 0.000000 -1.000000
vn 0.000000 0.000000 -1.000000
vn 0.000000 0.000000 -1.000000
vn -1.000000 -0.000003 0.000003
vn -1.000000 -0.000003 0.000003
vn -1.000000 -0.000003 0.000003
vn -1.000000 -0.000003 0.000003
vn 0.000000 -1.000000 0.000000
vn 0.000000 -1.000000 0.000000
vn 0.000000 -1.000000 0.000000
vn 0.000000 -1.000000 0.000000
vn 0.000000 1.000000 -0.000000
vn 0.000000 1.000000 -0.000000
vn 0.000000 1.000000 -0.000000
vn 0.000000 1.000000 -0.000000
vn 0.000000 1.000000 0.000000
vn 0.000000 1.000000 0.000000
vn 0.000000 1.000000 0.000000
vn 0.000000 1.000000 0.000000
vn 0.000000 -1.000000 0.000001
vn 0.000000 -1.000000 0.000001
vn 0.000000 -1.000000 0.000001
vn 0.000000 -1.000000 0.000001
vn 0.000000 -1.000000 0.000000
vn 0.000000 -1.000000 0.000000
vn 0.000000 -1.000000 0.000000
vn 0.000000 -1.000000 0.000000
vn 0.000000 1.000000 0.000000
vn 0.000000 1.000000 0.000000
vn 0.000000 1.000000 0.000000
vn 0.000000 1.000000 0.000000
vn 0.000000 -1.000000 0.000000
vn 0.000000 -1.000000 0.000000
vn 0.000000 -1.000000 0.000000
vn 0.000000 -1.000000 0.000000
vn 0.000000 1.000000 0.000000
vn 0.000000 1.000000 0.000000
vn 0.000000 1.000000 0.000000
vn 0.000000 1.000000 0.000000
vn 0.000000 -1.000000 0.000002
vn 0.000000 -1.000000 0.000002
vn 0.000000 -1.000000 0.000002
vn 0.000000 -1.000000 0.000002
vn 0.000000 -1.000000 0.000000
vn 0.000000 -1.000000 0.000000
vn 0.000000 -1.000000 0.000000
vn 0.000000 -1.000000 0.000000
vn 0.000000 -1.000000 -0.000003
vn 0.000000 -1.000000 -0.000003
vn 0.000000 -1.000000 -0.000003
vn 0.000000 -1.000000 -0.000003
vn 0.000000 -1.000000 0.000000
vn 0.000000 -1.000000 0.000000
vn 0.000000 -1.000000 0.000000
vn 0.000000 -1.000000 0.000000
vn 0.000000 1.000000 0.000000
vn 0.000000 1.000000 0.000000
vn 0.000000 1.000000 0.000000
vn 0.000000 1.000000 0.000000
vn 0.000000 -1.000000 0.000000
vn 0.000000 -1.000000 0.000000
vn 0.000000 -1.000000 0.000000
vn 0.000000 -1.000000 0.000000
vn 0.000000 -1.000000 0.000000
vn 0.000000 -1.000000 0.000000
vn 0.000000 -1.000000 0.000000
vn 0.000000 -1.000000 0.000000
vn 0.000000 1.000000 0.000000
vn 0.000000 1.000000 0.000000
vn 0.000000 1.000000 0.000000
vn 0.000000 1.000000 0.000000
vn 0.000000 -1.000000 0.000001
vn 0.000000 -1.000000 0.000001
vn 0.000000 -1.000000 0.000001
vn 0.000000 -1.000000 0.000001
vn 0.000000 1.000000 -0.000001
vn 0.000000 1.000000 -0.000001
vn 0.000000 1.000000 -0.000001
vn 0.000000 1.000000 -0.000001
vn 0.000000 -1.000000 0.000000
vn 0.000000 -1.000000 0.000000
vn 0.000000 -1.000000 0.000000
vn 0.000000 -1.000000 0.000000
vn 0.000000 1.000000 0.000000
vn 0.000000 1.000000 0.000000
vn 0.000000 1.000000 0.000000
vn 0.000000 1.000000 0.000000
vn 0.000000 0.999627 -0.027325
vn 0.000000 0.999627 -0.027325
vn 0.000000 0.999627 -0.027325
vn 0.000000 0.999627 0.027325
vn 0.000000 0.999627 0.027325
vn 0.000000 0.999627 0.027325
vn 0.027325 0.999627 0.000000
vn 0.027325 0.999627 0.000000
vn 0.027325 0.999627 0.000000
s off
f 25/3/1 26/4/2 27/5/3 28/6/4
f 33/11/5 49/12/6 36/15/7
f 29/16/8 30/57/9 31/58/10 32/59/11
f 3/8/12 4/9/13 2/2/14 1/14/15
f 26/4/16 31/58/17 30/57/18 27/5/19
f 32/59/20 25/3/21 28/6/22 29/16/23
f 6/19/24 5/17/25 16/39/26 13/33/27
f 13/34/28 14/35/29 7/21/30 6/20/31
f 8/24/32 7/22/33 14/36/34 15/38/35
f 5/18/36 8/23/37 15/37/38 16/40/39
f 10/27/40 9/25/41 20/47/42 17/41/43
f 17/42/44 18/43/45 11/29/46 10/28/47
f 12/32/48 11/30/49 18/44/50 19/46/51
f 9/26/52 12/31/53 19/45/54 20/48/55
f 36/15/56 35/60/57 37/61/58 38/62/59
f 39/63/60 37/61/61 35/60/62 34/64/63
f 40/65/64 39/63/65 34/64/66 33/11/67
f 38/62/68 40/65/69 33/11/70 36/15/71
f 41/66/72 42/67/73 43/68/74 44/69/75
f 45/70/76 43/68/77 42/67/78 46/71/79
f 47/72/80 45/70/81 46/71/82 48/73/83
f 44/69/84 47/72/85 48/73/86 41/66/87
f 1/14/88 2/2/89 22/51/90 21/50/91
f 2/10/92 4/7/93 23/54/94 22/52/95
f 24/56/96 23/53/97 4/9/98 3/8/99
f 3/13/100 1/1/101 21/49/102 24/55/103
f 21/74/104 22/75/105 26/4/106 25/3/107
f 12/76/108 9/77/109 28/6/110 27/5/111
f 10/78/112 11/79/113 30/57/114 29/16/115
f 23/80/116 24/81/117 32/59/118 31/58/119
f 22/75/120 23/80/121 31/58/122 26/4/123
f 11/79/124 12/76/125 27/5/126 30/57/127
f 24/81/128 21/74/129 25/3/130 32/59/131
f 9/77/132 10/78/133 29/16/134 28/6/135
f 14/82/136 13/83/137 38/62/138 37/61/139
f 15/84/140 14/82/141 37/61/142 39/63/143
f 16/85/144 15/84/145 39/63/146 40/65/147
f 13/83/148 16/85/149 40/65/150 38/62/151
f 6/86/152 7/87/153 42/67/154 41/66/155
f 18/88/156 17/89/157 44/69/158 43/68/159
f 19/90/160 18/88/161 43/68/162 45/70/163
f 7/87/164 8/91/165 46/71/166 42/67/167
f 20/92/168 19/90/169 45/70/170 47/72/171
f 8/91/172 5/93/173 48/73/174 46/71/175
f 17/89/176 20/92/177 47/72/178 44/69/179
f 5/93/180 6/86/181 41/66/182 48/73/183
f 36/15/184 49/12/185 35/60/186
f 33/11/187 34/64/188 49/12/189
f 35/60/190 49/12/191 34/64/192
