# This file uses centimeters as units for non-parametric coordinates.

v 60.117188 -154.635010 1.170654
v 60.117188 -154.635010 42.269440
v 72.262573 -148.463135 1.170502
v 72.263184 -148.462677 42.269440
v 78.388672 -161.062317 1.170502
v 78.389282 -161.061859 42.269440
v 66.243896 -167.234344 1.170654
v 66.243896 -167.234344 42.269440
v -7.092896 -16.407013 1.170654
v -7.092896 -16.407013 42.269440
v 5.052490 -10.234833 1.170502
v 5.053101 -10.234528 42.269440
v 11.178589 -22.834015 1.170502
v 11.179199 -22.833862 42.269440
v -0.966797 -29.006195 1.170654
v -0.966797 -29.006195 42.269440
v -0.000610 0.000153 28.261261
v 120.502930 -252.186279 28.060455
v 8.992310 4.373169 28.261261
v 129.496460 -247.813721 28.060455
v 8.992310 4.373169 14.251556
v 129.496460 -247.813721 14.050751
v -0.000610 0.000153 14.251556
v 120.502930 -252.186279 14.050751
v 2.828369 12.384644 43.097687
v -2.333374 -0.924072 43.313446
v 137.319611 -260.839844 43.313446
v 111.553955 -207.847900 43.313446
v 103.442993 -214.401703 43.313446
v 85.786743 -154.853363 43.313446
v 77.677002 -161.407776 43.313446
v 60.020142 -101.859741 43.313446
v 51.909790 -108.414459 43.313446
v 34.252930 -48.867188 43.313446
v 26.823120 -56.933594 43.313446
v 36.962280 -50.371094 -0.800781
v 2.828369 12.384644 -0.692902
v -2.333374 -0.924072 -0.800781
v 137.319611 -260.839844 -0.800781
v 111.553955 -207.847748 -0.800781
v 85.786743 -154.853363 -0.800781
v 60.020752 -101.860199 -0.800781
v 6.926270 3.473053 21.256256
v 147.068481 -257.021362 21.261444
v 121.494141 -203.546600 21.251373
v 96.874390 -153.456879 21.250458
v 69.989624 -97.674103 21.287384
v 45.432739 -46.234283 21.256256
v 12.905273 17.284088 21.256256
v 37.493286 -44.356689 43.313446
v 47.571411 -39.456482 21.256256
v 63.363647 -97.299347 43.313446
v 73.551025 -92.099457 21.265274
v 66.072388 -98.803101 -0.800781
v 89.215698 -150.251007 43.313446
v 99.290161 -144.464874 21.253204
v 89.216309 -150.251160 -0.800781
v 115.863647 -202.816772 43.313446
v 125.363770 -196.239471 21.252594
v 115.863647 -202.816772 -0.800781
v 142.203644 -255.529175 43.313446
v 149.307587 -250.869888 21.256866
v 37.493286 -44.356384 -0.800781
v 142.203644 -255.529175 -0.800781
v 106.205444 -210.237732 43.313446
v 80.438843 -157.244110 43.313446
v 54.672241 -104.250336 43.313446
v 28.905029 -51.257782 43.313446
v 103.442993 -214.401703 -0.800781
v 77.677002 -161.407776 -0.800781
v 51.909790 -108.414459 -0.800781
v 26.823120 -56.933594 -0.800781
v 131.972382 -263.231079 -0.800781
v 106.205444 -210.237732 -0.800781
v 80.438843 -157.244110 -0.800781
v 54.672241 -104.250336 -0.800781
v 28.905029 -51.257782 -0.800781
v 37.470093 -47.093506 21.256256
v 35.388184 -52.769165 21.256256
v 63.237305 -100.085754 21.256256
v 60.474243 -104.250031 21.256256
v 89.003906 -153.079529 21.256256
v 86.241455 -157.243500 21.256256
v 114.769897 -206.073456 21.256256
v 112.008057 -210.237274 21.256256
v -3.154907 -5.223999 52.012787
v 24.044189 -49.049988 52.000137
v 28.701172 -46.968536 52.006683
v 31.522827 -43.041077 52.012787
v 1.339111 6.364136 51.811981
v 51.038818 -112.941132 52.013840
v 75.879517 -155.457764 52.013840
v 80.535889 -153.376007 52.013840
v 83.521729 -149.368744 52.013840
v 58.100586 -107.234039 52.013840
v 53.444214 -109.315491 52.013840
v 102.640381 -218.938599 52.013840
v 132.136841 -259.372681 52.013840
v 136.389435 -254.748535 52.013840
v 109.702759 -213.232117 52.013840
v 105.045776 -215.312958 52.013840
v 27.002563 -55.129852 -9.132996
v 25.087891 -60.349426 -9.132996
v 34.411621 -54.314575 -9.132996
v 61.181641 -98.852692 -9.132996
v 55.616455 -101.664276 -9.132996
v 50.698242 -103.862000 -9.132996
v 78.463745 -161.074524 -9.132996
v 75.923462 -164.903717 -9.132996
v 83.381958 -158.876038 -9.132996
v 111.040649 -202.983551 -9.132996
v 107.077637 -207.610016 -9.132996
v 102.158813 -209.807892 -9.132996
vt 0.488241 0.155979
vt 0.487357 0.156563
vt 0.487345 0.156529
vt 0.488197 0.155881
vt 0.487391 0.156514
vt 0.488303 0.155858
vt 0.487403 0.156547
vt 0.488345 0.155952
vt 0.488241 0.155979
vt 0.487357 0.156563
vt 0.487345 0.156529
vt 0.488197 0.155881
vt 0.487391 0.156514
vt 0.488303 0.155858
vt 0.487403 0.156547
vt 0.488345 0.155952
vt 0.488241 0.155979
vt 0.487357 0.156563
vt 0.487345 0.156529
vt 0.488197 0.155881
vt 0.487391 0.156514
vt 0.488303 0.155858
vt 0.487403 0.156547
vt 0.488345 0.155952
vt 0.238294 0.289418
vt 0.238717 0.302326
vt 0.238674 0.302305
vt 0.238663 0.288759
vt 0.238706 0.288781
vt 0.238344 0.296168
vt 0.238306 0.289430
vt 0.238654 0.302307
vt 0.238642 0.288762
vt 0.238581 0.288978
vt 0.238575 0.288972
vt 0.238573 0.302393
vt 0.238635 0.295055
vt 0.238641 0.295751
vt 0.238591 0.302393
vt 0.238593 0.288972
vt 0.238587 0.288984
vt 0.238512 0.289087
vt 0.238506 0.289082
vt 0.238503 0.302503
vt 0.238520 0.302505
vt 0.238563 0.302529
vt 0.238565 0.289108
vt 0.238523 0.289085
vt 0.238519 0.263455
vt 0.238443 0.263560
vt 0.238436 0.263555
vt 0.238434 0.276977
vt 0.238506 0.263445
vt 0.238512 0.263450
vt 0.238523 0.263448
vt 0.238449 0.276983
vt 0.238491 0.277007
vt 0.238565 0.263471
vt 0.238493 0.263586
vt 0.238451 0.263561
vt 0.238450 0.314751
vt 0.238373 0.314858
vt 0.238366 0.314854
vt 0.238362 0.328275
vt 0.238436 0.314741
vt 0.238443 0.314746
vt 0.238451 0.289448
vt 0.238375 0.302984
vt 0.238416 0.303010
vt 0.238493 0.289472
vt 0.238420 0.288289
vt 0.238379 0.289563
vt 0.238362 0.302975
vt 0.238436 0.289442
vt 0.238366 0.289554
vt 0.238380 0.289313
vt 0.238289 0.302839
vt 0.238366 0.289304
vt 0.238373 0.289309
vt 0.238300 0.302851
vt 0.238353 0.296809
vt 0.238420 0.288040
vt 0.238379 0.289314
vt 0.238302 0.289422
vt 0.238294 0.289418
vt 0.238654 0.302307
vt 0.238642 0.288762
vt 0.238573 0.302393
vt 0.238575 0.288972
vt 0.238581 0.288978
vt 0.238587 0.288984
vt 0.238503 0.302503
vt 0.238506 0.289082
vt 0.238512 0.289087
vt 0.238519 0.263455
vt 0.238512 0.263450
vt 0.238506 0.263445
vt 0.238434 0.276977
vt 0.238436 0.263555
vt 0.238443 0.263560
vt 0.237243 0.279361
vt 0.237260 0.279338
vt 0.237277 0.279316
vt 0.237485 0.279586
vt 0.237479 0.279622
vt 0.237464 0.279645
vt 0.238380 0.289313
vt 0.238373 0.289309
vt 0.238366 0.289304
vt 0.238289 0.302839
vt 0.239130 0.261463
vt 0.239162 0.276433
vt 0.239232 0.276433
vt 0.239193 0.261463
vt 0.239194 0.261148
vt 0.239243 0.276040
vt 0.239331 0.276045
vt 0.239271 0.261150
vt 0.239197 0.276575
vt 0.239132 0.276575
vt 0.239276 0.276261
vt 0.239198 0.276259
vt 0.239159 0.261321
vt 0.239228 0.261322
vt 0.239394 0.275763
vt 0.239324 0.260936
vt 0.239238 0.260932
vt 0.239302 0.275759
vt 0.239500 0.275776
vt 0.239410 0.260941
vt 0.239418 0.276050
vt 0.239348 0.261153
vt 0.239354 0.276263
vt 0.239298 0.261323
vt 0.239303 0.276434
vt 0.239257 0.261462
vt 0.239261 0.276574
vt 0.239223 0.261579
vt 0.238654 0.302307
vt 0.238581 0.288978
vt 0.238575 0.288972
vt 0.238573 0.302393
vt 0.238642 0.288762
vt 0.238519 0.263455
vt 0.238443 0.263560
vt 0.238436 0.263555
vt 0.238434 0.276977
vt 0.238506 0.263445
vt 0.238512 0.263450
vt 0.238380 0.289313
vt 0.238294 0.289418
vt 0.238289 0.302839
vt 0.238366 0.289304
vt 0.238373 0.289309
vt 0.238587 0.288984
vt 0.238581 0.288978
vt 0.238575 0.288972
vt 0.238503 0.302503
vt 0.238506 0.289082
vt 0.238512 0.289087
vt 0.237243 0.279361
vt 0.237260 0.279338
vt 0.237277 0.279316
vt 0.237485 0.279586
vt 0.237479 0.279622
vt 0.237464 0.279645
vn -0.453033 0.891494 -0.000002
vn -0.453033 0.891494 -0.000002
vn -0.453033 0.891494 -0.000002
vn -0.453033 0.891494 -0.000002
vn 0.899326 0.437279 -0.000018
vn 0.899326 0.437279 -0.000018
vn 0.899326 0.437279 -0.000018
vn 0.899326 0.437279 -0.000018
vn 0.453060 -0.891480 0.000002
vn 0.453060 -0.891480 0.000002
vn 0.453060 -0.891480 0.000002
vn 0.453060 -0.891480 0.000002
vn -0.899311 -0.437310 0.000000
vn -0.899311 -0.437310 0.000000
vn -0.899311 -0.437310 0.000000
vn -0.899311 -0.437310 0.000000
vn 0.000000 0.000000 1.000000
vn 0.000000 0.000000 1.000000
vn 0.000000 0.000000 1.000000
vn 0.000000 0.000000 1.000000
vn -0.000010 -0.000005 -1.000000
vn -0.000010 -0.000005 -1.000000
vn -0.000010 -0.000005 -1.000000
vn -0.000010 -0.000005 -1.000000
vn -0.453046 0.891487 0.000000
vn -0.453046 0.891487 0.000000
vn -0.453046 0.891487 0.000000
vn -0.453046 0.891487 0.000000
vn 0.899327 0.437277 -0.000016
vn 0.899327 0.437277 -0.000016
vn 0.899327 0.437277 -0.000016
vn 0.899327 0.437277 -0.000016
vn 0.453041 -0.891490 -0.000002
vn 0.453041 -0.891490 -0.000002
vn 0.453041 -0.891489 -0.000002
vn 0.453041 -0.891489 -0.000002
vn -0.899326 -0.437279 0.000000
vn -0.899326 -0.437279 0.000000
vn -0.899326 -0.437279 0.000000
vn -0.899326 -0.437279 0.000000
vn -0.000000 0.000000 1.000000
vn -0.000000 0.000000 1.000000
vn -0.000000 0.000000 1.000000
vn -0.000000 0.000000 1.000000
vn -0.000010 -0.000005 -1.000000
vn -0.000010 -0.000005 -1.000000
vn -0.000010 -0.000005 -1.000000
vn -0.000010 -0.000005 -1.000000
vn 0.000314 -0.000646 1.000000
vn 0.000314 -0.000646 1.000000
vn 0.000314 -0.000646 1.000000
vn 0.000314 -0.000646 1.000000
vn 0.902283 0.431144 0.000000
vn 0.902283 0.431144 0.000000
vn 0.902283 0.431144 0.000000
vn 0.902283 0.431144 0.000000
vn -0.000314 0.000646 -1.000000
vn -0.000314 0.000646 -1.000000
vn -0.000314 0.000646 -1.000000
vn -0.000314 0.000646 -1.000000
vn -0.902284 -0.431143 0.000000
vn -0.902284 -0.431143 0.000000
vn -0.902284 -0.431143 0.000000
vn -0.902284 -0.431143 0.000000
vn 0.437250 -0.899340 0.000000
vn 0.437250 -0.899340 0.000000
vn 0.437250 -0.899340 0.000000
vn 0.437250 -0.899340 0.000000
vn -0.437311 0.899311 0.000000
vn -0.437311 0.899311 0.000000
vn -0.437311 0.899311 0.000000
vn -0.437311 0.899311 0.000000
vn -0.879716 0.360151 0.310468
vn -0.879716 0.360151 0.310468
vn -0.879716 0.360151 0.310468
vn -0.879716 0.360151 0.310468
vn -0.879829 0.358954 -0.311532
vn -0.879829 0.358954 -0.311532
vn -0.879829 0.358954 -0.311532
vn -0.879829 0.358954 -0.311532
vn 0.006604 0.006058 0.999960
vn 0.006604 0.006058 0.999960
vn 0.006604 0.006058 0.999960
vn 0.006604 0.006058 0.999960
vn 0.006604 0.006058 0.999960
vn 0.918157 -0.191611 -0.346805
vn 0.918157 -0.191611 -0.346805
vn 0.918157 -0.191611 -0.346805
vn 0.918157 -0.191611 -0.346805
vn 0.760948 0.465328 -0.452137
vn 0.760948 0.465328 -0.452137
vn 0.760948 0.465328 -0.452137
vn 0.760948 0.465328 -0.452137
vn 0.848961 -0.404541 0.340018
vn 0.848961 -0.404541 0.340018
vn 0.848961 -0.404541 0.340018
vn 0.848961 -0.404541 0.340018
vn 0.760380 0.465411 0.453006
vn 0.760380 0.465411 0.453006
vn 0.760380 0.465411 0.453006
vn 0.760380 0.465411 0.453006
vn 0.000000 0.000000 1.000000
vn 0.000000 0.000000 1.000000
vn 0.000000 0.000000 1.000000
vn 0.000000 0.000000 1.000000
vn 0.000000 0.000000 1.000000
vn 0.000000 0.000000 1.000000
vn 0.783517 0.475473 -0.400034
vn 0.783517 0.475473 -0.400034
vn 0.783517 0.475473 -0.400034
vn 0.783517 0.475473 -0.400034
vn 0.665857 -0.741759 -0.080173
vn 0.665857 -0.741759 -0.080173
vn 0.665857 -0.741759 -0.080173
vn 0.665857 -0.741759 -0.080173
vn 0.762680 0.462914 0.451697
vn 0.762680 0.462913 0.451697
vn 0.762680 0.462913 0.451697
vn 0.762680 0.462914 0.451697
vn 0.800429 -0.544779 0.250057
vn 0.800429 -0.544779 0.250057
vn 0.800429 -0.544779 0.250057
vn 0.800429 -0.544779 0.250057
vn 0.000000 0.000000 1.000000
vn 0.000000 0.000000 1.000000
vn 0.000000 0.000000 1.000000
vn 0.000000 0.000000 1.000000
vn 0.000000 0.000000 1.000000
vn 0.000000 0.000000 1.000000
vn 0.760388 0.467475 -0.450863
vn 0.760388 0.467475 -0.450863
vn 0.760388 0.467475 -0.450863
vn 0.760388 0.467475 -0.450863
vn 0.859791 -0.369628 -0.352329
vn 0.859791 -0.369628 -0.352329
vn 0.859791 -0.369628 -0.352328
vn 0.859791 -0.369628 -0.352329
vn 0.760328 0.467113 0.451340
vn 0.760328 0.467113 0.451340
vn 0.760328 0.467113 0.451340
vn 0.760328 0.467113 0.451340
vn 0.859804 -0.369732 0.352187
vn 0.859804 -0.369732 0.352187
vn 0.859804 -0.369732 0.352187
vn 0.859804 -0.369732 0.352187
vn 0.000000 0.000000 1.000000
vn 0.000000 0.000000 1.000000
vn 0.000000 0.000000 1.000000
vn 0.000000 0.000000 1.000000
vn 0.000000 0.000000 1.000000
vn 0.000000 0.000000 1.000000
vn 0.754433 0.486891 -0.440191
vn 0.754433 0.486891 -0.440191
vn 0.754433 0.486891 -0.440191
vn 0.754433 0.486891 -0.440191
vn 0.812091 -0.538340 -0.225164
vn 0.812091 -0.538340 -0.225164
vn 0.812091 -0.538340 -0.225164
vn 0.812091 -0.538340 -0.225164
vn 0.754488 0.486947 0.440035
vn 0.754488 0.486947 0.440035
vn 0.754488 0.486947 0.440035
vn 0.754488 0.486947 0.440035
vn 0.812093 -0.538377 0.225065
vn 0.812093 -0.538377 0.225065
vn 0.812093 -0.538377 0.225065
vn 0.812093 -0.538377 0.225065
vn 0.000000 0.000000 1.000000
vn 0.000000 0.000000 1.000000
vn 0.000000 0.000000 1.000000
vn 0.000000 0.000000 1.000000
vn 0.000000 0.000000 1.000000
vn 0.780826 0.480475 -0.399317
vn 0.780827 0.480475 -0.399317
vn 0.780827 0.480475 -0.399317
vn 0.780827 0.480475 -0.399317
vn 0.828953 -0.515240 -0.217636
vn 0.828953 -0.515240 -0.217636
vn 0.828953 -0.515240 -0.217636
vn 0.828953 -0.515240 -0.217636
vn 0.780831 0.480524 0.399249
vn 0.780831 0.480524 0.399249
vn 0.780831 0.480524 0.399249
vn 0.780831 0.480524 0.399249
vn 0.829011 -0.515101 0.217742
vn 0.829011 -0.515101 0.217742
vn 0.829011 -0.515101 0.217742
vn 0.829011 -0.515101 0.217742
vn 0.003231 0.002963 -0.999990
vn 0.003231 0.002963 -0.999990
vn 0.003231 0.002963 -0.999990
vn 0.003231 0.002963 -0.999990
vn 0.003231 0.002963 -0.999990
vn 0.000000 0.000000 -1.000000
vn 0.000000 0.000000 -1.000000
vn 0.000000 0.000000 -1.000000
vn 0.000000 0.000000 -1.000000
vn 0.000000 0.000000 -1.000000
vn 0.000000 0.000000 -1.000000
vn 0.000000 0.000000 -1.000000
vn 0.000000 0.000000 -1.000000
vn 0.000000 0.000000 -1.000000
vn 0.000000 0.000000 -1.000000
vn 0.000000 0.000000 -1.000000
vn 0.000000 0.000000 -1.000000
vn 0.000000 0.000000 -1.000000
vn 0.000000 0.000000 -1.000000
vn 0.000000 0.000000 -1.000000
vn 0.000000 0.000000 -1.000000
vn 0.000000 0.000000 -1.000000
vn 0.000000 0.000000 -1.000000
vn 0.000000 0.000000 -1.000000
vn 0.000000 0.000000 -1.000000
vn 0.000000 0.000000 -1.000000
vn 0.000000 0.000000 -1.000000
vn 0.000000 0.000000 -1.000000
vn 0.000000 0.000000 -1.000000
vn -0.793071 -0.463344 -0.395413
vn -0.793071 -0.463344 -0.395413
vn -0.863438 -0.504455 0.000000
vn -0.863438 -0.504455 0.000000
vn -0.791597 -0.465909 -0.395352
vn -0.791597 -0.465909 -0.395352
vn -0.861809 -0.507234 0.000000
vn -0.861809 -0.507234 -0.000000
vn -0.833321 0.552790 -0.000000
vn -0.847470 -0.530114 0.027827
vn -0.807603 -0.586389 -0.062648
vn -0.813993 0.539968 -0.214128
vn -0.833284 0.552846 -0.000000
vn -0.905535 -0.424271 0.000000
vn -0.819460 -0.413987 -0.396357
vn -0.813961 0.540026 -0.214100
vn -0.813989 0.539975 -0.214123
vn -0.831361 -0.389534 -0.396362
vn -0.892560 -0.450928 -0.000000
vn -0.833317 0.552796 -0.000000
vn -0.905535 -0.424271 0.000000
vn -0.892560 -0.450928 -0.000000
vn -0.831361 -0.389534 -0.396362
vn -0.819460 -0.413987 -0.396357
vn -0.852827 -0.522194 0.000000
vn -0.852827 -0.522194 -0.000000
vn -0.778892 -0.476923 -0.407274
vn -0.778892 -0.476923 -0.407274
vn -0.899352 0.329890 -0.286946
vn -0.899352 0.329890 -0.286946
vn -0.938833 0.344372 -0.000000
vn -0.938833 0.344372 0.000000
vn -0.778891 -0.476922 0.407276
vn -0.778891 -0.476922 0.407277
vn -0.852827 -0.522194 -0.000000
vn -0.852827 -0.522194 0.000000
vn -0.938833 0.344372 0.000000
vn -0.938833 0.344372 -0.000000
vn -0.899352 0.329890 0.286948
vn -0.899352 0.329890 0.286948
vn -0.861809 -0.507234 -0.000000
vn -0.861809 -0.507234 0.000000
vn -0.791596 -0.465909 0.395354
vn -0.791596 -0.465909 0.395354
vn -0.819459 -0.413987 0.396360
vn -0.905535 -0.424271 0.000000
vn -0.833284 0.552846 -0.000000
vn -0.813961 0.540026 0.214101
vn -0.831360 -0.389533 0.396364
vn -0.892560 -0.450928 -0.000000
vn -0.905535 -0.424271 0.000000
vn -0.819459 -0.413987 0.396360
vn -0.833317 0.552796 -0.000000
vn -0.892560 -0.450928 -0.000000
vn -0.831360 -0.389533 0.396364
vn -0.813989 0.539975 0.214123
vn -0.863438 -0.504455 0.000000
vn -0.863438 -0.504455 0.000000
vn -0.793070 -0.463344 0.395416
vn -0.793070 -0.463344 0.395415
vn -0.841811 -0.366671 0.396115
vn -0.847470 -0.530114 0.027827
vn -0.833321 0.552790 -0.000000
vn -0.813993 0.539968 0.214129
vn -0.789829 -0.613140 -0.015131
vn -0.847470 -0.530114 0.027827
vn -0.841811 -0.366671 0.396115
vn -0.804176 -0.499045 -0.322885
vn -0.804176 -0.499045 -0.322885
vn -0.804176 -0.499045 -0.322885
vn -0.804176 -0.499045 -0.322885
vn 0.370495 -0.829485 0.417957
vn 0.370495 -0.829485 0.417957
vn 0.370495 -0.829485 0.417957
vn 0.370495 -0.829485 0.417957
vn 0.682067 -0.490404 0.542484
vn 0.682067 -0.490404 0.542484
vn 0.682067 -0.490404 0.542484
vn 0.682067 -0.490404 0.542484
vn 0.760500 0.466389 0.451797
vn 0.760500 0.466389 0.451797
vn 0.760500 0.466389 0.451797
vn 0.760500 0.466389 0.451797
vn -0.927950 0.361411 0.091056
vn -0.927950 0.361411 0.091056
vn -0.927950 0.361411 0.091056
vn -0.927950 0.361411 0.091056
vn -0.815237 -0.476308 -0.329423
vn -0.815237 -0.476308 -0.329423
vn -0.815237 -0.476308 -0.329423
vn -0.815237 -0.476308 -0.329423
vn 0.378767 -0.847241 0.372450
vn 0.378767 -0.847241 0.372450
vn 0.378767 -0.847241 0.372450
vn 0.378767 -0.847241 0.372450
vn 0.692035 -0.515617 0.505199
vn 0.692035 -0.515617 0.505199
vn 0.692035 -0.515617 0.505199
vn 0.692035 -0.515617 0.505199
vn 0.763383 0.460569 0.452906
vn 0.763383 0.460569 0.452906
vn 0.763383 0.460569 0.452906
vn 0.763383 0.460569 0.452906
vn -0.368782 0.824991 0.428240
vn -0.368782 0.824991 0.428240
vn -0.368782 0.824991 0.428240
vn -0.368783 0.824991 0.428240
vn -0.816448 0.541644 0.200084
vn -0.816448 0.541644 0.200084
vn -0.816448 0.541644 0.200084
vn -0.816448 0.541644 0.200084
vn -0.754727 -0.550572 -0.356732
vn -0.754727 -0.550572 -0.356732
vn -0.754727 -0.550572 -0.356732
vn -0.754727 -0.550572 -0.356732
vn 0.644232 -0.592472 0.483676
vn 0.644232 -0.592472 0.483676
vn 0.644232 -0.592472 0.483676
vn 0.644231 -0.592472 0.483676
vn 0.748271 0.480990 0.456880
vn 0.748271 0.480990 0.456880
vn 0.748271 0.480990 0.456880
vn 0.748271 0.480990 0.456880
vn -0.368034 0.823669 0.431418
vn -0.368033 0.823669 0.431418
vn -0.368033 0.823669 0.431418
vn -0.368033 0.823669 0.431418
vn -0.815274 0.540875 0.206841
vn -0.815274 0.540875 0.206841
vn -0.815274 0.540875 0.206841
vn -0.815274 0.540875 0.206841
vn -0.937449 0.343870 0.054251
vn -0.937449 0.343870 0.054251
vn -0.937449 0.343870 0.054251
vn -0.937449 0.343870 0.054251
vn -0.100232 0.910843 -0.400397
vn -0.100232 0.910843 -0.400397
vn -0.100232 0.910843 -0.400397
vn -0.100232 0.910843 -0.400397
vn 0.764711 0.459633 -0.451613
vn 0.764711 0.459633 -0.451613
vn 0.764711 0.459633 -0.451613
vn 0.764711 0.459633 -0.451613
vn 0.436474 -0.863984 -0.251042
vn 0.436474 -0.863984 -0.251042
vn 0.436474 -0.863984 -0.251042
vn 0.436474 -0.863984 -0.251042
vn 0.396976 -0.888354 -0.230732
vn 0.396976 -0.888354 -0.230732
vn 0.396976 -0.888354 -0.230732
vn 0.396976 -0.888354 -0.230732
vn -0.803611 -0.472982 0.361245
vn -0.803611 -0.472982 0.361245
vn -0.803611 -0.472982 0.361245
vn -0.803611 -0.472982 0.361245
vn -0.831991 0.551906 -0.056484
vn -0.831991 0.551906 -0.056484
vn -0.831991 0.551906 -0.056484
vn -0.831991 0.551906 -0.056484
vn -0.388356 0.868752 -0.307327
vn -0.388356 0.868752 -0.307327
vn -0.388356 0.868752 -0.307327
vn -0.388356 0.868752 -0.307327
vn 0.757457 0.474984 -0.447939
vn 0.757457 0.474984 -0.447939
vn 0.757457 0.474984 -0.447939
vn 0.757457 0.474984 -0.447939
vn 0.698554 -0.598391 -0.392365
vn 0.698554 -0.598391 -0.392365
vn 0.698554 -0.598391 -0.392365
vn 0.698554 -0.598391 -0.392365
vn 0.396224 -0.886725 -0.238170
vn 0.396224 -0.886725 -0.238170
vn 0.396224 -0.886725 -0.238170
vn 0.396224 -0.886725 -0.238170
vn -0.803512 -0.469449 0.366042
vn -0.803512 -0.469449 0.366042
vn -0.803512 -0.469449 0.366042
vn -0.803512 -0.469449 0.366042
vn -0.789829 -0.613140 -0.015131
vn -0.781818 -0.621208 -0.053500
vn -0.781818 -0.621208 -0.053500
vn -0.781818 -0.621208 -0.053500
vn -0.807603 -0.586389 -0.062648
vn -0.847470 -0.530114 0.027827
s off
f 1/1/1 2/2/2 4/3/3 3/4/4
f 3/4/5 4/3/6 6/5/7 5/6/8
f 5/6/9 6/5/10 8/7/11 7/8/12
f 7/8/13 8/7/14 2/2/15 1/1/16
f 2/2/17 8/7/18 6/5/19 4/3/20
f 7/8/21 1/1/22 3/4/23 5/6/24
f 9/9/25 10/10/26 12/11/27 11/12/28
f 11/12/29 12/11/30 14/13/31 13/14/32
f 13/14/33 14/13/34 16/15/35 15/16/36
f 15/16/37 16/15/38 10/10/39 9/9/40
f 10/10/41 16/15/42 14/13/43 12/11/44
f 15/16/45 9/9/46 11/12/47 13/14/48
f 17/17/49 18/18/50 20/19/51 19/20/52
f 19/20/53 20/19/54 22/21/55 21/22/56
f 21/22/57 22/21/58 24/23/59 23/24/60
f 23/24/61 24/23/62 18/18/63 17/17/64
f 18/18/65 24/23/66 22/21/67 20/19/68
f 23/24/69 17/17/70 19/20/71 21/22/72
f 38/26/73 43/27/74 49/28/75 37/29/76
f 43/27/77 26/32/78 25/33/79 49/28/80
f 86/139/81 87/140/82 88/141/83 89/142/84 90/143/85
f 36/37/86 63/38/87 51/39/88 48/40/89
f 51/39/90 63/38/91 37/29/92 49/28/93
f 48/40/94 51/39/95 50/36/96 34/35/97
f 50/36/98 51/39/99 49/28/100 25/33/101
f 35/41/102 67/42/103 32/43/104 52/44/105 34/35/106 68/34/107
f 48/40/108 53/45/109 54/46/110 36/37/111
f 42/47/112 54/46/113 53/45/114 47/48/115
f 52/44/116 53/45/117 48/40/118 34/35/119
f 47/48/120 53/45/121 52/44/122 32/43/123
f 91/144/124 92/145/125 93/146/126 94/147/127 95/148/128 96/149/129
f 47/55/130 56/56/131 57/57/132 42/58/133
f 41/59/134 57/57/135 56/56/136 46/60/137
f 55/52/138 56/56/139 47/55/140 32/53/141
f 46/60/142 56/56/143 55/52/144 30/51/145
f 31/61/146 65/62/147 28/63/148 58/64/149 30/65/150 66/66/151
f 46/67/152 59/68/153 60/69/154 41/70/155
f 40/71/156 60/69/157 59/68/158 45/72/159
f 58/73/160 59/68/161 46/67/162 30/74/163
f 45/72/164 59/68/165 58/73/166 28/75/167
f 97/150/168 98/151/169 99/152/170 100/153/171 101/154/172
f 62/80/173 64/81/174 40/82/175 45/83/176
f 39/30/177 64/81/178 62/80/179 44/31/180
f 61/77/181 62/80/182 45/83/183 28/78/184
f 44/31/185 62/80/186 61/77/187 27/25/188
f 38/86/189 37/87/190 63/88/191 36/89/192 77/90/193
f 103/155/194 102/156/195 104/157/196 105/158/197 106/159/198 107/160/199
f 71/95/200 76/96/201 42/97/202 57/98/203 41/99/204 75/100/205
f 109/161/206 108/162/207 110/163/208 111/164/209 112/165/210 113/166/211
f 69/107/212 74/108/213 40/109/214 64/110/215 39/85/216 73/84/217
f 65/111/218 31/112/219 83/113/220 84/114/221
f 67/115/222 35/116/223 79/117/224 80/118/225
f 84/114/226 85/119/227 29/120/228 65/111/229
f 80/118/230 81/121/231 33/122/232 67/115/233
f 31/112/234 66/123/235 82/124/236 83/113/237
f 81/121/238 82/124/239 66/123/240 33/122/241
f 43/125/242 78/126/243 68/127/244 26/128/245
f 35/116/246 68/127/247 78/126/248 79/117/249
f 38/129/250 77/130/251 78/126/252 43/125/253
f 79/117/254 78/126/255 77/130/256 72/131/257
f 80/118/258 79/117/259 72/131/260 76/132/261
f 71/133/262 81/121/263 80/118/264 76/132/265
f 75/134/266 82/124/267 81/121/268 71/133/269
f 83/113/270 82/124/271 75/134/272 70/135/273
f 84/114/274 83/113/275 70/135/276 74/136/277
f 69/137/278 85/119/279 84/114/280 74/136/281
f 73/138/282 85/119/283 69/137/284
f 26/32/285 68/34/286 87/140/287 86/139/288
f 68/34/289 34/35/290 88/141/291 87/140/292
f 34/35/293 50/36/294 89/142/295 88/141/296
f 50/36/297 25/33/298 90/143/299 89/142/300
f 25/33/301 26/32/302 86/139/303 90/143/304
f 33/49/305 66/50/306 92/145/307 91/144/308
f 66/50/309 30/51/310 93/146/311 92/145/312
f 30/51/313 55/52/314 94/147/315 93/146/316
f 55/52/317 32/53/318 95/148/319 94/147/320
f 32/53/321 67/54/322 96/149/323 95/148/324
f 67/54/325 33/49/326 91/144/327 96/149/328
f 97/150/329 29/76/330 27/25/331 98/151/332
f 27/25/333 61/77/334 99/152/335 98/151/336
f 61/77/337 28/78/338 100/153/339 99/152/340
f 28/78/341 65/79/342 101/154/343 100/153/344
f 65/79/345 29/76/346 97/150/347 101/154/348
f 72/91/349 77/90/350 102/156/351 103/155/352
f 77/90/353 36/89/354 104/157/355 102/156/356
f 36/89/357 54/92/358 105/158/359 104/157/360
f 54/92/361 42/93/362 106/159/363 105/158/364
f 42/93/365 76/94/366 107/160/367 106/159/368
f 76/94/369 72/91/370 103/155/371 107/160/372
f 70/101/373 75/102/374 108/162/375 109/161/376
f 75/102/377 41/103/378 110/163/379 108/162/380
f 41/103/381 60/104/382 111/164/383 110/163/384
f 60/104/385 40/105/386 112/165/387 111/164/388
f 40/105/389 74/106/390 113/166/391 112/165/392
f 74/106/393 70/101/394 109/161/395 113/166/396
f 73/84/397 39/30/398 44/31/399 27/25/400 29/120/401 85/119/402
