# This file uses centimeters as units for non-parametric coordinates.

v -215.570831 0.000000 -216.076660
v -47.909546 114.663025 -188.960281
v 43.606567 0.000000 -324.011993
v 40.511703 57.332993 -190.753937
v -215.570831 0.000000 -41.003426
v 12.444305 95.967300 -228.305054
v 150.620270 0.000000 -241.528320
v 245.860291 0.000000 -0.000008
v 164.154053 104.486282 14.494316
v -134.206390 55.044273 -63.356033
v -17.142105 152.464676 -124.978638
v 29.594040 177.054703 10.591881
v -69.893646 150.420288 5.340569
v -251.723114 0.000000 -158.586884
v -119.125748 75.335892 -145.816040
v -72.724533 110.380463 -108.319092
v -88.005829 0.000000 -306.732178
v -43.031696 0.000000 -306.102753
v -68.642426 51.344681 -263.363647
v 20.032883 61.388493 -274.356842
v 111.828232 0.000000 -256.208038
v -220.678329 0.000000 27.717583
v -111.612694 72.752380 9.881584
v 213.372040 0.000000 -97.735596
v 119.560623 81.039146 -70.233925
v -2.669525 146.662811 -75.284584
v 251.723099 0.000000 -78.523270
v 144.186783 101.041504 -48.820511
v 8.213806 172.950653 -54.336548
v -161.202621 0.000000 -254.714203
v -155.466461 0.000000 -271.861267
v -79.289246 37.223621 -286.041260
v -55.023193 0.000000 -320.232391
v -122.176369 30.330561 -271.900940
v -117.185204 38.797661 -252.226273
v -150.338745 49.479771 -196.553802
v -111.612694 0.000000 27.717583
v -69.893646 0.000000 27.717583
v 29.594040 0.000000 27.717583
v 164.154053 0.000000 27.717583
v 222.042084 0.000000 -144.606018
v 89.431763 72.003654 -116.168983
vt 0.019699 0.019858
vt 0.019709 0.019848
vt 0.019709 0.019856
vt 0.019686 0.019851
vt 0.019678 0.019856
vt 0.019680 0.019845
vt 0.019687 0.019883
vt 0.019701 0.019877
vt 0.019702 0.019883
vt 0.019688 0.019889
vt 0.019674 0.019882
vt 0.019680 0.019889
vt 0.019696 0.019847
vt 0.019691 0.019842
vt 0.019690 0.019857
vt 0.019699 0.019868
vt 0.019689 0.019860
vt 0.019712 0.019876
vt 0.019706 0.019864
vt 0.019722 0.019844
vt 0.019726 0.019858
vt 0.019716 0.019863
vt 0.019702 0.019844
vt 0.019696 0.019843
vt 0.019691 0.019840
vt 0.019695 0.019839
vt 0.019674 0.019860
vt 0.019718 0.019872
vt 0.019712 0.019876
vt 0.019729 0.019864
vt 0.019689 0.019878
vt 0.019677 0.019877
vt 0.019701 0.019873
vt 0.019705 0.019838
vt 0.019701 0.019842
vt 0.019706 0.019840
vt 0.019715 0.019840
vt 0.019722 0.019869
vt 0.019720 0.019871
vt 0.019721 0.019870
vt 0.019720 0.019870
vt 0.019720 0.019870
vt 0.019720 0.019870
vt 0.019720 0.019870
vt 0.019720 0.019870
vt 0.019676 0.019873
vt 0.019689 0.019871
vn -0.528442 0.842542 -0.104274
vn -0.528442 0.842542 -0.104274
vn -0.528442 0.842542 -0.104274
vn 0.538599 0.645165 -0.541917
vn 0.538599 0.645165 -0.541917
vn 0.538599 0.645165 -0.541917
vn 0.466885 0.861121 -0.201219
vn 0.466885 0.861121 -0.201219
vn 0.466885 0.861121 -0.201219
vn 0.466885 0.861121 -0.201219
vn 0.723200 0.684939 -0.088550
vn 0.723200 0.684938 -0.088550
vn 0.723200 0.684939 -0.088550
vn 0.723200 0.684938 -0.088550
vn -0.164675 0.581263 -0.796879
vn -0.164675 0.581263 -0.796879
vn -0.164675 0.581263 -0.796879
vn -0.164675 0.581263 -0.796879
vn 0.425272 0.674776 -0.603176
vn 0.425272 0.674776 -0.603176
vn 0.425272 0.674776 -0.603176
vn -0.259738 0.965368 0.024509
vn -0.259738 0.965368 0.024509
vn -0.259738 0.965368 0.024509
vn -0.579824 0.803351 -0.135761
vn -0.579824 0.803351 -0.135761
vn -0.579824 0.803351 -0.135761
vn -0.579824 0.803351 -0.135761
vn -0.510674 0.848325 0.139843
vn -0.510674 0.848325 0.139843
vn -0.510674 0.848325 0.139843
vn -0.510674 0.848325 0.139843
vn -0.637576 0.767003 0.072140
vn -0.637576 0.767003 0.072140
vn -0.637576 0.767003 0.072140
vn -0.734268 0.645816 -0.209219
vn -0.734268 0.645816 -0.209219
vn -0.734268 0.645816 -0.209219
vn -0.325366 0.762947 -0.558614
vn -0.325366 0.762947 -0.558614
vn -0.325366 0.762947 -0.558614
vn -0.324377 0.516468 -0.792490
vn -0.324377 0.516468 -0.792490
vn -0.324377 0.516468 -0.792490
vn -0.161665 0.774380 -0.611719
vn -0.161665 0.774380 -0.611719
vn -0.161665 0.774380 -0.611719
vn -0.161665 0.774380 -0.611719
vn 0.559950 0.821287 -0.109285
vn 0.559950 0.821287 -0.109285
vn 0.559950 0.821287 -0.109285
vn 0.559950 0.821287 -0.109285
vn -0.866876 0.474567 0.152685
vn -0.866876 0.474567 0.152685
vn -0.866876 0.474567 0.152685
vn -0.561846 0.826547 -0.033898
vn -0.561846 0.826547 -0.033898
vn -0.561846 0.826547 -0.033898
vn -0.561846 0.826547 -0.033898
vn 0.514257 0.833966 -0.200103
vn 0.514257 0.833966 -0.200103
vn 0.514257 0.833966 -0.200103
vn 0.514257 0.833966 -0.200103
vn 0.473860 0.879893 -0.035275
vn 0.473860 0.879893 -0.035275
vn 0.473860 0.879893 -0.035275
vn -0.399183 0.904948 -0.147388
vn -0.399183 0.904948 -0.147388
vn -0.399183 0.904948 -0.147388
vn -0.399183 0.904948 -0.147388
vn 0.305841 0.576299 -0.757853
vn 0.305841 0.576299 -0.757853
vn 0.305841 0.576299 -0.757853
vn 0.305841 0.576299 -0.757853
vn 0.302826 0.506497 -0.807315
vn 0.302826 0.506497 -0.807315
vn 0.302826 0.506497 -0.807315
vn 0.302826 0.506497 -0.807315
vn -0.573595 0.642438 -0.508195
vn -0.573594 0.642438 -0.508195
vn -0.573595 0.642438 -0.508195
vn 0.558045 0.705115 -0.437492
vn 0.558045 0.705115 -0.437492
vn 0.558045 0.705115 -0.437492
vn -0.381173 0.478789 -0.790866
vn -0.381173 0.478789 -0.790866
vn -0.381173 0.478789 -0.790866
vn -0.381173 0.478789 -0.790866
vn -0.289116 0.884897 -0.365199
vn -0.289116 0.884897 -0.365199
vn -0.289116 0.884897 -0.365199
vn -0.289116 0.884897 -0.365199
vn 0.435920 0.717449 -0.543361
vn 0.435920 0.717449 -0.543361
vn 0.435920 0.717449 -0.543361
vn 0.435920 0.717449 -0.543361
vn -0.652175 0.735800 -0.182391
vn -0.652175 0.735800 -0.182391
vn -0.652175 0.735800 -0.182391
vn -0.652175 0.735800 -0.182391
vn -0.463314 0.777577 -0.425105
vn -0.463314 0.777577 -0.425105
vn -0.463314 0.777577 -0.425105
vn 0.549760 0.674179 -0.493200
vn 0.549760 0.674179 -0.493200
vn 0.549760 0.674179 -0.493200
vn -0.471750 0.713121 -0.518566
vn -0.471750 0.713121 -0.518566
vn -0.471750 0.713121 -0.518566
vn -0.471750 0.713121 -0.518566
vn -0.493788 0.840419 -0.223316
vn -0.493788 0.840419 -0.223316
vn -0.493788 0.840419 -0.223316
vn -0.493788 0.840419 -0.223316
vn -0.110821 0.176240 0.978089
vn -0.110821 0.176240 0.978089
vn -0.110821 0.176240 0.978089
vn -0.110821 0.176240 0.978089
vn 0.000000 0.238109 0.971238
vn 0.000000 0.238109 0.971238
vn 0.000000 0.238109 0.971238
vn 0.014481 0.107164 0.994136
vn 0.014481 0.107164 0.994136
vn 0.014481 0.107164 0.994136
vn 0.014481 0.107164 0.994136
vn 0.318970 0.118995 0.940265
vn 0.318970 0.118995 0.940265
vn 0.318970 0.118995 0.940265
vn -0.042195 0.119653 0.991919
vn -0.042195 0.119653 0.991919
vn -0.042195 0.119653 0.991919
vn -0.042195 0.119653 0.991919
vn 0.502380 0.762049 0.408530
vn 0.502380 0.762049 0.408530
vn 0.502380 0.762049 0.408529
vn 0.359172 0.874184 -0.326799
vn 0.359172 0.874184 -0.326799
vn 0.359172 0.874184 -0.326799
vn 0.359172 0.874184 -0.326799
vn 0.549761 0.674181 -0.493196
vn 0.549761 0.674181 -0.493196
vn 0.549761 0.674181 -0.493196
s off
f 2/1/1 36/2/2 15/3/3
f 20/4/4 21/5/5 3/6/6
f 28/7/7 29/8/8 12/9/9 9/10/10
f 27/11/11 28/7/12 9/10/13 8/12/14
f 19/13/15 20/4/16 3/6/17 18/14/18
f 4/17/19 2/1/20 11/16/21
f 29/8/22 13/18/23 12/9/24
f 11/16/25 2/1/26 15/3/27 16/19/28
f 15/3/29 14/20/30 5/21/31 10/22/32
f 16/19/33 15/3/34 10/22/35
f 13/18/36 16/19/37 10/22/38
f 2/1/39 19/13/40 35/23/41
f 32/24/42 33/25/43 17/26/44
f 6/15/45 20/4/46 19/13/47 2/1/48
f 4/17/49 7/27/50 21/5/51 6/15/52
f 10/22/53 23/28/54 13/29/55
f 10/22/56 5/21/57 22/30/58 23/28/59
f 41/46/60 42/47/61 25/31/62 24/32/63
f 25/31/64 11/16/65 26/33/66
f 11/16/67 16/19/68 13/18/69 26/33/70
f 24/32/71 25/31/72 28/7/73 27/11/74
f 25/31/75 26/33/76 29/8/77 28/7/78
f 26/33/79 13/18/80 29/8/81
f 6/15/82 21/5/83 20/4/84
f 31/34/85 34/35/86 32/24/87 17/26/88
f 34/35/89 35/23/90 19/13/91 32/24/92
f 19/13/93 18/14/94 33/25/95 32/24/96
f 30/36/97 35/23/98 34/35/99 31/34/100
f 2/1/101 35/23/102 36/2/103
f 42/47/104 11/16/105 25/31/106
f 36/2/107 35/23/108 30/36/109 1/37/110
f 15/3/111 36/2/112 1/37/113 14/20/114
f 23/28/115 37/38/116 38/40/117 13/39/118
f 23/28/119 22/30/120 37/38/121
f 12/42/122 39/41/123 40/44/124 9/43/125
f 9/43/126 40/44/127 8/45/128
f 13/39/129 38/40/130 39/41/131 12/42/132
f 6/15/133 2/1/134 4/17/135
f 4/17/136 42/47/137 41/46/138 7/27/139
f 4/17/140 11/16/141 42/47/142
