# This file uses centimeters as units for non-parametric coordinates.

v -479.033020 135.553223 -10.846680
v -479.033020 135.553223 10.034180
v -484.500275 141.116760 -10.846680
v -483.622894 140.223907 10.034180
v -23.414764 592.325623 -10.846680
v -24.363922 593.291504 10.034180
v -18.896660 587.727966 -10.846680
v -19.923889 588.773315 10.034180
v -28.805016 588.927246 -10.846680
v -18.896660 587.727966 7.961914
v -28.319359 578.468323 10.034180
v -484.500275 141.116760 7.813477
v -468.028656 157.303375 10.034180
v -479.033020 135.553223 -5.461914
v -479.033020 135.553223 0.704102
v -479.793671 136.327271 -3.365234
v -458.649689 155.583893 -3.216797
v -24.363922 593.291504 1.369141
v -27.021889 590.679565 -0.230469
v -386.946594 236.982513 -10.846680
v -339.760590 283.352051 -10.846680
v -364.016693 259.515656 -7.351563
v -363.774597 258.037659 -10.846680
v -112.064995 496.171692 10.034180
v -153.609039 455.346497 10.034180
v -127.711014 483.257874 10.034180
v -127.380371 481.121338 7.508789
v -62.527519 544.852051 -10.846680
v -92.428314 515.468628 -10.846680
v -74.066803 535.143555 -10.846680
v -72.465668 535.085876 -8.991211
v -33.328651 587.310913 -14.643555
v -35.397339 589.416016 12.981445
v -23.481583 577.290466 -14.643555
v -25.720383 579.568726 12.981445
v -35.397339 589.416016 -11.966797
v -25.397896 599.242432 -14.643555
v -23.481583 577.290466 9.858398
v -19.101776 581.594482 12.981445
v -35.397339 589.416016 -2.962891
v -35.397339 589.416016 2.055664
v -31.151268 593.588623 -0.349609
v -33.974174 587.967834 -0.781250
v -1.351311 599.037842 -14.643555
v -1.351311 599.037842 12.981445
v -13.267067 611.163391 12.981445
v -13.267067 611.163391 -14.643555
v -469.955841 141.397064 -14.279663
v -467.983856 139.390350 14.279663
v -479.342712 150.949219 -14.279663
v -477.208557 148.777466 14.279663
v -467.983856 139.390350 -10.039185
v -477.983307 129.563934 -14.279663
v -479.342712 150.949219 10.117004
v -483.722534 146.645203 14.279663
v -467.983856 139.390350 -2.463501
v -467.983856 139.390350 1.760590
v -472.229950 135.217773 -0.263794
v -469.340515 140.770889 -0.625916
v -501.980103 128.703583 -14.279663
v -501.980103 128.703583 14.279663
v -490.621216 117.144714 14.279663
v -490.621216 117.144714 -14.279663
v -80.763672 395.388214 1.239578
v -80.634766 412.774628 8.918213
v -90.017578 395.446869 1.399651
v -89.888672 412.833221 9.073288
v -88.052734 529.083740 -1.826874
v -87.927734 529.160522 5.846756
v -78.798828 529.025208 -1.985283
v -78.669922 529.102051 5.691681
v -87.193359 498.699921 0.244102
v -87.130859 496.779358 5.564957
v -81.126953 475.619995 0.807709
v -81.060547 473.697205 6.131889
v -185.068359 289.468323 1.633438
v -184.955078 306.846863 8.541718
v -193.400391 289.526672 1.773514
v -193.287109 306.905212 8.683441
v -195.205078 423.163574 -1.454681
v -195.087891 423.232605 5.458588
v -186.873047 423.105225 -1.596420
v -186.759766 423.174255 5.315186
v -193.677734 373.998352 0.567932
v -193.611328 376.159973 6.240616
v -186.701172 369.522583 0.566269
v -186.638672 371.682983 6.247299
v -301.607422 179.065628 1.239563
v -301.478516 196.452026 8.918213
v -310.861328 179.124283 1.399658
v -310.736328 196.510620 9.073273
v -308.896484 312.761108 -1.826874
v -308.771484 312.837921 5.846771
v -299.642578 312.702606 -1.985291
v -299.513672 312.779419 5.691681
v -308.037109 282.377319 0.244110
v -307.974609 280.456757 5.564972
v -301.970703 259.297394 0.807709
v -301.904297 257.374634 6.131897
v -406.369141 72.920578 1.633453
v -406.255859 90.299133 8.541718
v -414.697266 72.978935 1.773499
v -414.583984 90.357483 8.683441
v -416.501953 206.615845 -1.454681
v -416.388672 206.684875 5.458588
v -408.173828 206.557495 -1.596436
v -408.060547 206.626526 5.315186
v -414.974609 157.450623 0.567932
v -414.912109 159.612213 6.240631
v -407.998047 152.974854 0.566284
v -407.935547 155.135239 6.247284
vt 0.486401 0.207360
vt 0.486402 0.207384
vt 0.486403 0.207381
vt 0.486404 0.207370
vt 0.486402 0.207360
vt 0.486398 0.207383
vt 0.486453 0.207355
vt 0.486775 0.207359
vt 0.486704 0.207367
vt 0.487395 0.207343
vt 0.487382 0.207322
vt 0.487236 0.207350
vt 0.487266 0.207350
vt 0.487385 0.207308
vt 0.487068 0.207333
vt 0.487110 0.207334
vt 0.487354 0.207321
vt 0.487382 0.207318
vt 0.487386 0.207331
vt 0.487235 0.207350
vt 0.486773 0.207365
vt 0.486850 0.207359
vt 0.486402 0.207389
vt 0.486466 0.207383
vt 0.486988 0.207340
vt 0.487066 0.207339
vt 0.487178 0.207355
vt 0.487384 0.207319
vt 0.487391 0.207317
vt 0.486401 0.207395
vt 0.487398 0.207333
vt 0.459342 0.179999
vt 0.459124 0.179662
vt 0.459223 0.179481
vt 0.458893 0.180122
vt 0.459100 0.179247
vt 0.459100 0.179555
vt 0.459020 0.179653
vt 0.458375 0.179734
vt 0.459159 0.179686
vt 0.458628 0.179871
vt 0.459344 0.179687
vt 0.459310 0.179569
vt 0.459201 0.179402
vt 0.459141 0.179457
vt 0.459240 0.179461
vt 0.458419 0.179518
vt 0.459342 0.179999
vt 0.459124 0.179662
vt 0.459223 0.179481
vt 0.458903 0.180120
vt 0.459100 0.179247
vt 0.459100 0.179555
vt 0.459020 0.179653
vt 0.458374 0.179878
vt 0.459159 0.179686
vt 0.458628 0.179871
vt 0.459344 0.179687
vt 0.459310 0.179569
vt 0.459201 0.179402
vt 0.459141 0.179457
vt 0.459240 0.179461
vt 0.458404 0.179542
vt 0.495346 0.182248
vt 0.495597 0.182261
vt 0.495561 0.182488
vt 0.495314 0.182474
vt 0.494995 0.181712
vt 0.495149 0.181704
vt 0.494978 0.181492
vt 0.494849 0.181488
vt 0.494835 0.181613
vt 0.494963 0.181616
vt 0.495076 0.182046
vt 0.495253 0.182039
vt 0.495346 0.182248
vt 0.495597 0.182261
vt 0.495561 0.182488
vt 0.495314 0.182474
vt 0.495062 0.181813
vt 0.495254 0.181835
vt 0.494978 0.181492
vt 0.494849 0.181488
vt 0.494835 0.181613
vt 0.494963 0.181616
vt 0.495059 0.182015
vt 0.495254 0.182041
vt 0.495346 0.182248
vt 0.495597 0.182261
vt 0.495561 0.182488
vt 0.495314 0.182474
vt 0.494995 0.181712
vt 0.495149 0.181704
vt 0.494978 0.181492
vt 0.494849 0.181488
vt 0.494835 0.181613
vt 0.494963 0.181616
vt 0.495076 0.182046
vt 0.495253 0.182039
vt 0.495346 0.182248
vt 0.495597 0.182261
vt 0.495561 0.182488
vt 0.495314 0.182474
vt 0.495062 0.181813
vt 0.495254 0.181835
vt 0.494978 0.181492
vt 0.494849 0.181488
vt 0.494835 0.181613
vt 0.494963 0.181616
vt 0.495059 0.182015
vt 0.495254 0.182041
vn -0.713250 -0.700909 0.000002
vn -0.713250 -0.700909 0.000002
vn -0.713250 -0.700909 0.000002
vn -0.713250 -0.700909 0.000002
vn -0.713250 -0.700909 0.000002
vn -0.700909 0.713250 0.000000
vn -0.700909 0.713250 0.000000
vn -0.700909 0.713250 0.000000
vn -0.700909 0.713250 0.000000
vn -0.700909 0.713250 0.000000
vn 0.700909 -0.713251 -0.000000
vn 0.700909 -0.713251 -0.000000
vn 0.700909 -0.713251 -0.000000
vn 0.700909 -0.713251 -0.000000
vn 0.000000 0.000000 1.000000
vn 0.000000 0.000000 1.000000
vn 0.000000 0.000000 1.000000
vn 0.000000 0.000000 1.000000
vn 0.000000 0.000000 1.000000
vn -0.000000 0.000000 -1.000000
vn -0.000000 0.000000 -1.000000
vn -0.000000 0.000000 -1.000000
vn -0.000000 0.000000 -1.000000
vn -0.643545 0.587583 0.490506
vn -0.643545 0.587583 0.490506
vn -0.643545 0.587583 0.490506
vn 0.596324 -0.658312 0.459373
vn 0.596324 -0.658312 0.459373
vn 0.596324 -0.658312 0.459373
vn 0.651617 -0.713498 -0.257519
vn 0.651617 -0.713498 -0.257519
vn 0.651617 -0.713498 -0.257519
vn -0.686609 0.651338 -0.322995
vn -0.686609 0.651338 -0.322995
vn -0.686609 0.651338 -0.322995
vn -0.632829 0.696453 -0.338349
vn -0.632829 0.696453 -0.338349
vn -0.632829 0.696453 -0.338349
vn 0.608596 -0.564695 0.557432
vn 0.608596 -0.564695 0.557432
vn 0.608596 -0.564695 0.557432
vn 0.512709 -0.621185 0.592671
vn 0.512709 -0.621185 0.592671
vn 0.512710 -0.621185 0.592671
vn 0.557060 -0.662109 -0.501294
vn 0.557060 -0.662109 -0.501294
vn 0.557060 -0.662109 -0.501294
vn 0.612390 -0.571509 -0.546221
vn 0.612390 -0.571509 -0.546221
vn 0.612390 -0.571509 -0.546221
vn -0.700909 0.713250 0.000000
vn -0.700909 0.713250 0.000000
vn -0.700909 0.713250 0.000000
vn -0.700909 0.713250 0.000000
vn -0.700909 0.713250 0.000000
vn -0.700909 0.713250 0.000000
vn -0.700909 0.713250 0.000000
vn -0.700909 0.713250 0.000000
vn -0.700909 0.713250 0.000000
vn 0.700909 -0.713250 -0.000000
vn 0.700909 -0.713250 -0.000000
vn 0.700909 -0.713250 -0.000000
vn 0.700909 -0.713250 -0.000000
vn 0.700909 -0.713250 -0.000000
vn 0.700909 -0.713250 -0.000000
vn 0.700909 -0.713250 -0.000000
vn 0.700909 -0.713250 -0.000000
vn 0.700909 -0.713250 -0.000000
vn 0.700909 -0.713250 -0.000000
vn 0.700909 -0.713250 -0.000000
vn 0.700909 -0.713250 -0.000000
vn 0.700909 -0.713250 -0.000000
vn 0.700909 -0.713250 -0.000000
vn 0.700909 -0.713250 -0.000000
vn 0.700909 -0.713250 -0.000000
vn 0.700909 -0.713250 -0.000000
vn 0.700909 -0.713250 -0.000000
vn -0.000000 0.000000 -1.000000
vn -0.000000 0.000000 -1.000000
vn -0.000000 0.000000 -1.000000
vn -0.000000 0.000000 -1.000000
vn -0.000000 0.000000 -1.000000
vn 0.000000 -0.000000 -1.000000
vn 0.000000 -0.000000 -1.000000
vn 0.000000 -0.000000 -1.000000
vn 0.000000 -0.000000 -1.000000
vn -0.000000 0.000000 -1.000000
vn -0.000000 0.000000 -1.000000
vn -0.000000 0.000000 -1.000000
vn -0.000000 0.000000 -1.000000
vn 0.000000 -0.000000 1.000000
vn 0.000000 -0.000000 1.000000
vn 0.000000 -0.000000 1.000000
vn 0.000000 -0.000000 1.000000
vn 0.000000 -0.000000 1.000000
vn 0.000000 -0.000000 1.000000
vn 0.000000 -0.000000 1.000000
vn 0.000000 -0.000000 1.000000
vn -0.713250 -0.700909 -0.000008
vn -0.713250 -0.700909 -0.000008
vn -0.713250 -0.700909 -0.000008
vn -0.713250 -0.700909 -0.000008
vn -0.713250 -0.700909 0.000000
vn -0.713250 -0.700909 0.000000
vn -0.713250 -0.700909 0.000000
vn -0.713250 -0.700909 0.000000
vn -0.713250 -0.700909 0.000000
vn -0.713250 -0.700909 0.000000
vn 0.700909 -0.713250 -0.000000
vn 0.700909 -0.713250 -0.000000
vn 0.700909 -0.713250 -0.000000
vn -0.000000 0.000000 1.000000
vn -0.000000 0.000000 1.000000
vn -0.000000 0.000000 1.000000
vn -0.000000 0.000000 1.000000
vn -0.000000 0.000000 -1.000000
vn -0.000000 0.000000 -1.000000
vn -0.000000 0.000000 -1.000000
vn -0.566110 0.376287 -0.733436
vn -0.566110 0.376287 -0.733435
vn -0.566110 0.376287 -0.733436
vn 0.216749 -0.708154 0.671966
vn 0.216749 -0.708154 0.671966
vn 0.216749 -0.708154 0.671966
vn -0.718101 0.404156 -0.566559
vn -0.718101 0.404156 -0.566559
vn -0.718101 0.404156 -0.566559
vn -0.695931 0.299391 0.652722
vn -0.695931 0.299391 0.652722
vn -0.695931 0.299391 0.652722
vn 0.700909 -0.713250 -0.000000
vn 0.700909 -0.713250 -0.000000
vn 0.700909 -0.713250 -0.000000
vn 0.700909 -0.713250 -0.000000
vn -0.000000 0.000000 -1.000000
vn -0.000000 0.000000 -1.000000
vn -0.000000 0.000000 -1.000000
vn -0.000000 0.000000 -1.000000
vn -0.713250 -0.700909 0.000000
vn -0.713250 -0.700909 0.000000
vn -0.713250 -0.700909 0.000000
vn -0.713250 -0.700909 0.000000
vn -0.713250 -0.700909 0.000000
vn -0.713250 -0.700909 -0.000000
vn -0.713250 -0.700909 -0.000000
vn -0.713250 -0.700909 -0.000000
vn -0.713250 -0.700909 -0.000000
vn -0.713250 -0.700909 -0.000000
vn -0.700909 0.713250 0.000000
vn -0.700909 0.713250 0.000000
vn -0.700909 0.713250 0.000000
vn -0.700909 0.713250 0.000000
vn -0.700909 0.713250 0.000000
vn -0.700909 0.713250 0.000000
vn -0.700909 0.713250 0.000000
vn -0.700909 0.713250 0.000000
vn -0.700909 0.713250 0.000000
vn -0.700909 0.713250 0.000000
vn -0.700909 0.713250 0.000000
vn -0.700909 0.713250 0.000000
vn 0.000000 0.000000 1.000000
vn 0.000000 0.000000 1.000000
vn 0.000000 0.000000 1.000000
vn 0.713250 0.700909 -0.000000
vn 0.713250 0.700909 -0.000000
vn 0.713250 0.700909 -0.000000
vn 0.713250 0.700909 -0.000000
vn 0.713250 0.700909 -0.000000
vn 0.713250 0.700909 -0.000000
vn 0.713250 0.700909 -0.000000
vn -0.700909 0.713250 0.000000
vn -0.700909 0.713250 0.000000
vn -0.700909 0.713250 0.000000
vn 0.000000 0.000000 1.000000
vn 0.000000 0.000000 1.000000
vn 0.000000 0.000000 1.000000
vn 0.000000 0.000000 1.000000
vn -0.000000 0.000000 -1.000000
vn -0.000000 0.000000 -1.000000
vn -0.000000 0.000000 -1.000000
vn 0.700115 -0.412719 -0.582668
vn 0.700115 -0.412719 -0.582668
vn 0.700115 -0.412719 -0.582668
vn -0.158004 0.810697 0.563742
vn -0.158004 0.810697 0.563742
vn -0.158004 0.810697 0.563742
vn 0.688300 -0.325493 -0.648304
vn 0.688300 -0.325493 -0.648304
vn 0.688300 -0.325493 -0.648304
vn 0.657008 -0.214399 0.722754
vn 0.657008 -0.214399 0.722754
vn 0.657008 -0.214399 0.722754
vn -0.700909 0.713251 0.000000
vn -0.700909 0.713251 0.000000
vn -0.700909 0.713251 0.000000
vn -0.700909 0.713251 0.000000
vn -0.000000 0.000000 -1.000000
vn -0.000000 0.000000 -1.000000
vn -0.000000 0.000000 -1.000000
vn -0.000000 0.000000 -1.000000
vn 0.713250 0.700909 -0.000001
vn 0.713250 0.700909 -0.000001
vn 0.713250 0.700909 -0.000001
vn 0.713250 0.700909 -0.000001
vn 0.713250 0.700909 -0.000001
vn 0.713250 0.700909 -0.000000
vn 0.713250 0.700909 -0.000000
vn 0.713250 0.700909 -0.000000
vn 0.713250 0.700909 -0.000000
vn 0.713250 0.700909 -0.000000
vn 0.700909 -0.713251 -0.000000
vn 0.700909 -0.713251 -0.000000
vn 0.700909 -0.713251 -0.000000
vn 0.700909 -0.713251 -0.000000
vn 0.700909 -0.713250 -0.000000
vn 0.700909 -0.713250 -0.000000
vn 0.700909 -0.713250 -0.000000
vn 0.700909 -0.713250 -0.000000
vn 0.700909 -0.713250 -0.000000
vn 0.700909 -0.713250 -0.000000
vn 0.700909 -0.713250 -0.000000
vn 0.700909 -0.713250 -0.000000
vn 0.000000 0.000000 1.000000
vn 0.000000 0.000000 1.000000
vn 0.000000 0.000000 1.000000
vn -0.713250 -0.700909 0.000000
vn -0.713250 -0.700909 0.000000
vn -0.713250 -0.700909 0.000000
vn -0.713250 -0.700909 0.000000
vn -0.006162 -0.999930 0.010104
vn -0.006162 -0.999930 0.010104
vn -0.006162 -0.999930 0.010104
vn -0.006162 -0.999930 0.010104
vn -0.999155 0.035999 0.019826
vn -0.999155 0.035999 0.019826
vn -0.999155 0.035999 0.019826
vn -0.999155 0.035999 0.019826
vn 0.006149 0.999930 -0.010109
vn 0.006149 0.999930 -0.010109
vn 0.006149 0.999930 -0.010109
vn 0.006149 0.999930 -0.010109
vn 0.998808 -0.043946 -0.021245
vn 0.998808 -0.043946 -0.021245
vn 0.998808 -0.043946 -0.021245
vn 0.998808 -0.043946 -0.021245
vn -0.023495 0.002231 0.999721
vn -0.023495 0.002231 0.999721
vn -0.023495 0.002231 0.999721
vn -0.023495 0.002231 0.999721
vn 0.008538 -0.011784 -0.999894
vn 0.008538 -0.011784 -0.999894
vn 0.008538 -0.011784 -0.999894
vn 0.008538 -0.011784 -0.999894
vn -0.999603 -0.026072 0.010723
vn -0.999603 -0.026072 0.010723
vn -0.999603 -0.026072 0.010723
vn -0.999603 -0.026072 0.010723
vn 0.999879 0.006673 -0.014071
vn 0.999879 0.006673 -0.014071
vn 0.999879 0.006673 -0.014071
vn 0.999879 0.006673 -0.014071
vn 0.043624 0.046650 0.997958
vn 0.043624 0.046650 0.997958
vn 0.043624 0.046650 0.997958
vn 0.043624 0.046650 0.997958
vn -0.059445 -0.056812 -0.996614
vn -0.059445 -0.056812 -0.996614
vn -0.059445 -0.056812 -0.996614
vn -0.059445 -0.056812 -0.996614
vn -0.006832 -0.999926 0.010092
vn -0.006832 -0.999926 0.010092
vn -0.006832 -0.999926 0.010092
vn -0.006832 -0.999926 0.010092
vn -0.999877 -0.004407 0.015061
vn -0.999877 -0.004407 0.015061
vn -0.999877 -0.004407 0.015061
vn -0.999877 -0.004407 0.015061
vn 0.006831 0.999926 -0.010100
vn 0.006831 0.999926 -0.010100
vn 0.006831 0.999926 -0.010100
vn 0.006831 0.999926 -0.010100
vn 0.999894 0.002364 -0.014375
vn 0.999894 0.002364 -0.014375
vn 0.999894 0.002364 -0.014375
vn 0.999894 0.002364 -0.014375
vn 0.014156 0.017616 0.999745
vn 0.014156 0.017616 0.999745
vn 0.014156 0.017616 0.999745
vn 0.014156 0.017616 0.999745
vn -0.015054 -0.019579 -0.999695
vn -0.015054 -0.019579 -0.999695
vn -0.015054 -0.019579 -0.999695
vn -0.015054 -0.019579 -0.999695
vn -0.999331 -0.030610 0.020001
vn -0.999331 -0.030610 0.020001
vn -0.999331 -0.030610 0.020001
vn -0.999331 -0.030610 0.020001
vn 0.999422 0.028221 -0.018952
vn 0.999422 0.028221 -0.018952
vn 0.999422 0.028221 -0.018952
vn 0.999422 0.028221 -0.018952
vn 0.020440 0.039225 0.999021
vn 0.020440 0.039225 0.999021
vn 0.020440 0.039225 0.999021
vn 0.020440 0.039225 0.999021
vn -0.021514 -0.041046 -0.998926
vn -0.021514 -0.041046 -0.998926
vn -0.021514 -0.041046 -0.998926
vn -0.021514 -0.041046 -0.998926
vn -0.006161 -0.999930 0.010103
vn -0.006161 -0.999930 0.010103
vn -0.006161 -0.999930 0.010103
vn -0.006161 -0.999930 0.010103
vn -0.999160 0.036015 0.019526
vn -0.999161 0.036015 0.019526
vn -0.999161 0.036015 0.019526
vn -0.999161 0.036015 0.019526
vn 0.006149 0.999930 -0.010109
vn 0.006149 0.999930 -0.010109
vn 0.006149 0.999930 -0.010109
vn 0.006149 0.999930 -0.010109
vn 0.998808 -0.043946 -0.021246
vn 0.998808 -0.043946 -0.021246
vn 0.998808 -0.043946 -0.021246
vn 0.998808 -0.043946 -0.021246
vn -0.023495 0.002231 0.999721
vn -0.023495 0.002231 0.999721
vn -0.023495 0.002231 0.999721
vn -0.023495 0.002231 0.999721
vn 0.008538 -0.011784 -0.999894
vn 0.008538 -0.011784 -0.999894
vn 0.008538 -0.011784 -0.999894
vn 0.008538 -0.011784 -0.999894
vn -0.999603 -0.026072 0.010724
vn -0.999603 -0.026072 0.010724
vn -0.999603 -0.026072 0.010724
vn -0.999603 -0.026072 0.010724
vn 0.999879 0.006673 -0.014067
vn 0.999879 0.006673 -0.014067
vn 0.999879 0.006673 -0.014067
vn 0.999879 0.006673 -0.014067
vn 0.043611 0.046649 0.997959
vn 0.043611 0.046649 0.997959
vn 0.043611 0.046649 0.997959
vn 0.043611 0.046649 0.997959
vn -0.059445 -0.056812 -0.996614
vn -0.059445 -0.056812 -0.996614
vn -0.059445 -0.056812 -0.996614
vn -0.059445 -0.056812 -0.996614
vn -0.006835 -0.999926 0.010092
vn -0.006835 -0.999926 0.010092
vn -0.006835 -0.999926 0.010092
vn -0.006835 -0.999926 0.010092
vn -0.999881 -0.004447 0.014755
vn -0.999881 -0.004447 0.014755
vn -0.999881 -0.004447 0.014755
vn -0.999881 -0.004447 0.014755
vn 0.006833 0.999926 -0.010098
vn 0.006833 0.999926 -0.010098
vn 0.006833 0.999926 -0.010098
vn 0.006833 0.999926 -0.010098
vn 0.999893 0.002438 -0.014389
vn 0.999894 0.002438 -0.014389
vn 0.999894 0.002438 -0.014389
vn 0.999894 0.002438 -0.014389
vn 0.014152 0.017617 0.999745
vn 0.014152 0.017617 0.999745
vn 0.014152 0.017617 0.999745
vn 0.014152 0.017617 0.999745
vn -0.015058 -0.019579 -0.999695
vn -0.015058 -0.019579 -0.999695
vn -0.015058 -0.019579 -0.999695
vn -0.015058 -0.019579 -0.999695
vn -0.999343 -0.030628 0.019392
vn -0.999343 -0.030628 0.019392
vn -0.999343 -0.030628 0.019392
vn -0.999343 -0.030628 0.019392
vn 0.999424 0.028154 -0.018936
vn 0.999424 0.028154 -0.018936
vn 0.999424 0.028154 -0.018936
vn 0.999424 0.028154 -0.018936
vn 0.020440 0.039225 0.999021
vn 0.020440 0.039225 0.999021
vn 0.020440 0.039225 0.999021
vn 0.020440 0.039225 0.999021
vn -0.021520 -0.041047 -0.998925
vn -0.021520 -0.041047 -0.998925
vn -0.021520 -0.041047 -0.998925
vn -0.021520 -0.041047 -0.998925
s off
f 12/1/1 16/2/2 15/3/3 2/4/4 4/5/5
f 3/6/6 12/1/7 13/7/8 22/8/9 20/9/10
f 7/10/11 10/11/12 31/12/13 28/13/14
f 6/14/15 26/15/16 24/16/17 11/17/18 8/18/19
f 9/19/20 30/20/21 23/21/22 21/22/23
f 13/7/24 12/1/25 4/5/26
f 14/23/27 17/24/28 16/2/29
f 16/2/30 17/24/31 15/3/32
f 23/21/33 22/8/34 21/22/35
f 20/9/36 22/8/37 23/21/38
f 25/25/39 27/26/40 26/15/41
f 26/15/42 27/26/43 24/16/44
f 28/13/45 31/12/46 30/20/47
f 30/20/48 31/12/49 29/27/50
f 22/8/51 19/28/52 9/19/53 21/22/54
f 22/8/55 13/7/56 6/14/57 18/29/58 19/28/59
f 31/12/60 27/26/61 17/24/62 29/27/63
f 31/12/64 10/11/65 11/17/66 24/16/67 27/26/68
f 17/24/69 27/26/70 25/25/71 2/4/72 15/3/73
f 29/27/74 17/24/75 14/23/76 1/30/77
f 7/10/78 28/13/79 30/20/80 9/19/81 5/31/82
f 23/21/83 1/30/84 3/6/85 20/9/86
f 23/21/87 30/20/88 29/27/89 1/30/90
f 2/4/91 25/25/92 26/15/93 13/7/94 4/5/95
f 13/7/96 26/15/97 6/14/98
f 1/30/99 14/23/100 16/2/101 3/6/102
f 3/6/103 16/2/104 12/1/105
f 34/32/106 38/33/107 43/34/108
f 34/32/109 44/35/110 38/33/111
f 33/36/112 35/37/113 39/38/114 45/39/115
f 37/40/116 47/41/117 44/35/118
f 37/40/119 32/42/120 36/43/121
f 39/38/122 35/37/123 38/33/124
f 43/34/125 41/44/126 42/45/127
f 40/46/128 43/34/129 42/45/130
f 44/35/131 45/39/132 39/38/133 38/33/134
f 34/32/135 32/42/136 37/40/137 44/35/138
f 32/42/139 34/32/140 43/34/141 40/46/142 36/43/143
f 38/33/144 35/37/145 33/36/146 41/44/147 43/34/148
f 37/40/149 36/43/150 40/46/151 42/45/152
f 47/41/153 37/40/154 42/45/155 46/47/156
f 46/47/157 42/45/158 41/44/159 33/36/160
f 46/47/161 33/36/162 45/39/163
f 44/35/164 47/41/165 46/47/166 45/39/167
f 50/48/168 54/49/169 59/50/170
f 50/48/171 60/51/172 54/49/173
f 49/52/174 51/53/175 55/54/176 61/55/177
f 53/56/178 63/57/179 60/51/180
f 53/56/181 48/58/182 52/59/183
f 55/54/184 51/53/185 54/49/186
f 59/50/187 57/60/188 58/61/189
f 56/62/190 59/50/191 58/61/192
f 60/51/193 61/55/194 55/54/195 54/49/196
f 50/48/197 48/58/198 53/56/199 60/51/200
f 48/58/201 50/48/202 59/50/203 56/62/204 52/59/205
f 54/49/206 51/53/207 49/52/208 57/60/209 59/50/210
f 53/56/211 52/59/212 56/62/213 58/61/214
f 63/57/215 53/56/216 58/61/217 62/63/218
f 62/63/219 58/61/220 57/60/221 49/52/222
f 62/63/223 49/52/224 61/55/225
f 61/55/226 60/51/227 63/57/228 62/63/229
f 67/64/230 66/65/231 64/66/232 65/67/233
f 66/65/234 67/64/235 73/68/236 72/69/237
f 68/70/238 69/71/239 71/72/240 70/73/241
f 70/73/242 71/72/243 75/74/244 74/75/245
f 69/71/246 73/68/247 75/74/248 71/72/249
f 64/66/250 66/65/251 72/69/252 74/75/253
f 72/69/254 73/68/255 69/71/256 68/70/257
f 74/75/258 75/74/259 65/67/260 64/66/261
f 75/74/262 73/68/263 67/64/264 65/67/265
f 74/75/266 72/69/267 68/70/268 70/73/269
f 79/76/270 78/77/271 76/78/272 77/79/273
f 78/77/274 79/76/275 85/80/276 84/81/277
f 80/82/278 81/83/279 83/84/280 82/85/281
f 82/85/282 83/84/283 87/86/284 86/87/285
f 81/83/286 85/80/287 87/86/288 83/84/289
f 76/78/290 78/77/291 84/81/292 86/87/293
f 84/81/294 85/80/295 81/83/296 80/82/297
f 86/87/298 87/86/299 77/79/300 76/78/301
f 87/86/302 85/80/303 79/76/304 77/79/305
f 86/87/306 84/81/307 80/82/308 82/85/309
f 91/88/310 90/89/311 88/90/312 89/91/313
f 90/89/314 91/88/315 97/92/316 96/93/317
f 92/94/318 93/95/319 95/96/320 94/97/321
f 94/97/322 95/96/323 99/98/324 98/99/325
f 93/95/326 97/92/327 99/98/328 95/96/329
f 88/90/330 90/89/331 96/93/332 98/99/333
f 96/93/334 97/92/335 93/95/336 92/94/337
f 98/99/338 99/98/339 89/91/340 88/90/341
f 99/98/342 97/92/343 91/88/344 89/91/345
f 98/99/346 96/93/347 92/94/348 94/97/349
f 103/100/350 102/101/351 100/102/352 101/103/353
f 102/101/354 103/100/355 109/104/356 108/105/357
f 104/106/358 105/107/359 107/108/360 106/109/361
f 106/109/362 107/108/363 111/110/364 110/111/365
f 105/107/366 109/104/367 111/110/368 107/108/369
f 100/102/370 102/101/371 108/105/372 110/111/373
f 108/105/374 109/104/375 105/107/376 104/106/377
f 110/111/378 111/110/379 101/103/380 100/102/381
f 111/110/382 109/104/383 103/100/384 101/103/385
f 110/111/386 108/105/387 104/106/388 106/109/389
