# This file uses centimeters as units for non-parametric coordinates.

v -50.000000 0.000000 379.931641
v 50.000000 0.000000 379.931641
v -50.000000 210.783386 379.931641
v 50.000000 210.783386 379.931641
v -50.000000 500.000000 -61.865234
v 50.000000 500.000000 -61.865234
v -50.000000 0.000000 -61.865234
v 50.000000 0.000000 -61.865234
v 50.000000 500.000000 126.146484
v -50.000000 500.000000 126.146484
v -65.344238 204.701782 389.751953
v 65.344727 204.701782 389.751953
v 65.344727 500.000000 126.146484
v -65.344238 500.000000 126.146484
v 65.344727 500.000000 -79.621094
v -65.344238 500.000000 -79.621094
v -65.344238 223.344849 409.093750
v 65.344727 223.344849 409.093750
v 65.344727 524.536987 139.804688
v -65.344238 524.536987 139.804688
v 65.344727 524.536987 -79.621094
v -65.344238 524.536987 -79.621094
vt 0.430766 1.013607
vt 0.584398 1.013607
vt 0.584398 1.408297
vt 0.430766 1.408297
vt 0.196047 0.304158
vt 0.195845 0.304068
vt 0.196093 0.303376
vt 0.196298 0.303456
vt 0.430766 1.949852
vt 0.584398 1.949852
vt 0.584398 1.013607
vt 0.430766 1.013607
vt 0.196291 0.303159
vt 0.196490 0.303233
vt 0.196052 0.304129
vt 0.195898 0.304060
vt 0.195865 0.304069
vt 0.196066 0.304159
vt 0.196130 0.303404
vt 0.196106 0.303395
vt 0.196286 0.303466
vt 0.196310 0.303475
vt 0.153251 1.014452
vt 0.980562 1.014452
vt 0.980562 1.952760
vt 0.628489 1.952760
vt 0.153251 1.410011
vt 0.980562 1.014452
vt 0.153251 1.014452
vt 0.153251 1.410011
vt 0.628489 1.952760
vt 0.980562 1.952760
vt 0.196298 0.303217
vt 0.196290 0.303192
vt 0.196451 0.303274
vt 0.196489 0.303266
vn 0.000000 0.000000 1.000000
vn 0.000000 0.000000 1.000000
vn 0.000000 0.000000 1.000000
vn 0.000000 0.000000 1.000000
vn 0.000000 0.666522 0.745486
vn 0.000000 0.666522 0.745486
vn 0.000000 0.666522 0.745486
vn 0.000000 0.666522 0.745486
vn 0.000000 0.000000 -1.000000
vn 0.000000 0.000000 -1.000000
vn 0.000000 0.000000 -1.000000
vn 0.000000 0.000000 -1.000000
vn 0.000000 -1.000000 0.000000
vn 0.000000 -1.000000 0.000000
vn 0.000000 -1.000000 0.000000
vn 0.000000 -1.000000 0.000000
vn 1.000000 0.000000 0.000000
vn 1.000000 0.000000 0.000000
vn 1.000000 0.000000 0.000000
vn 1.000000 0.000000 0.000000
vn 1.000000 0.000000 0.000000
vn -1.000000 0.000000 0.000000
vn -1.000000 0.000000 0.000000
vn -1.000000 0.000000 0.000000
vn -1.000000 0.000000 0.000000
vn -1.000000 0.000000 0.000000
vn 0.000000 1.000000 0.000000
vn 0.000000 1.000000 0.000000
vn 0.000000 1.000000 0.000000
vn 0.000000 1.000000 0.000000
vn 0.000000 -0.850173 -0.526503
vn 0.000000 -0.850173 -0.526503
vn 0.000000 -0.850173 -0.526503
vn 0.000000 -0.850174 -0.526503
vn 0.107632 -0.658953 -0.744443
vn 0.107632 -0.658953 -0.744443
vn 0.107632 -0.658953 -0.744443
vn 0.107632 -0.658953 -0.744443
vn -0.107636 -0.658953 -0.744443
vn -0.107636 -0.658953 -0.744443
vn -0.107636 -0.658953 -0.744443
vn -0.107636 -0.658953 -0.744443
vn 0.000000 -1.000000 0.000000
vn 0.000000 -1.000000 0.000000
vn 0.000000 -1.000000 0.000000
vn 0.000000 -1.000000 0.000000
vn 0.000000 -1.000000 -0.000002
vn 0.000000 -1.000000 -0.000002
vn 0.000000 -1.000000 -0.000002
vn 0.000000 -1.000000 -0.000002
vn 0.000000 -1.000000 0.000000
vn 0.000000 -1.000000 0.000000
vn 0.000000 -1.000000 0.000000
vn 0.000000 -1.000000 0.000000
vn 0.000000 -0.719992 0.693982
vn 0.000000 -0.719992 0.693982
vn 0.000000 -0.719992 0.693982
vn 0.000000 -0.719992 0.693982
vn 1.000000 -0.000000 0.000000
vn 1.000000 -0.000000 0.000000
vn 1.000000 -0.000000 0.000000
vn 1.000000 -0.000000 0.000000
vn -1.000000 -0.000000 0.000000
vn -1.000000 -0.000000 0.000000
vn -1.000000 -0.000000 0.000000
vn -1.000000 -0.000000 0.000000
vn 1.000000 0.000000 0.000000
vn 1.000000 0.000000 0.000000
vn 1.000000 0.000000 0.000000
vn 1.000000 0.000000 0.000000
vn 0.000000 0.000000 -1.000000
vn 0.000000 0.000000 -1.000000
vn 0.000000 0.000000 -1.000000
vn 0.000000 0.000000 -1.000000
vn -1.000000 0.000000 0.000000
vn -1.000000 0.000000 0.000000
vn -1.000000 0.000000 0.000000
vn -1.000000 0.000000 0.000000
s off
f 1/1/1 2/2/2 4/3/3 3/4/4
f 17/5/5 18/6/6 19/7/7 20/8/8
f 5/9/9 6/10/10 8/11/11 7/12/12
f 7/12/13 8/11/14 2/2/15 1/1/16
f 2/23/17 8/24/18 6/25/19 9/26/20 4/27/21
f 7/28/22 1/29/23 3/30/24 10/31/25 5/32/26
f 20/8/27 19/7/28 21/13/29 22/14/30
f 3/15/31 4/16/32 12/17/33 11/18/34
f 4/16/35 9/19/36 13/20/37 12/17/38
f 10/21/39 3/15/40 11/18/41 14/22/42
f 9/19/43 6/33/44 15/34/45 13/20/46
f 6/33/47 5/35/48 16/36/49 15/34/50
f 5/35/51 10/21/52 14/22/53 16/36/54
f 11/18/55 12/17/56 18/6/57 17/5/58
f 12/17/59 13/20/60 19/7/61 18/6/62
f 14/22/63 11/18/64 17/5/65 20/8/66
f 13/20/67 15/34/68 21/13/69 19/7/70
f 15/34/71 16/36/72 22/14/73 21/13/74
f 16/36/75 14/22/76 20/8/77 22/14/78
