# This file uses centimeters as units for non-parametric coordinates.

v -30.542969 0.000000 5.435547
v -30.542969 55.010925 5.435547
v 30.542969 55.010925 5.435547
v 30.542969 0.000000 5.435547
v -30.542969 253.850159 -116.666016
v 30.542969 253.850159 -116.666016
v -30.542969 0.000000 -50.001953
v 30.542969 0.000000 -50.001953
v -30.542969 224.449036 -374.998047
v 30.542969 224.449036 -374.998047
v -30.542969 253.850159 -374.998047
v 30.542969 253.850159 -374.998047
v -30.542969 24.718140 -50.001953
v 30.542969 24.718140 -50.001953
v 30.542969 0.000000 -374.998047
v 30.542969 24.718140 -374.998047
v -30.542969 24.718140 -374.998047
v -30.542969 0.000000 -374.998047
v -9.753906 39.470947 -90.126953
v 9.753906 39.470947 -90.126953
v 9.753906 214.344788 -374.998047
v -9.753906 214.344788 -374.998047
v -9.753906 39.470947 -374.998047
v 9.753906 39.470947 -374.998047
v 9.753906 214.344849 -201.626953
v 30.542969 224.449097 -183.880859
v -9.753906 214.344849 -201.626953
v -30.542969 224.449097 -183.880859
vt 0.198654 0.306134
vt 0.197654 0.306136
vt 0.197654 0.306058
vt 0.254760 1.012072
vt 0.987071 1.012072
vt 0.198654 0.306059
vt 0.541389 1.500280
vt 0.987071 1.500279
vt 0.987071 1.012072
vt 0.987071 1.500279
vt 0.541389 1.500280
vt 0.254760 1.012072
vt 0.198608 0.306060
vt 0.197666 0.306059
vt 0.197666 0.306132
vt 0.198608 0.306130
vt 0.198508 0.306016
vt 0.197662 0.306014
vt 0.197658 0.306013
vt 0.198521 0.306015
vt 0.197658 0.305474
vt 0.197662 0.305485
vt 0.017041 0.046492
vt 0.017333 0.046492
vt 0.017691 0.047147
vt 0.017041 0.047147
vt 0.019693 0.044910
vt 0.020041 0.045705
vt 0.017508 0.046018
vt 0.019574 0.044701
vt 0.019693 0.042652
vt 0.020041 0.042652
vt 0.023088 0.044095
vt 0.022740 0.047147
vt 0.022740 0.044889
vt 0.023088 0.047147
vt 0.020380 0.043307
vt 0.020738 0.042652
vt 0.022621 0.045099
vt 0.020555 0.043781
vt 0.020088 0.043307
vt 0.020088 0.042652
vt 0.023134 0.042652
vt 0.023855 0.042652
vt 0.023855 0.045705
vt 0.023134 0.045705
vt 0.022900 0.047898
vt 0.022245 0.047898
vt 0.022245 0.047176
vt 0.022900 0.047176
vt 0.023235 0.045733
vt 0.023481 0.045733
vt 0.023481 0.047782
vt 0.023235 0.047992
vt 0.023190 0.049434
vt 0.022945 0.049225
vt 0.022945 0.047176
vt 0.023190 0.047176
vt 0.024247 0.045733
vt 0.024247 0.046383
vt 0.023525 0.046383
vt 0.023525 0.045733
vt 0.024247 0.048733
vt 0.023525 0.048733
vt 0.022082 0.047898
vt 0.021734 0.047898
vt 0.022201 0.047652
vt 0.021734 0.047176
vt 0.022201 0.047422
vt 0.022082 0.047176
vn 0.000000 1.000000 0.000000
vn 0.000000 1.000000 0.000000
vn 0.000000 1.000000 0.000000
vn 0.000000 1.000000 0.000000
vn 0.000000 0.000000 1.000000
vn 0.000000 0.000000 1.000000
vn 0.000000 0.000000 1.000000
vn 0.000000 0.000000 1.000000
vn 0.000000 0.523286 0.852157
vn 0.000000 0.523286 0.852157
vn 0.000000 0.523286 0.852157
vn 0.000000 0.523286 0.852157
vn 1.000000 0.000000 0.000000
vn 1.000000 0.000000 0.000000
vn 1.000000 0.000000 0.000000
vn 1.000000 0.000000 0.000000
vn 0.000000 -1.000000 0.000000
vn 0.000000 -1.000000 0.000000
vn 0.000000 -1.000000 0.000000
vn 0.000000 -1.000000 0.000000
vn -1.000000 0.000000 0.000000
vn -1.000000 0.000000 0.000000
vn -1.000000 0.000000 0.000000
vn 1.000000 0.000000 0.000000
vn 1.000000 0.000000 0.000000
vn 1.000000 0.000000 0.000000
vn 1.000000 0.000000 0.000000
vn 1.000000 0.000000 0.000000
vn 1.000000 0.000000 0.000000
vn 1.000000 0.000000 0.000000
vn -1.000000 0.000000 0.000000
vn -1.000000 0.000000 0.000000
vn -1.000000 0.000000 0.000000
vn -1.000000 0.000000 0.000000
vn -1.000000 0.000000 0.000000
vn -1.000000 0.000000 0.000000
vn -1.000000 0.000000 0.000000
vn 1.000000 0.000000 0.000000
vn 1.000000 0.000000 0.000000
vn 1.000000 0.000000 0.000000
vn 1.000000 0.000000 0.000000
vn -1.000000 0.000000 0.000000
vn -1.000000 0.000000 0.000000
vn -1.000000 0.000000 0.000000
vn -1.000000 0.000000 0.000000
vn 0.000000 -1.000000 0.000000
vn 0.000000 -1.000000 0.000000
vn 0.000000 -1.000000 0.000000
vn 0.000000 -1.000000 0.000000
vn 0.740867 -0.368028 -0.561846
vn 0.740867 -0.368028 -0.561846
vn 0.740867 -0.368028 -0.561846
vn 0.740867 -0.368028 -0.561846
vn 0.000000 0.000000 -1.000000
vn 0.000000 0.000000 -1.000000
vn 0.000000 0.000000 -1.000000
vn -0.437138 -0.899394 0.000000
vn -0.437139 -0.899394 0.000000
vn -0.437139 -0.899394 0.000000
vn -0.437138 -0.899394 0.000000
vn -0.578728 0.815521 0.000000
vn -0.578728 0.815521 0.000000
vn -0.578728 0.815521 0.000000
vn -0.578728 0.815521 0.000000
vn -0.000004 0.000000 -1.000000
vn -0.000004 0.000000 -1.000000
vn -0.000004 0.000000 -1.000000
vn 0.578728 0.815521 0.000000
vn 0.578728 0.815521 0.000000
vn 0.578728 0.815521 0.000000
vn 0.578728 0.815521 0.000000
vn 1.000000 0.000000 0.000000
vn 1.000000 0.000000 0.000000
vn 1.000000 0.000000 0.000000
vn 0.000000 0.000000 -1.000000
vn 0.000000 0.000000 -1.000000
vn 0.000000 0.000000 -1.000000
vn 0.000000 0.000000 -1.000000
vn -1.000000 0.000000 0.000000
vn -1.000000 0.000000 0.000000
vn -1.000000 0.000000 0.000000
vn 0.000000 0.000000 -1.000000
vn 0.000000 0.000000 -1.000000
vn 0.000000 0.000000 -1.000000
vn 0.000000 0.000000 -1.000000
vn 0.000000 0.000000 -1.000000
vn 0.000000 0.000000 -1.000000
vn 0.000000 0.000000 -1.000000
vn 0.000002 0.000000 -1.000000
vn 0.000002 0.000000 -1.000000
vn 0.000002 0.000000 -1.000000
vn 0.000000 0.000000 -1.000000
vn 0.000000 0.000000 -1.000000
vn 0.000000 0.000000 -1.000000
vn 0.000000 0.000000 -1.000000
vn 1.000000 0.000000 0.000000
vn 1.000000 0.000000 0.000000
vn 1.000000 0.000000 0.000000
vn 0.437138 -0.899394 0.000000
vn 0.437139 -0.899394 0.000000
vn 0.437139 -0.899394 0.000000
vn 0.437138 -0.899394 0.000000
vn 1.000000 0.000000 0.000000
vn 1.000000 0.000000 0.000000
vn 1.000000 0.000000 0.000000
vn -1.000000 0.000000 0.000000
vn -1.000000 0.000000 0.000000
vn -1.000000 0.000000 0.000000
vn -0.740867 -0.368028 -0.561846
vn -0.740867 -0.368028 -0.561846
vn -0.740867 -0.368028 -0.561846
vn -0.740867 -0.368028 -0.561846
vn -1.000000 0.000000 0.000000
vn -1.000000 0.000000 0.000000
vn -1.000000 0.000000 0.000000
vn -1.000000 0.000000 0.000000
s off
f 5/43/1 6/44/2 12/45/3 11/46/4
f 4/59/5 3/60/6 2/61/7 1/62/8
f 3/60/9 6/63/10 5/64/11 2/61/12
f 8/23/13 14/24/14 3/25/15 4/26/16
f 1/47/17 7/48/18 8/49/19 4/50/20
f 5/33/21 9/34/22 28/35/23
f 3/25/24 14/24/25 26/27/26 6/28/27
f 6/28/28 10/31/29 12/32/30
f 9/34/31 5/33/32 11/36/33
f 7/41/34 1/42/35 2/38/36 13/37/37
f 8/1/38 15/2/39 16/3/40 14/6/41
f 13/13/42 17/14/43 18/15/44 7/16/45
f 7/16/46 18/15/47 15/2/48 8/1/49
f 14/24/50 20/29/51 25/30/52 26/27/53
f 9/65/54 11/66/55 22/67/56
f 9/51/57 22/52/58 27/53/59 28/54/60
f 13/13/61 19/17/62 23/18/63 17/14/64
f 18/15/65 17/14/66 23/18/67
f 16/3/68 24/19/69 20/20/70 14/6/71
f 20/4/72 24/5/73 25/7/74
f 21/21/75 24/19/76 23/18/77 22/22/78
f 22/10/79 23/9/80 27/11/81
f 11/66/82 12/68/83 21/69/84 22/67/85
f 12/68/86 10/70/87 21/69/88
f 16/3/89 15/2/90 24/19/91
f 15/2/92 18/15/93 23/18/94 24/19/95
f 25/7/96 24/5/97 21/8/98
f 26/55/99 25/56/100 21/57/101 10/58/102
f 6/28/103 26/27/104 10/31/105
f 27/11/106 23/9/107 19/12/108
f 28/35/109 27/39/110 19/40/111 13/37/112
f 5/33/113 28/35/114 13/37/115 2/38/116
