# This file uses centimeters as units for non-parametric coordinates.

v -0.000921 500.000061 25.001095
v 499.999084 500.000061 25.001095
v -0.000921 500.000061 -25.000923
v 499.999084 500.000061 -25.000923
v 62.365566 500.000061 25.001095
v 437.632599 500.000061 25.001095
v 347.529449 500.000061 25.001095
v 152.449646 500.000061 25.001095
v 354.136505 500.000061 87.327148
v 431.025543 500.000061 87.327148
v 68.957359 500.000061 87.327148
v 145.861664 500.000061 87.327148
v 347.529449 0.000010 25.001095
v 152.449646 0.000010 25.001095
v 145.861664 0.000010 87.327148
v 68.957359 0.000010 87.327148
v 62.365566 0.000010 25.001095
v -0.000921 0.000010 25.001095
v -0.000921 0.000010 -25.000923
v 499.999084 0.000010 -25.000923
v 499.999084 0.000010 25.001095
v 437.632599 0.000010 25.001095
v 431.025543 0.000010 87.327148
v 354.136505 0.000010 87.327148
v -0.000921 500.000061 0.000086
v -0.000921 0.000010 0.000086
v 499.999084 500.000061 0.000086
v 499.999084 0.000010 0.000086
v 145.861664 233.263519 87.327148
v 145.861664 64.438004 87.327148
v 147.414246 91.157486 72.638977
v 135.470703 132.235962 87.327148
v 68.957359 405.799042 87.327148
v 68.957359 144.662842 87.327148
v 78.947769 357.051727 87.327148
v 67.276939 354.545197 71.438583
v 354.136505 357.826691 87.327148
v 354.136505 211.510666 87.327148
v 368.636230 244.240860 87.327148
v 352.450165 245.527588 71.419373
v 431.025543 412.127533 87.327148
v 431.025543 71.053925 87.327148
v 432.435516 190.276932 74.026405
v 420.585968 189.527145 87.327148
vt 0.689613 1.007789
vt 0.689613 1.991295
vt 0.305914 1.991295
vt 0.305914 1.007789
vt 0.128690 1.991295
vt 0.128690 1.007789
vt 0.006015 1.991295
vt 0.006015 1.007789
vt 0.006015 1.991295
vt 0.006015 1.007789
vt 0.989521 1.991295
vt 0.989521 1.007789
vt 0.989521 1.991295
vt 0.989521 1.007789
vt 0.866841 1.991295
vt 0.866841 1.007789
vt 0.035474 0.136633
vt 0.035218 0.136633
vt 0.035474 0.134576
vt 0.035218 0.135535
vt 0.035279 0.134951
vt 0.035218 0.134841
vt 0.035218 0.135120
vt 0.035218 0.134576
vt 0.036095 0.136633
vt 0.035839 0.136633
vt 0.036095 0.136245
vt 0.036030 0.136034
vt 0.036095 0.135171
vt 0.036095 0.136045
vt 0.036095 0.134576
vt 0.035839 0.134576
vt 0.036326 0.136633
vt 0.036223 0.136633
vt 0.036223 0.134576
vt 0.036326 0.134576
vt 0.036120 0.136633
vt 0.036120 0.134576
vt 0.036552 0.136633
vt 0.036449 0.136633
vt 0.036449 0.134576
vt 0.036552 0.134576
vt 0.036346 0.136633
vt 0.036346 0.134576
vt 0.036828 0.136633
vt 0.036571 0.136633
vt 0.036828 0.134576
vt 0.036571 0.136271
vt 0.036626 0.135359
vt 0.036571 0.135356
vt 0.036571 0.134868
vt 0.036571 0.134576
vt 0.037454 0.136633
vt 0.037197 0.136633
vt 0.037454 0.136048
vt 0.037197 0.134576
vt 0.037388 0.135586
vt 0.037454 0.135446
vt 0.037454 0.134576
vt 0.037736 0.136376
vt 0.037736 0.136006
vt 0.037736 0.135203
vt 0.037736 0.134833
vt 0.037736 0.134576
vt 0.037838 0.134576
vt 0.037838 0.136633
vt 0.037736 0.136633
vt 0.037479 0.136349
vt 0.037479 0.136033
vt 0.037479 0.135176
vt 0.037479 0.134860
vt 0.037941 0.134576
vt 0.037941 0.136633
vt 0.038162 0.136376
vt 0.038162 0.136006
vt 0.038418 0.136033
vt 0.038418 0.136349
vt 0.038162 0.135203
vt 0.038162 0.136633
vt 0.038059 0.136633
vt 0.038059 0.134576
vt 0.038162 0.134576
vt 0.038162 0.134833
vt 0.037956 0.136633
vt 0.037956 0.134576
vt 0.038418 0.134860
vt 0.038418 0.135176
vt 0.035811 0.136633
vt 0.035494 0.136633
vt 0.035811 0.135535
vt 0.035494 0.136245
vt 0.035535 0.136045
vt 0.035494 0.135171
vt 0.035768 0.135120
vt 0.035494 0.134576
vt 0.035817 0.134951
vt 0.035811 0.134841
vt 0.035811 0.134576
vt 0.037176 0.136633
vt 0.036860 0.136633
vt 0.037176 0.136271
vt 0.036860 0.136048
vt 0.037133 0.135356
vt 0.036920 0.135581
vt 0.036853 0.135586
vt 0.036860 0.135446
vt 0.036860 0.134576
vt 0.037176 0.134868
vt 0.037176 0.134576
vn 0.000000 0.000000 1.000000
vn 0.000000 0.000000 1.000000
vn 0.000000 0.000000 1.000000
vn 0.000000 0.000000 1.000000
vn 0.994460 0.000000 0.105116
vn 0.994460 0.000000 0.105116
vn 0.994460 -0.000000 0.105116
vn 0.994460 0.000000 0.105116
vn 0.994460 0.000000 0.105116
vn 0.994460 -0.000000 0.105116
vn 0.994460 0.000000 0.105116
vn 0.994460 0.000000 0.105116
vn 0.994460 -0.000000 0.105116
vn 0.994460 0.000000 0.105116
vn 0.994460 -0.000000 0.105117
vn 0.994460 -0.000000 0.105116
vn 0.994460 -0.000000 0.105117
vn 0.994460 0.000000 0.105116
vn 0.994460 -0.000000 0.105116
vn 0.000000 0.000000 1.000000
vn 0.000000 0.000000 1.000000
vn 0.000000 0.000000 1.000000
vn 0.000000 0.000000 1.000000
vn 0.000000 0.000000 1.000000
vn 0.000000 0.000000 1.000000
vn 0.000000 0.000000 1.000000
vn 0.000000 0.000000 1.000000
vn 0.000000 0.000000 1.000000
vn 0.000000 0.000000 1.000000
vn 0.000000 0.000000 1.000000
vn 0.000000 0.000000 1.000000
vn 0.000000 0.000000 1.000000
vn 0.000000 0.000000 1.000000
vn -0.000000 0.000000 1.000000
vn 0.000000 0.000000 1.000000
vn -0.000000 0.000000 1.000000
vn -0.000000 0.000000 1.000000
vn -0.000000 0.000000 1.000000
vn -0.000000 0.000000 1.000000
vn -0.000000 0.000000 1.000000
vn -0.000000 0.000000 1.000000
vn 0.000000 0.000000 1.000000
vn -0.000000 0.000000 1.000000
vn -0.994454 0.000000 0.105177
vn -0.994454 -0.000000 0.105176
vn -0.994454 -0.000000 0.105176
vn -0.994454 0.000000 0.105176
vn -0.994454 0.000000 0.105176
vn -0.994454 -0.000000 0.105176
vn -0.994454 0.000000 0.105176
vn -0.994454 0.000000 0.105176
vn -0.994454 -0.000000 0.105176
vn -0.994454 0.000000 0.105176
vn -0.994454 0.000000 0.105177
vn -0.994454 -0.000000 0.105176
vn -0.994454 -0.000000 0.105176
vn -0.994454 0.000000 0.105177
vn -0.994454 -0.000000 0.105176
vn 0.000000 0.000000 1.000000
vn 0.000000 0.000000 1.000000
vn 0.000000 0.000000 1.000000
vn 0.000000 0.000000 1.000000
vn -1.000000 0.000000 0.000000
vn -1.000000 0.000000 0.000000
vn -1.000000 0.000000 0.000000
vn -1.000000 0.000000 0.000000
vn 0.000000 0.000000 -1.000000
vn 0.000000 0.000000 -1.000000
vn 0.000000 0.000000 -1.000000
vn 0.000000 0.000000 -1.000000
vn 1.000000 0.000000 0.000000
vn 1.000000 0.000000 0.000000
vn 1.000000 0.000000 0.000000
vn 1.000000 0.000000 0.000000
vn 0.000000 0.000000 1.000000
vn 0.000000 0.000000 1.000000
vn 0.000000 0.000000 1.000000
vn 0.000000 0.000000 1.000000
vn 0.994428 0.000000 0.105417
vn 0.994428 0.000000 0.105417
vn 0.994428 -0.000000 0.105417
vn 0.994428 0.000000 0.105417
vn 0.994428 -0.000000 0.105417
vn 0.994428 -0.000000 0.105417
vn 0.994428 -0.000000 0.105417
vn 0.994428 -0.000000 0.105418
vn 0.994428 -0.000000 0.105417
vn 0.994428 -0.000000 0.105418
vn 0.994428 0.000000 0.105417
vn 0.994428 -0.000000 0.105417
vn 0.994428 0.000000 0.105417
vn 0.994428 0.000000 0.105417
vn 0.994428 -0.000000 0.105417
vn 0.000000 0.000000 1.000000
vn 0.000000 0.000000 1.000000
vn 0.000000 0.000000 1.000000
vn 0.000000 0.000000 1.000000
vn 0.000000 0.000000 1.000000
vn 0.000000 0.000000 1.000000
vn 0.000000 0.000000 1.000000
vn 0.000000 0.000000 1.000000
vn -0.000000 0.000000 1.000000
vn 0.000000 0.000000 1.000000
vn 0.000000 0.000000 1.000000
vn -0.000000 0.000000 1.000000
vn 0.000000 0.000000 1.000000
vn -0.000000 0.000000 1.000000
vn -0.000000 0.000000 1.000000
vn -0.000000 0.000000 1.000000
vn -0.000000 0.000000 1.000000
vn -0.000000 0.000000 1.000000
vn -0.000000 0.000000 1.000000
vn -0.000000 0.000000 1.000000
vn -0.000000 0.000000 1.000000
vn -0.000000 0.000000 1.000000
vn 0.000000 0.000000 1.000000
vn -0.000000 0.000000 1.000000
vn -0.994428 0.000000 0.105417
vn -0.994428 0.000000 0.105417
vn -0.994428 0.000000 0.105417
vn -0.994428 0.000000 0.105417
vn -0.994428 0.000000 0.105417
vn -0.994428 0.000000 0.105417
vn -0.994428 0.000000 0.105417
vn -0.994428 0.000000 0.105417
vn -0.994428 0.000000 0.105419
vn -0.994428 0.000000 0.105419
vn -0.994428 0.000000 0.105417
vn -0.994428 0.000000 0.105417
vn -0.994428 0.000000 0.105417
vn -0.994428 0.000000 0.105417
vn -0.994428 0.000000 0.105417
vn 0.000000 1.000000 0.000000
vn 0.000000 1.000000 0.000000
vn 0.000000 1.000000 0.000000
vn 0.000000 1.000000 0.000000
vn 0.000000 1.000000 0.000000
vn 0.000000 1.000000 0.000000
vn 0.000000 1.000000 0.000000
vn 0.000000 1.000000 0.000000
vn 0.000000 -1.000000 0.000000
vn 0.000000 -1.000000 0.000000
vn 0.000000 -1.000000 0.000000
vn 0.000000 -1.000000 0.000000
vn 0.000000 1.000000 -0.000001
vn 0.000000 1.000000 -0.000001
vn 0.000000 1.000000 -0.000001
vn 0.000000 1.000000 -0.000001
vn 0.000000 1.000000 0.000001
vn 0.000000 1.000000 0.000001
vn 0.000000 1.000000 0.000001
vn 0.000000 1.000000 0.000001
vn 0.000000 -1.000000 0.000000
vn 0.000000 -1.000000 0.000000
vn 0.000000 -1.000000 0.000000
vn 0.000000 -1.000000 0.000000
vn 0.000000 -1.000000 0.000000
vn 0.000000 -1.000000 0.000000
vn 0.000000 -1.000000 0.000000
vn 0.000000 -1.000000 0.000000
vn -1.000000 0.000000 0.000000
vn -1.000000 0.000000 0.000000
vn -1.000000 0.000000 0.000000
vn -1.000000 0.000000 0.000000
vn 1.000000 0.000000 0.000000
vn 1.000000 0.000000 0.000000
vn 1.000000 0.000000 0.000000
vn 1.000000 0.000000 0.000000
vn 0.000000 1.000000 0.000000
vn 0.000000 1.000000 0.000000
vn 0.000000 1.000000 0.000000
vn 0.000000 1.000000 0.000000
vn 0.000000 -1.000000 0.000000
vn 0.000000 -1.000000 0.000000
vn 0.000000 -1.000000 0.000000
vn 0.000000 -1.000000 0.000000
vn 0.000000 -1.000000 0.000000
vn 0.000000 -1.000000 0.000000
vn 0.000000 -1.000000 0.000000
vn 0.000000 -1.000000 0.000000
vn 0.670806 -0.068994 0.738417
vn 0.670806 -0.068994 0.738417
vn 0.670806 -0.068994 0.738417
vn 0.923973 0.141612 0.355274
vn 0.923973 0.141612 0.355274
vn 0.923973 0.141612 0.355274
vn -0.783237 -0.160519 0.600644
vn -0.783237 -0.160519 0.600644
vn -0.783237 -0.160519 0.600644
vn -0.808209 0.038017 0.587667
vn -0.808209 0.038017 0.587667
vn -0.808209 0.038017 0.587667
vn -0.701744 -0.089581 0.706775
vn -0.701744 -0.089581 0.706775
vn -0.701744 -0.089581 0.706775
vn -0.658558 0.291746 0.693676
vn -0.658558 0.291746 0.693676
vn -0.658558 0.291746 0.693676
vn 0.747187 -0.035042 0.663689
vn 0.747187 -0.035042 0.663689
vn 0.747187 -0.035042 0.663689
vn 0.743226 0.065491 0.665827
vn 0.743226 0.065491 0.665827
vn 0.743226 0.065491 0.665827
s off
f 13/1/1 7/2/2 8/3/3 14/4/4
f 8/17/5 12/18/6 14/19/7
f 12/18/8 29/20/9 14/19/10
f 29/20/11 31/21/12 14/19/13
f 31/21/14 30/22/15 14/19/16
f 30/22/17 15/24/18 14/19/19
f 12/88/20 11/89/21 29/90/22
f 11/89/23 33/91/24 29/90/25
f 33/91/26 35/92/27 29/90/28
f 35/92/29 34/93/30 29/90/31
f 29/90/32 34/93/33 32/94/34
f 34/93/35 16/95/36 32/94/37
f 32/94/38 16/95/39 30/97/40
f 16/95/41 15/98/42 30/97/43
f 11/25/44 5/26/45 33/27/46
f 17/32/47 16/31/48 5/26/49
f 16/31/50 34/29/51 5/26/52
f 34/29/53 36/28/54 5/26/55
f 5/26/56 36/28/57 33/27/58
f 5/5/59 1/7/60 18/8/61 17/6/62
f 1/33/63 25/34/64 26/35/65 18/36/66
f 19/10/67 3/9/68 4/11/69 20/12/70
f 4/39/71 27/40/72 28/41/73 20/42/74
f 2/13/75 6/15/76 22/16/77 21/14/78
f 6/45/79 10/46/80 22/47/81
f 10/46/82 41/48/83 22/47/84
f 41/48/85 43/49/86 22/47/87
f 43/49/88 42/51/89 22/47/90
f 42/51/91 23/52/92 22/47/93
f 10/99/94 9/100/95 41/101/96
f 9/100/97 37/102/98 41/101/99
f 41/101/100 37/102/101 44/103/102
f 37/102/103 39/104/104 44/103/105
f 39/104/106 38/106/107 44/103/108
f 38/106/109 24/107/110 44/103/111
f 44/103/112 24/107/113 42/108/114
f 24/107/115 23/109/116 42/108/117
f 9/53/118 7/54/119 37/55/120
f 7/54/121 13/56/122 37/55/123
f 37/55/124 13/56/125 40/57/126
f 40/57/127 13/56/128 38/58/129
f 13/56/130 24/59/131 38/58/132
f 5/60/133 8/61/134 7/62/135 6/63/136 2/64/137 27/65/138 25/66/139 1/67/140
f 17/74/141 14/75/142 15/76/143 16/77/144
f 5/60/145 11/68/146 12/69/147 8/61/148
f 6/63/149 7/62/150 9/70/151 10/71/152
f 13/78/153 22/83/154 23/86/155 24/87/156
f 28/81/157 26/80/158 19/84/159 20/85/160
f 26/35/161 25/34/162 3/37/163 19/38/164
f 28/41/165 27/40/166 2/43/167 21/44/168
f 25/66/169 27/65/170 4/72/171 3/73/172
f 13/78/173 14/75/174 17/74/175 18/79/176 26/80/177 28/81/178 21/82/179 22/83/180
f 29/90/181 32/94/182 31/96/183
f 31/21/184 32/23/185 30/22/186
f 33/27/187 36/28/188 35/30/189
f 35/30/190 36/28/191 34/29/192
f 37/102/193 40/105/194 39/104/195
f 39/104/196 40/105/197 38/106/198
f 44/50/199 43/49/200 41/48/201
f 42/51/202 43/49/203 44/50/204
