# This file uses centimeters as units for non-parametric coordinates.

v -53.664063 -0.000732 53.654297
v 53.683594 -0.000732 53.654297
v -53.664063 132.370789 53.654297
v 53.683594 132.370789 53.654297
v -53.664063 132.370789 -53.689453
v 53.683594 132.370789 -53.689453
v -53.664063 -0.000732 -53.689453
v 53.683594 -0.000732 -53.689453
v -53.664063 17.004456 53.654297
v 53.683594 17.004456 53.654297
v 53.683594 17.004456 -53.689453
v -53.664063 17.004456 -53.689453
v -53.664063 119.430725 -53.689453
v 53.683594 119.430725 -53.689453
v 53.683594 119.430725 53.654297
v -53.664063 119.430725 53.654297
v -47.199219 19.809143 47.189453
v 47.207031 19.809143 47.189453
v 47.207031 116.625916 47.189453
v -47.199219 116.625916 47.189453
v -47.199219 116.625916 -47.224609
v 47.207031 116.625916 -47.224609
v 47.207031 19.809143 -47.224609
v -47.199219 19.809143 -47.224609
v 47.207031 32.463074 34.853516
v 47.207031 32.463074 -34.884766
v 47.207031 103.971619 -34.884766
v 47.207031 103.971619 34.853516
v -47.199219 32.463074 -34.884766
v -47.199219 32.463074 34.853516
v -47.199219 103.971619 34.853516
v -47.199219 103.971619 -34.884766
v -34.859375 32.463074 47.189453
v 34.876953 32.463074 47.189453
v 34.876953 103.971619 47.189453
v -34.859375 103.971619 47.189453
v -34.859375 103.971619 -47.224609
v 34.876953 103.971619 -47.224609
v 34.876953 32.463074 -47.224609
v -34.859375 32.463074 -47.224609
v -31.857422 35.548157 41.908203
v 31.861328 35.548157 41.908203
v 31.861328 100.886902 41.908203
v -31.857422 100.886902 41.908203
v -31.857422 100.886902 -41.939453
v 31.861328 100.886902 -41.939453
v 31.861328 35.548157 -41.939453
v -31.857422 35.548157 -41.939453
v 41.935547 35.548157 31.841797
v 41.935547 35.548157 -31.873047
v 41.935547 100.886902 -31.873047
v 41.935547 100.886902 31.841797
v -41.914063 35.548157 -31.873047
v -41.914063 35.548157 31.841797
v -41.914063 100.886902 31.841797
v -41.914063 100.886902 -31.873047
v -42.730469 132.370789 42.720703
v 42.742188 132.370789 42.720703
v 42.742188 132.370789 -42.755859
v -42.730469 132.370789 -42.755859
v -39.591797 139.583679 39.583984
v 39.605469 139.583679 39.583984
v 39.605469 139.583679 -39.615234
v -39.591797 139.583679 -39.615234
v -34.699219 -0.000732 -34.728516
v 34.718750 -0.000732 -34.728516
v 34.718750 -0.000732 34.689453
v -34.699219 -0.000732 34.689453
v -24.906250 -61.169373 -24.935547
v 24.925781 -61.169373 -24.935547
v 24.925781 -61.169373 24.896484
v -24.906250 -61.169373 24.896484
vt 0.197921 0.303566
vt 0.197565 0.303490
vt 0.197562 0.303125
vt 0.197926 0.303180
vt 0.197985 0.302946
vt 0.197527 0.302894
vt 0.197805 0.302826
vt 0.198234 0.302869
vt 0.198190 0.303075
vt 0.197850 0.303030
vt 0.197847 0.303361
vt 0.198180 0.303421
vt 0.198325 0.303608
vt 0.197776 0.303495
vt 0.197411 0.303677
vt 0.198008 0.303826
vt 0.197550 0.303462
vt 0.197767 0.303365
vt 0.197768 0.303034
vt 0.197546 0.303104
vt 0.198208 0.303448
vt 0.198014 0.303559
vt 0.198022 0.303175
vt 0.198219 0.303094
vt 0.197409 0.303586
vt 0.198010 0.303727
vt 0.197776 0.303414
vt 0.198329 0.303521
vt 0.198353 0.302905
vt 0.197779 0.302846
vt 0.197778 0.302912
vt 0.198350 0.302976
vt 0.197398 0.303015
vt 0.197396 0.302940
vt 0.198022 0.303102
vt 0.198023 0.303019
vt 0.197467 0.303567
vt 0.197993 0.303687
vt 0.198003 0.303105
vt 0.197458 0.303029
vt 0.197790 0.302935
vt 0.198295 0.302994
vt 0.198276 0.303511
vt 0.197788 0.303416
vt 0.197750 0.303372
vt 0.197512 0.303478
vt 0.197751 0.303012
vt 0.197507 0.303087
vt 0.198036 0.303589
vt 0.198245 0.303465
vt 0.198044 0.303166
vt 0.198258 0.303077
vt 0.197530 0.303512
vt 0.197920 0.303597
vt 0.197525 0.303111
vt 0.197925 0.303172
vt 0.197851 0.303007
vt 0.198222 0.303054
vt 0.197848 0.303366
vt 0.198210 0.303432
vt 0.197498 0.302936
vt 0.197993 0.302997
vt 0.197799 0.302860
vt 0.198260 0.302908
vt 0.197652 0.280432
vt 0.197364 0.280203
vt 0.197353 0.279703
vt 0.197652 0.279878
vt 0.198353 0.279741
vt 0.198005 0.279594
vt 0.197992 0.280060
vt 0.198325 0.280253
vt 0.197404 0.280154
vt 0.197876 0.280049
vt 0.197884 0.279585
vt 0.197394 0.279665
vt 0.198309 0.280308
vt 0.197792 0.280449
vt 0.197798 0.279891
vt 0.198337 0.279783
vt 0.198325 0.303608
vt 0.197776 0.303495
vt 0.197411 0.303677
vt 0.198008 0.303826
vt 0.198325 0.303608
vt 0.197776 0.303495
vt 0.197411 0.303677
vt 0.198008 0.303826
vn 0.000000 0.000000 1.000000
vn 0.000000 0.000000 1.000000
vn 0.000000 0.000000 1.000000
vn 0.000000 0.000000 1.000000
vn 0.000000 1.000000 0.000000
vn 0.000000 1.000000 0.000000
vn 0.000000 1.000000 0.000000
vn 0.000000 1.000000 0.000000
vn 0.000000 0.000000 -1.000000
vn 0.000000 0.000000 -1.000000
vn 0.000000 0.000000 -1.000000
vn 0.000000 0.000000 -1.000000
vn 0.000000 -1.000000 0.000000
vn 0.000000 -1.000000 0.000000
vn 0.000000 -1.000000 0.000000
vn 0.000000 -1.000000 0.000000
vn 1.000000 0.000000 0.000000
vn 1.000000 0.000000 0.000000
vn 1.000000 0.000000 0.000000
vn 1.000000 0.000000 0.000000
vn -1.000000 0.000000 0.000000
vn -1.000000 0.000000 0.000000
vn -1.000000 0.000000 0.000000
vn -1.000000 0.000000 0.000000
vn 0.000000 0.000000 1.000000
vn 0.000000 0.000000 1.000000
vn 0.000000 0.000000 1.000000
vn 0.000000 0.000000 1.000000
vn 1.000000 0.000000 0.000000
vn 1.000000 0.000000 0.000000
vn 1.000000 0.000000 0.000000
vn 1.000000 0.000000 0.000000
vn 0.000000 0.000000 -1.000000
vn 0.000000 0.000000 -1.000000
vn 0.000000 0.000000 -1.000000
vn 0.000000 0.000000 -1.000000
vn -1.000000 0.000000 0.000000
vn -1.000000 0.000000 0.000000
vn -1.000000 0.000000 0.000000
vn -1.000000 0.000000 0.000000
vn 0.000000 0.000000 -1.000000
vn 0.000000 0.000000 -1.000000
vn 0.000000 0.000000 -1.000000
vn 0.000000 0.000000 -1.000000
vn 1.000000 0.000000 0.000000
vn 1.000000 0.000000 0.000000
vn 1.000000 0.000000 0.000000
vn 1.000000 0.000000 0.000000
vn 0.000000 0.000000 1.000000
vn 0.000000 0.000000 1.000000
vn 0.000000 0.000000 1.000000
vn 0.000000 0.000000 1.000000
vn -1.000000 0.000000 0.000000
vn -1.000000 0.000000 0.000000
vn -1.000000 0.000000 0.000000
vn -1.000000 0.000000 0.000000
vn 0.000000 0.917387 0.397996
vn 0.000000 0.917387 0.397996
vn 0.000000 0.917387 0.397996
vn 0.000000 0.917387 0.397996
vn 0.000000 -0.917381 0.398011
vn 0.000000 -0.917381 0.398011
vn 0.000000 -0.917381 0.398011
vn 0.000000 -0.917381 0.398011
vn 0.000000 -0.917381 -0.398010
vn 0.000000 -0.917381 -0.398010
vn 0.000000 -0.917381 -0.398010
vn 0.000000 -0.917381 -0.398010
vn 0.000000 0.917387 -0.397996
vn 0.000000 0.917387 -0.397996
vn 0.000000 0.917387 -0.397996
vn 0.000000 0.917387 -0.397996
vn 0.397390 0.917650 0.000000
vn 0.397390 0.917650 0.000000
vn 0.397390 0.917650 0.000000
vn 0.397390 0.917650 0.000000
vn 0.397405 -0.917643 0.000000
vn 0.397405 -0.917643 0.000000
vn 0.397405 -0.917643 0.000000
vn 0.397405 -0.917643 0.000000
vn -0.397996 0.917387 0.000000
vn -0.397996 0.917387 0.000000
vn -0.397996 0.917387 0.000000
vn -0.397996 0.917387 0.000000
vn -0.398011 -0.917381 0.000000
vn -0.398011 -0.917381 0.000000
vn -0.398011 -0.917381 0.000000
vn -0.398011 -0.917381 0.000000
vn 1.000000 0.000000 0.000000
vn 1.000000 0.000000 0.000000
vn 1.000000 0.000000 0.000000
vn 1.000000 0.000000 0.000000
vn 1.000000 0.000000 0.000000
vn 1.000000 0.000000 0.000000
vn 1.000000 0.000000 0.000000
vn 1.000000 0.000000 0.000000
vn 1.000000 -0.000000 0.000000
vn 1.000000 -0.000000 0.000000
vn 1.000000 -0.000000 0.000000
vn 1.000000 -0.000000 0.000000
vn 1.000000 0.000000 0.000000
vn 1.000000 0.000000 0.000000
vn 1.000000 0.000000 0.000000
vn 1.000000 0.000000 0.000000
vn -1.000000 0.000000 0.000000
vn -1.000000 0.000000 0.000000
vn -1.000000 0.000000 0.000000
vn -1.000000 0.000000 0.000000
vn -1.000000 0.000000 0.000000
vn -1.000000 0.000000 0.000000
vn -1.000000 0.000000 0.000000
vn -1.000000 0.000000 0.000000
vn -1.000000 -0.000000 0.000000
vn -1.000000 -0.000000 0.000000
vn -1.000000 -0.000000 0.000000
vn -1.000000 -0.000000 0.000000
vn -1.000000 0.000000 0.000000
vn -1.000000 0.000000 0.000000
vn -1.000000 0.000000 0.000000
vn -1.000000 0.000000 0.000000
vn 0.000000 0.000000 1.000000
vn 0.000000 0.000000 1.000000
vn 0.000000 0.000000 1.000000
vn 0.000000 0.000000 1.000000
vn 0.000000 0.000000 1.000000
vn 0.000000 0.000000 1.000000
vn 0.000000 0.000000 1.000000
vn 0.000000 0.000000 1.000000
vn 0.000000 0.000000 1.000000
vn 0.000000 0.000000 1.000000
vn 0.000000 0.000000 1.000000
vn 0.000000 0.000000 1.000000
vn -0.000000 0.000000 1.000000
vn -0.000000 0.000000 1.000000
vn -0.000000 0.000000 1.000000
vn -0.000000 0.000000 1.000000
vn 0.000000 0.000000 -1.000000
vn 0.000000 0.000000 -1.000000
vn 0.000000 0.000000 -1.000000
vn 0.000000 0.000000 -1.000000
vn 0.000000 0.000000 -1.000000
vn 0.000000 0.000000 -1.000000
vn 0.000000 0.000000 -1.000000
vn 0.000000 0.000000 -1.000000
vn 0.000000 0.000000 -1.000000
vn 0.000000 0.000000 -1.000000
vn 0.000000 0.000000 -1.000000
vn 0.000000 0.000000 -1.000000
vn 0.000000 0.000000 -1.000000
vn 0.000000 0.000000 -1.000000
vn 0.000000 0.000000 -1.000000
vn 0.000000 0.000000 -1.000000
vn 0.000000 0.863469 0.504402
vn 0.000000 0.863469 0.504402
vn 0.000000 0.863469 0.504402
vn 0.000000 0.863469 0.504402
vn -0.868401 0.000000 0.495862
vn -0.868401 0.000000 0.495862
vn -0.868401 0.000000 0.495862
vn -0.868401 0.000000 0.495862
vn 0.000000 -0.863495 0.504358
vn 0.000000 -0.863495 0.504358
vn 0.000000 -0.863495 0.504358
vn 0.000000 -0.863495 0.504358
vn 0.869369 0.000000 0.494164
vn 0.869369 0.000000 0.494164
vn 0.869369 0.000000 0.494164
vn 0.869369 0.000000 0.494164
vn 0.000000 -0.863657 -0.504080
vn 0.000000 -0.863657 -0.504080
vn 0.000000 -0.863657 -0.504080
vn 0.000000 -0.863657 -0.504080
vn -0.868559 0.000000 -0.495586
vn -0.868559 0.000000 -0.495586
vn -0.868559 0.000000 -0.495586
vn -0.868559 0.000000 -0.495586
vn 0.000000 0.863631 -0.504124
vn 0.000000 0.863631 -0.504124
vn 0.000000 0.863631 -0.504124
vn 0.000000 0.863631 -0.504124
vn 0.869526 0.000000 -0.493888
vn 0.869526 0.000000 -0.493888
vn 0.869526 0.000000 -0.493888
vn 0.869526 0.000000 -0.493888
vn 0.505098 0.863062 0.000000
vn 0.505098 0.863062 0.000000
vn 0.505098 0.863062 0.000000
vn 0.505098 0.863062 0.000000
vn 0.496070 0.000000 0.868283
vn 0.496070 0.000000 0.868283
vn 0.496070 0.000000 0.868283
vn 0.496070 0.000000 0.868283
vn 0.505053 -0.863088 0.000000
vn 0.505053 -0.863088 0.000000
vn 0.505053 -0.863088 0.000000
vn 0.505053 -0.863088 0.000000
vn 0.496070 0.000000 -0.868283
vn 0.496070 0.000000 -0.868283
vn 0.496070 0.000000 -0.868283
vn 0.496070 0.000000 -0.868283
vn -0.504124 0.863631 0.000000
vn -0.504124 0.863631 0.000000
vn -0.504124 0.863631 0.000000
vn -0.504124 0.863631 0.000000
vn -0.495101 0.000000 -0.868835
vn -0.495101 0.000000 -0.868835
vn -0.495101 0.000000 -0.868835
vn -0.495101 0.000000 -0.868835
vn -0.504080 -0.863657 0.000000
vn -0.504080 -0.863657 0.000000
vn -0.504079 -0.863657 0.000000
vn -0.504079 -0.863657 0.000000
vn -0.495101 0.000000 0.868835
vn -0.495101 0.000000 0.868835
vn -0.495101 0.000000 0.868835
vn -0.495101 0.000000 0.868836
vn 0.000000 1.000000 -0.000001
vn 0.000000 1.000000 -0.000001
vn 0.000000 1.000000 -0.000001
vn 0.000000 1.000000 -0.000001
vn 0.000000 1.000000 0.000000
vn 0.000000 1.000000 0.000000
vn 0.000000 1.000000 0.000000
vn 0.000000 1.000000 0.000000
vn 0.000000 1.000000 0.000001
vn 0.000000 1.000000 0.000001
vn 0.000000 1.000000 0.000001
vn 0.000000 1.000000 0.000001
vn 0.000000 1.000000 0.000000
vn 0.000000 1.000000 0.000000
vn 0.000000 1.000000 0.000000
vn 0.000000 1.000000 0.000000
vn 0.000000 0.398799 0.917038
vn 0.000000 0.398799 0.917038
vn 0.000000 0.398799 0.917038
vn 0.000000 0.398799 0.917039
vn 0.917038 0.398799 0.000000
vn 0.917039 0.398799 0.000000
vn 0.917039 0.398799 0.000000
vn 0.917038 0.398799 0.000000
vn 0.000000 0.399216 -0.916857
vn 0.000000 0.399216 -0.916857
vn 0.000000 0.399216 -0.916857
vn 0.000000 0.399216 -0.916857
vn -0.916948 0.399008 0.000000
vn -0.916948 0.399008 0.000000
vn -0.916948 0.399008 0.000000
vn -0.916948 0.399008 0.000000
vn 0.000000 -1.000000 0.000000
vn 0.000000 -1.000000 0.000000
vn 0.000000 -1.000000 0.000000
vn 0.000000 -1.000000 0.000000
vn 0.000000 -1.000000 0.000000
vn 0.000000 -1.000000 0.000000
vn 0.000000 -1.000000 0.000000
vn 0.000000 -1.000000 0.000000
vn 0.000000 -1.000000 0.000000
vn 0.000000 -1.000000 0.000000
vn 0.000000 -1.000000 0.000000
vn 0.000000 -1.000000 0.000000
vn 0.000000 -1.000000 0.000000
vn 0.000000 -1.000000 0.000000
vn 0.000000 -1.000000 0.000000
vn 0.000000 -1.000000 0.000000
vn 0.000000 -0.158085 -0.987426
vn 0.000000 -0.158085 -0.987426
vn 0.000000 -0.158085 -0.987426
vn 0.000000 -0.158085 -0.987426
vn 0.987426 -0.158085 0.000000
vn 0.987426 -0.158085 0.000000
vn 0.987426 -0.158085 0.000000
vn 0.987426 -0.158085 0.000000
vn 0.000000 -0.158085 0.987426
vn 0.000000 -0.158085 0.987426
vn 0.000000 -0.158085 0.987426
vn 0.000000 -0.158085 0.987426
vn -0.987426 -0.158085 0.000000
vn -0.987426 -0.158085 0.000000
vn -0.987426 -0.158085 0.000000
vn -0.987426 -0.158085 0.000000
s off
f 41/65/1 42/66/2 43/67/3 44/68/4
f 61/5/5 62/6/6 63/7/7 64/8/8
f 45/69/9 46/70/10 47/71/11 48/72/12
f 69/85/13 70/86/14 71/87/15 72/88/16
f 49/73/17 50/74/18 51/75/19 52/76/20
f 53/77/21 54/78/22 55/79/23 56/80/24
f 1/16/25 2/15/26 10/25/27 9/26/28
f 2/15/29 8/14/30 11/27/31 10/25/32
f 12/28/33 11/27/34 8/14/35 7/13/36
f 7/13/37 1/16/38 9/26/39 12/28/40
f 5/29/41 6/30/42 14/31/43 13/32/44
f 15/33/45 14/31/46 6/30/47 4/34/48
f 16/35/49 15/33/50 4/34/51 3/36/52
f 13/32/53 16/35/54 3/36/55 5/29/56
f 9/26/57 10/25/58 18/37/59 17/38/60
f 15/33/61 16/35/62 20/39/63 19/40/64
f 13/32/65 14/31/66 22/41/67 21/42/68
f 11/27/69 12/28/70 24/43/71 23/44/72
f 10/25/73 11/27/74 23/44/75 18/37/76
f 14/31/77 15/33/78 19/40/79 22/41/80
f 12/28/81 9/26/82 17/38/83 24/43/84
f 16/35/85 13/32/86 21/42/87 20/39/88
f 18/37/89 23/44/90 26/45/91 25/46/92
f 23/44/93 22/41/94 27/47/95 26/45/96
f 22/41/97 19/40/98 28/48/99 27/47/100
f 19/40/101 18/37/102 25/46/103 28/48/104
f 24/43/105 17/38/106 30/49/107 29/50/108
f 17/38/109 20/39/110 31/51/111 30/49/112
f 20/39/113 21/42/114 32/52/115 31/51/116
f 21/42/117 24/43/118 29/50/119 32/52/120
f 17/38/121 18/37/122 34/53/123 33/54/124
f 18/37/125 19/40/126 35/55/127 34/53/128
f 19/40/129 20/39/130 36/56/131 35/55/132
f 20/39/133 17/38/134 33/54/135 36/56/136
f 21/42/137 22/41/138 38/57/139 37/58/140
f 22/41/141 23/44/142 39/59/143 38/57/144
f 23/44/145 24/43/146 40/60/147 39/59/148
f 24/43/149 21/42/150 37/58/151 40/60/152
f 33/54/153 34/53/154 42/2/155 41/1/156
f 34/53/157 35/55/158 43/3/159 42/2/160
f 35/55/161 36/56/162 44/4/163 43/3/164
f 36/56/165 33/54/166 41/1/167 44/4/168
f 37/58/169 38/57/170 46/10/171 45/9/172
f 38/57/173 39/59/174 47/11/175 46/10/176
f 39/59/177 40/60/178 48/12/179 47/11/180
f 40/60/181 37/58/182 45/9/183 48/12/184
f 25/46/185 26/45/186 50/18/187 49/17/188
f 26/45/189 27/47/190 51/19/191 50/18/192
f 27/47/193 28/48/194 52/20/195 51/19/196
f 28/48/197 25/46/198 49/17/199 52/20/200
f 29/50/201 30/49/202 54/22/203 53/21/204
f 30/49/205 31/51/206 55/23/207 54/22/208
f 31/51/209 32/52/210 56/24/211 55/23/212
f 32/52/213 29/50/214 53/21/215 56/24/216
f 3/36/217 4/34/218 58/61/219 57/62/220
f 4/34/221 6/30/222 59/63/223 58/61/224
f 6/30/225 5/29/226 60/64/227 59/63/228
f 5/29/229 3/36/230 57/62/231 60/64/232
f 57/62/233 58/61/234 62/6/235 61/5/236
f 58/61/237 59/63/238 63/7/239 62/6/240
f 59/63/241 60/64/242 64/8/243 63/7/244
f 60/64/245 57/62/246 61/5/247 64/8/248
f 7/13/249 8/14/250 66/82/251 65/81/252
f 8/14/253 2/15/254 67/83/255 66/82/256
f 2/15/257 1/16/258 68/84/259 67/83/260
f 1/16/261 7/13/262 65/81/263 68/84/264
f 65/81/265 66/82/266 70/86/267 69/85/268
f 66/82/269 67/83/270 71/87/271 70/86/272
f 67/83/273 68/84/274 72/88/275 71/87/276
f 68/84/277 65/81/278 69/85/279 72/88/280
