# This file uses centimeters as units for non-parametric coordinates.

v 4.991455 31.172600 -115.822754
v -4.990234 31.172600 -115.822754
v 4.991455 35.452194 -115.822754
v -4.990234 35.452194 -115.822754
v 4.991455 35.452194 0.000000
v -4.990234 35.452194 0.000000
v 4.991455 31.172600 0.000000
v -4.990234 31.172600 0.000000
v 4.991455 75.838135 -115.822754
v -4.990234 75.838135 -115.822754
v 4.991455 80.117722 -115.822754
v -4.990234 80.117722 -115.822754
v 4.991455 80.117722 0.000000
v -4.990234 80.117722 0.000000
v 4.991455 75.838135 0.000000
v -4.990234 75.838135 0.000000
v -2.658081 98.566811 -55.659180
v 0.588989 98.566811 -53.225098
v -2.658081 98.566811 -59.606934
v 0.588989 98.566811 -60.866699
v -2.658081 0.000000 -59.606934
v 0.588989 0.000000 -60.866699
v -2.658081 0.000000 -55.659180
v 0.588989 0.000000 -53.225098
v 2.689209 98.566811 -57.045898
v 2.689209 0.000000 -57.045898
v -6.788025 95.381264 0.000000
v 6.788025 95.381264 0.000000
v -6.788025 102.711891 0.000000
v 6.788025 102.711891 0.000000
v -6.788025 102.711891 -115.822754
v 6.788025 102.711891 -115.822754
v -6.788025 95.381264 -115.822754
v 6.788025 95.381264 -115.821533
v -6.788025 101.661751 -60.811768
v -6.788025 101.661743 -96.055908
v -1.042175 101.661743 -77.083740
v -6.788025 99.178459 -76.430664
vt 0.495863 0.156153
vt 0.495878 0.156189
vt 0.495891 0.156154
vt 0.495876 0.156118
vt 0.494891 0.156192
vt 0.494895 0.156155
vt 0.494898 0.156227
vt 0.494902 0.156190
vt 0.495863 0.156153
vt 0.495878 0.156189
vt 0.495891 0.156154
vt 0.495876 0.156118
vt 0.494891 0.156192
vt 0.494895 0.156155
vt 0.494898 0.156227
vt 0.494902 0.156190
vt 0.494891 0.156192
vt 0.494895 0.156155
vt 0.494902 0.156190
vt 0.494898 0.156227
vt 0.494895 0.156209
vt 0.495863 0.156153
vt 0.495878 0.156189
vt 0.495891 0.156154
vt 0.495876 0.156118
vt 0.495162 0.156152
vt 0.494891 0.156192
vt 0.494895 0.156155
vt 0.494898 0.156227
vt 0.494902 0.156190
vt 0.495160 0.156158
vt 0.495065 0.156148
vt 0.495876 0.156118
vt 0.495891 0.156154
vt 0.495884 0.156172
vt 0.495878 0.156189
vt 0.495863 0.156153
vt 0.495241 0.156142
vn 0.000000 0.000000 -1.000000
vn 0.000000 0.000000 -1.000000
vn 0.000000 0.000000 -1.000000
vn 0.000000 0.000000 -1.000000
vn 0.000000 0.000000 1.000000
vn 0.000000 0.000000 1.000000
vn 0.000000 0.000000 1.000000
vn 0.000000 0.000000 1.000000
vn 0.000000 -1.000000 0.000000
vn 0.000000 -1.000000 0.000000
vn 0.000000 -1.000000 0.000000
vn 0.000000 -1.000000 0.000000
vn -1.000000 0.000000 0.000000
vn -1.000000 0.000000 0.000000
vn -1.000000 0.000000 0.000000
vn -1.000000 0.000000 0.000000
vn 0.000000 1.000000 0.000000
vn 0.000000 1.000000 0.000000
vn 0.000000 1.000000 0.000000
vn 0.000000 1.000000 0.000000
vn 1.000000 0.000000 0.000000
vn 1.000000 0.000000 0.000000
vn 1.000000 0.000000 0.000000
vn 1.000000 0.000000 0.000000
vn 0.000000 0.000000 -1.000000
vn 0.000000 0.000000 -1.000000
vn 0.000000 0.000000 -1.000000
vn 0.000000 0.000000 -1.000000
vn 0.000000 0.000000 1.000000
vn 0.000000 0.000000 1.000000
vn 0.000000 0.000000 1.000000
vn 0.000000 0.000000 1.000000
vn 0.000000 -1.000000 0.000000
vn 0.000000 -1.000000 0.000000
vn 0.000000 -1.000000 0.000000
vn 0.000000 -1.000000 0.000000
vn 0.000000 1.000000 0.000000
vn 0.000000 1.000000 0.000000
vn 0.000000 1.000000 0.000000
vn 0.000000 1.000000 0.000000
vn 1.000000 0.000000 0.000000
vn 1.000000 0.000000 0.000000
vn 1.000000 0.000000 0.000000
vn 1.000000 0.000000 0.000000
vn -1.000000 0.000000 0.000000
vn -1.000000 0.000000 0.000000
vn -1.000000 0.000000 0.000000
vn -1.000000 0.000000 0.000000
vn -0.361703 0.000000 -0.932293
vn -0.361703 0.000000 -0.932293
vn -0.361703 0.000000 -0.932293
vn -0.361703 0.000000 -0.932293
vn -0.599808 0.000000 0.800144
vn -0.599808 0.000000 0.800144
vn -0.599808 0.000000 0.800144
vn -0.599808 0.000000 0.800144
vn 0.876334 0.000000 -0.481703
vn 0.876334 0.000000 -0.481703
vn 0.876334 0.000000 -0.481703
vn 0.876334 0.000000 -0.481703
vn -1.000000 0.000000 0.000000
vn -1.000000 0.000000 0.000000
vn -1.000000 0.000000 0.000000
vn -1.000000 0.000000 0.000000
vn 0.876334 0.000000 0.481704
vn 0.876334 0.000000 0.481704
vn 0.876334 0.000000 0.481704
vn 0.876334 0.000000 0.481704
vn 0.000000 0.000000 1.000000
vn 0.000000 0.000000 1.000000
vn 0.000000 0.000000 1.000000
vn 0.000000 0.000000 1.000000
vn 0.000045 -0.000083 -1.000000
vn 0.000045 -0.000083 -1.000000
vn 0.000045 -0.000083 -1.000000
vn 0.000045 -0.000083 -1.000000
vn 0.000000 -1.000000 0.000000
vn 0.000000 -1.000000 0.000000
vn 0.000000 -1.000000 0.000000
vn 0.000000 -1.000000 0.000000
vn -1.000000 0.000000 0.000000
vn -1.000000 0.000000 0.000000
vn -1.000000 0.000000 0.000000
vn -1.000000 0.000000 0.000000
vn -0.382910 0.916478 0.115967
vn -0.382909 0.916478 0.115967
vn -0.382909 0.916478 0.115967
vn -0.406313 0.902400 -0.143474
vn -0.406313 0.902400 -0.143474
vn -0.406313 0.902400 -0.143474
vn -0.031124 0.999013 0.031698
vn -0.031124 0.999013 0.031698
vn -0.031124 0.999013 0.031698
vn -0.031124 0.999013 0.031698
vn -0.109929 0.993936 -0.002788
vn -0.017502 0.999750 -0.013905
vn -0.132925 0.991126 0.000000
vn -1.000000 -0.000000 0.000000
vn -1.000000 -0.000000 0.000000
vn -1.000000 -0.000000 0.000000
vn -1.000000 -0.000000 0.000000
vn -1.000000 0.000000 0.000000
vn -1.000000 0.000000 0.000000
vn -1.000000 0.000000 0.000000
vn 1.000000 0.000000 0.000000
vn 1.000000 0.000000 0.000000
vn 1.000000 0.000000 0.000000
vn 1.000000 0.000000 0.000000
vn -0.012239 0.999819 -0.014533
vn -0.017502 0.999750 -0.013905
vn -0.109929 0.993936 -0.002788
vn -0.012239 0.999819 -0.014533
s off
f 1/1/1 2/2/2 4/3/3 3/4/4
f 5/6/5 6/5/6 8/7/7 7/8/8
f 7/8/9 8/7/10 2/2/11 1/1/12
f 6/5/13 4/3/14 2/2/15 8/7/16
f 3/4/17 4/3/18 6/5/19 5/6/20
f 1/1/21 3/4/22 5/6/23 7/8/24
f 9/9/25 10/10/26 12/11/27 11/12/28
f 13/14/29 14/13/30 16/15/31 15/16/32
f 15/16/33 16/15/34 10/10/35 9/9/36
f 11/12/37 12/11/38 14/13/39 13/14/40
f 9/9/41 11/12/42 13/14/43 15/16/44
f 16/15/45 14/13/46 12/11/47 10/10/48
f 22/17/49 21/18/50 19/33/51 20/34/52
f 23/19/53 24/20/54 18/36/55 17/37/56
f 26/21/57 22/17/58 20/34/59 25/35/60
f 19/33/61 21/18/62 23/19/63 17/37/64
f 24/20/65 26/21/66 25/35/67 18/36/68
f 27/22/69 28/23/70 30/24/71 29/25/72
f 31/28/73 32/27/74 34/29/75 33/30/76
f 33/30/77 34/29/78 28/23/79 27/22/80
f 33/30/81 38/31/82 36/32/83 31/28/84
f 36/32/85 38/31/86 37/26/87
f 37/26/88 38/31/89 35/38/90
f 37/26/91 32/27/92 31/28/93 36/32/94
f 37/26/95 30/24/96 32/27/97
f 38/31/98 27/22/99 29/25/100 35/38/101
f 33/30/102 27/22/103 38/31/104
f 34/29/105 32/27/106 30/24/107 28/23/108
f 29/25/109 30/24/110 37/26/111 35/38/112
