# This file uses centimeters as units for non-parametric coordinates.

v -25.000977 0.000000 0.000000
v 14.961914 0.000000 200.908203
v 128.768555 0.000000 371.230469
v 299.088867 0.000000 485.033203
v 499.999023 0.000000 525.000000
v -25.000977 500.000000 0.000000
v 14.961914 500.000000 200.908203
v 128.768555 500.000000 371.230469
v 299.088867 500.000000 485.033203
v 499.999023 500.000000 525.000000
v 24.852539 0.000000 0.000000
v 61.022461 0.000000 181.828125
v 164.018555 0.000000 335.978516
v 318.166992 0.000000 438.976563
v 499.999023 0.000000 475.000000
v 24.852539 500.000000 0.000000
v 61.022461 500.000000 181.828125
v 164.018555 500.000000 335.980469
v 318.168945 500.000000 438.978516
v 499.999023 500.000000 475.000000
v 37.991211 0.000000 191.367188
v -0.075195 0.000000 0.000000
v -0.075195 500.000000 0.000000
v 37.991211 500.000000 191.367188
v 146.393555 500.000000 353.605469
v 308.627930 500.000000 462.005859
v 499.999023 500.000000 500.000000
v 499.999023 0.000000 500.000000
v 308.627930 0.000000 462.003906
v 146.393555 0.000000 353.605469
vt 0.015537 0.030664
vt 0.015498 0.030798
vt 0.015522 0.030799
vt 0.015557 0.030671
vt 0.015629 0.030565
vt 0.015644 0.030576
vt 0.015759 0.030506
vt 0.015768 0.030519
vt 0.502150 1.007171
vt 0.999997 1.007171
vt 1.497843 1.007171
vt 2.000000 1.007171
vt 0.000000 1.993263
vt 0.502150 1.993263
vt 1.000002 1.993263
vt 1.497847 1.993263
vt 0.015910 0.030489
vt 2.000000 1.993263
vt 0.015912 0.030503
vt 0.000000 1.007171
vt 2.000000 1.993263
vt 0.015505 0.030449
vt 0.015552 0.030313
vt 0.015576 0.030320
vt 0.015534 0.030450
vt 0.015662 0.030214
vt 1.497839 1.993263
vt 0.999999 1.993263
vt 0.502154 1.993263
vt 0.000000 1.993263
vt 0.015681 0.030225
vt 0.015816 0.030157
vt 0.015828 0.030170
vt 0.015997 0.030141
vt 0.000000 1.007171
vt 2.000000 1.007171
vt 1.497839 1.007171
vt 0.999999 1.007171
vt 0.502154 1.007171
vt 0.016001 0.030155
vt 0.015517 0.030657
vt 0.015475 0.030798
vt 0.015476 0.030449
vt 0.015527 0.030306
vt 0.015644 0.030204
vt 0.015805 0.030145
vt 0.015993 0.030128
vt 0.015907 0.030476
vt 0.015750 0.030493
vt 0.015614 0.030554
vn -0.980785 0.000000 0.195089
vn -0.980785 0.000000 0.195089
vn -0.980785 0.000000 0.195089
vn -0.980785 0.000000 0.195089
vn -0.831468 0.000000 0.555573
vn -0.831468 0.000000 0.555573
vn -0.831468 0.000000 0.555573
vn -0.831468 0.000000 0.555573
vn -0.555565 0.000000 0.831473
vn -0.555565 0.000000 0.831473
vn -0.555565 0.000000 0.831473
vn -0.555565 0.000000 0.831473
vn -0.195106 0.000000 0.980782
vn -0.195106 0.000000 0.980782
vn -0.195106 0.000000 0.980782
vn -0.195106 0.000000 0.980782
vn 0.000000 -1.000000 0.000000
vn 0.000000 -1.000000 0.000000
vn 0.000000 -1.000000 0.000000
vn 0.000000 -1.000000 0.000000
vn 0.000000 -1.000000 0.000000
vn 0.000000 -1.000000 0.000000
vn 0.000000 -1.000000 0.000000
vn 0.000000 -1.000000 0.000000
vn 0.000000 -1.000000 0.000000
vn 0.000000 -1.000000 0.000000
vn 0.000000 -1.000000 0.000000
vn 0.000000 -1.000000 0.000000
vn 0.000000 -1.000000 0.000000
vn 0.000000 -1.000000 0.000000
vn 0.000000 -1.000000 0.000000
vn 0.000000 -1.000000 0.000000
vn 0.000000 1.000000 0.000000
vn 0.000000 1.000000 0.000000
vn 0.000000 1.000000 0.000000
vn 0.000000 1.000000 0.000000
vn 0.000000 1.000000 0.000000
vn 0.000000 1.000000 0.000000
vn 0.000000 1.000000 0.000000
vn 0.000000 1.000000 0.000000
vn 0.000000 1.000000 0.000000
vn 0.000000 1.000000 0.000000
vn 0.000000 1.000000 0.000000
vn 0.000000 1.000000 0.000000
vn 0.000000 1.000000 0.000000
vn 0.000000 1.000000 0.000000
vn 0.000000 1.000000 0.000000
vn 0.000000 1.000000 0.000000
vn 0.980783 0.000000 -0.195101
vn 0.980783 0.000000 -0.195101
vn 0.980783 0.000000 -0.195101
vn 0.980783 0.000000 -0.195101
vn 0.831481 0.000001 -0.555553
vn 0.831481 0.000001 -0.555553
vn 0.831481 0.000001 -0.555553
vn 0.831481 0.000001 -0.555553
vn 0.555565 0.000002 -0.831473
vn 0.555565 0.000002 -0.831473
vn 0.555565 0.000002 -0.831473
vn 0.555565 0.000002 -0.831473
vn 0.194333 0.000002 -0.980936
vn 0.194333 0.000002 -0.980936
vn 0.194333 0.000002 -0.980936
vn 0.194333 0.000002 -0.980936
vn 0.000000 0.000000 -1.000000
vn 0.000000 0.000000 -1.000000
vn 0.000000 0.000000 -1.000000
vn 0.000000 0.000000 -1.000000
vn 1.000000 0.000000 0.000000
vn 1.000000 0.000000 0.000000
vn 1.000000 0.000000 0.000000
vn 1.000000 0.000000 0.000000
vn 0.000000 -1.000000 0.000000
vn 0.000000 -1.000000 0.000000
vn 0.000000 -1.000000 0.000000
vn 0.000000 -1.000000 0.000000
vn 0.000000 0.000000 -1.000000
vn 0.000000 0.000000 -1.000000
vn 0.000000 0.000000 -1.000000
vn 0.000000 0.000000 -1.000000
vn 0.000000 1.000000 0.000000
vn 0.000000 1.000000 0.000000
vn 0.000000 1.000000 0.000000
vn 0.000000 1.000000 0.000000
vn 0.000000 1.000000 0.000000
vn 0.000000 1.000000 0.000000
vn 0.000000 1.000000 0.000000
vn 0.000000 1.000000 0.000000
vn 0.000000 1.000000 0.000000
vn 0.000000 1.000000 0.000000
vn 0.000000 1.000000 0.000000
vn 0.000000 1.000000 0.000000
vn 0.000000 1.000000 0.000000
vn 0.000000 1.000000 0.000000
vn 0.000000 1.000000 0.000000
vn 0.000000 1.000000 0.000000
vn 1.000000 0.000000 0.000000
vn 1.000000 0.000000 0.000000
vn 1.000000 0.000000 0.000000
vn 1.000000 0.000000 0.000000
vn 0.000000 -1.000000 0.000000
vn 0.000000 -1.000000 0.000000
vn 0.000000 -1.000000 0.000000
vn 0.000000 -1.000000 0.000000
vn 0.000000 -1.000000 0.000000
vn 0.000000 -1.000000 0.000000
vn 0.000000 -1.000000 0.000000
vn 0.000000 -1.000000 0.000000
vn 0.000000 -1.000000 0.000000
vn 0.000000 -1.000000 0.000000
vn 0.000000 -1.000000 0.000000
vn 0.000000 -1.000000 0.000000
s off
f 1/20/1 2/39/2 7/29/3 6/30/4
f 2/39/5 3/38/6 8/28/7 7/29/8
f 3/38/9 4/37/10 9/27/11 8/28/12
f 4/37/13 5/36/14 10/18/15 9/27/16
f 21/1/17 22/2/18 11/3/19 12/4/20
f 30/5/21 21/1/22 12/4/23 13/6/24
f 29/7/25 30/5/26 13/6/27 14/8/28
f 28/17/29 29/7/30 14/8/31 15/19/32
f 23/22/33 24/23/34 17/24/35 16/25/36
f 24/23/37 25/26/38 18/31/39 17/24/40
f 25/26/41 26/32/42 19/33/43 18/31/44
f 26/32/45 27/34/46 20/40/47 19/33/48
f 12/9/49 11/35/50 16/13/51 17/14/52
f 13/10/53 12/9/54 17/14/55 18/15/56
f 14/11/57 13/10/58 18/15/59 19/16/60
f 15/12/61 14/11/62 19/16/63 20/21/64
f 22/2/65 23/22/66 16/25/67 11/3/68
f 27/34/69 28/17/70 15/19/71 20/40/72
f 2/41/73 1/42/74 22/2/75 21/1/76
f 6/43/77 23/22/78 22/2/79 1/42/80
f 6/43/81 7/44/82 24/23/83 23/22/84
f 7/44/85 8/45/86 25/26/87 24/23/88
f 8/45/89 9/46/90 26/32/91 25/26/92
f 9/46/93 10/47/94 27/34/95 26/32/96
f 10/47/97 5/48/98 28/17/99 27/34/100
f 5/48/101 4/49/102 29/7/103 28/17/104
f 4/49/105 3/50/106 30/5/107 29/7/108
f 3/50/109 2/41/110 21/1/111 30/5/112
