# This file uses centimeters as units for non-parametric coordinates.

v -25.003906 499.999878 0.000000
v 6.480469 499.999878 153.031250
v 93.167969 499.999878 282.773438
v 222.902344 499.999878 369.453125
v 374.996094 499.999878 400.000000
v 24.996094 499.999878 0.000000
v 50.753906 499.999878 134.695313
v 127.050781 499.999878 248.882813
v 241.238281 499.999878 325.187500
v 374.996094 499.999878 350.000000
v -0.003906 499.999878 0.000000
v 28.613281 499.999878 143.859375
v 110.105469 499.999878 265.828125
v 232.074219 499.999878 347.320313
v 374.996094 499.999878 375.000000
v -25.000000 0.000000 0.000000
v 93.167969 0.000000 282.773438
v 374.996094 0.000000 400.000000
v 25.000000 -0.000122 0.000000
v 127.050781 -0.000122 248.886719
v 374.996094 0.000000 350.015625
v 0.000000 0.000000 0.000000
v 374.996094 0.000000 375.003906
v 110.109375 0.000000 265.835938
v -25.000000 449.999695 0.000000
v 93.167969 449.999878 282.773438
v 374.996094 449.988831 400.000000
v 374.996094 449.999878 375.003906
v 374.996094 450.013062 350.003906
v 127.050781 449.999817 248.886719
v 25.000000 449.999817 0.000000
v 0.000000 449.999878 0.000000
v 49.824219 0.000000 217.910156
v 69.363281 0.000000 204.855469
v 88.902344 0.000000 191.792969
v 88.902344 449.999878 191.792969
v 49.824219 449.999695 217.910156
v 158.031250 0.000000 326.117188
v 171.089844 0.000000 306.582031
v 184.148438 -0.000244 287.039063
v 184.148438 449.999756 287.046875
v 158.031250 450.000122 326.117188
v -9.257813 0.000000 76.515625
v 14.304688 0.000000 71.929688
v 37.878906 -0.000122 67.351563
v 37.871094 449.999817 67.351563
v -9.257813 449.999695 76.515625
v 298.945313 0.000000 384.734375
v 303.535156 0.000000 361.167969
v 308.121094 0.000000 337.601563
v 308.113281 450.013062 337.593750
v 298.949219 449.988831 384.734375
v -1.390625 475.000305 114.773438
v 44.316406 475.001282 101.027344
v 69.824219 474.999878 163.246094
v 28.152344 474.999878 185.476563
v 190.468750 474.999878 347.792969
v 212.695313 475.000244 306.117188
v 274.679688 475.038086 331.390625
v 260.925781 474.968262 377.097656
v 222.902344 482.479004 369.460938
v 6.476563 482.500610 153.039063
v 241.238281 482.525269 325.187500
v 50.753906 482.501282 134.703125
vt 0.016835 0.029526
vt 0.016934 0.029559
vt 0.016910 0.029563
vt 0.016817 0.029531
vt 0.017000 0.029614
vt 0.016967 0.029615
vt 0.017001 0.029702
vt 0.016960 0.029697
vt 0.016872 0.029832
vt 0.016830 0.029813
vt 0.016852 0.029521
vt 0.016958 0.029555
vt 0.017032 0.029613
vt 0.017043 0.029707
vt 0.016917 0.029853
vt 0.016918 0.029942
vt 0.002946 1.996409
vt 0.249848 1.996438
vt 0.496667 1.996440
vt 0.743480 1.996439
vt 0.989820 1.996257
vt 0.016876 0.029920
vt 0.016837 0.029899
vt 0.016985 0.029886
vt 0.989914 1.996259
vt 0.743485 1.996437
vt 0.496666 1.996440
vt 0.249844 1.996438
vt 0.002711 1.996427
vt 0.016957 0.029841
vt 0.016934 0.029845
vt 0.016958 0.029888
vt 0.016887 0.030169
vt 0.016940 0.030081
vt 0.016908 0.030067
vt 0.016857 0.030146
vt 0.016919 0.030192
vt 0.016972 0.030094
vt 0.017011 0.029884
vt 0.016979 0.029836
vt 0.016821 0.029583
vt 0.016838 0.029577
vt 0.016855 0.029571
vt 0.311561 1.951658
vt 0.249857 1.966449
vt 0.805189 1.951658
vt 0.743484 1.966449
vt 0.016849 0.029750
vt 0.016834 0.029759
vt 0.016863 0.029742
vt 0.805191 1.951658
vt 0.743487 1.966449
vt 0.681783 1.951658
vt 0.311559 1.951658
vt 0.249855 1.966449
vt 0.188152 1.951658
vt 0.016984 0.029941
vt 0.017012 0.029943
vt 0.016955 0.029940
vt 0.373264 1.902353
vt 0.373264 1.006702
vt 0.496672 1.006702
vt 0.496672 1.902353
vt 0.866893 1.902353
vt 0.866893 1.006702
vt 0.990301 1.006702
vt 0.990301 1.902353
vt 0.016888 0.029775
vt 0.016905 0.029767
vt 0.016871 0.029782
vt 0.990301 1.006702
vt 0.866894 1.006702
vt 0.866894 1.902353
vt 0.990301 1.902353
vt 0.496671 1.006702
vt 0.373263 1.006702
vt 0.373263 1.902353
vt 0.496672 1.902353
vt 0.016863 0.029600
vt 0.016902 0.029590
vt 0.016962 0.029721
vt 0.017031 0.029724
vt 0.016922 0.029604
vt 0.016973 0.029597
vt 0.620079 1.902353
vt 0.620078 1.006702
vt 0.620078 1.006702
vt 0.620078 1.902353
vt 0.016957 0.029575
vt 0.016910 0.029583
vt 0.016885 0.029582
vt 0.016928 0.029573
vt 0.016935 0.029647
vt 0.016988 0.029641
vt 0.126449 1.902353
vt 0.126449 1.006702
vt 0.003044 1.006702
vt 0.003044 1.902353
vt 0.003044 1.006702
vt 0.126450 1.006702
vt 0.126450 1.902353
vt 0.003044 1.902353
vt 0.681781 1.951658
vt 0.188153 1.951658
vt 0.017040 0.029735
vt 0.016959 0.029725
vt 0.016933 0.029761
vt 0.017015 0.029777
vt 0.016961 0.029710
vt 0.017036 0.029716
vt 0.016985 0.029852
vt 0.016904 0.029828
vn 0.000000 1.000000 0.000000
vn 0.000000 1.000000 0.000000
vn 0.000000 1.000000 0.000001
vn 0.000000 1.000000 0.000001
vn 0.000000 1.000000 0.000001
vn 0.000000 1.000000 0.000001
vn 0.000000 1.000000 0.000001
vn 0.000000 1.000000 0.000001
vn 0.000000 1.000000 -0.000001
vn 0.000000 1.000000 -0.000001
vn 0.000000 1.000000 -0.000001
vn 0.000000 1.000000 -0.000001
vn 0.000000 1.000000 -0.000000
vn 0.000000 1.000000 -0.000000
vn 0.000000 1.000000 -0.000000
vn 0.000000 1.000000 -0.000000
vn 0.000000 1.000000 0.000000
vn 0.000000 1.000000 0.000000
vn 0.000000 1.000000 0.000000
vn 0.000000 1.000000 0.000000
vn 0.000000 1.000000 0.000000
vn 0.000000 1.000000 0.000000
vn 0.000000 1.000000 0.000001
vn 0.000000 1.000000 0.000001
vn 0.000000 1.000000 -0.000001
vn 0.000000 1.000000 -0.000001
vn 0.000000 1.000000 -0.000001
vn 0.000000 1.000000 -0.000001
vn 0.000000 1.000000 -0.000000
vn 0.000000 1.000000 -0.000000
vn 0.000000 1.000000 -0.000000
vn 0.000000 1.000000 -0.000000
vn -0.831454 0.000031 0.555593
vn -0.831469 0.000249 0.555572
vn -0.831469 0.000249 0.555572
vn -0.831464 0.000171 0.555579
vn -0.555565 0.000223 0.831473
vn -0.555547 0.000331 0.831485
vn -0.555547 0.000331 0.831485
vn -0.555597 0.000028 0.831452
vn -0.196878 0.000232 0.980428
vn -0.196843 0.000063 0.980435
vn -0.196898 0.000326 0.980424
vn -0.196898 0.000326 0.980424
vn 1.000000 -0.000000 0.000000
vn 1.000000 -0.000000 0.000000
vn 1.000000 -0.000000 0.000000
vn 1.000000 -0.000000 0.000000
vn 1.000000 -0.000000 0.000000
vn 1.000000 -0.000000 0.000000
vn 1.000000 -0.000000 0.000000
vn 1.000000 -0.000000 0.000000
vn -0.000001 -1.000000 0.000000
vn -0.000001 -1.000000 0.000000
vn -0.000003 -1.000000 0.000001
vn -0.000003 -1.000000 0.000001
vn 0.000000 -1.000000 0.000000
vn 0.000000 -1.000000 0.000000
vn 0.000000 -1.000000 0.000000
vn 0.000000 -1.000000 0.000000
vn 0.000000 -1.000000 0.000000
vn 0.000000 -1.000000 0.000000
vn 0.000000 -1.000000 0.000000
vn 0.000000 -1.000000 0.000000
vn 0.000000 -1.000000 0.000000
vn 0.000000 -1.000000 0.000000
vn -0.000001 -1.000000 0.000000
vn -0.000001 -1.000000 0.000000
vn 0.182400 -0.000011 -0.983224
vn 0.182416 -0.000046 -0.983221
vn 0.182469 -0.000023 -0.983212
vn 0.182466 -0.000025 -0.983212
vn 0.555622 -0.000117 -0.831435
vn 0.555597 -0.000092 -0.831452
vn 0.555597 -0.000092 -0.831452
vn 0.555607 -0.000102 -0.831445
vn 0.831464 -0.000143 -0.555578
vn 0.831469 -0.000221 -0.555570
vn 0.831469 -0.000221 -0.555570
vn 0.831456 -0.000021 -0.555590
vn 0.982206 -0.000004 -0.187805
vn 0.982209 -0.000033 -0.187791
vn 0.982205 0.000015 -0.187815
vn 0.982204 0.000015 -0.187815
vn 0.000000 0.000000 -1.000000
vn 0.000000 0.000000 -1.000000
vn 0.000000 0.000000 -1.000000
vn 0.000000 0.000000 -1.000000
vn 0.000000 0.000000 -1.000000
vn 0.000000 0.000000 -1.000000
vn 0.000000 0.000000 -1.000000
vn 0.000000 0.000000 -1.000000
vn -0.831450 0.000002 0.555600
vn -0.831449 0.000000 0.555601
vn -0.831449 0.000000 0.555601
vn -0.831449 0.000001 0.555600
vn -0.196813 0.000007 0.980441
vn -0.196809 0.000001 0.980442
vn -0.196808 0.000001 0.980442
vn -0.196811 0.000005 0.980441
vn 1.000000 -0.000000 0.000000
vn 1.000000 -0.000000 0.000000
vn 1.000000 0.000000 0.000000
vn 1.000000 -0.000000 0.000000
vn 1.000000 -0.000000 0.000000
vn 1.000000 -0.000000 0.000000
vn 1.000000 -0.000000 0.000000
vn 1.000000 -0.000000 0.000000
vn 0.182475 -0.000020 -0.983211
vn 0.182475 -0.000020 -0.983211
vn 0.182466 -0.000025 -0.983212
vn 0.182469 -0.000023 -0.983212
vn 0.831472 0.000000 -0.555566
vn 0.831472 0.000000 -0.555566
vn 0.831470 0.000000 -0.555570
vn 0.831471 0.000000 -0.555569
vn 0.000000 0.000000 -1.000000
vn 0.000000 0.000000 -1.000000
vn 0.000000 0.000000 -1.000000
vn 0.000000 0.000000 -1.000000
vn 0.000000 0.000000 -1.000000
vn 0.000000 0.000000 -1.000000
vn 0.000000 0.000000 -1.000000
vn 0.000000 0.000000 -1.000000
vn -0.000002 -1.000000 0.000003
vn 0.000000 -1.000000 0.000000
vn 0.000000 -1.000000 0.000000
vn -0.000002 -1.000000 0.000003
vn -0.000005 -1.000000 0.000006
vn -0.000002 -1.000000 0.000003
vn -0.000002 -1.000000 0.000003
vn -0.000005 -1.000000 0.000006
vn 0.555620 -0.000012 -0.831437
vn 0.555619 0.000007 -0.831437
vn 0.555619 0.000007 -0.831437
vn 0.555619 -0.000005 -0.831437
vn -0.555601 0.000000 0.831449
vn -0.555601 0.000000 0.831449
vn -0.555601 0.000000 0.831449
vn -0.555601 0.000000 0.831449
vn -0.000002 -1.000000 0.000000
vn 0.000000 -1.000000 0.000000
vn 0.000000 -1.000000 0.000000
vn -0.000002 -1.000000 0.000000
vn -0.000005 -1.000000 0.000001
vn -0.000002 -1.000000 0.000000
vn -0.000002 -1.000000 0.000000
vn -0.000005 -1.000000 0.000001
vn 0.982214 0.000001 -0.187765
vn 0.982215 0.000009 -0.187761
vn 0.982215 0.000009 -0.187761
vn 0.982214 0.000004 -0.187764
vn -0.979485 0.000000 0.201517
vn -0.979485 0.000000 0.201517
vn -0.979485 -0.000015 0.201516
vn -0.979485 -0.000010 0.201516
vn -0.979488 -0.000084 0.201504
vn -0.979490 -0.000000 0.201494
vn -0.979491 0.000046 0.201489
vn -0.979491 0.000046 0.201489
vn 0.192854 -0.076485 0.978242
vn 0.192848 -0.076178 0.978267
vn 0.190857 -0.000004 0.981618
vn 0.190857 -0.000004 0.981618
vn 0.190857 -0.000004 0.981618
vn 0.831385 -0.000002 0.555697
vn 0.831385 -0.000002 0.555697
vn 0.830366 -0.076986 0.551874
vn 0.830367 -0.076970 0.551875
vn 0.831385 -0.000002 0.555697
vn -0.206284 -0.909256 -0.361524
vn -0.194660 -0.918439 -0.344351
vn -0.009013 -0.999948 0.004810
vn -0.009038 -0.999948 0.004748
vn 0.108585 -0.908676 0.403134
vn 0.104880 -0.917622 0.383366
vn 0.192848 -0.076178 0.978267
vn 0.192854 -0.076485 0.978242
vn -0.009038 -0.999948 0.004748
vn -0.009013 -0.999948 0.004810
vn 0.104880 -0.917622 0.383366
vn 0.108585 -0.908676 0.403134
vn -0.551839 -0.076976 -0.830390
vn -0.551840 -0.076971 -0.830391
vn -0.194660 -0.918439 -0.344351
vn -0.206284 -0.909256 -0.361524
vn -0.555659 -0.000004 -0.831411
vn -0.555659 -0.000004 -0.831411
vn -0.551840 -0.076971 -0.830391
vn -0.551839 -0.076976 -0.830390
vn -0.555659 -0.000004 -0.831411
vn -0.004231 -0.999956 0.008383
vn -0.004776 -0.999955 0.008157
vn -0.406150 -0.907114 -0.110395
vn -0.385382 -0.916587 -0.106531
vn 0.830367 -0.076970 0.551875
vn 0.830366 -0.076986 0.551874
vn 0.361661 -0.909241 0.206112
vn 0.344499 -0.918426 0.194461
vn 0.344499 -0.918426 0.194461
vn 0.361661 -0.909241 0.206112
vn -0.004776 -0.999955 0.008157
vn -0.004231 -0.999956 0.008383
vn -0.978266 -0.075729 -0.193031
vn -0.978266 -0.075725 -0.193031
vn -0.981598 -0.000008 -0.190959
vn -0.981598 -0.000008 -0.190959
vn -0.981598 -0.000008 -0.190959
vn -0.385382 -0.916587 -0.106531
vn -0.406150 -0.907114 -0.110395
vn -0.978266 -0.075725 -0.193031
vn -0.978266 -0.075729 -0.193031
vn -0.979488 -0.000084 0.201504
vn -0.979485 -0.000010 0.201516
vn -0.979485 -0.000015 0.201516
vn -0.979490 -0.000000 0.201494
vn -0.831454 0.000031 0.555593
vn -0.831464 0.000171 0.555579
vn -0.831450 0.000002 0.555600
vn -0.831449 0.000001 0.555600
vn -0.555565 0.000223 0.831473
vn -0.555597 0.000028 0.831452
vn -0.555601 0.000000 0.831449
vn -0.555601 0.000000 0.831449
vn -0.196811 0.000005 0.980441
vn -0.196843 0.000063 0.980435
vn -0.196878 0.000232 0.980428
vn -0.196813 0.000007 0.980441
vn 0.182400 -0.000011 -0.983224
vn 0.182390 0.000012 -0.983226
vn 0.182390 0.000012 -0.983226
vn 0.182416 -0.000046 -0.983221
vn 0.555622 -0.000117 -0.831435
vn 0.555607 -0.000102 -0.831445
vn 0.555620 -0.000012 -0.831437
vn 0.555619 -0.000005 -0.831437
vn 0.831464 -0.000143 -0.555578
vn 0.831456 -0.000021 -0.555590
vn 0.831471 0.000000 -0.555569
vn 0.831470 0.000000 -0.555570
vn 0.982214 0.000004 -0.187764
vn 0.982209 -0.000033 -0.187791
vn 0.982206 -0.000004 -0.187805
vn 0.982214 0.000001 -0.187765
s off
f 11/1/1 12/2/2 7/3/3 6/4/4
f 12/2/5 13/5/6 8/6/7 7/3/8
f 13/5/9 14/7/10 9/8/11 8/6/12
f 14/7/13 15/9/14 10/10/15 9/8/16
f 1/11/17 2/12/18 12/2/19 11/1/20
f 2/12/21 3/13/22 13/5/23 12/2/24
f 3/13/25 4/14/26 14/7/27 13/5/28
f 4/14/29 5/15/30 15/9/31 14/7/32
f 3/19/33 2/18/34 62/45/35 56/44/36
f 57/103/37 61/47/38 4/20/39 3/19/40
f 60/46/41 5/21/42 4/20/43 61/47/44
f 15/9/45 5/15/46 27/16/47 28/22/48
f 10/10/49 15/9/50 28/22/51 29/23/52
f 24/24/53 34/30/54 35/31/55 20/32/56
f 23/33/57 49/34/58 50/35/59 21/36/60
f 18/37/61 48/38/62 49/34/63 23/33/64
f 17/39/65 33/40/66 34/30/67 24/24/68
f 59/51/69 10/25/70 29/74/71 51/73/72
f 8/27/73 9/26/74 63/52/75 58/53/76
f 55/54/77 64/55/78 7/28/79 8/27/80
f 54/56/81 6/29/82 7/28/83 64/55/84
f 31/41/85 32/42/86 11/1/87 6/4/88
f 11/1/89 32/42/90 25/43/91 1/11/92
f 37/60/93 33/61/94 17/62/95 26/63/96
f 52/64/97 48/65/98 18/66/99 27/67/100
f 28/22/101 27/16/102 18/37/103 23/33/104
f 29/23/105 28/22/106 23/33/107 21/36/108
f 21/71/109 50/72/110 51/73/111 29/74/112
f 20/75/113 35/76/114 36/77/115 30/78/116
f 22/48/117 32/42/118 31/41/119 19/49/120
f 25/43/121 32/42/122 22/48/123 16/50/124
f 39/57/125 38/58/126 17/39/127 24/24/128
f 40/59/129 39/57/130 24/24/131 20/32/132
f 41/85/133 40/86/134 20/75/135 30/78/136
f 17/62/137 38/87/138 42/88/139 26/63/140
f 44/68/141 43/69/142 16/50/143 22/48/144
f 45/70/145 44/68/146 22/48/147 19/49/148
f 46/95/149 45/96/150 19/97/151 31/98/152
f 16/99/153 43/100/154 47/101/155 25/102/156
f 1/17/157 53/104/158 62/45/159 2/18/160
f 46/79/161 47/80/162 43/69/163 44/68/164 45/70/165
f 39/57/166 40/59/167 41/81/168 42/82/169 38/58/170
f 55/83/171 56/84/172 62/89/173 64/90/174
f 54/91/175 53/92/176 47/80/177 46/79/178
f 64/90/179 62/89/180 53/92/181 54/91/182
f 36/93/183 37/94/184 56/84/185 55/83/186
f 34/30/187 33/40/188 37/94/189 36/93/190 35/31/191
f 61/105/192 63/106/193 59/107/194 60/108/195
f 42/82/196 41/81/197 58/109/198 57/110/199
f 57/110/200 58/109/201 63/106/202 61/105/203
f 52/111/204 51/112/205 50/35/206 49/34/207 48/38/208
f 60/108/209 59/107/210 51/112/211 52/111/212
f 1/17/213 25/102/214 47/101/215 53/104/216
f 3/19/217 56/44/218 37/60/219 26/63/220
f 57/103/221 3/19/222 26/63/223 42/88/224
f 27/67/225 5/21/226 60/46/227 52/64/228
f 59/51/229 63/52/230 9/26/231 10/25/232
f 8/27/233 58/53/234 41/85/235 30/78/236
f 55/54/237 8/27/238 30/78/239 36/77/240
f 31/98/241 6/29/242 54/56/243 46/95/244
