# This file uses centimeters as units for non-parametric coordinates.

v 0.000000 0.000000 0.000000
v 0.000000 0.000000 -50.000000
v 0.000000 49.290466 0.000000
v 0.000000 49.290466 -50.000000
v -500.000000 49.290466 -50.000000
v -500.000000 49.290466 0.000000
v -500.000000 0.000000 -50.000000
v -500.000000 0.000000 0.000000
v 0.000000 249.861633 -142.945313
v -500.000000 249.861633 -142.945313
v 0.000000 222.239380 -180.814453
v -500.000000 222.239380 -180.814453
v 0.000000 249.861633 -499.996094
v -500.000000 249.861633 -499.996094
v 0.000000 222.239380 -499.996094
v -500.000000 222.239380 -499.996094
v -384.318359 230.306641 -194.824219
v -366.566406 230.306641 -194.824219
v -384.318359 224.490234 -161.046875
v -366.566406 224.490234 -161.046875
v -133.433594 230.306641 -194.824219
v -115.681641 230.306641 -194.824219
v -133.433594 224.490234 -161.046875
v -115.681641 224.490234 -161.046875
v -115.681641 113.337891 -221.507813
v -115.681641 128.443359 -253.685547
v -133.433594 128.443359 -253.685547
v -133.433594 113.337891 -221.507813
v -366.566406 113.337891 -221.507813
v -366.566406 128.443359 -253.685547
v -384.318359 128.443359 -253.685547
v -384.318359 113.337891 -221.507813
v -385.927734 7.391510 -49.187500
v -364.072266 7.391510 -49.187500
v -385.927734 41.666504 -17.773438
v -364.072266 41.666504 -17.773438
v -385.927734 208.765747 -499.564453
v -364.072266 208.765747 -499.564453
v -385.927734 243.040710 -499.564453
v -364.072266 243.040710 -499.564453
v -135.927734 7.391510 -49.187500
v -114.072266 7.391510 -49.187500
v -135.927734 41.666504 -17.773438
v -114.072266 41.666504 -17.773438
v -135.927734 208.765747 -499.564453
v -114.072266 208.765747 -499.564453
v -135.927734 243.040710 -499.564453
v -114.072266 243.040710 -499.564453
vt 2.000115 0.098066
vt 2.000115 -0.000613
vt 0.999117 0.098066
vt 0.999117 -0.000613
vt 0.999117 0.499609
vt 2.000115 0.499609
vt 0.488959 0.155229
vt 0.488971 0.155298
vt 0.488402 0.155467
vt 0.488403 0.155410
vt 0.488301 0.155173
vt 0.488826 0.154926
vt 0.487971 0.155006
vt 0.488515 0.154638
vt 0.487464 0.178879
vt 0.487486 0.178870
vt 0.487485 0.178930
vt 0.487463 0.178938
vt 0.487651 0.179167
vt 0.487629 0.179173
vt 0.487661 0.179110
vt 0.487639 0.179116
vt 0.487746 0.178752
vt 0.487775 0.178738
vt 0.487775 0.178809
vt 0.487745 0.178821
vt 0.487947 0.179088
vt 0.487917 0.179096
vt 0.487956 0.179021
vt 0.487926 0.179030
vt 0.487464 0.178879
vt 0.487486 0.178870
vt 0.487485 0.178930
vt 0.487463 0.178938
vt 0.488039 0.179721
vt 0.488016 0.179720
vt 0.488070 0.179669
vt 0.488046 0.179668
vt 0.487746 0.178752
vt 0.487775 0.178738
vt 0.487775 0.178809
vt 0.487745 0.178821
vt 0.488349 0.179738
vt 0.488319 0.179737
vt 0.488378 0.179679
vt 0.488348 0.179678
vt 0.017394 0.043012
vt 0.017040 0.043012
vt 0.017040 0.042653
vt 0.017394 0.042653
vt 0.018834 0.043679
vt 0.018635 0.043951
vt 0.018834 0.046242
vt 0.018635 0.046242
vt 0.019240 0.045883
vt 0.019240 0.046242
vt 0.018886 0.046242
vt 0.018886 0.045883
vt 0.020481 0.044944
vt 0.020680 0.045216
vt 0.020481 0.042653
vt 0.020680 0.042653
vt 0.020730 0.042653
vt 0.021089 0.042653
vt 0.021089 0.046242
vt 0.020730 0.046242
vt 0.021023 0.049858
vt 0.021023 0.046269
vt 0.023586 0.046269
vt 0.023586 0.049858
vt 0.021140 0.046242
vt 0.021140 0.042653
vt 0.021338 0.042653
vt 0.021338 0.046242
vn -1.000000 0.000000 0.000000
vn -1.000000 0.000000 0.000000
vn -1.000000 0.000000 0.000000
vn -1.000000 0.000000 0.000000
vn 0.000000 0.000000 1.000000
vn 0.000000 0.000000 1.000000
vn 0.000000 0.000000 1.000000
vn 0.000000 0.000000 1.000000
vn 1.000000 0.000000 0.000000
vn 1.000000 0.000000 0.000000
vn 1.000000 0.000000 0.000000
vn 1.000000 0.000000 0.000000
vn 0.000000 0.000000 -1.000000
vn 0.000000 0.000000 -1.000000
vn 0.000000 0.000000 -1.000000
vn 0.000000 0.000000 -1.000000
vn 0.000000 -1.000000 0.000000
vn 0.000000 -1.000000 0.000000
vn 0.000000 -1.000000 0.000000
vn 0.000000 -1.000000 0.000000
vn 1.000000 0.000000 0.000000
vn 1.000000 0.000000 0.000000
vn 1.000000 0.000000 0.000000
vn 1.000000 0.000000 0.000000
vn 0.000000 0.000000 -1.000000
vn 0.000000 0.000000 -1.000000
vn 0.000000 0.000000 -1.000000
vn 0.000000 0.000000 -1.000000
vn 0.000000 0.580378 0.814347
vn 0.000000 0.580378 0.814347
vn 0.000000 0.580378 0.814347
vn 0.000000 0.580378 0.814347
vn 0.000000 1.000000 0.000000
vn 0.000000 1.000000 0.000000
vn 0.000000 1.000000 0.000000
vn 0.000000 1.000000 0.000000
vn 0.000000 -0.603250 -0.797552
vn 0.000000 -0.603250 -0.797552
vn 0.000000 -0.603250 -0.797552
vn 0.000000 -0.603250 -0.797552
vn 0.000000 -1.000000 0.000000
vn 0.000000 -1.000000 0.000000
vn 0.000000 -1.000000 0.000000
vn 0.000000 -1.000000 0.000000
vn -1.000000 -0.000000 0.000000
vn -1.000000 -0.000001 0.000000
vn -1.000000 -0.000001 0.000000
vn -1.000000 -0.000001 0.000000
vn 1.000000 0.000000 0.000000
vn 1.000000 0.000000 0.000000
vn 1.000000 0.000000 0.000000
vn 1.000000 0.000000 0.000000
vn -1.000000 -0.000000 0.000000
vn -1.000000 -0.000001 0.000000
vn -1.000000 0.000000 0.000000
vn -1.000000 0.000000 0.000000
vn 0.000000 0.985496 0.169701
vn 0.000000 0.985496 0.169701
vn 0.000000 0.985496 0.169701
vn 0.000000 0.985496 0.169701
vn 0.000000 0.500322 -0.865840
vn 0.000000 0.500322 -0.865840
vn 0.000000 0.500322 -0.865840
vn 0.000000 0.500322 -0.865840
vn 1.000000 0.000000 0.000000
vn 1.000000 0.000000 0.000000
vn 1.000000 0.000000 0.000000
vn 1.000000 0.000000 0.000000
vn -1.000000 0.000000 0.000000
vn -1.000000 0.000000 0.000000
vn -1.000000 0.000000 0.000000
vn -1.000000 0.000000 0.000000
vn 0.000000 0.985496 0.169701
vn 0.000000 0.985496 0.169701
vn 0.000000 0.985496 0.169701
vn 0.000000 0.985496 0.169701
vn 0.000000 0.500322 -0.865839
vn 0.000000 0.500322 -0.865839
vn 0.000000 0.500322 -0.865839
vn 0.000000 0.500322 -0.865839
vn 1.000000 0.000000 0.000000
vn 1.000000 0.000000 0.000000
vn 1.000000 0.000000 0.000000
vn 1.000000 0.000000 0.000000
vn -1.000000 0.000000 0.000000
vn -1.000000 0.000000 0.000000
vn -1.000000 0.000000 0.000000
vn -1.000000 0.000000 0.000000
vn 0.000000 -0.477830 0.878452
vn 0.000000 -0.477830 0.878452
vn 0.000000 -0.477830 0.878452
vn 0.000000 -0.477830 0.878452
vn 0.000000 -0.477831 0.878452
vn 0.000000 -0.477831 0.878452
vn 0.000000 -0.477831 0.878452
vn 0.000000 -0.477831 0.878452
vn 0.000000 0.000000 -1.000000
vn 0.000000 0.000000 -1.000000
vn 0.000000 0.000000 -1.000000
vn 0.000000 0.000000 -1.000000
vn 0.000000 -0.912902 -0.408180
vn 0.000000 -0.912902 -0.408180
vn 0.000000 -0.912902 -0.408180
vn 0.000000 -0.912902 -0.408180
vn 1.000000 0.000001 0.000000
vn 1.000000 0.000001 0.000000
vn 1.000000 0.000001 0.000000
vn 1.000000 0.000001 0.000000
vn -1.000000 0.000000 0.000000
vn -1.000000 0.000000 0.000000
vn -1.000000 0.000000 0.000000
vn -1.000000 0.000000 0.000000
vn 0.000000 0.000000 -1.000000
vn 0.000000 0.000000 -1.000000
vn 0.000000 0.000000 -1.000000
vn 0.000000 0.000000 -1.000000
vn 0.000000 -0.912902 -0.408180
vn 0.000000 -0.912902 -0.408180
vn 0.000000 -0.912902 -0.408180
vn 0.000000 -0.912902 -0.408180
vn 1.000000 -0.000000 0.000000
vn 1.000000 -0.000000 0.000000
vn 1.000000 -0.000000 0.000000
vn 1.000000 -0.000000 0.000000
vn -1.000000 0.000000 0.000000
vn -1.000000 0.000000 0.000000
vn -1.000000 0.000000 0.000000
vn -1.000000 0.000000 0.000000
vn 0.000000 0.886044 0.463602
vn 0.000000 0.886044 0.463602
vn 0.000000 0.922649 0.385640
vn 0.000000 0.922649 0.385640
vn 0.000000 0.886044 0.463602
vn 0.000000 0.886044 0.463602
vn 0.000000 0.922649 0.385640
vn 0.000000 0.922649 0.385640
vn 0.000000 -0.675669 0.737205
vn 0.000000 0.886044 0.463602
vn 0.000000 0.886044 0.463602
vn 0.000000 -0.675669 0.737205
vn 0.000000 -0.675670 0.737204
vn 0.000000 0.886044 0.463602
vn 0.000000 0.886044 0.463602
vn 0.000000 -0.675670 0.737204
s off
f 5/47/1 7/48/2 8/49/3 6/50/4
f 6/1/5 8/2/6 1/4/7 3/3/8
f 4/55/9 3/56/10 1/57/11 2/58/12
f 4/7/13 2/8/14 7/9/15 5/10/16
f 2/63/17 1/64/18 8/65/19 7/66/20
f 11/59/21 9/60/22 3/56/23 4/55/24
f 14/71/25 13/72/26 15/73/27 16/74/28
f 3/3/29 9/5/30 10/6/31 6/1/32
f 10/67/33 9/68/34 13/69/35 14/70/36
f 12/11/37 11/12/38 4/7/39 5/10/40
f 11/12/41 12/11/42 16/13/43 15/14/44
f 10/51/45 14/53/46 16/54/47 12/52/48
f 9/60/49 11/59/50 15/61/51 13/62/52
f 10/51/53 12/52/54 5/47/55 6/50/56
f 19/15/57 20/16/58 18/17/59 17/18/60
f 17/18/61 18/17/62 30/19/63 31/20/64
f 29/21/65 30/19/66 18/17/67 20/16/68
f 17/18/69 31/20/70 32/22/71 19/15/72
f 23/23/73 24/24/74 22/25/75 21/26/76
f 21/26/77 22/25/78 26/27/79 27/28/80
f 25/29/81 26/27/82 22/25/83 24/24/84
f 21/26/85 27/28/86 28/30/87 23/23/88
f 32/22/89 29/21/90 20/16/91 19/15/92
f 28/30/93 25/29/94 24/24/95 23/23/96
f 39/31/97 40/32/98 38/33/99 37/34/100
f 37/34/101 38/33/102 34/35/103 33/36/104
f 34/35/105 38/33/106 40/32/107 36/37/108
f 37/34/109 33/36/110 35/38/111 39/31/112
f 47/39/113 48/40/114 46/41/115 45/42/116
f 45/42/117 46/41/118 42/43/119 41/44/120
f 42/43/121 46/41/122 48/40/123 44/45/124
f 45/42/125 41/44/126 43/46/127 47/39/128
f 35/38/129 36/37/130 40/32/131 39/31/132
f 43/46/133 44/45/134 48/40/135 47/39/136
f 34/35/137 36/37/138 35/38/139 33/36/140
f 42/43/141 44/45/142 43/46/143 41/44/144
