# This file uses centimeters as units for non-parametric coordinates.

v 0.000000 4.734497 71.093750
v 250.000000 4.734497 71.093750
v 0.000000 4.734497 -66.175781
v 250.000000 4.734497 -66.175781
v 0.000000 -7.083862 -66.175781
v 250.000000 -7.083862 -66.175781
v 0.000000 -7.083862 71.093750
v 250.000000 -7.083862 71.093750
v 250.000000 4.734497 71.093750
v 250.000000 -7.083862 71.093750
v 250.000000 -7.083862 -66.175781
v 250.000000 4.734497 -66.175781
v 0.000000 -8.587494 -75.541016
v 0.000000 -8.587494 -61.791016
v 0.000000 8.587494 -75.541016
v 0.000000 8.587494 -61.791016
v 250.000000 8.587494 -75.541016
v 250.000000 8.587494 -61.791016
v 250.000000 -8.587494 -75.541016
v 250.000000 -8.587494 -61.791016
v 0.000000 -8.587494 61.792969
v 0.000000 -8.587494 75.542969
v 0.000000 8.587494 61.792969
v 0.000000 2.560822 75.542969
v 250.000000 8.587494 61.792969
v 250.000000 8.587494 75.542969
v 250.000000 -8.587494 61.792969
v 250.000000 -8.587494 75.542969
v 0.000000 8.587494 70.205078
v 25.531250 8.587494 75.542969
v 83.902344 7.626526 63.138672
v 199.101563 8.587494 75.542969
v 221.888672 8.587494 75.542969
v 211.379883 8.587494 71.283203
v 212.617188 4.981628 75.542969
v 155.294922 -8.587494 75.542969
v 123.020508 -8.587494 75.542969
v 133.065430 -3.793060 75.542969
v 133.891602 -8.587494 71.775391
v 85.352539 8.587494 -75.541016
v 147.443359 8.587494 -75.541016
v 131.369141 8.587494 -70.404297
v 103.717773 8.587494 -70.591797
v 116.894531 3.929749 -75.541016
v 191.658203 8.587494 -61.791016
v 225.936523 8.587494 -61.791016
v 205.716797 8.587494 -65.093750
v 206.236328 5.300537 -61.791016
v 51.808594 8.587494 -75.541016
v 73.663086 8.587494 -75.541016
v 64.249023 8.587494 -71.181641
v 64.580078 4.566345 -75.541016
v 203.048828 -8.587494 -75.541016
v 157.320313 -8.587463 -75.541016
v 187.396484 -3.646576 -75.541016
v 184.050781 -8.587494 -72.298828
v 251.388672 0.000000 68.667969
v 251.388672 0.000000 -68.666016
v -1.388672 0.000000 -68.666016
v -1.388672 0.000000 68.667969
vt 0.006855 1.009778
vt 0.002475 0.529897
vt 0.871407 1.009569
vt 0.871407 1.009569
vt 0.007011 1.231265
vt 0.007011 1.231265
vt 0.007011 1.293821
vt 0.930039 1.009569
vt 0.930039 1.009569
vt 0.007011 1.293821
vt 0.498463 1.009778
vt 0.497748 1.231265
vt 0.497748 1.293821
vt 0.125194 0.529897
vt 0.497748 1.293821
vt 0.497748 1.231265
vt 0.871407 1.279401
vt 0.006855 1.279711
vt 0.498463 1.279711
vt 0.871407 1.279401
vt 0.930039 1.279401
vt 0.125194 0.597280
vt 0.002475 0.597280
vt 0.930039 1.279401
vt 0.196396 0.279723
vt 0.196353 0.279693
vt 0.196396 0.279654
vt 0.196472 0.278786
vt 0.196412 0.278900
vt 0.196403 0.278845
vt 0.196410 0.278784
vt 0.196440 0.278814
vt 0.196409 0.278849
vt 0.196470 0.278851
vt 0.196439 0.279030
vt 0.196459 0.278976
vt 0.196397 0.278911
vt 0.196392 0.278939
vt 0.196310 0.279649
vt 0.196312 0.279718
vt 0.196456 0.279002
vt 0.196437 0.279195
vt 0.196447 0.279075
vt 0.195548 0.279606
vt 0.195496 0.279603
vt 0.195510 0.279486
vt 0.195670 0.279261
vt 0.195868 0.278826
vt 0.195835 0.278790
vt 0.195809 0.278824
vt 0.195567 0.279675
vt 0.195703 0.279151
vt 0.195670 0.279186
vt 0.195486 0.279670
vt 0.195679 0.279135
vt 0.195764 0.278868
vt 0.195747 0.278890
vt 0.195860 0.278762
vt 0.195514 0.279645
vt 0.195472 0.279626
vt 0.195780 0.278858
vt 0.195771 0.278830
vt 0.195710 0.279083
vt 0.195799 0.278759
vt 0.196415 0.279126
vt 0.196407 0.279221
vt 0.196428 0.279290
vt 0.196421 0.279387
vt 0.196396 0.279370
vt 0.196424 0.279335
vt 0.196416 0.279422
vt 0.196448 0.279111
vn 0.000000 -0.996314 0.085779
vn 0.000000 -0.996314 0.085779
vn 0.000000 0.000000 1.000000
vn 0.000000 0.000000 1.000000
vn 0.000000 0.000000 -1.000000
vn 0.000000 0.000000 -1.000000
vn 0.000000 0.000000 -1.000000
vn 0.000000 0.000000 -1.000000
vn 0.000000 1.000000 0.000000
vn 0.000000 1.000000 0.000000
vn 0.000000 1.000000 0.000000
vn 0.000000 1.000000 0.000000
vn 1.000000 0.000000 0.000000
vn 1.000000 0.000000 0.000000
vn 1.000000 0.000000 0.000000
vn 1.000000 0.000000 0.000000
vn 0.000000 -1.000000 0.000000
vn 0.000000 -1.000000 0.000000
vn 0.000000 -0.996314 0.085779
vn 0.000000 -0.996314 0.085779
vn -1.000000 0.000000 0.000000
vn -1.000000 0.000000 0.000000
vn -1.000000 0.000000 0.000000
vn -1.000000 0.000000 0.000000
vn -0.980204 0.000000 -0.197990
vn -0.980204 0.000000 -0.197990
vn -0.980204 0.000000 -0.197990
vn 0.000000 1.000000 0.000000
vn 0.000000 1.000000 0.000000
vn 0.000000 1.000000 0.000000
vn 0.000000 1.000000 0.000000
vn 0.980204 0.000000 0.197990
vn 0.980204 0.000000 0.197990
vn 0.980204 0.000000 0.197990
vn 0.000000 -1.000000 0.000000
vn 0.000000 -1.000000 0.000000
vn 0.000000 -1.000000 0.000000
vn 0.000000 -1.000000 0.000000
vn 0.000000 0.000000 1.000000
vn 0.000000 0.000000 1.000000
vn 0.000000 0.000000 1.000000
vn 0.000000 0.000000 1.000000
vn 0.000000 0.000000 1.000000
vn 0.000000 0.000000 1.000000
vn 0.000000 0.000000 1.000000
vn 0.000000 0.000000 -1.000000
vn 0.000000 0.000000 -1.000000
vn 0.000000 0.000000 -1.000000
vn 0.000000 0.000000 -1.000000
vn 0.009902 0.999782 -0.018387
vn 0.009902 0.999782 -0.018387
vn 0.009902 0.999782 -0.018387
vn 0.009902 0.999782 -0.018387
vn 0.987176 -0.159635 0.000000
vn 0.987176 -0.159635 0.000000
vn 0.987176 -0.159635 0.000000
vn 0.000000 -1.000000 0.000000
vn 0.000000 -1.000000 0.000000
vn 0.000000 -1.000000 0.000000
vn 0.000000 -1.000000 0.000000
vn 0.000000 0.000000 1.000000
vn 0.000000 0.000000 1.000000
vn 0.000000 0.000000 1.000000
vn 0.000000 0.000000 1.000000
vn -0.008102 0.000000 -0.999967
vn -0.008102 0.000000 -0.999967
vn -0.008102 0.000000 -0.999967
vn -0.980204 0.000000 -0.197990
vn -0.980204 0.000000 -0.197990
vn -0.980204 0.000000 -0.197990
vn -0.154627 0.655060 0.739586
vn -0.154627 0.655060 0.739586
vn -0.154627 0.655060 0.739586
vn 0.206913 0.775557 0.596404
vn 0.206913 0.775557 0.596404
vn 0.206913 0.775557 0.596404
vn -0.270200 0.694741 0.666578
vn -0.270200 0.694741 0.666578
vn -0.270200 0.694741 0.666578
vn 0.270021 -0.565727 0.779128
vn 0.270021 -0.565728 0.779128
vn 0.270021 -0.565728 0.779128
vn -0.135123 -0.626498 0.767621
vn -0.135123 -0.626499 0.767621
vn -0.135123 -0.626498 0.767621
vn -0.005981 0.999686 -0.024339
vn -0.005981 0.999686 -0.024339
vn -0.005981 0.999686 -0.024339
vn -0.001461 0.997965 -0.063744
vn -0.001461 0.997965 -0.063744
vn -0.001461 0.997965 -0.063744
vn -0.001461 0.997965 -0.063744
vn 0.000000 1.000000 0.000000
vn 0.000000 1.000000 0.000000
vn 0.000000 1.000000 0.000000
vn 0.000000 1.000000 0.000000
vn 0.000000 0.000000 1.000000
vn 0.000000 0.000000 1.000000
vn 0.000000 0.000000 1.000000
vn 0.000000 0.000000 1.000000
vn 0.000000 0.000000 1.000000
vn 0.000000 0.000000 1.000000
vn 0.000000 0.000000 1.000000
vn 0.000000 0.000000 1.000000
vn 0.000000 0.000000 1.000000
vn 0.000000 0.000000 1.000000
vn 0.000000 0.000000 1.000000
vn 0.000000 0.000000 1.000000
vn 0.000000 0.000000 1.000000
vn 0.000000 -1.000000 -0.000000
vn 0.000000 -1.000000 -0.000000
vn 0.000000 -1.000000 -0.000000
vn 0.000000 -1.000000 -0.000000
vn 0.000000 -1.000000 0.000000
vn 0.000000 -1.000000 0.000000
vn 0.000000 -1.000000 0.000000
vn 0.016037 0.000000 -0.999871
vn 0.016037 0.000000 -0.999871
vn 0.016037 0.000000 -0.999871
vn 0.000000 0.082712 -0.996574
vn 0.000000 0.082712 -0.996574
vn 0.000000 0.082712 -0.996574
vn -0.136324 0.894110 -0.426595
vn -0.136324 0.894110 -0.426595
vn -0.136324 0.894110 -0.426595
vn 0.004603 0.734305 -0.678804
vn 0.004603 0.734305 -0.678804
vn 0.004603 0.734305 -0.678805
vn 0.128429 0.869709 -0.476563
vn 0.128429 0.869709 -0.476563
vn 0.128429 0.869709 -0.476563
vn 0.160562 0.712115 0.683456
vn 0.160562 0.712115 0.683456
vn 0.160562 0.712115 0.683456
vn -0.115933 0.694840 0.709758
vn -0.115933 0.694840 0.709758
vn -0.115933 0.694840 0.709758
vn -0.304776 0.688429 -0.658162
vn -0.304776 0.688429 -0.658162
vn -0.304776 0.688429 -0.658162
vn 0.228033 0.724250 -0.650741
vn 0.228033 0.724250 -0.650741
vn 0.228033 0.724250 -0.650741
vn -0.148461 -0.470309 -0.869925
vn -0.148461 -0.470309 -0.869925
vn -0.148461 -0.470309 -0.869925
vn 0.097116 -0.591163 -0.800684
vn 0.097116 -0.591163 -0.800684
vn 0.097116 -0.591163 -0.800684
vn 0.000000 -1.000000 -0.000002
vn 0.000000 -1.000000 -0.000002
vn 0.000000 -1.000000 -0.000002
vn 0.000000 -1.000000 -0.000002
vn 0.000000 -1.000000 -0.000000
vn 0.000000 -1.000000 -0.000000
vn 0.000000 -1.000000 -0.000000
vn 0.000000 0.000000 -1.000000
vn 0.000000 0.000000 -1.000000
vn 0.000000 0.000000 -1.000000
vn 0.000000 0.000000 -1.000000
vn 0.000000 0.000000 -1.000000
vn 0.000000 0.000000 -1.000000
vn 0.000000 0.000000 -1.000000
vn 0.000000 0.000000 -1.000000
vn 0.000000 0.000000 -1.000000
vn 0.000000 0.000000 -1.000000
vn 0.000000 0.000000 -1.000000
vn 0.000000 0.000000 -1.000000
vn -0.000000 0.000000 -1.000000
vn -0.000000 0.000000 -1.000000
vn -0.000000 0.000000 -1.000000
vn -0.000000 0.000000 -1.000000
vn -0.000000 0.000000 -1.000000
vn 0.000000 1.000000 0.000000
vn 0.000000 1.000000 0.000000
vn 0.000000 1.000000 0.000000
vn 0.000000 1.000000 0.000000
vn 0.000000 1.000000 0.000000
vn 0.000000 1.000000 0.000000
vn 0.000000 1.000000 0.000000
vn 0.000000 1.000000 0.000000
vn 0.000000 1.000000 0.000000
vn 0.000000 1.000000 0.000000
vn 0.000000 1.000000 -0.000000
vn 0.000000 1.000000 -0.000000
vn 0.000000 1.000000 -0.000000
vn 0.000000 1.000000 -0.000000
vn 0.000000 1.000000 0.000000
vn 0.000000 1.000000 0.000000
vn 0.000000 1.000000 0.000000
vn 0.000000 1.000000 0.000000
vn 0.980204 0.000000 0.197990
vn 0.980204 0.000000 0.197990
vn 0.980204 0.000000 0.197990
vn 0.980204 0.000000 -0.197990
vn 0.980204 0.000000 -0.197990
vn 0.980204 0.000000 -0.197990
vn 0.987176 0.159635 0.000000
vn 0.987176 0.159635 0.000000
vn 0.987176 0.159635 0.000000
vn 0.987176 -0.159635 0.000000
vn 0.987176 -0.159635 0.000000
vn 0.987176 -0.159635 0.000000
vn 0.980204 0.000000 -0.197990
vn 0.980204 0.000000 -0.197990
vn 0.980204 0.000000 -0.197990
vn 0.987176 0.159635 0.000000
vn 0.987176 0.159635 0.000000
vn 0.987176 0.159635 0.000000
vn -0.987176 0.159635 0.000000
vn -0.987176 0.159635 0.000000
vn -0.987176 0.159635 0.000000
vn -0.987176 -0.159635 0.000000
vn -0.987176 -0.159635 0.000000
vn -0.987176 -0.159635 0.000000
vn -0.980204 0.000000 0.197990
vn -0.980204 0.000000 0.197990
vn -0.980204 0.000000 0.197990
vn -0.980032 0.131837 0.148848
vn -0.980032 0.131837 0.148848
vn -0.980032 0.131837 0.148848
vn -0.987176 -0.159635 0.000000
vn -0.987176 -0.159635 0.000000
vn -0.987176 -0.159635 0.000000
vn -0.980204 0.000000 0.197990
vn -0.980204 0.000000 0.197990
vn -0.980204 0.000000 0.197990
vn -0.987176 0.159635 0.000000
vn -0.987176 0.159635 0.000000
vn -0.987176 0.159635 0.000000
s off
f 7/10/1 10/13/2 9/12/3 1/6/4
f 3/5/5 12/16/6 11/15/7 5/7/8
f 1/1/9 9/11/10 12/19/11 3/18/12
f 2/3/13 8/8/14 6/21/15 4/20/16
f 5/23/17 11/22/18 10/14/19 7/2/20
f 3/17/21 5/24/22 7/9/23 1/4/24
f 13/25/25 59/26/26 15/27/27
f 17/28/28 47/29/29 46/30/30 18/31/31
f 58/32/32 18/31/33 20/33/34
f 19/34/35 20/33/36 56/35/37 53/36/38
f 18/31/39 46/30/40 48/37/41 45/38/42 16/39/43 14/40/44 20/33/45
f 55/41/46 44/42/47 41/43/48 17/28/49
f 23/44/50 29/45/51 30/46/52 31/47/53
f 27/48/54 57/49/55 28/50/56
f 21/51/57 39/52/58 37/53/59 22/54/60
f 38/55/61 35/56/62 32/57/63 30/46/64
f 27/48/65 31/47/66 25/58/67
f 21/51/68 60/59/69 23/44/70
f 30/46/71 29/45/72 24/60/73
f 35/56/74 34/61/75 32/57/76
f 33/62/77 34/61/78 35/56/79
f 37/53/80 39/52/81 38/55/82
f 38/55/83 39/52/84 36/63/85
f 31/47/86 34/61/87 25/58/88
f 31/47/89 30/46/90 32/57/91 34/61/92
f 25/58/93 34/61/94 33/62/95 26/64/96
f 38/55/97 30/46/98 24/60/99 22/54/100 37/53/101
f 26/64/102 33/62/103 35/56/104 28/50/105
f 28/50/106 35/56/107 38/55/108 36/63/109
f 27/48/110 28/50/111 36/63/112 39/52/113
f 27/48/114 39/52/115 21/51/116
f 21/51/117 23/44/118 31/47/119
f 21/51/120 31/47/121 27/48/122
f 44/42/123 42/65/124 41/43/125
f 44/42/126 43/66/127 42/65/128
f 40/67/129 43/66/130 44/42/131
f 45/38/132 48/37/133 47/29/134
f 47/29/135 48/37/136 46/30/137
f 52/68/138 51/69/139 50/70/140
f 49/71/141 51/69/142 52/68/143
f 53/36/144 56/35/145 55/41/146
f 55/41/147 56/35/148 54/72/149
f 56/35/150 14/40/151 13/25/152 54/72/153
f 56/35/154 20/33/155 14/40/156
f 55/41/157 17/28/158 19/34/159 53/36/160
f 44/42/161 52/68/162 50/70/163 40/67/164
f 13/25/165 15/27/166 49/71/167 52/68/168
f 13/25/169 52/68/170 44/42/171 55/41/172 54/72/173
f 51/69/174 16/39/175 45/38/176 47/29/177 42/65/178 43/66/179
f 42/65/180 47/29/181 17/28/182 41/43/183
f 51/69/184 43/66/185 40/67/186 50/70/187
f 15/27/188 16/39/189 51/69/190 49/71/191
f 57/49/192 26/64/193 28/50/194
f 25/58/195 57/49/196 27/48/197
f 25/58/198 26/64/199 57/49/200
f 19/34/201 58/32/202 20/33/203
f 17/28/204 58/32/205 19/34/206
f 17/28/207 18/31/208 58/32/209
f 16/39/210 15/27/211 59/26/212
f 14/40/213 59/26/214 13/25/215
f 16/39/216 59/26/217 14/40/218
f 24/60/219 29/45/220 60/59/221
f 22/54/222 60/59/223 21/51/224
f 24/60/225 60/59/226 22/54/227
f 60/59/228 29/45/229 23/44/230
