# This file uses centimeters as units for non-parametric coordinates.

v 0.000977 76.101807 25.001953
v 41.711914 76.101807 25.001953
v 41.711914 76.101807 -24.998047
v 0.000977 76.101807 -24.998047
v 125.137695 76.101807 -24.998047
v 125.137695 76.101807 25.001953
v 208.563477 76.101807 -24.998047
v 208.563477 76.101807 25.001953
v 125.137695 130.686951 -24.998047
v 41.711914 138.217896 -24.998047
v 41.711914 130.327209 25.001953
v 125.137695 138.217896 25.001953
v 208.563477 138.217896 -24.998047
v 208.563477 138.217896 25.001953
v 0.000977 0.000000 25.001953
v 0.000977 0.000000 -24.998047
v 250.274414 0.000000 -24.998047
v 250.274414 0.000000 25.001953
v 41.711914 138.217896 -5.716797
v 65.325195 138.217896 25.001953
v 48.114258 138.217896 18.251953
v 125.137695 138.217896 -10.626953
v 116.266602 138.217896 -24.998047
v 162.817383 76.101807 25.001953
v 199.586914 76.101807 25.001953
v 181.579102 76.101807 17.396484
v 182.665039 71.519653 25.001953
v 245.930664 138.217896 -24.998047
v 218.833008 138.217896 -24.998047
v 229.200195 138.217896 -17.873047
v 229.075195 134.288025 -24.998047
v 152.450195 67.258057 -24.998047
v 187.821289 67.976746 -24.998047
v 164.500977 76.101807 -14.150391
v 0.000977 76.101807 0.001953
v 250.274414 0.000000 0.001953
v 0.000977 0.000000 0.001953
v 250.278320 76.101807 25.001953
v 250.278320 76.101807 -24.998047
v 250.000977 138.217896 -24.998047
v 250.000977 138.217896 25.001953
vt 0.198327 0.303327
vt 0.005531 0.000999
vt 0.198305 0.303280
vt 0.087864 0.114581
vt 0.198403 0.303283
vt 0.198463 0.303246
vt 0.198426 0.303253
vt 0.198422 0.303180
vt 0.198518 0.303214
vt 0.198598 0.303438
vt 0.005531 0.114581
vt 0.198614 0.303376
vt 0.198655 0.303381
vt 0.005531 0.000999
vt 0.198671 0.303387
vt 0.198637 0.303321
vt 0.198663 0.303265
vt 0.005531 0.114581
vt 0.346651 0.146727
vt 0.087864 0.114581
vt 0.346742 0.146682
vt 0.499529 0.000999
vt 0.252532 0.114581
vt 0.499529 0.000999
vt 0.252532 0.114581
vt 0.306442 0.101381
vt 0.417198 0.114581
vt 0.399477 0.114581
vt 0.366077 0.107741
vt 0.417198 0.114581
vt 0.346819 0.146736
vt 0.198266 0.303301
vt 0.198291 0.303433
vt 0.198328 0.303411
vt 0.198306 0.303208
vt 0.198388 0.303183
vt 0.198337 0.303192
vt 0.198457 0.303380
vt 0.198442 0.303274
vt 0.198531 0.303333
vt 0.198587 0.303314
vt 0.345551 0.147310
vt 0.345532 0.147255
vt 0.198385 0.303176
vt 0.198626 0.303336
vt 0.198657 0.303340
vt 0.345706 0.147274
vt 0.198606 0.303321
vt 0.087864 0.207289
vt 0.235021 0.207289
vt 0.252532 0.196049
vt 0.252532 0.207289
vt 0.134473 0.207289
vt 0.087864 0.195512
vt 0.457688 0.201423
vt 0.345417 0.147315
vt 0.490959 0.207289
vt 0.198593 0.303357
vt 0.198538 0.303396
vt 0.198563 0.303439
vt 0.198504 0.303415
vt 0.417198 0.207289
vt 0.198717 0.303581
vt 0.198683 0.303610
vt 0.198342 0.303260
vt 0.198750 0.303554
vt 0.198364 0.303389
vt 0.417198 0.207289
vt 0.376258 0.102454
vt 0.437472 0.207289
vt 0.326902 0.114581
vt 0.499531 0.114581
vt 0.499531 0.114581
vt 0.198666 0.303343
vt 0.499561 0.207289
vt 0.198740 0.303293
vt 0.498694 0.207289
vt 0.198743 0.303760
vt 0.198580 0.303793
vt 0.198576 0.303262
vt 0.198904 0.303230
vt 0.198896 0.303729
vt 0.198571 0.302797
vt 0.198910 0.302793
vn 0.000000 1.000000 0.000000
vn 0.000000 1.000000 0.000000
vn 0.000000 1.000000 0.000000
vn 0.000000 1.000000 0.000000
vn 0.000000 1.000000 0.000000
vn 0.000000 1.000000 0.000000
vn 0.000000 1.000000 0.000000
vn 0.000000 1.000000 -0.000000
vn 0.000000 1.000000 -0.000000
vn 0.000000 1.000000 -0.000000
vn 0.000000 1.000000 -0.000000
vn 0.000000 0.000000 1.000000
vn 0.000000 0.000000 1.000000
vn 0.000000 0.000000 1.000000
vn 0.000000 0.000000 -1.000000
vn 0.000000 0.000000 -1.000000
vn 0.000000 0.000000 -1.000000
vn -1.000000 0.000000 0.000000
vn -1.000000 0.000000 0.000000
vn -1.000000 0.000000 0.000000
vn -1.000000 0.000000 0.000000
vn 0.000000 0.000000 -1.000000
vn 0.000000 0.000000 -1.000000
vn 0.000000 0.000000 -1.000000
vn 0.000000 0.000000 -1.000000
vn 0.000000 0.000000 1.000000
vn 0.000000 0.000000 1.000000
vn 0.000000 0.000000 1.000000
vn 0.000000 0.000000 1.000000
vn 0.000000 0.000000 -1.000000
vn 0.000000 0.000000 -1.000000
vn 0.000000 0.000000 -1.000000
vn -0.000000 0.000000 1.000000
vn -0.000000 0.000000 1.000000
vn -0.000000 0.000000 1.000000
vn -0.000000 0.000000 1.000000
vn 0.000000 0.000000 1.000000
vn 0.000000 0.000000 1.000000
vn 0.000000 0.000000 1.000000
vn 0.000000 0.000000 -1.000000
vn 0.000000 0.000000 -1.000000
vn 0.000000 0.000000 -1.000000
vn 0.000000 0.000000 -1.000000
vn 0.000000 0.000000 -1.000000
vn -1.000000 0.000000 0.000000
vn -1.000000 0.000000 0.000000
vn -1.000000 0.000000 0.000000
vn -1.000000 0.000000 0.000000
vn -1.000000 0.000000 0.000000
vn 0.000000 0.000000 1.000000
vn 0.000000 0.000000 1.000000
vn 0.000000 0.000000 1.000000
vn 0.000000 0.000000 1.000000
vn 0.000000 0.000000 1.000000
vn 1.000000 0.000000 0.000000
vn 1.000000 0.000000 0.000000
vn 1.000000 0.000000 0.000000
vn 1.000000 0.000000 0.000000
vn 1.000000 0.000000 0.000000
vn -1.000000 0.000000 0.000000
vn -1.000000 0.000000 0.000000
vn -1.000000 0.000000 0.000000
vn -1.000000 0.000000 0.000000
vn -0.246507 0.737684 0.628535
vn -0.246507 0.737684 0.628535
vn -0.246507 0.737684 0.628535
vn -0.681568 0.708747 0.182055
vn -0.681568 0.708747 0.182055
vn -0.681568 0.708747 0.182055
vn 0.600992 0.707940 -0.370985
vn 0.600992 0.707940 -0.370985
vn 0.600992 0.707940 -0.370986
vn 0.196694 0.851983 0.485219
vn 0.196694 0.851983 0.485219
vn 0.196694 0.851983 0.485219
vn -0.222252 0.820779 0.526238
vn -0.222252 0.820779 0.526238
vn -0.222252 0.820779 0.526238
vn -0.200361 0.859363 -0.470479
vn -0.200361 0.859363 -0.470479
vn -0.200361 0.859363 -0.470479
vn 0.317666 0.827914 -0.462218
vn 0.317666 0.827915 -0.462218
vn 0.317666 0.827915 -0.462218
vn -0.000000 0.000000 -1.000000
vn -0.000000 0.000000 -1.000000
vn -0.000000 0.000000 -1.000000
vn -0.000000 0.000000 -1.000000
vn 0.000000 1.000000 0.000000
vn 0.000000 1.000000 0.000000
vn 0.000000 1.000000 0.000000
vn 0.000000 1.000000 0.000000
vn 0.000000 0.000000 1.000000
vn 0.000000 0.000000 1.000000
vn 0.000000 0.000000 1.000000
vn 0.000000 0.000000 1.000000
vn 0.000000 1.000000 0.000000
vn 0.000000 1.000000 0.000000
vn 0.000000 1.000000 0.000000
vn 0.000000 1.000000 0.000000
vn 0.000000 1.000000 0.000000
vn 0.000000 1.000000 0.000000
vn 0.000000 1.000000 0.000000
vn 0.000000 1.000000 -0.000000
vn 0.000000 1.000000 -0.000000
vn 0.000000 1.000000 -0.000000
vn 0.000000 1.000000 -0.000000
vn 0.000000 1.000000 -0.000000
vn -0.204054 0.520923 -0.828856
vn -0.204054 0.520923 -0.828856
vn -0.204054 0.520923 -0.828855
vn 0.205388 0.634308 -0.745298
vn 0.205388 0.634308 -0.745298
vn 0.205388 0.634308 -0.745298
vn -0.015921 0.783554 -0.621120
vn -0.015921 0.783554 -0.621120
vn -0.015921 0.783554 -0.621120
vn 0.000000 0.000000 -1.000000
vn 0.000000 0.000000 -1.000000
vn 0.000000 0.000000 -1.000000
vn 0.000000 0.000000 -1.000000
vn 0.000000 0.000000 -1.000000
vn 0.000000 0.000000 -1.000000
vn 0.000000 1.000000 0.000000
vn 0.000000 1.000000 0.000000
vn 0.000000 1.000000 0.000000
vn 0.000000 -1.000000 0.000000
vn 0.000000 -1.000000 0.000000
vn 0.000000 -1.000000 0.000000
vn 0.000000 -1.000000 0.000000
vn 0.000000 1.000000 0.000000
vn 0.000000 1.000000 0.000000
vn 0.000000 1.000000 0.000000
vn 0.000000 1.000000 0.000000
vn 0.000000 1.000000 0.000000
vn 0.000000 1.000000 0.000000
vn 0.000000 -1.000000 0.000000
vn 0.000000 -1.000000 0.000000
vn 0.000000 -1.000000 0.000000
vn 0.000000 -1.000000 0.000000
vn -1.000000 0.000000 0.000000
vn -1.000000 0.000000 0.000000
vn -1.000000 0.000000 0.000000
vn -1.000000 0.000000 0.000000
vn 0.000000 0.000000 -1.000000
vn 0.000000 0.000000 -1.000000
vn 0.000000 0.000000 -1.000000
vn 0.000000 0.000000 -1.000000
vn 0.000000 0.000000 -1.000000
vn 0.000000 0.000000 -1.000000
vn 0.000000 0.000000 -1.000000
vn 0.000000 0.000000 -1.000000
vn 0.000000 1.000000 0.000000
vn 0.000000 1.000000 0.000000
vn 0.000000 1.000000 0.000000
vn 0.000000 1.000000 0.000000
vn 0.000000 1.000000 0.000000
vn 0.000000 0.000000 1.000000
vn 0.000000 0.000000 1.000000
vn 0.000000 0.000000 1.000000
vn 0.000000 0.000000 1.000000
vn 1.000000 -0.000051 0.000000
vn 1.000000 -0.000051 0.000000
vn 0.999998 0.001978 0.000000
vn 0.999998 0.001978 0.000000
vn 1.000000 -0.000051 0.000000
vn 0.999998 0.001978 0.000000
vn 0.999998 0.001978 0.000000
vn 0.999990 0.004465 0.000000
vn 0.999990 0.004465 0.000000
s off
f 3/1/1 35/3/2 2/5/3
f 22/6/4 23/7/5 20/8/6 12/9/7
f 7/10/8 26/12/9 25/13/10 8/15/11
f 15/2/12 2/4/13 1/11/14
f 16/14/15 4/18/16 3/20/17
f 4/32/18 16/33/19 37/34/20 35/3/21
f 17/22/22 16/14/23 3/20/24 5/23/25
f 15/2/26 18/24/27 6/25/28 2/4/29
f 17/22/30 5/23/31 32/26/32
f 18/24/33 8/27/34 25/28/35 27/29/36
f 18/24/37 38/72/38 8/27/39
f 5/23/40 3/20/41 10/49/42 23/50/43 9/51/44
f 10/35/45 3/1/46 2/5/47 11/36/48 19/37/49
f 2/4/50 6/25/51 12/52/52 20/53/53 11/54/54
f 5/38/55 9/39/56 22/6/57 12/9/58 6/40/59
f 13/41/60 7/10/61 8/15/62 14/17/63
f 20/19/64 21/21/65 11/31/66
f 11/36/67 21/44/68 19/37/69
f 9/39/70 23/7/71 22/6/72
f 27/42/73 26/43/74 24/47/75
f 25/56/76 26/43/77 27/42/78
f 31/45/79 30/16/80 28/46/81
f 29/48/82 30/16/83 31/45/84
f 31/55/85 7/30/86 13/68/87 29/70/88
f 14/17/89 30/16/90 29/48/91 13/41/92
f 18/24/93 27/29/94 24/71/95 6/25/96
f 26/12/97 5/38/98 6/40/99 24/58/100
f 7/10/101 34/59/102 26/12/103
f 20/8/104 23/7/105 10/35/106 19/37/107 21/44/108
f 7/10/109 33/60/110 34/59/111
f 34/59/112 32/61/113 5/38/114
f 34/59/115 33/60/116 32/61/117
f 17/22/118 33/69/119 7/30/120
f 17/22/121 32/26/122 33/69/123
f 26/12/124 34/59/125 5/38/126
f 16/33/127 17/64/128 36/63/129 37/34/130
f 3/1/131 4/32/132 35/3/133
f 2/5/134 35/3/135 1/65/136
f 37/34/137 36/63/138 18/66/139 15/67/140
f 35/3/141 37/34/142 15/67/143 1/65/144
f 17/22/145 7/30/146 39/73/147
f 31/55/148 28/57/149 40/75/150 39/73/151 7/30/152
f 30/16/153 14/17/154 41/76/155 40/74/156 28/46/157
f 8/27/158 38/72/159 41/77/160 14/62/161
f 36/78/162 17/79/163 39/80/164 38/81/165 18/82/166
f 38/81/167 39/80/168 40/83/169 41/84/170
