# This file uses centimeters as units for non-parametric coordinates.

v -30.092302 492.674347 30.095829
v 30.094654 492.674347 30.095829
v -25.357281 651.312622 25.356106
v 25.354931 651.312622 25.356106
v -25.357281 651.312622 -25.356106
v 25.354931 651.312622 -25.356106
v -30.092302 492.674347 -30.093477
v 30.094654 492.674347 -30.093477
v -35.918213 568.452759 -35.919388
v -35.918213 568.452759 35.921738
v 35.920563 568.452759 35.921738
v 35.920563 568.452759 -35.919388
v -25.357281 594.451233 -25.353756
v 25.354931 594.451233 -25.353756
v 25.354931 594.451233 25.358458
v -25.357281 594.451233 25.358458
v 35.920563 500.000000 35.919388
v 35.920563 499.999939 -35.919388
v -35.918213 499.999939 -35.919388
v -35.918213 500.000000 35.919388
vt 0.197063 0.303377
vt 0.196785 0.303537
vt 0.196793 0.303360
vt 0.196993 0.303249
vt 0.197002 0.302961
vt 0.196792 0.303069
vt 0.196623 0.302938
vt 0.196830 0.302837
vt 0.196829 0.303122
vt 0.196632 0.303225
vt 0.196563 0.303342
vt 0.196836 0.303197
vt 0.196831 0.303548
vt 0.196615 0.303673
vt 0.196791 0.303837
vt 0.197009 0.303703
vt 0.196834 0.303492
vt 0.197049 0.303675
vt 0.196787 0.303837
vt 0.196576 0.303640
vn 0.000000 0.084208 0.996448
vn 0.000000 0.084202 0.996449
vn 0.000000 0.159063 0.987268
vn 0.000000 0.159057 0.987269
vn 0.000000 1.000000 0.000000
vn 0.000000 1.000000 0.000000
vn 0.000000 1.000000 0.000000
vn 0.000000 1.000000 0.000000
vn 0.000000 0.159043 -0.987272
vn 0.000000 0.159049 -0.987271
vn 0.000000 0.084248 -0.996445
vn 0.000000 0.084254 -0.996444
vn 0.000000 -1.000000 0.000000
vn 0.000000 -1.000000 0.000000
vn 0.000000 -1.000000 0.000000
vn 0.000000 -1.000000 0.000000
vn 0.996444 0.084252 0.000000
vn 0.996445 0.084248 0.000000
vn 0.987267 0.159073 0.000000
vn 0.987267 0.159074 0.000000
vn -0.996448 0.084210 0.000000
vn -0.996448 0.084214 0.000000
vn -0.987278 0.159006 0.000000
vn -0.987278 0.159005 0.000000
vn -0.998731 -0.050365 0.000000
vn -0.998731 -0.050372 0.000000
vn -0.996448 0.084214 0.000000
vn -0.996448 0.084210 0.000000
vn 0.000000 -0.050375 0.998730
vn 0.000000 -0.050375 0.998730
vn 0.000000 0.084202 0.996449
vn 0.000000 0.084208 0.996448
vn 0.998731 -0.050372 0.000000
vn 0.998731 -0.050365 0.000000
vn 0.996445 0.084248 0.000000
vn 0.996444 0.084252 0.000000
vn 0.000000 0.084254 -0.996444
vn 0.000000 0.084248 -0.996445
vn 0.000000 -0.050365 -0.998731
vn 0.000000 -0.050365 -0.998731
vn 0.000000 -0.000041 -1.000000
vn 0.000000 0.159049 -0.987271
vn 0.000000 0.159043 -0.987272
vn 0.000000 -0.000041 -1.000000
vn 0.987267 0.159074 0.000000
vn 0.987267 0.159073 0.000000
vn 1.000000 -0.000000 0.000000
vn 1.000000 -0.000000 0.000000
vn 0.000000 0.159057 0.987269
vn 0.000000 0.159063 0.987268
vn 0.000000 0.000041 1.000000
vn 0.000000 0.000041 1.000000
vn -0.987278 0.159005 0.000000
vn -0.987278 0.159006 0.000000
vn -1.000000 0.000000 0.000000
vn -1.000000 0.000000 0.000000
vn 0.782667 -0.622440 0.000000
vn 0.782667 -0.622440 0.000000
vn 0.998731 -0.050365 0.000000
vn 0.998731 -0.050372 0.000000
vn 0.000000 -0.050365 -0.998731
vn 0.000000 -0.050365 -0.998731
vn 0.000000 -0.622442 -0.782666
vn 0.000000 -0.622442 -0.782666
vn -0.782667 -0.622440 0.000000
vn -0.782667 -0.622440 0.000000
vn -0.998731 -0.050372 0.000000
vn -0.998731 -0.050365 0.000000
vn 0.000000 -0.622285 0.782791
vn 0.000000 -0.622285 0.782791
vn 0.000000 -0.050375 0.998730
vn 0.000000 -0.050375 0.998730
s off
f 10/1/1 11/2/2 15/3/3 16/4/4
f 3/5/5 4/6/6 6/7/7 5/8/8
f 13/9/9 14/10/10 12/11/11 9/12/12
f 7/13/13 8/14/14 2/15/15 1/16/16
f 11/2/17 12/11/18 14/10/19 15/3/20
f 9/12/21 10/1/22 16/4/23 13/9/24
f 19/17/25 20/18/26 10/1/27 9/12/28
f 20/18/29 17/19/30 11/2/31 10/1/32
f 17/19/33 18/20/34 12/11/35 11/2/36
f 9/12/37 12/11/38 18/20/39 19/17/40
f 6/7/41 14/10/42 13/9/43 5/8/44
f 15/3/45 14/10/46 6/7/47 4/6/48
f 16/4/49 15/3/50 4/6/51 3/5/52
f 13/9/53 16/4/54 3/5/55 5/8/56
f 2/15/57 8/14/58 18/20/59 17/19/60
f 19/17/61 18/20/62 8/14/63 7/13/64
f 7/13/65 1/16/66 20/18/67 19/17/68
f 1/16/69 2/15/70 17/19/71 20/18/72
