# This file uses centimeters as units for non-parametric coordinates.

v 0.000000 0.000000 -35.328369
v 125.000183 0.000000 -35.328369
v 0.000000 -250.000015 -35.328369
v 125.000183 -250.000015 -35.328369
v 125.000183 -250.000000 35.152588
v 125.000183 0.000000 35.152588
v 0.000000 0.000000 35.152588
v 0.000000 -250.000000 35.152588
v 125.000183 -250.000000 0.000000
v 125.000183 0.000000 0.000000
v 0.000000 0.000000 0.000000
v 0.000000 -250.000000 0.000000
vt 0.257092 0.992301
vt 0.257092 0.992301
vt 0.257092 0.758226
vt 0.257092 0.757971
vt 0.357959 0.905522
vt 0.357598 0.905824
vt 0.357363 0.905746
vt 0.357779 0.905488
vt 0.357579 0.906488
vt 0.357405 0.906386
vt 0.357731 0.906008
vt 0.357874 0.906063
vt 0.357803 0.906035
vt 0.357869 0.905505
vt 0.357481 0.905785
vt 0.357492 0.906437
vt 0.377725 0.992301
vt 0.357779 0.905673
vt 0.357675 0.905645
vt 0.357571 0.905617
vt 0.377725 0.992301
vt 0.377725 0.757971
vt 0.357568 0.906197
vt 0.357648 0.906236
vt 0.357727 0.906275
vt 0.377725 0.758226
vn -1.000000 0.000000 0.000000
vn -1.000000 0.000000 0.000000
vn -1.000000 0.000000 0.000000
vn -1.000000 0.000000 0.000000
vn 1.000000 0.000000 0.000000
vn 1.000000 0.000000 0.000000
vn 1.000000 0.000000 0.000000
vn 1.000000 0.000000 0.000000
vn 1.000000 0.000000 0.000000
vn 1.000000 0.000000 0.000000
vn 1.000000 0.000000 0.000000
vn 1.000000 0.000000 0.000000
vn -1.000000 0.000000 0.000000
vn -1.000000 0.000000 0.000000
vn -1.000000 0.000000 0.000000
vn -1.000000 0.000000 0.000000
vn 0.000000 1.000000 0.000000
vn 0.000000 1.000000 0.000000
vn 0.000000 1.000000 0.000000
vn 0.000000 1.000000 0.000000
vn 0.000000 1.000000 0.000000
vn 0.000000 1.000000 0.000000
vn 0.000000 1.000000 0.000000
vn 0.000000 1.000000 0.000000
vn 0.000000 0.000000 1.000000
vn 0.000000 0.000000 1.000000
vn 0.000000 0.000000 1.000000
vn 0.000000 0.000000 1.000000
vn 0.000000 -1.000000 0.000000
vn 0.000000 -1.000000 0.000000
vn 0.000000 -1.000000 0.000000
vn 0.000000 -1.000000 0.000000
vn 0.000000 -1.000000 0.000000
vn 0.000000 -1.000000 0.000000
vn 0.000000 -1.000000 0.000000
vn 0.000000 -1.000000 0.000000
vn 0.000000 0.000000 -1.000000
vn 0.000000 0.000000 -1.000000
vn 0.000000 0.000000 -1.000000
vn 0.000000 0.000000 -1.000000
s off
f 11/15/1 12/16/2 8/10/3 7/7/4
f 9/13/5 10/14/6 6/8/7 5/11/8
f 2/5/9 10/14/10 9/13/11 4/12/12
f 1/6/13 3/9/14 12/16/15 11/15/16
f 10/19/17 2/18/18 1/6/19 11/15/20
f 6/20/21 10/19/22 11/15/23 7/7/24
f 5/22/25 6/21/26 7/2/27 8/4/28
f 12/16/29 9/24/30 5/23/31 8/10/32
f 4/25/33 9/24/34 12/16/35 3/9/36
f 2/17/37 4/26/38 3/3/39 1/1/40
