# This file uses centimeters as units for non-parametric coordinates.

v 0.000000 0.000000 0.000000
v 124.999390 -249.999939 0.000000
v 0.000000 0.000000 -250.000153
v 124.999390 -249.999939 -250.000153
v 5.754395 5.753937 0.000000
v 130.753784 -244.246078 0.000000
v 5.754395 5.753937 -250.000153
v 130.753784 -244.246078 -250.000153
v 8.345947 -11.609192 -236.206818
v 119.373779 -235.137665 -236.206818
v 119.373779 -235.137665 -13.793030
v 8.345947 -11.609192 -13.793030
v -3.840332 -3.839951 -250.000153
v 121.159668 -253.839996 -250.000153
v 116.213379 -244.716599 -238.089752
v 1.347656 -14.452057 -238.089752
v 121.159668 -253.839996 0.000000
v 116.213379 -244.716599 -11.910400
v -3.840332 -3.839951 0.000000
v 1.347656 -14.452057 -11.910400
v 111.243286 -265.836853 -46.781921
v 121.159058 -253.839890 -46.781921
v -13.756714 -15.836792 -46.781921
v -3.840332 -3.840294 -46.781921
v -13.756714 -15.836792 -62.077484
v -3.840332 -3.840294 -62.077484
v 111.243286 -265.836853 -62.077484
v 121.159058 -253.839890 -62.077484
v 111.243286 -265.836853 -187.922516
v 121.159058 -253.839890 -187.922516
v -13.756714 -15.836792 -187.922516
v -3.840332 -3.840294 -187.922516
v -13.756714 -15.836792 -203.217926
v -3.840332 -3.840294 -203.217926
v 111.243286 -265.836853 -203.217926
v 121.159058 -253.839890 -203.217926
vt 0.237129 0.305227
vt 0.237499 0.305786
vt 0.237504 0.305767
vt 0.237130 0.305203
vt 0.237206 0.306183
vt 0.236683 0.305324
vt 0.237204 0.306203
vt 0.236689 0.305357
vt 0.239405 0.625409
vt 0.239405 0.515115
vt 0.132397 0.515115
vt 0.132397 0.625408
vt 0.489258 0.155963
vt 0.489001 0.156859
vt 0.488977 0.156835
vt 0.489205 0.156004
vt 0.488313 0.156865
vt 0.488349 0.156839
vt 0.488315 0.155880
vt 0.488363 0.155934
vt 0.488970 0.156819
vt 0.489190 0.156005
vt 0.488355 0.156822
vt 0.489258 0.155963
vt 0.489001 0.156859
vt 0.488313 0.156865
vt 0.488315 0.155880
vt 0.488372 0.155936
vt 0.496789 0.156481
vt 0.496787 0.156426
vt 0.496807 0.155481
vt 0.496809 0.155542
vt 0.496879 0.155481
vt 0.496882 0.155542
vt 0.496840 0.156480
vt 0.496838 0.156425
vt 0.496809 0.155542
vt 0.496807 0.155481
vt 0.496879 0.155481
vt 0.496882 0.155542
vt 0.496838 0.156425
vt 0.496840 0.156480
vt 0.496787 0.156426
vt 0.496789 0.156481
vt 0.755685 0.744037
vt 0.755685 0.542100
vt 0.994841 0.542100
vt 0.994841 0.744037
vn 0.000000 0.000000 1.000000
vn 0.000000 0.000000 1.000000
vn 0.000000 0.000000 1.000000
vn 0.000000 0.000000 1.000000
vn 0.894428 0.447212 0.000000
vn 0.894428 0.447212 0.000000
vn 0.894428 0.447212 0.000000
vn 0.894428 0.447212 0.000000
vn 0.000000 0.000000 -1.000000
vn 0.000000 0.000000 -1.000000
vn 0.000000 0.000000 -1.000000
vn 0.000000 0.000000 -1.000000
vn 0.707074 -0.707140 0.000000
vn 0.707074 -0.707140 0.000000
vn 0.707074 -0.707140 0.000000
vn 0.707074 -0.707140 0.000000
vn -0.707079 0.707135 0.000000
vn -0.707079 0.707135 0.000000
vn -0.707079 0.707135 0.000000
vn -0.707079 0.707135 0.000000
vn -0.895604 -0.444852 0.000000
vn -0.895604 -0.444852 0.000000
vn -0.895604 -0.444852 0.000000
vn -0.895604 -0.444852 0.000000
vn -0.896340 -0.443253 -0.010076
vn -0.888586 -0.458568 -0.011435
vn -0.887715 -0.460277 -0.010359
vn -0.896354 -0.443227 -0.010009
vn -0.888586 -0.458568 -0.011435
vn -0.888586 -0.458568 0.011435
vn -0.887715 -0.460277 0.010359
vn -0.887715 -0.460277 -0.010359
vn -0.888586 -0.458568 0.011435
vn -0.896340 -0.443253 0.010076
vn -0.896354 -0.443227 0.010010
vn -0.887715 -0.460277 0.010359
vn -0.896340 -0.443253 0.010076
vn -0.896340 -0.443253 -0.010076
vn -0.896354 -0.443227 -0.010009
vn -0.896354 -0.443227 0.010010
vn -0.223165 -0.111089 0.968430
vn -0.223165 -0.111089 0.968430
vn -0.223165 -0.111089 0.968430
vn -0.223165 -0.111089 0.968430
vn -0.949648 0.313320 0.000000
vn -0.949648 0.313320 0.000000
vn -0.949648 0.313320 0.000000
vn -0.949648 0.313320 0.000000
vn -0.000000 0.000000 -1.000000
vn -0.000000 0.000000 -1.000000
vn -0.000000 0.000000 -1.000000
vn -0.000000 0.000000 -1.000000
vn 0.707138 -0.707076 0.000000
vn 0.707138 -0.707076 0.000000
vn 0.707138 -0.707076 0.000000
vn 0.707138 -0.707076 0.000000
vn 0.000000 0.000000 1.000000
vn 0.000000 0.000000 1.000000
vn 0.000000 0.000000 1.000000
vn 0.000000 0.000000 1.000000
vn -0.223130 -0.111072 -0.968440
vn -0.223130 -0.111072 -0.968440
vn -0.223130 -0.111072 -0.968440
vn -0.223130 -0.111072 -0.968440
vn -0.707072 0.707142 0.000000
vn -0.707072 0.707142 0.000000
vn -0.707072 0.707142 0.000000
vn -0.707072 0.707142 0.000000
vn 0.376355 -0.926475 0.000000
vn 0.376355 -0.926475 0.000000
vn 0.376355 -0.926476 0.000000
vn 0.376355 -0.926475 0.000000
vn 0.000000 0.000000 1.000000
vn 0.000000 0.000000 1.000000
vn 0.000000 0.000000 1.000000
vn 0.000000 0.000000 1.000000
vn -0.770765 0.637120 0.000000
vn -0.770765 0.637120 0.000000
vn -0.770765 0.637120 0.000000
vn -0.770765 0.637120 0.000000
vn 0.770797 -0.637081 0.000000
vn 0.770797 -0.637081 0.000000
vn 0.770797 -0.637081 0.000000
vn 0.770797 -0.637081 0.000000
vn 0.894428 0.447212 0.000000
vn 0.894428 0.447212 0.000000
vn 0.894428 0.447212 0.000000
vn 0.894428 0.447212 0.000000
vn -0.770765 0.637119 0.000000
vn -0.770765 0.637119 0.000000
vn -0.770765 0.637119 0.000000
vn -0.770765 0.637119 0.000000
vn -0.000001 0.000000 -1.000000
vn -0.000001 0.000000 -1.000000
vn -0.000001 0.000000 -1.000000
vn -0.000001 0.000000 -1.000000
vn 0.770797 -0.637081 0.000000
vn 0.770797 -0.637081 0.000000
vn 0.770797 -0.637081 0.000000
vn 0.770797 -0.637081 0.000000
vn 0.894428 0.447212 0.000000
vn 0.894428 0.447212 0.000000
vn 0.894428 0.447212 0.000000
vn 0.894428 0.447212 0.000000
vn -0.000000 0.000000 -1.000000
vn -0.000000 0.000000 -1.000000
vn -0.000000 0.000000 -1.000000
vn -0.000000 0.000000 -1.000000
vn -0.894427 -0.447214 0.000000
vn -0.894427 -0.447214 0.000000
vn -0.894427 -0.447214 0.000000
vn -0.894427 -0.447214 0.000000
vn -0.894427 -0.447214 0.000000
vn -0.894427 -0.447214 0.000000
vn -0.894427 -0.447214 0.000000
vn -0.894427 -0.447214 0.000000
vn 0.000000 0.000000 1.000000
vn 0.000000 0.000000 1.000000
vn 0.000000 0.000000 1.000000
vn 0.000000 0.000000 1.000000
s off
f 1/1/1 2/2/2 6/3/3 5/4/4
f 5/45/5 6/46/6 8/47/7 7/48/8
f 7/6/9 8/5/10 4/7/11 3/8/12
f 2/2/13 4/7/14 8/5/15 6/3/16
f 3/8/17 1/1/18 5/4/19 7/6/20
f 9/9/21 10/10/22 11/11/23 12/12/24
f 13/13/25 14/14/26 15/15/27 16/16/28
f 14/14/29 17/17/30 18/18/31 15/15/32
f 17/17/33 19/19/34 20/20/35 18/18/36
f 19/19/37 13/13/38 16/16/39 20/20/40
f 10/21/41 9/22/42 16/16/43 15/15/44
f 11/23/45 10/21/46 15/15/47 18/18/48
f 3/24/49 4/25/50 14/14/51 13/13/52
f 4/25/53 2/26/54 17/17/55 14/14/56
f 2/26/57 1/27/58 19/19/59 17/17/60
f 11/23/61 18/18/62 20/20/63 12/28/64
f 1/27/65 3/24/66 13/13/67 19/19/68
f 12/28/69 20/20/70 16/16/71 9/22/72
f 21/29/73 22/30/74 24/31/75 23/32/76
f 23/32/77 24/31/78 26/33/79 25/34/80
f 27/35/81 28/36/82 22/30/83 21/29/84
f 22/30/85 28/36/86 26/33/87 24/31/88
f 31/37/89 32/38/90 34/39/91 33/40/92
f 34/39/93 36/41/94 35/42/95 33/40/96
f 35/42/97 36/41/98 30/43/99 29/44/100
f 30/43/101 36/41/102 34/39/103 32/38/104
f 28/36/105 27/35/106 25/34/107 26/33/108
f 23/32/109 25/34/110 27/35/111 21/29/112
f 35/42/113 29/44/114 31/37/115 33/40/116
f 32/38/117 31/37/118 29/44/119 30/43/120
