# This file uses centimeters as units for non-parametric coordinates.

v -68.208366 465.966644 -45.063599
v -68.208366 530.333191 -45.063599
v -37.027458 530.333191 -28.100098
v -37.027458 465.966644 -28.100098
v -102.286713 464.708405 -152.581421
v -102.286713 529.325684 -152.581421
v -102.286552 529.325684 -98.530701
v -102.286552 464.708405 -98.530701
v -37.251144 465.966644 -222.253159
v -37.251144 530.333191 -222.253159
v -68.094543 530.333191 -204.683502
v -68.094543 465.966644 -204.683502
v 352.466309 495.131012 74.740303
v 352.466309 552.723877 74.740303
v 402.536804 552.723877 74.740295
v 402.536804 495.131012 74.740295
v 393.433289 495.131012 -1074.739746
v 393.433289 552.723877 -1074.739746
v 343.362793 552.723877 -1074.739502
v 343.362793 495.131012 -1074.739502
v 102.466301 495.131012 74.740303
v 102.466301 552.723877 74.740303
v 152.536804 552.723877 74.740295
v 152.536804 495.131012 74.740295
v 568.207153 465.966644 -954.936707
v 568.207153 530.333191 -954.936707
v 537.026184 530.333191 -971.900024
v 537.026184 465.966644 -971.900024
v 602.286133 464.708405 -847.419128
v 602.286133 529.325684 -847.419128
v 602.285645 529.325684 -901.469788
v 602.285645 464.708405 -901.469788
v 537.250977 465.966644 -777.747070
v 537.250977 530.333191 -777.747070
v 568.094238 530.333191 -795.316895
v 568.094238 465.966644 -795.316895
v 568.209473 465.966644 -204.935944
v 568.209473 530.333191 -204.935944
v 537.028442 530.333191 -221.899246
v 537.028442 465.966644 -221.899246
v 602.288391 464.708405 -97.418365
v 602.288391 529.325684 -97.418365
v 602.287903 529.325684 -151.469040
v 602.287903 464.708405 -151.469040
v 537.253235 465.966644 -27.746279
v 537.253235 530.333191 -27.746279
v 568.096558 530.333191 -45.316109
v 568.096558 465.966644 -45.316109
v -68.208366 465.966644 -795.063599
v -68.208366 530.333191 -795.063599
v -37.027458 530.333191 -778.100098
v -37.027458 465.966644 -778.100098
v -102.286713 464.708405 -902.581421
v -102.286713 529.325684 -902.581421
v -102.286552 529.325684 -848.530701
v -102.286552 464.708405 -848.530701
v -37.251144 465.966644 -972.253174
v -37.251144 530.333191 -972.253174
v -68.094543 530.333191 -954.683472
v -68.094543 465.966644 -954.683472
vt 0.660393 0.530684
vt 0.660393 0.593913
vt 0.695263 0.593913
vt 0.695263 0.530684
vt 0.652946 0.532552
vt 0.652946 0.592044
vt 0.702710 0.592044
vt 0.702710 0.532552
vt 0.660298 0.530511
vt 0.660298 0.594085
vt 0.695358 0.594085
vt 0.695358 0.530511
vt 0.654779 0.535786
vt 0.700877 0.588810
vt 0.654779 0.588810
vt 0.700877 0.535786
vt 0.654779 0.535786
vt 0.700877 0.588810
vt 0.654779 0.588810
vt 0.700877 0.535786
vt 0.654779 0.535786
vt 0.700877 0.588810
vt 0.654779 0.588810
vt 0.700877 0.535786
vt 0.660393 0.530684
vt 0.695263 0.593913
vt 0.660393 0.593913
vt 0.695263 0.530684
vt 0.652946 0.532552
vt 0.702710 0.592044
vt 0.652946 0.592044
vt 0.702710 0.532552
vt 0.660298 0.530511
vt 0.695358 0.594085
vt 0.660298 0.594085
vt 0.695358 0.530511
vt 0.660393 0.530684
vt 0.695263 0.593913
vt 0.660393 0.593913
vt 0.695263 0.530684
vt 0.652946 0.532552
vt 0.702710 0.592044
vt 0.652946 0.592044
vt 0.702710 0.532552
vt 0.660298 0.530511
vt 0.695358 0.594085
vt 0.660298 0.594085
vt 0.695358 0.530511
vt 0.660393 0.530684
vt 0.695263 0.593913
vt 0.660393 0.593913
vt 0.695263 0.530684
vt 0.652946 0.532552
vt 0.702710 0.592044
vt 0.652946 0.592044
vt 0.702710 0.532552
vt 0.660298 0.530511
vt 0.695358 0.594085
vt 0.660298 0.594085
vt 0.695358 0.530511
vn -0.477890 0.000000 0.878420
vn -0.477890 0.000000 0.878420
vn -0.477890 0.000000 0.878420
vn -0.477890 0.000000 0.878420
vn -0.477890 0.000000 0.878420
vn -0.477890 0.000000 0.878420
vn -1.000000 0.000000 0.000003
vn -1.000000 0.000000 0.000003
vn -1.000000 0.000000 0.000003
vn -1.000000 0.000000 0.000003
vn -1.000000 0.000000 0.000003
vn -1.000000 0.000000 0.000003
vn -0.494968 0.000000 -0.868912
vn -0.494968 0.000000 -0.868912
vn -0.494968 0.000000 -0.868912
vn -0.494968 0.000000 -0.868912
vn -0.494968 0.000000 -0.868912
vn -0.494968 0.000000 -0.868912
vn 0.000000 0.000000 1.000000
vn 0.000000 0.000000 1.000000
vn 0.000000 0.000000 1.000000
vn 0.000000 0.000000 1.000000
vn 0.000000 0.000000 1.000000
vn 0.000000 0.000000 1.000000
vn -0.000005 0.000000 -1.000000
vn -0.000005 0.000000 -1.000000
vn -0.000005 0.000000 -1.000000
vn -0.000005 0.000000 -1.000000
vn -0.000005 0.000000 -1.000000
vn -0.000005 0.000000 -1.000000
vn 0.000000 0.000000 1.000000
vn 0.000000 0.000000 1.000000
vn 0.000000 0.000000 1.000000
vn 0.000000 0.000000 1.000000
vn 0.000000 0.000000 1.000000
vn 0.000000 0.000000 1.000000
vn 0.477885 0.000000 -0.878422
vn 0.477885 0.000000 -0.878422
vn 0.477885 0.000000 -0.878422
vn 0.477885 0.000000 -0.878422
vn 0.477885 0.000000 -0.878422
vn 0.477885 0.000000 -0.878422
vn 1.000000 0.000000 -0.000009
vn 1.000000 0.000000 -0.000009
vn 1.000000 0.000000 -0.000009
vn 1.000000 0.000000 -0.000009
vn 1.000000 0.000000 -0.000009
vn 1.000000 0.000000 -0.000009
vn 0.494973 0.000000 0.868909
vn 0.494973 0.000000 0.868909
vn 0.494973 0.000000 0.868909
vn 0.494973 0.000000 0.868909
vn 0.494973 0.000000 0.868909
vn 0.494973 0.000000 0.868909
vn 0.477885 0.000000 -0.878422
vn 0.477885 0.000000 -0.878422
vn 0.477885 0.000000 -0.878422
vn 0.477885 0.000000 -0.878422
vn 0.477885 0.000000 -0.878422
vn 0.477885 0.000000 -0.878422
vn 1.000000 0.000000 -0.000009
vn 1.000000 0.000000 -0.000009
vn 1.000000 0.000000 -0.000009
vn 1.000000 0.000000 -0.000009
vn 1.000000 0.000000 -0.000009
vn 1.000000 0.000000 -0.000009
vn 0.494973 0.000000 0.868909
vn 0.494973 0.000000 0.868909
vn 0.494973 0.000000 0.868909
vn 0.494973 0.000000 0.868909
vn 0.494973 0.000000 0.868909
vn 0.494973 0.000000 0.868909
vn -0.477890 0.000000 0.878420
vn -0.477890 0.000000 0.878420
vn -0.477890 0.000000 0.878420
vn -0.477890 0.000000 0.878420
vn -0.477890 0.000000 0.878420
vn -0.477890 0.000000 0.878420
vn -1.000000 0.000000 0.000003
vn -1.000000 0.000000 0.000003
vn -1.000000 0.000000 0.000003
vn -1.000000 0.000000 0.000003
vn -1.000000 0.000000 0.000003
vn -1.000000 0.000000 0.000003
vn -0.494968 0.000000 -0.868912
vn -0.494968 0.000000 -0.868912
vn -0.494968 0.000000 -0.868912
vn -0.494968 0.000000 -0.868912
vn -0.494968 0.000000 -0.868912
vn -0.494968 0.000000 -0.868912
s off
f 1/1/1 3/3/2 2/2/3
f 1/1/4 4/4/5 3/3/6
f 5/5/7 7/7/8 6/6/9
f 5/5/10 8/8/11 7/7/12
f 9/9/13 11/11/14 10/10/15
f 9/9/16 12/12/17 11/11/18
f 13/13/19 15/14/20 14/15/21
f 13/13/22 16/16/23 15/14/24
f 17/17/25 19/18/26 18/19/27
f 17/17/28 20/20/29 19/18/30
f 21/21/31 23/22/32 22/23/33
f 21/21/34 24/24/35 23/22/36
f 25/25/37 27/26/38 26/27/39
f 25/25/40 28/28/41 27/26/42
f 29/29/43 31/30/44 30/31/45
f 29/29/46 32/32/47 31/30/48
f 33/33/49 35/34/50 34/35/51
f 33/33/52 36/36/53 35/34/54
f 37/37/55 39/38/56 38/39/57
f 37/37/58 40/40/59 39/38/60
f 41/41/61 43/42/62 42/43/63
f 41/41/64 44/44/65 43/42/66
f 45/45/67 47/46/68 46/47/69
f 45/45/70 48/48/71 47/46/72
f 49/49/73 51/50/74 50/51/75
f 49/49/76 52/52/77 51/50/78
f 53/53/79 55/54/80 54/55/81
f 53/53/82 56/56/83 55/54/84
f 57/57/85 59/58/86 58/59/87
f 57/57/88 60/60/89 59/58/90
