# This file uses centimeters as units for non-parametric coordinates.

v 144.207031 -8.587494 -75.542969
v 130.457031 -8.587494 -61.792969
v 144.207031 8.587494 -75.542969
v 130.457031 8.587494 -61.792969
v 144.207031 8.587494 75.541016
v 130.457031 8.587494 61.791016
v 144.207031 -8.587494 75.541016
v 130.457031 -8.587494 61.791016
v 6.873047 -8.587494 -61.792969
v -6.876953 -8.587494 -75.542969
v 6.873047 8.587494 -61.792969
v -6.876953 8.587494 -75.542969
v 6.873047 8.587494 61.791016
v -6.876953 8.587494 75.541016
v 6.873047 -8.587494 61.791016
v -6.876953 -8.587494 75.541016
v -6.876953 8.587494 -56.636719
v 6.875000 8.587494 -36.587891
v 6.871094 8.587494 -10.013672
v 1.486328 8.587494 -24.976563
v 6.873047 4.743622 -24.634766
v -6.876953 8.587494 40.251953
v -6.876953 8.587494 52.972656
v -2.617188 8.587494 47.105469
v -6.876953 4.981628 47.796875
v -6.876953 -8.587494 15.798828
v -6.876953 -8.587494 -2.216797
v -6.876953 -3.793060 3.390625
v -3.109375 -8.587494 3.851563
v 144.207031 8.587494 -23.244141
v 144.207031 8.587494 11.416016
v 139.070313 8.587494 2.443359
v 139.257813 8.587494 -12.992188
v 144.207031 3.929749 -5.636719
v 130.457031 8.587494 36.095703
v 130.457031 8.587494 55.230469
v 133.759766 8.587494 43.945313
v 130.457031 5.300537 44.234375
v 144.207031 8.587494 -41.968750
v 144.207031 8.587494 -29.769531
v 139.847656 8.587494 -35.023438
v 144.207031 4.566345 -34.839844
v 144.207031 -8.587494 42.455078
v 144.207031 -8.587463 16.929688
v 144.207031 -3.646576 33.718750
v 140.964844 -8.587494 31.849609
v 139.075195 -3.754333 68.664063
v 0.000000 -3.754333 68.664063
v 139.075195 -3.754333 -70.242188
v 0.000000 -3.754333 -70.242188
v 139.075195 4.733948 -70.242188
v 0.000000 4.733948 -70.242188
v 139.075195 4.733948 68.664063
v 0.000000 4.733948 68.664063
v 13.775391 8.587494 75.541016
v 33.823730 8.587494 61.789063
v 60.398438 8.587494 61.792969
v 45.434570 8.587494 67.177734
v 45.777832 4.743622 61.791016
v 110.663086 8.587494 75.541016
v 123.383789 8.587494 75.541016
v 117.517090 8.587494 71.281250
v 118.208008 4.981628 75.541016
v 86.209961 -8.587494 75.541016
v 68.194336 -8.587494 75.541016
v 73.801758 -3.793060 75.541016
v 74.262695 -8.587494 71.773438
v 47.167969 8.587494 -75.542969
v 81.827148 8.587494 -75.542969
v 72.854492 8.587494 -70.406250
v 57.419922 8.587494 -70.593750
v 64.774414 3.929749 -75.542969
v 106.508301 8.587494 -61.792969
v 125.643066 8.587494 -61.792969
v 114.356445 8.587494 -65.095703
v 114.646484 5.300537 -61.792969
v 28.443848 8.587494 -75.542969
v 40.643066 8.587494 -75.542969
v 35.387695 8.587494 -71.183594
v 35.572754 4.566345 -75.542969
v 112.867188 -8.587494 -75.542969
v 87.340820 -8.587463 -75.542969
v 104.129883 -3.646576 -75.542969
v 102.262207 -8.587494 -72.300781
vt 0.494849 0.181488
vt 0.494978 0.181492
vt 0.494835 0.181613
vt 0.494963 0.181616
vt 0.494849 0.181488
vt 0.494978 0.181492
vt 0.494835 0.181613
vt 0.494963 0.181616
vt 0.495287 0.181876
vt 0.495133 0.181885
vt 0.495075 0.182043
vt 0.495262 0.182052
vt 0.495287 0.181876
vt 0.495098 0.181868
vt 0.495075 0.182043
vt 0.495262 0.182052
vt 0.495072 0.181830
vt 0.495211 0.181782
vt 0.495152 0.181709
vt 0.495149 0.181748
vt 0.495182 0.181777
vt 0.494943 0.181632
vt 0.494920 0.181597
vt 0.494979 0.181615
vt 0.494928 0.181627
vt 0.494944 0.181809
vt 0.494975 0.181864
vt 0.494968 0.181823
vt 0.495016 0.181848
vt 0.495115 0.181662
vt 0.495038 0.181567
vt 0.495010 0.181590
vt 0.495041 0.181633
vt 0.495073 0.181630
vt 0.494907 0.181577
vt 0.494873 0.181525
vt 0.494903 0.181546
vt 0.494889 0.181584
vt 0.495183 0.181747
vt 0.495139 0.181692
vt 0.495127 0.181741
vt 0.495178 0.181757
vt 0.495019 0.181698
vt 0.495074 0.181778
vt 0.495032 0.181695
vt 0.495005 0.181730
vt 0.494978 0.181492
vt 0.494903 0.181546
vt 0.494873 0.181525
vt 0.494849 0.181488
vt 0.494835 0.181613
vt 0.494963 0.181616
vt 0.495005 0.181730
vt 0.495019 0.181698
vt 0.494889 0.181584
vt 0.494907 0.181577
vt 0.495098 0.181868
vt 0.495075 0.182043
vt 0.495032 0.181695
vt 0.495073 0.181630
vt 0.495038 0.181567
vt 0.495287 0.181876
vt 0.495133 0.181885
vt 0.495072 0.181830
vt 0.495149 0.181748
vt 0.495211 0.181782
vt 0.494963 0.181616
vt 0.494835 0.181613
vt 0.495262 0.182052
vt 0.495016 0.181848
vt 0.494975 0.181864
vt 0.495075 0.182043
vt 0.494968 0.181823
vt 0.494928 0.181627
vt 0.494943 0.181632
vt 0.495182 0.181777
vt 0.495152 0.181709
vt 0.494978 0.181492
vt 0.049696 0.574789
vt 0.125097 0.574789
vt 0.125097 0.512578
vt 0.049696 0.512578
vt 0.049696 0.512578
vt 0.125097 0.512578
vt 0.125097 0.574789
vt 0.049696 0.574789
vt 0.494979 0.181615
vt 0.494920 0.181597
vt 0.494944 0.181809
vt 0.494849 0.181488
vt 0.495010 0.181590
vt 0.495041 0.181633
vt 0.495115 0.181662
vt 0.495178 0.181757
vt 0.495127 0.181741
vt 0.495139 0.181692
vt 0.495183 0.181747
vt 0.495074 0.181778
vt 0.495262 0.182052
vt 0.495287 0.181876
vn 0.000000 1.000000 0.000000
vn 0.000000 1.000000 0.000000
vn 0.000000 1.000000 0.000000
vn 0.000000 1.000000 0.000000
vn 0.000000 -1.000000 0.000000
vn 0.000000 -1.000000 0.000000
vn 0.000000 -1.000000 0.000000
vn 0.000000 -1.000000 0.000000
vn -1.000000 0.000000 0.000000
vn -1.000000 0.000000 0.000000
vn -1.000000 0.000000 0.000000
vn -1.000000 0.000000 0.000000
vn -1.000000 0.000000 0.000000
vn -1.000000 0.000000 0.000000
vn -1.000000 0.000000 0.000000
vn 1.000000 0.000001 0.000000
vn 1.000000 0.000001 0.000000
vn 1.000000 0.000001 0.000000
vn 1.000000 0.000001 0.000000
vn 0.000000 1.000000 -0.000000
vn 0.000000 1.000000 -0.000000
vn 0.000000 1.000000 -0.000000
vn 0.000000 1.000000 -0.000000
vn 0.000000 1.000000 -0.000000
vn 0.000000 -1.000000 0.000000
vn 0.000000 -1.000000 0.000000
vn 0.000000 -1.000000 0.000000
vn 0.000000 -1.000000 0.000000
vn -1.000000 0.000000 0.000000
vn -1.000000 0.000000 0.000000
vn -1.000000 0.000000 0.000000
vn -1.000000 0.000000 0.000000
vn 1.000000 0.000096 -0.000004
vn 1.000000 0.000096 -0.000004
vn 1.000000 0.000096 -0.000004
vn 1.000000 0.000096 -0.000004
vn 0.576898 0.789991 -0.207611
vn 0.576898 0.789991 -0.207611
vn 0.576898 0.789991 -0.207611
vn 0.550766 0.794559 0.255603
vn 0.550766 0.794559 0.255603
vn 0.550766 0.794559 0.255603
vn -0.570018 0.741321 0.354292
vn -0.570018 0.741321 0.354292
vn -0.570018 0.741321 0.354292
vn -0.618611 0.644672 -0.449131
vn -0.618611 0.644672 -0.449131
vn -0.618611 0.644672 -0.449131
vn -0.723057 -0.525037 0.448915
vn -0.723057 -0.525037 0.448915
vn -0.723058 -0.525037 0.448915
vn -0.752596 -0.614225 -0.237332
vn -0.752596 -0.614225 -0.237332
vn -0.752596 -0.614225 -0.237332
vn 0.000000 1.000000 0.000000
vn 0.000000 1.000000 0.000000
vn 0.000000 1.000000 0.000000
vn 0.000000 1.000000 0.000000
vn 0.000000 1.000000 0.000000
vn 0.000000 1.000000 0.000000
vn 0.000000 1.000000 0.000000
vn 0.000000 1.000000 0.000000
vn 0.000000 1.000000 0.000000
vn 0.000000 1.000000 0.000000
vn 0.000000 1.000000 0.000000
vn 0.000000 1.000000 0.000000
vn -1.000000 -0.000000 0.000000
vn -1.000000 -0.000000 0.000000
vn -1.000000 -0.000000 0.000000
vn -1.000000 -0.000000 0.000000
vn -1.000000 -0.000000 0.000000
vn -1.000000 -0.000000 0.000000
vn -1.000000 -0.000000 0.000000
vn -1.000000 -0.000000 0.000000
vn -1.000000 -0.000000 0.000000
vn -1.000000 0.000000 0.000000
vn -1.000000 0.000000 0.000000
vn -1.000000 0.000000 0.000000
vn -1.000000 0.000000 0.000000
vn 0.000000 -1.000000 0.000000
vn 0.000000 -1.000000 0.000000
vn 0.000000 -1.000000 0.000000
vn 0.000000 -1.000000 0.000000
vn 0.000000 -1.000000 0.000000
vn 0.000000 -1.000000 0.000000
vn 0.000000 -1.000000 0.000000
vn 1.000000 -0.000099 -0.000010
vn 1.000000 -0.000099 -0.000010
vn 1.000000 -0.000099 -0.000010
vn 1.000000 -0.000099 -0.000010
vn 1.000000 0.000000 0.000000
vn 1.000000 0.000000 0.000000
vn 1.000000 0.000000 0.000000
vn 0.418092 0.876305 -0.239352
vn 0.418092 0.876305 -0.239352
vn 0.418092 0.876305 -0.239352
vn 0.678789 0.734287 0.008245
vn 0.678789 0.734287 0.008245
vn 0.678789 0.734287 0.008245
vn 0.468114 0.854283 0.225986
vn 0.468114 0.854283 0.225986
vn 0.468114 0.854283 0.225986
vn -0.664841 0.692630 0.279733
vn -0.664841 0.692630 0.279733
vn -0.664841 0.692630 0.279733
vn -0.699418 0.684774 -0.204693
vn -0.699418 0.684774 -0.204693
vn -0.699418 0.684774 -0.204693
vn 0.599431 0.627139 -0.497372
vn 0.599431 0.627139 -0.497372
vn 0.599431 0.627139 -0.497372
vn 0.616365 0.685873 0.386875
vn 0.616365 0.685873 0.386875
vn 0.616365 0.685873 0.386875
vn 0.849520 -0.459204 -0.259706
vn 0.849520 -0.459204 -0.259706
vn 0.849520 -0.459204 -0.259706
vn 0.792442 -0.585135 0.172201
vn 0.792442 -0.585135 0.172201
vn 0.792442 -0.585135 0.172201
vn 0.000002 -1.000000 0.000000
vn 0.000002 -1.000000 0.000000
vn 0.000002 -1.000000 0.000000
vn 0.000002 -1.000000 0.000000
vn 0.000000 -1.000000 0.000000
vn 0.000000 -1.000000 0.000000
vn 0.000000 -1.000000 0.000000
vn 1.000000 -0.000001 0.000000
vn 1.000000 -0.000001 0.000000
vn 1.000000 -0.000001 0.000000
vn 1.000000 -0.000001 0.000000
vn 1.000000 -0.000003 0.000000
vn 1.000000 -0.000003 0.000000
vn 1.000000 -0.000003 0.000000
vn 1.000000 -0.000003 0.000000
vn 1.000000 0.000000 0.000000
vn 1.000000 0.000000 0.000000
vn 1.000000 0.000000 0.000000
vn 1.000000 0.000000 0.000000
vn 1.000000 -0.000001 0.000000
vn 1.000000 -0.000001 0.000000
vn 1.000000 -0.000001 0.000000
vn 1.000000 -0.000001 0.000000
vn 1.000000 -0.000001 0.000000
vn 0.000000 1.000000 -0.000000
vn 0.000000 1.000000 -0.000000
vn 0.000000 1.000000 -0.000000
vn 0.000000 1.000000 -0.000000
vn 0.000000 1.000000 -0.000000
vn 0.000000 1.000000 -0.000000
vn 0.000000 1.000000 0.000000
vn 0.000000 1.000000 0.000000
vn 0.000000 1.000000 0.000000
vn 0.000000 1.000000 0.000000
vn 0.000000 1.000000 0.000000
vn 0.000000 1.000000 0.000000
vn 0.000000 1.000000 0.000000
vn 0.000000 1.000000 0.000000
vn 0.000000 1.000000 -0.000000
vn 0.000000 1.000000 -0.000000
vn 0.000000 1.000000 -0.000000
vn 0.000000 1.000000 -0.000000
vn 0.000000 1.000000 0.000000
vn 0.000000 1.000000 0.000000
vn 0.000000 1.000000 0.000000
vn 0.000000 1.000000 0.000000
vn 0.000000 -1.000000 -0.000000
vn 0.000000 -1.000000 -0.000000
vn 0.000000 -1.000000 -0.000000
vn 0.000000 -1.000000 -0.000000
vn 0.000000 0.000000 1.000000
vn 0.000000 0.000000 1.000000
vn 0.000000 0.000000 1.000000
vn 0.000000 0.000000 1.000000
vn 0.000000 0.000000 1.000000
vn 0.000000 0.000000 1.000000
vn 0.000000 0.000000 1.000000
vn 0.000000 0.000000 -1.000000
vn 0.000000 0.000000 -1.000000
vn 0.000000 0.000000 -1.000000
vn 0.000000 0.000000 -1.000000
vn 0.000000 1.000000 -0.000000
vn 0.000000 1.000000 -0.000000
vn 0.000000 1.000000 -0.000000
vn 0.000000 1.000000 -0.000000
vn 0.000000 1.000000 -0.000000
vn 0.000000 -1.000000 -0.000000
vn 0.000000 -1.000000 -0.000000
vn 0.000000 -1.000000 -0.000000
vn 0.000000 -1.000000 -0.000000
vn 0.000000 0.000000 1.000000
vn 0.000000 0.000000 1.000000
vn 0.000000 0.000000 1.000000
vn 0.000000 0.000000 1.000000
vn -0.000004 0.000096 -1.000000
vn -0.000004 0.000096 -1.000000
vn -0.000004 0.000096 -1.000000
vn -0.000004 0.000096 -1.000000
vn 0.000000 1.000000 0.000000
vn 0.000000 1.000000 0.000000
vn 0.000000 1.000000 0.000000
vn 0.000000 1.000000 0.000000
vn 0.000000 -1.000000 0.000000
vn 0.000000 -1.000000 0.000000
vn 0.000000 -1.000000 0.000000
vn 0.000000 -1.000000 0.000000
vn -0.207611 0.789964 -0.576935
vn -0.207611 0.789964 -0.576935
vn -0.207611 0.789964 -0.576935
vn 0.255594 0.794593 -0.550721
vn 0.255594 0.794593 -0.550721
vn 0.255594 0.794593 -0.550721
vn 0.354284 0.741303 0.570046
vn 0.354284 0.741303 0.570046
vn 0.354284 0.741303 0.570046
vn -0.449146 0.644693 0.618578
vn -0.449146 0.644693 0.618578
vn -0.449146 0.644693 0.618578
vn 0.448915 -0.525037 0.723057
vn 0.448915 -0.525037 0.723057
vn 0.448915 -0.525037 0.723057
vn -0.237332 -0.614225 0.752597
vn -0.237332 -0.614225 0.752596
vn -0.237332 -0.614225 0.752596
vn 0.000000 1.000000 0.000000
vn 0.000000 1.000000 0.000000
vn 0.000000 1.000000 0.000000
vn 0.000000 1.000000 0.000000
vn 0.000000 1.000000 -0.000000
vn 0.000000 1.000000 -0.000000
vn 0.000000 1.000000 -0.000000
vn 0.000000 1.000000 -0.000000
vn 0.000000 1.000000 0.000000
vn 0.000000 1.000000 0.000000
vn 0.000000 1.000000 0.000000
vn 0.000000 1.000000 0.000000
vn 0.000000 0.000000 1.000000
vn 0.000000 0.000000 1.000000
vn 0.000000 0.000000 1.000000
vn 0.000000 0.000000 1.000000
vn 0.000000 0.000000 1.000000
vn 0.000000 0.000000 1.000000
vn 0.000000 0.000000 1.000000
vn 0.000000 0.000000 1.000000
vn 0.000000 0.000000 1.000000
vn 0.000000 0.000000 1.000000
vn 0.000000 0.000000 1.000000
vn 0.000000 0.000000 1.000000
vn 0.000000 0.000000 1.000000
vn 0.000000 -1.000000 -0.000000
vn 0.000000 -1.000000 -0.000000
vn 0.000000 -1.000000 -0.000000
vn 0.000000 -1.000000 -0.000000
vn 0.000000 -1.000000 0.000000
vn 0.000000 -1.000000 0.000000
vn 0.000000 -1.000000 0.000000
vn -0.000010 -0.000098 -1.000000
vn -0.000010 -0.000098 -1.000000
vn -0.000010 -0.000098 -1.000000
vn -0.000010 -0.000098 -1.000000
vn 0.000000 0.000000 -1.000000
vn 0.000000 0.000000 -1.000000
vn 0.000000 0.000000 -1.000000
vn -0.239352 0.876305 -0.418092
vn -0.239352 0.876305 -0.418092
vn -0.239352 0.876305 -0.418092
vn 0.008246 0.734287 -0.678789
vn 0.008246 0.734287 -0.678789
vn 0.008246 0.734287 -0.678789
vn 0.225996 0.854270 -0.468133
vn 0.225996 0.854270 -0.468133
vn 0.225996 0.854270 -0.468133
vn 0.279763 0.692667 0.664789
vn 0.279763 0.692667 0.664789
vn 0.279763 0.692667 0.664789
vn -0.204675 0.684747 0.699450
vn -0.204675 0.684747 0.699450
vn -0.204675 0.684747 0.699450
vn -0.497321 0.627078 -0.599537
vn -0.497321 0.627078 -0.599537
vn -0.497321 0.627078 -0.599537
vn 0.386905 0.685928 -0.616285
vn 0.386905 0.685928 -0.616285
vn 0.386905 0.685928 -0.616285
vn -0.259709 -0.459257 -0.849490
vn -0.259709 -0.459257 -0.849490
vn -0.259709 -0.459257 -0.849490
vn 0.172190 -0.585100 -0.792470
vn 0.172190 -0.585100 -0.792470
vn 0.172190 -0.585100 -0.792470
vn 0.000000 -1.000000 -0.000002
vn 0.000000 -1.000000 -0.000002
vn 0.000000 -1.000000 -0.000002
vn 0.000000 -1.000000 -0.000002
vn 0.000000 -1.000000 -0.000000
vn 0.000000 -1.000000 -0.000000
vn 0.000000 -1.000000 -0.000000
vn -0.000000 0.000000 -1.000000
vn -0.000000 0.000000 -1.000000
vn -0.000000 0.000000 -1.000000
vn -0.000000 0.000000 -1.000000
vn -0.000000 0.000000 -1.000000
vn -0.000000 0.000000 -1.000000
vn -0.000000 0.000000 -1.000000
vn -0.000000 0.000000 -1.000000
vn 0.000000 0.000000 -1.000000
vn 0.000000 0.000000 -1.000000
vn 0.000000 0.000000 -1.000000
vn 0.000000 0.000000 -1.000000
vn 0.000000 0.000000 -1.000000
vn 0.000000 0.000000 -1.000000
vn 0.000000 0.000000 -1.000000
vn 0.000000 0.000000 -1.000000
vn 0.000000 0.000000 -1.000000
vn 0.000000 1.000000 0.000000
vn 0.000000 1.000000 0.000000
vn 0.000000 1.000000 0.000000
vn 0.000000 1.000000 0.000000
vn 0.000000 1.000000 0.000000
vn 0.000000 1.000000 0.000000
vn 0.000000 1.000000 0.000000
vn 0.000000 1.000000 0.000000
vn 0.000000 1.000000 0.000000
vn 0.000000 1.000000 0.000000
vn 0.000000 1.000000 -0.000000
vn 0.000000 1.000000 -0.000000
vn 0.000000 1.000000 -0.000000
vn 0.000000 1.000000 -0.000000
vn 0.000000 1.000000 0.000000
vn 0.000000 1.000000 0.000000
vn 0.000000 1.000000 0.000000
vn 0.000000 1.000000 0.000000
s off
f 5/2/1 37/37/2 36/36/3 6/1/4
f 7/4/5 8/3/6 46/46/7 43/43/8
f 6/1/9 36/36/10 38/38/11 35/35/12 4/14/13 2/15/14 8/3/15
f 45/45/16 34/34/17 31/31/18 5/2/19
f 11/9/20 12/10/21 17/17/22 20/20/23 18/18/24
f 9/12/25 29/29/26 27/27/27 10/11/28
f 28/28/29 25/25/30 22/22/31 17/17/32
f 15/8/33 21/21/34 19/19/35 13/6/36
f 19/19/37 21/21/38 20/20/39
f 20/20/40 21/21/41 18/18/42
f 25/25/43 24/24/44 22/22/45
f 23/23/46 24/24/47 25/25/48
f 27/27/49 29/29/50 28/28/51
f 28/28/52 29/29/53 26/26/54
f 20/20/55 24/24/56 13/6/57 19/19/58
f 20/20/59 17/17/60 22/22/61 24/24/62
f 13/6/63 24/24/64 23/23/65 14/5/66
f 28/28/67 17/17/68 12/10/69 10/11/70 27/27/71
f 14/5/72 23/23/73 25/25/74 16/7/75
f 16/7/76 25/25/77 28/28/78 26/26/79
f 15/8/80 16/7/81 26/26/82 29/29/83
f 15/8/84 29/29/85 9/12/86
f 9/12/87 11/9/88 18/18/89 21/21/90
f 9/12/91 21/21/92 15/8/93
f 34/34/94 32/32/95 31/31/96
f 34/34/97 33/33/98 32/32/99
f 30/30/100 33/33/101 34/34/102
f 35/35/103 38/38/104 37/37/105
f 37/37/106 38/38/107 36/36/108
f 42/42/109 41/41/110 40/40/111
f 39/39/112 41/41/113 42/42/114
f 43/43/115 46/46/116 45/45/117
f 45/45/118 46/46/119 44/44/120
f 46/46/121 2/15/122 1/16/123 44/44/124
f 46/46/125 8/3/126 2/15/127
f 45/45/128 5/2/129 7/4/130 43/43/131
f 34/34/132 42/42/133 40/40/134 30/30/135
f 1/16/136 3/13/137 39/39/138 42/42/139
f 1/16/140 42/42/141 34/34/142 45/45/143 44/44/144
f 41/41/145 4/14/146 35/35/147 37/37/148 32/32/149 33/33/150
f 32/32/151 37/37/152 5/2/153 31/31/154
f 41/41/155 33/33/156 30/30/157 40/40/158
f 3/13/159 4/14/160 41/41/161 39/39/162
f 3/47/163 75/48/164 74/49/165 4/50/166
f 1/52/167 2/51/168 84/53/169 81/54/170
f 4/50/171 74/49/172 76/55/173 73/56/174 11/57/175 9/58/176 2/51/177
f 83/59/178 72/60/179 69/61/180 3/47/181
f 13/62/182 14/63/183 55/64/184 58/65/185 56/66/186
f 15/69/187 67/70/188 65/71/189 16/72/190
f 66/73/191 63/74/192 60/75/193 55/64/194
f 8/67/195 59/76/196 57/77/197 6/78/198
f 51/79/199 52/80/200 54/81/201 53/82/202
f 47/83/203 48/84/204 50/85/205 49/86/206
f 57/77/207 59/76/208 58/65/209
f 58/65/210 59/76/211 56/66/212
f 63/74/213 62/87/214 60/75/215
f 61/88/216 62/87/217 63/74/218
f 65/71/219 67/70/220 66/73/221
f 66/73/222 67/70/223 64/89/224
f 58/65/225 62/87/226 6/78/227 57/77/228
f 58/65/229 55/64/230 60/75/231 62/87/232
f 6/78/233 62/87/234 61/88/235 5/90/236
f 66/73/237 55/64/238 14/63/239 16/72/240 65/71/241
f 5/90/242 61/88/243 63/74/244 7/68/245
f 7/68/246 63/74/247 66/73/248 64/89/249
f 8/67/250 7/68/251 64/89/252 67/70/253
f 8/67/254 67/70/255 15/69/256
f 15/69/257 13/62/258 56/66/259 59/76/260
f 15/69/261 59/76/262 8/67/263
f 72/60/264 70/91/265 69/61/266
f 72/60/267 71/92/268 70/91/269
f 68/93/270 71/92/271 72/60/272
f 73/56/273 76/55/274 75/48/275
f 75/48/276 76/55/277 74/49/278
f 80/94/279 79/95/280 78/96/281
f 77/97/282 79/95/283 80/94/284
f 81/54/285 84/53/286 83/59/287
f 83/59/288 84/53/289 82/98/290
f 84/53/291 9/58/292 10/99/293 82/98/294
f 84/53/295 2/51/296 9/58/297
f 83/59/298 3/47/299 1/52/300 81/54/301
f 72/60/302 80/94/303 78/96/304 68/93/305
f 10/99/306 12/100/307 77/97/308 80/94/309
f 10/99/310 80/94/311 72/60/312 83/59/313 82/98/314
f 79/95/315 11/57/316 73/56/317 75/48/318 70/91/319 71/92/320
f 70/91/321 75/48/322 3/47/323 69/61/324
f 79/95/325 71/92/326 68/93/327 78/96/328
f 12/100/329 11/57/330 79/95/331 77/97/332
