# This file uses centimeters as units for non-parametric coordinates.

v 127.529602 237.708710 -16.001740
v 124.999847 237.174362 -12.061646
v 126.667046 242.842484 -9.967499
v 124.999847 239.027145 -7.513167
v 183.314728 242.736847 -9.967499
v 185.597733 240.245941 -9.445211
v 182.810791 238.926559 -16.001740
v 185.361633 237.816879 -14.139656
v 128.187347 219.802399 -16.001740
v 127.841301 215.512604 -11.757663
v 183.840424 215.430984 -11.796688
v 181.993927 219.778030 -16.001740
v 124.999847 218.969009 -8.837821
v 124.999847 222.309937 -12.061646
v 185.833969 221.023224 -14.332157
v 186.226410 216.801880 -10.080060
v 127.529602 237.708710 16.001740
v 124.999847 237.174362 12.061646
v 126.667046 242.842484 9.967499
v 124.999847 239.027145 7.513167
v 183.314728 242.736847 9.967499
v 185.597733 240.245941 9.445211
v 182.810791 238.926559 16.001740
v 185.361633 237.816879 14.139656
v 128.187347 219.802399 16.001740
v 127.841301 215.512604 11.757663
v 183.840424 215.430984 11.796688
v 181.993927 219.778030 16.001740
v 124.999847 218.969009 8.837821
v 124.999847 222.309937 12.061646
v 185.833969 221.023224 14.332157
v 186.226410 216.801880 10.080060
v 144.995300 221.532654 -16.001740
v 144.917999 215.490891 -7.617367
v 170.162964 215.451477 7.636215
v 171.755508 219.782806 16.001740
v 249.388580 238.323761 -14.144099
v 245.475525 238.683594 -16.001740
v 187.631302 239.372833 -16.001740
v 246.786835 242.809296 -9.967499
v 249.388580 240.320709 -9.432333
v 187.276154 242.295990 -9.967499
v 248.381683 215.484406 -11.764400
v 246.143295 220.455597 -16.001740
v 188.301300 219.667770 -16.001740
v 189.001480 215.486725 -11.701398
v 249.388580 216.871338 -10.087131
v 249.388580 221.132401 -14.336422
v 249.388580 238.323761 14.144099
v 245.475525 238.683594 16.001740
v 187.631302 239.372833 16.001740
v 246.786835 242.809296 9.967499
v 249.388580 240.320709 9.432333
v 187.276154 242.295990 9.967499
v 248.381683 215.484406 11.764400
v 246.143295 220.455597 16.001740
v 188.301300 219.667770 16.001740
v 189.001480 215.486725 11.701398
v 249.388580 216.871338 10.087131
v 249.388580 221.132401 14.336422
v 206.097977 237.509674 -16.001740
v 204.978516 242.830811 -9.967499
v 221.626968 215.913147 -12.405907
v 219.254440 219.119965 -15.336277
v 206.733566 242.858002 9.967499
v 208.957809 237.489120 16.001740
v 224.269730 215.161530 11.743465
v 219.919189 222.696655 16.001740
v 124.999847 250.000000 -9.967499
v 124.999847 250.000000 9.967499
v 124.999847 240.150345 -9.967499
v 124.999847 240.150345 9.967499
v 249.358826 240.150345 9.967499
v 249.358826 240.150345 -9.967499
v 249.373322 250.000000 -9.967651
v 249.373322 250.000000 9.967346
vt 0.358402 0.841615
vt 0.358418 0.841595
vt 0.358528 0.841793
vt 0.358512 0.841811
vt 0.358398 0.841607
vt 0.358414 0.841588
vt 0.358533 0.841800
vt 0.358514 0.841814
vt 0.358340 0.841652
vt 0.358333 0.841653
vt 0.358329 0.841644
vt 0.358337 0.841643
vt 0.358369 0.841703
vt 0.358360 0.841702
vt 0.358437 0.841837
vt 0.358446 0.841839
vt 0.358452 0.841846
vt 0.358444 0.841848
vt 0.358402 0.841615
vt 0.358512 0.841811
vt 0.358528 0.841793
vt 0.358418 0.841595
vt 0.358414 0.841588
vt 0.358398 0.841607
vt 0.358514 0.841814
vt 0.358533 0.841800
vt 0.358340 0.841652
vt 0.358337 0.841643
vt 0.358329 0.841644
vt 0.358333 0.841653
vt 0.358411 0.841791
vt 0.358425 0.841802
vt 0.358437 0.841837
vt 0.358444 0.841848
vt 0.358452 0.841846
vt 0.358446 0.841839
vt 0.358513 0.841820
vt 0.358535 0.841810
vt 0.358552 0.841882
vt 0.358531 0.841898
vt 0.358567 0.842051
vt 0.358590 0.842042
vt 0.358564 0.842041
vt 0.358588 0.842033
vt 0.358488 0.842049
vt 0.358496 0.842052
vt 0.358485 0.842040
vt 0.358492 0.842043
vt 0.358471 0.841973
vt 0.358476 0.841968
vt 0.358452 0.841857
vt 0.358448 0.841863
vt 0.358513 0.841820
vt 0.358534 0.841910
vt 0.358554 0.841889
vt 0.358535 0.841810
vt 0.358590 0.842042
vt 0.358567 0.842051
vt 0.358588 0.842033
vt 0.358564 0.842041
vt 0.358496 0.842052
vt 0.358488 0.842049
vt 0.358485 0.842040
vt 0.358492 0.842043
vt 0.358479 0.841980
vt 0.358473 0.841981
vt 0.358452 0.841857
vt 0.358448 0.841863
vt 0.342448 0.911416
vt 0.342434 0.911397
vt 0.342386 0.911400
vt 0.342399 0.911419
vt 0.342475 0.909919
vt 0.342460 0.909950
vt 0.342500 0.909953
vt 0.342516 0.909923
vt 0.258546 0.850070
vt 0.258546 0.856040
vt 0.437107 0.856040
vt 0.437107 0.850070
vt 0.258449 0.852235
vt 0.258449 0.853351
vt 0.436558 0.853351
vt 0.436558 0.852235
vt 0.258546 0.856040
vt 0.258546 0.850070
vt 0.437107 0.850070
vt 0.437107 0.856040
vn -0.007982 0.803275 -0.595555
vn -0.007982 0.803275 -0.595555
vn -0.007982 0.803275 -0.595555
vn -0.007982 0.803275 -0.595555
vn -0.871422 0.373713 -0.317745
vn -0.871422 0.373713 -0.317745
vn -0.871422 0.373713 -0.317745
vn -0.871422 0.373713 -0.317745
vn 0.666235 0.623765 -0.408716
vn 0.666235 0.623765 -0.408716
vn 0.666235 0.623765 -0.408716
vn 0.666235 0.623765 -0.408716
vn -0.833348 -0.366850 -0.413465
vn -0.833348 -0.366850 -0.413465
vn -0.833348 -0.366850 -0.413465
vn -0.833348 -0.366850 -0.413465
vn 0.115430 -0.770700 -0.626656
vn 0.115430 -0.770700 -0.626656
vn 0.115430 -0.770700 -0.626656
vn 0.115430 -0.770700 -0.626656
vn 0.566398 -0.499211 -0.655729
vn 0.566398 -0.499211 -0.655729
vn 0.566398 -0.499212 -0.655729
vn 0.566398 -0.499211 -0.655729
vn 0.000000 0.000000 -1.000000
vn 0.000000 0.000000 -1.000000
vn 0.000000 0.000000 -1.000000
vn -0.811236 -0.016283 -0.584493
vn -0.811236 -0.016283 -0.584493
vn -0.811236 -0.016283 -0.584493
vn -0.811236 -0.016283 -0.584493
vn 0.483671 0.000052 -0.875250
vn 0.483671 0.000052 -0.875250
vn 0.483671 0.000052 -0.875250
vn 0.483671 0.000052 -0.875250
vn -0.007982 0.803275 0.595555
vn -0.007982 0.803275 0.595555
vn -0.007982 0.803275 0.595555
vn -0.007982 0.803275 0.595555
vn -0.871423 0.373711 0.317746
vn -0.871423 0.373711 0.317746
vn -0.871423 0.373711 0.317746
vn -0.871423 0.373711 0.317746
vn 0.666233 0.623767 0.408715
vn 0.666233 0.623767 0.408715
vn 0.666233 0.623767 0.408715
vn 0.666233 0.623767 0.408715
vn -0.833347 -0.366852 0.413464
vn -0.833347 -0.366851 0.413464
vn -0.833347 -0.366851 0.413464
vn -0.833347 -0.366851 0.413464
vn 0.026164 -0.827093 0.561456
vn 0.026164 -0.827093 0.561456
vn 0.026164 -0.827093 0.561456
vn 0.026164 -0.827093 0.561456
vn 0.566399 -0.499210 0.655730
vn 0.566399 -0.499210 0.655730
vn 0.566399 -0.499210 0.655730
vn 0.566399 -0.499210 0.655730
vn 0.000000 0.000000 1.000000
vn 0.000000 0.000000 1.000000
vn 0.000000 0.000000 1.000000
vn 0.000000 0.000000 1.000000
vn -0.811236 -0.016283 0.584493
vn -0.811236 -0.016283 0.584493
vn -0.811236 -0.016283 0.584493
vn -0.811236 -0.016283 0.584493
vn 0.483671 0.000052 0.875250
vn 0.483671 0.000052 0.875250
vn 0.483671 0.000052 0.875250
vn 0.483671 0.000052 0.875250
vn -0.772480 -0.635040 0.000000
vn -0.772480 -0.635040 0.000000
vn -0.772480 -0.635040 0.000000
vn -0.772480 -0.635040 0.000000
vn -0.001395 -0.999999 -0.000108
vn -0.001395 -0.999999 -0.000108
vn -0.001395 -0.999999 -0.000108
vn -0.001395 -0.999999 -0.000108
vn 0.498188 -0.867069 0.000000
vn 0.498188 -0.867069 0.000000
vn 0.498188 -0.867069 0.000000
vn 0.498188 -0.867069 0.000000
vn 0.737203 0.675671 0.000000
vn 0.737203 0.675671 0.000000
vn 0.737203 0.675671 0.000000
vn 0.737203 0.675671 0.000000
vn 0.001865 0.999998 0.000000
vn 0.001865 0.999998 0.000000
vn 0.001865 0.999998 0.000000
vn 0.001865 0.999998 0.000000
vn -0.916335 0.400412 0.000000
vn -0.916335 0.400412 0.000000
vn -0.916335 0.400413 0.000000
vn -0.916335 0.400413 0.000000
vn 0.000000 0.000000 -1.000000
vn 0.000000 0.000000 -1.000000
vn 0.000000 0.000000 -1.000000
vn 0.000000 0.000000 -1.000000
vn -0.053237 -0.773863 -0.631112
vn -0.053237 -0.773863 -0.631112
vn -0.053237 -0.773863 -0.631112
vn -0.053237 -0.773863 -0.631112
vn -0.001528 -0.999999 -0.000021
vn -0.001528 -0.999999 -0.000021
vn -0.001528 -0.999999 -0.000021
vn -0.001528 -0.999999 -0.000021
vn -0.098979 -0.819830 0.563988
vn -0.098979 -0.819830 0.563988
vn -0.098979 -0.819830 0.563988
vn -0.098979 -0.819830 0.563988
vn 0.000000 0.000000 1.000000
vn 0.000000 0.000000 1.000000
vn 0.000000 0.000000 1.000000
vn 0.030375 0.827067 -0.561282
vn 0.030375 0.827067 -0.561282
vn 0.030375 0.827067 -0.561282
vn 0.030375 0.827067 -0.561282
vn -0.736335 0.602160 -0.308567
vn -0.736335 0.602160 -0.308567
vn -0.736335 0.602160 -0.308567
vn -0.736335 0.602160 -0.308567
vn 0.493147 0.728617 -0.475314
vn 0.493147 0.728617 -0.475314
vn 0.493147 0.728617 -0.475314
vn 0.493147 0.728617 -0.475314
vn 0.678472 -0.401198 -0.615399
vn 0.678472 -0.401198 -0.615399
vn 0.678472 -0.401198 -0.615399
vn 0.678472 -0.401198 -0.615399
vn 0.010747 -0.655655 -0.754984
vn 0.010747 -0.655655 -0.754984
vn 0.010747 -0.655655 -0.754984
vn 0.010747 -0.655655 -0.754984
vn -0.622136 -0.596748 -0.506792
vn -0.622137 -0.596748 -0.506792
vn -0.622137 -0.596748 -0.506792
vn -0.622137 -0.596748 -0.506792
vn 0.012839 -0.012806 -0.999836
vn 0.012839 -0.012806 -0.999836
vn 0.012839 -0.012806 -0.999836
vn 0.012839 -0.012806 -0.999836
vn 0.441059 0.013188 -0.897381
vn 0.441059 0.013188 -0.897381
vn 0.441059 0.013188 -0.897381
vn 0.441059 0.013188 -0.897381
vn -0.597257 -0.014463 -0.801920
vn -0.597257 -0.014463 -0.801920
vn -0.597257 -0.014463 -0.801920
vn -0.597257 -0.014463 -0.801920
vn 0.026787 0.826568 0.562199
vn 0.026787 0.826568 0.562199
vn 0.026787 0.826568 0.562199
vn 0.026787 0.826568 0.562199
vn -0.736334 0.602162 0.308567
vn -0.736334 0.602162 0.308567
vn -0.736334 0.602162 0.308567
vn -0.736334 0.602162 0.308567
vn 0.493148 0.728616 0.475315
vn 0.493148 0.728616 0.475315
vn 0.493148 0.728616 0.475315
vn 0.493148 0.728616 0.475315
vn 0.678470 -0.401202 0.615398
vn 0.678470 -0.401202 0.615398
vn 0.678470 -0.401202 0.615398
vn 0.678470 -0.401202 0.615398
vn -0.022052 -0.569705 0.821554
vn -0.022052 -0.569705 0.821554
vn -0.022052 -0.569705 0.821554
vn -0.022052 -0.569705 0.821554
vn -0.622137 -0.596747 0.506792
vn -0.622137 -0.596747 0.506792
vn -0.622137 -0.596747 0.506792
vn -0.622137 -0.596747 0.506792
vn 0.000000 0.000000 1.000000
vn 0.000000 0.000000 1.000000
vn 0.000000 0.000000 1.000000
vn 0.000000 0.000000 1.000000
vn 0.441059 0.013188 0.897381
vn 0.441059 0.013188 0.897381
vn 0.441059 0.013188 0.897381
vn 0.441059 0.013188 0.897381
vn -0.597257 -0.014463 0.801920
vn -0.597257 -0.014463 0.801920
vn -0.597257 -0.014463 0.801920
vn -0.597257 -0.014463 0.801920
vn -0.428258 -0.903657 0.000000
vn -0.428258 -0.903657 0.000000
vn -0.428258 -0.903657 0.000000
vn -0.428258 -0.903657 0.000000
vn -0.001877 -0.999876 -0.015659
vn -0.001877 -0.999876 -0.015659
vn -0.001877 -0.999876 -0.015659
vn -0.001877 -0.999876 -0.015659
vn 0.809224 -0.587500 0.000000
vn 0.809224 -0.587500 0.000000
vn 0.809224 -0.587500 0.000000
vn 0.809224 -0.587500 0.000000
vn 0.691216 0.722649 0.000000
vn 0.691216 0.722649 0.000000
vn 0.691216 0.722649 0.000000
vn 0.691216 0.722649 0.000000
vn -0.029504 0.999565 0.000617
vn -0.029504 0.999565 0.000617
vn -0.029504 0.999565 0.000617
vn -0.029504 0.999565 0.000617
vn -0.773753 0.633488 0.000000
vn -0.773753 0.633488 0.000000
vn -0.773753 0.633488 0.000000
vn -0.773753 0.633488 0.000000
vn -0.011178 0.787482 -0.616237
vn -0.011178 0.787482 -0.616237
vn -0.011178 0.787482 -0.616237
vn -0.011178 0.787482 -0.616237
vn -0.001775 -0.699843 -0.714294
vn -0.001775 -0.699843 -0.714294
vn -0.001775 -0.699843 -0.714294
vn -0.001775 -0.699843 -0.714294
vn -0.009220 -0.021649 -0.999723
vn -0.009220 -0.021649 -0.999723
vn -0.009220 -0.021649 -0.999723
vn -0.009220 -0.021649 -0.999723
vn -0.011753 0.785446 0.618819
vn -0.011753 0.785446 0.618819
vn -0.011753 0.785446 0.618819
vn -0.011753 0.785446 0.618819
vn 0.023064 -0.583213 0.811992
vn 0.023064 -0.583213 0.811992
vn 0.023064 -0.583213 0.811992
vn 0.023064 -0.583213 0.811992
vn 0.000000 0.000000 1.000000
vn 0.000000 0.000000 1.000000
vn 0.000000 0.000000 1.000000
vn 0.000000 0.000000 1.000000
vn 0.001336 -0.999873 -0.015879
vn 0.001336 -0.999873 -0.015879
vn 0.001336 -0.999873 -0.015879
vn 0.001336 -0.999873 -0.015879
vn 0.000858 0.999999 -0.000719
vn 0.000858 0.999999 -0.000719
vn 0.000858 0.999999 -0.000719
vn 0.000858 0.999999 -0.000719
vn -1.000000 0.000000 0.000000
vn -1.000000 0.000000 0.000000
vn -1.000000 0.000000 0.000000
vn -1.000000 0.000000 0.000000
vn -1.000000 0.000000 0.000000
vn -1.000000 0.000000 0.000000
vn -1.000000 0.000000 0.000000
vn -1.000000 0.000000 0.000000
vn -1.000000 0.000000 0.000000
vn -1.000000 0.000000 0.000000
vn -1.000000 0.000000 0.000000
vn -1.000000 0.000000 0.000000
vn 1.000000 -0.000000 0.000000
vn 1.000000 -0.000000 0.000000
vn 1.000000 -0.000000 0.000000
vn 1.000000 -0.000000 0.000000
vn 1.000000 0.000001 0.000000
vn 1.000000 0.000001 0.000000
vn 1.000000 0.000001 0.000000
vn 1.000000 0.000001 0.000000
vn 1.000000 -0.000001 0.000000
vn 1.000000 -0.000001 0.000000
vn 1.000000 -0.000001 0.000000
vn 1.000000 -0.000001 0.000000
vn 1.000000 0.000000 0.000000
vn 1.000000 0.000000 0.000000
vn 1.000000 0.000000 0.000000
vn 1.000000 0.000000 0.000000
vn -1.000000 0.000000 0.000000
vn -1.000000 0.000000 0.000000
vn -1.000000 0.000000 0.000000
vn -1.000000 0.000000 0.000000
vn -0.000001 -0.000010 -1.000000
vn -0.000001 -0.000010 -1.000000
vn -0.000001 -0.000010 -1.000000
vn -0.000001 -0.000010 -1.000000
vn 0.000000 1.000000 0.000000
vn 0.000000 1.000000 0.000000
vn 0.000000 1.000000 0.000000
vn 0.000000 1.000000 0.000000
vn 0.000001 0.000010 1.000000
vn 0.000001 0.000010 1.000000
vn 0.000001 0.000010 1.000000
vn 0.000001 0.000010 1.000000
s off
f 1/1/1 3/2/2 5/3/3 7/4/4
f 1/1/5 2/5/6 4/6/7 3/2/8
f 5/3/9 6/7/10 8/8/11 7/4/12
f 9/9/13 10/10/14 13/11/15 14/12/16
f 10/10/17 9/9/18 33/13/19 34/14/20
f 11/15/21 12/16/22 15/17/23 16/18/24
f 9/9/25 1/1/26 33/13/27
f 9/9/28 14/12/29 2/5/30 1/1/31
f 7/4/32 8/8/33 15/17/34 12/16/35
f 17/19/36 23/20/37 21/21/38 19/22/39
f 17/19/40 19/22/41 20/23/42 18/24/43
f 21/21/44 23/20/45 24/25/46 22/26/47
f 25/27/48 30/28/49 29/29/50 26/30/51
f 26/30/52 35/31/53 36/32/54 25/27/55
f 27/33/56 32/34/57 31/35/58 28/36/59
f 25/27/60 36/32/61 23/20/62 17/19/63
f 25/27/64 17/19/65 18/24/66 30/28/67
f 23/20/68 28/36/69 31/35/70 24/25/71
f 10/10/72 26/30/73 29/29/74 13/11/75
f 34/14/76 35/31/77 26/30/78 10/10/79
f 16/18/80 32/34/81 27/33/82 11/15/83
f 5/3/84 21/21/85 22/26/86 6/7/87
f 3/2/88 19/22/89 21/21/90 5/3/91
f 4/6/92 20/23/93 19/22/94 3/2/95
f 33/13/96 1/1/97 7/4/98 12/16/99
f 34/14/100 33/13/101 12/16/102 11/15/103
f 11/15/104 27/33/105 35/31/106 34/14/107
f 36/32/108 35/31/109 27/33/110 28/36/111
f 23/20/112 36/32/113 28/36/114
f 39/37/115 42/38/116 62/39/117 61/40/118
f 39/37/119 8/8/120 6/7/121 42/38/122
f 37/41/123 38/43/124 40/44/125 41/42/126
f 43/47/127 44/48/128 48/46/129 47/45/130
f 44/48/131 43/47/132 63/49/133 64/50/134
f 45/51/135 46/52/136 16/18/137 15/17/138
f 45/51/139 39/37/140 61/40/141 64/50/142
f 48/46/143 44/48/144 38/43/145 37/41/146
f 45/51/147 15/17/148 8/8/149 39/37/150
f 51/53/151 66/54/152 65/55/153 54/56/154
f 51/53/155 54/56/156 22/26/157 24/25/158
f 49/58/159 53/57/160 52/59/161 50/60/162
f 55/63/163 59/62/164 60/61/165 56/64/166
f 56/64/167 68/65/168 67/66/169 55/63/170
f 57/67/171 31/35/172 32/34/173 58/68/174
f 57/67/175 68/65/176 66/54/177 51/53/178
f 60/61/179 49/58/180 50/60/181 56/64/182
f 57/67/183 51/53/184 24/25/185 31/35/186
f 46/52/187 58/68/188 32/34/189 16/18/190
f 43/47/191 55/63/192 67/66/193 63/49/194
f 47/45/195 59/62/196 55/63/197 43/47/198
f 40/44/199 52/59/200 53/57/201 41/42/202
f 42/38/203 54/56/204 65/55/205 62/39/206
f 6/7/207 22/26/208 54/56/209 42/38/210
f 61/40/211 62/39/212 40/44/213 38/43/214
f 64/50/215 63/49/216 46/52/217 45/51/218
f 64/50/219 61/40/220 38/43/221 44/48/222
f 65/55/223 66/54/224 50/60/225 52/59/226
f 67/66/227 68/65/228 57/67/229 58/68/230
f 66/54/231 68/65/232 56/64/233 50/60/234
f 63/49/235 67/66/236 58/68/237 46/52/238
f 62/39/239 65/55/240 52/59/241 40/44/242
f 29/29/243 30/28/244 18/24/245 20/23/246
f 13/11/247 4/6/248 2/5/249 14/12/250
f 29/29/251 20/23/252 4/6/253 13/11/254
f 37/41/255 41/42/256 47/45/257 48/46/258
f 41/42/259 53/57/260 59/62/261 47/45/262
f 53/57/263 49/58/264 60/61/265 59/62/266
f 73/69/267 74/70/268 75/71/269 76/72/270
f 70/73/271 69/74/272 71/75/273 72/76/274
f 71/77/275 69/78/276 75/79/277 74/80/278
f 69/81/279 70/82/280 76/83/281 75/84/282
f 70/85/283 72/86/284 73/87/285 76/88/286
