# This file uses centimeters as units for non-parametric coordinates.

v -37.566406 101.918091 12.373047
v -37.566406 199.918823 -17.355469
v -37.566406 290.237305 -65.628906
v -37.566406 369.402161 -130.599609
v -37.566406 434.370850 -209.761719
v -37.566406 482.647095 -300.082031
v -37.566406 512.375366 -398.083984
v -37.566406 522.413452 -500.000000
v -37.566406 92.905640 -32.925781
v -37.566406 182.222656 -60.066406
v -37.566406 264.506592 -104.132813
v -37.566406 336.592957 -163.402344
v -37.566406 395.719666 -235.585938
v -37.566406 439.632080 -317.894531
v -37.566406 466.662354 -407.175781
v -37.566406 475.787354 -500.000000
v -37.566406 41.226074 18.570313
v -37.566406 37.162231 -27.425781
v 37.593994 37.162231 -27.425781
v 37.593994 92.905640 -32.925781
v 37.593994 182.222656 -60.066406
v 37.593994 264.506592 -104.132813
v 37.593994 336.592957 -163.402344
v 37.593994 395.719666 -235.585938
v 37.593994 439.632080 -317.894531
v 37.593994 466.662354 -407.175781
v 37.593994 475.787354 -500.000000
v 37.593994 41.226074 18.570313
v 37.593994 101.918091 12.373047
v 37.593994 199.918823 -17.355469
v 37.593994 290.237305 -65.628906
v 37.593994 369.402161 -130.599609
v 37.593994 434.370850 -209.761719
v 37.593994 482.647095 -300.082031
v 37.593994 512.375366 -398.083984
v 37.593994 522.413452 -500.000000
v -18.021240 47.212524 -43.021484
v 18.037598 47.212524 -43.021484
v -18.021240 89.862061 -48.201172
v 18.037598 89.862061 -48.201172
v -18.021240 176.252930 -74.453125
v 18.037598 176.252930 -74.453125
v -18.021240 255.842102 -117.076172
v 18.037598 255.842102 -117.076172
v -18.021240 325.569092 -174.406250
v 18.037598 325.569092 -174.406250
v -18.021240 382.761353 -244.228516
v 18.037598 382.761353 -244.228516
v -18.021240 425.237793 -323.845703
v 18.037598 425.237793 -323.845703
v -18.021240 451.384399 -410.208984
v 18.037598 451.384399 -410.208984
v -18.021240 460.211182 -500.000000
v 18.037598 460.211182 -500.000000
v -18.021240 47.212524 -500.000000
v 18.037598 47.212524 -500.000000
v -37.566406 0.000000 -25.000000
v -37.566406 0.000000 22.414063
v 37.593994 0.000000 -25.000000
v 37.593994 0.000000 22.414063
v 37.593994 35.884155 -500.000000
v 37.593994 0.000000 -500.000000
v -37.566406 0.000000 -500.000000
v -37.566406 35.884155 -500.000000
vt 0.197029 0.303522
vt 0.198015 0.303484
vt 0.010825 1.011358
vt 0.021852 1.112145
vt 0.198019 0.303560
vt 0.197029 0.303599
vt 0.197024 0.302607
vt 0.197022 0.302599
vt 0.197029 0.303489
vt 0.197031 0.303474
vt 0.197973 0.303527
vt 0.197033 0.303562
vt 0.197032 0.303489
vt 0.197968 0.303455
vt 0.986798 1.011358
vt 0.021852 1.112145
vt 0.010825 1.011358
vt 0.986798 1.011358
vt 0.077732 1.316299
vt 0.077732 1.316299
vt 0.168458 1.504380
vt 0.168458 1.504380
vt 0.290489 1.669155
vt 0.290489 1.669155
vt 0.439109 1.804308
vt 0.439109 1.804308
vt 0.608582 1.904686
vt 0.608582 1.904686
vt 0.792415 1.966474
vt 0.792415 1.966474
vt 0.986798 1.987333
vt 0.986798 1.987333
vt 0.197972 0.303457
vt 0.197951 0.303444
vt 0.017658 0.042713
vt 0.017604 0.042988
vt 0.017266 0.042954
vt 0.017291 0.042676
vt 0.018251 0.042893
vt 0.018144 0.043152
vt 0.017041 0.042940
vt 0.017041 0.042653
vt 0.018798 0.043186
vt 0.018642 0.043419
vt 0.019277 0.043579
vt 0.019079 0.043777
vt 0.019671 0.044058
vt 0.019437 0.044214
vt 0.019963 0.044605
vt 0.019702 0.044713
vt 0.020143 0.045198
vt 0.019866 0.045253
vt 0.020204 0.045815
vt 0.019921 0.045815
vt 0.020482 0.045513
vt 0.020507 0.045792
vt 0.020257 0.045815
vt 0.020257 0.045528
vt 0.020820 0.045480
vt 0.020874 0.045754
vt 0.021360 0.045316
vt 0.021467 0.045574
vt 0.021858 0.045049
vt 0.022014 0.045282
vt 0.022295 0.044690
vt 0.022493 0.044889
vt 0.022653 0.044253
vt 0.022887 0.044410
vt 0.022919 0.043755
vt 0.023179 0.043863
vt 0.023082 0.043215
vt 0.023359 0.043270
vt 0.023137 0.042653
vt 0.023420 0.042653
vt 0.020209 0.048870
vt 0.019730 0.048870
vt 0.019730 0.045844
vt 0.020209 0.045844
vt 0.020756 0.048870
vt 0.020756 0.045844
vt 0.021349 0.048870
vt 0.021349 0.045844
vt 0.021966 0.048870
vt 0.021966 0.045844
vt 0.019686 0.048870
vt 0.019399 0.048870
vt 0.019399 0.045844
vt 0.019686 0.045844
vt 0.018146 0.047881
vt 0.018146 0.047444
vt 0.018934 0.047392
vt 0.018934 0.047815
vt 0.018146 0.046946
vt 0.018934 0.046910
vt 0.018146 0.046406
vt 0.018934 0.046387
vt 0.018146 0.045844
vt 0.018934 0.045844
vt 0.018102 0.047444
vt 0.018102 0.047881
vt 0.017315 0.047815
vt 0.017315 0.047392
vt 0.018102 0.046946
vt 0.017315 0.046910
vt 0.018102 0.046406
vt 0.017315 0.046387
vt 0.018102 0.045844
vt 0.017315 0.045844
vt 0.022628 0.048870
vt 0.022260 0.048870
vt 0.022260 0.045844
vt 0.022628 0.045844
vt 0.022011 0.048870
vt 0.022011 0.045844
vt 0.023221 0.048870
vt 0.023221 0.045844
vt 0.023767 0.048870
vt 0.023767 0.045844
vt 0.024247 0.048870
vt 0.024247 0.045844
vt 0.019260 0.048870
vt 0.018978 0.048870
vt 0.018978 0.045844
vt 0.019260 0.045844
vt 0.019354 0.046631
vt 0.019354 0.048083
vt 0.017041 0.049723
vt 0.017041 0.049385
vt 0.017828 0.049404
vt 0.017828 0.049662
vt 0.017041 0.048845
vt 0.017828 0.048881
vt 0.017041 0.048347
vt 0.017828 0.048399
vt 0.017041 0.047910
vt 0.017828 0.047977
vt 0.018662 0.049385
vt 0.018662 0.049723
vt 0.017875 0.049662
vt 0.017875 0.049404
vt 0.018662 0.048845
vt 0.017875 0.048881
vt 0.018662 0.048347
vt 0.017875 0.048399
vt 0.018662 0.047910
vt 0.017875 0.047977
vn -1.000000 -0.000000 0.000000
vn -1.000000 -0.000000 0.000000
vn -1.000000 -0.000000 0.000000
vn -1.000000 -0.000000 0.000000
vn -1.000000 0.000000 0.000000
vn -1.000000 0.000000 0.000000
vn -1.000000 0.000000 0.000000
vn -1.000000 0.000000 0.000000
vn -1.000000 0.000000 0.000000
vn -1.000000 0.000000 0.000000
vn -1.000000 0.000000 0.000000
vn -1.000000 0.000000 0.000000
vn -1.000000 0.000000 0.000000
vn -1.000000 0.000000 0.000000
vn -1.000000 0.000000 0.000000
vn -1.000000 0.000000 0.000000
vn -1.000000 0.000000 0.000000
vn -1.000000 0.000000 0.000000
vn -1.000000 0.000000 0.000000
vn -1.000000 0.000000 0.000000
vn -1.000000 0.000000 0.000000
vn -1.000000 0.000000 0.000000
vn -1.000000 0.000000 0.000000
vn -1.000000 0.000000 0.000000
vn -1.000000 -0.000000 0.000000
vn -1.000000 -0.000000 0.000000
vn -1.000000 -0.000000 0.000000
vn -1.000000 -0.000000 0.000000
vn -1.000000 0.000000 0.000000
vn -1.000000 0.000000 0.000000
vn -1.000000 0.000000 0.000000
vn -1.000000 0.000000 0.000000
vn -1.000000 0.000000 0.000000
vn -1.000000 0.000000 0.000000
vn -1.000000 0.000000 0.000000
vn -1.000000 0.000000 0.000000
vn 0.000000 0.101582 0.994827
vn 0.000000 0.101582 0.994827
vn 0.000000 0.101582 0.994827
vn 0.000000 0.101582 0.994827
vn 0.000000 0.290288 0.956940
vn 0.000000 0.290288 0.956940
vn 0.000000 0.290288 0.956940
vn 0.000000 0.290288 0.956940
vn 0.000000 0.471376 0.881933
vn 0.000000 0.471376 0.881933
vn 0.000000 0.471376 0.881933
vn 0.000000 0.471376 0.881933
vn 0.000000 0.634404 0.773002
vn 0.000000 0.634404 0.773002
vn 0.000000 0.634404 0.773002
vn 0.000000 0.634404 0.773002
vn 0.000000 0.773001 0.634405
vn 0.000000 0.773001 0.634405
vn 0.000000 0.773001 0.634405
vn 0.000000 0.773001 0.634405
vn 0.000000 0.881925 0.471389
vn 0.000000 0.881925 0.471389
vn 0.000000 0.881925 0.471389
vn 0.000000 0.881925 0.471389
vn 0.000000 0.956941 0.290282
vn 0.000000 0.956941 0.290282
vn 0.000000 0.956941 0.290282
vn 0.000000 0.956941 0.290282
vn 0.000000 0.995184 0.098020
vn 0.000000 0.995184 0.098020
vn 0.000000 0.995184 0.098020
vn 0.000000 0.995184 0.098020
vn 0.000000 -1.000000 0.000000
vn 0.000000 -1.000000 0.000000
vn 0.000000 -1.000000 0.000000
vn 0.000000 -1.000000 0.000000
vn 0.000000 0.000000 -1.000000
vn 0.000000 0.000000 -1.000000
vn 0.000000 0.000000 -1.000000
vn 0.000000 0.000000 -1.000000
vn 0.000000 0.092833 0.995682
vn 0.000000 0.092833 0.995682
vn 0.000000 0.092833 0.995682
vn 0.000000 0.092833 0.995682
vn 1.000000 -0.000000 0.000000
vn 1.000000 -0.000000 0.000000
vn 1.000000 -0.000000 0.000000
vn 1.000000 -0.000000 0.000000
vn 1.000000 0.000000 0.000000
vn 1.000000 0.000000 0.000000
vn 1.000000 0.000000 0.000000
vn 1.000000 0.000000 0.000000
vn 1.000000 0.000000 0.000000
vn 1.000000 0.000000 0.000000
vn 1.000000 0.000000 0.000000
vn 1.000000 0.000000 0.000000
vn 1.000000 -0.000000 0.000000
vn 1.000000 -0.000000 0.000000
vn 1.000000 -0.000000 0.000000
vn 1.000000 -0.000000 0.000000
vn 1.000000 0.000000 0.000000
vn 1.000000 0.000000 0.000000
vn 1.000000 0.000000 0.000000
vn 1.000000 0.000000 0.000000
vn 1.000000 0.000000 0.000000
vn 1.000000 0.000000 0.000000
vn 1.000000 0.000000 0.000000
vn 1.000000 0.000000 0.000000
vn 1.000000 0.000000 0.000000
vn 1.000000 0.000000 0.000000
vn 1.000000 0.000000 0.000000
vn 1.000000 0.000000 0.000000
vn 1.000000 0.000000 0.000000
vn 1.000000 0.000000 0.000000
vn 1.000000 0.000000 0.000000
vn 1.000000 0.000000 0.000000
vn 1.000000 -0.000000 0.000000
vn 1.000000 -0.000000 0.000000
vn 1.000000 -0.000000 0.000000
vn 1.000000 -0.000000 0.000000
vn -0.607990 -0.085673 -0.789309
vn -0.607990 -0.085673 -0.789309
vn -0.607990 -0.085673 -0.789309
vn -0.607990 -0.085673 -0.789309
vn 0.607770 -0.085691 -0.789476
vn 0.607770 -0.085691 -0.789476
vn 0.607770 -0.085691 -0.789476
vn 0.607770 -0.085691 -0.789476
vn -0.621378 -0.227801 -0.749664
vn -0.621378 -0.227801 -0.749664
vn -0.621378 -0.227801 -0.749664
vn -0.621378 -0.227801 -0.749664
vn 0.621159 -0.227852 -0.749830
vn 0.621159 -0.227852 -0.749830
vn 0.621159 -0.227852 -0.749830
vn 0.621159 -0.227852 -0.749830
vn -0.621380 -0.369896 -0.690698
vn -0.621380 -0.369896 -0.690698
vn -0.621380 -0.369896 -0.690698
vn -0.621380 -0.369896 -0.690698
vn 0.621161 -0.369978 -0.690851
vn 0.621161 -0.369978 -0.690851
vn 0.621161 -0.369978 -0.690851
vn 0.621161 -0.369978 -0.690851
vn -0.621382 -0.497604 -0.605207
vn -0.621382 -0.497604 -0.605206
vn -0.621382 -0.497604 -0.605207
vn -0.621382 -0.497604 -0.605207
vn 0.621163 -0.497714 -0.605341
vn 0.621163 -0.497714 -0.605341
vn 0.621163 -0.497714 -0.605341
vn 0.621163 -0.497714 -0.605341
vn -0.621387 -0.606121 -0.496482
vn -0.621387 -0.606121 -0.496482
vn -0.621387 -0.606121 -0.496482
vn -0.621387 -0.606121 -0.496482
vn 0.621168 -0.606256 -0.496592
vn 0.621168 -0.606256 -0.496592
vn 0.621168 -0.606256 -0.496592
vn 0.621168 -0.606256 -0.496592
vn -0.621390 -0.691274 -0.368801
vn -0.621390 -0.691274 -0.368801
vn -0.621390 -0.691274 -0.368801
vn -0.621390 -0.691274 -0.368801
vn 0.621171 -0.691428 -0.368883
vn 0.621171 -0.691428 -0.368883
vn 0.621171 -0.691428 -0.368883
vn 0.621171 -0.691428 -0.368883
vn -0.621394 -0.749885 -0.227030
vn -0.621394 -0.749885 -0.227030
vn -0.621394 -0.749885 -0.227030
vn -0.621394 -0.749885 -0.227030
vn 0.621175 -0.750051 -0.227080
vn 0.621175 -0.750051 -0.227080
vn 0.621175 -0.750051 -0.227080
vn 0.621175 -0.750051 -0.227080
vn -0.621397 -0.779737 -0.076651
vn -0.621397 -0.779737 -0.076651
vn -0.621397 -0.779737 -0.076651
vn -0.621397 -0.779737 -0.076651
vn 0.000000 0.000000 -1.000000
vn 0.000000 0.000000 -1.000000
vn 0.000000 0.000000 -1.000000
vn 0.000000 0.000000 -1.000000
vn 0.621178 -0.779910 -0.076668
vn 0.621178 -0.779910 -0.076668
vn 0.621178 -0.779910 -0.076668
vn 0.621178 -0.779910 -0.076668
vn 1.000000 -0.000000 0.000000
vn 1.000000 -0.000000 0.000000
vn 1.000000 -0.000000 0.000000
vn 1.000000 -0.000000 0.000000
vn -1.000000 0.000000 0.000000
vn -1.000000 0.000000 0.000000
vn -1.000000 0.000000 0.000000
vn 1.000000 0.000000 0.000000
vn 1.000000 0.000000 0.000000
vn 1.000000 0.000000 0.000000
vn -1.000000 0.000000 0.000000
vn -1.000000 0.000000 0.000000
vn -1.000000 0.000000 0.000000
vn 1.000000 0.000000 0.000000
vn 1.000000 0.000000 0.000000
vn 1.000000 0.000000 0.000000
vn -1.000000 0.000000 0.000000
vn -1.000000 0.000000 0.000000
vn -1.000000 0.000000 0.000000
vn 1.000000 0.000000 0.000000
vn 1.000000 0.000000 0.000000
vn 1.000000 0.000000 0.000000
vn -1.000000 0.000000 0.000000
vn -1.000000 0.000000 0.000000
vn -1.000000 0.000000 0.000000
vn 1.000000 -0.000000 0.000000
vn 1.000000 -0.000000 0.000000
vn 1.000000 -0.000000 0.000000
vn -1.000000 0.000000 0.000000
vn -1.000000 0.000000 0.000000
vn -1.000000 0.000000 0.000000
vn 1.000000 0.000000 0.000000
vn 1.000000 0.000000 0.000000
vn 1.000000 0.000000 0.000000
vn -1.000000 0.000000 0.000000
vn -1.000000 0.000000 0.000000
vn -1.000000 0.000000 0.000000
vn 1.000000 -0.000000 0.000000
vn 1.000000 -0.000000 0.000000
vn 1.000000 -0.000000 0.000000
vn -1.000000 -0.000000 0.000000
vn -1.000000 -0.000000 0.000000
vn -1.000000 -0.000000 0.000000
vn 1.000000 0.000000 0.000000
vn 1.000000 0.000000 0.000000
vn 1.000000 0.000000 0.000000
vn -1.000000 0.000000 0.000000
vn -1.000000 0.000000 0.000000
vn -1.000000 0.000000 0.000000
vn 0.000000 0.000000 -1.000000
vn 0.000000 0.000000 -1.000000
vn 0.000000 0.000000 -1.000000
vn 0.000000 0.000000 -1.000000
vn 1.000000 0.000000 0.000000
vn 1.000000 0.000000 0.000000
vn 1.000000 0.000000 0.000000
vn 0.000000 -1.000000 0.000000
vn 0.000000 -1.000000 0.000000
vn 0.000000 -1.000000 0.000000
vn 0.000000 -1.000000 0.000000
vn -1.000000 0.000000 0.000000
vn -1.000000 0.000000 0.000000
vn -1.000000 0.000000 0.000000
vn -1.000000 0.000000 0.000000
vn 0.000000 0.000000 -1.000000
vn 0.000000 0.000000 -1.000000
vn 0.000000 0.000000 -1.000000
vn 0.000000 0.000000 -1.000000
vn 0.479990 0.877273 -0.001206
vn 0.479990 0.877273 -0.001206
vn 0.479990 0.877273 -0.001206
vn 0.479990 0.877273 -0.001206
vn -0.480202 0.877157 -0.001206
vn -0.480202 0.877157 -0.001206
vn -0.480202 0.877157 -0.001206
vn -0.480202 0.877157 -0.001206
vn 0.000000 0.000000 -1.000000
vn 0.000000 0.000000 -1.000000
vn 0.000000 0.000000 -1.000000
vn 0.000000 0.000000 -1.000000
s off
f 1/35/1 9/36/2 18/37/3 17/38/4
f 2/39/5 10/40/6 9/36/7 1/35/8
f 3/43/9 11/44/10 10/40/11 2/39/12
f 4/45/13 12/46/14 11/44/15 3/43/16
f 5/47/17 13/48/18 12/46/19 4/45/20
f 6/49/21 14/50/22 13/48/23 5/47/24
f 7/51/25 15/52/26 14/50/27 6/49/28
f 8/53/29 16/54/30 15/52/31 7/51/32
f 17/38/33 18/37/34 57/41/35 58/42/36
f 1/109/37 17/110/38 28/111/39 29/112/40
f 2/115/41 1/109/42 29/112/43 30/116/44
f 3/117/45 2/115/46 30/116/47 31/118/48
f 4/119/49 3/117/50 31/118/51 32/120/52
f 5/75/53 4/76/54 32/77/55 33/78/56
f 6/79/57 5/75/58 33/78/59 34/80/60
f 7/81/61 6/79/62 34/80/63 35/82/64
f 8/83/65 7/81/66 35/82/67 36/84/68
f 58/85/69 57/86/70 59/87/71 60/88/72
f 16/121/73 8/122/74 36/123/75 27/124/76
f 58/113/77 60/114/78 28/111/79 17/110/80
f 19/55/81 28/56/82 60/57/83 59/58/84
f 20/59/85 29/60/86 28/56/87 19/55/88
f 20/59/89 21/61/90 30/62/91 29/60/92
f 30/62/93 21/61/94 22/63/95 31/64/96
f 31/64/97 22/63/98 23/65/99 32/66/100
f 32/66/101 23/65/102 24/67/103 33/68/104
f 33/68/105 24/67/106 25/69/107 34/70/108
f 34/70/109 25/69/110 26/71/111 35/72/112
f 35/72/113 26/71/114 27/73/115 36/74/116
f 18/127/117 9/128/118 39/129/119 37/130/120
f 20/137/121 19/138/122 38/139/123 40/140/124
f 9/128/125 10/131/126 41/132/127 39/129/128
f 21/141/129 20/137/130 40/140/131 42/142/132
f 10/131/133 11/133/134 43/134/135 41/132/136
f 22/143/137 21/141/138 42/142/139 44/144/140
f 11/133/141 12/135/142 45/136/143 43/134/144
f 23/145/145 22/143/146 44/144/147 46/146/148
f 12/89/149 13/90/150 47/91/151 45/92/152
f 24/99/153 23/100/154 46/101/155 48/102/156
f 13/90/157 14/93/158 49/94/159 47/91/160
f 25/103/161 24/99/162 48/102/163 50/104/164
f 14/93/165 15/95/166 51/96/167 49/94/168
f 26/105/169 25/103/170 50/104/171 52/106/172
f 15/95/173 16/97/174 53/98/175 51/96/176
f 16/121/177 27/124/178 54/125/179 53/126/180
f 27/107/181 26/105/182 52/106/183 54/108/184
f 61/1/185 19/2/186 59/5/187 62/6/188
f 37/3/189 39/4/190 55/15/191
f 40/16/192 38/17/193 56/18/194
f 39/4/195 41/19/196 55/15/197
f 42/20/198 40/16/199 56/18/200
f 41/19/201 43/21/202 55/15/203
f 44/22/204 42/20/205 56/18/206
f 43/21/207 45/23/208 55/15/209
f 46/24/210 44/22/211 56/18/212
f 45/23/213 47/25/214 55/15/215
f 48/26/216 46/24/217 56/18/218
f 47/25/219 49/27/220 55/15/221
f 50/28/222 48/26/223 56/18/224
f 49/27/225 51/29/226 55/15/227
f 52/30/228 50/28/229 56/18/230
f 51/29/231 53/31/232 55/15/233
f 53/7/234 54/8/235 56/9/236 55/10/237
f 54/32/238 52/30/239 56/18/240
f 59/5/241 57/11/242 63/12/243 62/6/244
f 64/13/245 63/12/246 57/11/247 18/14/248
f 64/13/249 61/1/250 62/6/251 63/12/252
f 56/9/253 38/33/254 19/2/255 61/1/256
f 37/34/257 55/10/258 64/13/259 18/14/260
f 55/10/261 56/9/262 61/1/263 64/13/264
