# This file uses centimeters as units for non-parametric coordinates.

v 22.013773 163.118408 30.555645
v -22.016680 163.118378 30.555645
v -44.031914 201.249847 30.555645
v -22.016689 239.381378 30.555645
v 22.013752 239.381378 30.555645
v 44.028984 201.249863 30.555645
v 22.013773 163.118408 -30.540998
v -22.016680 163.118378 -30.540998
v -44.031914 201.249847 -30.540998
v -22.016689 239.381378 -30.540998
v 22.013752 239.381378 -30.540998
v 44.028984 201.249863 -30.540998
v 23.547003 201.249863 38.854073
v 11.772780 180.856308 38.854073
v 11.772769 221.643463 38.854073
v -11.775701 221.643463 38.854073
v -23.549932 201.249847 38.854073
v -11.775697 180.856293 38.854073
v 11.772780 180.856308 -38.839424
v -11.775697 180.856293 -38.839424
v -23.549932 201.249847 -38.839424
v -11.775701 221.643463 -38.839424
v 11.772769 221.643463 -38.839424
v 23.547003 201.249863 -38.839424
v -19.465984 220.714447 20.105392
v 19.463055 220.714447 20.105392
v -19.465984 220.714447 -20.090744
v 19.463055 220.714447 -20.090744
v -19.465984 181.785370 -20.090744
v 19.463055 181.785370 -20.090744
v -19.465984 181.785370 20.105392
v 19.463055 181.785370 20.105392
v -19.465984 263.427002 24.723124
v 19.463055 263.427002 24.723124
v 19.463055 263.427002 -24.708475
v -19.465984 263.427002 -24.708475
v -27.205185 31.327423 -28.081848
v 27.202255 31.327423 -28.081848
v 27.202255 31.327423 28.096497
v -27.205185 31.327423 28.096497
v 62.175659 181.785370 20.105392
v 62.175659 220.714447 20.105392
v 62.175659 181.785370 -20.090744
v 62.175659 220.714447 -20.090744
v -62.178589 181.785370 20.105392
v -62.178589 220.714447 20.105392
v -62.178589 220.714447 -20.090744
v -62.178589 181.785370 -20.090744
v -30.632832 293.577057 27.820587
v 30.629902 293.577057 27.820587
v 30.629902 293.577057 -27.805939
v -30.632832 293.577057 -27.805939
v 92.325684 170.618515 20.105392
v 92.325684 231.881287 20.105392
v 92.325684 170.618515 -20.090744
v 92.325684 231.881287 -20.090744
v -92.328613 170.618515 20.105392
v -92.328613 231.881287 20.105392
v -92.328613 231.881287 -20.090744
v -92.328613 170.618515 -20.090744
v 47.376953 0.000000 0.003906
v 35.289063 0.000000 -35.281250
v -0.001953 0.000000 -47.371094
v -35.291016 0.000000 -35.281250
v -47.380859 0.000000 0.000000
v -35.291016 0.000000 35.296875
v -0.001953 0.000000 47.390625
v 35.289063 0.000000 35.296875
v 47.376953 32.651367 0.003906
v 35.289063 32.651367 -35.281250
v -0.001953 32.651367 -47.371094
v -35.291016 32.651367 -35.281250
v -47.380859 32.651367 0.000000
v -35.291016 32.651367 35.296875
v -0.001953 32.651367 47.390625
v 35.289063 32.651367 35.296875
v 26.115234 36.179443 0.003906
v 19.455078 36.179443 -19.410156
v -0.001953 36.179443 -26.070313
v -19.457031 36.179443 -19.410156
v -26.119141 36.179443 0.003906
v -19.457031 36.179443 19.425781
v -0.001953 36.179443 26.089844
v 19.455078 36.179443 19.425781
v -0.001465 0.000000 0.006836
v -0.001465 36.179443 0.007324
v -19.465984 96.111298 -20.090744
v 19.463055 96.111298 -20.090744
v 19.463055 96.111298 20.105392
v -19.465984 96.111298 20.105392
vt 0.094343 0.209735
vt 0.094775 0.209753
vt 0.094914 0.209662
vt 0.094500 0.209647
vt 0.094997 0.209373
vt 0.095127 0.209299
vt 0.094778 0.208974
vt 0.094918 0.208917
vt 0.094340 0.208963
vt 0.094499 0.208908
vt 0.094127 0.209345
vt 0.094294 0.209273
vt 0.094421 0.209573
vt 0.094304 0.209362
vt 0.094419 0.209156
vt 0.094654 0.209163
vt 0.094772 0.209377
vt 0.094654 0.209581
vt 0.094615 0.209469
vt 0.094836 0.209477
vt 0.094948 0.209283
vt 0.094838 0.209082
vt 0.094615 0.209076
vt 0.094505 0.209270
vt 0.094026 0.210839
vt 0.093813 0.210851
vt 0.093851 0.210945
vt 0.094024 0.210937
vt 0.093989 0.211149
vt 0.093881 0.211151
vt 0.093882 0.211262
vt 0.093988 0.211261
vt 0.093984 0.211248
vt 0.093861 0.211249
vt 0.093859 0.211120
vt 0.093985 0.211117
vt 0.093632 0.211089
vt 0.093641 0.211287
vt 0.093690 0.211294
vt 0.093683 0.211124
vt 0.094223 0.211282
vt 0.094233 0.211071
vt 0.094201 0.211110
vt 0.094194 0.211291
vt 0.093855 0.210966
vt 0.093986 0.210960
vt 0.093882 0.211030
vt 0.093991 0.211026
vt 0.093988 0.211329
vt 0.093882 0.211330
vt 0.093883 0.211379
vt 0.093987 0.211380
vt 0.093862 0.211327
vt 0.093863 0.211385
vt 0.093984 0.211327
vt 0.093983 0.211385
vt 0.093730 0.211251
vt 0.093725 0.211124
vt 0.093768 0.211263
vt 0.093765 0.211154
vt 0.094128 0.211113
vt 0.094124 0.211246
vt 0.094112 0.211146
vt 0.094108 0.211260
vt 0.093803 0.211755
vt 0.093854 0.211713
vt 0.093853 0.211638
vt 0.093801 0.211671
vt 0.093941 0.211704
vt 0.093941 0.211630
vt 0.094025 0.211721
vt 0.094026 0.211644
vt 0.094059 0.211767
vt 0.094061 0.211681
vt 0.094027 0.211822
vt 0.094029 0.211726
vt 0.093914 0.211839
vt 0.093913 0.211739
vt 0.093812 0.211810
vt 0.093810 0.211716
vt 0.093885 0.211645
vt 0.093858 0.211664
vt 0.093936 0.211641
vt 0.093985 0.211649
vt 0.094002 0.211670
vt 0.093981 0.211692
vt 0.093921 0.211698
vt 0.093867 0.211687
vt 0.093930 0.211761
vt 0.093929 0.211668
vn 0.000000 -1.000000 0.000000
vn 0.000000 -1.000000 0.000000
vn 0.000000 -1.000000 0.000000
vn 0.000000 -1.000000 0.000000
vn -0.866025 -0.500000 0.000000
vn -0.866025 -0.500000 0.000000
vn -0.866025 -0.500000 0.000000
vn -0.866025 -0.500000 0.000000
vn -0.866026 0.500000 -0.000000
vn -0.866026 0.500000 -0.000000
vn -0.866026 0.500000 -0.000000
vn -0.866026 0.500000 -0.000000
vn 0.000000 1.000000 -0.000000
vn 0.000000 1.000000 -0.000000
vn 0.000000 1.000000 -0.000000
vn 0.000000 1.000000 -0.000000
vn 0.866025 0.500000 -0.000000
vn 0.866025 0.500000 -0.000000
vn 0.866025 0.500000 -0.000000
vn 0.866025 0.500000 -0.000000
vn 0.866025 -0.500000 0.000000
vn 0.866025 -0.500000 0.000000
vn 0.866025 -0.500000 0.000000
vn 0.866025 -0.500000 0.000000
vn 0.000000 -0.000000 1.000000
vn 0.000000 -0.000000 1.000000
vn 0.000000 -0.000000 1.000000
vn 0.000000 -0.000000 1.000000
vn 0.000000 -0.000000 1.000000
vn 0.000000 -0.000000 1.000000
vn 0.000000 -0.000000 -1.000000
vn 0.000000 -0.000000 -1.000000
vn 0.000000 -0.000000 -1.000000
vn 0.000000 -0.000000 -1.000000
vn 0.000000 -0.000000 -1.000000
vn 0.000000 -0.000000 -1.000000
vn 0.366982 -0.211877 0.905777
vn 0.366982 -0.211877 0.905777
vn 0.366982 -0.211877 0.905777
vn 0.366982 -0.211877 0.905777
vn 0.366983 0.211877 0.905777
vn 0.366983 0.211877 0.905777
vn 0.366983 0.211877 0.905777
vn 0.366983 0.211877 0.905777
vn 0.000000 0.423755 0.905777
vn 0.000000 0.423755 0.905777
vn 0.000000 0.423755 0.905777
vn 0.000000 0.423755 0.905777
vn -0.366983 0.211877 0.905777
vn -0.366983 0.211877 0.905777
vn -0.366983 0.211877 0.905777
vn -0.366983 0.211877 0.905777
vn -0.366982 -0.211878 0.905777
vn -0.366982 -0.211878 0.905777
vn -0.366982 -0.211878 0.905777
vn -0.366982 -0.211878 0.905777
vn 0.000000 -0.423755 0.905777
vn 0.000000 -0.423755 0.905777
vn 0.000000 -0.423755 0.905777
vn 0.000000 -0.423755 0.905777
vn 0.000000 -0.423755 -0.905777
vn 0.000000 -0.423755 -0.905777
vn 0.000000 -0.423755 -0.905777
vn 0.000000 -0.423755 -0.905777
vn -0.366982 -0.211878 -0.905777
vn -0.366982 -0.211878 -0.905777
vn -0.366982 -0.211878 -0.905777
vn -0.366982 -0.211878 -0.905777
vn -0.366982 0.211877 -0.905777
vn -0.366982 0.211877 -0.905777
vn -0.366982 0.211877 -0.905777
vn -0.366982 0.211877 -0.905777
vn 0.000000 0.423755 -0.905777
vn 0.000000 0.423755 -0.905777
vn 0.000000 0.423755 -0.905777
vn 0.000000 0.423755 -0.905777
vn 0.366982 0.211877 -0.905777
vn 0.366982 0.211877 -0.905777
vn 0.366982 0.211877 -0.905777
vn 0.366982 0.211877 -0.905777
vn 0.366982 -0.211877 -0.905777
vn 0.366982 -0.211877 -0.905777
vn 0.366982 -0.211877 -0.905777
vn 0.366982 -0.211877 -0.905777
vn 0.000000 1.000000 0.000000
vn 0.000000 1.000000 0.000000
vn 0.000000 1.000000 0.000000
vn 0.000000 1.000000 0.000000
vn 0.000000 0.000000 -1.000000
vn 0.000000 0.000000 -1.000000
vn 0.000000 0.000000 -1.000000
vn 0.000000 0.000000 -1.000000
vn 0.000000 0.000000 1.000000
vn 0.000000 0.000000 1.000000
vn 0.000000 0.000000 1.000000
vn 0.000000 0.000000 1.000000
vn 1.000000 0.000000 0.000000
vn 1.000000 0.000000 0.000000
vn 1.000000 0.000000 0.000000
vn 1.000000 0.000000 0.000000
vn -1.000000 0.000000 0.000000
vn -1.000000 0.000000 0.000000
vn -1.000000 0.000000 0.000000
vn -1.000000 0.000000 0.000000
vn 0.000000 -0.107485 0.994207
vn 0.000000 -0.107485 0.994207
vn 0.000000 -0.107485 0.994207
vn 0.000000 -0.107485 0.994207
vn 1.000000 -0.000000 0.000000
vn 1.000000 -0.000000 0.000000
vn 1.000000 -0.000000 0.000000
vn 1.000000 -0.000000 0.000000
vn 0.000000 -0.107485 -0.994207
vn 0.000000 -0.107485 -0.994207
vn 0.000000 -0.107485 -0.994207
vn 0.000000 -0.107485 -0.994207
vn -1.000000 -0.000000 0.000000
vn -1.000000 -0.000000 0.000000
vn -1.000000 -0.000000 0.000000
vn -1.000000 -0.000000 0.000000
vn 0.000000 0.122422 -0.992478
vn 0.000000 0.122422 -0.992478
vn 0.000000 0.122422 -0.992478
vn 0.000000 0.122422 -0.992478
vn 0.992940 0.118618 0.000000
vn 0.992940 0.118618 0.000000
vn 0.992940 0.118618 0.000000
vn 0.992940 0.118618 0.000000
vn 0.000000 0.122422 0.992478
vn 0.000000 0.122422 0.992478
vn 0.000000 0.122422 0.992478
vn 0.000000 0.122422 0.992478
vn -0.992940 0.118618 0.000000
vn -0.992940 0.118618 0.000000
vn -0.992940 0.118618 0.000000
vn -0.992940 0.118618 0.000000
vn 0.000000 0.000000 1.000000
vn 0.000000 0.000000 1.000000
vn 0.000000 0.000000 1.000000
vn 0.000000 0.000000 1.000000
vn 0.000000 -1.000000 0.000000
vn 0.000000 -1.000000 0.000000
vn 0.000000 -1.000000 0.000000
vn 0.000000 -1.000000 0.000000
vn 0.000000 0.000000 -1.000000
vn 0.000000 0.000000 -1.000000
vn 0.000000 0.000000 -1.000000
vn 0.000000 0.000000 -1.000000
vn 0.000000 1.000000 0.000000
vn 0.000000 1.000000 0.000000
vn 0.000000 1.000000 0.000000
vn 0.000000 1.000000 0.000000
vn 0.000000 0.000000 1.000000
vn 0.000000 0.000000 1.000000
vn 0.000000 0.000000 1.000000
vn 0.000000 0.000000 1.000000
vn 0.000000 1.000000 0.000000
vn 0.000000 1.000000 0.000000
vn 0.000000 1.000000 0.000000
vn 0.000000 1.000000 0.000000
vn 0.000000 0.000000 -1.000000
vn 0.000000 0.000000 -1.000000
vn 0.000000 0.000000 -1.000000
vn 0.000000 0.000000 -1.000000
vn 0.000000 -1.000000 0.000000
vn 0.000000 -1.000000 0.000000
vn 0.000000 -1.000000 0.000000
vn 0.000000 -1.000000 0.000000
vn 0.000000 -0.102197 0.994764
vn 0.000000 -0.102197 0.994764
vn 0.000000 -0.102197 0.994764
vn 0.000000 -0.102197 0.994764
vn 0.937747 -0.347319 0.000000
vn 0.937747 -0.347319 0.000000
vn 0.937747 -0.347319 0.000000
vn 0.937747 -0.347319 0.000000
vn 0.000000 -0.102197 -0.994764
vn 0.000000 -0.102197 -0.994764
vn 0.000000 -0.102197 -0.994764
vn 0.000000 -0.102197 -0.994764
vn -0.937747 -0.347319 0.000000
vn -0.937747 -0.347319 0.000000
vn -0.937747 -0.347319 0.000000
vn -0.937747 -0.347319 0.000000
vn 0.000000 0.000000 1.000000
vn 0.000000 0.000000 1.000000
vn 0.000000 0.000000 1.000000
vn 0.000000 0.000000 1.000000
vn -0.347319 -0.937747 0.000000
vn -0.347319 -0.937747 0.000000
vn -0.347319 -0.937747 0.000000
vn -0.347319 -0.937747 0.000000
vn -0.000000 0.000000 -1.000000
vn -0.000000 0.000000 -1.000000
vn -0.000000 0.000000 -1.000000
vn -0.000000 0.000000 -1.000000
vn -0.347319 0.937747 0.000000
vn -0.347319 0.937747 0.000000
vn -0.347319 0.937747 0.000000
vn -0.347319 0.937747 0.000000
vn -0.000000 0.000000 1.000000
vn -0.000000 0.000000 1.000000
vn -0.000000 0.000000 1.000000
vn -0.000000 0.000000 1.000000
vn 0.347319 0.937747 0.000000
vn 0.347319 0.937747 0.000000
vn 0.347319 0.937747 0.000000
vn 0.347319 0.937747 0.000000
vn 0.000000 0.000000 -1.000000
vn 0.000000 0.000000 -1.000000
vn 0.000000 0.000000 -1.000000
vn 0.000000 0.000000 -1.000000
vn 0.347319 -0.937747 0.000000
vn 0.347319 -0.937747 0.000000
vn 0.347319 -0.937747 0.000000
vn 0.347319 -0.937747 0.000000
vn 0.946027 0.000000 -0.324087
vn 0.946027 0.000000 -0.324087
vn 0.946027 0.000000 -0.324087
vn 0.946027 0.000000 -0.324087
vn 0.324086 0.000000 -0.946028
vn 0.324086 0.000000 -0.946028
vn 0.324086 0.000000 -0.946028
vn 0.324086 0.000000 -0.946028
vn -0.324102 0.000000 -0.946022
vn -0.324102 0.000000 -0.946022
vn -0.324102 0.000000 -0.946022
vn -0.324102 0.000000 -0.946022
vn -0.946000 0.000000 -0.324166
vn -0.946000 0.000000 -0.324166
vn -0.946000 0.000000 -0.324166
vn -0.946000 0.000000 -0.324166
vn -0.946044 0.000000 0.324038
vn -0.946044 0.000000 0.324038
vn -0.946044 0.000000 0.324038
vn -0.946044 0.000000 0.324038
vn -0.324196 0.000000 0.945990
vn -0.324196 0.000000 0.945990
vn -0.324196 0.000000 0.945990
vn -0.324196 0.000000 0.945990
vn 0.324180 0.000000 0.945996
vn 0.324180 0.000000 0.945996
vn 0.324180 0.000000 0.945996
vn 0.324180 0.000000 0.945996
vn 0.946049 0.000000 0.324023
vn 0.946049 0.000000 0.324023
vn 0.946049 0.000000 0.324023
vn 0.946049 0.000000 0.324023
vn 0.163395 0.984970 -0.056003
vn 0.163395 0.984970 -0.056003
vn 0.163395 0.984970 -0.056003
vn 0.163395 0.984970 -0.056003
vn 0.055884 0.985013 -0.163175
vn 0.055884 0.985013 -0.163175
vn 0.055884 0.985013 -0.163175
vn 0.055884 0.985013 -0.163175
vn -0.055887 0.985013 -0.163174
vn -0.055887 0.985013 -0.163174
vn -0.055887 0.985013 -0.163174
vn -0.055887 0.985013 -0.163174
vn -0.163384 0.984971 -0.056015
vn -0.163384 0.984971 -0.056015
vn -0.163384 0.984971 -0.056015
vn -0.163384 0.984971 -0.056015
vn -0.163403 0.984969 0.055998
vn -0.163403 0.984969 0.055998
vn -0.163403 0.984969 0.055998
vn -0.163403 0.984969 0.055998
vn -0.055908 0.985013 0.163165
vn -0.055908 0.985013 0.163165
vn -0.055908 0.985013 0.163165
vn -0.055908 0.985013 0.163165
vn 0.055904 0.985013 0.163167
vn 0.055904 0.985013 0.163167
vn 0.055904 0.985013 0.163167
vn 0.055904 0.985013 0.163167
vn 0.163401 0.984970 0.055989
vn 0.163401 0.984970 0.055989
vn 0.163401 0.984970 0.055989
vn 0.163401 0.984970 0.055989
vn 0.000000 -1.000000 0.000000
vn 0.000000 -1.000000 0.000000
vn 0.000000 -1.000000 0.000000
vn 0.000000 -1.000000 0.000000
vn 0.000000 -1.000000 0.000000
vn 0.000000 -1.000000 0.000000
vn 0.000000 -1.000000 0.000000
vn 0.000000 -1.000000 0.000000
vn 0.000000 -1.000000 0.000000
vn 0.000000 -1.000000 0.000000
vn 0.000000 -1.000000 0.000000
vn 0.000000 -1.000000 0.000000
vn 0.000000 -1.000000 0.000000
vn 0.000000 -1.000000 0.000000
vn 0.000000 -1.000000 0.000000
vn 0.000000 -1.000000 0.000000
vn 0.000000 -1.000000 0.000000
vn 0.000000 -1.000000 0.000000
vn 0.000000 -1.000000 0.000000
vn 0.000000 -1.000000 0.000000
vn 0.000000 -1.000000 0.000000
vn 0.000000 -1.000000 0.000000
vn 0.000000 -1.000000 0.000000
vn 0.000000 -1.000000 0.000000
vn 0.000000 1.000000 -0.000000
vn 0.000000 1.000000 -0.000000
vn 0.000000 1.000000 -0.000000
vn 0.000000 1.000000 0.000000
vn 0.000000 1.000000 0.000000
vn 0.000000 1.000000 0.000000
vn 0.000000 1.000000 0.000000
vn 0.000000 1.000000 0.000000
vn 0.000000 1.000000 0.000000
vn 0.000000 1.000000 0.000000
vn 0.000000 1.000000 0.000000
vn 0.000000 1.000000 0.000000
vn 0.000000 1.000000 0.000000
vn 0.000000 1.000000 0.000000
vn 0.000000 1.000000 0.000000
vn 0.000000 1.000000 -0.000000
vn 0.000000 1.000000 -0.000000
vn 0.000000 1.000000 -0.000000
vn 0.000000 1.000000 0.000000
vn 0.000000 1.000000 0.000000
vn 0.000000 1.000000 0.000000
vn 0.000000 1.000000 0.000000
vn 0.000000 1.000000 0.000000
vn 0.000000 1.000000 0.000000
vn 0.000000 0.000000 -1.000000
vn 0.000000 0.000000 -1.000000
vn 0.000000 0.000000 -1.000000
vn 0.000000 0.000000 -1.000000
vn 1.000000 0.000000 0.000000
vn 1.000000 0.000000 0.000000
vn 1.000000 0.000000 0.000000
vn 1.000000 0.000000 0.000000
vn 0.000000 0.000000 1.000000
vn 0.000000 0.000000 1.000000
vn 0.000000 0.000000 1.000000
vn 0.000000 0.000000 1.000000
vn -1.000000 0.000000 0.000000
vn -1.000000 0.000000 0.000000
vn -1.000000 0.000000 0.000000
vn -1.000000 0.000000 0.000000
s off
f 1/1/1 2/2/2 8/3/3 7/4/4
f 2/2/5 3/5/6 9/6/7 8/3/8
f 3/5/9 4/7/10 10/8/11 9/6/12
f 4/7/13 5/9/14 11/10/15 10/8/16
f 5/9/17 6/11/18 12/12/19 11/10/20
f 6/11/21 1/1/22 7/4/23 12/12/24
f 14/13/25 13/14/26 15/15/27 16/16/28 17/17/29 18/18/30
f 19/19/31 20/20/32 21/21/33 22/22/34 23/23/35 24/24/36
f 6/11/37 13/14/38 14/13/39 1/1/40
f 15/15/41 13/14/42 6/11/43 5/9/44
f 16/16/45 15/15/46 5/9/47 4/7/48
f 17/17/49 16/16/50 4/7/51 3/5/52
f 18/18/53 17/17/54 3/5/55 2/2/56
f 14/13/57 18/18/58 2/2/59 1/1/60
f 20/20/61 19/19/62 7/4/63 8/3/64
f 21/21/65 20/20/66 8/3/67 9/6/68
f 22/22/69 21/21/70 9/6/71 10/8/72
f 23/23/73 22/22/74 10/8/75 11/10/76
f 24/24/77 23/23/78 11/10/79 12/12/80
f 7/4/81 19/19/82 24/24/83 12/12/84
f 49/25/85 50/26/86 51/27/87 52/28/88
f 27/29/89 28/30/90 30/31/91 29/32/92
f 31/33/93 32/34/94 26/35/95 25/36/96
f 54/37/97 53/38/98 55/39/99 56/40/100
f 57/41/101 58/42/102 59/43/103 60/44/104
f 25/36/105 26/35/106 34/45/107 33/46/108
f 26/35/109 28/30/110 35/47/111 34/45/112
f 28/30/113 27/29/114 36/48/115 35/47/116
f 27/29/117 25/36/118 33/46/119 36/48/120
f 87/49/121 88/50/122 38/51/123 37/52/124
f 88/50/125 89/53/126 39/54/127 38/51/128
f 89/53/129 90/55/130 40/56/131 39/54/132
f 90/55/133 87/49/134 37/52/135 40/56/136
f 26/35/137 32/34/138 41/57/139 42/58/140
f 32/34/141 30/31/142 43/59/143 41/57/144
f 30/31/145 28/30/146 44/60/147 43/59/148
f 28/30/149 26/35/150 42/58/151 44/60/152
f 31/33/153 25/36/154 46/61/155 45/62/156
f 25/36/157 27/29/158 47/63/159 46/61/160
f 27/29/161 29/32/162 48/64/163 47/63/164
f 29/32/165 31/33/166 45/62/167 48/64/168
f 33/46/169 34/45/170 50/26/171 49/25/172
f 34/45/173 35/47/174 51/27/175 50/26/176
f 35/47/177 36/48/178 52/28/179 51/27/180
f 36/48/181 33/46/182 49/25/183 52/28/184
f 42/58/185 41/57/186 53/38/187 54/37/188
f 41/57/189 43/59/190 55/39/191 53/38/192
f 43/59/193 44/60/194 56/40/195 55/39/196
f 44/60/197 42/58/198 54/37/199 56/40/200
f 45/62/201 46/61/202 58/42/203 57/41/204
f 46/61/205 47/63/206 59/43/207 58/42/208
f 47/63/209 48/64/210 60/44/211 59/43/212
f 48/64/213 45/62/214 57/41/215 60/44/216
f 61/65/217 62/66/218 70/67/219 69/68/220
f 62/66/221 63/69/222 71/70/223 70/67/224
f 63/69/225 64/71/226 72/72/227 71/70/228
f 64/71/229 65/73/230 73/74/231 72/72/232
f 65/73/233 66/75/234 74/76/235 73/74/236
f 66/75/237 67/77/238 75/78/239 74/76/240
f 67/77/241 68/79/242 76/80/243 75/78/244
f 68/79/245 61/65/246 69/68/247 76/80/248
f 69/68/249 70/67/250 78/81/251 77/82/252
f 70/67/253 71/70/254 79/83/255 78/81/256
f 71/70/257 72/72/258 80/84/259 79/83/260
f 72/72/261 73/74/262 81/85/263 80/84/264
f 73/74/265 74/76/266 82/86/267 81/85/268
f 74/76/269 75/78/270 83/87/271 82/86/272
f 75/78/273 76/80/274 84/88/275 83/87/276
f 76/80/277 69/68/278 77/82/279 84/88/280
f 66/75/281 65/73/282 85/89/283
f 65/73/284 64/71/285 85/89/286
f 64/71/287 63/69/288 85/89/289
f 63/69/290 62/66/291 85/89/292
f 62/66/293 61/65/294 85/89/295
f 61/65/296 68/79/297 85/89/298
f 68/79/299 67/77/300 85/89/301
f 67/77/302 66/75/303 85/89/304
f 83/87/305 84/88/306 86/90/307
f 84/88/308 77/82/309 86/90/310
f 77/82/311 78/81/312 86/90/313
f 78/81/314 79/83/315 86/90/316
f 79/83/317 80/84/318 86/90/319
f 80/84/320 81/85/321 86/90/322
f 81/85/323 82/86/324 86/90/325
f 82/86/326 83/87/327 86/90/328
f 29/32/329 30/31/330 88/50/331 87/49/332
f 30/31/333 32/34/334 89/53/335 88/50/336
f 32/34/337 31/33/338 90/55/339 89/53/340
f 31/33/341 29/32/342 87/49/343 90/55/344
