# This file uses centimeters as units for non-parametric coordinates.

v 138.517456 -230.665466 -250.000000
v 124.999054 -249.999878 -250.000000
v 124.999054 -249.999878 -201.367798
v 124.999054 -249.999878 -153.994141
v 124.999054 -249.999878 -121.024170
v 124.999054 -249.999878 -79.110107
v 89.893799 -161.360199 -250.000000
v 100.956085 -161.350891 -225.614014
v 138.380127 -220.033600 -200.223999
v 100.108917 -162.165558 -193.023071
v 98.681366 -172.066681 -149.556274
v 127.561035 -211.750214 -143.385010
v 138.904419 -220.975525 -120.506592
v 99.906281 -164.160034 -116.841431
v 138.882111 -233.115112 -81.114502
v 100.798615 -163.006622 -78.622437
v 101.967773 -147.164795 -250.000000
v 104.073486 -142.004883 -205.719299
v 60.653381 -88.536873 -250.000000
v 103.572052 -144.062836 -177.862549
v 49.091492 -72.705574 -201.367798
v 107.667847 -162.862122 -145.143433
v 48.792725 -75.468941 -153.994141
v 49.302673 -72.619057 -121.024170
v 103.157684 -144.746582 -117.881470
v 60.926208 -90.735817 -79.110107
v 104.385712 -146.242859 -96.234131
v 59.718628 -95.481148 -27.294922
v 60.653381 -88.536873 0.000000
v 101.967773 -147.164795 0.000000
v 104.096069 -144.019501 -67.552490
v 89.893799 -161.360199 0.000000
v 101.109009 -165.922424 -54.679871
v 138.517792 -230.665466 0.000000
v 135.277710 -232.477295 -24.414673
v 124.999054 -249.999878 0.000000
v 124.999054 -249.999878 -26.672668
v 59.221497 -69.316750 -250.000000
v 18.358765 -12.305794 -250.000000
v 58.550720 -60.296669 -196.574097
v 18.358765 -12.305794 -193.023071
v 13.352966 -1.050148 -149.556274
v 47.293091 -48.384285 -143.385010
v 57.846375 -54.596443 -111.655884
v 13.352966 -1.050148 -116.841431
v 59.694824 -71.991920 -81.114502
v 18.358765 -12.305794 -78.622437
v 18.358765 -12.305794 0.000000
v 12.882690 2.182121 -28.314209
v 59.221497 -69.316750 0.000000
v 65.593567 -76.767006 -37.197876
v 0.000916 -0.000343 -193.023071
v 0.000916 -0.000343 -250.000000
v 0.000916 -0.000343 -149.556274
v 0.000916 -0.000343 -116.841431
v 0.000916 -0.000343 -78.622437
v 0.000916 -0.000343 -28.314209
v 0.000610 -0.000191 0.000000
v 78.963318 -158.161041 0.000000
v 78.963928 -158.160889 -250.000000
v 0.000000 0.000000 0.000000
v 124.999390 -249.999924 0.000000
v 0.000000 0.000000 -250.000000
v 124.999390 -249.999924 -250.000000
v 8.345947 -11.609196 -236.206665
v 119.373779 -235.137665 -236.206665
v 119.373779 -235.137665 -13.793030
v 8.345947 -11.609196 -13.793030
v -3.840332 -3.839947 -250.000000
v 121.159668 -253.839981 -250.000000
v 116.213379 -244.716614 -238.089600
v 1.347656 -14.452061 -238.089600
v 121.159668 -253.839981 0.000000
v 116.213379 -244.716614 -11.910400
v -3.840332 -3.839947 0.000000
v 1.347656 -14.452061 -11.910400
v 111.243286 -265.836853 -46.781921
v 121.159058 -253.839905 -46.781921
v -13.756714 -15.836796 -46.781921
v -3.840332 -3.840294 -46.781921
v -13.756714 -15.836796 -62.077332
v -3.840332 -3.840294 -62.077332
v 111.243286 -265.836853 -62.077332
v 121.159058 -253.839905 -62.077332
v 111.243286 -265.836853 -187.922363
v 121.159058 -253.839905 -187.922363
v -13.756714 -15.836796 -187.922363
v -3.840332 -3.840294 -187.922363
v -13.756714 -15.836796 -203.217773
v -3.840332 -3.840294 -203.217773
v 111.243286 -265.836853 -203.217773
v 121.159058 -253.839905 -203.217773
vt 0.048396 0.122524
vt 0.048486 0.122306
vt 0.048512 0.122341
vt 0.049254 0.145196
vt 0.048492 0.122548
vt 0.048579 0.122373
vt 0.049135 0.145575
vt 0.048997 0.145015
vt 0.048544 0.122315
vt 0.048461 0.122284
vt 0.048538 0.122099
vt 0.048602 0.122346
vt 0.048658 0.122090
vt 0.048662 0.122429
vt 0.048757 0.122139
vt 0.048825 0.122162
vt 0.048727 0.122406
vt 0.048894 0.122260
vt 0.048771 0.122433
vt 0.048671 0.122438
vt 0.048737 0.122452
vt 0.048817 0.122489
vt 0.048756 0.145504
vt 0.048520 0.122604
vt 0.049204 0.145741
vt 0.049436 0.145236
vt 0.048425 0.122555
vt 0.049072 0.122332
vt 0.048988 0.122533
vt 0.049011 0.122322
vt 0.048834 0.122456
vt 0.049012 0.122555
vt 0.048868 0.122522
vt 0.048915 0.122790
vt 0.048867 0.122762
vt 0.048942 0.122820
vt 0.048883 0.122790
vt 0.048737 0.122705
vt 0.048770 0.122732
vt 0.048648 0.122072
vt 0.048539 0.122049
vt 0.048733 0.121914
vt 0.048616 0.121868
vt 0.048834 0.121917
vt 0.048781 0.122078
vt 0.048828 0.122133
vt 0.048904 0.121945
vt 0.048891 0.122209
vt 0.048978 0.122013
vt 0.049157 0.122084
vt 0.049075 0.122280
vt 0.049103 0.122014
vt 0.048977 0.122270
vt 0.048651 0.121820
vt 0.048768 0.121866
vt 0.048860 0.121902
vt 0.048930 0.121929
vt 0.049014 0.121962
vt 0.049128 0.122007
vt 0.049194 0.122032
vt 0.049437 0.145941
vt 0.049658 0.145339
vt 0.049034 0.122533
vt 0.048508 0.122287
vt 0.049096 0.145793
vt 0.048832 0.145658
vt 0.049283 0.145890
vt 0.049528 0.146015
vt 0.239405 0.625409
vt 0.239405 0.515115
vt 0.132397 0.515115
vt 0.132397 0.625408
vt 0.489258 0.155963
vt 0.489001 0.156859
vt 0.488977 0.156835
vt 0.489205 0.156004
vt 0.488313 0.156865
vt 0.488349 0.156839
vt 0.488315 0.155880
vt 0.488363 0.155934
vt 0.488970 0.156819
vt 0.489190 0.156005
vt 0.488355 0.156822
vt 0.489258 0.155963
vt 0.489001 0.156859
vt 0.488313 0.156865
vt 0.488315 0.155880
vt 0.488372 0.155936
vt 0.496789 0.156481
vt 0.496787 0.156426
vt 0.496807 0.155481
vt 0.496809 0.155542
vt 0.496879 0.155481
vt 0.496882 0.155542
vt 0.496840 0.156480
vt 0.496838 0.156425
vt 0.496809 0.155542
vt 0.496807 0.155481
vt 0.496879 0.155481
vt 0.496882 0.155542
vt 0.496838 0.156425
vt 0.496840 0.156480
vt 0.496787 0.156426
vt 0.496789 0.156481
vn 0.767360 0.538370 -0.348305
vn 0.767360 0.538370 -0.348305
vn 0.767360 0.538370 -0.348305
vn 0.821616 0.557925 -0.116903
vn 0.821616 0.557925 -0.116903
vn 0.821616 0.557925 -0.116903
vn 0.883734 0.466706 0.034638
vn 0.883734 0.466706 0.034638
vn 0.883734 0.466706 0.034638
vn 0.785760 0.596996 0.161793
vn 0.785760 0.596996 0.161793
vn 0.785760 0.596996 0.161793
vn 0.835968 0.542915 0.080002
vn 0.835968 0.542915 0.080002
vn 0.835968 0.542915 0.080002
vn 0.806921 0.564982 -0.172261
vn 0.806921 0.564982 -0.172261
vn 0.806921 0.564982 -0.172261
vn 0.809411 0.563169 -0.166415
vn 0.809411 0.563169 -0.166415
vn 0.809411 0.563169 -0.166415
vn 0.871611 0.468319 0.144817
vn 0.871611 0.468319 0.144817
vn 0.871611 0.468319 0.144817
vn 0.822826 0.567131 -0.036327
vn 0.822826 0.567131 -0.036327
vn 0.822826 0.567131 -0.036327
vn 0.812874 0.572823 -0.105405
vn 0.812874 0.572823 -0.105405
vn 0.812874 0.572823 -0.105405
vn 0.783808 0.618120 0.059773
vn 0.783808 0.618120 0.059773
vn 0.783808 0.618120 0.059773
vn 0.782778 0.622085 -0.016409
vn 0.782778 0.622085 -0.016409
vn 0.782778 0.622085 -0.016409
vn 0.798110 0.560148 0.221934
vn 0.798110 0.560148 0.221934
vn 0.798110 0.560148 0.221934
vn 0.787629 0.614796 0.040829
vn 0.787629 0.614796 0.040829
vn 0.787629 0.614796 0.040829
vn 0.800978 0.595280 -0.063844
vn 0.800978 0.595280 -0.063844
vn 0.800978 0.595280 -0.063844
vn 0.819671 0.530246 -0.216743
vn 0.819671 0.530246 -0.216743
vn 0.819671 0.530246 -0.216743
vn 0.793013 0.607703 0.042754
vn 0.793013 0.607703 0.042754
vn 0.793013 0.607703 0.042754
vn 0.801361 0.598167 -0.004114
vn 0.801361 0.598167 -0.004114
vn 0.801361 0.598167 -0.004114
vn 0.991446 -0.126427 -0.032415
vn 0.991446 -0.126427 -0.032415
vn 0.991446 -0.126427 -0.032415
vn 0.720015 -0.612412 -0.326388
vn 0.720015 -0.612412 -0.326388
vn 0.720015 -0.612412 -0.326388
vn 0.981626 -0.190784 0.003575
vn 0.981626 -0.190784 0.003575
vn 0.981626 -0.190784 0.003575
vn 0.983418 -0.180125 0.021060
vn 0.983418 -0.180125 0.021060
vn 0.983418 -0.180125 0.021060
vn 0.744221 -0.534651 -0.400354
vn 0.744221 -0.534652 -0.400354
vn 0.744221 -0.534651 -0.400354
vn 0.983494 -0.180722 -0.008866
vn 0.983494 -0.180722 -0.008866
vn 0.983494 -0.180722 -0.008866
vn 0.955696 -0.146380 0.255378
vn 0.955696 -0.146380 0.255378
vn 0.955696 -0.146380 0.255378
vn 0.670346 -0.726623 0.150514
vn 0.670346 -0.726623 0.150514
vn 0.670346 -0.726623 0.150514
vn 0.983424 -0.168318 -0.067423
vn 0.983424 -0.168318 -0.067423
vn 0.983424 -0.168318 -0.067423
vn 0.974180 -0.225209 -0.015949
vn 0.974180 -0.225209 -0.015949
vn 0.974180 -0.225209 -0.015949
vn 0.908126 -0.408942 0.089853
vn 0.908126 -0.408942 0.089853
vn 0.908126 -0.408942 0.089853
vn 0.819544 -0.573016 0.000000
vn 0.819544 -0.573016 0.000000
vn 0.819544 -0.573016 0.000000
vn 0.971713 -0.121290 0.202638
vn 0.971713 -0.121290 0.202638
vn 0.971713 -0.121290 0.202638
vn 0.913101 -0.407734 0.000000
vn 0.913101 -0.407734 0.000000
vn 0.913101 -0.407734 0.000000
vn 0.770154 -0.359580 -0.526845
vn 0.770154 -0.359580 -0.526845
vn 0.770154 -0.359580 -0.526845
vn 0.997764 -0.066831 0.000000
vn 0.997764 -0.066831 0.000000
vn 0.997764 -0.066831 0.000000
vn 0.894988 -0.426448 -0.130913
vn 0.894988 -0.426448 -0.130913
vn 0.894988 -0.426448 -0.130913
vn 0.772425 -0.635106 0.000000
vn 0.772425 -0.635106 0.000000
vn 0.772425 -0.635106 0.000000
vn 0.805253 0.567452 -0.171946
vn 0.805253 0.567452 -0.171946
vn 0.805253 0.567452 -0.171946
vn 0.758901 0.648953 0.054125
vn 0.758901 0.648953 0.054125
vn 0.758901 0.648953 0.054125
vn 0.745426 -0.634026 0.205792
vn 0.745426 -0.634026 0.205792
vn 0.745426 -0.634026 0.205792
vn 0.992411 -0.120258 0.025667
vn 0.992411 -0.120258 0.025667
vn 0.992411 -0.120258 0.025667
vn 0.812790 0.570246 0.119130
vn 0.812790 0.570246 0.119130
vn 0.812790 0.570246 0.119130
vn 0.905592 0.396878 -0.149634
vn 0.905592 0.396878 -0.149634
vn 0.905592 0.396878 -0.149634
vn 0.817746 -0.571772 -0.066092
vn 0.817746 -0.571772 -0.066092
vn 0.817746 -0.571772 -0.066092
vn 0.862552 -0.505968 0.000000
vn 0.862552 -0.505969 0.000000
vn 0.862552 -0.505968 0.000000
vn 0.766574 0.637611 0.076259
vn 0.766574 0.637611 0.076259
vn 0.766574 0.637611 0.076259
vn 0.780631 0.623682 -0.040464
vn 0.780630 0.623682 -0.040464
vn 0.780630 0.623682 -0.040464
vn 0.987696 -0.153189 -0.031460
vn 0.987696 -0.153189 -0.031460
vn 0.987696 -0.153189 -0.031460
vn 0.982484 -0.184761 0.024244
vn 0.982484 -0.184761 0.024244
vn 0.982484 -0.184761 0.024244
vn 0.878950 0.474228 0.050540
vn 0.878950 0.474228 0.050540
vn 0.878950 0.474228 0.050540
vn 0.878465 0.475536 0.046524
vn 0.878465 0.475536 0.046524
vn 0.878465 0.475536 0.046524
vn 0.862552 -0.505969 0.000000
vn 0.862552 -0.505969 0.000000
vn 0.862552 -0.505969 0.000000
vn 0.774468 -0.630101 0.056321
vn 0.774468 -0.630101 0.056321
vn 0.774468 -0.630101 0.056321
vn 0.759260 0.643204 -0.099062
vn 0.759260 0.643204 -0.099062
vn 0.759260 0.643204 -0.099062
vn 0.812784 0.582565 0.000000
vn 0.812784 0.582565 0.000000
vn 0.812784 0.582565 0.000000
vn 0.814837 0.577019 -0.055578
vn 0.814837 0.577019 -0.055578
vn 0.814837 0.577019 -0.055578
vn 0.767200 0.641133 0.018790
vn 0.767200 0.641133 0.018790
vn 0.767200 0.641133 0.018790
vn 0.768582 0.625749 -0.133121
vn 0.768582 0.625748 -0.133121
vn 0.768582 0.625748 -0.133121
vn 0.812676 0.582715 0.000000
vn 0.812676 0.582715 0.000000
vn 0.812676 0.582715 0.000000
vn 0.798761 0.542310 0.260540
vn 0.798761 0.542310 0.260540
vn 0.798761 0.542310 0.260540
vn 0.761801 0.641643 0.089188
vn 0.761801 0.641643 0.089188
vn 0.761801 0.641643 0.089188
vn 0.767793 -0.630105 0.116023
vn 0.767793 -0.630105 0.116023
vn 0.767793 -0.630105 0.116023
vn 0.975376 0.072665 0.208233
vn 0.975376 0.072665 0.208233
vn 0.975376 0.072665 0.208233
vn 0.976544 -0.029477 0.213290
vn 0.976544 -0.029477 0.213290
vn 0.976544 -0.029477 0.213290
vn 0.800458 -0.598644 -0.029871
vn 0.800458 -0.598644 -0.029871
vn 0.800458 -0.598644 -0.029871
vn 0.903948 -0.247090 -0.349035
vn 0.903948 -0.247090 -0.349035
vn 0.903948 -0.247090 -0.349035
vn 0.997767 0.063438 -0.020916
vn 0.997767 0.063438 -0.020916
vn 0.997767 0.063438 -0.020916
vn 0.919930 -0.314148 -0.234606
vn 0.919930 -0.314148 -0.234606
vn 0.919930 -0.314148 -0.234606
vn 0.966944 0.036538 -0.252358
vn 0.966944 0.036538 -0.252358
vn 0.966944 0.036538 -0.252358
vn 0.804835 0.576867 0.139515
vn 0.804835 0.576867 0.139515
vn 0.804835 0.576867 0.139515
vn 0.832904 0.552490 0.032021
vn 0.832904 0.552490 0.032021
vn 0.832904 0.552490 0.032021
vn 0.985327 0.073406 0.154086
vn 0.985327 0.073406 0.154086
vn 0.985327 0.073406 0.154086
vn 0.959032 -0.280663 0.038562
vn 0.959032 -0.280663 0.038562
vn 0.959032 -0.280663 0.038562
vn 0.827977 0.558485 -0.050487
vn 0.827977 0.558485 -0.050487
vn 0.827977 0.558485 -0.050487
vn 0.818309 0.569859 -0.075036
vn 0.818309 0.569859 -0.075036
vn 0.818309 0.569859 -0.075036
vn 0.953248 -0.302140 -0.005455
vn 0.953248 -0.302140 -0.005455
vn 0.953248 -0.302140 -0.005455
vn 0.990510 0.051442 -0.127449
vn 0.990510 0.051442 -0.127449
vn 0.990510 0.051442 -0.127449
vn 0.556794 0.830651 0.000000
vn 0.556794 0.830651 0.000000
vn 0.556794 0.830651 0.000000
vn 0.556794 0.830651 0.000000
vn 0.386337 0.917294 -0.096520
vn 0.386337 0.917294 -0.096520
vn 0.386337 0.917294 -0.096520
vn 0.386337 0.917294 -0.096520
vn 0.078383 0.996923 0.000000
vn 0.078383 0.996923 0.000000
vn 0.078383 0.996923 0.000000
vn 0.078383 0.996923 0.000000
vn 0.385809 0.916043 0.109623
vn 0.385809 0.916043 0.109623
vn 0.385809 0.916043 0.109623
vn 0.385809 0.916043 0.109623
vn 0.301465 0.930320 0.208862
vn 0.301465 0.930320 0.208862
vn 0.301465 0.930320 0.208862
vn 0.301466 0.930320 0.208862
vn 0.306060 0.944502 -0.119343
vn 0.306060 0.944502 -0.119343
vn 0.306060 0.944502 -0.119343
vn 0.306060 0.944502 -0.119343
vn 0.000000 0.000000 1.000000
vn 0.000000 0.000000 1.000000
vn 0.000000 0.000000 1.000000
vn 0.000000 0.000000 1.000000
vn 0.000000 0.000000 1.000000
vn 0.000000 0.000000 1.000000
vn 0.000000 0.000000 1.000000
vn 0.000000 0.000000 1.000000
vn 0.000000 0.000000 1.000000
vn 0.000002 0.000000 -1.000000
vn 0.000002 0.000000 -1.000000
vn 0.000002 0.000000 -1.000000
vn 0.000000 0.000000 -1.000000
vn 0.000000 0.000000 -1.000000
vn 0.000000 0.000000 -1.000000
vn 0.000000 0.000000 -1.000000
vn 0.000000 0.000000 -1.000000
vn 0.000000 0.000000 -1.000000
vn 0.000000 0.000000 1.000000
vn 0.000000 0.000000 1.000000
vn 0.000000 0.000000 1.000000
vn 0.000000 0.000000 -1.000000
vn 0.000000 0.000000 -1.000000
vn 0.000000 0.000000 -1.000000
vn 0.000000 0.000000 -1.000000
vn 0.000000 0.000000 1.000000
vn 0.000000 0.000000 1.000000
vn 0.000000 0.000000 1.000000
vn 0.000000 0.000000 1.000000
vn 0.000000 0.000000 -1.000000
vn 0.000000 0.000000 -1.000000
vn 0.000000 0.000000 -1.000000
vn 0.000000 0.000000 1.000000
vn 0.000000 0.000000 1.000000
vn 0.000000 0.000000 1.000000
vn 0.000000 0.000000 1.000000
vn 0.000000 0.000000 -1.000000
vn 0.000000 0.000000 -1.000000
vn 0.000000 0.000000 -1.000000
vn -0.895604 -0.444852 0.000000
vn -0.895604 -0.444852 0.000000
vn -0.895604 -0.444852 0.000000
vn -0.895604 -0.444852 0.000000
vn -0.896340 -0.443253 -0.010076
vn -0.888585 -0.458569 -0.011435
vn -0.887715 -0.460278 -0.010360
vn -0.896354 -0.443227 -0.010010
vn -0.888585 -0.458569 -0.011435
vn -0.888585 -0.458569 0.011435
vn -0.887715 -0.460277 0.010360
vn -0.887715 -0.460278 -0.010360
vn -0.888585 -0.458569 0.011435
vn -0.896340 -0.443253 0.010076
vn -0.896354 -0.443227 0.010010
vn -0.887715 -0.460277 0.010360
vn -0.896340 -0.443253 0.010076
vn -0.896340 -0.443253 -0.010076
vn -0.896354 -0.443227 -0.010010
vn -0.896354 -0.443227 0.010010
vn -0.223165 -0.111089 0.968430
vn -0.223165 -0.111089 0.968430
vn -0.223165 -0.111089 0.968430
vn -0.223165 -0.111089 0.968430
vn -0.949648 0.313319 0.000000
vn -0.949648 0.313319 0.000000
vn -0.949648 0.313319 0.000000
vn -0.949648 0.313319 0.000000
vn -0.000001 0.000000 -1.000000
vn -0.000001 0.000000 -1.000000
vn -0.000001 0.000000 -1.000000
vn -0.000001 0.000000 -1.000000
vn 0.707138 -0.707076 0.000000
vn 0.707138 -0.707076 0.000000
vn 0.707138 -0.707076 0.000000
vn 0.707138 -0.707076 0.000000
vn 0.000000 0.000000 1.000000
vn 0.000000 0.000000 1.000000
vn 0.000000 0.000000 1.000000
vn 0.000000 0.000000 1.000000
vn -0.223131 -0.111072 -0.968440
vn -0.223130 -0.111072 -0.968440
vn -0.223130 -0.111072 -0.968440
vn -0.223130 -0.111072 -0.968440
vn -0.707071 0.707142 0.000000
vn -0.707071 0.707142 0.000000
vn -0.707071 0.707142 0.000000
vn -0.707071 0.707142 0.000000
vn 0.376355 -0.926475 0.000000
vn 0.376355 -0.926475 0.000000
vn 0.376355 -0.926475 0.000000
vn 0.376355 -0.926475 0.000000
vn -0.000000 0.000000 1.000000
vn -0.000000 0.000000 1.000000
vn -0.000000 0.000000 1.000000
vn -0.000000 0.000000 1.000000
vn -0.770765 0.637119 0.000000
vn -0.770765 0.637119 0.000000
vn -0.770765 0.637119 0.000000
vn -0.770765 0.637119 0.000000
vn 0.770796 -0.637082 0.000000
vn 0.770796 -0.637082 0.000000
vn 0.770796 -0.637082 0.000000
vn 0.770796 -0.637082 0.000000
vn 0.894428 0.447212 0.000000
vn 0.894428 0.447212 0.000000
vn 0.894428 0.447212 0.000000
vn 0.894428 0.447212 0.000000
vn -0.770765 0.637119 0.000000
vn -0.770765 0.637119 0.000000
vn -0.770765 0.637119 0.000000
vn -0.770765 0.637119 0.000000
vn 0.000001 0.000000 -1.000000
vn 0.000001 0.000000 -1.000000
vn 0.000001 0.000000 -1.000000
vn 0.000001 0.000000 -1.000000
vn 0.770796 -0.637082 0.000000
vn 0.770796 -0.637082 0.000000
vn 0.770796 -0.637082 0.000000
vn 0.770796 -0.637082 0.000000
vn 0.894428 0.447212 0.000000
vn 0.894428 0.447212 0.000000
vn 0.894428 0.447212 0.000000
vn 0.894428 0.447212 0.000000
vn 0.000000 0.000000 -1.000000
vn 0.000000 0.000000 -1.000000
vn 0.000000 0.000000 -1.000000
vn 0.000000 0.000000 -1.000000
vn -0.894427 -0.447213 0.000000
vn -0.894427 -0.447213 0.000000
vn -0.894427 -0.447213 0.000000
vn -0.894427 -0.447213 0.000000
vn -0.894427 -0.447213 0.000000
vn -0.894427 -0.447213 0.000000
vn -0.894427 -0.447213 0.000000
vn -0.894427 -0.447213 0.000000
vn 0.000000 0.000000 1.000000
vn 0.000000 0.000000 1.000000
vn 0.000000 0.000000 1.000000
vn 0.000000 0.000000 1.000000
s off
f 1/1/1 7/2/2 8/3/3
f 9/5/4 1/1/5 10/6/6
f 1/1/7 8/3/8 10/6/9
f 11/4/10 12/7/11 10/8/12
f 12/7/13 9/23/14 10/8/15
f 13/25/16 12/7/17 14/26/18
f 12/7/19 11/4/20 14/26/21
f 15/61/22 13/25/23 16/62/24
f 13/25/25 14/26/26 16/62/27
f 18/9/28 17/10/29 19/11/30
f 20/12/31 18/9/32 21/13/33
f 18/9/34 19/11/35 21/13/36
f 22/14/37 20/12/38 23/15/39
f 20/12/40 21/13/41 23/15/42
f 24/16/43 25/17/44 23/15/45
f 25/17/46 22/14/47 23/15/48
f 26/18/49 27/19/50 24/16/51
f 27/19/52 25/17/53 24/16/54
f 18/9/55 8/3/56 17/10/57
f 8/3/58 7/2/59 17/10/60
f 20/12/61 10/6/62 18/9/63
f 10/6/64 8/3/65 18/9/66
f 22/14/67 11/20/68 20/12/69
f 11/20/70 10/6/71 20/12/72
f 25/17/73 14/21/74 22/14/75
f 14/21/76 11/20/77 22/14/78
f 25/17/79 27/19/80 14/21/81
f 27/19/82 16/22/83 14/21/84
f 9/5/85 3/24/86 1/1/87
f 3/24/88 2/27/89 1/1/90
f 12/7/91 4/65/92 9/23/93
f 4/65/94 3/66/95 9/23/96
f 13/25/97 5/67/98 12/7/99
f 5/67/100 4/65/101 12/7/102
f 13/25/103 15/61/104 5/67/105
f 15/61/106 6/68/107 5/67/108
f 29/28/109 30/29/110 28/30/111
f 30/29/112 31/31/113 28/30/114
f 32/32/115 33/33/116 30/29/117
f 33/33/118 31/31/119 30/29/120
f 32/32/121 34/34/122 33/33/123
f 34/34/124 35/35/125 33/33/126
f 34/34/127 36/36/128 35/35/129
f 36/36/130 37/37/131 35/35/132
f 28/30/133 31/31/134 26/18/135
f 31/31/136 27/19/137 26/18/138
f 33/33/139 16/22/140 31/31/141
f 16/22/142 27/19/143 31/31/144
f 35/35/145 15/38/146 33/33/147
f 15/38/148 16/22/149 33/33/150
f 37/37/151 6/39/152 35/35/153
f 6/39/154 15/38/155 35/35/156
f 40/40/157 38/41/158 41/42/159
f 38/41/160 39/43/161 41/42/162
f 42/44/163 43/45/164 41/42/165
f 43/45/166 40/40/167 41/42/168
f 44/46/169 43/45/170 45/47/171
f 43/45/172 42/44/173 45/47/174
f 46/48/175 44/46/176 47/49/177
f 44/46/178 45/47/179 47/49/180
f 40/40/181 21/13/182 38/41/183
f 21/13/184 19/11/185 38/41/186
f 43/45/187 23/15/188 40/40/189
f 23/15/190 21/13/191 40/40/192
f 44/46/193 24/16/194 43/45/195
f 24/16/196 23/15/197 43/45/198
f 44/46/199 46/48/200 24/16/201
f 46/48/202 26/18/203 24/16/204
f 48/50/205 50/51/206 49/52/207
f 50/51/208 51/53/209 49/52/210
f 50/51/211 29/28/212 51/53/213
f 29/28/214 28/30/215 51/53/216
f 51/53/217 46/48/218 49/52/219
f 46/48/220 47/49/221 49/52/222
f 28/30/223 26/18/224 51/53/225
f 26/18/226 46/48/227 51/53/228
f 41/42/229 39/43/230 53/54/231 52/55/232
f 42/44/233 41/42/234 52/55/235 54/56/236
f 45/47/237 42/44/238 54/56/239 55/57/240
f 47/49/241 45/47/242 55/57/243 56/58/244
f 48/50/245 49/52/246 57/59/247 58/60/248
f 49/52/249 47/49/250 56/58/251 57/59/252
f 30/29/253 29/28/254 59/63/255
f 32/32/256 30/29/257 59/63/258
f 29/28/259 58/60/260 59/63/261
f 7/2/262 1/1/263 60/64/264
f 19/11/265 60/64/266 53/54/267
f 17/10/268 7/2/269 60/64/270
f 2/27/271 1/1/272 60/64/273
f 53/54/274 39/43/275 38/41/276 19/11/277
f 34/34/278 32/32/279 59/63/280 36/36/281
f 60/64/282 1/1/283 2/27/284
f 58/60/285 29/28/286 50/51/287 48/50/288
f 19/11/289 17/10/290 60/64/291
f 65/69/292 66/70/293 67/71/294 68/72/295
f 69/73/296 70/74/297 71/75/298 72/76/299
f 70/74/300 73/77/301 74/78/302 71/75/303
f 73/77/304 75/79/305 76/80/306 74/78/307
f 75/79/308 69/73/309 72/76/310 76/80/311
f 66/81/312 65/82/313 72/76/314 71/75/315
f 67/83/316 66/81/317 71/75/318 74/78/319
f 63/84/320 64/85/321 70/74/322 69/73/323
f 64/85/324 62/86/325 73/77/326 70/74/327
f 62/86/328 61/87/329 75/79/330 73/77/331
f 67/83/332 74/78/333 76/80/334 68/88/335
f 61/87/336 63/84/337 69/73/338 75/79/339
f 68/88/340 76/80/341 72/76/342 65/82/343
f 77/89/344 78/90/345 80/91/346 79/92/347
f 79/92/348 80/91/349 82/93/350 81/94/351
f 83/95/352 84/96/353 78/90/354 77/89/355
f 78/90/356 84/96/357 82/93/358 80/91/359
f 87/97/360 88/98/361 90/99/362 89/100/363
f 90/99/364 92/101/365 91/102/366 89/100/367
f 91/102/368 92/101/369 86/103/370 85/104/371
f 86/103/372 92/101/373 90/99/374 88/98/375
f 84/96/376 83/95/377 81/94/378 82/93/379
f 79/92/380 81/94/381 83/95/382 77/89/383
f 91/102/384 85/104/385 87/97/386 89/100/387
f 88/98/388 87/97/389 85/104/390 86/103/391
