# This file uses centimeters as units for non-parametric coordinates.

v 0.000000 0.000000 0.000000
v 1.038971 2.127304 -1.038818
v 124.999832 0.000000 0.000000
v 0.000000 0.000000 -125.000000
v 125.230103 2.257681 -125.009766
v 3.040314 2.979021 -123.547974
v 121.905960 3.794718 -2.379150
v 123.490768 3.061991 -123.385620
v 2.379150 4.599648 -36.655273
v 33.557892 4.599648 -2.379150
v 5.995636 4.599648 -17.602539
v 13.796539 4.599648 -7.642822
v 98.390060 3.794718 -121.906128
v 121.905960 3.794718 -97.315063
v 109.831238 3.794718 -119.918823
v 117.975632 4.599648 -112.614746
v 13.164063 3.794718 -121.906128
v 2.379150 3.794718 -117.410889
v 39.657745 3.794718 -121.906128
v 56.981049 3.794718 -121.906128
v 46.622467 4.599648 -119.774780
v 46.583405 3.249617 -123.003540
vt 0.361684 0.912696
vt 0.361223 0.912963
vt 0.361238 0.912940
vt 0.361533 0.912760
vt 0.361680 0.912689
vt 0.360840 0.912567
vt 0.361256 0.912401
vt 0.361258 0.912397
vt 0.361274 0.912402
vt 0.361463 0.912528
vt 0.360947 0.912525
vt 0.360911 0.912548
vt 0.360850 0.912565
vt 0.361600 0.912691
vt 0.361576 0.912622
vt 0.361131 0.912452
vt 0.361147 0.912442
vt 0.361229 0.912407
vt 0.360924 0.912626
vt 0.361121 0.912452
vt 0.360899 0.912575
vt 0.361090 0.912465
vn 0.001973 0.484737 0.874658
vn 0.001973 0.484737 0.874658
vn 0.001973 0.484737 0.874658
vn 0.001973 0.484737 0.874658
vn 0.001973 0.484737 0.874658
vn -0.870938 0.491356 -0.005995
vn -0.870938 0.491356 -0.005995
vn -0.870938 0.491356 -0.005995
vn -0.870938 0.491356 -0.005995
vn -0.870938 0.491356 -0.005995
vn -0.870938 0.491356 -0.005995
vn 0.021621 0.991987 -0.124474
vn 0.021621 0.991987 -0.124474
vn 0.021621 0.991987 -0.124474
vn -0.135820 0.985006 0.106381
vn -0.135820 0.985006 0.106381
vn -0.135820 0.985006 0.106381
vn -0.291461 0.954981 0.055324
vn -0.291461 0.954981 0.055324
vn -0.291461 0.954982 0.055324
vn -0.063786 0.968806 0.239471
vn -0.063786 0.968806 0.239471
vn -0.063786 0.968806 0.239471
vn -0.018539 0.999679 -0.017250
vn -0.018539 0.999679 -0.017250
vn -0.018539 0.999679 -0.017250
vn -0.018539 0.999679 -0.017250
vn -0.018539 0.999679 -0.017250
vn 0.648155 0.761466 0.008026
vn 0.648155 0.761466 0.008026
vn 0.648155 0.761466 0.008026
vn 0.648155 0.761466 0.008026
vn 0.648155 0.761466 0.008026
vn -0.011573 0.638619 -0.769436
vn -0.011573 0.638619 -0.769436
vn -0.011573 0.638619 -0.769436
vn 0.246239 0.969132 -0.012269
vn 0.246239 0.969132 -0.012269
vn 0.246239 0.969132 -0.012269
vn 0.019832 0.991139 -0.131340
vn 0.019832 0.991139 -0.131340
vn 0.019832 0.991139 -0.131340
vn -0.057356 0.988825 -0.137606
vn -0.057356 0.988825 -0.137606
vn -0.057356 0.988825 -0.137606
vn -0.007662 0.922604 -0.385673
vn -0.007662 0.922604 -0.385673
vn -0.007662 0.922604 -0.385673
vn 0.011465 0.922488 -0.385856
vn 0.011465 0.922488 -0.385856
vn 0.011465 0.922488 -0.385856
vn 0.010737 0.989257 -0.145791
vn 0.010737 0.989257 -0.145791
vn 0.010737 0.989257 -0.145791
vn 0.010737 0.989257 -0.145791
vn 0.010737 0.989257 -0.145791
vn 0.016329 0.999844 0.006719
vn 0.016329 0.999844 0.006719
vn 0.016329 0.999844 0.006719
vn 0.016329 0.999844 0.006719
vn 0.000000 1.000000 0.000000
vn 0.000000 1.000000 0.000000
vn 0.000000 1.000000 0.000000
vn 0.000000 1.000000 0.000000
vn 0.000000 1.000000 0.000000
vn 0.000000 1.000000 0.000000
vn 0.005214 0.664542 -0.747233
vn 0.005214 0.664542 -0.747232
vn 0.005214 0.664542 -0.747233
vn 0.005214 0.664542 -0.747233
vn 0.005214 0.664542 -0.747233
vn -0.000016 0.895985 -0.444085
vn -0.000016 0.895985 -0.444085
vn -0.000016 0.895985 -0.444085
vn -0.000016 0.895985 -0.444085
vn -0.000016 0.895985 -0.444085
s off
f 1/1/1 3/2/2 7/3/3 10/4/4 2/5/5
f 18/9/6 6/8/7 4/7/8 1/1/9 2/5/10 9/10/11
f 13/11/12 15/12/13 8/13/14
f 2/5/15 12/14/16 11/15/17
f 2/5/18 11/15/19 9/10/20
f 2/5/21 10/4/22 12/14/23
f 9/10/24 21/16/25 19/17/26 17/18/27 18/9/28
f 8/13/29 14/19/30 7/3/31 3/2/32 5/6/33
f 4/7/34 22/20/35 5/6/36
f 8/13/37 16/21/38 14/19/39
f 8/13/40 15/12/41 16/21/42
f 18/9/43 17/18/44 6/8/45
f 22/20/46 21/16/47 20/22/48
f 19/17/49 21/16/50 22/20/51
f 21/16/52 16/21/53 15/12/54 13/11/55 20/22/56
f 16/21/57 10/4/58 7/3/59 14/19/60
f 9/10/61 11/15/62 12/14/63 10/4/64 16/21/65 21/16/66
f 6/8/67 17/18/68 19/17/69 22/20/70 4/7/71
f 5/6/72 22/20/73 20/22/74 13/11/75 8/13/76
