# This file uses centimeters as units for non-parametric coordinates.

v 144.206787 -8.587494 -75.542969
v 130.456787 -8.587494 -61.792969
v 144.206787 8.587494 -75.542969
v 130.456787 8.587494 -61.792969
v 144.206787 8.587494 75.542969
v 130.456787 8.587494 61.792969
v 144.206787 -8.587494 75.542969
v 130.456787 -8.587494 61.792969
v 6.872803 -8.587494 -61.792969
v -6.877197 -8.587494 -75.542969
v 6.872803 8.587494 -61.792969
v -6.877197 8.587494 -75.542969
v 6.872803 8.587494 61.792969
v -6.877197 8.587494 75.542969
v 6.872803 -8.587494 61.792969
v -6.877197 -8.587494 75.542969
v 6.874756 8.587494 -36.585938
v 6.870850 8.587494 -10.011719
v 1.486084 8.587494 -24.976563
v 6.872803 4.743622 -24.632813
v -6.877197 8.587494 40.253906
v -6.877197 8.587494 52.972656
v -2.617432 8.587494 47.105469
v -6.877197 4.981628 47.796875
v -6.877441 -8.587494 5.207031
v 144.206543 8.587494 -18.845703
v 130.456787 8.587494 36.097656
v 130.456787 8.587494 55.230469
v 133.759521 8.587494 43.945313
v 130.456787 5.300537 44.234375
v 144.206787 -8.587494 42.457031
v 144.206787 -8.587463 16.929688
v 144.206787 -3.646576 33.718750
v 140.964600 -8.587494 31.851563
v 139.074951 -3.754333 68.664063
v -0.000244 -3.754333 68.664063
v 139.074951 -3.754333 -70.242188
v -0.000244 -3.754333 -70.242188
v 139.074951 4.733948 -70.242188
v -0.000244 4.733948 -70.242188
v 139.074951 4.733948 68.664063
v -0.000244 4.733948 68.664063
v 13.775146 8.587494 75.542969
v 46.358643 7.626526 63.138672
v 110.662842 8.587494 75.542969
v 123.383545 8.587494 75.542969
v 117.517334 8.587494 71.281250
v 118.207764 4.981628 75.542969
v 86.209717 -8.587494 75.542969
v 68.194092 -8.587494 75.542969
v 73.801514 -3.793060 75.542969
v 74.262451 -8.587494 71.773438
v 47.167725 8.587494 -75.542969
v 81.826904 8.587494 -75.542969
v 72.854248 8.587494 -70.406250
v 57.419678 8.587494 -70.593750
v 64.774170 3.929749 -75.542969
v 106.508545 8.587494 -61.792969
v 125.643311 8.587494 -61.792969
v 114.356201 8.587494 -65.093750
v 114.646240 5.300537 -61.792969
v 28.444092 8.587494 -75.542969
v 40.643311 8.587494 -75.542969
v 35.387451 8.587494 -71.183594
v 35.572998 4.566345 -75.542969
v 112.866943 -8.587494 -75.542969
v 87.340576 -8.587463 -75.542969
v 104.129639 -3.646576 -75.542969
v 102.262451 -8.587494 -72.300781
vt 0.197076 0.278592
vt 0.197255 0.278604
vt 0.197196 0.278632
vt 0.197160 0.278640
vt 0.197098 0.278636
vt 0.197180 0.278684
vt 0.197329 0.278603
vt 0.197272 0.278600
vt 0.197259 0.278628
vt 0.197300 0.278610
vt 0.197819 0.278501
vt 0.197822 0.278548
vt 0.197313 0.278578
vt 0.197581 0.278497
vt 0.197978 0.279105
vt 0.198022 0.279173
vt 0.197775 0.279182
vt 0.197834 0.279138
vt 0.197977 0.279139
vt 0.197617 0.279293
vt 0.198073 0.279194
vt 0.197361 0.279335
vt 0.197402 0.279318
vt 0.197280 0.279301
vt 0.197767 0.279161
vt 0.197682 0.279173
vt 0.197261 0.279270
vt 0.197357 0.279303
vt 0.197326 0.279336
vt 0.197191 0.279367
vt 0.197212 0.279396
vt 0.197404 0.278572
vt 0.197876 0.278473
vt 0.197874 0.278426
vt 0.197855 0.278570
vt 0.197824 0.278523
vt 0.197910 0.278662
vt 0.197913 0.278611
vt 0.197838 0.278581
vt 0.197847 0.278610
vt 0.197924 0.278637
vt 0.197974 0.278803
vt 0.197952 0.278710
vt 0.197173 0.279251
vt 0.197220 0.279060
vt 0.197168 0.278963
vt 0.197152 0.278998
vt 0.197142 0.278959
vt 0.197099 0.278722
vt 0.197099 0.278749
vt 0.197118 0.278712
vt 0.197090 0.278689
vt 0.197139 0.278909
vt 0.197936 0.278759
vt 0.197958 0.278834
vt 0.197999 0.278879
vt 0.198014 0.278946
vt 0.197991 0.278944
vt 0.198008 0.278912
vt 0.198025 0.278974
vt 0.197945 0.278727
vt 0.069739 0.596977
vt 0.148095 0.596977
vt 0.027466 1.340252
vt 0.341357 1.340252
vt 0.341357 1.063322
vt 0.027466 1.063322
vt 0.069739 0.527848
vt 0.148095 0.527848
vn 0.000000 1.000000 0.000000
vn 0.000000 1.000000 0.000000
vn 0.000000 1.000000 0.000000
vn 0.000000 1.000000 0.000000
vn 0.000000 -1.000000 0.000000
vn 0.000000 -1.000000 0.000000
vn 0.000000 -1.000000 0.000000
vn 0.000000 -1.000000 0.000000
vn -1.000000 0.000000 0.000000
vn -1.000000 0.000000 0.000000
vn -1.000000 0.000000 0.000000
vn -1.000000 0.000000 0.000000
vn -1.000000 0.000000 0.000000
vn -1.000000 0.000000 0.000000
vn -1.000000 0.000000 0.000000
vn 1.000000 0.000009 -0.000003
vn 1.000000 0.000009 -0.000003
vn 1.000000 0.000009 -0.000003
vn 0.000000 1.000000 -0.000000
vn 0.000000 1.000000 -0.000000
vn 0.000000 1.000000 -0.000000
vn 0.000000 1.000000 -0.000000
vn 0.000000 -1.000000 0.000000
vn 0.000000 -1.000000 0.000000
vn 0.000000 -1.000000 0.000000
vn -1.000000 0.000013 0.000000
vn -1.000000 0.000013 0.000000
vn -1.000000 0.000013 0.000000
vn -1.000000 0.000013 0.000000
vn 1.000000 0.000096 -0.000004
vn 1.000000 0.000096 -0.000004
vn 1.000000 0.000096 -0.000004
vn 1.000000 0.000096 -0.000004
vn 0.576948 0.789957 -0.207602
vn 0.576948 0.789957 -0.207602
vn 0.576948 0.789957 -0.207602
vn 0.550701 0.794600 0.255616
vn 0.550701 0.794600 0.255616
vn 0.550701 0.794600 0.255616
vn -0.569990 0.741303 0.354375
vn -0.569990 0.741303 0.354375
vn -0.569990 0.741303 0.354375
vn -0.618611 0.644672 -0.449131
vn -0.618611 0.644672 -0.449131
vn -0.618611 0.644672 -0.449131
vn 0.000000 1.000000 0.000000
vn 0.000000 1.000000 0.000000
vn 0.000000 1.000000 0.000000
vn 0.000000 1.000000 0.000000
vn 0.000000 1.000000 0.000000
vn 0.000000 1.000000 0.000000
vn 0.000000 1.000000 0.000000
vn 0.000000 1.000000 0.000000
vn 0.000000 1.000000 0.000000
vn 0.000000 1.000000 0.000000
vn 0.000000 1.000000 0.000000
vn 0.000000 1.000000 0.000000
vn -1.000000 0.000000 -0.000003
vn -1.000000 0.000000 -0.000003
vn -1.000000 0.000000 -0.000003
vn -1.000000 0.000000 0.000000
vn -1.000000 0.000000 0.000000
vn -1.000000 0.000000 0.000000
vn -1.000000 0.000000 0.000000
vn -1.000000 0.000007 0.000003
vn -1.000000 0.000007 0.000003
vn -1.000000 0.000007 0.000003
vn 0.000000 -1.000000 0.000000
vn 0.000000 -1.000000 0.000000
vn 0.000000 -1.000000 0.000000
vn 0.000000 -1.000000 0.000000
vn 0.000000 -1.000000 0.000000
vn 0.000000 -1.000000 0.000000
vn 1.000000 -0.000099 -0.000010
vn 1.000000 -0.000099 -0.000010
vn 1.000000 -0.000099 -0.000010
vn 1.000000 -0.000099 -0.000010
vn 1.000000 0.000000 0.000000
vn 1.000000 0.000000 0.000000
vn 1.000000 0.000000 0.000000
vn -0.664826 0.692619 0.279796
vn -0.664826 0.692619 0.279796
vn -0.664826 0.692619 0.279796
vn -0.699416 0.684776 -0.204692
vn -0.699416 0.684776 -0.204692
vn -0.699416 0.684776 -0.204692
vn 0.849480 -0.459285 -0.259694
vn 0.849480 -0.459285 -0.259694
vn 0.849480 -0.459285 -0.259694
vn 0.792480 -0.585087 0.172187
vn 0.792480 -0.585087 0.172187
vn 0.792480 -0.585087 0.172187
vn 0.000002 -1.000000 0.000000
vn 0.000002 -1.000000 0.000000
vn 0.000002 -1.000000 0.000000
vn 0.000002 -1.000000 0.000000
vn 0.000000 -1.000000 0.000000
vn 0.000000 -1.000000 0.000000
vn 0.000000 -1.000000 0.000000
vn 1.000000 -0.000000 0.000000
vn 1.000000 -0.000000 0.000000
vn 1.000000 -0.000000 0.000000
vn 1.000000 -0.000000 0.000000
vn 1.000000 0.000000 0.000004
vn 1.000000 0.000000 0.000004
vn 1.000000 0.000000 0.000004
vn 1.000000 0.000013 -0.000001
vn 1.000000 0.000013 -0.000001
vn 1.000000 0.000013 -0.000001
vn 1.000000 0.000013 -0.000001
vn 0.000000 1.000000 0.000000
vn 0.000000 1.000000 0.000000
vn 0.000000 1.000000 0.000000
vn 0.000000 1.000000 0.000000
vn 0.000000 1.000000 -0.000000
vn 0.000000 1.000000 -0.000000
vn 0.000000 1.000000 -0.000000
vn 0.000000 1.000000 0.000000
vn 0.000000 1.000000 0.000000
vn 0.000000 1.000000 0.000000
vn 0.000000 1.000000 0.000000
vn 0.000000 1.000000 0.000000
vn 0.000000 1.000000 0.000000
vn 0.000000 1.000000 0.000000
vn 0.000000 -1.000000 0.000000
vn 0.000000 -1.000000 0.000000
vn 0.000000 -1.000000 0.000000
vn 0.000000 -1.000000 0.000000
vn 0.000000 0.000000 1.000000
vn 0.000000 0.000000 1.000000
vn 0.000000 0.000000 1.000000
vn 0.000000 0.000000 1.000000
vn 0.000000 0.000000 1.000000
vn 0.000000 0.000000 1.000000
vn 0.000000 0.000000 1.000000
vn 0.000000 0.000000 -1.000000
vn 0.000000 0.000000 -1.000000
vn 0.000000 0.000000 -1.000000
vn 0.000000 0.000000 -1.000000
vn 0.016158 0.999837 -0.008111
vn 0.016158 0.999837 -0.008111
vn 0.016158 0.999837 -0.008111
vn 0.016158 0.999837 -0.008111
vn 0.000000 -1.000000 -0.000000
vn 0.000000 -1.000000 -0.000000
vn 0.000000 -1.000000 -0.000000
vn 0.000000 -1.000000 -0.000000
vn 0.000000 0.000000 1.000000
vn 0.000000 0.000000 1.000000
vn 0.000000 0.000000 1.000000
vn 0.000000 0.000000 1.000000
vn -0.016000 0.000000 -0.999872
vn -0.016000 0.000000 -0.999872
vn -0.016000 0.000000 -0.999872
vn 0.000000 1.000000 0.000000
vn 0.000000 1.000000 0.000000
vn 0.000000 1.000000 0.000000
vn 0.000000 1.000000 0.000000
vn 0.000000 -1.000000 0.000000
vn 0.000000 -1.000000 0.000000
vn 0.000000 -1.000000 0.000000
vn 0.000000 -1.000000 0.000000
vn 0.354328 0.741397 0.569897
vn 0.354328 0.741397 0.569897
vn 0.354328 0.741397 0.569897
vn -0.449239 0.644826 0.618372
vn -0.449239 0.644826 0.618372
vn -0.449239 0.644826 0.618372
vn 0.449037 -0.525178 0.722878
vn 0.449037 -0.525178 0.722878
vn 0.449037 -0.525178 0.722878
vn -0.237402 -0.614405 0.752427
vn -0.237402 -0.614405 0.752427
vn -0.237402 -0.614405 0.752427
vn -0.011679 0.999805 -0.015928
vn -0.011679 0.999805 -0.015928
vn -0.011679 0.999805 -0.015928
vn -0.002618 0.997963 -0.063739
vn -0.002618 0.997963 -0.063739
vn -0.002618 0.997963 -0.063739
vn -0.002618 0.997963 -0.063739
vn 0.000000 1.000000 0.000000
vn 0.000000 1.000000 0.000000
vn 0.000000 1.000000 0.000000
vn 0.000000 1.000000 0.000000
vn 0.000000 0.000000 1.000000
vn 0.000000 0.000000 1.000000
vn 0.000000 0.000000 1.000000
vn 0.000000 0.000000 1.000000
vn 0.000000 0.000000 1.000000
vn 0.000000 0.000000 1.000000
vn 0.000000 0.000000 1.000000
vn 0.000000 0.000000 1.000000
vn 0.000000 0.000000 1.000000
vn 0.000000 0.000000 1.000000
vn 0.000000 0.000000 1.000000
vn 0.000000 0.000000 1.000000
vn 0.000000 0.000000 1.000000
vn 0.000000 -1.000000 -0.000000
vn 0.000000 -1.000000 -0.000000
vn 0.000000 -1.000000 -0.000000
vn 0.000000 -1.000000 -0.000000
vn 0.000000 -1.000000 0.000000
vn 0.000000 -1.000000 0.000000
vn 0.000000 -1.000000 0.000000
vn 0.034061 0.000000 -0.999420
vn 0.034061 0.000000 -0.999420
vn 0.034061 0.000000 -0.999420
vn 0.000000 0.082712 -0.996574
vn 0.000000 0.082712 -0.996574
vn 0.000000 0.082712 -0.996574
vn -0.239352 0.876305 -0.418092
vn -0.239352 0.876305 -0.418092
vn -0.239352 0.876305 -0.418092
vn 0.008246 0.734287 -0.678789
vn 0.008246 0.734287 -0.678789
vn 0.008246 0.734287 -0.678789
vn 0.225996 0.854270 -0.468133
vn 0.225996 0.854270 -0.468133
vn 0.225996 0.854270 -0.468133
vn 0.279706 0.692483 0.665005
vn 0.279706 0.692483 0.665005
vn 0.279706 0.692483 0.665005
vn -0.204608 0.684550 0.699662
vn -0.204608 0.684550 0.699662
vn -0.204608 0.684550 0.699662
vn -0.497304 0.627057 -0.599573
vn -0.497304 0.627057 -0.599573
vn -0.497304 0.627057 -0.599573
vn 0.386916 0.685946 -0.616258
vn 0.386916 0.685946 -0.616258
vn 0.386916 0.685946 -0.616258
vn -0.259718 -0.459273 -0.849479
vn -0.259718 -0.459273 -0.849479
vn -0.259718 -0.459273 -0.849479
vn 0.172187 -0.585088 -0.792479
vn 0.172187 -0.585088 -0.792479
vn 0.172187 -0.585088 -0.792479
vn 0.000000 -1.000000 -0.000002
vn 0.000000 -1.000000 -0.000002
vn 0.000000 -1.000000 -0.000002
vn 0.000000 -1.000000 -0.000002
vn 0.000000 -1.000000 -0.000000
vn 0.000000 -1.000000 -0.000000
vn 0.000000 -1.000000 -0.000000
vn -0.000000 0.000000 -1.000000
vn -0.000000 0.000000 -1.000000
vn -0.000000 0.000000 -1.000000
vn -0.000000 0.000000 -1.000000
vn -0.000000 0.000000 -1.000000
vn -0.000000 0.000000 -1.000000
vn -0.000000 0.000000 -1.000000
vn -0.000000 0.000000 -1.000000
vn 0.000000 0.000000 -1.000000
vn 0.000000 0.000000 -1.000000
vn 0.000000 0.000000 -1.000000
vn 0.000000 0.000000 -1.000000
vn 0.000000 0.000000 -1.000000
vn 0.000000 0.000000 -1.000000
vn 0.000000 0.000000 -1.000000
vn 0.000000 0.000000 -1.000000
vn 0.000000 0.000000 -1.000000
vn 0.000000 1.000000 -0.000000
vn 0.000000 1.000000 -0.000000
vn 0.000000 1.000000 -0.000000
vn 0.000000 1.000000 -0.000000
vn 0.000000 1.000000 -0.000000
vn 0.000000 1.000000 -0.000000
vn 0.000000 1.000000 0.000000
vn 0.000000 1.000000 0.000000
vn 0.000000 1.000000 0.000000
vn 0.000000 1.000000 0.000000
vn 0.000000 1.000000 -0.000000
vn 0.000000 1.000000 -0.000000
vn 0.000000 1.000000 -0.000000
vn 0.000000 1.000000 -0.000000
vn 0.000000 1.000000 0.000000
vn 0.000000 1.000000 0.000000
vn 0.000000 1.000000 0.000000
vn 0.000000 1.000000 0.000000
s off
f 5/1/1 29/2/2 28/3/3 6/4/4
f 7/5/5 8/6/6 34/7/7 31/8/8
f 6/4/9 28/3/10 30/9/11 27/10/12 4/11/13 2/12/14 8/6/15
f 33/13/16 26/14/17 5/1/18
f 11/15/19 12/16/20 19/17/21 17/18/22
f 9/19/23 25/20/24 10/21/25
f 25/20/26 24/22/27 21/23/28 12/16/29
f 15/24/30 20/25/31 18/26/32 13/27/33
f 18/26/34 20/25/35 19/17/36
f 19/17/37 20/25/38 17/18/39
f 24/22/40 23/28/41 21/23/42
f 22/29/43 23/28/44 24/22/45
f 19/17/46 23/28/47 13/27/48 18/26/49
f 19/17/50 12/16/51 21/23/52 23/28/53
f 13/27/54 23/28/55 22/29/56 14/30/57
f 25/20/58 12/16/59 10/21/60
f 14/30/61 22/29/62 24/22/63 16/31/64
f 16/31/65 24/22/66 25/20/67
f 15/24/68 16/31/69 25/20/70
f 15/24/71 25/20/72 9/19/73
f 9/19/74 11/15/75 17/18/76 20/25/77
f 9/19/78 20/25/79 15/24/80
f 27/10/81 30/9/82 29/2/83
f 29/2/84 30/9/85 28/3/86
f 31/8/87 34/7/88 33/13/89
f 33/13/90 34/7/91 32/32/92
f 34/7/93 2/12/94 1/33/95 32/32/96
f 34/7/97 8/6/98 2/12/99
f 33/13/100 5/1/101 7/5/102 31/8/103
f 1/33/104 3/34/105 26/14/106
f 1/33/107 26/14/108 33/13/109 32/32/110
f 26/14/111 4/11/112 27/10/113 29/2/114
f 26/14/115 29/2/116 5/1/117
f 3/34/118 4/11/119 26/14/120
f 3/34/121 60/35/122 59/36/123 4/11/124
f 1/33/125 2/12/126 69/37/127 66/38/128
f 4/11/129 59/36/130 61/39/131 58/40/132 11/15/133 9/19/134 2/12/135
f 68/41/136 57/42/137 54/43/138 3/34/139
f 13/27/140 14/30/141 43/44/142 44/45/143
f 15/24/144 52/46/145 50/47/146 16/31/147
f 51/48/148 48/49/149 45/50/150 43/44/151
f 8/6/152 44/45/153 6/4/154
f 39/64/155 40/65/156 42/66/157 41/67/158
f 35/68/159 36/69/160 38/63/161 37/62/162
f 48/49/163 47/51/164 45/50/165
f 46/52/166 47/51/167 48/49/168
f 50/47/169 52/46/170 51/48/171
f 51/48/172 52/46/173 49/53/174
f 44/45/175 47/51/176 6/4/177
f 44/45/178 43/44/179 45/50/180 47/51/181
f 6/4/182 47/51/183 46/52/184 5/1/185
f 51/48/186 43/44/187 14/30/188 16/31/189 50/47/190
f 5/1/191 46/52/192 48/49/193 7/5/194
f 7/5/195 48/49/196 51/48/197 49/53/198
f 8/6/199 7/5/200 49/53/201 52/46/202
f 8/6/203 52/46/204 15/24/205
f 15/24/206 13/27/207 44/45/208
f 15/24/209 44/45/210 8/6/211
f 57/42/212 55/54/213 54/43/214
f 57/42/215 56/55/216 55/54/217
f 53/56/218 56/55/219 57/42/220
f 58/40/221 61/39/222 60/35/223
f 60/35/224 61/39/225 59/36/226
f 65/57/227 64/58/228 63/59/229
f 62/60/230 64/58/231 65/57/232
f 66/38/233 69/37/234 68/41/235
f 68/41/236 69/37/237 67/61/238
f 69/37/239 9/19/240 10/21/241 67/61/242
f 69/37/243 2/12/244 9/19/245
f 68/41/246 3/34/247 1/33/248 66/38/249
f 57/42/250 65/57/251 63/59/252 53/56/253
f 10/21/254 12/16/255 62/60/256 65/57/257
f 10/21/258 65/57/259 57/42/260 68/41/261 67/61/262
f 64/58/263 11/15/264 58/40/265 60/35/266 55/54/267 56/55/268
f 55/54/269 60/35/270 3/34/271 54/43/272
f 64/58/273 56/55/274 53/56/275 63/59/276
f 12/16/277 11/15/278 64/58/279 62/60/280
