# This file uses centimeters as units for non-parametric coordinates.

v -0.006104 22.112808 -250.000000
v -0.006104 22.178841 0.000000
v -8.805542 -9.280357 -250.000000
v -8.805542 -9.280357 0.000000
v -10.115967 -8.121262 -41.644363
v -9.652100 -6.178246 -83.337250
v -10.211792 -8.835754 -125.001831
v -9.860229 -7.323303 -166.658081
v -9.644775 -6.090126 -208.333374
v -10.364990 0.921822 -229.166565
v -10.863037 -1.343956 -184.762634
v -10.419312 0.416565 -145.838318
v -10.876465 -1.368294 -104.171295
v -10.764771 -0.668259 -20.833359
v -13.574219 -2.790260 -250.000000
v -13.651733 5.859489 -229.166565
v -13.574219 -2.790260 -208.333374
v -13.574219 -2.790260 0.000000
v -14.578857 4.221687 -20.833359
v -13.571777 -2.741165 -83.389587
v -14.332886 5.520020 -62.500763
v -13.442383 -1.860733 -124.981003
v -14.575195 4.241982 -104.166946
v -12.975464 -0.505791 -166.637939
v -14.520264 4.616165 -145.838257
v -14.651489 3.836823 -183.057861
v -13.187866 -3.566628 -41.646347
v -10.757446 -10.048218 -81.965027
v -11.907959 -4.931183 -62.271118
v -17.183838 -0.898781 -62.500153
v -15.492554 -7.225037 -81.937485
v -11.086426 -11.430511 -43.018494
v -15.126953 -8.010597 -43.097458
v 9.752808 -9.280357 0.000000
v 9.752808 -9.280357 -250.000000
v 11.063232 -8.121262 -208.355652
v 10.599976 -6.178246 -166.662750
v 11.159058 -8.835754 -124.998169
v 10.807495 -7.323303 -83.341904
v 10.592041 -6.090126 -41.666718
v 11.312256 0.921822 -20.833282
v 11.810303 -1.343956 -65.237350
v 11.366577 0.416565 -104.161682
v 11.823730 -1.368294 -145.828705
v 11.712036 -0.668259 -229.166626
v 14.346924 -2.790260 -0.000076
v 14.424438 5.859489 -20.833282
v 14.346924 -2.790260 -41.666641
v 14.346924 -2.790260 -250.000000
v 15.351563 4.221687 -229.166626
v 14.344482 -2.741165 -166.610474
v 15.105591 5.520020 -187.499237
v 14.215088 -1.860733 -125.018997
v 15.347290 4.241982 -145.833130
v 13.748169 -0.505791 -83.362045
v 15.292969 4.616165 -104.161758
v 15.423584 3.836823 -66.942139
v 13.960571 -3.566628 -208.353516
v 11.625977 -10.044746 -167.844086
v 13.298950 -7.478065 -187.731079
v 18.599243 -2.662277 -187.499756
v 16.525269 -7.906876 -168.101501
v 11.770020 -11.271324 -207.172546
v 16.056519 -8.229637 -206.863861
v -3.157959 31.444702 -0.183182
v -3.385010 37.916183 -20.833359
v -3.070679 31.365776 -41.664810
v -3.329468 38.048210 -62.500076
v -3.157349 31.449699 -83.339081
v -3.383789 37.918243 -104.166718
v -3.128052 31.539230 -124.998093
v -3.371582 37.956314 -145.833893
v -3.023071 31.676979 -166.663818
v -3.400879 37.877045 -187.048340
v -3.157959 31.444702 -208.333374
v -3.175659 38.082733 -229.166809
v -3.157959 31.444702 -249.816895
v 3.145752 31.444588 -249.816895
v 3.372803 37.916069 -229.166626
v 3.058472 31.365662 -208.335327
v 3.317261 38.048096 -187.499939
v 3.145142 31.449585 -166.660828
v 3.371582 37.918129 -145.833191
v 3.116455 31.539116 -125.001907
v 3.359375 37.956200 -104.166107
v 3.010864 31.676903 -83.336182
v 3.388672 37.876968 -62.951660
v 3.145752 31.444626 -41.666641
v 3.163452 38.082619 -20.833282
v 3.145752 31.444588 -0.183105
v 1.696777 12.369690 -207.879272
v 1.696777 12.369690 -166.172119
v 0.206299 12.369690 -135.416718
v -1.284790 12.369690 -83.094864
v -1.657104 12.369690 -42.142258
vt 0.239109 0.300562
vt 0.238702 0.276351
vt 0.239027 0.289260
vt 0.239022 0.302673
vt 0.238931 0.302665
vt 0.238966 0.302644
vt 0.238573 0.277062
vt 0.238591 0.277062
vt 0.238635 0.269724
vt 0.238655 0.302558
vt 0.238700 0.302557
vt 0.238724 0.302558
vt 0.238771 0.277134
vt 0.238849 0.284883
vt 0.238798 0.277136
vt 0.238848 0.302635
vt 0.238879 0.289219
vt 0.238878 0.302638
vt 0.238701 0.289137
vt 0.238701 0.289161
vt 0.238771 0.302583
vt 0.238772 0.289163
vt 0.238700 0.302582
vt 0.238931 0.302640
vt 0.238932 0.287921
vt 0.238725 0.289138
vt 0.238966 0.289225
vt 0.238641 0.270420
vt 0.238641 0.295893
vt 0.238635 0.295198
vt 0.238932 0.287946
vt 0.238848 0.277161
vt 0.238849 0.259409
vt 0.238772 0.263714
vt 0.238581 0.263647
vt 0.238593 0.263641
vt 0.238799 0.261550
vt 0.238701 0.289161
vt 0.238657 0.287405
vt 0.238655 0.302558
vt 0.238700 0.302582
vt 0.238635 0.295198
vt 0.238641 0.295893
vt 0.239027 0.289260
vt 0.239022 0.302673
vt 0.239109 0.300562
vt 0.238966 0.289225
vt 0.238932 0.287921
vt 0.238931 0.302640
vt 0.238966 0.302644
vt 0.238702 0.276351
vt 0.238573 0.277062
vt 0.238581 0.263647
vt 0.238635 0.269724
vt 0.238593 0.263641
vt 0.238591 0.277062
vt 0.238641 0.270420
vt 0.238701 0.289161
vt 0.238657 0.287405
vt 0.238655 0.302558
vt 0.238700 0.302582
vt 0.238700 0.302582
vt 0.238655 0.302558
vt 0.238772 0.289163
vt 0.238725 0.289138
vt 0.238724 0.302558
vt 0.238771 0.302583
vt 0.238849 0.259409
vt 0.238799 0.261550
vt 0.238798 0.277136
vt 0.238848 0.277161
vt 0.238932 0.287946
vt 0.238879 0.289219
vt 0.238878 0.302638
vt 0.238931 0.302665
vt 0.238849 0.284883
vt 0.238848 0.302635
vt 0.238772 0.263714
vt 0.238771 0.277134
vt 0.238701 0.289137
vt 0.238700 0.302557
vt 0.238635 0.295198
vt 0.238641 0.295893
vt 0.238641 0.295893
vt 0.238701 0.289161
vt 0.238635 0.295198
vt 0.238635 0.263493
vt 0.238655 0.263491
vt 0.238699 0.262835
vt 0.238699 0.288308
vt 0.238721 0.288984
vt 0.238766 0.289006
vt 0.238766 0.288981
vt 0.238791 0.288980
vt 0.238839 0.289003
vt 0.238839 0.263554
vt 0.238868 0.263553
vt 0.238918 0.263577
vt 0.238918 0.289051
vt 0.238950 0.289051
vt 0.239003 0.289052
vt 0.239003 0.289077
vt 0.239040 0.289052
vt 0.239096 0.289080
vt 0.238635 0.263493
vt 0.238655 0.263491
vt 0.238699 0.262835
vt 0.238699 0.288308
vt 0.238721 0.288984
vt 0.238766 0.289006
vt 0.238766 0.288981
vt 0.238791 0.288980
vt 0.238839 0.289003
vt 0.238839 0.263554
vt 0.238868 0.263553
vt 0.238918 0.263577
vt 0.238918 0.289051
vt 0.238950 0.289051
vt 0.239003 0.289052
vt 0.239003 0.289077
vt 0.239040 0.289052
vt 0.239096 0.289080
vt 0.238621 0.284679
vt 0.238687 0.288568
vt 0.238749 0.276426
vt 0.238824 0.273216
vt 0.238914 0.288896
vt 0.238949 0.288573
vt 0.238635 0.287341
vt 0.238709 0.289145
vt 0.238786 0.262632
vt 0.238864 0.287051
vn -0.011066 0.006031 -0.999921
vn -0.011066 0.006031 -0.999921
vn -0.011066 0.006031 -0.999921
vn -0.011066 0.006031 -0.999921
vn -0.732531 -0.641707 -0.227182
vn -0.732531 -0.641707 -0.227182
vn -0.732531 -0.641707 -0.227182
vn -0.732531 -0.641707 -0.227182
vn -0.948021 0.298028 0.111515
vn -0.948021 0.298028 0.111515
vn -0.948021 0.298028 0.111515
vn -0.948021 0.298028 0.111515
vn -0.011113 0.006039 0.999920
vn -0.011113 0.006039 0.999920
vn -0.011113 0.006039 0.999920
vn -0.011113 0.006039 0.999920
vn -0.795806 -0.580181 0.173444
vn -0.795806 -0.580181 0.173444
vn -0.795806 -0.580181 0.173444
vn -0.795806 -0.580181 0.173444
vn -0.945642 0.293617 -0.139820
vn -0.945642 0.293617 -0.139820
vn -0.945642 0.293617 -0.139820
vn -0.945642 0.293617 -0.139820
vn -0.556777 -0.807293 0.195645
vn -0.556777 -0.807293 0.195645
vn -0.556777 -0.807293 0.195645
vn -0.556777 -0.807293 0.195645
vn -0.944148 0.303185 -0.129083
vn -0.944149 0.303185 -0.129083
vn -0.944148 0.303185 -0.129083
vn -0.944149 0.303185 -0.129083
vn -0.869718 -0.479094 0.118577
vn -0.869718 -0.479094 0.118577
vn -0.869718 -0.479094 0.118577
vn -0.869718 -0.479094 0.118577
vn -0.945112 0.302987 -0.122322
vn -0.945112 0.302987 -0.122322
vn -0.945112 0.302987 -0.122322
vn -0.945112 0.302987 -0.122322
vn -0.829746 -0.543714 0.126082
vn -0.829746 -0.543714 0.126082
vn -0.829746 -0.543714 0.126082
vn -0.829746 -0.543714 0.126082
vn -0.944258 0.304049 -0.126216
vn -0.944259 0.304049 -0.126216
vn -0.944259 0.304049 -0.126216
vn -0.944259 0.304049 -0.126216
vn -0.721192 -0.681407 0.124765
vn -0.721192 -0.681407 0.124765
vn -0.721192 -0.681407 0.124765
vn -0.721192 -0.681407 0.124765
vn -0.949242 0.294832 -0.109610
vn -0.949242 0.294832 -0.109610
vn -0.949242 0.294832 -0.109610
vn -0.949242 0.294832 -0.109610
vn -0.796799 -0.561662 0.222817
vn -0.796799 -0.561662 0.222817
vn -0.796799 -0.561662 0.222817
vn -0.796799 -0.561662 0.222817
vn -0.947870 0.298288 -0.112103
vn -0.947870 0.298288 -0.112103
vn -0.947870 0.298288 -0.112103
vn -0.947870 0.298288 -0.112103
vn -0.868922 -0.488657 -0.078675
vn -0.868922 -0.488657 -0.078675
vn -0.868922 -0.488657 -0.078675
vn -0.868922 -0.488657 -0.078675
vn -0.940320 0.309630 0.141167
vn -0.940320 0.309630 0.141167
vn -0.940320 0.309630 0.141167
vn -0.940320 0.309630 0.141167
vn -0.822883 -0.539551 -0.178180
vn -0.822883 -0.539551 -0.178180
vn -0.822883 -0.539551 -0.178180
vn -0.822883 -0.539551 -0.178180
vn -0.944642 0.303812 0.123896
vn -0.944642 0.303812 0.123896
vn -0.944642 0.303812 0.123896
vn -0.944642 0.303812 0.123896
vn -0.756992 -0.638176 -0.140338
vn -0.756992 -0.638176 -0.140338
vn -0.756992 -0.638176 -0.140338
vn -0.756992 -0.638176 -0.140338
vn -0.945404 0.300881 0.125227
vn -0.945404 0.300881 0.125227
vn -0.945404 0.300881 0.125227
vn -0.945404 0.300881 0.125227
vn -0.604214 -0.764618 -0.224242
vn -0.604214 -0.764618 -0.224242
vn -0.604214 -0.764618 -0.224242
vn -0.604214 -0.764618 -0.224242
vn -0.944413 0.295715 0.143655
vn -0.944413 0.295715 0.143655
vn -0.944413 0.295715 0.143655
vn -0.944413 0.295715 0.143655
vn -0.787227 -0.593722 -0.166634
vn -0.787227 -0.593722 -0.166634
vn -0.787227 -0.593722 -0.166634
vn -0.787227 -0.593722 -0.166634
vn -0.945258 0.301051 0.125916
vn -0.945259 0.301051 0.125916
vn -0.945259 0.301051 0.125916
vn -0.945258 0.301051 0.125916
vn -0.908472 0.372301 -0.189923
vn -0.908472 0.372301 -0.189923
vn -0.908472 0.372301 -0.189923
vn -0.908472 0.372301 -0.189923
vn -0.181861 -0.255182 -0.949636
vn -0.181861 -0.255182 -0.949636
vn -0.181861 -0.255182 -0.949636
vn -0.181861 -0.255182 -0.949636
vn -0.275435 -0.236200 0.931850
vn -0.275435 -0.236200 0.931850
vn -0.275436 -0.236200 0.931850
vn -0.275435 -0.236200 0.931850
vn -0.903045 0.368800 0.220221
vn -0.903045 0.368800 0.220221
vn -0.903045 0.368800 0.220221
vn -0.903045 0.368800 0.220221
vn 0.010904 0.006265 0.999921
vn 0.010904 0.006265 0.999921
vn 0.010904 0.006265 0.999921
vn 0.010904 0.006265 0.999921
vn 0.749216 -0.624572 0.220420
vn 0.749216 -0.624572 0.220420
vn 0.749216 -0.624572 0.220420
vn 0.749216 -0.624572 0.220420
vn 0.940643 0.317928 -0.118799
vn 0.940643 0.317928 -0.118799
vn 0.940643 0.317928 -0.118799
vn 0.940643 0.317928 -0.118799
vn 0.010856 0.006257 -0.999922
vn 0.010856 0.006257 -0.999922
vn 0.010856 0.006257 -0.999922
vn 0.010856 0.006257 -0.999922
vn 0.810904 -0.561213 -0.165758
vn 0.810904 -0.561213 -0.165758
vn 0.810904 -0.561213 -0.165758
vn 0.810904 -0.561213 -0.165758
vn 0.938486 0.312863 0.146153
vn 0.938486 0.312863 0.146153
vn 0.938486 0.312863 0.146153
vn 0.938486 0.312863 0.146153
vn 0.559697 -0.821373 -0.109935
vn 0.559697 -0.821373 -0.109935
vn 0.559697 -0.821373 -0.109935
vn 0.559697 -0.821373 -0.109935
vn 0.936651 0.322823 0.135908
vn 0.936651 0.322823 0.135908
vn 0.936651 0.322823 0.135908
vn 0.936651 0.322823 0.135908
vn 0.880523 -0.460561 -0.112084
vn 0.880523 -0.460561 -0.112084
vn 0.880523 -0.460561 -0.112084
vn 0.880523 -0.460561 -0.112084
vn 0.937854 0.322592 0.127928
vn 0.937854 0.322592 0.127928
vn 0.937854 0.322592 0.127928
vn 0.937854 0.322592 0.127928
vn 0.842437 -0.525318 -0.119755
vn 0.842437 -0.525318 -0.119755
vn 0.842437 -0.525318 -0.119755
vn 0.842437 -0.525318 -0.119755
vn 0.936854 0.324109 0.131373
vn 0.936854 0.324109 0.131373
vn 0.936854 0.324109 0.131373
vn 0.936854 0.324109 0.131373
vn 0.737333 -0.664760 -0.120140
vn 0.737333 -0.664760 -0.120140
vn 0.737333 -0.664760 -0.120140
vn 0.737333 -0.664760 -0.120140
vn 0.942447 0.314034 0.114791
vn 0.942447 0.314034 0.114791
vn 0.942447 0.314034 0.114791
vn 0.942447 0.314034 0.114791
vn 0.809668 -0.546000 -0.215227
vn 0.809668 -0.546000 -0.215227
vn 0.809668 -0.546000 -0.215227
vn 0.809668 -0.546000 -0.215227
vn 0.940472 0.318199 0.119424
vn 0.940472 0.318199 0.119424
vn 0.940472 0.318199 0.119424
vn 0.940472 0.318199 0.119424
vn 0.879645 -0.470102 0.072311
vn 0.879645 -0.470102 0.072311
vn 0.879645 -0.470102 0.072311
vn 0.879645 -0.470102 0.072311
vn 0.932690 0.329609 -0.146449
vn 0.932690 0.329609 -0.146449
vn 0.932690 0.329609 -0.146449
vn 0.932690 0.329609 -0.146449
vn 0.835693 -0.521860 0.171111
vn 0.835694 -0.521860 0.171111
vn 0.835693 -0.521860 0.171111
vn 0.835694 -0.521860 0.171111
vn 0.937296 0.323490 -0.129735
vn 0.937296 0.323490 -0.129735
vn 0.937296 0.323490 -0.129735
vn 0.937296 0.323490 -0.129735
vn 0.772148 -0.621006 0.134683
vn 0.772148 -0.621006 0.134683
vn 0.772148 -0.621006 0.134683
vn 0.772148 -0.621006 0.134683
vn 0.938187 0.320272 -0.131270
vn 0.938187 0.320272 -0.131270
vn 0.938187 0.320272 -0.131270
vn 0.938187 0.320272 -0.131270
vn 0.625224 -0.771102 0.120403
vn 0.625224 -0.771102 0.120403
vn 0.625224 -0.771102 0.120403
vn 0.625224 -0.771102 0.120403
vn 0.936975 0.315193 -0.150772
vn 0.936975 0.315193 -0.150772
vn 0.936975 0.315193 -0.150772
vn 0.936975 0.315193 -0.150772
vn 0.799733 -0.578620 0.160082
vn 0.799733 -0.578620 0.160082
vn 0.799733 -0.578620 0.160082
vn 0.799733 -0.578620 0.160082
vn 0.938025 0.320444 -0.132005
vn 0.938025 0.320444 -0.132005
vn 0.938025 0.320444 -0.132005
vn 0.938025 0.320444 -0.132005
vn 0.911406 0.366554 0.187021
vn 0.911406 0.366554 0.187021
vn 0.911406 0.366554 0.187021
vn 0.911406 0.366554 0.187021
vn 0.167588 -0.224520 0.959951
vn 0.167588 -0.224520 0.959951
vn 0.167588 -0.224520 0.959951
vn 0.167588 -0.224520 0.959951
vn 0.274729 -0.221525 -0.935655
vn 0.274729 -0.221525 -0.935655
vn 0.274729 -0.221525 -0.935655
vn 0.274729 -0.221525 -0.935655
vn 0.904042 0.368228 -0.217062
vn 0.904042 0.368228 -0.217062
vn 0.904042 0.368228 -0.217062
vn 0.904042 0.368228 -0.217062
vn 0.000000 0.019618 -0.999808
vn 0.000000 0.019618 -0.999808
vn 0.000000 0.019618 -0.999808
vn 0.012372 0.953045 -0.302577
vn 0.012372 0.953045 -0.302577
vn 0.012372 0.953045 -0.302577
vn 0.012372 0.953045 -0.302577
vn 0.018388 0.953179 0.301847
vn 0.018388 0.953179 0.301847
vn 0.018388 0.953179 0.301847
vn 0.018388 0.953179 0.301847
vn -0.017214 0.954649 -0.297237
vn -0.017214 0.954649 -0.297237
vn -0.017214 0.954649 -0.297237
vn -0.017214 0.954649 -0.297237
vn 0.014494 0.954951 0.296408
vn 0.014494 0.954951 0.296408
vn 0.014494 0.954951 0.296409
vn 0.014494 0.954951 0.296408
vn 0.019749 0.956058 -0.292511
vn 0.019749 0.956058 -0.292511
vn 0.019749 0.956058 -0.292511
vn 0.019749 0.956058 -0.292511
vn 0.002889 0.955933 0.293571
vn 0.002889 0.955933 0.293571
vn 0.002889 0.955933 0.293571
vn 0.002889 0.955933 0.293571
vn -0.002858 0.955933 -0.293570
vn -0.002858 0.955933 -0.293570
vn -0.002858 0.955933 -0.293570
vn -0.002858 0.955933 -0.293570
vn -0.019714 0.956059 0.292511
vn -0.019714 0.956059 0.292511
vn -0.019714 0.956059 0.292511
vn -0.019714 0.956059 0.292511
vn -0.014468 0.954951 -0.296409
vn -0.014468 0.954951 -0.296409
vn -0.014468 0.954951 -0.296409
vn -0.014468 0.954951 -0.296409
vn 0.017239 0.954648 0.297237
vn 0.017239 0.954648 0.297237
vn 0.017239 0.954648 0.297237
vn 0.017239 0.954648 0.297237
vn -0.018358 0.953180 -0.301846
vn -0.018358 0.953180 -0.301846
vn -0.018358 0.953180 -0.301846
vn -0.018358 0.953180 -0.301846
vn -0.012337 0.953045 0.302577
vn -0.012337 0.953045 0.302577
vn -0.012337 0.953045 0.302577
vn -0.012337 0.953045 0.302577
vn -0.000012 0.019762 0.999805
vn -0.000012 0.019762 0.999805
vn -0.000012 0.019762 0.999805
vn -0.904494 -0.424105 0.044996
vn -0.904494 -0.424105 0.044996
vn -0.904494 -0.424105 0.044996
vn -0.904494 -0.424105 0.044996
vn -0.897228 -0.406094 -0.173406
vn -0.897228 -0.406094 -0.173406
vn -0.897228 -0.406094 -0.173406
vn -0.806543 -0.357737 -0.470651
vn -0.806544 -0.357737 -0.470651
vn -0.806543 -0.357737 -0.470651
vn -0.883866 -0.464957 0.050943
vn -0.883866 -0.464957 0.050943
vn -0.883866 -0.464957 0.050943
vn -0.883866 -0.464957 0.050943
vn -0.910341 -0.393762 -0.127402
vn -0.910341 -0.393762 -0.127402
vn -0.910341 -0.393762 -0.127402
vn -0.736817 -0.368674 0.566728
vn -0.736817 -0.368674 0.566728
vn -0.736817 -0.368674 0.566728
vn -0.835826 -0.547006 0.046679
vn -0.835826 -0.547006 0.046679
vn -0.835826 -0.547006 0.046679
vn -0.835826 -0.547006 0.046679
vn -0.820147 -0.529778 -0.216088
vn -0.820147 -0.529778 -0.216088
vn -0.820147 -0.529778 -0.216088
vn -0.803848 -0.591727 0.060732
vn -0.803848 -0.591727 0.060732
vn -0.803848 -0.591727 0.060732
vn -0.803848 -0.591727 0.060732
vn -0.834020 -0.509465 -0.211793
vn -0.834020 -0.509465 -0.211793
vn -0.834020 -0.509465 -0.211793
vn -0.766921 -0.637605 0.072743
vn -0.766921 -0.637605 0.072743
vn -0.766921 -0.637605 0.072743
vn -0.766921 -0.637605 0.072743
vn -0.821608 -0.549126 -0.153037
vn -0.821608 -0.549126 -0.153037
vn -0.821608 -0.549126 -0.153037
vn -0.817318 -0.536954 0.208978
vn -0.817318 -0.536954 0.208978
vn -0.817318 -0.536954 0.208978
vn -0.883341 -0.468729 -0.001641
vn -0.883341 -0.468729 -0.001641
vn -0.883341 -0.468729 -0.001641
vn -0.883341 -0.468729 -0.001641
vn 0.898848 -0.438259 0.001148
vn 0.898848 -0.438259 0.001148
vn 0.898848 -0.438259 0.001148
vn 0.898848 -0.438259 0.001148
vn 0.919055 -0.391525 -0.045245
vn 0.919055 -0.391525 -0.045245
vn 0.919055 -0.391525 -0.045245
vn 0.919055 -0.391525 -0.045245
vn 0.913493 -0.373160 0.162118
vn 0.913493 -0.373160 0.162118
vn 0.913493 -0.373160 0.162118
vn 0.898396 -0.364928 0.244361
vn 0.898396 -0.364928 0.244361
vn 0.898396 -0.364928 0.244361
vn 0.919685 -0.358467 -0.160256
vn 0.919685 -0.358467 -0.160256
vn 0.919685 -0.358467 -0.160256
vn 0.881903 -0.467391 0.061581
vn 0.881903 -0.467391 0.061581
vn 0.881903 -0.467391 0.061580
vn 0.881903 -0.467391 0.061581
vn 0.844895 -0.376174 -0.380324
vn 0.844894 -0.376174 -0.380324
vn 0.844894 -0.376174 -0.380324
vn 0.902411 -0.405179 -0.146576
vn 0.902411 -0.405179 -0.146576
vn 0.902411 -0.405179 -0.146576
vn 0.854788 -0.513148 0.077573
vn 0.854788 -0.513148 0.077573
vn 0.854788 -0.513148 0.077573
vn 0.854788 -0.513148 0.077573
vn 0.819837 -0.520251 -0.239179
vn 0.819837 -0.520251 -0.239179
vn 0.819837 -0.520251 -0.239180
vn 0.792721 -0.597424 0.121157
vn 0.792721 -0.597424 0.121157
vn 0.792720 -0.597424 0.121157
vn 0.792720 -0.597424 0.121157
vn 0.845642 -0.491114 -0.209039
vn 0.845642 -0.491114 -0.209039
vn 0.845642 -0.491114 -0.209039
vn 0.784111 -0.617757 0.059549
vn 0.784111 -0.617757 0.059549
vn 0.784111 -0.617757 0.059549
vn 0.784111 -0.617757 0.059549
vn 0.836951 -0.509287 -0.200348
vn 0.836951 -0.509288 -0.200348
vn 0.836951 -0.509288 -0.200348
s off
f 77/104/1 1/1/2 3/3/3 15/4/4
f 10/27/5 9/25/6 17/24/7 16/6/8
f 75/101/9 76/103/10 16/6/11 17/24/12
f 2/2/13 65/87/14 18/7/15 4/35/16
f 5/9/17 14/36/18 19/8/19 27/28/20
f 19/8/21 66/88/22 67/89/23 27/28/24
f 28/38/25 29/39/26 30/40/27 31/41/28
f 68/91/29 69/92/30 20/23/31 21/10/32
f 7/22/33 13/26/34 23/12/35 22/21/36
f 70/94/37 71/95/38 22/21/39 23/12/40
f 8/33/41 12/37/42 25/15/43 24/32/44
f 72/97/45 73/98/46 24/32/47 25/15/48
f 9/31/49 11/17/50 26/18/51 17/5/52
f 74/100/53 75/102/54 17/5/55 26/18/56
f 3/3/57 10/27/58 16/6/59 15/4/60
f 16/6/61 76/103/62 77/104/63 15/4/64
f 11/17/65 8/14/66 24/16/67 26/18/68
f 24/16/69 73/99/70 74/100/71 26/18/72
f 12/37/73 7/34/74 22/13/75 25/15/76
f 22/13/77 71/96/78 72/97/79 25/15/80
f 13/26/81 6/19/82 20/11/83 23/12/84
f 20/11/85 69/93/86 70/94/87 23/12/88
f 30/40/89 29/39/90 32/42/91 33/43/92
f 67/90/93 68/91/94 21/10/95 27/29/96
f 14/36/97 4/35/98 18/7/99 19/8/100
f 18/7/101 65/87/102 66/88/103 19/8/104
f 21/10/105 20/23/106 31/41/107 30/40/108
f 20/23/109 6/20/110 28/38/111 31/41/112
f 5/30/113 27/29/114 33/43/115 32/42/116
f 27/29/117 21/10/118 30/40/119 33/43/120
f 90/122/121 2/46/122 34/44/123 46/45/124
f 41/47/125 40/48/126 48/49/127 47/50/128
f 88/119/129 89/121/130 47/50/131 48/49/132
f 1/51/133 78/105/134 49/52/135 35/53/136
f 36/54/137 45/55/138 50/56/139 58/57/140
f 50/56/141 79/106/142 80/107/143 58/57/144
f 59/58/145 60/59/146 61/60/147 62/61/148
f 81/109/149 82/110/150 51/62/151 52/63/152
f 38/64/153 44/65/154 54/66/155 53/67/156
f 83/112/157 84/113/158 53/67/159 54/66/160
f 39/68/161 43/69/162 56/70/163 55/71/164
f 85/115/165 86/116/166 55/71/167 56/70/168
f 40/72/169 42/73/170 57/74/171 48/75/172
f 87/118/173 88/120/174 48/75/175 57/74/176
f 34/44/177 41/47/178 47/50/179 46/45/180
f 47/50/181 89/121/182 90/122/183 46/45/184
f 42/73/185 39/76/186 55/77/187 57/74/188
f 55/77/189 86/117/190 87/118/191 57/74/192
f 43/69/193 38/78/194 53/79/195 56/70/196
f 53/79/197 84/114/198 85/115/199 56/70/200
f 44/65/201 37/80/202 51/81/203 54/66/204
f 51/81/205 82/111/206 83/112/207 54/66/208
f 61/60/209 60/59/210 63/82/211 64/83/212
f 80/108/213 81/109/214 52/63/215 58/84/216
f 45/55/217 35/53/218 49/52/219 50/56/220
f 49/52/221 78/105/222 79/106/223 50/56/224
f 52/63/225 51/62/226 62/61/227 61/60/228
f 51/62/229 37/85/230 59/58/231 62/61/232
f 36/86/233 58/84/234 64/83/235 63/82/236
f 58/84/237 52/63/238 61/60/239 64/83/240
f 77/104/241 78/105/242 1/1/243
f 76/103/244 79/106/245 78/105/246 77/104/247
f 80/107/248 79/106/249 76/103/250 75/101/251
f 74/100/252 81/109/253 80/108/254 75/102/255
f 73/99/256 82/110/257 81/109/258 74/100/259
f 72/97/260 83/112/261 82/111/262 73/98/263
f 71/96/264 84/113/265 83/112/266 72/97/267
f 70/94/268 85/115/269 84/114/270 71/95/271
f 69/93/272 86/116/273 85/115/274 70/94/275
f 68/91/276 87/118/277 86/117/278 69/92/279
f 67/90/280 88/120/281 87/118/282 68/91/283
f 89/121/284 88/119/285 67/89/286 66/88/287
f 65/87/288 90/122/289 89/121/290 66/88/291
f 2/46/292 90/122/293 65/87/294
f 35/53/295 45/55/296 91/123/297 1/51/298
f 45/55/299 36/86/300 91/123/301
f 36/86/302 63/82/303 91/123/304
f 63/82/305 60/59/306 92/124/307 91/123/308
f 60/59/309 59/58/310 92/124/311
f 59/58/312 37/80/313 92/124/314
f 37/80/315 44/65/316 93/125/317 92/124/318
f 44/65/319 38/78/320 93/125/321
f 38/78/322 43/69/323 94/126/324 93/125/325
f 43/69/326 39/76/327 94/126/328
f 39/76/329 42/73/330 95/127/331 94/126/332
f 42/73/333 40/48/334 95/127/335
f 40/48/336 41/47/337 95/127/338
f 41/47/339 34/44/340 2/2/341 95/127/342
f 10/27/343 3/3/344 1/51/345 91/128/346
f 4/35/347 14/36/348 95/129/349 2/2/350
f 14/36/351 5/30/352 95/129/353
f 5/30/354 32/42/355 95/129/356
f 32/42/357 29/39/358 95/129/359
f 29/39/360 28/38/361 94/130/362 95/129/363
f 28/38/364 6/19/365 94/130/366
f 6/19/367 13/26/368 94/130/369
f 13/26/370 7/34/371 93/131/372 94/130/373
f 7/34/374 12/37/375 93/131/376
f 12/37/377 8/14/378 92/132/379 93/131/380
f 8/14/381 11/17/382 92/132/383
f 11/17/384 9/25/385 91/128/386 92/132/387
f 9/25/388 10/27/389 91/128/390
