# This file uses centimeters as units for non-parametric coordinates.

v -5.029745 -1.301331 117.216217
v 5.024960 -1.301331 117.216217
v -5.029745 -86.758179 35.745506
v 5.024960 -86.758179 35.745506
v 5.024960 -24.749971 66.001320
v -5.029745 -24.749971 66.001320
v -6.534601 20.208254 11.543714
v 6.533007 20.208254 11.543714
v 5.024960 -1.301331 11.543714
v 5.024960 -24.749971 11.543714
v 5.024960 -86.758179 11.543714
v -5.029745 -86.758179 11.543714
v -5.029745 -24.749971 11.543714
v -5.029745 -1.301331 11.543714
v -9.705406 22.207031 10.451903
v 9.703812 22.207031 10.451903
v 9.703812 22.207031 -10.110520
v -9.705406 22.207031 -10.110520
v 9.703812 -0.000002 -10.110520
v -9.705406 -0.000002 -10.110520
v 9.703812 -0.000002 10.451903
v -9.705406 -0.000002 10.451903
v 9.703812 -24.485474 10.451903
v 9.703812 -88.227722 10.451903
v 9.703812 -88.227722 -10.110520
v 9.703812 -24.485474 -10.110520
v -9.705406 -24.485474 -10.110520
v -9.705406 -88.227722 -10.110520
v -9.705406 -88.227722 10.451903
v -9.705406 -24.485474 10.451903
v 9.799510 22.603565 13.494251
v -9.801902 22.603565 13.494251
v 9.799510 -0.757142 13.494251
v -9.801902 -0.757142 13.494251
v -5.029745 -60.017822 40.284492
v 5.024960 -60.017822 40.284492
v 5.024960 -60.017822 11.543714
v 9.703812 -60.620186 10.451903
v 9.703812 -60.620186 -10.110520
v -9.705406 -60.620186 -10.110520
v -9.705406 -60.620186 10.451903
v -5.029745 -60.017822 11.543714
v -12.298831 -108.878906 -14.794672
v 12.296439 -108.878906 -14.794672
v 12.443176 -108.976280 11.586650
v -12.445569 -108.976357 11.586650
v -8.874426 -106.880127 40.421478
v 8.869641 -106.880127 40.421478
v 8.625604 -88.878204 40.184307
v -8.631186 -88.878204 40.184307
v 12.613041 -90.347748 11.535535
v 12.052408 -90.347748 -14.561589
v -12.054801 -90.347748 -14.561589
v -12.614635 -90.347748 11.535535
v 8.376788 -106.710541 13.590346
v 9.187040 -88.878204 12.768422
v -8.379193 -106.710541 13.590346
v -9.188635 -88.878204 12.768422
v -8.100060 20.369129 -15.968266
v 8.097674 20.369129 -15.968266
v 8.097674 1.837830 -15.968266
v -8.100060 1.837830 -15.968266
v -5.242674 -135.520935 -7.225606
v 5.237889 -135.520935 -7.225606
v 5.301688 -135.562500 4.017584
v -5.304080 -135.562500 4.017584
v -9.801902 -0.757142 122.654816
v 9.799510 -0.757142 122.654816
v 9.799510 22.603565 122.654816
v -9.801902 22.603565 122.654816
v -11.723046 -2.814871 168.220505
v 11.719059 -2.814871 168.220505
v 11.719059 24.661261 168.220505
v -4.551258 24.661261 168.220505
v 11.557966 24.499502 126.451622
v -11.561156 24.499502 126.451622
v 11.557966 -2.653113 126.451622
v -11.561156 -2.653113 126.451622
v -11.723046 18.197134 168.218475
v -11.685564 24.623783 158.543472
v 9.799510 22.603565 83.252335
v 9.799510 22.603565 38.228504
v 2.176863 22.603609 58.909660
v 9.799509 18.534454 60.076748
vt 0.197338 0.280862
vt 0.197361 0.280885
vt 0.197365 0.280775
vt 0.197345 0.280751
vt 0.198203 0.280748
vt 0.198185 0.280776
vt 0.198294 0.280776
vt 0.198317 0.280748
vt 0.198297 0.280880
vt 0.198321 0.280858
vt 0.198338 0.281398
vt 0.198312 0.281394
vt 0.198199 0.281394
vt 0.198219 0.281398
vt 0.198187 0.280880
vt 0.198206 0.280858
vt 0.198019 0.304984
vt 0.198012 0.304990
vt 0.197871 0.304859
vt 0.197873 0.304849
vt 0.198191 0.281038
vt 0.198194 0.281173
vt 0.198306 0.281173
vt 0.198302 0.281038
vt 0.198326 0.281023
vt 0.198331 0.281165
vt 0.198213 0.281165
vt 0.198210 0.281023
vt 0.198070 0.281386
vt 0.198061 0.281385
vt 0.198060 0.281302
vt 0.198069 0.281301
vt 0.198197 0.281310
vt 0.198310 0.281310
vt 0.198335 0.281309
vt 0.198217 0.281309
vt 0.197368 0.280884
vt 0.197353 0.280869
vt 0.198168 0.280774
vt 0.198186 0.280746
vt 0.198171 0.280884
vt 0.198188 0.281037
vt 0.198184 0.280883
vt 0.198191 0.281169
vt 0.198196 0.281385
vt 0.198194 0.281302
vt 0.198209 0.281387
vt 0.198207 0.281301
vt 0.198200 0.281027
vt 0.198204 0.304984
vt 0.198196 0.280868
vt 0.198189 0.280861
vt 0.198194 0.280763
vt 0.198182 0.280781
vt 0.198060 0.281302
vt 0.198069 0.281301
vt 0.198310 0.281310
vt 0.198197 0.281310
vt 0.198335 0.281309
vt 0.198217 0.281309
vt 0.198194 0.281302
vt 0.198207 0.281301
vt 0.198317 0.280748
vt 0.198294 0.280776
vt 0.198297 0.280880
vt 0.198321 0.280858
vt 0.198338 0.281398
vt 0.198312 0.281394
vt 0.198199 0.281394
vt 0.198219 0.281398
vt 0.197464 0.280865
vt 0.197479 0.280884
vt 0.197590 0.280775
vt 0.197576 0.280747
vt 0.197590 0.280775
vt 0.197576 0.280747
vt 0.197479 0.280884
vt 0.197464 0.280865
vt 0.197341 0.280774
vt 0.197396 0.280747
vt 0.197799 0.280774
vt 0.198037 0.280774
vt 0.197935 0.280763
vt 0.197926 0.280784
vt 0.198204 0.281163
vt 0.198200 0.304849
vt 0.198191 0.304990
vt 0.198194 0.305123
vt 0.198196 0.304689
vt 0.198207 0.305122
vt 0.198188 0.304858
vt 0.198184 0.304704
vt 0.197353 0.304690
vt 0.198069 0.305122
vt 0.198060 0.305123
vt 0.197368 0.304705
vn -0.000045 0.000012 1.000000
vn -0.000045 0.000012 1.000000
vn -0.000045 0.000012 1.000000
vn -0.000045 0.000012 1.000000
vn -0.000045 0.000012 1.000000
vn 0.000000 1.000000 0.000000
vn 0.000000 1.000000 0.000000
vn 0.000000 1.000000 0.000000
vn 0.000000 1.000000 0.000000
vn 0.000000 0.000000 -1.000000
vn 0.000000 0.000000 -1.000000
vn 0.000000 0.000000 -1.000000
vn 0.000000 0.000000 -1.000000
vn 0.000000 -0.999993 -0.003698
vn 0.000000 -0.999993 -0.003698
vn 0.000000 -0.999993 -0.003698
vn 0.000000 -0.999993 -0.003698
vn 1.000000 0.000000 0.000000
vn 1.000000 0.000000 0.000000
vn 1.000000 0.000000 0.000000
vn 1.000000 0.000000 0.000000
vn -1.000000 0.000000 0.000000
vn -1.000000 0.000000 0.000000
vn -1.000000 0.000000 0.000000
vn -1.000000 0.000000 0.000000
vn 0.000000 -0.589182 0.808000
vn 0.000000 -0.589182 0.808000
vn 0.000000 -0.589182 0.808000
vn 0.000000 -0.589182 0.808000
vn 1.000000 0.000000 0.000000
vn 1.000000 0.000000 0.000000
vn 1.000000 0.000000 0.000000
vn 1.000000 0.000000 0.000000
vn 0.000000 0.000000 -1.000000
vn 0.000000 0.000000 -1.000000
vn 0.000000 0.000000 -1.000000
vn 0.000000 0.000000 -1.000000
vn -1.000000 0.000000 0.000000
vn -1.000000 0.000000 0.000000
vn -1.000000 0.000000 0.000000
vn -1.000000 0.000000 0.000000
vn 0.000000 0.013174 0.999913
vn 0.000000 0.013174 0.999913
vn 0.000000 0.013174 0.999913
vn 0.000000 0.013174 0.999913
vn 0.999907 0.002062 -0.013474
vn 0.999907 0.002062 -0.013474
vn 0.999907 0.002062 -0.013474
vn 0.999907 0.002062 -0.013474
vn 0.000000 0.012577 -0.999921
vn 0.000000 0.012577 -0.999921
vn 0.000000 0.012577 -0.999921
vn 0.000000 0.012577 -0.999921
vn -0.999907 0.002083 -0.013459
vn -0.999907 0.002083 -0.013459
vn -0.999907 0.002083 -0.013459
vn -0.999907 0.002083 -0.013459
vn 1.000000 0.000000 0.000000
vn 1.000000 0.000000 0.000000
vn 1.000000 0.000000 0.000000
vn 1.000000 0.000000 0.000000
vn 0.000000 -0.909232 0.416290
vn 0.000000 -0.909232 0.416290
vn 0.000000 -0.909232 0.416290
vn 0.000000 -0.909232 0.416290
vn -1.000000 0.000000 0.000000
vn -1.000000 0.000000 0.000000
vn -1.000000 0.000000 0.000000
vn -1.000000 0.000000 0.000000
vn 0.000000 0.000000 -1.000000
vn 0.000000 0.000000 -1.000000
vn 0.000000 0.000000 -1.000000
vn 0.000000 0.000000 -1.000000
vn 0.999993 0.000000 -0.003857
vn 0.999993 0.000000 -0.003857
vn 0.999993 0.000000 -0.003857
vn 0.999993 0.000000 -0.003857
vn 1.000000 0.000000 0.000000
vn 1.000000 0.000000 0.000000
vn 1.000000 0.000000 0.000000
vn 1.000000 0.000000 0.000000
vn 1.000000 -0.000000 0.000000
vn 1.000000 -0.000000 0.000000
vn 1.000000 -0.000000 0.000000
vn 1.000000 -0.000000 0.000000
vn 0.999875 -0.015763 0.001215
vn 0.999875 -0.015763 0.001215
vn 0.999875 -0.015763 0.001215
vn 0.999875 -0.015763 0.001215
vn 0.000000 -0.999980 -0.006321
vn 0.000000 -0.999980 -0.006321
vn 0.000000 -0.999980 -0.006321
vn 0.000000 -0.999980 -0.006321
vn -0.999875 -0.015766 0.001097
vn -0.999875 -0.015766 0.001097
vn -0.999875 -0.015766 0.001097
vn -0.999875 -0.015766 0.001097
vn -1.000000 0.000000 0.000000
vn -1.000000 0.000000 0.000000
vn -1.000000 0.000000 0.000000
vn -1.000000 0.000000 0.000000
vn -1.000000 0.000000 0.000000
vn -1.000000 0.000000 0.000000
vn -1.000000 0.000000 0.000000
vn -1.000000 0.000000 0.000000
vn -1.000000 0.000000 0.000000
vn -1.000000 0.000000 0.000000
vn -1.000000 0.000000 0.000000
vn -1.000000 0.000000 0.000000
vn 0.000000 0.479383 0.877606
vn 0.000000 0.479383 0.877606
vn 0.000000 0.479383 0.877606
vn 0.000000 0.479383 0.877606
vn 0.000001 -0.662455 0.749102
vn 0.000001 -0.662455 0.749102
vn 0.000001 -0.662455 0.749102
vn 0.000001 -0.662455 0.749102
vn 0.271647 -0.009371 0.962351
vn 0.271647 -0.009371 0.962351
vn 0.271647 -0.009371 0.962351
vn 0.271647 -0.009371 0.962351
vn -0.271743 -0.009354 0.962325
vn -0.271743 -0.009354 0.962325
vn -0.271743 -0.009354 0.962325
vn -0.271743 -0.009354 0.962325
vn 0.227245 0.000000 0.973838
vn 0.227245 0.000000 0.973838
vn 0.227245 0.000000 0.973838
vn 0.227245 0.000000 0.973838
vn -0.227392 0.000000 0.973803
vn -0.227392 0.000000 0.973803
vn -0.227392 0.000000 0.973803
vn -0.227392 0.000000 0.973803
vn 0.401217 0.011146 0.915915
vn 0.401217 0.011146 0.915915
vn 0.401217 0.011146 0.915915
vn 0.401217 0.011146 0.915915
vn -0.401224 0.011163 0.915912
vn -0.401224 0.011163 0.915912
vn -0.401224 0.011163 0.915912
vn -0.401224 0.011163 0.915912
vn 0.227245 0.000000 0.973838
vn 0.227245 0.000000 0.973838
vn 0.227245 0.000000 0.973838
vn 0.227245 0.000000 0.973838
vn -0.227392 0.000000 0.973803
vn -0.227392 0.000000 0.973803
vn -0.227392 0.000000 0.973803
vn -0.227392 0.000000 0.973803
vn 0.000000 -0.995031 0.099563
vn 0.000000 -0.995031 0.099563
vn 0.000000 -0.995031 0.099563
vn 0.000000 -0.995031 0.099563
vn 0.000000 0.631440 -0.775425
vn 0.000000 0.631440 -0.775425
vn 0.000000 0.631440 -0.775425
vn 0.000000 0.631440 -0.775425
vn 0.113244 -0.993567 0.000000
vn 0.113244 -0.993567 0.000000
vn 0.113244 -0.993567 0.000000
vn 0.113244 -0.993567 0.000000
vn 0.440821 -0.014816 -0.897473
vn 0.440821 -0.014816 -0.897473
vn 0.440821 -0.014816 -0.897473
vn 0.440821 -0.014816 -0.897473
vn -0.440883 -0.014786 -0.897443
vn -0.440883 -0.014786 -0.897443
vn -0.440883 -0.014786 -0.897443
vn -0.440883 -0.014786 -0.897443
vn -0.113300 -0.993561 0.000000
vn -0.113300 -0.993561 0.000000
vn -0.113300 -0.993561 0.000000
vn -0.113300 -0.993561 0.000000
vn 0.000000 -0.167349 0.985898
vn 0.000000 -0.167349 0.985898
vn 0.000000 -0.167349 0.985898
vn 0.000000 -0.167349 0.985898
vn 1.000000 0.000000 0.000000
vn 1.000000 0.000000 0.000000
vn 1.000000 0.000000 0.000000
vn 1.000000 0.000000 0.000000
vn 0.227245 0.000000 0.973838
vn 0.227245 0.000000 0.973838
vn 0.227245 0.000000 0.973838
vn 0.227245 0.000000 0.973838
vn 1.000000 0.000000 0.000000
vn 1.000000 0.000000 0.000000
vn 1.000000 0.000000 0.000000
vn 1.000000 0.000000 0.000000
vn 0.000000 0.000000 -1.000000
vn 0.000000 0.000000 -1.000000
vn 0.000000 0.000000 -1.000000
vn 0.000000 0.000000 -1.000000
vn -1.000000 0.000000 0.000000
vn -1.000000 0.000000 0.000000
vn -1.000000 0.000000 0.000000
vn -1.000000 0.000000 0.000000
vn -0.227392 0.000000 0.973803
vn -0.227392 0.000000 0.973803
vn -0.227392 0.000000 0.973803
vn -0.227392 0.000000 0.973803
vn -1.000000 0.000000 0.000000
vn -1.000000 0.000000 0.000000
vn -1.000000 0.000000 0.000000
vn -1.000000 0.000000 0.000000
vn 0.000000 0.902362 0.430979
vn 0.000000 0.902362 0.430979
vn 0.000000 0.902362 0.430979
vn 0.000000 0.902362 0.430979
vn 0.624805 0.780745 -0.007507
vn 0.624805 0.780745 -0.007507
vn 0.624805 0.780745 -0.007507
vn 0.624805 0.780745 -0.007507
vn 0.000000 0.902824 -0.430011
vn 0.000000 0.902823 -0.430011
vn 0.000000 0.902823 -0.430011
vn 0.000000 0.902823 -0.430011
vn -0.624752 0.780787 -0.007496
vn -0.624752 0.780787 -0.007496
vn -0.624752 0.780787 -0.007496
vn -0.624752 0.780787 -0.007496
vn 0.476440 0.879192 0.005182
vn 0.476440 0.879192 0.005182
vn 0.476440 0.879192 0.005182
vn 0.476440 0.879192 0.005182
vn -0.476573 0.879120 0.005147
vn -0.476573 0.879120 0.005147
vn -0.476573 0.879120 0.005147
vn -0.476573 0.879120 0.005147
vn 0.403998 0.853269 0.329723
vn 0.403998 0.853269 0.329723
vn 0.403998 0.853269 0.329723
vn 0.403998 0.853269 0.329723
vn -0.404134 0.853199 0.329737
vn -0.404134 0.853199 0.329737
vn -0.404134 0.853199 0.329737
vn -0.404134 0.853199 0.329737
vn 0.000000 0.954138 -0.299367
vn 0.000000 0.954138 -0.299367
vn 0.000000 0.954138 -0.299367
vn 0.000000 0.954138 -0.299367
vn 0.964405 0.000000 -0.264430
vn 0.964405 0.000000 -0.264430
vn 0.964405 0.000000 -0.264430
vn 0.964405 0.000000 -0.264430
vn 0.000000 -0.954141 -0.299356
vn 0.000000 -0.954141 -0.299356
vn 0.000000 -0.954141 -0.299356
vn 0.000000 -0.954141 -0.299356
vn -0.964438 0.000000 -0.264309
vn -0.964438 0.000000 -0.264309
vn -0.964438 0.000000 -0.264309
vn -0.964438 0.000000 -0.264309
vn 0.000000 -0.273287 -0.961933
vn 0.000000 -0.273287 -0.961933
vn 0.000000 -0.273287 -0.961933
vn 0.000000 -0.273287 -0.961933
vn 0.966189 -0.257756 -0.006358
vn 0.966189 -0.257756 -0.006358
vn 0.966189 -0.257756 -0.006358
vn 0.966189 -0.257756 -0.006358
vn 0.000001 -0.273818 0.961781
vn 0.000001 -0.273818 0.961782
vn 0.000001 -0.273818 0.961782
vn 0.000001 -0.273818 0.961781
vn -0.966200 -0.257716 -0.006297
vn -0.966200 -0.257716 -0.006297
vn -0.966200 -0.257716 -0.006297
vn -0.966200 -0.257716 -0.006297
vn -0.000004 1.000000 0.000000
vn -0.000004 1.000000 0.000000
vn -0.000004 1.000000 0.000000
vn 1.000000 0.000000 0.000000
vn 1.000000 0.000000 0.000000
vn 1.000000 0.000000 0.000000
vn -0.999993 -0.000000 -0.003876
vn -0.999993 -0.000000 -0.003876
vn -0.999992 -0.000000 -0.003876
vn -0.999993 -0.000000 -0.003876
vn -0.999992 -0.000000 -0.003876
vn 0.000000 -0.999992 -0.003873
vn 0.000000 -0.999992 -0.003873
vn 0.000000 -0.999993 -0.003873
vn 0.000000 -0.999992 -0.003873
vn 0.000000 0.894660 -0.446749
vn 0.000000 0.894660 -0.446749
vn 0.000000 0.894660 -0.446749
vn 0.000000 0.894660 -0.446748
vn 0.907405 0.000000 -0.420257
vn 0.907405 0.000000 -0.420257
vn 0.907405 0.000000 -0.420257
vn 0.907405 0.000000 -0.420257
vn -0.907332 0.000000 -0.420414
vn -0.907332 0.000000 -0.420414
vn -0.907332 0.000000 -0.420414
vn -0.907332 0.000000 -0.420414
vn 0.000000 -0.894656 -0.446755
vn 0.000000 -0.894656 -0.446755
vn 0.000000 -0.894656 -0.446755
vn 0.000000 -0.894656 -0.446755
vn -0.000000 0.999992 -0.003873
vn -0.000000 0.999993 -0.003873
vn -0.000000 0.999993 -0.003873
vn -0.000000 0.999993 -0.003873
vn -0.000000 0.999992 -0.003873
vn -0.601097 0.666767 0.440573
vn -0.601097 0.666767 0.440573
vn -0.601097 0.666767 0.440573
vn 0.483436 0.862191 -0.151381
vn 0.483436 0.862191 -0.151381
vn 0.483436 0.862191 -0.151381
vn 0.444896 0.880443 0.163978
vn 0.444895 0.880443 0.163978
vn 0.444895 0.880443 0.163978
vn 0.000001 1.000000 0.000001
vn 0.000001 1.000000 0.000001
vn 0.000001 1.000000 0.000001
vn 0.000001 1.000000 0.000001
vn 0.000001 1.000000 -0.000001
vn 0.000001 1.000000 -0.000001
vn 0.000001 1.000000 -0.000001
vn 0.000001 1.000000 -0.000001
vn 1.000000 -0.000000 0.000000
vn 1.000000 -0.000000 0.000000
vn 1.000000 -0.000000 0.000000
vn 1.000000 -0.000000 0.000000
vn 1.000000 -0.000000 -0.000000
vn 1.000000 -0.000000 -0.000000
vn 1.000000 -0.000000 -0.000000
vn 1.000000 -0.000000 -0.000000
s off
f 71/1/1 72/2/2 73/3/3 74/4/4 79/79/5
f 15/5/6 16/6/7 17/7/8 18/8/9
f 59/63/10 60/64/11 61/65/12 62/66/13
f 63/67/14 64/68/15 65/69/16 66/70/17
f 16/6/18 21/15/19 19/9/20 17/7/21
f 20/10/22 22/16/23 15/5/24 18/8/25
f 35/17/26 36/18/27 5/19/28 6/20/29
f 23/21/30 38/22/31 39/23/32 26/24/33
f 27/25/34 26/24/35 39/23/36 40/26/37
f 40/26/38 41/27/39 30/28/40 27/25/41
f 47/29/42 48/30/43 49/55/44 50/56/45
f 51/58/46 45/13/47 44/12/48 52/57/49
f 53/59/50 52/57/51 44/12/52 43/11/53
f 43/11/54 46/14/55 54/60/56 53/59/57
f 21/15/58 23/21/59 26/24/60 19/9/61
f 6/20/62 5/19/63 2/96/64 1/93/65
f 27/25/66 30/28/67 22/16/68 20/10/69
f 20/10/70 19/9/71 26/24/72 27/25/73
f 72/2/74 77/77/75 75/75/76 73/3/77
f 5/19/78 10/91/79 9/92/80 2/96/81
f 36/18/82 37/87/83 10/91/84 5/19/85
f 48/30/86 55/45/87 56/61/88 49/55/89
f 57/47/90 55/45/91 48/30/92 47/29/93
f 58/62/94 57/47/95 47/29/96 50/56/97
f 13/86/98 42/50/99 35/17/100 6/20/101
f 14/89/102 13/86/103 6/20/104 1/93/105
f 32/40/106 34/52/107 67/71/108 70/74/109
f 7/53/110 8/54/111 16/6/112 15/5/113
f 55/45/114 57/47/115 46/14/116 45/13/117
f 8/54/118 9/43/119 21/15/120 16/6/121
f 14/51/122 7/53/123 15/5/124 22/16/125
f 10/42/126 37/44/127 38/22/128 23/21/129
f 41/27/130 42/85/131 13/49/132 30/28/133
f 56/61/134 55/45/135 45/13/136 51/58/137
f 57/47/138 58/62/139 54/60/140 46/14/141
f 9/43/142 10/42/143 23/21/144 21/15/145
f 13/49/146 14/51/147 22/16/148 30/28/149
f 1/38/150 2/37/151 68/72/152 67/71/153
f 8/54/154 7/53/155 32/40/156 31/39/157
f 2/37/158 9/43/159 33/41/160 68/72/161
f 9/43/162 8/54/163 31/39/164 33/41/165
f 7/53/166 14/51/167 34/52/168 32/40/169
f 14/51/170 1/38/171 67/71/172 34/52/173
f 3/94/174 4/95/175 36/18/176 35/17/177
f 4/95/178 11/88/179 37/87/180 36/18/181
f 38/22/182 37/44/183 11/46/184 24/33/185
f 39/23/186 38/22/187 24/33/188 25/34/189
f 40/26/190 39/23/191 25/34/192 28/35/193
f 28/35/194 29/36/195 41/27/196 40/26/197
f 12/48/198 42/85/199 41/27/200 29/36/201
f 35/17/202 42/50/203 12/90/204 3/94/205
f 4/31/206 3/32/207 50/56/208 49/55/209
f 25/34/210 24/33/211 51/58/212 52/57/213
f 28/35/214 25/34/215 52/57/216 53/59/217
f 29/36/218 28/35/219 53/59/220 54/60/221
f 11/46/222 4/31/223 49/55/224 56/61/225
f 3/32/226 12/48/227 58/62/228 50/56/229
f 24/33/230 11/46/231 56/61/232 51/58/233
f 12/48/234 29/36/235 54/60/236 58/62/237
f 18/8/238 17/7/239 60/64/240 59/63/241
f 17/7/242 19/9/243 61/65/244 60/64/245
f 19/9/246 20/10/247 62/66/248 61/65/249
f 20/10/250 18/8/251 59/63/252 62/66/253
f 43/11/254 44/12/255 64/68/256 63/67/257
f 44/12/258 45/13/259 65/69/260 64/68/261
f 45/13/262 46/14/263 66/70/264 65/69/265
f 46/14/266 43/11/267 63/67/268 66/70/269
f 70/74/270 83/83/271 32/40/272
f 84/84/273 68/72/274 33/41/275
f 76/76/276 78/78/277 71/1/278 79/79/279 80/80/280
f 78/78/281 77/77/282 72/2/283 71/1/284
f 69/73/285 70/74/286 76/76/287 75/75/288
f 68/72/289 69/73/290 75/75/291 77/77/292
f 70/74/293 67/71/294 78/78/295 76/76/296
f 67/71/297 68/72/298 77/77/299 78/78/300
f 80/80/301 74/4/302 73/3/303 75/75/304 76/76/305
f 80/80/306 79/79/307 74/4/308
f 84/84/309 83/83/310 81/81/311
f 82/82/312 83/83/313 84/84/314
f 70/74/315 69/73/316 81/81/317 83/83/318
f 32/40/319 83/83/320 82/82/321 31/39/322
f 84/84/323 33/41/324 31/39/325 82/82/326
f 69/73/327 68/72/328 84/84/329 81/81/330
