# This file uses centimeters as units for non-parametric coordinates.

v 0.000000 0.000000 0.000000
v 124.999390 -375.000000 0.000000
v 0.000000 0.000015 -125.000000
v 124.999390 -375.000000 -125.000000
v 5.754395 5.754089 0.000000
v 130.754120 -369.245911 0.000000
v 5.754395 5.754105 -125.000000
v 130.754120 -369.245911 -125.000000
v 4.025879 -13.578308 -111.206970
v 123.065186 -360.137634 -111.206970
v 123.065186 -360.137665 -13.793030
v 4.025879 -13.578339 -13.793030
v -3.840332 -3.839935 -125.000000
v 121.159668 -378.839966 -125.000000
v 117.344971 -369.716522 -113.089600
v -0.937500 -12.963303 -113.089600
v 121.159668 -378.839996 0.000000
v 117.344971 -369.716553 -11.910400
v -3.840332 -3.839951 0.000000
v -0.937500 -12.963333 -11.910400
v 115.458374 -386.911011 -54.852142
v 121.159058 -378.839874 -54.852142
v -9.541626 -11.910976 -54.852142
v -3.840332 -3.840298 -54.852142
v -9.541626 -11.910976 -70.147858
v -3.840332 -3.840298 -70.147858
v 115.458374 -386.911011 -70.147858
v 121.159058 -378.839874 -70.147858
vt 0.237129 0.305227
vt 0.237499 0.305786
vt 0.237504 0.305767
vt 0.237130 0.305203
vt 0.237281 0.306079
vt 0.236795 0.305294
vt 0.237278 0.306099
vt 0.236799 0.305324
vt 0.026825 0.515058
vt 0.026825 0.666313
vt 0.489022 0.155942
vt 0.488829 0.156861
vt 0.488820 0.156836
vt 0.488995 0.155986
vt 0.488313 0.156865
vt 0.488349 0.156839
vt 0.488315 0.155880
vt 0.488363 0.155934
vt 0.488817 0.156820
vt 0.488986 0.155988
vt 0.488355 0.156822
vt 0.489022 0.155942
vt 0.488829 0.156861
vt 0.488313 0.156865
vt 0.488315 0.155880
vt 0.488372 0.155936
vt 0.496789 0.156481
vt 0.496787 0.156426
vt 0.496807 0.155481
vt 0.496809 0.155542
vt 0.496879 0.155481
vt 0.496882 0.155542
vt 0.496840 0.156480
vt 0.496838 0.156425
vt 0.755685 0.744037
vt 0.755685 0.506807
vt 0.080329 0.666313
vt 0.080329 0.515058
vt 0.875469 0.506807
vt 0.875469 0.744037
vn 0.000000 0.000000 1.000000
vn 0.000000 0.000000 1.000000
vn 0.000000 0.000000 1.000000
vn 0.000000 0.000000 1.000000
vn 0.948684 0.316227 0.000000
vn 0.948684 0.316227 0.000000
vn 0.948684 0.316227 0.000000
vn 0.948684 0.316227 0.000000
vn -0.000000 0.000000 -1.000000
vn -0.000000 0.000000 -1.000000
vn -0.000000 0.000000 -1.000000
vn -0.000000 0.000000 -1.000000
vn 0.707068 -0.707146 0.000000
vn 0.707068 -0.707146 0.000000
vn 0.707068 -0.707146 0.000000
vn 0.707068 -0.707146 0.000000
vn -0.707088 0.707126 0.000000
vn -0.707088 0.707126 0.000000
vn -0.707088 0.707126 0.000000
vn -0.707088 0.707126 0.000000
vn -0.945762 -0.324859 -0.000000
vn -0.945763 -0.324859 -0.000000
vn -0.945762 -0.324859 -0.000000
vn -0.945763 -0.324859 -0.000000
vn -0.949095 -0.313479 -0.030805
vn -0.944614 -0.326764 -0.030478
vn -0.943485 -0.330167 -0.028746
vn -0.949369 -0.312836 -0.028851
vn -0.943485 -0.330167 -0.028746
vn -0.944614 -0.326764 -0.030478
vn -0.944614 -0.326764 0.030478
vn -0.943485 -0.330167 0.028746
vn -0.944614 -0.326764 0.030478
vn -0.949096 -0.313479 0.030805
vn -0.949369 -0.312836 0.028852
vn -0.943485 -0.330167 0.028746
vn -0.949096 -0.313479 0.030805
vn -0.949095 -0.313479 -0.030805
vn -0.949369 -0.312836 -0.028851
vn -0.949369 -0.312836 0.028852
vn -0.263810 -0.089018 0.960458
vn -0.263810 -0.089018 0.960458
vn -0.263810 -0.089018 0.960458
vn -0.263810 -0.089018 0.960458
vn -0.858563 0.512708 0.000000
vn -0.858563 0.512708 0.000000
vn -0.858563 0.512708 0.000000
vn -0.858563 0.512708 0.000000
vn 0.000001 0.000000 -1.000000
vn 0.000001 0.000000 -1.000000
vn 0.000001 0.000000 -1.000000
vn 0.000001 0.000000 -1.000000
vn 0.707131 -0.707083 0.000000
vn 0.707131 -0.707083 0.000000
vn 0.707131 -0.707083 0.000000
vn 0.707131 -0.707083 0.000000
vn 0.000000 0.000000 1.000000
vn 0.000000 0.000000 1.000000
vn 0.000000 0.000000 1.000000
vn 0.000000 0.000000 1.000000
vn -0.263809 -0.089018 -0.960459
vn -0.263809 -0.089018 -0.960459
vn -0.263809 -0.089018 -0.960459
vn -0.263809 -0.089018 -0.960459
vn -0.707072 0.707142 0.000000
vn -0.707072 0.707142 0.000000
vn -0.707072 0.707142 0.000000
vn -0.707072 0.707142 0.000000
vn -0.122968 -0.992411 -0.000000
vn -0.122968 -0.992411 -0.000000
vn -0.122968 -0.992411 -0.000000
vn -0.122968 -0.992411 -0.000000
vn 0.000000 0.000000 1.000000
vn 0.000000 0.000000 1.000000
vn 0.000000 0.000000 1.000000
vn 0.000000 0.000000 1.000000
vn -0.816761 0.576977 0.000000
vn -0.816761 0.576977 0.000000
vn -0.816761 0.576977 0.000000
vn -0.816761 0.576977 0.000000
vn 0.816805 -0.576914 0.000000
vn 0.816805 -0.576914 0.000000
vn 0.816805 -0.576914 0.000000
vn 0.816805 -0.576914 0.000000
vn 0.948684 0.316227 0.000000
vn 0.948684 0.316227 0.000000
vn 0.948684 0.316227 0.000000
vn 0.948684 0.316227 0.000000
vn 0.000000 0.000000 -1.000000
vn 0.000000 0.000000 -1.000000
vn 0.000000 0.000000 -1.000000
vn 0.000000 0.000000 -1.000000
vn -0.948683 -0.316228 0.000000
vn -0.948683 -0.316228 0.000000
vn -0.948683 -0.316228 0.000000
vn -0.948683 -0.316228 0.000000
s off
f 1/1/1 2/2/2 6/3/3 5/4/4
f 5/35/5 6/36/6 8/39/7 7/40/8
f 7/6/9 8/5/10 4/7/11 3/8/12
f 2/2/13 4/7/14 8/5/15 6/3/16
f 7/6/17 3/8/18 1/1/19 5/4/20
f 9/37/21 10/38/22 11/9/23 12/10/24
f 13/11/25 14/12/26 15/13/27 16/14/28
f 15/13/29 14/12/30 17/15/31 18/16/32
f 17/15/33 19/17/34 20/18/35 18/16/36
f 19/17/37 13/11/38 16/14/39 20/18/40
f 10/19/41 9/20/42 16/14/43 15/13/44
f 11/21/45 10/19/46 15/13/47 18/16/48
f 3/22/49 4/23/50 14/12/51 13/11/52
f 14/12/53 4/23/54 2/24/55 17/15/56
f 2/24/57 1/25/58 19/17/59 17/15/60
f 11/21/61 18/16/62 20/18/63 12/26/64
f 13/11/65 19/17/66 1/25/67 3/22/68
f 12/26/69 20/18/70 16/14/71 9/20/72
f 21/27/73 22/28/74 24/29/75 23/30/76
f 23/30/77 24/29/78 26/31/79 25/32/80
f 27/33/81 28/34/82 22/28/83 21/27/84
f 22/28/85 28/34/86 26/31/87 24/29/88
f 28/34/89 27/33/90 25/32/91 26/31/92
f 23/30/93 25/32/94 27/33/95 21/27/96
