# This file uses centimeters as units for non-parametric coordinates.

v 118.820313 0.000000 -49.210938
v 90.941406 0.000000 -90.937500
v 49.214844 0.000000 -118.820313
v 0.000000 0.000000 -128.609375
v -49.218750 0.000000 -118.820313
v -90.943359 0.000000 -90.937500
v -118.822266 0.000000 -49.214844
v -128.613281 0.000000 0.000000
v -118.822266 0.000000 49.214844
v -90.943359 0.000000 90.941406
v -49.218750 0.000000 118.824219
v 0.000000 0.000000 128.613281
v 49.214844 0.000000 118.824219
v 90.941406 0.000000 90.941406
v 118.820313 0.000000 49.234375
v 128.607422 0.000000 0.000000
v 118.820313 24.580933 -49.210938
v 90.941406 24.580933 -90.937500
v 49.214844 24.580933 -118.820313
v 0.000000 24.580933 -128.609375
v -49.218750 24.580933 -118.820313
v -90.943359 24.580933 -90.937500
v -118.822266 24.580933 -49.214844
v -128.613281 24.580933 0.000000
v -118.822266 24.580933 49.214844
v -90.943359 24.580933 90.941406
v -49.218750 24.580933 118.824219
v 0.000000 24.580933 128.613281
v 49.214844 24.580933 118.824219
v 90.941406 24.580933 90.941406
v 118.820313 24.580933 49.234375
v 128.607422 24.580933 0.000000
v 0.000000 0.000000 0.000000
v 101.048828 26.756836 -41.855469
v 77.339844 26.756836 -77.339844
v 41.853516 26.756836 -101.046875
v 0.000000 25.349731 -109.371094
v -41.857422 25.349731 -101.046875
v -77.341797 26.756836 -77.339844
v -101.054688 26.756836 -41.855469
v -109.376953 26.756836 0.000000
v -101.054688 26.756836 41.859375
v -77.341797 26.756836 77.343750
v -41.857422 26.756836 101.050781
v 0.000000 26.756836 109.375000
v 41.853516 26.756836 101.050781
v 77.339844 26.756836 77.343750
v 101.048828 26.756836 41.863281
v 109.375000 26.756836 0.000000
v 86.808594 54.555908 -35.945313
v 66.441406 54.555908 -66.425781
v 35.955078 54.555908 -86.800781
v 0.000000 54.555908 -93.957031
v -35.958984 54.555908 -86.800781
v -66.441406 54.555908 -66.425781
v -86.812500 54.555908 -35.945313
v -93.964844 54.555908 0.000000
v -86.812500 54.555908 35.960938
v -66.441406 54.555908 66.445313
v -35.958984 54.555908 86.812500
v 0.000000 54.555908 93.972656
v 35.955078 54.555908 86.812500
v 66.441406 54.555908 66.445313
v 86.808594 54.555908 35.964844
v 93.960938 54.555908 0.000000
v 47.375000 76.789063 0.003906
v 35.289063 76.789063 -35.281250
v -0.003906 76.789063 -47.371094
v -35.292969 76.789063 -35.281250
v -47.382813 76.789063 0.000000
v -35.292969 76.789063 35.296875
v -0.003906 76.789063 47.390625
v 35.289063 76.789063 35.296875
v -0.001953 80.871338 0.007813
vt 0.094147 0.209862
vt 0.094274 0.209863
vt 0.094274 0.209767
vt 0.094147 0.209766
vt 0.094334 0.209865
vt 0.094335 0.209769
vt 0.094319 0.209866
vt 0.094319 0.209770
vt 0.094230 0.209868
vt 0.094230 0.209771
vt 0.094080 0.209869
vt 0.094080 0.209772
vt 0.093892 0.209869
vt 0.093892 0.209772
vt 0.093695 0.209869
vt 0.093695 0.209772
vt 0.093520 0.209868
vt 0.093520 0.209771
vt 0.093394 0.209867
vt 0.093394 0.209770
vt 0.093335 0.209865
vt 0.093335 0.209769
vt 0.093352 0.209864
vt 0.093352 0.209768
vt 0.093443 0.209863
vt 0.093443 0.209767
vt 0.093592 0.209862
vt 0.093592 0.209766
vt 0.093778 0.209861
vt 0.093779 0.209766
vt 0.093973 0.209861
vt 0.093973 0.209766
vt 0.093835 0.209865
vt 0.094209 0.209759
vt 0.094101 0.209758
vt 0.094260 0.209760
vt 0.094247 0.209767
vt 0.094171 0.209768
vt 0.094043 0.209763
vt 0.093884 0.209763
vt 0.093716 0.209763
vt 0.093568 0.209763
vt 0.093460 0.209762
vt 0.093410 0.209761
vt 0.093424 0.209760
vt 0.093501 0.209759
vt 0.093629 0.209758
vt 0.093787 0.209758
vt 0.093953 0.209758
vt 0.906636 0.426583
vt 0.985308 0.426584
vt 0.984027 0.540810
vt 0.908145 0.540810
vt 1.068774 0.426584
vt 1.062676 0.540810
vt -0.190827 0.426583
vt -0.168954 0.540809
vt -0.094738 0.426583
vt -0.089206 0.540809
vt -0.014703 0.426583
vt -0.014196 0.540809
vt 0.067030 0.426583
vt 0.065033 0.540809
vt 0.156493 0.426582
vt 0.157817 0.540809
vt 0.240917 0.426582
vt 0.242538 0.540809
vt 0.319118 0.426582
vt 0.318443 0.540809
vt 0.399900 0.426582
vt 0.397676 0.540809
vt 0.489254 0.426582
vt 0.490554 0.540809
vt 0.573658 0.426583
vt 0.575271 0.540809
vt 0.651870 0.426583
vt 0.651201 0.540809
vt 0.732693 0.426583
vt 0.730462 0.540809
vt 0.822125 0.426583
vt 0.823397 0.540809
vt 0.974601 0.644335
vt 0.888880 0.664744
vt -0.107568 0.664758
vt -0.022831 0.644386
vt 0.223131 0.664760
vt 0.309023 0.644316
vt 0.586360 0.658663
vt 0.641750 0.644319
vt 0.636935 0.775247
vt 1.150699 0.540811
vt 1.171568 0.426584
vt 0.304312 0.775253
vt -0.026035 0.775191
vt 0.969195 0.775174
vt 1.090095 0.660884
vt 0.759789 0.660892
vt 0.427018 0.660892
vt 0.094709 0.660823
vn 0.831487 0.000000 -0.555544
vn 0.831487 0.000000 -0.555544
vn 0.831487 0.000000 -0.555544
vn 0.831487 0.000000 -0.555544
vn 0.555598 0.000000 -0.831451
vn 0.555598 0.000000 -0.831451
vn 0.555598 0.000000 -0.831451
vn 0.555598 0.000000 -0.831451
vn 0.195083 0.000000 -0.980787
vn 0.195083 0.000000 -0.980787
vn 0.195083 0.000000 -0.980787
vn 0.195083 0.000000 -0.980787
vn -0.195068 0.000000 -0.980790
vn -0.195068 0.000000 -0.980790
vn -0.195068 0.000000 -0.980790
vn -0.195068 0.000000 -0.980790
vn -0.555616 0.000000 -0.831439
vn -0.555616 0.000000 -0.831439
vn -0.555616 0.000000 -0.831439
vn -0.555616 0.000000 -0.831439
vn -0.831463 0.000000 -0.555580
vn -0.831463 0.000000 -0.555580
vn -0.831463 0.000000 -0.555580
vn -0.831463 0.000000 -0.555580
vn -0.980779 0.000000 -0.195121
vn -0.980779 0.000000 -0.195121
vn -0.980779 0.000000 -0.195121
vn -0.980779 0.000000 -0.195121
vn -0.980779 0.000000 0.195121
vn -0.980779 0.000000 0.195121
vn -0.980779 0.000000 0.195121
vn -0.980779 0.000000 0.195121
vn -0.831487 0.000000 0.555544
vn -0.831487 0.000000 0.555544
vn -0.831487 0.000000 0.555544
vn -0.831487 0.000000 0.555544
vn -0.555616 0.000000 0.831439
vn -0.555616 0.000000 0.831439
vn -0.555616 0.000000 0.831439
vn -0.555616 0.000000 0.831439
vn -0.195068 0.000000 0.980790
vn -0.195068 0.000000 0.980790
vn -0.195068 0.000000 0.980790
vn -0.195068 0.000000 0.980790
vn 0.195083 0.000000 0.980787
vn 0.195083 0.000000 0.980787
vn 0.195083 0.000000 0.980787
vn 0.195083 0.000000 0.980787
vn 0.555598 0.000000 0.831451
vn 0.555598 0.000000 0.831451
vn 0.555598 0.000000 0.831451
vn 0.555598 0.000000 0.831451
vn 0.831367 0.000000 0.555724
vn 0.831367 0.000000 0.555724
vn 0.831367 0.000000 0.555724
vn 0.831367 0.000000 0.555724
vn 0.980809 0.000000 0.194971
vn 0.980809 0.000000 0.194971
vn 0.980809 0.000000 0.194971
vn 0.980809 0.000000 0.194971
vn 0.980791 0.000000 -0.195061
vn 0.980791 0.000000 -0.195061
vn 0.980791 0.000000 -0.195061
vn 0.980791 0.000000 -0.195061
vn 0.000000 -1.000000 0.000000
vn 0.000000 -1.000000 0.000000
vn 0.000000 -1.000000 0.000000
vn 0.000000 -1.000000 0.000000
vn 0.000000 -1.000000 0.000000
vn 0.000000 -1.000000 0.000000
vn 0.000000 -1.000000 0.000000
vn 0.000000 -1.000000 0.000000
vn 0.000000 -1.000000 0.000000
vn 0.000000 -1.000000 0.000000
vn 0.000000 -1.000000 0.000000
vn 0.000000 -1.000000 0.000000
vn 0.000000 -1.000000 0.000000
vn 0.000000 -1.000000 0.000000
vn 0.000000 -1.000000 0.000000
vn 0.000000 -1.000000 0.000000
vn 0.000000 -1.000000 0.000000
vn 0.000000 -1.000000 0.000000
vn 0.000000 -1.000000 0.000000
vn 0.000000 -1.000000 0.000000
vn 0.000000 -1.000000 0.000000
vn 0.000000 -1.000000 0.000000
vn 0.000000 -1.000000 0.000000
vn 0.000000 -1.000000 0.000000
vn 0.000000 -1.000000 0.000000
vn 0.000000 -1.000000 0.000000
vn 0.000000 -1.000000 0.000000
vn 0.000000 -1.000000 0.000000
vn 0.000000 -1.000000 0.000000
vn 0.000000 -1.000000 0.000000
vn 0.000000 -1.000000 0.000000
vn 0.000000 -1.000000 0.000000
vn 0.000000 -1.000000 0.000000
vn 0.000000 -1.000000 0.000000
vn 0.000000 -1.000000 0.000000
vn 0.000000 -1.000000 0.000000
vn 0.000000 -1.000000 0.000000
vn 0.000000 -1.000000 0.000000
vn 0.000000 -1.000000 0.000000
vn 0.000000 -1.000000 0.000000
vn 0.000000 -1.000000 0.000000
vn 0.000000 -1.000000 0.000000
vn 0.000000 -1.000000 0.000000
vn 0.000000 -1.000000 0.000000
vn 0.000000 -1.000000 0.000000
vn 0.000000 -1.000000 0.000000
vn 0.000000 -1.000000 0.000000
vn 0.000000 -1.000000 0.000000
vn 0.095281 0.993413 -0.063661
vn 0.095281 0.993413 -0.063661
vn 0.095281 0.993413 -0.063661
vn 0.095281 0.993413 -0.063661
vn 0.063655 0.993414 -0.095271
vn 0.063655 0.993414 -0.095271
vn 0.063655 0.993414 -0.095271
vn 0.063655 0.993414 -0.095271
vn 0.000358 0.996856 -0.079240
vn 0.000358 0.996855 -0.079240
vn 0.000358 0.996855 -0.079240
vn 0.000358 0.996856 -0.079240
vn -0.007941 0.999171 -0.039930
vn -0.007941 0.999171 -0.039930
vn -0.007941 0.999171 -0.039930
vn -0.007941 0.999171 -0.039930
vn -0.030664 0.996854 -0.073081
vn -0.030664 0.996854 -0.073081
vn -0.030664 0.996855 -0.073081
vn -0.030664 0.996855 -0.073081
vn -0.095280 0.993412 -0.063668
vn -0.095280 0.993412 -0.063668
vn -0.095280 0.993412 -0.063668
vn -0.095280 0.993412 -0.063668
vn -0.112384 0.993413 -0.022352
vn -0.112384 0.993414 -0.022352
vn -0.112384 0.993413 -0.022352
vn -0.112384 0.993413 -0.022352
vn -0.112386 0.993413 0.022352
vn -0.112386 0.993413 0.022352
vn -0.112386 0.993413 0.022352
vn -0.112386 0.993413 0.022352
vn -0.095286 0.993412 0.063670
vn -0.095286 0.993412 0.063670
vn -0.095286 0.993412 0.063670
vn -0.095286 0.993412 0.063670
vn -0.063657 0.993414 0.095269
vn -0.063657 0.993414 0.095269
vn -0.063657 0.993414 0.095269
vn -0.063657 0.993414 0.095269
vn -0.022346 0.993416 0.112361
vn -0.022346 0.993416 0.112361
vn -0.022346 0.993416 0.112361
vn -0.022346 0.993416 0.112361
vn 0.022348 0.993416 0.112360
vn 0.022348 0.993416 0.112360
vn 0.022348 0.993416 0.112360
vn 0.022348 0.993416 0.112360
vn 0.063655 0.993414 0.095271
vn 0.063655 0.993414 0.095271
vn 0.063655 0.993414 0.095271
vn 0.063655 0.993414 0.095271
vn 0.095250 0.993416 0.063660
vn 0.095250 0.993416 0.063660
vn 0.095250 0.993416 0.063660
vn 0.095250 0.993416 0.063660
vn 0.112378 0.993414 0.022345
vn 0.112378 0.993414 0.022345
vn 0.112378 0.993414 0.022345
vn 0.112378 0.993414 0.022345
vn 0.112386 0.993413 -0.022354
vn 0.112386 0.993413 -0.022354
vn 0.112386 0.993413 -0.022354
vn 0.112386 0.993413 -0.022354
vn 0.730370 0.477912 -0.488016
vn 0.730370 0.477912 -0.488016
vn 0.730370 0.477912 -0.488016
vn 0.730370 0.477912 -0.488016
vn 0.488011 0.477945 -0.730352
vn 0.488011 0.477945 -0.730352
vn 0.488011 0.477945 -0.730352
vn 0.488011 0.477945 -0.730352
vn 0.164219 0.468619 -0.868003
vn 0.164219 0.468619 -0.868003
vn 0.164219 0.468619 -0.868003
vn 0.164219 0.468619 -0.868003
vn -0.173269 0.459755 -0.870978
vn -0.173269 0.459755 -0.870978
vn -0.173269 0.459755 -0.870978
vn -0.173269 0.459755 -0.870978
vn -0.483849 0.468763 -0.739021
vn -0.483849 0.468763 -0.739021
vn -0.483849 0.468763 -0.739021
vn -0.483849 0.468763 -0.739021
vn -0.730312 0.477952 -0.488064
vn -0.730312 0.477952 -0.488064
vn -0.730312 0.477952 -0.488064
vn -0.730312 0.477952 -0.488064
vn -0.861607 0.477771 -0.171374
vn -0.861607 0.477771 -0.171374
vn -0.861607 0.477771 -0.171374
vn -0.861607 0.477771 -0.171374
vn -0.861630 0.477743 0.171336
vn -0.861630 0.477743 0.171336
vn -0.861630 0.477743 0.171336
vn -0.861630 0.477743 0.171336
vn -0.730409 0.477766 0.488100
vn -0.730409 0.477766 0.488100
vn -0.730409 0.477766 0.488100
vn -0.730409 0.477766 0.488100
vn -0.488049 0.477720 0.730473
vn -0.488049 0.477720 0.730473
vn -0.488049 0.477720 0.730473
vn -0.488049 0.477720 0.730473
vn -0.171465 0.477580 0.861694
vn -0.171465 0.477580 0.861695
vn -0.171465 0.477580 0.861694
vn -0.171465 0.477580 0.861695
vn 0.171482 0.477580 0.861691
vn 0.171482 0.477580 0.861691
vn 0.171482 0.477580 0.861691
vn 0.171482 0.477580 0.861691
vn 0.488023 0.477707 0.730499
vn 0.488023 0.477707 0.730499
vn 0.488023 0.477707 0.730499
vn 0.488023 0.477707 0.730499
vn 0.730440 0.477727 0.488092
vn 0.730440 0.477727 0.488092
vn 0.730440 0.477727 0.488092
vn 0.730440 0.477727 0.488092
vn 0.861625 0.477743 0.171361
vn 0.861625 0.477743 0.171361
vn 0.861625 0.477743 0.171361
vn 0.861625 0.477743 0.171361
vn 0.861598 0.477771 -0.171416
vn 0.861598 0.477771 -0.171416
vn 0.861598 0.477771 -0.171416
vn 0.861598 0.477771 -0.171416
vn 0.386864 0.902159 -0.190905
vn 0.386864 0.902159 -0.190905
vn 0.386864 0.902159 -0.190905
vn 0.386864 0.902159 -0.190905
vn 0.190930 0.902158 -0.386856
vn 0.190930 0.902157 -0.386856
vn 0.190930 0.902158 -0.386856
vn 0.190930 0.902158 -0.386856
vn 0.085412 0.899194 -0.429133
vn 0.085412 0.899194 -0.429133
vn 0.085412 0.899194 -0.429133
vn -0.085405 0.899189 -0.429145
vn -0.085405 0.899189 -0.429145
vn -0.085405 0.899189 -0.429145
vn -0.190951 0.902154 -0.386854
vn -0.190951 0.902154 -0.386854
vn -0.190951 0.902154 -0.386854
vn -0.190951 0.902154 -0.386854
vn -0.386860 0.902150 -0.190959
vn -0.386860 0.902150 -0.190959
vn -0.386860 0.902150 -0.190959
vn -0.386860 0.902150 -0.190959
vn -0.429169 0.899178 -0.085395
vn -0.429169 0.899178 -0.085395
vn -0.429169 0.899178 -0.085395
vn -0.429170 0.899181 0.085359
vn -0.429170 0.899181 0.085359
vn -0.429170 0.899181 0.085359
vn -0.386864 0.902159 0.190905
vn -0.386864 0.902159 0.190905
vn -0.386864 0.902159 0.190905
vn -0.386864 0.902159 0.190905
vn -0.190941 0.902145 0.386880
vn -0.190941 0.902145 0.386880
vn -0.190941 0.902145 0.386880
vn -0.190941 0.902145 0.386880
vn -0.085457 0.899171 0.429173
vn -0.085457 0.899171 0.429173
vn -0.085457 0.899171 0.429173
vn 0.085464 0.899176 0.429161
vn 0.085464 0.899176 0.429161
vn 0.085464 0.899176 0.429161
vn 0.190919 0.902149 0.386882
vn 0.190919 0.902149 0.386882
vn 0.190919 0.902149 0.386882
vn 0.190919 0.902149 0.386882
vn 0.386855 0.902169 0.190877
vn 0.386855 0.902169 0.190877
vn 0.386855 0.902169 0.190877
vn 0.386855 0.902169 0.190877
vn 0.429147 0.899193 0.085345
vn 0.429147 0.899193 0.085345
vn 0.429147 0.899193 0.085345
vn 0.429134 0.899196 -0.085388
vn 0.429134 0.899196 -0.085388
vn 0.429134 0.899196 -0.085388
vn 0.029394 0.995878 -0.085808
vn 0.029394 0.995878 -0.085808
vn 0.029394 0.995878 -0.085808
vn -0.029397 0.995878 -0.085806
vn -0.029397 0.995878 -0.085806
vn -0.029397 0.995878 -0.085806
vn -0.085799 0.995879 -0.029401
vn -0.085799 0.995879 -0.029401
vn -0.085799 0.995879 -0.029401
vn -0.085808 0.995878 0.029391
vn -0.085808 0.995878 0.029391
vn -0.085808 0.995878 0.029391
vn -0.029404 0.995879 0.085799
vn -0.029404 0.995879 0.085799
vn -0.029404 0.995879 0.085799
vn 0.029401 0.995878 0.085801
vn 0.029401 0.995878 0.085801
vn 0.029401 0.995878 0.085801
vn 0.085813 0.995878 0.029386
vn 0.085813 0.995878 0.029386
vn 0.085813 0.995878 0.029386
vn 0.085808 0.995878 -0.029391
vn 0.085808 0.995878 -0.029391
vn 0.085808 0.995878 -0.029391
s off
f 1/1/1 2/2/2 18/3/3 17/4/4
f 2/2/5 3/5/6 19/6/7 18/3/8
f 3/5/9 4/7/10 20/8/11 19/6/12
f 4/7/13 5/9/14 21/10/15 20/8/16
f 5/9/17 6/11/18 22/12/19 21/10/20
f 6/11/21 7/13/22 23/14/23 22/12/24
f 7/13/25 8/15/26 24/16/27 23/14/28
f 8/15/29 9/17/30 25/18/31 24/16/32
f 9/17/33 10/19/34 26/20/35 25/18/36
f 10/19/37 11/21/38 27/22/39 26/20/40
f 11/21/41 12/23/42 28/24/43 27/22/44
f 12/23/45 13/25/46 29/26/47 28/24/48
f 13/25/49 14/27/50 30/28/51 29/26/52
f 14/27/53 15/29/54 31/30/55 30/28/56
f 15/29/57 16/31/58 32/32/59 31/30/60
f 16/31/61 1/1/62 17/4/63 32/32/64
f 2/2/65 1/1/66 33/33/67
f 3/5/68 2/2/69 33/33/70
f 4/7/71 3/5/72 33/33/73
f 5/9/74 4/7/75 33/33/76
f 6/11/77 5/9/78 33/33/79
f 7/13/80 6/11/81 33/33/82
f 8/15/83 7/13/84 33/33/85
f 9/17/86 8/15/87 33/33/88
f 10/19/89 9/17/90 33/33/91
f 11/21/92 10/19/93 33/33/94
f 12/23/95 11/21/96 33/33/97
f 13/25/98 12/23/99 33/33/100
f 14/27/101 13/25/102 33/33/103
f 15/29/104 14/27/105 33/33/106
f 16/31/107 15/29/108 33/33/109
f 1/1/110 16/31/111 33/33/112
f 17/4/113 18/3/114 35/34/115 34/35/116
f 18/3/117 19/6/118 36/36/119 35/34/120
f 19/6/121 20/8/122 37/37/123 36/36/124
f 20/8/125 21/10/126 38/38/127 37/37/128
f 21/10/129 22/12/130 39/39/131 38/38/132
f 22/12/133 23/14/134 40/40/135 39/39/136
f 23/14/137 24/16/138 41/41/139 40/40/140
f 24/16/141 25/18/142 42/42/143 41/41/144
f 25/18/145 26/20/146 43/43/147 42/42/148
f 26/20/149 27/22/150 44/44/151 43/43/152
f 27/22/153 28/24/154 45/45/155 44/44/156
f 28/24/157 29/26/158 46/46/159 45/45/160
f 29/26/161 30/28/162 47/47/163 46/46/164
f 30/28/165 31/30/166 48/48/167 47/47/168
f 31/30/169 32/32/170 49/49/171 48/48/172
f 32/32/173 17/4/174 34/35/175 49/49/176
f 34/50/177 35/51/178 51/52/179 50/53/180
f 35/51/181 36/54/182 52/55/183 51/52/184
f 36/54/185 37/92/186 53/91/187 52/55/188
f 37/56/189 38/58/190 54/59/191 53/57/192
f 38/58/193 39/60/194 55/61/195 54/59/196
f 39/60/197 40/62/198 56/63/199 55/61/200
f 40/62/201 41/64/202 57/65/203 56/63/204
f 41/64/205 42/66/206 58/67/207 57/65/208
f 42/66/209 43/68/210 59/69/211 58/67/212
f 43/68/213 44/70/214 60/71/215 59/69/216
f 44/70/217 45/72/218 61/73/219 60/71/220
f 45/72/221 46/74/222 62/75/223 61/73/224
f 46/74/225 47/76/226 63/77/227 62/75/228
f 47/76/229 48/78/230 64/79/231 63/77/232
f 48/78/233 49/80/234 65/81/235 64/79/236
f 49/80/237 34/50/238 50/53/239 65/81/240
f 50/53/241 51/52/242 67/82/243 66/83/244
f 51/52/245 52/55/246 68/96/247 67/82/248
f 52/55/249 53/91/250 68/96/251
f 53/57/252 54/59/253 68/84/254
f 54/59/255 55/61/256 69/85/257 68/84/258
f 55/61/259 56/63/260 70/99/261 69/85/262
f 56/63/263 57/65/264 70/99/265
f 57/65/266 58/67/267 70/86/268
f 58/67/269 59/69/270 71/87/271 70/86/272
f 59/69/273 60/71/274 72/98/275 71/87/276
f 60/71/277 61/73/278 72/98/279
f 61/73/280 62/75/281 72/88/282
f 62/75/283 63/77/284 73/89/285 72/88/286
f 63/77/287 64/79/288 66/97/289 73/89/290
f 64/79/291 65/81/292 66/97/293
f 65/81/294 50/53/295 66/83/296
f 67/82/297 68/96/298 74/95/299
f 68/84/300 69/85/301 74/94/302
f 69/85/303 70/99/304 74/94/305
f 70/86/306 71/87/307 74/93/308
f 71/87/309 72/98/310 74/93/311
f 72/88/312 73/89/313 74/90/314
f 73/89/315 66/97/316 74/90/317
f 66/83/318 67/82/319 74/95/320
