# This file uses centimeters as units for non-parametric coordinates.

v 78.384247 126.311584 -45.255169
v 45.255127 126.311584 -78.384239
v 0.000000 126.311584 -90.510330
v -45.255127 126.311584 -78.384239
v -78.384247 126.311584 -45.255169
v -90.510254 126.311584 0.000000
v -78.384247 126.311584 45.255127
v -45.255127 126.311584 78.384247
v 0.000000 126.311584 90.510330
v 45.255127 126.311584 78.384247
v 78.384247 126.311584 45.255127
v 90.510269 126.311584 0.000000
v 0.000000 126.311584 0.000000
v 39.105530 227.311691 -22.577625
v 22.577667 227.311691 -39.105606
v 0.000000 227.311691 -45.155293
v -22.577667 227.311691 -39.105606
v -39.105530 227.311691 -22.577625
v -45.155334 227.311691 0.000000
v -39.105530 227.311691 22.577629
v -22.577667 227.311691 39.105606
v 0.000000 227.311691 45.155296
v 22.577667 227.311691 39.105606
v 39.105530 227.311691 22.577629
v 45.155334 227.311691 0.000000
v 0.000000 227.311691 0.000000
vt 0.150291 0.207072
vt 0.150106 0.206884
vt 0.150567 0.206650
vt 0.150066 0.206654
vt 0.150157 0.206452
vt 0.150337 0.206318
vt 0.150561 0.206270
vt 0.150786 0.206314
vt 0.150970 0.206445
vt 0.151066 0.206645
vt 0.151033 0.206875
vt 0.150855 0.207066
vt 0.150574 0.207144
vt 0.150291 0.207072
vt 0.150106 0.206884
vt 0.150567 0.206650
vt 0.150066 0.206654
vt 0.150157 0.206452
vt 0.150337 0.206318
vt 0.150561 0.206270
vt 0.150786 0.206314
vt 0.150970 0.206445
vt 0.151066 0.206645
vt 0.151033 0.206875
vt 0.150855 0.207066
vt 0.150574 0.207144
vn 0.000000 1.000000 -0.000000
vn 0.000000 1.000000 -0.000000
vn 0.000000 1.000000 0.000000
vn 0.000000 1.000000 0.000000
vn 0.000000 1.000000 -0.000000
vn 0.000000 1.000000 0.000000
vn 0.000000 1.000000 0.000000
vn 0.000000 1.000000 0.000000
vn 0.000000 1.000000 0.000000
vn 0.000000 1.000000 0.000000
vn 0.000000 1.000000 0.000000
vn 0.000000 1.000000 -0.000000
vn 0.000000 1.000000 0.000000
vn 0.000000 1.000000 0.000000
vn 0.000000 1.000000 0.000000
vn 0.000000 1.000000 0.000000
vn 0.000000 1.000000 0.000000
vn 0.000000 1.000000 0.000000
vn 0.000000 1.000000 0.000000
vn 0.000000 1.000000 0.000000
vn 0.000000 1.000000 0.000000
vn 0.000000 1.000000 0.000000
vn 0.000000 1.000000 0.000000
vn 0.000000 1.000000 0.000000
vn 0.000000 1.000000 0.000000
vn 0.000000 1.000000 0.000000
s 1
f 1/1/1 2/2/2 13/3/3
f 2/2/2 3/4/4 13/3/3
f 3/4/4 4/5/5 13/3/3
f 4/5/5 5/6/6 13/3/3
f 5/6/6 6/7/7 13/3/3
f 6/7/7 7/8/8 13/3/3
f 7/8/8 8/9/9 13/3/3
f 8/9/9 9/10/10 13/3/3
f 9/10/10 10/11/11 13/3/3
f 10/11/11 11/12/12 13/3/3
f 11/12/12 12/13/13 13/3/3
f 12/13/13 1/1/1 13/3/3
s 2
f 14/14/14 15/15/15 26/16/16
f 15/15/15 16/17/17 26/16/16
f 16/17/17 17/18/18 26/16/16
f 17/18/18 18/19/19 26/16/16
f 18/19/19 19/20/20 26/16/16
f 19/20/20 20/21/21 26/16/16
f 20/21/21 21/22/22 26/16/16
f 21/22/22 22/23/23 26/16/16
f 22/23/23 23/24/24 26/16/16
f 23/24/24 24/25/25 26/16/16
f 24/25/25 25/26/26 26/16/16
f 25/26/26 14/14/14 26/16/16
