# This file uses centimeters as units for non-parametric coordinates.

v -500.000000 0.000000 0.000000
v 500.000000 0.000000 0.000000
v -500.000000 1752.583252 -2721.986084
v 500.000000 1752.583252 -2721.986084
v -500.000000 944.857239 -1114.902466
v 500.000000 944.857239 -1114.902466
v -500.000000 1586.168701 -1795.683105
v 500.000000 1586.168701 -1795.683105
v -500.000000 345.773224 -590.841064
v 500.000000 345.773224 -590.841064
v -500.000000 1727.061523 -2173.088379
v 500.000000 1727.061523 -2173.088379
v -500.000000 1292.635864 -1438.476563
v 500.000000 1292.635864 -1438.476563
v -500.000000 640.354126 -835.215698
v 500.000000 640.354126 -835.215698
v -500.000000 120.067688 -316.662842
v 500.000000 120.067688 -316.662842
vt 0.000000 0.000000
vt 1.000000 0.000000
vt 1.000000 1.000000
vt 0.000000 1.000000
vt 0.000000 0.500000
vt 1.000000 0.500000
vt 0.000000 0.750000
vt 1.000000 0.750000
vt 0.000000 0.250000
vt 1.000000 0.250000
vt 0.000000 0.875000
vt 1.000000 0.875000
vt 0.000000 0.625000
vt 1.000000 0.625000
vt 0.000000 0.375000
vt 1.000000 0.375000
vt 0.000000 0.125000
vt 1.000000 0.125000
vn 0.000000 0.984243 0.176824
vn 0.000000 0.984243 0.176824
vn 0.000000 0.998921 0.046446
vn 0.000000 0.998921 0.046446
vn 0.000000 0.658407 0.752662
vn 0.000000 0.658407 0.752662
vn 0.000000 0.678981 0.734155
vn 0.000000 0.678981 0.734155
vn 0.000000 0.727892 0.685692
vn 0.000000 0.727892 0.685692
vn 0.000000 0.860754 0.509022
vn 0.000000 0.860754 0.509022
vn 0.000000 0.863069 0.505087
vn 0.000000 0.863069 0.505087
vn 0.000000 0.705926 0.708286
vn 0.000000 0.705926 0.708286
vn 0.000000 0.935042 0.354536
vn 0.000000 0.935042 0.354536
s 1
f 11/11/1 12/12/2 4/3/3 3/4/4
f 15/15/5 16/16/6 6/6/7 5/5/8
f 13/13/9 14/14/10 8/8/11 7/7/12
f 17/17/13 18/18/14 10/10/15 9/9/16
f 7/7/12 8/8/11 12/12/2 11/11/1
f 5/5/8 6/6/7 14/14/10 13/13/9
f 9/9/16 10/10/15 16/16/6 15/15/5
f 1/1/17 2/2/18 18/18/14 17/17/13
