# This file uses centimeters as units for non-parametric coordinates.

v 49.018669 113.015747 -22.938690
v 21.136627 87.052147 37.536125
v 40.786057 34.913513 46.479343
v -65.217392 128.045502 -28.702545
v -131.976730 27.841372 -49.094810
v -123.858177 6.145644 1.638489
v 9.996567 136.095337 -11.034546
v -7.801704 133.935364 23.040165
v 26.244812 138.798309 1.670837
v 46.769371 79.154762 45.818214
v 48.689117 15.969142 -37.168083
v -52.710987 4.874096 -2.732773
v -119.448044 55.585094 46.111217
v -42.537037 111.333527 34.291080
v -56.699024 59.624268 -50.052376
v -134.751694 55.752556 28.524590
v -143.256638 56.550781 -34.143410
v -145.962936 59.364830 6.083298
v -51.330067 131.508835 3.183441
v -22.020378 135.732056 4.818077
v -119.913742 130.183594 -10.554581
v 34.375000 128.344574 18.378792
v 43.601227 130.675568 -7.795181
v 14.082832 121.012314 -33.442917
v 61.302376 49.883392 -29.503403
v 45.554161 4.551591 -1.608505
v 17.114983 25.764460 -54.777489
v -7.265511 33.048195 53.185886
v 38.317947 8.407225 26.660923
v -10.525894 16.050686 36.819191
v -118.871506 5.891382 -33.568497
v -113.497726 100.403351 43.289867
v -113.783066 112.686386 19.113731
v -29.697266 75.944847 41.973076
v -14.803391 118.967010 35.411991
v 20.651512 121.510246 34.787025
v 47.398415 87.257843 -39.198074
v -38.924976 27.084677 -50.571289
v 11.358261 91.370392 -50.899048
v -130.229294 66.145447 -46.400566
v -41.887451 131.332642 -13.764992
v 27.613182 59.873394 57.218174
v -25.427094 97.573372 -46.478004
v -51.461777 97.392914 -38.406487
v -106.523849 54.042679 -52.740097
v -71.402710 113.342232 18.213116
v -100.553101 136.285828 -1.085205
v -107.235214 110.712196 -30.139084
v -103.450424 134.171890 -18.431244
v -77.506836 38.997723 48.576969
v -102.993782 5.947176 14.737892
v -68.693314 5.761366 -24.208794
v -102.071655 15.974616 -42.016487
v -71.439636 72.768723 48.083839
v -72.196625 105.968781 41.018375
v -104.496567 27.520615 -52.046852
v -72.295654 81.914391 -38.406448
v -85.655640 131.181915 -24.082413
v -77.266663 132.363678 0.736160
v -136.890366 113.863953 -3.255386
v -137.038071 108.256081 -16.765137
v 55.479393 112.520721 18.621330
v 55.734291 85.000786 15.285645
v 63.071709 45.751034 12.319756
v 60.154076 89.201973 -22.149048
vt 0.448460 0.178853
vt 0.448460 0.178853
vt 0.448460 0.178853
vt 0.448460 0.178853
vt 0.448460 0.178853
vt 0.448460 0.178853
vt 0.448460 0.178853
vt 0.448460 0.178853
vt 0.448460 0.178853
vt 0.448460 0.178853
vt 0.448460 0.178853
vt 0.448460 0.178853
vt 0.448460 0.178853
vt 0.448460 0.178853
vt 0.448460 0.178853
vt 0.448460 0.178853
vt 0.448460 0.178853
vt 0.448460 0.178853
vt 0.448460 0.178853
vt 0.448460 0.178853
vt 0.448460 0.178853
vt 0.448460 0.178853
vt 0.448460 0.178853
vt 0.448460 0.178853
vt 0.448460 0.178853
vt 0.448460 0.178853
vt 0.448460 0.178853
vt 0.448460 0.178853
vt 0.448460 0.178853
vt 0.448460 0.178853
vt 0.448460 0.178853
vt 0.448460 0.178853
vt 0.448460 0.178853
vt 0.448460 0.178853
vt 0.448460 0.178853
vt 0.448460 0.178853
vt 0.448460 0.178853
vt 0.448460 0.178853
vt 0.448460 0.178853
vt 0.448460 0.178853
vt 0.448460 0.178853
vt 0.448460 0.178853
vt 0.448460 0.178853
vt 0.448460 0.178853
vt 0.448460 0.178853
vt 0.448460 0.178853
vt 0.448460 0.178853
vt 0.448460 0.178853
vt 0.448460 0.178853
vt 0.448460 0.178853
vt 0.448461 0.178853
vt 0.448460 0.178853
vt 0.448461 0.178853
vt 0.448460 0.178853
vt 0.448460 0.178853
vt 0.448461 0.178853
vt 0.448461 0.178853
vt 0.448461 0.178853
vt 0.448460 0.178853
vt 0.448460 0.178853
vt 0.448460 0.178853
vt 0.448460 0.178853
vt 0.448460 0.178853
vt 0.448461 0.178853
vt 0.448460 0.178853
vt 0.448460 0.178853
vt 0.448461 0.178853
vt 0.448460 0.178853
vt 0.448460 0.178853
vt 0.448460 0.178853
vt 0.448460 0.178853
vt 0.448460 0.178853
vt 0.448460 0.178853
vn -0.816530 -0.566421 -0.111562
vn -0.816530 -0.566421 -0.111562
vn -0.816530 -0.566421 -0.111562
vn -0.714146 0.081481 -0.695238
vn -0.714146 0.081481 -0.695238
vn -0.714146 0.081481 -0.695238
vn -0.931797 -0.362929 -0.006094
vn -0.931797 -0.362929 -0.006094
vn -0.931797 -0.362929 -0.006094
vn -0.671342 -0.461665 0.579797
vn -0.671342 -0.461665 0.579797
vn -0.671342 -0.461665 0.579797
vn -0.908892 0.367368 0.197374
vn -0.908892 0.367368 0.197374
vn -0.908892 0.367368 0.197374
vn -0.804729 0.372751 0.462027
vn -0.804729 0.372751 0.462027
vn -0.804729 0.372751 0.462027
vn -0.923972 -0.380808 -0.035522
vn -0.923972 -0.380808 -0.035522
vn -0.923971 -0.380808 -0.035522
vn -0.849495 -0.383135 0.362720
vn -0.849495 -0.383135 0.362720
vn -0.849495 -0.383135 0.362720
vn -0.986599 0.147353 -0.070070
vn -0.986599 0.147353 -0.070070
vn -0.986599 0.147353 -0.070070
vn -0.986599 0.147353 -0.070070
vn -0.670363 0.232353 0.704717
vn -0.670363 0.232353 0.704717
vn -0.670363 0.232353 0.704717
vn -0.172943 0.694617 0.698282
vn -0.172943 0.694617 0.698282
vn -0.172943 0.694617 0.698282
vn -0.172943 0.694617 0.698282
vn -0.148357 0.810039 0.567298
vn -0.148357 0.810039 0.567298
vn -0.148357 0.810039 0.567298
vn -0.754445 0.530353 -0.386702
vn -0.754445 0.530353 -0.386702
vn -0.754445 0.530353 -0.386701
vn -0.471666 0.453497 -0.756222
vn -0.471666 0.453497 -0.756222
vn -0.471666 0.453497 -0.756222
vn 0.079968 0.990423 -0.112548
vn 0.079968 0.990423 -0.112548
vn 0.079968 0.990423 -0.112548
vn 0.079968 0.990423 -0.112548
vn -0.098256 0.993032 -0.065066
vn -0.098256 0.993032 -0.065066
vn -0.098256 0.993032 -0.065066
vn -0.070746 0.990227 -0.120190
vn -0.070746 0.990227 -0.120190
vn -0.070746 0.990227 -0.120190
vn -0.137336 0.986716 -0.086773
vn -0.137336 0.986716 -0.086773
vn -0.137336 0.986716 -0.086773
vn -0.053725 0.988776 0.139414
vn -0.053725 0.988776 0.139414
vn -0.053725 0.988776 0.139414
vn 0.167729 0.852369 0.495312
vn 0.167729 0.852369 0.495312
vn 0.167729 0.852369 0.495312
vn 0.166588 0.870313 0.463470
vn 0.166588 0.870313 0.463470
vn 0.166588 0.870313 0.463470
vn 0.183892 0.886870 -0.423847
vn 0.183892 0.886870 -0.423847
vn 0.183892 0.886870 -0.423847
vn 0.520794 0.814361 0.256104
vn 0.520794 0.814361 0.256104
vn 0.520794 0.814361 0.256104
vn 0.351696 0.483767 -0.801424
vn 0.351696 0.483767 -0.801424
vn 0.351696 0.483767 -0.801423
vn 0.987802 0.027722 -0.153229
vn 0.987802 0.027722 -0.153229
vn 0.987802 0.027722 -0.153229
vn 0.893250 0.422757 0.152908
vn 0.893250 0.422757 0.152908
vn 0.893250 0.422757 0.152908
vn 0.932092 -0.357947 -0.055480
vn 0.932092 -0.357947 -0.055480
vn 0.932092 -0.357947 -0.055480
vn 0.932092 -0.357947 -0.055480
vn 0.133292 -0.601402 0.787749
vn 0.133292 -0.601402 0.787749
vn 0.133292 -0.601402 0.787749
vn 0.039824 -0.697017 0.715948
vn 0.039824 -0.697017 0.715948
vn 0.039824 -0.697017 0.715948
vn -0.074849 -0.935875 0.344291
vn -0.074849 -0.935875 0.344291
vn -0.074849 -0.935875 0.344291
vn -0.105191 -0.679222 0.726356
vn -0.105191 -0.679222 0.726356
vn -0.105191 -0.679222 0.726356
vn -0.101630 -0.672347 0.733226
vn -0.101630 -0.672347 0.733226
vn -0.101630 -0.672347 0.733226
vn -0.005567 -0.999980 0.002985
vn -0.005567 -0.999980 0.002985
vn -0.005567 -0.999980 0.002985
vn -0.005567 -0.999980 0.002985
vn 0.054641 -0.974613 0.217127
vn 0.054641 -0.974613 0.217127
vn 0.054641 -0.974613 0.217127
vn -0.117815 -0.942423 -0.312982
vn -0.117815 -0.942423 -0.312982
vn -0.117815 -0.942423 -0.312982
vn 0.051535 -0.895778 -0.441505
vn 0.051535 -0.895778 -0.441505
vn 0.051535 -0.895778 -0.441505
vn 0.051535 -0.895778 -0.441505
vn -0.004785 -0.990979 0.133934
vn -0.004785 -0.990979 0.133934
vn -0.004785 -0.990979 0.133934
vn -0.002831 -0.999228 -0.039176
vn -0.002831 -0.999228 -0.039176
vn -0.002831 -0.999228 -0.039176
vn 0.114938 0.307048 0.944728
vn 0.114938 0.307048 0.944728
vn 0.114938 0.307048 0.944728
vn -0.218155 0.138437 0.966045
vn -0.218155 0.138437 0.966045
vn -0.218155 0.138437 0.966045
vn -0.089209 0.180272 0.979563
vn -0.089209 0.180272 0.979563
vn -0.089209 0.180272 0.979563
vn -0.746278 0.140044 0.650735
vn -0.746278 0.140044 0.650735
vn -0.746278 0.140044 0.650735
vn -0.059256 0.051107 0.996934
vn -0.059256 0.051107 0.996934
vn -0.059256 0.051107 0.996934
vn -0.059256 0.051107 0.996934
vn 0.144656 0.235323 0.961092
vn 0.144656 0.235323 0.961092
vn 0.144656 0.235323 0.961092
vn 0.144655 0.235323 0.961092
vn 0.143075 -0.326473 0.934315
vn 0.143075 -0.326473 0.934315
vn 0.143075 -0.326473 0.934315
vn 0.556355 -0.062861 0.828564
vn 0.556355 -0.062861 0.828564
vn 0.556355 -0.062861 0.828564
vn -0.088126 0.570384 0.816637
vn -0.088126 0.570384 0.816637
vn -0.088126 0.570384 0.816637
vn -0.054954 0.577017 0.814881
vn -0.054954 0.577017 0.814881
vn -0.054954 0.577017 0.814881
vn 0.057776 0.130934 0.989706
vn 0.057776 0.130933 0.989706
vn 0.057776 0.130933 0.989706
vn 0.011854 0.079689 0.996749
vn 0.011854 0.079689 0.996749
vn 0.011854 0.079689 0.996749
vn 0.752505 0.062897 0.655576
vn 0.752505 0.062896 0.655576
vn 0.752505 0.062896 0.655576
vn -0.032881 0.645834 0.762770
vn -0.032881 0.645834 0.762770
vn -0.032881 0.645834 0.762770
vn -0.094687 0.887076 0.451809
vn -0.094687 0.887076 0.451809
vn -0.094687 0.887076 0.451809
vn -0.215498 0.680034 0.700796
vn -0.215498 0.680034 0.700796
vn -0.215498 0.680034 0.700796
vn -0.406243 0.822492 0.398089
vn -0.406242 0.822492 0.398088
vn -0.406242 0.822492 0.398088
vn 0.507226 0.095144 -0.856545
vn 0.507226 0.095144 -0.856545
vn 0.507226 0.095144 -0.856545
vn 0.306501 -0.021549 -0.951626
vn 0.306501 -0.021549 -0.951626
vn 0.306501 -0.021549 -0.951626
vn -0.073516 0.052425 -0.995915
vn -0.073516 0.052425 -0.995915
vn -0.073516 0.052425 -0.995915
vn -0.063079 -0.623696 -0.779118
vn -0.063079 -0.623696 -0.779118
vn -0.063079 -0.623696 -0.779118
vn -0.063079 -0.623696 -0.779118
vn 0.035652 0.009003 -0.999324
vn 0.035652 0.009003 -0.999324
vn 0.035652 0.009003 -0.999324
vn 0.035652 0.009003 -0.999324
vn -0.015840 0.007292 -0.999848
vn -0.015840 0.007292 -0.999848
vn -0.015840 0.007292 -0.999848
vn -0.017701 0.508574 -0.860837
vn -0.017701 0.508574 -0.860837
vn -0.017701 0.508574 -0.860837
vn -0.209772 0.720926 -0.660501
vn -0.209772 0.720926 -0.660501
vn -0.209772 0.720926 -0.660501
vn -0.031591 0.288752 -0.956883
vn -0.031591 0.288752 -0.956883
vn -0.031591 0.288752 -0.956883
vn -0.086766 0.992769 -0.082955
vn -0.086766 0.992769 -0.082955
vn -0.086766 0.992769 -0.082955
vn 0.040774 0.832318 -0.552797
vn 0.040774 0.832318 -0.552797
vn 0.040774 0.832318 -0.552797
vn 0.321331 0.458431 -0.828606
vn 0.321331 0.458431 -0.828606
vn 0.321331 0.458431 -0.828606
vn 0.184604 0.830586 -0.525402
vn 0.184604 0.830586 -0.525402
vn 0.184604 0.830587 -0.525402
vn -0.082887 0.985982 -0.144810
vn -0.082887 0.985982 -0.144810
vn -0.082887 0.985982 -0.144810
vn -0.089921 0.166585 -0.981918
vn -0.089921 0.166585 -0.981918
vn -0.089921 0.166585 -0.981918
vn -0.163373 0.377521 -0.911475
vn -0.164363 0.376954 -0.911532
vn -0.262952 0.317400 -0.911105
vn -0.262952 0.317400 -0.911106
vn -0.091840 0.218455 -0.971516
vn -0.091840 0.218455 -0.971516
vn -0.091840 0.218455 -0.971516
vn -0.091840 0.218455 -0.971516
vn -0.219991 0.078429 -0.972344
vn -0.219991 0.078429 -0.972344
vn -0.219991 0.078429 -0.972344
vn -0.048086 0.667718 0.742860
vn -0.048086 0.667718 0.742860
vn -0.048086 0.667718 0.742860
vn -0.267308 0.772217 0.576391
vn -0.267308 0.772217 0.576391
vn -0.267308 0.772217 0.576391
vn -0.139884 0.413653 -0.899624
vn -0.139884 0.413653 -0.899624
vn -0.139884 0.413653 -0.899624
vn -0.267423 0.960853 -0.072432
vn -0.267423 0.960853 -0.072432
vn -0.267423 0.960853 -0.072432
vn -0.338655 -0.580356 0.740608
vn -0.338655 -0.580356 0.740608
vn -0.338655 -0.580356 0.740608
vn -0.338655 -0.580356 0.740608
vn -0.028345 -0.999394 -0.020195
vn -0.028345 -0.999394 -0.020195
vn -0.028345 -0.999394 -0.020195
vn 0.119958 -0.747372 -0.653487
vn 0.119958 -0.747372 -0.653487
vn 0.119958 -0.747372 -0.653487
vn -0.063265 0.025934 0.997660
vn -0.063265 0.025934 0.997660
vn -0.063265 0.025934 0.997660
vn 0.025654 0.208644 0.977655
vn 0.025654 0.208644 0.977655
vn 0.025654 0.208644 0.977655
vn -0.102709 0.947511 0.302776
vn -0.102709 0.947511 0.302776
vn -0.102709 0.947511 0.302776
vn -0.078421 -0.288955 -0.954125
vn -0.078421 -0.288955 -0.954125
vn -0.078421 -0.288955 -0.954125
vn 0.012667 -0.654250 -0.756173
vn 0.012667 -0.654250 -0.756173
vn 0.012667 -0.654250 -0.756172
vn -0.107142 -0.034162 -0.993657
vn -0.107142 -0.034162 -0.993657
vn -0.107142 -0.034162 -0.993657
vn -0.002657 0.459915 -0.887959
vn -0.002657 0.459916 -0.887959
vn -0.002657 0.459915 -0.887959
vn 0.042534 0.323024 -0.945434
vn 0.042534 0.323024 -0.945435
vn 0.042534 0.323024 -0.945435
vn -0.196659 0.463039 -0.864245
vn -0.196659 0.463039 -0.864245
vn -0.196659 0.463039 -0.864245
vn 0.154065 0.980999 -0.117916
vn 0.154065 0.980999 -0.117916
vn 0.154065 0.980999 -0.117916
vn 0.154065 0.980999 -0.117916
vn 0.058613 0.685154 0.726036
vn 0.058613 0.685154 0.726036
vn 0.058613 0.685154 0.726036
vn -0.408634 0.334555 -0.849171
vn -0.408634 0.334555 -0.849171
vn -0.408634 0.334555 -0.849171
vn -0.465849 0.716711 0.518951
vn -0.465849 0.716711 0.518951
vn -0.465849 0.716711 0.518951
vn -0.724898 0.638991 -0.257319
vn -0.724898 0.638991 -0.257319
vn -0.724898 0.638991 -0.257319
vn -0.385479 0.517425 -0.763987
vn -0.385479 0.517425 -0.763987
vn -0.385479 0.517425 -0.763987
vn 0.960253 -0.086544 0.265377
vn 0.960253 -0.086544 0.265377
vn 0.960253 -0.086544 0.265377
vn 0.960253 -0.086544 0.265377
vn 0.816182 0.109712 0.567283
vn 0.816182 0.109712 0.567283
vn 0.816182 0.109712 0.567283
vn 0.801013 -0.467145 0.374372
vn 0.801013 -0.467145 0.374372
vn 0.801013 -0.467145 0.374372
vn 0.916745 -0.290434 0.274274
vn 0.916745 -0.290434 0.274274
vn 0.916745 -0.290434 0.274274
vn 0.908211 0.395636 -0.136474
vn 0.908211 0.395636 -0.136474
vn 0.908211 0.395636 -0.136474
vn 0.350219 0.669322 -0.655252
vn 0.350219 0.669322 -0.655252
vn 0.350219 0.669322 -0.655252
vn 0.992988 0.006926 0.118016
vn 0.992988 0.006926 0.118016
vn 0.992988 0.006926 0.118016
vn 0.785791 0.135811 -0.603396
vn 0.785791 0.135811 -0.603396
vn 0.785791 0.135811 -0.603396
vn 0.738786 0.325898 -0.589904
vn 0.738786 0.325898 -0.589904
vn 0.738786 0.325898 -0.589904
vn 0.982387 0.185405 -0.023241
vn 0.982387 0.185405 -0.023241
vn 0.982387 0.185405 -0.023241
vn 0.575356 0.771519 0.271520
vn 0.575356 0.771519 0.271520
vn 0.575356 0.771519 0.271520
vn -0.051129 0.638969 0.767532
vn -0.051129 0.638969 0.767532
vn -0.051129 0.638969 0.767532
vn 0.245952 0.341929 0.906969
vn 0.245952 0.341929 0.906969
vn 0.245952 0.341929 0.906969
vn 0.546389 -0.013953 -0.837415
vn 0.546389 -0.013953 -0.837415
vn 0.546389 -0.013953 -0.837415
vn -0.008194 0.951554 0.307374
vn -0.008194 0.951554 0.307374
vn -0.008194 0.951554 0.307374
vn -0.163373 0.377521 -0.911475
vn -0.003774 0.460997 -0.887394
vn -0.164363 0.376954 -0.911532
s off
f 31/1/1 6/2/2 5/3/3
f 5/3/4 17/4/5 40/5/6
f 5/3/7 6/2/8 17/4/9
f 6/2/10 13/7/11 16/8/12
f 16/8/13 32/9/14 33/10/15
f 18/11/16 16/8/17 33/10/18
f 6/2/19 18/11/20 17/4/21
f 6/2/22 16/8/23 18/11/24
f 17/4/25 18/11/26 60/65/27 61/66/28
f 18/11/29 33/10/30 60/65/31
f 21/12/32 33/10/33 46/51/34 47/52/35
f 19/13/36 14/14/37 20/15/38
f 40/5/39 17/4/40 48/53/41
f 48/53/42 21/12/43 49/54/44
f 4/16/45 58/63/46 59/64/47 19/13/48
f 4/16/49 19/13/50 41/17/51
f 7/19/52 20/15/53 9/18/54
f 19/13/55 20/15/56 41/17/57
f 20/15/58 8/20/59 9/18/60
f 8/20/61 36/21/62 22/22/63
f 9/18/64 8/20/65 22/22/66
f 7/19/67 9/18/68 23/23/69
f 9/18/70 22/22/71 23/23/72
f 1/25/73 37/73/74 24/26/75
f 1/25/76 62/67/77 63/68/78
f 1/25/79 63/68/80 65/72/81
f 25/32/82 64/69/83 26/70/84 11/33/85
f 3/30/86 28/37/87 29/35/88
f 29/35/89 28/37/90 30/38/91
f 29/35/92 30/38/93 12/39/94
f 30/38/95 28/37/96 50/55/97
f 30/38/98 50/55/99 51/56/100
f 31/1/101 52/57/102 51/56/103 6/2/104
f 12/39/105 30/38/106 51/56/107
f 11/36/108 26/34/109 27/40/110
f 27/40/111 26/34/112 52/57/113 53/58/114
f 26/34/115 29/35/116 12/39/117
f 26/34/118 12/39/119 52/57/120
f 28/37/121 34/41/122 54/59/123
f 28/37/124 42/42/125 34/41/126
f 34/41/127 35/43/128 14/14/129
f 13/7/130 32/9/131 16/8/132
f 13/7/133 50/55/134 54/59/135 32/9/136
f 34/41/137 14/14/138 55/60/139 54/59/140
f 3/30/141 42/42/142 28/37/143
f 3/30/144 10/29/145 42/42/146
f 42/42/147 10/29/148 2/27/149
f 34/41/150 42/42/151 2/27/152
f 34/41/153 2/27/154 35/43/155
f 2/27/156 36/21/157 35/43/158
f 36/21/159 2/27/160 22/22/161
f 35/43/162 36/21/163 8/20/164
f 33/10/165 32/9/166 55/60/167
f 14/14/168 35/43/169 8/20/170
f 20/15/171 14/14/172 8/20/173
f 11/36/174 27/40/175 39/44/176
f 11/36/177 39/44/178 37/45/179
f 27/40/180 38/46/181 39/44/182
f 31/1/183 5/3/184 56/61/185 53/58/186
f 38/46/187 56/61/188 45/50/189 15/6/190
f 38/46/191 15/6/192 39/44/193
f 39/44/194 43/48/195 24/47/196
f 43/48/197 44/49/198 24/47/199
f 24/47/200 44/49/201 4/16/202
f 4/16/203 41/17/204 7/19/205
f 24/47/206 4/16/207 7/19/208
f 37/45/209 39/44/210 24/47/211
f 23/23/212 24/47/213 7/19/214
f 41/17/215 20/15/216 7/19/217
f 39/44/218 15/6/219 43/48/220
f 15/6/221 57/62/222 44/49/223 43/48/224
f 4/16/225 44/49/226 57/62/227 48/53/228
f 45/50/229 5/3/230 40/5/231
f 59/64/232 46/51/233 19/13/234
f 46/51/235 14/14/236 19/13/237
f 48/53/238 58/63/239 4/16/240
f 47/52/241 49/54/242 21/12/243
f 51/56/244 50/55/245 13/7/246 6/2/247
f 51/56/248 52/57/249 12/39/250
f 53/58/251 52/57/252 31/1/253
f 54/59/254 50/55/255 28/37/256
f 54/59/257 55/60/258 32/9/259
f 46/51/260 55/60/261 14/14/262
f 53/58/263 38/46/264 27/40/265
f 53/58/266 56/61/267 38/46/268
f 45/50/269 56/61/270 5/3/271
f 57/62/272 45/50/273 40/5/274
f 48/53/275 57/62/276 40/5/277
f 48/53/278 49/54/279 58/63/280
f 59/64/281 58/63/282 49/54/283 47/52/284
f 47/52/285 46/51/286 59/64/287
f 17/4/288 61/66/289 48/53/290
f 60/65/291 33/10/292 21/12/293
f 61/66/294 60/65/295 21/12/296
f 48/53/297 61/66/298 21/12/299
f 63/68/300 62/67/301 10/24/302 3/28/303
f 64/69/304 63/68/305 3/28/306
f 26/70/307 64/69/308 3/28/309
f 3/28/310 29/31/311 26/70/312
f 23/71/313 62/67/314 1/25/315
f 24/26/316 23/71/317 1/25/318
f 65/72/319 63/68/320 25/32/321
f 37/73/322 65/72/323 25/32/324
f 1/25/325 65/72/326 37/73/327
f 25/32/328 63/68/329 64/69/330
f 23/23/331 22/22/332 62/67/333
f 62/67/334 2/27/335 10/24/336
f 62/67/337 22/22/338 2/27/339
f 37/73/340 25/32/341 11/36/342
f 33/10/343 55/60/344 46/51/345
f 15/6/346 45/50/347 57/62/348
