# This file uses centimeters as units for non-parametric coordinates.

v 158.812103 21.186905 -91.690247
v 91.690216 21.186905 -158.812195
v 0.000000 21.186905 -183.380508
v -91.690216 21.186905 -158.812195
v -158.812103 21.186905 -91.690247
v -183.380432 21.186905 0.000000
v -158.812103 21.186905 91.690216
v -91.690216 21.186905 158.812195
v 0.000000 21.186905 183.380493
v 91.690216 21.186905 158.812195
v 158.812103 21.186905 91.690216
v 183.380417 21.186905 0.000000
v 0.000000 21.186905 0.000000
vt 0.150291 0.207072
vt 0.150106 0.206884
vt 0.150567 0.206650
vt 0.150066 0.206654
vt 0.150157 0.206452
vt 0.150337 0.206318
vt 0.150561 0.206270
vt 0.150786 0.206314
vt 0.150970 0.206445
vt 0.151066 0.206645
vt 0.151033 0.206875
vt 0.150855 0.207066
vt 0.150574 0.207144
vn 0.000000 1.000000 0.000000
vn 0.000000 1.000000 0.000000
vn 0.000000 1.000000 0.000000
vn 0.000000 1.000000 0.000000
vn 0.000000 1.000000 0.000000
vn 0.000000 1.000000 0.000000
vn 0.000000 1.000000 0.000000
vn 0.000000 1.000000 0.000000
vn 0.000000 1.000000 0.000000
vn 0.000000 1.000000 0.000000
vn 0.000000 1.000000 0.000000
vn 0.000000 1.000000 0.000000
vn 0.000000 1.000000 0.000000
s 1
f 1/1/1 2/2/2 13/3/3
f 2/2/2 3/4/4 13/3/3
f 3/4/4 4/5/5 13/3/3
f 4/5/5 5/6/6 13/3/3
f 5/6/6 6/7/7 13/3/3
f 6/7/7 7/8/8 13/3/3
f 7/8/8 8/9/9 13/3/3
f 8/9/9 9/10/10 13/3/3
f 9/10/10 10/11/11 13/3/3
f 10/11/11 11/12/12 13/3/3
f 11/12/12 12/13/13 13/3/3
f 12/13/13 1/1/1 13/3/3
