# This file uses centimeters as units for non-parametric coordinates.

v -33.914597 -50.387337 65.531105
v -17.679350 46.588249 80.951805
v 45.164680 47.159969 -31.160273
v 60.378197 -41.776722 -56.529716
v -44.416859 -53.261429 -31.108696
v 83.429001 -4.632960 77.580650
v -24.992645 -9.782513 72.955490
v -49.040104 14.337464 -29.615034
v 60.280293 11.711728 -56.645733
v 72.777534 54.528893 13.621292
v -38.964039 56.847855 33.863480
v -49.958549 11.286109 33.991158
v -35.169647 -56.536423 29.730507
v 81.079147 8.540591 10.025707
v 0.219538 48.660702 -22.619024
v -32.677963 30.001335 -16.735710
v -35.099346 52.940838 12.258191
v -72.539291 -5.223584 11.892672
v -82.382179 -42.733601 4.738906
v -83.429016 -38.344055 -63.439888
v -71.731819 -3.288371 -55.831097
v -5.048098 -3.485050 -84.101349
v -7.966915 -39.490646 -92.475151
v -57.764790 -43.762779 49.077423
v -61.527950 -7.631199 59.273827
v 77.151970 -53.776939 -21.604576
v -18.298035 -67.641136 -13.087876
v -11.658598 -69.992554 30.594269
v 63.663300 -56.500652 16.060493
v 70.222923 -56.847855 58.906822
v -1.812521 -55.255501 72.806465
v -9.841535 -25.986618 80.435677
v 71.675003 -27.788549 64.706596
v 71.807281 -16.647499 16.446346
v 83.407318 -15.291417 -29.224312
v 52.594105 45.043358 93.770882
v 77.532227 51.934818 45.040916
v 82.371941 26.763704 74.717361
v -0.316962 -7.407959 85.816978
v -26.047497 21.343452 79.318604
v 44.849407 -5.952890 96.279205
v 41.695961 -27.098135 85.514191
v 40.097683 -56.154205 79.742622
vt 0.459757 0.205465
vt 0.459431 0.205542
vt 0.459450 0.204926
vt 0.459509 0.204688
vt 0.459173 0.205333
vt 0.459491 0.205265
vt 0.459769 0.205135
vt 0.459442 0.205203
vt 0.459182 0.205010
vt 0.459501 0.204948
vt 0.459645 0.204776
vt 0.459321 0.204836
vt 0.459313 0.205108
vt 0.459303 0.205439
vt 0.459626 0.205366
vt 0.459636 0.205042
vt 0.459293 0.204726
vt 0.459185 0.204910
vt 0.459265 0.204796
vt 0.459303 0.205439
vt 0.459173 0.205333
vt 0.459182 0.205010
vt 0.459313 0.205108
vt 0.459501 0.204948
vt 0.459491 0.205265
vt 0.459431 0.205542
vt 0.459442 0.205203
vt 0.459491 0.205265
vt 0.459173 0.205333
vt 0.459303 0.205439
vt 0.459431 0.205542
vt 0.459442 0.205203
vt 0.459769 0.205135
vt 0.459636 0.205042
vt 0.459501 0.204948
vt 0.459679 0.204882
vt 0.459716 0.204822
vt 0.459775 0.204960
vt 0.459538 0.205183
vt 0.459446 0.205066
vt 0.459659 0.205158
vt 0.459644 0.205161
vt 0.459615 0.205499
vn -0.188761 0.027751 0.981631
vn -0.188761 0.027751 0.981631
vn -0.188761 0.027751 0.981631
vn -0.188761 0.027751 0.981631
vn -0.008740 0.987861 -0.155098
vn -0.008740 0.987861 -0.155098
vn -0.008740 0.987861 -0.155098
vn -0.008740 0.987861 -0.155098
vn -0.008740 0.987861 -0.155098
vn -0.238056 0.523642 -0.818003
vn -0.217982 0.527027 -0.821417
vn -0.247743 0.521922 -0.816224
vn -0.247743 0.521922 -0.816224
vn 0.151556 -0.987242 -0.048832
vn 0.151556 -0.987242 -0.048832
vn 0.151556 -0.987242 -0.048832
vn 0.151556 -0.987242 -0.048832
vn -0.950275 0.228719 -0.211343
vn -0.947947 0.216163 -0.233816
vn -0.916941 0.359113 -0.173947
vn 0.840468 0.383277 -0.383030
vn 0.882477 0.315266 -0.349059
vn 0.939462 0.191788 -0.283953
vn 0.556144 -0.190273 0.809012
vn 0.556144 -0.190273 0.809012
vn 0.556144 -0.190273 0.809012
vn 0.556144 -0.190273 0.809012
vn -0.959370 0.281764 0.014803
vn -0.959370 0.281764 0.014803
vn -0.959370 0.281764 0.014803
vn -0.959370 0.281764 0.014803
vn -0.357333 0.274297 -0.892790
vn -0.357333 0.274297 -0.892790
vn -0.357333 0.274297 -0.892790
vn -0.357333 0.274297 -0.892790
vn 0.948887 -0.148707 0.278388
vn 0.948887 -0.148707 0.278388
vn 0.948887 -0.148707 0.278388
vn 0.948887 -0.148707 0.278388
vn -0.874063 0.229920 0.427962
vn -0.874063 0.229920 0.427962
vn -0.874063 0.229920 0.427962
vn -0.874063 0.229920 0.427962
vn -0.932215 -0.008282 0.361811
vn -0.932215 -0.008282 0.361811
vn -0.932215 -0.008282 0.361811
vn -0.932215 -0.008282 0.361811
vn 0.139059 -0.988652 0.056837
vn 0.139059 -0.988652 0.056837
vn 0.139059 -0.988652 0.056837
vn 0.139059 -0.988652 0.056837
vn 0.987795 -0.129826 -0.086057
vn 0.987795 -0.129826 -0.086057
vn 0.987795 -0.129826 -0.086057
vn 0.987795 -0.129826 -0.086057
vn 0.999107 0.031021 -0.028704
vn 0.999107 0.031021 -0.028704
vn 0.999107 0.031021 -0.028704
vn -0.480453 0.667819 -0.568492
vn -0.480453 0.667819 -0.568492
vn -0.480453 0.667819 -0.568492
vn -0.295969 -0.954624 -0.033096
vn -0.295969 -0.954624 -0.033096
vn -0.295969 -0.954624 -0.033096
vn -0.295969 -0.954624 -0.033096
vn -0.616614 0.786965 0.021777
vn -0.616614 0.786965 0.021777
vn -0.616614 0.786965 0.021777
vn -0.616614 0.786965 0.021777
vn -0.106511 0.916430 -0.385762
vn -0.106511 0.916430 -0.385762
vn -0.106511 0.916430 -0.385762
vn -0.106511 0.916430 -0.385762
vn -0.012394 -0.974062 -0.225943
vn -0.012394 -0.974062 -0.225943
vn -0.012394 -0.974062 -0.225943
vn -0.012394 -0.974062 -0.225943
vn 0.421949 0.070105 -0.903905
vn 0.421949 0.070105 -0.903905
vn 0.421949 0.070105 -0.903905
vn 0.421949 0.070105 -0.903905
vn -0.365597 -0.913901 0.176418
vn -0.365597 -0.913901 0.176418
vn -0.365597 -0.913901 0.176418
vn -0.365597 -0.913901 0.176418
vn -0.517734 0.781608 0.347908
vn -0.696945 0.689533 0.197007
vn -0.349603 0.819849 0.453458
vn -0.459675 -0.169287 0.871803
vn -0.459675 -0.169287 0.871803
vn -0.459675 -0.169287 0.871803
vn -0.459675 -0.169287 0.871803
vn 0.032750 -0.883733 -0.466844
vn 0.032750 -0.883733 -0.466844
vn 0.032750 -0.883733 -0.466844
vn 0.032750 -0.883733 -0.466844
vn -0.497322 -0.867084 0.028915
vn -0.497322 -0.867084 0.028915
vn -0.497322 -0.867084 0.028915
vn -0.497322 -0.867084 0.028915
vn -0.369257 -0.191212 0.909443
vn -0.369257 -0.191212 0.909443
vn -0.369257 -0.191212 0.909443
vn -0.369257 -0.191212 0.909443
vn -0.460518 -0.020946 0.887403
vn -0.460518 -0.020946 0.887403
vn -0.460518 -0.020946 0.887403
vn 0.844320 0.478774 -0.240622
vn 0.844320 0.478774 -0.240622
vn 0.844320 0.478774 -0.240622
vn 0.807326 -0.102921 -0.581062
vn 0.807326 -0.102921 -0.581062
vn 0.807326 -0.102921 -0.581062
vn 0.807326 -0.102921 -0.581062
vn -0.337444 -0.896220 0.287960
vn -0.337444 -0.896220 0.287960
vn -0.337445 -0.896220 0.287960
vn -0.337444 -0.896220 0.287960
vn 0.917302 -0.385801 -0.098560
vn 0.917302 -0.385801 -0.098560
vn 0.917302 -0.385801 -0.098560
vn 0.917302 -0.385801 -0.098560
vn 0.017970 0.988749 0.148504
vn 0.017970 0.988749 0.148504
vn 0.017970 0.988748 0.148504
vn 0.017970 0.988748 0.148504
vn 0.017970 0.988749 0.148504
vn 0.655113 0.625527 0.423725
vn 0.655113 0.625527 0.423725
vn 0.655113 0.625527 0.423725
vn 0.931121 -0.284619 0.228047
vn 0.931121 -0.284619 0.228047
vn 0.931121 -0.284619 0.228047
vn 0.973632 0.186075 -0.131976
vn 0.986419 0.144153 -0.078728
vn 0.984968 0.149846 -0.085929
vn 0.486685 0.017439 0.873403
vn 0.486685 0.017439 0.873403
vn 0.486685 0.017439 0.873403
vn 0.486685 0.017439 0.873403
vn -0.438639 -0.194237 0.877421
vn -0.438639 -0.194237 0.877421
vn -0.438639 -0.194237 0.877421
vn -0.865110 -0.128438 0.484859
vn -0.865110 -0.128438 0.484859
vn -0.865110 -0.128438 0.484859
vn 0.426017 -0.533319 0.730808
vn 0.426017 -0.533319 0.730808
vn 0.426017 -0.533318 0.730808
vn 0.426017 -0.533319 0.730808
vn -0.227412 0.082263 0.970318
vn -0.227412 0.082263 0.970318
vn -0.227412 0.082263 0.970318
vn -0.148560 -0.331310 0.931753
vn -0.148560 -0.331310 0.931753
vn -0.148560 -0.331310 0.931753
vn -0.148560 -0.331310 0.931753
vn -0.128916 -0.235537 0.963277
vn -0.128916 -0.235537 0.963277
vn -0.128916 -0.235537 0.963277
vn -0.128916 -0.235537 0.963277
vn -0.077095 -0.935575 0.344609
vn -0.077095 -0.935575 0.344609
vn -0.077095 -0.935575 0.344609
vn -0.916941 0.359113 -0.173947
vn -0.849496 0.518388 -0.098134
vn -0.701143 0.712615 0.024062
vn -0.916941 0.359113 -0.173947
vn -0.947947 0.216163 -0.233816
vn -0.849496 0.518388 -0.098134
vn -0.140011 0.537941 -0.831274
vn -0.217982 0.527027 -0.821417
vn -0.238056 0.523642 -0.818003
vn 0.840468 0.383277 -0.383030
vn 0.622601 0.614149 -0.484963
vn 0.882477 0.315266 -0.349059
vn 0.984968 0.149846 -0.085929
vn 0.986419 0.144153 -0.078728
vn 0.990566 0.125455 -0.055135
vn -0.517734 0.781608 0.347908
vn -0.349603 0.819849 0.453458
vn -0.155640 0.823766 0.545147
s off
f 36/36/1 2/3/2 40/40/3 39/39/4
f 10/11/5 3/4/6 15/17/7 17/19/8 11/12/9
f 15/17/10 9/10/11 8/9/12 16/18/13
f 26/28/14 29/15/15 28/30/16 27/29/17
f 11/12/18 17/19/19 12/13/20
f 9/10/21 10/11/22 14/16/23
f 30/1/24 33/33/25 42/42/26 43/43/27
f 18/23/28 21/22/29 20/21/30 19/20/31
f 22/24/32 23/25/33 20/21/34 21/22/35
f 26/28/36 35/35/37 34/34/38 29/15/39
f 40/40/40 2/3/41 11/12/42 12/13/43
f 24/26/44 25/27/45 18/23/46 19/20/47
f 29/15/48 30/1/49 43/43/50 28/30/51
f 34/34/52 33/33/53 30/1/54 29/15/55
f 38/38/56 6/7/57 14/16/58
f 17/19/59 15/17/60 16/18/61
f 13/14/62 19/20/63 20/21/64 5/5/65
f 8/9/66 21/22/67 18/23/68 12/13/69
f 9/10/70 22/24/71 21/22/72 8/9/73
f 5/5/74 20/21/75 23/25/76 4/6/77
f 4/6/78 23/25/79 22/24/80 9/10/81
f 1/2/82 24/26/83 19/20/84 13/14/85
f 12/13/86 18/23/87 25/27/88
f 7/8/89 25/27/90 24/26/91 1/2/92
f 4/6/93 26/28/94 27/29/95 5/5/96
f 5/5/97 27/29/98 28/30/99 13/14/100
f 1/2/101 31/31/102 32/32/103 7/8/104
f 7/8/105 32/32/106 39/39/107
f 14/16/108 35/35/109 9/10/110
f 9/10/111 35/35/112 26/28/113 4/6/114
f 13/14/115 28/30/116 31/31/117 1/2/118
f 6/7/119 33/33/120 34/34/121 14/16/122
f 37/37/123 10/11/124 11/12/125 2/3/126 36/36/127
f 37/37/128 36/36/129 38/38/130
f 14/16/131 34/34/132 35/35/133
f 10/11/134 37/37/135 14/16/136
f 6/7/137 38/38/138 36/36/139 41/41/140
f 40/40/141 7/8/142 39/39/143
f 7/8/144 40/40/145 12/13/146
f 41/41/147 42/42/148 33/33/149 6/7/150
f 41/41/151 36/36/152 39/39/153
f 32/32/154 42/42/155 41/41/156 39/39/157
f 43/43/158 42/42/159 32/32/160 31/31/161
f 28/30/162 43/43/163 31/31/164
f 12/13/165 16/18/166 8/9/167
f 12/13/168 17/19/169 16/18/170
f 3/4/171 9/10/172 15/17/173
f 9/10/174 3/4/175 10/11/176
f 14/16/177 37/37/178 38/38/179
f 12/13/180 25/27/181 7/8/182
