# This file uses centimeters as units for non-parametric coordinates.

v 11.267367 6.746584 16.334503
v 10.884339 0.157735 16.394272
v 11.260201 -5.859151 16.280067
v 16.327488 5.577409 10.217888
v 15.834283 -9.860968 6.494438
v 5.378625 -10.989319 8.009361
v 5.542237 -10.871069 8.881546
v -2.605287 -12.725567 12.885960
v 12.321923 -9.957726 -7.899124
v 13.303615 11.425829 -3.765289
v 4.940093 -11.035983 7.340393
v 4.730243 12.753448 -2.199303
v -2.388577 12.848727 -9.242874
v 8.445392 -6.726753 -13.064392
v 5.558640 5.727013 -16.433678
v 3.054925 -4.720061 -16.841667
v -3.988657 -11.664724 -11.550499
v 1.038726 -10.740818 -9.905914
v -1.455243 9.324523 17.509014
v 0.552318 -3.248111 16.654976
v 0.534711 -10.397040 16.880394
v -0.541846 -11.328699 15.259232
v -2.233700 -12.755090 12.690094
v -6.206899 12.637264 10.593750
v -2.693494 11.123758 14.964684
v -2.266431 -12.762779 12.629105
v -8.540919 13.317991 -3.819206
v -6.563019 12.808676 5.780373
v -9.012788 13.407154 -8.930656
v -11.447726 11.440735 -11.718163
v -15.204454 6.700913 -12.896790
v -15.152712 1.564456 -13.153091
v -15.929829 -2.295840 -15.107368
v -16.327488 -8.201122 -15.854080
v -14.970721 -11.165443 -13.137344
v -10.045697 -13.407154 -2.665390
v -13.985255 -2.826273 -17.509018
v -12.166944 0.033042 -15.945496
v -13.132442 6.415483 -15.587883
vt 0.459170 0.177376
vt 0.459170 0.177376
vt 0.459170 0.177376
vt 0.459170 0.177376
vt 0.459170 0.177376
vt 0.459170 0.177376
vt 0.459170 0.177376
vt 0.459170 0.177376
vt 0.459170 0.177376
vt 0.459170 0.177376
vt 0.459170 0.177376
vt 0.459170 0.177376
vt 0.459170 0.177376
vt 0.459170 0.177376
vt 0.459170 0.177376
vt 0.459170 0.177376
vt 0.459170 0.177376
vt 0.459170 0.177376
vt 0.459170 0.177376
vt 0.459170 0.177376
vt 0.459170 0.177376
vt 0.459170 0.177376
vt 0.459170 0.177376
vt 0.459170 0.177376
vt 0.459170 0.177376
vt 0.459170 0.177376
vt 0.459170 0.177376
vt 0.459170 0.177376
vt 0.459170 0.177376
vt 0.459170 0.177376
vt 0.459170 0.177376
vt 0.459170 0.177376
vt 0.459170 0.177376
vt 0.459170 0.177376
vt 0.459170 0.177376
vt 0.459170 0.177376
vt 0.459170 0.177376
vt 0.459170 0.177376
vt 0.459170 0.177376
vn 0.092659 0.003646 0.995691
vn 0.092659 0.003646 0.995691
vn 0.092659 0.003646 0.995691
vn 0.037292 0.009456 0.999260
vn 0.037292 0.009456 0.999260
vn 0.037292 0.009456 0.999260
vn 0.037292 0.009456 0.999260
vn 0.381485 -0.877436 0.290820
vn 0.381485 -0.877436 0.290820
vn 0.381485 -0.877436 0.290820
vn 0.381485 -0.877436 0.290820
vn 0.735248 0.033080 0.676990
vn 0.735248 0.033080 0.676990
vn 0.735248 0.033080 0.676990
vn 0.766286 -0.038729 0.641332
vn 0.766286 -0.038729 0.641332
vn 0.766286 -0.038729 0.641332
vn 0.192119 0.964789 0.179647
vn 0.192118 0.964789 0.179647
vn 0.192118 0.964789 0.179647
vn 0.189334 -0.874677 0.446198
vn 0.189334 -0.874677 0.446198
vn 0.189334 -0.874677 0.446198
vn 0.873728 -0.140245 0.465758
vn 0.873728 -0.140245 0.465758
vn 0.873728 -0.140245 0.465758
vn -0.137540 -0.977754 0.158364
vn -0.137540 -0.977754 0.158364
vn -0.137540 -0.977754 0.158364
vn 0.239774 -0.970782 0.009572
vn 0.239774 -0.970782 0.009572
vn 0.239774 -0.970782 0.009572
vn 0.239774 -0.970782 0.009572
vn 0.263154 0.925047 0.273930
vn 0.263154 0.925047 0.273930
vn 0.263154 0.925047 0.273930
vn 0.263154 0.925047 0.273930
vn 0.122481 -0.986273 0.110742
vn 0.122481 -0.986273 0.110742
vn 0.122481 -0.986273 0.110742
vn 0.179938 0.970139 0.162645
vn 0.179938 0.970139 0.162645
vn 0.179938 0.970139 0.162645
vn 0.107168 -0.994241 -0.000899
vn 0.107168 -0.994240 -0.000899
vn 0.107168 -0.994240 -0.000899
vn 0.105748 -0.994209 -0.019121
vn 0.105748 -0.994209 -0.019121
vn 0.105748 -0.994209 -0.019121
vn 0.103521 0.994131 0.031415
vn 0.103521 0.994131 0.031415
vn 0.103521 0.994131 0.031415
vn 0.014375 0.999807 0.013425
vn 0.014375 0.999807 0.013425
vn 0.014375 0.999807 0.013425
vn 0.014375 0.999807 0.013425
vn 0.971120 0.026172 -0.237152
vn 0.971120 0.026172 -0.237152
vn 0.971120 0.026172 -0.237152
vn 0.488984 0.837335 0.244469
vn 0.488984 0.837335 0.244469
vn 0.488984 0.837335 0.244469
vn 0.977079 -0.003709 -0.212846
vn 0.977079 -0.003709 -0.212846
vn 0.977079 -0.003709 -0.212846
vn 0.075227 -0.996584 -0.034074
vn 0.075227 -0.996584 -0.034074
vn 0.075227 -0.996584 -0.034074
vn 0.130719 0.984276 -0.118801
vn 0.130719 0.984276 -0.118801
vn 0.130719 0.984276 -0.118801
vn 0.818938 0.072458 -0.569289
vn 0.818938 0.072458 -0.569289
vn 0.818938 0.072458 -0.569289
vn 0.039229 0.800048 -0.598653
vn 0.039229 0.800048 -0.598653
vn 0.039229 0.800048 -0.598653
vn 0.162062 -0.777329 -0.607861
vn 0.162062 -0.777329 -0.607861
vn 0.162062 -0.777329 -0.607861
vn 0.256112 0.813305 -0.522438
vn 0.256112 0.813305 -0.522438
vn 0.256112 0.813305 -0.522438
vn 0.841992 0.049840 -0.537183
vn 0.841992 0.049840 -0.537183
vn 0.841992 0.049840 -0.537183
vn 0.546245 -0.098426 -0.831822
vn 0.546245 -0.098426 -0.831822
vn 0.546245 -0.098426 -0.831822
vn 0.150550 -0.767803 -0.622746
vn 0.150550 -0.767803 -0.622746
vn 0.150550 -0.767803 -0.622746
vn 0.079041 -0.653632 -0.752674
vn 0.079041 -0.653632 -0.752674
vn 0.079041 -0.653632 -0.752674
vn 0.079041 -0.653632 -0.752674
vn 0.324195 -0.759005 -0.564632
vn 0.324195 -0.759005 -0.564632
vn 0.324195 -0.759005 -0.564632
vn 0.045114 -0.060531 0.997146
vn 0.045114 -0.060531 0.997146
vn 0.045114 -0.060531 0.997146
vn 0.349069 -0.897784 0.268579
vn 0.349069 -0.897784 0.268579
vn 0.349069 -0.897784 0.268579
vn -0.010032 -0.991410 0.130406
vn -0.010032 -0.991410 0.130406
vn -0.010032 -0.991410 0.130406
vn 0.194528 -0.979102 -0.059319
vn 0.194528 -0.979102 -0.059319
vn 0.194528 -0.979102 -0.059319
vn 0.194528 -0.979102 -0.059319
vn 0.084448 0.996382 0.009585
vn 0.084448 0.996382 0.009585
vn 0.084448 0.996382 0.009585
vn 0.025383 0.680173 -0.732612
vn 0.025383 0.680173 -0.732612
vn 0.025383 0.680173 -0.732612
vn 0.025383 0.680173 -0.732612
vn -0.043336 0.049354 -0.997841
vn -0.043336 0.049354 -0.997841
vn -0.043336 0.049354 -0.997841
vn -0.043336 0.049354 -0.997841
vn 0.083608 0.436640 -0.895743
vn 0.083608 0.436640 -0.895743
vn 0.083608 0.436640 -0.895743
vn 0.004503 -0.296060 -0.955159
vn 0.004503 -0.296060 -0.955159
vn 0.004503 -0.296060 -0.955159
vn -0.015267 -0.979178 -0.202431
vn -0.015267 -0.979178 -0.202431
vn -0.015267 -0.979178 -0.202431
vn -0.677252 0.731889 0.075288
vn -0.677252 0.731889 0.075288
vn -0.677252 0.731889 0.075288
vn -0.888067 0.009897 0.459607
vn -0.888067 0.009897 0.459607
vn -0.888067 0.009897 0.459607
vn -0.888067 0.009897 0.459607
vn -0.885019 -0.142035 0.443360
vn -0.885019 -0.142035 0.443360
vn -0.885019 -0.142035 0.443360
vn -0.885019 -0.142035 0.443360
vn -0.877139 0.183516 0.443790
vn -0.877139 0.183516 0.443790
vn -0.877139 0.183516 0.443790
vn -0.877139 0.183516 0.443790
vn -0.877139 0.183516 0.443790
vn -0.877139 0.183516 0.443790
vn 0.198358 -0.978490 -0.056666
vn 0.198358 -0.978490 -0.056666
vn 0.198358 -0.978490 -0.056666
vn -0.887288 0.064602 0.456668
vn -0.887289 0.064602 0.456668
vn -0.887288 0.064602 0.456668
vn -0.887289 0.064602 0.456668
vn -0.909632 -0.032565 0.414137
vn -0.909632 -0.032565 0.414137
vn -0.909632 -0.032565 0.414137
vn -0.909632 -0.032565 0.414137
vn -0.806070 0.563474 0.180964
vn -0.806070 0.563474 0.180964
vn -0.806070 0.563474 0.180964
vn -0.806070 0.563474 0.180965
vn -0.680183 0.729062 0.076287
vn -0.680183 0.729062 0.076287
vn -0.680183 0.729062 0.076287
vn -0.743760 -0.522492 0.416921
vn -0.743760 -0.522492 0.416921
vn -0.743760 -0.522492 0.416921
vn -0.755929 0.131984 -0.641211
vn -0.755929 0.131984 -0.641211
vn -0.755929 0.131984 -0.641211
vn -0.489118 0.545298 -0.680745
vn -0.489118 0.545298 -0.680745
vn -0.489118 0.545298 -0.680745
vn -0.489118 0.545298 -0.680745
vn -0.739592 -0.029477 -0.672410
vn -0.739592 -0.029477 -0.672410
vn -0.739592 -0.029477 -0.672410
vn -0.739592 -0.029477 -0.672410
vn -0.598587 0.604993 -0.525050
vn -0.598587 0.604993 -0.525050
vn -0.598587 0.604993 -0.525050
s off
f 1/1/1 19/2/2 2/3/3
f 3/5/4 2/3/5 20/4/6 21/6/7
f 3/5/8 21/6/9 22/7/10 7/8/11
f 4/9/12 2/3/13 3/5/14
f 1/1/15 2/3/16 4/9/17
f 10/10/18 24/11/19 25/12/20
f 5/13/21 3/5/22 7/8/23
f 4/9/24 3/5/25 5/13/26
f 6/14/27 7/8/28 11/15/29
f 11/15/30 7/8/31 23/16/32 26/17/33
f 10/10/34 25/12/35 19/2/36 1/1/37
f 6/14/38 5/13/39 7/8/40
f 12/18/41 24/11/42 10/10/43
f 11/15/44 5/13/45 6/14/46
f 9/19/47 5/13/48 11/15/49
f 13/20/50 27/21/51 28/22/52
f 13/20/53 28/22/54 24/11/55 12/18/56
f 4/9/57 5/13/58 9/19/59
f 1/1/60 4/9/61 10/10/62
f 10/10/63 4/9/64 9/19/65
f 18/23/66 9/19/67 11/15/68
f 10/10/69 13/20/70 12/18/71
f 14/24/72 10/10/73 9/19/74
f 13/20/75 30/25/76 29/26/77
f 14/24/78 9/19/79 18/23/80
f 13/20/81 10/10/82 15/27/83
f 15/27/84 10/10/85 14/24/86
f 15/27/87 14/24/88 16/28/89
f 16/28/90 14/24/91 18/23/92
f 16/28/93 17/29/94 35/30/95 34/31/96
f 16/28/97 18/23/98 17/29/99
f 19/2/100 20/4/101 2/3/102
f 22/7/103 23/16/104 7/8/105
f 26/17/106 23/16/107 8/33/108
f 11/15/109 26/17/110 36/32/111 18/23/112
f 29/26/113 27/21/114 13/20/115
f 39/39/116 30/25/117 13/20/118 15/27/119
f 38/38/120 39/39/121 15/27/122 16/28/123
f 37/37/124 38/38/125 16/28/126
f 34/31/127 37/37/128 16/28/129
f 36/32/130 35/30/131 17/29/132
f 30/25/133 27/21/134 29/26/135
f 20/4/136 33/36/137 34/31/138 21/6/139
f 33/36/140 20/4/141 19/2/142 32/35/143
f 36/32/144 26/17/145 8/33/146 23/16/147 22/7/148 35/30/149
f 17/29/150 18/23/151 36/32/152
f 35/30/153 22/7/154 21/6/155 34/31/156
f 32/35/157 19/2/158 25/12/159 31/34/160
f 31/34/161 28/22/162 27/21/163 30/25/164
f 31/34/165 24/11/166 28/22/167
f 31/34/168 25/12/169 24/11/170
f 34/31/171 33/36/172 37/37/173
f 33/36/174 32/35/175 38/38/176 37/37/177
f 32/35/178 31/34/179 39/39/180 38/38/181
f 31/34/182 30/25/183 39/39/184
