# This file uses centimeters as units for non-parametric coordinates.

v -16.756687 7.721861 -27.466972
v -0.634060 11.656732 -30.027618
v -12.599735 11.075569 -12.638626
v 4.166431 11.267340 -13.527908
v -4.052258 -1.357474 -20.694427
v 2.419739 4.777919 14.189758
v 17.786217 7.984025 11.316833
v 20.598183 4.829983 25.443497
v 32.573067 3.453704 6.332474
v 11.614285 7.266997 -10.992813
v 14.232939 -10.338657 0.951920
v 8.986435 9.329083 -4.748764
v 19.136885 19.227205 -18.117065
v 28.905947 12.680064 -3.376389
v 32.157574 6.572649 -23.260269
v 6.433735 5.139485 -30.279922
v 16.662636 -8.537132 -14.615326
v -27.545692 1.980662 14.065475
v -20.121346 13.508056 22.401581
v -26.595299 3.984161 34.484863
v -4.698200 5.350615 33.299255
v -3.481827 6.566333 6.309204
v -6.481609 -8.655010 18.208694
v 9.824066 9.772724 30.902405
v -2.433910 15.203238 20.754776
v 18.600025 16.283045 19.468384
v 7.432709 18.411482 7.128448
v 7.648411 3.663013 15.351028
v -2.522678 24.790281 7.341843
v -6.545086 15.374176 19.141998
v -21.389694 23.400887 4.923172
v -22.852165 10.716686 3.502426
v -0.510902 10.075446 -11.790771
v -11.138802 25.895599 -13.155670
v -12.956867 19.454330 1.098480
v 1.174603 27.933887 -8.882904
v 2.377853 24.788582 5.380783
v 10.896645 18.489483 -20.155411
v 14.450109 7.514476 0.015182
v -2.828083 18.765804 -22.903664
v -7.424526 2.449195 -10.515060
v 16.181259 22.138504 -7.729263
v -21.660660 25.892258 -2.878342
v -15.390358 28.717594 -6.751633
v -16.977005 26.236193 2.541428
v -11.207199 30.965252 -0.143509
v -13.972664 24.084560 -2.964401
v 15.965727 29.277275 -3.681946
v 17.329216 26.637911 -11.073608
v 20.703260 23.814909 -2.357330
v 23.980715 22.226379 -9.365311
v 16.711731 21.847773 -7.184601
v 14.300194 22.723194 -23.901978
v 8.075180 27.979271 -24.852142
v 7.117538 21.865574 -29.856949
v -0.961781 26.582130 -25.604706
v 7.039547 28.480915 -15.313187
v 4.553394 18.364252 -20.657120
v 8.400230 32.165405 1.838074
v 5.319653 32.579994 9.104843
v 1.443787 32.634636 0.161285
v -2.056770 35.230789 6.801147
v 2.332821 28.700886 5.460052
v 8.700314 36.502686 -6.634903
v 5.638046 30.734135 -14.894714
v -0.000648 32.209084 -8.613129
v -2.667885 33.909607 -17.067566
v -4.188004 33.301590 -0.636063
v -7.000923 26.770140 -9.998703
v 3.415756 34.188065 0.208969
v 2.075672 25.100210 -5.425110
v -8.411236 32.983498 -7.797394
v 19.470236 17.264107 2.597504
v 28.199766 14.640524 2.124786
v 20.344772 13.297078 9.976044
v 29.284096 12.569686 11.180115
v 24.226858 9.411289 4.836044
v -3.474560 31.700621 11.431046
v 0.201817 28.133657 19.106750
v -7.805424 24.764355 18.712540
v 0.819263 18.309286 23.592834
v 9.593163 25.934807 13.700485
v -0.701675 18.441429 11.467514
v -10.536985 14.126488 26.546936
v -19.042427 14.601526 23.474655
v -9.051151 14.664133 18.483810
v -16.865768 17.638775 14.891891
v -15.058279 10.156868 19.830551
v 20.854166 17.649813 -26.178810
v 25.348015 20.235943 -18.773880
v 14.587822 20.552393 -21.750099
v 18.496626 25.579643 -15.221024
v 19.503878 16.661125 -17.407379
vt 0.449781 0.156690
vt 0.450290 0.156785
vt 0.450582 0.156525
vt 0.450216 0.156974
vt 0.449995 0.156156
vt 0.450582 0.156525
vt 0.450216 0.156974
vt 0.450386 0.156979
vt 0.449781 0.156690
vt 0.449995 0.156156
vt 0.450193 0.156591
vt 0.450582 0.179499
vt 0.450216 0.179948
vt 0.450386 0.179953
vt 0.449781 0.179665
vt 0.449995 0.179131
vt 0.450193 0.179566
vt 0.450582 0.206681
vt 0.450216 0.207130
vt 0.450386 0.207135
vt 0.449781 0.206846
vt 0.449995 0.206312
vt 0.450193 0.206747
vt 0.450582 0.156525
vt 0.450216 0.156974
vt 0.450290 0.156785
vt 0.449781 0.156690
vt 0.449995 0.156156
vt 0.450582 0.179499
vt 0.450216 0.179948
vt 0.450290 0.179760
vt 0.449781 0.179665
vt 0.449995 0.179131
vt 0.449862 0.206966
vt 0.449699 0.206727
vt 0.450193 0.206747
vt 0.450699 0.206888
vt 0.450602 0.206505
vt 0.450444 0.206649
vt 0.450216 0.207130
vt 0.450386 0.207135
vt 0.449995 0.206312
vt 0.278077 0.380266
vt 0.277711 0.380715
vt 0.277785 0.380526
vt 0.277276 0.380432
vt 0.277490 0.379897
vt 0.278077 0.380266
vt 0.277711 0.380715
vt 0.277785 0.380526
vt 0.277276 0.380432
vt 0.277490 0.379897
vt 0.278077 0.380266
vt 0.277711 0.380715
vt 0.277881 0.380720
vt 0.277276 0.380432
vt 0.277490 0.379897
vt 0.277689 0.380332
vt 0.278077 0.380266
vt 0.277711 0.380715
vt 0.277785 0.380526
vt 0.277276 0.380432
vt 0.277490 0.379897
vt 0.277357 0.380551
vt 0.277194 0.380312
vt 0.277689 0.380332
vt 0.278194 0.380473
vt 0.278097 0.380090
vt 0.277939 0.380234
vt 0.277711 0.380715
vt 0.277881 0.380720
vt 0.277490 0.379897
vt 0.278077 0.380266
vt 0.277711 0.380715
vt 0.277785 0.380526
vt 0.277276 0.380432
vt 0.277490 0.379897
vt 0.278077 0.380266
vt 0.277711 0.380715
vt 0.277881 0.380720
vt 0.277276 0.380432
vt 0.277490 0.379897
vt 0.277689 0.380332
vt 0.278077 0.380266
vt 0.277711 0.380715
vt 0.277785 0.380526
vt 0.277276 0.380432
vt 0.277490 0.379897
vt 0.278077 0.380266
vt 0.277711 0.380715
vt 0.277785 0.380526
vt 0.277276 0.380432
vt 0.277490 0.379897
vn 0.869993 -0.417089 -0.262962
vn 0.869993 -0.417089 -0.262962
vn 0.869993 -0.417089 -0.262962
vn 0.014039 -0.585155 -0.810800
vn 0.014039 -0.585155 -0.810800
vn 0.014039 -0.585155 -0.810800
vn 0.051213 -0.518021 0.853834
vn 0.051213 -0.518021 0.853834
vn 0.051213 -0.518021 0.853834
vn -0.256194 0.955787 -0.144348
vn -0.256194 0.955787 -0.144348
vn -0.256194 0.955787 -0.144348
vn -0.010027 0.999598 0.026508
vn -0.010027 0.999598 0.026508
vn -0.010027 0.999598 0.026508
vn -0.659694 -0.671802 0.336878
vn -0.659694 -0.671802 0.336878
vn -0.659694 -0.671802 0.336878
vn 0.531614 -0.419962 -0.735539
vn 0.531614 -0.419962 -0.735539
vn 0.531614 -0.419962 -0.735539
vn -0.861835 -0.366239 -0.350869
vn -0.861835 -0.366239 -0.350869
vn -0.861835 -0.366239 -0.350869
vn 0.489365 -0.792612 0.363714
vn 0.489365 -0.792612 0.363714
vn 0.489365 -0.792612 0.363714
vn -0.199916 0.979523 0.023825
vn -0.199916 0.979523 0.023825
vn -0.199916 0.979523 0.023825
vn -0.154050 0.957356 0.244412
vn -0.154050 0.957357 0.244412
vn -0.154050 0.957356 0.244412
vn 0.259585 0.960246 -0.102676
vn 0.259585 0.960246 -0.102676
vn 0.259585 0.960246 -0.102676
vn 0.333349 0.932086 0.141751
vn 0.333349 0.932086 0.141751
vn 0.333349 0.932086 0.141751
vn 0.233210 -0.651957 -0.721502
vn 0.233210 -0.651957 -0.721502
vn 0.233210 -0.651957 -0.721502
vn -0.870576 -0.464176 0.163214
vn -0.870576 -0.464176 0.163214
vn -0.870576 -0.464176 0.163213
vn 0.746620 -0.591796 0.303868
vn 0.746620 -0.591796 0.303868
vn 0.746620 -0.591796 0.303868
vn -0.724410 0.688179 -0.040499
vn -0.724410 0.688179 -0.040499
vn -0.724410 0.688179 -0.040499
vn -0.177196 0.850519 0.495195
vn -0.177196 0.850519 0.495195
vn -0.177196 0.850519 0.495195
vn 0.194647 0.534537 -0.822425
vn 0.194647 0.534537 -0.822425
vn 0.194647 0.534537 -0.822425
vn 0.668177 0.734834 -0.116440
vn 0.668177 0.734834 -0.116440
vn 0.668177 0.734834 -0.116440
vn 0.985546 -0.165328 0.036969
vn 0.985546 -0.165328 0.036969
vn 0.985546 -0.165328 0.036969
vn -0.142865 -0.591949 -0.793212
vn -0.142865 -0.591949 -0.793212
vn -0.142865 -0.591949 -0.793212
vn 0.082310 -0.735308 0.672716
vn 0.082310 -0.735308 0.672716
vn 0.082310 -0.735308 0.672716
vn -0.338511 0.684744 -0.645396
vn -0.338511 0.684744 -0.645396
vn -0.338511 0.684744 -0.645396
vn -0.835658 0.549045 -0.014976
vn -0.835658 0.549045 -0.014976
vn -0.835658 0.549045 -0.014976
vn 0.433223 0.899285 0.060031
vn 0.433223 0.899285 0.060031
vn 0.433223 0.899285 0.060031
vn -0.016039 0.789433 0.613628
vn -0.016039 0.789433 0.613628
vn -0.016039 0.789433 0.613628
vn -0.719219 -0.346322 -0.602316
vn -0.719219 -0.346322 -0.602316
vn -0.719219 -0.346322 -0.602316
vn -0.611406 -0.703667 0.361988
vn -0.611406 -0.703667 0.361988
vn -0.611406 -0.703667 0.361988
vn 0.660711 -0.358132 -0.659698
vn 0.660711 -0.358132 -0.659698
vn 0.660711 -0.358132 -0.659698
vn -0.015142 0.873862 0.485939
vn -0.015142 0.873862 0.485939
vn -0.015142 0.873862 0.485939
vn -0.037816 0.978451 0.202989
vn -0.037816 0.978451 0.202989
vn -0.037816 0.978451 0.202989
vn 0.717502 -0.676623 0.165448
vn 0.717501 -0.676623 0.165448
vn 0.717502 -0.676623 0.165448
vn 0.099883 -0.977289 0.186892
vn 0.099883 -0.977289 0.186892
vn 0.099883 -0.977289 0.186893
vn 0.966105 -0.145328 0.213357
vn 0.966105 -0.145328 0.213357
vn 0.966105 -0.145328 0.213357
vn -0.554946 0.155521 -0.817220
vn -0.554946 0.155521 -0.817220
vn -0.554946 0.155521 -0.817220
vn -0.134245 0.796374 0.589717
vn -0.134245 0.796374 0.589717
vn -0.134245 0.796374 0.589717
vn -0.692022 -0.001068 0.721876
vn -0.692022 -0.001068 0.721876
vn -0.692022 -0.001068 0.721876
vn 0.019538 0.793516 -0.608236
vn 0.019538 0.793516 -0.608236
vn 0.019538 0.793516 -0.608236
vn -0.274399 0.888950 0.366706
vn -0.274399 0.888950 0.366706
vn -0.274399 0.888950 0.366706
vn 0.911870 -0.271146 -0.308178
vn 0.911870 -0.271146 -0.308178
vn 0.911870 -0.271146 -0.308178
vn 0.322772 -0.730424 -0.601913
vn 0.322772 -0.730424 -0.601913
vn 0.322772 -0.730424 -0.601913
vn 0.322772 -0.730424 -0.601913
vn -0.907112 -0.186211 -0.377455
vn -0.907112 -0.186211 -0.377455
vn -0.907112 -0.186211 -0.377455
vn -0.907112 -0.186211 -0.377455
vn -0.190143 -0.512435 0.837410
vn -0.190143 -0.512435 0.837410
vn -0.190143 -0.512435 0.837410
vn -0.190143 -0.512435 0.837410
vn 0.056411 0.828166 -0.557637
vn 0.056411 0.828166 -0.557637
vn 0.056411 0.828166 -0.557637
vn 0.356806 0.844355 -0.399693
vn 0.356806 0.844355 -0.399693
vn 0.356806 0.844355 -0.399693
vn -0.376356 0.897557 0.229670
vn -0.376356 0.897557 0.229670
vn -0.376356 0.897557 0.229670
vn 0.130170 0.812401 -0.568385
vn 0.130170 0.812401 -0.568385
vn 0.130170 0.812400 -0.568385
vn 0.343015 0.922962 0.174588
vn 0.343015 0.922962 0.174588
vn 0.343015 0.922962 0.174588
vn 0.689487 0.273541 0.670659
vn 0.689487 0.273541 0.670659
vn 0.689487 0.273541 0.670659
vn -0.464918 -0.878759 0.107861
vn -0.464918 -0.878759 0.107861
vn -0.464919 -0.878759 0.107861
vn -0.342912 -0.756111 0.557412
vn -0.342912 -0.756111 0.557412
vn -0.342912 -0.756111 0.557412
vn 0.019674 -0.476844 0.878768
vn 0.019674 -0.476844 0.878768
vn 0.019674 -0.476844 0.878768
vn 0.857486 -0.141883 -0.494557
vn 0.857486 -0.141883 -0.494557
vn 0.857486 -0.141883 -0.494557
vn -0.161998 -0.653777 -0.739143
vn -0.161998 -0.653777 -0.739143
vn -0.161998 -0.653777 -0.739143
vn 0.665894 -0.496078 0.557219
vn 0.665894 -0.496078 0.557219
vn 0.665894 -0.496078 0.557219
vn -0.298147 0.933673 0.198402
vn -0.298147 0.933673 0.198402
vn -0.298147 0.933673 0.198402
vn -0.599122 0.793137 0.109490
vn -0.599121 0.793137 0.109490
vn -0.599121 0.793136 0.109490
vn -0.219029 -0.943373 0.249145
vn -0.219029 -0.943373 0.249146
vn -0.219029 -0.943373 0.249146
vn -0.200578 -0.601779 -0.773066
vn -0.200578 -0.601779 -0.773066
vn -0.200578 -0.601779 -0.773066
vn -0.984283 -0.015913 -0.175882
vn -0.984283 -0.015913 -0.175882
vn -0.984283 -0.015913 -0.175882
vn 0.132898 -0.951399 0.277811
vn 0.132898 -0.951399 0.277811
vn 0.132898 -0.951399 0.277811
vn 0.762981 0.640413 -0.087933
vn 0.762981 0.640413 -0.087933
vn 0.762981 0.640413 -0.087933
vn 0.540432 0.839060 0.062552
vn 0.540432 0.839060 0.062552
vn 0.540432 0.839060 0.062552
vn -0.629686 -0.382108 0.676380
vn -0.629686 -0.382108 0.676380
vn -0.629686 -0.382108 0.676380
vn -0.768909 -0.140514 0.623727
vn -0.768909 -0.140514 0.623727
vn -0.768909 -0.140514 0.623727
vn 0.466523 -0.500043 0.729598
vn 0.466523 -0.500043 0.729598
vn 0.466523 -0.500043 0.729598
vn -0.183754 -0.900572 -0.393960
vn -0.183754 -0.900572 -0.393960
vn -0.183754 -0.900572 -0.393960
vn -0.183754 -0.900572 -0.393960
vn 0.642230 0.765946 0.029446
vn 0.642230 0.765946 0.029446
vn 0.642230 0.765946 0.029446
vn 0.520765 0.490448 -0.698759
vn 0.520765 0.490448 -0.698759
vn 0.520765 0.490448 -0.698759
vn -0.146915 0.986820 -0.067846
vn -0.146915 0.986820 -0.067846
vn -0.146915 0.986820 -0.067846
vn -0.034188 0.636272 -0.770707
vn -0.034188 0.636272 -0.770707
vn -0.034188 0.636272 -0.770707
vn -0.407725 -0.438568 0.800886
vn -0.407725 -0.438568 0.800886
vn -0.407725 -0.438568 0.800886
vn 0.601025 -0.741949 0.297121
vn 0.601025 -0.741949 0.297121
vn 0.601025 -0.741949 0.297121
vn -0.827994 -0.507721 -0.238005
vn -0.827994 -0.507721 -0.238005
vn -0.827994 -0.507721 -0.238005
vn 0.073453 0.996967 -0.025741
vn 0.073453 0.996966 -0.025741
vn 0.073453 0.996966 -0.025741
vn 0.377251 0.912549 -0.157914
vn 0.377251 0.912549 -0.157914
vn 0.377251 0.912548 -0.157914
vn 0.092032 -0.792064 -0.603461
vn 0.092032 -0.792064 -0.603461
vn 0.092032 -0.792064 -0.603461
vn -0.303476 0.830334 -0.467384
vn -0.303476 0.830334 -0.467384
vn -0.303476 0.830334 -0.467384
vn -0.798720 -0.353739 0.486739
vn -0.798720 -0.353739 0.486739
vn -0.798720 -0.353739 0.486739
vn -0.266608 -0.629691 0.729664
vn -0.266608 -0.629691 0.729664
vn -0.266608 -0.629691 0.729664
vn -0.266608 -0.629691 0.729664
vn 0.851439 -0.469977 0.232752
vn 0.851439 -0.469977 0.232752
vn 0.851439 -0.469977 0.232752
vn 0.851439 -0.469977 0.232752
vn 0.014084 -0.794595 -0.606977
vn 0.014084 -0.794595 -0.606977
vn 0.014084 -0.794595 -0.606977
vn 0.014084 -0.794594 -0.606977
vn -0.436280 0.899214 -0.032760
vn -0.436280 0.899214 -0.032760
vn -0.436281 0.899214 -0.032760
vn 0.082379 0.992285 -0.092656
vn 0.082379 0.992285 -0.092656
vn 0.082379 0.992285 -0.092656
vn 0.337033 0.937887 0.082318
vn 0.337033 0.937887 0.082318
vn 0.337033 0.937887 0.082318
vn -0.093726 0.978593 -0.183223
vn -0.093726 0.978593 -0.183223
vn -0.093726 0.978593 -0.183223
vn 0.106189 0.980767 0.163770
vn 0.106189 0.980767 0.163770
vn 0.106189 0.980767 0.163770
vn -0.849783 -0.006141 -0.527097
vn -0.849783 -0.006141 -0.527097
vn -0.849783 -0.006141 -0.527097
vn 0.710630 -0.662583 -0.236619
vn 0.710630 -0.662583 -0.236619
vn 0.710630 -0.662583 -0.236619
vn -0.157351 -0.357705 -0.920482
vn -0.157351 -0.357705 -0.920482
vn -0.157351 -0.357705 -0.920482
vn -0.139292 -0.837691 0.528083
vn -0.139292 -0.837691 0.528083
vn -0.139292 -0.837691 0.528083
vn 0.281276 0.858721 0.428348
vn 0.281276 0.858721 0.428348
vn 0.281276 0.858721 0.428348
vn 0.050106 0.974897 0.216946
vn 0.050106 0.974897 0.216946
vn 0.050106 0.974897 0.216946
vn -0.812153 -0.548575 -0.198678
vn -0.812153 -0.548575 -0.198678
vn -0.812153 -0.548575 -0.198678
vn 0.598232 -0.796937 -0.083724
vn 0.598232 -0.796937 -0.083724
vn 0.598232 -0.796937 -0.083724
vn 0.186523 0.036307 -0.981780
vn 0.186523 0.036307 -0.981780
vn 0.186523 0.036307 -0.981780
vn -0.788296 -0.532590 -0.308119
vn -0.788296 -0.532590 -0.308119
vn -0.788296 -0.532590 -0.308119
vn -0.788296 -0.532590 -0.308119
vn 0.354418 0.901301 0.249088
vn 0.354418 0.901301 0.249088
vn 0.354418 0.901301 0.249088
vn -0.351391 0.773351 0.527686
vn -0.351391 0.773351 0.527686
vn -0.351391 0.773351 0.527686
vn 0.526689 0.380260 0.760264
vn 0.526689 0.380260 0.760264
vn 0.526689 0.380260 0.760264
vn -0.210284 0.395118 0.894238
vn -0.210284 0.395118 0.894238
vn -0.210284 0.395118 0.894238
vn -0.821849 -0.438566 -0.363626
vn -0.821849 -0.438566 -0.363626
vn -0.821849 -0.438566 -0.363626
vn -0.264043 -0.741954 0.616268
vn -0.264043 -0.741954 0.616268
vn -0.264043 -0.741954 0.616268
vn 0.192697 -0.507716 -0.839698
vn 0.192697 -0.507716 -0.839698
vn 0.192697 -0.507716 -0.839698
vn 0.029693 0.996966 0.071949
vn 0.029693 0.996966 0.071949
vn 0.029693 0.996966 0.071949
vn 0.178163 0.912551 0.368115
vn 0.178163 0.912551 0.368115
vn 0.178163 0.912551 0.368115
vn 0.607563 -0.792067 0.059144
vn 0.607563 -0.792067 0.059144
vn 0.607563 -0.792067 0.059144
vn 0.331773 -0.189099 0.924212
vn 0.331773 -0.189099 0.924212
vn 0.331773 -0.189099 0.924212
vn 0.518940 -0.854653 -0.016447
vn 0.518940 -0.854653 -0.016447
vn 0.518940 -0.854653 -0.016447
vn -0.741902 -0.237506 0.627034
vn -0.741902 -0.237506 0.627034
vn -0.741902 -0.237506 0.627034
vn 0.137234 0.906273 -0.399794
vn 0.137234 0.906273 -0.399794
vn 0.137234 0.906273 -0.399794
vn 0.206683 0.711515 -0.671587
vn 0.206683 0.711515 -0.671587
vn 0.206683 0.711515 -0.671587
vn -0.512316 -0.841054 -0.173668
vn -0.512316 -0.841054 -0.173668
vn -0.512316 -0.841054 -0.173668
s off
f 4/3/1 5/4/2 2/2/3
f 2/2/4 5/4/5 1/1/6
f 3/5/7 5/4/8 4/3/9
f 2/2/10 1/1/11 3/5/12
f 2/2/13 3/5/14 4/3/15
f 1/1/16 5/4/17 3/5/18
f 9/6/19 11/7/20 10/8/21
f 10/8/22 11/7/23 6/9/24
f 8/10/25 11/7/26 9/6/27
f 10/8/28 6/9/29 7/11/30
f 7/11/31 6/9/32 8/10/33
f 10/8/34 7/11/35 9/6/36
f 7/11/37 8/10/38 9/6/39
f 15/12/40 17/13/41 16/14/42
f 16/14/43 17/13/44 12/15/45
f 14/16/46 17/13/47 15/12/48
f 16/14/49 12/15/50 13/17/51
f 13/17/52 12/15/53 14/16/54
f 16/14/55 13/17/56 15/12/57
f 13/17/58 14/16/59 15/12/60
f 21/18/61 23/19/62 22/20/63
f 22/20/64 23/19/65 18/21/66
f 20/22/67 23/19/68 21/18/69
f 22/20/70 18/21/71 19/23/72
f 19/23/73 18/21/74 20/22/75
f 22/20/76 19/23/77 21/18/78
f 19/23/79 20/22/80 21/18/81
f 27/24/82 28/25/83 25/26/84
f 25/26/85 28/25/86 24/27/87
f 26/28/88 28/25/89 27/24/90
f 25/26/91 24/27/92 26/28/93
f 25/26/94 26/28/95 27/24/96
f 24/27/97 28/25/98 26/28/99
f 32/29/100 33/30/101 30/31/102
f 30/31/103 33/30/104 29/32/105
f 31/33/106 33/30/107 32/29/108
f 30/31/109 29/32/110 31/33/111
f 30/31/112 31/33/113 32/29/114
f 29/32/115 33/30/116 31/33/117
f 34/34/118 35/35/119 36/36/120
f 38/37/121 42/38/122 39/39/123
f 38/37/124 39/39/125 41/40/126 40/41/127
f 40/41/128 41/40/129 35/35/130 34/34/131
f 35/35/132 41/40/133 39/39/134 37/42/135
f 40/41/136 34/34/137 36/36/138
f 36/36/139 42/38/140 38/37/141
f 36/36/142 35/35/143 37/42/144
f 40/41/145 36/36/146 38/37/147
f 36/36/148 37/42/149 42/38/150
f 39/39/151 42/38/152 37/42/153
f 18/21/154 23/19/155 20/22/156
f 6/9/157 11/7/158 8/10/159
f 12/15/160 17/13/161 14/16/162
f 46/43/163 47/44/164 44/45/165
f 44/45/166 47/44/167 43/46/168
f 45/47/169 47/44/170 46/43/171
f 44/45/172 43/46/173 45/47/174
f 44/45/175 45/47/176 46/43/177
f 43/46/178 47/44/179 45/47/180
f 51/48/181 52/49/182 49/50/183
f 49/50/184 52/49/185 48/51/186
f 50/52/187 52/49/188 51/48/189
f 49/50/190 48/51/191 50/52/192
f 49/50/193 50/52/194 51/48/195
f 48/51/196 52/49/197 50/52/198
f 56/53/199 58/54/200 57/55/201
f 57/55/202 58/54/203 53/56/204
f 53/56/205 58/54/206 56/53/207 55/57/208
f 57/55/209 53/56/210 54/58/211
f 54/58/212 53/56/213 55/57/214
f 57/55/215 54/58/216 56/53/217
f 54/58/218 55/57/219 56/53/220
f 62/59/221 63/60/222 60/61/223
f 60/61/224 63/60/225 59/62/226
f 61/63/227 63/60/228 62/59/229
f 60/61/230 59/62/231 61/63/232
f 60/61/233 61/63/234 62/59/235
f 59/62/236 63/60/237 61/63/238
f 64/64/239 65/65/240 66/66/241
f 68/67/242 72/68/243 69/69/244
f 68/67/245 69/69/246 71/70/247 70/71/248
f 70/71/249 71/70/250 65/65/251 64/64/252
f 65/65/253 71/70/254 69/69/255 67/72/256
f 70/71/257 64/64/258 66/66/259
f 66/66/260 72/68/261 68/67/262
f 66/66/263 65/65/264 67/72/265
f 70/71/266 66/66/267 68/67/268
f 66/66/269 67/72/270 72/68/271
f 69/69/272 72/68/273 67/72/274
f 76/73/275 77/74/276 74/75/277
f 74/75/278 77/74/279 73/76/280
f 75/77/281 77/74/282 76/73/283
f 74/75/284 73/76/285 75/77/286
f 74/75/287 75/77/288 76/73/289
f 73/76/290 77/74/291 75/77/292
f 81/78/293 83/79/294 82/80/295
f 82/80/296 83/79/297 78/81/298
f 78/81/299 83/79/300 81/78/301 80/82/302
f 82/80/303 78/81/304 79/83/305
f 79/83/306 78/81/307 80/82/308
f 82/80/309 79/83/310 81/78/311
f 79/83/312 80/82/313 81/78/314
f 87/84/315 88/85/316 85/86/317
f 85/86/318 88/85/319 84/87/320
f 86/88/321 88/85/322 87/84/323
f 85/86/324 84/87/325 86/88/326
f 85/86/327 86/88/328 87/84/329
f 84/87/330 88/85/331 86/88/332
f 92/89/333 93/90/334 90/91/335
f 90/91/336 93/90/337 89/92/338
f 91/93/339 93/90/340 92/89/341
f 90/91/342 89/92/343 91/93/344
f 90/91/345 91/93/346 92/89/347
f 89/92/348 93/90/349 91/93/350
