# This file uses centimeters as units for non-parametric coordinates.

v -49.949219 116.285671 85.768555
v 10.101563 32.145870 177.291992
v -77.089844 21.756954 159.629883
v 21.156250 -73.276646 130.729492
v -136.589844 -50.501682 142.569336
v -170.304688 36.150082 75.235352
v -184.789063 -57.205601 23.465820
v -139.550781 89.972317 31.193359
v 95.917969 61.794033 144.793945
v -131.519531 -94.175236 44.441406
v -27.320313 172.503506 45.276367
v 65.847656 132.306973 87.239258
v 138.367188 74.543758 53.532227
v -160.703125 14.703426 -67.800781
v -100.417969 -46.294132 -38.943359
v 92.089844 -62.036625 95.717773
v -7.652344 -62.500828 -27.984375
v 49.960938 128.325100 -46.825195
v 184.785156 -19.939182 53.585938
v 100.656250 86.943691 -43.071289
v -117.542969 119.669643 -74.959961
v 151.593750 67.397610 -74.943359
v 170.328125 -2.800053 -91.717773
v -65.324219 78.272152 -156.194336
v -81.417969 6.593960 -177.291992
v -8.851563 -49.507145 -95.076172
v 43.402344 56.010159 -173.817383
v 107.605469 -84.175938 -71.517578
v 50.750000 -23.059849 -149.053711
vt 0.449412 0.154416
vt 0.449412 0.154416
vt 0.449412 0.154416
vt 0.449412 0.154416
vt 0.449412 0.154416
vt 0.449412 0.154416
vt 0.449412 0.154416
vt 0.449412 0.154416
vt 0.449412 0.154416
vt 0.449412 0.154416
vt 0.449412 0.154416
vt 0.449412 0.154416
vt 0.449412 0.154416
vt 0.449412 0.154416
vt 0.449412 0.154416
vt 0.449412 0.154416
vt 0.449412 0.154416
vt 0.449412 0.154416
vt 0.449412 0.154416
vt 0.449412 0.154416
vt 0.449412 0.154416
vt 0.449412 0.154416
vt 0.449412 0.154416
vt 0.449412 0.154416
vt 0.449412 0.154416
vt 0.449412 0.154416
vt 0.449412 0.154416
vt 0.449412 0.154416
vt 0.449412 0.154416
vt 0.449412 0.154416
vt 0.449412 0.154416
vt 0.449412 0.154416
vt 0.449412 0.154416
vt 0.449412 0.154416
vt 0.449412 0.154416
vt 0.449412 0.154416
vt 0.449412 0.154416
vt 0.449412 0.154416
vt 0.449412 0.154416
vt 0.449412 0.154416
vt 0.449412 0.154416
vt 0.449412 0.154416
vt 0.449412 0.154416
vt 0.449412 0.154416
vt 0.449412 0.154416
vt 0.449412 0.154416
vt 0.449412 0.154416
vt 0.449412 0.154416
vt 0.449412 0.154416
vt 0.449412 0.154416
vt 0.449412 0.154416
vt 0.449412 0.154416
vt 0.449412 0.154416
vt 0.449412 0.154416
vt 0.449412 0.154416
vt 0.449412 0.154416
vt 0.449412 0.154416
vt 0.449412 0.154416
vt 0.449412 0.154416
vt 0.449412 0.154416
vt 0.449412 0.154416
vt 0.449412 0.154416
vt 0.449412 0.154416
vt 0.449412 0.154416
vt 0.449412 0.154416
vt 0.449412 0.154416
vt 0.449412 0.154416
vt 0.449412 0.154416
vt 0.449412 0.154416
vt 0.449412 0.154416
vt 0.449412 0.154416
vt 0.449412 0.154416
vt 0.449412 0.154416
vt 0.449412 0.154416
vt 0.449412 0.154416
vt 0.449412 0.154416
vt 0.449412 0.154416
vt 0.449412 0.154416
vt 0.449412 0.154416
vt 0.449412 0.154416
vt 0.449412 0.154416
vt 0.449412 0.154416
vt 0.449412 0.154416
vt 0.449412 0.154416
vt 0.449412 0.154416
vt 0.449412 0.154416
vt 0.449412 0.154416
vt 0.449412 0.154416
vt 0.449412 0.154416
vt 0.449412 0.154416
vt 0.449412 0.154416
vt 0.449412 0.154416
vt 0.449412 0.154416
vt 0.449412 0.154416
vt 0.449412 0.154416
vt 0.449412 0.154416
vt 0.449412 0.154416
vt 0.449412 0.154416
vt 0.449412 0.154416
vt 0.449412 0.154416
vt 0.449412 0.154416
vt 0.449412 0.154416
vt 0.449412 0.154416
vt 0.449412 0.154416
vt 0.449412 0.154416
vt 0.449412 0.154416
vt 0.449412 0.154416
vt 0.449412 0.154416
vt 0.449412 0.154416
vt 0.449412 0.154416
vt 0.449412 0.154416
vt 0.449412 0.154416
vt 0.449412 0.154416
vt 0.449412 0.154416
vt 0.449412 0.154416
vt 0.449412 0.154416
vt 0.449412 0.154416
vt 0.449412 0.154416
vt 0.449412 0.154416
vt 0.449412 0.154416
vt 0.449412 0.154416
vt 0.449412 0.154416
vt 0.449412 0.154416
vt 0.449412 0.154416
vt 0.449412 0.154416
vt 0.449412 0.154416
vt 0.449412 0.154416
vt 0.449412 0.154416
vt 0.449412 0.154416
vt 0.449412 0.154416
vt 0.449412 0.154416
vt 0.449412 0.154416
vt 0.449412 0.154416
vt 0.449412 0.154416
vt 0.449412 0.154416
vt 0.449412 0.154416
vt 0.449412 0.154416
vt 0.449412 0.154416
vt 0.449412 0.154416
vt 0.449412 0.154416
vt 0.449412 0.154416
vt 0.449412 0.154416
vt 0.449412 0.154416
vt 0.449412 0.154416
vt 0.449412 0.154416
vt 0.449412 0.154416
vt 0.449412 0.154416
vt 0.449412 0.154416
vt 0.449412 0.154416
vt 0.449412 0.154416
vt 0.449412 0.154416
vt 0.449412 0.154416
vt 0.449412 0.154416
vt 0.449412 0.154416
vt 0.449412 0.154416
vt 0.449412 0.154416
vt 0.449412 0.154416
vt 0.449412 0.154416
vt 0.449412 0.154416
vt 0.449412 0.154416
vt 0.449412 0.154416
vt 0.449412 0.154416
vn -0.225126 0.639211 0.735342
vn -0.225126 0.639211 0.735342
vn -0.225126 0.639211 0.735342
vn -0.772475 0.569722 0.280534
vn -0.772475 0.569722 0.280534
vn -0.772475 0.569722 0.280534
vn -0.469724 0.623355 0.625130
vn -0.469724 0.623355 0.625130
vn -0.469724 0.623355 0.625130
vn -0.667827 -0.279018 0.690041
vn -0.667827 -0.279018 0.690041
vn -0.667827 -0.279018 0.690041
vn -0.133477 -0.412077 0.901319
vn -0.133477 -0.412077 0.901319
vn -0.133477 -0.412077 0.901319
vn 0.035362 -0.257133 0.965729
vn 0.035362 -0.257133 0.965729
vn 0.035362 -0.257133 0.965729
vn 0.001578 0.736699 0.676219
vn 0.001578 0.736699 0.676219
vn 0.001578 0.736699 0.676219
vn 0.431264 -0.326308 0.841150
vn 0.431264 -0.326308 0.841150
vn 0.431264 -0.326308 0.841150
vn -0.620209 -0.728076 0.291970
vn -0.620209 -0.728076 0.291970
vn -0.620209 -0.728076 0.291970
vn -0.509977 0.700210 0.499630
vn -0.509977 0.700210 0.499629
vn -0.509977 0.700210 0.499630
vn -0.101477 -0.910819 0.400140
vn -0.101477 -0.910819 0.400140
vn -0.101477 -0.910819 0.400140
vn -0.531571 0.625418 0.571214
vn -0.531571 0.625418 0.571214
vn -0.531571 0.625418 0.571214
vn -0.093775 0.605255 0.790489
vn -0.093775 0.605255 0.790489
vn -0.093775 0.605255 0.790489
vn 0.459010 -0.339585 0.820970
vn 0.459010 -0.339585 0.820970
vn 0.459010 -0.339585 0.820970
vn -0.564434 0.465589 -0.681646
vn -0.564434 0.465589 -0.681646
vn -0.564434 0.465589 -0.681646
vn -0.901616 0.414766 -0.122713
vn -0.901616 0.414766 -0.122713
vn -0.901616 0.414766 -0.122713
vn -0.313441 -0.768324 -0.558062
vn -0.313441 -0.768324 -0.558062
vn -0.313441 -0.768324 -0.558062
vn -0.723012 -0.688665 0.054727
vn -0.723012 -0.688665 0.054727
vn -0.723012 -0.688665 0.054727
vn 0.190679 -0.976453 -0.100904
vn 0.190679 -0.976453 -0.100904
vn 0.190679 -0.976453 -0.100904
vn -0.093947 0.606476 0.789532
vn -0.093947 0.606476 0.789532
vn -0.093947 0.606476 0.789532
vn -0.597583 0.795705 0.098731
vn -0.597583 0.795705 0.098731
vn -0.597583 0.795705 0.098731
vn -0.923415 0.373840 -0.086882
vn -0.923415 0.373840 -0.086882
vn -0.923415 0.373840 -0.086882
vn 0.809359 0.397835 0.432047
vn 0.809359 0.397835 0.432047
vn 0.809359 0.397835 0.432047
vn 0.510779 -0.330385 0.793694
vn 0.510779 -0.330385 0.793694
vn 0.510779 -0.330385 0.793694
vn -0.086957 -0.849561 -0.520274
vn -0.086957 -0.849561 -0.520274
vn -0.086957 -0.849561 -0.520274
vn 0.113495 -0.989652 -0.087797
vn 0.113495 -0.989652 -0.087797
vn 0.113495 -0.989652 -0.087797
vn 0.528728 0.556234 -0.641132
vn 0.528728 0.556234 -0.641132
vn 0.528728 0.556234 -0.641132
vn 0.677476 0.616473 0.401232
vn 0.677476 0.616473 0.401231
vn 0.677476 0.616473 0.401231
vn -0.047566 0.998579 -0.024023
vn -0.047566 0.998579 -0.024023
vn -0.047566 0.998579 -0.024023
vn 0.895440 0.440002 0.067714
vn 0.895440 0.440002 0.067714
vn 0.895440 0.440002 0.067714
vn 0.582299 0.803436 -0.124172
vn 0.582299 0.803436 -0.124172
vn 0.582299 0.803436 -0.124172
vn -0.744425 0.264246 -0.613193
vn -0.744425 0.264246 -0.613193
vn -0.744425 0.264246 -0.613193
vn 0.633590 0.767454 -0.097871
vn 0.633590 0.767454 -0.097871
vn 0.633590 0.767454 -0.097871
vn 0.349367 0.936847 -0.016139
vn 0.349367 0.936847 -0.016139
vn 0.349367 0.936847 -0.016139
vn -0.572727 -0.736379 -0.360180
vn -0.572727 -0.736379 -0.360180
vn -0.572727 -0.736379 -0.360180
vn -0.140651 -0.983110 0.117097
vn -0.140651 -0.983110 0.117097
vn -0.140651 -0.983110 0.117097
vn -0.261586 -0.889006 -0.375821
vn -0.261586 -0.889006 -0.375821
vn -0.261586 -0.889006 -0.375821
vn -0.147803 -0.971465 -0.185498
vn -0.147803 -0.971465 -0.185498
vn -0.147803 -0.971465 -0.185498
vn -0.247026 -0.952148 -0.179977
vn -0.247026 -0.952148 -0.179977
vn -0.247026 -0.952148 -0.179977
vn 0.467110 -0.869877 0.158499
vn 0.467110 -0.869877 0.158499
vn 0.467110 -0.869877 0.158499
vn 0.027482 0.897678 -0.439794
vn 0.027482 0.897678 -0.439794
vn 0.027482 0.897678 -0.439794
vn 0.591966 0.686807 -0.421749
vn 0.591966 0.686807 -0.421749
vn 0.591966 0.686807 -0.421749
vn 0.960339 0.271502 -0.063527
vn 0.960339 0.271502 -0.063527
vn 0.960339 0.271502 -0.063527
vn 0.764686 -0.626703 -0.149995
vn 0.764686 -0.626703 -0.149995
vn 0.764686 -0.626703 -0.149995
vn 0.096219 0.862823 -0.496264
vn 0.096219 0.862823 -0.496264
vn 0.096219 0.862823 -0.496264
vn 0.173657 0.938597 -0.298126
vn 0.173657 0.938597 -0.298126
vn 0.173657 0.938597 -0.298126
vn -0.750889 0.335924 -0.568613
vn -0.750889 0.335924 -0.568613
vn -0.750889 0.335924 -0.568613
vn -0.082859 -0.855730 -0.510745
vn -0.082859 -0.855730 -0.510745
vn -0.082859 -0.855730 -0.510745
vn 0.439282 -0.520376 -0.732284
vn 0.439282 -0.520376 -0.732284
vn 0.439282 -0.520376 -0.732284
vn -0.133696 -0.823609 -0.551174
vn -0.133696 -0.823609 -0.551174
vn -0.133696 -0.823609 -0.551174
vn -0.092402 0.300194 -0.949392
vn -0.092402 0.300194 -0.949392
vn -0.092402 0.300194 -0.949392
vn 0.452110 -0.228061 -0.862314
vn 0.452110 -0.228061 -0.862314
vn 0.452110 -0.228061 -0.862314
vn 0.616228 0.334790 -0.712867
vn 0.616228 0.334790 -0.712867
vn 0.616228 0.334790 -0.712867
vn 0.138913 -0.284176 -0.948656
vn 0.138913 -0.284176 -0.948656
vn 0.138913 -0.284176 -0.948656
s off
f 1/1/1 3/2/2 2/3/3
f 5/4/4 3/5/5 7/6/6
f 1/7/7 6/8/8 3/9/9
f 3/10/10 6/11/11 7/12/12
f 4/13/13 2/14/14 3/15/15
f 3/16/16 5/17/17 4/18/18
f 2/19/19 9/20/20 1/21/21
f 4/22/22 9/23/23 2/24/24
f 5/25/25 7/26/26 10/27/27
f 8/28/28 6/29/29 1/30/30
f 10/31/31 4/32/32 5/33/33
f 11/34/34 8/35/35 1/36/36
f 1/37/37 9/38/38 12/39/39
f 9/40/40 4/41/41 16/42/42
f 15/43/43 7/44/44 6/45/45
f 14/46/46 6/47/47 8/48/48
f 7/49/49 15/50/50 10/51/51
f 15/52/52 6/53/53 14/54/54
f 10/55/55 17/56/56 4/57/57
f 12/58/58 11/59/59 1/60/60
f 11/61/61 21/62/62 8/63/63
f 14/64/64 8/65/65 21/66/66
f 13/67/67 9/68/68 19/69/69
f 9/70/70 16/71/71 19/72/72
f 15/73/73 17/74/74 10/75/75
f 17/76/76 16/77/77 4/78/78
f 21/79/79 11/80/80 12/81/81
f 9/82/82 13/83/83 12/84/84
f 18/85/85 21/86/86 12/87/87
f 22/88/88 13/89/89 19/90/90
f 13/91/91 20/92/92 12/93/93
f 24/94/94 14/95/95 21/96/96
f 12/97/97 20/98/98 18/99/99
f 22/100/100 20/101/101 13/102/102
f 25/103/103 15/104/104 14/105/105
f 16/106/106 17/107/107 28/108/108
f 25/109/109 26/110/110 15/111/111
f 15/112/112 26/113/113 17/114/114
f 26/115/115 28/116/116 17/117/117
f 16/118/118 28/119/119 19/120/120
f 18/121/121 24/122/122 21/123/123
f 27/124/124 18/125/125 20/126/126
f 23/127/127 22/128/128 19/129/129
f 19/130/130 28/131/131 23/132/132
f 27/133/133 24/134/134 18/135/135
f 20/136/136 22/137/137 27/138/138
f 24/139/139 25/140/140 14/141/141
f 26/142/142 25/143/143 29/144/144
f 28/145/145 29/146/146 23/147/147
f 29/148/148 28/149/149 26/150/150
f 25/151/151 24/152/152 27/153/153
f 29/154/154 27/155/155 23/156/156
f 27/157/157 22/158/158 23/159/159
f 25/160/160 27/161/161 29/162/162
