# This file uses centimeters as units for non-parametric coordinates.

v -311.114929 -14.302449 17.651115
v -341.112701 -14.122280 46.389133
v -346.663544 -21.476436 227.429184
v -328.116577 -25.011246 288.632355
v -281.649414 -27.179385 330.317474
v -305.908661 3.034573 48.790276
v -299.206696 11.709749 146.934082
v -279.115112 -6.836239 277.224884
v -143.366028 -18.334912 377.353699
v -166.400848 7.560090 91.627075
v -184.362167 4.670889 190.343903
v -251.585541 18.064909 27.954302
v 94.066269 -6.831905 332.644043
v -264.089294 14.560596 90.620926
v 52.648552 18.064911 11.357053
v 26.130322 20.079196 50.260944
v 51.012012 8.299200 138.595749
v 149.986862 19.774199 61.032463
v 185.522141 -23.966305 376.368408
v 208.265717 -5.488543 14.163399
v 208.881531 5.762832 199.038712
v 164.037750 10.653860 115.505539
v 165.897522 -4.005383 298.002808
v 252.947342 13.580449 152.246964
v 285.793335 13.190056 111.148537
v 244.847427 20.354887 70.153748
v 279.559479 -6.889152 205.681732
v 245.021973 18.064909 24.723757
v 283.072418 9.164100 55.228828
v 249.132339 -21.984457 345.100494
v 266.231140 -13.459769 14.094465
v 304.928558 -7.755251 48.752113
v 321.374298 -10.085812 116.766647
v 295.602020 -29.629239 297.062561
v -331.780731 -44.263114 -17.331608
v -370.369324 -44.227522 10.135528
v -378.584656 -44.227522 267.065918
v -319.630981 -44.227522 388.285370
v -103.775215 -44.227522 452.859772
v -276.951843 -44.478098 -10.838404
v 157.715027 -44.227522 449.030426
v 182.530228 -45.457212 9.897160
v 282.900360 -44.541277 -3.525610
v 355.244049 -44.227522 166.472534
v 328.685455 -44.293217 14.100478
v 339.722321 -44.227522 319.810303
v 296.355347 -44.227522 407.288269
v 103.235420 -24.826639 410.581726
v 70.807297 1.905041 257.327667
v -78.726921 11.821927 162.349762
v -179.456955 21.340346 52.602150
v -185.940887 -2.106875 289.761902
v 75.768005 -44.227522 472.364075
v -362.086517 -19.583849 132.057739
v -394.193848 -44.227527 133.996582
v 327.368469 -20.293545 191.702042
v 21.015091 -45.111875 2.858660
v -147.332047 -44.753800 2.858658
v -164.118225 18.064909 23.182590
v -72.832428 -44.900795 2.858659
v -48.356068 18.776543 11.357051
v -68.149940 22.475364 63.139095
v -64.495857 17.128111 126.661072
v -44.342491 6.289839 233.286804
v -34.663486 -5.092775 284.342407
v -28.364952 -8.748446 321.781952
v -46.375130 -17.063211 376.190552
v -46.450493 -30.784217 425.395447
v -27.192890 -44.227522 472.572510
v -203.198151 -37.024702 391.157867
v -215.741623 -44.227522 417.146912
vt 0.480833 0.179875
vt 0.480749 0.179962
vt 0.480791 0.179860
vt 0.480497 0.180029
vt 0.480580 0.179941
vt 0.480228 0.179975
vt 0.480356 0.180034
vt 0.480207 0.180097
vt 0.480097 0.179930
vt 0.480516 0.179806
vt 0.480328 0.179896
vt 0.480817 0.179781
vt 0.480676 0.179795
vt 0.480105 0.179844
vt 0.480632 0.179692
vt 0.480415 0.179804
vt 0.480581 0.179752
vt 0.480450 0.179767
vt 0.480575 0.179691
vt 0.480050 0.179859
vt 0.480721 0.179704
vt 0.480504 0.179689
vt 0.480258 0.179823
vt 0.480329 0.179739
vt 0.480215 0.179777
vt 0.480341 0.179664
vt 0.480329 0.179643
vt 0.480268 0.179662
vt 0.480010 0.179798
vt 0.480537 0.179634
vt 0.480438 0.179660
vt 0.480366 0.179646
vt 0.480016 0.179743
vt 0.480557 0.179640
vt 0.480398 0.179618
vt 0.480303 0.179631
vt 0.480122 0.179680
vt 0.480897 0.180008
vt 0.480827 0.180093
vt 0.480428 0.180188
vt 0.480897 0.179855
vt 0.480764 0.179745
vt 0.480570 0.179661
vt 0.480241 0.179677
vt 0.480394 0.179653
vt 0.480177 0.180192
vt 0.479997 0.180009
vt 0.479975 0.179777
vt 0.479925 0.179876
vt 0.480087 0.179712
vt 0.480669 0.179782
vt 0.480187 0.179931
vt 0.479948 0.179918
vt 0.480627 0.179994
vt 0.480629 0.180140
vt 0.480252 0.179670
vt 0.480811 0.179784
vt 0.480860 0.179824
vt 0.480763 0.179755
vt 0.480840 0.179807
vt 0.480671 0.179727
vt 0.480585 0.179770
vt 0.480485 0.179788
vt 0.480292 0.179858
vt 0.480198 0.179866
vt 0.480141 0.179882
vt 0.480089 0.179897
vt 0.480019 0.179945
vt 0.479970 0.179959
vt 0.480086 0.180046
vt 0.480093 0.180107
vn -0.379098 0.833983 -0.400945
vn -0.379098 0.833983 -0.400945
vn -0.379098 0.833983 -0.400945
vn -0.461027 0.882597 0.092069
vn -0.461027 0.882597 0.092069
vn -0.461027 0.882597 0.092069
vn -0.335376 0.924089 0.183254
vn -0.335376 0.924089 0.183254
vn -0.335376 0.924089 0.183254
vn -0.313177 0.937921 0.149075
vn -0.313177 0.937921 0.149075
vn -0.313177 0.937921 0.149075
vn -0.258152 0.906200 0.334901
vn -0.258152 0.906200 0.334901
vn -0.258152 0.906200 0.334901
vn -0.434807 0.899146 -0.049786
vn -0.434807 0.899146 -0.049786
vn -0.434807 0.899146 -0.049786
vn -0.176266 0.921960 0.344848
vn -0.176266 0.921960 0.344848
vn -0.176266 0.921960 0.344848
vn 0.046910 0.998186 0.037750
vn 0.046910 0.998186 0.037750
vn 0.046910 0.998186 0.037750
vn -0.383591 0.832645 -0.399449
vn -0.383591 0.832645 -0.399449
vn -0.383591 0.832645 -0.399449
vn -0.196460 0.977790 -0.073014
vn -0.196460 0.977790 -0.073014
vn -0.196460 0.977790 -0.073014
vn -0.011230 0.980889 0.194244
vn -0.011230 0.980889 0.194244
vn -0.011230 0.980889 0.194244
vn -0.011230 0.980889 0.194244
vn -0.060234 0.997225 0.043746
vn -0.060234 0.997225 0.043746
vn -0.060234 0.997225 0.043746
vn 0.070198 0.993089 0.094051
vn 0.070198 0.993089 0.094051
vn 0.070198 0.993090 0.094051
vn -0.062842 0.997865 0.017771
vn -0.062842 0.997865 0.017771
vn -0.062842 0.997865 0.017771
vn 0.064680 0.947562 0.312958
vn 0.064680 0.947562 0.312958
vn 0.064680 0.947562 0.312958
vn 0.053609 0.993343 0.101961
vn 0.053609 0.993343 0.101961
vn 0.053609 0.993343 0.101961
vn 0.053609 0.993343 0.101961
vn 0.006568 0.998862 -0.047240
vn 0.006568 0.998862 -0.047240
vn 0.006568 0.998862 -0.047240
vn 0.000628 0.132527 -0.991179
vn 0.000628 0.132527 -0.991179
vn 0.000628 0.132527 -0.991179
vn 0.000628 0.132527 -0.991179
vn 0.006010 0.991427 0.130520
vn 0.006010 0.991427 0.130520
vn 0.006010 0.991427 0.130520
vn 0.024191 0.997522 0.066067
vn 0.024191 0.997522 0.066067
vn 0.024191 0.997522 0.066067
vn -0.007979 0.997999 0.062718
vn -0.007979 0.997999 0.062718
vn -0.007979 0.997999 0.062718
vn -0.008602 0.975654 0.219148
vn -0.008602 0.975654 0.219148
vn -0.008602 0.975654 0.219148
vn -0.012199 0.985681 0.168178
vn -0.012199 0.985681 0.168178
vn -0.012199 0.985681 0.168178
vn -0.018548 0.995748 0.090229
vn -0.018548 0.995748 0.090229
vn -0.018548 0.995748 0.090229
vn -0.072851 0.992592 0.097228
vn -0.072851 0.992592 0.097228
vn -0.072851 0.992592 0.097228
vn 0.282744 0.934305 0.217095
vn 0.282744 0.934305 0.217095
vn 0.282744 0.934305 0.217095
vn 0.158742 0.973430 0.165030
vn 0.158742 0.973430 0.165030
vn 0.158742 0.973430 0.165030
vn 0.072310 0.970703 0.229145
vn 0.072310 0.970703 0.229145
vn 0.072310 0.970703 0.229145
vn 0.065644 0.321145 -0.944752
vn 0.065644 0.321145 -0.944752
vn 0.065644 0.321145 -0.944752
vn 0.002765 0.999204 -0.039801
vn 0.002765 0.999204 -0.039801
vn 0.002765 0.999204 -0.039801
vn -0.069421 0.993623 0.088845
vn -0.069421 0.993623 0.088845
vn -0.069421 0.993623 0.088845
vn 0.101690 0.992218 0.071846
vn 0.101690 0.992218 0.071846
vn 0.101690 0.992218 0.071846
vn -0.022445 0.985064 0.170717
vn -0.022445 0.985064 0.170717
vn -0.022445 0.985064 0.170717
vn 0.250538 0.964658 -0.081641
vn 0.250538 0.964658 -0.081641
vn 0.250538 0.964658 -0.081641
vn 0.135179 0.981475 0.135769
vn 0.135179 0.981475 0.135769
vn 0.135179 0.981475 0.135769
vn 0.081274 0.970531 0.226856
vn 0.081274 0.970531 0.226856
vn 0.081274 0.970531 0.226856
vn 0.046629 0.347181 -0.936638
vn 0.046629 0.347181 -0.936638
vn 0.046629 0.347181 -0.936638
vn 0.263504 0.963486 -0.047554
vn 0.263504 0.963486 -0.047554
vn 0.263504 0.963486 -0.047554
vn 0.586703 0.801682 -0.114393
vn 0.586703 0.801682 -0.114393
vn 0.586703 0.801682 -0.114393
vn 0.554918 0.827389 -0.086569
vn 0.554918 0.827389 -0.086569
vn 0.554918 0.827389 -0.086569
vn 0.511639 0.832974 0.210666
vn 0.511639 0.832974 0.210666
vn 0.511639 0.832974 0.210666
vn 0.586560 0.583875 -0.561281
vn 0.586560 0.583875 -0.561281
vn 0.586560 0.583875 -0.561281
vn 0.395940 0.726472 -0.561667
vn 0.395940 0.726472 -0.561667
vn 0.395940 0.726472 -0.561667
vn 0.331144 0.927640 0.172708
vn 0.331144 0.927640 0.172708
vn 0.331144 0.927640 0.172708
vn -0.359232 0.822199 -0.441522
vn -0.359232 0.822199 -0.441522
vn -0.359232 0.822199 -0.441522
vn -0.359232 0.822199 -0.441522
vn -0.557714 0.825913 0.082604
vn -0.557714 0.825912 0.082604
vn -0.557714 0.825912 0.082604
vn -0.557714 0.825913 0.082604
vn -0.415507 0.892115 0.177440
vn -0.415507 0.892115 0.177440
vn -0.415507 0.892115 0.177440
vn -0.068628 0.642703 -0.763036
vn -0.068628 0.642703 -0.763036
vn -0.068628 0.642703 -0.763036
vn -0.068628 0.642703 -0.763036
vn -0.067599 0.301585 -0.951040
vn -0.067599 0.301585 -0.951040
vn -0.067599 0.301585 -0.951040
vn -0.067599 0.301585 -0.951040
vn 0.781736 0.606203 -0.146311
vn 0.781736 0.606203 -0.146311
vn 0.781736 0.606203 -0.146311
vn 0.781736 0.606203 -0.146311
vn 0.296944 0.949046 0.105527
vn 0.296944 0.949046 0.105527
vn 0.296944 0.949046 0.105527
vn 0.342783 0.694198 -0.632921
vn 0.342783 0.694198 -0.632921
vn 0.342783 0.694198 -0.632921
vn 0.342783 0.694198 -0.632921
vn -0.297825 0.932318 0.205141
vn -0.297825 0.932318 0.205141
vn -0.297825 0.932318 0.205141
vn -0.297825 0.932318 0.205141
vn -0.074282 0.969663 0.232888
vn -0.074282 0.969663 0.232888
vn -0.074282 0.969663 0.232888
vn -0.011756 0.963188 0.268571
vn -0.011756 0.963188 0.268571
vn -0.011756 0.963188 0.268571
vn 0.090131 0.949875 0.299357
vn 0.090131 0.949875 0.299357
vn 0.090131 0.949875 0.299357
vn 0.269273 0.954965 0.124635
vn 0.269273 0.954965 0.124635
vn 0.269273 0.954965 0.124635
vn 0.269273 0.954965 0.124635
vn 0.313378 0.932959 0.177151
vn 0.313378 0.932959 0.177151
vn 0.313378 0.932959 0.177151
vn 0.100981 0.958616 0.266192
vn 0.100981 0.958616 0.266192
vn 0.100981 0.958616 0.266192
vn -0.186291 0.895278 0.404689
vn -0.186291 0.895278 0.404689
vn -0.186291 0.895278 0.404689
vn 0.007872 0.990159 0.139728
vn 0.007872 0.990159 0.139728
vn 0.007872 0.990159 0.139728
vn 0.141914 0.945928 0.291685
vn 0.141914 0.945928 0.291685
vn 0.141914 0.945928 0.291685
vn 0.107841 0.940635 0.321831
vn 0.107841 0.940635 0.321831
vn 0.107841 0.940635 0.321832
vn 0.107841 0.940635 0.321831
vn 0.079376 0.973298 0.215383
vn 0.079376 0.973298 0.215383
vn 0.079376 0.973298 0.215383
vn 0.014353 0.993734 0.110844
vn 0.014353 0.993734 0.110844
vn 0.014353 0.993734 0.110844
vn 0.035852 0.998214 0.047780
vn 0.035852 0.998214 0.047780
vn 0.035852 0.998214 0.047780
vn 0.057711 0.983874 0.169295
vn 0.057711 0.983874 0.169295
vn 0.057711 0.983874 0.169295
vn -0.001273 0.998731 -0.050348
vn -0.001273 0.998731 -0.050348
vn -0.001273 0.998731 -0.050348
vn 0.012149 0.998318 -0.056688
vn 0.012149 0.998318 -0.056688
vn 0.012149 0.998318 -0.056688
vn 0.012149 0.998318 -0.056688
vn -0.266399 0.963862 0.000745
vn -0.266399 0.963862 0.000745
vn -0.266399 0.963862 0.000745
vn 0.042041 0.998022 0.046738
vn 0.042041 0.998022 0.046738
vn 0.042041 0.998022 0.046738
vn -0.059563 0.995977 0.066954
vn -0.059563 0.995977 0.066954
vn -0.059563 0.995977 0.066954
vn -0.078769 0.972655 0.218489
vn -0.078769 0.972655 0.218489
vn -0.078769 0.972655 0.218489
vn -0.005442 0.957546 0.288228
vn -0.005442 0.957546 0.288228
vn -0.005442 0.957546 0.288228
vn -0.005442 0.957546 0.288228
vn -0.435621 0.898776 -0.049352
vn -0.435621 0.898776 -0.049352
vn -0.435621 0.898776 -0.049352
vn -0.625321 0.772059 -0.113572
vn -0.625321 0.772059 -0.113572
vn -0.625321 0.772059 -0.113572
vn -0.625321 0.772059 -0.113572
vn 0.471739 0.873839 0.117765
vn 0.471739 0.873839 0.117765
vn 0.471739 0.873839 0.117765
vn 0.471739 0.873839 0.117765
vn 0.674571 0.736750 0.046401
vn 0.674571 0.736750 0.046401
vn 0.674571 0.736750 0.046401
vn 0.038516 0.101599 -0.994080
vn 0.038516 0.101599 -0.994080
vn 0.038516 0.101599 -0.994080
vn 0.038516 0.101599 -0.994080
vn 0.037740 0.424105 -0.904827
vn 0.037740 0.424105 -0.904827
vn 0.037740 0.424105 -0.904827
vn 0.037740 0.424105 -0.904826
vn -0.006211 0.993479 -0.113848
vn -0.006211 0.993479 -0.113848
vn -0.006211 0.993479 -0.113848
vn -0.061106 0.225273 -0.972378
vn -0.061106 0.225273 -0.972378
vn -0.061106 0.225273 -0.972378
vn -0.061106 0.225273 -0.972378
vn -0.018369 0.992593 -0.120088
vn -0.018369 0.992593 -0.120088
vn -0.018369 0.992593 -0.120088
vn -0.003306 0.997362 -0.072506
vn -0.003306 0.997363 -0.072506
vn -0.003306 0.997362 -0.072506
vn -0.042240 0.937577 0.345203
vn -0.042240 0.937577 0.345203
vn -0.042240 0.937577 0.345203
vn -0.123829 0.988186 0.090308
vn -0.123829 0.988186 0.090308
vn -0.123829 0.988186 0.090308
vn -0.125908 0.987329 0.096589
vn -0.125908 0.987329 0.096589
vn -0.125908 0.987329 0.096589
vn -0.041440 0.994359 0.097633
vn -0.041440 0.994359 0.097633
vn -0.041440 0.994359 0.097633
vn -0.082267 0.969303 0.231698
vn -0.082267 0.969303 0.231698
vn -0.082267 0.969303 0.231698
vn 0.022372 0.996915 0.075229
vn 0.022372 0.996915 0.075229
vn 0.022372 0.996915 0.075229
vn 0.022372 0.996915 0.075229
vn 0.000145 0.985395 0.170287
vn 0.000145 0.985395 0.170287
vn 0.000145 0.985394 0.170287
vn 0.000145 0.985394 0.170287
vn -0.009408 0.963211 0.268581
vn -0.009408 0.963211 0.268581
vn -0.009408 0.963211 0.268581
vn -0.077860 0.949970 0.302480
vn -0.077860 0.949970 0.302480
vn -0.077860 0.949970 0.302480
vn -0.030528 0.992651 0.117101
vn -0.030528 0.992651 0.117101
vn -0.030528 0.992651 0.117101
vn -0.030528 0.992651 0.117101
vn -0.190798 0.900101 0.391682
vn -0.190798 0.900101 0.391682
vn -0.190798 0.900101 0.391682
vn -0.065838 0.968505 0.240131
vn -0.065838 0.968505 0.240131
vn -0.065838 0.968505 0.240131
vn -0.065838 0.968505 0.240131
vn -0.052520 0.935851 0.348461
vn -0.052520 0.935851 0.348461
vn -0.052520 0.935851 0.348461
s off
f 1/1/1 2/2/2 6/3/3
f 7/5/4 54/54/5 3/4/6
f 7/5/7 3/4/8 8/6/9
f 3/4/10 4/7/11 8/6/12
f 8/6/13 4/7/14 5/8/15
f 6/3/16 2/2/17 7/5/18
f 8/6/19 5/8/20 9/9/21
f 10/10/22 7/5/23 11/11/24
f 1/1/25 6/3/26 12/12/27
f 14/13/28 6/3/29 7/5/30
f 13/14/31 66/66/32 67/67/33 48/20/34
f 12/12/35 14/13/36 51/51/37
f 7/5/38 10/10/39 14/13/40
f 10/10/41 11/11/42 50/16/43
f 10/10/44 51/51/45 14/13/46
f 16/17/47 62/62/48 63/63/49 17/18/50
f 15/15/51 16/17/52 18/19/53
f 60/60/54 61/61/55 15/15/56 57/57/57
f 16/17/58 17/18/59 22/22/60
f 49/23/61 50/16/62 64/64/63
f 22/22/64 17/18/65 21/24/66
f 65/65/67 49/23/68 64/64/69
f 18/19/70 16/17/71 22/22/72
f 17/18/73 23/25/74 21/24/75
f 22/22/76 21/24/77 24/26/78
f 25/27/79 24/26/80 27/28/81
f 21/24/82 23/25/83 27/28/84
f 13/14/85 19/29/86 23/25/87
f 20/21/88 15/15/89 28/30/90
f 15/15/91 18/19/92 28/30/93
f 22/22/94 24/26/95 26/31/96
f 26/31/97 24/26/98 25/27/99
f 22/22/100 26/31/101 18/19/102
f 26/31/103 25/27/104 29/32/105
f 27/28/106 23/25/107 30/33/108
f 23/25/109 19/29/110 30/33/111
f 20/21/112 28/30/113 31/34/114
f 28/30/115 26/31/116 29/32/117
f 32/35/118 29/32/119 33/36/120
f 29/32/121 25/27/122 33/36/123
f 25/27/124 27/28/125 33/36/126
f 28/30/127 29/32/128 31/34/129
f 31/34/130 29/32/131 32/35/132
f 27/28/133 30/33/134 34/37/135
f 2/2/136 1/1/137 35/38/138 36/39/139
f 3/4/140 54/54/141 55/55/142 37/40/143
f 4/7/144 3/4/145 37/40/146
f 1/1/147 12/12/148 40/41/149 35/38/150
f 20/21/151 31/34/152 43/43/153 42/42/154
f 32/35/155 33/36/156 44/44/157 45/45/158
f 33/36/159 27/28/160 56/56/161
f 31/34/162 32/35/163 45/45/164 43/43/165
f 5/8/166 4/7/167 37/40/168 38/46/169
f 39/47/170 70/70/171 71/71/172
f 67/67/173 68/68/174 48/20/175
f 47/48/176 19/29/177 41/49/178
f 34/37/179 30/33/180 47/48/181 46/50/182
f 27/28/183 34/37/184 56/56/185
f 30/33/186 19/29/187 47/48/188
f 9/9/189 70/70/190 39/47/191
f 11/11/192 7/5/193 8/6/194
f 27/28/195 24/26/196 21/24/197
f 19/29/198 48/20/199 53/53/200 41/49/201
f 13/14/202 48/20/203 19/29/204
f 49/23/205 13/14/206 23/25/207
f 49/23/208 17/18/209 50/16/210
f 63/63/211 50/16/212 17/18/213
f 28/30/214 18/19/215 26/31/216
f 15/15/217 61/61/218 62/62/219 16/17/220
f 12/12/221 6/3/222 14/13/223
f 23/25/224 17/18/225 49/23/226
f 11/11/227 8/6/228 52/52/229
f 8/6/230 9/9/231 52/52/232
f 53/53/233 48/20/234 68/68/235 69/69/236
f 2/2/237 54/54/238 7/5/239
f 55/55/240 54/54/241 2/2/242 36/39/243
f 56/56/244 34/37/245 46/50/246 44/44/247
f 33/36/248 56/56/249 44/44/250
f 57/57/251 15/15/252 20/21/253 42/42/254
f 12/12/255 59/59/256 58/58/257 40/41/258
f 12/12/259 51/51/260 59/59/261
f 58/58/262 59/59/263 61/61/264 60/60/265
f 59/59/266 51/51/267 61/61/268
f 62/62/269 61/61/270 51/51/271
f 62/62/272 51/51/273 10/10/274
f 63/63/275 62/62/276 10/10/277
f 10/10/278 50/16/279 63/63/280
f 64/64/281 50/16/282 11/11/283
f 11/11/284 65/65/285 64/64/286
f 11/11/287 52/52/288 66/66/289 65/65/290
f 52/52/291 9/9/292 67/67/293 66/66/294
f 9/9/295 68/68/296 67/67/297
f 69/69/298 68/68/299 39/47/300
f 13/14/301 49/23/302 65/65/303 66/66/304
f 9/9/305 5/8/306 70/70/307
f 71/71/308 70/70/309 5/8/310 38/46/311
f 39/47/312 68/68/313 9/9/314
