# This file uses centimeters as units for non-parametric coordinates.

v -3.071136 -98.174759 15.711784
v -33.734436 -100.990128 15.711784
v -17.310486 -114.735138 15.711784
v -20.003357 -84.965637 21.306992
v -10.211487 -78.148598 15.711784
v -30.653381 -80.022430 15.711784
v -26.590424 -135.048096 15.711784
v -10.774994 -108.626785 15.711784
v -31.565247 -113.780991 15.711784
v -5.936432 -129.167679 21.306992
v -6.206970 -141.095306 15.711784
v 4.337769 -123.482437 15.711784
v -26.759491 -95.724579 21.895790
v -34.111633 -125.499832 26.366234
v -17.731476 -113.910141 26.681709
v -43.180695 -107.552551 27.276039
v -50.241699 -116.598076 22.242737
v -45.340729 -96.747208 19.262505
v -23.309479 -76.726097 15.711784
v -42.326660 -63.579788 15.711784
v -31.850433 -77.469101 19.790077
v -22.634125 -64.116104 19.790077
v -41.491547 -26.707022 9.797859
v -27.317047 -37.918018 14.576340
v -20.501556 -46.575111 8.666992
v -27.030029 -27.113037 8.653259
v -40.646057 -53.332916 10.462761
v -29.932404 -9.242306 3.922081
v -4.466858 -26.552391 3.922081
v -8.414917 -5.499537 3.922081
v -25.248718 -30.199547 9.517288
v -37.144623 -29.243872 3.922081
v -20.165558 -40.781921 3.922081
v 6.392212 -3.370554 3.922081
v -19.237213 13.697510 3.922081
v -15.088806 -7.317028 3.922081
v 1.510315 17.540970 9.517288
v 13.411560 16.696358 3.922081
v -3.673706 28.077202 3.922081
v -11.253815 -162.692001 17.350769
v -38.716278 -176.052002 23.753166
v -15.640411 -172.541443 25.129509
v -31.201935 -156.377136 25.009537
v -43.108063 -156.012726 21.121788
v -24.798889 -147.106628 16.853523
v -9.398499 -189.110367 25.303459
v -7.067108 -159.702377 15.798569
v 5.594482 -174.253387 24.784470
v 11.600800 -166.300186 15.764427
v 10.046234 -185.903107 22.100639
v -22.258759 -172.769638 21.619987
v -47.924347 -189.475952 8.497429
v -17.136841 -188.984222 8.497429
v -32.647705 -174.752945 12.689018
v -31.757050 -201.632690 9.974480
v -21.335907 -204.230026 2.814865
v -41.859589 -204.555649 2.814865
v -23.960571 11.013260 3.922081
v -37.176514 -7.954824 3.922081
v -36.450195 11.660709 8.000374
v -23.216095 2.444000 8.000374
v 7.178497 -139.655273 3.922081
v 10.242920 -116.740631 3.922081
v 2.633362 -132.385437 8.000374
v 18.715515 -134.524094 8.000374
v 3.670807 -80.953003 9.797859
v -2.656250 -64.026260 14.576340
v 6.846313 -54.367443 12.599182
v -4.008942 -53.089294 8.666992
v -8.493195 -73.122589 8.653259
v 16.724854 -57.732925 10.462761
v -17.678223 45.451294 15.711784
v -3.588562 72.831039 15.711784
v -24.002838 66.356125 15.711784
v 2.557068 52.643013 21.306992
v 3.050232 40.722122 15.711784
v 12.445526 58.973251 15.711784
v -41.964417 83.533035 15.711784
v -28.167267 56.003891 15.711784
v -21.352081 76.310486 15.711784
v -48.094025 62.951469 21.306992
v -58.010864 69.584351 15.711784
v -48.814545 51.231384 15.711784
v -32.888184 94.101532 19.906044
v -50.500946 99.517090 23.983955
v -25.906525 102.304871 23.497009
v -32.225647 124.879272 18.900490
v -50.058899 120.036774 23.313522
v -8.699951 62.560883 21.895790
v -29.870911 84.751007 26.366234
v -28.889160 64.709511 26.681709
v -9.860840 82.765076 27.276039
v -13.700256 93.578857 22.242737
v 0.414581 78.785370 19.262505
v 27.823334 100.982986 20.287132
v 28.036957 131.775604 20.287132
v 13.454437 116.595154 24.478722
v 40.346985 116.867867 21.764183
v 43.183121 127.229630 14.604568
v 43.039383 106.701355 14.604568
v -0.581665 119.799461 15.711784
v 22.261505 116.947212 15.711784
v -0.545044 142.425781 21.306992
v -12.607117 140.662415 15.711784
v 2.674255 154.372925 15.711784
v 22.336731 140.362427 15.711784
v -40.602264 125.619354 25.174332
v -23.513336 115.708298 26.986694
v -27.033234 138.681168 20.168114
v 12.337341 120.602356 15.711784
v 12.463226 97.484467 15.711784
v 17.882385 114.024963 19.790077
v 1.756439 113.937561 19.790077
v -52.597961 62.632637 2.692795
v -67.089996 35.464325 2.692795
v -46.579742 41.636543 2.692795
v -72.935181 55.739632 8.288002
v -73.255615 67.666183 2.692795
v -82.916718 49.554710 2.692795
v -72.315979 18.302994 2.692795
v -41.585693 20.259514 2.692795
v -57.621002 34.459114 2.692795
v -55.760040 4.625740 8.288002
v -65.738983 -1.915283 2.692795
v -45.251312 -0.611496 2.692795
v -40.290527 26.405849 2.692604
v -41.273804 49.501648 2.692604
v -46.074066 32.770863 6.771088
v -29.964294 33.458900 6.771088
v -46.684265 110.166626 9.090424
v -45.357208 100.153198 11.232567
v -65.253448 110.190460 7.793808
v -63.260345 95.172760 11.007118
v 69.600357 138.469696 2.692795
v 51.136307 163.112488 2.692795
v 48.034073 141.917999 2.692795
v 71.979065 159.812347 8.288002
v 82.916580 155.044434 2.692795
v 70.607132 171.473251 2.692795
v -15.218353 177.438492 12.724495
v 6.768036 155.910309 10.801315
v -13.223724 157.041595 13.928223
v -9.242249 146.837555 6.437874
v -23.898926 161.188828 7.719994
v 5.170135 175.729034 15.192413
v 8.882904 187.498657 5.881500
v -21.722717 184.166092 6.886864
v 0.921326 179.787582 10.031128
v 1.769257 204.555649 10.294533
v -18.633575 202.333496 10.964966
v 46.975403 -10.021362 5.830574
v 33.013458 17.046967 13.154030
v 51.504807 9.197750 14.796448
v 51.178268 20.911922 11.560059
v 60.487976 2.865353 6.677818
v 28.128510 -2.309856 9.864044
v -17.256317 77.350082 8.876801
v 13.391876 76.187317 13.347244
v -1.279755 89.879364 13.662720
v -2.343903 63.668518 14.257050
v 7.944489 58.589493 9.223747
v -12.487488 59.363022 6.243515
v 26.326294 154.685852 13.411522
v 42.073532 147.753235 16.220856
v 44.314713 162.125275 12.473679
v 19.891052 14.178219 7.577705
v 9.650421 13.947182 8.871651
v 22.092743 32.648354 6.915474
v 6.730499 32.300701 8.856201
v -10.786591 91.941589 2.692604
v -33.693237 88.820587 2.692604
v -16.589203 85.592072 6.771088
v -18.766174 101.569183 6.771088
v -4.854279 100.543488 2.692795
v -4.719849 77.522598 2.692795
v 17.584991 103.439270 8.288002
v 14.274292 115.171371 2.692795
v 29.850479 101.796570 2.692795
v 18.508148 80.481750 2.692795
vt 0.440649 0.158239
vt 0.440649 0.158239
vt 0.440649 0.158239
vt 0.440649 0.158239
vt 0.440649 0.158239
vt 0.440649 0.158239
vt 0.440649 0.158239
vt 0.440649 0.158239
vt 0.440649 0.158239
vt 0.440649 0.158239
vt 0.440649 0.158239
vt 0.440649 0.158239
vt 0.440649 0.158239
vt 0.440649 0.158239
vt 0.440649 0.158239
vt 0.440649 0.158239
vt 0.440649 0.158239
vt 0.440649 0.158239
vt 0.440649 0.158239
vt 0.440649 0.158239
vt 0.440649 0.158239
vt 0.440649 0.158239
vt 0.440649 0.158239
vt 0.440649 0.158239
vt 0.440649 0.158239
vt 0.440649 0.158239
vt 0.440649 0.158239
vt 0.440649 0.158239
vt 0.440649 0.158239
vt 0.440649 0.158239
vt 0.440649 0.158239
vt 0.440649 0.158239
vt 0.440649 0.158239
vt 0.440649 0.158239
vt 0.440649 0.158239
vt 0.440649 0.158239
vt 0.440649 0.158239
vt 0.440649 0.158239
vt 0.440649 0.158239
vt 0.440649 0.158239
vt 0.440649 0.158239
vt 0.440649 0.158239
vt 0.440649 0.158239
vt 0.440649 0.158239
vt 0.440649 0.158239
vt 0.440677 0.176576
vt 0.440677 0.176576
vt 0.440677 0.176576
vt 0.440677 0.176576
vt 0.440677 0.176576
vt 0.440677 0.176576
vt 0.440677 0.176576
vt 0.440677 0.176576
vt 0.440677 0.176576
vt 0.440677 0.176576
vt 0.440677 0.176576
vt 0.440677 0.176576
vt 0.440649 0.158239
vt 0.440649 0.158239
vt 0.440649 0.158239
vt 0.440649 0.158239
vt 0.440649 0.158239
vt 0.440649 0.158239
vt 0.440649 0.158239
vt 0.440649 0.158239
vt 0.440649 0.158239
vt 0.440649 0.158239
vt 0.440649 0.158239
vt 0.440649 0.158239
vt 0.440649 0.158239
vt 0.440649 0.158239
vt 0.440649 0.158239
vt 0.440649 0.158239
vt 0.440649 0.158239
vt 0.440649 0.158239
vt 0.440649 0.158239
vt 0.440649 0.158239
vt 0.440649 0.158239
vt 0.440649 0.158239
vt 0.440649 0.158239
vt 0.440649 0.158239
vt 0.440649 0.158239
vt 0.440649 0.158239
vt 0.440649 0.158239
vt 0.440649 0.158239
vt 0.440649 0.158239
vt 0.440649 0.158239
vt 0.440649 0.158239
vt 0.440649 0.158239
vt 0.440649 0.158239
vt 0.440649 0.158239
vt 0.440649 0.158239
vt 0.440649 0.158239
vt 0.440649 0.158239
vt 0.440649 0.158239
vt 0.440649 0.158239
vt 0.440649 0.158239
vt 0.440649 0.158239
vt 0.440649 0.158239
vt 0.440649 0.158239
vt 0.440649 0.158239
vt 0.440649 0.158239
vt 0.440649 0.158239
vt 0.440649 0.158239
vt 0.440649 0.158239
vt 0.440649 0.158239
vt 0.440677 0.176576
vt 0.440677 0.176576
vt 0.440677 0.176576
vt 0.440677 0.176576
vt 0.440677 0.176576
vt 0.440677 0.176576
vt 0.440677 0.176576
vt 0.440677 0.176576
vt 0.440677 0.176576
vt 0.440677 0.176576
vt 0.440677 0.176576
vt 0.440677 0.176576
vt 0.440649 0.158239
vt 0.440649 0.158239
vt 0.440649 0.158239
vt 0.440649 0.158239
vt 0.440649 0.158239
vt 0.440649 0.158239
vt 0.440649 0.158239
vt 0.440649 0.158239
vt 0.440649 0.158239
vt 0.440649 0.158239
vt 0.440649 0.158239
vt 0.440649 0.158239
vt 0.440649 0.158239
vt 0.440649 0.158239
vt 0.440649 0.158239
vt 0.440649 0.158239
vt 0.440649 0.158239
vt 0.440649 0.158239
vt 0.440649 0.158239
vt 0.440649 0.158239
vt 0.440649 0.158239
vt 0.440649 0.158239
vt 0.440649 0.158239
vt 0.440649 0.158239
vt 0.440649 0.158239
vt 0.440649 0.158239
vt 0.440649 0.158239
vt 0.440677 0.176576
vt 0.440677 0.176576
vt 0.440677 0.176576
vt 0.440677 0.176576
vt 0.440677 0.176576
vt 0.440677 0.176576
vt 0.440677 0.176576
vt 0.440677 0.176576
vt 0.440677 0.176576
vt 0.440677 0.176576
vt 0.440677 0.176576
vt 0.440677 0.176576
vt 0.440649 0.158239
vt 0.440649 0.158239
vt 0.440649 0.158239
vt 0.440649 0.158239
vt 0.440649 0.158239
vt 0.440649 0.158239
vt 0.440649 0.158239
vt 0.440649 0.158239
vt 0.440649 0.158239
vt 0.440649 0.158239
vt 0.440649 0.158239
vt 0.440649 0.158239
vt 0.440649 0.158239
vt 0.440649 0.158239
vt 0.440649 0.158239
vt 0.440649 0.158239
vt 0.440649 0.158239
vt 0.440649 0.158239
vt 0.440649 0.158239
vt 0.440649 0.158239
vt 0.440649 0.158239
vt 0.440649 0.158239
vt 0.440649 0.158239
vt 0.440649 0.158239
vt 0.440649 0.158239
vt 0.440649 0.158239
vt 0.440649 0.158239
vt 0.440649 0.158239
vt 0.440649 0.158239
vt 0.440649 0.158239
vt 0.440649 0.158239
vt 0.440649 0.158239
vt 0.440649 0.158239
vt 0.440649 0.158239
vt 0.440649 0.158239
vt 0.440649 0.158239
vt 0.440649 0.158239
vt 0.440649 0.158239
vt 0.440649 0.158239
vt 0.440649 0.158239
vn 0.000000 0.000000 1.000000
vn 0.000000 0.000000 1.000000
vn 0.000000 0.000000 1.000000
vn -0.527541 -0.202786 0.824972
vn -0.527541 -0.202786 0.824972
vn -0.527541 -0.202786 0.824972
vn 0.548074 -0.106340 0.829643
vn 0.548074 -0.106340 0.829643
vn 0.548074 -0.106340 0.829643
vn 0.000000 0.000000 1.000000
vn 0.000000 0.000000 1.000000
vn 0.000000 0.000000 1.000000
vn 0.000000 0.000000 1.000000
vn 0.000000 0.000000 1.000000
vn 0.000000 0.000000 1.000000
vn 0.552111 -0.120820 0.824970
vn 0.552111 -0.120820 0.824970
vn 0.552111 -0.120820 0.824970
vn -0.399228 0.390279 0.829638
vn -0.399228 0.390279 0.829638
vn -0.399228 0.390279 0.829638
vn -0.000000 -0.000000 1.000000
vn -0.000000 -0.000000 1.000000
vn -0.000000 -0.000000 1.000000
vn -0.145947 0.570307 0.808362
vn -0.145947 0.570307 0.808362
vn -0.145947 0.570307 0.808362
vn -0.086887 -0.431792 0.897779
vn -0.086887 -0.431792 0.897779
vn -0.086887 -0.431792 0.897779
vn -0.147803 0.182444 0.972043
vn -0.147803 0.182444 0.972043
vn -0.147803 0.182444 0.972043
vn 0.096592 0.297900 0.949698
vn 0.096592 0.297900 0.949698
vn 0.096592 0.297900 0.949698
vn 0.095959 -0.219757 0.970824
vn 0.095959 -0.219757 0.970824
vn 0.095959 -0.219757 0.970824
vn -0.210214 0.481412 0.850912
vn -0.210215 0.481412 0.850913
vn -0.210215 0.481412 0.850912
vn -0.309523 0.013914 0.950790
vn -0.309523 0.013914 0.950790
vn -0.309523 0.013914 0.950790
vn 0.082642 0.477360 0.874813
vn 0.082642 0.477360 0.874813
vn 0.082642 0.477360 0.874813
vn 0.220893 -0.425228 0.877717
vn 0.220893 -0.425228 0.877717
vn 0.220893 -0.425228 0.877717
vn 0.000000 0.000000 1.000000
vn 0.000000 0.000000 1.000000
vn 0.000000 0.000000 1.000000
vn 0.536246 -0.178594 0.824951
vn 0.536246 -0.178594 0.824951
vn 0.536246 -0.178594 0.824951
vn -0.355655 0.430328 0.829655
vn -0.355655 0.430328 0.829655
vn -0.355655 0.430328 0.829655
vn 0.000000 0.000000 1.000000
vn 0.000000 0.000000 1.000000
vn 0.000000 0.000000 1.000000
vn 0.000000 0.000000 1.000000
vn 0.000000 0.000000 1.000000
vn 0.000000 0.000000 1.000000
vn -0.537864 0.173468 0.824992
vn -0.537864 0.173468 0.824992
vn -0.537864 0.173468 0.824992
vn 0.359740 -0.426959 0.829634
vn 0.359740 -0.426959 0.829634
vn 0.359740 -0.426959 0.829634
vn -0.000000 0.000000 1.000000
vn -0.000000 0.000000 1.000000
vn -0.000000 0.000000 1.000000
vn -0.305263 -0.287141 0.907945
vn -0.305263 -0.287141 0.907945
vn -0.305263 -0.287141 0.907945
vn -0.076329 0.113351 0.990619
vn -0.076329 0.113351 0.990619
vn -0.076329 0.113351 0.990619
vn 0.453479 0.419207 0.786525
vn 0.453479 0.419207 0.786525
vn 0.453479 0.419207 0.786525
vn 0.424617 0.414756 0.804785
vn 0.424617 0.414756 0.804785
vn 0.424617 0.414756 0.804785
vn -0.033163 0.760511 0.648477
vn -0.033163 0.760511 0.648477
vn -0.033163 0.760511 0.648477
vn 0.107082 0.298071 0.948519
vn 0.107082 0.298071 0.948519
vn 0.107082 0.298071 0.948519
vn 0.107069 0.298075 0.948519
vn 0.107069 0.298075 0.948519
vn 0.107069 0.298075 0.948519
vn -0.122821 -0.267129 0.955802
vn -0.122821 -0.267129 0.955802
vn -0.122821 -0.267129 0.955802
vn 0.441518 -0.417607 0.794145
vn 0.441518 -0.417607 0.794146
vn 0.441518 -0.417607 0.794146
vn 0.179370 -0.092962 0.979380
vn 0.179370 -0.092962 0.979380
vn 0.179370 -0.092962 0.979380
vn 0.060272 -0.330671 0.941820
vn 0.060272 -0.330671 0.941820
vn 0.060272 -0.330671 0.941820
vn -0.555448 -0.101750 0.825303
vn -0.555448 -0.101750 0.825303
vn -0.555448 -0.101750 0.825303
vn -0.137039 -0.196771 0.970825
vn -0.137039 -0.196771 0.970825
vn -0.137039 -0.196771 0.970825
vn 0.300201 0.431054 0.850924
vn 0.300201 0.431054 0.850924
vn 0.300201 0.431054 0.850924
vn 0.031610 0.237699 0.970824
vn 0.031610 0.237699 0.970824
vn 0.031610 0.237699 0.970824
vn -0.069239 -0.520663 0.850950
vn -0.069239 -0.520663 0.850950
vn -0.069239 -0.520663 0.850950
vn 0.257681 -0.172090 0.950782
vn 0.257681 -0.172090 0.950782
vn 0.257681 -0.172090 0.950782
vn -0.317751 -0.365731 0.874800
vn -0.317751 -0.365731 0.874800
vn -0.317751 -0.365731 0.874800
vn 0.209454 -0.005910 0.977801
vn 0.209454 -0.005910 0.977801
vn 0.209454 -0.005910 0.977801
vn -0.261326 0.433625 0.862368
vn -0.261326 0.433625 0.862368
vn -0.261326 0.433625 0.862368
vn 0.000000 0.000000 1.000000
vn 0.000000 0.000000 1.000000
vn 0.000000 0.000000 1.000000
vn 0.112191 0.553927 0.824972
vn 0.112191 0.553927 0.824972
vn 0.112191 0.553927 0.824972
vn -0.383999 -0.405263 0.829643
vn -0.383999 -0.405263 0.829643
vn -0.383999 -0.405263 0.829643
vn 0.000000 0.000000 1.000000
vn 0.000000 0.000000 1.000000
vn 0.000000 0.000000 1.000000
vn 0.000000 0.000000 1.000000
vn 0.000000 0.000000 1.000000
vn 0.000000 0.000000 1.000000
vn -0.398382 -0.400894 0.824970
vn -0.398382 -0.400894 0.824970
vn -0.398382 -0.400894 0.824970
vn 0.543610 0.127233 0.829638
vn 0.543610 0.127233 0.829638
vn 0.543610 0.127233 0.829638
vn 0.000000 0.000000 1.000000
vn 0.000000 0.000000 1.000000
vn 0.000000 0.000000 1.000000
vn 0.068461 -0.448351 0.891232
vn 0.068461 -0.448351 0.891232
vn 0.068461 -0.448351 0.891232
vn 0.233276 0.026723 0.972043
vn 0.233276 0.026723 0.972043
vn 0.233276 0.026723 0.972043
vn -0.003118 0.198683 0.980059
vn -0.003118 0.198683 0.980059
vn -0.003118 0.198683 0.980059
vn 0.559485 -0.183104 0.808362
vn 0.559485 -0.183104 0.808362
vn 0.559485 -0.183104 0.808362
vn -0.317611 0.305150 0.897779
vn -0.317611 0.305150 0.897779
vn -0.317611 0.305150 0.897779
vn 0.233276 0.026725 0.972043
vn 0.233276 0.026725 0.972043
vn 0.233276 0.026725 0.972043
vn 0.199448 -0.241444 0.949698
vn 0.199448 -0.241444 0.949698
vn 0.199448 -0.241444 0.949698
vn 0.427588 0.431796 0.794179
vn 0.427588 0.431796 0.794179
vn 0.427588 0.431796 0.794179
vn 0.097052 0.177183 0.979381
vn 0.097052 0.177183 0.979381
vn 0.097052 0.177183 0.979381
vn 0.331939 0.052659 0.941830
vn 0.331939 0.052659 0.941830
vn 0.331939 0.052659 0.941830
vn 0.088975 -0.557634 0.825305
vn 0.088975 -0.557634 0.825305
vn 0.088975 -0.557634 0.825305
vn -0.315943 -0.464533 0.827278
vn -0.315943 -0.464533 0.827278
vn -0.315943 -0.464533 0.827278
vn 0.000000 0.000000 1.000000
vn 0.000000 0.000000 1.000000
vn 0.000000 0.000000 1.000000
vn 0.237454 -0.000758 0.971398
vn 0.237454 -0.000758 0.971398
vn 0.237454 -0.000759 0.971398
vn 0.252127 0.353871 0.900671
vn 0.252127 0.353871 0.900671
vn 0.252127 0.353871 0.900671
vn -0.098719 0.443871 0.890637
vn -0.098719 0.443871 0.890637
vn -0.098719 0.443871 0.890637
vn 0.001300 -0.239796 0.970823
vn 0.001300 -0.239796 0.970823
vn 0.001300 -0.239796 0.970823
vn -0.002847 0.525266 0.850933
vn -0.002847 0.525266 0.850933
vn -0.002847 0.525266 0.850933
vn 0.000000 0.000000 1.000000
vn 0.000000 0.000000 1.000000
vn 0.000000 0.000000 1.000000
vn -0.534766 -0.182901 0.824968
vn -0.534766 -0.182901 0.824968
vn -0.534766 -0.182901 0.824968
vn 0.543709 -0.126781 0.829643
vn 0.543709 -0.126781 0.829643
vn 0.543709 -0.126781 0.829643
vn 0.000000 0.000000 1.000000
vn 0.000000 0.000000 1.000000
vn 0.000000 0.000000 1.000000
vn 0.000000 0.000000 1.000000
vn 0.000000 0.000000 1.000000
vn 0.000000 0.000000 1.000000
vn 0.533000 0.187975 0.824971
vn 0.533000 0.187975 0.824971
vn 0.533000 0.187975 0.824971
vn -0.544898 0.121606 0.829637
vn -0.544898 0.121606 0.829637
vn -0.544898 0.121606 0.829637
vn -0.000000 -0.000000 1.000000
vn -0.000000 -0.000000 1.000000
vn -0.000000 -0.000000 1.000000
vn -0.010213 0.239585 0.970822
vn -0.010213 0.239585 0.970822
vn -0.010213 0.239585 0.970822
vn 0.022370 -0.524785 0.850941
vn 0.022370 -0.524784 0.850941
vn 0.022370 -0.524784 0.850941
vn -0.067985 0.200089 0.977416
vn -0.067985 0.200089 0.977416
vn -0.067985 0.200089 0.977416
vn -0.067980 0.200098 0.977415
vn -0.067980 0.200098 0.977415
vn -0.067980 0.200097 0.977415
vn 0.000000 0.000000 1.000000
vn 0.000000 0.000000 1.000000
vn 0.000000 0.000000 1.000000
vn -0.449153 0.343057 0.824969
vn -0.449153 0.343057 0.824969
vn -0.449153 0.343057 0.824969
vn 0.196622 -0.522529 0.829641
vn 0.196622 -0.522529 0.829641
vn 0.196622 -0.522529 0.829641
vn 0.000000 0.000000 1.000000
vn 0.000000 0.000000 1.000000
vn 0.000000 0.000000 1.000000
vn -0.502121 0.001928 0.864795
vn -0.502121 0.001928 0.864795
vn -0.502121 0.001928 0.864795
vn 0.391755 -0.440221 0.807920
vn 0.391755 -0.440221 0.807920
vn 0.391755 -0.440221 0.807920
vn -0.135640 -0.224714 0.964938
vn -0.135640 -0.224714 0.964938
vn -0.135640 -0.224714 0.964938
vn -0.116141 0.047200 0.992111
vn -0.116141 0.047200 0.992111
vn -0.116141 0.047200 0.992111
vn -0.170683 -0.188101 0.967205
vn -0.170683 -0.188101 0.967205
vn -0.170683 -0.188101 0.967205
vn 0.034117 -0.011799 0.999348
vn 0.034117 -0.011799 0.999348
vn 0.034117 -0.011799 0.999348
vn 0.481545 -0.025822 0.876041
vn 0.481545 -0.025822 0.876041
vn 0.481545 -0.025822 0.876041
vn -0.314010 0.244684 0.917348
vn -0.314010 0.244684 0.917348
vn -0.314010 0.244684 0.917348
vn 0.127269 -0.197325 0.972042
vn 0.127269 -0.197325 0.972042
vn 0.127269 -0.197325 0.972042
vn 0.127264 -0.197323 0.972043
vn 0.127264 -0.197323 0.972043
vn 0.127264 -0.197323 0.972043
vn 0.178135 -0.670534 0.720175
vn 0.178135 -0.670533 0.720176
vn 0.178135 -0.670533 0.720176
vn -0.109027 -0.578509 0.808357
vn -0.109027 -0.578509 0.808357
vn -0.109027 -0.578509 0.808357
vn 0.261403 0.354477 0.897783
vn 0.261403 0.354477 0.897783
vn 0.261403 0.354477 0.897783
vn 0.056733 -0.227853 0.972042
vn 0.056733 -0.227853 0.972042
vn 0.056733 -0.227853 0.972042
vn -0.213552 -0.229057 0.949699
vn -0.213552 -0.229057 0.949699
vn -0.213552 -0.229057 0.949699
vn 0.155781 0.710809 0.685918
vn 0.155781 0.710808 0.685918
vn 0.155781 0.710808 0.685918
vn 0.124852 0.020690 0.991960
vn 0.124852 0.020690 0.991960
vn 0.124852 0.020690 0.991960
vn 0.124853 0.020690 0.991960
vn 0.124853 0.020690 0.991960
vn 0.124853 0.020690 0.991960
vn -0.237605 -0.032373 0.970822
vn -0.237605 -0.032373 0.970822
vn -0.237605 -0.032373 0.970822
vn 0.520468 0.070912 0.850931
vn 0.520468 0.070912 0.850931
vn 0.520468 0.070912 0.850931
vn -0.501573 0.253064 0.827275
vn -0.501573 0.253064 0.827275
vn -0.501573 0.253064 0.827275
vn 0.000000 0.000000 1.000000
vn 0.000000 0.000000 1.000000
vn 0.000000 0.000000 1.000000
vn 0.030027 -0.235549 0.971398
vn 0.030027 -0.235549 0.971398
vn 0.030027 -0.235549 0.971398
vn 0.383567 -0.204125 0.900672
vn 0.383567 -0.204125 0.900672
vn 0.383538 -0.204094 0.900691
s off
f 3/1/1 6/2/2 2/3/3
f 3/1/4 4/4/5 6/2/6
f 4/4/7 3/1/8 5/5/9
f 1/6/10 5/5/11 3/1/12
f 9/7/13 12/8/14 8/9/15
f 9/7/16 10/10/17 12/8/18
f 10/10/19 9/7/20 11/11/21
f 7/12/22 11/11/23 9/7/24
f 18/13/25 16/14/26 13/15/27
f 17/16/28 15/17/29 16/14/30
f 14/18/31 15/17/32 17/16/33
f 16/14/34 15/17/35 13/15/36
f 21/19/37 22/20/38 20/21/39
f 19/22/40 22/20/41 21/19/42
f 27/23/43 24/24/44 23/25/45
f 23/25/46 24/24/47 26/26/48
f 24/24/49 27/23/50 25/27/51
f 30/28/52 33/29/53 29/30/54
f 30/28/55 31/31/56 33/29/57
f 31/31/58 30/28/59 32/32/60
f 28/33/61 32/32/62 30/28/63
f 36/34/64 39/35/65 35/36/66
f 36/34/67 37/37/68 39/35/69
f 37/37/70 36/34/71 38/38/72
f 34/39/73 38/38/74 36/34/75
f 44/40/76 42/41/77 43/42/78
f 41/43/79 42/41/80 44/40/81
f 45/44/82 42/41/83 40/45/84
f 43/42/85 42/41/86 45/44/87
f 48/46/88 49/47/89 51/48/90
f 47/49/91 51/50/92 49/51/93
f 50/52/94 51/53/95 46/54/96
f 48/55/97 51/56/98 50/57/99
f 53/58/100 55/59/101 56/60/102
f 53/58/103 54/61/104 55/59/105
f 57/62/106 54/61/107 52/63/108
f 55/59/109 54/61/110 57/62/111
f 61/64/112 60/65/113 59/66/114
f 58/67/115 60/65/116 61/64/117
f 64/68/118 65/69/119 63/70/120
f 62/71/121 65/69/122 64/68/123
f 71/72/124 67/73/125 66/74/126
f 66/74/127 67/73/128 70/75/129
f 71/72/130 68/76/131 67/73/132
f 67/73/133 68/76/134 69/77/135
f 74/78/136 77/79/137 73/80/138
f 74/78/139 75/81/140 77/79/141
f 75/81/142 74/78/143 76/82/144
f 72/83/145 76/82/146 74/78/147
f 80/84/148 83/85/149 79/86/150
f 80/84/151 81/87/152 83/85/153
f 81/87/154 80/84/155 82/88/156
f 78/89/157 82/88/158 80/84/159
f 84/90/160 86/91/161 85/92/162
f 85/92/163 87/93/164 88/94/165
f 85/92/166 86/91/167 87/93/168
f 94/95/169 92/96/170 89/97/171
f 93/98/172 91/99/173 92/96/174
f 90/100/175 91/99/176 93/98/177
f 92/96/178 91/99/179 89/97/180
f 96/101/181 98/102/182 99/103/183
f 96/101/184 97/104/185 98/102/186
f 100/105/187 97/104/188 95/106/189
f 98/102/190 97/104/191 100/105/192
f 104/107/193 102/108/194 103/109/195
f 101/110/196 102/111/197 104/112/198
f 102/113/199 106/114/200 103/115/201
f 103/116/202 106/117/203 105/118/204
f 107/119/205 108/120/206 109/121/207
f 112/122/208 113/123/209 111/124/210
f 110/125/211 113/123/212 112/122/213
f 116/126/214 119/127/215 115/128/216
f 116/126/217 117/129/218 119/127/219
f 117/129/220 116/126/221 118/130/222
f 114/131/223 118/130/224 116/126/225
f 122/132/226 125/133/227 121/134/228
f 122/132/229 123/135/230 125/133/231
f 123/135/232 122/132/233 124/136/234
f 120/137/235 124/136/236 122/132/237
f 128/138/238 129/139/239 127/140/240
f 126/141/241 129/139/242 128/138/243
f 131/142/244 132/143/245 133/144/246
f 132/143/247 131/142/248 130/145/249
f 136/146/250 139/147/251 135/148/252
f 136/149/253 137/150/254 139/151/255
f 137/152/256 136/153/257 138/154/258
f 134/155/259 138/156/260 136/157/261
f 144/158/262 142/159/263 140/160/264
f 143/161/265 145/162/266 142/159/267
f 141/163/268 145/162/269 143/161/270
f 142/159/271 145/162/272 140/160/273
f 147/164/274 148/165/275 150/166/276
f 148/165/277 149/167/278 150/166/279
f 146/168/280 149/167/281 148/165/282
f 154/169/283 156/170/284 153/171/285
f 152/172/286 156/170/287 154/169/288
f 155/173/289 156/170/290 151/174/291
f 153/171/292 156/170/293 155/173/294
f 162/175/295 160/176/296 157/177/297
f 161/178/298 159/179/299 160/176/300
f 158/180/301 159/179/302 161/178/303
f 160/176/304 159/179/305 157/177/306
f 163/181/307 164/182/308 165/183/309
f 167/184/310 168/185/311 169/186/312
f 168/185/313 167/184/314 166/187/315
f 172/188/316 173/189/317 171/190/318
f 170/191/319 173/189/320 172/188/321
f 177/192/322 175/193/323 176/194/324
f 174/195/325 175/193/326 177/192/327
f 175/193/328 179/196/329 176/194/330
f 176/194/331 179/196/332 178/197/333
