# This file uses centimeters as units for non-parametric coordinates.

v -122.015625 -53.892578 45.417969
v -89.144531 -94.175232 1.916016
v -132.785156 -12.574036 -55.926758
v -81.574219 -56.284790 -85.757813
v -27.964844 -67.301697 109.568359
v -13.949219 -79.830383 65.580078
v -68.367188 -73.221497 -60.816406
v 47.500000 -70.535583 90.542969
v -116.023438 10.831238 69.897461
v 18.187500 -10.907410 7.566406
v -153.273438 46.973450 -134.649414
v 33.585938 27.151184 -27.010742
v 96.925781 10.882080 153.429688
v 65.664063 19.921448 -94.758789
v -132.625000 63.382507 8.890625
v 45.695313 92.898010 167.852539
v 119.410156 -61.890076 59.692383
v -156.226563 143.272827 -163.389648
v 17.988281 -18.904114 78.014648
v -39.941406 33.041992 -136.348633
v 114.675781 14.122375 5.053711
v -117.136719 82.128967 -191.415039
v -121.644531 183.709717 23.362305
v 148.183594 61.325867 142.049805
v 10.277344 92.885925 -124.332031
v -146.867188 155.883179 -38.001953
v -149.242188 234.117126 -108.375977
v -108.500000 204.638367 -195.945313
v 156.230469 34.063293 58.060547
v 113.070313 145.111572 100.608398
v -73.066406 89.393555 101.556641
v 2.160156 215.852417 -146.377930
v -57.933594 224.794739 112.802734
v -117.914063 276.450439 -141.863281
v 101.988281 115.452393 -21.506836
v 100.878906 135.984924 24.513672
v 80.984375 177.773254 -82.901367
v -46.929688 339.894104 56.729492
v -113.687500 260.372620 -6.834961
v -109.050781 273.721924 -78.937500
v 25.222656 150.238037 195.944336
v 112.960938 268.926453 26.143555
v -41.500000 338.308350 -150.247070
v -61.054688 362.717712 -117.625977
v 101.625000 260.775940 136.575195
v 58.203125 289.828308 -100.425781
v 99.148438 261.464661 -36.094727
v -103.027344 328.637024 18.647461
v 39.914063 253.323303 147.263672
v 89.222656 333.798157 81.635742
v -3.949219 407.304749 -40.481445
v -16.136719 382.345520 45.193359
v 36.777344 391.087585 8.170898
v -47.109375 396.424194 -0.253906
v -78.058594 399.897949 -58.436523
vt 0.440941 0.205316
vt 0.441204 0.205330
vt 0.441201 0.205302
vt 0.441256 0.205186
vt 0.440980 0.205271
vt 0.441375 0.205175
vt 0.441316 0.205150
vt 0.441535 0.205030
vt 0.440914 0.205167
vt 0.441018 0.205082
vt 0.441168 0.205260
vt 0.441298 0.205136
vt 0.441329 0.204934
vt 0.440840 0.205220
vt 0.440767 0.205103
vt 0.441046 0.204979
vt 0.441553 0.204886
vt 0.440668 0.205122
vt 0.441054 0.205135
vt 0.440738 0.205074
vt 0.441087 0.204891
vt 0.441234 0.204813
vt 0.441412 0.204965
vt 0.441603 0.204864
vt 0.441535 0.204776
vt 0.441572 0.204693
vt 0.440861 0.204949
vt 0.440716 0.204933
vt 0.441279 0.204962
vt 0.441302 0.204619
vt 0.441065 0.204662
vt 0.440932 0.204791
vt 0.440734 0.205042
vt 0.441533 0.204645
vt 0.440603 0.204986
vt 0.441424 0.204704
vt 0.440868 0.204807
vt 0.440731 0.204858
vt 0.441027 0.204927
vt 0.441413 0.204467
vt 0.440795 0.204816
vt 0.441112 0.204674
vt 0.441324 0.204803
vt 0.440702 0.204730
vt 0.441408 0.204477
vt 0.440975 0.204563
vt 0.440857 0.204597
vt 0.441361 0.204490
vt 0.440818 0.204572
vt 0.441147 0.204497
vt 0.441278 0.204711
vt 0.441192 0.204424
vt 0.441078 0.204562
vt 0.441038 0.204459
vt 0.441211 0.204524
vn -0.409985 -0.802578 0.433337
vn -0.409985 -0.802578 0.433337
vn -0.409986 -0.802578 0.433337
vn 0.340228 -0.919991 -0.194580
vn 0.340228 -0.919991 -0.194580
vn 0.340228 -0.919991 -0.194579
vn -0.832682 -0.538057 -0.130901
vn -0.832682 -0.538057 -0.130901
vn -0.832682 -0.538057 -0.130901
vn -0.651828 -0.674039 -0.347551
vn -0.651828 -0.674039 -0.347551
vn -0.651828 -0.674039 -0.347550
vn -0.651828 -0.674039 -0.347551
vn -0.774512 -0.584881 -0.240924
vn -0.774513 -0.584881 -0.240924
vn -0.774513 -0.584881 -0.240924
vn -0.038254 -0.964188 0.262447
vn -0.038254 -0.964188 0.262447
vn -0.038254 -0.964188 0.262447
vn 0.775286 -0.577236 -0.256378
vn 0.775286 -0.577236 -0.256378
vn 0.775286 -0.577236 -0.256378
vn 0.775286 -0.577236 -0.256378
vn 0.781276 -0.488815 0.388159
vn 0.781276 -0.488815 0.388159
vn 0.781276 -0.488815 0.388159
vn -0.966513 -0.007546 0.256508
vn -0.966513 -0.007546 0.256508
vn -0.966513 -0.007546 0.256508
vn -0.994727 -0.065336 0.079059
vn -0.994727 -0.065336 0.079059
vn -0.994727 -0.065336 0.079059
vn -0.569951 -0.243924 0.784638
vn -0.569951 -0.243924 0.784638
vn -0.569951 -0.243924 0.784638
vn -0.070556 -0.466457 -0.881725
vn -0.070556 -0.466457 -0.881725
vn -0.070556 -0.466457 -0.881725
vn 0.474610 -0.590753 -0.652499
vn 0.474611 -0.590753 -0.652499
vn 0.474610 -0.590753 -0.652499
vn -0.860226 -0.506384 -0.059894
vn -0.860226 -0.506384 -0.059894
vn -0.860226 -0.506384 -0.059894
vn -0.135015 -0.826602 -0.546351
vn -0.135015 -0.826602 -0.546351
vn -0.135015 -0.826602 -0.546351
vn 0.688254 -0.533523 -0.491589
vn 0.688254 -0.533523 -0.491589
vn 0.688254 -0.533523 -0.491589
vn 0.034911 -0.679786 -0.732579
vn 0.034911 -0.679786 -0.732579
vn 0.034911 -0.679786 -0.732579
vn -0.108495 -0.812740 -0.572436
vn -0.108495 -0.812740 -0.572436
vn -0.108495 -0.812740 -0.572436
vn 0.713562 -0.606809 -0.350161
vn 0.713562 -0.606809 -0.350161
vn 0.713562 -0.606809 -0.350161
vn 0.351962 -0.696610 0.625186
vn 0.351962 -0.696610 0.625186
vn 0.351962 -0.696610 0.625186
vn -0.979076 -0.130902 0.155804
vn -0.979076 -0.130902 0.155804
vn -0.979076 -0.130902 0.155804
vn -0.641182 -0.185776 0.744563
vn -0.641182 -0.185776 0.744563
vn -0.641182 -0.185776 0.744563
vn -0.475891 -0.092280 0.874650
vn -0.475891 -0.092280 0.874650
vn -0.475891 -0.092279 0.874650
vn -0.483117 -0.094569 0.870434
vn -0.483117 -0.094569 0.870434
vn -0.483117 -0.094569 0.870434
vn 0.781864 -0.496624 0.376900
vn 0.781864 -0.496624 0.376899
vn 0.781864 -0.496624 0.376900
vn -0.138665 -0.989534 0.039938
vn -0.138665 -0.989534 0.039938
vn -0.138665 -0.989534 0.039938
vn 0.352467 -0.109175 -0.929434
vn 0.352467 -0.109175 -0.929434
vn 0.352467 -0.109175 -0.929434
vn -0.985733 -0.075506 0.150429
vn -0.985733 -0.075506 0.150429
vn -0.985733 -0.075506 0.150429
vn -0.762465 -0.206481 -0.613199
vn -0.762465 -0.206481 -0.613199
vn -0.762465 -0.206481 -0.613199
vn -0.992986 0.004865 0.118131
vn -0.992986 0.004865 0.118131
vn -0.992986 0.004865 0.118131
vn -0.520783 -0.452572 0.723853
vn -0.520783 -0.452572 0.723853
vn -0.520783 -0.452572 0.723853
vn 0.549646 -0.069550 -0.832498
vn 0.549646 -0.069550 -0.832497
vn 0.549646 -0.069550 -0.832498
vn 0.225566 -0.559274 -0.797704
vn 0.225566 -0.559274 -0.797704
vn 0.225566 -0.559274 -0.797704
vn 0.838547 -0.314236 0.445079
vn 0.838547 -0.314236 0.445079
vn 0.838547 -0.314236 0.445079
vn -0.168374 -0.985395 0.025429
vn -0.168375 -0.985395 0.025429
vn -0.168375 -0.985395 0.025429
vn -0.951813 0.050434 0.302505
vn -0.951813 0.050434 0.302505
vn -0.951813 0.050434 0.302505
vn -0.572204 0.010006 -0.820050
vn -0.572204 0.010006 -0.820050
vn -0.572204 0.010006 -0.820050
vn 0.383434 -0.138399 -0.913140
vn 0.383434 -0.138399 -0.913140
vn 0.383434 -0.138399 -0.913140
vn 0.489297 0.017994 -0.871931
vn 0.489297 0.017994 -0.871931
vn 0.489297 0.017994 -0.871931
vn 0.416661 -0.145163 -0.897397
vn 0.416661 -0.145163 -0.897397
vn 0.416661 -0.145163 -0.897397
vn 0.800769 -0.315916 -0.508888
vn 0.800769 -0.315916 -0.508888
vn 0.800769 -0.315916 -0.508888
vn -0.998652 0.014496 0.049840
vn -0.998652 0.014496 0.049840
vn -0.998652 0.014496 0.049840
vn 0.796168 -0.058187 -0.602271
vn 0.796168 -0.058187 -0.602271
vn 0.796168 -0.058187 -0.602271
vn -0.930559 0.041122 0.363826
vn -0.930559 0.041122 0.363826
vn -0.930559 0.041122 0.363826
vn 0.897543 -0.003199 -0.440914
vn 0.897543 -0.003199 -0.440914
vn 0.897544 -0.003199 -0.440914
vn -0.748981 0.149443 0.645519
vn -0.748981 0.149443 0.645519
vn -0.748981 0.149443 0.645519
vn -0.406243 -0.514835 0.754925
vn -0.406243 -0.514835 0.754925
vn -0.406243 -0.514835 0.754925
vn -0.858064 0.312633 -0.407415
vn -0.858064 0.312633 -0.407415
vn -0.858064 0.312633 -0.407415
vn 0.704304 -0.652637 0.279322
vn 0.704304 -0.652637 0.279322
vn 0.704304 -0.652637 0.279322
vn 0.923704 -0.061208 -0.378185
vn 0.923704 -0.061208 -0.378185
vn 0.923704 -0.061208 -0.378185
vn -0.767334 0.415795 0.488174
vn -0.767334 0.415795 0.488174
vn -0.767334 0.415795 0.488174
vn -0.775446 0.311837 -0.549037
vn -0.775446 0.311837 -0.549037
vn -0.775446 0.311837 -0.549037
vn 0.237592 -0.022335 0.971108
vn 0.237592 -0.022335 0.971108
vn 0.237592 -0.022335 0.971108
vn 0.888394 0.426835 -0.169023
vn 0.888394 0.426835 -0.169023
vn 0.888394 0.426835 -0.169023
vn -0.907917 0.363755 0.208253
vn -0.907917 0.363755 0.208253
vn -0.907917 0.363755 0.208253
vn 0.356929 0.530029 0.769202
vn 0.356929 0.530029 0.769202
vn 0.356929 0.530029 0.769202
vn 0.927371 0.372760 -0.032142
vn 0.927371 0.372760 -0.032142
vn 0.927371 0.372760 -0.032142
vn 0.887530 0.418650 -0.192412
vn 0.887530 0.418650 -0.192412
vn 0.887530 0.418650 -0.192412
vn -0.823323 0.045015 0.565785
vn -0.823323 0.045015 0.565785
vn -0.823323 0.045015 0.565785
vn 0.396661 0.112625 -0.911030
vn 0.396661 0.112625 -0.911030
vn 0.396661 0.112625 -0.911030
vn 0.592834 -0.103976 -0.798584
vn 0.592834 -0.103976 -0.798584
vn 0.592834 -0.103976 -0.798584
vn -0.320781 -0.042698 0.946191
vn -0.320781 -0.042698 0.946191
vn -0.320781 -0.042698 0.946191
vn -0.752439 0.365859 0.547707
vn -0.752439 0.365859 0.547707
vn -0.752439 0.365859 0.547707
vn -0.475697 0.488501 -0.731491
vn -0.475697 0.488501 -0.731491
vn -0.475697 0.488501 -0.731491
vn -0.816398 0.283047 0.503367
vn -0.816398 0.283047 0.503367
vn -0.816398 0.283047 0.503367
vn -0.995268 0.084246 -0.048410
vn -0.995268 0.084246 -0.048410
vn -0.995268 0.084246 -0.048410
vn -0.743445 0.655413 0.133132
vn -0.743445 0.655413 0.133132
vn -0.743445 0.655413 0.133132
vn 0.748607 -0.128231 0.650495
vn 0.748607 -0.128231 0.650495
vn 0.748607 -0.128231 0.650495
vn -0.836488 0.302572 0.456879
vn -0.836488 0.302572 0.456879
vn -0.836488 0.302572 0.456879
vn -0.844353 0.516808 0.141342
vn -0.844353 0.516808 0.141342
vn -0.844353 0.516808 0.141342
vn 0.676811 0.241829 -0.695302
vn 0.676811 0.241829 -0.695302
vn 0.676811 0.241829 -0.695302
vn 0.941149 -0.015452 -0.337640
vn 0.941148 -0.015452 -0.337640
vn 0.941148 -0.015452 -0.337640
vn 0.696355 -0.099544 0.710761
vn 0.696355 -0.099544 0.710761
vn 0.696355 -0.099544 0.710761
vn -0.499275 0.523114 -0.690707
vn -0.499275 0.523114 -0.690707
vn -0.499275 0.523114 -0.690707
vn 0.993741 -0.091135 0.064604
vn 0.993741 -0.091135 0.064604
vn 0.993741 -0.091135 0.064604
vn -0.970321 0.241169 -0.017738
vn -0.970321 0.241170 -0.017738
vn -0.970321 0.241170 -0.017738
vn -0.408945 0.430950 0.804392
vn -0.408945 0.430950 0.804392
vn -0.408945 0.430950 0.804392
vn 0.979685 0.106758 -0.169762
vn 0.979685 0.106758 -0.169762
vn 0.979685 0.106758 -0.169762
vn 0.499711 0.151201 -0.852894
vn 0.499711 0.151201 -0.852894
vn 0.499711 0.151201 -0.852894
vn 0.976311 -0.002627 -0.216355
vn 0.976311 -0.002627 -0.216355
vn 0.976311 -0.002627 -0.216355
vn 0.775881 -0.220455 -0.591108
vn 0.775881 -0.220455 -0.591108
vn 0.775881 -0.220455 -0.591108
vn -0.971168 0.200068 -0.129638
vn -0.971168 0.200068 -0.129638
vn -0.971168 0.200068 -0.129638
vn 0.106921 0.412052 0.904865
vn 0.106921 0.412052 0.904865
vn 0.106921 0.412052 0.904865
vn -0.515138 -0.228022 0.826219
vn -0.515138 -0.228022 0.826219
vn -0.515138 -0.228022 0.826219
vn 0.104926 0.825327 -0.554820
vn 0.104926 0.825327 -0.554820
vn 0.104926 0.825327 -0.554820
vn 0.990743 0.118603 -0.066051
vn 0.990742 0.118603 -0.066051
vn 0.990743 0.118603 -0.066051
vn 0.876031 -0.085477 0.474620
vn 0.876031 -0.085477 0.474620
vn 0.876031 -0.085477 0.474620
vn -0.861356 0.280429 -0.423586
vn -0.861356 0.280429 -0.423586
vn -0.861356 0.280429 -0.423586
vn 0.824421 0.510592 -0.244186
vn 0.824421 0.510591 -0.244186
vn 0.824421 0.510592 -0.244186
vn 0.063915 0.606844 0.792247
vn 0.063915 0.606844 0.792247
vn 0.063915 0.606844 0.792247
vn 0.571700 0.592236 -0.567817
vn 0.571700 0.592236 -0.567817
vn 0.571700 0.592236 -0.567817
vn 0.795780 0.543621 -0.266851
vn 0.795780 0.543621 -0.266851
vn 0.795780 0.543621 -0.266851
vn -0.358946 0.478223 0.801536
vn -0.358945 0.478223 0.801536
vn -0.358946 0.478223 0.801536
vn -0.538938 0.561484 0.627918
vn -0.538938 0.561484 0.627918
vn -0.538938 0.561484 0.627918
vn -0.210859 0.692169 0.690247
vn -0.210859 0.692169 0.690247
vn -0.210859 0.692169 0.690247
vn -0.655293 0.648534 0.387292
vn -0.655293 0.648534 0.387292
vn -0.655293 0.648534 0.387292
vn -0.551651 0.612825 0.565797
vn -0.551651 0.612825 0.565797
vn -0.551651 0.612825 0.565797
vn 0.853590 0.454188 -0.255142
vn 0.853590 0.454188 -0.255142
vn 0.853590 0.454188 -0.255142
vn 0.041600 0.851409 -0.522851
vn 0.041600 0.851409 -0.522851
vn 0.041600 0.851409 -0.522851
vn 0.783897 0.557248 0.273826
vn 0.783897 0.557247 0.273826
vn 0.783897 0.557247 0.273826
vn -0.493923 0.612117 0.617537
vn -0.493923 0.612117 0.617537
vn -0.493923 0.612117 0.617537
vn 0.709460 0.579800 -0.400622
vn 0.709460 0.579800 -0.400622
vn 0.709460 0.579800 -0.400622
vn -0.129151 0.983406 0.127408
vn -0.129151 0.983406 0.127408
vn -0.129151 0.983406 0.127408
vn 0.021500 0.959042 0.282446
vn 0.021500 0.959042 0.282446
vn 0.021500 0.959042 0.282446
s off
f 5/1/1 1/2/2 2/3/3
f 7/4/4 6/5/5 2/3/6
f 3/6/7 2/3/8 1/2/9
f 4/7/10 7/4/11 2/3/12 11/8/13
f 3/6/14 11/8/15 2/3/16
f 5/1/17 2/3/18 6/5/19
f 19/9/20 6/5/21 7/4/22 10/10/23
f 5/1/24 6/5/25 19/9/26
f 9/11/27 15/12/28 1/2/29
f 1/2/30 15/12/31 3/6/32
f 1/2/33 5/1/34 9/11/35
f 11/8/36 20/13/37 4/7/38
f 7/4/39 4/7/40 20/13/41
f 19/9/42 10/10/43 8/14/44
f 8/14/45 10/10/46 17/15/47
f 7/4/48 20/13/49 12/16/50
f 12/16/51 17/15/52 10/10/53
f 11/8/54 22/17/55 20/13/56
f 12/16/57 10/10/58 7/4/59
f 8/14/60 17/15/61 13/18/62
f 3/6/63 15/12/64 11/8/65
f 8/14/66 13/18/67 19/9/68
f 5/1/69 31/19/70 9/11/71
f 5/1/72 16/20/73 31/19/74
f 19/9/75 16/20/76 5/1/77
f 12/16/78 20/13/79 14/21/80
f 20/13/81 25/22/82 14/21/83
f 15/12/84 26/23/85 11/8/86
f 22/17/87 11/8/88 18/24/89
f 11/8/90 27/25/91 18/24/92
f 16/20/93 19/9/94 13/18/95
f 22/17/96 28/26/97 20/13/98
f 17/15/99 12/16/100 21/27/101
f 13/18/102 17/15/103 29/28/104
f 21/27/105 12/16/106 14/21/107
f 23/29/108 15/12/109 9/11/110
f 22/17/111 18/24/112 28/26/113
f 32/30/114 25/22/115 20/13/116
f 25/22/117 37/31/118 14/21/119
f 28/26/120 32/30/121 20/13/122
f 29/28/123 17/15/124 21/27/125
f 26/23/126 27/25/127 11/8/128
f 21/27/129 35/32/130 29/28/131
f 26/23/132 15/12/133 23/29/134
f 14/21/135 35/32/136 21/27/137
f 31/19/138 23/29/139 9/11/140
f 31/19/141 16/20/142 41/33/143
f 27/25/144 34/34/145 18/24/146
f 29/28/147 24/35/148 13/18/149
f 37/31/150 35/32/151 14/21/152
f 40/36/153 27/25/154 26/23/155
f 18/24/156 34/34/157 28/26/158
f 16/20/159 13/18/160 24/35/161
f 35/32/162 36/37/163 29/28/164
f 23/29/165 40/36/166 26/23/167
f 24/35/168 30/38/169 16/20/170
f 30/38/171 24/35/172 29/28/173
f 36/37/174 30/38/175 29/28/176
f 33/39/177 23/29/178 31/19/179
f 43/40/180 32/30/181 28/26/182
f 25/22/183 32/30/184 37/31/185
f 31/19/186 49/41/187 33/39/188
f 41/33/189 49/41/190 31/19/191
f 28/26/192 34/34/193 43/40/194
f 23/29/195 38/42/196 39/43/197
f 39/43/198 40/36/199 23/29/200
f 40/36/201 34/34/202 27/25/203
f 16/20/204 30/38/205 45/44/206
f 33/39/207 38/42/208 23/29/209
f 40/36/210 44/45/211 34/34/212
f 32/30/213 47/46/214 37/31/215
f 47/46/216 35/32/217 37/31/218
f 16/20/219 45/44/220 41/33/221
f 43/40/222 34/34/223 44/45/224
f 35/32/225 42/47/226 36/37/227
f 55/48/228 40/36/229 39/43/230
f 33/39/231 49/41/232 38/42/233
f 36/37/234 50/49/235 30/38/236
f 43/40/237 46/50/238 32/30/239
f 47/46/240 42/47/241 35/32/242
f 46/50/243 47/46/244 32/30/245
f 48/51/246 55/48/247 39/43/248
f 45/44/249 49/41/250 41/33/251
f 48/51/252 39/43/253 38/42/254
f 43/40/255 44/45/256 51/52/257
f 50/49/258 45/44/259 30/38/260
f 36/37/261 42/47/262 50/49/263
f 40/36/264 55/48/265 44/45/266
f 50/49/267 42/47/268 47/46/269
f 50/49/270 49/41/271 45/44/272
f 43/40/273 51/52/274 46/50/275
f 50/49/276 47/46/277 46/50/278
f 38/42/279 49/41/280 52/53/281
f 38/42/282 52/53/283 48/51/284
f 50/49/285 53/54/286 49/41/287
f 54/55/288 55/48/289 48/51/290
f 52/53/291 54/55/292 48/51/293
f 53/54/294 50/49/295 46/50/296
f 55/48/297 51/52/298 44/45/299
f 51/52/300 52/53/301 49/41/302
f 51/52/303 49/41/304 53/54/305
f 51/52/306 53/54/307 46/50/308
f 51/52/309 55/48/310 54/55/311
f 54/55/312 52/53/313 51/52/314
