# This file uses centimeters as units for non-parametric coordinates.

v -35.664063 28.537495 -29.594849
v 38.011841 28.537495 -23.589844
v -38.413696 26.665573 -27.720703
v -38.413696 30.409412 -27.720703
v 38.673462 30.409412 -21.437378
v 38.673462 26.665573 -21.437378
v -38.673462 26.665573 -9.236328
v -38.673462 30.409412 -9.236328
v 38.413696 30.409412 -2.953003
v 38.413696 26.665573 -2.953003
v 14.890381 28.322708 -24.466553
v 14.496704 30.853783 -21.718628
v 14.857178 26.450787 -22.370850
v 9.205444 30.194626 -6.631714
v 9.135864 26.450787 -3.580322
v -35.981689 28.537495 -6.999634
v 9.111938 28.322708 -1.565063
v 37.694336 28.537495 -0.994507
v -37.268921 19.871513 -47.920044
v 39.722153 19.904564 -41.915039
v -40.142212 18.009941 -46.035278
v -40.142212 21.753738 -46.055908
v 40.413689 21.788284 -39.772827
v 40.413681 18.044518 -39.752197
v -40.413700 18.111629 -27.551270
v -40.413700 21.855400 -27.571899
v 40.142204 21.889965 -21.288696
v 40.142204 18.146202 -21.268188
v 7.277100 17.621544 -41.968750
v 7.213257 21.379860 -38.401978
v 7.242432 15.761168 -39.862915
v 1.336304 19.591530 -24.144653
v 1.263550 15.864521 -21.072632
v -37.600712 19.995808 -25.324951
v 1.238525 17.747505 -20.648926
v 39.390381 20.028851 -19.319946
v -39.053955 35.432266 -10.768677
v 41.624878 36.214516 -4.814697
v -42.064941 33.820461 -8.666382
v -42.064941 37.532398 -9.154053
v 42.349487 38.350891 -2.924316
v 42.349487 34.638947 -2.436646
v -42.349487 36.228344 9.660522
v -42.349487 39.940285 9.172852
v 42.064945 40.758751 15.402344
v 42.064941 37.046814 15.890137
v 7.625610 32.904491 -5.483032
v 7.558838 37.078609 -2.413086
v 7.589355 31.321537 -3.161255
v 1.400269 37.083736 11.955933
v 1.324097 33.769283 15.468994
v -39.401733 38.375664 11.634277
v 1.297852 35.887775 15.729248
v 41.277103 39.157913 17.588135
v -37.491699 49.006413 50.068726
v -30.372559 49.006413 50.068726
v -37.491699 55.357601 46.852539
v -30.372559 55.357601 46.852539
v -37.491699 6.351186 -50.068726
v -30.372559 6.351186 -50.068726
v -37.491699 0.000000 -46.852417
v -30.372559 0.000000 -46.852417
v 30.823975 49.006413 50.068726
v 37.943115 49.006413 50.068726
v 30.823975 55.357601 46.852539
v 37.943115 55.357601 46.852539
v 30.823982 6.351186 -50.068726
v 37.943123 6.351186 -50.068726
v 30.823975 0.000000 -46.852417
v 37.943115 0.000000 -46.852417
v -37.268921 47.549000 9.601074
v 39.722172 47.549000 15.606323
v -40.142212 45.677082 11.475586
v -40.142212 49.420918 11.475586
v 40.413700 49.420918 17.758789
v 40.413700 45.677082 17.758789
v -40.413696 45.677082 29.959717
v -40.413696 49.420918 29.959717
v 40.142220 49.420918 36.242920
v 40.142220 45.677082 36.242920
v -11.473389 44.057598 11.842041
v -11.537109 47.796238 15.429443
v -11.508057 42.185680 13.937744
v -17.414185 45.929516 29.676758
v -17.486938 42.185680 32.728149
v -37.600708 47.549000 32.196411
v -17.511963 44.057598 34.743530
v 39.390381 47.549000 38.201660
vt 0.435606 0.035470
vt 0.435626 0.035457
vt 0.435629 0.035440
vt 0.435515 0.035943
vt 0.435490 0.035954
vt 0.435351 0.036182
vt 0.435348 0.036200
vt 0.435339 0.036180
vt 0.435502 0.035966
vt 0.435736 0.035484
vt 0.435739 0.035467
vt 0.435627 0.035922
vt 0.435472 0.036215
vt 0.435469 0.036232
vt 0.435643 0.035944
vt 0.435741 0.035502
vt 0.435658 0.035939
vt 0.435486 0.036220
vt 0.435507 0.035459
vt 0.435528 0.035446
vt 0.435530 0.035429
vt 0.435383 0.035882
vt 0.435359 0.035893
vt 0.435229 0.036198
vt 0.435227 0.036215
vt 0.435217 0.036195
vt 0.435371 0.035905
vt 0.435637 0.035472
vt 0.435639 0.035455
vt 0.435494 0.035859
vt 0.435349 0.036230
vt 0.435347 0.036247
vt 0.435511 0.035880
vt 0.435641 0.035491
vt 0.435525 0.035875
vt 0.435364 0.036234
vt 0.435731 0.035437
vt 0.435753 0.035422
vt 0.435753 0.035404
vt 0.435612 0.035880
vt 0.435589 0.035894
vt 0.435455 0.036219
vt 0.435456 0.036237
vt 0.435445 0.036217
vt 0.435603 0.035905
vt 0.435865 0.035437
vt 0.435865 0.035419
vt 0.435726 0.035845
vt 0.435579 0.036240
vt 0.435580 0.036258
vt 0.435746 0.035866
vt 0.435869 0.035456
vt 0.435759 0.035859
vt 0.435596 0.036243
vt 0.436081 0.035498
vt 0.436071 0.035526
vt 0.436057 0.035491
vt 0.436067 0.035463
vt 0.435196 0.035585
vt 0.435209 0.035559
vt 0.435211 0.035617
vt 0.435224 0.035591
vt 0.435839 0.036156
vt 0.435827 0.036189
vt 0.435811 0.036152
vt 0.435823 0.036119
vt 0.434892 0.036208
vt 0.434907 0.036177
vt 0.434909 0.036241
vt 0.434924 0.036210
vt 0.435863 0.035433
vt 0.435882 0.035419
vt 0.435886 0.035402
vt 0.435827 0.035686
vt 0.435802 0.035698
vt 0.435616 0.036191
vt 0.435613 0.036208
vt 0.435603 0.036188
vt 0.435813 0.035710
vt 0.435995 0.035446
vt 0.435999 0.035429
vt 0.435936 0.035664
vt 0.435741 0.036224
vt 0.435737 0.036242
vt 0.435952 0.035686
vt 0.436001 0.035466
vt 0.435967 0.035681
vt 0.435755 0.036229
vn -0.563212 0.000000 -0.826312
vn -0.563212 0.000000 -0.826312
vn -0.563212 0.000000 -0.826312
vn 0.069650 0.745528 -0.662825
vn 0.069650 0.745528 -0.662825
vn 0.069650 0.745528 -0.662825
vn 0.069650 0.745528 -0.662825
vn 0.955863 0.000000 -0.293812
vn 0.955863 0.000000 -0.293812
vn 0.955863 0.000000 -0.293812
vn 0.063589 -0.747906 -0.660752
vn 0.063589 -0.747906 -0.660752
vn 0.063589 -0.747906 -0.660752
vn 0.063589 -0.747906 -0.660752
vn -0.999901 0.000000 -0.014052
vn -0.999901 0.000000 -0.014052
vn -0.999901 0.000000 -0.014052
vn -0.999901 0.000000 -0.014052
vn -0.003899 0.999812 0.018986
vn -0.003899 0.999812 0.018986
vn -0.003899 0.999812 0.018986
vn -0.003899 0.999812 0.018986
vn 0.999901 0.000000 0.014052
vn 0.999901 0.000000 0.014052
vn 0.999901 0.000000 0.014052
vn 0.999901 0.000000 0.014052
vn -0.004177 -0.999991 -0.000670
vn -0.004177 -0.999991 -0.000670
vn -0.004177 -0.999991 -0.000670
vn -0.004177 -0.999991 -0.000670
vn -0.639096 0.000000 0.769127
vn -0.639096 0.000000 0.769127
vn -0.639096 0.000000 0.769127
vn -0.036214 0.884018 0.466048
vn -0.036214 0.884018 0.466048
vn -0.036214 0.884018 0.466048
vn -0.036214 0.884018 0.466048
vn 0.938683 0.000000 0.344781
vn 0.938683 0.000000 0.344781
vn 0.938683 0.000000 0.344781
vn -0.085475 -0.720571 0.688093
vn -0.085475 -0.720571 0.688093
vn -0.085475 -0.720571 0.688093
vn -0.085475 -0.720571 0.688093
vn 0.019981 0.743158 -0.668818
vn 0.019981 0.743158 -0.668818
vn 0.019981 0.743158 -0.668818
vn 0.019981 0.743158 -0.668818
vn 0.032430 -0.747456 -0.663519
vn 0.032430 -0.747456 -0.663519
vn 0.032430 -0.747456 -0.663519
vn 0.032430 -0.747456 -0.663519
vn 0.002809 0.999794 0.020095
vn 0.002809 0.999794 0.020095
vn 0.002809 0.999794 0.020095
vn 0.002809 0.999794 0.020095
vn 0.008053 -0.999967 0.001292
vn 0.008053 -0.999967 0.001292
vn 0.008053 -0.999967 0.001292
vn 0.008053 -0.999967 0.001292
vn -0.040850 0.883722 0.466226
vn -0.040850 0.883722 0.466226
vn -0.040850 0.883722 0.466226
vn -0.040850 0.883722 0.466226
vn -0.008769 -0.728639 0.684842
vn -0.008769 -0.728639 0.684842
vn -0.008769 -0.728639 0.684842
vn -0.008769 -0.728639 0.684842
vn -0.546390 -0.004615 -0.837518
vn -0.546390 -0.004615 -0.837518
vn -0.546390 -0.004615 -0.837518
vn 0.121629 0.720582 -0.682618
vn 0.121629 0.720582 -0.682618
vn 0.121629 0.720582 -0.682618
vn 0.121629 0.720582 -0.682618
vn 0.952075 -0.001687 -0.305859
vn 0.952075 -0.001687 -0.305859
vn 0.952075 -0.001687 -0.305859
vn 0.050575 -0.748475 -0.661232
vn 0.050575 -0.748475 -0.661232
vn 0.050575 -0.748475 -0.661232
vn 0.050575 -0.748475 -0.661232
vn -0.999892 -0.000081 -0.014686
vn -0.999892 -0.000081 -0.014686
vn -0.999892 -0.000081 -0.014686
vn -0.999892 -0.000081 -0.014686
vn 0.022626 0.998193 0.055671
vn 0.022626 0.998193 0.055671
vn 0.022626 0.998193 0.055671
vn 0.022626 0.998193 0.055671
vn 0.999892 0.000080 0.014685
vn 0.999892 0.000080 0.014685
vn 0.999892 0.000080 0.014685
vn 0.999892 0.000080 0.014685
vn -0.050006 -0.998745 -0.002891
vn -0.050006 -0.998745 -0.002891
vn -0.050006 -0.998745 -0.002891
vn -0.050006 -0.998745 -0.002891
vn -0.622364 0.004314 0.782716
vn -0.622364 0.004314 0.782716
vn -0.622364 0.004314 0.782716
vn -0.007800 0.838677 0.544574
vn -0.007800 0.838677 0.544574
vn -0.007800 0.838677 0.544574
vn -0.007800 0.838677 0.544574
vn 0.933578 0.001962 0.358369
vn 0.933578 0.001962 0.358369
vn 0.933578 0.001962 0.358369
vn -0.146307 -0.494446 0.856806
vn -0.146307 -0.494446 0.856806
vn -0.146307 -0.494446 0.856806
vn -0.146307 -0.494446 0.856806
vn -0.043274 0.712973 -0.699855
vn -0.043274 0.712973 -0.699855
vn -0.043274 0.712973 -0.699855
vn -0.043274 0.712973 -0.699855
vn 0.053757 -0.748657 -0.660774
vn 0.053757 -0.748657 -0.660774
vn 0.053757 -0.748657 -0.660774
vn 0.053757 -0.748657 -0.660774
vn -0.038439 0.998283 0.044207
vn -0.038439 0.998283 0.044207
vn -0.038439 0.998283 0.044207
vn -0.038439 0.998283 0.044207
vn 0.063243 -0.997868 0.016094
vn 0.063243 -0.997868 0.016094
vn 0.063243 -0.997868 0.016094
vn 0.063243 -0.997868 0.016094
vn -0.079399 0.830757 0.550943
vn -0.079399 0.830757 0.550943
vn -0.079399 0.830757 0.550943
vn -0.079399 0.830757 0.550943
vn 0.018927 -0.530079 0.847737
vn 0.018927 -0.530079 0.847737
vn 0.018927 -0.530079 0.847737
vn 0.018927 -0.530079 0.847737
vn -0.528491 -0.110583 -0.841706
vn -0.528491 -0.110583 -0.841706
vn -0.528491 -0.110583 -0.841706
vn 0.115411 0.630005 -0.767968
vn 0.115411 0.630005 -0.767967
vn 0.115411 0.630005 -0.767967
vn 0.115411 0.630005 -0.767967
vn 0.947743 -0.041557 -0.316318
vn 0.947743 -0.041557 -0.316318
vn 0.947743 -0.041557 -0.316318
vn 0.021791 -0.817585 -0.575395
vn 0.021791 -0.817585 -0.575395
vn 0.021791 -0.817585 -0.575395
vn 0.021791 -0.817585 -0.575395
vn -0.999882 -0.002004 -0.015261
vn -0.999882 -0.002004 -0.015261
vn -0.999882 -0.002004 -0.015261
vn -0.999882 -0.002004 -0.015261
vn 0.042006 0.996981 -0.065301
vn 0.042006 0.996981 -0.065301
vn 0.042006 0.996981 -0.065301
vn 0.042006 0.996981 -0.065301
vn 0.999882 0.002005 0.015261
vn 0.999882 0.002005 0.015261
vn 0.999882 0.002005 0.015261
vn 0.999882 0.002005 0.015261
vn -0.066972 -0.990717 0.118297
vn -0.066972 -0.990717 0.118297
vn -0.066972 -0.990717 0.118297
vn -0.066972 -0.990717 0.118297
vn -0.604458 0.103769 0.789849
vn -0.604458 0.103769 0.789849
vn -0.604458 0.103769 0.789849
vn 0.025967 0.918403 0.394793
vn 0.025967 0.918403 0.394793
vn 0.025967 0.918403 0.394793
vn 0.025967 0.918403 0.394793
vn 0.927755 0.048620 0.370008
vn 0.927755 0.048620 0.370008
vn 0.927755 0.048620 0.370008
vn -0.129858 -0.388755 0.912144
vn -0.129858 -0.388755 0.912144
vn -0.129858 -0.388755 0.912144
vn -0.129858 -0.388755 0.912144
vn -0.039513 0.620042 -0.783573
vn -0.039513 0.620042 -0.783573
vn -0.039513 0.620042 -0.783573
vn -0.039513 0.620042 -0.783573
vn 0.090511 -0.820387 -0.564600
vn 0.090511 -0.820387 -0.564600
vn 0.090511 -0.820387 -0.564600
vn 0.090511 -0.820387 -0.564600
vn -0.061870 0.994408 -0.085581
vn -0.061870 0.994408 -0.085581
vn -0.061870 0.994408 -0.085581
vn -0.061870 0.994408 -0.085581
vn 0.083930 -0.985951 0.144415
vn 0.083930 -0.985951 0.144415
vn 0.083930 -0.985951 0.144415
vn 0.083930 -0.985951 0.144415
vn -0.104990 0.906194 0.409622
vn -0.104990 0.906194 0.409622
vn -0.104990 0.906194 0.409622
vn -0.104990 0.906194 0.409622
vn 0.008323 -0.418809 0.908036
vn 0.008323 -0.418809 0.908036
vn 0.008323 -0.418809 0.908036
vn 0.008323 -0.418809 0.908036
vn 0.000000 0.451769 0.892135
vn 0.000000 0.451769 0.892135
vn 0.000000 0.451769 0.892135
vn 0.000000 0.451769 0.892135
vn 0.000000 0.892408 -0.451229
vn 0.000000 0.892408 -0.451229
vn 0.000000 0.892408 -0.451229
vn 0.000000 0.892408 -0.451229
vn 0.000000 -0.451783 -0.892128
vn 0.000000 -0.451783 -0.892128
vn 0.000000 -0.451783 -0.892128
vn 0.000000 -0.451783 -0.892128
vn 0.000000 -0.892408 0.451230
vn 0.000000 -0.892408 0.451230
vn 0.000000 -0.892408 0.451230
vn 0.000000 -0.892408 0.451230
vn 1.000000 -0.000000 0.000000
vn 1.000000 -0.000000 0.000000
vn 1.000000 -0.000000 0.000000
vn 1.000000 -0.000000 0.000000
vn -1.000000 -0.000000 0.000000
vn -1.000000 -0.000000 0.000000
vn -1.000000 -0.000000 0.000000
vn -1.000000 -0.000000 0.000000
vn 0.000000 0.451769 0.892135
vn 0.000000 0.451769 0.892135
vn 0.000000 0.451769 0.892135
vn 0.000000 0.451769 0.892135
vn 0.000000 0.892408 -0.451229
vn 0.000000 0.892408 -0.451229
vn 0.000000 0.892408 -0.451229
vn 0.000000 0.892408 -0.451229
vn 0.000000 -0.451783 -0.892128
vn 0.000000 -0.451783 -0.892128
vn 0.000000 -0.451783 -0.892128
vn 0.000000 -0.451783 -0.892128
vn 0.000000 -0.892408 0.451230
vn 0.000000 -0.892408 0.451230
vn 0.000000 -0.892408 0.451230
vn 0.000000 -0.892408 0.451230
vn 1.000000 -0.000001 0.000000
vn 1.000000 -0.000001 0.000000
vn 1.000000 -0.000001 0.000000
vn 1.000000 -0.000001 0.000000
vn -1.000000 0.000001 -0.000000
vn -1.000000 0.000001 -0.000000
vn -1.000000 0.000001 -0.000000
vn -1.000000 0.000001 -0.000000
vn -0.546395 0.000000 -0.837527
vn -0.546395 0.000000 -0.837527
vn -0.546395 0.000000 -0.837527
vn 0.144771 0.728072 -0.670039
vn 0.144771 0.728072 -0.670039
vn 0.144771 0.728072 -0.670039
vn 0.144771 0.728072 -0.670039
vn 0.952072 0.000000 -0.305874
vn 0.952072 0.000000 -0.305874
vn 0.952072 0.000000 -0.305874
vn -0.031502 -0.715564 -0.697836
vn -0.031502 -0.715564 -0.697836
vn -0.031502 -0.715564 -0.697836
vn -0.031502 -0.715564 -0.697836
vn -0.999892 0.000000 -0.014686
vn -0.999892 0.000000 -0.014686
vn -0.999892 0.000000 -0.014686
vn -0.999892 0.000000 -0.014686
vn 0.093162 0.992888 0.074126
vn 0.093162 0.992888 0.074126
vn 0.093162 0.992888 0.074126
vn 0.093162 0.992888 0.074126
vn 0.999892 0.000000 0.014686
vn 0.999892 0.000000 0.014686
vn 0.999892 0.000000 0.014686
vn 0.999892 0.000000 0.014686
vn -0.131966 -0.991007 -0.022129
vn -0.131966 -0.991007 -0.022129
vn -0.131966 -0.991007 -0.022129
vn -0.131966 -0.991007 -0.022129
vn -0.622368 0.000000 0.782725
vn -0.622368 0.000000 0.782725
vn -0.622368 0.000000 0.782725
vn 0.124169 0.900989 0.415694
vn 0.124169 0.900989 0.415694
vn 0.124169 0.900989 0.415694
vn 0.124169 0.900989 0.415694
vn 0.933588 0.000000 0.358348
vn 0.933588 0.000000 0.358348
vn 0.933588 0.000000 0.358348
vn -0.197116 -0.668100 0.717487
vn -0.197116 -0.668100 0.717487
vn -0.197116 -0.668100 0.717487
vn -0.197116 -0.668100 0.717487
vn 0.005861 0.714784 -0.699321
vn 0.005861 0.714784 -0.699321
vn 0.005861 0.714784 -0.699321
vn 0.005861 0.714784 -0.699321
vn 0.099064 -0.738898 -0.666495
vn 0.099064 -0.738898 -0.666495
vn 0.099064 -0.738898 -0.666495
vn 0.099064 -0.738898 -0.666495
vn -0.050459 0.997600 0.047416
vn -0.050459 0.997600 0.047416
vn -0.050459 0.997600 0.047416
vn -0.050459 0.997600 0.047416
vn 0.062904 -0.997964 0.010548
vn 0.062904 -0.997964 0.010548
vn 0.062904 -0.997964 0.010548
vn 0.062904 -0.997964 0.010548
vn -0.094113 0.883277 0.459309
vn -0.094113 0.883277 0.459309
vn -0.094113 0.883277 0.459309
vn -0.094113 0.883277 0.459309
vn 0.002599 -0.727626 0.685969
vn 0.002599 -0.727626 0.685969
vn 0.002599 -0.727626 0.685969
vn 0.002599 -0.727626 0.685969
s off
f 1/1/1 3/2/2 4/3/3
f 4/3/4 12/4/5 11/5/6 1/1/7
f 5/6/8 6/7/9 2/8/10
f 1/1/11 11/5/12 13/9/13 3/2/14
f 4/3/15 3/2/16 7/10/17 8/11/18
f 8/11/19 14/12/20 12/4/21 4/3/22
f 9/13/23 10/14/24 6/7/25 5/6/26
f 3/2/27 13/9/28 15/15/29 7/10/30
f 8/11/31 7/10/32 16/16/33
f 16/16/34 17/17/35 14/12/36 8/11/37
f 18/18/38 10/14/39 9/13/40
f 7/10/41 15/15/42 17/17/43 16/16/44
f 11/5/45 12/4/46 5/6/47 2/8/48
f 13/9/49 11/5/50 2/8/51 6/7/52
f 12/4/53 14/12/54 9/13/55 5/6/56
f 15/15/57 13/9/58 6/7/59 10/14/60
f 14/12/61 17/17/62 18/18/63 9/13/64
f 17/17/65 15/15/66 10/14/67 18/18/68
f 19/19/69 21/20/70 22/21/71
f 22/21/72 30/22/73 29/23/74 19/19/75
f 23/24/76 24/25/77 20/26/78
f 19/19/79 29/23/80 31/27/81 21/20/82
f 22/21/83 21/20/84 25/28/85 26/29/86
f 26/29/87 32/30/88 30/22/89 22/21/90
f 27/31/91 28/32/92 24/25/93 23/24/94
f 21/20/95 31/27/96 33/33/97 25/28/98
f 26/29/99 25/28/100 34/34/101
f 34/34/102 35/35/103 32/30/104 26/29/105
f 36/36/106 28/32/107 27/31/108
f 25/28/109 33/33/110 35/35/111 34/34/112
f 29/23/113 30/22/114 23/24/115 20/26/116
f 31/27/117 29/23/118 20/26/119 24/25/120
f 30/22/121 32/30/122 27/31/123 23/24/124
f 33/33/125 31/27/126 24/25/127 28/32/128
f 32/30/129 35/35/130 36/36/131 27/31/132
f 35/35/133 33/33/134 28/32/135 36/36/136
f 37/37/137 39/38/138 40/39/139
f 40/39/140 48/40/141 47/41/142 37/37/143
f 41/42/144 42/43/145 38/44/146
f 37/37/147 47/41/148 49/45/149 39/38/150
f 40/39/151 39/38/152 43/46/153 44/47/154
f 44/47/155 50/48/156 48/40/157 40/39/158
f 45/49/159 46/50/160 42/43/161 41/42/162
f 39/38/163 49/45/164 51/51/165 43/46/166
f 44/47/167 43/46/168 52/52/169
f 52/52/170 53/53/171 50/48/172 44/47/173
f 54/54/174 46/50/175 45/49/176
f 43/46/177 51/51/178 53/53/179 52/52/180
f 47/41/181 48/40/182 41/42/183 38/44/184
f 49/45/185 47/41/186 38/44/187 42/43/188
f 48/40/189 50/48/190 45/49/191 41/42/192
f 51/51/193 49/45/194 42/43/195 46/50/196
f 50/48/197 53/53/198 54/54/199 45/49/200
f 53/53/201 51/51/202 46/50/203 54/54/204
f 55/55/205 56/56/206 58/57/207 57/58/208
f 57/58/209 58/57/210 60/59/211 59/60/212
f 59/60/213 60/59/214 62/61/215 61/62/216
f 61/62/217 62/61/218 56/56/219 55/55/220
f 56/56/221 62/61/222 60/59/223 58/57/224
f 61/62/225 55/55/226 57/58/227 59/60/228
f 63/63/229 64/64/230 66/65/231 65/66/232
f 65/66/233 66/65/234 68/67/235 67/68/236
f 67/68/237 68/67/238 70/69/239 69/70/240
f 69/70/241 70/69/242 64/64/243 63/63/244
f 64/64/245 70/69/246 68/67/247 66/65/248
f 69/70/249 63/63/250 65/66/251 67/68/252
f 71/71/253 73/72/254 74/73/255
f 74/73/256 82/74/257 81/75/258 71/71/259
f 75/76/260 76/77/261 72/78/262
f 71/71/263 81/75/264 83/79/265 73/72/266
f 74/73/267 73/72/268 77/80/269 78/81/270
f 78/81/271 84/82/272 82/74/273 74/73/274
f 79/83/275 80/84/276 76/77/277 75/76/278
f 73/72/279 83/79/280 85/85/281 77/80/282
f 78/81/283 77/80/284 86/86/285
f 86/86/286 87/87/287 84/82/288 78/81/289
f 88/88/290 80/84/291 79/83/292
f 77/80/293 85/85/294 87/87/295 86/86/296
f 81/75/297 82/74/298 75/76/299 72/78/300
f 83/79/301 81/75/302 72/78/303 76/77/304
f 82/74/305 84/82/306 79/83/307 75/76/308
f 85/85/309 83/79/310 76/77/311 80/84/312
f 84/82/313 87/87/314 88/88/315 79/83/316
f 87/87/317 85/85/318 80/84/319 88/88/320
