# This file uses centimeters as units for non-parametric coordinates.

v -39.139252 4.973831 15.711784
v -8.408661 6.920471 15.711784
v -24.436951 21.124687 15.711784
v -22.587585 -8.709106 21.306992
v -32.568359 -15.246353 15.711784
v -12.081604 -13.951645 15.711784
v -14.586029 41.166916 15.711784
v -31.142731 15.203705 15.711784
v -10.214996 19.767609 15.711784
v -35.398254 35.873260 21.306992
v -34.790192 47.788467 15.711784
v -45.829163 30.480995 15.711784
v -13.198700 46.612778 25.743484
v 15.528259 35.591927 23.820305
v -3.266296 28.687897 26.947403
v 4.441376 20.904198 19.457054
v -14.710693 28.252258 20.738983
v 6.189423 53.145638 28.211403
v -21.416626 50.445213 19.906044
v -25.800629 68.342819 23.983955
v -10.793610 48.658981 23.497009
v 5.344849 65.661469 18.900490
v -7.958374 78.487061 23.313522
v 15.627899 1.855507 20.287132
v 42.171936 17.464676 20.287132
v 21.661072 22.197762 24.478722
v 35.687408 -0.748787 21.764183
v 46.037308 2.130737 14.604568
v 28.340607 -8.274040 14.604568
v -15.529633 1.854362 21.895790
v -7.338104 31.409683 26.366234
v -24.039612 20.288124 26.681709
v 1.219635 13.213005 27.276039
v 8.533783 22.055092 22.242737
v 3.072968 2.350845 19.262505
v 17.213135 35.890808 15.711784
v 26.480103 14.817848 15.711784
v 36.656021 47.463646 21.306992
v 28.955841 56.914177 15.711784
v 48.563232 50.827255 15.711784
v 46.620026 26.762047 15.711784
v 1.684113 73.231934 25.174332
v 1.940308 53.478661 26.986694
v 19.856415 68.282356 20.168114
v -19.515839 -17.038879 15.711784
v -0.878296 -30.718002 15.711784
v -10.957336 -16.537819 19.790077
v -20.547791 -29.624710 19.790077
v 24.528198 25.211945 15.711784
v 4.746857 13.247528 15.711784
v 21.725464 17.078438 19.790077
v 13.380127 30.877151 19.790077
v -2.756348 -67.552383 9.797859
v -16.607819 -55.944820 14.576340
v -23.175812 -47.098351 8.666992
v -17.200470 -66.737366 8.653259
v -2.848053 -40.913200 10.462761
v 55.468445 91.048248 3.922081
v 28.166199 105.287552 3.922081
v 34.529266 84.835632 3.922081
v 48.386063 111.321838 9.517288
v 60.311127 111.751938 3.922081
v 42.109222 121.244629 3.922081
v -14.804993 -84.683044 3.922081
v -39.770508 -66.659363 3.922081
v -36.419830 -87.815475 3.922081
v -18.893890 -63.601681 9.517288
v -7.029724 -64.893539 3.922081
v -23.675537 -52.879711 3.922081
v -51.281128 -89.524658 3.922081
v -26.145020 -107.311066 3.922081
v -29.697113 -86.187561 3.922081
v -46.992950 -110.565948 9.517288
v -58.865509 -109.384918 3.922081
v -42.109070 -121.244629 3.922081
v 46.656631 -3.853798 27.260971
v 29.660172 11.774254 23.117447
v 35.962692 -5.104637 32.336426
v 48.446503 26.439667 21.341896
v 59.777695 16.020966 24.104309
v -49.948273 69.822884 17.350769
v -22.118835 82.400513 23.753166
v -45.284729 79.544250 25.129509
v -30.186920 62.946129 25.009537
v -18.295746 62.244987 21.121788
v -36.849670 53.860474 16.853523
v -51.055298 96.283142 25.303459
v -54.217987 66.952896 15.798569
v -66.462860 81.856354 24.784470
v -72.691650 74.076263 15.764427
v -70.583038 93.627350 22.100639
v -38.662567 79.585083 21.619987
v -12.534485 95.558548 8.497429
v -43.323669 95.938110 8.497429
v -28.221741 81.273651 12.689018
v -28.351440 108.167847 9.974480
v -38.694916 111.058990 2.814865
v -18.170319 110.803802 2.814865
v -21.347504 -104.761505 3.922081
v -7.600250 -86.174957 3.922081
v -8.881378 -105.762100 8.000374
v -21.849213 -96.174622 8.000374
v -48.211060 46.727753 3.922081
v -51.922607 23.908997 3.922081
v -43.873444 39.332199 8.000374
v -59.888611 41.925049 8.000374
v 59.267441 15.315247 10.225677
v 36.425018 40.213585 12.611961
v 46.406860 16.476250 14.915657
v 59.873810 38.878822 19.785500
v 36.255203 27.541924 15.976334
v 72.691788 35.351753 14.538193
v 57.464432 51.949692 16.128922
v -46.365662 -12.050247 9.797859
v -40.520172 -29.149246 14.576340
v -50.292206 -38.535309 12.599182
v -39.477539 -40.120125 8.666992
v -34.428101 -20.221710 8.653259
v -60.071564 -34.891701 10.462761
vt 0.440649 0.158239
vt 0.440649 0.158239
vt 0.440649 0.158239
vt 0.440649 0.158239
vt 0.440649 0.158239
vt 0.440649 0.158239
vt 0.440649 0.158239
vt 0.440649 0.158239
vt 0.440649 0.158239
vt 0.440649 0.158239
vt 0.440649 0.158239
vt 0.440649 0.158239
vt 0.440677 0.176576
vt 0.440677 0.176576
vt 0.440677 0.176576
vt 0.440677 0.176576
vt 0.440677 0.176576
vt 0.440677 0.176576
vt 0.440677 0.176576
vt 0.440677 0.176576
vt 0.440677 0.176576
vt 0.440677 0.176576
vt 0.440677 0.176576
vt 0.440677 0.176576
vt 0.440649 0.158239
vt 0.440649 0.158239
vt 0.440649 0.158239
vt 0.440649 0.158239
vt 0.440649 0.158239
vt 0.440649 0.158239
vt 0.440649 0.158239
vt 0.440649 0.158239
vt 0.440649 0.158239
vt 0.440649 0.158239
vt 0.440649 0.158239
vt 0.440649 0.158239
vt 0.440649 0.158239
vt 0.440649 0.158239
vt 0.440649 0.158239
vt 0.440649 0.158239
vt 0.440649 0.158239
vt 0.440677 0.176576
vt 0.440677 0.176576
vt 0.440677 0.176576
vt 0.440677 0.176576
vt 0.440677 0.176576
vt 0.440677 0.176576
vt 0.440677 0.176576
vt 0.440677 0.176576
vt 0.440677 0.176576
vt 0.440677 0.176576
vt 0.440677 0.176576
vt 0.440677 0.176576
vt 0.440649 0.158239
vt 0.440649 0.158239
vt 0.440649 0.158239
vt 0.440649 0.158239
vt 0.440649 0.158239
vt 0.440649 0.158239
vt 0.440649 0.158239
vt 0.440649 0.158239
vt 0.440649 0.158239
vt 0.440649 0.158239
vt 0.440649 0.158239
vt 0.440649 0.158239
vt 0.440649 0.158239
vt 0.440649 0.158239
vt 0.440649 0.158239
vt 0.440649 0.158239
vt 0.440649 0.158239
vt 0.440649 0.158239
vt 0.440649 0.158239
vt 0.440649 0.158239
vt 0.440649 0.158239
vt 0.440649 0.158239
vt 0.440649 0.158239
vt 0.440649 0.158239
vt 0.440649 0.158239
vt 0.440649 0.158239
vt 0.440649 0.158239
vt 0.440649 0.158239
vt 0.440649 0.158239
vt 0.440649 0.158239
vt 0.440649 0.158239
vt 0.440649 0.158239
vt 0.440649 0.158239
vt 0.440649 0.158239
vt 0.440649 0.158239
vt 0.440649 0.158239
vt 0.440649 0.158239
vt 0.440649 0.158239
vt 0.440649 0.158239
vt 0.440649 0.158239
vt 0.440649 0.158239
vt 0.440649 0.158239
vt 0.440649 0.158239
vt 0.440649 0.158239
vt 0.440649 0.158239
vt 0.440677 0.176576
vt 0.440677 0.176576
vt 0.440677 0.176576
vt 0.440677 0.176576
vt 0.440677 0.176576
vt 0.440677 0.176576
vt 0.440677 0.176576
vt 0.440677 0.176576
vt 0.440677 0.176576
vt 0.440677 0.176576
vt 0.440677 0.176576
vt 0.440677 0.176576
vt 0.440649 0.158239
vt 0.440649 0.158239
vt 0.440649 0.158239
vt 0.440649 0.158239
vt 0.440649 0.158239
vt 0.440649 0.158239
vt 0.440649 0.158239
vt 0.440649 0.158239
vt 0.440649 0.158239
vt 0.440649 0.158239
vt 0.440649 0.158239
vt 0.440649 0.158239
vt 0.440649 0.158239
vt 0.440649 0.158239
vt 0.440677 0.176576
vt 0.440677 0.176576
vt 0.440677 0.176576
vt 0.440677 0.176576
vt 0.440677 0.176576
vt 0.440677 0.176576
vt 0.440677 0.176576
vt 0.440677 0.176576
vt 0.440677 0.176576
vt 0.440677 0.176576
vt 0.440677 0.176576
vt 0.440677 0.176576
vt 0.440677 0.176576
vt 0.440677 0.176576
vt 0.440677 0.176576
vt 0.440649 0.158239
vt 0.440649 0.158239
vt 0.440649 0.158239
vt 0.440649 0.158239
vt 0.440649 0.158239
vt 0.440649 0.158239
vn 0.000000 -0.000000 1.000000
vn 0.000000 -0.000000 1.000000
vn 0.000000 -0.000000 1.000000
vn 0.533068 0.187778 0.824972
vn 0.533068 0.187778 0.824972
vn 0.533068 0.187778 0.824972
vn -0.544846 0.121805 0.829643
vn -0.544846 0.121805 0.829643
vn -0.544845 0.121805 0.829643
vn 0.000000 -0.000000 1.000000
vn 0.000000 -0.000000 1.000000
vn 0.000000 -0.000000 1.000000
vn 0.000000 -0.000000 1.000000
vn 0.000000 -0.000000 1.000000
vn 0.000000 -0.000000 1.000000
vn -0.548472 0.136394 0.824970
vn -0.548472 0.136394 0.824970
vn -0.548472 0.136394 0.824970
vn 0.388025 -0.401419 0.829638
vn 0.388025 -0.401419 0.829638
vn 0.388025 -0.401419 0.829638
vn 0.000000 -0.000000 1.000000
vn 0.000000 -0.000000 1.000000
vn 0.000000 -0.000000 1.000000
vn -0.461561 -0.197704 0.864797
vn -0.461561 -0.197704 0.864797
vn -0.461561 -0.197704 0.864797
vn 0.534397 -0.248365 0.807920
vn 0.534397 -0.248365 0.807920
vn 0.534397 -0.248365 0.807920
vn -0.035192 -0.260105 0.964939
vn -0.035192 -0.260105 0.964939
vn -0.035192 -0.260105 0.964939
vn -0.125332 -0.002823 0.992111
vn -0.125332 -0.002823 0.992111
vn -0.125332 -0.002823 0.992111
vn -0.349784 -0.288716 0.891232
vn -0.349784 -0.288716 0.891232
vn -0.349784 -0.288716 0.891232
vn 0.142581 -0.186555 0.972043
vn 0.142581 -0.186555 0.972043
vn 0.142581 -0.186555 0.972043
vn 0.168964 0.104575 0.980059
vn 0.168964 0.104575 0.980059
vn 0.168964 0.104575 0.980059
vn 0.589979 -0.145617 0.794179
vn 0.589979 -0.145617 0.794179
vn 0.589979 -0.145617 0.794179
vn 0.201881 0.007555 0.979381
vn 0.201881 0.007555 0.979381
vn 0.201881 0.007555 0.979381
vn 0.215446 -0.257952 0.941830
vn 0.215446 -0.257952 0.941830
vn 0.215446 -0.257952 0.941830
vn -0.433078 -0.362374 0.825305
vn -0.433078 -0.362374 0.825305
vn -0.433078 -0.362374 0.825305
vn 0.129752 -0.574208 0.808362
vn 0.129752 -0.574208 0.808362
vn 0.129752 -0.574208 0.808362
vn 0.099070 0.429161 0.897779
vn 0.099070 0.429161 0.897779
vn 0.099070 0.429161 0.897779
vn 0.142582 -0.186553 0.972043
vn 0.142582 -0.186553 0.972043
vn 0.142582 -0.186553 0.972043
vn -0.104982 -0.295048 0.949698
vn -0.104982 -0.295048 0.949698
vn -0.104982 -0.295048 0.949698
vn -0.560824 0.032984 0.827278
vn -0.560824 0.032984 0.827278
vn -0.560824 0.032984 0.827278
vn 0.000000 -0.000000 1.000000
vn 0.000000 -0.000000 1.000000
vn 0.000000 -0.000000 1.000000
vn 0.121131 -0.204236 0.971398
vn 0.121131 -0.204236 0.971398
vn 0.121131 -0.204236 0.971398
vn 0.433095 -0.034954 0.900671
vn 0.433095 -0.034954 0.900671
vn 0.433095 -0.034954 0.900671
vn 0.330419 0.312393 0.890637
vn 0.330419 0.312393 0.890637
vn 0.330419 0.312393 0.890637
vn -0.089703 0.222384 0.970824
vn -0.089703 0.222384 0.970824
vn -0.089703 0.222384 0.970824
vn 0.196509 -0.487168 0.850912
vn 0.196509 -0.487168 0.850912
vn 0.196509 -0.487168 0.850912
vn -0.205190 -0.124100 0.970823
vn -0.205190 -0.124100 0.970823
vn -0.205190 -0.124100 0.970823
vn 0.449464 0.271836 0.850933
vn 0.449464 0.271836 0.850933
vn 0.449464 0.271836 0.850933
vn 0.309008 -0.022667 0.950789
vn 0.309008 -0.022667 0.950789
vn 0.309008 -0.022667 0.950789
vn -0.096116 -0.474831 0.874813
vn -0.096116 -0.474831 0.874813
vn -0.096116 -0.474831 0.874813
vn -0.208772 0.431306 0.877718
vn -0.208772 0.431306 0.877719
vn -0.208772 0.431306 0.877718
vn 0.000000 0.000000 1.000000
vn 0.000000 0.000000 1.000000
vn 0.000000 0.000000 1.000000
vn -0.553295 0.115190 0.824983
vn -0.553295 0.115190 0.824983
vn -0.553295 0.115190 0.824983
vn 0.403190 -0.386197 0.829633
vn 0.403190 -0.386197 0.829633
vn 0.403190 -0.386197 0.829633
vn 0.000000 0.000000 1.000000
vn 0.000000 0.000000 1.000000
vn 0.000000 0.000000 1.000000
vn -0.000000 0.000000 1.000000
vn -0.000000 0.000000 1.000000
vn -0.000000 0.000000 1.000000
vn -0.530979 0.193697 0.824950
vn -0.530979 0.193697 0.824950
vn -0.530979 0.193697 0.824950
vn 0.343336 -0.440219 0.829655
vn 0.343336 -0.440219 0.829655
vn 0.343336 -0.440219 0.829655
vn -0.000000 0.000000 1.000000
vn -0.000000 0.000000 1.000000
vn -0.000000 0.000000 1.000000
vn 0.000000 0.000000 1.000000
vn 0.000000 0.000000 1.000000
vn 0.000000 0.000000 1.000000
vn 0.532739 -0.188616 0.824993
vn 0.532739 -0.188616 0.824993
vn 0.532739 -0.188616 0.824993
vn -0.347516 0.436967 0.829634
vn -0.347516 0.436967 0.829634
vn -0.347516 0.436967 0.829634
vn 0.000000 0.000000 1.000000
vn 0.000000 0.000000 1.000000
vn 0.000000 0.000000 1.000000
vn -0.059552 0.194813 0.979031
vn -0.059552 0.194813 0.979031
vn -0.059552 0.194813 0.979031
vn -0.228128 0.399718 0.887797
vn -0.228128 0.399718 0.887797
vn -0.228128 0.399718 0.887797
vn 0.409283 0.151615 0.899722
vn 0.409283 0.151615 0.899722
vn 0.409283 0.151615 0.899722
vn 0.313263 0.278384 0.907948
vn 0.313263 0.278384 0.907948
vn 0.313263 0.278384 0.907948
vn 0.073092 -0.115465 0.990619
vn 0.073092 -0.115465 0.990619
vn 0.073092 -0.115465 0.990619
vn -0.465160 -0.406207 0.786525
vn -0.465160 -0.406207 0.786525
vn -0.465160 -0.406207 0.786525
vn -0.436184 -0.402574 0.804785
vn -0.436184 -0.402574 0.804785
vn -0.436184 -0.402574 0.804785
vn 0.011631 -0.761143 0.648480
vn 0.011631 -0.761143 0.648480
vn 0.011631 -0.761143 0.648480
vn -0.115473 -0.294921 0.948519
vn -0.115473 -0.294921 0.948519
vn -0.115473 -0.294921 0.948519
vn -0.115460 -0.294927 0.948518
vn -0.115460 -0.294927 0.948518
vn -0.115460 -0.294927 0.948518
vn 0.130330 0.263545 0.955802
vn 0.130330 0.263545 0.955802
vn 0.130330 0.263545 0.955802
vn -0.429525 0.429932 0.794145
vn -0.429525 0.429932 0.794145
vn -0.429525 0.429932 0.794145
vn -0.176668 0.098001 0.979380
vn -0.176668 0.098001 0.979379
vn -0.176668 0.098001 0.979380
vn -0.050891 0.332243 0.941820
vn -0.050891 0.332244 0.941820
vn -0.050891 0.332243 0.941820
vn 0.558108 0.085992 0.825300
vn 0.558108 0.085992 0.825301
vn 0.558108 0.085992 0.825300
vn 0.142553 0.192814 0.970825
vn 0.142553 0.192814 0.970825
vn 0.142553 0.192814 0.970825
vn -0.312282 -0.422387 0.850923
vn -0.312282 -0.422387 0.850923
vn -0.312282 -0.422387 0.850923
vn -0.038323 -0.236711 0.970824
vn -0.038323 -0.236711 0.970824
vn -0.038323 -0.236711 0.970824
vn 0.083944 0.518493 0.850951
vn 0.083944 0.518493 0.850951
vn 0.083944 0.518493 0.850951
vn -0.293197 0.249004 0.923056
vn -0.293197 0.249004 0.923056
vn -0.293197 0.249004 0.923056
vn -0.255834 0.216418 0.942185
vn -0.255834 0.216418 0.942185
vn -0.255834 0.216418 0.942185
vn 0.268478 -0.355967 0.895101
vn 0.268478 -0.355967 0.895101
vn 0.268478 -0.355967 0.895101
vn 0.286218 -0.380989 0.879163
vn 0.286218 -0.380989 0.879163
vn 0.286218 -0.380989 0.879163
vn -0.078661 -0.166380 0.982919
vn -0.078661 -0.166380 0.982919
vn -0.078661 -0.166380 0.982919
vn -0.252709 0.179314 0.950781
vn -0.252709 0.179313 0.950781
vn -0.252709 0.179314 0.950781
vn 0.327971 0.356592 0.874801
vn 0.327971 0.356592 0.874801
vn 0.327971 0.356592 0.874801
vn -0.209203 0.011834 0.977801
vn -0.209203 0.011834 0.977801
vn -0.209203 0.011834 0.977801
vn 0.248952 -0.440846 0.862368
vn 0.248952 -0.440846 0.862368
vn 0.248952 -0.440846 0.862368
s off
f 3/1/1 6/2/2 2/3/3
f 3/1/4 4/4/5 6/2/6
f 4/4/7 3/1/8 5/5/9
f 1/6/10 5/5/11 3/1/12
f 9/7/13 12/8/14 8/9/15
f 9/7/16 10/10/17 12/8/18
f 10/10/19 9/7/20 11/11/21
f 7/12/22 11/11/23 9/7/24
f 17/13/25 15/14/26 13/15/27
f 16/16/28 18/17/29 15/18/30
f 14/19/31 18/20/32 16/21/33
f 15/22/34 18/23/35 13/24/36
f 19/25/37 21/26/38 20/27/39
f 20/27/40 22/28/41 23/29/42
f 20/27/43 21/26/44 22/28/45
f 25/30/46 27/31/47 28/32/48
f 25/30/49 26/33/50 27/31/51
f 29/34/52 26/33/53 24/35/54
f 27/31/55 26/33/56 29/34/57
f 35/36/58 33/37/59 30/38/60
f 34/39/61 32/40/62 33/37/63
f 31/41/64 32/40/65 34/39/66
f 33/37/67 32/40/68 30/38/69
f 39/42/70 37/43/71 38/44/72
f 36/45/73 37/46/74 39/47/75
f 37/48/76 41/49/77 38/50/78
f 38/51/79 41/52/80 40/53/81
f 42/54/82 43/55/83 44/56/84
f 47/57/85 48/58/86 46/59/87
f 45/60/88 48/58/89 47/57/90
f 51/61/91 52/62/92 50/63/93
f 49/64/94 52/62/95 51/61/96
f 57/65/97 54/66/98 53/67/99
f 53/67/100 54/66/101 56/68/102
f 54/66/103 57/65/104 55/69/105
f 60/70/106 63/71/107 59/72/108
f 60/70/109 61/73/110 63/71/111
f 61/73/112 60/70/113 62/74/114
f 58/75/115 62/74/116 60/70/117
f 66/76/118 69/77/119 65/78/120
f 66/76/121 67/79/122 69/77/123
f 67/79/124 66/76/125 68/80/126
f 64/81/127 68/80/128 66/76/129
f 72/82/130 75/83/131 71/84/132
f 72/82/133 73/85/134 75/83/135
f 73/85/136 72/82/137 74/86/138
f 70/87/139 74/86/140 72/82/141
f 80/88/142 79/89/143 76/90/144
f 77/91/145 78/92/146 79/89/147
f 79/89/148 78/92/149 76/90/150
f 85/93/151 83/94/152 84/95/153
f 82/96/154 83/94/155 85/93/156
f 86/97/157 83/94/158 81/98/159
f 84/95/160 83/94/161 86/97/162
f 89/99/163 90/100/164 92/101/165
f 88/102/166 92/103/167 90/104/168
f 91/105/169 92/106/170 87/107/171
f 89/108/172 92/109/173 91/110/174
f 94/111/175 96/112/176 97/113/177
f 94/111/178 95/114/179 96/112/180
f 98/115/181 95/114/182 93/116/183
f 96/112/184 95/114/185 98/115/186
f 102/117/187 101/118/188 100/119/189
f 99/120/190 101/118/191 102/117/192
f 105/121/193 106/122/194 104/123/195
f 103/124/196 106/122/197 105/121/198
f 111/125/199 113/126/200 108/127/201
f 111/128/202 110/129/203 113/130/204
f 110/131/205 109/132/206 112/133/207
f 107/134/208 112/135/209 109/136/210
f 110/137/211 111/138/212 109/139/213
f 119/140/214 115/141/215 114/142/216
f 114/142/217 115/141/218 118/143/219
f 119/140/220 116/144/221 115/141/222
f 115/141/223 116/144/224 117/145/225
