# This file uses centimeters as units for non-parametric coordinates.

v 32.824402 80.183685 14.880772
v -30.139236 2.396761 18.138351
v -10.926971 97.963638 0.720367
v -23.205795 86.196152 12.006454
v -6.678696 59.658768 -38.333832
v 9.676361 6.086973 35.067806
v 1.336060 76.134193 36.530952
v 11.021881 93.948730 26.888409
v 13.466034 100.174721 3.072891
v -31.297684 37.300751 -19.459974
v -38.884354 46.263565 9.487801
v -18.813171 32.233715 30.389004
v -20.142975 65.518929 20.582943
v 38.884277 50.012009 -16.254425
v 6.477509 85.807877 -21.662275
v 12.621613 7.548866 -28.469696
v 13.119354 50.193268 -34.168701
v 19.434898 76.123360 32.803879
v -13.924026 31.599344 -40.259872
v 18.182373 1.229621 -17.911224
v 5.827408 54.772148 36.222610
v 30.814056 9.818041 13.894196
v -34.180603 3.655176 11.217213
v -13.468323 0.000000 -27.612780
v 16.448212 15.511988 38.260918
v 35.616455 13.123176 -5.008411
vt 0.441567 0.154725
vt 0.441567 0.154725
vt 0.441567 0.154725
vt 0.441567 0.154725
vt 0.441567 0.154725
vt 0.441567 0.154725
vt 0.441567 0.154725
vt 0.441567 0.154725
vt 0.441567 0.154725
vt 0.441567 0.154725
vt 0.441567 0.154725
vt 0.441567 0.154725
vt 0.441567 0.154725
vt 0.441567 0.154725
vt 0.441567 0.154725
vt 0.441567 0.154725
vt 0.441567 0.154725
vt 0.441567 0.154725
vt 0.441567 0.154725
vt 0.441567 0.154725
vt 0.441567 0.154725
vt 0.441567 0.154725
vt 0.441567 0.154725
vt 0.441567 0.154725
vt 0.441567 0.154725
vt 0.441567 0.154725
vn 0.639337 0.637085 0.430549
vn 0.639337 0.637085 0.430549
vn 0.639337 0.637085 0.430549
vn 0.076599 0.879162 0.470327
vn 0.076599 0.879162 0.470326
vn 0.076599 0.879162 0.470327
vn -0.633137 0.754038 0.174825
vn -0.633138 0.754038 0.174825
vn -0.633138 0.754038 0.174825
vn -0.643477 0.517699 0.563849
vn -0.643477 0.517698 0.563849
vn -0.643477 0.517698 0.563849
vn -0.732643 0.170891 -0.658810
vn -0.732643 0.170891 -0.658810
vn -0.732643 0.170891 -0.658810
vn -0.932841 -0.252376 -0.257126
vn -0.932841 -0.252376 -0.257126
vn -0.932841 -0.252376 -0.257126
vn -0.933837 -0.024146 -0.356883
vn -0.933837 -0.024146 -0.356883
vn -0.933837 -0.024146 -0.356883
vn -0.854349 0.411656 -0.317218
vn -0.854349 0.411656 -0.317218
vn -0.854349 0.411656 -0.317218
vn -0.359906 -0.063298 0.930839
vn -0.359906 -0.063298 0.930839
vn -0.359906 -0.063298 0.930839
vn -0.329353 -0.041499 0.943294
vn -0.329353 -0.041499 0.943294
vn -0.329353 -0.041499 0.943294
vn -0.426013 0.239970 0.872311
vn -0.426013 0.239970 0.872311
vn -0.426013 0.239970 0.872311
vn 0.531493 0.372747 -0.760641
vn 0.531493 0.372748 -0.760641
vn 0.531493 0.372748 -0.760641
vn 0.560339 -0.183194 -0.807750
vn 0.560339 -0.183194 -0.807750
vn 0.560339 -0.183194 -0.807750
vn 0.021822 -0.995102 -0.096417
vn 0.021822 -0.995102 -0.096417
vn 0.021822 -0.995102 -0.096417
vn 0.906372 0.010002 0.422362
vn 0.906372 0.010002 0.422362
vn 0.906372 0.010002 0.422362
vn 0.876984 0.111891 0.467311
vn 0.876984 0.111891 0.467311
vn 0.876984 0.111891 0.467311
vn -0.752499 -0.082644 0.653388
vn -0.752499 -0.082644 0.653388
vn -0.752499 -0.082644 0.653388
vn -0.582422 -0.319942 0.747276
vn -0.582422 -0.319942 0.747276
vn -0.582422 -0.319942 0.747276
vn -0.798739 0.424155 -0.426742
vn -0.798739 0.424155 -0.426742
vn -0.798739 0.424155 -0.426742
vn -0.705044 0.532177 -0.468722
vn -0.705044 0.532177 -0.468722
vn -0.705044 0.532177 -0.468722
vn -0.728010 0.379656 0.570844
vn -0.728010 0.379656 0.570844
vn -0.728010 0.379656 0.570844
vn -0.880577 -0.083566 0.466476
vn -0.880577 -0.083566 0.466476
vn -0.880578 -0.083566 0.466476
vn -0.639444 0.193656 0.744049
vn -0.639444 0.193656 0.744049
vn -0.639444 0.193656 0.744049
vn -0.724046 -0.008342 0.689701
vn -0.724046 -0.008342 0.689701
vn -0.724046 -0.008342 0.689701
vn 0.677095 0.536968 -0.503198
vn 0.677095 0.536968 -0.503198
vn 0.677095 0.536968 -0.503198
vn 0.294647 0.205631 -0.933220
vn 0.294647 0.205631 -0.933220
vn 0.294647 0.205631 -0.933220
vn 0.211562 0.012456 -0.977285
vn 0.211562 0.012456 -0.977285
vn 0.211562 0.012456 -0.977285
vn 0.237361 -0.027111 -0.971043
vn 0.237361 -0.027111 -0.971043
vn 0.237361 -0.027111 -0.971043
vn -0.003810 -0.390442 -0.920619
vn -0.003810 -0.390442 -0.920619
vn -0.003810 -0.390442 -0.920619
vn -0.751837 -0.123056 -0.647764
vn -0.751837 -0.123056 -0.647764
vn -0.751837 -0.123056 -0.647764
vn -0.136870 -0.104346 0.985078
vn -0.136870 -0.104346 0.985078
vn -0.136870 -0.104346 0.985078
vn -0.321384 -0.943717 0.078168
vn -0.321384 -0.943717 0.078168
vn -0.321384 -0.943717 0.078168
vn 0.208593 -0.786863 -0.580806
vn 0.208593 -0.786863 -0.580806
vn 0.208593 -0.786863 -0.580806
vn 0.600230 -0.363704 -0.712350
vn 0.600230 -0.363704 -0.712350
vn 0.600230 -0.363704 -0.712350
vn 0.492702 -0.607471 -0.623076
vn 0.492702 -0.607471 -0.623076
vn 0.492702 -0.607471 -0.623076
vn 0.605451 0.305340 0.734981
vn 0.605451 0.305340 0.734981
vn 0.605451 0.305340 0.734981
vn 0.611879 -0.610135 0.503328
vn 0.611879 -0.610135 0.503328
vn 0.611879 -0.610135 0.503328
vn 0.414611 -0.871989 0.260254
vn 0.414611 -0.871989 0.260254
vn 0.414611 -0.871989 0.260254
vn 0.100958 -0.973033 0.207400
vn 0.100958 -0.973033 0.207400
vn 0.100958 -0.973033 0.207400
vn 0.459469 -0.875776 0.148000
vn 0.459469 -0.875776 0.148000
vn 0.459469 -0.875776 0.148000
vn 0.992223 -0.053653 0.112312
vn 0.992223 -0.053653 0.112312
vn 0.992223 -0.053653 0.112312
vn 0.969937 -0.058845 0.236134
vn 0.969937 -0.058845 0.236134
vn 0.969937 -0.058845 0.236134
vn 0.240859 0.406212 0.881464
vn 0.240859 0.406212 0.881464
vn 0.240859 0.406212 0.881464
vn 0.409744 -0.007427 0.912170
vn 0.409744 -0.007427 0.912170
vn 0.409744 -0.007427 0.912170
vn 0.637758 0.496445 0.588903
vn 0.637758 0.496445 0.588903
vn 0.637758 0.496445 0.588903
vn -0.030908 0.868071 -0.495476
vn -0.030908 0.868071 -0.495476
vn -0.030908 0.868071 -0.495476
vn -0.420017 0.619589 -0.663095
vn -0.420017 0.619589 -0.663095
vn -0.420017 0.619589 -0.663095
vn 0.655433 0.536807 -0.531268
vn 0.655433 0.536807 -0.531268
vn 0.655433 0.536807 -0.531268
s off
f 8/1/1 1/2/2 9/3/3
f 8/1/4 9/3/5 3/4/6
f 8/1/7 3/4/8 4/5/9
f 7/6/10 8/1/11 4/5/12
f 19/7/13 10/8/14 5/9/15
f 10/8/16 24/10/17 23/11/18
f 11/12/19 10/8/20 23/11/21
f 10/8/22 11/12/23 4/5/24
f 2/13/25 6/14/26 12/15/27
f 6/14/28 21/16/29 12/15/30
f 12/15/31 21/16/32 13/17/33
f 14/18/34 17/19/35 15/20/36
f 14/18/37 16/21/38 17/19/39
f 24/10/40 20/22/41 2/13/42
f 22/23/43 1/2/44 25/24/45
f 1/2/46 18/25/47 25/24/48
f 7/6/49 4/5/50 13/17/51
f 13/17/52 21/16/53 7/6/54
f 4/5/55 3/4/56 5/9/57
f 10/8/58 4/5/59 5/9/60
f 4/5/61 11/12/62 13/17/63
f 11/12/64 23/11/65 2/13/66
f 13/17/67 11/12/68 12/15/69
f 11/12/70 2/13/71 12/15/72
f 14/18/73 15/20/74 9/3/75
f 15/20/76 17/19/77 5/9/78
f 5/9/79 17/19/80 19/7/81
f 19/7/82 17/19/83 16/21/84
f 19/7/85 16/21/86 24/10/87
f 19/7/88 24/10/89 10/8/90
f 6/14/91 25/24/92 21/16/93
f 2/13/94 23/11/95 24/10/96
f 24/10/97 16/21/98 20/22/99
f 26/26/100 16/21/101 14/18/102
f 20/22/103 16/21/104 26/26/105
f 25/24/106 18/25/107 21/16/108
f 25/24/109 6/14/110 22/23/111
f 6/14/112 20/22/113 22/23/114
f 6/14/115 2/13/116 20/22/117
f 22/23/118 20/22/119 26/26/120
f 26/26/121 14/18/122 1/2/123
f 22/23/124 26/26/125 1/2/126
f 7/6/127 18/25/128 8/1/129
f 7/6/130 21/16/131 18/25/132
f 8/1/133 18/25/134 1/2/135
f 9/3/136 15/20/137 3/4/138
f 5/9/139 3/4/140 15/20/141
f 14/18/142 9/3/143 1/2/144
