# This file uses centimeters as units for non-parametric coordinates.

v -0.827148 0.841702 -0.683044
v -0.827148 -29.618382 -0.683044
v 0.000000 -30.123232 -0.683044
v 0.827148 -29.618376 -0.683044
v 0.827148 0.841702 -0.683044
v 0.000000 1.346554 -0.683044
v -0.827148 0.841702 0.682983
v -0.827148 -29.618382 0.682983
v 0.000000 -30.123232 0.682983
v 0.827148 -29.618376 0.682983
v 0.827148 0.841702 0.682983
v 0.000000 1.346554 0.682983
v -2.092285 1.551620 0.682983
v -2.092285 -30.328302 0.682983
v -2.092285 1.551620 -0.683044
v -2.092285 -30.328302 -0.683044
v 0.000000 -31.605518 -0.683044
v 0.000000 -31.605518 0.682983
v 2.092285 -30.328297 -0.683044
v 2.092285 -30.328302 0.682983
v 2.092285 1.551620 0.682983
v 2.092285 1.551620 -0.683044
v 0.000000 2.828842 -0.683044
v 0.000000 2.828842 0.682983
v -1.797852 -35.566383 0.643799
v 1.797852 -35.566383 0.643799
v -1.797852 -35.571838 -0.632507
v 1.797852 -35.571838 -0.632507
v 0.000000 -37.651321 0.650391
v 0.000000 -37.656769 -0.625977
v -1.294922 -37.121132 -0.627625
v -1.294922 -37.115681 0.648621
v 1.294922 -37.115681 0.648621
v 1.294922 -37.121132 -0.627625
v 0.000000 -39.312016 -0.620728
v -2.325195 -38.686535 -0.622742
v -2.325195 -38.681004 0.653564
v 0.000000 -39.306545 0.655518
v 2.325195 -38.681004 0.653564
v 2.325195 -38.686535 -0.622742
v 0.000000 -28.214989 0.974976
v 0.000000 -37.272942 1.268982
v 2.149902 -34.996933 0.900085
v 0.000000 -28.223484 -1.009644
v 2.149902 -35.004593 -0.892212
v -2.149902 -34.996933 0.900085
v -2.149902 -35.004593 -0.892212
v 0.000000 -37.283684 -1.246887
v -2.915039 -38.640533 -0.622864
v -2.915039 -38.635082 0.653442
v -3.240723 -37.349247 0.429749
v -3.240723 -37.352821 -0.407227
v 2.915039 -38.635082 0.653442
v 2.915039 -38.640533 -0.622864
v 3.240723 -37.352821 -0.407227
v 3.240723 -37.349247 0.429749
v -3.461914 -39.457130 -0.241516
v -3.461914 -39.454884 0.277161
v -3.816406 -38.502872 0.274170
v -3.816406 -38.505054 -0.244446
v 3.461914 -39.454884 0.277161
v 3.461914 -39.457130 -0.241516
v 3.816406 -38.505054 -0.244446
v 3.816406 -38.502872 0.274170
v 0.000000 -42.850952 0.853577
v 0.000000 -42.858017 -0.796570
v 1.702637 -40.595055 -0.845886
v 1.702637 -40.587603 0.888733
v -1.702637 -40.595055 -0.845886
v -1.702637 -40.587603 0.888733
v 0.000000 -39.548546 -0.956238
v -2.360840 -39.065319 -0.767517
v -2.360840 -39.058544 0.800720
v 0.000000 -39.540215 0.992493
v 2.361328 -39.058544 0.800720
v 2.361328 -39.065319 -0.767517
v 0.000000 -29.890163 1.001221
v 0.000000 -36.295162 1.191467
v 1.582031 -34.837200 0.955078
v -1.582031 -34.837200 0.955078
v -1.994629 -38.100281 0.635193
v 0.000000 -39.082985 0.654846
v 0.000000 -37.880985 0.651062
v -1.424316 -37.444214 0.643738
v 1.424805 -37.444153 0.643738
v 1.994629 -38.100281 0.635193
v -3.096191 -37.617428 0.440125
v -2.893555 -38.248154 0.613403
v 2.893555 -38.248154 0.613403
v 3.096191 -37.617428 0.440125
v -3.468750 -38.777607 0.325562
v 3.468750 -38.777607 0.325562
v -0.997070 -40.583580 0.882263
v 0.000000 -39.886612 0.929077
v -1.250488 -39.657131 0.837769
v 1.250488 -39.657131 0.837769
v 0.997070 -40.583580 0.882263
v 0.000000 -41.859818 0.868164
vt 0.050648 0.199222
vt 0.050687 0.198390
vt 0.050731 0.198310
vt 0.050683 0.199153
vt 0.050593 0.199142
vt 0.050557 0.199210
vt 0.050504 0.199078
vt 0.050469 0.199145
vt 0.050461 0.198300
vt 0.050506 0.198222
vt 0.050619 0.198222
vt 0.050574 0.198302
vt 0.050594 0.199184
vt 0.050629 0.199115
vt 0.050662 0.198307
vt 0.050618 0.198386
vt 0.050558 0.199179
vt 0.050593 0.199111
vt 0.050523 0.199153
vt 0.050558 0.199086
vt 0.050529 0.198351
vt 0.050573 0.198272
vt 0.050573 0.198352
vt 0.050618 0.198273
vt 0.135595 0.296735
vt 0.135595 0.296735
vt 0.135595 0.296735
vt 0.122089 0.276250
vt 0.122089 0.276250
vt 0.122089 0.276250
vt 0.122089 0.276250
vt 0.121904 0.276213
vt 0.121904 0.276213
vt 0.121904 0.276213
vt 0.122089 0.276610
vt 0.122089 0.276610
vt 0.122089 0.276610
vt 0.122089 0.276610
vt 0.121904 0.276213
vt 0.121904 0.276213
vt 0.121904 0.276213
vt 0.121904 0.276213
vt 0.121904 0.276213
vt 0.121904 0.276213
vt 0.121904 0.276213
vt 0.121904 0.276213
vt 0.135595 0.296735
vt 0.122089 0.276610
vt 0.122089 0.276610
vt 0.121904 0.276213
vt 0.121904 0.276213
vt 0.122089 0.276250
vt 0.122089 0.276250
vt 0.121904 0.276213
vt 0.122089 0.276250
vt 0.121904 0.276213
vt 0.121904 0.276213
vt 0.121904 0.276213
vt 0.121904 0.276213
vt 0.135595 0.296735
vt 0.135595 0.296735
vt 0.135595 0.296735
vt 0.135595 0.296735
vt 0.135595 0.296735
vt 0.135595 0.296735
vt 0.121904 0.276213
vt 0.121904 0.276213
vt 0.121904 0.276213
vt 0.121904 0.276213
vt 0.122089 0.276610
vt 0.122089 0.276610
vt 0.122089 0.276610
vt 0.135595 0.296735
vt 0.135595 0.296735
vt 0.135595 0.296735
vt 0.135595 0.296735
vt 0.135595 0.296735
vt 0.122089 0.276610
vt 0.122089 0.276610
vt 0.122089 0.276250
vt 0.122089 0.276250
vt 0.122089 0.276250
vt 0.122089 0.276250
vt 0.122089 0.276250
vt 0.122089 0.276250
vt 0.122089 0.276250
vt 0.121904 0.276213
vt 0.121904 0.276213
vt 0.121904 0.276213
vt 0.121904 0.276213
vt 0.135595 0.296735
vt 0.135595 0.296735
vt 0.121904 0.276213
vt 0.121904 0.276213
vt 0.121904 0.276213
vt 0.121904 0.276213
vt 0.121904 0.276213
vt 0.121904 0.276213
vt 0.121904 0.276213
vt 0.121904 0.276213
vt 0.135595 0.296735
vt 0.135595 0.296735
vt 0.135595 0.296735
vt 0.135595 0.296735
vt 0.122089 0.276610
vt 0.122089 0.276610
vt 0.122089 0.276610
vt 0.122089 0.276610
vt 0.122089 0.276610
vt 0.122089 0.276610
vt 0.122089 0.276610
vt 0.135595 0.296735
vt 0.122089 0.276250
vt 0.122089 0.276250
vt 0.122089 0.276250
vt 0.122089 0.276250
vt 0.121904 0.276213
vt 0.121904 0.276213
vt 0.121904 0.276213
vt 0.121904 0.276213
vt 0.121904 0.276213
vt 0.121904 0.276213
vt 0.121904 0.276213
vt 0.122089 0.276610
vt 0.122089 0.276610
vt 0.122089 0.276610
vt 0.122089 0.276610
vt 0.122089 0.276610
vt 0.122089 0.276610
vt 0.122089 0.276610
vt 0.122089 0.276610
vt 0.122089 0.276610
vt 0.122089 0.276610
vt 0.122089 0.276610
vt 0.122089 0.276610
vt 0.122089 0.276610
vt 0.122089 0.276610
vt 0.122089 0.276610
vt 0.122089 0.276610
vt 0.121904 0.276213
vt 0.121904 0.276213
vt 0.121904 0.276213
vt 0.121904 0.276213
vt 0.121904 0.276213
vt 0.121904 0.276213
vt 0.121904 0.276213
vt 0.121904 0.276213
vt 0.121904 0.276213
vt 0.121904 0.276213
vt 0.121904 0.276213
vt 0.121904 0.276213
vt 0.121904 0.276213
vt 0.121904 0.276213
vt 0.121904 0.276213
vt 0.121904 0.276213
vt 0.121904 0.276213
vt 0.121904 0.276213
vt 0.121904 0.276213
vt 0.121904 0.276213
vt 0.121904 0.276213
vt 0.121904 0.276213
vt 0.121904 0.276213
vt 0.121904 0.276213
vt 0.121904 0.276213
vt 0.121904 0.276213
vt 0.121904 0.276213
vt 0.121904 0.276213
vt 0.121904 0.276213
vt 0.121904 0.276213
vt 0.121904 0.276213
vt 0.121904 0.276213
vt 0.121904 0.276213
vt 0.121904 0.276213
vt 0.121904 0.276213
vt 0.121904 0.276213
vt 0.121904 0.276213
vt 0.121904 0.276213
vt 0.122089 0.276610
vt 0.122089 0.276610
vt 0.122089 0.276610
vn -1.000000 0.000000 0.000000
vn -1.000000 0.000000 0.000000
vn -1.000000 0.000000 0.000000
vn -1.000000 0.000000 0.000000
vn -0.521070 -0.853514 0.000000
vn -0.521070 -0.853514 0.000000
vn -0.521070 -0.853514 0.000000
vn -0.521070 -0.853514 0.000000
vn 0.521070 -0.853514 -0.000002
vn 0.521070 -0.853514 -0.000002
vn 0.521069 -0.853514 -0.000002
vn 0.521070 -0.853514 -0.000002
vn 1.000000 0.000000 0.000000
vn 1.000000 0.000000 0.000000
vn 1.000000 0.000000 0.000000
vn 1.000000 0.000000 0.000000
vn 0.521056 0.853522 0.000000
vn 0.521056 0.853522 0.000000
vn 0.521056 0.853522 0.000000
vn 0.521056 0.853522 0.000000
vn -0.521056 0.853522 0.000000
vn -0.521056 0.853522 0.000000
vn -0.521056 0.853522 0.000000
vn -0.521056 0.853522 0.000000
vn 1.000000 0.000000 0.000000
vn 1.000000 0.000000 0.000000
vn 1.000000 0.000000 0.000000
vn 1.000000 0.000000 0.000000
vn 0.520984 0.853567 0.000000
vn 0.520984 0.853567 0.000000
vn 0.520984 0.853567 0.000000
vn 0.520984 0.853567 0.000000
vn -0.520984 0.853567 0.000000
vn -0.520984 0.853567 0.000000
vn -0.520984 0.853567 0.000000
vn -0.520984 0.853567 0.000000
vn -1.000000 0.000000 0.000000
vn -1.000000 0.000000 0.000000
vn -1.000000 0.000000 0.000000
vn -1.000000 0.000000 0.000000
vn -0.520984 -0.853567 0.000000
vn -0.520984 -0.853567 0.000000
vn -0.520984 -0.853567 0.000000
vn -0.520984 -0.853567 0.000000
vn 0.520984 -0.853567 0.000000
vn 0.520984 -0.853567 0.000000
vn 0.520984 -0.853567 0.000000
vn 0.520984 -0.853567 0.000000
vn 0.000000 0.000000 1.000000
vn 0.000000 0.000000 1.000000
vn 0.000000 0.000000 1.000000
vn 0.000000 0.000000 1.000000
vn 0.000010 0.000000 -1.000000
vn 0.000012 0.000000 -1.000000
vn 0.000012 0.000000 -1.000000
vn 0.000010 0.000000 -1.000000
vn 0.000012 0.000000 -1.000000
vn 0.000014 0.000000 -1.000000
vn 0.000014 0.000000 -1.000000
vn 0.000012 0.000000 -1.000000
vn -0.000014 0.000000 1.000000
vn 0.000000 0.000000 1.000000
vn 0.000000 0.000000 1.000000
vn -0.000014 0.000000 1.000000
vn 0.000014 0.000000 -1.000000
vn 0.000023 0.000000 -1.000000
vn 0.000023 0.000000 -1.000000
vn 0.000014 0.000000 -1.000000
vn -0.000013 0.000000 1.000000
vn -0.000014 0.000000 1.000000
vn -0.000014 0.000000 1.000000
vn -0.000013 0.000000 1.000000
vn -0.000009 0.000000 1.000000
vn -0.000013 0.000000 1.000000
vn -0.000013 0.000000 1.000000
vn -0.000009 0.000000 1.000000
vn 0.000023 0.000000 -1.000000
vn 0.000023 0.000000 -1.000000
vn 0.000023 0.000000 -1.000000
vn 0.000023 0.000000 -1.000000
vn 0.000023 0.000000 -1.000000
vn 0.000000 0.000000 -1.000000
vn 0.000000 0.000000 -1.000000
vn 0.000023 0.000000 -1.000000
vn 0.000028 0.000000 1.000000
vn -0.000009 0.000000 1.000000
vn -0.000009 0.000000 1.000000
vn 0.000028 0.000000 1.000000
vn 0.000000 0.000000 -1.000000
vn 0.000010 0.000000 -1.000000
vn 0.000010 0.000000 -1.000000
vn 0.000000 0.000000 -1.000000
vn 0.000000 0.000000 1.000000
vn 0.000028 0.000000 1.000000
vn 0.000028 0.000000 1.000000
vn 0.000000 0.000000 1.000000
vn 0.000004 0.020671 0.999786
vn 0.000005 0.047185 0.998886
vn 0.107003 0.032290 0.993734
vn -0.000023 0.999991 -0.004277
vn -0.000023 0.999991 -0.004277
vn 0.953242 0.302206 -0.001293
vn 0.953242 0.302206 -0.001293
vn 0.000000 -0.003163 -0.999995
vn 0.000000 -0.003163 -0.999995
vn 0.000000 -0.003163 -0.999995
vn 0.000019 -0.999991 0.004289
vn 0.000019 -0.999991 0.004289
vn 0.799148 -0.601128 0.002578
vn 0.799148 -0.601128 0.002578
vn 0.951185 -0.308619 0.001319
vn 0.951185 -0.308619 0.001319
vn 0.919277 -0.393608 0.001683
vn 0.919224 -0.393731 0.001684
vn -0.951134 -0.308774 0.001319
vn -0.951134 -0.308774 0.001319
vn -0.919176 -0.393843 0.001684
vn -0.919229 -0.393720 0.001683
vn -0.106997 0.032287 0.993735
vn 0.000005 0.047185 0.998886
vn 0.000004 0.020671 0.999786
vn -0.799081 -0.601217 0.002578
vn 0.000019 -0.999991 0.004289
vn 0.000019 -0.999991 0.004289
vn -0.799081 -0.601217 0.002578
vn 0.000000 -0.003163 -0.999995
vn 0.000000 -0.003163 -0.999995
vn 0.000000 -0.003163 -0.999995
vn -0.953244 0.302199 -0.001293
vn -0.000023 0.999991 -0.004277
vn -0.000023 0.999991 -0.004277
vn -0.953244 0.302199 -0.001293
vn -0.022612 0.001770 0.999743
vn -0.000000 -0.003129 0.999995
vn -0.000141 0.003081 0.999995
vn 0.000141 0.003081 0.999995
vn -0.000000 -0.003129 0.999995
vn 0.022582 0.001766 0.999743
vn -0.135888 0.025931 -0.990385
vn 0.000006 0.026174 -0.999657
vn 0.000006 0.026174 -0.999657
vn 0.135901 0.025931 -0.990383
vn 0.000006 0.026174 -0.999657
vn 0.000006 0.026174 -0.999657
vn -0.937193 -0.348807 0.001490
vn -0.937193 -0.348807 0.001490
vn -0.937193 -0.348807 0.001490
vn -0.937193 -0.348807 0.001490
vn -0.036582 0.058592 0.997612
vn 0.000000 0.011200 0.999937
vn -0.000000 -0.000951 1.000000
vn -0.038497 0.016695 0.999119
vn 0.038513 0.016710 0.999118
vn -0.000000 -0.000951 1.000000
vn 0.000000 0.011200 0.999937
vn 0.036574 0.058592 0.997612
vn 0.937167 -0.348878 0.001490
vn 0.937167 -0.348879 0.001490
vn 0.937167 -0.348878 0.001490
vn 0.937167 -0.348878 0.001490
vn -0.049863 -0.024100 -0.998465
vn -0.000001 -0.028122 -0.999605
vn 0.000000 -0.048178 -0.998839
vn -0.918494 -0.395432 0.001703
vn -0.918494 -0.395432 0.001703
vn -0.918494 -0.395432 0.001703
vn -0.918494 -0.395432 0.001703
vn -0.011239 0.001895 0.999935
vn -0.000000 -0.069450 0.997585
vn -0.050840 -0.030840 0.998231
vn 0.050796 -0.030917 0.998230
vn -0.000000 -0.069450 0.997585
vn 0.011203 0.001891 0.999935
vn 0.918441 -0.395553 0.001704
vn 0.918441 -0.395554 0.001704
vn 0.918441 -0.395553 0.001704
vn 0.918441 -0.395553 0.001704
vn 0.000000 -0.048178 -0.998839
vn -0.000001 -0.028122 -0.999605
vn 0.049862 -0.024129 -0.998465
vn 0.703826 -0.605010 0.372279
vn 0.703826 -0.605010 0.372279
vn 0.703826 -0.605010 0.372279
vn 0.703826 -0.605010 0.372279
vn 0.919224 -0.393731 0.001684
vn 0.919277 -0.393608 0.001683
vn 0.850333 -0.526240 0.002251
vn 0.850333 -0.526240 0.002251
vn -0.703785 -0.605045 0.372301
vn -0.703785 -0.605045 0.372301
vn -0.703785 -0.605045 0.372301
vn -0.703785 -0.605045 0.372301
vn -0.919229 -0.393720 0.001683
vn -0.919176 -0.393843 0.001684
vn -0.850280 -0.526326 0.002251
vn -0.850280 -0.526326 0.002251
vn -0.704117 -0.607692 -0.367328
vn -0.704117 -0.607692 -0.367328
vn -0.704117 -0.607692 -0.367328
vn -0.704117 -0.607692 -0.367328
vn 0.704177 -0.607597 -0.367370
vn 0.704177 -0.607597 -0.367370
vn 0.704177 -0.607597 -0.367370
vn 0.704177 -0.607597 -0.367370
vn -0.077662 -0.996971 0.004288
vn -0.077662 -0.996970 0.004288
vn 0.407481 -0.913205 0.003925
vn 0.407818 -0.913055 0.003924
vn -0.036582 0.058592 0.997612
vn -0.038497 0.016695 0.999119
vn -0.152900 0.044652 0.987232
vn -0.205043 0.107706 0.972809
vn -0.118709 0.992920 -0.004241
vn -0.118709 0.992920 -0.004241
vn -0.358639 0.933468 -0.003984
vn -0.358356 0.933577 -0.003984
vn -0.093126 0.096115 -0.991004
vn -0.093126 0.096115 -0.991004
vn -0.215254 0.045651 -0.975491
vn -0.165825 0.066364 -0.983920
vn 0.077692 -0.996968 0.004290
vn 0.077692 -0.996968 0.004290
vn -0.407698 -0.913108 0.003924
vn -0.407362 -0.913258 0.003925
vn 0.093101 0.096127 -0.991005
vn 0.093101 0.096127 -0.991006
vn 0.165805 0.066415 -0.983920
vn 0.215238 0.045730 -0.975490
vn 0.118702 0.992921 -0.004241
vn 0.118702 0.992921 -0.004241
vn 0.358307 0.933595 -0.003984
vn 0.358591 0.933487 -0.003984
vn 0.038513 0.016710 0.999118
vn 0.036574 0.058592 0.997612
vn 0.205062 0.107733 0.972802
vn 0.152958 0.044651 0.987224
vn 0.407818 -0.913055 0.003924
vn 0.407481 -0.913205 0.003925
vn 0.831495 -0.555528 0.002384
vn 0.831495 -0.555528 0.002384
vn -0.205043 0.107706 0.972809
vn -0.152900 0.044652 0.987232
vn -0.365057 -0.017899 0.930813
vn -0.358356 0.933577 -0.003984
vn -0.358639 0.933468 -0.003984
vn -0.894663 0.446738 -0.001897
vn -0.894663 0.446738 -0.001897
vn -0.165825 0.066364 -0.983920
vn -0.215254 0.045651 -0.975491
vn -0.390944 -0.031413 -0.919878
vn -0.390944 -0.031413 -0.919878
vn -0.407362 -0.913258 0.003925
vn -0.407698 -0.913108 0.003924
vn -0.831303 -0.555814 0.002383
vn -0.831303 -0.555814 0.002383
vn 0.215238 0.045730 -0.975490
vn 0.165805 0.066415 -0.983920
vn 0.390946 -0.031238 -0.919883
vn 0.390946 -0.031238 -0.919883
vn 0.358591 0.933487 -0.003984
vn 0.358307 0.933595 -0.003984
vn 0.894663 0.446738 -0.001897
vn 0.894663 0.446738 -0.001897
vn 0.152958 0.044651 0.987224
vn 0.205062 0.107733 0.972802
vn 0.365078 -0.017819 0.930806
vn 0.112328 0.607361 -0.786444
vn 0.000000 0.611175 -0.791496
vn -0.000001 0.611175 -0.791496
vn 0.112328 0.607361 -0.786444
vn -0.995530 0.094447 -0.000406
vn -0.995530 0.094447 -0.000406
vn -0.995530 0.094447 -0.000406
vn -0.995530 0.094447 -0.000406
vn -0.000002 0.366449 0.930438
vn 0.043520 0.277190 0.959829
vn 0.112478 0.612816 0.782180
vn -0.000005 0.616777 0.787138
vn -0.043544 0.277403 0.959766
vn -0.000002 0.366449 0.930438
vn -0.000005 0.616777 0.787138
vn -0.112452 0.612912 0.782109
vn 0.995434 0.095454 -0.000411
vn 0.995434 0.095454 -0.000411
vn 0.995434 0.095454 -0.000411
vn 0.995434 0.095454 -0.000411
vn 0.000000 0.611175 -0.791496
vn -0.112308 0.607253 -0.786531
vn -0.112308 0.607253 -0.786531
vn -0.000001 0.611175 -0.791496
vn -0.011239 0.001895 0.999935
vn -0.000017 -0.014285 0.999898
vn -0.000000 -0.069450 0.997585
vn 0.011203 0.001891 0.999935
vn -0.000000 -0.069450 0.997585
vn -0.000017 -0.014285 0.999898
vn -0.075899 0.018439 -0.996945
vn -0.000001 -0.028122 -0.999605
vn -0.049863 -0.024100 -0.998465
vn 0.049862 -0.024129 -0.998465
vn -0.000001 -0.028122 -0.999605
vn 0.075888 0.018362 -0.996947
vn 0.000010 0.067011 0.997752
vn 0.092714 0.036210 0.995034
vn 0.107003 0.032290 0.993734
vn 0.000005 0.047185 0.998886
vn 0.092714 0.036210 0.995034
vn 0.000005 0.019035 0.999819
vn 0.000004 0.020671 0.999786
vn 0.107003 0.032290 0.993734
vn -0.092701 0.036212 0.995035
vn 0.000010 0.067011 0.997752
vn 0.000005 0.047185 0.998886
vn -0.106997 0.032287 0.993735
vn 0.000005 0.019035 0.999819
vn -0.092701 0.036212 0.995035
vn -0.106997 0.032287 0.993735
vn 0.000004 0.020671 0.999786
vn 0.043520 0.277190 0.959829
vn -0.000002 0.366449 0.930438
vn 0.000000 0.011200 0.999937
vn -0.036582 0.058592 0.997612
vn -0.000000 -0.003129 0.999995
vn -0.022612 0.001770 0.999743
vn -0.038497 0.016695 0.999119
vn -0.000000 -0.000951 1.000000
vn 0.022582 0.001766 0.999743
vn -0.000000 -0.003129 0.999995
vn -0.000000 -0.000951 1.000000
vn 0.038513 0.016710 0.999118
vn -0.000002 0.366449 0.930438
vn -0.043544 0.277403 0.959766
vn 0.036574 0.058592 0.997612
vn 0.000000 0.011200 0.999937
vn -0.022612 0.001770 0.999743
vn -0.138145 -0.013294 0.990323
vn -0.152900 0.044652 0.987232
vn -0.038497 0.016695 0.999119
vn -0.322599 0.028060 0.946120
vn 0.043520 0.277190 0.959829
vn -0.036582 0.058592 0.997612
vn -0.205043 0.107706 0.972809
vn -0.043544 0.277403 0.959766
vn 0.322560 0.028197 0.946129
vn 0.205062 0.107733 0.972802
vn 0.036574 0.058592 0.997612
vn 0.138209 -0.013317 0.990314
vn 0.022582 0.001766 0.999743
vn 0.038513 0.016710 0.999118
vn 0.152958 0.044651 0.987224
vn -0.138145 -0.013294 0.990323
vn -0.174590 -0.046545 0.983541
vn -0.365057 -0.017899 0.930813
vn -0.152900 0.044652 0.987232
vn -0.174590 -0.046545 0.983541
vn -0.463704 -0.011472 0.885916
vn -0.365057 -0.017899 0.930813
vn -0.463704 -0.011472 0.885916
vn -0.322599 0.028060 0.946120
vn -0.205043 0.107706 0.972809
vn -0.365057 -0.017899 0.930813
vn 0.322560 0.028197 0.946129
vn 0.463649 -0.011282 0.885947
vn 0.365078 -0.017819 0.930806
vn 0.205062 0.107733 0.972802
vn 0.463649 -0.011282 0.885947
vn 0.174719 -0.046586 0.983516
vn 0.365078 -0.017819 0.930806
vn 0.174719 -0.046586 0.983516
vn 0.138209 -0.013317 0.990314
vn 0.152958 0.044651 0.987224
vn 0.365078 -0.017819 0.930806
vn -0.000002 -0.154218 0.988037
vn -0.024378 0.006165 0.999684
vn -0.050840 -0.030840 0.998231
vn -0.000000 -0.069450 0.997585
vn -0.024378 0.006165 0.999684
vn 0.002003 0.029201 0.999572
vn -0.011239 0.001895 0.999935
vn -0.050840 -0.030840 0.998231
vn 0.024301 0.006124 0.999686
vn -0.000002 -0.154218 0.988037
vn -0.000000 -0.069450 0.997585
vn 0.050796 -0.030917 0.998230
vn -0.002071 0.029188 0.999572
vn 0.024301 0.006124 0.999686
vn 0.050796 -0.030917 0.998230
vn 0.011203 0.001891 0.999935
vn 0.002003 0.029201 0.999572
vn -0.000020 -0.010916 0.999940
vn -0.000017 -0.014285 0.999898
vn -0.011239 0.001895 0.999935
vn -0.000020 -0.010916 0.999940
vn -0.002071 0.029188 0.999572
vn 0.011203 0.001891 0.999935
vn -0.000017 -0.014285 0.999898
vn 0.000028 -0.003147 -0.999995
vn 0.000028 -0.003147 -0.999995
vn 0.000009 -0.003147 -0.999995
vn 0.000009 -0.003147 -0.999995
vn 0.000009 -0.003147 -0.999995
vn 0.000009 -0.003147 -0.999995
vn -0.000009 -0.003147 -0.999995
vn -0.000009 -0.003147 -0.999995
s off
f 14/1/1 13/2/2 15/3/3 16/4/4
f 16/4/5 17/5/6 18/6/7 14/1/8
f 17/5/9 19/7/10 20/8/11 18/6/12
f 21/9/13 20/8/14 19/7/15 22/10/16
f 22/10/17 23/11/18 24/12/19 21/9/20
f 23/11/21 15/3/22 13/2/23 24/12/24
f 8/13/25 2/14/26 1/15/27 7/16/28
f 2/14/29 8/13/30 9/17/31 3/18/32
f 3/18/33 9/17/34 10/19/35 4/20/36
f 11/21/37 5/22/38 4/20/39 10/19/40
f 5/22/41 11/21/42 12/23/43 6/24/44
f 6/24/45 12/23/46 7/16/47 1/15/48
f 8/13/49 7/16/50 13/2/51 14/1/52
f 1/15/53 2/14/54 16/4/55 15/3/56
f 2/14/57 3/18/58 17/5/59 16/4/60
f 9/17/61 8/13/62 14/1/63 18/6/64
f 3/18/65 4/20/66 19/7/67 17/5/68
f 10/19/69 9/17/70 18/6/71 20/8/72
f 11/21/73 10/19/74 20/8/75 21/9/76
f 4/20/77 5/22/78 22/10/79 19/7/80
f 5/22/81 6/24/82 23/11/83 22/10/84
f 12/23/85 11/21/86 21/9/87 24/12/88
f 6/24/89 1/15/90 15/3/91 23/11/92
f 7/16/93 12/23/94 24/12/95 13/2/96
f 77/25/97 78/26/98 79/27/99
f 44/28/100 41/29/101 43/30/102 45/31/103
f 34/32/104 30/33/105 28/34/106
f 65/35/107 66/36/108 67/37/109 68/38/110
f 33/39/111 34/40/112 28/41/113 26/42/114
f 31/43/115 32/44/116 25/45/117 27/46/118
f 80/47/119 78/26/120 77/25/121
f 69/48/122 66/36/123 65/35/124 70/49/125
f 27/50/126 30/33/127 31/51/128
f 46/52/129 41/29/130 44/28/131 47/53/132
f 32/44/133 29/54/134 25/45/135
f 26/42/136 29/54/137 33/39/138
f 47/53/139 44/28/140 48/55/141
f 45/31/142 48/55/143 44/28/144
f 57/56/145 58/57/146 59/58/147 60/59/148
f 81/60/149 82/61/150 83/62/151 84/63/152
f 85/64/153 83/62/154 82/61/155 86/65/156
f 61/66/157 62/67/158 63/68/159 64/69/160
f 69/48/161 71/70/162 66/36/163
f 69/48/164 70/49/165 73/71/166 72/72/167
f 93/73/168 94/74/169 95/75/170
f 96/76/171 94/74/172 97/77/173
f 68/38/174 67/37/175 76/78/176 75/79/177
f 66/36/178 71/70/179 67/37/180
f 29/80/181 26/81/182 43/30/183 42/82/184
f 26/81/185 28/83/186 45/31/187 43/30/188
f 25/84/189 29/80/190 42/82/191 46/52/192
f 27/85/193 25/84/194 46/52/195 47/53/196
f 30/86/197 27/85/198 47/53/199 48/55/200
f 28/83/201 30/86/202 48/55/203 45/31/204
f 36/87/205 37/88/206 50/89/207 49/90/208
f 81/60/209 84/63/210 87/91/211 88/92/212
f 32/44/213 31/43/214 52/93/215 51/94/216
f 31/43/217 36/87/218 49/90/219 52/93/220
f 39/95/221 40/96/222 54/97/223 53/98/224
f 40/96/225 34/40/226 55/99/227 54/97/228
f 34/40/229 33/39/230 56/100/231 55/99/232
f 85/64/233 86/65/234 89/101/235 90/102/236
f 49/90/237 50/89/238 58/57/239 57/56/240
f 88/92/241 87/91/242 91/103/243
f 51/94/244 52/93/245 60/59/246 59/58/247
f 52/93/248 49/90/249 57/56/250 60/59/251
f 53/98/252 54/97/253 62/67/254 61/66/255
f 54/97/256 55/99/257 63/68/258 62/67/259
f 55/99/260 56/100/261 64/69/262 63/68/263
f 90/102/264 89/101/265 92/104/266
f 36/105/267 35/106/268 71/70/269 72/72/270
f 37/107/271 36/105/272 72/72/273 73/71/274
f 38/108/275 37/107/276 73/71/277 74/109/278
f 39/110/279 38/108/280 74/109/281 75/79/282
f 40/111/283 39/110/284 75/79/285 76/78/286
f 35/106/287 40/111/288 76/78/289 71/70/290
f 93/73/291 98/112/292 94/74/293
f 97/77/294 94/74/295 98/112/296
f 72/72/297 71/70/298 69/48/299
f 67/37/300 71/70/301 76/78/302
f 42/82/303 43/30/304 79/113/305 78/114/306
f 43/30/307 41/29/308 77/115/309 79/113/310
f 46/52/311 42/82/312 78/114/313 80/116/314
f 41/29/315 46/52/316 80/116/317 77/115/318
f 37/88/319 38/117/320 82/118/321 81/119/322
f 29/54/323 32/44/324 84/120/325 83/121/326
f 33/39/327 29/54/328 83/121/329 85/122/330
f 38/117/331 39/95/332 86/123/333 82/118/334
f 32/124/335 51/125/336 87/126/337 84/127/338
f 50/128/339 37/129/340 81/130/341 88/131/342
f 39/132/343 53/133/344 89/134/345 86/135/346
f 56/136/347 33/137/348 85/138/349 90/139/350
f 51/140/351 59/141/352 91/142/353 87/143/354
f 59/144/355 58/145/356 91/146/357
f 58/147/358 50/148/359 88/149/360 91/150/361
f 53/151/362 61/152/363 92/153/364 89/154/365
f 61/155/366 64/156/367 92/157/368
f 64/158/369 56/159/370 90/160/371 92/161/372
f 74/162/373 73/163/374 95/164/375 94/165/376
f 73/166/377 70/167/378 93/168/379 95/169/380
f 75/170/381 74/171/382 94/172/383 96/173/384
f 68/174/385 75/175/386 96/176/387 97/177/388
f 70/49/389 65/35/390 98/178/391 93/179/392
f 65/35/393 68/38/394 97/180/395 98/178/396
f 36/87/397 31/51/398 30/33/399 35/106/400
f 35/106/401 30/33/402 34/40/403 40/111/404
