# This file uses centimeters as units for non-parametric coordinates.

v 7.283051 0.000000 -5.291443
v 2.781891 0.000000 -8.561768
v -2.781891 0.000000 -8.561768
v -7.283051 0.000000 -5.291443
v -9.002350 0.000000 0.000000
v -7.283051 0.000000 5.291443
v -2.781891 0.000000 8.561768
v 2.781891 0.000000 8.561768
v 7.283051 0.000000 5.291443
v 9.002350 0.000000 0.000000
v 4.053314 3.808417 -11.779598
v -4.053314 3.808417 -12.474854
v -10.611725 3.808417 -7.709869
v -9.998296 3.808417 7.709869
v -4.053314 3.808417 12.474854
v 4.053314 3.808417 12.474854
v 11.003206 3.808417 6.505017
v 13.116821 3.808417 0.000000
v 0.000000 0.000000 0.000000
v 9.415253 1.617691 -6.840576
v 11.637878 1.617691 0.000000
v 9.415253 1.617691 6.840576
v 3.596313 1.617691 11.068298
v -3.596313 1.617691 11.068298
v -9.415253 1.617691 6.840576
v -11.637878 1.617691 0.000000
v -9.415253 1.617691 -6.840576
v -3.596313 1.617691 -11.068298
v 3.596313 1.617691 -11.068298
v 8.658264 3.808417 -6.290588
v 3.307159 3.808417 -10.178406
v -3.307159 3.808417 -10.178406
v -8.658264 3.808417 -6.290588
v -10.702209 3.808417 0.000000
v -8.658264 3.808417 6.290588
v -3.307159 3.808417 10.178406
v 3.307159 3.808417 10.178406
v 8.658264 3.808417 6.290588
v 10.702209 3.808417 0.000000
v 7.553070 2.751471 -5.487640
v 2.885010 2.751471 -8.879150
v -2.885010 2.751471 -8.879150
v -7.553070 2.751471 -5.487610
v -9.336090 2.751471 0.000000
v -7.553070 2.751471 5.487640
v -2.885010 2.751471 8.879150
v 2.885010 2.751471 8.879150
v 7.553070 2.751471 5.487610
v 9.336090 2.751471 0.000000
v 4.444214 1.820441 -3.228912
v 1.697540 1.820441 -5.224487
v -1.697540 1.820441 -5.224487
v -4.444214 1.820441 -3.228912
v -5.493347 1.820441 0.000000
v -4.444214 1.820441 3.228912
v -1.697540 1.820441 5.224487
v 1.697540 1.820441 5.224487
v 4.444214 1.820441 3.228912
v 5.493347 1.820441 0.000000
v 0.000000 1.820441 0.000000
v -12.053114 3.808417 -3.273743
v -12.490547 3.808417 1.927467
v -12.747086 3.260735 0.000000
v -11.874438 3.808417 0.000000
v 4.746958 3.808417 11.970889
v 7.403134 3.808417 9.008821
v 7.900860 3.139423 9.148515
v 7.660440 3.808417 -9.854113
v 11.739018 3.808417 -4.240428
v 10.073313 2.822590 -7.318687
v 9.805363 3.808417 -6.606449
vt 0.048362 0.221625
vt 0.048518 0.221729
vt 0.048603 0.221655
vt 0.048399 0.221523
vt 0.048575 0.221892
vt 0.048682 0.221865
vt 0.048500 0.222056
vt 0.048588 0.222083
vt 0.048312 0.222153
vt 0.048338 0.222214
vt 0.048088 0.222135
vt 0.048040 0.222189
vt 0.047929 0.222010
vt 0.047830 0.222022
vt 0.047895 0.221839
vt 0.047791 0.221796
vt 0.047987 0.221689
vt 0.047915 0.221604
vt 0.048163 0.221610
vt 0.048143 0.221505
vt 0.048233 0.221865
vt 0.048137 0.221353
vt 0.047891 0.221455
vt 0.047756 0.221656
vt 0.047797 0.221892
vt 0.048023 0.222068
vt 0.048618 0.221957
vt 0.048718 0.221728
vt 0.048631 0.221509
vt 0.048595 0.221525
vt 0.048395 0.221400
vt 0.048673 0.221724
vt 0.048580 0.221931
vt 0.048336 0.222054
vt 0.048044 0.222030
vt 0.047839 0.221872
vt 0.047800 0.221659
vt 0.047921 0.221477
vt 0.048145 0.221383
vt 0.048602 0.221574
vt 0.048398 0.221445
vt 0.048681 0.221779
vt 0.048586 0.221992
vt 0.048338 0.222119
vt 0.048041 0.222095
vt 0.047832 0.221932
vt 0.047792 0.221712
vt 0.047916 0.221524
vt 0.048143 0.221427
vt 0.048523 0.221688
vt 0.048364 0.221584
vt 0.048582 0.221853
vt 0.048505 0.222020
vt 0.048313 0.222118
vt 0.048085 0.222099
vt 0.047923 0.221973
vt 0.047888 0.221800
vt 0.047983 0.221648
vt 0.048162 0.221569
vt 0.048233 0.221812
vt 0.048483 0.222026
vt 0.048185 0.222081
vt 0.048343 0.222154
vt 0.048342 0.222074
vt 0.047770 0.221635
vt 0.047866 0.221509
vt 0.047861 0.221533
vt 0.048521 0.221440
vt 0.048274 0.221363
vt 0.048405 0.221448
vt 0.048403 0.221386
vn 0.318735 -0.840210 -0.438697
vn 0.318735 -0.840210 -0.438697
vn 0.318735 -0.840210 -0.438697
vn 0.318735 -0.840210 -0.438697
vn 0.000000 -0.840209 -0.542263
vn 0.000000 -0.840209 -0.542263
vn 0.000000 -0.840209 -0.542263
vn 0.000000 -0.840209 -0.542263
vn -0.318735 -0.840210 -0.438697
vn -0.318735 -0.840210 -0.438697
vn -0.318735 -0.840210 -0.438697
vn -0.318735 -0.840210 -0.438697
vn -0.515720 -0.840210 -0.167567
vn -0.515720 -0.840210 -0.167567
vn -0.515720 -0.840210 -0.167567
vn -0.515720 -0.840210 -0.167567
vn -0.515720 -0.840210 0.167567
vn -0.515720 -0.840210 0.167567
vn -0.515720 -0.840210 0.167567
vn -0.515720 -0.840210 0.167567
vn -0.318735 -0.840210 0.438697
vn -0.318735 -0.840210 0.438697
vn -0.318735 -0.840210 0.438697
vn -0.318735 -0.840210 0.438697
vn 0.000000 -0.840209 0.542263
vn 0.000000 -0.840209 0.542263
vn 0.000000 -0.840209 0.542263
vn 0.000000 -0.840209 0.542263
vn 0.318735 -0.840210 0.438697
vn 0.318735 -0.840210 0.438697
vn 0.318735 -0.840210 0.438697
vn 0.318735 -0.840210 0.438697
vn 0.515720 -0.840210 0.167567
vn 0.515720 -0.840210 0.167567
vn 0.515720 -0.840210 0.167567
vn 0.515720 -0.840210 0.167567
vn 0.515720 -0.840210 -0.167567
vn 0.515720 -0.840210 -0.167567
vn 0.515720 -0.840210 -0.167567
vn 0.515720 -0.840210 -0.167567
vn 0.000000 -1.000000 0.000000
vn 0.000000 -1.000000 0.000000
vn 0.000000 -1.000000 0.000000
vn 0.000000 -1.000000 0.000000
vn 0.000000 -1.000000 0.000000
vn 0.000000 -1.000000 0.000000
vn 0.000000 -1.000000 0.000000
vn 0.000000 -1.000000 0.000000
vn 0.000000 -1.000000 0.000000
vn 0.000000 -1.000000 0.000000
vn 0.000000 -1.000000 0.000000
vn 0.000000 -1.000000 0.000000
vn 0.000000 -1.000000 0.000000
vn 0.000000 -1.000000 0.000000
vn 0.000000 -1.000000 0.000000
vn 0.000000 -1.000000 0.000000
vn 0.000000 -1.000000 0.000000
vn 0.000000 -1.000000 0.000000
vn 0.000000 -1.000000 0.000000
vn 0.000000 -1.000000 0.000000
vn 0.000000 -1.000000 0.000000
vn 0.000000 -1.000000 0.000000
vn 0.000000 -1.000000 0.000000
vn 0.000000 -1.000000 0.000000
vn 0.000000 -1.000000 0.000000
vn 0.000000 -1.000000 0.000000
vn 0.000000 -1.000000 0.000000
vn 0.000000 -1.000000 0.000000
vn 0.000000 -1.000000 0.000000
vn 0.000000 -1.000000 0.000000
vn 0.800303 -0.540275 0.260034
vn 0.800303 -0.540275 0.260034
vn 0.800303 -0.540275 0.260034
vn 0.800303 -0.540275 0.260034
vn 0.494616 -0.540274 0.680778
vn 0.494616 -0.540274 0.680778
vn 0.494616 -0.540274 0.680778
vn 0.494616 -0.540274 0.680778
vn 0.000000 -0.540277 0.841487
vn 0.000000 -0.540277 0.841487
vn 0.000000 -0.540277 0.841487
vn 0.000000 -0.540277 0.841487
vn -0.494616 -0.540274 0.680778
vn -0.494616 -0.540274 0.680778
vn -0.494616 -0.540274 0.680778
vn -0.494616 -0.540274 0.680778
vn -0.494616 -0.540274 -0.680778
vn -0.494616 -0.540274 -0.680778
vn -0.494616 -0.540274 -0.680778
vn -0.494616 -0.540274 -0.680778
vn 0.000000 -0.540277 -0.841487
vn 0.000000 -0.540277 -0.841487
vn 0.000000 -0.540277 -0.841487
vn 0.000000 -0.540277 -0.841487
vn 0.000000 1.000000 0.000000
vn 0.000000 1.000000 0.000000
vn 0.000000 1.000000 0.000000
vn 0.000000 1.000000 0.000000
vn 0.000000 1.000000 -0.000000
vn 0.000000 1.000000 -0.000000
vn 0.000000 1.000000 -0.000000
vn 0.000000 1.000000 -0.000000
vn -0.531057 0.846159 -0.044663
vn -0.531057 0.846159 -0.044663
vn -0.531057 0.846159 -0.044663
vn -0.531057 0.846159 -0.044663
vn 0.000000 1.000000 0.000000
vn 0.000000 1.000000 0.000000
vn 0.000000 1.000000 0.000000
vn 0.000000 1.000000 0.000000
vn 0.000000 1.000000 -0.000000
vn 0.000000 1.000000 -0.000000
vn 0.000000 1.000000 -0.000000
vn 0.000000 1.000000 -0.000000
vn -0.000000 1.000000 0.000000
vn -0.000000 1.000000 0.000000
vn -0.000000 1.000000 0.000000
vn -0.000000 1.000000 0.000000
vn 0.000000 1.000000 0.000000
vn 0.000000 1.000000 0.000000
vn 0.000000 1.000000 0.000000
vn 0.000000 1.000000 0.000000
vn 0.426431 0.768589 -0.476894
vn 0.426431 0.768589 -0.476894
vn 0.426431 0.768589 -0.476894
vn -0.370931 0.775729 0.510544
vn -0.370931 0.775729 0.510544
vn -0.370931 0.775729 0.510544
vn -0.370931 0.775729 0.510544
vn 0.000000 0.775734 0.631061
vn 0.000000 0.775734 0.631061
vn 0.000000 0.775734 0.631061
vn 0.000000 0.775734 0.631061
vn 0.370930 0.775732 0.510541
vn 0.370930 0.775732 0.510541
vn 0.370930 0.775732 0.510541
vn 0.370930 0.775732 0.510541
vn 0.600177 0.775732 0.195009
vn 0.600177 0.775732 0.195009
vn 0.600177 0.775732 0.195009
vn 0.600177 0.775732 0.195009
vn 0.600178 0.775730 -0.195009
vn 0.600178 0.775730 -0.195009
vn 0.600178 0.775730 -0.195009
vn 0.600178 0.775730 -0.195009
vn 0.370931 0.775729 -0.510544
vn 0.370931 0.775729 -0.510544
vn 0.370931 0.775729 -0.510544
vn 0.370931 0.775729 -0.510544
vn 0.000000 0.775734 -0.631061
vn 0.000000 0.775734 -0.631061
vn 0.000000 0.775734 -0.631061
vn 0.000000 0.775734 -0.631061
vn -0.370930 0.775732 -0.510541
vn -0.370930 0.775732 -0.510541
vn -0.370930 0.775732 -0.510541
vn -0.370930 0.775732 -0.510541
vn -0.600177 0.775732 -0.195009
vn -0.600177 0.775732 -0.195009
vn -0.600177 0.775732 -0.195009
vn -0.600177 0.775732 -0.195009
vn -0.600178 0.775730 0.195009
vn -0.600178 0.775730 0.195009
vn -0.600178 0.775730 0.195009
vn -0.600178 0.775730 0.195009
vn -0.145103 0.969050 0.199719
vn -0.145103 0.969050 0.199719
vn -0.145103 0.969050 0.199719
vn -0.145103 0.969050 0.199719
vn 0.000000 0.969050 0.246867
vn 0.000000 0.969050 0.246867
vn 0.000000 0.969050 0.246867
vn 0.000000 0.969050 0.246867
vn 0.145104 0.969050 0.199719
vn 0.145104 0.969050 0.199719
vn 0.145104 0.969050 0.199719
vn 0.145104 0.969050 0.199719
vn 0.234784 0.969050 0.076285
vn 0.234784 0.969050 0.076285
vn 0.234784 0.969050 0.076285
vn 0.234784 0.969050 0.076285
vn 0.234784 0.969050 -0.076285
vn 0.234784 0.969050 -0.076285
vn 0.234784 0.969050 -0.076285
vn 0.234784 0.969050 -0.076285
vn 0.145103 0.969050 -0.199719
vn 0.145103 0.969050 -0.199719
vn 0.145103 0.969050 -0.199719
vn 0.145103 0.969050 -0.199719
vn 0.000000 0.969050 -0.246867
vn 0.000000 0.969050 -0.246867
vn 0.000000 0.969050 -0.246867
vn 0.000000 0.969050 -0.246867
vn -0.145104 0.969050 -0.199719
vn -0.145104 0.969050 -0.199719
vn -0.145104 0.969050 -0.199719
vn -0.145104 0.969050 -0.199719
vn -0.234784 0.969050 -0.076285
vn -0.234784 0.969050 -0.076285
vn -0.234784 0.969050 -0.076285
vn -0.234784 0.969050 -0.076285
vn -0.234784 0.969050 0.076285
vn -0.234784 0.969050 0.076285
vn -0.234784 0.969050 0.076285
vn -0.234784 0.969050 0.076285
vn 0.000000 1.000000 0.000000
vn 0.000000 1.000000 0.000000
vn 0.000000 1.000000 0.000000
vn 0.000000 1.000000 -0.000000
vn 0.000000 1.000000 -0.000000
vn 0.000000 1.000000 -0.000000
vn -0.000000 1.000000 0.000000
vn -0.000000 1.000000 0.000000
vn -0.000000 1.000000 0.000000
vn -0.000000 1.000000 -0.000000
vn -0.000000 1.000000 -0.000000
vn -0.000000 1.000000 -0.000000
vn -0.000000 1.000000 0.000000
vn -0.000000 1.000000 0.000000
vn -0.000000 1.000000 0.000000
vn -0.000000 1.000000 0.000000
vn -0.000000 1.000000 0.000000
vn -0.000000 1.000000 0.000000
vn 0.000000 1.000000 0.000000
vn 0.000000 1.000000 0.000000
vn 0.000000 1.000000 0.000000
vn 0.000000 1.000000 0.000000
vn 0.000000 1.000000 0.000000
vn 0.000000 1.000000 0.000000
vn 0.000000 1.000000 0.000000
vn 0.000000 1.000000 0.000000
vn 0.000000 1.000000 0.000000
vn 0.000000 1.000000 -0.000000
vn 0.000000 1.000000 -0.000000
vn 0.000000 1.000000 -0.000000
vn -0.800303 -0.540275 0.260034
vn -0.800303 -0.540275 0.260034
vn -0.800303 -0.540275 0.260034
vn -0.800303 -0.540275 0.260034
vn -0.800303 -0.540275 0.260034
vn 0.000000 1.000000 0.000000
vn 0.000000 1.000000 0.000000
vn 0.000000 1.000000 0.000000
vn 0.000000 1.000000 0.000000
vn 0.000000 1.000000 0.000000
vn 0.000000 1.000000 0.000000
vn 0.000000 1.000000 0.000000
vn 0.000000 1.000000 0.000000
vn 0.000000 1.000000 0.000000
vn 0.000000 1.000000 0.000000
vn -0.800303 -0.540275 -0.260034
vn -0.800303 -0.540275 -0.260034
vn -0.800303 -0.540275 -0.260034
vn -0.800303 -0.540275 -0.260034
vn -0.800303 -0.540275 -0.260034
vn 0.339254 0.427386 0.838003
vn 0.339254 0.427386 0.838003
vn 0.339254 0.427386 0.838003
vn 0.611838 0.569766 0.548654
vn 0.611838 0.569766 0.548654
vn 0.611838 0.569766 0.548654
vn -0.000000 1.000000 0.000000
vn -0.000000 1.000000 0.000000
vn -0.000000 1.000000 0.000000
vn -0.000000 1.000000 0.000000
vn 0.494617 -0.540274 0.680778
vn 0.494617 -0.540274 0.680778
vn 0.494617 -0.540274 0.680778
vn 0.494617 -0.540274 0.680778
vn 0.494616 -0.540274 -0.680778
vn 0.494616 -0.540274 -0.680778
vn 0.494616 -0.540274 -0.680778
vn 0.494616 -0.540274 -0.680778
vn 0.494616 -0.540274 -0.680778
vn 0.000000 1.000000 -0.000000
vn 0.000000 1.000000 -0.000000
vn 0.000000 1.000000 -0.000000
vn 0.000000 1.000000 -0.000000
vn 0.000000 1.000000 -0.000000
vn 0.000000 1.000000 -0.000000
vn 0.000000 1.000000 -0.000000
vn 0.000000 1.000000 -0.000000
vn 0.000000 1.000000 -0.000000
vn 0.000000 1.000000 -0.000000
vn 0.800303 -0.540275 -0.260034
vn 0.800303 -0.540275 -0.260034
vn 0.800303 -0.540275 -0.260034
vn 0.800303 -0.540275 -0.260034
vn 0.800303 -0.540275 -0.260034
vn 0.585328 0.768588 -0.258192
vn 0.585328 0.768588 -0.258192
vn 0.585328 0.768588 -0.258192
s off
f 1/1/1 2/2/2 29/3/3 20/4/4
f 2/2/5 3/5/6 28/6/7 29/3/8
f 3/5/9 4/7/10 27/8/11 28/6/12
f 4/7/13 5/9/14 26/10/15 27/8/16
f 5/9/17 6/11/18 25/12/19 26/10/20
f 6/11/21 7/13/22 24/14/23 25/12/24
f 7/13/25 8/15/26 23/16/27 24/14/28
f 8/15/29 9/17/30 22/18/31 23/16/32
f 9/17/33 10/19/34 21/20/35 22/18/36
f 10/19/37 1/1/38 20/4/39 21/20/40
f 1/1/41 10/19/42 19/21/43
f 10/19/44 9/17/45 19/21/46
f 9/17/47 8/15/48 19/21/49
f 8/15/50 7/13/51 19/21/52
f 7/13/53 6/11/54 19/21/55
f 6/11/56 5/9/57 19/21/58
f 5/9/59 4/7/60 19/21/61
f 4/7/62 3/5/63 19/21/64
f 3/5/65 2/2/66 19/21/67
f 2/2/68 1/1/69 19/21/70
f 22/18/71 21/20/72 18/22/73 17/23/74
f 23/16/75 22/18/76 17/23/77 67/67/78
f 24/14/79 23/16/80 16/24/81 15/25/82
f 25/12/83 24/14/84 15/25/85 14/26/86
f 28/6/87 27/8/88 13/27/89 12/28/90
f 29/3/91 28/6/92 12/28/93 11/29/94
f 11/29/95 12/28/96 32/32/97 31/30/98
f 12/28/99 13/27/100 33/33/101 32/32/102
f 63/63/103 62/62/104 64/64/105 61/61/106
f 14/26/107 15/25/108 36/36/109 35/35/110
f 15/25/111 16/24/112 37/37/113 36/36/114
f 16/24/115 65/65/116 66/66/117 37/37/118
f 17/23/119 18/22/120 39/39/121 38/38/122
f 70/70/123 71/71/124 69/69/125
f 30/31/126 31/30/127 41/40/128 40/41/129
f 31/30/130 32/32/131 42/42/132 41/40/133
f 32/32/134 33/33/135 43/43/136 42/42/137
f 33/33/138 34/34/139 44/44/140 43/43/141
f 34/34/142 35/35/143 45/45/144 44/44/145
f 35/35/146 36/36/147 46/46/148 45/45/149
f 36/36/150 37/37/151 47/47/152 46/46/153
f 37/37/154 38/38/155 48/48/156 47/47/157
f 38/38/158 39/39/159 49/49/160 48/48/161
f 39/39/162 30/31/163 40/41/164 49/49/165
f 40/41/166 41/40/167 51/50/168 50/51/169
f 41/40/170 42/42/171 52/52/172 51/50/173
f 42/42/174 43/43/175 53/53/176 52/52/177
f 43/43/178 44/44/179 54/54/180 53/53/181
f 44/44/182 45/45/183 55/55/184 54/54/185
f 45/45/186 46/46/187 56/56/188 55/55/189
f 46/46/190 47/47/191 57/57/192 56/56/193
f 47/47/194 48/48/195 58/58/196 57/57/197
f 48/48/198 49/49/199 59/59/200 58/58/201
f 49/49/202 40/41/203 50/51/204 59/59/205
f 51/50/206 60/60/207 50/51/208
f 52/52/209 60/60/210 51/50/211
f 53/53/212 60/60/213 52/52/214
f 54/54/215 60/60/216 53/53/217
f 55/55/218 60/60/219 54/54/220
f 56/56/221 60/60/222 55/55/223
f 57/57/224 60/60/225 56/56/226
f 58/58/227 60/60/228 57/57/229
f 59/59/230 60/60/231 58/58/232
f 50/51/233 60/60/234 59/59/235
f 26/10/236 25/12/237 14/26/238 62/62/239 63/63/240
f 64/64/241 62/62/242 14/26/243 35/35/244 34/34/245
f 13/27/246 61/61/247 64/64/248 34/34/249 33/33/250
f 27/8/251 26/10/252 63/63/253 61/61/254 13/27/255
f 66/66/256 67/67/257 17/23/258
f 65/65/259 67/67/260 66/66/261
f 37/37/262 66/66/263 17/23/264 38/38/265
f 23/16/266 67/67/267 65/65/268 16/24/269
f 68/68/270 70/70/271 20/4/272 29/3/273 11/29/274
f 71/71/275 68/68/276 11/29/277 31/30/278 30/31/279
f 18/22/280 69/69/281 71/71/282 30/31/283 39/39/284
f 21/20/285 20/4/286 70/70/287 69/69/288 18/22/289
f 70/70/290 68/68/291 71/71/292
