# This file uses centimeters as units for non-parametric coordinates.

v 19.448355 -1.186122 1.819797
v 18.078697 -4.487792 1.770850
v 18.078697 -4.487792 -1.770850
v 19.448355 -1.186122 -1.819797
v 24.267481 -1.563930 1.873033
v 25.977139 -4.674941 1.740508
v 25.977139 -4.674941 -1.740508
v 24.267481 -1.563930 -1.873033
v 26.983919 1.270323 1.567699
v 29.868214 0.817006 1.429704
v 29.868214 0.817006 -1.429704
v 26.983919 1.270323 -1.567699
v 26.580559 7.248240 0.000000
v 0.000000 2.990110 -2.121667
v -0.000000 2.990110 2.121667
v 9.655288 2.388553 1.980465
v 9.655288 2.388553 -1.980465
v -0.000000 -0.463256 2.144344
v 9.196835 -1.026378 2.036606
v 0.000000 -0.463256 -2.144344
v 9.196835 -1.026378 -2.036606
v -19.448355 -1.186122 1.819797
v -18.078697 -4.487792 1.770850
v -18.078697 -4.487792 -1.770850
v -19.448355 -1.186122 -1.819797
v -24.267481 -1.563930 1.873033
v -25.977139 -4.674941 1.740508
v -25.977139 -4.674941 -1.740508
v -24.267481 -1.563930 -1.873033
v -26.983919 1.270323 1.567699
v -29.868214 0.817006 1.429704
v -29.868214 0.817006 -1.429704
v -26.983919 1.270323 -1.567699
v -26.580559 7.248240 0.000000
v -9.655288 2.388553 1.980465
v -9.655288 2.388553 -1.980465
v -9.196835 -1.026378 2.036606
v -9.196835 -1.026378 -2.036606
v 1.046903 7.270126 1.527770
v -1.659295 8.510071 1.476214
v 1.046903 7.270126 -1.527770
v -1.659295 8.510071 -1.476214
v 1.298167 1.349007 1.491186
v -1.695493 1.445241 1.503850
v -1.695493 1.445241 -1.503850
v 1.298167 1.349007 -1.491186
v 3.084991 11.024150 1.522656
v 5.798603 9.795869 1.479191
v 5.798603 9.795869 -1.479191
v 3.084991 11.024150 -1.522656
v 3.596936 14.580750 1.518451
v 6.376742 15.672418 1.481516
v 6.376742 15.672418 -1.481516
v 3.596936 14.580750 -1.518451
v 1.692749 16.662899 1.518214
v 2.314240 19.579920 1.482791
v 2.314240 19.579920 -1.482791
v 1.692749 16.662900 -1.518214
v -2.356500 16.375323 1.215023
v -3.901275 18.176086 1.176477
v -3.901275 18.176086 -1.176477
v -2.356500 16.375323 -1.215023
v -4.788939 12.555611 0.889128
v -6.001079 13.865757 0.903256
v -6.001079 13.865757 -0.903256
v -4.788939 12.555611 -0.889128
vt 0.080913 0.277100
vt 0.080913 0.277100
vt 0.080913 0.277100
vt 0.080913 0.277100
vt 0.080913 0.277100
vt 0.080913 0.277100
vt 0.080913 0.277100
vt 0.080913 0.277100
vt 0.080913 0.277100
vt 0.080913 0.277100
vt 0.080913 0.277100
vt 0.080913 0.277100
vt 0.080913 0.277100
vt 0.079194 0.272173
vt 0.079009 0.272164
vt 0.079017 0.271833
vt 0.079193 0.271841
vt 0.079318 0.272461
vt 0.079489 0.272470
vt 0.079489 0.272470
vt 0.079318 0.272461
vt 0.079146 0.272452
vt 0.079146 0.272452
vt 0.078965 0.272794
vt 0.078786 0.272784
vt 0.078786 0.272784
vt 0.078965 0.272794
vt 0.078823 0.272154
vt 0.078823 0.272154
vt 0.078965 0.272794
vt 0.080913 0.277100
vt 0.080913 0.277100
vt 0.079146 0.272452
vt 0.079146 0.272452
vt 0.080913 0.277100
vt 0.078823 0.272154
vt 0.080913 0.277100
vt 0.080913 0.277100
vt 0.080913 0.277100
vt 0.080913 0.277100
vt 0.080913 0.277100
vt 0.080913 0.277100
vt 0.080913 0.277100
vt 0.080913 0.277100
vt 0.080913 0.277100
vt 0.080913 0.277100
vt 0.079194 0.272173
vt 0.079009 0.272164
vt 0.079017 0.271833
vt 0.079193 0.271841
vt 0.079318 0.272461
vt 0.079489 0.272470
vt 0.079489 0.272470
vt 0.079318 0.272461
vt 0.078965 0.272794
vt 0.078786 0.272784
vt 0.078786 0.272784
vt 0.078965 0.272794
vt 0.078823 0.272154
vt 0.078965 0.272794
vt 0.080913 0.277100
vt 0.080913 0.277100
vt 0.080913 0.277100
vt 0.080913 0.277100
vt 0.080913 0.277100
vt 0.080913 0.277100
vt 0.080913 0.277100
vt 0.080913 0.277100
vt 0.080913 0.277100
vt 0.080913 0.277100
vt 0.080913 0.277100
vt 0.080913 0.277100
vt 0.080913 0.277100
vt 0.080913 0.277100
vt 0.080913 0.277100
vt 0.080913 0.277100
vt 0.080913 0.277100
vt 0.080913 0.277100
vt 0.080913 0.277100
vt 0.080913 0.277100
vt 0.080913 0.277100
vt 0.080913 0.277100
vt 0.080913 0.277100
vt 0.080913 0.277100
vt 0.080913 0.277100
vt 0.080913 0.277100
vt 0.080913 0.277100
vt 0.080913 0.277100
vt 0.080913 0.277100
vt 0.080913 0.277100
vt 0.080913 0.277100
vt 0.080913 0.277100
vn 0.020715 -0.004225 0.999777
vn 0.020715 -0.004225 0.999777
vn 0.020715 -0.004225 0.999777
vn 0.020715 -0.004225 0.999777
vn -0.358091 -0.933687 0.000000
vn -0.358091 -0.933687 0.000000
vn -0.358091 -0.933687 0.000000
vn -0.358091 -0.933687 0.000000
vn 0.000000 0.000000 1.000000
vn 0.000000 0.000000 1.000000
vn 0.000000 0.000000 1.000000
vn 0.000000 0.000000 1.000000
vn -0.027971 -0.999609 0.000000
vn -0.027971 -0.999609 0.000000
vn -0.027971 -0.999609 0.000000
vn -0.027971 -0.999609 0.000000
vn -0.000000 0.000000 -1.000000
vn -0.000000 0.000000 -1.000000
vn -0.000000 0.000000 -1.000000
vn -0.000000 0.000000 -1.000000
vn 0.059797 0.998211 0.000000
vn 0.059797 0.998211 0.000000
vn 0.059797 0.998211 0.000000
vn 0.059797 0.998211 0.000000
vn 0.035044 0.047112 0.998275
vn 0.035044 0.047112 0.998275
vn 0.035044 0.047112 0.998275
vn 0.035044 0.047112 0.998275
vn 0.813848 -0.581078 0.000000
vn 0.813848 -0.581078 0.000000
vn 0.813848 -0.581078 0.000000
vn 0.813848 -0.581078 0.000000
vn 0.035044 0.047112 -0.998275
vn 0.035044 0.047112 -0.998275
vn 0.035044 0.047112 -0.998275
vn 0.035044 0.047112 -0.998275
vn -0.715754 0.698353 0.000000
vn -0.715754 0.698353 0.000000
vn -0.715754 0.698353 0.000000
vn -0.715754 0.698353 0.000000
vn 0.020700 0.182826 0.982927
vn 0.020700 0.182826 0.982927
vn 0.020700 0.182826 0.982927
vn 0.912479 0.409124 0.000000
vn 0.912479 0.409124 0.000000
vn 0.912479 0.409124 0.000000
vn 0.020700 0.182826 -0.982927
vn 0.020700 0.182826 -0.982927
vn 0.020700 0.182826 -0.982927
vn -0.994886 -0.101002 0.000000
vn -0.994886 -0.101002 0.000000
vn -0.994886 -0.101002 0.000000
vn 0.062914 0.998019 -0.000000
vn 0.062914 0.998019 -0.000000
vn 0.062914 0.998019 -0.000000
vn 0.062914 0.998019 -0.000000
vn 0.339026 0.940777 0.000000
vn 0.339026 0.940777 0.000000
vn 0.339026 0.940777 0.000000
vn 0.339026 0.940777 0.000000
vn 0.013332 0.001565 0.999910
vn 0.013332 0.001565 0.999910
vn 0.013332 0.001565 0.999910
vn 0.013332 0.001565 0.999910
vn 0.013332 0.001565 -0.999910
vn 0.013332 0.001565 -0.999910
vn 0.013332 0.001565 -0.999910
vn 0.013332 0.001565 -0.999910
vn 0.020715 -0.004225 -0.999777
vn 0.020715 -0.004225 -0.999777
vn 0.020715 -0.004225 -0.999777
vn 0.020715 -0.004225 -0.999777
vn -0.062983 -0.998015 0.000000
vn -0.062983 -0.998015 0.000000
vn -0.062983 -0.998015 0.000000
vn -0.062983 -0.998015 0.000000
vn -0.020715 -0.004225 0.999777
vn -0.020715 -0.004225 0.999777
vn -0.020715 -0.004225 0.999777
vn -0.020715 -0.004225 0.999777
vn 0.358091 -0.933687 0.000000
vn 0.358091 -0.933687 0.000000
vn 0.358091 -0.933687 0.000000
vn 0.358091 -0.933687 0.000000
vn 0.000000 0.000000 1.000000
vn 0.000000 0.000000 1.000000
vn 0.000000 0.000000 1.000000
vn 0.000000 0.000000 1.000000
vn 0.027971 -0.999609 0.000000
vn 0.027971 -0.999609 0.000000
vn 0.027971 -0.999609 0.000000
vn 0.027971 -0.999609 0.000000
vn 0.000000 0.000000 -1.000000
vn 0.000000 0.000000 -1.000000
vn 0.000000 0.000000 -1.000000
vn 0.000000 0.000000 -1.000000
vn -0.059797 0.998211 0.000000
vn -0.059797 0.998211 0.000000
vn -0.059797 0.998211 0.000000
vn -0.059797 0.998211 0.000000
vn -0.035044 0.047112 0.998275
vn -0.035044 0.047112 0.998275
vn -0.035044 0.047112 0.998275
vn -0.035044 0.047112 0.998275
vn -0.813848 -0.581078 0.000000
vn -0.813848 -0.581078 0.000000
vn -0.813848 -0.581078 0.000000
vn -0.813848 -0.581078 0.000000
vn -0.035044 0.047112 -0.998275
vn -0.035044 0.047112 -0.998275
vn -0.035044 0.047112 -0.998275
vn -0.035044 0.047112 -0.998275
vn 0.715754 0.698353 0.000000
vn 0.715754 0.698353 0.000000
vn 0.715754 0.698353 0.000000
vn 0.715754 0.698353 0.000000
vn -0.020700 0.182826 0.982927
vn -0.020700 0.182826 0.982927
vn -0.020700 0.182826 0.982927
vn -0.912479 0.409124 0.000000
vn -0.912479 0.409124 0.000000
vn -0.912479 0.409124 0.000000
vn -0.020700 0.182826 -0.982927
vn -0.020700 0.182826 -0.982927
vn -0.020700 0.182826 -0.982927
vn 0.994886 -0.101002 0.000000
vn 0.994886 -0.101002 0.000000
vn 0.994886 -0.101002 0.000000
vn -0.062914 0.998019 0.000000
vn -0.062914 0.998019 0.000000
vn -0.062914 0.998019 0.000000
vn -0.062914 0.998019 0.000000
vn -0.339026 0.940777 0.000000
vn -0.339026 0.940777 0.000000
vn -0.339026 0.940777 0.000000
vn -0.339026 0.940777 0.000000
vn -0.013332 0.001565 0.999910
vn -0.013332 0.001565 0.999910
vn -0.013332 0.001565 0.999910
vn -0.013332 0.001565 0.999910
vn -0.013332 0.001565 -0.999910
vn -0.013332 0.001565 -0.999910
vn -0.013332 0.001565 -0.999910
vn -0.013332 0.001565 -0.999910
vn -0.020715 -0.004225 -0.999777
vn -0.020715 -0.004225 -0.999777
vn -0.020715 -0.004225 -0.999777
vn -0.020715 -0.004225 -0.999777
vn 0.062983 -0.998015 0.000000
vn 0.062983 -0.998015 0.000000
vn 0.062983 -0.998015 0.000000
vn 0.062983 -0.998015 0.000000
vn 0.023407 0.001653 0.999725
vn 0.023407 0.001653 0.999725
vn 0.023407 0.001653 0.999725
vn 0.023407 0.001653 0.999725
vn -0.999993 0.003880 0.000000
vn -0.999993 0.003880 0.000000
vn -0.999993 0.003880 0.000000
vn -0.999993 0.003880 0.000000
vn 0.023407 0.001653 -0.999725
vn 0.023407 0.001653 -0.999725
vn 0.023407 0.001653 -0.999725
vn 0.023407 0.001653 -0.999725
vn 0.999912 0.013295 0.000000
vn 0.999912 0.013295 0.000000
vn 0.999912 0.013295 0.000000
vn 0.999912 0.013295 0.000000
vn 0.001611 -0.004076 0.999990
vn 0.001611 -0.004076 0.999990
vn 0.001611 -0.004076 0.999990
vn 0.001611 -0.004076 0.999990
vn 0.494668 -0.869082 0.000000
vn 0.494668 -0.869082 0.000000
vn 0.494668 -0.869082 0.000000
vn 0.494668 -0.869082 0.000000
vn 0.001611 -0.004076 -0.999990
vn 0.001611 -0.004076 -0.999990
vn 0.001611 -0.004076 -0.999990
vn 0.001611 -0.004076 -0.999990
vn -0.486845 0.873489 0.000000
vn -0.486845 0.873489 0.000000
vn -0.486845 0.873489 0.000000
vn -0.486845 0.873489 0.000000
vn -0.044546 0.005230 0.998994
vn -0.044546 0.005230 0.998994
vn -0.044546 0.005230 0.998994
vn -0.044546 0.005230 0.998994
vn 0.995283 -0.097018 0.000000
vn 0.995283 -0.097018 0.000000
vn 0.995283 -0.097018 0.000000
vn 0.995283 -0.097018 0.000000
vn -0.044546 0.005230 -0.998994
vn -0.044546 0.005230 -0.998994
vn -0.044546 0.005230 -0.998994
vn -0.044546 0.005230 -0.998994
vn -0.989391 0.145274 0.000000
vn -0.989391 0.145274 0.000000
vn -0.989391 0.145274 0.000000
vn -0.989391 0.145274 0.000000
vn -0.033178 -0.032304 0.998927
vn -0.033178 -0.032304 0.998927
vn -0.033178 -0.032304 0.998927
vn -0.033178 -0.032304 0.998927
vn 0.695325 0.718695 0.000000
vn 0.695325 0.718695 0.000000
vn 0.695325 0.718695 0.000000
vn 0.695325 0.718695 0.000000
vn -0.033178 -0.032304 -0.998927
vn -0.033178 -0.032304 -0.998927
vn -0.033178 -0.032304 -0.998927
vn -0.033178 -0.032304 -0.998927
vn -0.738935 -0.673777 0.000000
vn -0.738935 -0.673777 0.000000
vn -0.738935 -0.673777 0.000000
vn -0.738935 -0.673777 0.000000
vn -0.049402 -0.066055 0.996592
vn -0.049402 -0.066055 0.996592
vn -0.049402 -0.066055 0.996592
vn -0.049402 -0.066055 0.996592
vn -0.221120 0.975247 0.000000
vn -0.221120 0.975247 0.000000
vn -0.221120 0.975247 0.000000
vn -0.221120 0.975247 0.000000
vn -0.049402 -0.066055 -0.996592
vn -0.049402 -0.066055 -0.996592
vn -0.049402 -0.066055 -0.996592
vn -0.049402 -0.066055 -0.996592
vn 0.066911 -0.997759 0.000000
vn 0.066911 -0.997759 0.000000
vn 0.066911 -0.997759 0.000000
vn 0.066911 -0.997759 0.000000
vn -0.790418 -0.612568 0.000000
vn -0.790418 -0.612568 0.000000
vn -0.790418 -0.612568 0.000000
vn -0.790418 -0.612568 0.000000
vn 0.843398 -0.537289 0.000000
vn 0.843398 -0.537289 0.000000
vn 0.843398 -0.537289 0.000000
vn 0.843398 -0.537289 0.000000
vn -0.009182 -0.047616 0.998824
vn -0.009182 -0.047616 0.998824
vn -0.009182 -0.047616 0.998824
vn -0.009182 -0.047616 0.998824
vn -0.896356 0.443335 0.000000
vn -0.896356 0.443335 0.000000
vn -0.896356 0.443335 0.000000
vn -0.896356 0.443335 0.000000
vn -0.009182 -0.047616 -0.998824
vn -0.009182 -0.047616 -0.998824
vn -0.009182 -0.047616 -0.998824
vn -0.009182 -0.047616 -0.998824
s off
f 2/2/1 1/3/2 16/22/3 19/23/4
f 3/4/5 2/2/6 19/23/7 21/29/8
f 1/3/9 2/2/10 6/6/11 5/7/12
f 2/2/13 3/4/14 7/8/15 6/6/16
f 3/4/17 4/5/18 8/9/19 7/8/20
f 4/5/21 1/3/22 5/7/23 8/9/24
f 5/7/25 6/6/26 10/10/27 9/11/28
f 6/6/29 7/8/30 11/12/31 10/10/32
f 7/8/33 8/9/34 12/13/35 11/12/36
f 8/9/37 5/7/38 9/11/39 12/13/40
f 9/11/41 10/10/42 13/1/43
f 10/10/44 11/12/45 13/1/46
f 11/12/47 12/13/48 13/1/49
f 12/13/50 9/11/51 13/1/52
f 15/14/53 16/15/54 17/16/55 14/17/56
f 4/5/57 17/16/58 16/15/59 1/3/60
f 16/18/61 15/19/62 18/20/63 19/21/64
f 14/24/65 17/25/66 21/26/67 20/27/68
f 3/4/69 21/29/70 17/28/71 4/5/72
f 19/21/73 18/20/74 20/30/75 21/26/76
f 23/31/77 37/34/78 35/33/79 22/32/80
f 24/35/81 38/36/82 37/34/83 23/31/84
f 22/32/85 26/38/86 27/37/87 23/31/88
f 23/31/89 27/37/90 28/39/91 24/35/92
f 24/35/93 28/39/94 29/41/95 25/40/96
f 25/40/97 29/41/98 26/38/99 22/32/100
f 26/38/101 30/43/102 31/42/103 27/37/104
f 27/37/105 31/42/106 32/44/107 28/39/108
f 28/39/109 32/44/110 33/45/111 29/41/112
f 29/41/113 33/45/114 30/43/115 26/38/116
f 30/43/117 34/46/118 31/42/119
f 31/42/120 34/46/121 32/44/122
f 32/44/123 34/46/124 33/45/125
f 33/45/126 34/46/127 30/43/128
f 15/47/129 14/50/130 36/49/131 35/48/132
f 25/40/133 22/32/134 35/48/135 36/49/136
f 35/51/137 37/54/138 18/53/139 15/52/140
f 14/55/141 20/58/142 38/57/143 36/56/144
f 24/35/145 25/40/146 36/59/147 38/36/148
f 37/54/149 38/57/150 20/60/151 18/53/152
f 39/61/153 40/62/154 44/63/155 43/64/156
f 40/62/157 42/65/158 45/66/159 44/63/160
f 42/65/161 41/67/162 46/68/163 45/66/164
f 41/67/165 39/61/166 43/64/167 46/68/168
f 40/69/169 39/70/170 48/71/171 47/72/172
f 39/70/173 41/73/174 49/74/175 48/71/176
f 41/73/177 42/75/178 50/76/179 49/74/180
f 42/75/181 40/69/182 47/72/183 50/76/184
f 47/72/185 48/71/186 52/77/187 51/78/188
f 48/71/189 49/74/190 53/79/191 52/77/192
f 49/74/193 50/76/194 54/80/195 53/79/196
f 50/76/197 47/72/198 51/78/199 54/80/200
f 51/78/201 52/77/202 56/81/203 55/82/204
f 52/77/205 53/79/206 57/83/207 56/81/208
f 53/79/209 54/80/210 58/84/211 57/83/212
f 54/80/213 51/78/214 55/82/215 58/84/216
f 55/82/217 56/81/218 60/85/219 59/86/220
f 56/81/221 57/83/222 61/87/223 60/85/224
f 57/83/225 58/84/226 62/88/227 61/87/228
f 58/84/229 55/82/230 59/86/231 62/88/232
f 66/89/233 63/90/234 64/91/235 65/92/236
f 62/88/237 59/86/238 63/90/239 66/89/240
f 59/86/241 60/85/242 64/91/243 63/90/244
f 60/85/245 61/87/246 65/92/247 64/91/248
f 61/87/249 62/88/250 66/89/251 65/92/252
