# This file uses centimeters as units for non-parametric coordinates.

v 2.623505 0.000000 -6.333702
v -2.623506 0.000000 -6.333702
v -6.333702 0.000000 -2.623505
v -6.333702 0.000000 2.623505
v -2.623506 0.000000 6.333702
v 2.623505 0.000000 6.333702
v 6.333702 0.000000 2.623507
v 6.333702 0.000000 -2.623507
v 2.995309 13.274802 -7.231317
v 7.231318 13.274802 -2.995309
v 7.231318 13.274802 2.995309
v 2.995309 13.274802 7.231317
v -2.995309 13.274802 7.231317
v -7.231317 13.274802 2.995309
v -7.231317 13.274802 -2.995309
v -2.995309 13.274802 -7.231317
v 3.175688 0.916823 -7.666790
v -3.175688 0.916823 -7.666790
v -7.666790 0.916823 -3.175688
v -7.666790 0.916823 3.175688
v -3.175688 0.916823 7.666790
v 3.175688 0.916823 7.666790
v 7.666790 0.916823 3.175689
v 7.666790 0.916823 -3.175689
v 0.936726 16.821131 -2.261456
v 2.261457 16.821131 -0.936725
v 2.261457 16.821131 0.936725
v 0.936726 16.821131 2.261456
v -0.936725 16.821131 2.261456
v -2.261456 16.821131 0.936725
v -2.261456 16.821131 -0.936725
v -0.936725 16.821131 -2.261456
v 0.936726 25.116648 -2.261456
v 2.261457 25.116648 -0.936725
v 2.261457 25.116648 0.936725
v 0.936726 25.116648 2.261456
v -0.936725 25.116648 2.261456
v -2.261456 25.116648 0.936725
v -2.261456 25.116648 -0.936725
v -0.936725 25.116648 -2.261456
v 1.315052 25.921110 -3.174817
v 3.174818 25.921110 -1.315052
v 3.174818 25.921110 1.315052
v 1.315052 25.921110 3.174817
v -1.315051 25.921110 3.174817
v -3.174817 25.921110 1.315052
v -3.174817 25.921110 -1.315052
v -1.315051 25.921110 -3.174817
v 1.315052 27.058401 -3.174817
v 3.174818 27.058401 -1.315052
v 3.174818 27.058401 1.315052
v 1.315052 27.058401 3.174817
v -1.315051 27.058401 3.174817
v -3.174817 27.058401 1.315052
v -3.174817 27.058401 -1.315052
v -1.315051 27.058401 -3.174817
v 1.081201 27.393436 -2.610250
v 2.610251 27.393436 -1.081201
v 2.610251 27.393436 1.081201
v 1.081201 27.393436 2.610250
v -1.081200 27.393436 2.610250
v -2.610250 27.393436 1.081201
v -2.610250 27.393436 -1.081201
v -1.081200 27.393436 -2.610250
v 0.613784 27.393436 -1.481806
v 1.481807 27.393436 -0.613784
v 1.481807 27.393436 0.613784
v 0.613784 27.393436 1.481806
v -0.613784 27.393436 1.481806
v -1.481806 27.393436 0.613784
v -1.481806 27.393436 -0.613784
v -0.613784 27.393436 -1.481806
v 0.000000 22.265186 0.000000
v -4.087701 7.096011 -9.868584
v -9.868584 7.096011 -4.087701
v -9.868584 7.096011 4.087701
v -4.087701 7.096011 9.868584
v 4.087701 7.096011 9.868584
v 9.868585 7.096011 4.087701
v 9.868585 7.096011 -4.087701
v 4.087701 7.096011 -9.868584
v -0.000000 0.000000 0.000000
v 2.150501 22.218563 1.034656
v 2.150501 22.218563 -1.034656
v 7.113365 23.021023 -1.034655
v 7.113365 23.021023 1.034655
v 5.947799 13.725683 1.034660
v 6.006131 13.754451 -1.034659
v 3.487461 23.698124 -1.034656
v 3.487461 23.698124 1.034656
v 4.775663 14.711214 1.034658
v 4.803106 14.727727 -1.034658
v 5.713527 21.748901 -1.034655
v 5.713526 21.748899 1.034655
v 3.908697 22.027966 -1.034656
v 3.908697 22.027967 1.034656
v 2.061302 19.472460 -1.034656
v 2.061302 19.472460 1.034656
v 8.554212 19.347910 1.034657
v 8.543027 19.157568 -1.034657
v 6.954967 19.228575 -1.034657
v 6.988522 19.417913 1.034657
v 7.295720 15.574476 1.034659
v 7.398866 15.625345 -1.034659
v 6.368865 16.614256 -1.034657
v 6.272888 16.556505 1.034658
vt 0.466052 0.472169
vt 0.466323 0.472154
vt 0.466513 0.472195
vt 0.466511 0.472271
vt 0.466288 0.472340
vt 0.465975 0.472355
vt 0.465789 0.472307
vt 0.465833 0.472230
vt 0.466159 0.472257
vt 0.466045 0.472322
vt 0.466013 0.472409
vt 0.466086 0.472469
vt 0.466224 0.472463
vt 0.466343 0.472394
vt 0.466369 0.472305
vt 0.466292 0.472250
vt 0.466322 0.471601
vt 0.465960 0.471610
vt 0.466597 0.471596
vt 0.466625 0.471600
vt 0.465676 0.471619
vt 0.466059 0.471277
vt 0.465974 0.471273
vt 0.465627 0.471624
vt 0.465977 0.471268
vt 0.465893 0.471620
vt 0.466072 0.471264
vt 0.466333 0.471610
vt 0.466203 0.471265
vt 0.466288 0.471269
vt 0.466278 0.471274
vt 0.466183 0.471277
vt 0.466059 0.471199
vt 0.465974 0.471194
vt 0.465977 0.471187
vt 0.466072 0.471182
vt 0.466203 0.471182
vt 0.466288 0.471188
vt 0.466278 0.471195
vt 0.466183 0.471199
vt 0.466032 0.471149
vt 0.465912 0.471141
vt 0.465915 0.471130
vt 0.466048 0.471122
vt 0.466234 0.471122
vt 0.466352 0.471131
vt 0.466336 0.471142
vt 0.466204 0.471150
vt 0.466032 0.471075
vt 0.465912 0.471065
vt 0.465915 0.471051
vt 0.466048 0.471041
vt 0.466234 0.471042
vt 0.466352 0.471053
vt 0.466336 0.471067
vt 0.466204 0.471075
vt 0.466049 0.471050
vt 0.465950 0.471041
vt 0.465954 0.471029
vt 0.466063 0.471021
vt 0.466215 0.471022
vt 0.466312 0.471031
vt 0.466300 0.471043
vt 0.466191 0.471050
vt 0.466083 0.471044
vt 0.466027 0.471039
vt 0.466030 0.471032
vt 0.466092 0.471028
vt 0.466177 0.471028
vt 0.466233 0.471033
vt 0.466227 0.471040
vt 0.466165 0.471044
vt 0.466129 0.471385
vt 0.466322 0.471856
vt 0.466559 0.471872
vt 0.466573 0.471909
vt 0.466312 0.471946
vt 0.465931 0.471959
vt 0.465701 0.471938
vt 0.465748 0.471900
vt 0.466002 0.471867
vt 0.466191 0.472359
vt 0.470668 0.468849
vt 0.470703 0.468734
vt 0.470772 0.468655
vt 0.470747 0.468755
vt 0.470767 0.468530
vt 0.470767 0.468424
vt 0.470820 0.468367
vt 0.470818 0.468473
vt 0.470758 0.468180
vt 0.470816 0.468121
vt 0.470668 0.468849
vt 0.470747 0.468755
vt 0.470773 0.468653
vt 0.470704 0.468733
vt 0.470767 0.468530
vt 0.470818 0.468473
vt 0.470820 0.468367
vt 0.470767 0.468424
vt 0.470816 0.468121
vt 0.470758 0.468180
vt 0.470668 0.468849
vt 0.470747 0.468755
vt 0.470773 0.468653
vt 0.470767 0.468530
vt 0.470726 0.468660
vt 0.470726 0.468661
vt 0.470818 0.468473
vt 0.470820 0.468367
vt 0.470767 0.468424
vt 0.470816 0.468121
vt 0.470758 0.468180
vt 0.470786 0.468599
vt 0.470726 0.468661
vt 0.470787 0.468596
vt 0.470787 0.468596
vt 0.470704 0.468733
vn 0.000000 0.001371 -0.999999
vn 0.000000 0.001371 -0.999999
vn 0.000000 0.027130 -0.999632
vn 0.000000 0.027130 -0.999632
vn -0.707106 0.001371 -0.707106
vn -0.707106 0.001371 -0.707106
vn -0.706847 0.027130 -0.706846
vn -0.706847 0.027131 -0.706847
vn -0.999999 0.001371 -0.000000
vn -0.999999 0.001371 -0.000000
vn -0.999632 0.027130 -0.000000
vn -0.999632 0.027130 -0.000000
vn -0.707106 0.001371 0.707106
vn -0.707106 0.001371 0.707106
vn -0.706847 0.027130 0.706846
vn -0.706847 0.027130 0.706847
vn 0.000000 0.001371 0.999999
vn 0.000000 0.001371 0.999999
vn 0.000000 0.027130 0.999632
vn 0.000000 0.027130 0.999632
vn 0.707106 0.001371 0.707106
vn 0.707106 0.001371 0.707106
vn 0.706846 0.027130 0.706847
vn 0.706846 0.027130 0.706847
vn 0.999999 0.001371 0.000000
vn 0.999999 0.001371 0.000000
vn 0.999632 0.027130 0.000000
vn 0.999632 0.027130 0.000000
vn 0.706846 0.027130 -0.706847
vn 0.706846 0.027130 -0.706847
vn 0.707106 0.001371 -0.707106
vn 0.707106 0.001371 -0.707106
vn 0.000000 -0.803880 -0.594792
vn 0.000000 -0.803880 -0.594792
vn 0.000000 -0.803880 -0.594792
vn 0.000000 -0.803880 -0.594792
vn -0.420582 -0.803880 -0.420581
vn -0.420582 -0.803880 -0.420581
vn -0.420582 -0.803880 -0.420581
vn -0.420582 -0.803880 -0.420581
vn -0.594792 -0.803879 -0.000000
vn -0.594792 -0.803879 -0.000000
vn -0.594792 -0.803879 -0.000000
vn -0.594792 -0.803879 -0.000000
vn -0.420582 -0.803879 0.420582
vn -0.420582 -0.803879 0.420582
vn -0.420582 -0.803879 0.420582
vn -0.420582 -0.803879 0.420582
vn -0.000000 -0.803880 0.594792
vn -0.000000 -0.803880 0.594792
vn -0.000000 -0.803880 0.594792
vn -0.000000 -0.803880 0.594792
vn 0.420582 -0.803880 0.420582
vn 0.420582 -0.803880 0.420582
vn 0.420582 -0.803880 0.420582
vn 0.420582 -0.803880 0.420582
vn 0.594792 -0.803880 0.000000
vn 0.594792 -0.803880 0.000000
vn 0.594792 -0.803880 0.000000
vn 0.594792 -0.803880 0.000000
vn 0.420582 -0.803879 -0.420582
vn 0.420582 -0.803879 -0.420582
vn 0.420582 -0.803879 -0.420582
vn 0.420582 -0.803879 -0.420582
vn 0.506720 0.697473 -0.506721
vn 0.506720 0.697473 -0.506721
vn 0.506720 0.697473 -0.506721
vn 0.506720 0.697473 -0.506721
vn 0.716611 0.697473 0.000000
vn 0.716611 0.697473 0.000000
vn 0.716611 0.697473 0.000000
vn 0.716611 0.697473 0.000000
vn 0.506720 0.697473 0.506721
vn 0.506720 0.697473 0.506721
vn 0.506720 0.697473 0.506721
vn 0.506720 0.697473 0.506721
vn 0.000000 0.697473 0.716611
vn 0.000000 0.697473 0.716611
vn 0.000000 0.697473 0.716611
vn 0.000000 0.697473 0.716611
vn -0.506720 0.697473 0.506721
vn -0.506720 0.697473 0.506721
vn -0.506720 0.697473 0.506721
vn -0.506720 0.697473 0.506721
vn -0.716611 0.697473 0.000000
vn -0.716611 0.697473 0.000000
vn -0.716611 0.697473 0.000000
vn -0.716611 0.697473 0.000000
vn -0.506720 0.697473 -0.506721
vn -0.506720 0.697473 -0.506721
vn -0.506720 0.697473 -0.506721
vn -0.506720 0.697473 -0.506721
vn 0.000000 0.697473 -0.716611
vn 0.000000 0.697473 -0.716611
vn 0.000000 0.697473 -0.716611
vn 0.000000 0.697473 -0.716611
vn 0.707107 0.000000 -0.707107
vn 0.707107 0.000000 -0.707107
vn 0.707107 0.000000 -0.707107
vn 0.707107 0.000000 -0.707107
vn 1.000000 0.000000 0.000000
vn 1.000000 0.000000 0.000000
vn 1.000000 0.000000 0.000000
vn 1.000000 0.000000 0.000000
vn 0.707107 0.000000 0.707107
vn 0.707107 0.000000 0.707107
vn 0.707107 0.000000 0.707107
vn 0.707107 0.000000 0.707107
vn 0.000000 0.000000 1.000000
vn 0.000000 0.000000 1.000000
vn 0.000000 0.000000 1.000000
vn 0.000000 0.000000 1.000000
vn -0.707107 0.000000 0.707107
vn -0.707107 0.000000 0.707107
vn -0.707107 0.000000 0.707107
vn -0.707107 0.000000 0.707107
vn -1.000000 0.000000 0.000000
vn -1.000000 0.000000 0.000000
vn -1.000000 0.000000 0.000000
vn -1.000000 0.000000 0.000000
vn -0.707107 0.000000 -0.707107
vn -0.707107 0.000000 -0.707107
vn -0.707107 0.000000 -0.707107
vn -0.707107 0.000000 -0.707107
vn 0.000000 0.000000 -1.000000
vn 0.000000 0.000000 -1.000000
vn 0.000000 0.000000 -1.000000
vn 0.000000 0.000000 -1.000000
vn 0.467365 -0.750426 -0.467366
vn 0.467365 -0.750426 -0.467366
vn 0.467365 -0.750426 -0.467366
vn 0.467365 -0.750426 -0.467366
vn 0.660954 -0.750426 0.000000
vn 0.660954 -0.750426 0.000000
vn 0.660954 -0.750426 0.000000
vn 0.660954 -0.750426 0.000000
vn 0.467365 -0.750426 0.467365
vn 0.467365 -0.750426 0.467365
vn 0.467365 -0.750426 0.467365
vn 0.467365 -0.750426 0.467365
vn 0.000000 -0.750426 0.660955
vn 0.000000 -0.750426 0.660955
vn 0.000000 -0.750426 0.660955
vn 0.000000 -0.750426 0.660955
vn -0.467365 -0.750426 0.467366
vn -0.467365 -0.750426 0.467366
vn -0.467365 -0.750426 0.467366
vn -0.467365 -0.750426 0.467366
vn -0.660954 -0.750426 0.000000
vn -0.660954 -0.750426 0.000000
vn -0.660954 -0.750426 0.000000
vn -0.660954 -0.750426 0.000000
vn -0.467365 -0.750426 -0.467365
vn -0.467365 -0.750426 -0.467365
vn -0.467365 -0.750426 -0.467365
vn -0.467365 -0.750426 -0.467365
vn 0.000000 -0.750426 -0.660955
vn 0.000000 -0.750426 -0.660955
vn 0.000000 -0.750426 -0.660955
vn 0.000000 -0.750426 -0.660955
vn 0.707107 0.000000 -0.707107
vn 0.707107 0.000000 -0.707107
vn 0.707107 0.000000 -0.707107
vn 0.707107 0.000000 -0.707107
vn 1.000000 0.000000 0.000000
vn 1.000000 0.000000 0.000000
vn 1.000000 0.000000 0.000000
vn 1.000000 0.000000 0.000000
vn 0.707107 0.000000 0.707107
vn 0.707107 0.000000 0.707107
vn 0.707107 0.000000 0.707107
vn 0.707107 0.000000 0.707107
vn 0.000000 0.000000 1.000000
vn 0.000000 0.000000 1.000000
vn 0.000000 0.000000 1.000000
vn 0.000000 0.000000 1.000000
vn -0.707107 0.000000 0.707107
vn -0.707107 0.000000 0.707107
vn -0.707107 0.000000 0.707107
vn -0.707107 0.000000 0.707107
vn -1.000000 0.000000 0.000000
vn -1.000000 0.000000 0.000000
vn -1.000000 0.000000 0.000000
vn -1.000000 0.000000 0.000000
vn -0.707107 0.000000 -0.707107
vn -0.707107 0.000000 -0.707107
vn -0.707107 0.000000 -0.707107
vn -0.707107 0.000000 -0.707107
vn 0.000000 0.000000 -1.000000
vn 0.000000 0.000000 -1.000000
vn 0.000000 0.000000 -1.000000
vn 0.000000 0.000000 -1.000000
vn 0.360865 0.859972 -0.360865
vn 0.360865 0.859972 -0.360865
vn 0.360865 0.859972 -0.360865
vn 0.360865 0.859972 -0.360865
vn 0.510340 0.859973 0.000000
vn 0.510340 0.859973 0.000000
vn 0.510340 0.859973 0.000000
vn 0.510340 0.859973 0.000000
vn 0.360865 0.859972 0.360866
vn 0.360865 0.859972 0.360866
vn 0.360865 0.859972 0.360866
vn 0.360865 0.859972 0.360866
vn 0.000000 0.859973 0.510340
vn 0.000000 0.859973 0.510340
vn 0.000000 0.859973 0.510340
vn 0.000000 0.859973 0.510340
vn -0.360865 0.859972 0.360867
vn -0.360865 0.859972 0.360867
vn -0.360865 0.859972 0.360867
vn -0.360865 0.859972 0.360867
vn -0.510341 0.859972 0.000000
vn -0.510341 0.859972 0.000000
vn -0.510341 0.859972 0.000000
vn -0.510341 0.859972 0.000000
vn -0.360865 0.859972 -0.360867
vn -0.360865 0.859972 -0.360867
vn -0.360865 0.859972 -0.360867
vn -0.360865 0.859972 -0.360867
vn 0.000000 0.859973 -0.510340
vn 0.000000 0.859973 -0.510340
vn 0.000000 0.859973 -0.510340
vn 0.000000 0.859973 -0.510340
vn 0.000000 1.000000 0.000000
vn 0.000000 1.000000 0.000000
vn 0.000000 1.000000 0.000000
vn 0.000000 1.000000 0.000000
vn 0.000000 1.000000 0.000000
vn 0.000000 1.000000 0.000000
vn 0.000000 1.000000 0.000000
vn 0.000000 1.000000 0.000000
vn 0.000000 1.000000 0.000000
vn 0.000000 1.000000 0.000000
vn 0.000000 1.000000 0.000000
vn 0.000000 1.000000 0.000000
vn 0.000000 1.000000 -0.000001
vn 0.000000 1.000000 -0.000001
vn 0.000000 1.000000 -0.000001
vn 0.000000 1.000000 -0.000001
vn 0.000000 1.000000 -0.000002
vn 0.000000 1.000000 -0.000002
vn 0.000000 1.000000 -0.000002
vn 0.000000 1.000000 -0.000002
vn 0.000000 1.000000 0.000000
vn 0.000000 1.000000 0.000000
vn 0.000000 1.000000 0.000000
vn 0.000000 1.000000 0.000000
vn 0.000000 1.000000 0.000001
vn 0.000000 1.000000 0.000001
vn 0.000000 1.000000 0.000001
vn 0.000000 1.000000 0.000001
vn 0.000000 1.000000 0.000002
vn 0.000000 1.000000 0.000002
vn 0.000000 1.000000 0.000002
vn 0.000000 1.000000 0.000002
vn -0.679316 0.277594 0.679317
vn -0.679316 0.277594 0.679317
vn -0.679316 0.277594 0.679317
vn -0.960699 0.277594 0.000000
vn -0.960699 0.277594 0.000000
vn -0.960699 0.277594 0.000000
vn -0.679316 0.277594 -0.679317
vn -0.679316 0.277594 -0.679317
vn -0.679316 0.277594 -0.679317
vn 0.000000 0.277594 -0.960699
vn 0.000000 0.277594 -0.960699
vn 0.000000 0.277594 -0.960699
vn 0.679316 0.277593 -0.679317
vn 0.679316 0.277593 -0.679317
vn 0.679316 0.277593 -0.679317
vn 0.960699 0.277594 0.000000
vn 0.960699 0.277594 0.000000
vn 0.960699 0.277594 0.000000
vn 0.679316 0.277593 0.679317
vn 0.679316 0.277593 0.679317
vn 0.679316 0.277593 0.679317
vn 0.000000 0.277594 0.960699
vn 0.000000 0.277594 0.960699
vn 0.000000 0.277594 0.960699
vn -0.706847 0.027131 -0.706847
vn -0.706847 0.027130 -0.706846
vn -0.707106 0.001371 -0.707106
vn -0.707106 0.001371 -0.707106
vn -0.999632 0.027130 -0.000000
vn -0.999632 0.027130 -0.000000
vn -0.999999 0.001371 -0.000000
vn -0.999999 0.001371 -0.000000
vn -0.706847 0.027130 0.706847
vn -0.706847 0.027130 0.706846
vn -0.707106 0.001371 0.707106
vn -0.707106 0.001371 0.707106
vn 0.000000 0.027130 0.999632
vn 0.000000 0.027130 0.999632
vn 0.000000 0.001371 0.999999
vn 0.000000 0.001371 0.999999
vn 0.706846 0.027130 0.706847
vn 0.706846 0.027130 0.706847
vn 0.707106 0.001371 0.707106
vn 0.707106 0.001371 0.707106
vn 0.999632 0.027130 0.000000
vn 0.999632 0.027130 0.000000
vn 0.999999 0.001371 0.000000
vn 0.999999 0.001371 0.000000
vn 0.707106 0.001371 -0.707106
vn 0.706846 0.027130 -0.706847
vn 0.706846 0.027130 -0.706847
vn 0.707106 0.001371 -0.707106
vn 0.000000 0.027130 -0.999632
vn 0.000000 0.027130 -0.999632
vn 0.000000 0.001371 -0.999999
vn 0.000000 0.001371 -0.999999
vn 0.000000 -1.000000 0.000000
vn 0.000000 -1.000000 0.000000
vn 0.000000 -1.000000 0.000000
vn 0.000000 -1.000000 0.000000
vn 0.000000 -1.000000 0.000000
vn 0.000000 -1.000000 0.000000
vn 0.000000 -1.000000 0.000000
vn 0.000000 -1.000000 0.000000
vn 0.000000 -1.000000 0.000000
vn 0.000000 -1.000000 0.000000
vn 0.000000 -1.000000 0.000000
vn 0.000000 -1.000000 0.000000
vn 0.000000 -1.000000 0.000000
vn 0.000000 -1.000000 0.000000
vn 0.000000 -1.000000 0.000000
vn 0.000000 -1.000000 0.000000
vn 0.000000 -1.000000 0.000000
vn 0.000000 -1.000000 0.000000
vn 0.000000 -1.000000 0.000000
vn 0.000000 -1.000000 0.000000
vn 0.000000 -1.000000 0.000000
vn 0.000000 -1.000000 0.000000
vn 0.000000 -1.000000 0.000000
vn 0.000000 -1.000000 0.000000
vn -0.772942 0.634411 -0.009072
vn -0.772942 0.634411 -0.009072
vn -0.772942 0.634411 -0.009072
vn -0.772942 0.634411 -0.009072
vn -0.119615 -0.992820 0.000000
vn -0.119615 -0.992820 0.000000
vn -0.119615 -0.992820 0.000000
vn -0.119615 -0.992820 0.000000
vn 0.810416 -0.585856 0.000000
vn 0.810416 -0.585856 0.000000
vn 0.810416 -0.585856 0.000000
vn 0.810416 -0.585856 0.000000
vn 0.805007 -0.593127 0.012773
vn 0.805007 -0.593127 0.012773
vn 0.805007 -0.593127 0.012773
vn 0.805007 -0.593127 0.012773
vn 0.161507 0.986872 0.000000
vn 0.161507 0.986872 0.000000
vn 0.161507 0.986872 0.000000
vn 0.161507 0.986872 0.000000
vn -0.741957 0.670447 0.000000
vn -0.741957 0.670447 0.000000
vn -0.741957 0.670447 0.000000
vn -0.741957 0.670447 0.000000
vn -0.999979 -0.006492 0.000000
vn -0.999979 -0.006492 0.000000
vn -0.999979 -0.006492 0.000000
vn -0.999979 -0.006492 0.000000
vn -0.000000 0.000001 -1.000000
vn -0.000000 0.000001 -1.000000
vn -0.000000 0.000001 -1.000000
vn -0.000000 0.000001 -1.000000
vn -0.000000 0.000000 1.000000
vn -0.000000 0.000000 1.000000
vn -0.000000 0.000000 1.000000
vn -0.000000 0.000000 1.000000
vn 0.000000 -0.000000 -1.000000
vn 0.000000 -0.000000 -1.000000
vn 0.000000 -0.000000 -1.000000
vn 0.000000 -0.000000 -1.000000
vn 0.000000 -0.000000 1.000000
vn 0.000000 -0.000000 1.000000
vn 0.000000 -0.000000 1.000000
vn 0.000000 -0.000000 1.000000
vn 0.000000 0.000000 -1.000000
vn 0.000000 0.000000 -1.000000
vn 0.000000 0.000000 -1.000000
vn 0.000000 0.000000 -1.000000
vn -0.736523 -0.676412 -0.000001
vn -0.736523 -0.676412 -0.000001
vn -0.736523 -0.676412 -0.000001
vn -0.736523 -0.676412 -0.000001
vn 0.000000 0.000000 1.000000
vn 0.000000 0.000000 1.000000
vn 0.000000 0.000000 1.000000
vn 0.000000 0.000000 1.000000
vn -0.938440 -0.344650 0.023376
vn -0.938440 -0.344650 0.023376
vn -0.938440 -0.344650 0.023376
vn -0.938440 -0.344650 0.023376
vn 0.957402 0.288324 -0.015848
vn 0.957402 0.288324 -0.015848
vn 0.957402 0.288324 -0.015848
vn 0.957402 0.288324 -0.015848
vn -0.000000 0.000000 -1.000000
vn -0.000000 0.000000 -1.000000
vn -0.000000 0.000000 -1.000000
vn -0.000000 0.000000 -1.000000
vn -0.000000 0.000001 1.000000
vn -0.000000 0.000001 1.000000
vn -0.000000 0.000001 1.000000
vn -0.000000 0.000001 1.000000
vn -0.892260 0.450667 -0.027787
vn -0.892260 0.450667 -0.027787
vn -0.892260 0.450667 -0.027787
vn -0.892260 0.450667 -0.027787
vn 0.882831 -0.468356 0.035400
vn 0.882831 -0.468356 0.035400
vn 0.882831 -0.468356 0.035400
vn 0.882831 -0.468356 0.035400
vn -0.000000 0.000001 -1.000000
vn -0.000000 0.000001 -1.000000
vn -0.000000 0.000001 -1.000000
vn -0.000000 0.000001 -1.000000
vn -0.000000 0.000001 1.000000
vn -0.000000 0.000001 1.000000
vn -0.000000 0.000001 1.000000
vn -0.000000 0.000001 1.000000
s off
f 16/17/1 9/18/2 81/81/3 74/74/4
f 15/19/5 16/17/6 74/74/7 75/75/8
f 14/20/9 15/19/10 75/75/11 76/76/12
f 13/28/13 14/20/14 76/76/15 77/77/16
f 12/26/17 13/28/18 77/77/19 78/78/20
f 11/24/21 12/26/22 78/78/23 79/79/24
f 10/21/25 11/24/26 79/79/27 80/80/28
f 80/80/29 81/81/30 9/18/31 10/21/32
f 18/2/33 17/1/34 1/9/35 2/16/36
f 19/3/37 18/2/38 2/16/39 3/15/40
f 20/4/41 19/3/42 3/15/43 4/14/44
f 21/5/45 20/4/46 4/14/47 5/13/48
f 22/6/49 21/5/50 5/13/51 6/12/52
f 23/7/53 22/6/54 6/12/55 7/11/56
f 24/8/57 23/7/58 7/11/59 8/10/60
f 1/9/61 17/1/62 24/8/63 8/10/64
f 10/21/65 9/18/66 25/22/67 26/23/68
f 11/24/69 10/21/70 26/23/71 27/25/72
f 12/26/73 11/24/74 27/25/75 28/27/76
f 13/28/77 12/26/78 28/27/79 29/29/80
f 14/20/81 13/28/82 29/29/83 30/30/84
f 15/19/85 14/20/86 30/30/87 31/31/88
f 16/17/89 15/19/90 31/31/91 32/32/92
f 9/18/93 16/17/94 32/32/95 25/22/96
f 26/23/97 25/22/98 33/33/99 34/34/100
f 27/25/101 26/23/102 34/34/103 35/35/104
f 28/27/105 27/25/106 35/35/107 36/36/108
f 29/29/109 28/27/110 36/36/111 37/37/112
f 30/30/113 29/29/114 37/37/115 38/38/116
f 31/31/117 30/30/118 38/38/119 39/39/120
f 32/32/121 31/31/122 39/39/123 40/40/124
f 25/22/125 32/32/126 40/40/127 33/33/128
f 34/34/129 33/33/130 41/41/131 42/42/132
f 35/35/133 34/34/134 42/42/135 43/43/136
f 36/36/137 35/35/138 43/43/139 44/44/140
f 37/37/141 36/36/142 44/44/143 45/45/144
f 38/38/145 37/37/146 45/45/147 46/46/148
f 39/39/149 38/38/150 46/46/151 47/47/152
f 40/40/153 39/39/154 47/47/155 48/48/156
f 33/33/157 40/40/158 48/48/159 41/41/160
f 42/42/161 41/41/162 49/49/163 50/50/164
f 43/43/165 42/42/166 50/50/167 51/51/168
f 44/44/169 43/43/170 51/51/171 52/52/172
f 45/45/173 44/44/174 52/52/175 53/53/176
f 46/46/177 45/45/178 53/53/179 54/54/180
f 47/47/181 46/46/182 54/54/183 55/55/184
f 48/48/185 47/47/186 55/55/187 56/56/188
f 41/41/189 48/48/190 56/56/191 49/49/192
f 50/50/193 49/49/194 57/57/195 58/58/196
f 51/51/197 50/50/198 58/58/199 59/59/200
f 52/52/201 51/51/202 59/59/203 60/60/204
f 53/53/205 52/52/206 60/60/207 61/61/208
f 54/54/209 53/53/210 61/61/211 62/62/212
f 55/55/213 54/54/214 62/62/215 63/63/216
f 56/56/217 55/55/218 63/63/219 64/64/220
f 49/49/221 56/56/222 64/64/223 57/57/224
f 58/58/225 57/57/226 65/65/227 66/66/228
f 59/59/229 58/58/230 66/66/231 67/67/232
f 60/60/233 59/59/234 67/67/235 68/68/236
f 61/61/237 60/60/238 68/68/239 69/69/240
f 62/62/241 61/61/242 69/69/243 70/70/244
f 63/63/245 62/62/246 70/70/247 71/71/248
f 64/64/249 63/63/250 71/71/251 72/72/252
f 57/57/253 64/64/254 72/72/255 65/65/256
f 66/66/257 65/65/258 73/73/259
f 67/67/260 66/66/261 73/73/262
f 68/68/263 67/67/264 73/73/265
f 69/69/266 68/68/267 73/73/268
f 70/70/269 69/69/270 73/73/271
f 71/71/272 70/70/273 73/73/274
f 72/72/275 71/71/276 73/73/277
f 65/65/278 72/72/279 73/73/280
f 75/75/281 74/74/282 18/2/283 19/3/284
f 76/76/285 75/75/286 19/3/287 20/4/288
f 77/77/289 76/76/290 20/4/291 21/5/292
f 78/78/293 77/77/294 21/5/295 22/6/296
f 79/79/297 78/78/298 22/6/299 23/7/300
f 80/80/301 79/79/302 23/7/303 24/8/304
f 17/1/305 81/81/306 80/80/307 24/8/308
f 74/74/309 81/81/310 17/1/311 18/2/312
f 1/9/313 8/10/314 82/82/315
f 8/10/316 7/11/317 82/82/318
f 7/11/319 6/12/320 82/82/321
f 6/12/322 5/13/323 82/82/324
f 5/13/325 4/14/326 82/82/327
f 4/14/328 3/15/329 82/82/330
f 3/15/331 2/16/332 82/82/333
f 2/16/334 1/9/335 82/82/336
f 91/83/337 106/84/338 105/85/339 92/86/340
f 94/87/341 96/88/342 95/89/343 93/90/344
f 96/88/345 98/91/346 97/92/347 95/89/348
f 87/93/349 88/94/350 104/95/351 103/96/352
f 86/97/353 85/98/354 89/99/355 90/100/356
f 90/100/357 89/99/358 84/101/359 83/102/360
f 87/103/361 91/83/362 92/86/363 88/104/364
f 88/104/365 92/86/366 105/85/367 104/105/368
f 86/106/369 94/87/370 102/107/371 99/108/372
f 85/109/373 93/90/374 95/89/375 89/110/376
f 90/111/377 96/88/378 94/87/379 86/106/380
f 89/110/381 95/89/382 97/92/383 84/112/384
f 84/112/385 97/92/386 98/91/387 83/113/388
f 83/113/389 98/91/390 96/88/391 90/111/392
f 101/114/393 102/107/394 94/87/395 93/90/396
f 99/115/397 100/116/398 85/98/399 86/97/400
f 100/117/401 101/114/402 93/90/403 85/109/404
f 99/108/405 102/107/406 106/84/407 103/118/408
f 105/85/409 106/84/410 102/107/411 101/114/412
f 103/96/413 104/95/414 100/116/415 99/115/416
f 104/105/417 105/85/418 101/114/419 100/117/420
f 103/118/421 106/84/422 91/83/423 87/103/424
