# This file uses centimeters as units for non-parametric coordinates.

v 1.276091 -0.341928 1.321107
v -1.276092 0.341928 1.321107
v 1.276091 -0.341928 -1.321107
v -1.276092 0.341928 -1.321107
v -1.876967 -8.744762 1.321107
v -4.305277 -7.703319 1.321107
v -4.305277 -7.703319 -1.321107
v -1.876967 -8.744762 -1.321107
v -2.411931 -13.731305 1.321107
v -4.865419 -14.711971 1.321107
v -4.865419 -14.711971 -1.321107
v -2.411931 -13.731305 -1.321107
v 0.904555 -16.094000 1.321107
v 0.099505 -18.610582 1.321107
v 0.099505 -18.610582 -1.321107
v 0.904555 -16.094000 -1.321107
v 4.548804 -14.543956 1.077711
v 5.963178 -16.170424 1.077711
v 5.963178 -16.170424 -1.077711
v 4.548804 -14.543956 -1.077711
v 8.239412 -10.621119 -0.000000
v 1.876967 8.744762 1.321107
v 4.305277 7.703320 1.321107
v 4.305277 7.703320 -1.321107
v 1.876967 8.744762 -1.321107
v 2.411931 13.731306 1.321107
v 4.865419 14.711973 1.321107
v 4.865419 14.711973 -1.321107
v 2.411931 13.731306 -1.321107
v 0.423303 15.909006 1.321107
v 0.933523 18.501490 1.321107
v 0.933523 18.501490 -1.321107
v 0.423303 15.909006 -1.321107
v -3.753944 15.618200 1.016868
v -5.109961 17.133886 1.016868
v -5.109961 17.133886 -1.016868
v -3.753944 15.618200 -1.016868
v -7.015592 11.116674 0.000000
vt 0.080913 0.277100
vt 0.080913 0.277100
vt 0.080913 0.277100
vt 0.080913 0.277100
vt 0.080913 0.277100
vt 0.080913 0.277100
vt 0.080913 0.277100
vt 0.080913 0.277100
vt 0.080913 0.277100
vt 0.080913 0.277100
vt 0.080913 0.277100
vt 0.080913 0.277100
vt 0.080913 0.277100
vt 0.080913 0.277100
vt 0.080913 0.277100
vt 0.080913 0.277100
vt 0.080913 0.277100
vt 0.080913 0.277100
vt 0.080913 0.277100
vt 0.080913 0.277100
vt 0.080913 0.277100
vt 0.080913 0.277100
vt 0.080913 0.277100
vt 0.080913 0.277100
vt 0.080913 0.277100
vt 0.080913 0.277100
vt 0.080913 0.277100
vt 0.080913 0.277100
vt 0.080913 0.277100
vt 0.080913 0.277100
vt 0.080913 0.277100
vt 0.080913 0.277100
vt 0.080913 0.277100
vt 0.080913 0.277100
vt 0.080913 0.277100
vt 0.080913 0.277100
vt 0.080913 0.277100
vt 0.080913 0.277100
vt 0.080913 0.277100
vt 0.080913 0.277100
vt 0.080913 0.277100
vt 0.080913 0.277100
vn 0.000000 0.000000 1.000000
vn 0.000000 0.000000 1.000000
vn 0.000000 0.000000 1.000000
vn 0.000000 0.000000 1.000000
vn -0.935861 0.352369 -0.000000
vn -0.935861 0.352369 -0.000000
vn -0.935861 0.352369 -0.000000
vn -0.935861 0.352369 -0.000000
vn -0.000000 -0.000000 -1.000000
vn -0.000000 -0.000000 -1.000000
vn -0.000000 -0.000000 -1.000000
vn -0.000000 -0.000000 -1.000000
vn 0.936256 -0.351318 0.000000
vn 0.936256 -0.351318 0.000000
vn 0.936256 -0.351318 0.000000
vn 0.936256 -0.351318 0.000000
vn 0.000000 0.000000 1.000000
vn 0.000000 0.000000 1.000000
vn 0.000000 0.000000 1.000000
vn 0.000000 0.000000 1.000000
vn -0.996822 0.079668 -0.000000
vn -0.996822 0.079668 -0.000000
vn -0.996822 0.079668 -0.000000
vn -0.996822 0.079668 -0.000000
vn 0.000000 0.000000 -1.000000
vn 0.000000 0.000000 -1.000000
vn 0.000000 0.000000 -1.000000
vn 0.000000 0.000000 -1.000000
vn 0.994295 -0.106669 0.000000
vn 0.994295 -0.106669 0.000000
vn 0.994295 -0.106669 0.000000
vn 0.994295 -0.106669 0.000000
vn 0.000000 0.000000 1.000000
vn 0.000000 0.000000 1.000000
vn 0.000000 0.000000 1.000000
vn 0.000000 0.000000 1.000000
vn -0.708309 -0.705902 -0.000000
vn -0.708309 -0.705902 -0.000000
vn -0.708309 -0.705902 -0.000000
vn -0.708309 -0.705902 -0.000000
vn 0.000000 0.000000 -1.000000
vn 0.000000 0.000000 -1.000000
vn 0.000000 0.000000 -1.000000
vn 0.000000 0.000000 -1.000000
vn 0.704274 0.709929 0.000000
vn 0.704274 0.709929 0.000000
vn 0.704274 0.709929 0.000000
vn 0.704274 0.709929 0.000000
vn -0.000000 -0.000000 1.000000
vn -0.000000 -0.000000 1.000000
vn -0.000000 -0.000000 1.000000
vn -0.000000 -0.000000 1.000000
vn -0.011048 -0.999939 -0.000000
vn -0.011048 -0.999939 -0.000000
vn -0.011048 -0.999939 -0.000000
vn -0.011048 -0.999939 -0.000000
vn 0.000000 0.000000 -1.000000
vn 0.000000 0.000000 -1.000000
vn 0.000000 0.000000 -1.000000
vn 0.000000 0.000000 -1.000000
vn 0.010316 0.999947 0.000000
vn 0.010316 0.999947 0.000000
vn 0.010316 0.999947 0.000000
vn 0.010316 0.999947 0.000000
vn 0.000000 0.000000 1.000000
vn 0.000000 0.000000 1.000000
vn 0.000000 0.000000 1.000000
vn 0.814323 -0.580412 -0.000000
vn 0.814323 -0.580412 -0.000000
vn 0.814323 -0.580412 -0.000000
vn 0.000000 0.000000 -1.000000
vn 0.000000 0.000000 -1.000000
vn 0.000000 0.000000 -1.000000
vn -0.859935 0.510403 0.000000
vn -0.859935 0.510403 0.000000
vn -0.859935 0.510403 0.000000
vn -0.000000 -0.000000 1.000000
vn -0.000000 -0.000000 1.000000
vn -0.000000 -0.000000 1.000000
vn -0.000000 -0.000000 1.000000
vn 0.935861 -0.352369 -0.000000
vn 0.935861 -0.352369 -0.000000
vn 0.935861 -0.352369 -0.000000
vn 0.935861 -0.352369 -0.000000
vn 0.000000 0.000000 -1.000000
vn 0.000000 0.000000 -1.000000
vn 0.000000 0.000000 -1.000000
vn 0.000000 0.000000 -1.000000
vn -0.936256 0.351318 0.000000
vn -0.936256 0.351318 0.000000
vn -0.936256 0.351318 0.000000
vn -0.936256 0.351318 0.000000
vn -0.000000 -0.000000 1.000000
vn -0.000000 -0.000000 1.000000
vn -0.000000 -0.000000 1.000000
vn -0.000000 -0.000000 1.000000
vn 0.996822 -0.079668 0.000000
vn 0.996822 -0.079668 0.000000
vn 0.996822 -0.079668 0.000000
vn 0.996822 -0.079668 0.000000
vn -0.000000 -0.000000 -1.000000
vn -0.000000 -0.000000 -1.000000
vn -0.000000 -0.000000 -1.000000
vn -0.000000 -0.000000 -1.000000
vn -0.994295 0.106669 -0.000000
vn -0.994295 0.106669 -0.000000
vn -0.994295 0.106669 -0.000000
vn -0.994295 0.106669 -0.000000
vn -0.000000 -0.000000 1.000000
vn -0.000000 -0.000000 1.000000
vn -0.000000 -0.000000 1.000000
vn -0.000000 -0.000000 1.000000
vn 0.708309 0.705902 0.000000
vn 0.708309 0.705902 0.000000
vn 0.708309 0.705902 0.000000
vn 0.708309 0.705902 0.000000
vn -0.000000 -0.000000 -1.000000
vn -0.000000 -0.000000 -1.000000
vn -0.000000 -0.000000 -1.000000
vn -0.000000 -0.000000 -1.000000
vn -0.704274 -0.709929 -0.000000
vn -0.704274 -0.709929 -0.000000
vn -0.704274 -0.709929 -0.000000
vn -0.704274 -0.709929 -0.000000
vn -0.000000 -0.000000 1.000000
vn -0.000000 -0.000000 1.000000
vn -0.000000 -0.000000 1.000000
vn -0.000000 -0.000000 1.000000
vn 0.011048 0.999939 0.000000
vn 0.011048 0.999939 0.000000
vn 0.011048 0.999939 0.000000
vn 0.011048 0.999939 0.000000
vn 0.000000 0.000000 -1.000000
vn 0.000000 0.000000 -1.000000
vn 0.000000 0.000000 -1.000000
vn 0.000000 0.000000 -1.000000
vn -0.010316 -0.999947 -0.000000
vn -0.010316 -0.999947 -0.000000
vn -0.010316 -0.999947 -0.000000
vn -0.010316 -0.999947 -0.000000
vn -0.000000 -0.000000 1.000000
vn -0.000000 -0.000000 1.000000
vn -0.000000 -0.000000 1.000000
vn -0.814323 0.580412 0.000000
vn -0.814323 0.580412 0.000000
vn -0.814323 0.580412 0.000000
vn 0.000000 0.000000 -1.000000
vn 0.000000 0.000000 -1.000000
vn 0.000000 0.000000 -1.000000
vn 0.859935 -0.510403 -0.000000
vn 0.859935 -0.510403 -0.000000
vn 0.859935 -0.510403 -0.000000
s off
f 1/2/1 2/1/2 6/6/3 5/5/4
f 2/1/5 4/3/6 7/7/7 6/6/8
f 4/3/9 3/4/10 8/8/11 7/7/12
f 3/4/13 1/2/14 5/5/15 8/8/16
f 5/5/17 6/6/18 10/10/19 9/9/20
f 6/6/21 7/7/22 11/11/23 10/10/24
f 7/7/25 8/8/26 12/12/27 11/11/28
f 8/8/29 5/5/30 9/9/31 12/12/32
f 9/9/33 10/10/34 14/14/35 13/13/36
f 10/10/37 11/11/38 15/15/39 14/14/40
f 11/11/41 12/12/42 16/16/43 15/15/44
f 12/12/45 9/9/46 13/13/47 16/16/48
f 13/13/49 14/14/50 18/18/51 17/17/52
f 14/14/53 15/15/54 19/19/55 18/18/56
f 15/15/57 16/16/58 20/20/59 19/19/60
f 16/16/61 13/13/62 17/17/63 20/20/64
f 17/17/65 18/18/66 21/21/67
f 18/18/68 19/19/69 21/21/70
f 19/19/71 20/20/72 21/21/73
f 20/20/74 17/17/75 21/21/76
f 2/23/77 1/24/78 23/25/79 22/26/80
f 1/24/81 3/27/82 24/28/83 23/25/84
f 3/27/85 4/29/86 25/30/87 24/28/88
f 4/29/89 2/23/90 22/26/91 25/30/92
f 22/26/93 23/25/94 27/31/95 26/32/96
f 23/25/97 24/28/98 28/33/99 27/31/100
f 24/28/101 25/30/102 29/34/103 28/33/104
f 25/30/105 22/26/106 26/32/107 29/34/108
f 26/32/109 27/31/110 31/35/111 30/36/112
f 27/31/113 28/33/114 32/37/115 31/35/116
f 28/33/117 29/34/118 33/38/119 32/37/120
f 29/34/121 26/32/122 30/36/123 33/38/124
f 30/36/125 31/35/126 35/39/127 34/40/128
f 31/35/129 32/37/130 36/41/131 35/39/132
f 32/37/133 33/38/134 37/42/135 36/41/136
f 33/38/137 30/36/138 34/40/139 37/42/140
f 34/40/141 35/39/142 38/22/143
f 35/39/144 36/41/145 38/22/146
f 36/41/147 37/42/148 38/22/149
f 37/42/150 34/40/151 38/22/152
