# This file uses centimeters as units for non-parametric coordinates.

v -4.239975 0.000000 9.927805
v -3.943665 0.950029 10.356974
v -4.772339 0.935722 9.510658
v 4.772339 0.935722 9.510658
v 4.239975 0.000000 9.927805
v -3.780823 5.011042 8.265879
v -2.952309 5.066389 9.046984
v -3.132571 5.752483 8.186889
v 3.116621 5.752483 8.186889
v 2.944336 5.057949 9.049669
v 3.780823 5.011042 8.265879
v -3.781914 5.006547 -8.262468
v -3.132571 5.752483 -8.186848
v -2.952309 5.066389 -9.046984
v 2.952309 5.066389 -9.046984
v 3.781914 5.006547 -8.262468
v -4.772339 0.935722 -9.510660
v -3.927849 0.964254 -10.352446
v -4.239975 0.000000 -9.927805
v 4.239975 0.000000 -9.927805
v 3.943665 0.950029 -10.356974
v 4.772339 0.935722 -9.510660
v 1.172821 0.959276 10.354029
v 3.583618 2.397048 9.896475
v 3.120177 5.752483 -2.459330
v 0.932955 5.752483 -8.190135
v -3.074362 5.752483 -2.018450
v -3.918541 4.444969 -0.520830
v -4.674469 1.335343 -0.143440
v -4.239975 0.000000 0.100946
v 2.328748 5.752483 7.163340
v -2.343805 5.752483 7.163340
v 2.331402 5.752483 -2.152122
v -2.300280 5.752483 -1.766350
v 0.696011 5.752483 -7.166586
v -2.343805 5.752483 -7.163708
v 1.525042 5.166490 6.415827
v -1.539186 5.166490 6.415827
v 1.526783 5.166490 -1.927763
v -1.510642 5.166490 -1.582238
v 0.454305 5.166490 -6.419074
v -1.539186 5.166490 -6.416496
v 1.719759 5.166490 -6.314271
v 2.504006 5.493332 -6.964996
v 3.301970 5.279763 -7.404136
vt 0.049144 0.211814
vt 0.049182 0.211740
vt 0.048998 0.211038
vt 0.048966 0.211070
vt 0.049132 0.211786
vt 0.048527 0.211852
vt 0.049059 0.211488
vt 0.049112 0.211452
vt 0.048478 0.211779
vt 0.048521 0.211087
vt 0.048491 0.211057
vt 0.048543 0.211478
vt 0.048608 0.211510
vt 0.049044 0.211402
vt 0.048911 0.210847
vt 0.048961 0.210878
vt 0.048611 0.211422
vt 0.048529 0.210894
vt 0.048910 0.210857
vt 0.048948 0.211016
vt 0.048578 0.210865
vt 0.048535 0.211032
vt 0.048839 0.211801
vt 0.048577 0.211663
vt 0.048599 0.211140
vt 0.048748 0.210852
vt 0.048961 0.211056
vt 0.049039 0.211173
vt 0.049135 0.211561
vt 0.049056 0.211446
vt 0.049044 0.211402
vt 0.048611 0.211422
vt 0.048599 0.211140
vt 0.048961 0.211056
vt 0.048748 0.210852
vt 0.048911 0.210847
vt 0.049044 0.211402
vt 0.048611 0.211422
vt 0.048599 0.211140
vt 0.048961 0.211056
vt 0.048748 0.210852
vt 0.048911 0.210847
vt 0.048672 0.210999
vt 0.048671 0.211000
vt 0.048684 0.210975
vn -0.918675 -0.394810 -0.012714
vn -0.918675 -0.394810 -0.012714
vn -0.918675 -0.394810 -0.012714
vn -0.918675 -0.394810 -0.012714
vn 0.227945 0.075104 0.970773
vn 0.227945 0.075104 0.970773
vn 0.227945 0.075104 0.970773
vn 0.227945 0.075104 0.970773
vn -0.660194 0.364603 0.656665
vn -0.660194 0.364603 0.656665
vn -0.660194 0.364603 0.656665
vn -0.660194 0.364603 0.656665
vn 0.869176 -0.494504 0.000000
vn 0.869176 -0.494504 0.000000
vn 0.869176 -0.494504 0.000000
vn 0.869176 -0.494504 0.000000
vn -0.813301 0.581676 -0.013932
vn -0.813301 0.581676 -0.013932
vn -0.813301 0.581676 -0.013932
vn -0.813301 0.581676 -0.013932
vn 0.000404 0.780355 0.625337
vn 0.000404 0.780355 0.625337
vn 0.000404 0.780355 0.625337
vn 0.000404 0.780355 0.625337
vn 0.245151 0.953375 -0.176002
vn 0.245151 0.953375 -0.176002
vn 0.245151 0.953375 -0.176002
vn 0.245151 0.953375 -0.176002
vn -0.658768 0.364163 -0.658339
vn -0.658768 0.364163 -0.658339
vn -0.658768 0.364163 -0.658339
vn -0.658768 0.364163 -0.658339
vn 0.661081 0.364877 -0.655620
vn 0.661081 0.364877 -0.655620
vn 0.661081 0.364877 -0.655620
vn 0.661081 0.364877 -0.655620
vn -0.000607 -0.407336 -0.913278
vn -0.000607 -0.407336 -0.913278
vn -0.000607 -0.407336 -0.913278
vn -0.000607 -0.407336 -0.913278
vn 0.000000 0.303254 -0.952910
vn 0.000000 0.303254 -0.952910
vn 0.000000 0.303254 -0.952910
vn 0.000000 0.303254 -0.952910
vn 0.000000 -1.000000 0.000000
vn 0.000000 -1.000000 0.000000
vn 0.000000 -1.000000 0.000000
vn 0.971655 0.236402 -0.000000
vn 0.971655 0.236402 -0.000000
vn 0.971655 0.236402 -0.000000
vn 0.971655 0.236402 -0.000000
vn -0.971677 0.236313 -0.000033
vn -0.971677 0.236313 -0.000033
vn -0.971677 0.236313 -0.000033
vn -0.971677 0.236313 -0.000033
vn -0.710601 -0.093397 0.697368
vn -0.710601 -0.093397 0.697368
vn -0.710601 -0.093397 0.697368
vn -0.582931 0.571224 0.577836
vn -0.582931 0.571224 0.577836
vn -0.582931 0.571224 0.577836
vn 0.575367 0.577167 0.579509
vn 0.575367 0.577167 0.579509
vn 0.575367 0.577167 0.579509
vn -0.586360 0.568891 -0.576667
vn -0.586360 0.568891 -0.576667
vn -0.586360 0.568891 -0.576667
vn -0.702039 -0.084168 -0.707147
vn -0.702039 -0.084168 -0.707147
vn -0.702039 -0.084168 -0.707147
vn 0.710601 -0.093398 -0.697369
vn 0.710601 -0.093398 -0.697369
vn 0.710601 -0.093398 -0.697369
vn 0.000000 0.303254 0.952910
vn 0.000000 0.303254 0.952910
vn 0.000000 0.303254 0.952910
vn 0.000475 -0.408281 0.912856
vn 0.000475 -0.408281 0.912856
vn 0.000475 -0.408281 0.912856
vn 0.000475 -0.408281 0.912856
vn 0.654103 0.364200 0.662954
vn 0.654103 0.364200 0.662954
vn 0.654103 0.364200 0.662954
vn 0.654103 0.364200 0.662954
vn 0.000000 1.000000 0.000000
vn 0.000000 1.000000 0.000000
vn 0.000000 1.000000 0.000000
vn 0.000000 1.000000 0.000000
vn 0.746489 0.665398 0.000018
vn 0.746489 0.665398 0.000018
vn 0.746489 0.665398 0.000018
vn 0.746489 0.665398 0.000018
vn -0.000206 0.781050 -0.624468
vn -0.000206 0.781050 -0.624468
vn -0.000206 0.781050 -0.624468
vn -0.000206 0.781050 -0.624468
vn 0.000000 1.000000 0.000000
vn 0.000000 1.000000 0.000000
vn 0.000000 1.000000 0.000000
vn 0.000000 1.000000 0.000000
vn 0.000000 1.000000 0.000000
vn -0.802064 0.596917 0.019577
vn -0.802064 0.596917 0.019577
vn -0.802064 0.596917 0.019577
vn -0.802064 0.596917 0.019577
vn -0.971676 0.236316 0.000036
vn -0.971676 0.236316 0.000036
vn -0.971676 0.236316 0.000036
vn -0.971676 0.236316 0.000036
vn -0.919666 -0.392496 0.012727
vn -0.919666 -0.392496 0.012727
vn -0.919666 -0.392496 0.012727
vn -0.919666 -0.392496 0.012727
vn 0.000000 -1.000000 0.000000
vn 0.000000 -1.000000 0.000000
vn 0.000000 -1.000000 0.000000
vn 0.000000 -1.000000 0.000000
vn 0.000000 0.303254 0.952910
vn 0.000000 0.303254 0.952910
vn 0.000000 0.303254 0.952910
vn 0.000000 0.303254 0.952910
vn 0.000000 1.000000 -0.000000
vn 0.000000 1.000000 -0.000000
vn 0.000000 1.000000 -0.000000
vn 0.000000 1.000000 -0.000000
vn 0.000000 1.000000 0.000000
vn 0.000000 1.000000 0.000000
vn 0.000000 1.000000 0.000000
vn 0.000000 1.000000 0.000000
vn 0.000000 1.000000 0.000000
vn 0.000000 1.000000 0.000000
vn 0.000000 1.000000 0.000000
vn 0.000000 1.000000 0.000000
vn 0.176816 0.984069 -0.018581
vn 0.176816 0.984069 -0.018581
vn 0.176816 0.984069 -0.018581
vn 0.176816 0.984069 -0.018581
vn 0.000000 1.000000 0.000000
vn 0.000000 1.000000 0.000000
vn 0.000000 1.000000 0.000000
vn 0.000000 1.000000 0.000000
vn 0.000000 1.000000 0.000000
vn 0.000000 1.000000 0.000000
vn 0.000000 1.000000 0.000000
vn 0.000000 1.000000 0.000000
vn 0.000000 0.787002 -0.616951
vn 0.000000 0.787002 -0.616951
vn 0.000000 0.787002 -0.616951
vn 0.000000 0.787002 -0.616951
vn -0.588895 0.808209 -0.000147
vn -0.588895 0.808209 -0.000147
vn -0.588895 0.808209 -0.000147
vn -0.588895 0.808209 -0.000147
vn 0.592882 0.805285 0.002524
vn 0.592882 0.805285 0.002524
vn 0.592882 0.805285 0.002524
vn 0.592882 0.805285 0.002524
vn 0.014918 0.832214 0.554255
vn 0.014918 0.832214 0.554255
vn 0.014918 0.832214 0.554255
vn 0.014918 0.832214 0.554255
vn 0.000669 0.787064 0.616871
vn 0.000669 0.787064 0.616871
vn 0.000669 0.787064 0.616871
vn 0.000669 0.787064 0.616871
vn 0.593885 0.804539 -0.004183
vn 0.593885 0.804539 -0.004183
vn 0.593885 0.804539 -0.004183
vn 0.593885 0.804539 -0.004183
vn -0.516019 0.855415 -0.044604
vn -0.516019 0.855415 -0.044604
vn -0.516019 0.855415 -0.044604
vn -0.516019 0.855415 -0.044604
vn 0.100279 0.992437 -0.070795
vn 0.100279 0.992437 -0.070795
vn 0.100279 0.992437 -0.070795
vn 0.100279 0.992437 -0.070795
vn 0.391118 0.917415 -0.073325
vn 0.391118 0.917415 -0.073325
vn 0.391118 0.917415 -0.073325
s off
f 1/1/1 3/2/2 29/29/3 30/30/4
f 24/24/5 23/23/6 5/6/7 4/9/8
f 3/2/9 2/5/10 7/7/11 6/8/12
f 4/9/13 5/6/14 20/10/15 22/11/16
f 6/8/17 8/14/18 27/27/19 28/28/20
f 8/14/21 7/7/22 10/13/23 9/17/24
f 26/26/25 45/45/26 16/18/27 15/21/28
f 12/16/29 14/19/30 18/20/31 17/3/32
f 15/21/33 16/18/34 22/11/35 21/22/36
f 19/4/37 18/20/38 21/22/39 20/10/40
f 14/19/41 15/21/42 21/22/43 18/20/44
f 30/30/45 5/6/46 1/1/47
f 4/9/48 22/11/49 16/18/50 11/12/51
f 28/28/52 29/29/53 3/2/54 6/8/55
f 1/1/56 2/5/57 3/2/58
f 6/8/59 7/7/60 8/14/61
f 9/17/62 10/13/63 11/12/64
f 12/16/65 13/15/66 14/19/67
f 17/3/68 18/20/69 19/4/70
f 20/10/71 21/22/72 22/11/73
f 7/7/74 24/24/75 10/13/76
f 2/5/77 1/1/78 5/6/79 23/23/80
f 24/24/81 4/9/82 11/12/83 10/13/84
f 38/37/85 37/38/86 39/39/87 40/40/88
f 9/17/89 11/12/90 16/18/91 25/25/92
f 14/19/93 13/15/94 26/26/95 15/21/96
f 40/40/97 39/39/98 43/43/99 41/41/100 42/42/101
f 28/28/102 27/27/103 13/15/104 12/16/105
f 17/3/106 29/29/107 28/28/108 12/16/109
f 30/30/110 29/29/111 17/3/112 19/4/113
f 19/4/114 20/10/115 5/6/116 30/30/117
f 2/5/118 23/23/119 24/24/120 7/7/121
f 8/14/122 9/17/123 31/32/124 32/31/125
f 9/17/126 25/25/127 33/33/128 31/32/129
f 27/27/130 8/14/131 32/31/132 34/34/133
f 44/44/134 45/45/135 26/26/136 35/35/137
f 26/26/138 13/15/139 36/36/140 35/35/141
f 13/15/142 27/27/143 34/34/144 36/36/145
f 32/31/146 31/32/147 37/38/148 38/37/149
f 31/32/150 33/33/151 39/39/152 37/38/153
f 34/34/154 32/31/155 38/37/156 40/40/157
f 43/43/158 44/44/159 35/35/160 41/41/161
f 35/35/162 36/36/163 42/42/164 41/41/165
f 36/36/166 34/34/167 40/40/168 42/42/169
f 33/33/170 44/44/171 43/43/172 39/39/173
f 25/25/174 45/45/175 44/44/176 33/33/177
f 16/18/178 45/45/179 25/25/180
