# This file uses centimeters as units for non-parametric coordinates.

v -1.536032 0.000000 3.708309
v 1.536031 0.000000 3.708310
v 3.708308 0.000000 1.536031
v 3.708308 0.000000 -1.536031
v 1.536030 0.000000 -3.708309
v -1.536032 0.000000 -3.708310
v -3.708310 0.000000 -1.536031
v -3.708310 0.000000 1.536031
v -2.093991 1.693167 5.055338
v 2.093990 1.693167 5.055338
v 5.055338 1.693167 2.093990
v 5.055339 1.693167 -2.093991
v 2.093990 1.693167 -5.055338
v -2.093991 1.693167 -5.055338
v -5.055340 1.693167 -2.093991
v -5.055340 1.693167 2.093991
v -2.148682 11.070588 5.187377
v 2.148680 11.070588 5.187377
v 5.187376 11.070588 2.148681
v 5.187376 11.070588 -2.148681
v 2.148680 11.070588 -5.187377
v -2.148681 11.070588 -5.187377
v -5.187378 11.070588 -2.148681
v -5.187377 11.070588 2.148681
v -2.082293 13.628365 5.027099
v 2.082292 13.628365 5.027099
v 5.027098 13.628365 2.082292
v 5.027098 13.628365 -2.082291
v 2.082292 13.628365 -5.027099
v -2.082293 13.628365 -5.027099
v -5.027100 13.628365 -2.082292
v -5.027100 13.628365 2.082292
v -2.081803 12.146345 5.025915
v 2.081801 12.146345 5.025914
v 5.025913 12.146345 2.081802
v 5.025913 12.146345 -2.081802
v 2.081801 12.146345 -5.025915
v -2.081802 12.146345 -5.025914
v -5.025915 12.146345 -2.081802
v -5.025913 12.146345 2.081802
v -1.967595 13.313885 4.750193
v 1.967593 13.313885 4.750191
v 4.750192 13.313885 1.967594
v 4.750190 13.313885 -1.967593
v 1.967593 13.313885 -4.750191
v -1.967594 13.313885 -4.750191
v -4.750193 13.313885 -1.967594
v -4.750192 13.313885 1.967593
v -0.960486 14.372204 2.318816
v 0.960484 14.372204 2.318815
v 2.318815 14.372204 0.960485
v 2.318815 14.372204 -0.960485
v 0.960484 14.372204 -2.318815
v -0.960486 14.372204 -2.318815
v -2.318817 14.372204 -0.960485
v -2.318816 14.372204 0.960485
v -0.383583 14.531651 0.926050
v 0.383582 14.531651 0.926050
v 0.926049 14.531651 0.383583
v 0.926049 14.531651 -0.383582
v 0.383582 14.531651 -0.926050
v -0.383583 14.531651 -0.926049
v -0.926051 14.531651 -0.383582
v -0.926050 14.531651 0.383583
v -0.437797 16.876139 1.056934
v 0.437795 16.876139 1.056933
v 1.056933 16.876139 0.437796
v 1.056932 16.876139 -0.437796
v 0.437796 16.876139 -1.056933
v -0.437797 16.876139 -1.056933
v -1.056934 16.876139 -0.437796
v -1.056933 16.876139 0.437796
v -0.000001 16.876139 0.000000
v -0.000001 0.000000 0.000000
v -0.726372 15.744779 1.743479
v 0.723604 15.786940 1.749042
v 1.748209 15.769406 0.721167
v 1.739417 15.702797 -0.725556
v 0.714854 15.626844 -1.735946
v -0.717675 15.585696 -1.730515
v -1.731286 15.602740 -0.720087
v -1.739942 15.668346 0.715642
v -2.489811 13.628365 6.010936
v 2.489810 13.628365 6.010936
v 6.010936 13.628365 2.489810
v 6.010935 13.628365 -2.489810
v 2.489810 13.628365 -6.010936
v -2.489811 13.628365 -6.010936
v -6.010938 13.628365 -2.489811
v -6.010936 13.628365 2.489810
v -2.483233 12.324371 5.995053
v 2.483232 12.324371 5.995053
v 5.995053 12.324371 2.483232
v 5.995052 12.324371 -2.483232
v 2.483232 12.324371 -5.995053
v -2.483232 12.324371 -5.995053
v -5.995055 12.324371 -2.483232
v -5.995054 12.324371 2.483232
v -2.637453 9.302036 6.367374
v 2.637452 9.302036 6.367374
v 6.367374 9.302036 2.637452
v 6.367373 9.302036 -2.637452
v 2.637452 9.302036 -6.367374
v -2.637453 9.302036 -6.367374
v -6.367376 9.302036 -2.637452
v -6.367375 9.302036 2.637452
v -2.655195 5.690494 6.410204
v 2.655194 5.690494 6.410204
v 6.410204 5.690494 2.655194
v 6.410204 5.690494 -2.655194
v 2.655193 5.690494 -6.410204
v -2.655195 5.690494 -6.410204
v -6.410206 5.690494 -2.655194
v -6.410206 5.690494 2.655194
vt 0.104232 0.134740
vt 0.104507 0.134767
vt 0.104569 0.134682
vt 0.104366 0.134689
vt 0.104487 0.134042
vt 0.104483 0.134039
vt 0.104518 0.134040
vt 0.104509 0.134044
vt 0.197775 0.376870
vt 0.104244 0.134771
vt 0.104260 0.134224
vt 0.104283 0.134240
vt 0.104372 0.134783
vt 0.104379 0.134213
vt 0.104568 0.134790
vt 0.104563 0.134214
vt 0.104736 0.134796
vt 0.104725 0.134225
vt 0.104784 0.134788
vt 0.104780 0.134241
vt 0.104662 0.134760
vt 0.104675 0.134254
vt 0.104436 0.134738
vt 0.104459 0.134254
vt 0.104363 0.134181
vt 0.104377 0.134200
vt 0.104435 0.134167
vt 0.104550 0.134166
vt 0.104648 0.134177
vt 0.104672 0.134196
vt 0.104603 0.134211
vt 0.104477 0.134213
vt 0.104352 0.134181
vt 0.104367 0.134201
vt 0.104430 0.134166
vt 0.104553 0.134164
vt 0.104657 0.134176
vt 0.104684 0.134196
vt 0.104610 0.134213
vt 0.104475 0.134215
vt 0.104361 0.134145
vt 0.104376 0.134164
vt 0.104435 0.134132
vt 0.104551 0.134131
vt 0.104650 0.134141
vt 0.104675 0.134159
vt 0.104605 0.134174
vt 0.104477 0.134176
vt 0.104440 0.134116
vt 0.104449 0.134124
vt 0.104476 0.134110
vt 0.104534 0.134109
vt 0.104583 0.134114
vt 0.104594 0.134122
vt 0.104559 0.134129
vt 0.104498 0.134130
vt 0.104486 0.134113
vt 0.104490 0.134116
vt 0.104500 0.134110
vt 0.104524 0.134110
vt 0.104543 0.134112
vt 0.104547 0.134115
vt 0.104533 0.134118
vt 0.104509 0.134118
vt 0.104459 0.134073
vt 0.104466 0.134080
vt 0.104486 0.134069
vt 0.104531 0.134071
vt 0.104567 0.134076
vt 0.104575 0.134083
vt 0.104549 0.134087
vt 0.104504 0.134086
vt 0.104526 0.134037
vt 0.104499 0.134037
vt 0.104553 0.134042
vt 0.104548 0.134039
vt 0.104537 0.134044
vt 0.104250 0.134815
vt 0.104434 0.134868
vt 0.104672 0.134859
vt 0.104796 0.134796
vt 0.104744 0.134724
vt 0.104321 0.134229
vt 0.104304 0.134201
vt 0.104406 0.134181
vt 0.104563 0.134179
vt 0.104697 0.134195
vt 0.104735 0.134222
vt 0.104640 0.134246
vt 0.104461 0.134249
vt 0.198016 0.376876
vt 0.104262 0.134748
vt 0.198301 0.376872
vt 0.198418 0.376861
vt 0.198331 0.376852
vt 0.198125 0.376849
vt 0.197897 0.376851
vt 0.197744 0.376860
vt 0.104312 0.134234
vt 0.104295 0.134204
vt 0.104401 0.134183
vt 0.104564 0.134181
vt 0.104705 0.134197
vt 0.104744 0.134226
vt 0.104645 0.134251
vt 0.104458 0.134254
vt 0.197847 0.376737
vt 0.197818 0.376739
vt 0.197934 0.376740
vt 0.198115 0.376741
vt 0.198278 0.376740
vt 0.198341 0.376738
vt 0.198246 0.376737
vt 0.198031 0.376736
vt 0.197807 0.376810
vt 0.197777 0.376805
vt 0.197913 0.376801
vt 0.198121 0.376800
vt 0.198307 0.376802
vt 0.198383 0.376806
vt 0.198276 0.376811
vt 0.198023 0.376813
vt 0.104470 0.134245
vt 0.104286 0.134242
vt 0.104686 0.134249
vt 0.104780 0.134252
vt 0.104717 0.134252
vt 0.104554 0.134250
vt 0.104373 0.134247
vt 0.104257 0.134244
vn 0.553352 -0.622578 0.553352
vn 0.553352 -0.622578 0.553352
vn 0.553352 -0.622578 0.553352
vn 0.553352 -0.622578 0.553352
vn 0.782558 -0.622578 0.000000
vn 0.782558 -0.622578 0.000000
vn 0.782558 -0.622578 0.000000
vn 0.782558 -0.622578 0.000000
vn 0.553352 -0.622578 -0.553352
vn 0.553352 -0.622578 -0.553352
vn 0.553352 -0.622578 -0.553352
vn 0.553352 -0.622578 -0.553352
vn 0.000000 -0.622578 -0.782558
vn 0.000000 -0.622578 -0.782558
vn 0.000000 -0.622578 -0.782558
vn 0.000000 -0.622578 -0.782558
vn -0.553352 -0.622578 -0.553352
vn -0.553352 -0.622578 -0.553352
vn -0.553352 -0.622578 -0.553352
vn -0.553352 -0.622578 -0.553352
vn -0.782558 -0.622578 0.000000
vn -0.782558 -0.622578 0.000000
vn -0.782558 -0.622578 0.000000
vn -0.782558 -0.622578 0.000000
vn -0.553352 -0.622578 0.553352
vn -0.553352 -0.622578 0.553352
vn -0.553352 -0.622578 0.553352
vn -0.553352 -0.622578 0.553352
vn 0.000000 -1.000000 0.000000
vn 0.000000 -1.000000 0.000000
vn 0.000000 -1.000000 0.000000
vn 0.000000 -1.000000 0.000000
vn 0.000000 1.000000 0.000001
vn 0.000000 1.000000 0.000001
vn 0.000000 1.000000 0.000001
vn 0.000000 1.000000 0.000001
vn 0.000000 0.555014 0.831841
vn 0.000000 0.555014 0.831841
vn 0.000000 0.555014 0.831841
vn 0.000000 0.555014 0.831841
vn 0.588201 0.555014 0.588200
vn 0.588201 0.555014 0.588200
vn 0.588201 0.555014 0.588200
vn 0.588201 0.555014 0.588200
vn 0.831841 0.555014 -0.000000
vn 0.831841 0.555014 -0.000000
vn 0.831841 0.555014 -0.000000
vn 0.831841 0.555014 -0.000000
vn 0.588201 0.555014 -0.588201
vn 0.588201 0.555014 -0.588201
vn 0.588201 0.555014 -0.588201
vn 0.588201 0.555014 -0.588201
vn 0.000000 0.555014 -0.831841
vn 0.000000 0.555014 -0.831841
vn 0.000000 0.555014 -0.831841
vn 0.000000 0.555014 -0.831841
vn -0.588200 0.555014 -0.588201
vn -0.588200 0.555014 -0.588201
vn -0.588200 0.555014 -0.588201
vn -0.588200 0.555014 -0.588201
vn -0.831841 0.555014 0.000000
vn -0.831841 0.555014 0.000000
vn -0.831841 0.555014 0.000000
vn -0.831841 0.555014 0.000000
vn -0.588201 0.555014 0.588201
vn -0.588201 0.555014 0.588201
vn -0.588201 0.555014 0.588201
vn -0.588201 0.555014 0.588201
vn 0.000000 1.000000 -0.000001
vn 0.000000 1.000000 -0.000001
vn 0.000000 1.000000 -0.000001
vn 0.000000 1.000000 -0.000001
vn 0.000000 1.000000 -0.000001
vn 0.000000 1.000000 -0.000001
vn 0.000000 1.000000 -0.000001
vn 0.000000 1.000000 -0.000001
vn 0.000000 1.000000 0.000000
vn 0.000000 1.000000 0.000000
vn 0.000000 1.000000 0.000000
vn 0.000000 1.000000 0.000000
vn 0.000000 1.000000 0.000000
vn 0.000000 1.000000 0.000000
vn 0.000000 1.000000 0.000000
vn 0.000000 1.000000 0.000000
vn 0.000000 1.000000 -0.000001
vn 0.000000 1.000000 -0.000001
vn 0.000000 1.000000 -0.000001
vn 0.000000 1.000000 -0.000001
vn 0.000000 1.000000 -0.000001
vn 0.000000 1.000000 -0.000001
vn 0.000000 1.000000 -0.000001
vn 0.000000 1.000000 -0.000001
vn 0.000000 1.000000 0.000000
vn 0.000000 1.000000 0.000000
vn 0.000000 1.000000 0.000000
vn 0.000000 1.000000 0.000000
vn 0.000000 1.000000 0.000001
vn 0.000000 1.000000 0.000001
vn 0.000000 1.000000 0.000001
vn 0.000000 1.000000 0.000001
vn -0.000000 0.000799 -1.000000
vn -0.000000 0.000799 -1.000000
vn -0.000000 0.000799 -1.000000
vn -0.000000 0.000799 -1.000000
vn -0.707107 0.000799 -0.707107
vn -0.707107 0.000799 -0.707107
vn -0.707107 0.000799 -0.707107
vn -0.707107 0.000799 -0.707107
vn -1.000000 0.000800 0.000000
vn -1.000000 0.000800 0.000000
vn -1.000000 0.000800 0.000000
vn -1.000000 0.000800 0.000000
vn -0.707107 0.000799 0.707106
vn -0.707107 0.000799 0.707106
vn -0.707107 0.000799 0.707106
vn -0.707107 0.000799 0.707106
vn 0.000000 0.000799 1.000000
vn 0.000000 0.000799 1.000000
vn 0.000000 0.000799 1.000000
vn 0.000000 0.000799 1.000000
vn 0.707107 0.000799 0.707107
vn 0.707107 0.000799 0.707107
vn 0.707107 0.000799 0.707107
vn 0.707107 0.000799 0.707107
vn 1.000000 0.000800 -0.000000
vn 1.000000 0.000800 -0.000000
vn 1.000000 0.000800 -0.000000
vn 1.000000 0.000800 -0.000000
vn 0.707107 0.000799 -0.707106
vn 0.707107 0.000799 -0.707106
vn 0.707107 0.000799 -0.707106
vn 0.707107 0.000799 -0.707106
vn 0.000000 0.229835 0.973230
vn 0.000000 0.229835 0.973230
vn 0.000000 0.229835 0.973230
vn 0.000000 0.229835 0.973230
vn 0.688177 0.229835 0.688177
vn 0.688177 0.229835 0.688177
vn 0.688177 0.229835 0.688177
vn 0.688177 0.229835 0.688177
vn 0.973230 0.229834 -0.000000
vn 0.973230 0.229834 -0.000000
vn 0.973230 0.229834 -0.000000
vn 0.973230 0.229834 -0.000000
vn 0.688177 0.229836 -0.688177
vn 0.688177 0.229836 -0.688177
vn 0.688177 0.229836 -0.688177
vn 0.688177 0.229836 -0.688177
vn 0.000000 0.229836 -0.973229
vn 0.000000 0.229836 -0.973229
vn 0.000000 0.229836 -0.973229
vn 0.000000 0.229836 -0.973229
vn -0.688177 0.229836 -0.688177
vn -0.688177 0.229836 -0.688177
vn -0.688177 0.229836 -0.688177
vn -0.688177 0.229836 -0.688177
vn -0.973230 0.229834 0.000000
vn -0.973230 0.229834 0.000000
vn -0.973230 0.229834 0.000000
vn -0.973230 0.229834 0.000000
vn -0.688178 0.229835 0.688177
vn -0.688178 0.229835 0.688177
vn -0.688178 0.229835 0.688177
vn -0.688178 0.229835 0.688177
vn 0.000000 0.916905 0.399106
vn 0.000000 0.916905 0.399106
vn 0.000000 0.916905 0.399106
vn 0.000000 0.916905 0.399106
vn 0.282211 0.916905 0.282211
vn 0.282211 0.916905 0.282211
vn 0.282211 0.916905 0.282211
vn 0.282211 0.916905 0.282211
vn 0.399106 0.916905 0.000000
vn 0.399106 0.916905 0.000000
vn 0.399106 0.916905 0.000000
vn 0.399106 0.916905 0.000000
vn 0.282211 0.916905 -0.282210
vn 0.282211 0.916905 -0.282210
vn 0.282211 0.916905 -0.282210
vn 0.282211 0.916905 -0.282210
vn 0.000000 0.916904 -0.399107
vn 0.000000 0.916904 -0.399107
vn 0.000000 0.916904 -0.399107
vn 0.000000 0.916904 -0.399107
vn -0.282211 0.916905 -0.282211
vn -0.282211 0.916905 -0.282211
vn -0.282211 0.916905 -0.282211
vn -0.282211 0.916905 -0.282211
vn -0.399106 0.916905 0.000000
vn -0.399106 0.916905 0.000000
vn -0.399106 0.916905 0.000000
vn -0.399106 0.916905 0.000000
vn -0.282211 0.916905 0.282210
vn -0.282211 0.916905 0.282210
vn -0.282211 0.916905 0.282210
vn -0.282211 0.916905 0.282210
vn 0.000000 0.993511 0.113740
vn 0.000000 0.993511 0.113740
vn 0.000000 0.993511 0.113740
vn 0.000000 0.993511 0.113740
vn 0.080427 0.993511 0.080426
vn 0.080427 0.993511 0.080426
vn 0.080427 0.993511 0.080426
vn 0.080427 0.993511 0.080426
vn 0.113740 0.993511 0.000000
vn 0.113740 0.993511 0.000000
vn 0.113740 0.993511 0.000000
vn 0.113740 0.993511 0.000000
vn 0.080427 0.993511 -0.080426
vn 0.080427 0.993511 -0.080426
vn 0.080427 0.993511 -0.080426
vn 0.080427 0.993511 -0.080426
vn -0.000000 0.993511 -0.113740
vn -0.000000 0.993511 -0.113740
vn -0.000000 0.993511 -0.113740
vn -0.000000 0.993511 -0.113740
vn -0.080427 0.993511 -0.080426
vn -0.080427 0.993511 -0.080426
vn -0.080427 0.993511 -0.080426
vn -0.080427 0.993511 -0.080426
vn -0.113740 0.993511 0.000000
vn -0.113740 0.993511 0.000000
vn -0.113740 0.993511 0.000000
vn -0.113740 0.993511 0.000000
vn -0.080427 0.993511 0.080426
vn -0.080427 0.993511 0.080426
vn -0.080427 0.993511 0.080426
vn -0.080427 0.993511 0.080426
vn 0.008435 -0.553461 0.832832
vn 0.008435 -0.553461 0.832832
vn 0.008435 -0.553461 0.832832
vn 0.008435 -0.553461 0.832832
vn 0.588019 -0.550145 0.592937
vn 0.588019 -0.550145 0.592937
vn 0.588019 -0.550145 0.592937
vn 0.588019 -0.550145 0.592937
vn 0.827264 -0.561648 0.013613
vn 0.827264 -0.561648 0.013613
vn 0.827264 -0.561648 0.013613
vn 0.827264 -0.561648 0.013613
vn 0.586290 -0.582338 -0.563158
vn 0.586290 -0.582338 -0.563158
vn 0.586290 -0.582338 -0.563158
vn 0.586290 -0.582338 -0.563158
vn 0.009260 -0.600545 -0.799537
vn 0.009260 -0.600545 -0.799537
vn 0.009260 -0.600545 -0.799537
vn 0.009260 -0.600545 -0.799537
vn -0.566048 -0.604439 -0.560574
vn -0.566048 -0.604439 -0.560574
vn -0.566048 -0.604439 -0.560574
vn -0.566048 -0.604439 -0.560574
vn -0.806320 -0.591304 0.014441
vn -0.806320 -0.591304 0.014441
vn -0.806320 -0.591304 0.014441
vn -0.806320 -0.591304 0.014441
vn -0.569577 -0.570037 0.592148
vn -0.569577 -0.570037 0.592148
vn -0.569577 -0.570037 0.592148
vn -0.569577 -0.570037 0.592148
vn 0.000000 1.000000 0.000001
vn 0.000000 1.000000 0.000001
vn 0.000000 1.000000 0.000001
vn 0.000000 1.000000 0.000001
vn 0.000000 1.000000 -0.000001
vn 0.000000 1.000000 -0.000001
vn 0.000000 1.000000 -0.000001
vn 0.000000 1.000000 -0.000001
vn 0.000000 1.000000 -0.000000
vn 0.000000 1.000000 -0.000000
vn 0.000000 1.000000 -0.000000
vn 0.000000 1.000000 -0.000000
vn -0.000000 -0.622578 0.782558
vn -0.000000 -0.622578 0.782558
vn -0.000000 -0.622578 0.782558
vn -0.000000 -0.622578 0.782558
vn 0.000000 -1.000000 0.000000
vn 0.000000 -1.000000 0.000000
vn 0.000000 -1.000000 0.000000
vn 0.000000 -1.000000 0.000000
vn 0.000000 -1.000000 0.000000
vn 0.000000 -1.000000 0.000000
vn 0.000000 -1.000000 0.000000
vn 0.000000 -1.000000 0.000000
vn 0.000000 -1.000000 0.000000
vn 0.000000 -1.000000 0.000000
vn 0.000000 -1.000000 0.000000
vn 0.000000 -1.000000 0.000000
vn -0.011594 0.527442 0.849512
vn -0.011594 0.527442 0.849512
vn -0.011594 0.527442 0.849512
vn -0.011594 0.527442 0.849512
vn 0.602039 0.532270 0.595179
vn 0.602039 0.532270 0.595179
vn 0.602039 0.532270 0.595179
vn 0.602039 0.532270 0.595179
vn 0.856389 0.516016 -0.018044
vn 0.856389 0.516016 -0.018044
vn 0.856389 0.516016 -0.018044
vn 0.856389 0.516016 -0.018044
vn 0.602192 0.490027 -0.630269
vn 0.602192 0.490027 -0.630269
vn 0.602192 0.490027 -0.630269
vn 0.602192 0.490027 -0.630269
vn -0.010457 0.470049 -0.882578
vn -0.010457 0.470049 -0.882578
vn -0.010457 0.470049 -0.882578
vn -0.010457 0.470049 -0.882578
vn -0.622553 0.466083 -0.628645
vn -0.622553 0.466083 -0.628645
vn -0.622553 0.466083 -0.628645
vn -0.622553 0.466083 -0.628645
vn -0.877165 0.479892 -0.016906
vn -0.877165 0.479892 -0.016906
vn -0.877165 0.479892 -0.016906
vn -0.877165 0.479892 -0.016906
vn -0.624563 0.505020 0.595715
vn -0.624563 0.505020 0.595715
vn -0.624563 0.505020 0.595715
vn -0.624563 0.505020 0.595715
vn 0.000000 -0.012179 0.999926
vn 0.000000 -0.012179 0.999926
vn 0.000000 -0.012179 0.999926
vn 0.000000 -0.012179 0.999926
vn 0.707054 -0.012179 0.707055
vn 0.707054 -0.012179 0.707055
vn 0.707054 -0.012179 0.707055
vn 0.707054 -0.012179 0.707055
vn 0.999926 -0.012179 -0.000000
vn 0.999926 -0.012179 -0.000000
vn 0.999926 -0.012179 -0.000000
vn 0.999926 -0.012179 -0.000000
vn 0.707054 -0.012179 -0.707054
vn 0.707054 -0.012179 -0.707054
vn 0.707054 -0.012179 -0.707054
vn 0.707054 -0.012179 -0.707054
vn 0.000000 -0.012179 -0.999926
vn 0.000000 -0.012179 -0.999926
vn 0.000000 -0.012179 -0.999926
vn 0.000000 -0.012179 -0.999926
vn -0.707054 -0.012179 -0.707054
vn -0.707054 -0.012179 -0.707054
vn -0.707054 -0.012179 -0.707054
vn -0.707054 -0.012179 -0.707054
vn -0.999926 -0.012179 0.000000
vn -0.999926 -0.012179 0.000000
vn -0.999926 -0.012179 0.000000
vn -0.999926 -0.012179 0.000000
vn -0.707055 -0.012179 0.707054
vn -0.707055 -0.012179 0.707054
vn -0.707055 -0.012179 0.707054
vn -0.707055 -0.012179 0.707054
vn 0.000000 -0.541551 0.840668
vn 0.000000 -0.541551 0.840668
vn 0.000000 -0.541551 0.840668
vn 0.000000 -0.541551 0.840668
vn 0.594442 -0.541551 0.594442
vn 0.594442 -0.541551 0.594442
vn 0.594442 -0.541551 0.594442
vn 0.594442 -0.541551 0.594442
vn 0.840668 -0.541551 -0.000000
vn 0.840668 -0.541551 -0.000000
vn 0.840668 -0.541551 -0.000000
vn 0.840668 -0.541551 -0.000000
vn 0.594442 -0.541551 -0.594442
vn 0.594442 -0.541551 -0.594442
vn 0.594442 -0.541551 -0.594442
vn 0.594442 -0.541551 -0.594442
vn 0.000000 -0.541551 -0.840668
vn 0.000000 -0.541551 -0.840668
vn 0.000000 -0.541551 -0.840668
vn 0.000000 -0.541551 -0.840668
vn -0.594442 -0.541551 -0.594442
vn -0.594442 -0.541551 -0.594442
vn -0.594442 -0.541551 -0.594442
vn -0.594442 -0.541551 -0.594442
vn -0.840668 -0.541551 0.000000
vn -0.840668 -0.541551 0.000000
vn -0.840668 -0.541551 0.000000
vn -0.840668 -0.541551 0.000000
vn -0.594442 -0.541551 0.594442
vn -0.594442 -0.541551 0.594442
vn -0.594442 -0.541551 0.594442
vn -0.594442 -0.541551 0.594442
vn 0.000000 0.011858 0.999930
vn 0.000000 0.011858 0.999930
vn 0.000000 0.011858 0.999930
vn 0.000000 0.011858 0.999930
vn 0.707057 0.011858 0.707057
vn 0.707057 0.011858 0.707057
vn 0.707057 0.011858 0.707057
vn 0.707057 0.011858 0.707057
vn 0.999930 0.011858 -0.000000
vn 0.999930 0.011858 -0.000000
vn 0.999930 0.011858 -0.000000
vn 0.999930 0.011858 -0.000000
vn 0.707057 0.011859 -0.707057
vn 0.707057 0.011859 -0.707057
vn 0.707057 0.011859 -0.707057
vn 0.707057 0.011859 -0.707057
vn 0.000000 0.011858 -0.999930
vn 0.000000 0.011858 -0.999930
vn 0.000000 0.011858 -0.999930
vn 0.000000 0.011858 -0.999930
vn -0.707057 0.011859 -0.707057
vn -0.707057 0.011859 -0.707057
vn -0.707057 0.011859 -0.707057
vn -0.707057 0.011859 -0.707057
vn -0.999930 0.011858 0.000000
vn -0.999930 0.011858 0.000000
vn -0.999930 0.011858 0.000000
vn -0.999930 0.011858 0.000000
vn -0.707057 0.011859 0.707057
vn -0.707057 0.011859 0.707057
vn -0.707057 0.011859 0.707057
vn -0.707057 0.011859 0.707057
vn 0.000000 -0.321005 0.947077
vn 0.000000 -0.321005 0.947077
vn 0.000000 -0.321005 0.947077
vn 0.000000 -0.321005 0.947077
vn 0.669685 -0.321005 0.669685
vn 0.669685 -0.321005 0.669685
vn 0.669685 -0.321005 0.669685
vn 0.669685 -0.321005 0.669685
vn 0.947077 -0.321005 0.000000
vn 0.947077 -0.321005 0.000000
vn 0.947077 -0.321005 0.000000
vn 0.947077 -0.321005 0.000000
vn 0.669685 -0.321005 -0.669685
vn 0.669685 -0.321005 -0.669685
vn 0.669685 -0.321005 -0.669685
vn 0.669685 -0.321005 -0.669685
vn 0.000000 -0.321005 -0.947077
vn 0.000000 -0.321005 -0.947077
vn 0.000000 -0.321005 -0.947077
vn 0.000000 -0.321005 -0.947077
vn -0.669685 -0.321005 -0.669685
vn -0.669685 -0.321005 -0.669685
vn -0.669685 -0.321005 -0.669685
vn -0.669685 -0.321005 -0.669685
vn -0.947077 -0.321005 0.000000
vn -0.947077 -0.321005 0.000000
vn -0.947077 -0.321005 0.000000
vn -0.947077 -0.321005 0.000000
vn -0.669685 -0.321005 0.669685
vn -0.669685 -0.321005 0.669685
vn -0.669685 -0.321005 0.669685
vn -0.669685 -0.321005 0.669685
s off
f 3/4/1 11/13/2 10/10/3 2/1/4
f 4/3/5 12/15/6 11/13/7 3/4/8
f 5/82/9 13/17/10 12/15/11 4/3/12
f 6/81/13 14/19/14 13/17/15 5/82/16
f 7/80/17 15/21/18 14/19/19 6/81/20
f 8/79/21 16/23/22 15/21/23 7/80/24
f 9/92/25 16/23/26 8/79/27 1/78/28
f 2/1/29 74/2/30 4/3/31 3/4/32
f 65/5/33 66/6/34 73/7/35 72/8/36
f 99/124/37 100/130/38 18/11/39 17/12/40
f 100/130/41 101/129/42 19/14/43 18/11/44
f 101/129/45 102/128/46 20/16/47 19/14/48
f 102/128/49 103/127/50 21/18/51 20/16/52
f 103/127/53 104/126/54 22/20/55 21/18/56
f 104/126/57 105/125/58 23/22/59 22/20/60
f 105/125/61 106/123/62 24/24/63 23/22/64
f 106/123/65 99/124/66 17/12/67 24/24/68
f 83/83/69 84/84/70 26/25/71 25/26/72
f 84/84/73 85/85/74 27/27/75 26/25/76
f 85/85/77 86/86/78 28/28/79 27/27/80
f 86/86/81 87/87/82 29/29/83 28/28/84
f 87/87/85 88/88/86 30/30/87 29/29/88
f 88/88/89 89/89/90 31/31/91 30/30/92
f 89/89/93 90/90/94 32/32/95 31/31/96
f 90/90/97 83/83/98 25/26/99 32/32/100
f 25/26/101 26/25/102 34/33/103 33/34/104
f 26/25/105 27/27/106 35/35/107 34/33/108
f 27/27/109 28/28/110 36/36/111 35/35/112
f 28/28/113 29/29/114 37/37/115 36/36/116
f 29/29/117 30/30/118 38/38/119 37/37/120
f 30/30/121 31/31/122 39/39/123 38/38/124
f 31/31/125 32/32/126 40/40/127 39/39/128
f 32/32/129 25/26/130 33/34/131 40/40/132
f 33/34/133 34/33/134 42/41/135 41/42/136
f 34/33/137 35/35/138 43/43/139 42/41/140
f 35/35/141 36/36/142 44/44/143 43/43/144
f 36/36/145 37/37/146 45/45/147 44/44/148
f 37/37/149 38/38/150 46/46/151 45/45/152
f 38/38/153 39/39/154 47/47/155 46/46/156
f 39/39/157 40/40/158 48/48/159 47/47/160
f 40/40/161 33/34/162 41/42/163 48/48/164
f 41/42/165 42/41/166 50/49/167 49/50/168
f 42/41/169 43/43/170 51/51/171 50/49/172
f 43/43/173 44/44/174 52/52/175 51/51/176
f 44/44/177 45/45/178 53/53/179 52/52/180
f 45/45/181 46/46/182 54/54/183 53/53/184
f 46/46/185 47/47/186 55/55/187 54/54/188
f 47/47/189 48/48/190 56/56/191 55/55/192
f 48/48/193 41/42/194 49/50/195 56/56/196
f 49/50/197 50/49/198 58/57/199 57/58/200
f 50/49/201 51/51/202 59/59/203 58/57/204
f 51/51/205 52/52/206 60/60/207 59/59/208
f 52/52/209 53/53/210 61/61/211 60/60/212
f 53/53/213 54/54/214 62/62/215 61/61/216
f 54/54/217 55/55/218 63/63/219 62/62/220
f 55/55/221 56/56/222 64/64/223 63/63/224
f 56/56/225 49/50/226 57/58/227 64/64/228
f 57/58/229 58/57/230 76/65/231 75/66/232
f 58/57/233 59/59/234 77/67/235 76/65/236
f 59/59/237 60/60/238 78/68/239 77/67/240
f 60/60/241 61/61/242 79/69/243 78/68/244
f 61/61/245 62/62/246 80/70/247 79/69/248
f 62/62/249 63/63/250 81/71/251 80/70/252
f 63/63/253 64/64/254 82/72/255 81/71/256
f 64/64/257 57/58/258 75/66/259 82/72/260
f 68/73/261 73/7/262 66/6/263 67/74/264
f 70/75/265 73/7/266 68/73/267 69/76/268
f 72/8/269 73/7/270 70/75/271 71/77/272
f 9/92/273 1/78/274 2/1/275 10/10/276
f 1/78/277 8/79/278 74/2/279 2/1/280
f 74/2/281 8/79/282 7/80/283 6/81/284
f 4/3/285 74/2/286 6/81/287 5/82/288
f 75/66/289 76/65/290 66/6/291 65/5/292
f 76/65/293 77/67/294 67/74/295 66/6/296
f 77/67/297 78/68/298 68/73/299 67/74/300
f 78/68/301 79/69/302 69/76/303 68/73/304
f 79/69/305 80/70/306 70/75/307 69/76/308
f 80/70/309 81/71/310 71/77/311 70/75/312
f 81/71/313 82/72/314 72/8/315 71/77/316
f 82/72/317 75/66/318 65/5/319 72/8/320
f 91/99/321 92/100/322 84/84/323 83/83/324
f 92/100/325 93/101/326 85/85/327 84/84/328
f 93/101/329 94/102/330 86/86/331 85/85/332
f 94/102/333 95/103/334 87/87/335 86/86/336
f 95/103/337 96/104/338 88/88/339 87/87/340
f 96/104/341 97/105/342 89/89/343 88/88/344
f 97/105/345 98/106/346 90/90/347 89/89/348
f 98/106/349 91/99/350 83/83/351 90/90/352
f 17/12/353 18/11/354 92/100/355 91/99/356
f 18/11/357 19/14/358 93/101/359 92/100/360
f 19/14/361 20/16/362 94/102/363 93/101/364
f 20/16/365 21/18/366 95/103/367 94/102/368
f 21/18/369 22/20/370 96/104/371 95/103/372
f 22/20/373 23/22/374 97/105/375 96/104/376
f 23/22/377 24/24/378 98/106/379 97/105/380
f 24/24/381 17/12/382 91/99/383 98/106/384
f 107/115/385 108/116/386 100/108/387 99/107/388
f 108/116/389 109/117/390 101/109/391 100/108/392
f 109/117/393 110/118/394 102/110/395 101/109/396
f 110/118/397 111/119/398 103/111/399 102/110/400
f 111/119/401 112/120/402 104/112/403 103/111/404
f 112/120/405 113/121/406 105/113/407 104/112/408
f 113/121/409 114/122/410 106/114/411 105/113/412
f 114/122/413 107/115/414 99/107/415 106/114/416
f 9/9/417 10/98/418 108/116/419 107/115/420
f 10/98/421 11/97/422 109/117/423 108/116/424
f 11/97/425 12/96/426 110/118/427 109/117/428
f 12/96/429 13/95/430 111/119/431 110/118/432
f 13/95/433 14/94/434 112/120/435 111/119/436
f 14/94/437 15/93/438 113/121/439 112/120/440
f 15/93/441 16/91/442 114/122/443 113/121/444
f 16/91/445 9/9/446 107/115/447 114/122/448
