# This file uses centimeters as units for non-parametric coordinates.

v 1.330340 -14.605175 -3.271152
v -1.330372 -14.605174 -3.271153
v -2.660712 -14.605175 -0.000001
v -1.330372 -14.605175 3.271152
v 1.330340 -14.605175 3.271152
v 2.660647 -14.605175 0.000000
v 1.113479 31.515442 -2.737972
v -1.113511 31.515442 -2.737972
v -2.227023 31.515442 0.000000
v -1.113511 31.515440 2.737974
v 1.113479 31.515440 2.737974
v 2.226990 31.515442 0.000000
v 1.330340 7.083642 -3.271153
v 2.660647 7.083642 0.000000
v 1.330340 7.083642 3.271153
v -1.330372 7.083643 3.271153
v -2.660712 7.083642 -0.000000
v -1.330372 7.083642 -3.271153
v 1.099332 46.062824 -2.703197
v -1.099397 46.062824 -2.703197
v -2.198762 46.062824 0.000000
v -1.099397 46.062824 2.703197
v 1.099332 46.062824 2.703197
v 2.198697 46.062824 0.000000
v -4.437366 44.650913 3.645103
v 4.437316 44.650913 3.645103
v -4.437366 44.650913 -3.645103
v 4.437316 44.650913 -3.645103
v -4.437366 35.546276 -3.645103
v 4.437316 35.546276 -3.645103
v -4.437366 35.546276 3.645102
v 4.437316 35.546276 3.645102
v -3.391654 36.009628 6.622549
v 3.391605 36.009628 6.622549
v 3.391605 44.098198 6.622547
v -3.391654 44.098198 6.622547
v -3.267242 39.788864 -12.551487
v 3.525302 39.788864 -12.551487
v 3.525302 39.622219 -12.551487
v -3.267242 39.622219 -12.551487
v -4.112605 35.546280 7.580187
v -4.112605 35.546276 12.899355
v 4.370715 35.546280 7.580187
v 4.370715 35.546276 12.899355
v 4.370715 44.650917 7.580185
v 4.370715 44.650913 12.899355
v -4.112605 44.650917 7.580185
v -4.112605 44.650913 12.899355
vt 0.007477 0.252257
vt 0.007477 0.252257
vt 0.007477 0.252257
vt 0.007477 0.252257
vt 0.007477 0.252257
vt 0.007477 0.252257
vt 0.016205 0.252257
vt 0.007477 0.252257
vt 0.016205 0.252257
vt 0.007477 0.252257
vt 0.016205 0.252257
vt 0.007477 0.252257
vt 0.013763 0.252257
vt 0.013763 0.252257
vt 0.013763 0.252257
vt 0.013763 0.252257
vt 0.013763 0.252257
vt 0.013763 0.252257
vt 0.013763 0.252257
vt 0.007477 0.252257
vt 0.007477 0.252257
vt 0.007477 0.252257
vt 0.007477 0.252257
vt 0.013763 0.252257
vt 0.102356 0.230917
vt 0.102356 0.230917
vt 0.102356 0.230917
vt 0.102356 0.230917
vt 0.102356 0.230917
vt 0.102356 0.230917
vt 0.102356 0.230917
vt 0.102356 0.230917
vt 0.102356 0.230917
vt 0.102356 0.230917
vt 0.102356 0.230917
vt 0.102356 0.230917
vt 0.102356 0.230917
vt 0.102356 0.230917
vt 0.102356 0.230917
vt 0.102356 0.230917
vt 0.102356 0.230917
vt 0.102356 0.230917
vt 0.102356 0.230917
vt 0.102356 0.230917
vt 0.102356 0.230917
vt 0.102356 0.230917
vt 0.102356 0.230917
vt 0.102356 0.230917
vn 0.000000 0.000000 -1.000000
vn 0.000000 0.000000 -1.000000
vn 0.000000 0.011066 -0.999939
vn 0.000000 0.011066 -0.999939
vn -0.926325 0.000000 -0.376726
vn -0.926325 0.000000 -0.376726
vn -0.926292 0.008344 -0.376713
vn -0.926293 0.008317 -0.376713
vn -0.926325 -0.000000 0.376726
vn -0.926325 -0.000000 0.376726
vn -0.926293 0.008317 0.376713
vn -0.926292 0.008344 0.376713
vn 0.000000 -0.000000 1.000000
vn 0.000000 -0.000000 1.000000
vn -0.000000 0.011066 0.999939
vn -0.000000 0.011066 0.999939
vn 0.926328 -0.000000 0.376718
vn 0.926328 -0.000000 0.376718
vn 0.926295 0.008344 0.376707
vn 0.926295 0.008317 0.376707
vn 0.926328 -0.000000 -0.376718
vn 0.926328 -0.000000 -0.376718
vn 0.926295 0.008317 -0.376707
vn 0.926295 0.008344 -0.376707
vn -0.000000 -1.000000 0.000000
vn -0.000000 -1.000000 0.000000
vn -0.000000 -1.000000 0.000000
vn -0.000000 -1.000000 0.000000
vn -0.000000 -1.000000 0.000000
vn -0.000000 -1.000000 0.000000
vn 0.000000 1.000000 -0.000000
vn 0.000000 1.000000 -0.000000
vn 0.000000 1.000000 -0.000000
vn 0.000000 1.000000 -0.000000
vn 0.000000 1.000000 -0.000000
vn 0.000000 1.000000 -0.000000
vn 0.926295 0.008344 -0.376707
vn 0.926295 0.008317 -0.376707
vn 0.926201 0.016441 -0.376672
vn 0.926201 0.016441 -0.376672
vn 0.926295 0.008317 0.376707
vn 0.926295 0.008344 0.376707
vn 0.926201 0.016441 0.376671
vn 0.926201 0.016441 0.376671
vn -0.000000 0.011066 0.999939
vn -0.000000 0.011066 0.999939
vn -0.000000 0.021818 0.999762
vn -0.000000 0.021818 0.999762
vn -0.926292 0.008344 0.376713
vn -0.926293 0.008317 0.376713
vn -0.926199 0.016441 0.376676
vn -0.926199 0.016441 0.376676
vn -0.926293 0.008317 -0.376713
vn -0.926292 0.008344 -0.376713
vn -0.926199 0.016441 -0.376676
vn -0.926199 0.016441 -0.376676
vn 0.000000 0.011066 -0.999939
vn 0.000000 0.011066 -0.999939
vn 0.000000 0.021818 -0.999762
vn 0.000000 0.021818 -0.999762
vn 0.000000 0.002390 -0.999997
vn 0.000000 0.002390 -0.999997
vn 0.000000 0.002390 -0.999997
vn 0.000000 0.002390 -0.999997
vn -0.926323 0.001799 -0.376727
vn -0.926322 0.001799 -0.376727
vn -0.926323 0.001799 -0.376727
vn -0.926322 0.001799 -0.376727
vn -0.926323 0.001799 0.376727
vn -0.926323 0.001799 0.376727
vn -0.926323 0.001799 0.376727
vn -0.926323 0.001799 0.376727
vn 0.000000 0.002391 0.999997
vn 0.000000 0.002391 0.999997
vn 0.000000 0.002391 0.999997
vn 0.000000 0.002391 0.999997
vn 0.926323 0.001802 0.376727
vn 0.926323 0.001802 0.376727
vn 0.926323 0.001802 0.376727
vn 0.926323 0.001802 0.376727
vn 0.926323 0.001801 -0.376727
vn 0.926323 0.001801 -0.376727
vn 0.926323 0.001801 -0.376727
vn 0.926323 0.001801 -0.376727
vn 0.000000 1.000000 -0.000000
vn 0.000000 1.000000 -0.000000
vn 0.000000 1.000000 -0.000000
vn 0.000000 1.000000 -0.000000
vn 0.000000 -1.000000 0.000000
vn 0.000000 -1.000000 0.000000
vn 0.000000 -1.000000 0.000000
vn 0.000000 -1.000000 0.000000
vn 1.000000 0.000000 0.000000
vn 1.000000 0.000000 0.000000
vn 1.000000 0.000000 0.000000
vn 1.000000 0.000000 0.000000
vn -1.000000 0.000000 0.000000
vn -1.000000 0.000000 0.000000
vn -1.000000 0.000000 0.000000
vn -1.000000 0.000000 0.000000
vn 0.000000 -0.909303 -0.416136
vn 0.000000 -0.909303 -0.416136
vn 0.000000 -0.909303 -0.416136
vn 0.000000 -0.909303 -0.416136
vn 0.000000 -0.988107 0.153770
vn 0.000000 -0.988107 0.153770
vn 0.000000 -0.988107 0.153770
vn 0.000000 -0.988107 0.153770
vn 0.943500 0.000000 0.331374
vn 0.943500 0.000000 0.331374
vn 0.943500 0.000000 0.331374
vn 0.943500 0.000000 0.331374
vn 0.000000 0.983203 0.182516
vn 0.000000 0.983203 0.182516
vn 0.000000 0.983203 0.182516
vn 0.000000 0.983203 0.182516
vn -0.943500 0.000000 0.331374
vn -0.943500 0.000000 0.331374
vn -0.943500 0.000000 0.331374
vn -0.943500 0.000000 0.331374
vn 0.000000 -0.900167 -0.435545
vn 0.000000 -0.900167 -0.435545
vn 0.000000 -0.900167 -0.435545
vn 0.000000 -0.900167 -0.435545
vn 0.699227 -0.000000 -0.714899
vn 0.699227 -0.000000 -0.714899
vn 0.699227 -0.000000 -0.714899
vn 0.699227 -0.000000 -0.714899
vn 0.000000 0.866095 -0.499880
vn 0.000000 0.866095 -0.499880
vn 0.000000 0.866095 -0.499880
vn 0.000000 0.866095 -0.499880
vn -0.798904 -0.000000 -0.601459
vn -0.798904 -0.000000 -0.601459
vn -0.798904 -0.000000 -0.601459
vn -0.798904 -0.000000 -0.601459
vn 0.000000 0.877729 -0.479158
vn 0.000000 0.877729 -0.479158
vn 0.000000 0.877729 -0.479158
vn 0.000000 0.877729 -0.479158
vn 0.994798 -0.000000 -0.101867
vn 0.994798 -0.000000 -0.101867
vn 0.994798 -0.000000 -0.101867
vn 0.994798 -0.000000 -0.101867
vn -0.991479 -0.000000 -0.130264
vn -0.991479 -0.000000 -0.130264
vn -0.991479 -0.000000 -0.130264
vn -0.991479 -0.000000 -0.130264
vn 0.000000 -1.000000 0.000000
vn 0.000000 -1.000000 0.000000
vn 0.000000 -1.000000 0.000000
vn 0.000000 -1.000000 0.000000
vn 1.000000 0.000000 0.000000
vn 1.000000 0.000000 0.000000
vn 1.000000 0.000000 0.000000
vn 1.000000 0.000000 0.000000
vn 0.000000 1.000000 -0.000000
vn 0.000000 1.000000 -0.000000
vn 0.000000 1.000000 -0.000000
vn 0.000000 1.000000 -0.000000
vn -1.000000 0.000000 0.000000
vn -1.000000 0.000000 0.000000
vn -1.000000 0.000000 0.000000
vn -1.000000 0.000000 0.000000
vn 0.000000 0.000000 1.000000
vn 0.000000 0.000000 1.000000
vn 0.000000 0.000000 1.000000
vn 0.000000 0.000000 1.000000
vn 0.000000 -0.000000 -1.000000
vn 0.000000 -0.000000 -1.000000
vn 0.000000 -0.000000 -1.000000
vn 0.000000 -0.000000 -1.000000
s off
f 1/1/1 2/2/2 18/3/3 13/4/4
f 2/2/5 3/5/6 17/6/7 18/3/8
f 3/5/9 4/7/10 16/8/11 17/6/12
f 4/7/13 5/9/14 15/10/15 16/8/16
f 5/9/17 6/11/18 14/12/19 15/10/20
f 6/11/21 1/1/22 13/4/23 14/12/24
f 1/1/25 6/11/26 5/9/27 4/7/28 3/5/29 2/2/30
f 19/13/31 20/14/32 21/15/33 22/16/34 23/17/35 24/18/36
f 14/12/37 13/4/38 7/19/39 12/20/40
f 15/10/41 14/12/42 12/20/43 11/21/44
f 16/8/45 15/10/46 11/21/47 10/22/48
f 17/6/49 16/8/50 10/22/51 9/23/52
f 18/3/53 17/6/54 9/23/55 8/24/56
f 13/4/57 18/3/58 8/24/59 7/19/60
f 20/14/61 19/13/62 7/19/63 8/24/64
f 21/15/65 20/14/66 8/24/67 9/23/68
f 22/16/69 21/15/70 9/23/71 10/22/72
f 23/17/73 22/16/74 10/22/75 11/21/76
f 24/18/77 23/17/78 11/21/79 12/20/80
f 7/19/81 19/13/82 24/18/83 12/20/84
f 25/25/85 26/26/86 28/27/87 27/28/88
f 29/29/89 30/30/90 32/31/91 31/32/92
f 28/27/93 26/26/94 32/31/95 30/30/96
f 29/29/97 31/32/98 25/25/99 27/28/100
f 30/30/101 29/29/102 40/33/103 39/34/104
f 31/32/105 32/31/106 34/35/107 33/36/108
f 34/35/109 32/31/110 26/26/111 35/37/112
f 26/26/113 25/25/114 36/38/115 35/37/116
f 36/38/117 25/25/118 31/32/119 33/36/120
f 33/36/121 34/35/122 43/39/123 41/40/124
f 45/41/125 43/39/126 34/35/127 35/37/128
f 35/37/129 36/38/130 47/42/131 45/41/132
f 47/42/133 36/38/134 33/36/135 41/40/136
f 38/43/137 37/44/138 27/28/139 28/27/140
f 30/30/141 39/34/142 38/43/143 28/27/144
f 27/28/145 37/44/146 40/33/147 29/29/148
f 42/45/149 41/40/150 43/39/151 44/46/152
f 44/46/153 43/39/154 45/41/155 46/47/156
f 46/47/157 45/41/158 47/42/159 48/48/160
f 41/40/161 42/45/162 48/48/163 47/42/164
f 48/48/165 42/45/166 44/46/167 46/47/168
f 38/43/169 39/34/170 40/33/171 37/44/172
