# This file uses centimeters as units for non-parametric coordinates.

v -11.839228 -4.244020 3.846799
v -12.622270 -0.000000 4.101225
v -12.622272 -0.000000 -4.101224
v -11.839229 -4.244020 -3.846797
v -8.673563 -5.692676 -2.818210
v -8.673560 -5.692676 2.818211
v -11.839228 4.244020 3.846799
v -8.673560 5.692676 2.818211
v -8.673563 5.692676 -2.818210
v -11.839229 4.244020 -3.846797
v -0.000000 5.921723 0.000001
v -0.000001 -5.921724 0.000000
v -0.000002 0.000000 -0.000000
v -7.589122 4.286169 -2.465854
v -0.000001 4.458626 0.000000
v -7.589122 -0.000000 -2.465854
v 0.000000 -4.458626 0.000000
v -7.589122 -4.286169 -2.465854
v -11.044130 0.000000 -3.588455
v -10.358990 3.195437 -3.365838
v -10.358990 -3.195437 -3.365838
v -7.589120 4.286169 2.465855
v -7.589119 -0.000000 2.465855
v -7.589119 -4.286169 2.465855
v -11.044127 -0.000000 3.588456
v -10.358990 3.195437 3.365840
v -10.358990 -3.195437 3.365840
vt 0.216593 0.469884
vt 0.216249 0.469871
vt 0.216223 0.469685
vt 0.216609 0.469697
vt 0.216585 0.469926
vt 0.216311 0.469866
vt 0.216603 0.469461
vt 0.216233 0.469452
vt 0.216299 0.469330
vt 0.216529 0.469276
vt 0.216459 0.469240
vt 0.216459 0.469718
vt 0.232833 0.489737
vt 0.216459 0.469479
vt 0.233509 0.489698
vt 0.216529 0.469276
vt 0.216459 0.469275
vt 0.216459 0.469718
vt 0.216585 0.469926
vt 0.216459 0.469479
vt 0.216232 0.469481
vt 0.216223 0.469685
vt 0.216249 0.469871
vt 0.216609 0.469697
vt 0.216603 0.469461
vt 0.216593 0.469884
vt 0.233505 0.490100
vt 0.232833 0.490135
vt 0.233500 0.490493
vt 0.232833 0.490527
vt 0.233505 0.489713
vt 0.232818 0.489701
vt 0.232818 0.490074
vt 0.233505 0.490100
vt 0.232819 0.490441
vt 0.233500 0.490493
vt 0.232576 0.489790
vt 0.232519 0.490062
vt 0.232579 0.490336
vt 0.232510 0.490152
vt 0.232574 0.489848
vt 0.232577 0.490445
vt 0.216459 0.469240
vt 0.216299 0.469330
vt 0.216299 0.469330
vt 0.216459 0.469275
vt 0.216459 0.469240
vt 0.216459 0.469275
vt 0.216311 0.469866
vt 0.216459 0.469718
vt 0.216459 0.469718
vt 0.216311 0.469866
vt 0.216459 0.469718
vt 0.216459 0.469479
vt 0.216459 0.469479
vt 0.216459 0.469718
vt 0.216233 0.469452
vt 0.216223 0.469685
vt 0.216223 0.469685
vt 0.216249 0.469871
vt 0.216223 0.469685
vt 0.216609 0.469697
vt 0.216603 0.469461
vt 0.216603 0.469461
vt 0.216529 0.469276
vt 0.216529 0.469276
vt 0.216603 0.469461
vt 0.216593 0.469884
vt 0.216609 0.469697
vt 0.216609 0.469697
vt 0.216585 0.469926
vt 0.216593 0.469884
vt 0.216593 0.469884
vt 0.216585 0.469926
vn -0.983402 -0.181442 0.000000
vn -0.983402 -0.181442 0.000000
vn -0.983402 -0.181442 0.000000
vn -0.983402 -0.181442 0.000000
vn -0.416114 -0.909312 0.000000
vn -0.416114 -0.909312 0.000000
vn -0.416114 -0.909312 0.000000
vn -0.416114 -0.909312 0.000000
vn -0.416114 0.909312 0.000000
vn -0.416114 0.909312 0.000000
vn -0.416114 0.909312 0.000000
vn -0.416114 0.909312 0.000000
vn -0.983402 0.181442 0.000000
vn -0.983402 0.181442 0.000000
vn -0.983402 0.181442 0.000000
vn -0.983402 0.181442 0.000000
vn -0.026398 0.999651 0.000000
vn -0.026398 0.999651 0.000000
vn -0.026398 0.999651 0.000000
vn -0.026398 -0.999652 0.000000
vn -0.026398 -0.999652 0.000000
vn -0.026398 -0.999652 0.000000
vn 0.309017 0.000000 -0.951057
vn 0.309017 0.000000 -0.951057
vn 0.309017 0.000000 -0.951057
vn 0.309017 0.000000 -0.951057
vn 0.309017 0.000000 -0.951057
vn 0.309017 0.000000 -0.951057
vn 0.309017 0.000000 -0.951057
vn 0.309017 0.000000 -0.951057
vn 0.309017 0.000000 0.951057
vn 0.309017 0.000000 0.951057
vn 0.309017 0.000000 0.951057
vn 0.309017 0.000000 0.951057
vn 0.309017 -0.000000 0.951057
vn 0.309017 -0.000000 0.951057
vn 0.309017 -0.000000 0.951057
vn 0.309017 -0.000000 0.951057
vn 0.309017 0.000000 0.951057
vn 0.309017 0.000000 0.951057
vn 0.309017 0.000000 0.951057
vn 0.309017 0.000000 0.951057
vn 0.309017 -0.000000 0.951057
vn 0.309017 -0.000000 0.951057
vn 0.309017 -0.000000 0.951057
vn 0.309017 -0.000000 0.951057
vn 0.309017 0.000000 -0.951057
vn 0.309017 0.000000 -0.951057
vn 0.309017 0.000000 -0.951057
vn 0.309017 0.000000 -0.951057
vn 0.309017 -0.000000 -0.951057
vn 0.309017 -0.000000 -0.951057
vn 0.309017 -0.000000 -0.951057
vn 0.309017 -0.000000 -0.951057
vn 0.309017 -0.000000 -0.951057
vn 0.309017 -0.000000 -0.951057
vn 0.309017 -0.000000 -0.951057
vn 0.309017 -0.000000 -0.951057
vn 0.309017 -0.000000 -0.951057
vn 0.309017 -0.000000 -0.951057
vn 0.309017 -0.000000 -0.951057
vn 0.309017 -0.000000 -0.951057
vn 0.309017 0.000000 -0.951057
vn 0.309017 0.000000 -0.951057
vn 0.309017 0.000000 -0.951057
vn 0.309017 0.000000 -0.951057
vn 0.309017 -0.000000 -0.951057
vn 0.309017 -0.000000 -0.951057
vn 0.309017 -0.000000 -0.951057
vn 0.309017 -0.000000 -0.951057
vn 0.309017 -0.000000 -0.951057
vn 0.309017 -0.000000 -0.951057
vn 0.309017 -0.000000 -0.951057
vn 0.309017 -0.000000 -0.951057
vn 0.309017 0.000000 -0.951057
vn 0.309017 0.000000 -0.951057
vn 0.309017 0.000000 -0.951057
vn 0.309017 0.000000 -0.951057
vn 0.309017 -0.000000 0.951057
vn 0.309017 -0.000000 0.951057
vn 0.309017 -0.000000 0.951057
vn 0.309017 -0.000000 0.951057
vn 0.309017 -0.000000 0.951056
vn 0.309017 -0.000000 0.951056
vn 0.309017 -0.000000 0.951056
vn 0.309017 -0.000000 0.951056
vn 0.309017 0.000000 0.951057
vn 0.309017 0.000000 0.951057
vn 0.309017 0.000000 0.951057
vn 0.309017 0.000000 0.951057
vn 0.309017 -0.000000 0.951057
vn 0.309017 -0.000000 0.951057
vn 0.309017 -0.000000 0.951057
vn 0.309017 -0.000000 0.951057
vn 0.309017 -0.000000 0.951057
vn 0.309017 -0.000000 0.951057
vn 0.309017 -0.000000 0.951057
vn 0.309017 -0.000000 0.951057
vn 0.309017 0.000000 0.951057
vn 0.309017 0.000000 0.951057
vn 0.309017 0.000000 0.951057
vn 0.309017 0.000000 0.951057
s off
f 4/1/1 1/2/2 2/3/3 3/4/4
f 1/2/5 4/1/6 5/5/7 6/6/8
f 10/7/9 7/8/10 8/9/11 9/10/12
f 3/4/13 2/3/14 7/8/15 10/7/16
f 9/10/17 8/9/18 11/11/19
f 6/6/20 5/5/21 12/12/22
f 14/13/23 15/15/24 13/27/25 16/28/26
f 16/28/27 13/27/28 17/29/29 18/30/30
f 15/31/31 22/32/32 23/33/33 13/34/34
f 13/34/35 23/33/36 24/35/37 17/36/38
f 26/37/39 25/38/40 23/33/41 22/32/42
f 25/38/43 27/39/44 24/35/45 23/33/46
f 19/40/47 20/41/48 14/13/49 16/28/50
f 21/42/51 19/40/52 16/28/53 18/30/54
f 9/10/55 11/11/56 15/17/57 14/16/58
f 12/12/59 5/5/60 18/19/61 17/18/62
f 3/43/63 10/44/64 20/45/65 19/46/66
f 10/14/67 9/47/68 14/48/69 20/20/70
f 4/49/71 3/50/72 19/51/73 21/52/74
f 5/53/75 4/54/76 21/55/77 18/56/78
f 11/57/79 8/58/80 22/22/81 15/21/82
f 6/59/83 12/60/84 17/23/85 24/61/86
f 7/62/87 2/63/88 25/25/89 26/24/90
f 8/64/91 7/65/92 26/66/93 22/67/94
f 2/68/95 1/69/96 27/70/97 25/26/98
f 1/71/99 6/72/100 24/73/101 27/74/102
