# This file uses centimeters as units for non-parametric coordinates.

v 3.136258 27.618561 1.022193
v -3.136259 27.618561 1.022192
v -7.571598 32.053902 1.022191
v -7.571598 38.326420 1.022191
v -3.136259 42.761757 1.022189
v 3.136258 42.761757 1.022190
v 7.571598 38.326420 1.022192
v 7.571598 32.053902 1.022192
v 3.136258 27.618561 -1.022191
v -3.136259 27.618561 -1.022192
v -7.571598 32.053902 -1.022193
v -7.571598 38.326416 -1.022193
v -3.136259 42.761757 -1.022191
v 3.136258 42.761757 -1.022191
v 7.571598 38.326416 -1.022192
v 7.571598 32.053898 -1.022192
v 4.171597 33.462227 2.041653
v 1.727932 31.018562 2.041652
v 4.171597 36.918091 2.041653
v 1.727932 39.361755 2.041654
v -1.727932 39.361755 2.041653
v -4.171598 36.918091 2.041653
v -4.171597 33.462227 2.041653
v -1.727933 31.018562 2.041652
v 1.727932 31.018562 -2.041654
v -1.727933 31.018562 -2.041654
v -4.171597 33.462227 -2.041653
v -4.171598 36.918091 -2.041652
v -1.727932 39.361755 -2.041652
v 1.727932 39.361755 -2.041652
v 4.171597 36.918091 -2.041652
v 4.171597 33.462227 -2.041653
vt -0.852444 0.208166
vt -0.852077 0.208167
vt -0.852072 0.208086
vt -0.852446 0.208085
vt -0.851798 0.208371
vt -0.851785 0.208291
vt -0.851766 0.208687
vt -0.851752 0.208610
vt -0.852041 0.208934
vt -0.852033 0.208860
vt -0.852463 0.208933
vt -0.852466 0.208859
vt -0.852743 0.208684
vt -0.852752 0.208608
vt -0.852719 0.208368
vt -0.852727 0.208289
vt -0.852363 0.208359
vt -0.852513 0.208475
vt -0.852519 0.208648
vt -0.852366 0.208778
vt -0.852144 0.208778
vt -0.851994 0.208649
vt -0.852004 0.208476
vt -0.852157 0.208359
vt -0.852364 0.208200
vt -0.852148 0.208200
vt -0.851989 0.208318
vt -0.851977 0.208495
vt -0.852134 0.208626
vt -0.852367 0.208626
vt -0.852527 0.208493
vt -0.852521 0.208317
vn 0.000000 -1.000000 0.000000
vn 0.000000 -1.000000 0.000000
vn 0.000000 -1.000000 0.000000
vn 0.000000 -1.000000 0.000000
vn -0.707107 -0.707107 0.000000
vn -0.707107 -0.707107 0.000000
vn -0.707107 -0.707107 0.000000
vn -0.707107 -0.707107 0.000000
vn -1.000000 -0.000000 0.000000
vn -1.000000 -0.000000 0.000000
vn -1.000000 -0.000000 0.000000
vn -1.000000 -0.000000 0.000000
vn -0.707107 0.707107 -0.000001
vn -0.707107 0.707107 -0.000001
vn -0.707107 0.707107 -0.000001
vn -0.707107 0.707107 -0.000001
vn 0.000000 1.000000 0.000000
vn 0.000000 1.000000 0.000000
vn 0.000000 1.000000 0.000000
vn 0.000000 1.000000 0.000000
vn 0.707107 0.707107 -0.000001
vn 0.707107 0.707107 -0.000001
vn 0.707107 0.707107 -0.000001
vn 0.707107 0.707107 -0.000001
vn 1.000000 0.000000 0.000000
vn 1.000000 0.000000 0.000000
vn 1.000000 0.000000 0.000000
vn 1.000000 0.000000 0.000000
vn 0.707107 -0.707107 0.000001
vn 0.707107 -0.707107 0.000001
vn 0.707107 -0.707107 0.000001
vn 0.707107 -0.707107 0.000001
vn 0.033972 -0.082016 0.996052
vn 0.082016 -0.033972 0.996052
vn 0.082016 0.033972 0.996052
vn 0.033972 0.082016 0.996052
vn -0.033972 0.082016 0.996052
vn -0.082016 0.033972 0.996052
vn -0.082016 -0.033972 0.996052
vn -0.033972 -0.082016 0.996052
vn 0.033972 -0.082016 -0.996052
vn -0.033972 -0.082016 -0.996052
vn -0.082016 -0.033972 -0.996052
vn -0.082016 0.033972 -0.996052
vn -0.033972 0.082016 -0.996052
vn 0.033972 0.082016 -0.996052
vn 0.082016 0.033972 -0.996052
vn 0.082016 -0.033972 -0.996052
vn 0.102162 -0.246642 0.963707
vn 0.246642 -0.102162 0.963707
vn 0.082016 -0.033972 0.996052
vn 0.033972 -0.082016 0.996052
vn 0.246642 -0.102162 0.963707
vn 0.246642 0.102163 0.963707
vn 0.082016 0.033972 0.996052
vn 0.082016 -0.033972 0.996052
vn 0.246642 0.102163 0.963707
vn 0.102162 0.246642 0.963707
vn 0.033972 0.082016 0.996052
vn 0.082016 0.033972 0.996052
vn 0.102162 0.246642 0.963707
vn -0.102163 0.246643 0.963706
vn -0.033972 0.082016 0.996052
vn 0.033972 0.082016 0.996052
vn -0.102163 0.246643 0.963706
vn -0.246642 0.102163 0.963707
vn -0.082016 0.033972 0.996052
vn -0.033972 0.082016 0.996052
vn -0.246642 0.102163 0.963707
vn -0.246642 -0.102163 0.963707
vn -0.082016 -0.033972 0.996052
vn -0.082016 0.033972 0.996052
vn -0.246642 -0.102163 0.963707
vn -0.102163 -0.246642 0.963707
vn -0.033972 -0.082016 0.996052
vn -0.082016 -0.033972 0.996052
vn -0.102163 -0.246642 0.963707
vn 0.102162 -0.246642 0.963707
vn 0.033972 -0.082016 0.996052
vn -0.033972 -0.082016 0.996052
vn 0.102163 -0.246642 -0.963707
vn -0.102162 -0.246642 -0.963707
vn -0.033972 -0.082016 -0.996052
vn 0.033972 -0.082016 -0.996052
vn -0.102162 -0.246642 -0.963707
vn -0.246642 -0.102163 -0.963707
vn -0.082016 -0.033972 -0.996052
vn -0.033972 -0.082016 -0.996052
vn -0.246642 -0.102163 -0.963707
vn -0.246642 0.102163 -0.963707
vn -0.082016 0.033972 -0.996052
vn -0.082016 -0.033972 -0.996052
vn -0.246642 0.102163 -0.963707
vn -0.102162 0.246642 -0.963707
vn -0.033972 0.082016 -0.996052
vn -0.082016 0.033972 -0.996052
vn -0.102162 0.246642 -0.963707
vn 0.102162 0.246642 -0.963707
vn 0.033972 0.082016 -0.996052
vn -0.033972 0.082016 -0.996052
vn 0.102162 0.246642 -0.963707
vn 0.246642 0.102163 -0.963707
vn 0.082016 0.033972 -0.996052
vn 0.033972 0.082016 -0.996052
vn 0.246642 0.102163 -0.963707
vn 0.246642 -0.102163 -0.963707
vn 0.082016 -0.033972 -0.996052
vn 0.082016 0.033972 -0.996052
vn 0.246642 -0.102163 -0.963707
vn 0.102163 -0.246642 -0.963707
vn 0.033972 -0.082016 -0.996052
vn 0.082016 -0.033972 -0.996052
s off
f 1/1/1 2/2/2 10/3/3 9/4/4
f 2/2/5 3/5/6 11/6/7 10/3/8
f 3/5/9 4/7/10 12/8/11 11/6/12
f 4/7/13 5/9/14 13/10/15 12/8/16
f 5/9/17 6/11/18 14/12/19 13/10/20
f 6/11/21 7/13/22 15/14/23 14/12/24
f 7/13/25 8/15/26 16/16/27 15/14/28
f 8/15/29 1/1/30 9/4/31 16/16/32
f 18/17/33 17/18/34 19/19/35 20/20/36 21/21/37 22/22/38 23/23/39 24/24/40
f 25/25/41 26/26/42 27/27/43 28/28/44 29/29/45 30/30/46 31/31/47 32/32/48
f 1/1/49 8/15/50 17/18/51 18/17/52
f 8/15/53 7/13/54 19/19/55 17/18/56
f 7/13/57 6/11/58 20/20/59 19/19/60
f 6/11/61 5/9/62 21/21/63 20/20/64
f 5/9/65 4/7/66 22/22/67 21/21/68
f 4/7/69 3/5/70 23/23/71 22/22/72
f 3/5/73 2/2/74 24/24/75 23/23/76
f 2/2/77 1/1/78 18/17/79 24/24/80
f 9/4/81 10/3/82 26/26/83 25/25/84
f 10/3/85 11/6/86 27/27/87 26/26/88
f 11/6/89 12/8/90 28/28/91 27/27/92
f 12/8/93 13/10/94 29/29/95 28/28/96
f 13/10/97 14/12/98 30/30/99 29/29/100
f 14/12/101 15/14/102 31/31/103 30/30/104
f 15/14/105 16/16/106 32/32/107 31/31/108
f 16/16/109 9/4/110 25/25/111 32/32/112
