# This file uses centimeters as units for non-parametric coordinates.

v 4.813007 18.635315 1.034657
v 4.813007 18.635315 -1.034657
v 9.459242 20.169750 -1.034655
v 9.459242 20.169750 1.034655
v 6.619500 20.634489 -1.034656
v 6.619500 20.634489 1.034656
v 8.265286 18.623159 -1.034655
v 8.265285 18.623158 1.034655
v 7.049969 18.769579 -1.034656
v 7.049969 18.769579 1.034656
v 6.080671 17.428747 -1.034656
v 6.080671 17.428747 1.034656
v 3.382330 0.000000 -8.165667
v -3.382331 0.000000 -8.165667
v -8.165667 0.000000 -3.382330
v -8.165667 0.000000 3.382330
v -3.382331 0.000000 8.165667
v 3.382330 0.000000 8.165667
v 8.165667 0.000000 3.382331
v 8.165667 0.000000 -3.382331
v 4.082131 14.074606 -9.855138
v 9.855139 14.074606 -4.082131
v 9.855139 14.074606 4.082131
v 4.082131 14.074606 9.855138
v -4.082131 14.074606 9.855138
v -9.855138 14.074606 4.082131
v -9.855138 14.074606 -4.082131
v -4.082131 14.074606 -9.855138
v 4.094226 0.916823 -9.884336
v -4.094226 0.916823 -9.884337
v -9.884336 0.916823 -4.094226
v -9.884337 0.916823 4.094226
v -4.094226 0.916823 9.884336
v 4.094226 0.916823 9.884337
v 9.884337 0.916823 4.094226
v 9.884337 0.916823 -4.094226
v 0.936726 21.252720 -2.261456
v 2.261457 21.252720 -0.936725
v 2.261457 21.252720 0.936725
v 0.936726 21.252720 2.261456
v -0.936725 21.252720 2.261456
v -2.261456 21.252720 0.936725
v -2.261456 21.252720 -0.936725
v -0.936725 21.252720 -2.261456
v 0.936726 22.433273 -2.261456
v 2.261457 22.433273 -0.936725
v 2.261457 22.433273 0.936725
v 0.936726 22.433273 2.261456
v -0.936725 22.433273 2.261456
v -2.261456 22.433273 0.936725
v -2.261456 22.433273 -0.936725
v -0.936725 22.433273 -2.261456
v 1.315052 23.237736 -3.174817
v 3.174818 23.237736 -1.315052
v 3.174818 23.237736 1.315052
v 1.315052 23.237736 3.174817
v -1.315051 23.237736 3.174817
v -3.174817 23.237736 1.315052
v -3.174817 23.237736 -1.315052
v -1.315051 23.237736 -3.174817
v 1.315052 24.375027 -3.174817
v 3.174818 24.375027 -1.315052
v 3.174818 24.375027 1.315052
v 1.315052 24.375027 3.174817
v -1.315051 24.375027 3.174817
v -3.174817 24.375027 1.315052
v -3.174817 24.375027 -1.315052
v -1.315051 24.375027 -3.174817
v 1.081201 24.710062 -2.610250
v 2.610251 24.710062 -1.081201
v 2.610251 24.710062 1.081201
v 1.081201 24.710062 2.610250
v -1.081200 24.710062 2.610250
v -2.610250 24.710062 1.081201
v -2.610250 24.710062 -1.081201
v -1.081200 24.710062 -2.610250
v 0.613784 24.710062 -1.481806
v 1.481807 24.710062 -0.613784
v 1.481807 24.710062 0.613784
v 0.613784 24.710062 1.481806
v -0.613784 24.710062 1.481806
v -1.481806 24.710062 0.613784
v -1.481806 24.710062 -0.613784
v -0.613784 24.710062 -1.481806
v 0.000000 19.581812 0.000000
v 10.451324 16.953531 1.034657
v 10.443648 16.822887 -1.034657
v 8.919046 16.769409 -1.034657
v 8.936651 16.868752 1.034657
v 9.147425 14.486913 1.034659
v 9.218220 14.521828 -1.034659
v 8.275087 15.492001 -1.034657
v 8.224730 15.461700 1.034658
v -0.000001 0.000000 0.000000
vt 0.066042 0.321700
vt 0.066093 0.321643
vt 0.066043 0.321593
vt 0.066095 0.321537
vt 0.066034 0.321350
vt 0.066092 0.321291
vt 0.066093 0.321643
vt 0.066042 0.321700
vt 0.066095 0.321537
vt 0.066043 0.321593
vt 0.066092 0.321291
vt 0.066034 0.321350
vt 0.066093 0.321643
vt 0.066042 0.321700
vt 0.066095 0.321537
vt 0.066043 0.321593
vt 0.066092 0.321291
vt 0.066034 0.321350
vt 0.068858 0.324084
vt 0.069128 0.324069
vt 0.069319 0.324109
vt 0.069316 0.324186
vt 0.069093 0.324255
vt 0.068780 0.324270
vt 0.068595 0.324222
vt 0.068639 0.324145
vt 0.068965 0.324172
vt 0.068850 0.324237
vt 0.068818 0.324324
vt 0.068891 0.324384
vt 0.069030 0.324378
vt 0.069148 0.324309
vt 0.069175 0.324220
vt 0.069097 0.324164
vt 0.069127 0.323515
vt 0.068765 0.323525
vt 0.069402 0.323511
vt 0.069431 0.323514
vt 0.068481 0.323534
vt 0.068865 0.323192
vt 0.068779 0.323188
vt 0.068432 0.323538
vt 0.068783 0.323183
vt 0.068699 0.323535
vt 0.068878 0.323179
vt 0.069139 0.323525
vt 0.069008 0.323180
vt 0.069093 0.323184
vt 0.069083 0.323189
vt 0.068989 0.323192
vt 0.068865 0.323114
vt 0.068779 0.323109
vt 0.068783 0.323102
vt 0.068878 0.323097
vt 0.069008 0.323097
vt 0.069093 0.323103
vt 0.069083 0.323109
vt 0.068989 0.323114
vt 0.068837 0.323064
vt 0.068717 0.323056
vt 0.068720 0.323044
vt 0.068854 0.323036
vt 0.069039 0.323037
vt 0.069158 0.323046
vt 0.069142 0.323057
vt 0.069010 0.323064
vt 0.068838 0.322989
vt 0.068717 0.322980
vt 0.068720 0.322966
vt 0.068854 0.322956
vt 0.069039 0.322957
vt 0.069158 0.322968
vt 0.069142 0.322981
vt 0.069010 0.322990
vt 0.068854 0.322965
vt 0.068756 0.322956
vt 0.068759 0.322944
vt 0.068869 0.322936
vt 0.069020 0.322937
vt 0.069118 0.322946
vt 0.069105 0.322958
vt 0.068997 0.322965
vt 0.068888 0.322959
vt 0.068833 0.322954
vt 0.068836 0.322947
vt 0.068898 0.322943
vt 0.068982 0.322943
vt 0.069038 0.322948
vt 0.069032 0.322955
vt 0.068970 0.322959
vt 0.068935 0.323299
vt 0.066002 0.321831
vt 0.066002 0.321831
vt 0.066063 0.321766
vt 0.066063 0.321766
vt 0.066062 0.321769
vt 0.066002 0.321830
vt 0.065980 0.321902
vt 0.065980 0.321902
vt 0.066048 0.321822
vt 0.066048 0.321822
vt 0.066048 0.321825
vt 0.065979 0.321904
vt 0.068997 0.324275
vn -0.119615 -0.992820 0.000000
vn -0.119615 -0.992820 0.000000
vn -0.119615 -0.992820 0.000000
vn -0.119615 -0.992820 0.000000
vn 0.810416 -0.585856 0.000000
vn 0.810416 -0.585856 0.000000
vn 0.810416 -0.585856 0.000000
vn 0.810416 -0.585856 0.000000
vn 0.161507 0.986872 0.000000
vn 0.161507 0.986872 0.000000
vn 0.161507 0.986872 0.000000
vn 0.161507 0.986872 0.000000
vn -0.741957 0.670447 0.000000
vn -0.741957 0.670447 0.000000
vn -0.741957 0.670447 0.000000
vn -0.741957 0.670447 0.000000
vn -0.000000 0.000000 1.000000
vn -0.000000 0.000000 1.000000
vn -0.000000 0.000000 1.000000
vn -0.000000 0.000000 1.000000
vn 0.000000 -0.000000 -1.000000
vn 0.000000 -0.000000 -1.000000
vn 0.000000 -0.000000 -1.000000
vn 0.000000 -0.000000 -1.000000
vn 0.000000 -0.000000 1.000000
vn 0.000000 -0.000000 1.000000
vn 0.000000 -0.000000 1.000000
vn 0.000000 -0.000000 1.000000
vn 0.000000 0.000000 -1.000000
vn 0.000000 0.000000 -1.000000
vn 0.000000 0.000000 -1.000000
vn 0.000000 0.000000 -1.000000
vn -0.736523 -0.676412 -0.000001
vn -0.736523 -0.676412 -0.000001
vn -0.736523 -0.676412 -0.000001
vn -0.736523 -0.676412 -0.000001
vn 0.000000 0.000000 1.000000
vn 0.000000 0.000000 1.000000
vn 0.000000 0.000000 1.000000
vn 0.000000 0.000000 1.000000
vn 0.000000 0.001371 -0.999999
vn 0.000000 0.001371 -0.999999
vn 0.000000 0.001371 -0.999999
vn 0.000000 0.001371 -0.999999
vn -0.707106 0.001371 -0.707106
vn -0.707106 0.001371 -0.707106
vn -0.707106 0.001371 -0.707106
vn -0.707106 0.001371 -0.707106
vn -0.999999 0.001371 -0.000000
vn -0.999999 0.001371 -0.000000
vn -0.999999 0.001371 -0.000000
vn -0.999999 0.001371 -0.000000
vn -0.707106 0.001371 0.707106
vn -0.707106 0.001371 0.707106
vn -0.707106 0.001371 0.707106
vn -0.707106 0.001371 0.707106
vn 0.000000 0.001371 0.999999
vn 0.000000 0.001371 0.999999
vn 0.000000 0.001371 0.999999
vn 0.000000 0.001371 0.999999
vn 0.707106 0.001371 0.707106
vn 0.707106 0.001371 0.707106
vn 0.707106 0.001371 0.707106
vn 0.707106 0.001371 0.707106
vn 0.999999 0.001371 0.000000
vn 0.999999 0.001371 0.000000
vn 0.999999 0.001371 0.000000
vn 0.999999 0.001371 0.000000
vn 0.707106 0.001371 -0.707106
vn 0.707106 0.001371 -0.707106
vn 0.707106 0.001371 -0.707106
vn 0.707106 0.001371 -0.707106
vn 0.000000 -1.000000 0.000000
vn 0.000000 -1.000000 0.000000
vn 0.000000 -1.000000 0.000000
vn 0.000000 -1.000000 0.000000
vn 0.000000 -0.803880 -0.594792
vn 0.000000 -0.803880 -0.594792
vn 0.000000 -0.803880 -0.594792
vn 0.000000 -0.803880 -0.594792
vn -0.420582 -0.803880 -0.420581
vn -0.420582 -0.803880 -0.420581
vn -0.420582 -0.803880 -0.420581
vn -0.420582 -0.803880 -0.420581
vn -0.594792 -0.803879 -0.000000
vn -0.594792 -0.803879 -0.000000
vn -0.594792 -0.803879 -0.000000
vn -0.594792 -0.803879 -0.000000
vn -0.420582 -0.803879 0.420582
vn -0.420582 -0.803879 0.420582
vn -0.420582 -0.803879 0.420582
vn -0.420582 -0.803879 0.420582
vn -0.000000 -0.803880 0.594792
vn -0.000000 -0.803880 0.594792
vn -0.000000 -0.803880 0.594792
vn -0.000000 -0.803880 0.594792
vn 0.420582 -0.803880 0.420582
vn 0.420582 -0.803880 0.420582
vn 0.420582 -0.803880 0.420582
vn 0.420582 -0.803880 0.420582
vn 0.594792 -0.803880 0.000000
vn 0.594792 -0.803880 0.000000
vn 0.594792 -0.803880 0.000000
vn 0.594792 -0.803880 0.000000
vn 0.420582 -0.803879 -0.420582
vn 0.420582 -0.803879 -0.420582
vn 0.420582 -0.803879 -0.420582
vn 0.420582 -0.803879 -0.420582
vn 0.506720 0.697473 -0.506721
vn 0.506720 0.697473 -0.506721
vn 0.506720 0.697473 -0.506721
vn 0.506720 0.697473 -0.506721
vn 0.716611 0.697473 0.000000
vn 0.716611 0.697473 0.000000
vn 0.716611 0.697473 0.000000
vn 0.716611 0.697473 0.000000
vn 0.506720 0.697473 0.506721
vn 0.506720 0.697473 0.506721
vn 0.506720 0.697473 0.506721
vn 0.506720 0.697473 0.506721
vn 0.000000 0.697473 0.716611
vn 0.000000 0.697473 0.716611
vn 0.000000 0.697473 0.716611
vn 0.000000 0.697473 0.716611
vn -0.506720 0.697473 0.506721
vn -0.506720 0.697473 0.506721
vn -0.506720 0.697473 0.506721
vn -0.506720 0.697473 0.506721
vn -0.716611 0.697473 0.000000
vn -0.716611 0.697473 0.000000
vn -0.716611 0.697473 0.000000
vn -0.716611 0.697473 0.000000
vn -0.506720 0.697473 -0.506721
vn -0.506720 0.697473 -0.506721
vn -0.506720 0.697473 -0.506721
vn -0.506720 0.697473 -0.506721
vn 0.000000 0.697473 -0.716611
vn 0.000000 0.697473 -0.716611
vn 0.000000 0.697473 -0.716611
vn 0.000000 0.697473 -0.716611
vn 0.707107 0.000000 -0.707107
vn 0.707107 0.000000 -0.707107
vn 0.707107 0.000000 -0.707107
vn 0.707107 0.000000 -0.707107
vn 1.000000 0.000000 0.000000
vn 1.000000 0.000000 0.000000
vn 1.000000 0.000000 0.000000
vn 1.000000 0.000000 0.000000
vn 0.707107 0.000000 0.707107
vn 0.707107 0.000000 0.707107
vn 0.707107 0.000000 0.707107
vn 0.707107 0.000000 0.707107
vn 0.000000 0.000000 1.000000
vn 0.000000 0.000000 1.000000
vn 0.000000 0.000000 1.000000
vn 0.000000 0.000000 1.000000
vn -0.707107 0.000000 0.707107
vn -0.707107 0.000000 0.707107
vn -0.707107 0.000000 0.707107
vn -0.707107 0.000000 0.707107
vn -1.000000 0.000000 0.000000
vn -1.000000 0.000000 0.000000
vn -1.000000 0.000000 0.000000
vn -1.000000 0.000000 0.000000
vn -0.707107 0.000000 -0.707107
vn -0.707107 0.000000 -0.707107
vn -0.707107 0.000000 -0.707107
vn -0.707107 0.000000 -0.707107
vn 0.000000 0.000000 -1.000000
vn 0.000000 0.000000 -1.000000
vn 0.000000 0.000000 -1.000000
vn 0.000000 0.000000 -1.000000
vn 0.467365 -0.750426 -0.467366
vn 0.467365 -0.750426 -0.467366
vn 0.467365 -0.750426 -0.467366
vn 0.467365 -0.750426 -0.467366
vn 0.660954 -0.750426 0.000000
vn 0.660954 -0.750426 0.000000
vn 0.660954 -0.750426 0.000000
vn 0.660954 -0.750426 0.000000
vn 0.467365 -0.750426 0.467365
vn 0.467365 -0.750426 0.467365
vn 0.467365 -0.750426 0.467365
vn 0.467365 -0.750426 0.467365
vn 0.000000 -0.750426 0.660955
vn 0.000000 -0.750426 0.660955
vn 0.000000 -0.750426 0.660955
vn 0.000000 -0.750426 0.660955
vn -0.467365 -0.750426 0.467366
vn -0.467365 -0.750426 0.467366
vn -0.467365 -0.750426 0.467366
vn -0.467365 -0.750426 0.467366
vn -0.660954 -0.750426 0.000000
vn -0.660954 -0.750426 0.000000
vn -0.660954 -0.750426 0.000000
vn -0.660954 -0.750426 0.000000
vn -0.467365 -0.750426 -0.467365
vn -0.467365 -0.750426 -0.467365
vn -0.467365 -0.750426 -0.467365
vn -0.467365 -0.750426 -0.467365
vn 0.000000 -0.750426 -0.660955
vn 0.000000 -0.750426 -0.660955
vn 0.000000 -0.750426 -0.660955
vn 0.000000 -0.750426 -0.660955
vn 0.707107 0.000000 -0.707107
vn 0.707107 0.000000 -0.707107
vn 0.707107 0.000000 -0.707107
vn 0.707107 0.000000 -0.707107
vn 1.000000 0.000000 0.000000
vn 1.000000 0.000000 0.000000
vn 1.000000 0.000000 0.000000
vn 1.000000 0.000000 0.000000
vn 0.707107 0.000000 0.707107
vn 0.707107 0.000000 0.707107
vn 0.707107 0.000000 0.707107
vn 0.707107 0.000000 0.707107
vn 0.000000 0.000000 1.000000
vn 0.000000 0.000000 1.000000
vn 0.000000 0.000000 1.000000
vn 0.000000 0.000000 1.000000
vn -0.707107 0.000000 0.707107
vn -0.707107 0.000000 0.707107
vn -0.707107 0.000000 0.707107
vn -0.707107 0.000000 0.707107
vn -1.000000 0.000000 0.000000
vn -1.000000 0.000000 0.000000
vn -1.000000 0.000000 0.000000
vn -1.000000 0.000000 0.000000
vn -0.707107 0.000000 -0.707107
vn -0.707107 0.000000 -0.707107
vn -0.707107 0.000000 -0.707107
vn -0.707107 0.000000 -0.707107
vn 0.000000 0.000000 -1.000000
vn 0.000000 0.000000 -1.000000
vn 0.000000 0.000000 -1.000000
vn 0.000000 0.000000 -1.000000
vn 0.360865 0.859972 -0.360865
vn 0.360865 0.859972 -0.360865
vn 0.360865 0.859972 -0.360865
vn 0.360865 0.859972 -0.360865
vn 0.510340 0.859973 0.000000
vn 0.510340 0.859973 0.000000
vn 0.510340 0.859973 0.000000
vn 0.510340 0.859973 0.000000
vn 0.360865 0.859972 0.360866
vn 0.360865 0.859972 0.360866
vn 0.360865 0.859972 0.360866
vn 0.360865 0.859972 0.360866
vn 0.000000 0.859973 0.510340
vn 0.000000 0.859973 0.510340
vn 0.000000 0.859973 0.510340
vn 0.000000 0.859973 0.510340
vn -0.360865 0.859972 0.360867
vn -0.360865 0.859972 0.360867
vn -0.360865 0.859972 0.360867
vn -0.360865 0.859972 0.360867
vn -0.510341 0.859972 0.000000
vn -0.510341 0.859972 0.000000
vn -0.510341 0.859972 0.000000
vn -0.510341 0.859972 0.000000
vn -0.360865 0.859972 -0.360867
vn -0.360865 0.859972 -0.360867
vn -0.360865 0.859972 -0.360867
vn -0.360865 0.859972 -0.360867
vn 0.000000 0.859973 -0.510340
vn 0.000000 0.859973 -0.510340
vn 0.000000 0.859973 -0.510340
vn 0.000000 0.859973 -0.510340
vn 0.000000 1.000000 0.000000
vn 0.000000 1.000000 0.000000
vn 0.000000 1.000000 0.000000
vn 0.000000 1.000000 0.000000
vn 0.000000 1.000000 0.000000
vn 0.000000 1.000000 0.000000
vn 0.000000 1.000000 0.000000
vn 0.000000 1.000000 0.000000
vn 0.000000 1.000000 0.000000
vn 0.000000 1.000000 0.000000
vn 0.000000 1.000000 0.000000
vn 0.000000 1.000000 0.000000
vn 0.000000 1.000000 -0.000001
vn 0.000000 1.000000 -0.000001
vn 0.000000 1.000000 -0.000001
vn 0.000000 1.000000 -0.000001
vn 0.000000 1.000000 -0.000002
vn 0.000000 1.000000 -0.000002
vn 0.000000 1.000000 -0.000002
vn 0.000000 1.000000 -0.000002
vn 0.000000 1.000000 0.000000
vn 0.000000 1.000000 0.000000
vn 0.000000 1.000000 0.000000
vn 0.000000 1.000000 0.000000
vn 0.000000 1.000000 0.000001
vn 0.000000 1.000000 0.000001
vn 0.000000 1.000000 0.000001
vn 0.000000 1.000000 0.000001
vn 0.000000 1.000000 0.000002
vn 0.000000 1.000000 0.000002
vn 0.000000 1.000000 0.000002
vn 0.000000 1.000000 0.000002
vn -0.679316 0.277594 0.679317
vn -0.679316 0.277594 0.679317
vn -0.679316 0.277594 0.679317
vn -0.960699 0.277594 0.000000
vn -0.960699 0.277594 0.000000
vn -0.960699 0.277594 0.000000
vn -0.679316 0.277594 -0.679317
vn -0.679316 0.277594 -0.679317
vn -0.679316 0.277594 -0.679317
vn 0.000000 0.277594 -0.960699
vn 0.000000 0.277594 -0.960699
vn 0.000000 0.277594 -0.960699
vn 0.679316 0.277593 -0.679317
vn 0.679316 0.277593 -0.679317
vn 0.679316 0.277593 -0.679317
vn 0.960699 0.277594 0.000000
vn 0.960699 0.277594 0.000000
vn 0.960699 0.277594 0.000000
vn 0.679316 0.277593 0.679317
vn 0.679316 0.277593 0.679317
vn 0.679316 0.277593 0.679317
vn 0.000000 0.277594 0.960699
vn 0.000000 0.277594 0.960699
vn 0.000000 0.277594 0.960699
vn -0.938440 -0.344650 0.023376
vn -0.938440 -0.344650 0.023376
vn -0.938440 -0.344650 0.023376
vn -0.938440 -0.344650 0.023376
vn 0.957402 0.288324 -0.015848
vn 0.957402 0.288324 -0.015848
vn 0.957402 0.288324 -0.015848
vn 0.957402 0.288324 -0.015848
vn -0.000000 0.000000 -1.000000
vn -0.000000 0.000000 -1.000000
vn -0.000000 0.000000 -1.000000
vn -0.000000 0.000000 -1.000000
vn -0.000000 0.000001 1.000000
vn -0.000000 0.000001 1.000000
vn -0.000000 0.000001 1.000000
vn -0.000000 0.000001 1.000000
vn -0.892260 0.450667 -0.027787
vn -0.892260 0.450667 -0.027787
vn -0.892260 0.450667 -0.027787
vn -0.892260 0.450667 -0.027787
vn 0.882831 -0.468356 0.035400
vn 0.882831 -0.468356 0.035400
vn 0.882831 -0.468356 0.035400
vn 0.882831 -0.468356 0.035400
vn -0.000000 0.000001 -1.000000
vn -0.000000 0.000001 -1.000000
vn -0.000000 0.000001 -1.000000
vn -0.000000 0.000001 -1.000000
vn -0.721265 -0.691919 -0.032017
vn -0.721265 -0.691919 -0.032017
vn -0.721265 -0.691919 -0.032017
vn -0.721265 -0.691919 -0.032017
vn 0.000000 -1.000000 0.000000
vn 0.000000 -1.000000 0.000000
vn 0.000000 -1.000000 0.000000
vn 0.000000 -1.000000 0.000000
vn 0.000000 -1.000000 0.000000
vn 0.000000 -1.000000 0.000000
vn 0.000000 -1.000000 0.000000
vn 0.000000 -1.000000 0.000000
vn 0.000000 -1.000000 0.000000
vn 0.000000 -1.000000 0.000000
vn 0.000000 -1.000000 0.000000
vn 0.000000 -1.000000 0.000000
s off
f 8/1/1 10/3/2 9/4/3 7/2/4
f 10/3/5 12/5/6 11/6/7 9/4/8
f 4/8/9 3/7/10 5/9/11 6/10/12
f 6/10/13 5/9/14 2/11/15 1/12/16
f 4/14/17 8/1/18 89/97/19 86/92/20
f 3/13/21 7/2/22 9/4/23 5/15/24
f 6/16/25 10/3/26 8/1/27 4/14/28
f 5/15/29 9/4/30 11/6/31 2/17/32
f 2/17/33 11/6/34 12/5/35 1/18/36
f 1/18/37 12/5/38 10/3/39 6/16/40
f 28/35/41 21/36/42 29/19/43 30/20/44
f 27/37/45 28/35/46 30/20/47 31/21/48
f 26/38/49 27/37/50 31/21/51 32/22/52
f 25/46/53 26/38/54 32/22/55 33/23/56
f 24/44/57 25/46/58 33/23/59 34/24/60
f 23/42/61 24/44/62 34/24/63 35/25/64
f 22/39/65 23/42/66 35/25/67 36/26/68
f 29/19/69 21/36/70 22/39/71 36/26/72
f 13/27/73 20/28/74 19/29/75 94/104/76
f 30/20/77 29/19/78 13/27/79 14/34/80
f 31/21/81 30/20/82 14/34/83 15/33/84
f 32/22/85 31/21/86 15/33/87 16/32/88
f 33/23/89 32/22/90 16/32/91 17/31/92
f 34/24/93 33/23/94 17/31/95 18/30/96
f 35/25/97 34/24/98 18/30/99 19/29/100
f 36/26/101 35/25/102 19/29/103 20/28/104
f 13/27/105 29/19/106 36/26/107 20/28/108
f 22/39/109 21/36/110 37/40/111 38/41/112
f 23/42/113 22/39/114 38/41/115 39/43/116
f 24/44/117 23/42/118 39/43/119 40/45/120
f 25/46/121 24/44/122 40/45/123 41/47/124
f 26/38/125 25/46/126 41/47/127 42/48/128
f 27/37/129 26/38/130 42/48/131 43/49/132
f 28/35/133 27/37/134 43/49/135 44/50/136
f 21/36/137 28/35/138 44/50/139 37/40/140
f 38/41/141 37/40/142 45/51/143 46/52/144
f 39/43/145 38/41/146 46/52/147 47/53/148
f 40/45/149 39/43/150 47/53/151 48/54/152
f 41/47/153 40/45/154 48/54/155 49/55/156
f 42/48/157 41/47/158 49/55/159 50/56/160
f 43/49/161 42/48/162 50/56/163 51/57/164
f 44/50/165 43/49/166 51/57/167 52/58/168
f 37/40/169 44/50/170 52/58/171 45/51/172
f 46/52/173 45/51/174 53/59/175 54/60/176
f 47/53/177 46/52/178 54/60/179 55/61/180
f 48/54/181 47/53/182 55/61/183 56/62/184
f 49/55/185 48/54/186 56/62/187 57/63/188
f 50/56/189 49/55/190 57/63/191 58/64/192
f 51/57/193 50/56/194 58/64/195 59/65/196
f 52/58/197 51/57/198 59/65/199 60/66/200
f 45/51/201 52/58/202 60/66/203 53/59/204
f 54/60/205 53/59/206 61/67/207 62/68/208
f 55/61/209 54/60/210 62/68/211 63/69/212
f 56/62/213 55/61/214 63/69/215 64/70/216
f 57/63/217 56/62/218 64/70/219 65/71/220
f 58/64/221 57/63/222 65/71/223 66/72/224
f 59/65/225 58/64/226 66/72/227 67/73/228
f 60/66/229 59/65/230 67/73/231 68/74/232
f 53/59/233 60/66/234 68/74/235 61/67/236
f 62/68/237 61/67/238 69/75/239 70/76/240
f 63/69/241 62/68/242 70/76/243 71/77/244
f 64/70/245 63/69/246 71/77/247 72/78/248
f 65/71/249 64/70/250 72/78/251 73/79/252
f 66/72/253 65/71/254 73/79/255 74/80/256
f 67/73/257 66/72/258 74/80/259 75/81/260
f 68/74/261 67/73/262 75/81/263 76/82/264
f 61/67/265 68/74/266 76/82/267 69/75/268
f 70/76/269 69/75/270 77/83/271 78/84/272
f 71/77/273 70/76/274 78/84/275 79/85/276
f 72/78/277 71/77/278 79/85/279 80/86/280
f 73/79/281 72/78/282 80/86/283 81/87/284
f 74/80/285 73/79/286 81/87/287 82/88/288
f 75/81/289 74/80/290 82/88/291 83/89/292
f 76/82/293 75/81/294 83/89/295 84/90/296
f 69/75/297 76/82/298 84/90/299 77/83/300
f 78/84/301 77/83/302 85/91/303
f 79/85/304 78/84/305 85/91/306
f 80/86/307 79/85/308 85/91/309
f 81/87/310 80/86/311 85/91/312
f 82/88/313 81/87/314 85/91/315
f 83/89/316 82/88/317 85/91/318
f 84/90/319 83/89/320 85/91/321
f 77/83/322 84/90/323 85/91/324
f 88/96/325 89/97/326 8/1/327 7/2/328
f 86/93/329 87/94/330 3/7/331 4/8/332
f 87/95/333 88/96/334 7/2/335 3/13/336
f 86/92/337 89/97/338 93/103/339 90/98/340
f 92/102/341 93/103/342 89/97/343 88/96/344
f 90/99/345 91/100/346 87/94/347 86/93/348
f 91/101/349 92/102/350 88/96/351 87/95/352
f 90/98/353 93/103/354 92/102/355 91/100/356
f 13/27/357 94/104/358 15/33/359 14/34/360
f 94/104/361 19/29/362 18/30/363 17/31/364
f 15/33/365 94/104/366 17/31/367 16/32/368
