# This file uses centimeters as units for non-parametric coordinates.

v -4.264648 1.621026 0.492615
v -1.479492 4.264846 0.492615
v -1.479492 4.264846 -0.492554
v -4.264648 1.621026 -0.492554
v 1.479492 4.264846 0.492615
v 4.264648 1.621026 0.492615
v 4.264648 1.621026 -0.492554
v 1.479492 4.264846 -0.492554
v -1.479492 -4.264846 0.492615
v -4.264648 -1.621025 0.492615
v -4.264648 -1.621025 -0.492554
v -1.479492 -4.264846 -0.492554
v 4.264648 -1.621025 0.492615
v 1.479492 -4.264846 0.492615
v 1.479492 -4.264846 -0.492554
v 4.264648 -1.621025 -0.492554
v -2.127930 5.160042 0.470886
v -5.159668 2.128121 0.470886
v 2.128418 5.160042 0.470886
v 5.160156 2.128121 0.470886
v 2.128418 5.160042 -0.470825
v 5.160156 2.128121 -0.470825
v -2.127930 5.160042 -0.470825
v -5.159668 2.128121 -0.470825
v -2.127930 -5.160042 -0.470825
v -5.159668 -2.128121 -0.470825
v 2.128418 -5.160042 -0.470825
v 5.160156 -2.128121 -0.470825
v 2.128418 -5.160042 0.470886
v 5.160156 -2.128121 0.470886
v -2.127930 -5.160042 0.470886
v -5.159668 -2.128121 0.470886
v 0.067383 -7.579233 -1.635132
v -0.496094 -6.630089 -0.659302
v -1.059570 -7.579233 0.316528
v -1.081055 -8.780488 0.353943
v -0.496094 -9.833505 -0.659302
v 0.088379 -8.780488 -1.672546
v 1.596680 -7.712773 -0.712463
v 1.050781 -6.630082 0.233887
v 0.504395 -7.712773 1.180176
v 0.465820 -8.780485 1.247070
v 1.050781 -9.833500 0.233887
v 1.635742 -8.780485 -0.779419
v 0.704590 -11.571025 -0.952698
v -0.149902 -11.571025 0.527283
v -0.841309 -10.461876 1.724670
v -1.105469 -8.599557 2.182007
v -0.750488 -5.823732 1.567688
v 1.305176 -5.823732 -1.993164
v 1.660156 -8.599557 -2.607483
v 1.395996 -10.461876 -2.150085
v -1.103516 -7.456326 2.179016
v 1.658203 -7.456326 -2.604431
v -0.839844 -6.497660 -0.857788
v 1.394531 -6.497658 0.432312
v 0.168945 -3.929956 0.850098
v -0.588867 -3.929961 0.412292
v 0.385742 -3.929961 -1.275574
v 1.143555 -3.929956 -0.837708
v 1.163086 -5.497918 -2.622498
v 1.921387 -5.497920 -2.184631
v -1.366699 -5.497918 1.759277
v -0.608398 -5.497915 2.197021
vt 0.027796 0.232795
vt 0.027538 0.232474
vt 0.027604 0.232406
vt 0.027889 0.232777
vt 0.027840 0.232742
vt 0.027587 0.232427
vt 0.027930 0.232726
vt 0.027651 0.232361
vt 0.027264 0.232394
vt 0.027038 0.232551
vt 0.026964 0.232485
vt 0.027204 0.232293
vt 0.027317 0.232350
vt 0.027092 0.232507
vt 0.027257 0.232253
vt 0.027017 0.232444
vt 0.027523 0.233170
vt 0.027777 0.233062
vt 0.027858 0.233130
vt 0.027577 0.233253
vt 0.027567 0.233117
vt 0.027819 0.233007
vt 0.027618 0.233201
vt 0.027897 0.233076
vt 0.027056 0.232807
vt 0.027283 0.233080
vt 0.027236 0.233122
vt 0.026992 0.232820
vt 0.027107 0.232761
vt 0.027330 0.233029
vt 0.027041 0.232776
vt 0.027281 0.233074
vt 0.138646 0.420557
vt 0.138860 0.420521
vt 0.138654 0.420252
vt 0.138940 0.420686
vt 0.139173 0.420478
vt 0.139165 0.420688
vt 0.138834 0.420885
vt 0.138839 0.421102
vt 0.139080 0.420890
vt 0.138589 0.420923
vt 0.138555 0.421132
vt 0.138306 0.421021
vt 0.138495 0.420736
vt 0.138186 0.420813
vt 0.138277 0.420537
vt 0.138441 0.420371
vt 0.138639 0.420414
vt 0.138860 0.420362
vt 0.138587 0.420765
vt 0.138493 0.420578
vt 0.138834 0.420728
vt 0.138927 0.420539
vt 0.080344 0.212171
vt 0.080317 0.212125
vt 0.080190 0.212003
vt 0.080266 0.212083
vt 0.080972 0.212029
vt 0.080991 0.211863
vt 0.080740 0.212401
vt 0.081190 0.211989
vt 0.080837 0.212417
vt 0.080373 0.212110
vt 0.080875 0.211504
vt 0.081064 0.211628
vt 0.080747 0.211696
vt 0.080563 0.211580
vn -0.014609 0.014941 0.999782
vn -0.014609 0.014941 0.999782
vn -0.014609 0.014941 0.999782
vn -0.014609 0.014941 0.999782
vn 0.688492 -0.725244 0.000000
vn 0.688492 -0.725244 0.000000
vn 0.688492 -0.725244 0.000000
vn 0.688492 -0.725244 0.000000
vn -0.014544 0.014941 -0.999783
vn -0.014544 0.014941 -0.999783
vn -0.014544 0.014941 -0.999783
vn -0.014544 0.014941 -0.999783
vn 0.014582 0.014934 0.999782
vn 0.014582 0.014934 0.999782
vn 0.014582 0.014934 0.999782
vn 0.014582 0.014934 0.999782
vn -0.688492 -0.725244 0.000000
vn -0.688492 -0.725244 0.000000
vn -0.688492 -0.725244 0.000000
vn -0.688492 -0.725244 0.000000
vn 0.014525 0.014934 -0.999783
vn 0.014525 0.014934 -0.999783
vn 0.014525 0.014934 -0.999783
vn 0.014525 0.014934 -0.999783
vn -0.014587 -0.014941 0.999782
vn -0.014587 -0.014941 0.999782
vn -0.014587 -0.014941 0.999782
vn -0.014587 -0.014941 0.999782
vn 0.688492 0.725244 0.000000
vn 0.688492 0.725244 0.000000
vn 0.688492 0.725244 0.000000
vn 0.688492 0.725244 0.000000
vn -0.014551 -0.014941 -0.999783
vn -0.014551 -0.014941 -0.999783
vn -0.014551 -0.014941 -0.999783
vn -0.014551 -0.014941 -0.999783
vn 0.014582 -0.014934 0.999782
vn 0.014582 -0.014934 0.999782
vn 0.014582 -0.014934 0.999782
vn 0.014582 -0.014934 0.999782
vn -0.688492 0.725244 0.000000
vn -0.688492 0.725244 0.000000
vn -0.688492 0.725244 0.000000
vn -0.688492 0.725244 0.000000
vn 0.014539 -0.014934 -0.999783
vn 0.014539 -0.014934 -0.999783
vn 0.014539 -0.014934 -0.999783
vn 0.014539 -0.014934 -0.999783
vn -0.707137 0.707077 0.000000
vn -0.707137 0.707077 0.000000
vn -0.707137 0.707077 0.000000
vn -0.707137 0.707077 0.000000
vn 0.707137 0.707077 0.000000
vn 0.707137 0.707077 0.000000
vn 0.707137 0.707077 0.000000
vn 0.707137 0.707077 0.000000
vn -0.707137 -0.707077 0.000000
vn -0.707137 -0.707077 0.000000
vn -0.707137 -0.707077 0.000000
vn -0.707137 -0.707077 0.000000
vn 0.707137 -0.707077 0.000000
vn 0.707137 -0.707077 0.000000
vn 0.707137 -0.707077 0.000000
vn 0.707137 -0.707077 0.000000
vn 0.000000 1.000000 0.000000
vn 0.000000 1.000000 0.000000
vn 0.000000 1.000000 0.000000
vn 0.000000 1.000000 0.000000
vn 0.000000 -1.000000 0.000000
vn 0.000000 -1.000000 0.000000
vn 0.000000 -1.000000 0.000000
vn 0.000000 -1.000000 0.000000
vn 1.000000 0.000000 0.000000
vn 1.000000 0.000000 0.000000
vn 1.000000 0.000000 0.000000
vn 1.000000 0.000000 0.000000
vn -1.000000 0.000000 0.000000
vn -1.000000 0.000000 0.000000
vn -1.000000 0.000000 0.000000
vn -1.000000 0.000000 0.000000
vn 0.000000 -1.000000 0.000000
vn 0.000000 -1.000000 0.000000
vn 0.000000 -1.000000 0.000000
vn 0.000000 -1.000000 0.000000
vn 0.000000 1.000000 0.000000
vn 0.000000 1.000000 0.000000
vn 0.000000 1.000000 0.000000
vn 0.000000 1.000000 0.000000
vn -1.000000 0.000000 0.000000
vn -1.000000 0.000000 0.000000
vn -1.000000 0.000000 0.000000
vn -1.000000 0.000000 0.000000
vn 1.000000 0.000000 0.000000
vn 1.000000 0.000000 0.000000
vn 1.000000 0.000000 0.000000
vn 1.000000 0.000000 0.000000
vn 0.000000 0.024266 0.999706
vn 0.000000 0.024266 0.999706
vn 0.000000 0.024266 0.999706
vn 0.000000 0.024266 0.999706
vn 0.000000 0.024266 -0.999706
vn 0.000000 0.024266 -0.999706
vn 0.000000 0.024266 -0.999706
vn 0.000000 0.024266 -0.999706
vn 0.000000 -0.024266 -0.999706
vn 0.000000 -0.024266 -0.999706
vn 0.000000 -0.024266 -0.999706
vn 0.000000 -0.024266 -0.999706
vn 0.000000 -0.024266 0.999706
vn 0.000000 -0.024266 0.999706
vn 0.000000 -0.024266 0.999706
vn 0.000000 -0.024266 0.999706
vn 0.024199 0.000000 -0.999707
vn 0.024199 0.000000 -0.999707
vn 0.024199 0.000000 -0.999707
vn 0.024199 0.000000 -0.999707
vn 0.024271 0.000000 0.999705
vn 0.024271 0.000000 0.999705
vn 0.024271 0.000000 0.999705
vn 0.024271 0.000000 0.999705
vn -0.024312 0.000000 0.999704
vn -0.024312 0.000000 0.999704
vn -0.024312 0.000000 0.999704
vn -0.024312 0.000000 0.999704
vn -0.024239 0.000000 -0.999706
vn -0.024239 0.000000 -0.999706
vn -0.024239 0.000000 -0.999706
vn -0.024239 0.000000 -0.999706
vn -0.652102 0.319683 -0.687434
vn -0.652102 0.319683 -0.687434
vn -0.652102 0.319683 -0.687434
vn -0.921387 0.319683 -0.221020
vn -0.921387 0.319683 -0.221020
vn -0.921387 0.319683 -0.221020
vn -0.979495 0.198188 -0.036202
vn -0.979495 0.198188 -0.036202
vn -0.979495 0.198188 -0.036202
vn -0.992179 -0.117114 -0.043192
vn -0.992179 -0.117114 -0.043192
vn -0.992179 -0.117114 -0.043192
vn -0.917603 -0.283302 -0.278827
vn -0.917603 -0.283302 -0.278827
vn -0.917603 -0.283302 -0.278827
vn -0.917603 -0.283302 -0.278827
vn -0.800255 -0.382261 -0.462027
vn -0.800255 -0.382261 -0.462027
vn -0.800255 -0.382261 -0.462027
vn -0.700273 -0.283302 -0.655255
vn -0.700273 -0.283302 -0.655255
vn -0.700273 -0.283302 -0.655255
vn -0.700273 -0.283302 -0.655255
vn -0.533495 -0.117114 -0.837656
vn -0.533495 -0.117114 -0.837656
vn -0.533495 -0.117114 -0.837656
vn -0.536764 0.059597 -0.841625
vn -0.536764 0.059597 -0.841625
vn -0.536764 0.059597 -0.841625
vn -0.536764 0.059597 -0.841625
vn -0.866026 -0.000000 -0.499999
vn -0.866026 -0.000000 -0.499999
vn -0.866026 -0.000000 -0.499999
vn -0.866026 -0.000000 -0.499999
vn 0.866025 -0.000000 0.500000
vn 0.866025 -0.000000 0.500000
vn 0.866025 -0.000000 0.500000
vn 0.866025 -0.000000 0.500000
vn 0.800256 -0.382257 0.462028
vn 0.800256 -0.382257 0.462028
vn 0.800256 -0.382257 0.462028
vn 0.700275 -0.283300 0.655253
vn 0.700275 -0.283300 0.655253
vn 0.700275 -0.283300 0.655253
vn 0.700275 -0.283300 0.655253
vn 0.533494 -0.117110 0.837657
vn 0.533494 -0.117110 0.837657
vn 0.533494 -0.117110 0.837657
vn 0.539734 0.190362 0.820030
vn 0.539734 0.190362 0.820030
vn 0.539734 0.190362 0.820030
vn 0.649718 0.287280 0.703802
vn 0.649718 0.287280 0.703802
vn 0.649718 0.287280 0.703802
vn 0.934369 0.287279 0.210772
vn 0.934369 0.287279 0.210772
vn 0.934369 0.287279 0.210772
vn 0.996547 0.065667 0.050818
vn 0.996547 0.065667 0.050818
vn 0.996547 0.065667 0.050818
vn 0.996547 0.065667 0.050818
vn 0.992179 -0.117110 0.043192
vn 0.992179 -0.117110 0.043192
vn 0.992179 -0.117110 0.043192
vn 0.917603 -0.283300 0.278830
vn 0.917603 -0.283300 0.278830
vn 0.917603 -0.283300 0.278830
vn 0.917603 -0.283300 0.278830
vn -0.997251 0.059597 -0.044038
vn -0.997251 0.059597 -0.044038
vn -0.997251 0.059597 -0.044038
vn -0.997251 0.059597 -0.044038
vn 0.542282 0.065667 0.837626
vn 0.542282 0.065667 0.837626
vn 0.542282 0.065667 0.837626
vn 0.542282 0.065667 0.837626
vn -0.521100 0.198188 -0.830167
vn -0.521100 0.198188 -0.830167
vn -0.521100 0.198188 -0.830167
vn 0.980034 0.190362 0.057408
vn 0.980034 0.190362 0.057408
vn 0.980034 0.190362 0.057408
vn 0.866025 -0.000000 0.500000
vn 0.866025 -0.000000 0.500000
vn 0.866025 -0.000000 0.500000
vn 0.866025 -0.000000 0.500000
vn -0.866025 -0.000000 -0.500001
vn -0.866025 -0.000000 -0.500001
vn -0.866025 -0.000000 -0.500001
vn -0.866025 -0.000000 -0.500001
vn 0.417803 -0.871289 -0.257480
vn 0.417803 -0.871289 -0.257480
vn 0.417803 -0.871289 -0.257480
vn 0.417803 -0.871289 -0.257480
vn -0.014078 -0.871286 0.490573
vn -0.014078 -0.871286 0.490573
vn -0.014078 -0.871286 0.490573
vn -0.014078 -0.871286 0.490573
vn -0.417812 -0.871285 0.257479
vn -0.417812 -0.871285 0.257479
vn -0.417812 -0.871285 0.257479
vn -0.417812 -0.871285 0.257479
vn 0.014078 -0.871285 -0.490575
vn 0.014078 -0.871285 -0.490575
vn 0.014078 -0.871285 -0.490575
vn 0.014078 -0.871285 -0.490575
vn -0.354984 0.704238 0.614846
vn -0.354984 0.704238 0.614846
vn -0.354984 0.704238 0.614846
vn -0.354984 0.704238 0.614846
vn 0.354982 0.704235 -0.614850
vn 0.354982 0.704235 -0.614850
vn 0.354982 0.704235 -0.614850
vn 0.354982 0.704235 -0.614850
vn -0.821930 0.315025 -0.474542
vn -0.821930 0.315025 -0.474542
vn -0.821930 0.315025 -0.474542
vn 0.821931 0.315024 0.474542
vn 0.821931 0.315024 0.474542
vn 0.821931 0.315024 0.474542
vn 0.934245 0.227232 0.274868
vn 0.934245 0.227232 0.274868
vn 0.934245 0.227232 0.274868
vn 0.705164 0.227232 0.671647
vn 0.705164 0.227232 0.671647
vn 0.705164 0.227232 0.671647
vn -0.934244 0.227234 -0.274868
vn -0.934244 0.227234 -0.274868
vn -0.934244 0.227234 -0.274868
vn -0.705165 0.227233 -0.671646
vn -0.705165 0.227233 -0.671646
vn -0.705165 0.227233 -0.671646
vn 0.283252 -0.824057 -0.490611
vn 0.283252 -0.824057 -0.490611
vn 0.283252 -0.824057 -0.490611
vn -0.283253 -0.824054 0.490615
vn -0.283253 -0.824054 0.490615
vn -0.283253 -0.824054 0.490615
vn -0.000017 1.000000 -0.000010
vn -0.000005 1.000000 -0.000001
vn -0.000000 1.000000 0.000000
vn -0.000003 1.000000 -0.000004
s off
f 1/1/1 2/2/2 17/3/3 18/4/4
f 2/2/5 1/1/6 4/5/7 3/6/8
f 3/6/9 4/5/10 24/7/11 23/8/12
f 5/9/13 6/10/14 20/11/15 19/12/16
f 6/10/17 5/9/18 8/13/19 7/14/20
f 7/14/21 8/13/22 21/15/23 22/16/24
f 9/17/25 10/18/26 32/19/27 31/20/28
f 10/18/29 9/17/30 12/21/31 11/22/32
f 11/22/33 12/21/34 25/23/35 26/24/36
f 13/25/37 14/26/38 29/27/39 30/28/40
f 14/26/41 13/25/42 16/29/43 15/30/44
f 15/30/45 16/29/46 28/31/47 27/32/48
f 18/4/49 17/3/50 23/8/51 24/7/52
f 19/12/53 20/11/54 22/16/55 21/15/56
f 26/24/57 25/23/58 31/20/59 32/19/60
f 27/32/61 28/31/62 30/28/63 29/27/64
f 17/3/65 19/12/66 21/15/67 23/8/68
f 25/23/69 27/32/70 29/27/71 31/20/72
f 30/28/73 28/31/74 22/16/75 20/11/76
f 26/24/77 32/19/78 18/4/79 24/7/80
f 2/2/81 3/6/82 8/13/83 5/9/84
f 12/21/85 9/17/86 14/26/87 15/30/88
f 13/25/89 6/10/90 7/14/91 16/29/92
f 11/22/93 4/5/94 1/1/95 10/18/96
f 2/2/97 5/9/98 19/12/99 17/3/100
f 8/13/101 3/6/102 23/8/103 21/15/104
f 12/21/105 15/30/106 27/32/107 25/23/108
f 14/26/109 9/17/110 31/20/111 29/27/112
f 16/29/113 7/14/114 22/16/115 28/31/116
f 6/10/117 13/25/118 30/28/119 20/11/120
f 10/18/121 1/1/122 18/4/123 32/19/124
f 4/5/125 11/22/126 26/24/127 24/7/128
f 33/33/129 34/34/130 50/35/131
f 34/34/132 35/36/133 49/37/134
f 35/36/135 53/38/136 49/37/137
f 36/39/138 47/40/139 48/41/140
f 36/39/141 37/42/142 46/43/143 47/40/144
f 37/42/145 45/44/146 46/43/147
f 37/42/148 38/45/149 52/46/150 45/44/151
f 38/45/152 51/47/153 52/46/154
f 38/45/155 33/33/156 54/48/157 51/47/158
f 34/34/159 37/42/160 36/39/161 35/36/162
f 39/49/163 40/50/164 43/51/165 44/52/166
f 46/43/167 45/44/168 43/51/169
f 47/40/170 46/43/171 43/51/172 42/53/173
f 48/41/174 47/40/175 42/53/176
f 49/37/177 53/38/178 41/54/179
f 40/50/180 49/37/181 41/54/182
f 50/35/183 40/50/184 39/49/185
f 51/47/186 54/48/187 39/49/188 44/52/189
f 52/46/190 51/47/191 44/52/192
f 45/44/193 52/46/194 44/52/195 43/51/196
f 35/36/197 36/39/198 48/41/199 53/38/200
f 41/54/201 53/38/202 48/41/203 42/53/204
f 33/33/205 50/35/206 54/48/207
f 39/49/208 54/48/209 50/35/210
f 43/51/211 40/50/212 41/54/213 42/53/214
f 33/33/215 38/45/216 37/42/217 34/34/218
f 40/55/219 50/56/220 62/57/221 56/58/222
f 49/59/223 40/55/224 56/58/225 64/60/226
f 34/61/227 49/59/228 63/62/229 55/63/230
f 50/56/231 34/61/232 55/63/233 61/64/234
f 57/65/235 58/66/236 63/62/237 64/60/238
f 59/67/239 60/68/240 62/57/241 61/64/242
f 55/63/243 58/66/244 59/67/245
f 60/68/246 57/65/247 56/58/248
f 62/57/249 60/68/250 56/58/251
f 57/65/252 64/60/253 56/58/254
f 55/63/255 63/62/256 58/66/257
f 59/67/258 61/64/259 55/63/260
f 61/64/261 62/57/262 50/56/263
f 63/62/264 49/59/265 64/60/266
f 59/67/267 58/66/268 57/65/269 60/68/270
