# This file uses centimeters as units for non-parametric coordinates.

v 11.092539 11.657381 -4.594786
v -5.056024 11.657381 -10.913706
v -11.387402 11.657381 -4.582322
v -10.139894 11.657381 5.734323
v -4.743773 11.657381 11.130444
v 4.565103 11.657381 11.090492
v 8.018762 11.657381 8.018689
v 1.038905 12.342234 -6.555503
v -1.113404 13.244413 -4.469242
v -1.625422 12.242627 -6.978495
v 2.448206 11.772133 -7.845992
v 5.232601 12.554317 -2.191852
v 1.613369 13.545041 -1.785352
v 1.419159 12.767393 -5.154744
v 4.614717 11.657381 -11.259624
v -1.875024 11.657381 -11.316825
v 6.254601 12.139981 -2.545527
v 6.994009 12.193585 0.897718
v 1.796786 13.176384 2.408042
v 5.956700 11.850904 4.554654
v 6.538356 11.657381 7.429081
v 8.650813 11.662066 -1.936285
v 3.114218 12.292469 4.307286
v -3.400622 12.067716 -6.464516
v -4.046105 11.657381 -9.801715
v -4.833264 12.526729 -4.355371
v -8.524988 11.657381 -4.617476
v -6.726218 11.657381 -7.656047
v -4.860352 11.657381 -8.622772
v -1.502998 13.545041 0.873869
v -3.202800 13.344959 2.710126
v -3.257608 13.263435 -2.233749
v -5.252260 12.595306 -0.693629
v -1.245397 13.154253 3.330836
v 3.503283 11.841277 5.746352
v 2.664637 11.657381 7.332158
v 2.032240 11.657381 9.233331
v -1.671710 11.752104 7.495067
v -1.197967 12.468169 5.182567
v 0.633433 14.292720 6.275296
v -0.008834 14.162359 7.213512
v 1.181785 14.082963 4.225483
v 2.485537 13.545041 0.469237
v -0.235093 13.545041 1.463361
v -1.842610 13.545041 -1.149801
v -0.544337 13.545041 -2.714009
v -5.214296 12.896877 1.087820
v -7.752442 11.816082 2.539723
v -3.725518 12.559878 4.783414
v -5.718032 14.930588 2.519714
v -3.139484 11.657381 11.384548
v 0.182015 11.657381 11.395905
v -3.422064 11.657381 8.344412
v 0.047926 11.657381 10.264039
v 8.205187 11.657381 5.499637
v 5.191046 11.657381 7.154625
v -5.897162 12.346180 -1.450431
v -7.566286 11.919304 -0.627063
v -9.556651 11.657381 -2.069574
v -8.398838 11.657381 7.475379
v -11.236724 11.657381 0.792970
v 11.230542 11.657381 -0.745173
v 7.651447 11.902829 0.330323
v 10.915436 11.657381 4.527546
v 9.067463 11.657381 2.092665
v 9.386329 11.657381 4.079377
v 4.418106 11.766508 -6.851329
v 5.588081 11.785454 -4.393396
v 7.559422 11.657381 -7.005375
v -10.181314 11.657381 -5.788406
v -4.242703 11.721012 7.333351
v 3.259390 13.144850 8.858246
v -5.446242 11.657381 8.962860
v -6.505294 11.657381 7.320876
v -0.081290 12.285051 -7.639264
v -0.555906 11.719051 -8.750662
v 5.727182 11.716976 -8.111324
vt 0.216384 0.418340
vt 0.216508 0.418302
vt 0.175650 0.417327
vt 0.175560 0.417377
vt 0.175453 0.417193
vt 0.219510 0.486659
vt 0.175312 0.417256
vt 0.219349 0.486743
vt 0.175401 0.417368
vt 0.175508 0.417288
vt 0.175560 0.417264
vt 0.175791 0.417217
vt 0.175554 0.417054
vt 0.175474 0.417165
vt 0.175627 0.417217
vt 0.219580 0.486772
vt 0.219460 0.486875
vt 0.175352 0.417507
vt 0.175265 0.417472
vt 0.175295 0.417220
vt 0.175169 0.417284
vt 0.216395 0.418447
vt 0.175212 0.417170
vt 0.138750 0.401462
vt 0.175133 0.417263
vt 0.433215 0.439944
vt 0.174990 0.417367
vt 0.175732 0.417364
vt 0.175687 0.417391
vt 0.175804 0.417324
vt 0.175794 0.417377
vt 0.219714 0.486680
vt 0.219740 0.486617
vt 0.175823 0.417456
vt 0.175491 0.417406
vt 0.175306 0.417401
vt 0.219854 0.486711
vt 0.175568 0.417600
vt 0.175399 0.417631
vt 0.175408 0.417529
vt 0.175556 0.417498
vt 0.175348 0.417706
vt 0.175511 0.417649
vt 0.175322 0.417588
vt 0.175081 0.417579
vt 0.175035 0.417651
vt 0.175198 0.417719
vt 0.433007 0.440305
vt 0.175109 0.417510
vt 0.175481 0.417485
vt 0.432846 0.440074
vt 0.432865 0.440146
vt 0.432700 0.440198
vt 0.175542 0.417771
vt 0.175381 0.417792
vt 0.175013 0.417772
vt 0.175056 0.417744
vt 0.175221 0.417800
vt 0.175148 0.417883
vt 0.174893 0.417437
vt 0.174972 0.417465
vt 0.175017 0.417498
vt 0.175081 0.417407
vt 0.174930 0.417605
vt 0.175108 0.417129
vt 0.434978 0.439039
vt 0.435132 0.439036
vt 0.217045 0.418225
vt 0.175708 0.417833
vt 0.175744 0.417696
vt 0.175804 0.417769
vt 0.175419 0.417852
vt 0.175204 0.417930
vt 0.216923 0.418295
vt 0.175893 0.417486
vt 0.175392 0.417079
vt 0.175016 0.417181
vt 0.175056 0.417196
vt 0.175076 0.417257
vt 0.175005 0.417298
vt 0.174972 0.417272
vt 0.175169 0.417252
vt 0.175265 0.417041
vt 0.433015 0.440490
vt 0.432920 0.440452
vt 0.432817 0.440432
vt 0.432910 0.440504
vt 0.432774 0.440514
vt 0.432954 0.440581
vt 0.432969 0.440374
vt 0.432842 0.440355
vt 0.433077 0.440432
vt 0.432902 0.440322
vt 0.433047 0.440223
vt 0.433104 0.440340
vt 0.433248 0.440220
vt 0.433242 0.440310
vt 0.432689 0.440311
vt 0.432741 0.440345
vt 0.432802 0.440240
vt 0.433184 0.440809
vt 0.433324 0.440622
vt 0.433389 0.440711
vt 0.433302 0.440811
vt 0.433296 0.439811
vt 0.433309 0.439974
vt 0.219793 0.486889
vt 0.219787 0.486954
vt 0.219916 0.486867
vt 0.219953 0.486961
vt 0.219882 0.487015
vt 0.219844 0.486855
vt 0.219667 0.487144
vt 0.219477 0.487189
vt 0.219479 0.487068
vt 0.219647 0.487024
vt 0.219098 0.486595
vt 0.219872 0.487248
vt 0.219750 0.487227
vt 0.434778 0.439209
vt 0.219775 0.487007
vt 0.219919 0.487124
vt 0.219073 0.486755
vt 0.218994 0.486808
vt 0.218953 0.486779
vt 0.219181 0.486744
vt 0.216924 0.418133
vt 0.216561 0.418069
vt 0.216511 0.418169
vt 0.216391 0.418163
vt 0.216445 0.417996
vt 0.216526 0.418430
vt 0.216641 0.418753
vt 0.216856 0.418674
vt 0.216827 0.418740
vt 0.216897 0.418839
vt 0.216685 0.418867
vt 0.216204 0.418841
vt 0.216259 0.418803
vt 0.216477 0.418878
vt 0.216385 0.418988
vt 0.217162 0.418738
vt 0.217111 0.418922
vt 0.217021 0.418709
vt 0.216806 0.417988
vt 0.216921 0.418030
vt 0.216852 0.418168
vt 0.220873 0.489081
vt 0.221442 0.488763
vt 0.221680 0.489205
vt 0.221301 0.489343
vt 0.220680 0.488956
vt 0.220913 0.488747
vt 0.435230 0.439302
vt 0.434900 0.439643
vt 0.435326 0.438643
vt 0.434927 0.438675
vt 0.138416 0.403248
vt 0.137801 0.403497
vt 0.137769 0.402513
vt 0.175853 0.417613
vt 0.138707 0.401333
vt 0.138779 0.401230
vt 0.138804 0.401332
vt 0.138818 0.401427
vt 0.139663 0.401561
vt 0.139620 0.401371
vt 0.139707 0.401405
vt 0.139583 0.401541
vt 0.219519 0.421862
vt 0.137429 0.396701
vt 0.138416 0.397042
vt 0.216572 0.488988
vt 0.216820 0.489179
vt 0.216887 0.489988
vt 0.216782 0.489630
vt 0.217162 0.489631
vt 0.216305 0.489679
vt 0.223616 0.487489
vt 0.223285 0.488052
vt 0.222616 0.487599
vt 0.223033 0.487211
vt 0.175261 0.417886
vt 0.219389 0.421522
vt 0.220027 0.421430
vt 0.219768 0.421834
vt 0.219722 0.422215
vt 0.220125 0.422035
vt 0.138049 0.396916
vt 0.175349 0.417867
vt 0.140998 0.397316
vt 0.140181 0.397688
vt 0.140215 0.396845
vt 0.136926 0.401556
vt 0.137103 0.400560
vt 0.137770 0.401314
vt 0.175687 0.417391
vt 0.175687 0.417391
vt 0.175560 0.417377
vt 0.175560 0.417377
vt 0.175560 0.417377
vt 0.175369 0.417193
vt 0.175556 0.417498
vt 0.175679 0.417444
vt 0.175481 0.417485
vt 0.175650 0.417327
vt 0.175650 0.417327
vt 0.175401 0.417940
vt 0.175221 0.417800
vt 0.175261 0.417638
vt 0.175399 0.417631
vt 0.175348 0.417706
vt 0.174930 0.417605
vt 0.175789 0.417592
vt 0.175198 0.417719
vt 0.220514 0.416788
vt 0.175175 0.417146
vt 0.175392 0.417079
vt 0.175554 0.417054
vt 0.216897 0.418839
vt 0.216897 0.418839
vt 0.433104 0.440340
vt 0.175352 0.417507
vt 0.175352 0.417507
vt 0.175491 0.417406
vt 0.432986 0.440442
vt 0.432986 0.440442
vt 0.175237 0.417594
vt 0.432986 0.440442
vt 0.175408 0.417529
vt 0.216924 0.418133
vt 0.175560 0.417264
vt 0.221034 0.416919
vt 0.220034 0.417052
vt 0.175612 0.417300
vt 0.216994 0.418185
vt 0.175709 0.417266
vt 0.175437 0.417126
vt 0.137468 0.400972
vn 0.441797 0.871679 0.212111
vn 0.441797 0.871679 0.212111
vn 0.441797 0.871679 0.212111
vn 0.441797 0.871679 0.212111
vn 0.218813 0.952202 -0.213149
vn 0.218813 0.952202 -0.213149
vn 0.218813 0.952202 -0.213149
vn 0.218813 0.952202 -0.213149
vn 0.175863 0.956625 -0.232250
vn 0.175863 0.956625 -0.232250
vn 0.175863 0.956625 -0.232250
vn 0.015011 0.999597 -0.024075
vn 0.015011 0.999597 -0.024075
vn 0.015011 0.999597 -0.024075
vn 0.000294 0.999442 -0.033410
vn 0.000294 0.999442 -0.033410
vn 0.000294 0.999442 -0.033410
vn 0.256851 0.963901 -0.070163
vn 0.256851 0.963901 -0.070163
vn 0.256851 0.963901 -0.070163
vn 0.256851 0.963901 -0.070163
vn 0.154556 0.985200 0.074116
vn 0.154556 0.985200 0.074116
vn 0.154556 0.985200 0.074116
vn 0.154556 0.985200 0.074116
vn -0.012340 0.999767 -0.017683
vn -0.012340 0.999767 -0.017683
vn -0.012340 0.999767 -0.017683
vn -0.125409 0.987338 -0.097144
vn -0.125409 0.987338 -0.097144
vn -0.125409 0.987338 -0.097144
vn -0.172072 0.972422 -0.157437
vn -0.172072 0.972422 -0.157437
vn -0.172072 0.972422 -0.157437
vn -0.172072 0.972422 -0.157437
vn -0.036639 0.985998 -0.162681
vn -0.036639 0.985998 -0.162681
vn -0.036639 0.985998 -0.162681
vn -0.036639 0.985998 -0.162681
vn 0.000000 1.000000 -0.000001
vn 0.000000 1.000000 -0.000001
vn 0.000000 1.000000 -0.000001
vn -0.240290 0.970610 -0.013341
vn -0.240290 0.970610 -0.013341
vn -0.240290 0.970610 -0.013341
vn -0.240290 0.970610 -0.013341
vn 0.852197 0.425482 -0.304509
vn 0.852197 0.425482 -0.304509
vn 0.852197 0.425482 -0.304509
vn -0.000567 0.987577 0.157136
vn -0.000567 0.987577 0.157136
vn -0.000567 0.987577 0.157136
vn -0.000567 0.987577 0.157136
vn 0.640307 0.698510 0.319517
vn 0.640307 0.698510 0.319517
vn 0.640307 0.698510 0.319517
vn 0.640307 0.698510 0.319517
vn -0.387630 0.366251 0.845933
vn -0.387630 0.366251 0.845933
vn -0.387630 0.366251 0.845933
vn -0.759180 0.644218 -0.092893
vn -0.759180 0.644218 -0.092893
vn -0.759180 0.644218 -0.092893
vn -0.759180 0.644218 -0.092893
vn -0.028731 0.540654 0.840754
vn -0.028731 0.540654 0.840754
vn -0.028731 0.540654 0.840754
vn -0.402830 0.901743 0.156804
vn -0.402830 0.901743 0.156804
vn -0.402830 0.901743 0.156804
vn -0.402830 0.901743 0.156804
vn 0.511422 0.825506 -0.238721
vn 0.511422 0.825506 -0.238721
vn 0.511422 0.825506 -0.238721
vn 0.511422 0.825506 -0.238721
vn 0.677844 0.733716 0.046781
vn 0.677844 0.733716 0.046781
vn 0.677844 0.733716 0.046781
vn 0.490717 0.028988 -0.870837
vn 0.490717 0.028988 -0.870837
vn 0.490717 0.028988 -0.870837
vn -0.116415 0.993008 0.019536
vn -0.116415 0.993008 0.019536
vn -0.116415 0.993009 0.019536
vn -0.116415 0.993008 0.019536
vn 0.000000 1.000000 0.000000
vn 0.000000 1.000000 0.000000
vn 0.000000 1.000000 0.000000
vn 0.000000 1.000000 0.000000
vn -0.021184 0.936745 0.349372
vn -0.021184 0.936745 0.349372
vn -0.021184 0.936745 0.349372
vn -0.575069 0.370954 -0.729170
vn -0.575070 0.370954 -0.729170
vn -0.575070 0.370954 -0.729170
vn -0.451106 0.672536 0.586684
vn -0.451106 0.672536 0.586684
vn -0.451106 0.672536 0.586684
vn -0.451106 0.672536 0.586684
vn 0.000000 1.000000 0.000000
vn 0.000000 1.000000 0.000000
vn 0.000000 1.000000 0.000000
vn 0.000000 1.000000 0.000000
vn -0.011682 0.955860 0.293589
vn -0.011682 0.955860 0.293589
vn -0.011682 0.955860 0.293589
vn 0.033191 0.997619 0.060449
vn 0.033191 0.997619 0.060449
vn 0.033191 0.997619 0.060449
vn 0.033191 0.997619 0.060449
vn -0.186551 0.969310 -0.160113
vn -0.186551 0.969310 -0.160113
vn -0.186551 0.969310 -0.160113
vn -0.357140 0.933102 -0.042094
vn -0.357140 0.933102 -0.042094
vn -0.357140 0.933102 -0.042094
vn -0.357140 0.933102 -0.042094
vn -0.342712 0.937723 -0.056777
vn -0.342712 0.937723 -0.056777
vn -0.342712 0.937723 -0.056777
vn -0.342712 0.937723 -0.056777
vn 0.000000 1.000000 0.000000
vn 0.000000 1.000000 0.000000
vn 0.000000 1.000000 0.000000
vn 0.000000 1.000000 0.000000
vn -0.264725 0.963612 -0.037061
vn -0.264725 0.963612 -0.037061
vn -0.264725 0.963612 -0.037061
vn -0.073344 0.997291 -0.005628
vn -0.073344 0.997291 -0.005628
vn -0.073344 0.997291 -0.005628
vn -0.073344 0.997291 -0.005628
vn -0.014267 0.999440 0.030267
vn -0.014267 0.999440 0.030267
vn -0.014267 0.999440 0.030267
vn 0.000000 1.000000 0.000000
vn 0.000000 1.000000 0.000000
vn 0.000000 1.000000 0.000000
vn 0.088401 0.993803 0.067383
vn 0.088401 0.993803 0.067383
vn 0.088401 0.993803 0.067383
vn 0.000000 1.000000 0.000001
vn 0.000000 1.000000 0.000001
vn 0.000000 1.000000 0.000001
vn 0.091053 0.995579 0.023045
vn 0.091053 0.995579 0.023045
vn 0.091053 0.995579 0.023045
vn 0.091053 0.995579 0.023045
vn 0.000000 1.000000 -0.000001
vn 0.000000 1.000000 -0.000001
vn 0.000000 1.000000 -0.000001
vn 0.000000 1.000000 -0.000001
vn 0.000000 1.000000 0.000000
vn 0.000000 1.000000 0.000000
vn 0.000000 1.000000 0.000000
vn 0.134927 0.945017 -0.297888
vn 0.134928 0.945017 -0.297888
vn 0.134928 0.945017 -0.297888
vn 0.134927 0.945017 -0.297888
vn 0.395201 0.885225 -0.245341
vn 0.395201 0.885225 -0.245341
vn 0.395201 0.885225 -0.245341
vn 0.395201 0.885225 -0.245341
vn 0.102089 0.991756 -0.077450
vn 0.102089 0.991756 -0.077450
vn 0.102089 0.991756 -0.077450
vn 0.102089 0.991756 -0.077450
vn 0.001171 0.999999 -0.000687
vn 0.001171 0.999999 -0.000687
vn 0.001171 0.999999 -0.000687
vn 0.001171 0.999999 -0.000687
vn 0.000000 1.000000 0.000001
vn 0.000000 1.000000 0.000001
vn 0.000000 1.000000 0.000001
vn -0.189789 0.981644 -0.018836
vn -0.189789 0.981644 -0.018836
vn -0.189789 0.981644 -0.018836
vn -0.189789 0.981644 -0.018836
vn 0.252540 0.962642 -0.097693
vn 0.252540 0.962642 -0.097693
vn 0.252540 0.962642 -0.097693
vn 0.077768 0.973990 0.212827
vn 0.077768 0.973990 0.212827
vn 0.077768 0.973990 0.212827
vn 0.142266 0.982618 0.119255
vn 0.142266 0.982618 0.119255
vn 0.142266 0.982618 0.119255
vn 0.142266 0.982618 0.119255
vn -0.006198 0.999257 0.038032
vn -0.006198 0.999257 0.038032
vn -0.006198 0.999257 0.038032
vn -0.006198 0.999257 0.038032
vn -0.027296 0.968435 0.247766
vn -0.027296 0.968435 0.247766
vn -0.027296 0.968435 0.247766
vn -0.027296 0.968435 0.247766
vn 0.000000 1.000000 -0.000000
vn 0.000000 1.000000 -0.000000
vn 0.000000 1.000000 -0.000000
vn 0.000000 1.000000 -0.000000
vn 0.000000 1.000000 0.000000
vn 0.000000 1.000000 0.000000
vn 0.000000 1.000000 0.000000
vn 0.000000 1.000000 0.000000
vn 0.025061 -0.951332 0.307147
vn 0.025061 -0.951332 0.307147
vn 0.025061 -0.951332 0.307147
vn 0.025416 0.994720 0.099432
vn 0.025416 0.994720 0.099432
vn 0.025416 0.994720 0.099432
vn 0.025416 0.994720 0.099432
vn 0.000000 1.000000 -0.000001
vn 0.000000 1.000000 -0.000001
vn 0.000000 1.000000 -0.000001
vn 0.000000 1.000000 -0.000001
vn 0.000000 1.000000 0.000000
vn 0.000000 1.000000 0.000000
vn 0.000000 1.000000 0.000000
vn -0.374071 0.732768 -0.568439
vn -0.374071 0.732768 -0.568439
vn -0.374071 0.732768 -0.568439
vn -0.374071 0.732768 -0.568439
vn -0.486426 0.568583 0.663403
vn -0.486425 0.568583 0.663403
vn -0.486425 0.568583 0.663403
vn 0.437089 0.896728 0.069513
vn 0.437089 0.896728 0.069513
vn 0.437089 0.896728 0.069513
vn 0.437089 0.896728 0.069513
vn -0.281137 0.955936 0.084551
vn -0.281137 0.955936 0.084551
vn -0.281137 0.955936 0.084551
vn -0.281137 0.955936 0.084551
vn -0.018961 0.937380 0.347793
vn -0.018961 0.937379 0.347793
vn -0.018961 0.937379 0.347793
vn -0.010405 0.999455 0.031342
vn -0.010405 0.999455 0.031342
vn -0.010405 0.999455 0.031342
vn -0.010405 0.999455 0.031342
vn 0.000000 1.000000 0.000000
vn 0.000000 1.000000 0.000000
vn 0.000000 1.000000 0.000000
vn 0.000000 1.000000 0.000000
vn 0.000000 1.000000 -0.000000
vn 0.000000 1.000000 -0.000000
vn 0.000000 1.000000 -0.000000
vn 0.000000 1.000000 -0.000000
vn 0.000000 1.000000 -0.000000
vn 0.000000 1.000000 -0.000000
vn 0.000000 1.000000 -0.000000
vn 0.000000 1.000000 0.000000
vn 0.000000 1.000000 0.000000
vn 0.000000 1.000000 0.000000
vn 0.002041 0.959352 -0.282204
vn 0.002041 0.959352 -0.282204
vn 0.002041 0.959352 -0.282204
vn 0.002041 0.959352 -0.282204
vn -0.186992 0.924885 -0.331093
vn -0.186991 0.924885 -0.331093
vn -0.186991 0.924885 -0.331093
vn -0.191579 0.962525 -0.191946
vn -0.191579 0.962525 -0.191946
vn -0.191579 0.962525 -0.191946
vn -0.122870 0.985590 -0.116253
vn -0.122870 0.985590 -0.116253
vn -0.122870 0.985590 -0.116253
vn -0.122870 0.985590 -0.116253
vn 0.014633 0.999603 -0.024092
vn 0.014633 0.999603 -0.024092
vn 0.014633 0.999603 -0.024092
vn 0.020853 0.999627 -0.017632
vn 0.020853 0.999627 -0.017632
vn 0.020853 0.999627 -0.017632
vn 0.102254 0.992924 -0.060386
vn 0.102254 0.992924 -0.060386
vn 0.102254 0.992924 -0.060386
vn 0.102254 0.992924 -0.060386
vn 0.109957 0.978997 0.171679
vn 0.109957 0.978997 0.171679
vn 0.109957 0.978997 0.171679
vn 0.112011 0.960540 -0.254590
vn 0.112011 0.960540 -0.254590
vn 0.112011 0.960540 -0.254590
vn 0.112011 0.960540 -0.254590
vn 0.098639 0.968373 -0.229183
vn 0.098639 0.968373 -0.229183
vn 0.098638 0.968373 -0.229183
vn -0.188578 0.925156 -0.329432
vn -0.188578 0.925156 -0.329432
vn -0.188578 0.925156 -0.329432
vn 0.026851 0.994543 0.100812
vn 0.026851 0.994543 0.100812
vn 0.026851 0.994543 0.100812
vn -0.042342 0.998941 0.017982
vn -0.042342 0.998941 0.017982
vn -0.042342 0.998941 0.017982
vn -0.042342 0.998941 0.017982
vn 0.155101 0.915003 -0.372443
vn 0.155101 0.915003 -0.372443
vn 0.155101 0.915003 -0.372443
vn 0.155101 0.915003 -0.372443
vn -0.012340 0.999768 -0.017683
vn -0.012340 0.999767 -0.017683
vn -0.012340 0.999767 -0.017683
vn 0.042634 0.998949 -0.016804
vn 0.042634 0.998949 -0.016804
vn 0.042634 0.998949 -0.016804
vn 0.055739 0.997700 -0.038582
vn 0.055739 0.997700 -0.038582
vn 0.055739 0.997700 -0.038582
vn -0.169031 0.926751 -0.335502
vn -0.169031 0.926751 -0.335502
vn -0.169031 0.926751 -0.335502
s off
f 12/1/1 43/2/2 19/132/3 23/22/4
f 67/6/5 14/16/6 13/17/7 12/8/8
f 8/231/9 75/236/10 9/74/11
f 15/105/12 11/106/13 67/26/14
f 11/32/15 15/33/16 16/37/17
f 17/128/18 12/129/19 18/130/20 22/131/21
f 63/51/22 18/52/23 20/100/24 55/53/25
f 16/12/26 25/30/27 76/237/28
f 10/207/29 25/28/30 24/197/31
f 26/108/32 29/109/33 28/110/34 27/111/35
f 24/107/36 25/112/37 29/109/38 26/108/39
f 13/216/40 46/233/41 43/234/42
f 30/115/43 32/116/44 33/113/45 31/114/46
f 49/133/47 47/134/48 50/135/49
f 31/211/50 34/44/51 44/223/52 30/40/53
f 36/86/54 40/85/55 41/87/56 37/88/57
f 37/88/58 41/87/59 38/89/60
f 38/89/61 41/87/62 40/85/63 39/84/64
f 42/90/65 39/227/66 35/91/67
f 44/222/68 34/92/69 39/226/70 42/90/71
f 19/48/72 44/222/73 42/90/74 23/93/75
f 23/93/76 42/90/77 35/91/78
f 39/229/79 40/85/80 36/86/81
f 45/205/82 32/203/83 30/230/84 44/224/85
f 43/94/86 46/96/87 45/97/88 44/95/89
f 31/179/90 49/180/91 39/181/92
f 48/220/93 50/135/94 47/134/95
f 49/133/96 50/135/97 48/221/98 71/137/99
f 52/138/100 54/139/101 53/140/102 51/141/103
f 49/42/104 38/47/105 39/210/106
f 21/98/107 55/53/108 20/100/109 56/99/110
f 33/66/111 57/67/112 47/120/113
f 57/67/114 58/154/115 48/155/116 47/120/117
f 26/156/118 57/67/119 33/66/120 32/157/121
f 53/209/122 73/183/123 5/73/124 51/59/125
f 26/156/126 58/154/127 57/67/128
f 61/143/129 48/136/130 58/144/131 59/142/132
f 60/72/133 71/55/134 48/54/135
f 65/123/136 66/124/137 64/125/138
f 63/126/139 65/123/140 62/117/141
f 64/81/142 66/80/143 55/27/144
f 55/27/145 66/80/146 65/79/147 63/25/148
f 64/81/149 55/27/150 21/61/151 7/60/152
f 64/77/153 62/65/154 65/78/155
f 67/145/156 11/146/157 8/127/158 14/147/159
f 17/20/160 68/202/161 67/5/162 12/7/163
f 22/148/164 69/149/165 68/150/166 17/151/167
f 22/148/168 62/152/169 1/153/170 69/149/171
f 69/76/172 1/83/173 15/13/174
f 59/118/175 58/119/176 26/121/177 27/122/178
f 13/158/179 43/159/180 12/160/181
f 43/36/182 44/18/183 19/19/184
f 35/24/185 20/162/186 12/164/187 23/165/188
f 54/57/189 37/46/190 38/215/191 53/58/192
f 53/170/193 38/184/194 49/185/195 71/186/196
f 3/71/197 59/70/198 27/214/199 70/161/200
f 70/166/201 27/169/202 28/167/203 2/168/204
f 60/172/205 74/189/206 71/171/207
f 36/45/208 56/62/209 20/63/210 35/49/211
f 6/64/212 37/46/213 54/57/214 52/56/215
f 7/60/216 21/61/217 6/213/218
f 37/175/219 72/176/220 56/174/221 36/177/222
f 6/178/223 72/176/224 37/175/225
f 6/178/226 21/173/227 56/174/228 72/176/229
f 33/38/230 47/43/231 49/212/232 31/39/233
f 31/179/234 39/181/235 34/182/236
f 53/170/237 71/186/238 74/188/239 73/187/240
f 5/73/241 73/183/242 74/190/243 60/208/244
f 3/71/245 61/69/246 59/70/247
f 2/75/248 28/34/249 29/31/250 25/30/251
f 2/75/252 25/30/253 16/12/254
f 75/235/255 76/237/256 25/30/257 10/3/258
f 24/198/259 9/4/260 10/206/261
f 26/191/262 32/192/263 9/193/264
f 46/225/265 9/200/266 32/41/267 45/50/268
f 67/14/269 77/238/270 15/219/271
f 67/196/272 68/194/273 77/239/274
f 18/21/275 63/82/276 62/217/277 22/23/278
f 36/45/279 35/49/280 39/228/281
f 9/199/282 46/35/283 14/10/284 8/11/285
f 14/10/286 46/35/287 13/9/288
f 26/204/289 9/201/290 24/29/291
f 12/164/292 20/162/293 18/163/294
f 4/104/295 60/101/296 48/102/297 61/103/298
f 11/15/299 76/237/300 75/235/301 8/232/302
f 16/12/303 76/237/304 11/15/305
f 77/239/306 68/194/307 69/195/308
f 15/219/309 77/238/310 69/218/311
f 9/74/312 75/236/313 10/68/314
