# This file uses centimeters as units for non-parametric coordinates.

mtllib SM_Item_Bread_01.mtl
g default
v -5.294301 17.587790 18.161392
v 5.294301 17.587790 18.161388
v -5.225218 17.554966 -19.085499
v 5.225218 17.554966 -19.085499
v 0.000000 18.035040 18.870010
v -0.000000 18.002468 -19.727690
v 0.000000 1.558592 -19.409836
v 0.000000 1.377242 18.509905
v -6.357700 13.559610 19.114368
v 0.000000 13.488932 20.804787
v 6.357700 13.559610 19.114370
v 6.274743 13.589268 -19.948997
v 0.000000 13.532251 -21.491875
v -6.274743 13.589268 -19.948997
v -6.327457 8.678364 18.993053
v 0.000000 8.459522 20.668476
v 6.327457 8.678364 18.993053
v 6.244894 8.770567 -19.841560
v -0.000000 8.567253 -21.372879
v -6.244894 8.770567 -19.841560
v -5.428256 1.113949 17.464382
v -7.465296 3.080711 17.575729
v -7.367887 3.229661 -18.562592
v -5.357425 1.287457 -18.463703
v 5.428256 1.113949 17.464382
v 7.465296 3.080711 17.575729
v 7.367887 3.229661 -18.562588
v 5.357425 1.287457 -18.463697
v -8.262561 21.011957 11.795257
v 0.000000 22.142902 11.819808
v 8.262561 21.011957 11.795256
v 10.499250 15.374784 11.863939
v 9.431036 10.439546 11.820827
v 9.788649 2.373657 11.662237
v 7.375959 0.073734 11.623420
v 0.000000 -0.102080 11.687246
v -7.375959 0.073733 11.623420
v -9.788649 2.373657 11.662235
v -9.431036 10.439546 11.820824
v -10.499250 15.374784 11.863940
v -0.000000 -0.203673 -12.575916
v 7.279716 -0.033637 -12.506231
v 9.660924 2.236962 -12.541899
v 9.307976 10.202557 -12.699141
v 10.362253 15.074117 -12.738444
v 8.154749 20.634109 -12.664315
v 0.000000 21.753120 -12.696507
v -8.154749 20.634109 -12.664315
v -10.362253 15.074117 -12.738444
v -9.307976 10.202557 -12.699141
v -9.660924 2.236962 -12.541899
v -7.279716 -0.033636 -12.506231
v -9.480906 21.806253 0.058375
v 0.000000 23.000000 0.058375
v 9.480906 21.806253 0.058375
v 11.500000 15.704819 0.058375
v 9.605985 10.988724 0.058375
v 10.259816 1.921005 0.058375
v 8.208056 0.000000 0.058374
v 0.000000 0.000000 0.058374
v -8.208056 0.000000 0.058375
v -10.259816 1.921005 0.058374
v -9.605985 10.988724 0.058374
v -11.500000 15.704819 0.058374
vt 0.005157 0.302708
vt 0.004986 0.302721
vt 0.004994 0.302616
vt 0.005134 0.302628
vt 0.005323 0.302199
vt 0.005085 0.302145
vt 0.005143 0.301909
vt 0.005342 0.301956
vt 0.005296 0.301868
vt 0.005174 0.301831
vt 0.005180 0.301864
vt 0.005322 0.301914
vt 0.005086 0.302466
vt 0.005281 0.302496
vt 0.005309 0.302248
vt 0.005141 0.302224
vt 0.004848 0.302127
vt 0.004803 0.302208
vt 0.004895 0.301970
vt 0.004945 0.301897
vt 0.005393 0.302045
vt 0.005370 0.302295
vt 0.005026 0.301870
vt 0.005046 0.301832
vt 0.004893 0.302436
vt 0.004973 0.302197
vt 0.004833 0.302657
vt 0.004862 0.302585
vt 0.005156 0.302770
vt 0.004988 0.302784
vt 0.004838 0.302719
vt 0.004853 0.302282
vt 0.004923 0.302045
vt 0.005027 0.301942
vt 0.005179 0.301938
vt 0.005318 0.301985
vt 0.005364 0.302111
vt 0.005320 0.302354
vt 0.005001 0.302829
vt 0.004874 0.302788
vt 0.004822 0.302757
vt 0.004843 0.302403
vt 0.004917 0.302157
vt 0.005170 0.302072
vt 0.004997 0.302039
vt 0.005043 0.302075
vt 0.005289 0.302112
vt 0.005336 0.302090
vt 0.005366 0.302226
vt 0.005331 0.302479
vt 0.005189 0.302817
vt 0.005139 0.302831
vt 0.005028 0.302404
vt 0.005241 0.302453
vt 0.004818 0.302387
vt 0.004766 0.302460
vt 0.004797 0.302531
vt 0.004796 0.302633
vt 0.004856 0.302671
vt 0.005034 0.302703
vt 0.005212 0.302728
vt 0.005272 0.302709
vt 0.005266 0.302605
vt 0.005295 0.302543
vn -0.200385 0.334932 0.920688
vn -0.200385 0.334932 0.920688
vn -0.200385 0.334932 0.920688
vn -0.200385 0.334932 0.920688
vn -0.129551 0.986476 -0.100406
vn -0.129551 0.986476 -0.100406
vn -0.129551 0.986476 -0.100406
vn -0.129551 0.986476 -0.100406
vn -0.187525 0.313311 -0.930951
vn -0.187525 0.313311 -0.930951
vn -0.187525 0.313311 -0.930951
vn -0.187525 0.313311 -0.930951
vn -0.010937 -0.999900 0.009014
vn -0.010937 -0.999900 0.009014
vn -0.010937 -0.999900 0.009014
vn -0.010937 -0.999900 0.009014
vn 0.933779 0.339167 -0.114117
vn 0.933779 0.339167 -0.114117
vn 0.933779 0.339167 -0.114117
vn 0.933779 0.339167 -0.114117
vn -0.933779 0.339167 -0.114117
vn -0.933779 0.339167 -0.114117
vn -0.933779 0.339167 -0.114117
vn -0.933779 0.339167 -0.114117
vn 0.129551 0.986476 -0.100407
vn 0.129551 0.986476 -0.100407
vn 0.129551 0.986476 -0.100407
vn 0.129551 0.986476 -0.100407
vn 0.187525 0.313311 -0.930951
vn 0.187525 0.313311 -0.930951
vn 0.187525 0.313311 -0.930951
vn 0.187525 0.313311 -0.930951
vn 0.010937 -0.999900 0.009014
vn 0.010937 -0.999900 0.009014
vn 0.010937 -0.999900 0.009014
vn 0.010937 -0.999900 0.009014
vn 0.200386 0.334933 0.920688
vn 0.200386 0.334933 0.920688
vn 0.200386 0.334933 0.920688
vn 0.200386 0.334933 0.920688
vn -0.256929 -0.025897 0.966083
vn -0.256929 -0.025897 0.966083
vn -0.256929 -0.025897 0.966083
vn -0.256929 -0.025897 0.966083
vn 0.256929 -0.025897 0.966083
vn 0.256929 -0.025897 0.966083
vn 0.256929 -0.025897 0.966083
vn 0.256929 -0.025897 0.966083
vn 0.955117 -0.293861 -0.037370
vn 0.955117 -0.293861 -0.037370
vn 0.955117 -0.293861 -0.037370
vn 0.955117 -0.293861 -0.037370
vn 0.238856 -0.023196 -0.970778
vn 0.238856 -0.023196 -0.970778
vn 0.238856 -0.023196 -0.970778
vn 0.238856 -0.023196 -0.970778
vn -0.238856 -0.023196 -0.970778
vn -0.238856 -0.023196 -0.970778
vn -0.238856 -0.023196 -0.970778
vn -0.238856 -0.023196 -0.970778
vn -0.955117 -0.293861 -0.037370
vn -0.955117 -0.293861 -0.037370
vn -0.955117 -0.293861 -0.037370
vn -0.955117 -0.293861 -0.037370
vn 0.208840 -0.245862 0.946540
vn 0.208840 -0.245862 0.946540
vn 0.208840 -0.245862 0.946540
vn 0.208840 -0.245862 0.946540
vn 0.208840 -0.245862 0.946540
vn 0.997617 0.058630 -0.036373
vn 0.997617 0.058630 -0.036373
vn 0.997617 0.058630 -0.036373
vn 0.997617 0.058630 -0.036373
vn 0.193732 -0.226932 -0.954447
vn 0.193732 -0.226932 -0.954447
vn 0.193732 -0.226932 -0.954447
vn 0.193732 -0.226932 -0.954447
vn 0.193732 -0.226932 -0.954447
vn -0.193732 -0.226932 -0.954447
vn -0.193732 -0.226932 -0.954447
vn -0.193732 -0.226932 -0.954447
vn -0.193732 -0.226932 -0.954447
vn -0.193732 -0.226932 -0.954447
vn -0.997617 0.058630 -0.036373
vn -0.997617 0.058630 -0.036373
vn -0.997617 0.058630 -0.036373
vn -0.997617 0.058630 -0.036373
vn -0.208840 -0.245862 0.946540
vn -0.208840 -0.245862 0.946540
vn -0.208840 -0.245862 0.946540
vn -0.208840 -0.245862 0.946540
vn -0.208840 -0.245862 0.946540
vn -0.685986 -0.725910 -0.049776
vn -0.685986 -0.725910 -0.049776
vn -0.685986 -0.725910 -0.049776
vn -0.685986 -0.725910 -0.049776
vn 0.685986 -0.725910 -0.049776
vn 0.685986 -0.725910 -0.049776
vn 0.685986 -0.725910 -0.049776
vn 0.685986 -0.725910 -0.049776
vn -0.126675 0.852732 0.506756
vn -0.126675 0.852732 0.506756
vn -0.126675 0.852732 0.506756
vn -0.126675 0.852732 0.506756
vn 0.126675 0.852732 0.506756
vn 0.126675 0.852732 0.506756
vn 0.126675 0.852732 0.506756
vn 0.126675 0.852732 0.506756
vn 0.782061 0.323337 0.532761
vn 0.782061 0.323337 0.532761
vn 0.782061 0.323337 0.532761
vn 0.782061 0.323337 0.532761
vn 0.898847 -0.107696 0.424825
vn 0.898847 -0.107696 0.424825
vn 0.898847 -0.107696 0.424825
vn 0.898847 -0.107696 0.424825
vn 0.920643 0.056204 0.386338
vn 0.920643 0.056204 0.386338
vn 0.920643 0.056204 0.386338
vn 0.920643 0.056204 0.386338
vn 0.645795 -0.685345 0.336529
vn 0.645795 -0.685345 0.336529
vn 0.645795 -0.685345 0.336529
vn 0.645795 -0.685345 0.336529
vn 0.010340 -0.980419 0.196653
vn 0.010340 -0.980419 0.196653
vn 0.010340 -0.980419 0.196653
vn 0.010340 -0.980419 0.196653
vn -0.010340 -0.980419 0.196653
vn -0.010340 -0.980419 0.196653
vn -0.010340 -0.980419 0.196653
vn -0.010340 -0.980419 0.196653
vn -0.645795 -0.685344 0.336529
vn -0.645795 -0.685344 0.336529
vn -0.645795 -0.685344 0.336529
vn -0.645795 -0.685344 0.336529
vn -0.920643 0.056204 0.386338
vn -0.920643 0.056204 0.386338
vn -0.920643 0.056204 0.386338
vn -0.920643 0.056204 0.386338
vn -0.898847 -0.107696 0.424825
vn -0.898847 -0.107696 0.424825
vn -0.898847 -0.107696 0.424825
vn -0.898847 -0.107696 0.424825
vn -0.782061 0.323337 0.532761
vn -0.782061 0.323337 0.532761
vn -0.782061 0.323337 0.532761
vn -0.782061 0.323337 0.532761
vn 0.011190 -0.971710 -0.235912
vn 0.011190 -0.971710 -0.235912
vn 0.011190 -0.971710 -0.235912
vn 0.011190 -0.971710 -0.235912
vn 0.640967 -0.679578 -0.356840
vn 0.640967 -0.679578 -0.356840
vn 0.640967 -0.679578 -0.356840
vn 0.640967 -0.679578 -0.356840
vn 0.923834 0.060765 -0.377940
vn 0.923834 0.060765 -0.377940
vn 0.923834 0.060765 -0.377940
vn 0.923834 0.060765 -0.377940
vn 0.898443 -0.106965 -0.425863
vn 0.898443 -0.106965 -0.425863
vn 0.898443 -0.106965 -0.425863
vn 0.898443 -0.106965 -0.425863
vn 0.793503 0.322137 -0.516315
vn 0.793503 0.322137 -0.516315
vn 0.793503 0.322137 -0.516315
vn 0.793503 0.322137 -0.516315
vn 0.125964 0.873219 -0.470767
vn 0.125964 0.873219 -0.470767
vn 0.125964 0.873219 -0.470767
vn 0.125964 0.873219 -0.470767
vn -0.125964 0.873219 -0.470767
vn -0.125964 0.873219 -0.470767
vn -0.125964 0.873219 -0.470767
vn -0.125964 0.873219 -0.470767
vn -0.793503 0.322137 -0.516315
vn -0.793503 0.322137 -0.516315
vn -0.793503 0.322137 -0.516315
vn -0.793503 0.322137 -0.516315
vn -0.898443 -0.106965 -0.425863
vn -0.898443 -0.106965 -0.425863
vn -0.898443 -0.106965 -0.425863
vn -0.898443 -0.106965 -0.425863
vn -0.923834 0.060765 -0.377939
vn -0.923834 0.060765 -0.377939
vn -0.923834 0.060765 -0.377939
vn -0.923834 0.060765 -0.377939
vn -0.640967 -0.679578 -0.356840
vn -0.640967 -0.679578 -0.356840
vn -0.640967 -0.679578 -0.356840
vn -0.640967 -0.679578 -0.356840
vn -0.011190 -0.971710 -0.235912
vn -0.011190 -0.971710 -0.235912
vn -0.011190 -0.971710 -0.235912
vn -0.011190 -0.971710 -0.235912
vn -0.129633 0.988630 0.076199
vn -0.129633 0.988630 0.076199
vn -0.129633 0.988630 0.076199
vn -0.129633 0.988630 0.076199
vn 0.129633 0.988630 0.076199
vn 0.129633 0.988630 0.076199
vn 0.129633 0.988630 0.076199
vn 0.129633 0.988630 0.076199
vn 0.934796 0.339517 0.104328
vn 0.934796 0.339517 0.104328
vn 0.934796 0.339517 0.104328
vn 0.934796 0.339517 0.104328
vn 0.955295 -0.293367 0.036711
vn 0.955295 -0.293367 0.036711
vn 0.955295 -0.293367 0.036711
vn 0.955295 -0.293367 0.036711
vn 0.997890 0.058651 0.027836
vn 0.997890 0.058651 0.027836
vn 0.997890 0.058651 0.027836
vn 0.997890 0.058651 0.027836
vn 0.685716 -0.725784 0.055061
vn 0.685716 -0.725784 0.055061
vn 0.685716 -0.725784 0.055061
vn 0.685716 -0.725784 0.055061
vn 0.011278 -0.999936 -0.000817
vn 0.011278 -0.999936 -0.000817
vn 0.011278 -0.999936 -0.000817
vn 0.011278 -0.999936 -0.000817
vn -0.011278 -0.999936 -0.000818
vn -0.011278 -0.999936 -0.000818
vn -0.011278 -0.999936 -0.000818
vn -0.011278 -0.999936 -0.000818
vn -0.685716 -0.725784 0.055061
vn -0.685716 -0.725784 0.055061
vn -0.685716 -0.725784 0.055061
vn -0.685716 -0.725784 0.055061
vn -0.997890 0.058651 0.027836
vn -0.997890 0.058651 0.027836
vn -0.997890 0.058651 0.027836
vn -0.997890 0.058651 0.027836
vn -0.955295 -0.293367 0.036711
vn -0.955295 -0.293367 0.036711
vn -0.955295 -0.293367 0.036711
vn -0.955295 -0.293367 0.036711
vn -0.934796 0.339517 0.104328
vn -0.934796 0.339517 0.104328
vn -0.934796 0.339517 0.104328
vn -0.934796 0.339517 0.104328
s off
g SM_Item_Bread_01
usemtl SM_Item_Bread_01SG
f 9/1/1 10/2/2 5/3/3 1/4/4
f 53/5/5 54/6/6 47/7/7 48/8/8
f 3/9/9 6/10/10 13/11/11 14/12/12
f 60/13/13 61/14/14 52/15/15 41/16/16
f 55/17/17 56/18/18 45/19/19 46/20/20
f 48/8/21 49/21/22 64/22/23 53/5/24
f 54/6/25 55/17/26 46/20/27 47/7/28
f 12/23/29 13/11/30 6/10/31 4/24/32
f 59/25/33 60/13/34 41/16/35 42/26/36
f 5/3/37 10/2/38 11/27/39 2/28/40
f 15/29/41 16/30/42 10/2/43 9/1/44
f 11/27/45 10/2/46 16/30/47 17/31/48
f 56/18/49 57/32/50 44/33/51 45/19/52
f 18/34/53 19/35/54 13/11/55 12/23/56
f 14/12/57 13/11/58 19/35/59 20/36/60
f 49/21/61 50/37/62 63/38/63 64/22/64
f 17/31/65 16/30/66 8/39/67 25/40/68 26/41/69
f 57/32/70 58/42/71 43/43/72 44/33/73
f 7/44/74 19/35/75 18/34/76 27/45/77 28/46/78
f 20/36/79 19/35/80 7/44/81 24/47/82 23/48/83
f 50/37/84 51/49/85 62/50/86 63/38/87
f 22/51/88 21/52/89 8/39/90 16/30/91 15/29/92
f 61/14/93 62/50/94 51/49/95 52/15/96
f 58/42/97 59/25/98 42/26/99 43/43/100
f 1/4/101 5/3/102 30/53/103 29/54/104
f 5/3/105 2/28/106 31/55/107 30/53/108
f 11/27/109 32/56/110 31/55/111 2/28/112
f 17/31/113 33/57/114 32/56/115 11/27/116
f 26/41/117 34/58/118 33/57/119 17/31/120
f 26/41/121 25/40/122 35/59/123 34/58/124
f 8/39/125 36/60/126 35/59/127 25/40/128
f 21/52/129 37/61/130 36/60/131 8/39/132
f 21/52/133 22/51/134 38/62/135 37/61/136
f 39/63/137 38/62/138 22/51/139 15/29/140
f 40/64/141 39/63/142 15/29/143 9/1/144
f 29/54/145 40/64/146 9/1/147 1/4/148
f 42/26/149 41/16/150 7/44/151 28/46/152
f 43/43/153 42/26/154 28/46/155 27/45/156
f 44/33/157 43/43/158 27/45/159 18/34/160
f 45/19/161 44/33/162 18/34/163 12/23/164
f 46/20/165 45/19/166 12/23/167 4/24/168
f 47/7/169 46/20/170 4/24/171 6/10/172
f 48/8/173 47/7/174 6/10/175 3/9/176
f 14/12/177 49/21/178 48/8/179 3/9/180
f 20/36/181 50/37/182 49/21/183 14/12/184
f 23/48/185 51/49/186 50/37/187 20/36/188
f 52/15/189 51/49/190 23/48/191 24/47/192
f 41/16/193 52/15/194 24/47/195 7/44/196
f 29/54/197 30/53/198 54/6/199 53/5/200
f 30/53/201 31/55/202 55/17/203 54/6/204
f 31/55/205 32/56/206 56/18/207 55/17/208
f 32/56/209 33/57/210 57/32/211 56/18/212
f 33/57/213 34/58/214 58/42/215 57/32/216
f 34/58/217 35/59/218 59/25/219 58/42/220
f 35/59/221 36/60/222 60/13/223 59/25/224
f 36/60/225 37/61/226 61/14/227 60/13/228
f 37/61/229 38/62/230 62/50/231 61/14/232
f 63/38/233 62/50/234 38/62/235 39/63/236
f 64/22/237 63/38/238 39/63/239 40/64/240
f 53/5/241 64/22/242 40/64/243 29/54/244
