# This file uses centimeters as units for non-parametric coordinates.

v 11.834723 1.265093 32.906551
v 9.304525 1.265093 32.906551
v 11.834723 -1.265093 32.906551
v 9.304525 -1.265093 32.906551
v 11.686163 -1.116538 -22.738789
v 9.453085 -1.116538 -22.738789
v 11.686163 1.116538 -22.738789
v 9.453085 1.116538 -22.738789
v 11.971685 1.402065 52.963249
v 9.167562 1.402065 52.963249
v 9.167562 -1.402065 52.963249
v 11.971685 -1.402065 52.963249
v 11.277685 1.818364 56.001064
v 8.706137 1.818364 53.429508
v 8.447210 -1.818364 53.740814
v 11.018759 -1.818364 56.312366
v 2.017355 1.818364 64.894310
v 0.426947 1.818364 61.858429
v 0.926428 -1.818364 61.261593
v 3.497992 -1.818364 63.833153
v 1.517416 1.818364 65.515167
v -2.023142 1.818364 64.684311
v -2.023142 -1.818364 64.684311
v 1.517416 -1.818364 65.515167
v 3.276220 2.846287 77.626930
v 2.254126 2.927808 79.092758
v 2.254126 -2.927808 79.092758
v 3.276220 -2.846287 77.626930
v 10.827841 -0.000000 56.405998
v 8.353582 -0.000000 53.931736
v 1.117346 0.000000 61.167965
v 3.591619 0.000000 63.642223
v -0.932520 1.742077 70.360229
v -3.834558 1.704547 70.360229
v -3.834558 -1.704547 70.360229
v -0.932520 -1.742077 70.360229
v 0.747869 2.387159 74.634193
v 0.747869 -2.387159 74.634193
v -1.314280 -2.306102 75.796608
v -1.314280 2.306102 75.796608
v 4.409155 2.972723 79.570869
v 2.783438 2.972723 80.312752
v 2.783438 -2.972723 80.312752
v 4.409155 -2.972723 79.570869
v 4.109625 2.972723 87.411972
v 2.483908 2.972723 87.411980
v 2.483908 -2.972723 87.411980
v 4.109625 -2.972723 87.411972
vt 0.102341 0.230917
vt 0.102341 0.230917
vt 0.102341 0.230917
vt 0.102341 0.230917
vt 0.102341 0.230917
vt 0.102341 0.230917
vt 0.102341 0.230917
vt 0.102341 0.230917
vt 0.102341 0.230917
vt 0.102341 0.230917
vt 0.102341 0.230917
vt 0.102341 0.230917
vt 0.102341 0.230917
vt 0.102341 0.230917
vt 0.102341 0.230917
vt 0.102341 0.230917
vt 0.102341 0.230917
vt 0.102341 0.230917
vt 0.102341 0.230917
vt 0.102341 0.230917
vt 0.102341 0.230917
vt 0.102341 0.230917
vt 0.102341 0.230917
vt 0.102341 0.230917
vt 0.102341 0.230917
vt 0.102341 0.230917
vt 0.102341 0.230917
vt 0.102341 0.230917
vt 0.102341 0.230917
vt 0.102341 0.230917
vt 0.102341 0.230917
vt 0.102341 0.230917
vt 0.102341 0.230917
vt 0.102341 0.230917
vt 0.102341 0.230917
vt 0.102341 0.230917
vt 0.102341 0.230917
vt 0.102341 0.230917
vt 0.102341 0.230917
vt 0.102341 0.230917
vt 0.102341 0.230917
vt 0.102341 0.230917
vt 0.102341 0.230917
vt 0.102341 0.230917
vt 0.102341 0.230917
vt 0.102341 0.230917
vt 0.102341 0.230917
vt 0.102341 0.230917
vn 0.000006 -0.000000 1.000000
vn 0.000006 -0.000000 1.000000
vn 0.000006 -0.000000 1.000000
vn 0.000006 -0.000000 1.000000
vn -0.000000 -0.999996 -0.002670
vn -0.000000 -0.999996 -0.002670
vn -0.000000 -0.999996 -0.002670
vn -0.000000 -0.999996 -0.002670
vn -0.000000 0.000000 -1.000000
vn -0.000000 0.000000 -1.000000
vn -0.000000 0.000000 -1.000000
vn -0.000000 0.000000 -1.000000
vn 0.000000 0.999996 -0.002670
vn 0.000000 0.999996 -0.002670
vn 0.000000 0.999996 -0.002670
vn 0.000000 0.999996 -0.002670
vn -0.999996 0.000000 -0.002670
vn -0.999996 0.000000 -0.002670
vn -0.999996 0.000000 -0.002670
vn -0.999996 0.000000 -0.002670
vn 0.999996 -0.000000 -0.002670
vn 0.999996 -0.000000 -0.002670
vn 0.999996 -0.000000 -0.002670
vn 0.999996 -0.000000 -0.002670
vn 0.000000 0.999977 -0.006829
vn 0.000000 0.999977 -0.006829
vn 0.000000 0.999977 -0.006829
vn 0.000000 0.999977 -0.006829
vn -0.999977 0.000000 -0.006829
vn -0.999977 0.000000 -0.006829
vn -0.999977 0.000000 -0.006829
vn -0.999977 0.000000 -0.006829
vn -0.000000 -0.999977 -0.006829
vn -0.000000 -0.999977 -0.006829
vn -0.000000 -0.999977 -0.006829
vn -0.000000 -0.999977 -0.006829
vn 0.999977 -0.000000 -0.006829
vn 0.999977 -0.000000 -0.006829
vn 0.999977 -0.000000 -0.006829
vn 0.999977 -0.000000 -0.006829
vn 0.095731 0.975083 -0.200122
vn 0.095731 0.975083 -0.200121
vn 0.095731 0.975083 -0.200122
vn 0.095731 0.975083 -0.200122
vn -0.724952 -0.004148 -0.688787
vn -0.724952 -0.004148 -0.688787
vn -0.724952 -0.004148 -0.688787
vn -0.724952 -0.004148 -0.688787
vn 0.079454 -0.982904 -0.166094
vn 0.079454 -0.982904 -0.166093
vn 0.079454 -0.982904 -0.166093
vn 0.079454 -0.982904 -0.166093
vn 0.967977 -0.026849 0.249601
vn 0.967977 -0.026849 0.249601
vn 0.967977 -0.026849 0.249601
vn 0.967977 -0.026849 0.249601
vn 0.000000 1.000000 0.000000
vn 0.000000 1.000000 0.000000
vn 0.000000 1.000000 0.000000
vn 0.000000 1.000000 0.000000
vn -0.706601 0.037807 -0.706601
vn -0.706601 0.037807 -0.706601
vn -0.706601 0.037807 -0.706601
vn -0.706601 0.037807 -0.706601
vn -0.000000 -1.000000 0.000000
vn -0.000000 -1.000000 0.000000
vn -0.000000 -1.000000 0.000000
vn -0.000000 -1.000000 0.000000
vn 0.706602 0.037808 0.706601
vn 0.706602 0.037808 0.706601
vn 0.706602 0.037808 0.706601
vn 0.706602 0.037808 0.706601
vn 0.000000 1.000000 0.000000
vn 0.000000 1.000000 0.000000
vn 0.000000 1.000000 0.000000
vn 0.000000 1.000000 0.000000
vn -0.756633 0.001692 -0.653837
vn -0.756633 0.001692 -0.653837
vn -0.756633 0.001692 -0.653837
vn -0.756633 0.001692 -0.653837
vn -0.000000 -1.000000 0.000000
vn -0.000000 -1.000000 0.000000
vn -0.000000 -1.000000 0.000000
vn -0.000000 -1.000000 0.000000
vn 0.680040 0.031566 0.732496
vn 0.680040 0.031566 0.732496
vn 0.680040 0.031566 0.732496
vn 0.680040 0.031566 0.732496
vn -0.024841 0.999053 -0.035717
vn -0.024290 0.999124 -0.034084
vn -0.059754 0.993008 -0.101803
vn -0.061266 0.992981 -0.101169
vn -0.995151 0.000000 0.098361
vn -0.995151 0.000000 0.098361
vn -0.796502 0.000000 0.604636
vn -0.796502 0.000000 0.604636
vn -0.024290 -0.999124 -0.034084
vn -0.024841 -0.999053 -0.035717
vn -0.061266 -0.992981 -0.101169
vn -0.059754 -0.993008 -0.101803
vn 0.999422 -0.000000 0.033996
vn 0.999422 -0.000000 0.033996
vn 0.848336 -0.000000 -0.529458
vn 0.848336 -0.000000 -0.529458
vn -0.671009 0.315429 0.671008
vn -0.671009 0.315429 0.671008
vn -0.671009 0.315429 0.671008
vn -0.671009 0.315429 0.671008
vn 0.622822 0.633253 -0.459439
vn 0.622822 0.633253 -0.459439
vn 0.622822 0.633253 -0.459439
vn 0.622822 0.633253 -0.459439
vn -0.840777 0.013533 -0.541213
vn -0.840777 0.013533 -0.541213
vn -0.840777 0.013533 -0.541213
vn -0.664373 0.031305 -0.746745
vn -0.664373 0.031305 -0.746745
vn -0.664373 0.031305 -0.746745
vn 0.613908 0.023830 0.789018
vn 0.613908 0.023830 0.789018
vn 0.613908 0.023830 0.789018
vn 0.653603 0.045669 0.755458
vn 0.653603 0.045669 0.755458
vn 0.653603 0.045669 0.755458
vn -0.007750 0.999859 0.014928
vn -0.007750 0.999859 0.014928
vn -0.024290 0.999124 -0.034084
vn -0.024841 0.999053 -0.035717
vn -0.952662 0.000000 -0.304033
vn -0.952662 0.000000 -0.304033
vn -0.995151 0.000000 0.098361
vn -0.995151 0.000000 0.098361
vn -0.007750 -0.999859 0.014928
vn -0.007750 -0.999859 0.014928
vn -0.024841 -0.999053 -0.035717
vn -0.024290 -0.999124 -0.034084
vn 0.892399 -0.000000 0.451247
vn 0.892399 -0.000000 0.451247
vn 0.999422 -0.000000 0.033996
vn 0.999422 -0.000000 0.033996
vn 0.848336 -0.000000 -0.529458
vn 0.848336 -0.000000 -0.529458
vn 0.763885 -0.000000 -0.645353
vn 0.763885 -0.000000 -0.645353
vn -0.059754 -0.993008 -0.101803
vn -0.061266 -0.992981 -0.101169
vn -0.079512 -0.992441 -0.093482
vn -0.079512 -0.992441 -0.093482
vn -0.796502 0.000000 0.604636
vn -0.796502 0.000000 0.604636
vn -0.678529 0.000000 0.734574
vn -0.678529 0.000000 0.734574
vn -0.061266 0.992981 -0.101169
vn -0.059754 0.993008 -0.101803
vn -0.079512 0.992441 -0.093482
vn -0.079512 0.992441 -0.093482
vn -0.009979 0.998756 -0.048848
vn -0.009979 0.998756 -0.048848
vn -0.009979 0.998756 -0.048848
vn -0.009979 0.998756 -0.048848
vn -0.917378 0.000000 0.398017
vn -0.917378 0.000000 0.398017
vn -0.917378 0.000000 0.398017
vn -0.917378 0.000000 0.398017
vn -0.009979 -0.998756 -0.048848
vn -0.009979 -0.998756 -0.048848
vn -0.009979 -0.998756 -0.048848
vn -0.009979 -0.998756 -0.048848
vn 0.863979 -0.000000 -0.503529
vn 0.863979 -0.000000 -0.503529
vn 0.863979 -0.000000 -0.503529
vn 0.863979 -0.000000 -0.503529
vn 0.000000 1.000000 0.000000
vn 0.000000 1.000000 0.000000
vn 0.000000 1.000000 0.000000
vn 0.000000 1.000000 0.000000
vn -0.999111 0.000000 -0.042154
vn -0.999111 0.000000 -0.042154
vn -0.999111 0.000000 -0.042154
vn -0.999111 0.000000 -0.042154
vn -0.000000 -1.000000 -0.000000
vn -0.000000 -1.000000 -0.000000
vn -0.000000 -1.000000 -0.000000
vn -0.000000 -1.000000 -0.000000
vn 0.999271 -0.000000 0.038172
vn 0.999271 -0.000000 0.038172
vn 0.999271 -0.000000 0.038172
vn 0.999271 -0.000000 0.038172
s off
f 45/1/1 46/2/2 47/3/3 48/4/4
f 3/5/5 4/6/6 6/7/7 5/8/8
f 5/8/9 6/7/10 8/9/11 7/10/12
f 7/10/13 8/9/14 2/11/15 1/12/16
f 2/11/17 8/9/18 6/7/19 4/6/20
f 7/10/21 1/12/22 3/5/23 5/8/24
f 1/12/25 2/11/26 10/13/27 9/14/28
f 2/11/29 4/6/30 11/15/31 10/13/32
f 4/6/33 3/5/34 12/16/35 11/15/36
f 3/5/37 1/12/38 9/14/39 12/16/40
f 9/14/41 10/13/42 14/17/43 13/18/44
f 10/13/45 11/15/46 15/19/47 14/17/48
f 11/15/49 12/16/50 16/20/51 15/19/52
f 12/16/53 9/14/54 13/18/55 16/20/56
f 29/21/57 30/22/58 31/23/59 32/24/60
f 30/22/61 15/19/62 19/25/63 31/23/64
f 15/19/65 16/20/66 20/26/67 19/25/68
f 16/20/69 29/21/70 32/24/71 20/26/72
f 17/27/73 18/28/74 22/29/75 21/30/76
f 18/28/77 19/25/78 23/31/79 22/29/80
f 19/25/81 20/26/82 24/32/83 23/31/84
f 20/26/85 17/27/86 21/30/87 24/32/88
f 33/33/89 34/34/90 40/35/91 37/36/92
f 34/34/93 35/37/94 39/38/95 40/35/96
f 35/37/97 36/39/98 38/40/99 39/38/100
f 36/39/101 33/33/102 37/36/103 38/40/104
f 13/18/105 14/17/106 30/22/107 29/21/108
f 18/28/109 17/27/110 32/24/111 31/23/112
f 14/17/113 15/19/114 30/22/115
f 19/25/116 18/28/117 31/23/118
f 16/20/119 13/18/120 29/21/121
f 17/27/122 20/26/123 32/24/124
f 21/30/125 22/29/126 34/34/127 33/33/128
f 22/29/129 23/31/130 35/37/131 34/34/132
f 23/31/133 24/32/134 36/39/135 35/37/136
f 24/32/137 21/30/138 33/33/139 36/39/140
f 38/40/141 37/36/142 25/41/143 28/42/144
f 39/38/145 38/40/146 28/42/147 27/43/148
f 40/35/149 39/38/150 27/43/151 26/44/152
f 37/36/153 40/35/154 26/44/155 25/41/156
f 25/41/157 26/44/158 42/45/159 41/46/160
f 26/44/161 27/43/162 43/47/163 42/45/164
f 27/43/165 28/42/166 44/48/167 43/47/168
f 28/42/169 25/41/170 41/46/171 44/48/172
f 41/46/173 42/45/174 46/2/175 45/1/176
f 42/45/177 43/47/178 47/3/179 46/2/180
f 43/47/181 44/48/182 48/4/183 47/3/184
f 44/48/185 41/46/186 45/1/187 48/4/188
