# This file uses centimeters as units for non-parametric coordinates.

v -1.321107 -1.321107 24.167324
v 1.321107 -1.321107 24.167324
v -1.321107 1.321107 24.167324
v 1.321107 1.321107 24.167324
v -1.321107 1.321107 2.678894
v 1.321107 1.321107 2.678894
v -1.321107 -1.321107 2.678894
v 1.321107 -1.321107 2.678894
v -0.229539 -1.321107 45.657059
v 0.229539 -1.321107 45.657059
v 0.229539 1.321107 45.657059
v -0.229539 1.321107 45.657059
v -0.450300 1.321107 -6.253693
v 2.164813 1.321107 -5.876228
v 2.164813 -1.321107 -5.876228
v -0.450300 -1.321107 -6.253693
v -1.224177 1.321107 -11.208778
v 0.891896 1.321107 -12.791046
v 0.891896 -1.321107 -12.791046
v -1.224177 -1.321107 -11.208778
v -4.532723 1.321107 -13.101372
v -4.155261 1.321107 -15.716484
v -4.155261 -1.321107 -15.716484
v -4.532723 -1.321107 -13.101372
v -8.291475 1.321107 -12.135666
v -9.873734 1.321107 -14.251740
v -9.873734 -1.321107 -14.251740
v -8.291475 -1.321107 -12.135666
v -9.455360 1.321107 -7.992432
v -12.070473 1.321107 -8.369896
v -12.070473 -1.321107 -8.369896
v -9.455360 -1.321107 -7.992432
v 0.015262 1.502226 13.531477
v 1.502226 -0.016874 13.544589
v -0.016867 -1.502226 13.544529
v -1.502226 0.015256 13.531431
vt 0.080913 0.277100
vt 0.080913 0.277100
vt 0.080913 0.277100
vt 0.080913 0.277100
vt 0.080913 0.277100
vt 0.080913 0.277100
vt 0.080913 0.277100
vt 0.080913 0.277100
vt 0.080913 0.277100
vt 0.080913 0.277100
vt 0.080913 0.277100
vt 0.080913 0.277100
vt 0.080913 0.277100
vt 0.080913 0.277100
vt 0.080913 0.277100
vt 0.080913 0.277100
vt 0.080913 0.277100
vt 0.080913 0.277100
vt 0.080913 0.277100
vt 0.080913 0.277100
vt 0.080913 0.277100
vt 0.080913 0.277100
vt 0.080913 0.277100
vt 0.080913 0.277100
vt 0.080913 0.277100
vt 0.080913 0.277100
vt 0.080913 0.277100
vt 0.080913 0.277100
vt 0.080913 0.277100
vt 0.080913 0.277100
vt 0.080913 0.277100
vt 0.080913 0.277100
vt 0.080913 0.277100
vt 0.080913 0.277100
vt 0.080913 0.277100
vt 0.080913 0.277100
vn 0.000000 0.000000 1.000000
vn 0.000000 0.000000 1.000000
vn 0.000000 0.000000 1.000000
vn 0.000000 0.000000 1.000000
vn 0.711526 0.695618 -0.099225
vn 0.711526 0.695618 -0.099225
vn 0.711526 0.695618 -0.099225
vn -0.142858 0.000000 0.989743
vn -0.142858 0.000000 0.989743
vn -0.142858 0.000000 0.989743
vn -0.142858 0.000000 0.989743
vn -0.696439 0.710735 -0.099142
vn -0.696439 0.710735 -0.099142
vn -0.696439 0.710735 -0.099142
vn 0.000000 -1.000000 0.000000
vn 0.000000 -1.000000 0.000000
vn 0.000000 -1.000000 0.000000
vn 0.000000 -1.000000 0.000000
vn 0.998712 0.000000 0.050729
vn 0.998712 0.000000 0.050729
vn 0.998712 0.000000 0.050729
vn 0.998712 0.000000 0.050729
vn 0.000000 1.000000 0.000000
vn 0.000000 1.000000 0.000000
vn 0.000000 1.000000 0.000000
vn 0.000000 1.000000 0.000000
vn -0.998712 0.000000 0.050729
vn -0.998712 0.000000 0.050729
vn -0.998712 0.000000 0.050729
vn -0.998712 0.000000 0.050729
vn 0.000000 1.000000 0.000000
vn 0.000000 1.000000 0.000000
vn 0.000000 1.000000 0.000000
vn 0.000000 1.000000 0.000000
vn 0.995172 0.000000 0.098144
vn 0.995172 0.000000 0.098144
vn 0.995172 0.000000 0.098144
vn 0.995172 0.000000 0.098144
vn 0.000000 -1.000000 -0.000000
vn 0.000000 -1.000000 -0.000000
vn 0.000000 -1.000000 -0.000000
vn 0.000000 -1.000000 -0.000000
vn -0.995282 0.000000 -0.097027
vn -0.995282 0.000000 -0.097027
vn -0.995282 0.000000 -0.097027
vn -0.995282 0.000000 -0.097027
vn 0.000000 1.000000 0.000000
vn 0.000000 1.000000 0.000000
vn 0.000000 1.000000 0.000000
vn 0.000000 1.000000 0.000000
vn 0.983475 0.000000 -0.181044
vn 0.983475 0.000000 -0.181044
vn 0.983475 0.000000 -0.181044
vn 0.983475 0.000000 -0.181044
vn 0.000000 -1.000000 0.000000
vn 0.000000 -1.000000 0.000000
vn 0.000000 -1.000000 0.000000
vn 0.000000 -1.000000 0.000000
vn -0.988023 0.000000 0.154308
vn -0.988023 0.000000 0.154308
vn -0.988023 0.000000 0.154308
vn -0.988023 0.000000 0.154308
vn 0.000000 1.000000 0.000000
vn 0.000000 1.000000 0.000000
vn 0.000000 1.000000 0.000000
vn 0.000000 1.000000 0.000000
vn 0.501473 0.000000 -0.865173
vn 0.501473 0.000000 -0.865173
vn 0.501473 0.000000 -0.865173
vn 0.501473 0.000000 -0.865173
vn 0.000000 -1.000000 0.000000
vn 0.000000 -1.000000 0.000000
vn 0.000000 -1.000000 0.000000
vn 0.000000 -1.000000 0.000000
vn -0.496533 0.000000 0.868018
vn -0.496533 0.000000 0.868018
vn -0.496533 0.000000 0.868018
vn -0.496533 0.000000 0.868018
vn 0.000000 1.000000 0.000000
vn 0.000000 1.000000 0.000000
vn 0.000000 1.000000 0.000000
vn 0.000000 1.000000 0.000000
vn -0.248132 0.000000 -0.968726
vn -0.248132 0.000000 -0.968726
vn -0.248132 0.000000 -0.968726
vn -0.248132 0.000000 -0.968726
vn 0.000000 -1.000000 0.000000
vn 0.000000 -1.000000 0.000000
vn 0.000000 -1.000000 0.000000
vn 0.000000 -1.000000 0.000000
vn 0.248840 0.000000 0.968544
vn 0.248840 0.000000 0.968544
vn 0.248840 0.000000 0.968544
vn 0.248840 0.000000 0.968544
vn 0.000000 1.000000 0.000000
vn 0.000000 1.000000 0.000000
vn 0.000000 1.000000 0.000000
vn 0.000000 1.000000 0.000000
vn -0.936797 0.000000 -0.349873
vn -0.936797 0.000000 -0.349873
vn -0.936797 0.000000 -0.349873
vn -0.936797 0.000000 -0.349873
vn 0.000000 -1.000000 0.000000
vn 0.000000 -1.000000 0.000000
vn 0.000000 -1.000000 0.000000
vn 0.000000 -1.000000 0.000000
vn 0.962736 0.000000 0.270444
vn 0.962736 0.000000 0.270444
vn 0.962736 0.000000 0.270444
vn 0.962736 0.000000 0.270444
vn 0.000000 -0.992547 -0.121862
vn 0.000000 -0.992547 -0.121862
vn 0.000000 -0.992547 -0.121862
vn -0.710683 -0.696494 -0.099122
vn -0.710683 -0.696494 -0.099122
vn -0.710683 -0.696494 -0.099122
vn 0.992547 0.000000 -0.121863
vn 0.992547 0.000000 -0.121863
vn 0.992547 0.000000 -0.121863
vn 0.000000 0.992547 -0.121863
vn 0.000000 0.992547 -0.121863
vn 0.000000 0.992547 -0.121863
vn 0.695675 -0.711474 -0.099206
vn 0.695675 -0.711474 -0.099206
vn 0.695675 -0.711474 -0.099206
vn -0.992547 0.000000 -0.121862
vn -0.992547 0.000000 -0.121862
vn -0.992547 0.000000 -0.121862
vn -0.696547 0.710839 0.097625
vn -0.696547 0.710839 0.097625
vn -0.696547 0.710839 0.097625
vn -0.992504 0.000000 0.122215
vn -0.992504 0.000000 0.122215
vn -0.992504 0.000000 0.122215
vn 0.710789 0.696595 0.097645
vn 0.710789 0.696595 0.097645
vn 0.710789 0.696595 0.097645
vn 0.000000 0.992504 0.122215
vn 0.000000 0.992504 0.122215
vn 0.000000 0.992504 0.122215
vn 0.695785 -0.711594 0.097559
vn 0.695785 -0.711594 0.097559
vn 0.695785 -0.711594 0.097559
vn 0.992504 0.000000 0.122215
vn 0.992504 0.000000 0.122215
vn 0.992504 0.000000 0.122215
vn -0.711643 -0.695737 0.097540
vn -0.711643 -0.695737 0.097540
vn -0.711643 -0.695737 0.097540
vn 0.000000 -0.992504 0.122215
vn 0.000000 -0.992504 0.122215
vn 0.000000 -0.992504 0.122215
s off
f 9/9/1 10/10/2 11/11/3 12/12/4
f 34/34/5 5/6/6 33/33/7
f 29/29/8 30/30/9 31/31/10 32/32/11
f 33/33/12 7/8/13 36/36/14
f 1/1/15 2/2/16 10/10/17 9/9/18
f 2/2/19 4/3/20 11/11/21 10/10/22
f 4/3/23 3/4/24 12/12/25 11/11/26
f 3/4/27 1/1/28 9/9/29 12/12/30
f 5/6/31 6/5/32 14/14/33 13/13/34
f 6/5/35 8/7/36 15/15/37 14/14/38
f 8/7/39 7/8/40 16/16/41 15/15/42
f 7/8/43 5/6/44 13/13/45 16/16/46
f 13/13/47 14/14/48 18/18/49 17/17/50
f 14/14/51 15/15/52 19/19/53 18/18/54
f 15/15/55 16/16/56 20/20/57 19/19/58
f 16/16/59 13/13/60 17/17/61 20/20/62
f 17/17/63 18/18/64 22/22/65 21/21/66
f 18/18/67 19/19/68 23/23/69 22/22/70
f 19/19/71 20/20/72 24/24/73 23/23/74
f 20/20/75 17/17/76 21/21/77 24/24/78
f 21/21/79 22/22/80 26/26/81 25/25/82
f 22/22/83 23/23/84 27/27/85 26/26/86
f 23/23/87 24/24/88 28/28/89 27/27/90
f 24/24/91 21/21/92 25/25/93 28/28/94
f 25/25/95 26/26/96 30/30/97 29/29/98
f 26/26/99 27/27/100 31/31/101 30/30/102
f 27/27/103 28/28/104 32/32/105 31/31/106
f 28/28/107 25/25/108 29/29/109 32/32/110
f 2/2/111 1/1/112 34/34/113
f 35/35/114 36/36/115 8/7/116
f 33/33/117 4/3/118 2/2/119
f 36/36/120 3/4/121 4/3/122
f 34/34/123 35/35/124 6/5/125
f 1/1/126 3/4/127 35/35/128
f 36/36/129 4/3/130 33/33/131
f 5/6/132 7/8/133 33/33/134
f 33/33/135 2/2/136 34/34/137
f 6/5/138 5/6/139 34/34/140
f 34/34/141 1/1/142 35/35/143
f 6/5/144 35/35/145 8/7/146
f 35/35/147 3/4/148 36/36/149
f 8/7/150 36/36/151 7/8/152
