# This file uses centimeters as units for non-parametric coordinates.

v -1.940674 0.737603 2.019043
v -0.673340 1.940601 2.707520
v -0.673340 1.940601 -2.707520
v -1.940674 0.737603 -2.019043
v 0.673340 1.940601 2.707520
v 1.940674 0.737603 2.019043
v 1.940674 0.737603 -2.019043
v 0.673340 1.940601 -2.707520
v -0.673340 -1.940602 1.113403
v -1.940674 -0.737604 1.568848
v -1.940674 -0.737604 -1.568848
v -0.673340 -1.940602 -1.113403
v 1.940674 -0.737604 1.568848
v 0.673340 -1.940602 1.113403
v 0.673340 -1.940602 -1.113403
v 1.940674 -0.737604 -1.568848
v -1.529785 2.457161 1.940491
v -2.534424 1.045254 1.552063
v 1.529541 2.457161 1.940491
v 2.534424 1.045254 1.552063
v 1.529541 2.457161 -1.940491
v 2.534424 1.045254 -1.552063
v -1.529785 2.457161 -1.940491
v -2.534424 1.045254 -1.552063
v -1.045410 -2.534420 -0.937805
v -2.534424 -1.045255 -1.267151
v 1.045166 -2.534420 -0.937805
v 2.534424 -1.045255 -1.267151
v 1.045166 -2.534420 0.937805
v 2.534424 -1.045255 1.267151
v -1.045410 -2.534420 0.937805
v -2.534424 -1.045255 1.267151
v 0.000000 2.534420 2.465942
v 0.000000 2.534420 -2.465942
v -2.218262 2.299053 0.000000
v 2.218018 2.299053 0.000000
v 0.681885 3.170441 0.000000
v 0.000000 2.572656 2.106750
v 1.306641 2.506651 1.657837
v 1.007568 2.967924 1.278198
v 0.000000 3.018815 1.624329
v 1.894775 2.371574 0.000000
v 1.515625 2.903687 0.000000
v -1.306885 2.506651 1.657837
v -1.007568 2.967924 1.278198
v -1.895020 2.371574 0.000000
v -1.515869 2.903687 0.000000
v 1.306641 2.506651 -1.657837
v 1.007568 2.967924 -1.278198
v 0.000000 2.572656 -2.106750
v 0.000000 3.018815 -1.624268
v -1.306885 2.506651 -1.657837
v -1.007568 2.967924 -1.278198
v -0.682129 3.170441 0.000000
v -0.316895 3.172376 -0.627686
v 0.316650 3.172376 -0.627686
v 0.000000 3.146530 -1.063477
v 0.000000 3.146530 1.063477
v 0.316650 3.172376 0.627686
v -0.316895 3.172376 0.627686
vt 0.082183 0.274610
vt 0.081793 0.274588
vt 0.082180 0.275509
vt 0.081797 0.275562
vt 0.081526 0.275232
vt 0.081514 0.274883
vt 0.082466 0.275289
vt 0.082448 0.274866
vt 0.082067 0.274687
vt 0.081906 0.274731
vt 0.082077 0.275467
vt 0.081904 0.275385
vt 0.081623 0.275185
vt 0.081636 0.274955
vt 0.082335 0.275117
vt 0.082360 0.275013
vt 0.082077 0.274731
vt 0.081786 0.274611
vt 0.081904 0.274687
vt 0.082170 0.274588
vt 0.082067 0.275385
vt 0.081804 0.275510
vt 0.081906 0.275467
vt 0.082193 0.275561
vt 0.081636 0.275118
vt 0.081525 0.274856
vt 0.081623 0.275014
vt 0.081514 0.275280
vt 0.082360 0.275184
vt 0.082466 0.274892
vt 0.082335 0.274955
vt 0.082448 0.275241
vt 0.081985 0.274610
vt 0.081982 0.274588
vt 0.082177 0.274599
vt 0.081790 0.274599
vt 0.080765 0.228403
vt 0.080420 0.228270
vt 0.080484 0.228194
vt 0.080776 0.228303
vt 0.080358 0.227877
vt 0.080425 0.227863
vt 0.081145 0.228314
vt 0.081096 0.228231
vt 0.218394 0.418099
vt 0.218030 0.418025
vt 0.218114 0.417857
vt 0.218396 0.417912
vt 0.217907 0.417758
vt 0.217999 0.417648
vt 0.218765 0.418030
vt 0.218682 0.417861
vt 0.081310 0.227931
vt 0.081242 0.227909
vt 0.080572 0.227492
vt 0.080606 0.227531
vt 0.080885 0.227403
vt 0.080878 0.227452
vt 0.081179 0.227524
vt 0.081133 0.227558
vt 0.218092 0.445532
vt 0.217918 0.445468
vt 0.217578 0.445225
vt 0.217781 0.445153
vt 0.217978 0.445238
vt 0.217840 0.445326
vt 0.217516 0.445826
vt 0.217749 0.445924
vt 0.217756 0.445741
vt 0.217442 0.445510
vt 0.217618 0.445458
vt 0.217991 0.445843
vt 0.217833 0.445622
vt 0.217707 0.445321
vt 0.217777 0.445238
vt 0.217689 0.445617
vt 0.081659 0.234940
vt 0.081968 0.234945
vt 0.081958 0.235536
vt 0.081638 0.235530
vt 0.081819 0.234750
vt 0.081793 0.235750
vt 0.218907 0.417765
vt 0.218813 0.417653
vt 0.218088 0.417470
vt 0.218153 0.417432
vt 0.218417 0.417393
vt 0.218414 0.417372
vt 0.218742 0.417474
vt 0.218671 0.417436
vn -0.609835 0.350021 0.711046
vn -0.609835 0.350021 0.711046
vn -0.609835 0.350021 0.711046
vn -0.609835 0.350021 0.711046
vn 0.688462 -0.725272 0.000000
vn 0.688462 -0.725272 0.000000
vn 0.688462 -0.725272 0.000000
vn 0.688462 -0.725272 0.000000
vn -0.609835 0.350021 -0.711046
vn -0.609835 0.350021 -0.711046
vn -0.609835 0.350021 -0.711046
vn -0.609835 0.350021 -0.711046
vn 0.609835 0.350021 0.711046
vn 0.609835 0.350021 0.711046
vn 0.609835 0.350021 0.711046
vn 0.609835 0.350021 0.711046
vn -0.688462 -0.725272 0.000000
vn -0.688462 -0.725272 0.000000
vn -0.688462 -0.725272 0.000000
vn -0.688462 -0.725272 0.000000
vn 0.609835 0.350021 -0.711046
vn 0.609835 0.350021 -0.711046
vn 0.609835 0.350021 -0.711046
vn 0.609835 0.350021 -0.711046
vn -0.253489 -0.281690 0.925416
vn -0.253489 -0.281690 0.925416
vn -0.253489 -0.281690 0.925416
vn -0.253489 -0.281690 0.925416
vn 0.688462 0.725272 0.000000
vn 0.688462 0.725272 0.000000
vn 0.688462 0.725272 0.000000
vn 0.688462 0.725272 0.000000
vn -0.253489 -0.281690 -0.925416
vn -0.253489 -0.281690 -0.925416
vn -0.253489 -0.281690 -0.925416
vn -0.253489 -0.281690 -0.925416
vn 0.253489 -0.281690 0.925416
vn 0.253489 -0.281690 0.925416
vn 0.253489 -0.281690 0.925416
vn 0.253489 -0.281690 0.925416
vn -0.688462 0.725272 0.000000
vn -0.688462 0.725272 0.000000
vn -0.688462 0.725272 0.000000
vn -0.688462 0.725272 0.000000
vn 0.253489 -0.281690 -0.925416
vn 0.253489 -0.281690 -0.925416
vn 0.253489 -0.281690 -0.925416
vn 0.253489 -0.281690 -0.925416
vn -0.698923 0.706395 -0.111862
vn -0.698923 0.706395 -0.111862
vn -0.698923 0.706395 -0.111862
vn 0.698923 0.706395 0.111861
vn 0.698923 0.706395 0.111861
vn 0.698923 0.706395 0.111861
vn -0.707107 -0.707107 0.000000
vn -0.707107 -0.707107 0.000000
vn -0.707107 -0.707107 0.000000
vn -0.707107 -0.707107 0.000000
vn 0.707107 -0.707107 0.000000
vn 0.707107 -0.707107 0.000000
vn 0.707107 -0.707107 0.000000
vn 0.707107 -0.707107 0.000000
vn 0.045977 0.996489 -0.069968
vn 0.046002 0.996486 0.069997
vn 0.110474 0.993879 0.000000
vn 0.000000 -1.000000 0.000000
vn 0.000000 -1.000000 0.000000
vn 0.000000 -1.000000 0.000000
vn 0.000000 -1.000000 0.000000
vn 1.000000 -0.000000 0.000000
vn 1.000000 -0.000000 0.000000
vn 1.000000 -0.000000 0.000000
vn 1.000000 -0.000000 0.000000
vn -1.000000 -0.000000 0.000000
vn -1.000000 -0.000000 0.000000
vn -1.000000 -0.000000 0.000000
vn -1.000000 -0.000000 0.000000
vn 0.000000 -1.000000 0.000000
vn 0.000000 -1.000000 0.000000
vn 0.000000 -1.000000 0.000000
vn 0.000000 -1.000000 0.000000
vn 0.000000 1.000000 0.000000
vn 0.000000 1.000000 0.000000
vn 0.000000 1.000000 0.000000
vn 0.000000 1.000000 0.000000
vn -1.000000 0.000000 0.000000
vn -1.000000 0.000000 0.000000
vn -1.000000 0.000000 0.000000
vn -1.000000 0.000000 0.000000
vn 1.000000 0.000000 0.000000
vn 1.000000 0.000000 0.000000
vn 1.000000 0.000000 0.000000
vn 1.000000 0.000000 0.000000
vn 0.000000 0.376870 0.926266
vn 0.000000 0.376870 0.926266
vn 0.000000 0.376870 0.926266
vn 0.000000 0.376870 -0.926266
vn 0.000000 0.376870 -0.926266
vn 0.000000 0.376870 -0.926266
vn 0.000000 -0.371036 -0.928619
vn 0.000000 -0.371036 -0.928619
vn 0.000000 -0.371036 -0.928619
vn 0.000000 -0.371036 -0.928619
vn 0.000000 -0.371036 0.928619
vn 0.000000 -0.371036 0.928619
vn 0.000000 -0.371036 0.928619
vn 0.000000 -0.371036 0.928619
vn 0.535396 -0.170529 -0.827207
vn 0.535396 -0.170529 -0.827207
vn 0.535396 -0.170529 -0.827207
vn 0.535396 -0.170529 -0.827207
vn 0.535396 -0.170529 0.827207
vn 0.535396 -0.170529 0.827207
vn 0.535396 -0.170529 0.827207
vn 0.535396 -0.170529 0.827207
vn -0.535396 -0.170529 0.827207
vn -0.535396 -0.170529 0.827207
vn -0.535396 -0.170529 0.827207
vn -0.535396 -0.170529 0.827207
vn -0.535396 -0.170529 -0.827207
vn -0.535396 -0.170529 -0.827207
vn -0.535396 -0.170529 -0.827207
vn -0.535396 -0.170529 -0.827207
vn 0.369635 0.677728 0.635653
vn 0.369635 0.677728 0.635653
vn 0.369635 0.677728 0.635653
vn -0.369635 0.677728 0.635654
vn -0.369635 0.677728 0.635654
vn -0.369635 0.677728 0.635654
vn -0.369635 0.677728 -0.635653
vn -0.369635 0.677728 -0.635653
vn -0.369635 0.677728 -0.635653
vn 0.369635 0.677728 -0.635654
vn 0.369635 0.677728 -0.635654
vn 0.369635 0.677728 -0.635654
vn -0.698923 0.706395 0.111862
vn -0.698923 0.706395 0.111862
vn -0.698923 0.706395 0.111862
vn -0.776088 0.630625 0.000000
vn -0.776088 0.630625 0.000000
vn -0.776088 0.630625 0.000000
vn 0.698923 0.706395 -0.111861
vn 0.698923 0.706395 -0.111861
vn 0.698923 0.706395 -0.111861
vn 0.776088 0.630625 0.000000
vn 0.776088 0.630625 0.000000
vn 0.776088 0.630625 0.000000
vn 0.367853 0.682671 0.631383
vn 0.367853 0.682671 0.631383
vn 0.367853 0.682671 0.631383
vn 0.367853 0.682671 0.631383
vn 0.860723 0.473295 0.187476
vn 0.860723 0.473295 0.187476
vn 0.860723 0.473295 0.187476
vn 0.860723 0.473295 0.187476
vn -0.367853 0.682671 0.631383
vn -0.367853 0.682671 0.631383
vn -0.367853 0.682671 0.631383
vn -0.367853 0.682671 0.631383
vn -0.860723 0.473295 0.187476
vn -0.860723 0.473295 0.187476
vn -0.860723 0.473295 0.187476
vn -0.860723 0.473295 0.187476
vn 0.860723 0.473295 -0.187476
vn 0.860723 0.473295 -0.187476
vn 0.860723 0.473295 -0.187476
vn 0.860723 0.473295 -0.187476
vn 0.367853 0.682671 -0.631383
vn 0.367853 0.682671 -0.631383
vn 0.367853 0.682671 -0.631383
vn 0.367853 0.682671 -0.631383
vn -0.367853 0.682671 -0.631383
vn -0.367853 0.682671 -0.631383
vn -0.367853 0.682671 -0.631383
vn -0.367853 0.682671 -0.631383
vn -0.860723 0.473295 -0.187476
vn -0.860723 0.473295 -0.187476
vn -0.860723 0.473295 -0.187476
vn -0.860723 0.473295 -0.187476
vn -0.180660 0.958996 -0.218376
vn -0.046010 0.996483 -0.070027
vn -0.000032 0.982660 -0.185418
vn -0.180660 0.958996 -0.218376
vn -0.348563 0.933220 0.087204
vn -0.260471 0.961644 0.086001
vn -0.348563 0.933220 0.087204
vn -0.348563 0.933220 0.087204
vn 0.348563 0.933220 0.087204
vn 0.348563 0.933220 0.087204
vn 0.260607 0.961606 0.086010
vn 0.348563 0.933220 0.087204
vn 0.180660 0.958996 -0.218376
vn -0.000032 0.982660 -0.185418
vn 0.045977 0.996489 -0.069968
vn 0.180660 0.958996 -0.218376
vn -0.046009 0.996484 0.070022
vn -0.046010 0.996483 -0.070027
vn -0.110474 0.993879 0.000000
vn -0.348563 0.933220 -0.087204
vn -0.348563 0.933220 -0.087204
vn -0.260471 0.961644 -0.086002
vn -0.348563 0.933220 -0.087204
vn 0.348563 0.933220 -0.087204
vn 0.260607 0.961606 -0.086009
vn 0.348563 0.933220 -0.087204
vn 0.348563 0.933220 -0.087204
vn -0.180660 0.958996 0.218376
vn -0.180660 0.958996 0.218376
vn -0.000001 0.982656 0.185439
vn -0.046009 0.996484 0.070022
vn 0.180660 0.958996 0.218376
vn 0.046002 0.996486 0.069997
vn -0.000001 0.982656 0.185439
vn 0.180660 0.958996 0.218376
vn 0.125705 0.986494 0.105010
vn 0.125705 0.986494 0.105010
vn 0.125705 0.986494 0.105010
vn 0.125705 0.986494 0.105010
vn 0.312078 0.950055 -0.001762
vn 0.312078 0.950055 -0.001762
vn 0.312078 0.950055 -0.001762
vn 0.312078 0.950055 -0.001762
vn -0.125705 0.986494 0.105010
vn -0.125705 0.986494 0.105010
vn -0.125705 0.986494 0.105010
vn -0.125705 0.986494 0.105010
vn -0.312078 0.950055 -0.001762
vn -0.312078 0.950055 -0.001762
vn -0.312078 0.950055 -0.001762
vn -0.312078 0.950055 -0.001762
vn 0.312078 0.950055 0.001762
vn 0.312078 0.950055 0.001762
vn 0.312078 0.950055 0.001762
vn 0.312078 0.950055 0.001762
vn 0.125705 0.986494 -0.105010
vn 0.125705 0.986494 -0.105010
vn 0.125705 0.986494 -0.105010
vn 0.125705 0.986494 -0.105010
vn -0.125705 0.986494 -0.105010
vn -0.125705 0.986494 -0.105010
vn -0.125705 0.986494 -0.105010
vn -0.125705 0.986494 -0.105010
vn -0.312078 0.950055 0.001762
vn -0.312078 0.950055 0.001762
vn -0.312078 0.950055 0.001762
vn -0.312078 0.950055 0.001762
vn 0.045977 0.996489 -0.069968
vn -0.046010 0.996483 -0.070027
vn -0.046009 0.996484 0.070022
vn 0.046002 0.996486 0.069997
vn -0.046010 0.996483 -0.070027
vn 0.045977 0.996489 -0.069968
vn -0.000032 0.982660 -0.185418
vn -0.000001 0.982656 0.185439
vn 0.046002 0.996486 0.069997
vn -0.046009 0.996484 0.070022
s off
f 1/16/1 2/17/2 17/1/3 18/30/4
f 2/17/5 1/16/6 4/31/7 3/9/8
f 3/9/9 4/31/10 24/8/11 23/20/12
f 5/10/13 6/27/14 20/6/15 19/18/16
f 6/27/17 5/10/18 8/19/19 7/14/20
f 7/14/21 8/19/22 21/2/23 22/26/24
f 9/11/25 10/29/26 32/7/27 31/24/28
f 10/29/29 9/11/30 12/21/31 11/15/32
f 11/15/33 12/21/34 25/3/35 26/32/36
f 13/13/37 14/23/38 29/4/39 30/28/40
f 14/23/41 13/13/42 16/25/43 15/12/44
f 15/12/45 16/25/46 28/5/47 27/22/48
f 24/8/49 35/35/50 23/20/51
f 19/18/52 20/6/53 36/36/54
f 26/32/55 25/3/56 31/24/57 32/7/58
f 27/22/59 28/5/60 30/28/61 29/4/62
f 56/74/63 59/76/64 37/71/65
f 25/3/66 27/22/67 29/4/68 31/24/69
f 30/28/70 28/5/71 22/26/72 20/6/73
f 26/32/74 32/7/75 18/30/76 24/8/77
f 2/17/78 3/9/79 8/19/80 5/10/81
f 12/21/82 9/11/83 14/23/84 15/12/85
f 13/13/86 6/27/87 7/14/88 16/25/89
f 11/15/90 4/31/91 1/16/92 10/29/93
f 2/17/94 5/10/95 33/33/96
f 8/19/97 3/9/98 34/34/99
f 12/21/100 15/12/101 27/22/102 25/3/103
f 14/23/104 9/11/105 31/24/106 29/4/107
f 16/25/108 7/14/109 22/26/110 28/5/111
f 6/27/112 13/13/113 30/28/114 20/6/115
f 10/29/116 1/16/117 18/30/118 32/7/119
f 4/31/120 11/15/121 26/32/122 24/8/123
f 33/33/124 5/10/125 19/18/126
f 2/17/127 33/33/128 17/1/129
f 34/34/130 3/9/131 23/20/132
f 8/19/133 34/34/134 21/2/135
f 18/30/136 17/1/137 35/35/138
f 18/30/139 35/35/140 24/8/141
f 36/36/142 22/26/143 21/2/144
f 36/36/145 20/6/146 22/26/147
f 38/45/148 39/46/149 40/47/150 41/48/151
f 39/46/152 42/49/153 43/50/154 40/47/155
f 44/51/156 38/45/157 41/48/158 45/52/159
f 46/83/160 44/51/161 45/52/162 47/84/163
f 42/49/164 48/85/165 49/86/166 43/50/167
f 48/85/168 50/87/169 51/88/170 49/86/171
f 50/87/172 52/89/173 53/90/174 51/88/175
f 52/89/176 46/83/177 47/84/178 53/90/179
f 53/65/180 55/66/181 57/75/182 51/64/183
f 45/72/184 60/73/185 54/62/186 47/61/187
f 43/70/188 37/71/189 59/76/190 40/67/191
f 51/64/192 57/75/193 56/74/194 49/63/195
f 60/73/196 55/66/197 54/62/198
f 47/61/199 54/62/200 55/66/201 53/65/202
f 49/63/203 56/74/204 37/71/205 43/70/206
f 45/72/207 41/68/208 58/69/209 60/73/210
f 40/67/211 59/76/212 58/69/213 41/68/214
f 33/37/215 19/38/216 39/39/217 38/40/218
f 19/38/219 36/41/220 42/42/221 39/39/222
f 17/43/223 33/37/224 38/40/225 44/44/226
f 35/53/227 17/43/228 44/44/229 46/54/230
f 36/41/231 21/55/232 48/56/233 42/42/234
f 21/55/235 34/57/236 50/58/237 48/56/238
f 34/57/239 23/59/240 52/60/241 50/58/242
f 23/59/243 35/53/244 46/54/245 52/60/246
f 56/77/247 55/78/248 60/79/249 59/80/250
f 55/78/251 56/77/252 57/81/253
f 58/82/254 59/80/255 60/79/256
