# This file uses centimeters as units for non-parametric coordinates.

v 10.281250 -1.201042 -8.361145
v 3.377930 -1.201042 -12.824036
v -4.830078 -1.201042 -12.377014
v -11.207764 -1.201042 -7.190796
v -13.318848 -1.201042 0.753632
v -10.357422 -1.201042 8.421814
v -3.454102 -1.201042 12.884705
v 4.753906 -1.201042 12.437683
v 11.131592 -1.201042 7.251465
v 13.242676 -1.201042 -0.692963
v 12.198975 4.379815 -9.920685
v 4.012939 4.379815 -15.212982
v -5.720459 4.379815 -14.682892
v -13.283447 4.379815 -8.532837
v -15.787109 4.379815 0.888062
v -12.275146 4.379815 9.981354
v -4.089111 4.379815 15.273682
v 5.644287 4.379815 14.743561
v 13.207275 4.379815 8.593506
v 15.710938 4.379815 -0.827393
v 3.177002 3.142650 -16.513336
v -5.031006 3.142650 -16.066315
v -5.807617 4.039683 -16.280975
v 3.925781 4.039683 -16.811127
v -3.253174 3.142650 16.574036
v 4.954834 3.142650 16.127014
v 5.731445 4.039683 16.341675
v -4.001953 4.039683 16.871765
v -4.918213 2.677448 -13.998383
v 3.288818 2.692766 -14.462006
v -3.365234 2.672267 14.520386
v 4.841797 2.652895 14.052399
v 10.737061 4.379815 -8.731781
v 3.528809 4.379815 -13.391815
v -5.041748 4.379815 -12.925018
v -11.700928 4.379815 -7.509766
v -13.905518 4.379815 0.785583
v -10.813232 4.379815 8.792450
v -3.604980 4.379815 13.452484
v 4.965576 4.379815 12.985718
v 11.624756 4.379815 7.570435
v 13.829346 4.379815 -0.724915
v 9.188232 0.333723 -7.472382
v 3.016113 0.333723 -11.462616
v -4.322510 0.333723 -11.062927
v -10.024658 0.333723 -6.425995
v -11.912354 0.333723 0.677032
v -9.264404 0.333723 7.533051
v -3.092285 0.333723 11.523285
v 4.246338 0.333723 11.123596
v 9.948486 0.333723 6.486664
v 11.836182 0.333723 -0.616364
v -0.038086 -1.201042 0.030334
v 1.186768 2.769084 -17.953888
v -3.208740 2.769084 -17.714447
v -3.632568 3.666117 -17.972687
v 1.579834 3.666117 -18.256561
v -1.262939 2.769084 18.014526
v 3.132568 2.769084 17.775146
v 3.556396 3.666117 18.033356
v -1.656006 3.666117 18.317230
vt 0.281238 0.442698
vt 0.281392 0.442795
vt 0.295581 0.442660
vt 0.300826 0.442548
vt 0.291837 0.442700
vt 0.291884 0.442840
vt 0.291898 0.442833
vt 0.291841 0.442668
vt 0.281433 0.442937
vt 0.281331 0.443073
vt 0.295514 0.442986
vt 0.291833 0.442825
vt 0.281115 0.443142
vt 0.291446 0.443069
vt 0.280879 0.443109
vt 0.294956 0.443029
vt 0.280728 0.442991
vt 0.294773 0.442889
vt 0.290912 0.442912
vt 0.290908 0.442766
vt 0.290898 0.442734
vt 0.290903 0.442907
vt 0.280718 0.442844
vt 0.280836 0.442726
vt 0.292195 0.442580
vt 0.294765 0.442717
vt 0.281031 0.442673
vt 0.291343 0.442519
vt 0.291543 0.442685
vt 0.291681 0.442773
vt 0.291716 0.442900
vt 0.291624 0.443020
vt 0.291430 0.443080
vt 0.291219 0.443051
vt 0.291083 0.442947
vt 0.291072 0.442817
vt 0.291178 0.442711
vt 0.291355 0.442663
vt 0.291805 0.442851
vt 0.291761 0.442710
vt 0.290994 0.442911
vt 0.290987 0.442766
vt 0.291734 0.442672
vt 0.291570 0.442573
vt 0.291779 0.442819
vt 0.291671 0.442959
vt 0.291439 0.443031
vt 0.291184 0.442996
vt 0.291023 0.442874
vt 0.291013 0.442723
vt 0.291140 0.442602
vt 0.291348 0.442547
vt 0.281070 0.442899
vt 0.291837 0.442700
vt 0.291884 0.442840
vt 0.291898 0.442833
vt 0.291841 0.442668
vt 0.290912 0.442912
vt 0.290908 0.442766
vt 0.290898 0.442734
vt 0.290903 0.442907
vn 0.500339 -0.388207 -0.773922
vn 0.500339 -0.388207 -0.773922
vn 0.500339 -0.388207 -0.773922
vn 0.500339 -0.388207 -0.773922
vn -0.051899 -0.298794 -0.952906
vn -0.051899 -0.298794 -0.952906
vn -0.051899 -0.298794 -0.952906
vn -0.051899 -0.298794 -0.952906
vn -0.581430 -0.388208 -0.715007
vn -0.581430 -0.388208 -0.715007
vn -0.581430 -0.388208 -0.715007
vn -0.581430 -0.388208 -0.715007
vn -0.890657 -0.388209 -0.236696
vn -0.890657 -0.388209 -0.236696
vn -0.890657 -0.388209 -0.236696
vn -0.890657 -0.388209 -0.236696
vn -0.859683 -0.388208 0.332023
vn -0.859683 -0.388208 0.332023
vn -0.859683 -0.388208 0.332023
vn -0.859683 -0.388208 0.332023
vn -0.500339 -0.388208 0.773922
vn -0.500339 -0.388208 0.773922
vn -0.500339 -0.388208 0.773922
vn -0.500339 -0.388208 0.773922
vn 0.051897 -0.298793 0.952906
vn 0.051897 -0.298793 0.952906
vn 0.051897 -0.298793 0.952906
vn 0.051897 -0.298793 0.952906
vn 0.581430 -0.388208 0.715007
vn 0.581430 -0.388208 0.715007
vn 0.581430 -0.388208 0.715007
vn 0.581430 -0.388208 0.715007
vn 0.890657 -0.388208 0.236696
vn 0.890657 -0.388208 0.236696
vn 0.890657 -0.388208 0.236696
vn 0.890657 -0.388208 0.236696
vn 0.859683 -0.388209 -0.332023
vn 0.859683 -0.388209 -0.332023
vn 0.859683 -0.388209 -0.332023
vn 0.859683 -0.388209 -0.332023
vn -0.050709 -0.387210 -0.920596
vn -0.050709 -0.387210 -0.920596
vn -0.050709 -0.387210 -0.920596
vn -0.050709 -0.387210 -0.920596
vn -0.032772 -0.386124 -0.921865
vn -0.032772 -0.386124 -0.921865
vn -0.032772 -0.386124 -0.921865
vn -0.011305 0.978155 -0.207570
vn -0.011305 0.978155 -0.207570
vn -0.011305 0.978155 -0.207570
vn -0.011305 0.978155 -0.207570
vn -0.049892 -0.388233 -0.920210
vn -0.049892 -0.388233 -0.920210
vn -0.049892 -0.388233 -0.920210
vn 0.011444 -0.974077 0.225925
vn 0.011444 -0.974077 0.225925
vn 0.011444 -0.974077 0.225925
vn 0.011444 -0.974077 0.225925
vn 0.860449 -0.508867 -0.026131
vn 0.860449 -0.508867 -0.026131
vn 0.860449 -0.508867 -0.026131
vn 0.860449 -0.508867 -0.026131
vn 0.011305 0.978155 0.207570
vn 0.011305 0.978155 0.207570
vn 0.011305 0.978155 0.207570
vn 0.011305 0.978155 0.207570
vn -0.857195 -0.510885 0.064907
vn -0.857195 -0.510885 0.064907
vn -0.857195 -0.510885 0.064907
vn -0.857195 -0.510885 0.064907
vn -0.858780 -0.511504 0.029321
vn -0.858780 -0.511504 0.029321
vn -0.858780 -0.511504 0.029321
vn -0.858780 -0.511504 0.029321
vn -0.011087 -0.976271 -0.216269
vn -0.011087 -0.976271 -0.216269
vn -0.011087 -0.976271 -0.216269
vn -0.011087 -0.976271 -0.216269
vn 0.856070 -0.513122 -0.062055
vn 0.856070 -0.513122 -0.062055
vn 0.856070 -0.513122 -0.062055
vn 0.856070 -0.513122 -0.062055
vn 0.038814 -0.389493 0.920211
vn 0.038814 -0.389493 0.920211
vn 0.038814 -0.389493 0.920211
vn 0.050834 -0.388223 0.920163
vn 0.050834 -0.388223 0.920163
vn 0.050834 -0.388223 0.920163
vn 0.050834 -0.388223 0.920163
vn 0.039085 -0.386895 0.921295
vn 0.039085 -0.386895 0.921295
vn 0.039085 -0.386895 0.921295
vn 0.000000 1.000000 0.000000
vn 0.000000 1.000000 0.000000
vn 0.000000 1.000000 0.000000
vn 0.000000 1.000000 0.000000
vn -0.000000 1.000000 -0.000000
vn -0.000000 1.000000 -0.000000
vn -0.000000 1.000000 -0.000000
vn -0.000000 1.000000 -0.000000
vn -0.000000 1.000000 -0.000000
vn -0.000000 1.000000 -0.000000
vn -0.000000 1.000000 -0.000000
vn -0.000000 1.000000 -0.000000
vn 0.000000 1.000000 0.000000
vn 0.000000 1.000000 0.000000
vn 0.000000 1.000000 0.000000
vn 0.000000 1.000000 0.000000
vn 0.000000 1.000000 0.000000
vn 0.000000 1.000000 0.000000
vn 0.000000 1.000000 0.000000
vn 0.000000 1.000000 0.000000
vn -0.000000 1.000000 -0.000000
vn -0.000000 1.000000 -0.000000
vn -0.000000 1.000000 -0.000000
vn -0.000000 1.000000 -0.000000
vn 0.000000 1.000000 0.000000
vn 0.000000 1.000000 0.000000
vn 0.000000 1.000000 0.000000
vn 0.000000 1.000000 0.000000
vn 0.000000 1.000000 0.000000
vn 0.000000 1.000000 0.000000
vn 0.000000 1.000000 0.000000
vn 0.000000 1.000000 0.000000
vn 0.000000 1.000000 0.000000
vn 0.000000 1.000000 0.000000
vn 0.000000 1.000000 0.000000
vn 0.000000 1.000000 0.000000
vn -0.000000 1.000000 -0.000000
vn -0.000000 1.000000 -0.000000
vn -0.000000 1.000000 -0.000000
vn -0.000000 1.000000 -0.000000
vn -0.491504 0.424773 0.760257
vn -0.491504 0.424773 0.760257
vn -0.491504 0.424773 0.760257
vn -0.491504 0.424773 0.760257
vn 0.049232 0.424773 0.903960
vn 0.049232 0.424773 0.903960
vn 0.049232 0.424773 0.903960
vn 0.049232 0.424773 0.903960
vn 0.571163 0.424773 0.702382
vn 0.571163 0.424773 0.702382
vn 0.571163 0.424773 0.702382
vn 0.571163 0.424773 0.702382
vn 0.874931 0.424773 0.232517
vn 0.874931 0.424773 0.232517
vn 0.874931 0.424773 0.232517
vn 0.874931 0.424773 0.232517
vn 0.844504 0.424773 -0.326161
vn 0.844504 0.424773 -0.326161
vn 0.844504 0.424773 -0.326161
vn 0.844504 0.424773 -0.326161
vn 0.491504 0.424773 -0.760257
vn 0.491504 0.424773 -0.760257
vn 0.491504 0.424773 -0.760257
vn 0.491504 0.424773 -0.760257
vn -0.049232 0.424773 -0.903960
vn -0.049232 0.424773 -0.903960
vn -0.049232 0.424773 -0.903960
vn -0.049232 0.424773 -0.903960
vn -0.571163 0.424773 -0.702382
vn -0.571163 0.424773 -0.702382
vn -0.571163 0.424773 -0.702382
vn -0.571163 0.424773 -0.702382
vn -0.874931 0.424773 -0.232517
vn -0.874931 0.424773 -0.232517
vn -0.874931 0.424773 -0.232517
vn -0.874931 0.424773 -0.232517
vn -0.844504 0.424773 0.326161
vn -0.844504 0.424773 0.326161
vn -0.844504 0.424773 0.326161
vn -0.844504 0.424773 0.326161
vn 0.000000 -1.000000 0.000000
vn 0.000000 -1.000000 0.000000
vn 0.000000 -1.000000 0.000000
vn 0.000000 -1.000000 0.000000
vn 0.000000 -1.000000 0.000000
vn 0.000000 -1.000000 0.000000
vn 0.000000 -1.000000 0.000000
vn 0.000000 -1.000000 0.000000
vn 0.000000 -1.000000 0.000000
vn 0.000000 -1.000000 0.000000
vn 0.000000 -1.000000 0.000000
vn 0.000000 -1.000000 0.000000
vn 0.000000 -1.000000 0.000000
vn 0.000000 -1.000000 0.000000
vn 0.000000 -1.000000 0.000000
vn 0.000000 -1.000000 0.000000
vn 0.000000 -1.000000 0.000000
vn 0.000000 -1.000000 0.000000
vn 0.000000 -1.000000 0.000000
vn 0.000000 -1.000000 0.000000
vn 0.000000 -1.000000 0.000000
vn 0.000000 -1.000000 0.000000
vn 0.000000 -1.000000 0.000000
vn 0.000000 -1.000000 0.000000
vn 0.000000 -1.000000 0.000000
vn 0.000000 -1.000000 0.000000
vn 0.000000 -1.000000 0.000000
vn 0.000000 -1.000000 0.000000
vn 0.000000 -1.000000 0.000000
vn 0.000000 -1.000000 0.000000
vn 0.012768 -0.972047 0.234439
vn 0.012768 -0.972047 0.234439
vn 0.012768 -0.972047 0.234439
vn 0.012768 -0.972047 0.234439
vn -0.593150 -0.551471 -0.586560
vn -0.593150 -0.551471 -0.586560
vn -0.593150 -0.551471 -0.586560
vn -0.593150 -0.551471 -0.586560
vn -0.012582 0.972870 -0.231011
vn -0.012582 0.972870 -0.231011
vn -0.012582 0.972870 -0.231011
vn -0.012582 0.972870 -0.231011
vn 0.525941 -0.551470 -0.647509
vn 0.525941 -0.551470 -0.647509
vn 0.525941 -0.551470 -0.647509
vn 0.525941 -0.551470 -0.647509
vn -0.012768 -0.972047 -0.234439
vn -0.012768 -0.972047 -0.234439
vn -0.012768 -0.972047 -0.234439
vn -0.012768 -0.972047 -0.234439
vn 0.593151 -0.551470 0.586561
vn 0.593151 -0.551470 0.586561
vn 0.593151 -0.551470 0.586561
vn 0.593151 -0.551470 0.586561
vn 0.012581 0.972870 0.231011
vn 0.012581 0.972870 0.231011
vn 0.012581 0.972870 0.231011
vn 0.012581 0.972870 0.231011
vn -0.525941 -0.551470 0.647509
vn -0.525941 -0.551470 0.647509
vn -0.525941 -0.551470 0.647509
vn -0.525941 -0.551470 0.647509
vn 0.000000 1.000000 -0.000000
vn 0.000000 1.000000 -0.000000
vn 0.000000 1.000000 -0.000000
vn 0.000000 1.000000 -0.000000
vn 0.000000 1.000000 -0.000000
vn 0.000000 1.000000 -0.000000
vn 0.000000 1.000000 -0.000000
vn 0.000000 1.000000 -0.000000
vn 0.000000 1.000000 -0.000000
vn 0.000000 1.000000 -0.000000
vn 0.000000 1.000000 -0.000000
vn 0.000000 1.000000 -0.000000
s off
f 1/1/1 2/2/2 12/3/3 11/4/4
f 54/54/5 55/55/6 56/56/7 57/57/8
f 3/9/9 4/10/10 14/11/11 13/12/12
f 4/10/13 5/13/14 15/14/15 14/11/16
f 5/13/17 6/15/18 16/16/19 15/14/20
f 6/15/21 7/17/22 17/18/23 16/16/24
f 58/58/25 59/59/26 60/60/27 61/61/28
f 8/23/29 9/24/30 19/25/31 18/26/32
f 9/24/33 10/27/34 20/28/35 19/25/36
f 10/27/37 1/1/38 11/4/39 20/28/40
f 2/2/41 3/9/42 29/39/43 30/40/44
f 3/9/45 13/12/46 29/39/47
f 13/12/48 12/3/49 24/8/50 23/7/51
f 12/3/52 2/2/53 30/40/54
f 31/41/55 32/42/56 26/20/57 25/19/58
f 32/42/59 18/26/60 27/21/61 26/20/62
f 18/26/63 17/18/64 28/22/65 27/21/66
f 17/18/67 31/41/68 25/19/69 28/22/70
f 29/39/71 13/12/72 23/7/73 22/6/74
f 30/40/75 29/39/76 22/6/77 21/5/78
f 12/3/79 30/40/80 21/5/81 24/8/82
f 17/18/83 7/17/84 31/41/85
f 7/17/86 8/23/87 32/42/88 31/41/89
f 8/23/90 18/26/91 32/42/92
f 11/4/93 12/3/94 34/43/95 33/44/96
f 12/3/97 13/12/98 35/45/99 34/43/100
f 13/12/101 14/11/102 36/46/103 35/45/104
f 14/11/105 15/14/106 37/47/107 36/46/108
f 15/14/109 16/16/110 38/48/111 37/47/112
f 16/16/113 17/18/114 39/49/115 38/48/116
f 17/18/117 18/26/118 40/50/119 39/49/120
f 18/26/121 19/25/122 41/51/123 40/50/124
f 19/25/125 20/28/126 42/52/127 41/51/128
f 20/28/129 11/4/130 33/44/131 42/52/132
f 33/44/133 34/43/134 44/30/135 43/29/136
f 34/43/137 35/45/138 45/31/139 44/30/140
f 35/45/141 36/46/142 46/32/143 45/31/144
f 36/46/145 37/47/146 47/33/147 46/32/148
f 37/47/149 38/48/150 48/34/151 47/33/152
f 38/48/153 39/49/154 49/35/155 48/34/156
f 39/49/157 40/50/158 50/36/159 49/35/160
f 40/50/161 41/51/162 51/37/163 50/36/164
f 41/51/165 42/52/166 52/38/167 51/37/168
f 42/52/169 33/44/170 43/29/171 52/38/172
f 1/1/173 10/27/174 53/53/175
f 10/27/176 9/24/177 53/53/178
f 9/24/179 8/23/180 53/53/181
f 8/23/182 7/17/183 53/53/184
f 7/17/185 6/15/186 53/53/187
f 6/15/188 5/13/189 53/53/190
f 5/13/191 4/10/192 53/53/193
f 4/10/194 3/9/195 53/53/196
f 3/9/197 2/2/198 53/53/199
f 2/2/200 1/1/201 53/53/202
f 21/5/203 22/6/204 55/55/205 54/54/206
f 22/6/207 23/7/208 56/56/209 55/55/210
f 23/7/211 24/8/212 57/57/213 56/56/214
f 24/8/215 21/5/216 54/54/217 57/57/218
f 25/19/219 26/20/220 59/59/221 58/58/222
f 26/20/223 27/21/224 60/60/225 59/59/226
f 27/21/227 28/22/228 61/61/229 60/60/230
f 28/22/231 25/19/232 58/58/233 61/61/234
f 52/38/235 47/33/236 48/34/237 49/35/238 50/36/239 51/37/240
f 44/30/241 45/31/242 46/32/243 47/33/244 52/38/245 43/29/246
