# This file uses centimeters as units for non-parametric coordinates.

v 5.461003 0.000000 -9.458708
v -5.461003 0.000000 -9.458708
v -10.921949 0.000000 -0.000012
v -5.461003 0.000000 9.458686
v 5.461003 0.000000 9.458686
v 10.922007 0.000000 -0.000012
v 0.000000 0.000000 -0.000012
v -3.925138 17.607096 6.798535
v 3.925138 17.607096 6.798535
v 7.850276 17.607096 0.000000
v 3.925138 17.607096 -6.798502
v -3.925138 17.607096 -6.798502
v -7.850276 17.607096 0.000000
v -6.723088 1.550255 11.644711
v 6.723088 1.550255 11.644711
v 13.446177 1.550255 -0.000012
v 6.723088 1.550255 -11.644678
v -6.723088 1.550255 -11.644678
v -13.446177 1.550255 -0.000012
v -1.455120 34.215706 -2.520440
v 1.455154 34.215706 -2.520440
v 2.910345 34.215706 0.000001
v 1.455154 34.215706 2.520443
v -1.455120 34.215706 2.520443
v -2.910311 34.215706 0.000001
v 1.520772 29.163677 -2.633981
v 2.401850 24.395590 -4.160046
v -1.520713 29.163677 -2.633981
v -2.401801 24.395596 -4.160040
v -3.041464 29.163677 0.000001
v -4.803625 24.395597 0.000000
v -1.520738 29.163675 2.634009
v -2.401827 24.395592 4.160079
v 1.520772 29.163677 2.634009
v 2.401850 24.395590 4.160080
v 3.041498 29.163675 0.000001
v 4.803652 24.395592 0.000000
v 13.818911 8.822104 -0.000013
v 6.909455 8.822104 -11.967474
v -6.909455 8.822104 -11.967474
v -13.818911 8.822104 -0.000013
v -6.909455 8.822104 11.967508
v 6.909455 8.822104 11.967508
v -1.957072 34.600555 -3.389870
v 1.957105 34.600555 -3.389870
v -3.914234 34.600555 0.000001
v -1.957072 34.600555 3.389873
v 1.957105 34.600555 3.389873
v 3.914268 34.600555 0.000001
v -1.868697 37.122547 -3.236797
v 1.868731 37.122547 -3.236797
v -3.737481 37.122547 0.000001
v -1.868697 37.122547 3.236800
v 1.868731 37.122547 3.236800
v 3.737515 37.122547 0.000001
v 0.000017 37.122547 0.000002
v 0.604356 34.953781 -1.459041
v 1.459046 34.953781 -0.604352
v 1.459046 34.953781 0.604360
v 0.604356 34.953781 1.459049
v -0.604356 34.953781 1.459049
v -1.459044 34.953781 0.604360
v -1.459044 34.953781 -0.604352
v -0.604356 34.953781 -1.459041
v 0.855200 38.772491 -2.500494
v 2.423489 38.752750 -1.003837
v 2.352368 38.421616 0.873721
v 1.003841 38.752750 2.423493
v -1.003841 38.752750 2.423493
v 0.190321 38.752750 0.856880
v -2.423488 38.752750 -1.003837
v -1.254925 38.355232 -2.091002
v -2.065232 37.719116 0.842673
v -1.997669 38.752750 1.429665
v -2.423488 38.752750 0.622047
vt 0.102685 0.377068
vt 0.102685 0.377068
vt 0.102685 0.377068
vt 0.102685 0.377068
vt 0.102685 0.377068
vt 0.102685 0.377068
vt 0.102685 0.377068
vt 0.122893 0.203486
vt 0.122893 0.203485
vt 0.122893 0.203485
vt 0.122893 0.203485
vt 0.122893 0.203485
vt 0.122893 0.203485
vt 0.122893 0.203485
vt 0.122893 0.203485
vt 0.122893 0.203485
vt 0.122893 0.203485
vt 0.122893 0.203485
vt 0.122893 0.203485
vt 0.122893 0.203485
vt 0.122893 0.203485
vt 0.122893 0.203485
vt 0.122893 0.203485
vt 0.122893 0.203485
vt 0.122893 0.203485
vt 0.122893 0.203486
vt 0.122893 0.203486
vt 0.122893 0.203485
vt 0.122893 0.203485
vt 0.122893 0.203485
vt 0.122893 0.203485
vt 0.122893 0.203486
vt 0.122893 0.203486
vt 0.122893 0.203485
vt 0.122893 0.203485
vt 0.122893 0.203485
vt 0.122893 0.203485
vt 0.122893 0.203485
vt 0.122893 0.203485
vt 0.122893 0.203485
vt 0.122893 0.203486
vt 0.122893 0.203485
vt 0.122893 0.203485
vt 0.122893 0.203485
vt 0.122893 0.203485
vt 0.122893 0.203485
vt 0.122761 0.203509
vt 0.122940 0.203542
vt 0.122709 0.203451
vt 0.122844 0.203427
vt 0.123030 0.203463
vt 0.123075 0.203521
vt 0.122534 0.203594
vt 0.123013 0.203684
vt 0.122390 0.203441
vt 0.122752 0.203376
vt 0.123258 0.203473
vt 0.123375 0.203628
vt 0.122508 0.203903
vt 0.122970 0.203987
vt 0.122370 0.203765
vt 0.122717 0.203711
vt 0.123204 0.203802
vt 0.123318 0.203940
vt 0.122848 0.203853
vt 0.038235 0.300064
vt 0.038397 0.300070
vt 0.038481 0.299326
vt 0.038187 0.299317
vt 0.038114 0.300130
vt 0.037962 0.299417
vt 0.038103 0.300231
vt 0.037936 0.299578
vt 0.038216 0.300311
vt 0.038144 0.299708
vt 0.038426 0.300031
vt 0.038372 0.299715
vt 0.038203 0.299542
vt 0.038513 0.299696
vt 0.038510 0.300144
vt 0.038508 0.300246
vt 0.038697 0.299602
vt 0.038692 0.299439
vt 0.038386 0.300317
vn 0.000000 -1.000000 0.000000
vn 0.000000 -1.000000 0.000000
vn 0.000000 -1.000000 0.000000
vn 0.000000 -1.000000 0.000000
vn 0.000000 -1.000000 0.000000
vn 0.000000 -1.000000 0.000000
vn 0.000000 -1.000000 -0.000000
vn 0.000000 -1.000000 -0.000000
vn 0.000000 -1.000000 -0.000000
vn 0.000000 -1.000000 0.000000
vn 0.000000 -1.000000 0.000000
vn 0.000000 -1.000000 0.000000
vn 0.000000 -1.000000 0.000000
vn 0.000000 -1.000000 0.000000
vn 0.000000 -1.000000 0.000000
vn 0.000000 -1.000000 0.000000
vn 0.000000 -1.000000 0.000000
vn 0.000000 -1.000000 0.000000
vn 0.000000 0.507117 -0.861877
vn 0.000000 0.507117 -0.861877
vn 0.000000 0.507117 -0.861877
vn 0.000000 0.507117 -0.861877
vn 0.000000 -0.815704 0.578469
vn 0.000000 -0.815704 0.578469
vn 0.000000 -0.815704 0.578469
vn 0.000000 -0.815704 0.578469
vn 0.500972 -0.815701 0.289237
vn 0.500972 -0.815701 0.289237
vn 0.500972 -0.815701 0.289237
vn 0.500972 -0.815701 0.289237
vn 0.500974 -0.815700 -0.289239
vn 0.500974 -0.815700 -0.289239
vn 0.500974 -0.815700 -0.289239
vn 0.500974 -0.815700 -0.289239
vn 0.000000 -0.815697 -0.578479
vn 0.000000 -0.815697 -0.578479
vn 0.000000 -0.815697 -0.578479
vn 0.000000 -0.815697 -0.578479
vn -0.500971 -0.815703 -0.289236
vn -0.500971 -0.815703 -0.289236
vn -0.500971 -0.815703 -0.289236
vn -0.500971 -0.815703 -0.289236
vn -0.500969 -0.815704 0.289234
vn -0.500969 -0.815704 0.289234
vn -0.500969 -0.815704 0.289234
vn -0.500969 -0.815704 0.289234
vn 0.000000 0.507117 0.861877
vn 0.000000 0.507117 0.861877
vn 0.000000 0.507117 0.861877
vn 0.000000 0.507117 0.861877
vn 0.746407 0.507118 0.430939
vn 0.746407 0.507118 0.430939
vn 0.746407 0.507118 0.430939
vn 0.746407 0.507118 0.430939
vn 0.746406 0.507118 -0.430940
vn 0.746406 0.507118 -0.430940
vn 0.746406 0.507118 -0.430940
vn 0.746406 0.507118 -0.430940
vn -0.746406 0.507118 -0.430940
vn -0.746406 0.507118 -0.430940
vn -0.746406 0.507118 -0.430940
vn -0.746406 0.507118 -0.430940
vn -0.746407 0.507118 0.430939
vn -0.746407 0.507118 0.430939
vn -0.746407 0.507118 0.430939
vn -0.746407 0.507118 0.430939
vn -0.000000 0.304826 -0.952408
vn -0.000000 0.304826 -0.952408
vn -0.000000 0.304826 -0.952408
vn -0.000000 0.304826 -0.952408
vn 0.824810 0.304827 -0.476203
vn 0.824810 0.304827 -0.476203
vn 0.824810 0.304827 -0.476203
vn 0.824810 0.304827 -0.476203
vn -0.824807 0.304828 -0.476208
vn -0.824807 0.304828 -0.476208
vn -0.824807 0.304828 -0.476208
vn -0.824807 0.304828 -0.476208
vn -0.824811 0.304829 0.476200
vn -0.824811 0.304829 0.476200
vn -0.824811 0.304829 0.476200
vn -0.824811 0.304829 0.476200
vn -0.000000 0.304827 0.952408
vn -0.000000 0.304827 0.952408
vn -0.000000 0.304827 0.952408
vn -0.000000 0.304827 0.952408
vn 0.824811 0.304827 0.476200
vn 0.824811 0.304827 0.476200
vn 0.824811 0.304827 0.476200
vn 0.824811 0.304827 0.476200
vn 0.000000 0.022469 -0.999748
vn 0.000000 0.022469 -0.999748
vn 0.000000 0.022469 -0.999748
vn 0.000000 0.022469 -0.999748
vn -0.865804 0.022476 -0.499878
vn -0.865804 0.022476 -0.499878
vn -0.865804 0.022476 -0.499878
vn -0.865804 0.022476 -0.499878
vn -0.865807 0.022480 0.499873
vn -0.865807 0.022480 0.499873
vn -0.865807 0.022480 0.499873
vn -0.865807 0.022480 0.499873
vn 0.000000 0.022474 0.999747
vn 0.000000 0.022474 0.999747
vn 0.000000 0.022474 0.999747
vn 0.000000 0.022474 0.999747
vn 0.865807 0.022480 0.499873
vn 0.865807 0.022480 0.499873
vn 0.865807 0.022480 0.499873
vn 0.865807 0.022480 0.499873
vn 0.865806 0.022478 -0.499875
vn 0.865806 0.022478 -0.499875
vn 0.865806 0.022478 -0.499875
vn 0.865806 0.022478 -0.499875
vn 0.000000 0.362266 0.932075
vn 0.000000 0.362266 0.932075
vn 0.000000 0.362266 0.932075
vn 0.000000 0.362266 0.932075
vn 0.807202 0.362264 0.466037
vn 0.807202 0.362264 0.466037
vn 0.807202 0.362264 0.466037
vn 0.807202 0.362264 0.466037
vn 0.807200 0.362264 -0.466039
vn 0.807200 0.362264 -0.466039
vn 0.807200 0.362264 -0.466039
vn 0.807200 0.362264 -0.466039
vn -0.000000 0.362266 -0.932075
vn -0.000000 0.362266 -0.932075
vn -0.000000 0.362266 -0.932075
vn -0.000000 0.362266 -0.932075
vn -0.807198 0.362268 -0.466039
vn -0.807198 0.362268 -0.466039
vn -0.807198 0.362268 -0.466039
vn -0.807198 0.362268 -0.466039
vn -0.807201 0.362267 0.466036
vn -0.807201 0.362267 0.466036
vn -0.807201 0.362267 0.466036
vn -0.807201 0.362267 0.466036
vn 0.865172 -0.044346 -0.499510
vn 0.865172 -0.044346 -0.499510
vn 0.865172 -0.044346 -0.499510
vn 0.865172 -0.044346 -0.499510
vn 0.000000 -0.044346 -0.999016
vn 0.000000 -0.044346 -0.999016
vn 0.000000 -0.044346 -0.999016
vn 0.000000 -0.044346 -0.999016
vn -0.865172 -0.044346 -0.499510
vn -0.865172 -0.044346 -0.499510
vn -0.865172 -0.044346 -0.499510
vn -0.865172 -0.044346 -0.499510
vn -0.865173 -0.044346 0.499508
vn -0.865173 -0.044346 0.499508
vn -0.865173 -0.044346 0.499508
vn -0.865173 -0.044346 0.499508
vn 0.000000 -0.044346 0.999016
vn 0.000000 -0.044346 0.999016
vn 0.000000 -0.044346 0.999016
vn 0.000000 -0.044346 0.999016
vn 0.865173 -0.044346 0.499508
vn 0.865173 -0.044346 0.499508
vn 0.865173 -0.044346 0.499508
vn 0.865173 -0.044346 0.499508
vn 0.000000 -0.914421 -0.404764
vn 0.000000 -0.914421 -0.404764
vn 0.000000 -0.914421 -0.404764
vn 0.000000 -0.914421 -0.404764
vn -0.350539 -0.914419 -0.202385
vn -0.350539 -0.914419 -0.202385
vn -0.350539 -0.914419 -0.202385
vn -0.350539 -0.914419 -0.202385
vn -0.350539 -0.914419 0.202385
vn -0.350539 -0.914419 0.202385
vn -0.350539 -0.914419 0.202385
vn -0.350539 -0.914419 0.202385
vn 0.000000 -0.914421 0.404764
vn 0.000000 -0.914421 0.404764
vn 0.000000 -0.914421 0.404764
vn 0.000000 -0.914421 0.404764
vn 0.350539 -0.914420 0.202385
vn 0.350539 -0.914420 0.202385
vn 0.350539 -0.914420 0.202385
vn 0.350539 -0.914420 0.202385
vn 0.350539 -0.914419 -0.202385
vn 0.350539 -0.914419 -0.202385
vn 0.350539 -0.914419 -0.202385
vn 0.350539 -0.914419 -0.202385
vn 0.000000 0.060584 -0.998163
vn 0.000000 0.060584 -0.998163
vn 0.000000 0.060584 -0.998163
vn 0.000000 0.060584 -0.998163
vn -0.864433 0.060583 -0.499085
vn -0.864433 0.060583 -0.499085
vn -0.864433 0.060583 -0.499085
vn -0.864433 0.060583 -0.499085
vn -0.864433 0.060583 0.499085
vn -0.864433 0.060583 0.499085
vn -0.864433 0.060583 0.499085
vn -0.864433 0.060583 0.499085
vn 0.000000 0.060584 0.998163
vn 0.000000 0.060584 0.998163
vn 0.000000 0.060584 0.998163
vn 0.000000 0.060584 0.998163
vn 0.864432 0.060583 0.499085
vn 0.864432 0.060583 0.499085
vn 0.864432 0.060583 0.499085
vn 0.864432 0.060583 0.499085
vn 0.864432 0.060583 -0.499085
vn 0.864432 0.060583 -0.499085
vn 0.864432 0.060583 -0.499085
vn 0.864432 0.060583 -0.499085
vn 0.000000 1.000000 0.000000
vn 0.000000 1.000000 0.000000
vn 0.000000 1.000000 0.000000
vn 0.000000 1.000000 0.000000
vn 0.000000 1.000000 0.000000
vn 0.000000 1.000000 0.000000
vn 0.000000 1.000000 0.000000
vn 0.000000 1.000000 0.000000
vn 0.000000 1.000000 0.000000
vn 0.000000 1.000000 0.000000
vn 0.000000 1.000000 0.000000
vn 0.000000 1.000000 0.000000
vn 0.000000 1.000000 0.000000
vn 0.000000 1.000000 0.000000
vn 0.000000 1.000000 0.000000
vn 0.000000 1.000000 0.000000
vn 0.000000 1.000000 0.000000
vn 0.000000 1.000000 0.000000
vn 0.675114 -0.239678 -0.697693
vn 0.675114 -0.239678 -0.697693
vn 0.675114 -0.239678 -0.697693
vn 0.675114 -0.239678 -0.697693
vn 0.968814 -0.247754 -0.004256
vn 0.968814 -0.247754 -0.004256
vn 0.968814 -0.247754 -0.004256
vn 0.968814 -0.247754 -0.004256
vn 0.699352 -0.238805 0.673705
vn 0.699352 -0.238805 0.673705
vn 0.699352 -0.238805 0.673705
vn 0.699352 -0.238805 0.673705
vn 0.000000 -0.246064 0.969254
vn 0.000000 -0.246064 0.969254
vn 0.000000 -0.246064 0.969254
vn 0.000000 -0.246064 0.969254
vn -0.220403 0.492526 -0.841927
vn -0.220403 0.492526 -0.841927
vn -0.220403 0.492526 -0.841927
vn -0.088043 0.178655 0.979965
vn -0.088043 0.178655 0.979965
vn -0.088043 0.178655 0.979965
vn -0.695383 -0.252358 -0.672873
vn -0.695383 -0.252358 -0.672873
vn -0.695383 -0.252358 -0.672873
vn -0.695383 -0.252358 -0.672873
vn -0.090697 -0.229617 -0.969046
vn -0.090697 -0.229617 -0.969046
vn -0.090697 -0.229617 -0.969046
vn -0.090697 -0.229617 -0.969046
vn -0.709064 -0.244238 0.661495
vn -0.709064 -0.244238 0.661495
vn -0.709064 -0.244238 0.661495
vn -0.709064 -0.244238 0.661495
vn -0.709064 -0.244238 0.661495
vn -0.200199 0.979169 -0.033889
vn -0.200199 0.979169 -0.033889
vn -0.200199 0.979169 -0.033889
vn -0.968773 -0.246084 0.030345
vn -0.968773 -0.246084 0.030345
vn -0.968773 -0.246084 0.030345
vn -0.968773 -0.246084 0.030345
vn -0.968773 -0.246084 0.030345
vn 0.000000 1.000000 0.000003
vn 0.000000 1.000000 0.000003
vn 0.000000 1.000000 0.000003
vn 0.000000 1.000000 0.000003
vn 0.147648 0.973036 0.177204
vn 0.147648 0.973036 0.177204
vn 0.147648 0.973036 0.177204
vn 0.142914 0.969161 -0.200755
vn 0.142914 0.969161 -0.200755
vn 0.142914 0.969161 -0.200755
vn 0.151522 0.985317 -0.078686
vn 0.151522 0.985317 -0.078686
vn 0.151522 0.985317 -0.078686
vn 0.000000 1.000000 0.000000
vn 0.000000 1.000000 0.000000
vn 0.000000 1.000000 0.000000
vn 0.005867 0.999958 0.007041
vn 0.005867 0.999958 0.007041
vn 0.005867 0.999958 0.007041
vn 0.000000 -1.000000 0.000000
vn 0.000000 -1.000000 0.000000
vn 0.000000 -1.000000 0.000000
vn 0.000000 -1.000000 0.000000
vn 0.000000 -1.000000 0.000000
vn 0.000000 -1.000000 0.000000
vn 0.000000 -1.000000 0.000000
vn 0.000000 -1.000000 0.000000
vn 0.000000 -1.000000 0.000000
vn 0.000000 -1.000000 0.000000
vn 0.000000 -1.000000 0.000000
vn 0.000000 -1.000000 0.000000
vn 0.000000 -1.000000 0.000000
vn 0.000000 -1.000000 0.000000
vn 0.000000 -1.000000 0.000000
vn 0.000000 -1.000000 0.000000
vn 0.000000 -1.000000 0.000000
vn 0.000000 -1.000000 0.000000
s off
f 2/1/1 1/2/2 7/3/3
f 3/4/4 2/1/5 7/3/6
f 4/5/7 3/4/8 7/3/9
f 5/6/10 4/5/11 7/3/12
f 6/7/13 5/6/14 7/3/15
f 1/2/16 6/7/17 7/3/18
f 39/8/19 40/9/20 12/10/21 11/11/22
f 4/12/23 5/13/24 15/14/25 14/15/26
f 5/13/27 6/16/28 16/17/29 15/14/30
f 6/16/31 1/18/32 17/19/33 16/17/34
f 1/20/35 2/21/36 18/22/37 17/23/38
f 2/21/39 3/24/40 19/25/41 18/22/42
f 3/24/43 4/12/44 14/15/45 19/25/46
f 42/26/47 43/27/48 9/28/49 8/29/50
f 43/27/51 38/30/52 10/31/53 9/28/54
f 10/31/55 38/30/56 39/32/57 11/11/58
f 40/9/59 41/33/60 13/34/61 12/10/62
f 13/34/63 41/33/64 42/26/65 8/29/66
f 26/35/67 27/36/68 29/37/69 28/38/70
f 27/36/71 26/35/72 36/39/73 37/40/74
f 28/38/75 29/37/76 31/41/77 30/42/78
f 30/42/79 31/41/80 33/43/81 32/44/82
f 32/44/83 33/43/84 35/45/85 34/46/86
f 34/46/87 35/45/88 37/40/89 36/39/90
f 28/38/91 20/47/92 21/48/93 26/35/94
f 25/49/95 20/47/96 28/38/97 30/42/98
f 24/50/99 25/49/100 30/42/101 32/44/102
f 23/51/103 24/50/104 32/44/105 34/46/106
f 22/52/107 23/51/108 34/46/109 36/39/110
f 21/48/111 22/52/112 36/39/113 26/35/114
f 8/29/115 9/28/116 35/45/117 33/43/118
f 9/28/119 10/31/120 37/40/121 35/45/122
f 10/31/123 11/11/124 27/36/125 37/40/126
f 11/11/127 12/10/128 29/37/129 27/36/130
f 12/10/131 13/34/132 31/41/133 29/37/134
f 13/34/135 8/29/136 33/43/137 31/41/138
f 39/32/139 38/30/140 16/17/141 17/19/142
f 17/23/143 18/22/144 40/9/145 39/8/146
f 19/25/147 41/33/148 40/9/149 18/22/150
f 42/26/151 41/33/152 19/25/153 14/15/154
f 14/15/155 15/14/156 43/27/157 42/26/158
f 16/17/159 38/30/160 43/27/161 15/14/162
f 21/48/163 20/47/164 44/53/165 45/54/166
f 20/47/167 25/49/168 46/55/169 44/53/170
f 25/49/171 24/50/172 47/56/173 46/55/174
f 24/50/175 23/51/176 48/57/177 47/56/178
f 23/51/179 22/52/180 49/58/181 48/57/182
f 22/52/183 21/48/184 45/54/185 49/58/186
f 45/54/187 44/53/188 50/59/189 51/60/190
f 44/53/191 46/55/192 52/61/193 50/59/194
f 46/55/195 47/56/196 53/62/197 52/61/198
f 47/56/199 48/57/200 54/63/201 53/62/202
f 48/57/203 49/58/204 55/64/205 54/63/206
f 49/58/207 45/54/208 51/60/209 55/64/210
f 51/60/211 50/59/212 56/65/213
f 50/59/214 52/61/215 56/65/216
f 52/61/217 53/62/218 56/65/219
f 53/62/220 54/63/221 56/65/222
f 54/63/223 55/64/224 56/65/225
f 55/64/226 51/60/227 56/65/228
f 58/66/229 57/67/230 65/68/231 66/69/232
f 59/70/233 58/66/234 66/69/235 67/71/236
f 60/72/237 59/70/238 67/71/239 68/73/240
f 61/74/241 60/72/242 68/73/243 69/75/244
f 73/76/245 74/77/246 70/78/247
f 75/79/248 73/76/249 70/78/250
f 64/80/251 63/81/252 71/82/253 72/83/254
f 57/67/255 64/80/256 72/83/257 65/68/258
f 62/84/259 61/74/260 69/75/261 74/77/262 73/76/263
f 70/78/264 65/68/265 72/83/266
f 63/81/267 62/84/268 73/76/269 75/79/270 71/82/271
f 69/75/272 68/73/273 70/78/274 74/77/275
f 70/78/276 67/71/277 66/69/278
f 70/78/279 72/83/280 71/82/281
f 70/78/282 68/73/283 67/71/284
f 70/78/285 71/82/286 75/79/287
f 70/78/288 66/69/289 65/68/290
f 58/66/291 59/70/292 57/67/293
f 59/70/294 60/72/295 57/67/296
f 60/72/297 61/74/298 57/67/299
f 61/74/300 62/84/301 57/67/302
f 62/84/303 63/81/304 57/67/305
f 63/81/306 64/80/307 57/67/308
