# This file uses centimeters as units for non-parametric coordinates.

v -27.111084 25.796299 -7.515472
v -27.111084 25.796299 7.510681
v -23.932129 27.618469 -6.624207
v -23.932129 27.618469 6.619385
v -13.544434 18.687834 -12.900208
v -15.317383 22.935951 -11.369843
v -13.544434 18.687834 12.900208
v -15.317383 22.935951 11.369843
v -22.605469 23.435507 -9.657227
v -20.769287 25.899334 -8.640961
v -22.727783 23.499641 9.618103
v -20.877441 25.958197 8.593201
v -26.396729 24.246326 -6.614441
v -26.396729 24.246378 6.615112
v -23.217529 26.068541 5.723816
v -23.217773 26.068497 -5.723145
v -20.471191 25.127342 -7.143890
v -22.307373 22.663513 -8.160156
v -22.429443 22.722788 8.123352
v -20.579102 25.181343 7.098450
v -16.633301 23.176043 -9.011810
v -15.941650 19.462502 -10.388184
v -16.246582 19.612213 10.284454
v -16.829102 23.272415 8.920135
v 27.111084 25.796299 7.515472
v 27.111084 25.796299 -7.510681
v 23.932129 27.618469 6.624207
v 23.932129 27.618469 -6.619385
v 13.544434 18.687834 12.900208
v 15.317383 22.935951 11.369843
v 13.544434 18.687834 -12.900208
v 15.317383 22.935951 -11.369843
v 22.605469 23.435507 9.657227
v 20.769287 25.899334 8.640961
v 22.727783 23.499641 -9.618103
v 20.877441 25.958197 -8.593201
v 26.396729 24.246326 6.614441
v 26.396729 24.246378 -6.615112
v 23.217529 26.068541 -5.723816
v 23.217773 26.068497 5.723145
v 20.471191 25.127342 7.143890
v 22.307373 22.663513 8.160156
v 22.429443 22.722788 -8.123352
v 20.579102 25.181343 -7.098450
v 16.633301 23.176043 9.011810
v 15.941650 19.462502 10.388184
v 16.246582 19.612213 -10.284454
v 16.829102 23.272415 -8.920135
v 7.495117 0.000000 -18.094788
v -7.495117 0.000000 -18.094788
v -18.094727 0.000000 -7.495087
v -18.094727 0.000000 7.495087
v -7.495117 0.000000 18.094757
v 7.495117 0.000000 18.094757
v 18.094727 0.000000 7.495087
v 18.094727 0.000000 -7.495087
v 7.886719 26.707390 -19.039978
v -7.886719 26.707390 -19.039978
v -19.040039 26.707390 -7.886597
v -19.040039 26.707390 7.886597
v -7.886719 26.707390 19.039948
v 7.886719 26.707390 19.039948
v 19.040039 26.707390 7.886597
v 19.040039 26.707390 -7.886597
v 6.950928 26.707390 -16.781219
v -6.950928 26.707390 -16.781219
v -16.781250 26.707390 -6.951019
v -16.781250 26.707390 6.951019
v -6.950928 26.707390 16.781219
v 6.950928 26.707390 16.781219
v 16.781250 26.707390 6.951019
v 16.781250 26.707390 -6.951019
v 6.605957 2.843177 -15.948151
v -6.605957 2.843177 -15.948151
v -15.948242 2.843177 -6.605927
v -15.948242 2.843177 6.605927
v -6.605957 2.843177 15.948151
v 6.605957 2.843177 15.948151
v 15.948242 2.843177 6.605927
v 15.948242 2.843177 -6.605927
v 0.000000 2.843177 0.000000
vt 0.091369 0.229740
vt 0.091322 0.229630
vt 0.090832 0.229618
vt 0.090788 0.229725
vt 0.091418 0.229763
vt 0.091372 0.229643
vt 0.090778 0.229628
vt 0.090731 0.229744
vt 0.091478 0.229824
vt 0.091431 0.229686
vt 0.090711 0.229666
vt 0.090658 0.229799
vt 0.091415 0.229683
vt 0.090748 0.229666
vt 0.090794 0.229560
vt 0.091366 0.229572
vt 0.091438 0.229616
vt 0.091485 0.229736
vt 0.090668 0.229714
vt 0.090716 0.229598
vt 0.091521 0.229685
vt 0.091565 0.229830
vt 0.090565 0.229803
vt 0.090619 0.229663
vt 0.091369 0.229740
vt 0.091322 0.229630
vt 0.090832 0.229618
vt 0.090788 0.229725
vt 0.091418 0.229763
vt 0.091372 0.229643
vt 0.090778 0.229628
vt 0.090731 0.229744
vt 0.091478 0.229824
vt 0.091431 0.229686
vt 0.090711 0.229666
vt 0.090658 0.229799
vt 0.091415 0.229683
vt 0.090748 0.229666
vt 0.090794 0.229560
vt 0.091366 0.229572
vt 0.091438 0.229616
vt 0.091485 0.229736
vt 0.090668 0.229714
vt 0.090716 0.229598
vt 0.091521 0.229685
vt 0.091565 0.229830
vt 0.090565 0.229803
vt 0.090619 0.229663
vt 0.092739 0.229823
vt 0.093020 0.229838
vt 0.093060 0.229430
vt 0.092722 0.229413
vt 0.093219 0.230003
vt 0.093306 0.229609
vt 0.093220 0.230241
vt 0.093312 0.229875
vt 0.092991 0.230413
vt 0.093032 0.230070
vt 0.092670 0.230392
vt 0.092632 0.230047
vt 0.092476 0.230196
vt 0.092395 0.229823
vt 0.092516 0.229962
vt 0.092450 0.229564
vt 0.092752 0.229816
vt 0.093004 0.229830
vt 0.093183 0.229978
vt 0.093181 0.230189
vt 0.092977 0.230339
vt 0.092691 0.230321
vt 0.092518 0.230149
vt 0.092552 0.229941
vt 0.093038 0.229461
vt 0.092737 0.229446
vt 0.093255 0.229621
vt 0.093257 0.229855
vt 0.093011 0.230024
vt 0.092662 0.230004
vt 0.092452 0.229810
vt 0.092497 0.229581
vt 0.092857 0.230070
vn 0.497275 -0.867593 -0.000000
vn 0.497275 -0.867593 -0.000000
vn 0.497275 -0.867593 -0.000000
vn 0.497275 -0.867593 -0.000000
vn 0.154856 -0.547281 0.822499
vn 0.154856 -0.547281 0.822499
vn 0.154856 -0.547281 0.822499
vn 0.154856 -0.547281 0.822499
vn 0.156654 -0.550974 -0.819687
vn 0.156654 -0.550974 -0.819687
vn 0.156654 -0.550974 -0.819687
vn 0.156654 -0.550974 -0.819687
vn 0.170861 -0.383236 0.907710
vn 0.170861 -0.383236 0.907710
vn 0.170861 -0.383236 0.907710
vn 0.170861 -0.383236 0.907710
vn 0.167051 -0.388457 -0.906198
vn 0.167051 -0.388457 -0.906198
vn 0.167051 -0.388457 -0.906198
vn 0.167051 -0.388457 -0.906198
vn -0.497276 0.867593 0.000000
vn -0.497276 0.867593 0.000000
vn -0.497276 0.867593 0.000000
vn -0.497276 0.867593 0.000000
vn -0.154856 0.547280 -0.822499
vn -0.154856 0.547280 -0.822499
vn -0.154856 0.547280 -0.822499
vn -0.154856 0.547280 -0.822499
vn -0.156654 0.550974 0.819687
vn -0.156654 0.550974 0.819687
vn -0.156654 0.550974 0.819687
vn -0.156654 0.550974 0.819687
vn -0.191519 0.349756 -0.917056
vn -0.191519 0.349756 -0.917056
vn -0.191519 0.349756 -0.917056
vn -0.191519 0.349756 -0.917056
vn -0.189964 0.351468 0.916725
vn -0.189964 0.351468 0.916725
vn -0.189964 0.351468 0.916725
vn -0.189964 0.351468 0.916725
vn -0.908164 -0.418615 0.000003
vn -0.908164 -0.418615 0.000003
vn -0.908164 -0.418615 0.000003
vn -0.908164 -0.418615 0.000003
vn 0.908164 0.418615 -0.000004
vn 0.908164 0.418615 -0.000004
vn 0.908164 0.418615 -0.000004
vn 0.908164 0.418615 -0.000004
vn 0.567934 0.698047 0.436098
vn 0.567934 0.698047 0.436098
vn 0.567934 0.698047 0.436098
vn 0.567934 0.698047 0.436098
vn -0.526292 -0.711057 -0.466278
vn -0.526292 -0.711057 -0.466278
vn -0.526292 -0.711057 -0.466278
vn -0.526292 -0.711057 -0.466278
vn -0.527084 -0.709686 0.467470
vn -0.527084 -0.709686 0.467470
vn -0.527084 -0.709686 0.467470
vn -0.527084 -0.709686 0.467470
vn 0.568845 0.696672 -0.437108
vn 0.568845 0.696672 -0.437108
vn 0.568845 0.696672 -0.437108
vn 0.568845 0.696672 -0.437108
vn 0.547646 0.797040 0.254579
vn 0.547646 0.797040 0.254579
vn 0.547646 0.797040 0.254579
vn 0.547646 0.797040 0.254579
vn 0.797611 0.026920 0.602571
vn 0.797611 0.026920 0.602571
vn 0.797611 0.026920 0.602571
vn 0.797611 0.026920 0.602571
vn -0.514820 -0.813992 -0.269031
vn -0.514820 -0.813992 -0.269031
vn -0.514820 -0.813992 -0.269031
vn -0.514820 -0.813992 -0.269031
vn -0.515363 -0.812590 0.272213
vn -0.515363 -0.812590 0.272213
vn -0.515363 -0.812590 0.272213
vn -0.515363 -0.812590 0.272213
vn 0.768066 -0.005604 -0.640346
vn 0.768066 -0.005604 -0.640346
vn 0.768066 -0.005604 -0.640346
vn 0.768066 -0.005604 -0.640346
vn 0.548530 0.795475 -0.257555
vn 0.548530 0.795475 -0.257555
vn 0.548530 0.795475 -0.257555
vn 0.548530 0.795475 -0.257555
vn -0.497275 -0.867593 0.000000
vn -0.497275 -0.867593 0.000000
vn -0.497275 -0.867593 0.000000
vn -0.497275 -0.867593 0.000000
vn -0.154856 -0.547281 -0.822499
vn -0.154856 -0.547281 -0.822499
vn -0.154856 -0.547281 -0.822499
vn -0.154856 -0.547281 -0.822499
vn -0.156654 -0.550974 0.819687
vn -0.156654 -0.550974 0.819687
vn -0.156654 -0.550974 0.819687
vn -0.156654 -0.550974 0.819687
vn -0.170861 -0.383236 -0.907710
vn -0.170861 -0.383236 -0.907710
vn -0.170861 -0.383236 -0.907710
vn -0.170861 -0.383236 -0.907710
vn -0.167051 -0.388457 0.906198
vn -0.167051 -0.388457 0.906198
vn -0.167051 -0.388457 0.906198
vn -0.167051 -0.388457 0.906198
vn 0.497276 0.867593 0.000000
vn 0.497276 0.867593 0.000000
vn 0.497276 0.867593 0.000000
vn 0.497276 0.867593 0.000000
vn 0.154856 0.547280 0.822499
vn 0.154856 0.547280 0.822499
vn 0.154856 0.547280 0.822499
vn 0.154856 0.547280 0.822499
vn 0.156654 0.550974 -0.819687
vn 0.156654 0.550974 -0.819687
vn 0.156654 0.550974 -0.819687
vn 0.156654 0.550974 -0.819687
vn 0.191519 0.349756 0.917056
vn 0.191519 0.349756 0.917056
vn 0.191519 0.349756 0.917056
vn 0.191519 0.349756 0.917056
vn 0.189964 0.351468 -0.916725
vn 0.189964 0.351468 -0.916725
vn 0.189964 0.351468 -0.916725
vn 0.189964 0.351468 -0.916725
vn 0.908164 -0.418615 -0.000003
vn 0.908164 -0.418615 -0.000003
vn 0.908164 -0.418615 -0.000003
vn 0.908164 -0.418615 -0.000003
vn -0.908164 0.418615 0.000004
vn -0.908164 0.418615 0.000004
vn -0.908164 0.418615 0.000004
vn -0.908164 0.418615 0.000004
vn -0.567934 0.698047 -0.436098
vn -0.567934 0.698047 -0.436098
vn -0.567934 0.698047 -0.436098
vn -0.567934 0.698047 -0.436098
vn 0.526292 -0.711057 0.466278
vn 0.526292 -0.711057 0.466278
vn 0.526292 -0.711057 0.466278
vn 0.526292 -0.711057 0.466278
vn 0.527084 -0.709686 -0.467470
vn 0.527084 -0.709686 -0.467470
vn 0.527084 -0.709686 -0.467470
vn 0.527084 -0.709686 -0.467470
vn -0.568845 0.696672 0.437108
vn -0.568845 0.696672 0.437108
vn -0.568845 0.696672 0.437108
vn -0.568845 0.696672 0.437108
vn -0.547646 0.797040 -0.254579
vn -0.547646 0.797040 -0.254579
vn -0.547646 0.797040 -0.254579
vn -0.547646 0.797040 -0.254579
vn -0.797611 0.026920 -0.602571
vn -0.797611 0.026920 -0.602571
vn -0.797611 0.026920 -0.602571
vn -0.797611 0.026920 -0.602571
vn 0.514820 -0.813992 0.269031
vn 0.514820 -0.813992 0.269031
vn 0.514820 -0.813992 0.269031
vn 0.514820 -0.813992 0.269031
vn 0.515363 -0.812590 -0.272213
vn 0.515363 -0.812590 -0.272213
vn 0.515363 -0.812590 -0.272213
vn 0.515363 -0.812590 -0.272213
vn -0.768066 -0.005604 0.640346
vn -0.768066 -0.005604 0.640346
vn -0.768066 -0.005604 0.640346
vn -0.768066 -0.005604 0.640346
vn -0.548530 0.795475 0.257555
vn -0.548530 0.795475 0.257555
vn -0.548530 0.795475 0.257555
vn -0.548530 0.795475 0.257555
vn 0.000000 -0.035368 -0.999374
vn 0.000000 -0.035368 -0.999374
vn 0.000000 -0.035368 -0.999374
vn 0.000000 -0.035368 -0.999374
vn -0.706667 -0.035371 -0.706662
vn -0.706667 -0.035371 -0.706662
vn -0.706667 -0.035371 -0.706662
vn -0.706667 -0.035371 -0.706662
vn -0.999374 -0.035373 0.000000
vn -0.999374 -0.035373 0.000000
vn -0.999374 -0.035373 0.000000
vn -0.999374 -0.035373 0.000000
vn -0.706666 -0.035371 0.706663
vn -0.706666 -0.035371 0.706663
vn -0.706666 -0.035371 0.706663
vn -0.706666 -0.035371 0.706663
vn 0.000000 -0.035368 0.999374
vn 0.000000 -0.035368 0.999374
vn 0.000000 -0.035368 0.999374
vn 0.000000 -0.035368 0.999374
vn 0.706666 -0.035371 0.706663
vn 0.706666 -0.035371 0.706663
vn 0.706666 -0.035371 0.706663
vn 0.706666 -0.035371 0.706663
vn 0.999374 -0.035373 0.000000
vn 0.999374 -0.035373 0.000000
vn 0.999374 -0.035373 0.000000
vn 0.999374 -0.035373 0.000000
vn 0.706667 -0.035371 -0.706662
vn 0.706667 -0.035371 -0.706662
vn 0.706667 -0.035371 -0.706662
vn 0.706667 -0.035371 -0.706662
vn 0.000000 -1.000000 0.000000
vn 0.000000 -1.000000 0.000000
vn 0.000000 -1.000000 0.000000
vn 0.000000 -1.000000 0.000000
vn 0.000000 -1.000000 0.000000
vn 0.000000 -1.000000 0.000000
vn 0.000000 -1.000000 0.000000
vn 0.000000 -1.000000 0.000000
vn 0.000000 1.000000 -0.000000
vn 0.000000 1.000000 -0.000000
vn 0.000000 1.000000 -0.000000
vn 0.000000 1.000000 -0.000000
vn 0.000000 1.000000 0.000000
vn 0.000000 1.000000 0.000000
vn 0.000000 1.000000 0.000000
vn 0.000000 1.000000 0.000000
vn 0.000000 1.000000 0.000000
vn 0.000000 1.000000 0.000000
vn 0.000000 1.000000 0.000000
vn 0.000000 1.000000 0.000000
vn 0.000000 1.000000 0.000000
vn 0.000000 1.000000 0.000000
vn 0.000000 1.000000 0.000000
vn 0.000000 1.000000 0.000000
vn 0.000000 1.000000 0.000000
vn 0.000000 1.000000 0.000000
vn 0.000000 1.000000 0.000000
vn 0.000000 1.000000 0.000000
vn 0.000000 1.000000 -0.000000
vn 0.000000 1.000000 -0.000000
vn 0.000000 1.000000 -0.000000
vn 0.000000 1.000000 -0.000000
vn 0.000000 1.000000 0.000000
vn 0.000000 1.000000 0.000000
vn 0.000000 1.000000 0.000000
vn 0.000000 1.000000 0.000000
vn 0.000000 1.000000 -0.000000
vn 0.000000 1.000000 -0.000000
vn 0.000000 1.000000 -0.000000
vn 0.000000 1.000000 -0.000000
vn 0.000000 0.034887 0.999391
vn 0.000000 0.034887 0.999391
vn 0.000000 0.034887 0.999391
vn 0.000000 0.034887 0.999391
vn 0.706673 0.034885 0.706680
vn 0.706673 0.034885 0.706680
vn 0.706673 0.034885 0.706680
vn 0.706673 0.034885 0.706680
vn 0.999391 0.034885 0.000000
vn 0.999391 0.034885 0.000000
vn 0.999391 0.034885 0.000000
vn 0.999391 0.034885 0.000000
vn 0.706673 0.034885 -0.706680
vn 0.706673 0.034885 -0.706680
vn 0.706673 0.034885 -0.706680
vn 0.706673 0.034885 -0.706680
vn 0.000000 0.034887 -0.999391
vn 0.000000 0.034887 -0.999391
vn 0.000000 0.034887 -0.999391
vn 0.000000 0.034887 -0.999391
vn -0.706673 0.034885 -0.706680
vn -0.706673 0.034885 -0.706680
vn -0.706673 0.034885 -0.706680
vn -0.706673 0.034885 -0.706680
vn -0.999391 0.034885 0.000000
vn -0.999391 0.034885 0.000000
vn -0.999391 0.034885 0.000000
vn -0.999391 0.034885 0.000000
vn -0.706673 0.034885 0.706680
vn -0.706673 0.034885 0.706680
vn -0.706673 0.034885 0.706680
vn -0.706673 0.034885 0.706680
vn 0.000000 1.000000 0.000000
vn 0.000000 1.000000 0.000000
vn 0.000000 1.000000 0.000000
vn 0.000000 1.000000 0.000000
vn 0.000000 1.000000 0.000000
vn 0.000000 1.000000 0.000000
vn 0.000000 1.000000 0.000000
vn 0.000000 1.000000 0.000000
vn 0.000000 1.000000 0.000000
vn 0.000000 1.000000 0.000000
vn 0.000000 1.000000 0.000000
vn 0.000000 1.000000 0.000000
vn 0.000000 1.000000 0.000000
vn 0.000000 1.000000 0.000000
vn 0.000000 1.000000 0.000000
vn 0.000000 1.000000 0.000000
vn 0.000000 1.000000 0.000000
vn 0.000000 1.000000 0.000000
vn 0.000000 1.000000 0.000000
vn 0.000000 1.000000 0.000000
vn 0.000000 1.000000 0.000000
vn 0.000000 1.000000 0.000000
vn 0.000000 1.000000 0.000000
vn 0.000000 1.000000 0.000000
s off
f 13/1/1 16/2/2 15/3/3 14/4/4
f 13/1/5 18/5/6 17/6/7 16/2/8
f 15/3/9 20/7/10 19/8/11 14/4/12
f 18/5/13 22/9/14 21/10/15 17/6/16
f 20/7/17 24/11/18 23/12/19 19/8/20
f 1/13/21 2/14/22 4/15/23 3/16/24
f 1/13/25 3/16/26 10/17/27 9/18/28
f 4/15/29 2/14/30 11/19/31 12/20/32
f 9/18/33 10/17/34 6/21/35 5/22/36
f 12/20/37 11/19/38 7/23/39 8/24/40
f 1/13/41 13/1/42 14/4/43 2/14/44
f 4/15/45 15/3/46 16/2/47 3/16/48
f 3/16/49 16/2/50 17/6/51 10/17/52
f 9/18/53 18/5/54 13/1/55 1/13/56
f 2/14/57 14/4/58 19/8/59 11/19/60
f 12/20/61 20/7/62 15/3/63 4/15/64
f 10/17/65 17/6/66 21/10/67 6/21/68
f 6/21/69 21/10/70 22/9/71 5/22/72
f 5/22/73 22/9/74 18/5/75 9/18/76
f 11/19/77 19/8/78 23/12/79 7/23/80
f 7/23/81 23/12/82 24/11/83 8/24/84
f 8/24/85 24/11/86 20/7/87 12/20/88
f 37/25/89 40/26/90 39/27/91 38/28/92
f 37/25/93 42/29/94 41/30/95 40/26/96
f 39/27/97 44/31/98 43/32/99 38/28/100
f 42/29/101 46/33/102 45/34/103 41/30/104
f 44/31/105 48/35/106 47/36/107 43/32/108
f 25/37/109 26/38/110 28/39/111 27/40/112
f 25/37/113 27/40/114 34/41/115 33/42/116
f 28/39/117 26/38/118 35/43/119 36/44/120
f 33/42/121 34/41/122 30/45/123 29/46/124
f 36/44/125 35/43/126 31/47/127 32/48/128
f 25/37/129 37/25/130 38/28/131 26/38/132
f 28/39/133 39/27/134 40/26/135 27/40/136
f 27/40/137 40/26/138 41/30/139 34/41/140
f 33/42/141 42/29/142 37/25/143 25/37/144
f 26/38/145 38/28/146 43/32/147 35/43/148
f 36/44/149 44/31/150 39/27/151 28/39/152
f 34/41/153 41/30/154 45/34/155 30/45/156
f 30/45/157 45/34/158 46/33/159 29/46/160
f 29/46/161 46/33/162 42/29/163 33/42/164
f 35/43/165 43/32/166 47/36/167 31/47/168
f 31/47/169 47/36/170 48/35/171 32/48/172
f 32/48/173 48/35/174 44/31/175 36/44/176
f 49/49/177 50/50/178 58/51/179 57/52/180
f 50/50/181 51/53/182 59/54/183 58/51/184
f 51/53/185 52/55/186 60/56/187 59/54/188
f 52/55/189 53/57/190 61/58/191 60/56/192
f 53/57/193 54/59/194 62/60/195 61/58/196
f 54/59/197 55/61/198 63/62/199 62/60/200
f 55/61/201 56/63/202 64/64/203 63/62/204
f 56/63/205 49/49/206 57/52/207 64/64/208
f 49/49/209 56/63/210 55/61/211 54/59/212 53/57/213 52/55/214 51/53/215 50/50/216
f 57/52/217 58/51/218 66/73/219 65/74/220
f 58/51/221 59/54/222 67/75/223 66/73/224
f 59/54/225 60/56/226 68/76/227 67/75/228
f 60/56/229 61/58/230 69/77/231 68/76/232
f 61/58/233 62/60/234 70/78/235 69/77/236
f 62/60/237 63/62/238 71/79/239 70/78/240
f 63/62/241 64/64/242 72/80/243 71/79/244
f 64/64/245 57/52/246 65/74/247 72/80/248
f 65/74/249 66/73/250 74/66/251 73/65/252
f 66/73/253 67/75/254 75/67/255 74/66/256
f 67/75/257 68/76/258 76/68/259 75/67/260
f 68/76/261 69/77/262 77/69/263 76/68/264
f 69/77/265 70/78/266 78/70/267 77/69/268
f 70/78/269 71/79/270 79/71/271 78/70/272
f 71/79/273 72/80/274 80/72/275 79/71/276
f 72/80/277 65/74/278 73/65/279 80/72/280
f 73/65/281 74/66/282 81/81/283
f 74/66/284 75/67/285 81/81/286
f 75/67/287 76/68/288 81/81/289
f 76/68/290 77/69/291 81/81/292
f 77/69/293 78/70/294 81/81/295
f 78/70/296 79/71/297 81/81/298
f 79/71/299 80/72/300 81/81/301
f 80/72/302 73/65/303 81/81/304
