# This file uses centimeters as units for non-parametric coordinates.

v 7.317045 -4.244020 -10.071051
v -0.000001 -4.244020 -12.448502
v -7.317047 -4.244020 -10.071048
v -11.839229 -4.244020 -3.846797
v -11.839228 -4.244020 3.846799
v -7.317045 -4.244020 10.071050
v -0.000000 -4.244020 12.448502
v 7.317045 -4.244020 10.071050
v 11.839227 -4.244020 3.846798
v 11.839227 -4.244020 -3.846798
v 7.317045 4.244020 -10.071051
v -0.000001 4.244020 -12.448502
v -7.317047 4.244020 -10.071048
v -11.839229 4.244020 -3.846797
v -11.839228 4.244020 3.846799
v -7.317045 4.244020 10.071050
v -0.000000 4.244020 12.448502
v 7.317045 4.244020 10.071050
v 11.839227 4.244020 3.846798
v 11.839227 4.244020 -3.846798
v 8.673560 -5.692676 -2.818210
v 5.360556 -5.692676 -7.378172
v 8.673560 -5.692676 2.818211
v 5.360555 -5.692676 7.378173
v -0.000000 -5.692676 9.119923
v -5.360556 -5.692676 7.378172
v -8.673560 -5.692676 2.818211
v -8.673563 -5.692676 -2.818210
v -5.360557 -5.692676 -7.378170
v -0.000001 -5.692676 -9.119923
v 5.360556 5.692676 -7.378172
v -0.000001 5.692676 -9.119923
v -5.360557 5.692676 -7.378170
v -8.673563 5.692676 -2.818210
v -8.673560 5.692676 2.818211
v -5.360556 5.692676 7.378172
v -0.000000 5.692676 9.119923
v 5.360555 5.692676 7.378173
v 8.673560 5.692676 2.818211
v 8.673560 5.692676 -2.818210
v -12.622272 0.000000 -4.101224
v -7.800994 0.000000 -10.737145
v -0.000001 0.000000 -13.271842
v 7.800992 0.000000 -10.737146
v 12.622269 0.000000 -4.101223
v 12.622270 0.000000 4.101225
v 7.800992 0.000000 10.737145
v 0.000000 0.000000 13.271842
v -7.800992 0.000000 10.737144
v -12.622270 0.000000 4.101225
v -0.000000 5.921724 0.000000
v -0.000001 -5.921724 0.000000
v -7.699010 4.430678 2.501560
v -11.204047 0.000000 3.640417
v -10.508987 3.303172 3.414577
v -7.699012 4.430678 -2.501560
v -0.000000 4.608950 0.000000
v -0.000000 0.000000 0.000000
v -7.699012 -4.430678 -2.501560
v -11.204049 0.000000 -3.640416
v -10.508988 -3.303172 -3.414576
v -0.000000 -4.608950 0.000000
v -7.699010 -4.430678 2.501560
v -10.508988 3.303172 -3.414576
v -10.508987 -3.303172 3.414577
v -7.739061 1.519581 -2.514572
v -6.241456 -0.066600 -2.027972
v -7.739061 -1.519581 -2.514572
v -8.941177 0.000000 -2.905164
v -5.123970 2.581155 -1.664878
v -2.674550 1.893256 -0.869013
v -4.409583 1.017107 -1.432760
v -3.417681 3.520236 -1.110471
v -2.682644 -1.817343 -0.871643
v -5.116879 -2.654832 -1.662574
v -4.452260 -1.021332 -1.446627
v -3.374001 -3.516569 -1.096279
v -7.484263 -0.010244 -2.950698
v -3.750093 2.260282 -1.739639
v -3.797802 -2.263314 -1.588707
v -8.542034 0.000000 2.775476
v -4.712611 1.491824 1.531220
v -5.598190 0.000000 1.818963
v -3.325353 -0.120780 1.080473
v -4.818468 -1.434916 1.565615
v -8.102591 3.259785 2.632692
v -8.490868 0.969494 2.758852
v -8.514593 -0.932396 2.766560
v -8.050930 -3.369269 2.615906
v -9.599610 -2.416106 3.119103
v -9.644885 2.306622 3.133814
v -8.567842 2.255376 3.318203
v -8.537559 -2.305862 3.308297
v -4.412969 -0.001871 1.968337
v -7.310448 2.134655 2.375309
v -7.352399 -1.996772 2.388939
vt 0.216812 0.469558
vt 0.216921 0.469666
vt 0.216967 0.469494
vt 0.216843 0.469396
vt 0.216857 0.469795
vt 0.216902 0.469613
vt 0.216593 0.469884
vt 0.216609 0.469697
vt 0.216249 0.469871
vt 0.216027 0.469766
vt 0.215980 0.469585
vt 0.216223 0.469685
vt 0.216011 0.469637
vt 0.215967 0.469467
vt 0.216150 0.469540
vt 0.216123 0.469379
vt 0.216368 0.469492
vt 0.216361 0.469337
vt 0.216606 0.469498
vt 0.216618 0.469343
vt 0.216570 0.469586
vt 0.216722 0.469635
vt 0.216390 0.469580
vt 0.216228 0.469619
vt 0.216133 0.469697
vt 0.216155 0.469792
vt 0.216315 0.469866
vt 0.216737 0.469814
vt 0.216550 0.469875
vt 0.216793 0.469719
vt 0.216832 0.469234
vt 0.216950 0.469308
vt 0.216821 0.469240
vt 0.216742 0.469189
vt 0.216886 0.469398
vt 0.216763 0.469298
vt 0.216603 0.469461
vt 0.216559 0.469336
vt 0.216233 0.469452
vt 0.215997 0.469377
vt 0.216128 0.469285
vt 0.216301 0.469330
vt 0.215983 0.469288
vt 0.216105 0.469227
vt 0.216133 0.469221
vt 0.216210 0.469180
vt 0.216363 0.469189
vt 0.216385 0.469157
vt 0.216614 0.469193
vt 0.216579 0.469160
vt 0.216459 0.469240
vt 0.216459 0.469718
vt 0.234635 0.491798
vt 0.234768 0.492280
vt 0.216223 0.469685
vt 0.216233 0.469452
vt 0.216301 0.469330
vt 0.216459 0.469240
vt 0.216559 0.469336
vt 0.216609 0.469697
vt 0.216593 0.469884
vt 0.216550 0.469875
vt 0.216459 0.469718
vt 0.216315 0.469866
vt 0.216603 0.469461
vt 0.216249 0.469871
vt 0.234748 0.492016
vt 0.234353 0.491458
vt 0.234934 0.491639
vt 0.234358 0.491763
vt 0.234899 0.492215
vt 0.235187 0.492025
vt 0.235113 0.492217
vt 0.234363 0.492045
vt 0.234623 0.492385
vt 0.235153 0.491785
vt 0.234732 0.492458
vt 0.234925 0.491789
vt 0.234762 0.491889
vt 0.234907 0.492077
vt 0.235052 0.491982
vt 0.234793 0.491670
vt 0.234505 0.491732
vt 0.234740 0.491780
vt 0.234502 0.491579
vt 0.234496 0.491879
vt 0.234766 0.492105
vt 0.234728 0.491976
vt 0.234499 0.492019
vt 0.219077 0.421298
vt 0.219278 0.421130
vt 0.219312 0.421323
vt 0.219443 0.421408
vt 0.219278 0.421574
vt 0.218836 0.421063
vt 0.218610 0.420866
vt 0.218816 0.420836
vt 0.218699 0.420656
vt 0.218925 0.420863
vt 0.218846 0.421356
vt 0.218935 0.421615
vt 0.218813 0.421488
vt 0.218718 0.421656
vt 0.218626 0.421392
vt 0.234728 0.492229
vt 0.234631 0.491951
vt 0.234678 0.492167
vt 0.234493 0.491934
vt 0.234625 0.492244
vt 0.234669 0.491933
vt 0.234716 0.492149
vt 0.234709 0.492273
vt 0.234656 0.492351
vt 0.234710 0.492387
vt 0.234726 0.492042
vt 0.215188 0.416966
vt 0.215312 0.416726
vt 0.215193 0.416919
vt 0.215310 0.417101
vt 0.215270 0.417705
vt 0.215331 0.417362
vt 0.215260 0.417537
vt 0.215391 0.417618
vt 0.215670 0.416811
vt 0.215587 0.417091
vt 0.215524 0.416877
vt 0.215529 0.416974
vt 0.215576 0.416705
vt 0.215311 0.416938
vt 0.234695 0.492055
vt 0.215351 0.417447
vt 0.234691 0.492299
vn 0.303888 -0.181443 -0.935270
vn 0.303888 -0.181443 -0.935270
vn 0.303888 -0.181443 -0.935270
vn 0.303888 -0.181443 -0.935270
vn -0.303888 -0.181443 -0.935270
vn -0.303888 -0.181443 -0.935270
vn -0.303888 -0.181443 -0.935270
vn -0.303888 -0.181443 -0.935270
vn -0.795589 -0.181443 -0.578029
vn -0.795589 -0.181443 -0.578029
vn -0.795589 -0.181443 -0.578029
vn -0.795589 -0.181443 -0.578029
vn -0.795589 -0.181442 0.578029
vn -0.795589 -0.181442 0.578029
vn -0.795589 -0.181442 0.578029
vn -0.795589 -0.181442 0.578029
vn -0.303888 -0.181442 0.935270
vn -0.303888 -0.181442 0.935270
vn -0.303888 -0.181442 0.935270
vn -0.303888 -0.181442 0.935270
vn 0.303888 -0.181442 0.935270
vn 0.303888 -0.181442 0.935270
vn 0.303888 -0.181442 0.935270
vn 0.303888 -0.181442 0.935270
vn 0.795589 -0.181442 0.578029
vn 0.795589 -0.181442 0.578029
vn 0.795589 -0.181442 0.578029
vn 0.795589 -0.181442 0.578029
vn 0.983402 -0.181443 -0.000000
vn 0.983402 -0.181443 -0.000000
vn 0.983402 -0.181443 -0.000000
vn 0.983402 -0.181443 -0.000000
vn 0.795589 -0.181442 -0.578029
vn 0.795589 -0.181442 -0.578029
vn 0.795589 -0.181442 -0.578029
vn 0.795589 -0.181442 -0.578029
vn 0.336644 -0.909312 -0.244586
vn 0.336644 -0.909312 -0.244586
vn 0.336644 -0.909312 -0.244586
vn 0.336644 -0.909312 -0.244586
vn 0.416115 -0.909312 0.000000
vn 0.416115 -0.909312 0.000000
vn 0.416115 -0.909312 0.000000
vn 0.416115 -0.909312 0.000000
vn 0.336644 -0.909312 0.244586
vn 0.336644 -0.909312 0.244586
vn 0.336644 -0.909312 0.244586
vn 0.336644 -0.909312 0.244586
vn 0.128586 -0.909312 0.395748
vn 0.128586 -0.909312 0.395748
vn 0.128586 -0.909312 0.395748
vn 0.128586 -0.909312 0.395748
vn -0.128586 -0.909312 0.395748
vn -0.128586 -0.909312 0.395748
vn -0.128586 -0.909312 0.395748
vn -0.128586 -0.909312 0.395748
vn -0.336644 -0.909312 0.244586
vn -0.336644 -0.909312 0.244586
vn -0.336644 -0.909312 0.244586
vn -0.336644 -0.909312 0.244586
vn -0.336644 -0.909312 -0.244586
vn -0.336644 -0.909312 -0.244586
vn -0.336644 -0.909312 -0.244586
vn -0.336644 -0.909312 -0.244586
vn -0.128587 -0.909312 -0.395748
vn -0.128587 -0.909312 -0.395748
vn -0.128587 -0.909312 -0.395748
vn -0.128587 -0.909312 -0.395748
vn 0.128586 -0.909312 -0.395748
vn 0.128586 -0.909312 -0.395748
vn 0.128586 -0.909312 -0.395748
vn 0.128586 -0.909312 -0.395748
vn 0.128586 0.909312 -0.395748
vn 0.128586 0.909312 -0.395748
vn 0.128586 0.909312 -0.395748
vn 0.128586 0.909312 -0.395748
vn -0.128587 0.909312 -0.395748
vn -0.128587 0.909312 -0.395748
vn -0.128587 0.909312 -0.395748
vn -0.128587 0.909312 -0.395748
vn -0.336644 0.909312 -0.244586
vn -0.336644 0.909312 -0.244586
vn -0.336644 0.909312 -0.244586
vn -0.336644 0.909312 -0.244586
vn -0.336644 0.909312 0.244586
vn -0.336644 0.909312 0.244586
vn -0.336644 0.909312 0.244586
vn -0.336644 0.909312 0.244586
vn -0.128586 0.909312 0.395748
vn -0.128586 0.909312 0.395748
vn -0.128586 0.909312 0.395748
vn -0.128586 0.909312 0.395748
vn 0.128586 0.909312 0.395748
vn 0.128586 0.909312 0.395748
vn 0.128586 0.909312 0.395748
vn 0.128586 0.909312 0.395748
vn 0.336644 0.909312 0.244586
vn 0.336644 0.909312 0.244586
vn 0.336644 0.909312 0.244586
vn 0.336644 0.909312 0.244586
vn 0.416115 0.909312 0.000000
vn 0.416115 0.909312 0.000000
vn 0.416115 0.909312 0.000000
vn 0.416115 0.909312 0.000000
vn 0.336644 0.909312 -0.244586
vn 0.336644 0.909312 -0.244586
vn 0.336644 0.909312 -0.244586
vn 0.336644 0.909312 -0.244586
vn -0.795589 0.181443 -0.578029
vn -0.795589 0.181443 -0.578029
vn -0.795589 0.181443 -0.578029
vn -0.795589 0.181443 -0.578029
vn -0.303888 0.181443 -0.935270
vn -0.303888 0.181443 -0.935270
vn -0.303888 0.181443 -0.935270
vn -0.303888 0.181443 -0.935270
vn 0.303888 0.181443 -0.935270
vn 0.303888 0.181443 -0.935270
vn 0.303888 0.181443 -0.935270
vn 0.303888 0.181443 -0.935270
vn 0.795589 0.181442 -0.578029
vn 0.795589 0.181442 -0.578029
vn 0.795589 0.181442 -0.578029
vn 0.795589 0.181442 -0.578029
vn 0.983402 0.181443 -0.000000
vn 0.983402 0.181443 -0.000000
vn 0.983402 0.181443 -0.000000
vn 0.983402 0.181443 -0.000000
vn 0.795589 0.181442 0.578029
vn 0.795589 0.181442 0.578029
vn 0.795589 0.181442 0.578029
vn 0.795589 0.181442 0.578029
vn 0.303888 0.181442 0.935270
vn 0.303888 0.181442 0.935270
vn 0.303888 0.181442 0.935270
vn 0.303888 0.181442 0.935270
vn -0.303888 0.181442 0.935270
vn -0.303888 0.181442 0.935270
vn -0.303888 0.181442 0.935270
vn -0.303888 0.181442 0.935270
vn -0.795589 0.181442 0.578029
vn -0.795589 0.181442 0.578029
vn -0.795589 0.181442 0.578029
vn -0.795589 0.181442 0.578029
vn 0.008158 0.999652 -0.025107
vn 0.008158 0.999652 -0.025107
vn 0.008158 0.999652 -0.025107
vn -0.008158 0.999652 -0.025106
vn -0.008158 0.999652 -0.025106
vn -0.008158 0.999652 -0.025106
vn -0.021357 0.999652 -0.015517
vn -0.021357 0.999652 -0.015517
vn -0.021357 0.999652 -0.015517
vn -0.021357 0.999652 0.015517
vn -0.021357 0.999652 0.015517
vn -0.021357 0.999652 0.015517
vn -0.008158 0.999652 0.025106
vn -0.008158 0.999652 0.025106
vn -0.008158 0.999652 0.025106
vn 0.008158 0.999652 0.025106
vn 0.008158 0.999652 0.025106
vn 0.008158 0.999652 0.025106
vn 0.021357 0.999652 0.015517
vn 0.021357 0.999652 0.015517
vn 0.021357 0.999652 0.015517
vn 0.026398 0.999651 0.000000
vn 0.026398 0.999651 0.000000
vn 0.026398 0.999651 0.000000
vn 0.021357 0.999652 -0.015517
vn 0.021357 0.999652 -0.015517
vn 0.021357 0.999652 -0.015517
vn 0.021357 -0.999652 -0.015517
vn 0.021357 -0.999652 -0.015517
vn 0.021357 -0.999652 -0.015517
vn 0.026398 -0.999651 0.000000
vn 0.026398 -0.999651 0.000000
vn 0.026398 -0.999651 0.000000
vn 0.021357 -0.999652 0.015517
vn 0.021357 -0.999652 0.015517
vn 0.021357 -0.999652 0.015517
vn 0.008158 -0.999652 0.025106
vn 0.008158 -0.999652 0.025106
vn 0.008158 -0.999652 0.025106
vn -0.008158 -0.999652 0.025107
vn -0.008158 -0.999652 0.025107
vn -0.008158 -0.999652 0.025107
vn -0.021357 -0.999652 0.015516
vn -0.021357 -0.999652 0.015516
vn -0.021357 -0.999652 0.015516
vn -0.021357 -0.999652 -0.015517
vn -0.021357 -0.999652 -0.015517
vn -0.021357 -0.999652 -0.015517
vn -0.008158 -0.999652 -0.025106
vn -0.008158 -0.999652 -0.025106
vn -0.008158 -0.999652 -0.025106
vn 0.008158 -0.999652 -0.025107
vn 0.008158 -0.999652 -0.025107
vn 0.008158 -0.999652 -0.025107
vn -0.309017 -0.000000 -0.951057
vn -0.309017 -0.000000 -0.951057
vn -0.309017 -0.000000 -0.951057
vn -0.309017 -0.000000 -0.951057
vn -0.309017 -0.000000 -0.951057
vn -0.309017 -0.000000 -0.951057
vn -0.309017 -0.000000 -0.951057
vn -0.309017 -0.000000 -0.951057
vn -0.309017 -0.000000 0.951057
vn -0.309017 -0.000000 0.951057
vn -0.309017 -0.000000 0.951057
vn -0.309017 -0.000000 0.951057
vn -0.309017 0.000000 -0.951057
vn -0.309017 0.000000 -0.951057
vn -0.309017 0.000000 -0.951057
vn -0.309017 0.000000 -0.951057
vn -0.309017 0.000000 0.951057
vn -0.309017 0.000000 0.951057
vn -0.309017 0.000000 0.951057
vn -0.309017 0.000000 0.951057
vn -0.309017 0.000000 0.951057
vn -0.309017 0.000000 0.951057
vn -0.309017 0.000000 0.951057
vn -0.309017 0.000000 0.951057
vn -0.309017 0.000000 0.951057
vn -0.309017 0.000000 0.951057
vn -0.309017 0.000000 0.951057
vn -0.309017 0.000000 0.951057
vn -0.309017 0.000000 -0.951056
vn -0.309017 0.000000 -0.951056
vn -0.309017 0.000000 -0.951056
vn -0.309017 0.000000 -0.951056
vn -0.309017 -0.000000 0.951057
vn -0.309017 -0.000000 0.951057
vn -0.309017 -0.000000 0.951057
vn -0.309017 -0.000000 0.951057
vn -0.309017 -0.000000 0.951057
vn -0.309017 -0.000000 0.951057
vn -0.309017 -0.000000 0.951057
vn -0.309017 -0.000000 0.951057
vn -0.309017 0.000000 -0.951057
vn -0.309017 0.000000 -0.951057
vn -0.309017 0.000000 -0.951057
vn -0.309017 0.000000 -0.951057
vn -0.309017 0.000000 -0.951057
vn -0.309017 0.000000 -0.951057
vn -0.309017 0.000000 -0.951057
vn -0.309017 0.000000 -0.951057
vn -0.309017 -0.000000 0.951057
vn -0.309017 -0.000000 0.951057
vn -0.309017 -0.000000 0.951057
vn -0.309017 -0.000000 0.951057
vn -0.309017 -0.000000 0.951057
vn -0.309017 0.000000 0.951057
vn -0.309017 0.000000 0.951057
vn -0.309017 0.000000 0.951057
vn -0.309017 0.000000 0.951057
vn -0.309017 0.000000 0.951057
vn -0.309017 0.000000 0.951057
vn -0.309017 -0.000000 0.951056
vn -0.309017 -0.000000 0.951057
vn -0.309017 -0.000000 0.951057
vn -0.309017 0.000000 0.951057
vn -0.309017 -0.000000 0.951057
vn -0.309017 -0.000000 0.951056
vn -0.309017 0.000000 0.951057
vn -0.309017 -0.000000 0.951057
vn -0.309017 0.000000 0.951057
vn -0.309017 -0.000000 0.951057
vn -0.309017 -0.000000 0.951057
vn -0.309017 -0.000000 0.951057
vn -0.309017 -0.000000 0.951057
vn -0.309017 -0.000000 0.951057
vn -0.309017 0.000000 0.951057
vn -0.309017 0.000000 0.951057
vn -0.309017 0.000000 0.951057
vn -0.309017 0.000000 0.951056
vn -0.309017 0.000000 0.951057
vn -0.309017 0.000000 0.951057
vn -0.309017 0.000000 0.951057
vn -0.309017 0.000000 0.951057
vn -0.309017 0.000000 0.951057
vn -0.309017 0.000000 0.951057
vn -0.309017 0.000000 0.951057
vn -0.309017 0.000000 0.951057
vn -0.309017 0.000000 0.951057
vn -0.309017 0.000000 0.951057
vn -0.309017 0.000000 0.951056
vn -0.309017 0.000000 0.951057
vn -0.309017 0.000000 0.951057
vn -0.575534 -0.311424 0.756159
vn -0.575534 -0.311424 0.756159
vn -0.575534 -0.311424 0.756159
vn 0.028186 -0.269705 0.962530
vn 0.028186 -0.269705 0.962530
vn 0.028186 -0.269705 0.962530
vn 0.031970 0.272469 0.961633
vn 0.031970 0.272469 0.961633
vn 0.031970 0.272469 0.961633
vn -0.556293 0.315988 0.768563
vn -0.556293 0.315988 0.768563
vn -0.556293 0.315988 0.768563
vn -0.470287 0.438531 0.765846
vn -0.470287 0.438531 0.765846
vn -0.470287 0.438531 0.765846
vn -0.656175 -0.191382 0.729937
vn -0.656175 -0.191382 0.729937
vn -0.656175 -0.191382 0.729937
vn -0.052675 -0.434975 0.898900
vn -0.052675 -0.434975 0.898900
vn -0.052675 -0.434975 0.898900
vn 0.097425 0.189499 0.977036
vn 0.097425 0.189499 0.977036
vn 0.097425 0.189499 0.977036
vn -0.018913 -0.123468 0.992168
vn -0.018913 -0.123468 0.992168
vn -0.018913 -0.123468 0.992168
vn -0.146920 0.318300 0.936536
vn -0.146920 0.318300 0.936536
vn -0.146920 0.318300 0.936536
vn -0.571566 0.125348 0.810926
vn -0.571566 0.125348 0.810926
vn -0.571566 0.125348 0.810926
vn -0.419402 -0.318262 0.850183
vn -0.419402 -0.318262 0.850183
vn -0.419402 -0.318262 0.850183
vn -0.308545 0.008887 -0.951168
vn -0.309017 0.000000 -0.951056
vn -0.309017 0.000000 -0.951056
vn -0.309017 0.000000 -0.951056
vn -0.309017 0.000000 -0.951056
vn -0.317590 0.000553 -0.948228
vn -0.309254 -0.007967 -0.950946
vn -0.309017 -0.000000 -0.951057
vn -0.309254 -0.007967 -0.950946
vn -0.275722 -0.001027 -0.961237
vn -0.327831 0.003376 -0.944730
vn -0.318383 -0.024275 -0.947651
vn -0.309017 -0.000000 -0.951057
vn -0.289646 -0.001274 -0.957133
vn -0.312475 0.022092 -0.949669
vn -0.309017 0.000000 -0.951056
vn -0.309017 -0.000000 -0.951057
vn -0.309017 -0.000000 -0.951057
vn -0.318383 -0.024275 -0.947651
vn -0.289646 -0.001274 -0.957133
vn -0.309017 -0.000000 -0.951057
vn -0.275722 -0.001027 -0.961237
vn -0.331353 -0.005366 -0.943492
vn -0.310763 -0.020654 -0.950263
vn -0.309017 0.000000 -0.951056
vn -0.309017 0.000000 -0.951057
vn -0.287010 0.002703 -0.957924
vn -0.319603 0.021420 -0.947310
vn -0.309017 0.000000 -0.951057
vn -0.309017 0.000000 -0.951057
vn -0.309017 0.000000 -0.951056
vn -0.310763 -0.020654 -0.950263
vn -0.287010 0.002703 -0.957924
vn -0.309017 0.000000 -0.951057
vn -0.289646 -0.001274 -0.957133
vn -0.318383 -0.024275 -0.947651
vn -0.224490 -0.020278 -0.974265
vn -0.318383 -0.024275 -0.947651
vn -0.327831 0.003376 -0.944730
vn -0.224490 -0.020278 -0.974265
vn -0.312475 0.022092 -0.949669
vn -0.289646 -0.001274 -0.957133
vn -0.224490 -0.020278 -0.974265
vn -0.287010 0.002703 -0.957924
vn -0.310763 -0.020654 -0.950263
vn -0.229795 0.028484 -0.972822
vn -0.310763 -0.020654 -0.950263
vn -0.331353 -0.005366 -0.943492
vn -0.229795 0.028484 -0.972822
vn -0.319603 0.021420 -0.947310
vn -0.287010 0.002703 -0.957924
vn -0.229795 0.028484 -0.972822
vn -0.317590 0.000553 -0.948228
vn -0.308545 0.008887 -0.951168
vn -0.346253 -0.008517 -0.938103
vn -0.308545 0.008887 -0.951168
vn -0.275722 -0.001027 -0.961237
vn -0.346253 -0.008517 -0.938103
vn -0.275722 -0.001027 -0.961237
vn -0.309254 -0.007967 -0.950946
vn -0.346253 -0.008517 -0.938103
vn -0.309254 -0.007967 -0.950946
vn -0.317590 0.000553 -0.948228
vn -0.346253 -0.008517 -0.938103
vn -0.327831 0.003376 -0.944730
vn -0.275722 -0.001027 -0.961237
vn -0.309017 0.000000 -0.951056
vn -0.312475 0.022092 -0.949669
vn -0.224490 -0.020278 -0.974265
vn -0.327831 0.003376 -0.944730
vn -0.312475 0.022092 -0.949669
vn -0.309017 0.000000 -0.951057
vn -0.319603 0.021420 -0.947310
vn -0.331353 -0.005366 -0.943492
vn -0.275722 -0.001027 -0.961237
vn -0.308545 0.008887 -0.951168
vn -0.229795 0.028484 -0.972822
vn -0.331353 -0.005366 -0.943492
vn -0.319603 0.021420 -0.947310
vn -0.309017 0.000000 -0.951056
vn -0.309254 -0.007967 -0.950946
vn -0.309017 0.000000 -0.951056
vn -0.308545 0.008887 -0.951168
vn -0.317590 0.000553 -0.948228
vn -0.309017 0.000000 -0.951056
vn -0.309017 0.000000 -0.951056
vn -0.309017 0.000000 0.951057
vn -0.309017 0.000000 0.951057
vn -0.309017 -0.000000 0.951057
vn -0.309017 0.000000 0.951057
vn -0.309017 0.000000 0.951057
vn -0.309017 0.000000 0.951057
s off
f 1/1/1 2/2/2 43/3/3 44/4/4
f 2/2/5 3/5/6 42/6/7 43/3/8
f 3/5/9 4/7/10 41/8/11 42/6/12
f 5/9/13 6/10/14 49/11/15 50/12/16
f 6/10/17 7/13/18 48/14/19 49/11/20
f 7/13/21 8/15/22 47/16/23 48/14/24
f 8/15/25 9/17/26 46/18/27 47/16/28
f 9/17/29 10/19/30 45/20/31 46/18/32
f 10/19/33 1/1/34 44/4/35 45/20/36
f 1/1/37 10/19/38 21/21/39 22/22/40
f 10/19/41 9/17/42 23/23/43 21/21/44
f 9/17/45 8/15/46 24/24/47 23/23/48
f 8/15/49 7/13/50 25/25/51 24/24/52
f 7/13/53 6/10/54 26/26/55 25/25/56
f 6/10/57 5/9/58 27/27/59 26/26/60
f 4/7/61 3/5/62 29/28/63 28/29/64
f 3/5/65 2/2/66 30/30/67 29/28/68
f 2/2/69 1/1/70 22/22/71 30/30/72
f 11/31/73 12/32/74 32/33/75 31/34/76
f 12/32/77 13/35/78 33/36/79 32/33/80
f 13/35/81 14/37/82 34/38/83 33/36/84
f 15/39/85 16/40/86 36/41/87 35/42/88
f 16/40/89 17/43/90 37/44/91 36/41/92
f 17/43/93 18/45/94 38/46/95 37/44/96
f 18/45/97 19/47/98 39/48/99 38/46/100
f 19/47/101 20/49/102 40/50/103 39/48/104
f 20/49/105 11/31/106 31/34/107 40/50/108
f 42/6/109 41/8/110 14/37/111 13/35/112
f 43/3/113 42/6/114 13/35/115 12/32/116
f 44/4/117 43/3/118 12/32/119 11/31/120
f 45/20/121 44/4/122 11/31/123 20/49/124
f 46/18/125 45/20/126 20/49/127 19/47/128
f 47/16/129 46/18/130 19/47/131 18/45/132
f 48/14/133 47/16/134 18/45/135 17/43/136
f 49/11/137 48/14/138 17/43/139 16/40/140
f 50/12/141 49/11/142 16/40/143 15/39/144
f 31/34/145 32/33/146 51/51/147
f 32/33/148 33/36/149 51/51/150
f 33/36/151 34/38/152 51/51/153
f 35/42/154 36/41/155 51/51/156
f 36/41/157 37/44/158 51/51/159
f 37/44/160 38/46/161 51/51/162
f 38/46/163 39/48/164 51/51/165
f 39/48/166 40/50/167 51/51/168
f 40/50/169 31/34/170 51/51/171
f 22/22/172 21/21/173 52/52/174
f 21/21/175 23/23/176 52/52/177
f 23/23/178 24/24/179 52/52/180
f 24/24/181 25/25/182 52/52/183
f 25/25/184 26/26/185 52/52/186
f 26/26/187 27/27/188 52/52/189
f 28/29/190 29/28/191 52/52/192
f 29/28/193 30/30/194 52/52/195
f 30/30/196 22/22/197 52/52/198
f 50/12/199 15/39/200 55/56/201 54/55/202
f 15/39/203 35/42/204 53/57/205 55/56/206
f 51/51/207 34/38/208 56/59/209 57/58/210
f 35/42/211 51/51/212 57/58/213 53/57/214
f 41/8/215 4/7/216 61/61/217 60/60/218
f 4/7/219 28/29/220 59/62/221 61/61/222
f 28/29/223 52/52/224 62/63/225 59/62/226
f 52/52/227 27/27/228 63/64/229 62/63/230
f 34/38/231 14/37/232 64/65/233 56/59/234
f 14/37/235 41/8/236 60/60/237 64/65/238
f 27/27/239 5/9/240 65/66/241 63/64/242
f 5/9/243 50/12/244 54/55/245 65/66/246
f 60/72/247 69/81/248 66/78/249 56/69/250 64/76/251
f 59/71/252 68/80/253 69/81/254 60/72/255 61/73/256
f 58/70/257 71/83/258 72/84/259 67/79/260
f 57/68/261 73/85/262 71/83/263 58/70/264
f 73/85/265 56/69/266 70/82/267
f 66/78/268 67/79/269 72/84/270 70/82/271 56/69/272
f 75/87/273 76/88/274 67/79/275 68/80/276 59/71/277
f 62/74/278 77/89/279 59/71/280
f 58/70/281 74/86/282 77/89/283 62/74/284
f 58/70/285 67/79/286 76/88/287 74/86/288
f 67/90/289 66/91/290 78/92/291
f 66/91/292 69/93/293 78/92/294
f 69/93/295 68/94/296 78/92/297
f 68/94/298 67/90/299 78/92/300
f 72/95/301 71/96/302 79/97/303
f 71/96/304 73/98/305 79/97/306
f 73/98/307 70/99/308 79/97/309
f 70/99/310 72/95/311 79/97/312
f 76/100/313 75/101/314 80/102/315
f 75/101/316 77/103/317 80/102/318
f 77/103/319 74/104/320 80/102/321
f 74/104/322 76/100/323 80/102/324
f 85/109/325 62/74/326 63/75/327
f 57/68/328 58/70/329 84/108/330 82/106/331
f 53/53/332 82/106/333 83/107/334 95/130/335 86/110/336
f 55/67/337 91/115/338 87/111/339 81/105/340 54/54/341
f 53/53/342 86/110/343 91/115/344 55/67/345
f 83/107/346 96/132/347 88/112/348 81/105/349
f 65/77/350 90/114/351 89/113/352 63/75/353
f 54/54/354 81/105/355 88/112/356 90/114/357 65/77/358
f 91/116/359 86/117/360 92/118/361
f 86/117/362 95/129/363 92/118/364
f 87/119/365 91/116/366 92/118/367
f 90/120/368 88/121/369 93/122/370
f 88/121/371 96/131/372 93/122/373
f 89/123/374 90/120/375 93/122/376
f 84/124/377 85/125/378 94/126/379
f 85/125/380 83/127/381 94/126/382
f 83/127/383 82/128/384 94/126/385
f 82/128/386 84/124/387 94/126/388
f 95/130/389 83/107/390 81/105/391 87/111/392
f 92/118/393 95/129/394 87/119/395
f 63/75/396 89/113/397 96/132/398 83/107/399 85/109/400
f 93/122/401 96/131/402 89/123/403
f 57/68/404 82/106/405 53/53/406
f 85/109/407 84/108/408 58/70/409 62/74/410
f 57/68/411 56/69/412 73/85/413
f 59/71/414 77/89/415 75/87/416
