# This file uses centimeters as units for non-parametric coordinates.

v 0.727705 7.451309 0.962142
v -1.201710 8.237195 1.062900
v 0.727705 7.451309 -0.962142
v -1.201710 8.237195 -1.062900
v 0.808980 1.338663 1.027228
v -1.228073 1.442733 1.017866
v -1.228073 1.442733 -1.017866
v 0.808980 1.338663 -1.027228
v 3.405883 10.805266 0.971499
v 5.357873 10.086725 1.059871
v 5.357873 10.086725 -1.059871
v 3.405883 10.805266 -0.971499
v 3.977398 14.697573 0.974176
v 5.884706 15.491381 1.057499
v 5.884706 15.491381 -1.057499
v 3.977398 14.697573 -0.974176
v 1.854901 17.025328 0.973259
v 2.180312 19.075317 1.056058
v 2.180312 19.075317 -1.056058
v 1.854901 17.025328 -0.973259
v -2.523505 16.731705 0.667548
v -3.563949 17.772909 0.754190
v -3.563949 17.772909 -0.754190
v -2.523505 16.731705 -0.667548
v -4.824834 13.119245 0.520750
v -5.460169 13.939040 0.507419
v -5.460169 13.939040 -0.507419
v -4.824834 13.119245 -0.520750
v -19.872688 -2.710966 1.102187
v 19.872688 -2.710966 1.102187
v -19.872688 -0.506592 1.102187
v 19.872688 -0.506592 1.102187
v -19.872688 -0.506592 -1.102187
v 19.872688 -0.506592 -1.102187
v -19.872688 -2.710966 -1.102187
v 19.872688 -2.710966 -1.102187
v 0.000000 2.505258 -2.222262
v 0.000000 -1.939266 -2.222262
v 0.000000 -1.939266 2.222262
v 0.000000 2.505258 2.222262
v 9.936344 1.903393 2.049752
v 9.936344 1.903393 -2.049752
v 9.936344 -2.196112 -2.049752
v 9.936344 -2.196112 2.049752
v -9.936344 1.903393 2.049752
v -9.936344 1.903393 -2.049752
v -9.936344 -2.196112 -2.049752
v -9.936344 -2.196112 2.049752
vt 0.080913 0.277100
vt 0.080913 0.277100
vt 0.080913 0.277100
vt 0.080913 0.277100
vt 0.080913 0.277100
vt 0.080913 0.277100
vt 0.080913 0.277100
vt 0.080913 0.277100
vt 0.080913 0.277100
vt 0.080913 0.277100
vt 0.080913 0.277100
vt 0.080913 0.277100
vt 0.080913 0.277100
vt 0.080913 0.277100
vt 0.080913 0.277100
vt 0.080913 0.277100
vt 0.080913 0.277100
vt 0.080913 0.277100
vt 0.080913 0.277100
vt 0.080913 0.277100
vt 0.080913 0.277100
vt 0.080913 0.277100
vt 0.080913 0.277100
vt 0.080913 0.277100
vt 0.080913 0.277100
vt 0.080913 0.277100
vt 0.080913 0.277100
vt 0.080913 0.277100
vt 0.080913 0.277100
vt 0.080913 0.277100
vt 0.080913 0.277100
vt 0.080913 0.277100
vt 0.005719 0.302548
vt 0.005539 0.302538
vt 0.005594 0.301907
vt 0.005780 0.301916
vt 0.005584 0.301574
vt 0.005761 0.301582
vt 0.005532 0.302185
vt 0.005703 0.302194
vt 0.005000 0.302508
vt 0.005018 0.302158
vt 0.005054 0.301548
vt 0.005037 0.301879
vt 0.005408 0.301565
vt 0.005231 0.301557
vt 0.005189 0.302167
vt 0.005361 0.302176
vt 0.005360 0.302528
vt 0.005180 0.302518
vt 0.005409 0.301897
vt 0.005223 0.301888
vn 0.000000 0.000000 1.000000
vn 0.000000 0.000000 1.000000
vn 0.000000 0.000000 1.000000
vn 0.000000 0.000000 1.000000
vn -0.935861 0.352369 -0.000000
vn -0.935861 0.352369 -0.000000
vn -0.935861 0.352369 -0.000000
vn -0.935861 0.352369 -0.000000
vn -0.000000 -0.000000 -1.000000
vn -0.000000 -0.000000 -1.000000
vn -0.000000 -0.000000 -1.000000
vn -0.000000 -0.000000 -1.000000
vn 0.936256 -0.351318 0.000000
vn 0.936256 -0.351318 0.000000
vn 0.936256 -0.351318 0.000000
vn 0.936256 -0.351318 0.000000
vn -0.000000 -0.000000 1.000000
vn -0.000000 -0.000000 1.000000
vn -0.000000 -0.000000 1.000000
vn -0.000000 -0.000000 1.000000
vn 0.935861 -0.352369 -0.000000
vn 0.935861 -0.352369 -0.000000
vn 0.935861 -0.352369 -0.000000
vn 0.935861 -0.352369 -0.000000
vn 0.000000 0.000000 -1.000000
vn 0.000000 0.000000 -1.000000
vn 0.000000 0.000000 -1.000000
vn 0.000000 0.000000 -1.000000
vn -0.936256 0.351318 0.000000
vn -0.936256 0.351318 0.000000
vn -0.936256 0.351318 0.000000
vn -0.936256 0.351318 0.000000
vn -0.000000 -0.000000 1.000000
vn -0.000000 -0.000000 1.000000
vn -0.000000 -0.000000 1.000000
vn -0.000000 -0.000000 1.000000
vn 0.996822 -0.079668 0.000000
vn 0.996822 -0.079668 0.000000
vn 0.996822 -0.079668 0.000000
vn 0.996822 -0.079668 0.000000
vn -0.000000 -0.000000 -1.000000
vn -0.000000 -0.000000 -1.000000
vn -0.000000 -0.000000 -1.000000
vn -0.000000 -0.000000 -1.000000
vn -0.994295 0.106669 -0.000000
vn -0.994295 0.106669 -0.000000
vn -0.994295 0.106669 -0.000000
vn -0.994295 0.106669 -0.000000
vn -0.000000 -0.000000 1.000000
vn -0.000000 -0.000000 1.000000
vn -0.000000 -0.000000 1.000000
vn -0.000000 -0.000000 1.000000
vn 0.708309 0.705902 0.000000
vn 0.708309 0.705902 0.000000
vn 0.708309 0.705902 0.000000
vn 0.708309 0.705902 0.000000
vn -0.000000 -0.000000 -1.000000
vn -0.000000 -0.000000 -1.000000
vn -0.000000 -0.000000 -1.000000
vn -0.000000 -0.000000 -1.000000
vn -0.704274 -0.709929 -0.000000
vn -0.704274 -0.709929 -0.000000
vn -0.704274 -0.709929 -0.000000
vn -0.704274 -0.709929 -0.000000
vn -0.000000 -0.000000 1.000000
vn -0.000000 -0.000000 1.000000
vn -0.000000 -0.000000 1.000000
vn -0.000000 -0.000000 1.000000
vn 0.011048 0.999939 0.000000
vn 0.011048 0.999939 0.000000
vn 0.011048 0.999939 0.000000
vn 0.011048 0.999939 0.000000
vn 0.000000 0.000000 -1.000000
vn 0.000000 0.000000 -1.000000
vn 0.000000 0.000000 -1.000000
vn 0.000000 0.000000 -1.000000
vn -0.010316 -0.999947 -0.000000
vn -0.010316 -0.999947 -0.000000
vn -0.010316 -0.999947 -0.000000
vn -0.010316 -0.999947 -0.000000
vn 0.547189 -0.565446 -0.617135
vn 0.547189 -0.565446 0.617135
vn -0.662409 0.168877 0.729859
vn -0.662409 0.168877 -0.729859
vn 0.859935 -0.510403 -0.000000
vn 0.859935 -0.510403 -0.000000
vn 0.547189 -0.565446 0.617135
vn 0.547189 -0.565446 -0.617135
vn -0.000000 -0.000000 1.000000
vn -0.000000 -0.000000 1.000000
vn -0.662409 0.168877 0.729859
vn 0.547189 -0.565446 0.617135
vn -0.814323 0.580412 0.000000
vn -0.814323 0.580412 0.000000
vn -0.662409 0.168877 -0.729859
vn -0.662409 0.168877 0.729859
vn 0.000000 0.000000 -1.000000
vn 0.000000 0.000000 -1.000000
vn 0.547189 -0.565446 -0.617135
vn -0.662409 0.168877 -0.729859
vn -0.094933 0.000000 0.995484
vn -0.051345 0.000000 0.998681
vn -0.046662 0.000000 0.998911
vn -0.094933 0.000000 0.995484
vn -0.235708 0.971824 0.000000
vn -0.133460 0.991054 0.000000
vn -0.133460 0.991054 0.000000
vn -0.235708 0.971824 0.000000
vn -0.094933 0.000000 -0.995484
vn -0.046662 0.000000 -0.998911
vn -0.051345 0.000000 -0.998681
vn -0.094933 0.000000 -0.995484
vn 0.051746 -0.998660 0.000000
vn 0.036387 -0.999338 0.000000
vn 0.036387 -0.999338 0.000000
vn 0.051746 -0.998660 0.000000
vn 1.000000 0.000000 0.000000
vn 1.000000 0.000000 0.000000
vn 1.000000 0.000000 0.000000
vn 1.000000 0.000000 0.000000
vn -1.000000 0.000000 0.000000
vn -1.000000 0.000000 0.000000
vn -1.000000 0.000000 0.000000
vn -1.000000 0.000000 0.000000
vn 0.000000 0.000000 -1.000000
vn 0.046662 0.000000 -0.998911
vn 0.051345 0.000000 -0.998681
vn 0.000000 0.000000 -1.000000
vn 0.000000 -1.000000 0.000000
vn 0.000000 -1.000000 0.000000
vn -0.036387 -0.999338 0.000000
vn -0.036387 -0.999338 0.000000
vn 0.000000 0.000000 1.000000
vn 0.000000 0.000000 1.000000
vn 0.051345 0.000000 0.998681
vn 0.046662 0.000000 0.998911
vn 0.000000 1.000000 0.000000
vn 0.133460 0.991054 0.000000
vn 0.133460 0.991054 0.000000
vn 0.000000 1.000000 0.000000
vn 0.133460 0.991054 0.000000
vn 0.133460 0.991054 0.000000
vn 0.235708 0.971824 0.000000
vn 0.235708 0.971824 0.000000
vn 0.051345 0.000000 -0.998681
vn 0.046662 0.000000 -0.998911
vn 0.094933 0.000000 -0.995484
vn 0.094933 0.000000 -0.995484
vn -0.036387 -0.999338 0.000000
vn -0.036387 -0.999338 0.000000
vn -0.051746 -0.998660 0.000000
vn -0.051746 -0.998660 0.000000
vn 0.046662 0.000000 0.998911
vn 0.051345 0.000000 0.998681
vn 0.094933 0.000000 0.995484
vn 0.094933 0.000000 0.995484
vn -0.133460 0.991054 0.000000
vn -0.133460 0.991054 0.000000
vn 0.000000 1.000000 0.000000
vn 0.000000 1.000000 0.000000
vn -0.051345 0.000000 -0.998681
vn -0.046662 0.000000 -0.998911
vn 0.000000 0.000000 -1.000000
vn 0.000000 0.000000 -1.000000
vn 0.036387 -0.999338 0.000000
vn 0.036387 -0.999338 0.000000
vn 0.000000 -1.000000 0.000000
vn 0.000000 -1.000000 0.000000
vn -0.046662 0.000000 0.998911
vn -0.051345 0.000000 0.998681
vn 0.000000 0.000000 1.000000
vn 0.000000 0.000000 1.000000
s off
f 1/2/1 2/1/2 6/6/3 5/5/4
f 2/1/5 4/3/6 7/7/7 6/6/8
f 4/3/9 3/4/10 8/8/11 7/7/12
f 3/4/13 1/2/14 5/5/15 8/8/16
f 2/9/17 1/10/18 10/11/19 9/12/20
f 1/10/21 3/13/22 11/14/23 10/11/24
f 3/13/25 4/15/26 12/16/27 11/14/28
f 4/15/29 2/9/30 9/12/31 12/16/32
f 9/12/33 10/11/34 14/17/35 13/18/36
f 10/11/37 11/14/38 15/19/39 14/17/40
f 11/14/41 12/16/42 16/20/43 15/19/44
f 12/16/45 9/12/46 13/18/47 16/20/48
f 13/18/49 14/17/50 18/21/51 17/22/52
f 14/17/53 15/19/54 19/23/55 18/21/56
f 15/19/57 16/20/58 20/24/59 19/23/60
f 16/20/61 13/18/62 17/22/63 20/24/64
f 17/22/65 18/21/66 22/25/67 21/26/68
f 18/21/69 19/23/70 23/27/71 22/25/72
f 19/23/73 20/24/74 24/28/75 23/27/76
f 20/24/77 17/22/78 21/26/79 24/28/80
f 28/32/81 25/29/82 26/30/83 27/31/84
f 24/28/85 21/26/86 25/29/87 28/32/88
f 21/26/89 22/25/90 26/30/91 25/29/92
f 22/25/93 23/27/94 27/31/95 26/30/96
f 23/27/97 24/28/98 28/32/99 27/31/100
f 29/33/101 48/34/102 45/35/103 31/36/104
f 31/36/105 45/35/106 46/37/107 33/38/108
f 33/38/109 46/37/110 47/39/111 35/40/112
f 35/40/113 47/39/114 48/34/115 29/33/116
f 30/41/117 36/42/118 34/43/119 32/44/120
f 35/40/121 29/33/122 31/36/123 33/38/124
f 37/45/125 42/46/126 43/47/127 38/48/128
f 39/49/129 38/48/130 43/47/131 44/50/132
f 40/51/133 39/49/134 44/50/135 41/52/136
f 40/51/137 41/52/138 42/46/139 37/45/140
f 42/46/141 41/52/142 32/44/143 34/43/144
f 43/47/145 42/46/146 34/43/147 36/42/148
f 44/50/149 43/47/150 36/42/151 30/41/152
f 41/52/153 44/50/154 30/41/155 32/44/156
f 46/37/157 45/35/158 40/51/159 37/45/160
f 47/39/161 46/37/162 37/45/163 38/48/164
f 48/34/165 47/39/166 38/48/167 39/49/168
f 45/35/169 48/34/170 39/49/171 40/51/172
