# This file uses centimeters as units for non-parametric coordinates.

v 7.317045 -4.244020 -10.071050
v -0.000001 -4.244020 -12.448501
v -7.317047 -4.244020 -10.071048
v -11.839229 -4.244020 -3.846797
v -11.839227 -4.244020 3.846799
v -7.317045 -4.244020 10.071049
v -0.000000 -4.244020 12.448501
v 7.317045 -4.244020 10.071050
v 11.839227 -4.244020 3.846798
v 11.839226 -4.244020 -3.846798
v 7.317045 4.244020 -10.071050
v -0.000001 4.244020 -12.448501
v -7.317047 4.244020 -10.071048
v -11.839229 4.244020 -3.846797
v -11.839227 4.244020 3.846799
v -7.317045 4.244020 10.071049
v -0.000000 4.244020 12.448501
v 7.317045 4.244020 10.071050
v 11.839227 4.244020 3.846798
v 11.839226 4.244020 -3.846798
v 8.673560 -5.692676 -2.818210
v 5.360555 -5.692676 -7.378172
v 8.673560 -5.692676 2.818211
v 5.360555 -5.692676 7.378173
v -0.000000 -5.692676 9.119922
v -5.360555 -5.692676 7.378172
v -8.673560 -5.692676 2.818211
v -8.673563 -5.692676 -2.818210
v -5.360557 -5.692676 -7.378170
v -0.000001 -5.692676 -9.119922
v 5.360555 5.692676 -7.378172
v -0.000001 5.692676 -9.119922
v -5.360557 5.692676 -7.378170
v -8.673563 5.692676 -2.818210
v -8.673560 5.692676 2.818211
v -5.360555 5.692676 7.378172
v -0.000000 5.692676 9.119922
v 5.360555 5.692676 7.378173
v 8.673560 5.692676 2.818211
v 8.673560 5.692676 -2.818210
v -12.622271 0.000000 -4.101223
v -7.800994 0.000000 -10.737144
v -0.000001 0.000000 -13.271842
v 7.800991 0.000000 -10.737146
v 12.622268 0.000000 -4.101223
v 12.622269 0.000000 4.101224
v 7.800992 0.000000 10.737144
v 0.000000 0.000000 13.271842
v -7.800992 0.000000 10.737144
v -12.622269 0.000000 4.101225
v -0.000000 5.921724 0.000000
v -0.000001 -5.921724 0.000000
vt 0.216812 0.469558
vt 0.216921 0.452422
vt 0.216967 0.452249
vt 0.216843 0.469396
vt 0.216857 0.469795
vt 0.216902 0.469613
vt 0.216593 0.469884
vt 0.216609 0.469697
vt 0.216249 0.469871
vt 0.216223 0.469685
vt 0.216027 0.457910
vt 0.215980 0.469585
vt 0.216011 0.450776
vt 0.215967 0.450606
vt 0.216150 0.450678
vt 0.216123 0.469379
vt 0.216368 0.451709
vt 0.216361 0.456403
vt 0.216606 0.456565
vt 0.216618 0.469343
vt 0.216722 0.469635
vt 0.216570 0.456652
vt 0.216390 0.469580
vt 0.216228 0.450758
vt 0.216133 0.450835
vt 0.216155 0.469792
vt 0.216315 0.469866
vt 0.216550 0.469875
vt 0.216737 0.469814
vt 0.216793 0.452474
vt 0.216742 0.464878
vt 0.216821 0.469240
vt 0.216763 0.469298
vt 0.216559 0.463947
vt 0.216301 0.469330
vt 0.216128 0.469285
vt 0.216105 0.469227
vt 0.216210 0.456247
vt 0.216385 0.456224
vt 0.216579 0.469160
vt 0.216832 0.469234
vt 0.216950 0.469308
vt 0.216886 0.469398
vt 0.216603 0.449522
vt 0.216233 0.449513
vt 0.215997 0.469377
vt 0.215983 0.469288
vt 0.216133 0.469221
vt 0.216363 0.460028
vt 0.216614 0.469193
vt 0.216459 0.456307
vt 0.216459 0.469718
vn 0.303888 -0.181443 -0.935271
vn 0.303888 -0.181443 -0.935270
vn 0.309017 0.000000 -0.951057
vn 0.309017 0.000000 -0.951057
vn -0.303888 -0.181443 -0.935270
vn -0.303888 -0.181443 -0.935270
vn -0.309017 0.000000 -0.951056
vn -0.309017 0.000000 -0.951057
vn -0.795589 -0.181442 -0.578029
vn -0.795589 -0.181442 -0.578029
vn -0.809017 -0.000000 -0.587785
vn -0.809017 -0.000000 -0.587785
vn -0.983402 -0.181442 0.000000
vn -0.983402 -0.181442 0.000000
vn -1.000000 0.000000 0.000000
vn -1.000000 0.000000 0.000000
vn -0.795589 -0.181443 0.578029
vn -0.795589 -0.181443 0.578029
vn -0.809017 -0.000000 0.587785
vn -0.809017 -0.000000 0.587785
vn -0.303888 -0.181443 0.935270
vn -0.303888 -0.181443 0.935270
vn -0.309017 0.000000 0.951056
vn -0.309017 0.000000 0.951057
vn 0.303888 -0.181442 0.935270
vn 0.303888 -0.181442 0.935270
vn 0.309017 0.000000 0.951057
vn 0.309017 0.000000 0.951057
vn 0.795589 -0.181442 0.578029
vn 0.795589 -0.181442 0.578029
vn 0.809017 -0.000000 0.587785
vn 0.809017 -0.000000 0.587785
vn 0.983402 -0.181442 -0.000000
vn 0.983402 -0.181442 -0.000000
vn 1.000000 0.000000 -0.000000
vn 1.000000 0.000000 -0.000000
vn 0.795589 -0.181442 -0.578029
vn 0.795589 -0.181442 -0.578029
vn 0.809017 0.000000 -0.587785
vn 0.809017 0.000000 -0.587785
vn 0.336644 -0.909312 -0.244586
vn 0.336644 -0.909312 -0.244586
vn 0.336644 -0.909312 -0.244586
vn 0.336644 -0.909312 -0.244586
vn 0.416115 -0.909312 -0.000000
vn 0.416115 -0.909312 -0.000000
vn 0.416115 -0.909312 -0.000000
vn 0.416115 -0.909312 -0.000000
vn 0.336644 -0.909312 0.244586
vn 0.336644 -0.909312 0.244586
vn 0.336644 -0.909312 0.244586
vn 0.336644 -0.909312 0.244586
vn 0.128586 -0.909312 0.395748
vn 0.128586 -0.909312 0.395748
vn 0.128586 -0.909312 0.395748
vn 0.128586 -0.909312 0.395748
vn -0.128586 -0.909312 0.395748
vn -0.128586 -0.909312 0.395748
vn -0.128586 -0.909312 0.395748
vn -0.128586 -0.909312 0.395748
vn -0.336644 -0.909312 0.244586
vn -0.336644 -0.909312 0.244586
vn -0.336644 -0.909312 0.244586
vn -0.336644 -0.909312 0.244586
vn -0.416114 -0.909312 0.000000
vn -0.416114 -0.909312 0.000000
vn -0.416114 -0.909312 0.000000
vn -0.416114 -0.909312 0.000000
vn -0.336644 -0.909312 -0.244586
vn -0.336644 -0.909312 -0.244586
vn -0.336644 -0.909312 -0.244586
vn -0.336644 -0.909312 -0.244586
vn -0.128586 -0.909312 -0.395748
vn -0.128586 -0.909312 -0.395748
vn -0.128586 -0.909312 -0.395748
vn -0.128586 -0.909312 -0.395748
vn 0.128586 -0.909312 -0.395748
vn 0.128586 -0.909312 -0.395748
vn 0.128586 -0.909312 -0.395748
vn 0.128586 -0.909312 -0.395748
vn 0.128586 0.909312 -0.395748
vn 0.128586 0.909312 -0.395748
vn 0.128586 0.909312 -0.395748
vn 0.128586 0.909312 -0.395748
vn -0.128586 0.909312 -0.395748
vn -0.128586 0.909312 -0.395748
vn -0.128586 0.909312 -0.395748
vn -0.128586 0.909312 -0.395748
vn -0.336644 0.909312 -0.244586
vn -0.336644 0.909312 -0.244586
vn -0.336644 0.909312 -0.244586
vn -0.336644 0.909312 -0.244586
vn -0.416114 0.909312 0.000000
vn -0.416114 0.909312 0.000000
vn -0.416114 0.909312 0.000000
vn -0.416114 0.909312 0.000000
vn -0.336644 0.909312 0.244586
vn -0.336644 0.909312 0.244586
vn -0.336644 0.909312 0.244586
vn -0.336644 0.909312 0.244586
vn -0.128586 0.909312 0.395748
vn -0.128586 0.909312 0.395748
vn -0.128586 0.909312 0.395748
vn -0.128586 0.909312 0.395748
vn 0.128586 0.909312 0.395749
vn 0.128586 0.909312 0.395748
vn 0.128586 0.909312 0.395748
vn 0.128586 0.909312 0.395748
vn 0.336644 0.909312 0.244586
vn 0.336644 0.909312 0.244586
vn 0.336644 0.909312 0.244586
vn 0.336644 0.909312 0.244586
vn 0.416115 0.909312 -0.000000
vn 0.416115 0.909312 -0.000000
vn 0.416115 0.909312 -0.000000
vn 0.416115 0.909312 -0.000000
vn 0.336644 0.909312 -0.244586
vn 0.336644 0.909312 -0.244586
vn 0.336644 0.909312 -0.244586
vn 0.336644 0.909312 -0.244586
vn -0.809017 -0.000000 -0.587785
vn -0.809017 -0.000000 -0.587785
vn -0.795589 0.181442 -0.578029
vn -0.795589 0.181442 -0.578029
vn -0.309017 0.000000 -0.951057
vn -0.309017 0.000000 -0.951056
vn -0.303888 0.181443 -0.935270
vn -0.303888 0.181443 -0.935270
vn 0.309017 0.000000 -0.951057
vn 0.309017 0.000000 -0.951057
vn 0.303888 0.181443 -0.935270
vn 0.303888 0.181443 -0.935271
vn 0.809017 0.000000 -0.587785
vn 0.809017 0.000000 -0.587785
vn 0.795589 0.181442 -0.578029
vn 0.795589 0.181442 -0.578029
vn 1.000000 0.000000 -0.000000
vn 1.000000 0.000000 -0.000000
vn 0.983402 0.181442 -0.000000
vn 0.983402 0.181442 -0.000000
vn 0.809017 -0.000000 0.587785
vn 0.809017 -0.000000 0.587785
vn 0.795589 0.181442 0.578029
vn 0.795589 0.181442 0.578029
vn 0.309017 0.000000 0.951057
vn 0.309017 0.000000 0.951057
vn 0.303888 0.181442 0.935270
vn 0.303888 0.181442 0.935270
vn -0.309017 0.000000 0.951057
vn -0.309017 0.000000 0.951056
vn -0.303888 0.181443 0.935270
vn -0.303888 0.181443 0.935270
vn -0.809017 -0.000000 0.587785
vn -0.809017 -0.000000 0.587785
vn -0.795589 0.181442 0.578029
vn -0.795589 0.181442 0.578029
vn -1.000000 0.000000 0.000000
vn -1.000000 0.000000 0.000000
vn -0.983402 0.181442 0.000000
vn -0.983402 0.181442 0.000000
vn 0.008158 0.999651 -0.025106
vn 0.008158 0.999652 -0.025106
vn 0.008158 0.999652 -0.025106
vn -0.008158 0.999652 -0.025106
vn -0.008158 0.999651 -0.025106
vn -0.008158 0.999651 -0.025106
vn -0.021357 0.999652 -0.015517
vn -0.021357 0.999652 -0.015517
vn -0.021357 0.999651 -0.015517
vn -0.026398 0.999652 0.000000
vn -0.026398 0.999651 0.000000
vn -0.026398 0.999651 0.000000
vn -0.021357 0.999652 0.015517
vn -0.021357 0.999651 0.015517
vn -0.021357 0.999652 0.015517
vn -0.008158 0.999651 0.025106
vn -0.008158 0.999651 0.025106
vn -0.008158 0.999651 0.025106
vn 0.008158 0.999652 0.025106
vn 0.008158 0.999652 0.025106
vn 0.008158 0.999651 0.025106
vn 0.021357 0.999652 0.015517
vn 0.021357 0.999651 0.015517
vn 0.021357 0.999652 0.015517
vn 0.026398 0.999651 0.000000
vn 0.026398 0.999651 0.000000
vn 0.026398 0.999652 0.000000
vn 0.021357 0.999652 -0.015517
vn 0.021357 0.999652 -0.015517
vn 0.021357 0.999651 -0.015517
vn 0.021357 -0.999651 -0.015517
vn 0.021357 -0.999652 -0.015517
vn 0.021357 -0.999651 -0.015517
vn 0.026398 -0.999651 0.000000
vn 0.026398 -0.999651 0.000000
vn 0.026398 -0.999651 0.000000
vn 0.021357 -0.999652 0.015517
vn 0.021357 -0.999652 0.015517
vn 0.021357 -0.999652 0.015517
vn 0.008158 -0.999652 0.025106
vn 0.008158 -0.999652 0.025106
vn 0.008158 -0.999651 0.025106
vn -0.008158 -0.999651 0.025106
vn -0.008158 -0.999651 0.025106
vn -0.008158 -0.999651 0.025106
vn -0.021357 -0.999651 0.015516
vn -0.021357 -0.999652 0.015516
vn -0.021357 -0.999652 0.015516
vn -0.026398 -0.999652 0.000000
vn -0.026398 -0.999651 0.000000
vn -0.026398 -0.999652 0.000000
vn -0.021357 -0.999652 -0.015517
vn -0.021357 -0.999652 -0.015517
vn -0.021357 -0.999651 -0.015517
vn -0.008158 -0.999651 -0.025106
vn -0.008158 -0.999652 -0.025106
vn -0.008158 -0.999651 -0.025106
vn 0.008158 -0.999652 -0.025106
vn 0.008158 -0.999651 -0.025106
vn 0.008158 -0.999652 -0.025106
s off
f 1/1/1 2/2/2 43/3/3 44/4/4
f 2/2/5 3/5/6 42/6/7 43/3/8
f 3/5/9 4/7/10 41/8/11 42/6/12
f 4/7/13 5/9/14 50/10/15 41/8/16
f 5/9/17 6/11/18 49/12/19 50/10/20
f 6/11/21 7/13/22 48/14/23 49/12/24
f 7/13/25 8/15/26 47/16/27 48/14/28
f 8/15/29 9/17/30 46/18/31 47/16/32
f 9/17/33 10/19/34 45/20/35 46/18/36
f 10/19/37 1/1/38 44/4/39 45/20/40
f 1/1/41 10/19/42 21/22/43 22/21/44
f 10/19/45 9/17/46 23/23/47 21/22/48
f 9/17/49 8/15/50 24/24/51 23/23/52
f 8/15/53 7/13/54 25/25/55 24/24/56
f 7/13/57 6/11/58 26/26/59 25/25/60
f 6/11/61 5/9/62 27/27/63 26/26/64
f 5/9/65 4/7/66 28/28/67 27/27/68
f 4/7/69 3/5/70 29/29/71 28/28/72
f 3/5/73 2/2/74 30/30/75 29/29/76
f 2/2/77 1/1/78 22/21/79 30/30/80
f 11/41/81 12/42/82 32/32/83 31/31/84
f 12/42/85 13/43/86 33/33/87 32/32/88
f 13/43/89 14/44/90 34/34/91 33/33/92
f 14/44/93 15/45/94 35/35/95 34/34/96
f 15/45/97 16/46/98 36/36/99 35/35/100
f 16/46/101 17/47/102 37/37/103 36/36/104
f 17/47/105 18/48/106 38/38/107 37/37/108
f 18/48/109 19/49/110 39/39/111 38/38/112
f 19/49/113 20/50/114 40/40/115 39/39/116
f 20/50/117 11/41/118 31/31/119 40/40/120
f 42/6/121 41/8/122 14/44/123 13/43/124
f 43/3/125 42/6/126 13/43/127 12/42/128
f 44/4/129 43/3/130 12/42/131 11/41/132
f 45/20/133 44/4/134 11/41/135 20/50/136
f 46/18/137 45/20/138 20/50/139 19/49/140
f 47/16/141 46/18/142 19/49/143 18/48/144
f 48/14/145 47/16/146 18/48/147 17/47/148
f 49/12/149 48/14/150 17/47/151 16/46/152
f 50/10/153 49/12/154 16/46/155 15/45/156
f 41/8/157 50/10/158 15/45/159 14/44/160
f 31/31/161 32/32/162 51/51/163
f 32/32/164 33/33/165 51/51/166
f 33/33/167 34/34/168 51/51/169
f 34/34/170 35/35/171 51/51/172
f 35/35/173 36/36/174 51/51/175
f 36/36/176 37/37/177 51/51/178
f 37/37/179 38/38/180 51/51/181
f 38/38/182 39/39/183 51/51/184
f 39/39/185 40/40/186 51/51/187
f 40/40/188 31/31/189 51/51/190
f 22/21/191 21/22/192 52/52/193
f 21/22/194 23/23/195 52/52/196
f 23/23/197 24/24/198 52/52/199
f 24/24/200 25/25/201 52/52/202
f 25/25/203 26/26/204 52/52/205
f 26/26/206 27/27/207 52/52/208
f 27/27/209 28/28/210 52/52/211
f 28/28/212 29/29/213 52/52/214
f 29/29/215 30/30/216 52/52/217
f 30/30/218 22/21/219 52/52/220
