# This file uses centimeters as units for non-parametric coordinates.

v 4.800349 0.000000 -10.385676
v -4.800349 0.000000 -10.385676
v -11.589068 0.000000 -3.596959
v -11.589069 0.000000 3.641231
v -4.800349 0.000000 10.429949
v 4.800349 0.000000 10.429955
v 11.589069 0.000000 3.641233
v 11.589071 0.000000 -3.596955
v 6.677203 3.312481 -16.057808
v -6.677204 3.312481 -16.057808
v -16.120192 3.312481 -6.614819
v -16.120192 3.312481 6.659094
v -6.677203 3.312481 16.102079
v 6.677204 3.312481 16.102085
v 16.120193 3.312481 6.659094
v 16.120193 3.312481 -6.614819
v 5.146452 3.312481 -12.347513
v -5.146451 3.312481 -12.347513
v -12.424633 3.312481 -4.640755
v -12.424633 3.312481 4.685029
v -5.146451 3.312481 12.391788
v 5.146453 3.312481 12.391789
v 12.424633 3.312481 4.685029
v 12.424633 3.312481 -4.640755
v 3.899928 1.758706 -9.448528
v -3.899927 1.758706 -9.448528
v -9.415262 1.758706 -3.098340
v -9.415262 1.758706 3.142615
v -3.899927 1.758706 9.492799
v 3.899929 1.758706 9.492804
v 9.415262 1.758706 3.142615
v 9.415262 1.758706 -3.098340
v 6.527609 2.131820 -15.605715
v -6.527609 2.131820 -15.605717
v -15.759039 2.131820 -6.374281
v -15.759041 2.131820 6.418555
v -6.527609 2.131820 15.649986
v 6.527609 2.131820 15.649990
v 15.759045 2.131820 6.418557
v 15.759045 2.131820 -6.374279
v 0.000000 1.758706 0.022135
v 0.000000 0.000000 0.022140
vt 0.218604 0.302754
vt 0.218854 0.302882
vt 0.218865 0.302856
vt 0.218609 0.302726
vt 0.218914 0.303104
vt 0.218928 0.303082
vt 0.218577 0.303425
vt 0.218582 0.303413
vt 0.218205 0.303450
vt 0.218197 0.303438
vt 0.217943 0.303271
vt 0.217928 0.303255
vt 0.217950 0.303027
vt 0.217936 0.303005
vt 0.218303 0.302770
vt 0.218299 0.302743
vt 0.218559 0.302869
vt 0.218334 0.302882
vt 0.218079 0.303076
vt 0.218081 0.303253
vt 0.218270 0.303378
vt 0.218532 0.303361
vt 0.218779 0.303132
vt 0.218742 0.302967
vt 0.218563 0.302857
vt 0.218713 0.302938
vt 0.218730 0.303082
vt 0.218495 0.303293
vt 0.218267 0.303319
vt 0.218113 0.303218
vt 0.218124 0.303062
vt 0.218365 0.302878
vt 0.218782 0.302886
vt 0.218584 0.302783
vt 0.218819 0.303067
vt 0.218534 0.303329
vt 0.218237 0.303354
vt 0.218030 0.303217
vt 0.218038 0.303020
vt 0.218334 0.302801
vt 0.218415 0.303088
vt 0.218411 0.303110
vn 0.000000 -0.357595 -0.933877
vn 0.000000 -0.357595 -0.933877
vn 0.000000 -0.357595 -0.933877
vn 0.000000 -0.357595 -0.933877
vn -0.665233 -0.339015 -0.665232
vn -0.665233 -0.339015 -0.665232
vn -0.665233 -0.339015 -0.665232
vn -0.665233 -0.339015 -0.665232
vn -0.956262 -0.292510 -0.000000
vn -0.956262 -0.292510 -0.000000
vn -0.956262 -0.292510 -0.000000
vn -0.956262 -0.292510 -0.000000
vn -0.665232 -0.339016 0.665233
vn -0.665232 -0.339016 0.665233
vn -0.665232 -0.339016 0.665233
vn -0.665232 -0.339016 0.665233
vn -0.000000 -0.357596 0.933876
vn -0.000000 -0.357596 0.933876
vn -0.000000 -0.357596 0.933876
vn -0.000000 -0.357596 0.933876
vn 0.665233 -0.339015 0.665232
vn 0.665233 -0.339015 0.665232
vn 0.665233 -0.339015 0.665232
vn 0.665233 -0.339015 0.665232
vn 0.956263 -0.292509 0.000000
vn 0.956263 -0.292509 0.000000
vn 0.956263 -0.292509 0.000000
vn 0.956263 -0.292509 0.000000
vn 0.665232 -0.339016 -0.665232
vn 0.665232 -0.339016 -0.665232
vn 0.665232 -0.339016 -0.665232
vn 0.665232 -0.339016 -0.665232
vn 0.000000 -1.000000 0.000000
vn 0.000000 -1.000000 0.000000
vn 0.000000 -1.000000 0.000000
vn 0.000000 -1.000000 0.000000
vn 0.000000 1.000000 0.000000
vn 0.000000 1.000000 0.000000
vn 0.000000 1.000000 0.000000
vn 0.000000 1.000000 0.000000
vn 0.000000 1.000000 0.000000
vn 0.000000 1.000000 0.000000
vn 0.000000 1.000000 0.000000
vn 0.000000 1.000000 0.000000
vn 0.000000 1.000000 0.000000
vn 0.000000 1.000000 0.000000
vn 0.000000 1.000000 0.000000
vn 0.000000 1.000000 0.000000
vn 0.000000 1.000000 0.000000
vn 0.000000 1.000000 0.000000
vn 0.000000 1.000000 0.000000
vn 0.000000 1.000000 0.000000
vn 0.000000 1.000000 0.000000
vn 0.000000 1.000000 0.000000
vn 0.000000 1.000000 0.000000
vn 0.000000 1.000000 0.000000
vn 0.000000 1.000000 -0.000000
vn 0.000000 1.000000 -0.000000
vn 0.000000 1.000000 -0.000000
vn 0.000000 1.000000 -0.000000
vn 0.000000 1.000000 0.000000
vn 0.000000 1.000000 0.000000
vn 0.000000 1.000000 0.000000
vn 0.000000 1.000000 0.000000
vn 0.000000 1.000000 0.000000
vn 0.000000 1.000000 0.000000
vn 0.000000 1.000000 0.000000
vn 0.000000 1.000000 0.000000
vn 0.000000 1.000000 -0.000000
vn 0.000000 1.000000 -0.000000
vn 0.000000 1.000000 -0.000000
vn 0.000000 1.000000 -0.000000
vn 0.000000 0.881385 0.472398
vn 0.000000 0.881385 0.472398
vn 0.000000 0.881385 0.472398
vn 0.000000 0.881385 0.472398
vn 0.334098 0.892144 0.304069
vn 0.334098 0.892144 0.304069
vn 0.334098 0.892144 0.304069
vn 0.334098 0.892144 0.304069
vn 0.458771 0.888554 0.000000
vn 0.458771 0.888554 0.000000
vn 0.458771 0.888554 0.000000
vn 0.458771 0.888554 0.000000
vn 0.334098 0.892144 -0.304069
vn 0.334098 0.892144 -0.304069
vn 0.334098 0.892144 -0.304069
vn 0.334098 0.892144 -0.304069
vn 0.000000 0.881386 -0.472397
vn 0.000000 0.881386 -0.472397
vn 0.000000 0.881386 -0.472397
vn 0.000000 0.881386 -0.472397
vn -0.334098 0.892144 -0.304069
vn -0.334098 0.892144 -0.304069
vn -0.334098 0.892144 -0.304069
vn -0.334098 0.892144 -0.304069
vn -0.458771 0.888554 0.000000
vn -0.458771 0.888554 0.000000
vn -0.458771 0.888554 0.000000
vn -0.458771 0.888554 0.000000
vn -0.334098 0.892144 0.304069
vn -0.334098 0.892144 0.304069
vn -0.334098 0.892144 0.304069
vn -0.334098 0.892144 0.304069
vn 0.000000 -0.925774 -0.378078
vn 0.000000 -0.925774 -0.378078
vn 0.000000 -0.925774 -0.378078
vn 0.000000 -0.925774 -0.378078
vn -0.281493 -0.917346 -0.281493
vn -0.281493 -0.917346 -0.281493
vn -0.281493 -0.917346 -0.281493
vn -0.281493 -0.917346 -0.281493
vn -0.455196 -0.890391 -0.000000
vn -0.455196 -0.890391 -0.000000
vn -0.455196 -0.890391 -0.000000
vn -0.455196 -0.890391 -0.000000
vn -0.281493 -0.917346 0.281493
vn -0.281493 -0.917346 0.281493
vn -0.281493 -0.917346 0.281493
vn -0.281493 -0.917346 0.281493
vn -0.000000 -0.925774 0.378078
vn -0.000000 -0.925774 0.378078
vn -0.000000 -0.925774 0.378078
vn -0.000000 -0.925774 0.378078
vn 0.281493 -0.917346 0.281493
vn 0.281493 -0.917346 0.281493
vn 0.281493 -0.917346 0.281493
vn 0.281493 -0.917346 0.281493
vn 0.455196 -0.890391 0.000000
vn 0.455196 -0.890391 0.000000
vn 0.455196 -0.890391 0.000000
vn 0.455196 -0.890391 0.000000
vn 0.281493 -0.917346 -0.281493
vn 0.281493 -0.917346 -0.281493
vn 0.281493 -0.917346 -0.281493
vn 0.281493 -0.917346 -0.281493
vn 0.000000 1.000000 -0.000000
vn 0.000000 1.000000 -0.000000
vn 0.000000 1.000000 -0.000000
vn 0.000000 1.000000 -0.000000
vn 0.000000 1.000000 0.000000
vn 0.000000 1.000000 0.000000
vn 0.000000 1.000000 0.000000
vn 0.000000 1.000000 0.000000
vn 0.000000 1.000000 0.000000
vn 0.000000 1.000000 0.000000
vn 0.000000 1.000000 0.000000
vn 0.000000 1.000000 0.000000
vn 0.000000 -1.000000 0.000000
vn 0.000000 -1.000000 0.000000
vn 0.000000 -1.000000 0.000000
vn 0.000000 -1.000000 0.000000
vn 0.000000 -1.000000 0.000000
vn 0.000000 -1.000000 0.000000
vn 0.000000 -1.000000 0.000000
vn 0.000000 -1.000000 0.000000
vn 0.000000 -1.000000 0.000000
vn 0.000000 -1.000000 0.000000
vn 0.000000 -1.000000 0.000000
vn 0.000000 -1.000000 0.000000
s off
f 33/1/1 34/2/2 10/3/3 9/4/4
f 34/2/5 35/5/6 11/6/7 10/3/8
f 35/5/9 36/7/10 12/8/11 11/6/12
f 36/7/13 37/9/14 13/10/15 12/8/16
f 37/9/17 38/11/18 14/12/19 13/10/20
f 38/11/21 39/13/22 15/14/23 14/12/24
f 39/13/25 40/15/26 16/16/27 15/14/28
f 40/15/29 33/1/30 9/4/31 16/16/32
f 42/42/33 8/18/34 7/19/35 6/20/36
f 31/31/37 41/41/38 29/29/39 30/30/40
f 9/4/41 10/3/42 18/33/43 17/34/44
f 10/3/45 11/6/46 19/35/47 18/33/48
f 11/6/49 12/8/50 20/36/51 19/35/52
f 12/8/53 13/10/54 21/37/55 20/36/56
f 13/10/57 14/12/58 22/38/59 21/37/60
f 14/12/61 15/14/62 23/39/63 22/38/64
f 15/14/65 16/16/66 24/40/67 23/39/68
f 16/16/69 9/4/70 17/34/71 24/40/72
f 17/34/73 18/33/74 26/26/75 25/25/76
f 18/33/77 19/35/78 27/27/79 26/26/80
f 19/35/81 20/36/82 28/28/83 27/27/84
f 20/36/85 21/37/86 29/29/87 28/28/88
f 21/37/89 22/38/90 30/30/91 29/29/92
f 22/38/93 23/39/94 31/31/95 30/30/96
f 23/39/97 24/40/98 32/32/99 31/31/100
f 24/40/101 17/34/102 25/25/103 32/32/104
f 1/17/105 2/24/106 34/2/107 33/1/108
f 2/24/109 3/23/110 35/5/111 34/2/112
f 3/23/113 4/22/114 36/7/115 35/5/116
f 4/22/117 5/21/118 37/9/119 36/7/120
f 5/21/121 6/20/122 38/11/123 37/9/124
f 6/20/125 7/19/126 39/13/127 38/11/128
f 7/19/129 8/18/130 40/15/131 39/13/132
f 8/18/133 1/17/134 33/1/135 40/15/136
f 41/41/137 27/27/138 28/28/139 29/29/140
f 25/25/141 41/41/142 31/31/143 32/32/144
f 25/25/145 26/26/146 27/27/147 41/41/148
f 4/22/149 42/42/150 6/20/151 5/21/152
f 2/24/153 42/42/154 4/22/155 3/23/156
f 1/17/157 8/18/158 42/42/159 2/24/160
