# This file uses centimeters as units for non-parametric coordinates.

v 0.000000 -0.084637 -0.000005
v -1.455120 34.215706 -2.520439
v 1.455154 34.215706 -2.520439
v 2.910347 34.215706 0.000000
v 1.455154 34.215706 2.520443
v -1.455120 34.215706 2.520443
v -2.910313 34.215706 0.000000
v 1.520771 29.163677 -2.633980
v -1.520714 29.163677 -2.633980
v -3.041466 29.163677 0.000000
v -1.520737 29.163675 2.634010
v 1.520771 29.163677 2.634010
v 3.041496 29.163675 0.000000
v -1.957073 34.600555 -3.389870
v 1.957104 34.600555 -3.389870
v -3.914234 34.600555 0.000000
v -1.957073 34.600555 3.389874
v 1.957104 34.600555 3.389874
v 3.914268 34.600555 0.000000
v -1.868698 37.122547 -3.236797
v 1.868732 37.122547 -3.236797
v -3.737480 37.122547 0.000000
v -1.868698 37.122547 3.236801
v 1.868732 37.122547 3.236801
v 3.737514 37.122547 0.000000
v 0.000015 37.122547 0.000000
v 6.635460 -0.084637 7.511909
v 7.693241 -0.084637 6.466927
v 8.419479 1.634892 9.248005
v 9.471207 1.634892 8.197147
v -7.693241 -0.084637 6.466927
v -6.635460 -0.084637 7.511909
v -9.471207 1.634892 8.197147
v -8.419479 1.634892 9.248005
v 7.693241 -0.084637 -6.466938
v 6.635452 -0.084637 -7.511917
v 9.471207 1.634892 -8.197117
v 8.419479 1.634892 -9.247974
v -6.635452 -0.084637 -7.511917
v -7.693241 -0.084637 -6.466938
v -8.419479 1.634892 -9.247974
v -9.471207 1.634892 -8.197117
v -10.102047 10.366430 -10.885986
v -11.149330 10.369408 -9.846161
v -10.963303 11.840550 -9.650822
v -9.903450 11.842346 -10.704086
v -4.140301 24.204412 5.071419
v -5.193813 24.204412 4.022301
v -9.903446 11.842346 10.704117
v -10.961578 11.844242 9.643703
v -11.148628 10.365754 9.840504
v -10.102047 10.366430 10.886017
v 5.193813 24.204412 4.022301
v 4.140301 24.204412 5.071419
v 10.963303 11.840550 9.650852
v 9.896885 11.845710 10.702583
v 10.102047 10.366430 10.886017
v 11.148628 10.365754 9.840504
v 4.140301 24.204412 -5.071384
v 5.193813 24.204412 -4.022266
v 9.903450 11.842346 -10.704086
v 10.961578 11.844242 -9.643669
v 11.148628 10.365754 -9.840473
v 10.102047 10.366430 -10.885986
v -5.193813 24.204412 -4.022266
v -4.140301 24.204412 -5.071384
v -9.691131 14.566782 -8.409725
v -9.689787 14.569660 8.404184
v -8.632673 14.568182 9.462107
v 8.627559 14.570805 9.460912
v 9.691131 14.566782 8.409757
v 9.689787 14.569660 -8.404150
v 8.632676 14.568182 -9.462076
v -8.632676 14.568182 -9.462076
v -5.930319 20.364788 -6.820886
v 5.930319 20.364788 -6.820886
v 6.985266 20.365377 -5.768259
v 6.985801 20.364231 5.770514
v 5.928280 20.365833 6.820443
v -5.930318 20.364788 6.820919
v -6.985266 20.365377 5.768293
v -6.985801 20.364231 -5.770480
v -6.985284 20.365337 5.370093
v -9.690029 14.569141 5.371308
v -6.985781 20.364275 -5.335185
v -9.690885 14.567309 -5.333978
v 6.985277 20.365351 -5.520278
v 9.690018 14.569167 -5.521489
v 6.985784 20.364267 5.401891
v 9.690890 14.567297 5.400677
vt -0.895254 0.202968
vt -0.895375 0.202990
vt -0.895195 0.203024
vt -0.895244 0.202971
vt -0.895426 0.202933
vt -0.895258 0.202964
vt -0.895292 0.202909
vt -0.895243 0.202964
vt -0.895105 0.202945
vt -0.895231 0.202967
vt -0.895061 0.203003
vt -0.895229 0.202971
vt -0.895242 0.202967
vt -0.895242 0.202967
vt -0.895242 0.202967
vt -0.895242 0.202967
vt -0.895602 0.203076
vt -0.895122 0.203166
vt -0.895745 0.202923
vt -0.895383 0.202858
vt -0.894877 0.202955
vt -0.894760 0.203110
vt -0.895627 0.203385
vt -0.895165 0.203469
vt -0.895766 0.203247
vt -0.895418 0.203193
vt -0.894932 0.203284
vt -0.894817 0.203422
vt -0.895288 0.203335
vt -0.895242 0.202967
vt -0.895242 0.202967
vt -0.895242 0.202967
vt -0.895242 0.202967
vt -0.895242 0.202967
vt -0.895242 0.202967
vt -0.895242 0.202967
vt -0.895242 0.202967
vt -0.895242 0.202967
vt -0.895242 0.202967
vt -0.895242 0.202967
vt -0.895242 0.202967
vt -0.895242 0.202967
vt -0.895242 0.202967
vt -0.895242 0.202967
vt -0.895242 0.202967
vt -0.895242 0.202967
vt -0.895242 0.202967
vt -0.895242 0.202967
vt -0.895242 0.202967
vt -0.895242 0.202967
vt -0.895242 0.202967
vt -0.895242 0.202967
vt -0.895242 0.202967
vt -0.895242 0.202967
vt -0.895242 0.202967
vt -0.895242 0.202967
vt -0.895242 0.202967
vt -0.895242 0.202967
vt -0.895242 0.202967
vt -0.895242 0.202967
vt -0.895242 0.202967
vt -0.895242 0.202967
vt -0.895242 0.202967
vt -0.895242 0.202967
vt -0.895242 0.202967
vt -0.895242 0.202967
vt -0.895242 0.202967
vt -0.895242 0.202967
vt -0.895242 0.202967
vt -0.895242 0.202967
vt -0.895242 0.202967
vt -0.895242 0.202967
vt -0.895242 0.202967
vt -0.895242 0.202967
vt -0.895242 0.202967
vt -0.895242 0.202967
vt -0.895242 0.202967
vt -0.895242 0.202967
vt -0.895242 0.202967
vt -0.895242 0.202967
vt -0.895242 0.202967
vt -0.895242 0.202967
vt -0.895242 0.202967
vt -0.895242 0.202967
vt -0.895242 0.202967
vt -0.895242 0.202967
vt -0.895242 0.202967
vt -0.895242 0.202967
vt 0.684536 0.052905
vt 0.684536 0.028825
vt 0.724836 0.028825
vt 0.724836 0.052905
vt -0.895242 0.202967
vt -0.895242 0.202967
vt 0.684127 0.052905
vt 0.684128 0.028825
vt 0.725244 0.028825
vt 0.725244 0.052905
vt -0.895242 0.202967
vn 0.000000 0.022469 -0.999748
vn 0.000000 0.022469 -0.999748
vn 0.000000 0.022469 -0.999748
vn 0.000000 0.022469 -0.999748
vn -0.865804 0.022476 -0.499879
vn -0.865804 0.022476 -0.499879
vn -0.865804 0.022476 -0.499879
vn -0.865804 0.022476 -0.499879
vn -0.865807 0.022479 0.499873
vn -0.865807 0.022479 0.499873
vn -0.865807 0.022479 0.499873
vn -0.865807 0.022479 0.499873
vn 0.000000 0.022474 0.999748
vn 0.000000 0.022474 0.999748
vn 0.000000 0.022474 0.999748
vn 0.000000 0.022474 0.999748
vn 0.865807 0.022479 0.499873
vn 0.865807 0.022479 0.499873
vn 0.865807 0.022479 0.499873
vn 0.865807 0.022479 0.499873
vn 0.865806 0.022478 -0.499875
vn 0.865806 0.022478 -0.499875
vn 0.865806 0.022478 -0.499875
vn 0.865806 0.022478 -0.499875
vn 0.650233 0.608814 -0.454470
vn 0.650233 0.608814 -0.454470
vn 0.650233 0.608814 -0.454470
vn 0.650233 0.608814 -0.454470
vn -0.650232 0.608817 0.454466
vn -0.650232 0.608817 0.454466
vn -0.650232 0.608817 0.454466
vn -0.650232 0.608817 0.454466
vn 0.000000 -0.914421 -0.404764
vn 0.000000 -0.914421 -0.404764
vn 0.000000 -0.914421 -0.404764
vn 0.000000 -0.914421 -0.404764
vn -0.350539 -0.914419 -0.202386
vn -0.350539 -0.914419 -0.202386
vn -0.350539 -0.914419 -0.202386
vn -0.350539 -0.914419 -0.202386
vn -0.350539 -0.914419 0.202385
vn -0.350539 -0.914419 0.202385
vn -0.350539 -0.914419 0.202385
vn -0.350539 -0.914419 0.202385
vn 0.000000 -0.914422 0.404763
vn 0.000000 -0.914422 0.404763
vn 0.000000 -0.914422 0.404763
vn 0.000000 -0.914422 0.404763
vn 0.350539 -0.914419 0.202385
vn 0.350539 -0.914419 0.202385
vn 0.350539 -0.914419 0.202385
vn 0.350539 -0.914419 0.202385
vn 0.350539 -0.914419 -0.202386
vn 0.350539 -0.914419 -0.202386
vn 0.350539 -0.914419 -0.202386
vn 0.350539 -0.914419 -0.202386
vn 0.000000 0.060584 -0.998163
vn 0.000000 0.060584 -0.998163
vn 0.000000 0.060584 -0.998163
vn 0.000000 0.060584 -0.998163
vn -0.864433 0.060584 -0.499085
vn -0.864433 0.060584 -0.499085
vn -0.864433 0.060584 -0.499085
vn -0.864433 0.060584 -0.499085
vn -0.864433 0.060584 0.499084
vn -0.864433 0.060584 0.499084
vn -0.864433 0.060584 0.499084
vn -0.864433 0.060584 0.499084
vn 0.000000 0.060584 0.998163
vn 0.000000 0.060584 0.998163
vn 0.000000 0.060584 0.998163
vn 0.000000 0.060584 0.998163
vn 0.864433 0.060583 0.499085
vn 0.864433 0.060583 0.499085
vn 0.864433 0.060583 0.499085
vn 0.864433 0.060583 0.499085
vn 0.864432 0.060583 -0.499086
vn 0.864432 0.060583 -0.499086
vn 0.864432 0.060583 -0.499086
vn 0.864432 0.060583 -0.499086
vn 0.000000 1.000000 -0.000001
vn 0.000000 1.000000 -0.000001
vn 0.000000 1.000000 -0.000001
vn 0.000000 1.000000 0.000000
vn 0.000000 1.000000 0.000000
vn 0.000000 1.000000 0.000000
vn 0.000000 1.000000 0.000000
vn 0.000000 1.000000 0.000000
vn 0.000000 1.000000 0.000000
vn 0.000000 1.000000 0.000001
vn 0.000000 1.000000 0.000001
vn 0.000000 1.000000 0.000001
vn 0.000000 1.000000 0.000001
vn 0.000000 1.000000 0.000001
vn 0.000000 1.000000 0.000001
vn 0.000000 1.000000 -0.000003
vn 0.000000 1.000000 -0.000003
vn 0.000000 1.000000 -0.000003
vn -0.917331 0.398126 0.000000
vn -0.917331 0.398126 0.000000
vn -0.917331 0.398126 0.000000
vn 0.917333 0.398122 0.000000
vn 0.917333 0.398122 0.000000
vn 0.917333 0.398122 0.000000
vn 0.000000 -1.000000 0.000000
vn 0.000000 -1.000000 0.000000
vn 0.000000 -1.000000 0.000000
vn 0.000000 -1.000000 0.000000
vn 0.000000 -1.000000 0.000000
vn 0.000000 -1.000000 0.000000
vn 0.000000 -1.000000 0.000000
vn 0.000000 -1.000000 0.000000
vn 0.000000 -1.000000 0.000000
vn 0.000000 -1.000000 0.000000
vn 0.000000 -1.000000 0.000000
vn 0.000000 -1.000000 0.000000
vn -0.000000 0.441090 0.897463
vn -0.000000 0.441090 0.897463
vn -0.000000 0.441090 0.897463
vn -0.000000 0.441090 0.897463
vn 0.000000 0.441090 -0.897463
vn 0.000000 0.441090 -0.897463
vn 0.000000 0.441090 -0.897463
vn 0.000000 0.441090 -0.897463
vn 0.401074 -0.822299 0.403689
vn 0.401074 -0.822299 0.403689
vn 0.401074 -0.822299 0.403689
vn 0.401074 -0.822299 0.403689
vn 0.682488 -0.259700 0.683203
vn 0.682488 -0.259700 0.683203
vn 0.682488 -0.259700 0.683203
vn 0.682488 -0.259700 0.683203
vn -0.401073 -0.822299 0.403689
vn -0.401073 -0.822299 0.403689
vn -0.401073 -0.822299 0.403689
vn -0.401073 -0.822299 0.403689
vn -0.682488 -0.259700 0.683203
vn -0.682488 -0.259700 0.683203
vn -0.682488 -0.259700 0.683203
vn -0.682488 -0.259700 0.683203
vn 0.401075 -0.822296 -0.403693
vn 0.401075 -0.822296 -0.403693
vn 0.401075 -0.822296 -0.403693
vn 0.401075 -0.822296 -0.403693
vn 0.682488 -0.259700 -0.683203
vn 0.682488 -0.259700 -0.683203
vn 0.682488 -0.259700 -0.683203
vn 0.682488 -0.259700 -0.683203
vn -0.401075 -0.822296 -0.403693
vn -0.401075 -0.822296 -0.403693
vn -0.401075 -0.822296 -0.403693
vn -0.401075 -0.822296 -0.403693
vn -0.681638 -0.259879 -0.683983
vn -0.681638 -0.259879 -0.683983
vn -0.681638 -0.259879 -0.683983
vn -0.681638 -0.259879 -0.683983
vn 0.000000 0.122320 -0.992491
vn 0.000000 0.122320 -0.992491
vn 0.000000 0.122320 -0.992491
vn 0.000000 0.122320 -0.992491
vn -0.992096 0.125483 0.000062
vn -0.992096 0.125483 0.000062
vn -0.992096 0.125483 0.000062
vn -0.992096 0.125483 0.000062
vn -0.591037 0.546069 -0.593703
vn -0.591037 0.546069 -0.593704
vn -0.591075 0.546069 -0.593665
vn -0.591075 0.546069 -0.593665
vn -0.591715 0.545982 0.593108
vn -0.591717 0.545982 0.593105
vn -0.592084 0.545985 0.592736
vn -0.592082 0.545985 0.592738
vn 0.000028 0.122690 0.992445
vn 0.000028 0.122690 0.992445
vn 0.000028 0.122690 0.992445
vn 0.000028 0.122690 0.992445
vn 0.590567 0.545980 0.594252
vn 0.590571 0.545980 0.594249
vn 0.590162 0.545976 0.594658
vn 0.590159 0.545976 0.594661
vn 0.992145 0.125098 -0.000032
vn 0.992145 0.125098 -0.000032
vn 0.992145 0.125098 -0.000032
vn 0.992145 0.125098 -0.000032
vn 0.591716 0.545983 -0.593107
vn 0.591718 0.545983 -0.593104
vn 0.592086 0.545986 -0.592735
vn 0.592084 0.545986 -0.592736
vn 0.000000 0.414631 -0.909990
vn 0.000000 0.414631 -0.909990
vn 0.000000 0.414631 -0.909989
vn 0.000000 0.414631 -0.909989
vn 0.000000 -0.710489 0.703709
vn 0.000000 -0.710489 0.703709
vn 0.000000 -0.710489 0.703709
vn 0.000000 -0.710489 0.703709
vn 0.695195 -0.718821 0.000000
vn 0.695195 -0.718821 0.000000
vn 0.695195 -0.718821 0.000000
vn 0.695195 -0.718821 0.000000
vn 0.000000 -0.710481 -0.703716
vn 0.000000 -0.710481 -0.703716
vn 0.000000 -0.710481 -0.703716
vn 0.000000 -0.710481 -0.703716
vn -0.695195 -0.718821 0.000000
vn -0.695195 -0.718821 0.000000
vn -0.695195 -0.718821 0.000000
vn -0.695195 -0.718821 0.000000
vn 0.000000 0.414631 0.909990
vn 0.000000 0.414631 0.909990
vn -0.000000 0.414631 0.909990
vn -0.000000 0.414631 0.909990
vn 0.906192 0.422867 -0.000000
vn 0.906192 0.422867 -0.000000
vn 0.906192 0.422867 -0.000000
vn 0.906192 0.422867 -0.000000
vn -0.906192 0.422867 0.000000
vn -0.906192 0.422867 0.000000
vn -0.906192 0.422866 0.000000
vn -0.906192 0.422867 0.000000
vn -0.982040 -0.188675 0.000000
vn -0.982040 -0.188675 0.000000
vn -0.982040 -0.188675 0.000000
vn -0.982040 -0.188675 0.000000
vn 0.000000 -0.184381 0.982855
vn 0.000000 -0.184381 0.982855
vn 0.000000 -0.184381 0.982855
vn 0.000000 -0.184381 0.982855
vn 0.982040 -0.188675 0.000000
vn 0.982040 -0.188675 0.000000
vn 0.982040 -0.188675 0.000000
vn 0.982040 -0.188675 0.000000
vn 0.000000 -0.184381 -0.982855
vn 0.000000 -0.184381 -0.982855
vn 0.000000 -0.184381 -0.982855
vn 0.000000 -0.184381 -0.982855
vn 0.000000 -1.000000 0.000000
vn 0.000000 -1.000000 0.000000
vn 0.000000 -1.000000 0.000000
vn 0.000000 -1.000000 0.000000
vn 0.000000 -1.000000 0.000000
vn 0.000000 -1.000000 0.000000
vn 0.000000 -1.000000 0.000000
vn 0.000000 -1.000000 0.000000
vn 0.000000 -1.000000 0.000000
vn 0.000000 -1.000000 0.000000
vn 0.000000 -1.000000 0.000000
vn 0.000000 -1.000000 0.000000
vn -0.693201 0.179812 -0.697954
vn -0.693201 0.179812 -0.697954
vn -0.693201 0.179812 -0.697954
vn -0.693201 0.179812 -0.697954
vn -0.695712 0.179954 0.695415
vn -0.695712 0.179954 0.695415
vn -0.695712 0.179954 0.695415
vn -0.695712 0.179954 0.695415
vn 0.650235 0.608814 0.454467
vn 0.650235 0.608814 0.454467
vn 0.650235 0.608814 0.454467
vn 0.650235 0.608814 0.454467
vn 0.693228 0.179781 0.697935
vn 0.693228 0.179781 0.697935
vn 0.693228 0.179781 0.697935
vn 0.693228 0.179781 0.697935
vn 0.695713 0.179953 -0.695414
vn 0.695713 0.179953 -0.695414
vn 0.695713 0.179953 -0.695414
vn 0.695713 0.179953 -0.695414
vn -0.650229 0.608818 -0.454470
vn -0.650229 0.608818 -0.454470
vn -0.650229 0.608818 -0.454470
vn -0.650229 0.608818 -0.454470
vn -0.906192 0.422867 0.000000
vn -0.906192 0.422866 0.000000
vn -0.906192 0.422867 0.000000
vn -0.592082 0.545985 0.592738
vn -0.592084 0.545985 0.592736
vn -0.591869 0.545984 0.592952
vn -0.591869 0.545984 0.592952
vn 0.000000 0.414631 0.909990
vn 0.000000 0.414631 0.909990
vn 0.000000 0.414631 0.909990
vn 0.000000 0.414631 0.909990
vn 0.590159 0.545976 0.594661
vn 0.590162 0.545976 0.594658
vn 0.590399 0.545979 0.594421
vn 0.590399 0.545979 0.594421
vn 0.906192 0.422867 -0.000000
vn 0.906192 0.422867 -0.000000
vn 0.906192 0.422867 -0.000000
vn 0.592084 0.545986 -0.592736
vn 0.592086 0.545986 -0.592735
vn 0.591870 0.545984 -0.592951
vn 0.591870 0.545984 -0.592951
vn 0.000000 0.414631 -0.909990
vn 0.000000 0.414631 -0.909990
vn 0.000000 0.414631 -0.909990
vn 0.000000 0.414631 -0.909990
vn -0.591060 0.546069 -0.593681
vn -0.591060 0.546069 -0.593681
vn -0.591037 0.546069 -0.593704
vn -0.591037 0.546069 -0.593703
vn 0.000000 0.414631 -0.909989
vn 0.000000 0.414631 -0.909989
vn 0.000000 0.414631 -0.909990
vn 0.000000 0.414631 -0.909990
vn 0.591870 0.545984 -0.592951
vn 0.591870 0.545984 -0.592951
vn 0.591718 0.545983 -0.593104
vn 0.591716 0.545983 -0.593107
vn 0.906192 0.422867 -0.000000
vn 0.906192 0.422867 -0.000000
vn 0.906192 0.422867 -0.000000
vn 0.590399 0.545979 0.594421
vn 0.590399 0.545979 0.594421
vn 0.590571 0.545980 0.594249
vn 0.590567 0.545980 0.594252
vn -0.000000 0.414631 0.909990
vn -0.000000 0.414631 0.909990
vn 0.000000 0.414631 0.909990
vn 0.000000 0.414631 0.909990
vn -0.591869 0.545984 0.592952
vn -0.591869 0.545984 0.592952
vn -0.591717 0.545982 0.593105
vn -0.591715 0.545982 0.593108
vn -0.906192 0.422867 0.000000
vn -0.906192 0.422867 0.000000
vn -0.906192 0.422867 0.000000
vn -0.591075 0.546069 -0.593665
vn -0.591075 0.546069 -0.593665
vn -0.591060 0.546069 -0.593681
vn -0.591060 0.546069 -0.593681
vn -0.906192 0.422867 0.000000
vn -0.906192 0.422867 0.000000
vn -0.906192 0.422867 0.000000
vn -0.906192 0.422867 0.000000
vn -0.906192 0.422867 0.000000
vn -0.906192 0.422867 0.000000
vn -0.906192 0.422867 0.000000
vn -0.906192 0.422867 0.000000
vn -0.906192 0.422866 0.000000
vn -0.906192 0.422867 0.000000
vn -0.906192 0.422867 0.000000
vn -0.906192 0.422867 0.000000
vn -0.906192 0.422867 0.000000
vn -0.906192 0.422867 0.000000
vn -0.906192 0.422866 0.000000
vn -0.906192 0.422867 0.000000
vn -0.906192 0.422867 0.000000
vn -0.906192 0.422867 0.000000
vn -0.906192 0.422867 0.000000
vn -0.906192 0.422867 0.000000
vn -0.906192 0.422867 0.000000
vn -0.906192 0.422867 0.000000
vn 0.906192 0.422867 -0.000000
vn 0.906192 0.422867 -0.000000
vn 0.906192 0.422867 -0.000000
vn 0.906192 0.422867 -0.000000
vn 0.906192 0.422867 -0.000000
vn 0.906192 0.422867 -0.000000
vn 0.906192 0.422867 -0.000000
vn 0.906192 0.422867 -0.000000
vn 0.906192 0.422867 -0.000000
vn 0.906192 0.422867 -0.000000
vn 0.906192 0.422867 -0.000000
vn 0.906192 0.422867 -0.000000
vn 0.906192 0.422867 -0.000000
vn 0.906192 0.422867 -0.000000
vn 0.906192 0.422867 -0.000000
vn 0.906192 0.422867 -0.000000
vn 0.906192 0.422867 -0.000000
vn 0.906192 0.422867 -0.000000
vn 0.906192 0.422867 -0.000000
vn 0.906192 0.422867 -0.000000
vn 0.906192 0.422867 -0.000000
vn 0.906192 0.422867 -0.000000
s off
f 9/1/1 2/2/2 3/3/3 8/4/4
f 7/5/5 2/2/6 9/1/7 10/6/8
f 6/7/9 7/5/10 10/6/11 11/8/12
f 5/9/13 6/7/14 11/8/15 12/10/16
f 4/11/17 5/9/18 12/10/19 13/12/20
f 3/3/21 4/11/22 13/12/23 8/4/24
f 59/13/25 8/4/26 13/12/27 60/14/28
f 47/15/29 11/8/30 10/6/31 48/16/32
f 3/3/33 2/2/34 14/17/35 15/18/36
f 2/2/37 7/5/38 16/19/39 14/17/40
f 7/5/41 6/7/42 17/20/43 16/19/44
f 6/7/45 5/9/46 18/21/47 17/20/48
f 5/9/49 4/11/50 19/22/51 18/21/52
f 4/11/53 3/3/54 15/18/55 19/22/56
f 15/18/57 14/17/58 20/23/59 21/24/60
f 14/17/61 16/19/62 22/25/63 20/23/64
f 16/19/65 17/20/66 23/26/67 22/25/68
f 17/20/69 18/21/70 24/27/71 23/26/72
f 18/21/73 19/22/74 25/28/75 24/27/76
f 19/22/77 15/18/78 21/24/79 25/28/80
f 21/24/81 20/23/82 26/29/83
f 20/23/84 22/25/85 26/29/86
f 22/25/87 23/26/88 26/29/89
f 23/26/90 24/27/91 26/29/92
f 24/27/93 25/28/94 26/29/95
f 25/28/96 21/24/97 26/29/98
f 10/6/99 65/30/100 48/16/101
f 13/12/102 53/31/103 60/14/104
f 1/32/105 27/33/106 32/34/107
f 28/35/108 1/32/109 35/36/110
f 1/32/111 39/37/112 36/38/113
f 40/39/114 1/32/115 31/40/116
f 47/15/117 54/41/118 12/10/119 11/8/120
f 59/13/121 66/42/122 9/1/123 8/4/124
f 27/33/125 28/35/126 30/43/127 29/44/128
f 29/44/129 30/43/130 58/45/131 57/46/132
f 31/40/133 32/34/134 34/47/135 33/48/136
f 33/48/137 34/47/138 52/49/139 51/50/140
f 35/36/141 36/38/142 38/51/143 37/52/144
f 37/52/145 38/51/146 64/53/147 63/54/148
f 39/37/149 40/39/150 42/55/151 41/56/152
f 41/56/153 42/55/154 44/57/155 43/58/156
f 43/58/157 46/59/158 61/60/159 64/53/160
f 45/61/161 44/57/162 51/50/163 50/62/164
f 74/63/165 67/64/166 82/65/167 75/66/168
f 80/67/169 81/68/170 68/69/171 69/70/172
f 49/71/173 52/49/174 57/46/175 56/72/176
f 78/73/177 79/74/178 70/75/179 71/76/180
f 55/77/181 58/45/182 63/54/183 62/78/184
f 76/79/185 77/80/186 72/81/187 73/82/188
f 73/82/189 74/63/190 75/66/191 76/79/192
f 34/47/193 32/34/194 27/33/195 29/44/196
f 30/43/197 28/35/198 35/36/199 37/52/200
f 38/51/201 36/38/202 39/37/203 41/56/204
f 42/55/205 40/39/206 31/40/207 33/48/208
f 69/70/209 70/75/210 79/74/211 80/67/212
f 87/83/213 88/84/214 72/81/215 77/80/216
f 83/85/217 84/86/218 68/69/219 81/68/220
f 42/55/221 33/48/222 51/50/223 44/57/224
f 34/47/225 29/44/226 57/46/227 52/49/228
f 63/54/229 58/45/230 30/43/231 37/52/232
f 38/51/233 41/56/234 43/58/235 64/53/236
f 27/33/237 1/32/238 28/35/239
f 31/40/240 1/87/241 32/34/242
f 35/36/243 1/32/244 36/38/245
f 39/37/246 1/32/247 40/39/248
f 43/58/249 44/57/250 45/61/251 46/59/252
f 49/71/253 50/62/254 51/50/255 52/49/256
f 12/10/257 54/41/258 53/31/259 13/12/260
f 55/77/261 56/72/262 57/46/263 58/45/264
f 61/60/265 62/78/266 63/54/267 64/53/268
f 9/1/269 66/42/270 65/30/271 10/6/272
f 50/62/273 68/69/274 84/86/275
f 69/70/276 68/69/277 50/62/278 49/71/279
f 56/72/280 70/75/281 69/70/282 49/71/283
f 71/76/284 70/75/285 56/72/286 55/77/287
f 62/78/288 72/81/289 88/84/290
f 73/82/291 72/81/292 62/78/293 61/60/294
f 46/59/295 74/63/296 73/82/297 61/60/298
f 46/59/299 45/61/300 67/64/301 74/63/302
f 76/79/303 75/66/304 66/42/305 59/13/306
f 59/13/307 60/14/308 77/80/309 76/79/310
f 60/14/311 87/83/312 77/80/313
f 53/31/314 54/41/315 79/74/316 78/73/317
f 80/67/318 79/74/319 54/41/320 47/15/321
f 47/15/322 48/16/323 81/68/324 80/67/325
f 82/65/326 85/88/327 65/30/328
f 75/66/329 82/65/330 65/30/331 66/42/332
f 85/89/333 86/90/334 84/91/335 83/92/336
f 50/62/337 84/86/338 86/93/339 45/61/340
f 67/64/341 86/93/342 85/88/343 82/65/344
f 45/61/345 86/93/346 67/64/347
f 65/30/348 85/88/349 83/85/350 48/16/351
f 48/16/352 83/85/353 81/68/354
f 53/31/355 89/94/356 87/83/357 60/14/358
f 89/95/359 90/96/360 88/97/361 87/98/362
f 62/78/363 88/84/364 90/99/365 55/77/366
f 78/73/367 89/94/368 53/31/369
f 71/76/370 90/99/371 89/94/372 78/73/373
f 55/77/374 90/99/375 71/76/376
