# This file uses centimeters as units for non-parametric coordinates.

v 0.000000 0.000000 0.000000
v 2.750431 5.525578 -4.619397
v -2.750431 5.525578 -4.619397
v -4.619396 5.525578 -2.758430
v -4.619396 5.525578 2.758430
v -2.750431 5.525578 4.619397
v 2.750431 5.525578 4.619397
v 4.619398 5.525578 2.758431
v 4.619398 5.525578 -2.758431
v 1.645732 7.267565 -1.647518
v -1.645731 7.267565 -1.647518
v -1.645731 7.267565 1.647518
v 1.645732 7.267565 1.647518
vt 0.081355 0.469826
vt 0.081678 0.469211
vt 0.081183 0.469208
vt 0.081836 0.469218
vt 0.081790 0.469239
vt 0.081566 0.469246
vt 0.080976 0.469242
vt 0.080836 0.469233
vt 0.080978 0.469213
vt 0.081227 0.469050
vt 0.081541 0.469050
vt 0.081494 0.469051
vt 0.081160 0.469050
vn 0.000000 -0.601906 -0.798567
vn 0.000000 -0.601906 -0.798567
vn 0.000000 -0.601906 -0.798567
vn -0.537413 -0.647986 -0.539723
vn -0.537413 -0.647986 -0.539723
vn -0.537413 -0.647986 -0.539723
vn -0.798567 -0.601906 -0.000000
vn -0.798567 -0.601906 -0.000000
vn -0.798567 -0.601906 -0.000000
vn -0.537413 -0.647986 0.539723
vn -0.537413 -0.647986 0.539723
vn -0.537413 -0.647986 0.539723
vn -0.000000 -0.601906 0.798567
vn -0.000000 -0.601906 0.798567
vn -0.000000 -0.601906 0.798567
vn 0.537413 -0.647986 0.539723
vn 0.537413 -0.647986 0.539723
vn 0.537413 -0.647986 0.539723
vn 0.798567 -0.601906 0.000000
vn 0.798567 -0.601906 0.000000
vn 0.798567 -0.601906 0.000000
vn 0.537413 -0.647986 -0.539723
vn 0.537413 -0.647986 -0.539723
vn 0.537413 -0.647986 -0.539723
vn 0.000000 1.000000 0.000000
vn 0.000000 1.000000 0.000000
vn 0.000000 1.000000 0.000000
vn 0.000000 1.000000 0.000000
vn -0.000000 0.862717 -0.505687
vn -0.000000 0.862717 -0.505687
vn -0.000000 0.862717 -0.505687
vn -0.000000 0.862717 -0.505687
vn -0.364675 0.856083 -0.366242
vn -0.364675 0.856083 -0.366242
vn -0.364675 0.856083 -0.366242
vn -0.505461 0.862849 -0.000000
vn -0.505461 0.862849 -0.000000
vn -0.505461 0.862849 -0.000000
vn -0.505461 0.862849 -0.000000
vn -0.364675 0.856083 0.366243
vn -0.364675 0.856083 0.366243
vn -0.364675 0.856083 0.366243
vn 0.000000 0.862717 0.505687
vn 0.000000 0.862717 0.505687
vn 0.000000 0.862717 0.505687
vn 0.000000 0.862717 0.505687
vn 0.364675 0.856083 0.366243
vn 0.364675 0.856083 0.366243
vn 0.364675 0.856083 0.366243
vn 0.505461 0.862850 -0.000000
vn 0.505461 0.862850 -0.000000
vn 0.505461 0.862850 -0.000000
vn 0.505461 0.862850 -0.000000
vn 0.364675 0.856083 -0.366243
vn 0.364675 0.856083 -0.366243
vn 0.364675 0.856083 -0.366243
s off
f 1/1/1 3/2/2 2/3/3
f 1/1/4 4/4/5 3/2/6
f 1/1/7 5/5/8 4/4/9
f 1/1/10 6/6/11 5/5/12
f 1/1/13 7/7/14 6/6/15
f 1/1/16 8/8/17 7/7/18
f 1/1/19 9/9/20 8/8/21
f 1/1/22 2/3/23 9/9/24
f 10/10/25 11/11/26 12/12/27 13/13/28
f 2/3/29 3/2/30 11/11/31 10/10/32
f 3/2/33 4/4/34 11/11/35
f 4/4/36 5/5/37 12/12/38 11/11/39
f 5/5/40 6/6/41 12/12/42
f 6/6/43 7/7/44 13/13/45 12/12/46
f 7/7/47 8/8/48 13/13/49
f 8/8/50 9/9/51 10/10/52 13/13/53
f 9/9/54 2/3/55 10/10/56
