# This file uses centimeters as units for non-parametric coordinates.

v 6.807930 -10.092972 2.647934
v -3.324959 -10.092972 14.512314
v -10.080208 -4.180641 26.828667
v -10.087769 4.180641 28.369667
v -3.343208 10.092976 17.938461
v 6.785866 10.092972 6.046707
v 13.433151 4.180649 -6.050308
v 13.440712 -4.180649 -6.017288
v 4.502380 -8.908119 -10.306465
v -6.226959 -8.775673 -2.712288
v -13.363510 -4.180641 5.881035
v -13.440880 4.180641 5.327034
v -6.389359 8.775673 -3.875237
v 4.339470 8.908119 -11.472099
v 10.185158 3.027258 -14.319328
v 10.239586 -3.027260 -13.929543
v 2.617371 -4.347374 -27.542412
v -1.569939 -4.237785 -26.763695
v -3.716980 0.048859 -25.898895
v -1.712059 4.458282 -26.377228
v 2.627625 4.590614 -27.178673
v 6.069878 0.053650 -28.100952
v 6.485893 8.821144 7.826515
v -2.220924 8.821144 18.048500
v -8.018463 3.738991 26.869911
v -8.011963 -3.448265 25.538246
v -2.205238 -8.530426 14.799927
v 6.504868 -8.530426 4.708557
v 12.206322 -3.448265 -2.690300
v 12.199821 3.738991 -2.571922
v 7.961494 4.510681 7.807037
v 2.855011 -5.337006 12.788513
v 7.601555 -5.513573 6.178841
v 11.326927 -2.093483 1.007011
v 11.282784 1.564079 1.424339
v 3.642822 5.644932 14.010719
v -1.039063 5.821815 19.067116
v -4.829849 2.419861 24.868225
v -4.783356 -1.272064 24.265167
v -1.411293 -4.186409 18.037560
v 1.066582 0.115074 -28.369637
vt 0.226661 0.225753
vt 0.226788 0.225904
vt 0.226828 0.263304
vt 0.226693 0.263206
vt 0.226892 0.245732
vt 0.226933 0.263415
vt 0.226922 0.222130
vt 0.226965 0.221808
vt 0.226855 0.247280
vt 0.226889 0.221684
vt 0.226719 0.263420
vt 0.226748 0.263180
vt 0.226613 0.263256
vt 0.226653 0.263145
vt 0.226591 0.246394
vt 0.226636 0.220991
vt 0.226996 0.262886
vt 0.226764 0.262830
vt 0.227032 0.263052
vt 0.226792 0.263137
vt 0.226536 0.263081
vt 0.226455 0.262900
vt 0.127484 0.448860
vt 0.127460 0.448865
vt 0.127421 0.448773
vt 0.127432 0.448774
vt 0.127633 0.449001
vt 0.127516 0.420330
vt 0.127691 0.449127
vt 0.127666 0.449120
vt 0.127576 0.420458
vt 0.127466 0.448858
vt 0.127406 0.448721
vt 0.127426 0.436091
vt 0.127579 0.449012
vt 0.127607 0.449012
vt 0.127645 0.449096
vt 0.127632 0.449092
vt 0.127521 0.448930
vt 0.127544 0.448944
vt 0.227896 0.301516
vt 0.227934 0.301852
vt 0.227894 0.301856
vt 0.227860 0.301569
vt 0.227798 0.302144
vt 0.227777 0.302110
vt 0.227578 0.302138
vt 0.227586 0.302105
vt 0.227383 0.301846
vt 0.227418 0.301851
vt 0.227315 0.301522
vt 0.227360 0.301572
vt 0.227437 0.301152
vt 0.227467 0.301258
vt 0.227687 0.301144
vt 0.227680 0.301253
vt 0.226694 0.262832
vn -0.060768 -0.996444 -0.058372
vn -0.060768 -0.996444 -0.058372
vn -0.060768 -0.996444 -0.058372
vn -0.060768 -0.996444 -0.058372
vn -0.553391 -0.831262 0.052556
vn -0.553391 -0.831262 0.052556
vn -0.553391 -0.831262 0.052556
vn -0.553391 -0.831262 0.052556
vn -0.990390 0.000000 0.138302
vn -0.990390 0.000000 0.138302
vn -0.990390 0.000000 0.138302
vn -0.990390 0.000000 0.138302
vn -0.553363 0.831228 0.053379
vn -0.553363 0.831228 0.053379
vn -0.553363 0.831228 0.053379
vn -0.553363 0.831228 0.053379
vn -0.058009 0.996783 -0.055310
vn -0.058009 0.996783 -0.055310
vn -0.058009 0.996783 -0.055310
vn -0.058009 0.996783 -0.055310
vn 0.540949 0.818455 -0.193662
vn 0.540949 0.818455 -0.193662
vn 0.540949 0.818455 -0.193662
vn 0.540949 0.818455 -0.193662
vn 0.929080 -0.007393 -0.369806
vn 0.929080 -0.007393 -0.369806
vn 0.929080 -0.007393 -0.369806
vn 0.929080 -0.007393 -0.369806
vn 0.531295 -0.823610 -0.198475
vn 0.531295 -0.823610 -0.198475
vn 0.531295 -0.823610 -0.198475
vn 0.531295 -0.823610 -0.198475
vn -0.140280 -0.964892 -0.222049
vn -0.140280 -0.964892 -0.222049
vn -0.140280 -0.964892 -0.222049
vn -0.140280 -0.964892 -0.222049
vn -0.798693 -0.528550 -0.287619
vn -0.798693 -0.528550 -0.287619
vn -0.798693 -0.528550 -0.287619
vn -0.798693 -0.528550 -0.287619
vn -0.955452 -0.028307 -0.293787
vn -0.955452 -0.028307 -0.293787
vn -0.955452 -0.028307 -0.293787
vn -0.813870 0.499577 -0.296712
vn -0.813870 0.499577 -0.296712
vn -0.813870 0.499577 -0.296712
vn -0.813870 0.499577 -0.296712
vn -0.144421 0.962707 -0.228775
vn -0.144421 0.962707 -0.228775
vn -0.144421 0.962707 -0.228775
vn -0.144421 0.962707 -0.228775
vn 0.655198 0.692983 -0.300817
vn 0.655198 0.692983 -0.300817
vn 0.655198 0.692983 -0.300817
vn 0.655198 0.692983 -0.300817
vn 0.958719 -0.009677 -0.284191
vn 0.958719 -0.009677 -0.284191
vn 0.958719 -0.009677 -0.284191
vn 0.649364 -0.700655 -0.295650
vn 0.649364 -0.700655 -0.295650
vn 0.649364 -0.700655 -0.295650
vn 0.649364 -0.700655 -0.295650
vn 0.884722 -0.000265 0.466119
vn 0.884722 -0.000265 0.466119
vn 0.884722 -0.000265 0.466119
vn 0.884722 -0.000265 0.466119
vn 0.615493 0.588489 0.524261
vn 0.615493 0.588489 0.524261
vn 0.615493 0.588489 0.524261
vn 0.615493 0.588489 0.524261
vn 0.562346 0.549681 0.617752
vn 0.562346 0.549681 0.617752
vn 0.562346 0.549681 0.617752
vn 0.562346 0.549681 0.617752
vn 0.585320 0.005779 0.810782
vn 0.585320 0.005779 0.810782
vn 0.585320 0.005779 0.810782
vn 0.585320 0.005779 0.810782
vn 0.619704 -0.480498 0.620555
vn 0.619704 -0.480498 0.620555
vn 0.619704 -0.480498 0.620555
vn 0.619704 -0.480498 0.620555
vn 0.656916 -0.503674 0.561046
vn 0.656916 -0.503674 0.561046
vn 0.656916 -0.503674 0.561046
vn 0.656916 -0.503674 0.561046
vn 0.896823 -0.242357 0.370098
vn 0.896823 -0.242357 0.370098
vn 0.896823 -0.242357 0.370098
vn 0.896823 -0.242357 0.370098
vn 0.942383 0.003018 0.334524
vn 0.942383 0.003018 0.334524
vn 0.942383 0.003018 0.334524
vn 0.942383 0.003018 0.334524
vn 0.892263 0.282481 0.352237
vn 0.892263 0.282481 0.352237
vn 0.892263 0.282481 0.352237
vn 0.892263 0.282481 0.352237
vn 0.866493 0.000139 0.499190
vn 0.866493 0.000139 0.499190
vn 0.866493 0.000139 0.499190
vn 0.866493 0.000139 0.499190
vn 0.596466 0.159531 0.786625
vn 0.596466 0.159531 0.786625
vn 0.596466 0.159531 0.786625
vn 0.596466 0.159531 0.786625
vn 0.718161 -0.276642 0.638525
vn 0.718161 -0.276642 0.638525
vn 0.718161 -0.276642 0.638525
vn 0.718161 -0.276642 0.638525
vn 0.884709 -0.352325 0.305217
vn 0.884709 -0.352325 0.305217
vn 0.884709 -0.352325 0.305217
vn 0.884709 -0.352325 0.305217
vn 0.975398 0.004701 0.220402
vn 0.975398 0.004701 0.220402
vn 0.975398 0.004701 0.220402
vn 0.975398 0.004701 0.220402
vn 0.893573 0.289146 0.343399
vn 0.893573 0.289146 0.343399
vn 0.893573 0.289146 0.343399
vn 0.893573 0.289146 0.343399
vn 0.658657 0.489417 0.571525
vn 0.658657 0.489417 0.571525
vn 0.658657 0.489417 0.571525
vn 0.658657 0.489417 0.571525
vn 0.634507 0.467795 0.615279
vn 0.634507 0.467795 0.615279
vn 0.634507 0.467795 0.615279
vn 0.634507 0.467795 0.615279
vn 0.579658 0.003506 0.814852
vn 0.579658 0.003506 0.814852
vn 0.579658 0.003506 0.814852
vn 0.579658 0.003506 0.814852
vn 0.710379 -0.363037 0.602964
vn 0.710379 -0.363037 0.602964
vn 0.710379 -0.363037 0.602964
vn 0.710379 -0.363037 0.602964
vn 0.912203 -0.292249 0.287188
vn 0.912203 -0.292249 0.287188
vn 0.912203 -0.292249 0.287188
vn 0.912203 -0.292249 0.287188
vn 0.726335 0.017172 0.687127
vn 0.726335 0.017172 0.687127
vn 0.726335 0.017172 0.687127
vn 0.733931 0.013866 0.679082
vn 0.733931 0.013866 0.679082
vn 0.733931 0.013866 0.679082
vn -0.183551 -0.240476 -0.953142
vn -0.183551 -0.240476 -0.953143
vn -0.183551 -0.240476 -0.953142
vn -0.457780 -0.050211 -0.887646
vn -0.457780 -0.050211 -0.887646
vn -0.457780 -0.050211 -0.887646
vn -0.457236 0.112196 -0.882240
vn -0.457236 0.112196 -0.882240
vn -0.457236 0.112196 -0.882240
vn -0.181746 0.311582 -0.932676
vn -0.181746 0.311582 -0.932676
vn -0.181746 0.311582 -0.932676
vn 0.054995 0.238809 -0.969508
vn 0.054995 0.238809 -0.969508
vn 0.054995 0.238809 -0.969508
vn 0.050871 -0.164914 -0.984995
vn 0.050871 -0.164914 -0.984995
vn 0.050871 -0.164914 -0.984995
s off
f 1/1/1 2/2/2 10/3/3 9/4/4
f 2/2/5 3/5/6 11/6/7 10/3/8
f 3/5/9 4/7/10 12/8/11 11/6/12
f 4/7/13 5/9/14 13/10/15 12/8/16
f 5/9/17 6/11/18 14/12/19 13/10/20
f 6/11/21 7/13/22 15/14/23 14/12/24
f 7/13/25 8/15/26 16/16/27 15/14/28
f 8/15/29 1/1/30 9/4/31 16/16/32
f 9/4/33 10/3/34 18/17/35 17/18/36
f 10/3/37 11/6/38 19/19/39 18/17/40
f 11/6/41 12/8/42 19/19/43
f 12/8/44 13/10/45 20/20/46 19/19/47
f 13/10/48 14/12/49 21/21/50 20/20/51
f 14/12/52 15/14/53 22/22/54 21/21/55
f 15/14/56 16/16/57 22/22/58
f 16/16/59 9/4/60 17/18/61 22/22/62
f 31/23/63 33/24/64 34/25/65 35/26/66
f 6/41/67 5/42/68 24/43/69 23/44/70
f 5/42/71 4/45/72 25/46/73 24/43/74
f 4/45/75 3/47/76 26/48/77 25/46/78
f 3/47/79 2/49/80 27/50/81 26/48/82
f 2/49/83 1/51/84 28/52/85 27/50/86
f 1/51/87 8/53/88 29/54/89 28/52/90
f 8/53/91 7/55/92 30/56/93 29/54/94
f 7/55/95 6/41/96 23/44/97 30/56/98
f 40/35/99 37/36/100 38/37/101 39/38/102
f 23/28/103 27/31/104 32/39/105 31/23/106
f 27/31/107 28/32/108 33/24/109 32/39/110
f 28/32/111 29/33/112 34/25/113 33/24/114
f 29/33/115 30/34/116 35/26/117 34/25/118
f 30/34/119 23/28/120 31/23/121 35/26/122
f 23/28/123 24/27/124 37/36/125 36/40/126
f 24/27/127 25/29/128 38/37/129 37/36/130
f 25/29/131 26/30/132 39/38/133 38/37/134
f 26/30/135 27/31/136 40/35/137 39/38/138
f 27/31/139 23/28/140 36/40/141 40/35/142
f 31/23/143 32/39/144 33/24/145
f 36/40/146 37/36/147 40/35/148
f 17/18/149 18/17/150 41/57/151
f 18/17/152 19/19/153 41/57/154
f 19/19/155 20/20/156 41/57/157
f 20/20/158 21/21/159 41/57/160
f 21/21/161 22/22/162 41/57/163
f 22/22/164 17/18/165 41/57/166
