# This file uses centimeters as units for non-parametric coordinates.

v -1.940918 0.737603 1.504456
v -0.673340 1.940601 1.860962
v -0.673340 1.940601 -1.860962
v -1.940918 0.737603 -1.504456
v 0.673340 1.940601 1.860962
v 1.940430 0.737603 1.504456
v 1.940430 0.737603 -1.504456
v 0.673340 1.940601 -1.860962
v -0.673340 -1.940602 1.504456
v -1.940918 -0.737604 1.504456
v -1.940918 -0.737604 -1.504456
v -0.673340 -1.940602 -1.504456
v 1.940430 -0.737604 1.504456
v 0.673340 -1.940602 1.504456
v 0.673340 -1.940602 -1.504456
v 1.940430 -0.737604 -1.504456
v -2.534668 1.045254 1.267151
v 2.534180 1.045254 1.267151
v 2.534180 1.045254 -1.267151
v -2.534668 1.045254 -1.267151
v -1.045898 -2.534420 -1.267151
v -2.534668 -1.045255 -1.267151
v 1.045410 -2.534420 -1.267151
v 2.534180 -1.045255 -1.267151
v 1.045410 -2.534420 1.267151
v 2.534180 -1.045255 1.267151
v -1.045898 -2.534420 1.267151
v -2.534668 -1.045255 1.267151
v 1.306641 1.339103 1.504456
v 1.306641 1.339103 -1.504456
v 1.789551 1.789837 -1.267151
v 1.789551 1.789837 1.267151
v -1.307129 1.339103 1.504456
v -1.307129 1.339103 -1.504456
v -1.790039 1.789837 -1.267151
v -1.790039 1.789837 1.267151
v -1.069336 3.240806 1.021179
v -0.691406 3.240806 1.427246
v 0.690918 3.240806 1.427246
v 1.068848 3.240806 1.021179
v 1.068848 3.240806 -1.021118
v 0.690918 3.240806 -1.427246
v -0.691406 3.240806 -1.427246
v -1.069336 3.240806 -1.021118
v -0.352051 3.872697 0.630737
v -0.868164 3.647395 0.752319
v -0.358398 3.872697 -0.639587
v -0.866211 3.650907 -0.750000
v -0.484863 3.657767 1.151550
v 0.357910 3.872697 0.639648
v 0.484375 3.657767 1.151550
v 0.865723 3.650907 0.750000
v 0.351563 3.872697 -0.630737
v 0.484375 3.657767 -1.151550
v -0.484863 3.657767 -1.151550
v 0.867676 3.647395 -0.752258
v -1.448242 2.534420 1.412781
v -0.927734 2.534420 1.933350
v -1.448242 3.113894 1.412781
v -0.927734 3.113894 1.933350
v 0.927246 2.534420 1.933350
v 1.447754 2.534420 1.412781
v 0.927246 3.113894 1.933350
v 1.447754 3.113894 1.412781
v 1.447754 2.534420 -1.412781
v 0.927246 2.534420 -1.933289
v 1.447754 3.113894 -1.412781
v 0.927246 3.113894 -1.933289
v -0.927734 2.534420 -1.933289
v -1.448242 2.534420 -1.412781
v -0.927734 3.113894 -1.933289
v -1.448242 3.113894 -1.412781
vt 0.049451 0.212723
vt 0.049067 0.212775
vt 0.048796 0.212445
vt 0.048785 0.212096
vt 0.049737 0.212502
vt 0.049719 0.212079
vt 0.049348 0.212680
vt 0.049175 0.212598
vt 0.048894 0.212398
vt 0.048907 0.212168
vt 0.049606 0.212330
vt 0.049630 0.212226
vt 0.049363 0.211948
vt 0.049338 0.212598
vt 0.049074 0.212723
vt 0.049176 0.212680
vt 0.049464 0.212774
vt 0.048907 0.212331
vt 0.048796 0.212069
vt 0.048893 0.212227
vt 0.048785 0.212493
vt 0.049630 0.212397
vt 0.049737 0.212105
vt 0.049606 0.212168
vt 0.049719 0.212454
vt 0.049041 0.212034
vt 0.048939 0.211964
vt 0.049489 0.212085
vt 0.368718 0.491526
vt 0.368770 0.491707
vt 0.368583 0.491670
vt 0.369085 0.491384
vt 0.369205 0.491525
vt 0.369241 0.491406
vt 0.368436 0.491472
vt 0.368602 0.491387
vt 0.368498 0.491360
vt 0.368905 0.491213
vt 0.368959 0.491257
vt 0.369070 0.491236
vt 0.368537 0.491849
vt 0.368337 0.491561
vt 0.368403 0.491447
vt 0.368938 0.491250
vt 0.369097 0.491273
vt 0.369337 0.491513
vt 0.369303 0.491631
vt 0.368724 0.491882
vt 0.049452 0.211820
vt 0.049384 0.211823
vt 0.049157 0.211948
vt 0.049035 0.212085
vt 0.049127 0.211824
vt 0.049058 0.211820
vt 0.048948 0.211940
vt 0.049063 0.211804
vt 0.049131 0.211801
vt 0.049158 0.211907
vt 0.049354 0.211907
vt 0.049472 0.212034
vt 0.049562 0.211943
vt 0.049577 0.211968
vt 0.049374 0.211801
vt 0.049443 0.211804
vt 0.049452 0.211820
vt 0.049397 0.211825
vt 0.049128 0.211824
vt 0.049036 0.211822
vt 0.049063 0.211804
vt 0.049119 0.211800
vt 0.049373 0.211801
vt 0.049463 0.211803
vt 0.049383 0.211823
vt 0.049475 0.211821
vt 0.049058 0.211821
vt 0.049114 0.211825
vt 0.049132 0.211801
vt 0.049043 0.211803
vt 0.049442 0.211804
vt 0.049386 0.211800
vn -0.465744 -0.033493 0.884285
vn -0.465744 -0.033493 0.884285
vn -0.465744 -0.033493 0.884285
vn 0.688462 -0.725272 0.000000
vn 0.688462 -0.725272 0.000000
vn 0.688462 -0.725272 0.000000
vn 0.688462 -0.725272 0.000000
vn -0.465744 -0.033493 -0.884285
vn -0.465744 -0.033493 -0.884285
vn -0.465744 -0.033493 -0.884285
vn 0.240420 0.246165 0.938936
vn 0.240420 0.246165 0.938936
vn 0.240420 0.246165 0.938936
vn 0.240420 0.246165 0.938936
vn -0.688462 -0.725272 0.000000
vn -0.688462 -0.725272 0.000000
vn -0.688462 -0.725272 0.000000
vn -0.688462 -0.725272 0.000000
vn 0.240420 0.246165 -0.938936
vn 0.240420 0.246165 -0.938936
vn 0.240420 0.246165 -0.938936
vn 0.240420 0.246165 -0.938936
vn -0.236414 -0.242063 0.941017
vn -0.236414 -0.242063 0.941017
vn -0.236414 -0.242063 0.941017
vn -0.236414 -0.242063 0.941017
vn 0.688462 0.725272 0.000000
vn 0.688462 0.725272 0.000000
vn 0.688462 0.725272 0.000000
vn 0.688462 0.725272 0.000000
vn -0.236414 -0.242063 -0.941017
vn -0.236414 -0.242063 -0.941017
vn -0.236414 -0.242063 -0.941017
vn -0.236414 -0.242063 -0.941017
vn 0.236414 -0.242063 0.941017
vn 0.236414 -0.242063 0.941017
vn 0.236414 -0.242063 0.941017
vn 0.236414 -0.242063 0.941017
vn -0.688462 0.725272 0.000000
vn -0.688462 0.725272 0.000000
vn -0.688462 0.725272 0.000000
vn -0.688462 0.725272 0.000000
vn 0.236414 -0.242063 -0.941017
vn 0.236414 -0.242063 -0.941017
vn 0.236414 -0.242063 -0.941017
vn 0.236414 -0.242063 -0.941017
vn -0.908843 0.417139 0.000000
vn -0.908843 0.417139 0.000000
vn -0.908843 0.417139 0.000000
vn -0.908843 0.417139 0.000000
vn 0.707107 0.707107 0.000000
vn 0.707107 0.707107 0.000000
vn 0.707107 0.707107 0.000000
vn 0.707107 0.707107 0.000000
vn -0.707107 -0.707107 0.000000
vn -0.707107 -0.707107 0.000000
vn -0.707107 -0.707107 0.000000
vn -0.707107 -0.707107 0.000000
vn 0.707107 -0.707107 0.000000
vn 0.707107 -0.707107 0.000000
vn 0.707107 -0.707107 0.000000
vn 0.707107 -0.707107 0.000000
vn 0.000000 -1.000000 0.000000
vn 0.000000 -1.000000 0.000000
vn 0.000000 -1.000000 0.000000
vn 0.000000 -1.000000 0.000000
vn 1.000000 0.000000 0.000000
vn 1.000000 0.000000 0.000000
vn 1.000000 0.000000 0.000000
vn 1.000000 0.000000 0.000000
vn -1.000000 0.000000 0.000000
vn -1.000000 0.000000 0.000000
vn -1.000000 0.000000 0.000000
vn -1.000000 0.000000 0.000000
vn 0.000000 -1.000000 0.000000
vn 0.000000 -1.000000 0.000000
vn 0.000000 -1.000000 0.000000
vn 0.000000 -1.000000 0.000000
vn 0.000000 1.000000 0.000000
vn 0.000000 1.000000 0.000000
vn 0.000000 1.000000 0.000000
vn 0.000000 1.000000 0.000000
vn -1.000000 0.000000 0.000000
vn -1.000000 0.000000 0.000000
vn -1.000000 0.000000 0.000000
vn -1.000000 0.000000 0.000000
vn 1.000000 0.000000 0.000000
vn 1.000000 0.000000 0.000000
vn 1.000000 0.000000 0.000000
vn 1.000000 0.000000 0.000000
vn 0.000000 -0.121005 0.992652
vn 0.000000 -0.121005 0.992652
vn 0.000000 -0.121005 0.992652
vn 0.000000 -0.121005 0.992652
vn 0.000000 -0.121005 -0.992652
vn 0.000000 -0.121005 -0.992652
vn 0.000000 -0.121005 -0.992652
vn 0.000000 -0.121005 -0.992652
vn 0.000000 -0.371036 -0.928619
vn 0.000000 -0.371036 -0.928619
vn 0.000000 -0.371036 -0.928619
vn 0.000000 -0.371036 -0.928619
vn 0.000000 -0.371036 0.928619
vn 0.000000 -0.371036 0.928619
vn 0.000000 -0.371036 0.928619
vn 0.000000 -0.371036 0.928619
vn 0.371036 0.000000 -0.928619
vn 0.371036 0.000000 -0.928619
vn 0.371036 0.000000 -0.928619
vn 0.371036 0.000000 -0.928619
vn 0.371036 0.000000 0.928619
vn 0.371036 0.000000 0.928619
vn 0.371036 0.000000 0.928619
vn 0.371036 0.000000 0.928619
vn -0.371036 0.000000 0.928619
vn -0.371036 0.000000 0.928619
vn -0.371036 0.000000 0.928619
vn -0.371036 0.000000 0.928619
vn -0.371036 0.000000 -0.928619
vn -0.371036 0.000000 -0.928619
vn -0.371036 0.000000 -0.928619
vn -0.371036 0.000000 -0.928619
vn -0.688462 -0.725272 0.000000
vn -0.688462 -0.725272 0.000000
vn -0.688462 -0.725272 0.000000
vn -0.688462 -0.725272 0.000000
vn 0.465744 -0.033493 -0.884285
vn 0.465744 -0.033493 -0.884285
vn 0.465744 -0.033493 -0.884285
vn 0.465744 -0.033493 0.884285
vn 0.465744 -0.033493 0.884285
vn 0.465744 -0.033493 0.884285
vn 0.688462 -0.725272 0.000000
vn 0.688462 -0.725272 0.000000
vn 0.688462 -0.725272 0.000000
vn 0.688462 -0.725272 0.000000
vn -0.240420 0.246165 -0.938936
vn -0.240420 0.246165 -0.938936
vn -0.240420 0.246165 -0.938936
vn -0.240420 0.246165 -0.938936
vn -0.707107 0.707107 0.000000
vn -0.707107 0.707107 0.000000
vn -0.707107 0.707107 0.000000
vn -0.707107 0.707107 0.000000
vn -0.240420 0.246165 0.938936
vn -0.240420 0.246165 0.938936
vn -0.240420 0.246165 0.938936
vn -0.240420 0.246165 0.938936
vn 0.000000 0.000000 1.000000
vn 0.000000 0.000000 1.000000
vn 0.000000 0.000000 1.000000
vn 0.000000 0.000000 1.000000
vn 1.000000 0.000000 0.000000
vn 1.000000 0.000000 0.000000
vn 1.000000 0.000000 0.000000
vn 1.000000 0.000000 0.000000
vn 0.000000 0.000000 -1.000000
vn 0.000000 0.000000 -1.000000
vn 0.000000 0.000000 -1.000000
vn 0.000000 0.000000 -1.000000
vn -1.000000 0.000000 0.000000
vn -1.000000 0.000000 0.000000
vn -1.000000 0.000000 0.000000
vn -1.000000 0.000000 0.000000
vn -0.166162 0.972846 0.161125
vn -0.166162 0.972846 0.161125
vn -0.166162 0.972846 0.161125
vn -0.166162 0.972846 0.161125
vn 0.166162 0.972846 0.161125
vn 0.166162 0.972846 0.161125
vn 0.166162 0.972846 0.161125
vn 0.166162 0.972846 0.161125
vn 0.166162 0.972846 -0.161125
vn 0.166162 0.972846 -0.161125
vn 0.166162 0.972846 -0.161125
vn 0.166162 0.972846 -0.161125
vn -0.166162 0.972846 -0.161125
vn -0.166162 0.972846 -0.161125
vn -0.166162 0.972846 -0.161125
vn -0.166162 0.972846 -0.161125
vn -0.325298 0.900434 0.288792
vn -0.325298 0.900434 0.288792
vn -0.325298 0.900434 0.288792
vn -0.400220 0.916417 0.001777
vn -0.400220 0.916417 0.001777
vn -0.400220 0.916417 0.001777
vn -0.400220 0.916417 0.001777
vn -0.327532 0.897356 -0.295762
vn -0.327532 0.897356 -0.295762
vn -0.327532 0.897356 -0.295762
vn -0.002027 0.923218 0.384271
vn -0.002027 0.923218 0.384271
vn -0.002027 0.923218 0.384271
vn -0.002027 0.923218 0.384271
vn 0.327532 0.897356 0.295762
vn 0.327532 0.897356 0.295762
vn 0.327532 0.897356 0.295762
vn 0.400221 0.916417 -0.001777
vn 0.400221 0.916417 -0.001777
vn 0.400221 0.916417 -0.001777
vn 0.400221 0.916417 -0.001777
vn 0.002027 0.923218 -0.384271
vn 0.002027 0.923218 -0.384271
vn 0.002027 0.923218 -0.384271
vn 0.002027 0.923218 -0.384271
vn 0.325298 0.900434 -0.288791
vn 0.325298 0.900434 -0.288791
vn 0.325298 0.900434 -0.288791
vn 0.000000 0.551562 0.834134
vn 0.000000 0.551562 0.834134
vn 0.000000 0.551562 0.834134
vn 0.000000 0.551562 0.834134
vn 0.896116 0.443821 0.000000
vn 0.896116 0.443821 0.000000
vn 0.896116 0.443821 0.000000
vn 0.896116 0.443821 0.000000
vn 0.000000 0.551562 -0.834134
vn 0.000000 0.551562 -0.834134
vn 0.000000 0.551562 -0.834134
vn 0.000000 0.551562 -0.834134
vn -0.896116 0.443821 -0.000000
vn -0.896116 0.443821 -0.000000
vn -0.896116 0.443821 -0.000000
vn -0.896116 0.443821 -0.000000
vn 0.000000 1.000000 0.000000
vn 0.000000 1.000000 0.000000
vn 0.000000 1.000000 0.000000
vn 0.000000 1.000000 0.000000
vn -0.567937 0.630850 0.528655
vn -0.567937 0.630850 0.528655
vn -0.567937 0.630850 0.528655
vn -0.567937 0.630850 0.528655
vn 0.567937 0.630850 0.528655
vn 0.567937 0.630850 0.528655
vn 0.567937 0.630850 0.528655
vn 0.567937 0.630850 0.528655
vn 0.567937 0.630850 -0.528655
vn 0.567937 0.630850 -0.528655
vn 0.567937 0.630850 -0.528655
vn 0.567937 0.630850 -0.528655
vn -0.567937 0.630850 -0.528655
vn -0.567937 0.630850 -0.528655
vn -0.567937 0.630850 -0.528655
vn -0.567937 0.630850 -0.528655
vn 0.000000 0.969968 0.243234
vn 0.000000 0.969968 0.243234
vn 0.000000 0.969968 0.243234
vn 0.000000 0.969968 0.243234
vn 0.908843 0.417139 0.000000
vn 0.908843 0.417139 0.000000
vn 0.908843 0.417139 0.000000
vn 0.908843 0.417139 0.000000
vn 0.317476 0.948266 0.000000
vn 0.317476 0.948266 0.000000
vn 0.317476 0.948266 0.000000
vn 0.317476 0.948266 0.000000
vn 0.000000 0.969968 -0.243234
vn 0.000000 0.969968 -0.243234
vn 0.000000 0.969968 -0.243234
vn 0.000000 0.969968 -0.243234
vn -0.317476 0.948266 0.000000
vn -0.317476 0.948266 0.000000
vn -0.317476 0.948266 0.000000
vn -0.317476 0.948266 0.000000
vn -0.707107 0.000000 0.707107
vn -0.707107 0.000000 0.707107
vn -0.707107 0.000000 0.707107
vn -0.707107 0.000000 0.707107
vn 0.707107 0.000000 0.707107
vn 0.707107 0.000000 0.707107
vn 0.707107 0.000000 0.707107
vn 0.707107 0.000000 0.707107
vn 0.707107 0.000000 -0.707107
vn 0.707107 0.000000 -0.707107
vn 0.707107 0.000000 -0.707107
vn 0.707107 0.000000 -0.707107
vn -0.707107 0.000000 -0.707107
vn -0.707107 0.000000 -0.707107
vn -0.707107 0.000000 -0.707107
vn -0.707107 0.000000 -0.707107
vn -0.473832 0.045486 0.879440
vn -0.473832 0.045486 0.879440
vn -0.473832 0.045486 0.879440
vn 0.473832 0.045486 0.879440
vn 0.473832 0.045486 0.879440
vn 0.473832 0.045486 0.879440
vn 0.473832 0.045486 -0.879440
vn 0.473832 0.045486 -0.879440
vn 0.473832 0.045486 -0.879440
vn -0.473832 0.045486 -0.879440
vn -0.473832 0.045486 -0.879440
vn -0.473832 0.045486 -0.879440
vn -0.659012 -0.362499 -0.659012
vn -0.659012 -0.362499 -0.659012
vn -0.659012 -0.362499 -0.659012
vn 0.659012 -0.362499 -0.659012
vn 0.659012 -0.362499 -0.659012
vn 0.659012 -0.362499 -0.659012
vn 0.659012 -0.362499 0.659012
vn 0.659012 -0.362499 0.659012
vn 0.659012 -0.362499 0.659012
vn -0.659012 -0.362499 0.659012
vn -0.659012 -0.362499 0.659012
vn -0.659012 -0.362499 0.659012
s off
f 36/62/1 33/28/2 2/13/3
f 2/13/4 33/28/5 34/60/6 3/59/7
f 3/59/8 34/60/9 35/61/10
f 32/27/11 29/52/12 6/20/13 18/4/14
f 6/20/15 29/52/16 30/26/17 7/10/18
f 7/10/19 30/26/20 31/55/21 19/19/22
f 9/7/23 10/22/24 28/5/25 27/17/26
f 10/22/27 9/7/28 12/14/29 11/11/30
f 11/11/31 12/14/32 21/1/33 22/25/34
f 13/9/35 14/16/36 25/2/37 26/21/38
f 14/16/39 13/9/40 16/18/41 15/8/42
f 15/8/43 16/18/44 24/3/45 23/15/46
f 35/61/47 36/62/48 57/65/49 70/79/50
f 31/55/51 32/27/52 18/4/53 19/19/54
f 22/25/55 21/1/56 27/17/57 28/5/58
f 23/15/59 24/3/60 26/21/61 25/2/62
f 21/1/63 23/15/64 25/2/65 27/17/66
f 26/21/67 24/3/68 19/19/69 18/4/70
f 22/25/71 28/5/72 17/23/73 20/6/74
f 2/13/75 3/59/76 8/58/77 5/51/78
f 12/14/79 9/7/80 14/16/81 15/8/82
f 13/9/83 6/20/84 7/10/85 16/18/86
f 11/11/87 4/24/88 1/12/89 10/22/90
f 2/13/91 5/51/92 61/67/93 58/73/94
f 8/58/95 3/59/96 69/71/97 66/77/98
f 12/14/99 15/8/100 23/15/101 21/1/102
f 14/16/103 9/7/104 27/17/105 25/2/106
f 16/18/107 7/10/108 19/19/109 24/3/110
f 6/20/111 13/9/112 26/21/113 18/4/114
f 10/22/115 1/12/116 17/23/117 28/5/118
f 4/24/119 11/11/120 22/25/121 20/6/122
f 30/26/123 29/52/124 5/51/125 8/58/126
f 31/55/127 30/26/128 8/58/129
f 5/51/130 29/52/131 32/27/132
f 34/60/133 33/28/134 1/12/135 4/24/136
f 35/61/137 34/60/138 4/24/139 20/6/140
f 17/23/141 36/62/142 35/61/143 20/6/144
f 1/12/145 33/28/146 36/62/147 17/23/148
f 60/66/149 58/73/150 61/67/151 63/76/152
f 64/68/153 62/75/154 65/69/155 67/78/156
f 68/70/157 66/77/158 69/71/159 71/80/160
f 72/72/161 70/79/162 57/65/163 59/74/164
f 60/66/165 38/50/166 37/49/167 59/74/168
f 64/68/169 40/54/170 39/53/171 63/76/172
f 68/70/173 42/57/174 41/56/175 67/78/176
f 72/72/177 44/64/178 43/63/179 71/80/180
f 45/29/181 46/30/182 49/31/183
f 46/30/184 45/29/185 47/32/186 48/33/187
f 48/33/188 47/32/189 55/34/190
f 45/29/191 49/31/192 51/35/193 50/36/194
f 50/36/195 51/35/196 52/37/197
f 50/36/198 52/37/199 56/38/200 53/39/201
f 53/39/202 54/40/203 55/34/204 47/32/205
f 54/40/206 53/39/207 56/38/208
f 49/31/209 38/41/210 39/42/211 51/35/212
f 52/37/213 40/43/214 41/44/215 56/38/216
f 54/40/217 42/45/218 43/46/219 55/34/220
f 48/33/221 44/47/222 37/48/223 46/30/224
f 45/29/225 50/36/226 53/39/227 47/32/228
f 37/48/229 38/41/230 49/31/231 46/30/232
f 39/42/233 40/43/234 52/37/235 51/35/236
f 41/44/237 42/45/238 54/40/239 56/38/240
f 43/46/241 44/47/242 48/33/243 55/34/244
f 60/66/245 63/76/246 39/53/247 38/50/248
f 62/75/249 32/27/250 31/55/251 65/69/252
f 64/68/253 67/78/254 41/56/255 40/54/256
f 68/70/257 71/80/258 43/63/259 42/57/260
f 72/72/261 59/74/262 37/49/263 44/64/264
f 57/65/265 58/73/266 60/66/267 59/74/268
f 61/67/269 62/75/270 64/68/271 63/76/272
f 65/69/273 66/77/274 68/70/275 67/78/276
f 69/71/277 70/79/278 72/72/279 71/80/280
f 57/65/281 36/62/282 2/13/283
f 62/75/284 5/51/285 32/27/286
f 65/69/287 31/55/288 8/58/289
f 70/79/290 3/59/291 35/61/292
f 69/71/293 3/59/294 70/79/295
f 65/69/296 8/58/297 66/77/298
f 61/67/299 5/51/300 62/75/301
f 57/65/302 2/13/303 58/73/304
