# This file uses centimeters as units for non-parametric coordinates.

v -12.397511 -0.000000 17.029161
v -12.397511 7.543947 17.029161
v -12.397511 0.000000 -17.029161
v -12.397511 7.543947 -17.029161
v 13.965054 0.000000 -17.029161
v 13.965054 7.543947 -17.029161
v 13.965054 -0.000000 17.029161
v 13.965054 7.543947 17.029161
v -13.965054 3.771960 -17.029161
v -13.965054 3.771960 17.029161
v -10.937656 1.143269 -17.029161
v -12.414928 3.771960 -17.029161
v -10.937656 6.400664 -17.029161
v 13.906826 6.400664 -17.029161
v 13.906826 1.143269 -17.029161
v 13.906826 6.400664 17.029161
v 13.906826 1.143269 17.029161
v -10.937656 6.400664 17.029161
v -12.414928 3.771960 17.029161
v -10.937656 1.143269 17.029161
v -10.639202 1.143269 -15.639658
v -12.116474 3.771960 -15.639657
v -10.639202 6.400664 -15.639657
v 13.091106 6.400664 -15.639657
v 13.091106 1.143269 -15.639658
v 13.091106 6.400664 15.639663
v 13.091106 1.143269 15.639664
v -10.639202 6.400664 15.639663
v -12.116474 3.771960 15.639664
v -10.639202 1.143269 15.639664
v -8.130635 7.543947 12.184166
v 9.698178 7.543947 12.184166
v 9.698178 7.543947 -12.184166
v -8.130635 7.543947 -12.184166
v 9.698178 -0.000000 12.184166
v -8.130635 -0.000000 12.184166
v -8.130635 -0.000000 -12.184166
v 9.698178 -0.000000 -12.184166
v 11.116056 7.543947 -0.000000
v -9.548513 7.543947 0.000000
v -12.397511 7.543947 0.000000
v -12.397511 -0.000000 0.000000
v -9.548513 -0.000000 0.000000
v 11.116056 -0.000000 -0.000000
v 13.965054 -0.000000 -0.000000
v 13.906826 1.143269 -0.000000
v 13.091106 1.143269 0.000003
v 13.091106 6.400664 0.000003
v 13.906826 6.400664 -0.000000
v 13.965054 7.543947 -0.000000
v 1.225952 6.400664 -15.639657
v 1.484585 6.400664 -17.029161
v 0.783772 7.543947 -17.029161
v 0.783772 7.543947 -14.615896
v 0.783772 7.543947 -0.000000
v 0.783772 7.543947 14.615896
v 0.783772 7.543947 17.029161
v 1.484585 6.400664 17.029161
v 1.225952 6.400664 15.639663
v 1.225952 1.143269 15.639664
v 1.484585 1.143269 17.029161
v 0.783772 -0.000000 17.029161
v 0.783772 -0.000000 14.615896
v 0.783772 -0.000000 -0.000000
v 0.783772 -0.000000 -14.615896
v 0.783772 0.000000 -17.029161
v 1.484585 1.143269 -17.029161
v 1.225952 1.143269 -15.639658
v -13.126648 5.789422 0.000000
v -13.965054 3.771960 0.000000
v -13.965054 3.771960 15.129162
v -13.143459 5.748971 13.093963
v -13.126652 1.754524 0.000000
v -13.143459 1.794971 13.093963
v -13.143459 5.748971 -13.093963
v -13.965054 3.771960 -15.129162
v -13.143459 1.794971 -13.093963
v 12.219237 3.771966 -15.293121
v 12.219237 3.771966 0.000003
v 12.219237 3.771966 15.293127
vt 0.219618 0.418879
vt 0.219618 0.418879
vt 0.219618 0.418879
vt 0.219618 0.418879
vt 0.219618 0.418879
vt 0.219618 0.418879
vt 0.219618 0.418879
vt 0.219618 0.418879
vt 0.219618 0.418879
vt 0.219618 0.418879
vt 0.219618 0.418879
vt 0.219618 0.418879
vt 0.219618 0.418879
vt 0.219618 0.418879
vt 0.219618 0.418879
vt 0.219618 0.418879
vt 0.219618 0.418879
vt 0.219618 0.418879
vt 0.219618 0.418879
vt 0.219618 0.418879
vt 0.219618 0.418879
vt 0.219618 0.418879
vt 0.219618 0.418879
vt 0.219618 0.418879
vt 0.219618 0.418879
vt 0.219618 0.418879
vt 0.219618 0.418879
vt 0.219618 0.418879
vt 0.219618 0.418879
vt 0.219618 0.418879
vt 0.219618 0.418879
vt 0.219618 0.418879
vt 0.219618 0.418879
vt 0.219618 0.418879
vt 0.219618 0.418879
vt 0.219618 0.418879
vt 0.219618 0.418879
vt 0.037976 0.353544
vt 0.037976 0.353544
vt 0.037976 0.353544
vt 0.037976 0.353544
vt 0.037976 0.353544
vt 0.037976 0.353544
vt 0.037976 0.353544
vt 0.037976 0.353544
vt 0.037976 0.353544
vt 0.037976 0.353544
vt 0.219618 0.418879
vt 0.219618 0.418879
vt 0.219618 0.418879
vt 0.219618 0.418879
vt 0.219618 0.418879
vt 0.219618 0.418879
vt 0.219618 0.418879
vt 0.219618 0.418879
vt 0.219618 0.418879
vt 0.219618 0.418879
vt 0.219618 0.418879
vt 0.139994 0.399107
vt 0.219618 0.418879
vt 0.219618 0.418879
vt 0.219618 0.418879
vt 0.219618 0.418879
vt 0.219618 0.418879
vt 0.219618 0.418879
vt 0.037976 0.353544
vt 0.219618 0.418879
vt 0.037976 0.353544
vt 0.219618 0.418879
vt 0.219618 0.418879
vt 0.219618 0.418879
vt 0.219618 0.418879
vt 0.037976 0.353544
vt 0.219618 0.418879
vt 0.219618 0.418879
vt 0.219618 0.418879
vt 0.219618 0.418879
vt 0.219618 0.418879
vt 0.140013 0.399161
vt 0.219618 0.418879
vt 0.219618 0.418879
vt 0.219618 0.418879
vt 0.219618 0.418879
vt 0.037976 0.353544
vt 0.219618 0.418879
vt 0.037976 0.353544
vt 0.219618 0.418879
vt 0.219618 0.418879
vt 0.219618 0.418879
vt 0.219618 0.418879
vt 0.219618 0.418879
vt 0.139823 0.399540
vt 0.219618 0.418879
vt 0.219618 0.418879
vt 0.219618 0.418879
vt 0.219618 0.418879
vt 0.037976 0.353544
vt 0.219618 0.418879
vt 0.219618 0.418879
vt 0.219618 0.418879
vt 0.219618 0.418879
vt 0.219618 0.418879
vt 0.219618 0.418879
vt 0.219618 0.418879
vt 0.219618 0.418879
vt 0.219618 0.418879
vt 0.139827 0.399429
vt 0.139369 0.399217
vt 0.139166 0.399077
vt 0.139312 0.398839
vt 0.139574 0.398926
vt 0.139192 0.399243
vt 0.139384 0.399382
vt 0.139575 0.399093
vt 0.139328 0.399006
vt 0.139981 0.399196
vt 0.139819 0.399514
vt 0.139503 0.398657
vt 0.139744 0.398685
vt 0.140131 0.398844
vt 0.140166 0.398858
vt 0.140115 0.398931
vt 0.139736 0.398851
vt 0.139508 0.398823
vt 0.139853 0.399018
vt 0.139943 0.398790
vt 0.139662 0.399258
vt 0.139658 0.399422
vt 0.139838 0.399185
vt 0.139924 0.398956
vt 0.037976 0.353544
vt 0.037976 0.353544
vt 0.037976 0.353544
vn -0.923435 0.383756 -0.000000
vn -0.923435 0.383756 -0.000000
vn -0.923435 0.383756 -0.000000
vn -0.923435 0.383756 -0.000000
vn -0.000000 0.130698 -0.991422
vn -0.000000 0.130698 -0.991422
vn -0.000000 0.130698 -0.991422
vn 0.949155 0.314809 -0.000000
vn 0.949155 0.314809 -0.000000
vn 0.949155 0.314809 -0.000000
vn 0.949155 0.314809 -0.000000
vn 0.009561 0.048528 0.998776
vn 0.009561 0.048528 0.998776
vn 0.009561 0.048528 0.998776
vn 0.009561 0.048528 0.998776
vn 0.000000 1.000000 0.000000
vn 0.000000 1.000000 0.000000
vn 0.000000 1.000000 0.000000
vn 0.000000 1.000000 0.000000
vn -0.000000 -1.000000 -0.000000
vn -0.000000 -1.000000 -0.000000
vn -0.000000 -1.000000 -0.000000
vn -0.000000 -1.000000 -0.000000
vn -0.923433 -0.383759 -0.000000
vn -0.923433 -0.383759 -0.000000
vn -0.923433 -0.383759 -0.000000
vn -0.923433 -0.383759 -0.000000
vn -0.000000 0.000000 -1.000000
vn -0.000000 0.000000 -1.000000
vn -0.000000 0.000000 -1.000000
vn -0.000000 0.000000 -1.000000
vn -0.000000 0.000000 -1.000000
vn -0.000000 0.000000 -1.000000
vn -0.000000 0.000000 -1.000000
vn -0.000000 0.000000 -1.000000
vn -0.000000 -0.000001 -1.000000
vn -0.000000 -0.000001 -1.000000
vn -0.000000 -0.000001 -1.000000
vn -0.000000 -0.000001 -1.000000
vn -0.000000 0.000001 -1.000000
vn -0.000000 0.000001 -1.000000
vn -0.000000 0.000001 -1.000000
vn -0.000000 0.000001 -1.000000
vn 0.998706 -0.050864 -0.000000
vn 0.998706 -0.050864 -0.000000
vn 0.998706 -0.050864 -0.000000
vn 0.998706 -0.050864 -0.000000
vn 0.998706 0.050865 -0.000000
vn 0.998706 0.050865 -0.000000
vn 0.998706 0.050865 -0.000000
vn 0.998706 0.050865 -0.000000
vn 0.000000 -0.000001 1.000000
vn 0.000000 -0.000001 1.000000
vn 0.000000 -0.000001 1.000000
vn 0.000000 -0.000001 1.000000
vn 0.000000 0.000000 1.000000
vn 0.000000 0.000000 1.000000
vn 0.000000 0.000000 1.000000
vn 0.000000 0.000000 1.000000
vn 0.000000 0.000000 1.000000
vn 0.000000 0.000000 1.000000
vn 0.000000 0.000000 1.000000
vn 0.000000 0.000000 1.000000
vn 0.000000 0.000001 1.000000
vn 0.000000 0.000001 1.000000
vn 0.000000 0.000001 1.000000
vn 0.000000 0.000001 1.000000
vn 0.856877 0.481548 -0.184050
vn 0.856877 0.481548 -0.184050
vn 0.856877 0.481548 -0.184050
vn 0.856877 0.481548 -0.184050
vn 0.856878 -0.481545 -0.184050
vn 0.856878 -0.481546 -0.184050
vn 0.856878 -0.481545 -0.184050
vn 0.856878 -0.481546 -0.184050
vn 0.000000 -1.000000 0.000000
vn 0.000000 -1.000000 0.000000
vn 0.000000 -1.000000 0.000000
vn 0.000000 -1.000000 0.000000
vn 0.000000 1.000000 0.000000
vn 0.000000 1.000000 0.000000
vn 0.000000 1.000000 0.000000
vn 0.000000 1.000000 0.000000
vn 0.000000 -1.000000 -0.000000
vn 0.000000 -1.000000 -0.000000
vn 0.000000 -1.000000 -0.000000
vn 0.000000 -1.000000 -0.000000
vn -0.000000 1.000000 0.000000
vn -0.000000 1.000000 0.000000
vn -0.000000 1.000000 0.000000
vn -0.000000 1.000000 0.000000
vn 0.000000 -1.000000 0.000000
vn 0.000000 -1.000000 0.000000
vn 0.000000 -1.000000 0.000000
vn 0.000000 -1.000000 0.000000
vn 0.856878 -0.481545 0.184051
vn 0.856878 -0.481545 0.184051
vn 0.856878 -0.481545 0.184051
vn 0.856878 -0.481545 0.184051
vn 0.856876 0.481548 0.184051
vn 0.856876 0.481548 0.184051
vn 0.856876 0.481548 0.184051
vn 0.856876 0.481548 0.184051
vn 0.000000 1.000000 0.000000
vn 0.000000 1.000000 0.000000
vn 0.000000 1.000000 0.000000
vn 0.000000 1.000000 0.000000
vn -0.000000 1.000000 0.000000
vn -0.000000 1.000000 0.000000
vn -0.000000 1.000000 0.000000
vn -0.000000 1.000000 0.000000
vn -0.000000 1.000000 0.000000
vn -0.000000 1.000000 0.000000
vn -0.000000 1.000000 0.000000
vn -0.000000 1.000000 0.000000
vn 0.000000 1.000000 0.000000
vn 0.000000 1.000000 0.000000
vn 0.000000 1.000000 0.000000
vn 0.000000 1.000000 0.000000
vn 0.000000 1.000000 -0.000000
vn 0.000000 1.000000 -0.000000
vn 0.000000 1.000000 -0.000000
vn 0.000000 1.000000 -0.000000
vn -0.000000 -1.000000 -0.000000
vn -0.000000 -1.000000 -0.000000
vn -0.000000 -1.000000 -0.000000
vn -0.000000 -1.000000 -0.000000
vn 0.000000 -1.000000 -0.000000
vn 0.000000 -1.000000 -0.000000
vn 0.000000 -1.000000 -0.000000
vn 0.000000 -1.000000 -0.000000
vn 0.000000 -1.000000 -0.000000
vn 0.000000 -1.000000 -0.000000
vn 0.000000 -1.000000 -0.000000
vn 0.000000 -1.000000 -0.000000
vn -0.000000 -1.000000 -0.000000
vn -0.000000 -1.000000 -0.000000
vn -0.000000 -1.000000 -0.000000
vn -0.000000 -1.000000 -0.000000
vn 0.000000 1.000000 0.000000
vn 0.000000 1.000000 0.000000
vn 0.000000 1.000000 0.000000
vn 0.000000 1.000000 0.000000
vn 0.000000 1.000000 -0.000000
vn 0.000000 1.000000 -0.000000
vn 0.000000 1.000000 -0.000000
vn 0.000000 1.000000 -0.000000
vn -0.923435 0.383756 0.000000
vn -0.923435 0.383756 0.000000
vn -0.923435 0.383756 0.000000
vn -0.923435 0.383756 0.000000
vn -0.923433 -0.383759 0.000000
vn -0.923433 -0.383759 0.000000
vn -0.923433 -0.383759 0.000000
vn -0.923433 -0.383759 0.000000
vn -0.000000 -1.000000 -0.000000
vn -0.000000 -1.000000 -0.000000
vn -0.000000 -1.000000 -0.000000
vn -0.000000 -1.000000 -0.000000
vn -0.000000 -1.000000 -0.000000
vn -0.000000 -1.000000 -0.000000
vn -0.000000 -1.000000 -0.000000
vn -0.000000 -1.000000 -0.000000
vn 0.000000 -1.000000 -0.000000
vn 0.000000 -1.000000 -0.000000
vn 0.000000 -1.000000 -0.000000
vn 0.000000 -1.000000 -0.000000
vn 0.998706 0.050865 -0.000000
vn 0.998706 0.050865 -0.000000
vn 0.998706 0.050865 -0.000000
vn 0.998706 0.050865 -0.000000
vn -0.000000 1.000000 0.000000
vn -0.000000 1.000000 0.000000
vn -0.000000 1.000000 0.000000
vn -0.000000 1.000000 0.000000
vn 0.949155 0.314809 -0.000000
vn 0.949155 0.314809 -0.000000
vn 0.949155 0.314809 -0.000000
vn 0.949155 0.314809 -0.000000
vn 0.000000 -1.000000 0.000000
vn 0.000000 -1.000000 0.000000
vn 0.000000 -1.000000 0.000000
vn 0.000000 -1.000000 0.000000
vn 0.998706 -0.050864 -0.000000
vn 0.998706 -0.050864 -0.000000
vn 0.998706 -0.050864 -0.000000
vn 0.998706 -0.050864 -0.000000
vn -0.000000 1.000000 0.000000
vn -0.000000 1.000000 0.000000
vn -0.000000 1.000000 0.000000
vn -0.000000 1.000000 0.000000
vn 0.000000 -1.000000 0.000000
vn 0.000000 -1.000000 0.000000
vn 0.000000 -1.000000 0.000000
vn 0.000000 -1.000000 0.000000
vn -0.000000 -0.000001 -1.000000
vn -0.000000 -0.000001 -1.000000
vn -0.000000 -0.000001 -1.000000
vn -0.000000 -0.000001 -1.000000
vn 0.000000 1.000000 -0.000000
vn 0.000000 1.000000 -0.000000
vn 0.000000 1.000000 -0.000000
vn 0.000000 1.000000 -0.000000
vn 0.000000 1.000000 0.000000
vn 0.000000 1.000000 0.000000
vn 0.000000 1.000000 0.000000
vn 0.000000 1.000000 0.000000
vn 0.000000 1.000000 0.000000
vn 0.000000 1.000000 0.000000
vn 0.000000 1.000000 0.000000
vn 0.000000 1.000000 0.000000
vn 0.000000 1.000000 0.000000
vn 0.000000 1.000000 0.000000
vn 0.000000 1.000000 0.000000
vn 0.000000 1.000000 0.000000
vn 0.000000 -0.000001 1.000000
vn 0.000000 -0.000001 1.000000
vn 0.000000 -0.000001 1.000000
vn 0.000000 -0.000001 1.000000
vn 0.000000 -1.000000 0.000000
vn 0.000000 -1.000000 0.000000
vn 0.000000 -1.000000 0.000000
vn 0.000000 -1.000000 0.000000
vn 0.000000 1.000000 0.000000
vn 0.000000 1.000000 0.000000
vn 0.000000 1.000000 0.000000
vn 0.000000 1.000000 0.000000
vn 0.000000 0.000001 1.000000
vn 0.000000 0.000001 1.000000
vn 0.000000 0.000001 1.000000
vn 0.000000 0.000001 1.000000
vn 0.000000 -1.000000 -0.000000
vn 0.000000 -1.000000 -0.000000
vn 0.000000 -1.000000 -0.000000
vn 0.000000 -1.000000 -0.000000
vn -0.000000 -1.000000 -0.000000
vn -0.000000 -1.000000 -0.000000
vn -0.000000 -1.000000 -0.000000
vn -0.000000 -1.000000 -0.000000
vn 0.000000 -1.000000 -0.000000
vn 0.000000 -1.000000 -0.000000
vn 0.000000 -1.000000 -0.000000
vn 0.000000 -1.000000 -0.000000
vn -0.000000 -1.000000 -0.000000
vn -0.000000 -1.000000 -0.000000
vn -0.000000 -1.000000 -0.000000
vn -0.000000 -1.000000 -0.000000
vn -0.000000 0.000001 -1.000000
vn -0.000000 0.000001 -1.000000
vn -0.000000 0.000001 -1.000000
vn -0.000000 0.000001 -1.000000
vn 0.000000 1.000000 0.000000
vn 0.000000 1.000000 0.000000
vn 0.000000 1.000000 0.000000
vn 0.000000 1.000000 0.000000
vn -0.923435 0.383756 0.000000
vn -0.923435 0.383756 0.000000
vn -0.923435 0.383756 0.000000
vn -0.923435 0.383756 0.000000
vn -0.923434 0.383757 0.000000
vn -0.923434 0.383757 0.000000
vn -0.923434 0.383757 0.000000
vn -0.923434 0.383757 0.000000
vn -0.923434 -0.383758 0.000000
vn -0.923434 -0.383758 0.000000
vn -0.923434 -0.383758 0.000000
vn -0.923434 -0.383758 0.000000
vn -0.923433 -0.383759 0.000000
vn -0.923433 -0.383759 0.000000
vn -0.923433 -0.383759 0.000000
vn -0.923433 -0.383759 0.000000
vn -0.923435 0.383756 -0.000000
vn -0.923435 0.383756 -0.000000
vn -0.923435 0.383756 -0.000000
vn -0.923435 0.383756 -0.000000
vn -0.923434 0.383757 0.000000
vn -0.923434 0.383757 0.000000
vn -0.923434 0.383757 0.000000
vn -0.923434 0.383757 0.000000
vn -0.923433 -0.383759 0.000000
vn -0.923433 -0.383759 0.000000
vn -0.923433 -0.383759 0.000000
vn -0.923433 -0.383759 0.000000
vn -0.923434 -0.383758 -0.000000
vn -0.923434 -0.383758 -0.000000
vn -0.923434 -0.383758 -0.000000
vn -0.923434 -0.383758 -0.000000
vn -0.000000 -0.130697 -0.991422
vn -0.000000 -0.130697 -0.991422
vn -0.000000 -0.130697 -0.991422
vn 0.949155 -0.314809 -0.000000
vn 0.949155 -0.314809 -0.000000
vn 0.949155 -0.314809 -0.000000
vn 0.949155 -0.314809 -0.000000
vn 0.949155 -0.314809 -0.000000
vn 0.949155 -0.314809 -0.000000
vn 0.949155 -0.314809 -0.000000
vn 0.949155 -0.314809 -0.000000
vn 0.009561 -0.048528 0.998776
vn 0.009561 -0.048528 0.998776
vn 0.009561 -0.048528 0.998776
vn 0.009561 -0.048528 0.998776
vn 0.000000 0.130698 0.991422
vn 0.000000 0.130698 0.991422
vn 0.000000 0.130698 0.991422
vn 0.000000 -0.130698 0.991422
vn 0.000000 -0.130698 0.991422
vn 0.000000 -0.130698 0.991422
vn 0.009561 0.048528 -0.998776
vn 0.009561 0.048528 -0.998776
vn 0.009561 0.048528 -0.998776
vn 0.009561 0.048528 -0.998776
vn 0.009561 -0.048528 -0.998776
vn 0.009561 -0.048528 -0.998776
vn 0.009561 -0.048528 -0.998776
vn 0.009561 -0.048528 -0.998776
s off
f 69/59/1 70/79/2 71/92/3 72/107/4
f 68/97/5 78/131/6 25/42/7
f 47/66/8 79/132/9 80/133/10 27/44/11
f 60/86/12 80/133/13 29/46/14 30/47/15
f 56/108/16 32/109/17 39/110/18 55/111/19
f 35/112/20 63/113/21 64/114/22 44/115/23
f 70/79/24 73/116/25 74/117/26 71/92/27
f 3/3/28 9/15/29 12/19/30 11/18/31
f 9/15/32 4/4/33 13/20/34 12/19/35
f 53/77/36 6/6/37 14/21/38 52/75/39
f 5/5/40 66/95/41 67/96/42 15/22/43
f 50/72/44 8/8/45 16/23/46 49/70/47
f 7/7/48 45/64/49 46/65/50 17/24/51
f 8/8/52 57/82/53 58/83/54 16/23/55
f 2/10/56 10/17/57 19/26/58 18/25/59
f 10/17/60 1/9/61 20/27/62 19/26/63
f 62/90/64 7/7/65 17/24/66 61/88/67
f 11/18/68 12/19/69 22/29/70 21/28/71
f 12/19/72 13/20/73 23/30/74 22/29/75
f 52/75/76 14/21/77 24/31/78 51/74/79
f 15/22/80 67/96/81 68/98/82 25/32/83
f 49/70/84 16/23/85 26/33/86 48/69/87
f 17/24/88 46/65/89 47/67/90 27/34/91
f 16/23/92 58/83/93 59/85/94 26/33/95
f 18/25/96 19/26/97 29/36/98 28/35/99
f 19/26/100 20/27/101 30/37/102 29/36/103
f 61/88/104 17/24/105 27/34/106 60/87/107
f 57/81/108 8/11/109 32/49/110 56/80/111
f 8/11/112 50/71/113 39/56/114 32/49/115
f 6/12/116 53/76/117 54/78/118 33/50/119
f 41/58/120 2/2/121 31/48/122 40/57/123
f 7/13/124 62/89/125 63/91/126 35/52/127
f 1/1/128 42/60/129 43/61/130 36/53/131
f 66/94/132 5/14/133 38/55/134 65/93/135
f 45/63/136 7/13/137 35/52/138 44/62/139
f 55/111/140 39/110/141 33/118/142 54/119/143
f 4/4/144 41/58/145 40/57/146 34/51/147
f 75/120/148 76/121/149 70/79/150 69/59/151
f 76/121/152 77/122/153 73/116/154 70/79/155
f 43/61/156 42/60/157 3/3/158 37/54/159
f 44/115/160 64/114/161 65/123/162 38/124/163
f 5/14/164 45/63/165 44/62/166 38/55/167
f 46/65/168 45/64/169 5/5/170 15/22/171
f 47/67/172 46/65/173 15/22/174 25/32/175
f 25/42/176 78/131/177 79/132/178 47/66/179
f 14/21/180 49/70/181 48/69/182 24/31/183
f 6/6/184 50/72/185 49/70/186 14/21/187
f 39/56/188 50/71/189 6/12/190 33/50/191
f 13/20/192 52/75/193 51/74/194 23/30/195
f 4/4/196 53/77/197 52/75/198 13/20/199
f 54/78/200 53/76/201 4/4/202 34/51/203
f 40/125/204 55/111/205 54/119/206 34/126/207
f 31/127/208 56/108/209 55/111/210 40/125/211
f 2/2/212 57/81/213 56/80/214 31/48/215
f 58/83/216 57/82/217 2/10/218 18/25/219
f 59/85/220 58/83/221 18/25/222 28/35/223
f 20/27/224 61/88/225 60/87/226 30/37/227
f 1/9/228 62/90/229 61/88/230 20/27/231
f 63/91/232 62/89/233 1/1/234 36/53/235
f 64/114/236 63/113/237 36/128/238 43/129/239
f 65/123/240 64/114/241 43/129/242 37/130/243
f 3/3/244 66/94/245 65/93/246 37/54/247
f 67/96/248 66/95/249 3/3/250 11/18/251
f 68/98/252 67/96/253 11/18/254 21/28/255
f 10/16/256 2/2/257 72/100/258 71/99/259
f 2/2/260 41/58/261 69/101/262 72/100/263
f 42/60/264 1/1/265 74/103/266 73/102/267
f 1/1/268 10/16/269 71/99/270 74/103/271
f 4/4/272 9/15/273 76/105/274 75/104/275
f 41/58/276 4/4/277 75/104/278 69/101/279
f 9/15/280 3/3/281 77/106/282 76/105/283
f 3/3/284 42/60/285 73/102/286 77/106/287
f 78/131/288 51/73/289 24/41/290
f 79/132/291 78/131/292 24/41/293 48/68/294
f 80/133/295 79/132/296 48/68/297 26/43/298
f 29/46/299 80/133/300 59/84/301 28/45/302
f 27/44/303 80/133/304 60/86/305
f 59/84/306 80/133/307 26/43/308
f 21/38/309 22/39/310 78/131/311 68/97/312
f 78/131/313 22/39/314 23/40/315 51/73/316
