# This file uses centimeters as units for non-parametric coordinates.

v 1.729000 4.038973 -3.503314
v -2.212282 3.803822 -3.275268
v -3.985196 3.683376 0.254800
v -1.816814 3.798081 3.556824
v 2.124470 4.033232 3.328780
v 3.897375 4.153676 -0.201292
v 1.329755 5.358114 -2.779238
v -1.806072 5.171008 -2.597796
v -3.216664 5.075186 0.210856
v -1.491426 5.166448 2.838066
v 1.647123 5.393951 2.662499
v 3.054996 5.449375 -0.152028
v 0.368005 3.123039 -0.752288
v -0.500095 3.071244 -0.702059
v -0.890593 3.044720 0.075468
v -0.412990 3.069984 0.802767
v 0.455110 3.121776 0.752538
v 0.845607 3.148303 -0.024990
v 0.000000 -0.972788 -0.000000
v 0.264308 1.844761 -0.525101
v 0.602781 1.862665 -0.009671
v 0.326039 1.843860 0.541357
v -0.289177 1.807157 0.576954
v -0.627651 1.789250 0.061523
v -0.350908 1.808053 -0.489505
v 0.375944 0.720142 -0.610760
v 0.722895 0.811056 -0.002577
v 0.374717 0.773469 0.603481
v -0.328079 0.643880 0.608645
v -0.685243 0.550946 -0.002577
v -0.329326 0.589638 -0.615959
v 0.457329 6.016829 0.913672
v -0.770189 6.080853 -0.949950
v -1.271890 6.014473 0.047747
v -0.658134 5.982471 0.979553
v 0.345281 6.115208 -1.015833
v 0.959037 6.083210 -0.084025
v 0.317632 -0.844730 -0.541641
v 0.630037 -0.835973 0.000160
v 0.317513 -0.839593 0.541755
v -0.308154 -0.852075 0.542252
v -0.621543 -0.861026 0.000159
v -0.308274 -0.857299 -0.542141
v 0.398014 -0.685410 -0.682524
v 0.791106 -0.669978 -0.000437
v 0.397805 -0.676358 0.681288
v -0.389889 -0.698356 0.682164
v -0.784714 -0.714132 -0.000438
v -0.390100 -0.707564 -0.683406
vt 0.104189 0.179874
vt 0.104189 0.179874
vt 0.104189 0.179874
vt 0.104189 0.179874
vt 0.104189 0.179874
vt 0.104189 0.179874
vt 0.104189 0.179874
vt 0.104189 0.179874
vt 0.104189 0.179874
vt 0.104189 0.179874
vt 0.104189 0.179874
vt 0.104189 0.179874
vt 0.104189 0.179874
vt 0.104189 0.179874
vt 0.104189 0.179874
vt 0.104189 0.179874
vt 0.104189 0.179874
vt 0.104189 0.179874
vt 0.071129 0.376567
vt 0.071129 0.376567
vt 0.071129 0.376567
vt 0.071129 0.376567
vt 0.071129 0.376567
vt 0.071129 0.376567
vt 0.071129 0.376567
vt 0.071129 0.376567
vt 0.071129 0.376567
vt 0.071129 0.376567
vt 0.071129 0.376567
vt 0.071129 0.376567
vt 0.071130 0.376567
vt 0.071129 0.376567
vt 0.071129 0.376567
vt 0.071129 0.376567
vt 0.071129 0.376567
vt 0.071129 0.376567
vt 0.071130 0.376567
vt 0.071129 0.376567
vt 0.071129 0.376567
vt 0.071129 0.376567
vt 0.071129 0.376567
vt 0.071129 0.376567
vt 0.071129 0.376567
vt 0.071129 0.376567
vt 0.071129 0.376567
vt 0.071129 0.376567
vt 0.071129 0.376567
vt 0.071129 0.376567
vt 0.071129 0.376567
vt 0.071129 0.376567
vt 0.071129 0.376567
vt 0.071129 0.376567
vt 0.071129 0.376567
vt 0.071129 0.376567
vt 0.071129 0.376567
vn -0.070430 0.607338 -0.791316
vn -0.070430 0.607338 -0.791316
vn -0.070430 0.607338 -0.791316
vn -0.070430 0.607338 -0.791316
vn -0.733742 0.579266 -0.355068
vn -0.733742 0.579266 -0.355068
vn -0.733742 0.579266 -0.355068
vn -0.733742 0.579266 -0.355068
vn -0.687837 0.578812 0.438015
vn -0.687837 0.578812 0.438015
vn -0.687837 0.578812 0.438015
vn -0.687837 0.578812 0.438015
vn 0.019019 0.598967 0.800547
vn 0.019019 0.598967 0.800547
vn 0.019019 0.598967 0.800547
vn 0.019019 0.598967 0.800547
vn 0.691302 0.627415 0.358403
vn 0.691302 0.627415 0.358403
vn 0.691302 0.627415 0.358403
vn 0.691302 0.627415 0.358403
vn 0.638791 0.634957 -0.434483
vn 0.638791 0.634957 -0.434483
vn 0.638791 0.634957 -0.434483
vn 0.638791 0.634957 -0.434483
vn -0.018823 0.999184 0.035738
vn -0.018823 0.999184 0.035738
vn -0.018823 0.999184 0.035738
vn -0.018823 0.999184 0.035738
vn -0.018824 0.999184 0.035738
vn -0.018824 0.999184 0.035738
vn -0.018824 0.999184 0.035738
vn -0.018824 0.999184 0.035738
vn 0.027657 -0.977798 -0.207716
vn 0.027657 -0.977798 -0.207716
vn 0.027657 -0.977798 -0.207716
vn 0.027657 -0.977798 -0.207716
vn -0.143761 -0.985036 -0.095058
vn -0.143761 -0.985036 -0.095058
vn -0.143761 -0.985036 -0.095058
vn -0.143761 -0.985036 -0.095058
vn -0.131901 -0.985153 0.109891
vn -0.131901 -0.985153 0.109891
vn -0.131901 -0.985153 0.109891
vn -0.131901 -0.985153 0.109891
vn 0.051375 -0.978031 0.202032
vn 0.051375 -0.978031 0.202032
vn 0.051375 -0.978031 0.202032
vn 0.051375 -0.978031 0.202032
vn 0.222661 -0.970797 0.089300
vn 0.222661 -0.970797 0.089300
vn 0.222661 -0.970797 0.089300
vn 0.222661 -0.970797 0.089300
vn 0.210804 -0.970681 -0.115498
vn 0.210804 -0.970681 -0.115498
vn 0.210804 -0.970681 -0.115498
vn 0.210804 -0.970681 -0.115498
vn -0.031590 0.073418 -0.996801
vn -0.031590 0.073418 -0.996801
vn -0.031590 0.073418 -0.996801
vn -0.031590 0.073418 -0.996801
vn -0.878693 0.041391 -0.475590
vn -0.878693 0.041391 -0.475590
vn -0.878693 0.041391 -0.475590
vn -0.878693 0.041391 -0.475590
vn -0.851599 0.022490 0.523711
vn -0.851599 0.022490 0.523711
vn -0.851599 0.022490 0.523711
vn -0.851599 0.022490 0.523711
vn 0.026835 0.034634 0.999040
vn 0.026835 0.034634 0.999040
vn 0.026835 0.034634 0.999040
vn 0.026835 0.034634 0.999040
vn 0.876440 0.070004 0.476396
vn 0.876440 0.070004 0.476396
vn 0.876440 0.070004 0.476396
vn 0.876440 0.070004 0.476396
vn 0.846542 0.089986 -0.524661
vn 0.846542 0.089986 -0.524661
vn 0.846542 0.089986 -0.524661
vn 0.846542 0.089986 -0.524661
vn 0.814898 -0.235596 -0.529561
vn 0.814898 -0.235596 -0.529561
vn 0.814898 -0.235596 -0.529561
vn 0.814898 -0.235596 -0.529561
vn 0.870922 -0.234309 0.431966
vn 0.870922 -0.234309 0.431966
vn 0.870922 -0.234309 0.431966
vn 0.870922 -0.234309 0.431966
vn 0.065905 -0.244840 0.967321
vn 0.065905 -0.244840 0.967321
vn 0.065905 -0.244840 0.967321
vn 0.065905 -0.244840 0.967321
vn -0.805087 -0.256669 0.534749
vn -0.805087 -0.256669 0.534749
vn -0.805087 -0.256669 0.534749
vn -0.805087 -0.256669 0.534749
vn -0.860964 -0.257984 -0.438389
vn -0.860964 -0.257984 -0.438389
vn -0.860964 -0.257984 -0.438389
vn -0.860964 -0.257984 -0.438389
vn -0.045959 -0.247441 -0.967813
vn -0.045959 -0.247441 -0.967813
vn -0.045959 -0.247441 -0.967813
vn -0.045959 -0.247441 -0.967813
vn 0.019766 -0.975514 -0.219046
vn 0.019766 -0.975514 -0.219046
vn 0.019766 -0.975514 -0.219046
vn -0.175960 -0.978414 -0.108370
vn -0.175960 -0.978414 -0.108370
vn -0.175960 -0.978414 -0.108370
vn -0.175716 -0.977377 0.117721
vn -0.175716 -0.977377 0.117721
vn -0.175716 -0.977377 0.117721
vn 0.019602 -0.973498 0.227854
vn 0.019602 -0.973498 0.227854
vn 0.019602 -0.973498 0.227854
vn 0.210769 -0.970732 0.115134
vn 0.210769 -0.970732 0.115134
vn 0.210769 -0.970732 0.115134
vn 0.211038 -0.971715 -0.105981
vn 0.211038 -0.971715 -0.105981
vn 0.211038 -0.971715 -0.105981
vn 0.208768 0.966678 -0.148152
vn 0.208768 0.966678 -0.148152
vn 0.208768 0.966678 -0.148152
vn 0.208768 0.966678 -0.148152
vn -0.051862 0.947926 -0.314239
vn -0.051862 0.947926 -0.314239
vn -0.051862 0.947926 -0.314239
vn -0.051862 0.947926 -0.314239
vn -0.326408 0.935265 -0.136881
vn -0.326408 0.935265 -0.136881
vn -0.326408 0.935265 -0.136881
vn -0.326408 0.935265 -0.136881
vn -0.279765 0.944322 0.173167
vn -0.279765 0.944322 0.173167
vn -0.279765 0.944322 0.173167
vn -0.279765 0.944322 0.173167
vn -0.025374 0.964172 0.264060
vn -0.025374 0.964172 0.264060
vn -0.025374 0.964172 0.264060
vn -0.025374 0.964172 0.264060
vn 0.193070 0.974078 0.117877
vn 0.193070 0.974078 0.117877
vn 0.193070 0.974078 0.117877
vn 0.193070 0.974078 0.117877
vn 0.662360 -0.652055 -0.368923
vn 0.662360 -0.652055 -0.368923
vn 0.662360 -0.652055 -0.368923
vn 0.662360 -0.652055 -0.368923
vn 0.663582 -0.645821 0.377590
vn 0.663582 -0.645821 0.377590
vn 0.663582 -0.645821 0.377590
vn 0.663582 -0.645821 0.377590
vn 0.016859 -0.661192 0.750027
vn 0.016859 -0.661192 0.750027
vn 0.016859 -0.661192 0.750027
vn 0.016859 -0.661192 0.750027
vn -0.625627 -0.683756 0.375591
vn -0.625627 -0.683756 0.375591
vn -0.625627 -0.683756 0.375591
vn -0.625627 -0.683756 0.375591
vn -0.623860 -0.690418 -0.366227
vn -0.623860 -0.690418 -0.366227
vn -0.623860 -0.690418 -0.366227
vn -0.623860 -0.690418 -0.366227
vn 0.017276 -0.674083 -0.738454
vn 0.017276 -0.674083 -0.738454
vn 0.017276 -0.674083 -0.738454
vn 0.017276 -0.674083 -0.738454
vn 0.865388 0.039115 -0.499573
vn 0.865388 0.039115 -0.499573
vn 0.865388 0.039115 -0.499573
vn 0.865388 0.039115 -0.499573
vn 0.865301 0.040583 0.499607
vn 0.865301 0.040583 0.499607
vn 0.865301 0.040583 0.499607
vn 0.865301 0.040583 0.499607
vn -0.001460 0.054139 0.998532
vn -0.001460 0.054139 0.998532
vn -0.001460 0.054139 0.998532
vn -0.001460 0.054139 0.998532
vn -0.865047 0.067933 0.497070
vn -0.865047 0.067933 0.497070
vn -0.865047 0.067933 0.497070
vn -0.865047 0.067933 0.497070
vn -0.864501 0.066764 -0.498177
vn -0.864501 0.066764 -0.498177
vn -0.864501 0.066764 -0.498177
vn -0.864501 0.066764 -0.498177
vn -0.001192 0.051456 -0.998675
vn -0.001192 0.051456 -0.998675
vn -0.001192 0.051456 -0.998675
vn -0.001192 0.051456 -0.998675
s off
f 1/1/1 2/2/2 8/3/3 7/4/4
f 2/2/5 3/5/6 9/6/7 8/3/8
f 3/5/9 4/7/10 10/8/11 9/6/12
f 4/7/13 5/9/14 11/10/15 10/8/16
f 5/9/17 6/11/18 12/12/19 11/10/20
f 6/11/21 1/1/22 7/4/23 12/12/24
f 32/13/25 33/14/26 34/15/27 35/16/28
f 37/18/29 36/17/30 33/14/31 32/13/32
f 1/28/33 13/29/34 14/30/35 2/27/36
f 14/30/37 15/32/38 3/31/39 2/27/40
f 15/32/41 16/34/42 4/33/43 3/31/44
f 16/34/45 17/36/46 5/35/47 4/33/48
f 17/36/49 18/38/50 6/37/51 5/35/52
f 18/38/53 13/29/54 1/28/55 6/37/56
f 25/19/57 20/20/58 26/21/59 31/22/60
f 24/23/61 25/19/62 31/22/63 30/24/64
f 23/25/65 24/23/66 30/24/67 29/26/68
f 22/39/69 23/25/70 29/26/71 28/40/72
f 21/41/73 22/39/74 28/40/75 27/42/76
f 20/20/77 21/41/78 27/42/79 26/21/80
f 13/29/81 18/38/82 21/41/83 20/20/84
f 18/38/85 17/36/86 22/39/87 21/41/88
f 17/36/89 16/34/90 23/25/91 22/39/92
f 16/34/93 15/32/94 24/23/95 23/25/96
f 15/32/97 14/30/98 25/19/99 24/23/100
f 14/30/101 13/29/102 20/20/103 25/19/104
f 43/49/105 38/44/106 19/43/107
f 42/48/108 43/49/109 19/43/110
f 41/47/111 42/48/112 19/43/113
f 40/46/114 41/47/115 19/43/116
f 39/45/117 40/46/118 19/43/119
f 38/44/120 39/45/121 19/43/122
f 12/12/123 7/4/124 36/17/125 37/18/126
f 36/17/127 7/4/128 8/3/129 33/14/130
f 33/14/131 8/3/132 9/6/133 34/15/134
f 34/15/135 9/6/136 10/8/137 35/16/138
f 35/16/139 10/8/140 11/10/141 32/13/142
f 32/13/143 11/10/144 12/12/145 37/18/146
f 44/50/147 45/51/148 39/45/149 38/44/150
f 45/51/151 46/52/152 40/46/153 39/45/154
f 46/52/155 47/53/156 41/47/157 40/46/158
f 47/53/159 48/54/160 42/48/161 41/47/162
f 48/54/163 49/55/164 43/49/165 42/48/166
f 49/55/167 44/50/168 38/44/169 43/49/170
f 26/21/171 27/42/172 45/51/173 44/50/174
f 27/42/175 28/40/176 46/52/177 45/51/178
f 28/40/179 29/26/180 47/53/181 46/52/182
f 29/26/183 30/24/184 48/54/185 47/53/186
f 30/24/187 31/22/188 49/55/189 48/54/190
f 31/22/191 26/21/192 44/50/193 49/55/194
