# This file uses centimeters as units for non-parametric coordinates.

v -1.763298 -13.523502 -1.763297
v -2.301787 12.340542 -2.301527
v 2.309936 13.043041 -2.310478
v -2.271773 12.792217 1.931937
v 2.313433 13.317959 2.313673
v -1.763298 -14.036354 -1.383512
v -2.052795 0.144672 -0.824944
v -0.913575 -14.036354 -0.858705
v -1.763298 -14.036354 0.284400
v -0.179058 -13.908146 -1.763297
v 1.763298 -14.036354 -0.881649
v 1.899956 -7.266506 -1.900093
v 0.708839 -14.036354 -1.052047
v -1.763298 -14.036354 1.023921
v -1.777312 -13.297001 1.767945
v 1.763298 -14.036354 0.196852
v 1.778064 -13.302158 1.778068
v 1.013556 -14.036354 1.028952
v -3.167842 47.215061 -3.166588
v -3.174108 51.137802 3.158678
v 3.177902 51.417534 2.783494
v -2.388214 52.729340 0.000861
v -3.179604 51.934029 -0.790490
v -2.387820 52.729340 1.594134
v -3.178816 51.933640 2.375744
v 3.179704 51.688080 -0.786763
v 2.392338 52.729340 0.000657
v 2.392362 52.729340 1.601151
v 0.867839 49.546387 -3.166994
v 3.170881 50.048038 -2.125756
vt 0.005654 0.294521
vt 0.005664 0.294521
vt 0.005672 0.294765
vt 0.005673 0.294520
vt 0.005643 0.294519
vt 0.005661 0.294516
vt 0.005627 0.294746
vt 0.005648 0.294518
vt 0.005693 0.294975
vt 0.005711 0.294532
vt 0.005716 0.294979
vt 0.005664 0.294519
vt 0.005692 0.294520
vt 0.005682 0.294516
vt 0.005683 0.294515
vt 0.005689 0.294527
vt 0.005650 0.294976
vt 0.005724 0.246366
vt 0.005715 0.246377
vt 0.005677 0.246382
vt 0.005702 0.246386
vt 0.005649 0.246355
vt 0.005683 0.246388
vt 0.005690 0.246351
vt 0.005648 0.246360
vt 0.005623 0.294954
vt 0.005679 0.246370
vt 0.005661 0.246372
vt 0.005634 0.246344
vt 0.005644 0.246345
vn 0.412876 -0.005059 -0.910773
vn 0.412876 -0.005059 -0.910773
vn 0.412876 -0.005059 -0.910773
vn -0.047233 -0.013220 0.998796
vn -0.047233 -0.013220 0.998796
vn -0.047233 -0.013220 0.998796
vn -0.047233 -0.013220 0.998796
vn 0.000000 1.000000 -0.000001
vn 0.000000 1.000000 -0.000001
vn 0.000000 1.000000 -0.000001
vn 0.000000 1.000000 -0.000001
vn 0.001035 -0.022187 0.999753
vn 0.001035 -0.022187 0.999753
vn 0.001035 -0.022187 0.999753
vn 0.001035 -0.022187 0.999753
vn -0.800965 -0.062927 -0.595395
vn -0.800965 -0.062927 -0.595395
vn -0.800965 -0.062927 -0.595395
vn -0.999759 -0.020668 -0.007395
vn -0.999759 -0.020668 -0.007395
vn -0.999759 -0.020668 -0.007395
vn -0.999759 -0.020668 -0.007395
vn 0.157723 -0.150015 -0.976022
vn 0.157723 -0.150015 -0.976022
vn 0.157723 -0.150015 -0.976022
vn 0.000000 -1.000000 0.000005
vn 0.000000 -1.000000 0.000005
vn 0.000000 -1.000000 0.000005
vn 0.000000 -1.000000 0.000005
vn -0.999772 -0.019304 0.009148
vn -0.999772 -0.019304 0.009148
vn -0.999772 -0.019304 0.009148
vn -0.999795 -0.019319 0.006026
vn -0.999795 -0.019319 0.006026
vn -0.999795 -0.019319 0.006026
vn -0.999795 -0.019319 0.006026
vn -0.999795 -0.019319 0.006026
vn -0.524964 -0.044196 0.849976
vn -0.524964 -0.044196 0.849976
vn -0.524964 -0.044196 0.849976
vn 0.016997 -0.991787 -0.126768
vn 0.016997 -0.991787 -0.126768
vn 0.016997 -0.991787 -0.126768
vn 0.016997 -0.991787 -0.126768
vn -0.000334 -0.020541 -0.999789
vn -0.000334 -0.020541 -0.999789
vn -0.000334 -0.020541 -0.999789
vn -0.000334 -0.020541 -0.999789
vn 0.999797 -0.020141 0.000283
vn 0.999797 -0.020141 0.000283
vn 0.999797 -0.020141 0.000283
vn 0.999797 -0.020141 0.000283
vn 0.594356 -0.202082 -0.778398
vn 0.594356 -0.202082 -0.778398
vn 0.594356 -0.202082 -0.778398
vn -0.143005 -0.588998 -0.795381
vn -0.143005 -0.588998 -0.795381
vn -0.143005 -0.588998 -0.795381
vn 0.000000 -1.000000 -0.000001
vn 0.000000 -1.000000 -0.000001
vn 0.000000 -1.000000 -0.000001
vn 0.000000 -1.000000 -0.000001
vn -0.002262 -0.711188 0.702998
vn -0.002262 -0.711188 0.702998
vn -0.002262 -0.711188 0.702998
vn -0.002262 -0.711188 0.702998
vn 0.420485 -0.824408 0.378871
vn 0.420485 -0.824408 0.378871
vn 0.420485 -0.824408 0.378871
vn 0.000000 -1.000000 0.000000
vn 0.000000 -1.000000 0.000000
vn 0.000000 -1.000000 0.000000
vn 0.999796 -0.020176 0.000019
vn 0.999796 -0.020176 0.000019
vn 0.999796 -0.020176 0.000019
vn 0.999796 -0.020176 0.000019
vn -0.004647 -0.019138 -0.999806
vn -0.004647 -0.019138 -0.999806
vn -0.004647 -0.019138 -0.999806
vn -0.999995 -0.003202 0.000746
vn -0.999995 -0.003202 0.000746
vn -0.999995 -0.003202 0.000746
vn -0.999995 -0.003202 0.000746
vn -0.001046 0.701296 0.712870
vn -0.001046 0.701296 0.712870
vn -0.001046 0.701296 0.712870
vn -0.001046 0.701296 0.712870
vn -0.709021 0.705187 0.000234
vn -0.709021 0.705187 0.000234
vn -0.709021 0.705187 0.000234
vn -0.709021 0.705187 0.000234
vn 0.828706 0.558905 0.029528
vn 0.828706 0.558905 0.029528
vn 0.828706 0.558905 0.029528
vn 0.828706 0.558905 0.029528
vn -0.999632 -0.024203 0.012276
vn -0.999632 -0.024203 0.012276
vn -0.999632 -0.024203 0.012276
vn -0.999632 -0.024203 0.012276
vn 0.013941 0.674031 0.738572
vn 0.013941 0.674031 0.738572
vn 0.013941 0.674031 0.738572
vn 0.999732 -0.022992 0.002863
vn 0.999732 -0.022992 0.002863
vn 0.999732 -0.022992 0.002863
vn 0.999732 -0.022992 0.002863
vn 0.007295 -0.023876 -0.999688
vn 0.007295 -0.023876 -0.999688
vn 0.007295 -0.023876 -0.999688
vn 0.007295 -0.023876 -0.999688
vn 0.173474 0.642381 -0.746494
vn 0.173474 0.642381 -0.746494
vn 0.173474 0.642381 -0.746494
vn 0.173474 0.642381 -0.746494
vn 0.999985 -0.005454 0.000091
vn 0.999985 -0.005454 0.000091
vn 0.999985 -0.005454 0.000091
vn -0.000030 0.705363 -0.708847
vn -0.000030 0.705363 -0.708847
vn -0.000030 0.705363 -0.708847
vn -0.251261 0.434800 -0.864764
vn -0.251261 0.434800 -0.864764
vn -0.251261 0.434800 -0.864764
vn -0.000045 0.705412 -0.708797
vn -0.000045 0.705412 -0.708797
vn -0.000045 0.705412 -0.708797
s off
f 30/30/1 3/26/2 29/29/3
f 15/10/4 17/16/5 5/9/6 4/11/7
f 22/23/8 24/21/9 28/27/10 27/28/11
f 4/11/12 5/9/13 21/24/14 20/18/15
f 9/4/16 7/3/17 8/12/18
f 6/2/19 7/3/20 2/17/21 1/1/22
f 13/8/23 12/7/24 11/6/25
f 9/4/26 8/12/27 18/14/28 14/13/29
f 4/11/30 2/17/31 7/3/32
f 4/11/33 7/3/34 9/4/35 14/13/36 15/10/37
f 8/12/38 7/3/39 6/2/40
f 6/2/41 10/5/42 13/8/43 8/12/44
f 2/17/45 3/26/46 12/7/47 1/1/48
f 3/26/49 5/9/50 17/16/51 12/7/52
f 13/8/53 10/5/54 12/7/55
f 1/1/56 10/5/57 6/2/58
f 16/15/59 18/14/60 8/12/61 13/8/62
f 15/10/63 14/13/64 18/14/65 17/16/66
f 16/15/67 17/16/68 18/14/69
f 16/15/70 13/8/71 11/6/72
f 12/7/73 17/16/74 16/15/75 11/6/76
f 1/1/77 12/7/78 10/5/79
f 20/18/80 25/19/81 23/20/82 19/22/83
f 24/21/84 25/19/85 20/18/86 28/27/87
f 22/23/88 23/20/89 25/19/90 24/21/91
f 26/25/92 27/28/93 28/27/94 21/24/95
f 20/18/96 19/22/97 2/17/98 4/11/99
f 28/27/100 20/18/101 21/24/102
f 3/26/103 30/30/104 21/24/105 5/9/106
f 19/22/107 29/29/108 3/26/109 2/17/110
f 29/29/111 27/28/112 26/25/113 30/30/114
f 30/30/115 26/25/116 21/24/117
f 27/28/118 23/20/119 22/23/120
f 19/22/121 23/20/122 29/29/123
f 29/29/124 23/20/125 27/28/126
