# This file uses centimeters as units for non-parametric coordinates.

v -2.198844 0.000000 5.308481
v 2.198843 0.000000 5.308482
v 5.308479 0.000000 2.198843
v 5.308480 0.000000 -2.198843
v 2.198843 0.000000 -5.308481
v -2.198844 0.000000 -5.308482
v -5.308481 0.000000 -2.198843
v -5.308481 0.000000 2.198843
v -2.997568 1.693167 7.236766
v 2.997568 1.693167 7.236766
v 7.236766 1.693167 2.997567
v 7.236767 1.693167 -2.997568
v 2.997567 1.693167 -7.236766
v -2.997569 1.693167 -7.236766
v -7.236768 1.693167 -2.997568
v -7.236768 1.693167 2.997569
v -2.963606 19.253780 7.154778
v 2.963605 19.253780 7.154778
v 7.154778 19.253780 2.963605
v 7.154777 19.253780 -2.963605
v 2.963605 19.253780 -7.154778
v -2.963606 19.253780 -7.154778
v -7.154780 19.253780 -2.963606
v -7.154778 19.253780 2.963605
v -2.082293 20.311129 5.027099
v 2.082292 20.311129 5.027099
v 5.027098 20.311129 2.082292
v 5.027098 20.311129 -2.082291
v 2.082292 20.311129 -5.027099
v -2.082293 20.311129 -5.027099
v -5.027100 20.311129 -2.082292
v -5.027100 20.311129 2.082292
v -2.081803 19.516413 5.025915
v 2.081801 19.516413 5.025914
v 5.025913 19.516413 2.081802
v 5.025913 19.516413 -2.081802
v 2.081801 19.516413 -5.025915
v -2.081802 19.516413 -5.025914
v -5.025915 19.516413 -2.081802
v -5.025913 19.516413 2.081802
v -1.967595 20.683952 4.750193
v 1.967593 20.683952 4.750191
v 4.750192 20.683952 1.967594
v 4.750190 20.683952 -1.967593
v 1.967593 20.683952 -4.750191
v -1.967594 20.683952 -4.750191
v -4.750193 20.683952 -1.967594
v -4.750192 20.683952 1.967593
v -0.960486 21.742271 2.318816
v 0.960484 21.742271 2.318815
v 2.318815 21.742271 0.960485
v 2.318815 21.742271 -0.960485
v 0.960484 21.742271 -2.318815
v -0.960486 21.742271 -2.318815
v -2.318817 21.742271 -0.960485
v -2.318816 21.742271 0.960485
v -0.383583 21.901720 0.926050
v 0.383582 21.901720 0.926050
v 0.926049 21.901720 0.383583
v 0.926049 21.901720 -0.383582
v 0.383582 21.901720 -0.926050
v -0.383583 21.901720 -0.926049
v -0.926051 21.901720 -0.383582
v -0.926050 21.901720 0.383583
v -0.437797 24.246206 1.056934
v 0.437795 24.246206 1.056933
v 1.056933 24.246206 0.437796
v 1.056932 24.246206 -0.437796
v 0.437796 24.246206 -1.056933
v -0.437797 24.246206 -1.056933
v -1.056934 24.246206 -0.437796
v -1.056933 24.246206 0.437796
v -0.000001 24.246206 0.000000
v -0.000001 0.000000 0.000000
v -0.726372 23.114845 1.743479
v 0.723604 23.157005 1.749042
v 1.748209 23.139473 0.721167
v 1.739417 23.072865 -0.725556
v 0.714854 22.996910 -1.735946
v -0.717675 22.955763 -1.730515
v -1.731286 22.972809 -0.720087
v -1.739942 23.038412 0.715642
v -2.489811 20.311129 6.010936
v 2.489810 20.311129 6.010936
v 6.010936 20.311129 2.489810
v 6.010935 20.311129 -2.489810
v 2.489810 20.311129 -6.010936
v -2.489811 20.311129 -6.010936
v -6.010938 20.311129 -2.489811
v -6.010936 20.311129 2.489810
vt 0.121802 0.132231
vt 0.122077 0.132258
vt 0.122138 0.132173
vt 0.121936 0.132179
vt 0.122056 0.131532
vt 0.122052 0.131529
vt 0.122087 0.131531
vt 0.122079 0.131535
vt 0.197775 0.376870
vt 0.121814 0.132261
vt 0.197826 0.376724
vt 0.197855 0.376721
vt 0.121941 0.132273
vt 0.197938 0.376727
vt 0.122137 0.132280
vt 0.198114 0.376728
vt 0.122306 0.132286
vt 0.198271 0.376727
vt 0.122353 0.132278
vt 0.198332 0.376724
vt 0.122231 0.132250
vt 0.198240 0.376721
vt 0.122006 0.132228
vt 0.198032 0.376720
vt 0.121842 0.131744
vt 0.121823 0.131708
vt 0.121932 0.131671
vt 0.121947 0.131691
vt 0.121950 0.131683
vt 0.122005 0.131657
vt 0.122143 0.131680
vt 0.122120 0.131656
vt 0.122309 0.131700
vt 0.122217 0.131667
vt 0.122358 0.131735
vt 0.122242 0.131686
vt 0.122240 0.131766
vt 0.122172 0.131701
vt 0.122016 0.131770
vt 0.122047 0.131703
vt 0.121922 0.131671
vt 0.121937 0.131691
vt 0.121999 0.131656
vt 0.122122 0.131654
vt 0.122226 0.131666
vt 0.122253 0.131686
vt 0.122179 0.131703
vt 0.122044 0.131705
vt 0.121931 0.131636
vt 0.121945 0.131654
vt 0.122004 0.131622
vt 0.122121 0.131621
vt 0.122220 0.131631
vt 0.122245 0.131649
vt 0.122174 0.131664
vt 0.122047 0.131666
vt 0.122010 0.131606
vt 0.122018 0.131614
vt 0.122045 0.131600
vt 0.122104 0.131599
vt 0.122152 0.131604
vt 0.122163 0.131612
vt 0.122129 0.131619
vt 0.122068 0.131620
vt 0.122055 0.131603
vt 0.122059 0.131606
vt 0.122070 0.131601
vt 0.122093 0.131600
vt 0.122113 0.131602
vt 0.122117 0.131605
vt 0.122103 0.131608
vt 0.122079 0.131608
vt 0.122029 0.131563
vt 0.122036 0.131570
vt 0.122056 0.131559
vt 0.122100 0.131561
vt 0.122137 0.131567
vt 0.122144 0.131573
vt 0.122118 0.131577
vt 0.122073 0.131576
vt 0.122095 0.131527
vt 0.122068 0.131527
vt 0.122122 0.131532
vt 0.122118 0.131529
vt 0.122106 0.131534
vt 0.121819 0.132305
vt 0.122004 0.132358
vt 0.122241 0.132349
vt 0.122366 0.132286
vt 0.122313 0.132214
vt 0.121890 0.131719
vt 0.121874 0.131691
vt 0.121975 0.131671
vt 0.122132 0.131669
vt 0.122267 0.131685
vt 0.122305 0.131712
vt 0.122209 0.131736
vt 0.122030 0.131739
vt 0.198016 0.376876
vt 0.121832 0.132238
vt 0.198301 0.376872
vt 0.198418 0.376861
vt 0.198331 0.376852
vt 0.198125 0.376849
vt 0.197897 0.376851
vt 0.197744 0.376860
vn 0.466556 -0.751433 0.466555
vn 0.466556 -0.751433 0.466555
vn 0.466556 -0.751433 0.466555
vn 0.466556 -0.751433 0.466555
vn 0.659809 -0.751433 0.000000
vn 0.659809 -0.751433 0.000000
vn 0.659809 -0.751433 0.000000
vn 0.659809 -0.751433 0.000000
vn 0.466556 -0.751433 -0.466556
vn 0.466556 -0.751433 -0.466556
vn 0.466556 -0.751433 -0.466556
vn 0.466556 -0.751433 -0.466556
vn 0.000000 -0.751433 -0.659810
vn 0.000000 -0.751433 -0.659810
vn 0.000000 -0.751433 -0.659810
vn 0.000000 -0.751433 -0.659810
vn -0.466556 -0.751433 -0.466556
vn -0.466556 -0.751433 -0.466556
vn -0.466556 -0.751433 -0.466556
vn -0.466556 -0.751433 -0.466556
vn -0.659809 -0.751433 0.000000
vn -0.659809 -0.751433 0.000000
vn -0.659809 -0.751433 0.000000
vn -0.659809 -0.751433 0.000000
vn -0.466556 -0.751433 0.466556
vn -0.466556 -0.751433 0.466556
vn -0.466556 -0.751433 0.466556
vn -0.466556 -0.751433 0.466556
vn 0.000000 -1.000000 0.000000
vn 0.000000 -1.000000 0.000000
vn 0.000000 -1.000000 0.000000
vn 0.000000 -1.000000 0.000000
vn 0.000000 1.000000 0.000000
vn 0.000000 1.000000 0.000000
vn 0.000000 1.000000 0.000000
vn 0.000000 1.000000 0.000000
vn 0.000000 0.004669 0.999989
vn 0.000000 0.004669 0.999989
vn 0.000000 0.004669 0.999989
vn 0.000000 0.004669 0.999989
vn 0.707099 0.004669 0.707099
vn 0.707099 0.004669 0.707099
vn 0.707099 0.004669 0.707099
vn 0.707099 0.004669 0.707099
vn 0.999989 0.004669 -0.000000
vn 0.999989 0.004669 -0.000000
vn 0.999989 0.004669 -0.000000
vn 0.999989 0.004669 -0.000000
vn 0.707099 0.004669 -0.707099
vn 0.707099 0.004669 -0.707099
vn 0.707099 0.004669 -0.707099
vn 0.707099 0.004669 -0.707099
vn 0.000000 0.004669 -0.999989
vn 0.000000 0.004669 -0.999989
vn 0.000000 0.004669 -0.999989
vn 0.000000 0.004669 -0.999989
vn -0.707099 0.004669 -0.707099
vn -0.707099 0.004669 -0.707099
vn -0.707099 0.004669 -0.707099
vn -0.707099 0.004669 -0.707099
vn -0.999989 0.004669 0.000000
vn -0.999989 0.004669 0.000000
vn -0.999989 0.004669 0.000000
vn -0.999989 0.004669 0.000000
vn -0.707099 0.004669 0.707099
vn -0.707099 0.004669 0.707099
vn -0.707099 0.004669 0.707099
vn -0.707099 0.004669 0.707099
vn 0.000000 1.000000 -0.000000
vn 0.000000 1.000000 -0.000000
vn 0.000000 1.000000 -0.000000
vn 0.000000 1.000000 -0.000000
vn 0.000000 1.000000 -0.000001
vn 0.000000 1.000000 -0.000001
vn 0.000000 1.000000 -0.000001
vn 0.000000 1.000000 -0.000001
vn 0.000000 1.000000 0.000000
vn 0.000000 1.000000 0.000000
vn 0.000000 1.000000 0.000000
vn 0.000000 1.000000 0.000000
vn 0.000000 1.000000 0.000001
vn 0.000000 1.000000 0.000001
vn 0.000000 1.000000 0.000001
vn 0.000000 1.000000 0.000001
vn 0.000000 1.000000 0.000000
vn 0.000000 1.000000 0.000000
vn 0.000000 1.000000 0.000000
vn 0.000000 1.000000 0.000000
vn 0.000000 1.000000 -0.000001
vn 0.000000 1.000000 -0.000001
vn 0.000000 1.000000 -0.000001
vn 0.000000 1.000000 -0.000001
vn 0.000000 1.000000 0.000000
vn 0.000000 1.000000 0.000000
vn 0.000000 1.000000 0.000000
vn 0.000000 1.000000 0.000000
vn 0.000000 1.000000 0.000001
vn 0.000000 1.000000 0.000001
vn 0.000000 1.000000 0.000001
vn 0.000000 1.000000 0.000001
vn -0.000000 0.001490 -0.999999
vn -0.000000 0.001490 -0.999999
vn -0.000000 0.001490 -0.999999
vn -0.000000 0.001490 -0.999999
vn -0.707106 0.001491 -0.707106
vn -0.707106 0.001491 -0.707106
vn -0.707106 0.001491 -0.707106
vn -0.707106 0.001491 -0.707106
vn -0.999999 0.001491 0.000000
vn -0.999999 0.001491 0.000000
vn -0.999999 0.001491 0.000000
vn -0.999999 0.001491 0.000000
vn -0.707106 0.001490 0.707106
vn -0.707106 0.001490 0.707106
vn -0.707106 0.001490 0.707106
vn -0.707106 0.001490 0.707106
vn 0.000000 0.001491 0.999999
vn 0.000000 0.001491 0.999999
vn 0.000000 0.001491 0.999999
vn 0.000000 0.001491 0.999999
vn 0.707106 0.001490 0.707106
vn 0.707106 0.001490 0.707106
vn 0.707106 0.001490 0.707106
vn 0.707106 0.001490 0.707106
vn 0.999999 0.001492 -0.000000
vn 0.999999 0.001492 -0.000000
vn 0.999999 0.001492 -0.000000
vn 0.999999 0.001492 -0.000000
vn 0.707106 0.001491 -0.707106
vn 0.707106 0.001491 -0.707106
vn 0.707106 0.001491 -0.707106
vn 0.707106 0.001491 -0.707106
vn 0.000000 0.229835 0.973230
vn 0.000000 0.229835 0.973230
vn 0.000000 0.229835 0.973230
vn 0.000000 0.229835 0.973230
vn 0.688177 0.229835 0.688178
vn 0.688177 0.229835 0.688178
vn 0.688177 0.229835 0.688178
vn 0.688177 0.229835 0.688178
vn 0.973230 0.229834 -0.000000
vn 0.973230 0.229834 -0.000000
vn 0.973230 0.229834 -0.000000
vn 0.973230 0.229834 -0.000000
vn 0.688177 0.229835 -0.688177
vn 0.688177 0.229835 -0.688177
vn 0.688177 0.229835 -0.688177
vn 0.688177 0.229835 -0.688177
vn 0.000000 0.229836 -0.973230
vn 0.000000 0.229836 -0.973230
vn 0.000000 0.229836 -0.973230
vn 0.000000 0.229836 -0.973230
vn -0.688177 0.229835 -0.688177
vn -0.688177 0.229835 -0.688177
vn -0.688177 0.229835 -0.688177
vn -0.688177 0.229835 -0.688177
vn -0.973230 0.229834 0.000000
vn -0.973230 0.229834 0.000000
vn -0.973230 0.229834 0.000000
vn -0.973230 0.229834 0.000000
vn -0.688177 0.229835 0.688177
vn -0.688177 0.229835 0.688177
vn -0.688177 0.229835 0.688177
vn -0.688177 0.229835 0.688177
vn 0.000000 0.916905 0.399106
vn 0.000000 0.916905 0.399106
vn 0.000000 0.916905 0.399106
vn 0.000000 0.916905 0.399106
vn 0.282211 0.916905 0.282211
vn 0.282211 0.916905 0.282211
vn 0.282211 0.916905 0.282211
vn 0.282211 0.916905 0.282211
vn 0.399106 0.916905 0.000000
vn 0.399106 0.916905 0.000000
vn 0.399106 0.916905 0.000000
vn 0.399106 0.916905 0.000000
vn 0.282211 0.916905 -0.282211
vn 0.282211 0.916905 -0.282211
vn 0.282211 0.916905 -0.282211
vn 0.282211 0.916905 -0.282211
vn 0.000000 0.916904 -0.399107
vn 0.000000 0.916904 -0.399107
vn 0.000000 0.916904 -0.399107
vn 0.000000 0.916904 -0.399107
vn -0.282211 0.916905 -0.282211
vn -0.282211 0.916905 -0.282211
vn -0.282211 0.916905 -0.282211
vn -0.282211 0.916905 -0.282211
vn -0.399106 0.916905 0.000000
vn -0.399106 0.916905 0.000000
vn -0.399106 0.916905 0.000000
vn -0.399106 0.916905 0.000000
vn -0.282211 0.916905 0.282210
vn -0.282211 0.916905 0.282210
vn -0.282211 0.916905 0.282210
vn -0.282211 0.916905 0.282210
vn 0.000000 0.993510 0.113741
vn 0.000000 0.993510 0.113741
vn 0.000000 0.993510 0.113741
vn 0.000000 0.993510 0.113741
vn 0.080427 0.993511 0.080426
vn 0.080427 0.993511 0.080426
vn 0.080427 0.993511 0.080426
vn 0.080427 0.993511 0.080426
vn 0.113740 0.993511 0.000000
vn 0.113740 0.993511 0.000000
vn 0.113740 0.993511 0.000000
vn 0.113740 0.993511 0.000000
vn 0.080427 0.993510 -0.080428
vn 0.080427 0.993510 -0.080428
vn 0.080427 0.993510 -0.080428
vn 0.080427 0.993510 -0.080428
vn -0.000000 0.993510 -0.113741
vn -0.000000 0.993510 -0.113741
vn -0.000000 0.993510 -0.113741
vn -0.000000 0.993510 -0.113741
vn -0.080427 0.993511 -0.080426
vn -0.080427 0.993511 -0.080426
vn -0.080427 0.993511 -0.080426
vn -0.080427 0.993511 -0.080426
vn -0.113740 0.993511 0.000000
vn -0.113740 0.993511 0.000000
vn -0.113740 0.993511 0.000000
vn -0.113740 0.993511 0.000000
vn -0.080427 0.993510 0.080428
vn -0.080427 0.993510 0.080428
vn -0.080427 0.993510 0.080428
vn -0.080427 0.993510 0.080428
vn 0.008435 -0.553461 0.832832
vn 0.008435 -0.553461 0.832832
vn 0.008435 -0.553461 0.832832
vn 0.008435 -0.553461 0.832832
vn 0.588020 -0.550145 0.592936
vn 0.588020 -0.550145 0.592936
vn 0.588020 -0.550145 0.592936
vn 0.588020 -0.550145 0.592936
vn 0.827264 -0.561648 0.013613
vn 0.827264 -0.561648 0.013613
vn 0.827264 -0.561648 0.013613
vn 0.827264 -0.561648 0.013613
vn 0.586290 -0.582338 -0.563157
vn 0.586290 -0.582338 -0.563157
vn 0.586290 -0.582338 -0.563157
vn 0.586290 -0.582338 -0.563157
vn 0.009260 -0.600546 -0.799537
vn 0.009260 -0.600546 -0.799537
vn 0.009260 -0.600546 -0.799537
vn 0.009260 -0.600546 -0.799537
vn -0.566048 -0.604439 -0.560574
vn -0.566048 -0.604439 -0.560574
vn -0.566048 -0.604439 -0.560574
vn -0.566048 -0.604439 -0.560574
vn -0.806320 -0.591304 0.014442
vn -0.806320 -0.591304 0.014442
vn -0.806320 -0.591304 0.014442
vn -0.806320 -0.591304 0.014442
vn -0.569577 -0.570037 0.592149
vn -0.569577 -0.570037 0.592149
vn -0.569577 -0.570037 0.592149
vn -0.569577 -0.570037 0.592149
vn 0.000000 1.000000 0.000000
vn 0.000000 1.000000 0.000000
vn 0.000000 1.000000 0.000000
vn 0.000000 1.000000 0.000000
vn 0.000000 1.000000 0.000000
vn 0.000000 1.000000 0.000000
vn 0.000000 1.000000 0.000000
vn 0.000000 1.000000 0.000000
vn 0.000000 1.000000 0.000001
vn 0.000000 1.000000 0.000001
vn 0.000000 1.000000 0.000001
vn 0.000000 1.000000 0.000001
vn -0.000000 -0.751433 0.659810
vn -0.000000 -0.751433 0.659810
vn -0.000000 -0.751433 0.659810
vn -0.000000 -0.751433 0.659810
vn 0.000000 -1.000000 0.000000
vn 0.000000 -1.000000 0.000000
vn 0.000000 -1.000000 0.000000
vn 0.000000 -1.000000 0.000000
vn 0.000000 -1.000000 0.000000
vn 0.000000 -1.000000 0.000000
vn 0.000000 -1.000000 0.000000
vn 0.000000 -1.000000 0.000000
vn 0.000000 -1.000000 0.000000
vn 0.000000 -1.000000 0.000000
vn 0.000000 -1.000000 0.000000
vn 0.000000 -1.000000 0.000000
vn -0.011594 0.527442 0.849512
vn -0.011594 0.527442 0.849512
vn -0.011594 0.527442 0.849512
vn -0.011594 0.527442 0.849512
vn 0.602039 0.532270 0.595179
vn 0.602039 0.532270 0.595179
vn 0.602039 0.532270 0.595179
vn 0.602039 0.532270 0.595179
vn 0.856389 0.516016 -0.018043
vn 0.856389 0.516016 -0.018043
vn 0.856389 0.516016 -0.018043
vn 0.856389 0.516016 -0.018043
vn 0.602192 0.490026 -0.630270
vn 0.602192 0.490026 -0.630270
vn 0.602192 0.490026 -0.630270
vn 0.602192 0.490026 -0.630270
vn -0.010457 0.470049 -0.882579
vn -0.010457 0.470049 -0.882579
vn -0.010457 0.470049 -0.882579
vn -0.010457 0.470049 -0.882579
vn -0.622553 0.466083 -0.628645
vn -0.622553 0.466083 -0.628645
vn -0.622553 0.466083 -0.628645
vn -0.622553 0.466083 -0.628645
vn -0.877165 0.479892 -0.016906
vn -0.877165 0.479892 -0.016906
vn -0.877165 0.479892 -0.016906
vn -0.877165 0.479892 -0.016906
vn -0.624563 0.505019 0.595715
vn -0.624563 0.505019 0.595715
vn -0.624563 0.505019 0.595715
vn -0.624563 0.505019 0.595715
vn 0.000000 0.734325 0.678798
vn 0.000000 0.734325 0.678798
vn 0.000000 0.734325 0.678798
vn 0.000000 0.734325 0.678798
vn 0.479983 0.734325 0.479983
vn 0.479983 0.734325 0.479983
vn 0.479983 0.734325 0.479983
vn 0.479983 0.734325 0.479983
vn 0.678798 0.734325 0.000000
vn 0.678798 0.734325 0.000000
vn 0.678798 0.734325 0.000000
vn 0.678798 0.734325 0.000000
vn 0.479983 0.734325 -0.479982
vn 0.479983 0.734325 -0.479982
vn 0.479983 0.734325 -0.479982
vn 0.479983 0.734325 -0.479982
vn 0.000000 0.734325 -0.678798
vn 0.000000 0.734325 -0.678798
vn 0.000000 0.734325 -0.678798
vn 0.000000 0.734325 -0.678798
vn -0.479983 0.734326 -0.479982
vn -0.479983 0.734326 -0.479982
vn -0.479983 0.734326 -0.479982
vn -0.479983 0.734326 -0.479982
vn -0.678798 0.734325 0.000000
vn -0.678798 0.734325 0.000000
vn -0.678798 0.734325 0.000000
vn -0.678798 0.734325 0.000000
vn -0.479983 0.734325 0.479982
vn -0.479983 0.734325 0.479982
vn -0.479983 0.734325 0.479982
vn -0.479983 0.734325 0.479982
s off
f 3/4/1 11/13/2 10/10/3 2/1/4
f 4/3/5 12/15/6 11/13/7 3/4/8
f 5/90/9 13/17/10 12/15/11 4/3/12
f 6/89/13 14/19/14 13/17/15 5/90/16
f 7/88/17 15/21/18 14/19/19 6/89/20
f 8/87/21 16/23/22 15/21/23 7/88/24
f 9/100/25 16/23/26 8/87/27 1/86/28
f 2/1/29 74/2/30 4/3/31 3/4/32
f 65/5/33 66/6/34 73/7/35 72/8/36
f 9/9/37 10/106/38 18/11/39 17/12/40
f 10/106/41 11/105/42 19/14/43 18/11/44
f 11/105/45 12/104/46 20/16/47 19/14/48
f 12/104/49 13/103/50 21/18/51 20/16/52
f 13/103/53 14/102/54 22/20/55 21/18/56
f 14/102/57 15/101/58 23/22/59 22/20/60
f 15/101/61 16/99/62 24/24/63 23/22/64
f 16/99/65 9/9/66 17/12/67 24/24/68
f 83/91/69 84/92/70 26/27/71 25/28/72
f 84/92/73 85/93/74 27/30/75 26/27/76
f 85/93/77 86/94/78 28/32/79 27/30/80
f 86/94/81 87/95/82 29/34/83 28/32/84
f 87/95/85 88/96/86 30/36/87 29/34/88
f 88/96/89 89/97/90 31/38/91 30/36/92
f 89/97/93 90/98/94 32/40/95 31/38/96
f 90/98/97 83/91/98 25/28/99 32/40/100
f 25/28/101 26/27/102 34/41/103 33/42/104
f 26/27/105 27/30/106 35/43/107 34/41/108
f 27/30/109 28/32/110 36/44/111 35/43/112
f 28/32/113 29/34/114 37/45/115 36/44/116
f 29/34/117 30/36/118 38/46/119 37/45/120
f 30/36/121 31/38/122 39/47/123 38/46/124
f 31/38/125 32/40/126 40/48/127 39/47/128
f 32/40/129 25/28/130 33/42/131 40/48/132
f 33/42/133 34/41/134 42/49/135 41/50/136
f 34/41/137 35/43/138 43/51/139 42/49/140
f 35/43/141 36/44/142 44/52/143 43/51/144
f 36/44/145 37/45/146 45/53/147 44/52/148
f 37/45/149 38/46/150 46/54/151 45/53/152
f 38/46/153 39/47/154 47/55/155 46/54/156
f 39/47/157 40/48/158 48/56/159 47/55/160
f 40/48/161 33/42/162 41/50/163 48/56/164
f 41/50/165 42/49/166 50/57/167 49/58/168
f 42/49/169 43/51/170 51/59/171 50/57/172
f 43/51/173 44/52/174 52/60/175 51/59/176
f 44/52/177 45/53/178 53/61/179 52/60/180
f 45/53/181 46/54/182 54/62/183 53/61/184
f 46/54/185 47/55/186 55/63/187 54/62/188
f 47/55/189 48/56/190 56/64/191 55/63/192
f 48/56/193 41/50/194 49/58/195 56/64/196
f 49/58/197 50/57/198 58/65/199 57/66/200
f 50/57/201 51/59/202 59/67/203 58/65/204
f 51/59/205 52/60/206 60/68/207 59/67/208
f 52/60/209 53/61/210 61/69/211 60/68/212
f 53/61/213 54/62/214 62/70/215 61/69/216
f 54/62/217 55/63/218 63/71/219 62/70/220
f 55/63/221 56/64/222 64/72/223 63/71/224
f 56/64/225 49/58/226 57/66/227 64/72/228
f 57/66/229 58/65/230 76/73/231 75/74/232
f 58/65/233 59/67/234 77/75/235 76/73/236
f 59/67/237 60/68/238 78/76/239 77/75/240
f 60/68/241 61/69/242 79/77/243 78/76/244
f 61/69/245 62/70/246 80/78/247 79/77/248
f 62/70/249 63/71/250 81/79/251 80/78/252
f 63/71/253 64/72/254 82/80/255 81/79/256
f 64/72/257 57/66/258 75/74/259 82/80/260
f 68/81/261 73/7/262 66/6/263 67/82/264
f 70/83/265 73/7/266 68/81/267 69/84/268
f 72/8/269 73/7/270 70/83/271 71/85/272
f 9/100/273 1/86/274 2/1/275 10/10/276
f 1/86/277 8/87/278 74/2/279 2/1/280
f 74/2/281 8/87/282 7/88/283 6/89/284
f 4/3/285 74/2/286 6/89/287 5/90/288
f 75/74/289 76/73/290 66/6/291 65/5/292
f 76/73/293 77/75/294 67/82/295 66/6/296
f 77/75/297 78/76/298 68/81/299 67/82/300
f 78/76/301 79/77/302 69/84/303 68/81/304
f 79/77/305 80/78/306 70/83/307 69/84/308
f 80/78/309 81/79/310 71/85/311 70/83/312
f 81/79/313 82/80/314 72/8/315 71/85/316
f 82/80/317 75/74/318 65/5/319 72/8/320
f 17/25/321 18/26/322 84/92/323 83/91/324
f 18/26/325 19/29/326 85/93/327 84/92/328
f 19/29/329 20/31/330 86/94/331 85/93/332
f 20/31/333 21/33/334 87/95/335 86/94/336
f 21/33/337 22/35/338 88/96/339 87/95/340
f 22/35/341 23/37/342 89/97/343 88/96/344
f 23/37/345 24/39/346 90/98/347 89/97/348
f 24/39/349 17/25/350 83/91/351 90/98/352
