# This file uses centimeters as units for non-parametric coordinates.

v 3.132016 0.000000 -5.424846
v -3.132082 0.000000 -5.424846
v -6.264132 0.000000 0.000000
v -3.132082 0.000000 5.424846
v 3.132016 0.000000 5.424846
v 6.264065 0.000000 0.000000
v 0.711469 53.087963 -1.232584
v -0.711636 53.087963 -1.232584
v -1.423021 53.087963 0.000005
v -0.711636 53.087963 1.232034
v 0.711469 53.087963 1.232034
v 1.423188 53.087963 0.000005
v -0.000033 0.000000 0.000000
v -0.000029 53.087963 0.000005
v -1.718250 32.915138 2.976029
v 1.718216 32.915138 2.976029
v 3.436399 32.915138 -0.000000
v 1.718216 32.915138 -2.975996
v -1.718216 32.915138 -2.975996
v -3.436433 32.915138 -0.000000
v -3.855926 20.857504 6.678598
v 3.855859 20.857504 6.678598
v 7.711751 20.857504 -0.000000
v 3.855859 20.857504 -6.678565
v -3.855926 20.857504 -6.678565
v -7.711818 20.857504 -0.000000
v -3.855926 2.223292 6.678598
v 3.855859 2.223292 6.678598
v 7.711751 2.223292 0.000000
v 3.855859 2.223292 -6.678565
v -3.855926 2.223292 -6.678565
v -7.711818 2.223292 0.000000
v -1.339601 47.076149 -2.320293
v 1.339568 47.076149 -2.320293
v 2.679202 47.076149 -0.000000
v 1.339568 47.076149 2.320293
v -1.339601 47.076149 2.320293
v -2.679235 47.076149 -0.000000
v 1.824171 47.592667 -3.159721
v 3.648510 47.592667 -0.000000
v 1.824171 47.592667 3.159721
v -1.824238 47.592667 3.159721
v -3.648576 47.592667 -0.000000
v -1.824238 47.592667 -3.159721
v -1.376618 52.491062 -2.384414
v 1.376585 52.491062 -2.384414
v 2.753278 52.491062 -0.000000
v 1.376585 52.491062 2.384414
v -1.376618 52.491062 2.384414
v -2.753311 52.491062 -0.000000
v -1.574446 36.946331 -2.727003
v -3.148893 36.946331 -0.000000
v -1.574480 36.946331 2.727036
v 1.574380 36.946331 2.727036
v 3.148826 36.946331 -0.000000
v 1.574380 36.946331 -2.727003
v 1.799435 48.996010 -3.116861
v -1.799490 48.996010 -3.116861
v -3.599081 48.996010 -0.000000
v -1.799490 48.996010 3.116861
v 1.799435 48.996010 3.116861
v 3.599025 48.996010 -0.000000
v 1.010102 49.476768 -1.749647
v -1.010154 49.476768 -1.749647
v -2.020353 49.476768 0.000000
v -1.010154 49.476768 1.749647
v 1.010102 49.476768 1.749647
v 2.020301 49.476768 0.000000
vt 0.122943 0.178974
vt 0.122943 0.178974
vt 0.122943 0.178974
vt 0.122943 0.178974
vt 0.122943 0.178974
vt 0.122943 0.178974
vt 0.122943 0.178974
vt 0.122943 0.178974
vt 0.122943 0.178974
vt 0.122943 0.178974
vt 0.122943 0.178974
vt 0.122943 0.178974
vt 0.122943 0.178974
vt 0.122945 0.178975
vt 0.122945 0.178975
vt 0.122945 0.178975
vt 0.122945 0.178975
vt 0.122945 0.178975
vt 0.122945 0.178975
vt 0.122945 0.178975
vt 0.122945 0.178975
vt 0.122945 0.178975
vt 0.122945 0.178975
vt 0.122945 0.178975
vt 0.122945 0.178975
vt 0.005393 0.303237
vt 0.122943 0.178974
vt 0.005393 0.303237
vt 0.122943 0.178974
vt 0.122943 0.178974
vt 0.122943 0.178974
vt 0.122943 0.178974
vt 0.122943 0.178974
vt 0.122943 0.178974
vt 0.122943 0.178974
vt 0.122943 0.178974
vt 0.122943 0.178974
vt 0.122943 0.178974
vt 0.122943 0.178974
vt 0.122943 0.178974
vt 0.122943 0.178974
vt 0.122943 0.178974
vt 0.122943 0.178974
vt 0.122943 0.178974
vt 0.122943 0.178974
vt 0.122943 0.178974
vt 0.122943 0.178974
vt 0.122943 0.178974
vt 0.005393 0.303237
vt 0.005393 0.303237
vt 0.005393 0.303237
vt 0.005393 0.303237
vt 0.005393 0.303237
vt 0.122945 0.178975
vt 0.122945 0.178975
vt 0.122945 0.178975
vt 0.122945 0.178975
vt 0.122945 0.178975
vt 0.122945 0.178975
vt 0.005393 0.303237
vt 0.005393 0.303237
vt 0.005393 0.303237
vt 0.005393 0.303237
vt 0.005393 0.303237
vt 0.005393 0.303237
vt 0.122945 0.178975
vt 0.122945 0.178975
vt 0.122945 0.178975
vt 0.122945 0.178975
vt 0.122945 0.178975
vt 0.122945 0.178975
vt 0.005393 0.303237
vt 0.122945 0.178975
vt 0.122945 0.178975
vt 0.122945 0.178975
vt 0.122945 0.178975
vt 0.122945 0.178975
vt 0.005393 0.303237
vt 0.122945 0.178975
vt 0.005393 0.303237
vt 0.005393 0.303237
vt 0.005393 0.303237
vt 0.005393 0.303237
vn 0.000000 0.040117 -0.999195
vn 0.000000 0.040117 -0.999195
vn 0.000000 0.040117 -0.999195
vn 0.000000 0.040117 -0.999195
vn -0.865326 0.040120 -0.499600
vn -0.865326 0.040120 -0.499600
vn -0.865326 0.040120 -0.499600
vn -0.865326 0.040120 -0.499600
vn -0.865330 0.040122 0.499594
vn -0.865330 0.040122 0.499594
vn -0.865330 0.040122 0.499594
vn -0.865330 0.040122 0.499594
vn 0.000000 0.040121 0.999195
vn 0.000000 0.040121 0.999195
vn 0.000000 0.040121 0.999195
vn 0.000000 0.040121 0.999195
vn 0.865328 0.040118 0.499598
vn 0.865328 0.040118 0.499598
vn 0.865328 0.040118 0.499598
vn 0.865328 0.040118 0.499598
vn 0.865326 0.040117 -0.499601
vn 0.865326 0.040117 -0.499601
vn 0.865326 0.040117 -0.499601
vn 0.865326 0.040117 -0.499601
vn 0.000000 -1.000000 0.000000
vn 0.000000 -1.000000 0.000000
vn 0.000000 -1.000000 0.000000
vn 0.000000 -1.000000 0.000000
vn 0.000000 -1.000000 0.000000
vn 0.000000 -1.000000 0.000000
vn 0.000000 -1.000000 0.000000
vn 0.000000 -1.000000 0.000000
vn 0.000000 -1.000000 0.000000
vn 0.000000 -1.000000 -0.000000
vn 0.000000 -1.000000 -0.000000
vn 0.000000 -1.000000 -0.000000
vn 0.000000 -1.000000 0.000000
vn 0.000000 -1.000000 0.000000
vn 0.000000 -1.000000 0.000000
vn 0.000000 -1.000000 0.000000
vn 0.000000 -1.000000 0.000000
vn 0.000000 -1.000000 0.000000
vn 0.000000 1.000000 0.000004
vn 0.000000 1.000000 0.000004
vn 0.000000 1.000000 0.000004
vn 0.000000 1.000000 -0.000004
vn 0.000000 1.000000 -0.000004
vn 0.000000 1.000000 -0.000004
vn 0.000000 1.000000 0.000000
vn 0.000000 1.000000 0.000000
vn 0.000000 1.000000 0.000000
vn 0.000000 1.000000 -0.000004
vn 0.000000 1.000000 -0.000004
vn 0.000000 1.000000 -0.000004
vn 0.000000 1.000000 0.000000
vn 0.000000 1.000000 0.000000
vn 0.000000 1.000000 0.000000
vn 0.000000 1.000000 0.000000
vn 0.000000 1.000000 0.000000
vn 0.000000 1.000000 0.000000
vn 0.000000 0.293545 0.955945
vn 0.000000 0.293545 0.955945
vn 0.000000 0.293545 0.955945
vn 0.000000 0.293545 0.955945
vn 0.827874 0.293543 0.477971
vn 0.827874 0.293543 0.477971
vn 0.827874 0.293543 0.477971
vn 0.827874 0.293543 0.477971
vn 0.827873 0.293543 -0.477974
vn 0.827873 0.293543 -0.477974
vn 0.827873 0.293543 -0.477974
vn 0.827873 0.293543 -0.477974
vn 0.000000 0.293545 -0.955945
vn 0.000000 0.293545 -0.955945
vn 0.000000 0.293545 -0.955945
vn 0.000000 0.293545 -0.955945
vn -0.827871 0.293546 -0.477975
vn -0.827871 0.293546 -0.477975
vn -0.827871 0.293546 -0.477975
vn -0.827871 0.293546 -0.477975
vn -0.827874 0.293545 0.477971
vn -0.827874 0.293545 0.477971
vn -0.827874 0.293545 0.477971
vn -0.827874 0.293545 0.477971
vn 0.000000 0.000000 -1.000000
vn 0.000000 0.000000 -1.000000
vn 0.000000 0.000000 -1.000000
vn 0.000000 0.000000 -1.000000
vn 0.000000 -0.491199 0.871048
vn 0.000000 -0.491199 0.871048
vn 0.000000 -0.491199 0.871048
vn 0.000000 -0.491199 0.871048
vn 0.754351 -0.491194 0.435526
vn 0.754351 -0.491194 0.435526
vn 0.754351 -0.491194 0.435526
vn 0.754351 -0.491194 0.435526
vn 0.754352 -0.491192 -0.435527
vn 0.754352 -0.491192 -0.435527
vn 0.754352 -0.491192 -0.435527
vn 0.754352 -0.491192 -0.435527
vn 0.000000 -0.491189 -0.871053
vn 0.000000 -0.491189 -0.871053
vn 0.000000 -0.491189 -0.871053
vn 0.000000 -0.491189 -0.871053
vn -0.754352 -0.491192 -0.435527
vn -0.754352 -0.491192 -0.435527
vn -0.754352 -0.491192 -0.435527
vn -0.754352 -0.491192 -0.435527
vn -0.754351 -0.491194 0.435526
vn -0.754351 -0.491194 0.435526
vn -0.754351 -0.491194 0.435526
vn -0.754351 -0.491194 0.435526
vn 0.000000 -0.851685 -0.524055
vn 0.000000 -0.851685 -0.524055
vn 0.000000 -0.851685 -0.524055
vn 0.000000 -0.851685 -0.524055
vn 0.453848 -0.851680 -0.262035
vn 0.453848 -0.851680 -0.262035
vn 0.453848 -0.851680 -0.262035
vn 0.453848 -0.851680 -0.262035
vn 0.453848 -0.851681 0.262035
vn 0.453848 -0.851681 0.262035
vn 0.453848 -0.851681 0.262035
vn 0.453848 -0.851681 0.262035
vn 0.000000 -0.851686 0.524053
vn 0.000000 -0.851686 0.524053
vn 0.000000 -0.851686 0.524053
vn 0.000000 -0.851686 0.524053
vn -0.453836 -0.851688 0.262032
vn -0.453836 -0.851688 0.262032
vn -0.453836 -0.851688 0.262032
vn -0.453836 -0.851688 0.262032
vn -0.453837 -0.851688 -0.262030
vn -0.453837 -0.851688 -0.262030
vn -0.453837 -0.851688 -0.262030
vn -0.453837 -0.851688 -0.262030
vn 0.847431 -0.206068 -0.489283
vn 0.847431 -0.206068 -0.489283
vn 0.847431 -0.206068 -0.489283
vn 0.847431 -0.206068 -0.489283
vn 0.847431 -0.206068 0.489282
vn 0.847431 -0.206068 0.489282
vn 0.847431 -0.206068 0.489282
vn 0.847431 -0.206068 0.489282
vn 0.000000 -0.206066 0.978538
vn 0.000000 -0.206066 0.978538
vn 0.000000 -0.206066 0.978538
vn 0.000000 -0.206066 0.978538
vn -0.847432 -0.206063 0.489283
vn -0.847432 -0.206063 0.489283
vn -0.847432 -0.206063 0.489283
vn -0.847432 -0.206063 0.489283
vn -0.847432 -0.206063 -0.489283
vn -0.847432 -0.206063 -0.489283
vn -0.847432 -0.206063 -0.489283
vn -0.847432 -0.206063 -0.489283
vn 0.000000 -0.206066 -0.978538
vn 0.000000 -0.206066 -0.978538
vn 0.000000 -0.206066 -0.978538
vn 0.000000 -0.206066 -0.978538
vn 0.000000 0.887864 -0.460107
vn 0.000000 0.887864 -0.460107
vn 0.000000 0.887864 -0.460107
vn 0.000000 0.887864 -0.460107
vn 0.398437 0.887875 -0.230054
vn 0.398437 0.887875 -0.230054
vn 0.398437 0.887875 -0.230054
vn 0.398437 0.887875 -0.230054
vn 0.398385 0.887898 0.230058
vn 0.398385 0.887898 0.230058
vn 0.398385 0.887898 0.230058
vn 0.398385 0.887898 0.230058
vn 0.000000 0.887954 0.459932
vn 0.000000 0.887954 0.459932
vn 0.000000 0.887954 0.459932
vn 0.000000 0.887954 0.459932
vn -0.398393 0.887902 0.230028
vn -0.398393 0.887902 0.230028
vn -0.398393 0.887902 0.230028
vn -0.398393 0.887902 0.230028
vn -0.398445 0.887880 -0.230023
vn -0.398445 0.887880 -0.230023
vn -0.398445 0.887880 -0.230023
vn -0.398445 0.887880 -0.230023
vn 0.000000 0.000000 1.000000
vn 0.000000 0.000000 1.000000
vn 0.000000 0.000000 1.000000
vn 0.000000 0.000000 1.000000
vn 0.866025 0.000000 0.500000
vn 0.866025 0.000000 0.500000
vn 0.866025 0.000000 0.500000
vn 0.866025 0.000000 0.500000
vn 0.866024 0.000000 -0.500002
vn 0.866024 0.000000 -0.500002
vn 0.866024 0.000000 -0.500002
vn 0.866024 0.000000 -0.500002
vn -0.866024 0.000000 -0.500002
vn -0.866024 0.000000 -0.500002
vn -0.866024 0.000000 -0.500002
vn -0.866024 0.000000 -0.500002
vn -0.866025 0.000000 0.500000
vn -0.866025 0.000000 0.500000
vn -0.866025 0.000000 0.500000
vn -0.866025 0.000000 0.500000
vn -0.864376 0.061654 -0.499053
vn -0.864376 0.061654 -0.499053
vn -0.864376 0.061654 -0.499053
vn -0.864376 0.061654 -0.499053
vn -0.864383 0.061654 0.499041
vn -0.864383 0.061654 0.499041
vn -0.864383 0.061654 0.499041
vn -0.864383 0.061654 0.499041
vn 0.000000 0.061649 0.998098
vn 0.000000 0.061649 0.998098
vn 0.000000 0.061649 0.998098
vn 0.000000 0.061649 0.998098
vn 0.864380 0.061664 0.499044
vn 0.864380 0.061664 0.499044
vn 0.864380 0.061664 0.499044
vn 0.864380 0.061664 0.499044
vn 0.864377 0.061664 -0.499048
vn 0.864377 0.061664 -0.499048
vn 0.864377 0.061664 -0.499048
vn 0.864377 0.061664 -0.499048
vn 0.000000 0.061649 -0.998098
vn 0.000000 0.061649 -0.998098
vn 0.000000 0.061649 -0.998098
vn 0.000000 0.061649 -0.998098
vn 0.000000 0.030527 -0.999534
vn 0.000000 0.030527 -0.999534
vn 0.000000 0.030527 -0.999534
vn 0.000000 0.030527 -0.999534
vn -0.865614 0.030529 -0.499781
vn -0.865614 0.030529 -0.499781
vn -0.865614 0.030529 -0.499781
vn -0.865614 0.030529 -0.499781
vn -0.865614 0.030529 0.499781
vn -0.865614 0.030529 0.499781
vn -0.865614 0.030529 0.499781
vn -0.865614 0.030529 0.499781
vn 0.000000 0.030527 0.999534
vn 0.000000 0.030527 0.999534
vn 0.000000 0.030527 0.999534
vn 0.000000 0.030527 0.999534
vn 0.865614 0.030523 0.499782
vn 0.865614 0.030523 0.499782
vn 0.865614 0.030523 0.499782
vn 0.865614 0.030523 0.499782
vn 0.865613 0.030522 -0.499782
vn 0.865613 0.030522 -0.499782
vn 0.865613 0.030522 -0.499782
vn 0.865613 0.030522 -0.499782
vn 0.000000 0.943377 -0.331722
vn 0.000000 0.943377 -0.331722
vn 0.000000 0.943377 -0.331722
vn 0.000000 0.943377 -0.331722
vn -0.287279 0.943376 -0.165868
vn -0.287279 0.943376 -0.165868
vn -0.287279 0.943376 -0.165868
vn -0.287279 0.943376 -0.165868
vn -0.287280 0.943376 0.165867
vn -0.287280 0.943376 0.165867
vn -0.287280 0.943376 0.165867
vn -0.287280 0.943376 0.165867
vn 0.000000 0.943377 0.331722
vn 0.000000 0.943377 0.331722
vn 0.000000 0.943377 0.331722
vn 0.000000 0.943377 0.331722
vn 0.287280 0.943376 0.165869
vn 0.287280 0.943376 0.165869
vn 0.287280 0.943376 0.165869
vn 0.287280 0.943376 0.165869
vn 0.287280 0.943376 -0.165869
vn 0.287280 0.943376 -0.165869
vn 0.287280 0.943376 -0.165869
vn 0.287280 0.943376 -0.165869
s off
f 56/14/1 51/15/2 33/16/3 34/17/4
f 51/15/5 52/18/6 38/19/7 33/16/8
f 52/18/9 53/20/10 37/21/11 38/19/12
f 53/20/13 54/22/14 36/23/15 37/21/16
f 54/22/17 55/24/18 35/25/19 36/23/20
f 55/24/21 56/14/22 34/17/23 35/25/24
f 2/2/25 1/1/26 13/27/27
f 3/3/28 2/2/29 13/27/30
f 4/4/31 3/3/32 13/27/33
f 5/5/34 4/4/35 13/27/36
f 6/6/37 5/5/38 13/27/39
f 1/1/40 6/6/41 13/27/42
f 7/26/43 8/28/44 14/49/45
f 8/28/46 9/50/47 14/49/48
f 9/50/49 10/51/50 14/49/51
f 10/51/52 11/52/53 14/49/54
f 11/52/55 12/53/56 14/49/57
f 12/53/58 7/26/59 14/49/60
f 21/35/61 22/36/62 16/30/63 15/29/64
f 22/36/65 23/37/66 17/31/67 16/30/68
f 23/37/69 24/38/70 18/32/71 17/31/72
f 24/39/73 25/40/74 19/33/75 18/32/76
f 25/40/77 26/41/78 20/34/79 19/33/80
f 26/41/81 21/35/82 15/29/83 20/34/84
f 30/46/85 31/47/86 25/40/87 24/39/88
f 4/10/89 5/11/90 28/43/91 27/42/92
f 5/11/93 6/12/94 29/44/95 28/43/96
f 6/12/97 1/13/98 30/45/99 29/44/100
f 1/7/101 2/8/102 31/47/103 30/46/104
f 2/8/105 3/9/106 32/48/107 31/47/108
f 3/9/109 4/10/110 27/42/111 32/48/112
f 34/17/113 33/16/114 44/54/115 39/55/116
f 35/25/117 34/17/118 39/55/119 40/56/120
f 36/23/121 35/25/122 40/56/123 41/57/124
f 37/21/125 36/23/126 41/57/127 42/58/128
f 38/19/129 37/21/130 42/58/131 43/59/132
f 33/16/133 38/19/134 43/59/135 44/54/136
f 47/61/137 68/78/138 63/72/139 46/60/140
f 67/80/141 68/78/142 47/61/143 48/62/144
f 66/81/145 67/80/146 48/62/147 49/63/148
f 65/82/149 66/81/150 49/63/151 50/64/152
f 64/83/153 65/82/154 50/64/155 45/65/156
f 46/60/157 63/72/158 64/83/159 45/65/160
f 46/60/161 45/65/162 8/28/163 7/26/164
f 47/61/165 46/60/166 7/26/167 12/53/168
f 48/62/169 47/61/170 12/53/171 11/52/172
f 49/63/173 48/62/174 11/52/175 10/51/176
f 50/64/177 49/63/178 10/51/179 9/50/180
f 45/65/181 50/64/182 9/50/183 8/28/184
f 21/35/185 27/42/186 28/43/187 22/36/188
f 29/44/189 23/37/190 22/36/191 28/43/192
f 23/37/193 29/44/194 30/45/195 24/38/196
f 32/48/197 26/41/198 25/40/199 31/47/200
f 26/41/201 32/48/202 27/42/203 21/35/204
f 19/33/205 20/34/206 52/18/207 51/15/208
f 20/34/209 15/29/210 53/20/211 52/18/212
f 15/29/213 16/30/214 54/22/215 53/20/216
f 16/30/217 17/31/218 55/24/219 54/22/220
f 17/31/221 18/32/222 56/14/223 55/24/224
f 18/32/225 19/33/226 51/15/227 56/14/228
f 39/55/229 44/54/230 58/67/231 57/66/232
f 44/54/233 43/59/234 59/68/235 58/67/236
f 43/59/237 42/58/238 60/69/239 59/68/240
f 42/58/241 41/57/242 61/70/243 60/69/244
f 41/57/245 40/56/246 62/71/247 61/70/248
f 40/56/249 39/55/250 57/66/251 62/71/252
f 57/66/253 58/67/254 64/73/255 63/79/256
f 58/67/257 59/68/258 65/74/259 64/73/260
f 59/68/261 60/69/262 66/75/263 65/74/264
f 60/69/265 61/70/266 67/76/267 66/75/268
f 61/70/269 62/71/270 68/77/271 67/76/272
f 62/71/273 57/66/274 63/79/275 68/77/276
