# This file uses centimeters as units for non-parametric coordinates.

v -4.264893 1.621026 0.492554
v -1.479492 4.264846 0.492554
v -1.479492 4.264846 -0.492493
v -4.264893 1.621026 -0.492493
v 1.479492 4.264846 0.492554
v 4.264893 1.621026 0.492554
v 4.264893 1.621026 -0.492493
v 1.479492 4.264846 -0.492493
v -4.264893 -1.621025 0.492554
v -4.264893 -1.621025 -0.492493
v 4.264893 -1.621025 0.492554
v 4.264893 -1.621025 -0.492493
v -2.127930 5.160042 0.470886
v -5.160156 2.128121 0.470886
v 2.127930 5.160042 0.470886
v 5.160156 2.128121 0.470886
v 2.127930 5.160042 -0.470825
v 5.160156 2.128121 -0.470825
v -2.127930 5.160042 -0.470825
v -5.160156 2.128121 -0.470825
v -5.160156 -2.128121 -0.470825
v 5.160156 -2.128121 -0.470825
v 5.160156 -2.128121 0.470886
v -5.160156 -2.128121 0.470886
v 2.916504 -3.084521 0.495117
v 2.916504 -3.084521 -0.489929
v 3.645264 -3.853335 -0.468262
v 3.645264 -3.853335 0.473389
v -2.859863 -3.154103 0.487183
v -2.859863 -3.154103 -0.497803
v -3.583496 -3.931067 -0.476135
v -3.583496 -3.931067 0.465576
v 3.557617 -4.431416 0.819519
v 2.332031 -3.152359 0.855408
v 1.542236 -3.902234 0.855408
v 2.614990 -5.382985 0.819336
v 2.332031 -3.152359 -0.850220
v 1.542236 -3.902233 -0.850220
v 3.557617 -4.431416 -0.814331
v 2.614990 -5.382985 -0.814087
v -2.616943 -5.397052 0.811462
v -1.544189 -3.916295 0.847534
v -2.616943 -5.397052 -0.822083
v -1.544189 -3.916295 -0.858154
v -2.273926 -3.220436 0.847534
v -2.273926 -3.220436 -0.858215
v -3.494385 -4.507681 -0.822266
v -3.494385 -4.507681 0.811646
v -2.028564 -5.387283 0.465332
v -1.370117 -4.478326 0.487427
v -2.028564 -5.387283 -0.475952
v -1.370117 -4.478326 -0.498047
v 1.368164 -4.464263 -0.490173
v 1.368164 -4.464263 0.495300
v 2.026611 -5.373215 -0.467957
v 2.026611 -5.373216 0.473145
vt 0.050560 0.210966
vt 0.050302 0.210645
vt 0.050368 0.210577
vt 0.050653 0.210949
vt 0.050604 0.210913
vt 0.050352 0.210598
vt 0.050695 0.210897
vt 0.050416 0.210533
vt 0.050028 0.210565
vt 0.049803 0.210723
vt 0.049729 0.210657
vt 0.049969 0.210465
vt 0.050081 0.210521
vt 0.049856 0.210679
vt 0.050021 0.210424
vt 0.049781 0.210616
vt 0.050288 0.211341
vt 0.050541 0.211233
vt 0.050622 0.211301
vt 0.050341 0.211424
vt 0.050332 0.211288
vt 0.050584 0.211178
vt 0.050382 0.211372
vt 0.050661 0.211247
vt 0.049821 0.210979
vt 0.050048 0.211251
vt 0.050000 0.211293
vt 0.049756 0.210991
vt 0.049872 0.210932
vt 0.050094 0.211200
vt 0.049805 0.210947
vt 0.050045 0.211245
vt 0.049974 0.211162
vt 0.050022 0.211113
vt 0.049967 0.211148
vt 0.049921 0.211195
vt 0.050365 0.211308
vt 0.050408 0.211255
vt 0.050467 0.211334
vt 0.050427 0.211387
vt 0.049921 0.211195
vt 0.049974 0.211162
vt 0.050022 0.211113
vt 0.049967 0.211148
vt 0.050408 0.211255
vt 0.050365 0.211308
vt 0.050467 0.211334
vt 0.050427 0.211387
vt 0.050288 0.211341
vt 0.050341 0.211424
vt 0.050382 0.211372
vt 0.050332 0.211288
vt 0.050048 0.211251
vt 0.050094 0.211200
vt 0.050045 0.211245
vt 0.050000 0.211293
vn -0.014545 0.014907 0.999783
vn -0.014545 0.014907 0.999783
vn -0.014545 0.014907 0.999783
vn -0.014545 0.014907 0.999783
vn 0.688462 -0.725272 0.000000
vn 0.688462 -0.725272 0.000000
vn 0.688462 -0.725272 0.000000
vn 0.688462 -0.725272 0.000000
vn -0.014545 0.014907 -0.999783
vn -0.014545 0.014907 -0.999783
vn -0.014545 0.014907 -0.999783
vn -0.014545 0.014907 -0.999783
vn 0.014545 0.014907 0.999783
vn 0.014545 0.014907 0.999783
vn 0.014545 0.014907 0.999783
vn 0.014545 0.014907 0.999783
vn -0.688462 -0.725272 0.000000
vn -0.688462 -0.725272 0.000000
vn -0.688462 -0.725272 0.000000
vn -0.688462 -0.725272 0.000000
vn 0.014545 0.014907 -0.999783
vn 0.014545 0.014907 -0.999783
vn 0.014545 0.014907 -0.999783
vn 0.014545 0.014907 -0.999783
vn -0.014190 -0.015876 0.999773
vn -0.014190 -0.015876 0.999773
vn -0.014190 -0.015876 0.999773
vn -0.014190 -0.015876 0.999773
vn 0.737245 0.675626 0.000000
vn 0.737245 0.675626 0.000000
vn 0.737245 0.675626 0.000000
vn 0.737245 0.675626 0.000000
vn -0.017155 -0.012138 -0.999779
vn -0.017155 -0.012138 -0.999779
vn -0.017155 -0.012138 -0.999779
vn -0.017155 -0.012138 -0.999779
vn 0.014043 -0.014388 0.999798
vn 0.014043 -0.014388 0.999798
vn 0.014043 -0.014388 0.999798
vn 0.014043 -0.014388 0.999798
vn -0.688567 0.725172 -0.000000
vn -0.688567 0.725172 -0.000000
vn -0.688567 0.725172 -0.000000
vn -0.688567 0.725172 -0.000000
vn 0.014043 -0.014388 -0.999798
vn 0.014043 -0.014388 -0.999798
vn 0.014043 -0.014388 -0.999798
vn 0.014043 -0.014388 -0.999798
vn -0.707107 0.707107 0.000000
vn -0.707107 0.707107 0.000000
vn -0.707107 0.707107 0.000000
vn -0.707107 0.707107 0.000000
vn 0.707107 0.707107 0.000000
vn 0.707107 0.707107 0.000000
vn 0.707107 0.707107 0.000000
vn 0.707107 0.707107 0.000000
vn -0.752796 -0.658254 0.000000
vn -0.752796 -0.658254 0.000000
vn -0.752796 -0.658254 0.000000
vn -0.752796 -0.658254 0.000000
vn 0.710416 -0.703782 -0.000000
vn 0.710416 -0.703782 -0.000000
vn 0.710416 -0.703782 -0.000000
vn 0.710416 -0.703782 -0.000000
vn 0.000000 1.000000 0.000000
vn 0.000000 1.000000 0.000000
vn 0.000000 1.000000 0.000000
vn 0.000000 1.000000 0.000000
vn 1.000000 0.000000 0.000000
vn 1.000000 0.000000 0.000000
vn 1.000000 0.000000 0.000000
vn 1.000000 0.000000 0.000000
vn -1.000000 0.000000 0.000000
vn -1.000000 0.000000 0.000000
vn -1.000000 0.000000 0.000000
vn -1.000000 0.000000 0.000000
vn 0.000000 -1.000000 0.000000
vn 0.000000 -1.000000 0.000000
vn 0.000000 -1.000000 0.000000
vn 0.000000 -1.000000 0.000000
vn -1.000000 0.000000 0.000000
vn -1.000000 0.000000 0.000000
vn -1.000000 0.000000 0.000000
vn -1.000000 0.000000 0.000000
vn 1.000000 0.000000 0.000000
vn 1.000000 0.000000 0.000000
vn 1.000000 0.000000 0.000000
vn 1.000000 0.000000 0.000000
vn 0.000000 0.024214 0.999707
vn 0.000000 0.024214 0.999707
vn 0.000000 0.024214 0.999707
vn 0.000000 0.024214 0.999707
vn 0.000000 0.024214 -0.999707
vn 0.000000 0.024214 -0.999707
vn 0.000000 0.024214 -0.999707
vn 0.000000 0.024214 -0.999707
vn 0.024214 0.000000 -0.999707
vn 0.024214 0.000000 -0.999707
vn 0.024214 0.000000 -0.999707
vn 0.024214 0.000000 -0.999707
vn 0.024214 0.000000 0.999707
vn 0.024214 0.000000 0.999707
vn 0.024214 0.000000 0.999707
vn 0.024214 0.000000 0.999707
vn -0.024214 0.000000 0.999707
vn -0.024214 0.000000 0.999707
vn -0.024214 0.000000 0.999707
vn -0.024214 0.000000 0.999707
vn -0.024214 0.000000 -0.999707
vn -0.024214 0.000000 -0.999707
vn -0.024214 0.000000 -0.999707
vn -0.024214 0.000000 -0.999707
vn 0.809853 -0.586633 -0.000000
vn 0.809853 -0.586633 -0.000000
vn 0.809853 -0.586633 -0.000000
vn 0.809853 -0.586633 -0.000000
vn -0.809852 -0.586635 -0.000000
vn -0.809852 -0.586635 -0.000000
vn -0.809852 -0.586635 -0.000000
vn -0.809852 -0.586635 -0.000000
vn -0.735456 0.677572 0.000000
vn -0.735456 0.677572 0.000000
vn -0.735456 0.677572 0.000000
vn -0.735456 0.677572 0.000000
vn 0.014915 -0.014996 -0.999776
vn 0.014915 -0.014996 -0.999776
vn 0.014915 -0.014996 -0.999776
vn 0.014915 -0.014996 -0.999776
vn 0.751466 -0.659772 0.000000
vn 0.751466 -0.659772 0.000000
vn 0.751466 -0.659772 0.000000
vn 0.751466 -0.659772 0.000000
vn 0.016393 -0.013115 0.999780
vn 0.016393 -0.013115 0.999780
vn 0.016393 -0.013115 0.999780
vn 0.016393 -0.013115 0.999780
vn 0.690067 0.723746 -0.000000
vn 0.690067 0.723746 -0.000000
vn 0.690067 0.723746 -0.000000
vn 0.690067 0.723746 -0.000000
vn -0.014028 -0.014374 -0.999798
vn -0.014028 -0.014374 -0.999798
vn -0.014028 -0.014374 -0.999798
vn -0.014028 -0.014374 -0.999798
vn -0.711824 -0.702358 0.000000
vn -0.711824 -0.702358 0.000000
vn -0.711824 -0.702358 0.000000
vn -0.711824 -0.702358 0.000000
vn -0.014028 -0.014374 0.999798
vn -0.014028 -0.014374 0.999798
vn -0.014028 -0.014374 0.999798
vn -0.014028 -0.014374 0.999798
vn 0.448052 0.405184 0.796916
vn 0.448052 0.405184 0.796916
vn 0.448052 0.405184 0.796916
vn 0.448052 0.405184 0.796916
vn -0.115291 0.993332 -0.000000
vn -0.115291 0.993332 -0.000000
vn -0.115291 0.993332 -0.000000
vn -0.115291 0.993332 -0.000000
vn 0.448052 0.405184 -0.796916
vn 0.448052 0.405184 -0.796916
vn 0.448052 0.405184 -0.796916
vn 0.448052 0.405184 -0.796916
vn 0.988684 -0.150016 0.000000
vn 0.988684 -0.150016 0.000000
vn 0.988684 -0.150016 0.000000
vn 0.988684 -0.150016 0.000000
vn 0.112495 0.993652 0.000000
vn 0.112495 0.993652 0.000000
vn 0.112495 0.993652 0.000000
vn 0.112495 0.993652 0.000000
vn -0.450748 0.402265 -0.796875
vn -0.450748 0.402265 -0.796875
vn -0.450748 0.402265 -0.796875
vn -0.450748 0.402265 -0.796875
vn -0.988250 -0.152848 0.000000
vn -0.988250 -0.152848 0.000000
vn -0.988250 -0.152848 0.000000
vn -0.988250 -0.152848 0.000000
vn -0.450748 0.402265 0.796875
vn -0.450748 0.402265 0.796875
vn -0.450748 0.402265 0.796875
vn -0.450748 0.402265 0.796875
vn 0.476653 -0.364761 0.799845
vn 0.476653 -0.364761 0.799845
vn 0.476653 -0.364761 0.799845
vn 0.476653 -0.364761 0.799845
vn 0.016604 -0.999862 0.000000
vn 0.016604 -0.999862 0.000000
vn 0.016604 -0.999862 0.000000
vn 0.016604 -0.999862 0.000000
vn 0.476654 -0.364761 -0.799844
vn 0.476654 -0.364761 -0.799844
vn 0.476654 -0.364761 -0.799844
vn 0.476654 -0.364761 -0.799844
vn 0.955219 0.295901 -0.000000
vn 0.955219 0.295901 -0.000000
vn 0.955219 0.295901 -0.000000
vn 0.955219 0.295901 -0.000000
vn -0.955218 0.295902 0.000000
vn -0.955218 0.295902 0.000000
vn -0.955218 0.295902 0.000000
vn -0.955218 0.295902 0.000000
vn -0.476649 -0.364767 -0.799844
vn -0.476649 -0.364767 -0.799844
vn -0.476649 -0.364767 -0.799844
vn -0.476649 -0.364767 -0.799844
vn -0.016604 -0.999862 0.000000
vn -0.016604 -0.999862 0.000000
vn -0.016604 -0.999862 0.000000
vn -0.016604 -0.999862 0.000000
vn -0.476649 -0.364768 0.799844
vn -0.476649 -0.364768 0.799844
vn -0.476649 -0.364768 0.799844
vn -0.476649 -0.364768 0.799844
s off
f 1/1/1 2/2/2 13/3/3 14/4/4
f 2/2/5 1/1/6 4/5/7 3/6/8
f 3/6/9 4/5/10 20/7/11 19/8/12
f 5/9/13 6/10/14 16/11/15 15/12/16
f 6/10/17 5/9/18 8/13/19 7/14/20
f 7/14/21 8/13/22 17/15/23 18/16/24
f 32/40/25 29/37/26 9/18/27 24/19/28
f 9/18/29 29/37/30 30/38/31 10/22/32
f 10/22/33 30/38/34 31/39/35 21/24/36
f 33/41/37 34/42/38 35/26/39 36/27/40
f 35/26/41 34/42/42 37/43/43 38/30/44
f 38/30/45 37/43/46 39/44/47 40/32/48
f 14/4/49 13/3/50 19/8/51 20/7/52
f 15/12/53 16/11/54 18/16/55 17/15/56
f 21/24/57 31/39/58 32/40/59 24/19/60
f 40/32/61 39/44/62 33/41/63 36/27/64
f 13/3/65 15/12/66 17/15/67 19/8/68
f 23/28/69 22/31/70 18/16/71 16/11/72
f 21/24/73 24/19/74 14/4/75 20/7/76
f 2/2/77 3/6/78 8/13/79 5/9/80
f 11/25/81 6/10/82 7/14/83 12/29/84
f 10/22/85 4/5/86 1/1/87 9/18/88
f 2/2/89 5/9/90 15/12/91 13/3/92
f 8/13/93 3/6/94 19/8/95 17/15/96
f 12/29/97 7/14/98 18/16/99 22/31/100
f 6/10/101 11/25/102 23/28/103 16/11/104
f 9/18/105 1/1/106 14/4/107 24/19/108
f 4/5/109 10/22/110 21/24/111 20/7/112
f 50/49/113 49/50/114 51/51/115 52/52/116
f 54/53/117 53/54/118 55/55/119 56/56/120
f 26/34/121 25/33/122 11/25/123 12/29/124
f 27/35/125 26/34/126 12/29/127 22/31/128
f 28/36/129 27/35/130 22/31/131 23/28/132
f 11/25/133 25/33/134 28/36/135 23/28/136
f 46/45/137 45/46/138 42/17/139 44/21/140
f 47/47/141 46/45/142 44/21/143 43/23/144
f 48/48/145 47/47/146 43/23/147 41/20/148
f 42/17/149 45/46/150 48/48/151 41/20/152
f 28/36/153 25/33/154 34/42/155 33/41/156
f 25/33/157 26/34/158 37/43/159 34/42/160
f 26/34/161 27/35/162 39/44/163 37/43/164
f 27/35/165 28/36/166 33/41/167 39/44/168
f 30/38/169 29/37/170 45/46/171 46/45/172
f 31/39/173 30/38/174 46/45/175 47/47/176
f 32/40/177 31/39/178 47/47/179 48/48/180
f 29/37/181 32/40/182 48/48/183 45/46/184
f 42/17/185 41/20/186 49/50/187 50/49/188
f 41/20/189 43/23/190 51/51/191 49/50/192
f 43/23/193 44/21/194 52/52/195 51/51/196
f 44/21/197 42/17/198 50/49/199 52/52/200
f 35/26/201 38/30/202 53/54/203 54/53/204
f 38/30/205 40/32/206 55/55/207 53/54/208
f 40/32/209 36/27/210 56/56/211 55/55/212
f 36/27/213 35/26/214 54/53/215 56/56/216
