# This file uses centimeters as units for non-parametric coordinates.

v -1.940430 0.737603 1.043091
v -2.190918 0.845131 1.285645
v -0.773438 2.190924 1.285645
v -0.673340 1.940601 1.043091
v -1.144531 2.775092 1.024170
v -1.043945 2.532178 1.274170
v -2.532227 1.043965 1.274414
v -2.774902 1.144513 1.024353
v -0.673340 1.940601 -1.043091
v -0.773438 2.190924 -1.285645
v -2.190918 0.845131 -1.285645
v -1.940430 0.737603 -1.043091
v -1.043945 2.532178 -1.274109
v -1.144531 2.775092 -1.024109
v -2.774902 1.144513 -1.024353
v -2.532227 1.043965 -1.274414
v 0.673340 1.940601 1.043091
v 0.773438 2.190924 1.285645
v 2.190918 0.845131 1.285645
v 1.940918 0.737603 1.043091
v 1.043945 2.532178 1.274170
v 1.144531 2.775092 1.024170
v 2.774902 1.144513 1.024353
v 2.532715 1.043965 1.274414
v 1.940918 0.737603 -1.043091
v 2.190918 0.845131 -1.285645
v 0.773438 2.190924 -1.285645
v 0.673340 1.940601 -1.043091
v 1.144531 2.775092 -1.024109
v 1.043945 2.532178 -1.274109
v 2.532715 1.043965 -1.274414
v 2.774902 1.144513 -1.024353
v -0.673340 -1.940602 1.043091
v -0.773438 -2.190924 1.285645
v -2.190918 -0.845131 1.285645
v -1.940430 -0.737604 1.043091
v -1.043945 -2.532178 1.274170
v -1.144531 -2.775093 1.024170
v -2.774902 -1.144513 1.024353
v -2.532227 -1.043965 1.274414
v -1.940430 -0.737604 -1.043091
v -2.190918 -0.845131 -1.285645
v -0.773438 -2.190924 -1.285645
v -0.673340 -1.940602 -1.043091
v -1.144531 -2.775093 -1.024109
v -1.043945 -2.532178 -1.274109
v -2.532227 -1.043965 -1.274414
v -2.774902 -1.144513 -1.024353
v 1.940918 -0.737604 1.043091
v 2.190918 -0.845131 1.285645
v 0.773438 -2.190924 1.285645
v 0.673340 -1.940602 1.043091
v 1.144531 -2.775093 1.024170
v 1.043945 -2.532178 1.274170
v 2.532715 -1.043965 1.274414
v 2.774902 -1.144513 1.024353
v 0.673340 -1.940602 -1.043091
v 0.773438 -2.190924 -1.285645
v 2.190918 -0.845131 -1.285645
v 1.940918 -0.737604 -1.043091
v 1.043945 -2.532178 -1.274109
v 1.144531 -2.775093 -1.024109
v 2.774902 -1.144513 -1.024353
v 2.532715 -1.043965 -1.274414
v -1.144531 2.775092 -0.512024
v -1.144531 2.775092 0.512024
v -1.144531 -2.775093 0.512024
v -1.144531 -2.775093 -0.512024
v 1.144531 -2.775093 0.512024
v 1.144531 -2.775093 -0.512024
v 1.144531 2.775092 0.512024
v 1.144531 2.775092 -0.512024
v 1.940918 -0.737604 -0.512024
v 1.940918 -0.737604 0.512024
v -1.940430 -0.737604 0.512024
v -1.940430 -0.737604 -0.512024
v -1.940430 0.737603 0.512024
v -1.940430 0.737603 -0.512024
v 1.940918 0.737603 0.512024
v 1.940918 0.737603 -0.512024
v 2.053223 1.866725 0.512024
v 2.376465 1.543043 -0.512024
v -2.514648 1.405262 0.512024
v -2.178711 1.741339 -0.512024
v -2.039551 -1.879767 0.512024
v -2.483887 -1.435703 -0.512024
v 2.462402 -1.457330 0.512024
v 2.079590 -1.840345 -0.512024
v -0.985840 -1.644253 -0.512024
v -1.429199 -1.223259 0.512024
v 1.428223 -1.223972 -0.512024
v 0.925293 -1.701159 0.512024
v 1.363770 1.285034 0.512024
v 0.970215 1.658680 -0.512024
v -1.332520 1.315038 -0.512024
v -0.926270 1.700424 0.512024
vt 0.049374 0.209830
vt 0.049705 0.210059
vt 0.049640 0.210065
vt 0.049418 0.209755
vt 0.048861 0.210112
vt 0.049083 0.209783
vt 0.049147 0.209793
vt 0.048829 0.210017
vt 0.049662 0.210349
vt 0.049439 0.210666
vt 0.049366 0.210558
vt 0.049685 0.210344
vt 0.049149 0.210631
vt 0.048817 0.210391
vt 0.048874 0.210286
vt 0.049096 0.210607
vt 0.049148 0.209830
vt 0.049431 0.209783
vt 0.049362 0.209793
vt 0.049088 0.209755
vt 0.049152 0.210558
vt 0.049426 0.210607
vt 0.049375 0.210630
vt 0.049091 0.210667
vt 0.048874 0.210063
vt 0.048829 0.210338
vt 0.048861 0.210346
vt 0.048817 0.210053
vt 0.049662 0.210115
vt 0.049705 0.210397
vt 0.049640 0.210287
vt 0.049686 0.210024
vt 0.049628 0.210143
vt 0.049176 0.209862
vt 0.048898 0.210131
vt 0.049347 0.210594
vt 0.049623 0.210299
vt 0.048895 0.210314
vt 0.049453 0.209744
vt 0.048786 0.210016
vt 0.049059 0.209739
vt 0.049460 0.210681
vt 0.049735 0.210419
vt 0.049068 0.210692
vt 0.049058 0.209744
vt 0.049450 0.209739
vt 0.049070 0.210682
vt 0.049463 0.210691
vt 0.048786 0.210411
vt 0.049735 0.210025
vt 0.049347 0.209862
vt 0.049176 0.210594
vt 0.048895 0.210143
vt 0.048898 0.210300
vt 0.049623 0.210131
vt 0.049628 0.210313
vt 0.049445 0.209730
vt 0.049721 0.210004
vt 0.049720 0.210381
vt 0.049452 0.210650
vt 0.049074 0.210650
vt 0.049455 0.210660
vt 0.048795 0.210372
vt 0.049072 0.210661
vt 0.048795 0.209994
vt 0.049063 0.209726
vt 0.049062 0.209730
vt 0.049442 0.209725
vt 0.048903 0.210273
vt 0.049175 0.210529
vt 0.049339 0.210528
vt 0.049608 0.210259
vt 0.049608 0.210096
vt 0.049613 0.210273
vt 0.049613 0.210108
vt 0.049339 0.209827
vt 0.049175 0.209827
vt 0.048906 0.210096
vt 0.048903 0.210108
vt 0.048906 0.210260
vt 0.486279 0.007307
vt 0.486276 0.007371
vt 0.485845 0.007360
vt 0.485870 0.007296
vt 0.486252 0.008141
vt 0.486248 0.008235
vt 0.485894 0.008126
vt 0.485874 0.008219
vt 0.485757 0.007842
vt 0.485729 0.007925
vt 0.485716 0.007699
vt 0.485746 0.007623
vt 0.486393 0.007865
vt 0.486396 0.007951
vt 0.486405 0.007643
vt 0.486408 0.007722
vt 0.048854 0.209944
vt 0.048716 0.210112
vt 0.048858 0.209934
vt 0.486519 0.007614
vt 0.049686 0.209975
vt 0.486510 0.007540
vt 0.049679 0.209964
vt 0.049683 0.210458
vt 0.049674 0.210410
vt 0.049676 0.210439
vt 0.485647 0.008025
vt 0.048842 0.210455
vt 0.485678 0.007939
vt 0.048846 0.210435
vt 0.048756 0.210302
vt 0.486485 0.008056
vt 0.486479 0.007966
vt 0.049691 0.209995
vt 0.485633 0.007563
vt 0.485667 0.007492
vt 0.486233 0.007986
vt 0.049408 0.210478
vt 0.486228 0.008076
vt 0.049413 0.210509
vt 0.049121 0.210491
vt 0.049199 0.210609
vt 0.049121 0.210522
vt 0.049111 0.209918
vt 0.049215 0.209851
vt 0.049112 0.209900
vt 0.049395 0.209890
vt 0.049363 0.209760
vt 0.049400 0.209908
vt 0.486234 0.007484
vt 0.486229 0.007556
vt 0.485885 0.007552
vt 0.485907 0.007481
vt 0.485924 0.007982
vt 0.485905 0.008071
vt 0.049415 0.210490
vn 0.695592 0.000000 0.718437
vn 0.695592 0.000000 0.718437
vn 0.695592 0.000000 0.718437
vn 0.695592 0.000000 0.718437
vn 0.479166 -0.504325 0.718370
vn 0.479166 -0.504325 0.718370
vn 0.278159 -0.608760 0.742994
vn 0.278311 -0.608695 0.742990
vn 0.278311 -0.608695 0.742990
vn 0.278159 -0.608760 0.742994
vn -0.278136 -0.608948 0.742848
vn -0.278298 -0.608879 0.742844
vn 0.000000 0.717199 0.696869
vn 0.000000 0.717199 0.696869
vn 0.000000 0.717199 0.696869
vn 0.000000 0.717199 0.696869
vn -0.507305 0.507247 0.696665
vn -0.507305 0.507247 0.696665
vn -0.507305 0.507247 0.696665
vn -0.507305 0.507247 0.696665
vn -0.717617 0.000000 0.696438
vn -0.717617 0.000000 0.696438
vn -0.717617 0.000000 0.696438
vn -0.717617 0.000000 0.696438
vn 0.278065 -0.608775 -0.743016
vn 0.278218 -0.608710 -0.743012
vn -0.278247 -0.608890 -0.742854
vn -0.278085 -0.608958 -0.742858
vn 0.278218 -0.608710 -0.743012
vn 0.278065 -0.608775 -0.743016
vn 0.479020 -0.504371 -0.718436
vn 0.479020 -0.504371 -0.718436
vn 0.695649 0.000000 -0.718382
vn 0.695649 0.000000 -0.718382
vn 0.695649 0.000000 -0.718382
vn 0.695649 0.000000 -0.718382
vn 0.000000 0.717199 -0.696869
vn 0.000000 0.717199 -0.696869
vn 0.000000 0.717199 -0.696869
vn 0.000000 0.717199 -0.696869
vn -0.507302 0.507255 -0.696661
vn -0.507302 0.507255 -0.696661
vn -0.507302 0.507255 -0.696661
vn -0.507302 0.507255 -0.696661
vn -0.717694 0.000000 -0.696358
vn -0.717694 0.000000 -0.696358
vn -0.717694 0.000000 -0.696358
vn -0.717694 0.000000 -0.696358
vn -0.278298 -0.608879 0.742844
vn -0.278136 -0.608948 0.742848
vn -0.479190 -0.504639 0.718134
vn -0.479190 -0.504639 0.718134
vn -0.696236 0.000000 0.717813
vn -0.696236 0.000000 0.717813
vn -0.696236 0.000000 0.717813
vn -0.696236 0.000000 0.717813
vn 0.507411 0.507546 0.696370
vn 0.507411 0.507546 0.696370
vn 0.507411 0.507546 0.696370
vn 0.507411 0.507546 0.696370
vn 0.718318 0.000000 0.695715
vn 0.718317 0.000000 0.695715
vn 0.718317 0.000000 0.695715
vn 0.718318 0.000000 0.695715
vn -0.696293 0.000000 -0.717758
vn -0.696293 0.000000 -0.717758
vn -0.696293 0.000000 -0.717758
vn -0.696293 0.000000 -0.717758
vn -0.479118 -0.504663 -0.718165
vn -0.479118 -0.504663 -0.718165
vn -0.278085 -0.608958 -0.742858
vn -0.278247 -0.608890 -0.742854
vn 0.507404 0.507566 -0.696360
vn 0.507404 0.507566 -0.696360
vn 0.507404 0.507566 -0.696360
vn 0.507404 0.507566 -0.696360
vn 0.718395 0.000000 -0.695635
vn 0.718395 0.000000 -0.695635
vn 0.718395 0.000000 -0.695635
vn 0.718395 0.000000 -0.695635
vn 0.278112 0.608770 0.743003
vn 0.278264 0.608705 0.742999
vn -0.278297 0.608882 0.742841
vn -0.278135 0.608951 0.742846
vn 0.278264 0.608705 0.742999
vn 0.278112 0.608770 0.743003
vn 0.479095 0.504350 0.718400
vn 0.479095 0.504350 0.718400
vn 0.000000 -0.717197 0.696870
vn 0.000000 -0.717197 0.696870
vn 0.000000 -0.717197 0.696870
vn 0.000000 -0.717197 0.696870
vn -0.507289 -0.507294 0.696642
vn -0.507289 -0.507294 0.696642
vn -0.507289 -0.507294 0.696642
vn -0.507289 -0.507294 0.696642
vn 0.479095 0.504350 -0.718400
vn 0.479095 0.504350 -0.718400
vn 0.278112 0.608770 -0.743003
vn 0.278264 0.608705 -0.742999
vn 0.278264 0.608705 -0.742999
vn 0.278112 0.608770 -0.743003
vn -0.278131 0.608953 -0.742846
vn -0.278293 0.608884 -0.742841
vn 0.000000 -0.717197 -0.696870
vn 0.000000 -0.717197 -0.696870
vn 0.000000 -0.717197 -0.696870
vn 0.000000 -0.717197 -0.696870
vn -0.507347 -0.507275 -0.696614
vn -0.507347 -0.507275 -0.696614
vn -0.507348 -0.507275 -0.696614
vn -0.507347 -0.507275 -0.696614
vn -0.479192 0.504641 0.718131
vn -0.479192 0.504641 0.718131
vn -0.278135 0.608951 0.742846
vn -0.278297 0.608882 0.742841
vn 0.507396 -0.507589 0.696349
vn 0.507396 -0.507589 0.696349
vn 0.507396 -0.507589 0.696349
vn 0.507396 -0.507589 0.696349
vn -0.278293 0.608884 -0.742841
vn -0.278131 0.608953 -0.742846
vn -0.479192 0.504641 -0.718131
vn -0.479192 0.504641 -0.718131
vn 0.507400 -0.507580 -0.696353
vn 0.507400 -0.507580 -0.696353
vn 0.507400 -0.507580 -0.696353
vn 0.507400 -0.507580 -0.696353
vn -0.025635 0.010624 0.999615
vn -0.009603 0.026857 0.999593
vn -0.013203 0.024325 0.999617
vn -0.024480 0.012347 0.999624
vn -0.009658 0.026979 -0.999589
vn -0.025761 0.010658 -0.999611
vn -0.024602 0.012386 -0.999621
vn -0.013278 0.024425 -0.999613
vn 0.009646 0.026852 0.999593
vn 0.025658 0.010619 0.999614
vn 0.024519 0.012333 0.999623
vn 0.013262 0.024319 0.999616
vn 0.025774 0.010654 -0.999611
vn 0.009692 0.026974 -0.999589
vn 0.013325 0.024420 -0.999613
vn 0.024631 0.012373 -0.999620
vn -0.009649 -0.026857 0.999593
vn -0.025684 -0.010624 0.999614
vn -0.024536 -0.012347 0.999623
vn -0.013266 -0.024325 0.999616
vn -0.025800 -0.010658 -0.999610
vn -0.009694 -0.026978 -0.999589
vn -0.013329 -0.024425 -0.999613
vn -0.024648 -0.012386 -0.999620
vn 0.025609 -0.010619 0.999616
vn 0.009600 -0.026852 0.999593
vn 0.013199 -0.024319 0.999617
vn 0.024462 -0.012333 0.999625
vn 0.009655 -0.026976 -0.999589
vn 0.025734 -0.010656 -0.999612
vn 0.024585 -0.012376 -0.999621
vn 0.013274 -0.024423 -0.999614
vn -0.009603 0.026857 0.999593
vn 0.009646 0.026852 0.999593
vn 0.013262 0.024319 0.999616
vn -0.013203 0.024325 0.999617
vn 0.009692 0.026974 -0.999589
vn -0.009658 0.026979 -0.999589
vn -0.013278 0.024425 -0.999613
vn 0.013325 0.024420 -0.999613
vn -0.009694 -0.026978 -0.999589
vn 0.009655 -0.026976 -0.999589
vn 0.013274 -0.024423 -0.999614
vn -0.013329 -0.024425 -0.999613
vn 0.009600 -0.026852 0.999593
vn -0.009649 -0.026857 0.999593
vn -0.013266 -0.024325 0.999616
vn 0.013199 -0.024319 0.999617
vn 0.025734 -0.010656 -0.999612
vn 0.025774 0.010654 -0.999611
vn 0.024631 0.012373 -0.999620
vn 0.024585 -0.012376 -0.999621
vn 0.025658 0.010619 0.999614
vn 0.025609 -0.010619 0.999616
vn 0.024462 -0.012333 0.999625
vn 0.024519 0.012333 0.999623
vn -0.025684 -0.010624 0.999614
vn -0.025635 0.010624 0.999615
vn -0.024480 0.012347 0.999624
vn -0.024536 -0.012347 0.999623
vn -0.025761 0.010658 -0.999611
vn -0.025800 -0.010658 -0.999610
vn -0.024648 -0.012386 -0.999620
vn -0.024602 0.012386 -0.999621
vn 0.000000 1.000000 0.000000
vn 0.000000 1.000000 0.000000
vn 0.000000 1.000000 0.000000
vn 0.000000 1.000000 0.000000
vn -0.707261 0.706952 -0.000212
vn -0.707203 0.707010 0.000197
vn -0.707173 0.707040 0.000112
vn -0.707148 0.707066 -0.000132
vn -1.000000 0.000000 0.000000
vn -1.000000 0.000000 0.000000
vn -1.000000 0.000000 0.000000
vn -1.000000 0.000000 0.000000
vn -0.707158 -0.707056 0.000013
vn -0.707116 -0.707098 0.000024
vn -0.707158 -0.707056 0.000028
vn -0.707180 -0.707034 0.000014
vn 0.000000 -1.000000 0.000000
vn 0.000000 -1.000000 0.000000
vn 0.000000 -1.000000 0.000000
vn 0.000000 -1.000000 0.000000
vn 0.707194 -0.707019 -0.000122
vn 0.707145 -0.707068 0.000102
vn 0.707143 -0.707071 0.000081
vn 0.707158 -0.707056 -0.000088
vn 1.000000 0.000000 0.000000
vn 1.000000 0.000000 0.000000
vn 1.000000 0.000000 0.000000
vn 1.000000 0.000000 0.000000
vn 0.707200 0.707013 0.000045
vn 0.707210 0.707003 -0.000075
vn 0.707178 0.707036 -0.000111
vn 0.707181 0.707033 0.000043
vn -1.000000 0.000000 0.000000
vn -1.000000 0.000000 0.000000
vn -1.000000 0.000000 0.000000
vn -1.000000 0.000000 0.000000
vn -0.688188 0.725532 0.000120
vn -0.688167 0.725552 -0.000064
vn -0.688244 0.725480 -0.000080
vn -0.688330 0.725397 0.000027
vn 0.000000 1.000000 0.000000
vn 0.000000 1.000000 0.000000
vn 0.000000 1.000000 0.000000
vn 0.000000 1.000000 0.000000
vn 0.688259 0.725465 -0.000114
vn 0.688403 0.725329 0.000090
vn 0.688402 0.725330 0.000045
vn 0.688500 0.725236 -0.000090
vn 1.000000 0.000000 0.000000
vn 1.000000 0.000000 0.000000
vn 1.000000 0.000000 0.000000
vn 1.000000 0.000000 0.000000
vn 0.688549 -0.725190 -0.000064
vn 0.688578 -0.725162 0.000012
vn 0.688469 -0.725266 0.000011
vn 0.688358 -0.725371 -0.000042
vn 0.000000 -1.000000 0.000000
vn 0.000000 -1.000000 0.000000
vn 0.000000 -1.000000 0.000000
vn 0.000000 -1.000000 0.000000
vn -0.688287 -0.725439 0.000058
vn -0.688346 -0.725383 -0.000051
vn -0.688283 -0.725442 -0.000110
vn -0.688243 -0.725480 0.000054
vn 0.688382 -0.725348 -0.000002
vn 0.688527 -0.725211 0.000031
vn 0.688549 -0.725190 -0.000064
vn 0.688358 -0.725371 -0.000042
vn -0.688174 -0.725545 0.000293
vn -0.688353 -0.725376 0.000078
vn -0.688287 -0.725439 0.000058
vn -0.688243 -0.725480 0.000054
vn -0.688317 0.725410 0.000104
vn -0.688223 0.725499 0.000250
vn -0.688188 0.725532 0.000120
vn -0.688330 0.725397 0.000027
vn 0.707173 0.707040 0.000390
vn 0.707237 0.706977 0.000049
vn 0.707200 0.707013 0.000045
vn 0.707181 0.707033 0.000043
vn -0.707104 -0.707110 0.000010
vn -0.707158 -0.707056 0.000013
vn -0.707180 -0.707034 0.000014
vn -0.707176 -0.707038 -0.000169
vn 0.000000 1.000000 0.000000
vn 0.000000 1.000000 0.000000
vn 0.000000 1.000000 0.000000
vn 0.000000 1.000000 0.000000
vn 0.000000 -1.000000 0.000000
vn 0.000000 -1.000000 0.000000
vn 0.000000 -1.000000 0.000000
vn 0.000000 -1.000000 0.000000
vn -1.000000 0.000000 0.000000
vn -1.000000 0.000000 0.000000
vn -1.000000 0.000000 0.000000
vn -1.000000 0.000000 0.000000
vn 1.000000 0.000000 0.000000
vn 1.000000 0.000000 0.000000
vn 1.000000 0.000000 0.000000
vn 1.000000 0.000000 0.000000
vn -0.707103 -0.707111 -0.000028
vn -0.707121 -0.707093 -0.000104
vn -0.707158 -0.707056 0.000028
vn -0.707116 -0.707098 0.000024
vn 0.000000 -1.000000 0.000000
vn 0.000000 -1.000000 0.000000
vn 0.000000 -1.000000 0.000000
vn 0.000000 -1.000000 0.000000
vn 0.707178 0.707036 -0.000111
vn 0.707210 0.707003 -0.000075
vn 0.707218 0.706996 -0.000048
vn 0.707166 0.707048 -0.000033
vn 0.000000 1.000000 0.000000
vn 0.000000 1.000000 0.000000
vn 0.000000 1.000000 0.000000
vn 0.000000 1.000000 0.000000
vn -0.688386 0.725344 -0.000113
vn -0.688244 0.725480 -0.000080
vn -0.688167 0.725552 -0.000064
vn -0.688178 0.725542 -0.000203
vn 1.000000 0.000000 0.000000
vn 1.000000 0.000000 0.000000
vn 1.000000 0.000000 0.000000
vn 1.000000 0.000000 0.000000
vn 0.688284 -0.725441 0.000031
vn 0.688469 -0.725266 0.000011
vn 0.688578 -0.725162 0.000012
vn 0.688600 -0.725141 0.000254
vn -0.688283 -0.725442 -0.000110
vn -0.688346 -0.725383 -0.000051
vn -0.688341 -0.725387 -0.000063
vn -0.688280 -0.725446 -0.000133
vn -1.000000 0.000000 0.000000
vn -1.000000 0.000000 0.000000
vn -1.000000 0.000000 0.000000
vn -1.000000 0.000000 0.000000
vn 0.707237 0.706977 0.000049
vn 0.707218 0.706996 -0.000048
vn 0.707210 0.707003 -0.000075
vn 0.707200 0.707013 0.000045
vn -0.707203 0.707010 0.000197
vn -0.707156 0.707058 0.000347
vn -0.707083 0.707131 0.000184
vn -0.707173 0.707040 0.000112
vn -0.707083 0.707131 0.000184
vn -0.707100 0.707113 -0.000115
vn -0.707148 0.707066 -0.000132
vn -0.707173 0.707040 0.000112
vn -0.707261 0.706952 -0.000212
vn -0.707148 0.707066 -0.000132
vn -0.707100 0.707113 -0.000115
vn -0.707215 0.706999 -0.000471
vn -0.707104 -0.707110 0.000010
vn -0.707103 -0.707111 -0.000028
vn -0.707116 -0.707098 0.000024
vn -0.707158 -0.707056 0.000013
vn 0.707107 -0.707107 0.000141
vn 0.707143 -0.707071 0.000081
vn 0.707145 -0.707068 0.000102
vn 0.707107 -0.707107 0.000211
vn 0.707107 -0.707107 0.000141
vn 0.707143 -0.707071 -0.000077
vn 0.707158 -0.707056 -0.000088
vn 0.707143 -0.707071 0.000081
vn 0.707205 -0.707008 -0.000379
vn 0.707194 -0.707019 -0.000122
vn 0.707158 -0.707056 -0.000088
vn 0.707143 -0.707071 -0.000077
vn 0.688671 0.725074 0.000143
vn 0.688402 0.725330 0.000045
vn 0.688403 0.725329 0.000090
vn 0.688639 0.725104 0.000267
vn 0.688500 0.725236 -0.000090
vn 0.688402 0.725330 0.000045
vn 0.688671 0.725074 0.000143
vn 0.688647 0.725097 -0.000078
vn 0.688567 0.725173 -0.000275
vn 0.688259 0.725465 -0.000114
vn 0.688500 0.725236 -0.000090
vn 0.688647 0.725097 -0.000078
vn -0.688386 0.725344 -0.000113
vn -0.688317 0.725410 0.000104
vn -0.688330 0.725397 0.000027
vn -0.688244 0.725480 -0.000080
vn -0.688353 -0.725376 0.000078
vn -0.688341 -0.725387 -0.000063
vn -0.688346 -0.725383 -0.000051
vn -0.688287 -0.725439 0.000058
vn 0.688284 -0.725441 0.000031
vn 0.688382 -0.725348 -0.000002
vn 0.688358 -0.725371 -0.000042
vn 0.688469 -0.725266 0.000011
s off
f 1/33/1 2/29/2 35/9/3 36/56/4
f 2/29/5 1/33/6 4/51/7 3/1/8
f 3/1/9 4/51/10 17/34/11 18/17/12
f 5/39/13 6/18/14 21/6/15 22/45/16
f 6/18/17 5/39/18 8/50/19 7/2/20
f 7/2/21 8/50/22 39/43/23 40/30/24
f 9/76/25 10/19/26 27/7/27 28/77/28
f 10/19/29 9/76/30 12/73/31 11/3/32
f 11/3/33 12/73/34 41/72/35 42/31/36
f 13/4/37 14/68/38 29/66/39 30/20/40
f 14/68/41 13/4/42 16/32/43 15/58/44
f 15/58/45 16/32/46 47/12/47 48/59/48
f 18/17/49 17/34/50 20/53/51 19/5/52
f 19/5/53 20/53/54 49/38/55 50/27/56
f 22/45/57 21/6/58 24/28/59 23/40/60
f 23/40/61 24/28/62 55/14/63 56/49/64
f 25/78/65 26/25/66 59/15/67 60/80/68
f 26/25/69 25/78/70 28/77/71 27/7/72
f 30/20/73 29/66/74 32/65/75 31/8/76
f 31/8/77 32/65/78 63/63/79 64/26/80
f 33/36/81 34/23/82 51/13/83 52/52/84
f 34/23/85 33/36/86 36/56/87 35/9/88
f 37/10/89 38/48/90 53/44/91 54/24/92
f 38/48/93 37/10/94 40/30/95 39/43/96
f 42/31/97 41/72/98 44/71/99 43/11/100
f 43/11/101 44/71/102 57/70/103 58/21/104
f 45/60/105 46/22/106 61/16/107 62/61/108
f 46/22/109 45/60/110 48/59/111 47/12/112
f 50/27/113 49/38/114 52/52/115 51/13/116
f 54/24/117 53/44/118 56/49/119 55/14/120
f 58/21/121 57/70/122 60/80/123 59/15/124
f 62/61/125 61/16/126 64/26/127 63/63/128
f 2/29/129 3/1/130 6/18/131 7/2/132
f 10/19/133 11/3/134 16/32/135 13/4/136
f 18/17/137 19/5/138 24/28/139 21/6/140
f 26/25/141 27/7/142 30/20/143 31/8/144
f 34/23/145 35/9/146 40/30/147 37/10/148
f 42/31/149 43/11/150 46/22/151 47/12/152
f 50/27/153 51/13/154 54/24/155 55/14/156
f 58/21/157 59/15/158 64/26/159 61/16/160
f 3/1/161 18/17/162 21/6/163 6/18/164
f 27/7/165 10/19/166 13/4/167 30/20/168
f 43/11/169 58/21/170 61/16/171 46/22/172
f 51/13/173 34/23/174 37/10/175 54/24/176
f 59/15/177 26/25/178 31/8/179 64/26/180
f 19/5/181 50/27/182 55/14/183 24/28/184
f 35/9/185 2/29/186 7/2/187 40/30/188
f 11/3/189 42/31/190 47/12/191 16/32/192
f 65/81/193 66/82/194 71/83/195 72/84/196
f 15/58/197 8/50/198 83/114/199 84/103/200
f 15/58/201 48/59/202 39/43/203 8/50/204
f 85/112/205 86/113/206 68/85/207 67/86/208
f 67/86/209 68/85/210 70/87/211 69/88/212
f 63/63/213 56/49/214 87/111/215 88/110/216
f 63/63/217 32/65/218 23/40/219 56/49/220
f 81/115/221 82/116/222 72/84/223 71/83/224
f 73/89/225 74/90/226 79/91/227 80/92/228
f 74/90/229 73/89/230 91/134/231 92/135/232
f 57/70/233 44/71/234 33/36/235 52/52/236
f 33/36/237 44/71/238 89/136/239 90/120/240
f 75/94/241 76/93/242 78/95/243 77/96/244
f 77/96/245 78/95/246 95/130/247 96/131/248
f 9/76/249 28/77/250 17/34/251 4/51/252
f 93/132/253 94/133/254 80/92/255 79/91/256
f 4/51/257 1/33/258 77/55/259 96/129/260
f 20/53/261 17/34/262 93/124/263 79/35/264
f 52/52/265 49/38/266 74/54/267 92/123/268
f 22/45/269 23/40/270 81/97/271 71/41/272
f 39/43/273 85/104/274 67/42/275 38/48/276
f 5/39/277 22/45/278 71/41/279 66/46/280
f 67/42/281 69/47/282 53/44/283 38/48/284
f 49/38/285 20/53/286 79/35/287 74/54/288
f 75/37/289 77/55/290 1/33/291 36/56/292
f 48/59/293 45/60/294 68/62/295 86/106/296
f 45/60/297 62/61/298 70/64/299 68/62/300
f 72/67/301 82/99/302 32/65/303 29/66/304
f 65/57/305 72/67/306 29/66/307 14/68/308
f 57/70/309 91/121/310 73/69/311 60/80/312
f 41/72/313 12/73/314 78/75/315 76/74/316
f 9/76/317 95/127/318 78/75/319 12/73/320
f 80/79/321 94/126/322 28/77/323 25/78/324
f 73/69/325 80/79/326 25/78/327 60/80/328
f 23/40/329 32/65/330 82/98/331 81/97/332
f 8/50/333 5/39/334 66/46/335 83/101/336
f 66/82/337 65/81/338 84/102/339 83/100/340
f 15/58/341 84/103/342 65/57/343 14/68/344
f 39/43/345 48/59/346 86/105/347 85/104/348
f 69/47/349 87/108/350 56/49/351 53/44/352
f 69/88/353 70/87/354 88/109/355 87/107/356
f 62/61/357 63/63/358 88/110/359 70/64/360
f 76/74/361 89/118/362 44/71/363 41/72/364
f 90/119/365 89/117/366 76/93/367 75/94/368
f 36/56/369 33/36/370 90/120/371 75/37/372
f 57/70/373 52/52/374 92/122/375 91/121/376
f 17/34/377 28/77/378 94/125/379 93/124/380
f 9/76/381 4/51/382 96/128/383 95/127/384
