# This file uses centimeters as units for non-parametric coordinates.

v -0.000975 2.870099 -1.878861
v -1.878861 2.870099 -0.000975
v 0.000975 2.870099 1.878861
v 1.878861 2.870099 0.000975
v -0.000975 0.000000 -1.878861
v -1.878861 0.000000 -0.000975
v 0.000975 0.000000 1.878861
v 1.878861 0.000000 0.000975
v -0.002589 1.435050 -4.637108
v -4.637108 1.435050 -0.002589
v 0.002589 1.435050 4.637108
v 4.637108 1.435050 0.002589
vt 0.218894 0.494364
vt 0.219497 0.494367
vt 0.218720 0.494386
vt 0.219439 0.494392
vt 0.219008 0.494221
vt 0.219322 0.494221
vt 0.219275 0.494222
vt 0.218941 0.494222
vt 0.218891 0.494350
vt 0.219322 0.494221
vt 0.219495 0.494353
vt 0.219275 0.494222
vt 0.219422 0.494376
vt 0.218941 0.494222
vt 0.218738 0.494371
vt 0.219008 0.494221
vn 0.000000 1.000000 0.000000
vn 0.000000 1.000000 0.000000
vn 0.000000 1.000000 0.000000
vn 0.000000 1.000000 0.000000
vn 0.000000 -1.000000 0.000000
vn 0.000000 -1.000000 0.000000
vn 0.000000 -1.000000 0.000000
vn 0.000000 -1.000000 0.000000
vn -0.418904 0.805629 -0.418904
vn -0.418904 0.805629 -0.418904
vn -0.418904 0.805629 -0.418904
vn -0.418904 0.805629 -0.418904
vn -0.419223 0.805298 0.419223
vn -0.419223 0.805298 0.419223
vn -0.419223 0.805298 0.419223
vn -0.419223 0.805298 0.419223
vn 0.418904 0.805629 0.418904
vn 0.418904 0.805629 0.418904
vn 0.418904 0.805629 0.418904
vn 0.418904 0.805629 0.418904
vn 0.419223 0.805298 -0.419223
vn 0.419223 0.805298 -0.419223
vn 0.419223 0.805298 -0.419223
vn 0.419223 0.805298 -0.419223
vn -0.418904 -0.805629 -0.418904
vn -0.418904 -0.805629 -0.418904
vn -0.418904 -0.805629 -0.418904
vn -0.418904 -0.805629 -0.418904
vn -0.419223 -0.805298 0.419223
vn -0.419223 -0.805298 0.419223
vn -0.419223 -0.805298 0.419223
vn -0.419223 -0.805298 0.419223
vn 0.418904 -0.805629 0.418904
vn 0.418904 -0.805629 0.418904
vn 0.418904 -0.805629 0.418904
vn 0.418904 -0.805629 0.418904
vn 0.419223 -0.805298 -0.419223
vn 0.419223 -0.805298 -0.419223
vn 0.419223 -0.805298 -0.419223
vn 0.419223 -0.805298 -0.419223
s off
f 1/5/1 2/6/2 3/7/3 4/8/4
f 5/16/5 8/14/6 7/12/7 6/10/8
f 9/1/9 10/2/10 2/6/11 1/5/12
f 10/2/13 11/4/14 3/7/15 2/6/16
f 11/4/17 12/3/18 4/8/19 3/7/20
f 12/3/21 9/1/22 1/5/23 4/8/24
f 9/9/25 5/16/26 6/10/27 10/11/28
f 10/11/29 6/10/30 7/12/31 11/13/32
f 11/13/33 7/12/34 8/14/35 12/15/36
f 12/15/37 8/14/38 5/16/39 9/9/40
