# This file uses centimeters as units for non-parametric coordinates.

v -14.411358 5.246769 36.126041
v -14.411358 5.246769 10.823425
v -8.482262 5.246771 -17.670727
v -5.201913 2.861587 -35.365257
v 10.565987 5.246770 36.126087
v 14.411527 5.246771 18.123205
v 5.125139 2.861586 -35.364738
v 10.120506 5.246770 -14.114670
v -0.038220 1.751549 -35.973534
v 1.532904 0.870780 -36.125954
v -1.609678 0.870780 -36.126091
v -2.720333 5.981842 36.126064
v -7.271653 0.984294 36.126064
v 2.774948 0.984293 36.126072
v -16.852448 0.000000 36.126041
v -7.271820 0.000000 36.126064
v -2.579265 0.000000 36.126068
v 2.774948 0.000009 36.126072
v 12.355575 0.000009 36.126087
v 16.852446 0.000010 18.123205
v 11.834642 0.000009 -14.114670
v 5.125139 0.000000 -35.364738
v 1.532904 0.000000 -36.125954
v -0.038220 0.000000 -35.973587
v -1.609678 0.000000 -36.126091
v -5.201913 0.000000 -35.365257
v -9.918949 0.000000 -17.670727
v -16.852448 0.000000 10.823425
v 1.889175 10.671500 34.917133
v -8.248135 10.483713 34.917126
v 1.787732 11.035109 11.726709
v -8.292492 10.468672 10.823427
v -3.659468 8.099852 -11.958889
v 2.463022 8.203276 -12.328541
v -3.358017 3.894915 -34.712479
v 2.476038 4.346252 -35.107864
v -5.481931 0.000000 13.286074
v -1.802389 0.000000 14.082968
v 2.411706 0.000007 14.995605
v -3.142765 0.000000 -16.563026
v -0.736182 0.000000 -16.169609
v 1.883324 0.000003 -15.741390
v -1.241384 4.346310 -34.634232
v -1.850907 8.114534 -12.011368
v -5.112449 8.842747 -4.814037
v 2.469014 6.427626 -22.815411
v 4.059983 7.586699 -12.701035
v 4.407915 9.526083 8.354269
vt 0.175328 0.492728
vt 0.171777 0.495779
vt 0.171335 0.492969
vt 0.171677 0.492010
vt 0.171476 0.492065
vt 0.024990 0.185504
vt 0.025487 0.185457
vt 0.024589 0.185738
vt 0.171772 0.492898
vt 0.024547 0.187531
vt 0.024980 0.187594
vt 0.023988 0.187736
vt 0.171376 0.493039
vt 0.175328 0.492728
vt 0.024971 0.187626
vt 0.024519 0.187669
vt 0.171840 0.492911
vt 0.023984 0.187769
vt 0.171777 0.495779
vt 0.171726 0.492922
vt 0.171777 0.495779
vt 0.171777 0.495779
vt 0.171777 0.495779
vt 0.171777 0.495779
vt 0.171777 0.495779
vt 0.171691 0.492030
vt 0.171036 0.493307
vt 0.025538 0.185575
vt 0.025091 0.185742
vt 0.024638 0.185857
vt 0.171489 0.492085
vt 0.171489 0.492085
vt 0.175328 0.492728
vt 0.175328 0.492728
vt 0.175328 0.492728
vt 0.175328 0.492728
vt 0.175328 0.492728
vt 0.171772 0.492898
vt 0.171535 0.492852
vt 0.171514 0.492848
vt 0.171498 0.492859
vt 0.171335 0.492969
vt 0.171476 0.492065
vt 0.171544 0.492037
vt 0.171566 0.492027
vt 0.171593 0.492023
vt 0.171677 0.492010
vt 0.175328 0.492728
vt 0.175328 0.492728
vt 0.175328 0.492728
vt 0.175328 0.492728
vt 0.175328 0.492728
vt 0.175241 0.492714
vt 0.175328 0.492728
vt 0.175328 0.492728
vt 0.175328 0.492728
vt 0.171777 0.495779
vt 0.171777 0.495779
vt 0.171777 0.495779
vt 0.171777 0.495779
vt 0.171777 0.495779
vt 0.171777 0.495779
vt 0.155506 0.491675
vt 0.175328 0.492728
vt 0.175328 0.492728
vt 0.171691 0.492030
vt 0.023602 0.182137
vt 0.170660 0.493378
vt 0.171312 0.492939
vt 0.023769 0.183118
vt 0.170472 0.493407
vt 0.023742 0.183121
vt 0.023470 0.182155
vt 0.023719 0.182121
vt 0.023796 0.183117
vt 0.170436 0.493359
vt 0.172123 0.493851
vt 0.172062 0.493848
vt 0.171890 0.493643
vt 0.171664 0.493237
vt 0.023744 0.182436
vt 0.171035 0.493072
vt 0.023653 0.182437
vt 0.023550 0.182438
vt 0.171923 0.493186
vt 0.023776 0.182847
vt 0.170673 0.493245
vt 0.023723 0.182848
vt 0.023666 0.182849
vt 0.172043 0.493586
vt 0.175328 0.492728
vt 0.171557 0.492033
vt 0.175452 0.492743
vt 0.159003 0.491999
vt 0.158891 0.491933
vt 0.158948 0.491930
vt 0.158808 0.491351
vt 0.158832 0.491350
vt 0.175380 0.492740
vt 0.158739 0.491240
vt 0.175328 0.492728
vt 0.171777 0.495779
vt 0.171777 0.495779
vt 0.171777 0.495779
vt 0.155500 0.491999
vt 0.155454 0.491665
vt 0.155341 0.490999
vt 0.155430 0.491088
vn -0.906673 0.421835 0.000000
vn -0.906673 0.421835 0.000000
vn -0.906673 0.421835 0.000000
vn -0.906673 0.421835 0.000000
vn -0.917662 0.339112 -0.207122
vn -0.917662 0.339112 -0.207122
vn -0.917662 0.339112 -0.207122
vn -0.917662 0.339112 -0.207122
vn -0.958704 0.169869 -0.228101
vn -0.958704 0.169869 -0.228101
vn -0.958704 0.169869 -0.228101
vn -0.958704 0.169869 -0.228101
vn 0.906765 0.365566 0.210094
vn 0.906765 0.365566 0.210094
vn 0.906765 0.365566 0.210094
vn 0.906765 0.365566 0.210094
vn 0.941882 0.199117 -0.270576
vn 0.941882 0.199117 -0.270576
vn 0.941882 0.199117 -0.270576
vn 0.941882 0.199117 -0.270576
vn 0.000000 0.000001 1.000000
vn 0.000000 0.000001 1.000000
vn 0.000000 0.000001 1.000000
vn 0.000000 0.000001 1.000000
vn -0.096537 0.000020 -0.995329
vn -0.096537 0.000020 -0.995329
vn -0.096537 0.000020 -0.995329
vn -0.096537 0.000020 -0.995329
vn -0.000001 0.000001 1.000000
vn -0.000001 0.000001 1.000000
vn -0.000001 0.000001 1.000000
vn -0.000001 0.000001 1.000000
vn 0.096603 0.000020 -0.995323
vn 0.096603 0.000020 -0.995323
vn 0.096603 0.000020 -0.995323
vn 0.096603 0.000020 -0.995323
vn 0.207301 0.000000 -0.978277
vn 0.207301 0.000000 -0.978277
vn 0.207301 0.000000 -0.978277
vn 0.207301 0.000000 -0.978277
vn -0.017985 0.414842 -0.909716
vn -0.017985 0.414842 -0.909716
vn -0.017985 0.414842 -0.909716
vn -0.017985 0.414842 -0.909716
vn -0.207202 0.000000 -0.978298
vn -0.207202 0.000000 -0.978298
vn -0.207202 0.000000 -0.978298
vn -0.207202 0.000000 -0.978298
vn -0.000003 0.000001 1.000000
vn -0.000003 0.000001 1.000000
vn -0.000003 0.000001 1.000000
vn -0.000003 0.000001 1.000000
vn -0.000002 -0.000000 1.000000
vn -0.000002 -0.000000 1.000000
vn -0.000002 -0.000000 1.000000
vn -0.000002 -0.000000 1.000000
vn 0.006883 0.124454 0.992202
vn 0.006883 0.124454 0.992202
vn 0.006883 0.124454 0.992202
vn 0.006883 0.124454 0.992202
vn 0.921500 0.364881 -0.133044
vn 0.921500 0.364881 -0.133044
vn 0.921500 0.364881 -0.133044
vn 0.921500 0.364881 -0.133044
vn -0.007889 0.125444 0.992069
vn -0.007889 0.125444 0.992069
vn -0.007889 0.125444 0.992069
vn -0.007889 0.125444 0.992069
vn 0.056127 0.266622 -0.962166
vn 0.056127 0.266622 -0.962166
vn 0.056127 0.266622 -0.962166
vn 0.056127 0.266622 -0.962166
vn -0.037612 0.999264 0.007482
vn -0.037612 0.999264 0.007482
vn -0.037612 0.999264 0.007482
vn -0.037612 0.999264 0.007482
vn -0.045696 0.992601 -0.112500
vn -0.045696 0.992601 -0.112500
vn -0.045696 0.992601 -0.112500
vn -0.029224 0.985760 -0.165598
vn -0.029224 0.985760 -0.165598
vn -0.029224 0.985760 -0.165598
vn -0.029224 0.985760 -0.165598
vn -0.648314 0.761373 0.000350
vn -0.648314 0.761373 0.000350
vn -0.648314 0.761373 0.000350
vn -0.648314 0.761373 0.000350
vn -0.635155 0.744255 -0.206550
vn -0.635155 0.744255 -0.206550
vn -0.635155 0.744255 -0.206550
vn -0.360595 0.914990 -0.181009
vn -0.360595 0.914990 -0.181009
vn -0.360595 0.914990 -0.181009
vn -0.360595 0.914990 -0.181009
vn 0.451533 0.890913 0.048904
vn 0.451533 0.890913 0.048904
vn 0.451533 0.890913 0.048904
vn 0.451533 0.890913 0.048904
vn 0.440477 0.895847 -0.058630
vn 0.440477 0.895847 -0.058630
vn 0.440477 0.895847 -0.058630
vn 0.342835 0.922711 -0.176262
vn 0.342835 0.922711 -0.176262
vn 0.342835 0.922711 -0.176262
vn 0.342835 0.922711 -0.176262
vn -0.004704 0.253957 0.967204
vn -0.004704 0.253957 0.967204
vn -0.004704 0.253957 0.967204
vn -0.115101 0.412950 -0.903451
vn -0.115101 0.412950 -0.903451
vn -0.115101 0.412950 -0.903451
vn 0.000002 -1.000000 0.000000
vn 0.000002 -1.000000 0.000000
vn 0.000002 -1.000000 0.000000
vn 0.000002 -1.000000 0.000000
vn 0.000000 -1.000000 0.000000
vn 0.000000 -1.000000 0.000000
vn 0.000000 -1.000000 0.000000
vn 0.000000 -1.000000 0.000000
vn 0.000000 -1.000000 0.000000
vn 0.000000 -1.000000 0.000000
vn 0.000000 -1.000000 0.000000
vn 0.000000 -1.000000 0.000000
vn 0.000000 -1.000000 0.000000
vn 0.000000 -1.000000 0.000000
vn 0.000000 -1.000000 0.000000
vn 0.000000 -1.000000 0.000000
vn 0.000000 -1.000000 0.000000
vn 0.000000 -1.000000 0.000000
vn 0.000000 -1.000000 0.000000
vn 0.000000 -1.000000 0.000000
vn 0.000000 -1.000000 0.000000
vn 0.000000 -1.000000 0.000000
vn 0.000000 -1.000000 0.000000
vn 0.000000 -1.000000 0.000000
vn 0.000001 -1.000000 0.000000
vn 0.000001 -1.000000 0.000000
vn 0.000001 -1.000000 0.000000
vn 0.000001 -1.000000 0.000000
vn 0.000000 -1.000000 0.000000
vn 0.000000 -1.000000 0.000000
vn 0.000000 -1.000000 0.000000
vn 0.000000 -1.000000 0.000000
vn 0.000000 -1.000000 0.000000
vn 0.000000 -1.000000 0.000000
vn 0.000000 -1.000000 0.000000
vn 0.000000 -1.000000 0.000000
vn 0.000000 -1.000000 0.000000
vn 0.000000 -1.000000 0.000000
vn 0.000000 -1.000000 0.000000
vn 0.000000 -1.000000 0.000000
vn 0.000001 -1.000000 0.000000
vn 0.000001 -1.000000 0.000000
vn 0.000001 -1.000000 0.000000
vn 0.000001 -1.000000 0.000000
vn 0.000000 -1.000000 0.000000
vn 0.000000 -1.000000 0.000000
vn 0.000000 -1.000000 0.000000
vn 0.000000 -1.000000 0.000000
vn -0.059746 0.435827 -0.898045
vn -0.059746 0.435827 -0.898045
vn -0.059746 0.435827 -0.898045
vn -0.114983 0.977983 -0.174151
vn -0.114983 0.977983 -0.174151
vn -0.114983 0.977983 -0.174151
vn -0.114983 0.977983 -0.174151
vn -0.011138 0.994341 -0.105653
vn -0.011138 0.994341 -0.105653
vn -0.011138 0.994341 -0.105653
vn 0.323422 0.933006 -0.157793
vn 0.323422 0.933006 -0.157793
vn 0.323422 0.933006 -0.157793
vn 0.379838 0.920206 -0.094571
vn 0.379838 0.920206 -0.094571
vn 0.379838 0.920206 -0.094571
vn 0.379838 0.920206 -0.094571
vn 0.410462 0.909277 -0.068818
vn 0.410462 0.909277 -0.068818
vn 0.410462 0.909277 -0.068818
vn 0.410462 0.909277 -0.068818
vn 0.472722 0.868890 -0.146851
vn 0.472722 0.868890 -0.146851
vn 0.472722 0.868890 -0.146851
vn -0.021251 0.985742 -0.166919
vn -0.021251 0.985742 -0.166919
vn -0.021251 0.985742 -0.166919
vn -0.032421 0.992585 -0.117151
vn -0.032421 0.992585 -0.117151
vn -0.032421 0.992585 -0.117151
vn -0.032421 0.992585 -0.117151
vn -0.479676 0.869545 -0.117483
vn -0.479676 0.869545 -0.117483
vn -0.479676 0.869545 -0.117483
vn -0.479676 0.869545 -0.117483
s off
f 2/54/1 28/36/2 15/14/3 1/51/4
f 2/54/5 3/56/6 27/34/7 28/37/8
f 4/1/9 26/33/10 27/35/11 3/56/12
f 19/19/13 20/21/14 6/58/15 5/2/16
f 21/24/17 22/25/18 7/61/19 8/60/20
f 17/16/21 12/10/22 13/11/23 16/15/24
f 24/29/25 9/6/26 10/7/27 23/28/28
f 17/16/29 18/18/30 14/12/31 12/10/32
f 11/8/33 9/6/34 24/29/35 25/30/36
f 7/4/37 22/26/38 23/66/39 10/47/40
f 4/43/41 35/44/42 9/45/43 11/5/44
f 26/32/45 4/43/46 11/5/47 25/31/48
f 1/3/49 15/13/50 16/69/51 13/42/52
f 19/20/53 5/38/54 14/9/55 18/17/56
f 5/38/57 29/39/58 12/40/59 14/9/60
f 20/22/61 21/23/62 8/60/63 6/58/64
f 12/40/65 30/41/66 1/3/67 13/42/68
f 9/45/69 36/46/70 7/4/71 10/47/72
f 30/52/73 29/64/74 31/48/75 32/53/76
f 32/53/77 31/48/78 45/99/79
f 43/91/80 44/93/81 34/49/82 46/101/83
f 2/54/84 1/51/85 30/52/86 32/53/87
f 2/54/88 32/53/89 45/99/90
f 4/1/91 3/56/92 33/55/93 35/50/94
f 31/59/95 29/57/96 5/2/97 6/58/98
f 31/59/99 6/58/100 48/104/101
f 7/61/102 46/102/103 47/103/104 8/60/105
f 12/40/106 29/39/107 30/41/108
f 9/45/109 43/92/110 36/46/111
f 17/67/112 38/83/113 39/84/114 18/73/115
f 15/13/116 28/27/117 37/82/118 16/69/119
f 18/17/120 39/85/121 20/80/122 19/20/123
f 16/74/124 37/81/125 38/83/126 17/67/127
f 37/82/128 28/27/129 27/68/130 40/87/131
f 38/83/132 37/81/133 40/86/134 41/88/135
f 39/84/136 38/83/137 41/88/138 42/89/139
f 20/80/140 39/85/141 42/90/142 21/79/143
f 40/87/144 27/68/145 26/71/146 25/76/147
f 41/88/148 40/86/149 25/75/150 24/70/151
f 42/89/152 41/88/153 24/70/154 23/72/155
f 21/79/156 42/90/157 23/77/158 22/78/159
f 9/94/160 35/95/161 43/96/162
f 33/97/163 44/98/164 43/96/165 35/95/166
f 45/100/167 44/98/168 33/97/169
f 47/63/170 46/105/171 34/106/172
f 31/107/173 48/108/174 47/63/175 34/106/176
f 48/104/177 6/58/178 8/60/179 47/103/180
f 7/61/181 36/62/182 46/102/183
f 43/91/184 46/101/185 36/65/186
f 45/99/187 31/48/188 34/49/189 44/93/190
f 2/54/191 45/99/192 33/55/193 3/56/194
