# This file uses centimeters as units for non-parametric coordinates.

v 10.679535 7.543947 -14.943833
v 10.679535 7.543947 -12.003812
v 11.997675 7.543947 -13.473823
v 9.361395 7.543947 -13.473823
v 10.679535 7.953956 -13.473823
v 9.570365 7.700445 -13.473823
v 10.679535 7.700445 -12.236859
v 11.788704 7.700445 -13.473823
v 10.679535 7.700445 -14.710786
v 10.679535 7.543947 11.897010
v 10.679535 7.543947 14.837031
v 11.997675 7.543947 13.367021
v 9.361395 7.543947 13.367021
v 10.679535 7.953956 13.367021
v 9.570365 7.700445 13.367021
v 10.679535 7.700445 14.603984
v 11.788704 7.700445 13.367021
v 10.679535 7.700445 12.130057
v -9.042564 7.543947 11.897010
v -9.042564 7.543947 14.837031
v -7.724424 7.543947 13.367021
v -10.360704 7.543947 13.367021
v -9.042564 7.953956 13.367021
v -10.151734 7.700445 13.367021
v -9.042564 7.700445 14.603984
v -7.933395 7.700445 13.367021
v -9.042564 7.700445 12.130057
v -9.042564 7.543947 -14.943833
v -9.042564 7.543947 -12.003812
v -7.724424 7.543947 -13.473823
v -10.360704 7.543947 -13.473823
v -9.042564 7.953956 -13.473823
v -10.151734 7.700445 -13.473823
v -9.042564 7.700445 -12.236859
v -7.933395 7.700445 -13.473823
v -9.042564 7.700445 -14.710786
v -12.397514 0.000000 17.029161
v -12.397514 7.543947 17.029161
v -12.397514 0.000000 -17.029161
v -12.397514 7.543947 -17.029161
v 13.965054 0.000000 -17.029161
v 13.965054 7.543947 -17.029161
v 13.965054 0.000000 17.029161
v 13.965054 7.543947 17.029161
v -13.965054 3.771960 -17.029161
v -13.965054 3.771960 17.029161
v -10.937656 1.143269 -17.029161
v -12.414925 3.771960 -17.029161
v -10.937656 6.400664 -17.029161
v 13.906826 6.400664 -17.029161
v 13.906826 1.143269 -17.029161
v 13.906826 6.400664 17.029161
v 13.906826 1.143269 17.029161
v -10.937656 6.400664 17.029161
v -12.414925 3.771960 17.029161
v -10.937656 1.143269 17.029161
v -10.639206 1.143269 -15.639658
v -12.116474 3.771960 -15.639657
v -10.639206 6.400664 -15.639657
v 13.091110 6.400664 -15.639657
v 13.091110 1.143269 -15.639658
v 13.091110 6.400664 15.639663
v 13.091110 1.143269 15.639664
v -10.639206 6.400664 15.639663
v -12.116474 3.771960 15.639664
v -10.639206 1.143269 15.639664
v 11.150597 0.000000 13.393108
v -9.583057 0.000000 13.393108
v -9.583057 0.000000 -13.393108
v 11.150597 0.000000 -13.393108
v -10.286671 7.543947 14.302122
v 11.854210 7.543947 14.302122
v -6.435603 7.543947 14.227629
v 8.003143 7.543947 14.227629
v 11.854210 7.543947 -14.302122
v 11.796547 7.543947 10.274757
v 11.796547 7.543947 -10.312225
v -10.286671 7.543947 -14.302122
v 8.003143 7.543947 -14.227629
v -6.435603 7.543947 -14.227629
v -10.229012 7.543947 -10.312225
v -10.229012 7.543947 10.274757
v -6.435603 7.543947 -10.312224
v 8.003142 7.543947 10.274757
v 8.003142 7.543947 -10.312224
v -6.435603 7.543947 10.274757
v 0.783767 7.543948 -7.755396
v -2.600553 7.543947 4.119586
v -0.908393 7.543947 6.850505
v 2.475932 7.543947 6.850505
v 4.168092 7.543947 4.119586
v -1.366414 7.543948 1.098435
v 2.933953 7.543948 1.098435
v 0.783767 8.243948 -3.804019
v -0.476741 8.243948 1.386394
v 2.044280 8.243948 1.386395
v -1.557609 8.243947 4.032342
v -0.389193 8.243947 5.918004
v 1.956732 8.243947 5.918004
v 3.125149 8.243947 4.032342
v 12.776882 3.771966 -15.493348
v 12.776882 3.771966 15.493354
vt 0.057612 0.228164
vt 0.058039 0.228269
vt 0.057604 0.228699
vt 0.057190 0.228273
vt 0.057623 0.227904
vt 0.058116 0.228333
vt 0.057604 0.228853
vt 0.057116 0.228338
vt 0.057626 0.227903
vt 0.057612 0.228164
vt 0.058039 0.228269
vt 0.057604 0.228699
vt 0.057190 0.228273
vt 0.057623 0.227904
vt 0.058116 0.228333
vt 0.057604 0.228853
vt 0.057116 0.228338
vt 0.057626 0.227903
vt 0.057612 0.228164
vt 0.058039 0.228269
vt 0.057604 0.228699
vt 0.057190 0.228273
vt 0.057623 0.227904
vt 0.058116 0.228333
vt 0.057604 0.228853
vt 0.057116 0.228338
vt 0.057626 0.227903
vt 0.057612 0.228164
vt 0.058039 0.228269
vt 0.057604 0.228699
vt 0.057190 0.228273
vt 0.057623 0.227904
vt 0.058116 0.228333
vt 0.057604 0.228853
vt 0.057116 0.228338
vt 0.057626 0.227903
vt 0.037728 0.417204
vt 0.037753 0.417265
vt 0.037653 0.418083
vt 0.037619 0.418042
vt 0.037976 0.353544
vt 0.037976 0.353544
vt 0.037976 0.353544
vt 0.037976 0.353544
vt 0.037976 0.353544
vt 0.037976 0.353544
vt 0.037976 0.353544
vt 0.037976 0.353544
vt 0.037976 0.353544
vt 0.037976 0.353544
vt 0.036154 0.468221
vt 0.036959 0.468413
vt 0.037154 0.467559
vt 0.036453 0.467416
vt 0.037702 0.417311
vt 0.037596 0.418106
vt 0.037715 0.417260
vt 0.037670 0.417291
vt 0.037687 0.417216
vt 0.037068 0.417106
vt 0.037072 0.417124
vt 0.037083 0.417217
vt 0.037082 0.417201
vt 0.036838 0.417903
vt 0.036846 0.417915
vt 0.036873 0.417975
vt 0.036870 0.417965
vt 0.037572 0.418045
vt 0.037608 0.418075
vt 0.037558 0.418089
vt 0.037704 0.417287
vt 0.037659 0.417317
vt 0.037675 0.417243
vt 0.037084 0.417154
vt 0.037094 0.417231
vt 0.036880 0.417881
vt 0.036902 0.417933
vt 0.037568 0.418003
vt 0.037604 0.418035
vt 0.037555 0.418050
vt 0.037566 0.417952
vt 0.037399 0.417921
vt 0.037433 0.417726
vt 0.037593 0.417753
vt 0.037531 0.417994
vt 0.036973 0.417895
vt 0.037623 0.417374
vt 0.037129 0.417297
vt 0.036920 0.417839
vt 0.036974 0.417649
vt 0.037129 0.417675
vt 0.037083 0.417865
vt 0.037208 0.417344
vt 0.037064 0.417322
vt 0.037105 0.417168
vt 0.037246 0.417191
vt 0.037493 0.417389
vt 0.037520 0.417232
vt 0.037666 0.417253
vt 0.037642 0.417412
vt 0.035354 0.469759
vt 0.035403 0.469836
vt 0.035209 0.469895
vt 0.035715 0.469443
vt 0.035271 0.469422
vt 0.035298 0.469212
vt 0.035721 0.469231
vt 0.035957 0.469934
vt 0.035701 0.469921
vt 0.035946 0.469454
vt 0.035692 0.470210
vt 0.035171 0.470181
vt 0.034957 0.469882
vt 0.035043 0.469411
vt 0.035489 0.469469
vt 0.035402 0.469682
vt 0.035516 0.469842
vt 0.035578 0.469771
vt 0.035542 0.469689
vt 0.339399 0.446429
vt 0.339399 0.446429
vt 0.339399 0.446429
vt 0.339399 0.446429
vt 0.339399 0.446429
vt 0.339399 0.446429
vt 0.339399 0.446429
vt 0.339399 0.446429
vt 0.339399 0.446429
vt 0.339399 0.446429
vt 0.339399 0.446429
vt 0.339399 0.446429
vt 0.339399 0.446429
vt 0.339399 0.446429
vt 0.037976 0.353544
vt 0.037976 0.353544
vn -0.218495 0.955968 0.195922
vn -0.218495 0.955968 0.195922
vn -0.218495 0.955968 0.195922
vn 0.218495 0.955968 0.195922
vn 0.218495 0.955968 0.195922
vn 0.218495 0.955968 0.195922
vn 0.218495 0.955968 -0.195922
vn 0.218495 0.955968 -0.195922
vn 0.218495 0.955968 -0.195922
vn -0.218495 0.955968 -0.195922
vn -0.218495 0.955968 -0.195922
vn -0.218495 0.955968 -0.195922
vn -0.527996 0.705031 0.473447
vn -0.527996 0.705031 0.473447
vn -0.527996 0.705031 0.473447
vn -0.527996 0.705031 0.473447
vn 0.527995 0.705033 0.473445
vn 0.527995 0.705033 0.473445
vn 0.527995 0.705033 0.473445
vn 0.527995 0.705033 0.473445
vn 0.527996 0.705032 -0.473446
vn 0.527996 0.705032 -0.473446
vn 0.527996 0.705031 -0.473446
vn 0.527996 0.705031 -0.473446
vn -0.527996 0.705030 -0.473447
vn -0.527996 0.705030 -0.473447
vn -0.527996 0.705030 -0.473447
vn -0.527996 0.705030 -0.473447
vn -0.218495 0.955968 0.195922
vn -0.218495 0.955968 0.195922
vn -0.218495 0.955968 0.195922
vn 0.218495 0.955968 0.195922
vn 0.218495 0.955968 0.195922
vn 0.218495 0.955968 0.195922
vn 0.218495 0.955968 -0.195922
vn 0.218495 0.955968 -0.195922
vn 0.218495 0.955968 -0.195922
vn -0.218495 0.955968 -0.195922
vn -0.218495 0.955968 -0.195922
vn -0.218495 0.955968 -0.195922
vn -0.527996 0.705031 0.473446
vn -0.527996 0.705031 0.473446
vn -0.527996 0.705031 0.473446
vn -0.527996 0.705031 0.473446
vn 0.527995 0.705033 0.473445
vn 0.527995 0.705033 0.473445
vn 0.527995 0.705033 0.473445
vn 0.527995 0.705033 0.473445
vn 0.527995 0.705032 -0.473446
vn 0.527995 0.705032 -0.473446
vn 0.527995 0.705032 -0.473446
vn 0.527995 0.705032 -0.473446
vn -0.527995 0.705032 -0.473446
vn -0.527995 0.705032 -0.473446
vn -0.527995 0.705031 -0.473446
vn -0.527995 0.705032 -0.473446
vn -0.218495 0.955968 0.195922
vn -0.218495 0.955968 0.195922
vn -0.218495 0.955968 0.195922
vn 0.218495 0.955968 0.195922
vn 0.218495 0.955968 0.195922
vn 0.218495 0.955968 0.195922
vn 0.218495 0.955968 -0.195922
vn 0.218495 0.955968 -0.195922
vn 0.218495 0.955968 -0.195922
vn -0.218495 0.955968 -0.195922
vn -0.218495 0.955968 -0.195922
vn -0.218495 0.955968 -0.195922
vn -0.527996 0.705031 0.473446
vn -0.527996 0.705031 0.473446
vn -0.527996 0.705031 0.473446
vn -0.527996 0.705031 0.473446
vn 0.527995 0.705033 0.473445
vn 0.527995 0.705033 0.473445
vn 0.527995 0.705033 0.473445
vn 0.527995 0.705033 0.473445
vn 0.527996 0.705032 -0.473446
vn 0.527996 0.705032 -0.473446
vn 0.527996 0.705032 -0.473446
vn 0.527996 0.705032 -0.473446
vn -0.527995 0.705032 -0.473446
vn -0.527995 0.705032 -0.473446
vn -0.527995 0.705031 -0.473446
vn -0.527995 0.705032 -0.473446
vn -0.218495 0.955968 0.195922
vn -0.218495 0.955968 0.195922
vn -0.218495 0.955968 0.195922
vn 0.218495 0.955968 0.195922
vn 0.218495 0.955968 0.195922
vn 0.218495 0.955968 0.195922
vn 0.218495 0.955968 -0.195922
vn 0.218495 0.955968 -0.195922
vn 0.218495 0.955968 -0.195922
vn -0.218495 0.955968 -0.195922
vn -0.218495 0.955968 -0.195922
vn -0.218495 0.955968 -0.195922
vn -0.527996 0.705031 0.473447
vn -0.527996 0.705031 0.473447
vn -0.527996 0.705031 0.473447
vn -0.527996 0.705031 0.473447
vn 0.527995 0.705033 0.473445
vn 0.527995 0.705033 0.473445
vn 0.527995 0.705033 0.473445
vn 0.527995 0.705033 0.473445
vn 0.527996 0.705032 -0.473446
vn 0.527996 0.705032 -0.473446
vn 0.527996 0.705032 -0.473446
vn 0.527996 0.705032 -0.473446
vn -0.527996 0.705030 -0.473447
vn -0.527996 0.705030 -0.473447
vn -0.527996 0.705030 -0.473447
vn -0.527996 0.705030 -0.473447
vn -0.923435 0.383755 0.000000
vn -0.923435 0.383755 0.000000
vn -0.923435 0.383755 0.000000
vn -0.923435 0.383755 0.000000
vn 0.003008 -0.028842 -0.999579
vn 0.003008 -0.028842 -0.999580
vn 0.003008 -0.028842 -0.999579
vn 0.003008 -0.028842 -0.999579
vn 0.992931 0.118693 -0.000000
vn 0.992931 0.118693 -0.000000
vn 0.992931 0.118693 -0.000000
vn 0.992931 0.118693 -0.000000
vn 0.003008 0.028842 0.999579
vn 0.003008 0.028842 0.999579
vn 0.003008 0.028842 0.999579
vn 0.003008 0.028842 0.999579
vn -0.000000 -1.000000 -0.000000
vn -0.000000 -1.000000 -0.000000
vn -0.000000 -1.000000 -0.000000
vn -0.000000 -1.000000 -0.000000
vn -0.923434 -0.383758 0.000000
vn -0.923434 -0.383758 0.000000
vn -0.923434 -0.383758 0.000000
vn -0.923434 -0.383758 0.000000
vn -0.000000 0.000000 -1.000000
vn -0.000000 0.000000 -1.000000
vn -0.000000 0.000000 -1.000000
vn -0.000000 0.000000 -1.000000
vn -0.000000 0.000000 -1.000000
vn -0.000000 0.000000 -1.000000
vn -0.000000 0.000000 -1.000000
vn -0.000000 0.000000 -1.000000
vn -0.000000 -0.000000 -1.000000
vn -0.000000 -0.000000 -1.000000
vn -0.000000 -0.000000 -1.000000
vn -0.000000 -0.000000 -1.000000
vn -0.000000 0.000000 -1.000000
vn -0.000000 0.000000 -1.000000
vn -0.000000 0.000000 -1.000000
vn -0.000000 0.000000 -1.000000
vn 0.998706 -0.050864 -0.000000
vn 0.998706 -0.050864 -0.000000
vn 0.998706 -0.050864 -0.000000
vn 0.998706 -0.050864 -0.000000
vn 0.998706 0.050865 -0.000000
vn 0.998706 0.050865 -0.000000
vn 0.998706 0.050865 -0.000000
vn 0.998706 0.050865 -0.000000
vn 0.000000 -0.000000 1.000000
vn 0.000000 -0.000000 1.000000
vn 0.000000 -0.000000 1.000000
vn 0.000000 -0.000000 1.000000
vn 0.000000 0.000000 1.000000
vn 0.000000 0.000000 1.000000
vn 0.000000 0.000000 1.000000
vn 0.000000 0.000000 1.000000
vn 0.000000 0.000000 1.000000
vn 0.000000 0.000000 1.000000
vn 0.000000 0.000000 1.000000
vn 0.000000 0.000000 1.000000
vn 0.000000 0.000000 1.000000
vn 0.000000 0.000000 1.000000
vn 0.000000 0.000000 1.000000
vn 0.000000 0.000000 1.000000
vn 0.856877 0.481547 -0.184048
vn 0.856877 0.481547 -0.184048
vn 0.856877 0.481547 -0.184048
vn 0.856877 0.481547 -0.184048
vn 0.856879 -0.481545 -0.184048
vn 0.856879 -0.481545 -0.184048
vn 0.856879 -0.481545 -0.184048
vn 0.856879 -0.481545 -0.184048
vn 0.000000 -1.000000 0.000000
vn 0.000000 -1.000000 0.000000
vn 0.000000 -1.000000 0.000000
vn 0.000000 -1.000000 0.000000
vn 0.000000 1.000000 0.000000
vn 0.000000 1.000000 0.000000
vn 0.000000 1.000000 0.000000
vn 0.000000 1.000000 0.000000
vn 0.000000 -1.000000 0.000000
vn 0.000000 -1.000000 0.000000
vn 0.000000 -1.000000 0.000000
vn 0.000000 -1.000000 0.000000
vn -0.000000 1.000000 0.000000
vn -0.000000 1.000000 0.000000
vn -0.000000 1.000000 0.000000
vn -0.000000 1.000000 0.000000
vn 0.000000 -1.000000 0.000000
vn 0.000000 -1.000000 0.000000
vn 0.000000 -1.000000 0.000000
vn 0.000000 -1.000000 0.000000
vn 0.856878 -0.481545 0.184049
vn 0.856878 -0.481545 0.184049
vn 0.856878 -0.481545 0.184049
vn 0.856878 -0.481545 0.184049
vn 0.856877 0.481547 0.184048
vn 0.856877 0.481547 0.184048
vn 0.856877 0.481547 0.184048
vn 0.856877 0.481547 0.184048
vn 0.000000 1.000000 0.000000
vn 0.000000 1.000000 0.000000
vn 0.000000 1.000000 0.000000
vn 0.000000 1.000000 0.000000
vn 0.000000 1.000000 0.000000
vn 0.000000 1.000000 0.000000
vn 0.000000 1.000000 0.000000
vn 0.000000 1.000000 0.000000
vn 0.000000 -1.000000 0.000000
vn 0.000000 -1.000000 0.000000
vn 0.000000 -1.000000 0.000000
vn 0.000000 -1.000000 0.000000
vn 0.000000 -1.000000 -0.000000
vn 0.000000 -1.000000 -0.000000
vn 0.000000 -1.000000 -0.000000
vn 0.000000 -1.000000 -0.000000
vn 0.000000 -1.000000 0.000000
vn 0.000000 -1.000000 0.000000
vn 0.000000 -1.000000 0.000000
vn 0.000000 -1.000000 0.000000
vn 0.000000 -1.000000 -0.000000
vn 0.000000 -1.000000 -0.000000
vn 0.000000 -1.000000 -0.000000
vn 0.000000 -1.000000 -0.000000
vn 0.000000 1.000000 -0.000000
vn 0.000000 1.000000 -0.000000
vn 0.000000 1.000000 -0.000000
vn 0.000000 1.000000 -0.000000
vn 0.000000 1.000000 0.000000
vn 0.000000 1.000000 0.000000
vn 0.000000 1.000000 0.000000
vn 0.000000 1.000000 0.000000
vn -0.000000 1.000000 0.000000
vn -0.000000 1.000000 0.000000
vn -0.000000 1.000000 0.000000
vn -0.000000 1.000000 0.000000
vn -0.000000 1.000000 0.000000
vn -0.000000 1.000000 0.000000
vn -0.000000 1.000000 0.000000
vn -0.000000 1.000000 0.000000
vn 0.000000 1.000000 -0.000000
vn 0.000000 1.000000 -0.000000
vn 0.000000 1.000000 -0.000000
vn 0.000000 1.000000 -0.000000
vn 0.000000 1.000000 0.000000
vn 0.000000 1.000000 0.000000
vn 0.000000 1.000000 0.000000
vn 0.000000 1.000000 0.000000
vn 0.000000 1.000000 -0.000000
vn 0.000000 1.000000 -0.000000
vn 0.000000 1.000000 -0.000000
vn 0.000000 1.000000 -0.000000
vn 0.000000 1.000000 0.000000
vn 0.000000 1.000000 0.000000
vn 0.000000 1.000000 0.000000
vn 0.000000 1.000000 0.000000
vn 0.000000 1.000000 0.000000
vn 0.000000 1.000000 0.000000
vn 0.000000 1.000000 0.000000
vn 0.000000 1.000000 0.000000
vn 0.000000 1.000000 0.000000
vn 0.000000 1.000000 0.000000
vn 0.000000 1.000000 0.000000
vn 0.000000 1.000000 0.000000
vn 0.000000 1.000000 0.000000
vn 0.000000 1.000000 0.000000
vn 0.000000 1.000000 0.000000
vn 0.000000 1.000000 -0.000000
vn 0.000000 1.000000 -0.000000
vn 0.000000 1.000000 -0.000000
vn 0.000000 1.000000 -0.000000
vn -0.000000 1.000000 -0.000000
vn -0.000000 1.000000 -0.000000
vn -0.000000 1.000000 -0.000000
vn 0.000000 1.000000 0.000000
vn 0.000000 1.000000 0.000000
vn 0.000000 1.000000 0.000000
vn 0.000000 1.000000 0.000000
vn 0.000000 1.000000 0.000000
vn 0.000000 1.000000 0.000000
vn -0.000000 1.000000 0.000000
vn -0.000000 1.000000 0.000000
vn -0.000000 1.000000 0.000000
vn 0.000000 1.000000 0.000000
vn 0.000000 1.000000 0.000000
vn 0.000000 1.000000 0.000000
vn 0.000000 1.000000 0.000000
vn 0.000000 1.000000 0.000000
vn 0.000000 1.000000 0.000000
vn 0.000000 1.000000 0.000000
vn 0.000000 1.000000 0.000000
vn 0.000000 1.000000 0.000000
vn 0.000000 1.000000 0.000000
vn 0.000000 1.000000 0.000000
vn 0.000000 1.000000 0.000000
vn 0.000000 1.000000 0.000000
vn 0.000000 1.000000 0.000000
vn 0.000000 1.000000 0.000000
vn 0.000000 1.000000 0.000000
vn 0.000000 1.000000 0.000000
vn -0.000000 1.000000 0.000000
vn -0.000000 1.000000 0.000000
vn -0.000000 1.000000 0.000000
vn -0.000000 1.000000 0.000000
vn -0.583386 0.799743 -0.141677
vn -0.583386 0.799743 -0.141677
vn -0.583386 0.799743 -0.141677
vn -0.583386 0.799743 -0.141677
vn 0.583385 0.799743 -0.141677
vn 0.583385 0.799743 -0.141677
vn 0.583385 0.799743 -0.141677
vn 0.583385 0.799743 -0.141677
vn -0.555761 0.799743 -0.227028
vn -0.555761 0.799743 -0.227028
vn -0.555761 0.799743 -0.227028
vn -0.555761 0.799743 -0.227028
vn -0.510317 0.799743 0.316208
vn -0.510317 0.799743 0.316208
vn -0.510317 0.799743 0.316208
vn -0.510317 0.799743 0.316208
vn 0.000000 0.799743 0.600342
vn 0.000000 0.799743 0.600342
vn 0.000000 0.799743 0.600342
vn 0.000000 0.799743 0.600342
vn 0.510317 0.799743 0.316208
vn 0.510317 0.799743 0.316208
vn 0.510317 0.799743 0.316208
vn 0.510317 0.799743 0.316208
vn 0.555761 0.799743 -0.227028
vn 0.555761 0.799743 -0.227028
vn 0.555761 0.799743 -0.227028
vn 0.555761 0.799743 -0.227028
vn 0.000000 1.000000 0.000000
vn 0.000000 1.000000 0.000000
vn 0.000000 1.000000 0.000000
vn 0.000000 1.000000 0.000000
vn 0.000000 1.000000 0.000000
vn 0.000000 1.000000 0.000000
vn -0.000000 1.000000 0.000000
vn -0.000000 1.000000 0.000000
vn -0.000000 1.000000 0.000000
vn 0.000000 1.000000 -0.000000
vn 0.000000 1.000000 -0.000000
vn 0.000000 1.000000 -0.000000
vn 0.000000 1.000000 0.000000
vn 0.000000 1.000000 0.000000
vn 0.000000 1.000000 0.000000
vn 0.000000 1.000000 -0.000000
vn 0.000000 1.000000 -0.000000
vn 0.000000 1.000000 -0.000000
vn 0.000000 1.000000 0.000000
vn 0.000000 1.000000 0.000000
vn 0.000000 1.000000 0.000000
vn -0.000000 1.000000 0.000000
vn -0.000000 1.000000 0.000000
vn -0.000000 1.000000 0.000000
vn 0.992931 -0.118693 -0.000000
vn 0.992931 -0.118693 -0.000000
vn 0.992931 -0.118693 -0.000000
vn 0.992931 -0.118693 -0.000000
vn 0.003008 -0.028842 0.999579
vn 0.003008 -0.028842 0.999579
vn 0.003008 -0.028842 0.999579
vn 0.003008 -0.028842 0.999579
vn 0.003008 0.028843 -0.999579
vn 0.003008 0.028843 -0.999579
vn 0.003008 0.028843 -0.999579
vn 0.003008 0.028843 -0.999579
s off
f 5/1/1 6/2/2 7/3/3
f 7/3/4 8/4/5 5/1/6
f 5/1/7 8/4/8 9/5/9
f 9/5/10 6/2/11 5/1/12
f 4/6/13 2/7/14 7/3/15 6/2/16
f 2/7/17 3/8/18 8/4/19 7/3/20
f 3/8/21 1/9/22 9/5/23 8/4/24
f 1/9/25 4/6/26 6/2/27 9/5/28
f 14/10/29 15/11/30 16/12/31
f 16/12/32 17/13/33 14/10/34
f 14/10/35 17/13/36 18/14/37
f 18/14/38 15/11/39 14/10/40
f 13/15/41 11/16/42 16/12/43 15/11/44
f 11/16/45 12/17/46 17/13/47 16/12/48
f 12/17/49 10/18/50 18/14/51 17/13/52
f 10/18/53 13/15/54 15/11/55 18/14/56
f 23/19/57 24/20/58 25/21/59
f 25/21/60 26/22/61 23/19/62
f 23/19/63 26/22/64 27/23/65
f 27/23/66 24/20/67 23/19/68
f 22/24/69 20/25/70 25/21/71 24/20/72
f 20/25/73 21/26/74 26/22/75 25/21/76
f 21/26/77 19/27/78 27/23/79 26/22/80
f 19/27/81 22/24/82 24/20/83 27/23/84
f 32/28/85 33/29/86 34/30/87
f 34/30/88 35/31/89 32/28/90
f 32/28/91 35/31/92 36/32/93
f 36/32/94 33/29/95 32/28/96
f 31/33/97 29/34/98 34/30/99 33/29/100
f 29/34/101 30/35/102 35/31/103 34/30/104
f 30/35/105 28/36/106 36/32/107 35/31/108
f 28/36/109 31/33/110 33/29/111 36/32/112
f 40/37/113 45/38/114 46/39/115 38/40/116
f 101/134/117 58/42/118 59/43/119 60/44/120
f 61/45/121 101/134/122 102/135/123 63/47/124
f 63/47/125 102/135/126 65/49/127 66/50/128
f 67/51/129 68/52/130 69/53/131 70/54/132
f 45/38/133 39/55/134 37/56/135 46/39/136
f 39/55/137 45/38/138 48/57/139 47/58/140
f 45/38/141 40/37/142 49/59/143 48/57/144
f 40/37/145 42/60/146 50/61/147 49/59/148
f 41/62/149 39/55/150 47/58/151 51/63/152
f 42/60/153 44/64/154 52/65/155 50/61/156
f 43/66/157 41/62/158 51/63/159 53/67/160
f 44/64/161 38/40/162 54/68/163 52/65/164
f 38/40/165 46/39/166 55/69/167 54/68/168
f 46/39/169 37/56/170 56/70/171 55/69/172
f 37/56/173 43/66/174 53/67/175 56/70/176
f 47/58/177 48/57/178 58/71/179 57/72/180
f 48/57/181 49/59/182 59/73/183 58/71/184
f 49/59/185 50/61/186 60/74/187 59/73/188
f 51/63/189 47/58/190 57/72/191 61/75/192
f 50/61/193 52/65/194 62/76/195 60/74/196
f 53/67/197 51/63/198 61/75/199 63/77/200
f 52/65/201 54/68/202 64/78/203 62/76/204
f 54/68/205 55/69/206 65/79/207 64/78/208
f 55/69/209 56/70/210 66/80/211 65/79/212
f 56/70/213 53/67/214 63/77/215 66/80/216
f 71/81/217 73/82/218 86/83/219 82/84/220
f 43/66/221 37/56/222 68/85/223 67/86/224
f 37/56/225 39/55/226 69/87/227 68/85/228
f 39/55/229 41/62/230 70/88/231 69/87/232
f 41/62/233 43/66/234 67/86/235 70/88/236
f 72/89/237 76/90/238 84/91/239 74/92/240
f 38/40/241 44/64/242 74/92/243 73/82/244
f 85/93/245 77/94/246 75/95/247 79/96/248
f 44/64/249 42/60/250 77/94/251 76/90/252
f 83/97/253 80/98/254 78/99/255 81/100/256
f 42/60/257 40/37/258 80/98/259 79/96/260
f 40/37/261 38/40/262 82/84/263 81/100/264
f 91/101/265 90/102/266 84/103/267
f 83/104/268 85/105/269 79/106/270 80/107/271
f 82/108/272 86/109/273 83/104/274 81/110/275
f 84/103/276 86/109/277 73/111/278 74/112/279
f 85/105/280 84/103/281 76/113/282 77/114/283
f 83/104/284 87/115/285 85/105/286
f 85/105/287 87/115/288 93/116/289
f 89/117/290 88/118/291 86/109/292
f 83/104/293 92/119/294 87/115/295
f 84/103/296 90/102/297 89/117/298 86/109/299
f 94/120/300 95/121/301 96/122/302
f 83/104/303 86/109/304 88/118/305 92/119/306
f 96/122/307 95/121/308 97/123/309 98/124/310 99/125/311 100/126/312
f 85/105/313 93/116/314 91/101/315 84/103/316
f 87/127/317 92/128/318 95/121/319 94/120/320
f 93/129/321 87/127/322 94/120/323 96/122/324
f 92/128/325 88/130/326 97/123/327 95/121/328
f 88/130/329 89/131/330 98/124/331 97/123/332
f 89/131/333 90/132/334 99/125/335 98/124/336
f 90/132/337 91/133/338 100/126/339 99/125/340
f 91/133/341 93/129/342 96/122/343 100/126/344
f 38/40/345 73/82/346 71/81/347
f 82/84/348 38/40/349 71/81/350
f 40/37/351 81/100/352 78/99/353
f 80/98/354 40/37/355 78/99/356
f 42/60/357 79/96/358 75/95/359
f 77/94/360 42/60/361 75/95/362
f 44/64/363 76/90/364 72/89/365
f 74/92/366 44/64/367 72/89/368
f 102/135/369 101/134/370 60/44/371 62/46/372
f 65/49/373 102/135/374 62/46/375 64/48/376
f 57/41/377 58/42/378 101/134/379 61/45/380
