# This file uses centimeters as units for non-parametric coordinates.

v 1.605483 -0.558139 -3.875978
v -1.605483 -0.558139 -3.875978
v -3.875979 -0.558138 -1.605484
v -3.875979 -0.558139 1.605484
v -1.605483 -0.558139 3.875978
v 1.605483 -0.558139 3.875978
v 3.875979 -0.558139 1.605484
v 3.875979 -0.558139 -1.605484
v 0.803242 -0.558139 -1.939198
v -0.803242 -0.558139 -1.939198
v -1.939198 -0.558138 -0.803242
v -1.939197 -0.558139 0.803242
v -0.803242 -0.558138 1.939198
v 0.803242 -0.558139 1.939198
v 1.939198 -0.558138 0.803242
v 1.939197 -0.558138 -0.803242
v -0.842567 -0.558139 5.264481
v 0.842566 -0.558139 5.264481
v -0.484704 -0.558140 21.686855
v 0.484703 -0.558140 21.686855
v -0.844840 -0.558142 22.502346
v -0.073237 -0.558140 23.089184
v -1.865469 -0.558138 22.349010
v -1.865469 -0.558140 23.242519
v 1.605483 0.631131 -3.875978
v -1.605483 0.631131 -3.875978
v -0.803242 0.631132 -1.939196
v 0.803242 0.631131 -1.939198
v -3.875979 0.631131 -1.605484
v -1.939198 0.631131 -0.803242
v -3.875979 0.631131 1.605484
v -1.939197 0.631131 0.803242
v -1.605483 0.631131 3.875978
v -0.803242 0.631131 1.939198
v 1.605483 0.631131 3.875978
v 0.803242 0.631130 1.939198
v 3.875979 0.631131 1.605484
v 1.939198 0.631132 0.803242
v 3.875979 0.631131 -1.605484
v 1.939197 0.631131 -0.803242
v -0.842567 0.631131 5.264481
v 0.842566 0.631131 5.264481
v -0.484704 0.631133 21.686863
v 0.484703 0.631133 21.686863
v -0.844840 0.631129 22.502346
v -0.073237 0.631129 23.089184
v -1.865469 0.631133 22.349010
v -1.865469 0.631129 23.242519
vt 0.079435 0.277839
vt 0.079435 0.277839
vt 0.079435 0.277839
vt 0.079435 0.277839
vt 0.079435 0.277839
vt 0.079435 0.277839
vt 0.079435 0.277839
vt 0.079435 0.277839
vt 0.079435 0.277839
vt 0.079435 0.277839
vt 0.079435 0.277839
vt 0.079435 0.277839
vt 0.079435 0.277839
vt 0.079435 0.277839
vt 0.079435 0.277839
vt 0.079435 0.277839
vt 0.079435 0.277839
vt 0.079435 0.277839
vt 0.079435 0.277839
vt 0.079435 0.277839
vt 0.079435 0.277839
vt 0.079435 0.277839
vt 0.079435 0.277839
vt 0.079435 0.277839
vt 0.079435 0.277839
vt 0.079435 0.277839
vt 0.079435 0.277839
vt 0.079435 0.277839
vt 0.079435 0.277839
vt 0.079435 0.277839
vt 0.079435 0.277839
vt 0.079435 0.277839
vt 0.079435 0.277839
vt 0.079435 0.277839
vt 0.079435 0.277839
vt 0.079435 0.277839
vt 0.079435 0.277839
vt 0.079435 0.277839
vt 0.079435 0.277839
vt 0.079435 0.277839
vt 0.079435 0.277839
vt 0.079435 0.277839
vt 0.079435 0.277839
vt 0.079435 0.277839
vt 0.079435 0.277839
vt 0.079435 0.277839
vt 0.079435 0.277839
vt 0.079435 0.277839
vn 0.000000 1.000000 -0.000000
vn 0.000000 1.000000 -0.000000
vn 0.000000 1.000000 -0.000000
vn 0.000000 1.000000 -0.000000
vn -0.000000 1.000000 -0.000000
vn -0.000000 1.000000 -0.000000
vn -0.000000 1.000000 -0.000000
vn -0.000000 1.000000 -0.000000
vn -0.000000 1.000000 0.000000
vn -0.000000 1.000000 0.000000
vn -0.000000 1.000000 0.000000
vn -0.000000 1.000000 0.000000
vn -0.000000 1.000000 0.000000
vn -0.000000 1.000000 0.000000
vn -0.000000 1.000000 0.000000
vn -0.000000 1.000000 0.000000
vn 0.000000 1.000000 -0.000000
vn 0.000000 1.000000 -0.000000
vn 0.000000 1.000000 -0.000000
vn 0.000000 1.000000 -0.000000
vn -0.000000 1.000000 0.000000
vn -0.000000 1.000000 0.000000
vn -0.000000 1.000000 0.000000
vn -0.000000 1.000000 0.000000
vn 0.000000 1.000000 -0.000000
vn 0.000000 1.000000 -0.000000
vn 0.000000 1.000000 -0.000000
vn 0.000000 1.000000 -0.000000
vn -0.000000 1.000000 -0.000000
vn -0.000000 1.000000 -0.000000
vn -0.000000 1.000000 -0.000000
vn -0.000000 1.000000 -0.000000
vn -0.000000 1.000000 -0.000000
vn -0.000000 1.000000 -0.000000
vn -0.000000 1.000000 -0.000000
vn -0.000000 1.000000 -0.000000
vn -0.000000 1.000000 -0.000000
vn -0.000000 1.000000 -0.000000
vn -0.000000 1.000000 -0.000000
vn -0.000000 1.000000 -0.000000
vn -0.000001 1.000000 0.000003
vn -0.000001 1.000000 0.000003
vn -0.000001 1.000000 0.000003
vn -0.000001 1.000000 0.000003
vn 0.000001 1.000000 0.000002
vn 0.000001 1.000000 0.000002
vn 0.000001 1.000000 0.000002
vn 0.000001 1.000000 0.000002
vn 0.000000 -1.000000 -0.000000
vn 0.000000 -1.000000 -0.000000
vn 0.000000 -1.000000 -0.000000
vn 0.000000 -1.000000 -0.000000
vn -0.000000 -1.000000 0.000000
vn -0.000000 -1.000000 0.000000
vn -0.000000 -1.000000 0.000000
vn -0.000000 -1.000000 0.000000
vn 0.000000 -1.000000 -0.000000
vn 0.000000 -1.000000 -0.000000
vn 0.000000 -1.000000 -0.000000
vn 0.000000 -1.000000 -0.000000
vn 0.000000 -1.000000 -0.000000
vn 0.000000 -1.000000 -0.000000
vn 0.000000 -1.000000 -0.000000
vn 0.000000 -1.000000 -0.000000
vn -0.000000 -1.000000 -0.000000
vn -0.000000 -1.000000 -0.000000
vn -0.000000 -1.000000 -0.000000
vn -0.000000 -1.000000 -0.000000
vn -0.000000 -1.000000 -0.000000
vn -0.000000 -1.000000 -0.000000
vn -0.000000 -1.000000 -0.000000
vn -0.000000 -1.000000 -0.000000
vn -0.000001 -1.000000 -0.000000
vn -0.000001 -1.000000 -0.000000
vn -0.000001 -1.000000 -0.000000
vn -0.000001 -1.000000 -0.000000
vn -0.000000 -1.000000 0.000000
vn -0.000000 -1.000000 0.000000
vn -0.000000 -1.000000 0.000000
vn -0.000000 -1.000000 0.000000
vn 0.000000 -1.000000 0.000000
vn 0.000000 -1.000000 0.000000
vn 0.000000 -1.000000 0.000000
vn 0.000000 -1.000000 0.000000
vn 0.000000 -1.000000 -0.000000
vn 0.000000 -1.000000 -0.000000
vn 0.000000 -1.000000 -0.000000
vn 0.000000 -1.000000 -0.000000
vn 0.000001 -1.000000 -0.000000
vn 0.000001 -1.000000 -0.000000
vn 0.000001 -1.000000 -0.000000
vn 0.000001 -1.000000 -0.000000
vn -0.000001 -1.000000 0.000001
vn -0.000001 -1.000000 0.000001
vn -0.000001 -1.000000 0.000001
vn -0.000001 -1.000000 0.000001
vn 0.000000 -0.000000 -1.000000
vn 0.000000 -0.000000 -1.000000
vn 0.000000 -0.000000 -1.000000
vn 0.000000 -0.000000 -1.000000
vn 0.000001 -0.000000 1.000000
vn 0.000001 -0.000000 1.000000
vn 0.000001 -0.000000 1.000000
vn 0.000001 -0.000000 1.000000
vn -0.707107 -0.000000 -0.707107
vn -0.707107 -0.000000 -0.707107
vn -0.707107 -0.000000 -0.707107
vn -0.707107 -0.000000 -0.707107
vn 0.707106 -0.000000 0.707107
vn 0.707106 -0.000000 0.707107
vn 0.707106 -0.000000 0.707107
vn 0.707106 -0.000000 0.707107
vn -1.000000 -0.000000 0.000000
vn -1.000000 -0.000000 0.000000
vn -1.000000 -0.000000 0.000000
vn -1.000000 -0.000000 0.000000
vn 1.000000 -0.000000 -0.000000
vn 1.000000 -0.000000 -0.000000
vn 1.000000 -0.000000 -0.000000
vn 1.000000 -0.000000 -0.000000
vn -0.707107 0.000000 0.707107
vn -0.707107 0.000000 0.707107
vn -0.707107 0.000000 0.707107
vn -0.707107 0.000000 0.707107
vn 0.707107 -0.000000 -0.707106
vn 0.707107 -0.000000 -0.707106
vn 0.707107 -0.000000 -0.707106
vn 0.707107 -0.000000 -0.707106
vn -0.000000 0.000000 -1.000000
vn -0.000000 0.000000 -1.000000
vn -0.000000 0.000000 -1.000000
vn -0.000000 0.000000 -1.000000
vn 0.707107 0.000000 0.707107
vn 0.707107 0.000000 0.707107
vn 0.707107 0.000000 0.707107
vn 0.707107 0.000000 0.707107
vn -0.707106 0.000000 -0.707107
vn -0.707106 0.000000 -0.707107
vn -0.707106 0.000000 -0.707107
vn -0.707106 0.000000 -0.707107
vn 1.000000 0.000000 0.000000
vn 1.000000 0.000000 0.000000
vn 1.000000 0.000000 0.000000
vn 1.000000 0.000000 0.000000
vn -1.000000 0.000000 0.000001
vn -1.000000 0.000000 0.000001
vn -1.000000 0.000000 0.000001
vn -1.000000 0.000000 0.000001
vn 0.707107 -0.000000 -0.707107
vn 0.707107 -0.000000 -0.707107
vn 0.707107 -0.000000 -0.707107
vn 0.707107 -0.000000 -0.707107
vn -0.707107 0.000000 0.707106
vn -0.707107 0.000000 0.707106
vn -0.707107 0.000000 0.707106
vn -0.707107 0.000000 0.707106
vn -0.876418 0.000000 0.481551
vn -0.876418 0.000000 0.481551
vn -0.876418 0.000000 0.481551
vn -0.876418 0.000000 0.481551
vn 0.876418 0.000000 0.481551
vn 0.876418 0.000000 0.481551
vn 0.876418 0.000000 0.481551
vn 0.876418 0.000000 0.481551
vn -0.999763 -0.000000 0.021786
vn -0.999763 -0.000000 0.021786
vn -0.999763 -0.000000 0.021786
vn -0.999763 -0.000000 0.021786
vn 0.999763 -0.000000 0.021786
vn 0.999763 -0.000000 0.021786
vn 0.999763 -0.000000 0.021786
vn 0.999763 -0.000000 0.021786
vn -0.914767 0.000001 -0.403982
vn -0.914767 0.000001 -0.403982
vn -0.914767 0.000001 -0.403982
vn -0.914767 0.000001 -0.403982
vn 0.929158 -0.000001 0.369683
vn 0.929158 -0.000001 0.369683
vn 0.929158 -0.000001 0.369683
vn 0.929158 -0.000001 0.369683
vn 0.148568 -0.000000 -0.988902
vn 0.148568 -0.000000 -0.988902
vn 0.148568 -0.000000 -0.988902
vn 0.148568 -0.000000 -0.988902
vn -1.000000 -0.000000 -0.000001
vn -1.000000 -0.000000 -0.000001
vn -1.000000 -0.000000 -0.000001
vn -1.000000 -0.000000 -0.000001
vn 0.085244 0.000000 0.996360
vn 0.085244 0.000000 0.996360
vn 0.085244 0.000000 0.996360
vn 0.085244 0.000000 0.996360
s off
f 25/1/1 26/2/2 27/3/3 28/4/4
f 26/2/5 29/5/6 30/6/7 27/3/8
f 29/5/9 31/7/10 32/8/11 30/6/12
f 31/7/13 33/9/14 34/10/15 32/8/16
f 33/9/17 35/11/18 36/12/19 34/10/20
f 35/11/21 37/13/22 38/14/23 36/12/24
f 37/13/25 39/15/26 40/16/27 38/14/28
f 39/15/29 25/1/30 28/4/31 40/16/32
f 35/11/33 33/9/34 41/17/35 42/18/36
f 42/18/37 41/17/38 43/19/39 44/20/40
f 44/20/41 43/19/42 45/21/43 46/22/44
f 46/22/45 45/21/46 47/23/47 48/24/48
f 1/25/49 9/28/50 10/27/51 2/26/52
f 2/26/53 10/27/54 11/30/55 3/29/56
f 3/29/57 11/30/58 12/32/59 4/31/60
f 4/31/61 12/32/62 13/34/63 5/33/64
f 5/33/65 13/34/66 14/36/67 6/35/68
f 6/35/69 14/36/70 15/38/71 7/37/72
f 7/37/73 15/38/74 16/40/75 8/39/76
f 8/39/77 16/40/78 9/28/79 1/25/80
f 6/35/81 18/42/82 17/41/83 5/33/84
f 18/42/85 20/44/86 19/43/87 17/41/88
f 20/44/89 22/46/90 21/45/91 19/43/92
f 22/46/93 24/48/94 23/47/95 21/45/96
f 1/25/97 2/26/98 26/2/99 25/1/100
f 10/27/101 9/28/102 28/4/103 27/3/104
f 2/26/105 3/29/106 29/5/107 26/2/108
f 11/30/109 10/27/110 27/3/111 30/6/112
f 3/29/113 4/31/114 31/7/115 29/5/116
f 12/32/117 11/30/118 30/6/119 32/8/120
f 4/31/121 5/33/122 33/9/123 31/7/124
f 13/34/125 12/32/126 32/8/127 34/10/128
f 14/36/129 13/34/130 34/10/131 36/12/132
f 6/35/133 7/37/134 37/13/135 35/11/136
f 15/38/137 14/36/138 36/12/139 38/14/140
f 7/37/141 8/39/142 39/15/143 37/13/144
f 16/40/145 15/38/146 38/14/147 40/16/148
f 8/39/149 1/25/150 25/1/151 39/15/152
f 9/28/153 16/40/154 40/16/155 28/4/156
f 5/33/157 17/41/158 41/17/159 33/9/160
f 18/42/161 6/35/162 35/11/163 42/18/164
f 17/41/165 19/43/166 43/19/167 41/17/168
f 20/44/169 18/42/170 42/18/171 44/20/172
f 19/43/173 21/45/174 45/21/175 43/19/176
f 22/46/177 20/44/178 44/20/179 46/22/180
f 21/45/181 23/47/182 47/23/183 45/21/184
f 23/47/185 24/48/186 48/24/187 47/23/188
f 24/48/189 22/46/190 46/22/191 48/24/192
