# This file uses centimeters as units for non-parametric coordinates.

v 1.074082 -13.987541 -2.860109
v -1.209966 -13.987576 -2.860114
v -2.351981 -13.987557 -0.052033
v -1.209970 -13.987556 2.756044
v 1.074086 -13.987576 2.756042
v 2.216075 -13.987576 -0.052035
v 0.887924 34.884262 -2.402412
v -1.023803 34.884296 -2.402409
v -1.979682 34.884262 -0.052031
v -1.023803 34.884281 2.298338
v 0.887924 34.884228 2.298342
v 1.843803 34.884262 -0.052031
v 1.074086 8.995040 -2.860114
v 2.216070 8.995024 -0.052035
v 1.074086 8.995024 2.756046
v -1.209970 8.995041 2.756045
v -2.351981 8.995040 -0.052035
v -1.209966 8.995024 -2.860109
v 0.875787 50.299454 -2.372555
v -1.011689 50.299431 -2.372562
v -1.955426 50.299416 -0.052029
v -1.011684 50.299435 2.268486
v 0.875778 50.299435 2.268486
v 1.819516 50.299450 -0.052029
v -3.785225 49.341820 4.208027
v 3.785498 49.341850 4.208027
v -3.286577 49.341812 -4.208035
v 3.286845 49.341827 -4.208035
v -3.286568 45.951225 -4.208035
v 3.286845 45.951225 -4.208035
v -3.785221 45.951233 4.208027
v 3.785498 45.951229 4.208027
v -2.745924 46.184982 7.645294
v 2.812594 46.205574 7.645294
v 2.812594 48.969219 7.645294
v -2.745920 48.969173 7.645294
v 0.139006 43.951439 -18.869469
v 0.139002 43.610409 -19.020374
v -3.336701 44.820297 12.583435
v -4.425231 43.174294 17.173637
v 3.614925 44.820290 12.583435
v 4.703306 43.174294 17.173637
v 3.614921 47.083851 13.743809
v 4.703306 44.178127 19.557520
v -3.336701 47.083912 13.743814
v -4.425227 44.178108 19.557520
v 2.501473 48.116940 -9.090584
v -2.427863 45.867645 -9.068520
v -2.406329 48.124161 -9.067940
v 2.521581 45.867111 -9.091358
v -2.032800 43.188454 -2.603096
v 2.033667 43.188454 -2.603096
v 2.342145 43.188450 2.603275
v -2.341277 43.188454 2.603275
vt 0.007477 0.252257
vt 0.007477 0.252257
vt 0.007477 0.252257
vt 0.007477 0.252257
vt 0.007477 0.252257
vt 0.007477 0.252257
vt 0.016205 0.252257
vt 0.007477 0.252257
vt 0.016205 0.252257
vt 0.007477 0.252257
vt 0.016205 0.252257
vt 0.007477 0.252257
vt 0.013763 0.252257
vt 0.013763 0.252257
vt 0.013763 0.252257
vt 0.013763 0.252257
vt 0.013763 0.252257
vt 0.013763 0.252257
vt 0.013763 0.252257
vt 0.007477 0.252257
vt 0.007477 0.252257
vt 0.007477 0.252257
vt 0.007477 0.252257
vt 0.013763 0.252257
vt 0.102356 0.230917
vt 0.102356 0.230917
vt 0.102356 0.230917
vt 0.102356 0.230917
vt 0.102356 0.230917
vt 0.102356 0.230917
vt 0.102356 0.230917
vt 0.102356 0.230917
vt 0.102356 0.230917
vt 0.102356 0.230917
vt 0.102356 0.230917
vt 0.102356 0.230917
vt 0.102356 0.230917
vt 0.102356 0.230917
vt 0.102356 0.230917
vt 0.102356 0.230917
vt 0.102356 0.230917
vt 0.102356 0.230917
vt 0.102356 0.230917
vt 0.102356 0.230917
vt 0.102356 0.230917
vt 0.102356 0.230917
vt 0.102356 0.230917
vt 0.102356 0.230917
vt 0.102356 0.230917
vt 0.102356 0.230917
vt 0.102356 0.230917
vt 0.102356 0.230917
vt 0.102356 0.230917
vt 0.102356 0.230917
vn 0.000000 -0.000000 -1.000000
vn 0.000000 -0.000000 -1.000000
vn 0.000000 -0.000000 -1.000000
vn 0.000000 -0.000000 -1.000000
vn -0.926325 0.000000 -0.376726
vn -0.926325 0.000000 -0.376726
vn -0.926325 0.000000 -0.376726
vn -0.926325 0.000000 -0.376726
vn -0.926325 0.000000 0.376725
vn -0.926325 0.000000 0.376725
vn -0.926325 0.000000 0.376725
vn -0.926325 0.000000 0.376725
vn -0.000000 -0.000000 1.000000
vn -0.000000 -0.000000 1.000000
vn -0.000000 -0.000000 1.000000
vn -0.000000 -0.000000 1.000000
vn 0.926328 0.000000 0.376718
vn 0.926328 0.000000 0.376718
vn 0.926328 0.000000 0.376718
vn 0.926328 0.000000 0.376718
vn 0.926328 -0.000000 -0.376719
vn 0.926328 -0.000000 -0.376719
vn 0.926328 -0.000000 -0.376719
vn 0.926328 -0.000000 -0.376719
vn -0.000001 -1.000000 -0.000002
vn -0.000001 -1.000000 -0.000002
vn -0.000001 -1.000000 -0.000002
vn -0.000001 -1.000000 -0.000002
vn -0.000001 -1.000000 -0.000002
vn -0.000001 -1.000000 -0.000002
vn -0.000007 1.000000 0.000002
vn -0.000007 1.000000 0.000002
vn -0.000007 1.000000 0.000002
vn -0.000007 1.000000 0.000002
vn -0.000007 1.000000 0.000002
vn -0.000007 1.000000 0.000002
vn 0.926244 0.013319 -0.376689
vn 0.926244 0.013319 -0.376689
vn 0.926244 0.013319 -0.376689
vn 0.926244 0.013319 -0.376689
vn 0.926244 0.013319 0.376689
vn 0.926244 0.013319 0.376689
vn 0.926244 0.013319 0.376689
vn 0.926244 0.013319 0.376689
vn -0.000000 0.017677 0.999844
vn -0.000000 0.017677 0.999844
vn -0.000000 0.017677 0.999844
vn -0.000000 0.017677 0.999844
vn -0.926242 0.013320 0.376693
vn -0.926242 0.013320 0.376693
vn -0.926242 0.013320 0.376693
vn -0.926242 0.013320 0.376693
vn -0.926242 0.013320 -0.376694
vn -0.926242 0.013320 -0.376694
vn -0.926242 0.013320 -0.376694
vn -0.926242 0.013320 -0.376694
vn -0.000002 0.017676 -0.999844
vn -0.000002 0.017676 -0.999844
vn -0.000002 0.017676 -0.999844
vn -0.000002 0.017676 -0.999844
vn 0.000001 0.001937 -0.999998
vn 0.000001 0.001937 -0.999998
vn 0.000001 0.001937 -0.999998
vn 0.000001 0.001937 -0.999998
vn -0.926323 0.001458 -0.376728
vn -0.926323 0.001458 -0.376728
vn -0.926323 0.001458 -0.376728
vn -0.926323 0.001458 -0.376728
vn -0.926322 0.001458 0.376729
vn -0.926322 0.001458 0.376729
vn -0.926322 0.001458 0.376729
vn -0.926322 0.001458 0.376729
vn 0.000000 0.001937 0.999998
vn 0.000000 0.001937 0.999998
vn 0.000000 0.001937 0.999998
vn 0.000000 0.001937 0.999998
vn 0.926323 0.001459 0.376728
vn 0.926323 0.001459 0.376728
vn 0.926323 0.001459 0.376728
vn 0.926323 0.001459 0.376728
vn 0.926324 0.001459 -0.376726
vn 0.926324 0.001459 -0.376726
vn 0.926324 0.001459 -0.376726
vn 0.926324 0.001459 -0.376726
vn -0.000004 1.000000 -0.000001
vn -0.000004 1.000000 -0.000001
vn -0.000004 1.000000 -0.000001
vn -0.000004 1.000000 -0.000001
vn 0.000000 -1.000000 0.000000
vn 0.000000 -1.000000 0.000000
vn 0.000000 -1.000000 0.000000
vn 0.000000 -1.000000 0.000000
vn 0.998249 0.000000 -0.059146
vn 0.998249 0.000000 -0.059146
vn 0.998249 0.000000 -0.059146
vn 0.998249 0.000000 -0.059146
vn -0.998249 -0.000002 -0.059146
vn -0.998249 -0.000002 -0.059146
vn -0.998249 -0.000002 -0.059146
vn -0.998249 -0.000002 -0.059146
vn -0.000012 -0.999852 0.017208
vn -0.000012 -0.999852 0.017208
vn -0.000012 -0.999852 0.017208
vn -0.000012 -0.999852 0.017208
vn 0.001564 -0.997489 0.070808
vn 0.001564 -0.997489 0.070808
vn 0.001564 -0.997489 0.070808
vn 0.001564 -0.997489 0.070808
vn 0.962199 -0.000000 0.272347
vn 0.962199 -0.000000 0.272347
vn 0.962199 -0.000000 0.272347
vn 0.962199 -0.000000 0.272347
vn -0.000005 0.994175 0.107778
vn -0.000005 0.994175 0.107778
vn -0.000005 0.994175 0.107778
vn -0.000005 0.994175 0.107778
vn -0.957202 0.000000 0.289422
vn -0.957202 0.000000 0.289422
vn -0.957202 0.000000 0.289422
vn -0.957202 0.000000 0.289422
vn 0.001586 -0.963343 -0.268269
vn 0.001586 -0.963343 -0.268269
vn 0.001586 -0.963343 -0.268269
vn 0.001586 -0.963343 -0.268269
vn 0.990388 0.031110 -0.134777
vn 0.990388 0.031110 -0.134777
vn 0.990388 0.031110 -0.134777
vn 0.990388 0.031110 -0.134777
vn 0.000001 0.955388 0.295352
vn 0.000001 0.955388 0.295352
vn 0.000001 0.955388 0.295352
vn 0.000001 0.955388 0.295352
vn -0.994749 0.022929 -0.099743
vn -0.994749 0.022929 -0.099743
vn -0.994749 0.022929 -0.099743
vn -0.994749 0.022929 -0.099743
vn -0.000453 0.920049 -0.391803
vn -0.000453 0.920049 -0.391803
vn -0.000453 0.920049 -0.391803
vn 0.987548 0.003542 -0.157279
vn 0.987548 0.003542 -0.157279
vn 0.987548 0.003542 -0.157279
vn 0.987548 0.003542 -0.157279
vn -0.984277 0.003770 -0.176590
vn -0.984277 0.003770 -0.176590
vn -0.984277 0.003770 -0.176590
vn -0.984277 0.003770 -0.176590
vn 0.000000 -0.941309 -0.337545
vn 0.000000 -0.941309 -0.337545
vn 0.000000 -0.941309 -0.337545
vn 0.000000 -0.941309 -0.337545
vn 0.978784 0.150647 -0.138879
vn 0.978784 0.150647 -0.138879
vn 0.978784 0.150647 -0.138879
vn 0.978784 0.150647 -0.138879
vn 0.000002 0.894495 0.447079
vn 0.000002 0.894495 0.447079
vn 0.000002 0.894495 0.447079
vn 0.000002 0.894495 0.447079
vn -0.978779 0.150665 -0.138896
vn -0.978779 0.150665 -0.138896
vn -0.978779 0.150665 -0.138896
vn -0.978779 0.150665 -0.138896
vn 0.000001 -0.921623 0.388087
vn 0.000001 -0.921623 0.388087
vn 0.000001 -0.921623 0.388087
vn 0.000001 -0.921623 0.388087
vn 0.000919 -0.975178 0.221422
vn 0.000919 -0.975178 0.221422
vn 0.000919 -0.975178 0.221422
vn 0.000128 0.969980 -0.243185
vn 0.000128 0.969980 -0.243185
vn 0.000128 0.969980 -0.243185
vn 0.000128 0.969980 -0.243185
vn 0.970364 0.021621 -0.240680
vn 0.970364 0.021621 -0.240680
vn 0.970364 0.021621 -0.240680
vn 0.970364 0.021621 -0.240680
vn -0.966004 0.023029 -0.257499
vn -0.966004 0.023029 -0.257499
vn -0.966004 0.023029 -0.257499
vn -0.966004 0.023029 -0.257499
vn 0.000000 -0.502310 -0.864688
vn 0.000000 -0.502310 -0.864688
vn 0.000000 -0.502310 -0.864688
vn 0.000000 -0.502310 -0.864688
vn 0.897423 -0.437954 -0.053173
vn 0.897423 -0.437954 -0.053173
vn 0.897423 -0.437954 -0.053173
vn 0.897423 -0.437954 -0.053173
vn -0.000000 -0.502265 0.864714
vn -0.000000 -0.502265 0.864714
vn -0.000000 -0.502265 0.864714
vn -0.000000 -0.502265 0.864714
vn -0.897348 -0.438109 -0.053168
vn -0.897348 -0.438109 -0.053168
vn -0.897348 -0.438109 -0.053168
vn -0.897348 -0.438109 -0.053168
s off
f 1/1/1 2/2/2 18/3/3 13/4/4
f 2/2/5 3/5/6 17/6/7 18/3/8
f 3/5/9 4/7/10 16/8/11 17/6/12
f 4/7/13 5/9/14 15/10/15 16/8/16
f 5/9/17 6/11/18 14/12/19 15/10/20
f 6/11/21 1/1/22 13/4/23 14/12/24
f 1/1/25 6/11/26 5/9/27 4/7/28 3/5/29 2/2/30
f 19/13/31 20/14/32 21/15/33 22/16/34 23/17/35 24/18/36
f 14/12/37 13/4/38 7/19/39 12/20/40
f 15/10/41 14/12/42 12/20/43 11/21/44
f 16/8/45 15/10/46 11/21/47 10/22/48
f 17/6/49 16/8/50 10/22/51 9/23/52
f 18/3/53 17/6/54 9/23/55 8/24/56
f 13/4/57 18/3/58 8/24/59 7/19/60
f 20/14/61 19/13/62 7/19/63 8/24/64
f 21/15/65 20/14/66 8/24/67 9/23/68
f 22/16/69 21/15/70 9/23/71 10/22/72
f 23/17/73 22/16/74 10/22/75 11/21/76
f 24/18/77 23/17/78 11/21/79 12/20/80
f 7/19/81 19/13/82 24/18/83 12/20/84
f 25/25/85 26/26/86 28/27/87 27/28/88
f 51/51/89 52/52/90 53/53/91 54/54/92
f 28/27/93 26/26/94 32/31/95 30/30/96
f 29/29/97 31/32/98 25/25/99 27/28/100
f 30/30/101 29/29/102 48/48/103 50/50/104
f 31/32/105 32/31/106 34/34/107 33/35/108
f 34/34/109 32/31/110 26/26/111 35/36/112
f 26/26/113 25/25/114 36/37/115 35/36/116
f 36/37/117 25/25/118 31/32/119 33/35/120
f 33/35/121 34/34/122 41/38/123 39/39/124
f 43/40/125 41/38/126 34/34/127 35/36/128
f 35/36/129 36/37/130 45/41/131 43/40/132
f 45/41/133 36/37/134 33/35/135 39/39/136
f 37/42/137 49/49/138 47/47/139
f 30/30/140 50/50/141 47/47/142 28/27/143
f 27/28/144 49/49/145 48/48/146 29/29/147
f 40/43/148 39/39/149 41/38/150 42/44/151
f 42/44/152 41/38/153 43/40/154 44/45/155
f 44/45/156 43/40/157 45/41/158 46/46/159
f 39/39/160 40/43/161 46/46/162 45/41/163
f 46/46/164 40/43/165 42/44/166 44/45/167
f 50/50/168 48/48/169 38/33/170
f 47/47/171 49/49/172 27/28/173 28/27/174
f 47/47/175 50/50/176 38/33/177 37/42/178
f 48/48/179 49/49/180 37/42/181 38/33/182
f 29/29/183 30/30/184 52/52/185 51/51/186
f 30/30/187 32/31/188 53/53/189 52/52/190
f 32/31/191 31/32/192 54/54/193 53/53/194
f 31/32/195 29/29/196 51/51/197 54/54/198
