# This file uses centimeters as units for non-parametric coordinates.

v 3.211994 0.000000 -5.563314
v -3.211994 0.000000 -5.563314
v -6.423954 0.000000 0.000000
v -3.211994 0.000000 5.563314
v 3.211994 0.000000 5.563314
v 6.423988 0.000000 0.000000
v 0.000000 0.000000 0.000000
v -3.925138 24.204412 6.798535
v 3.925138 24.204412 6.798535
v 7.850276 24.204412 0.000000
v 3.925138 24.204412 -6.798502
v -3.925138 24.204412 -6.798502
v -7.850276 24.204412 0.000000
v -3.954313 1.550255 6.849068
v 3.954313 1.550255 6.849068
v 7.908627 1.550255 0.000000
v 3.954313 1.550255 -6.849034
v -3.954313 1.550255 -6.849034
v -7.908627 1.550255 0.000000
v -1.455120 34.215706 -2.520440
v 1.455154 34.215706 -2.520440
v 2.910345 34.215706 0.000001
v 1.455154 34.215706 2.520443
v -1.455120 34.215706 2.520443
v -2.910311 34.215706 0.000001
v 1.520772 29.163677 -2.633981
v 2.401850 26.791401 -4.160046
v -1.520713 29.163677 -2.633981
v -2.401801 26.791407 -4.160040
v -3.041464 29.163677 0.000001
v -4.803625 26.791409 0.000000
v -1.520738 29.163675 2.634009
v -2.401827 26.791403 4.160079
v 1.520772 29.163677 2.634009
v 2.401850 26.791401 4.160080
v 3.041498 29.163675 0.000001
v 4.803652 26.791403 0.000000
v 8.685782 21.088211 -0.000002
v 4.342891 21.088211 -7.522069
v -4.342891 21.088211 -7.522069
v -8.685782 21.088211 -0.000002
v -4.342891 21.088211 7.522103
v 4.342891 21.088211 7.522103
v -1.957072 34.600555 -3.389870
v 1.957105 34.600555 -3.389870
v -3.914234 34.600555 0.000001
v -1.957072 34.600555 3.389873
v 1.957105 34.600555 3.389873
v 3.914268 34.600555 0.000001
v -1.868697 37.122547 -3.236797
v 1.868731 37.122547 -3.236797
v -3.737481 37.122547 0.000001
v -1.868697 37.122547 3.236800
v 1.868731 37.122547 3.236800
v 3.737515 37.122547 0.000001
v 0.000017 37.122547 0.000002
vt -0.895554 0.087341
vt -0.895554 0.087341
vt -0.895554 0.087341
vt -0.895554 0.087341
vt -0.895554 0.087341
vt -0.895554 0.087341
vt -0.895554 0.087341
vt -0.895554 0.087341
vt -0.895554 0.087341
vt -0.895554 0.087341
vt -0.895554 0.087341
vt -0.895554 0.087341
vt -0.895554 0.087341
vt -0.895554 0.087341
vt -0.895554 0.087341
vt -0.895554 0.087341
vt -0.895554 0.087341
vt -0.895554 0.087341
vt -0.895554 0.087341
vt -0.895554 0.087341
vt -0.895554 0.087341
vt -0.895554 0.087341
vt -0.895554 0.087341
vt -0.895554 0.087341
vt -0.895554 0.087341
vt -0.895554 0.087341
vt -0.895554 0.087341
vt -0.895554 0.087341
vt -0.895554 0.087341
vt -0.895554 0.087341
vt -0.895554 0.087341
vt -0.895554 0.087341
vt -0.895554 0.087341
vt -0.895554 0.087341
vt -0.895554 0.087341
vt -0.895554 0.087341
vt -0.895554 0.087341
vt -0.895554 0.087341
vt -0.895554 0.087341
vt -0.895554 0.087341
vt -0.895554 0.087341
vt -0.895554 0.087341
vt -0.895554 0.087341
vt -0.895554 0.087341
vt -0.895554 0.087341
vt -0.895554 0.087341
vt -0.895686 0.087364
vt -0.895507 0.087398
vt -0.895738 0.087307
vt -0.895603 0.087283
vt -0.895417 0.087319
vt -0.895372 0.087376
vt -0.895913 0.087449
vt -0.895434 0.087539
vt -0.896056 0.087296
vt -0.895694 0.087232
vt -0.895188 0.087329
vt -0.895071 0.087483
vt -0.895939 0.087758
vt -0.895477 0.087843
vt -0.896077 0.087621
vt -0.895730 0.087567
vt -0.895243 0.087658
vt -0.895129 0.087796
vt -0.895599 0.087709
vn 0.000000 -1.000000 0.000000
vn 0.000000 -1.000000 0.000000
vn 0.000000 -1.000000 0.000000
vn 0.000000 -1.000000 0.000000
vn 0.000000 -1.000000 0.000000
vn 0.000000 -1.000000 0.000000
vn 0.000000 -1.000000 0.000000
vn 0.000000 -1.000000 0.000000
vn 0.000000 -1.000000 0.000000
vn 0.000000 -1.000000 0.000000
vn 0.000000 -1.000000 0.000000
vn 0.000000 -1.000000 0.000000
vn 0.000000 -1.000000 0.000000
vn 0.000000 -1.000000 0.000000
vn 0.000000 -1.000000 0.000000
vn 0.000000 -1.000000 0.000000
vn 0.000000 -1.000000 0.000000
vn 0.000000 -1.000000 0.000000
vn 0.000000 0.226178 -0.974086
vn 0.000000 0.226178 -0.974086
vn 0.000000 0.226178 -0.974086
vn 0.000000 0.226178 -0.974086
vn 0.000000 -0.638388 0.769715
vn 0.000000 -0.638388 0.769715
vn 0.000000 -0.638388 0.769715
vn 0.000000 -0.638388 0.769715
vn 0.666595 -0.638384 0.384860
vn 0.666595 -0.638384 0.384860
vn 0.666595 -0.638384 0.384860
vn 0.666595 -0.638384 0.384860
vn 0.666596 -0.638381 -0.384862
vn 0.666596 -0.638381 -0.384862
vn 0.666596 -0.638381 -0.384862
vn 0.666596 -0.638381 -0.384862
vn 0.000000 -0.638378 -0.769723
vn 0.000000 -0.638378 -0.769723
vn 0.000000 -0.638378 -0.769723
vn 0.000000 -0.638378 -0.769723
vn -0.666594 -0.638386 -0.384858
vn -0.666594 -0.638386 -0.384858
vn -0.666594 -0.638386 -0.384858
vn -0.666594 -0.638386 -0.384858
vn -0.666593 -0.638388 0.384857
vn -0.666593 -0.638388 0.384857
vn -0.666593 -0.638388 0.384857
vn -0.666593 -0.638388 0.384857
vn 0.000000 0.226178 0.974086
vn 0.000000 0.226178 0.974086
vn 0.000000 0.226178 0.974086
vn 0.000000 0.226178 0.974086
vn 0.843583 0.226178 0.487043
vn 0.843583 0.226178 0.487043
vn 0.843583 0.226178 0.487043
vn 0.843583 0.226178 0.487043
vn 0.843582 0.226179 -0.487045
vn 0.843582 0.226179 -0.487045
vn 0.843582 0.226179 -0.487045
vn 0.843582 0.226179 -0.487045
vn -0.843582 0.226179 -0.487045
vn -0.843582 0.226179 -0.487045
vn -0.843582 0.226179 -0.487045
vn -0.843582 0.226179 -0.487045
vn -0.843583 0.226178 0.487043
vn -0.843583 0.226178 0.487043
vn -0.843583 0.226178 0.487043
vn -0.843583 0.226178 0.487043
vn -0.000000 0.541016 -0.841012
vn -0.000000 0.541016 -0.841012
vn -0.000000 0.541016 -0.841012
vn -0.000000 0.541016 -0.841012
vn 0.728337 0.541017 -0.420506
vn 0.728337 0.541017 -0.420506
vn 0.728337 0.541017 -0.420506
vn 0.728337 0.541017 -0.420506
vn -0.728334 0.541020 -0.420508
vn -0.728334 0.541020 -0.420508
vn -0.728334 0.541020 -0.420508
vn -0.728334 0.541020 -0.420508
vn -0.728337 0.541020 0.420502
vn -0.728337 0.541020 0.420502
vn -0.728337 0.541020 0.420502
vn -0.728337 0.541020 0.420502
vn -0.000000 0.541017 0.841012
vn -0.000000 0.541017 0.841012
vn -0.000000 0.541017 0.841012
vn -0.000000 0.541017 0.841012
vn 0.728339 0.541018 0.420503
vn 0.728339 0.541018 0.420503
vn 0.728339 0.541018 0.420503
vn 0.728339 0.541018 0.420503
vn 0.000000 0.022469 -0.999748
vn 0.000000 0.022469 -0.999748
vn 0.000000 0.022469 -0.999748
vn 0.000000 0.022469 -0.999748
vn -0.865804 0.022476 -0.499878
vn -0.865804 0.022476 -0.499878
vn -0.865804 0.022476 -0.499878
vn -0.865804 0.022476 -0.499878
vn -0.865807 0.022480 0.499873
vn -0.865807 0.022480 0.499873
vn -0.865807 0.022480 0.499873
vn -0.865807 0.022480 0.499873
vn 0.000000 0.022474 0.999748
vn 0.000000 0.022474 0.999748
vn 0.000000 0.022474 0.999748
vn 0.000000 0.022474 0.999748
vn 0.865807 0.022479 0.499873
vn 0.865807 0.022479 0.499873
vn 0.865807 0.022479 0.499873
vn 0.865807 0.022479 0.499873
vn 0.865806 0.022478 -0.499875
vn 0.865806 0.022478 -0.499875
vn 0.865806 0.022478 -0.499875
vn 0.865806 0.022478 -0.499875
vn 0.000000 0.714037 0.700108
vn 0.000000 0.714037 0.700108
vn 0.000000 0.714037 0.700108
vn 0.000000 0.714037 0.700108
vn 0.606313 0.714035 0.350054
vn 0.606313 0.714035 0.350054
vn 0.606313 0.714035 0.350054
vn 0.606313 0.714035 0.350054
vn 0.606312 0.714035 -0.350056
vn 0.606312 0.714035 -0.350056
vn 0.606312 0.714035 -0.350056
vn 0.606312 0.714035 -0.350056
vn 0.000000 0.714036 -0.700109
vn 0.000000 0.714036 -0.700109
vn 0.000000 0.714036 -0.700109
vn 0.000000 0.714036 -0.700109
vn -0.606309 0.714039 -0.350055
vn -0.606309 0.714039 -0.350055
vn -0.606309 0.714039 -0.350055
vn -0.606309 0.714039 -0.350055
vn -0.606311 0.714037 0.350053
vn -0.606311 0.714037 0.350053
vn -0.606311 0.714037 0.350053
vn -0.606311 0.714037 0.350053
vn 0.865511 -0.034427 -0.499706
vn 0.865511 -0.034427 -0.499706
vn 0.865511 -0.034427 -0.499706
vn 0.865511 -0.034427 -0.499706
vn 0.000000 -0.034427 -0.999407
vn 0.000000 -0.034427 -0.999407
vn 0.000000 -0.034427 -0.999407
vn 0.000000 -0.034427 -0.999407
vn -0.865511 -0.034427 -0.499706
vn -0.865511 -0.034427 -0.499706
vn -0.865511 -0.034427 -0.499706
vn -0.865511 -0.034427 -0.499706
vn -0.865512 -0.034427 0.499704
vn -0.865512 -0.034427 0.499704
vn -0.865512 -0.034427 0.499704
vn -0.865512 -0.034427 0.499704
vn 0.000000 -0.034427 0.999407
vn 0.000000 -0.034427 0.999407
vn 0.000000 -0.034427 0.999407
vn 0.000000 -0.034427 0.999407
vn 0.865512 -0.034427 0.499704
vn 0.865512 -0.034427 0.499704
vn 0.865512 -0.034427 0.499704
vn 0.865512 -0.034427 0.499704
vn 0.000000 -0.914421 -0.404764
vn 0.000000 -0.914421 -0.404764
vn 0.000000 -0.914421 -0.404764
vn 0.000000 -0.914421 -0.404764
vn -0.350539 -0.914419 -0.202385
vn -0.350539 -0.914419 -0.202385
vn -0.350539 -0.914419 -0.202385
vn -0.350539 -0.914419 -0.202385
vn -0.350539 -0.914419 0.202386
vn -0.350539 -0.914419 0.202386
vn -0.350539 -0.914419 0.202386
vn -0.350539 -0.914419 0.202386
vn 0.000000 -0.914421 0.404764
vn 0.000000 -0.914421 0.404764
vn 0.000000 -0.914421 0.404764
vn 0.000000 -0.914421 0.404764
vn 0.350539 -0.914419 0.202385
vn 0.350539 -0.914419 0.202385
vn 0.350539 -0.914419 0.202385
vn 0.350539 -0.914419 0.202385
vn 0.350539 -0.914419 -0.202386
vn 0.350539 -0.914419 -0.202386
vn 0.350539 -0.914419 -0.202386
vn 0.350539 -0.914419 -0.202386
vn 0.000000 0.060584 -0.998163
vn 0.000000 0.060584 -0.998163
vn 0.000000 0.060584 -0.998163
vn 0.000000 0.060584 -0.998163
vn -0.864432 0.060583 -0.499085
vn -0.864432 0.060583 -0.499085
vn -0.864432 0.060583 -0.499085
vn -0.864432 0.060583 -0.499085
vn -0.864433 0.060583 0.499085
vn -0.864433 0.060583 0.499085
vn -0.864433 0.060583 0.499085
vn -0.864433 0.060583 0.499085
vn 0.000000 0.060584 0.998163
vn 0.000000 0.060584 0.998163
vn 0.000000 0.060584 0.998163
vn 0.000000 0.060584 0.998163
vn 0.864433 0.060583 0.499085
vn 0.864433 0.060583 0.499085
vn 0.864433 0.060583 0.499085
vn 0.864433 0.060583 0.499085
vn 0.864433 0.060583 -0.499085
vn 0.864433 0.060583 -0.499085
vn 0.864433 0.060583 -0.499085
vn 0.864433 0.060583 -0.499085
vn 0.000000 1.000000 0.000001
vn 0.000000 1.000000 0.000001
vn 0.000000 1.000000 0.000001
vn 0.000000 1.000000 0.000000
vn 0.000000 1.000000 0.000000
vn 0.000000 1.000000 0.000000
vn 0.000000 1.000000 0.000000
vn 0.000000 1.000000 0.000000
vn 0.000000 1.000000 0.000000
vn 0.000000 1.000000 -0.000001
vn 0.000000 1.000000 -0.000001
vn 0.000000 1.000000 -0.000001
vn 0.000000 1.000000 0.000002
vn 0.000000 1.000000 0.000002
vn 0.000000 1.000000 0.000002
vn 0.000000 1.000000 -0.000002
vn 0.000000 1.000000 -0.000002
vn 0.000000 1.000000 -0.000002
s off
f 2/1/1 1/2/2 7/3/3
f 3/4/4 2/1/5 7/3/6
f 4/5/7 3/4/8 7/3/9
f 5/6/10 4/5/11 7/3/12
f 6/7/13 5/6/14 7/3/15
f 1/2/16 6/7/17 7/3/18
f 39/8/19 40/9/20 12/10/21 11/11/22
f 4/12/23 5/13/24 15/14/25 14/15/26
f 5/13/27 6/16/28 16/17/29 15/14/30
f 6/16/31 1/18/32 17/19/33 16/17/34
f 1/20/35 2/21/36 18/22/37 17/23/38
f 2/21/39 3/24/40 19/25/41 18/22/42
f 3/24/43 4/12/44 14/15/45 19/25/46
f 42/26/47 43/27/48 9/28/49 8/29/50
f 43/27/51 38/30/52 10/31/53 9/28/54
f 10/31/55 38/30/56 39/32/57 11/11/58
f 40/9/59 41/33/60 13/34/61 12/10/62
f 13/34/63 41/33/64 42/26/65 8/29/66
f 26/35/67 27/36/68 29/37/69 28/38/70
f 27/36/71 26/35/72 36/39/73 37/40/74
f 28/38/75 29/37/76 31/41/77 30/42/78
f 30/42/79 31/41/80 33/43/81 32/44/82
f 32/44/83 33/43/84 35/45/85 34/46/86
f 34/46/87 35/45/88 37/40/89 36/39/90
f 28/38/91 20/47/92 21/48/93 26/35/94
f 25/49/95 20/47/96 28/38/97 30/42/98
f 24/50/99 25/49/100 30/42/101 32/44/102
f 23/51/103 24/50/104 32/44/105 34/46/106
f 22/52/107 23/51/108 34/46/109 36/39/110
f 21/48/111 22/52/112 36/39/113 26/35/114
f 8/29/115 9/28/116 35/45/117 33/43/118
f 9/28/119 10/31/120 37/40/121 35/45/122
f 10/31/123 11/11/124 27/36/125 37/40/126
f 11/11/127 12/10/128 29/37/129 27/36/130
f 12/10/131 13/34/132 31/41/133 29/37/134
f 13/34/135 8/29/136 33/43/137 31/41/138
f 39/32/139 38/30/140 16/17/141 17/19/142
f 17/23/143 18/22/144 40/9/145 39/8/146
f 19/25/147 41/33/148 40/9/149 18/22/150
f 42/26/151 41/33/152 19/25/153 14/15/154
f 14/15/155 15/14/156 43/27/157 42/26/158
f 16/17/159 38/30/160 43/27/161 15/14/162
f 21/48/163 20/47/164 44/53/165 45/54/166
f 20/47/167 25/49/168 46/55/169 44/53/170
f 25/49/171 24/50/172 47/56/173 46/55/174
f 24/50/175 23/51/176 48/57/177 47/56/178
f 23/51/179 22/52/180 49/58/181 48/57/182
f 22/52/183 21/48/184 45/54/185 49/58/186
f 45/54/187 44/53/188 50/59/189 51/60/190
f 44/53/191 46/55/192 52/61/193 50/59/194
f 46/55/195 47/56/196 53/62/197 52/61/198
f 47/56/199 48/57/200 54/63/201 53/62/202
f 48/57/203 49/58/204 55/64/205 54/63/206
f 49/58/207 45/54/208 51/60/209 55/64/210
f 51/60/211 50/59/212 56/65/213
f 50/59/214 52/61/215 56/65/216
f 52/61/217 53/62/218 56/65/219
f 53/62/220 54/63/221 56/65/222
f 54/63/223 55/64/224 56/65/225
f 55/64/226 51/60/227 56/65/228
