# This file uses centimeters as units for non-parametric coordinates.

v 10.083374 3.576442 -4.959267
v 13.272232 1.176183 0.784119
v 13.749649 1.202982 -2.204597
v 10.259567 0.000000 -4.243248
v 8.634781 5.541696 -1.442707
v 11.910721 0.000000 -0.049953
v 9.306656 0.000000 -1.355103
v 8.572144 4.969660 1.033619
v 6.068405 0.000000 -6.174522
v 5.207474 5.134801 -5.453976
v 7.648422 0.000000 1.171112
v 4.114517 0.000000 -2.900684
v 4.278229 5.187524 -3.662731
v 7.270126 4.779609 0.029690
v 6.516647 0.000000 0.007332
v -0.736191 9.833091 -4.444389
v 4.257294 5.790688 -10.913925
v 0.399017 2.344828 -10.618599
v -0.946259 0.612294 -3.656071
v 4.810684 12.098551 -4.563778
v 6.552353 -0.000000 -7.373032
v 3.304153 0.000000 -9.030876
v 5.205933 11.922674 7.531456
v 6.065887 9.973073 8.972252
v 5.155533 0.000000 6.403389
v 11.116730 4.953586 8.520508
v 10.800369 0.000000 2.518131
v 11.970383 7.080709 3.824471
v 9.228806 12.325636 1.203186
v 10.257385 0.000000 7.158119
v -10.263252 15.023966 2.202011
v -8.958870 0.000000 -0.064491
v -4.609070 18.174685 1.604069
v -0.472076 0.000000 5.285492
v -10.970695 10.268637 6.845680
v -1.620773 18.797775 7.383095
v -9.070236 10.366357 10.575928
v -8.005379 0.000000 4.117638
v -4.686386 15.804495 11.956985
v -5.866364 0.000000 6.505577
v -2.922333 0.000000 7.391739
v -6.438110 0.282999 7.414108
v 5.020401 13.920116 -4.571148
v -1.445847 21.056702 -4.586411
v 3.204865 28.987053 -2.886768
v 9.166245 21.860764 1.436432
v 7.346451 28.420631 1.039970
v -3.977081 23.879787 -0.257248
v -0.128082 30.909920 0.758457
v 8.954529 25.530899 2.255039
v 1.348679 30.700577 3.708374
v 5.742386 21.425486 7.596497
v 1.473999 25.110165 7.713127
v -3.734055 17.155972 0.232548
v 6.816299 6.169221 -7.755413
v -3.724197 9.209504 -5.699890
v -3.648087 0.415044 -3.370358
v -10.232071 5.530454 -1.194218
v -11.358170 5.481657 0.762493
v -7.418884 5.292361 -2.450027
v -9.798309 0.000000 1.792717
v -7.065910 0.299505 -0.857063
v -5.746811 5.729553 -2.481995
v -8.625702 6.314055 0.638573
v -9.705154 5.980133 3.080460
v -2.578308 4.968496 7.389458
v -0.785965 5.136492 5.858665
v 3.302170 5.601768 6.671349
v 0.328003 0.000000 8.364281
v -0.459610 4.099007 9.648170
v -1.639725 3.988396 9.504677
v 1.978607 4.405351 8.891113
vt 0.357840 0.468078
vt 0.357840 0.468078
vt 0.357840 0.468078
vt 0.357840 0.468078
vt 0.357840 0.468078
vt 0.357840 0.468078
vt 0.357840 0.468078
vt 0.357840 0.468078
vt 0.357840 0.468078
vt 0.357840 0.468078
vt 0.357841 0.468078
vt 0.357841 0.468078
vt 0.357840 0.468078
vt 0.357840 0.468078
vt 0.357840 0.468078
vt 0.357690 0.467950
vt 0.357710 0.468000
vt 0.357578 0.468142
vt 0.357644 0.467898
vt 0.357726 0.468053
vt 0.357610 0.468033
vt 0.357597 0.468027
vt 0.357578 0.468142
vt 0.357606 0.467973
vt 0.357578 0.468141
vt 0.357578 0.468142
vt 0.357578 0.468142
vt 0.357594 0.468308
vt 0.357594 0.468308
vt 0.357585 0.468309
vt 0.357453 0.468327
vt 0.357453 0.468327
vt 0.357594 0.468308
vt 0.357562 0.468217
vt 0.357453 0.468327
vt 0.357453 0.468327
vt 0.357514 0.468265
vt 0.358023 0.468288
vt 0.357924 0.468200
vt 0.358009 0.468286
vt 0.357919 0.468196
vt 0.357935 0.468367
vt 0.357940 0.468309
vt 0.358010 0.468300
vt 0.357940 0.468335
vt 0.357940 0.468335
vt 0.357881 0.468308
vt 0.357877 0.468304
vt 0.357947 0.468328
vt 0.357825 0.468244
vt 0.357825 0.468112
vt 0.357758 0.468274
vt 0.357784 0.467583
vt 0.357671 0.468078
vt 0.357826 0.467835
vt 0.357853 0.467700
vt 0.357602 0.468161
vt 0.357822 0.467594
vt 0.357472 0.467794
vt 0.357723 0.468249
vt 0.357783 0.468103
vt 0.357730 0.468106
vt 0.357850 0.468162
vt 0.357701 0.467829
vt 0.357747 0.468269
vt 0.357757 0.468257
vt 0.357561 0.468183
vt 0.357574 0.468176
vt 0.357584 0.468171
vt 0.357757 0.468240
vt 0.357870 0.468074
vt 0.357827 0.468230
vt 0.357659 0.468258
vt 0.357472 0.467794
vt 0.357602 0.468249
vt 0.357602 0.468249
vt 0.357858 0.467842
vt 0.357915 0.468224
vt 0.357825 0.468239
vt 0.357862 0.468265
vt 0.357964 0.468306
vt 0.358010 0.468300
vt 0.357920 0.468269
vt 0.357992 0.468302
vt 0.357826 0.468237
vt 0.357884 0.468277
vt 0.357919 0.468256
vt 0.357972 0.468305
vt 0.358010 0.468300
vt 0.357880 0.468276
vt 0.357757 0.468252
vt 0.357934 0.468297
vt 0.357757 0.468265
vt 0.357940 0.468335
vt 0.357934 0.468297
vt 0.357880 0.468276
vt 0.357757 0.468257
vt 0.357757 0.468265
vt 0.357757 0.468252
vn 0.652439 0.749677 0.110942
vn 0.652439 0.749677 0.110942
vn 0.652439 0.749677 0.110942
vn 0.618185 -0.780659 0.091748
vn 0.618185 -0.780659 0.091748
vn 0.618185 -0.780659 0.091748
vn 0.403389 -0.901137 -0.158839
vn 0.403389 -0.901137 -0.158839
vn 0.403389 -0.901137 -0.158839
vn 0.000000 -1.000000 0.000000
vn 0.000000 -1.000000 0.000000
vn 0.000000 -1.000000 0.000000
vn 0.622526 0.763818 -0.170423
vn 0.622526 0.763818 -0.170423
vn 0.622526 0.763818 -0.170423
vn 0.622614 0.758850 0.191044
vn 0.622614 0.758850 0.191044
vn 0.622614 0.758850 0.191044
vn 0.000000 -1.000000 0.000000
vn 0.000000 -1.000000 0.000000
vn 0.000000 -1.000000 0.000000
vn 0.535028 -0.140429 -0.833081
vn 0.535028 -0.140429 -0.833081
vn 0.535028 -0.140429 -0.833081
vn 0.194689 -0.707288 0.679588
vn 0.194689 -0.707288 0.679588
vn 0.194689 -0.707288 0.679588
vn 0.413168 -0.159159 -0.896639
vn 0.413168 -0.159159 -0.896639
vn 0.413168 -0.159159 -0.896639
vn 0.000000 -1.000000 0.000000
vn 0.000000 -1.000000 0.000000
vn 0.000000 -1.000000 0.000000
vn 0.065428 0.015443 0.997738
vn 0.065428 0.015443 0.997738
vn 0.065428 0.015443 0.997738
vn 0.150758 0.162122 -0.975187
vn 0.150758 0.162122 -0.975187
vn 0.150758 0.162122 -0.975187
vn 0.316969 0.877523 -0.359839
vn 0.316969 0.877523 -0.359839
vn 0.316969 0.877523 -0.359839
vn 0.000000 -1.000000 0.000000
vn 0.000000 -1.000000 0.000000
vn 0.000000 -1.000000 0.000000
vn -0.296329 0.932196 0.207844
vn -0.296329 0.932196 0.207844
vn -0.296329 0.932196 0.207844
vn 0.000000 -1.000000 0.000000
vn 0.000000 -1.000000 0.000000
vn 0.000000 -1.000000 0.000000
vn -0.052280 0.997035 -0.056468
vn -0.052280 0.997035 -0.056468
vn -0.052280 0.997035 -0.056468
vn -0.219006 0.934478 0.280691
vn -0.219006 0.934478 0.280691
vn -0.219006 0.934478 0.280691
vn 0.000000 -1.000000 0.000000
vn 0.000000 -1.000000 0.000000
vn 0.000000 -1.000000 0.000000
vn -0.296185 0.690412 -0.660004
vn -0.296185 0.690412 -0.660004
vn -0.296185 0.690412 -0.660004
vn -0.982111 0.006286 -0.188197
vn -0.982111 0.006286 -0.188197
vn -0.982111 0.006286 -0.188197
vn -0.503113 0.503104 -0.702684
vn -0.503113 0.503104 -0.702684
vn -0.503113 0.503104 -0.702684
vn 0.630918 0.522253 -0.573755
vn 0.630918 0.522253 -0.573755
vn 0.630918 0.522253 -0.573755
vn -0.122478 -0.992339 0.016191
vn -0.122478 -0.992339 0.016191
vn -0.122478 -0.992339 0.016191
vn 0.229167 -0.334926 -0.913951
vn 0.229167 -0.334926 -0.913951
vn 0.229167 -0.334926 -0.913951
vn -0.495223 -0.815806 -0.298688
vn -0.495223 -0.815806 -0.298688
vn -0.495223 -0.815806 -0.298688
vn 0.427116 -0.342435 -0.836846
vn 0.427116 -0.342435 -0.836846
vn 0.427116 -0.342435 -0.836846
vn -0.000000 -1.000000 0.000000
vn -0.000000 -1.000000 0.000000
vn -0.000000 -1.000000 0.000000
vn -0.000000 -1.000000 0.000000
vn 0.645646 0.617155 0.449735
vn 0.645646 0.617155 0.449735
vn 0.645646 0.617155 0.449735
vn -0.881305 -0.040816 0.470782
vn -0.881305 -0.040816 0.470782
vn -0.881305 -0.040816 0.470782
vn -0.145274 -0.235842 0.960872
vn -0.145274 -0.235842 0.960872
vn -0.145274 -0.235842 0.960872
vn -0.145274 -0.235842 0.960872
vn 0.976783 -0.187641 0.103372
vn 0.976783 -0.187641 0.103372
vn 0.976783 -0.187641 0.103372
vn 0.976783 -0.187641 0.103372
vn 0.705136 0.014276 -0.708929
vn 0.705136 0.014276 -0.708929
vn 0.705136 0.014276 -0.708929
vn 0.000000 -1.000000 0.000000
vn 0.000000 -1.000000 0.000000
vn 0.000000 -1.000000 0.000000
vn 0.462406 -0.056986 -0.884835
vn 0.462406 -0.056986 -0.884835
vn 0.462406 -0.056986 -0.884835
vn 0.462406 -0.056986 -0.884835
vn 0.000000 -1.000000 0.000000
vn 0.000000 -1.000000 0.000000
vn 0.000000 -1.000000 0.000000
vn -0.905470 -0.096032 -0.413404
vn -0.905470 -0.096032 -0.413404
vn -0.905470 -0.096032 -0.413404
vn -0.766706 0.508416 0.392014
vn -0.766706 0.508416 0.392014
vn -0.766706 0.508416 0.392014
vn -0.766706 0.508416 0.392014
vn -0.976279 -0.164648 -0.140609
vn -0.976279 -0.164648 -0.140609
vn -0.976279 -0.164648 -0.140609
vn -0.976279 -0.164648 -0.140609
vn 0.000000 -1.000000 0.000000
vn 0.000000 -1.000000 0.000000
vn 0.000000 -1.000000 0.000000
vn 0.651216 -0.044741 0.757573
vn 0.651216 -0.044741 0.757573
vn 0.651216 -0.044741 0.757573
vn 0.000000 -1.000000 0.000000
vn 0.000000 -1.000000 0.000000
vn 0.000000 -1.000000 0.000000
vn 0.000000 -1.000000 0.000000
vn 0.000000 -1.000000 0.000000
vn 0.000000 -1.000000 0.000000
vn 0.000000 -1.000000 0.000000
vn -0.196974 -0.964401 0.176441
vn -0.196974 -0.964401 0.176441
vn -0.196974 -0.964401 0.176441
vn -0.831319 -0.352902 0.429381
vn -0.831319 -0.352902 0.429381
vn -0.831319 -0.352902 0.429381
vn -0.831319 -0.352902 0.429381
vn 0.846509 -0.058368 0.529166
vn 0.846509 -0.058368 0.529166
vn 0.846509 -0.058368 0.529166
vn 0.846509 -0.058368 0.529166
vn -0.076035 -0.964577 0.252605
vn -0.076035 -0.964577 0.252605
vn -0.076035 -0.964577 0.252605
vn 0.019674 -0.282889 0.958951
vn 0.019674 -0.282889 0.958951
vn 0.019674 -0.282889 0.958951
vn 0.019674 -0.282889 0.958951
vn -0.135845 -0.984355 0.112212
vn -0.135845 -0.984355 0.112212
vn -0.135845 -0.984355 0.112212
vn 0.142368 0.126896 -0.981646
vn 0.142368 0.126896 -0.981646
vn 0.142368 0.126896 -0.981646
vn -0.582370 0.481849 -0.654726
vn -0.582370 0.481849 -0.654726
vn -0.582370 0.481849 -0.654726
vn 0.708690 0.155004 -0.688282
vn 0.708690 0.155004 -0.688282
vn 0.708690 0.155004 -0.688282
vn 0.708690 0.155004 -0.688282
vn -0.555775 0.408865 -0.723840
vn -0.555775 0.408865 -0.723840
vn -0.555775 0.408865 -0.723840
vn 0.317425 0.935731 -0.153780
vn 0.317425 0.935731 -0.153780
vn 0.317425 0.935731 -0.153780
vn 0.317425 0.935731 -0.153780
vn 0.831587 -0.074579 -0.550364
vn 0.831587 -0.074579 -0.550364
vn 0.831587 -0.074579 -0.550364
vn 0.831587 -0.074579 -0.550364
vn 0.831587 -0.074579 -0.550364
vn -0.878599 -0.061546 -0.473577
vn -0.878599 -0.061546 -0.473577
vn -0.878599 -0.061546 -0.473577
vn 0.000000 -1.000000 0.000000
vn 0.000000 -1.000000 0.000000
vn 0.000000 -1.000000 0.000000
vn 0.000000 -1.000000 0.000000
vn 0.506069 0.002768 -0.862488
vn 0.506069 0.002768 -0.862488
vn 0.506069 0.002768 -0.862488
vn 0.506069 0.002768 -0.862488
vn -0.873365 0.235793 0.426187
vn -0.873365 0.235793 0.426187
vn -0.873365 0.235793 0.426187
vn -0.001341 -0.986131 -0.165966
vn -0.001341 -0.986131 -0.165966
vn -0.001341 -0.986131 -0.165966
vn -0.001341 -0.986131 -0.165966
vn -0.001341 -0.986131 -0.165966
vn 0.844109 -0.007576 0.536118
vn 0.844109 -0.007576 0.536118
vn 0.844109 -0.007576 0.536118
vn -0.797371 0.350577 0.491218
vn -0.797371 0.350577 0.491218
vn -0.797371 0.350577 0.491218
vn -0.797371 0.350577 0.491218
vn -0.814766 0.383226 0.435079
vn -0.814766 0.383226 0.435079
vn -0.814766 0.383226 0.435079
vn 0.493148 0.532044 0.688284
vn 0.493148 0.532044 0.688284
vn 0.493148 0.532044 0.688284
vn 0.493148 0.532044 0.688284
vn 0.000000 -1.000000 0.000000
vn 0.000000 -1.000000 0.000000
vn 0.000000 -1.000000 0.000000
vn 0.469360 0.521153 0.712812
vn 0.469360 0.521153 0.712812
vn 0.469360 0.521153 0.712812
vn -0.180418 -0.119962 0.976247
vn -0.180418 -0.119962 0.976247
vn -0.180418 -0.119962 0.976247
vn -0.004806 -0.053774 0.998542
vn -0.004806 -0.053774 0.998542
vn -0.004806 -0.053774 0.998542
vn -0.004806 -0.053774 0.998542
vn -0.133635 -0.051452 0.989694
vn -0.133635 -0.051452 0.989694
vn -0.133635 -0.051452 0.989694
vn -0.133635 -0.051452 0.989694
vn -0.863135 -0.067650 -0.500421
vn -0.863135 -0.067650 -0.500421
vn -0.863135 -0.067650 -0.500421
vn -0.883641 -0.065702 -0.463531
vn -0.883641 -0.065702 -0.463531
vn -0.883641 -0.065702 -0.463531
vn -0.733335 -0.180007 -0.655604
vn -0.733335 -0.180007 -0.655604
vn -0.733335 -0.180007 -0.655604
vn -0.401015 0.554495 -0.729193
vn -0.401015 0.554495 -0.729193
vn -0.401015 0.554495 -0.729193
vn -0.401015 0.554495 -0.729193
vn 0.874403 -0.053902 0.482198
vn 0.874403 -0.053902 0.482198
vn 0.874403 -0.053902 0.482198
vn 0.874403 -0.053902 0.482198
vn -0.013520 -0.011968 -0.999837
vn -0.013520 -0.011968 -0.999837
vn -0.013520 -0.011968 -0.999837
vn -0.013520 -0.011968 -0.999837
vn 0.854022 0.029563 0.519397
vn 0.854022 0.029563 0.519397
vn 0.854022 0.029563 0.519397
vn 0.854022 0.029563 0.519397
vn 0.207170 0.585415 -0.783817
vn 0.207170 0.585415 -0.783817
vn 0.207170 0.585415 -0.783817
vn 0.401294 -0.087096 -0.911799
vn 0.401294 -0.087096 -0.911799
vn 0.401294 -0.087096 -0.911799
vn -0.083172 -0.255840 -0.963135
vn -0.083172 -0.255840 -0.963135
vn -0.083172 -0.255840 -0.963135
vn -0.379249 -0.286262 -0.879900
vn -0.379249 -0.286262 -0.879900
vn -0.379249 -0.286262 -0.879900
vn -0.379249 -0.286262 -0.879900
vn -0.791448 -0.116864 0.599961
vn -0.791448 -0.116864 0.599961
vn -0.791448 -0.116864 0.599961
vn -0.791448 -0.116864 0.599961
vn -0.776002 -0.060696 -0.627803
vn -0.776002 -0.060696 -0.627803
vn -0.776002 -0.060696 -0.627803
vn -0.776002 -0.060696 -0.627803
vn -0.845329 -0.303689 -0.439537
vn -0.845329 -0.303689 -0.439537
vn -0.845329 -0.303689 -0.439537
vn -0.845329 -0.303689 -0.439537
vn -0.561114 -0.287335 -0.776267
vn -0.561114 -0.287335 -0.776267
vn -0.561114 -0.287335 -0.776267
vn -0.056267 0.142952 -0.988129
vn -0.056267 0.142952 -0.988129
vn -0.056267 0.142952 -0.988129
vn -0.144605 0.921196 -0.361229
vn -0.144605 0.921196 -0.361229
vn -0.144605 0.921196 -0.361229
vn -0.144605 0.921196 -0.361229
vn -0.293472 0.953812 -0.064163
vn -0.293472 0.953812 -0.064163
vn -0.293472 0.953812 -0.064163
vn -0.293472 0.953812 -0.064163
vn -0.218663 -0.366465 0.904372
vn -0.218663 -0.366465 0.904372
vn -0.218663 -0.366465 0.904372
vn -0.218663 -0.366465 0.904372
vn 0.349028 -0.239133 0.906088
vn 0.349028 -0.239133 0.906088
vn 0.349028 -0.239133 0.906088
vn 0.349028 -0.239133 0.906088
vn 0.000000 -1.000000 0.000000
vn 0.000000 -1.000000 0.000000
vn 0.000000 -1.000000 0.000000
vn 0.056684 0.948416 0.311921
vn 0.056684 0.948416 0.311921
vn 0.056684 0.948416 0.311921
vn 0.056684 0.948416 0.311921
vn -0.901185 0.062594 0.428891
vn -0.901185 0.062594 0.428891
vn -0.901185 0.062594 0.428891
vn 0.000000 -1.000000 0.000000
vn 0.000000 -1.000000 0.000000
vn 0.000000 -1.000000 0.000000
vn 0.776836 0.228957 0.586604
vn 0.776836 0.228957 0.586604
vn 0.776836 0.228957 0.586604
vn -0.113624 0.937270 0.329567
vn -0.113624 0.937270 0.329567
vn -0.113624 0.937270 0.329567
vn -0.113624 0.937270 0.329567
vn 0.671727 0.601385 0.432573
vn 0.671727 0.601385 0.432573
vn 0.671727 0.601385 0.432573
vn 0.671727 0.601385 0.432573
vn -0.486908 0.852209 0.191468
vn -0.486908 0.852209 0.191468
vn -0.486908 0.852209 0.191468
vn -0.486908 0.852209 0.191468
vn 0.779177 -0.071930 -0.622663
vn 0.779177 -0.071930 -0.622663
vn 0.779177 -0.071930 -0.622663
vn 0.851675 -0.018423 0.523746
vn 0.851675 -0.018423 0.523746
vn 0.851675 -0.018423 0.523746
vn 0.851675 -0.018423 0.523746
vn 0.698928 0.162093 -0.696581
vn 0.698928 0.162093 -0.696581
vn 0.698928 0.162093 -0.696581
s off
f 3/1/1 5/2/2 2/3/3
f 3/1/4 2/3/5 6/4/6
f 3/1/7 6/4/8 4/5/9
f 7/6/10 4/5/11 6/4/12
f 1/7/13 5/2/14 3/1/15
f 5/2/16 8/8/17 2/3/18
f 6/4/19 11/9/20 7/6/21
f 1/7/22 3/1/23 4/5/24
f 6/4/25 2/3/26 11/9/27
f 9/10/28 1/7/29 4/5/30
f 7/6/31 15/15/32 12/11/33
f 2/3/34 8/8/35 11/9/36
f 10/12/37 1/7/38 9/10/39
f 10/12/40 5/2/41 1/7/42
f 7/6/43 9/10/44 4/5/45
f 5/2/46 14/14/47 8/8/48
f 12/11/49 9/10/50 7/6/51
f 10/12/52 13/13/53 5/2/54
f 5/2/55 13/13/56 14/14/57
f 11/9/58 15/15/59 7/6/60
f 16/17/61 20/19/62 17/16/63
f 19/18/64 16/17/65 18/20/66
f 16/17/67 17/16/68 18/20/69
f 55/24/70 17/16/71 20/19/72
f 19/18/73 22/25/74 12/26/75
f 17/16/76 22/25/77 18/20/78
f 18/20/79 22/25/80 19/18/81
f 21/23/82 22/25/83 17/16/84
f 22/25/85 21/23/86 9/27/87 12/26/88
f 29/34/89 23/28/90 24/29/91
f 23/28/92 25/30/93 24/29/94
f 30/33/95 26/31/96 24/29/97 25/30/98
f 28/32/99 26/31/100 30/33/101 27/35/102
f 27/35/103 29/34/104 28/32/105
f 25/30/106 11/36/107 30/33/108
f 27/35/109 11/36/110 8/37/111 29/34/112
f 11/36/113 27/35/114 30/33/115
f 31/40/116 64/88/117 65/89/118
f 39/48/119 31/40/120 35/38/121 37/42/122
f 35/38/123 31/40/124 65/89/125 38/44/126
f 34/45/127 40/46/128 32/43/129
f 66/90/130 67/92/131 36/41/132
f 40/46/133 38/44/134 61/84/135 32/43/136
f 34/45/137 41/47/138 40/46/139
f 38/44/140 40/46/141 42/49/142
f 35/38/143 38/44/144 42/49/145 37/42/146
f 39/48/147 41/47/148 66/90/149 36/41/150
f 40/46/151 41/47/152 42/49/153
f 37/42/154 42/49/155 41/47/156 39/48/157
f 19/50/158 12/51/159 15/52/160
f 45/53/161 43/54/162 44/55/163
f 48/56/164 45/53/165 44/55/166
f 46/57/167 45/53/168 47/59/169 50/74/170
f 45/53/171 48/56/172 49/58/173
f 47/59/174 45/53/175 49/58/176 51/64/177
f 14/60/178 13/61/179 20/62/180 43/54/181 46/57/182
f 44/55/183 16/63/184 48/56/185
f 25/65/186 34/66/187 15/52/188 11/67/189
f 8/68/190 14/60/191 46/57/192 29/69/193
f 36/70/194 48/56/195 33/71/196
f 15/52/197 32/72/198 62/85/199 57/79/200 19/50/201
f 46/57/202 23/73/203 29/69/204
f 51/64/205 48/56/206 36/70/207 53/76/208
f 51/64/209 49/58/210 48/56/211
f 52/75/212 50/74/213 47/59/214 51/64/215
f 15/52/216 34/66/217 32/72/218
f 52/75/219 51/64/220 53/76/221
f 67/91/222 68/93/223 36/70/224
f 25/65/225 53/76/226 36/70/227 68/93/228
f 25/65/229 23/73/230 52/75/231 53/76/232
f 54/77/233 33/71/234 48/56/235
f 48/56/236 16/63/237 54/77/238
f 57/80/239 63/87/240 56/78/241
f 33/71/242 54/77/243 56/78/244 31/40/245
f 46/57/246 50/74/247 52/75/248 23/73/249
f 20/62/250 16/63/251 44/55/252 43/54/253
f 10/22/254 9/27/255 21/23/256 55/24/257
f 56/78/258 54/77/259 16/63/260
f 19/50/261 56/78/262 16/63/263
f 57/80/264 56/78/265 19/50/266
f 32/43/267 58/81/268 60/83/269 62/86/270
f 59/82/271 61/84/272 38/44/273 65/89/274
f 56/78/275 63/87/276 64/88/277 31/40/278
f 59/82/279 58/81/280 32/43/281 61/84/282
f 62/86/283 60/83/284 57/80/285
f 57/80/286 60/83/287 63/87/288
f 64/88/289 63/87/290 60/83/291 58/81/292
f 65/89/293 64/88/294 58/81/295 59/82/296
f 41/47/297 69/94/298 70/95/299 71/96/300
f 69/97/301 25/65/302 72/98/303 70/99/304
f 41/47/305 34/45/306 69/94/307
f 67/92/308 66/90/309 71/96/310 70/95/311
f 66/90/312 41/47/313 71/96/314
f 34/66/315 25/65/316 69/97/317
f 25/65/318 68/93/319 72/98/320
f 68/93/321 67/91/322 70/99/323 72/98/324
f 29/34/325 24/29/326 26/31/327 28/32/328
f 33/39/329 31/40/330 39/48/331 36/41/332
f 21/23/333 17/16/334 55/24/335
f 55/24/336 20/19/337 13/21/338 10/22/339
f 46/57/340 43/54/341 45/53/342
