# This file uses centimeters as units for non-parametric coordinates.

v 15.688965 24.500317 15.532593
v 16.529297 26.078182 15.532593
v 16.529297 26.078180 -15.597900
v 15.688965 24.500317 -15.597900
v -1.229248 33.510040 23.884949
v -0.389160 35.087906 23.884949
v -0.409668 35.098915 -23.228943
v -1.250000 33.521049 -23.228943
v 0.254639 32.719704 22.912292
v 1.094971 34.297565 22.912292
v 0.947021 34.376320 -22.289124
v 0.106934 32.798458 -22.289124
v 14.560791 25.101215 14.716797
v 15.400879 26.679077 14.716797
v 15.400879 26.679077 -14.935242
v 14.560791 25.101215 -14.935242
v 8.260742 28.456188 25.252869
v 9.099365 30.034906 25.252991
v 9.584961 29.776348 -25.263123
v 8.746338 28.197630 -25.262939
v 7.786133 28.708899 23.760803
v 8.625244 30.287395 23.760925
v 8.984863 30.095875 -23.778015
v 8.145752 28.517380 -23.777893
v 1.738037 31.929745 24.200439
v 2.559082 33.517906 24.202942
v 3.207520 33.172531 -24.210693
v 2.386475 31.584431 -24.208191
v 1.386963 32.116745 25.676941
v 2.201172 33.708466 25.679626
v 2.743408 33.419716 -25.679626
v 1.928955 31.828068 -25.676941
v -1.233398 33.512249 19.909973
v -0.047607 32.880688 19.982422
v -0.393311 35.090115 19.909973
v 0.792725 34.458549 19.982422
v -0.380127 35.083122 -19.990295
v 0.804688 34.452213 -20.085144
v -1.220459 33.505257 -19.990295
v -0.035645 32.874352 -20.085144
v 0.031982 32.838326 17.961975
v 0.872314 34.416187 17.961975
v 1.798096 33.923168 18.804810
v 0.957764 32.345306 18.804810
v 0.957031 34.371040 -17.874390
v 0.116699 32.793179 -17.874390
v 1.057861 32.291962 -18.695129
v 1.898193 33.869823 -18.695129
v 16.358398 24.143913 -0.109192
v 17.486572 23.543015 -0.032654
v 18.326904 25.120880 -0.032654
v 17.198486 25.721775 -0.109192
vt 0.093219 0.230003
vt 0.093306 0.229609
vt 0.093220 0.230241
vt 0.093312 0.229875
vt 0.092476 0.230196
vt 0.092395 0.229823
vt 0.092516 0.229962
vt 0.092450 0.229564
vt 0.093183 0.229978
vt 0.093181 0.230189
vt 0.092518 0.230149
vt 0.092552 0.229941
vt 0.093255 0.229621
vt 0.093257 0.229855
vt 0.092452 0.229810
vt 0.092497 0.229581
vt 0.093243 0.229894
vt 0.093245 0.230140
vt 0.092458 0.230110
vt 0.092501 0.229870
vt 0.093196 0.229911
vt 0.093195 0.230126
vt 0.092508 0.230101
vt 0.092544 0.229890
vt 0.093230 0.229741
vt 0.093232 0.229966
vt 0.092478 0.229942
vt 0.092519 0.229723
vt 0.093280 0.229726
vt 0.093285 0.229983
vt 0.092424 0.229954
vt 0.092474 0.229705
vt 0.093306 0.229609
vt 0.093255 0.229621
vt 0.093312 0.229875
vt 0.093257 0.229855
vt 0.092395 0.229823
vt 0.092452 0.229810
vt 0.092450 0.229564
vt 0.092497 0.229581
vt 0.093306 0.229609
vt 0.093312 0.229875
vt 0.093257 0.229855
vt 0.093255 0.229621
vt 0.092395 0.229823
vt 0.092450 0.229564
vt 0.092497 0.229581
vt 0.092452 0.229810
vt 0.092867 0.229959
vt 0.092868 0.229982
vt 0.092848 0.230218
vt 0.092849 0.230169
vn 0.667424 -0.355013 0.654608
vn 0.667424 -0.355013 0.654608
vn 0.667424 -0.355013 0.654608
vn 0.667424 -0.355013 0.654608
vn 0.684693 -0.364345 -0.631227
vn 0.684693 -0.364345 -0.631227
vn 0.684693 -0.364345 -0.631227
vn 0.684693 -0.364345 -0.631227
vn -0.882780 0.469787 -0.000000
vn -0.882780 0.469787 -0.000000
vn -0.874565 0.465416 -0.136104
vn -0.874565 0.465416 -0.136104
vn 0.541477 -0.283423 -0.791501
vn 0.541477 -0.283423 -0.791501
vn 0.541477 -0.283423 -0.791501
vn 0.541477 -0.283423 -0.791501
vn 0.530055 -0.277511 0.801267
vn 0.530055 -0.277511 0.801267
vn 0.530055 -0.277511 0.801267
vn 0.530055 -0.277511 0.801267
vn 0.047903 -0.025853 0.998517
vn 0.047903 -0.025853 0.998517
vn 0.047903 -0.025853 0.998517
vn 0.047903 -0.025853 0.998517
vn 0.047147 -0.025486 -0.998563
vn 0.047147 -0.025486 -0.998563
vn 0.047147 -0.025486 -0.998563
vn 0.047147 -0.025486 -0.998563
vn -0.673121 0.357948 -0.647134
vn -0.673121 0.357948 -0.647134
vn -0.673121 0.357948 -0.647134
vn -0.673121 0.357948 -0.647134
vn -0.681987 0.362896 0.634980
vn -0.681987 0.362896 0.634980
vn -0.681987 0.362896 0.634980
vn -0.681987 0.362896 0.634980
vn -0.056411 0.030415 -0.997944
vn -0.056411 0.030415 -0.997944
vn -0.056411 0.030415 -0.997944
vn -0.056411 0.030415 -0.997944
vn -0.058000 0.031236 0.997828
vn -0.058000 0.031236 0.997828
vn -0.058000 0.031236 0.997828
vn -0.058000 0.031236 0.997828
vn -0.460893 0.239769 0.854452
vn -0.460893 0.239769 0.854452
vn -0.460893 0.239769 0.854452
vn -0.460893 0.239769 0.854452
vn -0.500186 0.260461 -0.825818
vn -0.500186 0.260461 -0.825817
vn -0.500186 0.260461 -0.825817
vn -0.500186 0.260461 -0.825818
vn -0.882713 0.469911 0.001183
vn -0.882713 0.469911 0.001183
vn -0.882713 0.469911 0.001183
vn -0.882713 0.469911 0.001183
vn 0.876599 -0.467012 -0.116081
vn 0.876599 -0.467012 -0.116081
vn 0.876599 -0.467012 -0.116081
vn 0.876599 -0.467012 -0.116081
vn -0.882573 0.470062 0.010342
vn -0.882573 0.470062 0.010342
vn -0.882573 0.470062 0.010342
vn -0.882573 0.470062 0.010342
vn 0.880327 -0.468711 0.073044
vn 0.880327 -0.468711 0.073044
vn 0.880327 -0.468711 0.073044
vn 0.880327 -0.468711 0.073044
vn 0.875198 -0.466043 0.129742
vn 0.882658 -0.470016 0.000000
vn 0.882658 -0.470016 0.000000
vn 0.875198 -0.466043 0.129742
vn -0.470108 -0.882609 -0.000015
vn -0.470108 -0.882609 -0.000015
vn -0.470108 -0.882609 -0.000015
vn -0.470108 -0.882609 -0.000015
vn -0.470064 -0.882632 0.000020
vn -0.470064 -0.882632 0.000020
vn -0.470064 -0.882632 0.000020
vn -0.470064 -0.882632 0.000020
vn -0.470024 -0.882654 -0.000021
vn -0.470024 -0.882654 -0.000021
vn -0.470024 -0.882654 -0.000021
vn -0.470024 -0.882654 -0.000021
vn -0.470061 -0.882634 0.000003
vn -0.470061 -0.882634 0.000003
vn -0.470061 -0.882634 0.000003
vn -0.470061 -0.882634 0.000003
vn -0.470205 -0.882557 0.000000
vn -0.470203 -0.882558 -0.000000
vn -0.470183 -0.882569 -0.000009
vn -0.470183 -0.882569 -0.000009
vn -0.470093 -0.882617 -0.000013
vn -0.470093 -0.882617 -0.000013
vn -0.470093 -0.882617 -0.000013
vn -0.470094 -0.882617 -0.000013
vn -0.470064 -0.882632 0.000023
vn -0.470064 -0.882632 0.000023
vn -0.470064 -0.882633 0.000023
vn -0.470064 -0.882632 0.000023
vn -0.470128 -0.882598 0.000030
vn -0.470128 -0.882598 0.000030
vn -0.470128 -0.882598 0.000030
vn -0.470128 -0.882598 0.000030
vn -0.470205 -0.882557 -0.000001
vn -0.470205 -0.882557 -0.000001
vn -0.470205 -0.882557 -0.000001
vn -0.470205 -0.882557 -0.000001
vn 0.552865 -0.294442 -0.779516
vn 0.552865 -0.294442 -0.779516
vn 0.552865 -0.294442 -0.779516
vn 0.552865 -0.294442 -0.779516
vn 0.470005 0.882664 0.000005
vn 0.470005 0.882664 0.000005
vn 0.470004 0.882664 0.000005
vn 0.470005 0.882664 0.000005
vn 0.470043 0.882643 0.000008
vn 0.470043 0.882643 0.000008
vn 0.470043 0.882643 0.000008
vn 0.470043 0.882644 0.000008
vn 0.470049 0.882640 0.000014
vn 0.470049 0.882640 0.000014
vn 0.470049 0.882640 0.000014
vn 0.470049 0.882640 0.000014
vn 0.469978 0.882678 -0.000007
vn 0.469978 0.882678 -0.000007
vn 0.469978 0.882678 -0.000007
vn 0.469978 0.882678 -0.000007
vn 0.470080 0.882624 -0.000003
vn 0.470036 0.882647 -0.000000
vn 0.470032 0.882649 -0.000000
vn 0.470080 0.882624 -0.000003
vn 0.469986 0.882674 0.000017
vn 0.469986 0.882674 0.000017
vn 0.469986 0.882674 0.000017
vn 0.469986 0.882674 0.000017
vn 0.470001 0.882666 0.000023
vn 0.470001 0.882666 0.000023
vn 0.470001 0.882666 0.000023
vn 0.470001 0.882666 0.000023
vn 0.470095 0.882616 0.000027
vn 0.470095 0.882616 0.000027
vn 0.470095 0.882616 0.000027
vn 0.470095 0.882616 0.000027
vn 0.470134 0.882595 -0.000006
vn 0.470134 0.882595 -0.000006
vn 0.470134 0.882595 -0.000006
vn 0.470134 0.882595 -0.000006
vn 0.538359 -0.286719 0.792441
vn 0.538359 -0.286719 0.792441
vn 0.538359 -0.286719 0.792441
vn 0.538359 -0.286719 0.792441
vn -0.710839 0.378632 -0.592744
vn -0.710839 0.378632 -0.592744
vn -0.710839 0.378632 -0.592744
vn -0.710839 0.378632 -0.592744
vn 0.470007 0.882663 0.000009
vn 0.470007 0.882663 0.000009
vn 0.470007 0.882663 0.000009
vn 0.470007 0.882663 0.000009
vn 0.634404 -0.337927 0.695224
vn 0.634404 -0.337927 0.695224
vn 0.634404 -0.337927 0.695224
vn 0.634404 -0.337927 0.695224
vn -0.470039 -0.882646 -0.000008
vn -0.470039 -0.882646 -0.000008
vn -0.470039 -0.882646 -0.000008
vn -0.470039 -0.882646 -0.000008
vn -0.717643 0.382246 0.582131
vn -0.717643 0.382246 0.582131
vn -0.717643 0.382246 0.582131
vn -0.717643 0.382246 0.582131
vn -0.470062 -0.882633 -0.000017
vn -0.470062 -0.882633 -0.000017
vn -0.470062 -0.882633 -0.000017
vn -0.470062 -0.882633 -0.000017
vn 0.658867 -0.351014 -0.665345
vn 0.658867 -0.351014 -0.665345
vn 0.658867 -0.351014 -0.665345
vn 0.658867 -0.351014 -0.665345
vn 0.469997 0.882668 0.000021
vn 0.469997 0.882668 0.000021
vn 0.469997 0.882668 0.000021
vn 0.469997 0.882668 0.000021
vn -0.470226 -0.882546 0.000009
vn -0.470203 -0.882558 -0.000000
vn -0.470205 -0.882557 0.000000
vn -0.470226 -0.882546 0.000009
vn 0.882658 -0.470016 0.000000
vn 0.882658 -0.470016 0.000000
vn 0.875197 -0.466043 -0.129742
vn 0.875197 -0.466044 -0.129742
vn 0.470032 0.882649 -0.000000
vn 0.470036 0.882647 -0.000000
vn 0.469987 0.882673 0.000003
vn 0.469987 0.882673 0.000003
vn -0.874565 0.465415 0.136104
vn -0.882780 0.469787 -0.000000
vn -0.882780 0.469787 -0.000000
vn -0.874565 0.465415 0.136104
s off
f 1/1/1 2/3/2 18/18/3 17/17/4
f 3/5/5 4/7/6 20/20/7 19/19/8
f 52/52/9 49/49/10 13/9/11 14/10/12
f 9/13/13 10/14/14 26/26/15 25/25/16
f 11/15/17 12/16/18 28/28/19 27/27/20
f 17/17/21 18/18/22 30/30/23 29/29/24
f 19/19/25 20/20/26 32/32/27 31/31/28
f 21/21/29 22/22/30 14/10/31 13/9/32
f 23/23/33 24/24/34 16/12/35 15/11/36
f 25/25/37 26/26/38 22/22/39 21/21/40
f 27/27/41 28/28/42 24/24/43 23/23/44
f 29/29/45 30/30/46 6/4/47 5/2/48
f 31/31/49 32/32/50 8/8/51 7/6/52
f 5/2/53 6/4/54 35/35/55 33/33/56
f 10/14/57 9/13/58 34/34/59 36/36/60
f 7/6/61 8/8/62 39/39/63 37/37/64
f 12/16/65 11/15/66 38/38/67 40/40/68
f 1/1/69 50/50/70 51/51/71 2/3/72
f 39/39/73 8/8/74 12/16/75 40/40/76
f 8/8/77 32/32/78 28/28/79 12/16/80
f 32/32/81 20/20/82 24/24/83 28/28/84
f 20/20/85 4/7/86 16/12/87 24/24/88
f 49/49/89 50/50/90 1/1/91 13/9/92
f 1/1/93 17/17/94 21/21/95 13/9/96
f 17/17/97 29/29/98 25/25/99 21/21/100
f 29/29/101 5/2/102 9/13/103 25/25/104
f 5/2/105 33/33/106 34/34/107 9/13/108
f 41/41/109 42/42/110 43/43/111 44/44/112
f 35/35/113 6/4/114 10/14/115 36/36/116
f 6/4/117 30/30/118 26/26/119 10/14/120
f 30/30/121 18/18/122 22/22/123 26/26/124
f 18/18/125 2/3/126 14/10/127 22/22/128
f 2/3/129 51/51/130 52/52/131 14/10/132
f 3/5/133 19/19/134 23/23/135 15/11/136
f 19/19/137 31/31/138 27/27/139 23/23/140
f 31/31/141 7/6/142 11/15/143 27/27/144
f 7/6/145 37/37/146 38/38/147 11/15/148
f 45/45/149 46/46/150 47/47/151 48/48/152
f 33/33/153 35/35/154 42/42/155 41/41/156
f 35/35/157 36/36/158 43/43/159 42/42/160
f 36/36/161 34/34/162 44/44/163 43/43/164
f 34/34/165 33/33/166 41/41/167 44/44/168
f 37/37/169 39/39/170 46/46/171 45/45/172
f 39/39/173 40/40/174 47/47/175 46/46/176
f 40/40/177 38/38/178 48/48/179 47/47/180
f 38/38/181 37/37/182 45/45/183 48/48/184
f 4/7/185 50/50/186 49/49/187 16/12/188
f 51/51/189 50/50/190 4/7/191 3/5/192
f 52/52/193 51/51/194 3/5/195 15/11/196
f 16/12/197 49/49/198 52/52/199 15/11/200
