# This file uses centimeters as units for non-parametric coordinates.

v -4.344273 25.500631 2.152920
v -1.414782 -5.318385 1.571898
v 4.344273 25.500727 2.152920
v 1.414782 -5.318421 1.571898
v 4.344273 6.561995 2.152920
v -4.344273 6.561995 2.152920
v -1.926076 5.789829 1.571898
v 1.925998 5.789829 1.571898
v -3.141594 24.287867 2.152920
v -3.141642 7.774997 2.152920
v 3.141642 7.775044 2.152920
v 3.141594 24.287722 2.152920
v -3.403429 25.021936 5.998435
v -3.403386 7.041731 5.998435
v 3.438217 7.041731 5.998435
v 3.779082 25.031200 5.998435
v 4.344273 10.959195 1.941443
v 3.141618 11.608887 2.152920
v 2.822523 13.054563 6.098317
v -4.275445 11.008881 7.248165
v -3.141618 11.608887 2.152920
v -4.344273 10.959101 2.152920
v 4.344273 19.294214 2.152920
v 3.141642 18.876169 2.152920
v 2.951384 17.797491 6.070469
v -4.436874 20.708950 6.070470
v -3.141642 18.876360 2.152920
v -4.344273 19.294119 2.152920
v 2.339900 -5.962479 2.152920
v -2.339900 -5.962456 2.152920
v 1.383279 -9.303623 1.958317
v -1.383279 -9.303696 1.958317
v -3.382094 7.264797 -1.642247
v -4.344273 6.561995 -0.680068
v -1.926076 5.789829 -0.404341
v -0.995695 5.828701 -1.068082
v 4.344273 6.561995 -0.680068
v 3.382094 7.264804 -1.642247
v 0.995612 5.828704 -1.068082
v 1.925998 5.789829 -0.404341
v 1.383279 -10.500086 0.542086
v 1.517992 -9.751472 -1.642247
v -1.517992 -9.751520 -1.642247
v -1.383279 -10.500157 0.542086
v -4.344273 25.500629 -0.272638
v -1.888251 23.952360 -1.642247
v 1.888251 23.840794 -1.642247
v 4.344273 25.500729 -0.680068
v -2.767647 10.959111 -1.642247
v -4.344273 10.959100 0.042979
v 4.344273 10.959196 -0.680068
v 2.767647 10.959186 -1.642247
v -1.414782 -5.318385 -0.404341
v -0.424504 -5.232657 -1.068082
v 0.424508 -5.232696 -1.068082
v 1.414782 -5.318421 -0.404341
v 4.344273 19.294216 -0.010975
v 2.233683 17.264380 -1.642247
v -2.233683 19.805841 -1.642247
v -4.344273 19.294121 -0.680068
v 1.517992 -6.564500 -1.642247
v 2.339900 -5.962479 -0.680068
v -2.339900 -5.962456 -0.680068
v -1.517992 -6.564472 -1.642247
v 0.493710 11.077951 5.921434
v -3.294044 7.980515 6.325148
v -0.003698 6.556276 5.921434
v 3.758749 9.870616 5.517720
v -2.993413 10.603653 4.440891
v -3.308463 7.346365 4.037176
v 3.301066 7.346388 4.037177
v 3.458118 12.493753 3.633463
v -3.308463 24.716646 4.037177
v 0.175907 25.511549 5.921434
v 3.480672 24.721457 4.037177
v 2.909480 18.236042 3.619539
v 3.367164 15.452632 5.100082
v -0.742745 20.026529 5.771220
v -3.612697 15.694008 5.907510
v -3.627116 20.367613 3.619539
v 3.389729 21.618366 5.503796
v -3.927758 23.744967 5.503796
vt 0.458261 0.035880
vt 0.458261 0.035880
vt 0.458261 0.035880
vt 0.458261 0.035880
vt 0.091871 0.254015
vt 0.091871 0.254015
vt 0.091871 0.254015
vt 0.091871 0.254015
vt 0.091871 0.254015
vt 0.091871 0.254015
vt 0.091871 0.254015
vt 0.091871 0.254015
vt 0.458261 0.035880
vt 0.091871 0.254015
vt 0.091871 0.254015
vt 0.091871 0.254015
vt 0.091871 0.254015
vt 0.458261 0.035880
vt 0.458261 0.035880
vt 0.091871 0.254015
vt 0.091871 0.254015
vt 0.091871 0.254015
vt 0.091871 0.254015
vt 0.458261 0.035880
vt 0.458261 0.035880
vt 0.458261 0.035880
vt 0.458261 0.035880
vt 0.458261 0.035880
vt 0.458261 0.035880
vt 0.458261 0.035880
vt 0.458261 0.035880
vt 0.458261 0.035880
vt 0.458261 0.035880
vt 0.458261 0.035880
vt 0.458261 0.035880
vt 0.458261 0.035880
vt 0.458261 0.035880
vt 0.458261 0.035880
vt 0.458261 0.035880
vt 0.458261 0.035880
vt 0.458261 0.035880
vt 0.458261 0.035880
vt 0.458261 0.035880
vt 0.458261 0.035880
vt 0.458261 0.035880
vt 0.458261 0.035880
vt 0.458261 0.035880
vt 0.458261 0.035880
vt 0.458261 0.035880
vt 0.458261 0.035880
vt 0.458261 0.035880
vt 0.458261 0.035880
vt 0.458261 0.035880
vt 0.458261 0.035880
vt 0.458261 0.035880
vt 0.458261 0.035880
vt 0.458261 0.035880
vt 0.458261 0.035880
vt 0.458261 0.035880
vt 0.458261 0.035880
vt 0.458261 0.035880
vt 0.458261 0.035880
vt 0.458261 0.035880
vt 0.458261 0.035880
vt 0.458261 0.035880
vt 0.458261 0.035880
vt 0.458261 0.035880
vt 0.458261 0.035880
vt 0.458261 0.035880
vt 0.458261 0.035880
vt 0.458261 0.035880
vt 0.458261 0.035880
vt 0.091871 0.254015
vt 0.091871 0.254015
vt 0.091871 0.254015
vt 0.091871 0.254015
vt 0.091871 0.254015
vt 0.091871 0.254015
vt 0.091871 0.254015
vt 0.091871 0.254015
vt 0.091871 0.254015
vt 0.091871 0.254015
vt 0.091871 0.254015
vt 0.091871 0.254015
vt 0.091871 0.254015
vt 0.091871 0.254015
vt 0.091871 0.254015
vt 0.091871 0.254015
vt 0.091871 0.254015
vt 0.091871 0.254015
vn 0.000000 -0.601256 0.799056
vn 0.000000 -0.601256 0.799056
vn 0.000000 -0.601256 0.799056
vn 0.000000 -0.601256 0.799056
vn -0.025141 -0.325964 0.945048
vn -0.025141 -0.325964 0.945048
vn -0.025141 -0.325964 0.945048
vn 0.000000 -0.000000 1.000000
vn 0.000000 -0.000000 1.000000
vn 0.000000 -0.000000 1.000000
vn 0.000000 -0.000000 1.000000
vn -0.000000 0.000000 1.000000
vn -0.000000 0.000000 1.000000
vn -0.000000 0.000000 1.000000
vn -0.000000 0.000000 1.000000
vn 0.000000 0.000000 1.000000
vn 0.000000 0.000000 1.000000
vn 0.000000 0.000000 1.000000
vn 0.000000 0.000000 1.000000
vn 0.107163 0.025537 0.993914
vn 0.107163 0.025537 0.993913
vn 0.107163 0.025537 0.993914
vn 0.107163 0.025537 0.993913
vn 0.000000 0.000000 1.000000
vn 0.000000 0.000000 1.000000
vn 0.000000 0.000000 1.000000
vn 0.000000 0.000000 1.000000
vn -0.991693 0.125429 -0.028515
vn -0.991693 0.125429 -0.028515
vn -0.991693 0.125429 -0.028515
vn -0.143090 -0.976909 -0.158665
vn -0.143090 -0.976909 -0.158665
vn -0.143090 -0.976909 -0.158665
vn 0.987914 -0.127031 -0.088818
vn 0.987914 -0.127031 -0.088818
vn 0.987914 -0.127031 -0.088818
vn -0.137160 0.977731 -0.158836
vn -0.137160 0.977731 -0.158836
vn -0.137160 0.977731 -0.158836
vn 0.086285 -0.013503 0.996179
vn 0.086285 -0.013503 0.996179
vn 0.086285 -0.013503 0.996179
vn 0.086285 -0.013503 0.996179
vn 0.956982 -0.104708 0.270594
vn 0.956982 -0.104708 0.270594
vn 0.956982 -0.104708 0.270594
vn -0.424241 0.428442 0.797783
vn -0.424241 0.428442 0.797783
vn -0.424241 0.428442 0.797783
vn -0.909079 0.009409 -0.416518
vn -0.909079 0.009409 -0.416518
vn -0.909079 0.009409 -0.416518
vn 0.000000 0.000000 1.000000
vn 0.000000 0.000000 1.000000
vn 0.000000 0.000000 1.000000
vn 0.000000 0.000000 1.000000
vn 0.000000 0.000000 1.000000
vn 0.000000 0.000000 1.000000
vn 0.000000 0.000000 1.000000
vn 0.000000 0.000000 1.000000
vn 0.986423 -0.092910 -0.135413
vn 0.986423 -0.092910 -0.135413
vn 0.986423 -0.092910 -0.135413
vn 0.072588 -0.386027 0.919627
vn 0.072588 -0.386027 0.919627
vn 0.072588 -0.386027 0.919627
vn -0.904225 0.413149 -0.108094
vn -0.904225 0.413149 -0.108094
vn -0.904225 0.413149 -0.108094
vn 0.000000 0.000000 1.000000
vn 0.000000 0.000000 1.000000
vn 0.000000 0.000000 1.000000
vn 0.000000 0.000000 1.000000
vn 0.000005 0.669833 0.742512
vn 0.000005 0.669833 0.742512
vn 0.000005 0.669833 0.742512
vn 0.000005 0.669833 0.742512
vn 0.000000 -0.058145 0.998308
vn 0.000000 -0.058145 0.998308
vn 0.000000 -0.058145 0.998308
vn 0.000000 -0.058145 0.998308
vn -0.732069 0.115584 -0.671354
vn -0.732069 0.115584 -0.671354
vn -0.732069 0.115584 -0.671354
vn -0.732069 0.115584 -0.671354
vn -0.235901 -0.750739 -0.617042
vn -0.235901 -0.750740 -0.617042
vn -0.235901 -0.750740 -0.617042
vn -0.235901 -0.750740 -0.617042
vn -0.567137 -0.027692 -0.823158
vn -0.567137 -0.027692 -0.823158
vn -0.567137 -0.027692 -0.823158
vn -0.567137 -0.027692 -0.823158
vn 0.611542 0.046438 -0.789848
vn 0.611542 0.046438 -0.789848
vn 0.611542 0.046438 -0.789848
vn 0.611542 0.046438 -0.789848
vn 0.235895 -0.750742 -0.617042
vn 0.235895 -0.750742 -0.617042
vn 0.235895 -0.750742 -0.617042
vn 0.235895 -0.750742 -0.617042
vn 0.567137 -0.027688 -0.823158
vn 0.567137 -0.027688 -0.823158
vn 0.567137 -0.027688 -0.823158
vn 0.567137 -0.027688 -0.823158
vn 0.963830 -0.153800 -0.217665
vn 0.963830 -0.153800 -0.217665
vn 0.963830 -0.153800 -0.217665
vn 0.963830 -0.153800 -0.217665
vn 0.000019 -0.945984 -0.324213
vn 0.000019 -0.945984 -0.324213
vn 0.000019 -0.945984 -0.324213
vn 0.000019 -0.945984 -0.324213
vn -0.963830 -0.153797 -0.217666
vn -0.963830 -0.153797 -0.217666
vn -0.963830 -0.153797 -0.217666
vn -0.963830 -0.153797 -0.217666
vn -0.445160 0.050037 -0.894052
vn -0.445160 0.050037 -0.894052
vn -0.445160 0.050037 -0.894052
vn -0.445160 0.050037 -0.894052
vn -0.021178 0.587800 -0.808729
vn -0.021178 0.587800 -0.808729
vn -0.021178 0.587800 -0.808729
vn -0.021178 0.587800 -0.808729
vn 0.512460 -0.031070 -0.858149
vn 0.512460 -0.031070 -0.858149
vn 0.512460 -0.031070 -0.858149
vn 0.512460 -0.031070 -0.858149
vn -0.581676 -0.016147 -0.813260
vn -0.581676 -0.016147 -0.813260
vn -0.581676 -0.016147 -0.813260
vn -0.581676 -0.016147 -0.813260
vn 0.552718 0.058153 -0.831337
vn 0.552718 0.058153 -0.831337
vn 0.552718 0.058153 -0.831337
vn 0.552718 0.058153 -0.831337
vn -0.383488 0.666684 -0.639117
vn -0.383488 0.666684 -0.639117
vn -0.383488 0.666684 -0.639117
vn -0.383488 0.666684 -0.639117
vn 0.383484 0.666687 -0.639115
vn 0.383484 0.666687 -0.639116
vn 0.383484 0.666687 -0.639116
vn 0.383484 0.666687 -0.639115
vn -0.304184 -0.952614 0.000000
vn -0.304184 -0.952613 0.000000
vn -0.304183 -0.952613 0.000000
vn -0.304184 -0.952613 0.000000
vn 0.304175 -0.952616 0.000000
vn 0.304175 -0.952616 0.000000
vn 0.304175 -0.952616 0.000000
vn 0.304175 -0.952616 0.000000
vn 0.000001 -0.371237 -0.928538
vn 0.000001 -0.371237 -0.928538
vn 0.000001 -0.371237 -0.928538
vn 0.000001 -0.371237 -0.928538
vn 0.000020 -0.763888 0.645349
vn 0.000020 -0.763888 0.645349
vn 0.000020 -0.763888 0.645349
vn 0.000020 -0.763888 0.645349
vn -0.000011 1.000000 0.000000
vn -0.000011 1.000000 0.000000
vn -0.000011 1.000000 0.000000
vn -0.000011 1.000000 0.000000
vn -1.000000 0.000000 0.000000
vn -1.000000 0.000000 0.000000
vn -1.000000 0.000000 0.000000
vn -1.000000 0.000000 0.000000
vn 0.000000 0.000000 -1.000000
vn 0.000000 0.000000 -1.000000
vn 0.000000 0.000000 -1.000000
vn 0.000000 0.000000 -1.000000
vn 1.000000 0.000000 0.000000
vn 1.000000 0.000000 0.000000
vn 1.000000 0.000000 0.000000
vn 1.000000 0.000000 0.000000
vn -0.998942 -0.045980 -0.000000
vn -0.998942 -0.045980 -0.000000
vn -0.998942 -0.045980 -0.000000
vn -0.998942 -0.045980 -0.000000
vn 0.998943 -0.045973 -0.000000
vn 0.998943 -0.045973 -0.000000
vn 0.998943 -0.045973 -0.000000
vn 0.998943 -0.045973 -0.000000
vn 0.000000 0.000000 -1.000000
vn 0.000000 0.000000 -1.000000
vn 0.000000 0.000000 -1.000000
vn 0.000000 0.000000 -1.000000
vn 0.000000 -0.000000 -1.000000
vn 0.000000 -0.000000 -1.000000
vn 0.000000 -0.000000 -1.000000
vn 0.000000 -0.000000 -1.000000
vn 1.000000 0.000000 0.000000
vn 1.000000 0.000000 0.000000
vn 1.000000 0.000000 0.000000
vn 1.000000 0.000000 0.000000
vn -1.000000 -0.000000 0.000000
vn -1.000000 -0.000000 0.000000
vn -1.000000 -0.000000 0.000000
vn -1.000000 -0.000000 0.000000
vn -0.000000 0.000000 -1.000000
vn -0.000000 0.000000 -1.000000
vn -0.000000 0.000000 -1.000000
vn -0.000000 0.000000 -1.000000
vn 1.000000 0.000000 0.000000
vn 1.000000 0.000000 0.000000
vn 1.000000 0.000000 0.000000
vn 1.000000 0.000000 0.000000
vn -1.000000 0.000000 0.000000
vn -1.000000 0.000000 0.000000
vn -1.000000 0.000000 0.000000
vn -1.000000 0.000000 0.000000
vn 0.000007 0.395892 -0.918297
vn 0.000007 0.395892 -0.918297
vn 0.000007 0.395892 -0.918297
vn 0.000007 0.395892 -0.918297
vn 0.571362 0.820698 0.000000
vn 0.571362 0.820698 0.000000
vn 0.571362 0.820698 0.000000
vn 0.571362 0.820698 0.000000
vn -0.571370 0.820693 0.000000
vn -0.571370 0.820693 0.000000
vn -0.571370 0.820693 0.000000
vn -0.571370 0.820693 0.000000
vn 0.000000 0.000000 -1.000000
vn 0.000000 0.000000 -1.000000
vn 0.000000 0.000000 -1.000000
vn 0.000000 0.000000 -1.000000
vn 0.971646 -0.227592 0.064084
vn 0.971645 -0.227592 0.064084
vn 0.971646 -0.227592 0.064084
vn 0.971646 -0.227592 0.064084
vn -0.971647 -0.227587 0.064082
vn -0.971647 -0.227587 0.064082
vn -0.971647 -0.227587 0.064082
vn -0.971647 -0.227587 0.064082
vn -0.940907 0.097232 -0.324406
vn -0.940907 0.097232 -0.324406
vn -0.940907 0.097232 -0.324406
vn -0.039662 -0.138890 0.989513
vn -0.039662 -0.138890 0.989513
vn -0.039662 -0.138890 0.989513
vn 0.133779 0.975541 -0.174422
vn 0.133779 0.975541 -0.174422
vn 0.133779 0.975541 -0.174422
vn 0.141368 -0.976678 -0.161601
vn 0.141368 -0.976678 -0.161601
vn 0.141368 -0.976678 -0.161601
vn -0.046335 0.172450 0.983928
vn -0.046335 0.172450 0.983928
vn -0.046335 0.172450 0.983928
vn -0.904898 -0.174994 -0.387991
vn -0.904898 -0.174994 -0.387991
vn -0.904898 -0.174994 -0.387991
vn 0.950826 0.245044 0.189430
vn 0.950826 0.245044 0.189430
vn 0.950826 0.245044 0.189430
vn 0.062126 -0.161337 0.984942
vn 0.062126 -0.161337 0.984942
vn 0.062126 -0.161337 0.984942
vn -0.021548 -0.956375 -0.291345
vn -0.021548 -0.956375 -0.291345
vn -0.021548 -0.956375 -0.291345
vn -0.021548 -0.956375 -0.291345
vn 0.101024 -0.968215 -0.228810
vn 0.101024 -0.968215 -0.228810
vn 0.101024 -0.968215 -0.228810
vn 0.007849 0.145819 0.989280
vn 0.007849 0.145819 0.989280
vn 0.007849 0.145819 0.989280
vn 0.992093 -0.119504 -0.038345
vn 0.992093 -0.119504 -0.038345
vn 0.992093 -0.119504 -0.038345
vn -0.021572 0.956316 -0.291537
vn -0.021572 0.956316 -0.291537
vn -0.021572 0.956316 -0.291537
vn -0.021572 0.956316 -0.291537
vn 0.094501 0.966302 -0.239438
vn 0.094501 0.966302 -0.239438
vn 0.094501 0.966302 -0.239438
vn 0.257582 0.231972 0.937998
vn 0.257582 0.231972 0.937998
vn 0.257582 0.231972 0.937998
vn 0.265225 -0.201438 0.942909
vn 0.265225 -0.201438 0.942909
vn 0.265225 -0.201438 0.942909
vn 0.982815 -0.008053 -0.184417
vn 0.982815 -0.008053 -0.184417
vn 0.982815 -0.008053 -0.184417
vn 0.982815 -0.008053 -0.184417
vn 0.987330 -0.114715 -0.109633
vn 0.987330 -0.114715 -0.109633
vn 0.987330 -0.114715 -0.109633
vn 0.985492 0.169188 0.013424
vn 0.985492 0.169188 0.013424
vn 0.985492 0.169188 0.013424
vn -0.945237 -0.145856 -0.291982
vn -0.945237 -0.145856 -0.291982
vn -0.945237 -0.145856 -0.291982
vn -0.997908 0.000006 0.064643
vn -0.997909 0.000006 0.064643
vn -0.997909 0.000006 0.064643
vn -0.994003 0.101260 -0.041297
vn -0.994003 0.101260 -0.041297
vn -0.994003 0.101260 -0.041297
vn -0.994003 0.101260 -0.041297
vn 0.117139 -0.012886 0.993032
vn 0.117139 -0.012886 0.993032
vn 0.117139 -0.012886 0.993032
vn 0.117139 -0.012886 0.993032
vn -0.316740 -0.410105 0.855272
vn -0.316740 -0.410105 0.855272
vn -0.316740 -0.410105 0.855272
vn 0.109803 0.164549 0.980238
vn 0.109803 0.164549 0.980238
vn 0.109803 0.164549 0.980238
vn 0.077107 -0.019720 0.996828
vn 0.077107 -0.019720 0.996828
vn 0.077107 -0.019720 0.996828
vn 0.977905 -0.000003 -0.209048
vn 0.977905 -0.000003 -0.209048
vn 0.977905 -0.000003 -0.209048
vn 0.994870 0.095137 0.034385
vn 0.994870 0.095137 0.034385
vn 0.994870 0.095137 0.034385
vn 0.994870 0.095137 0.034385
vn 0.980446 -0.181533 0.075969
vn 0.980446 -0.181533 0.075969
vn 0.980446 -0.181533 0.075969
vn 0.995090 -0.027023 -0.095214
vn 0.995090 -0.027023 -0.095214
vn 0.995090 -0.027023 -0.095214
vn 0.995090 -0.027023 -0.095214
vn -0.949339 0.000008 -0.314255
vn -0.949339 0.000008 -0.314255
vn -0.949339 0.000008 -0.314255
vn -0.972661 0.091753 -0.213335
vn -0.972661 0.091753 -0.213335
vn -0.972661 0.091753 -0.213335
vn -0.972661 0.091753 -0.213335
vn -0.988350 -0.029793 -0.149252
vn -0.988350 -0.029793 -0.149252
vn -0.988350 -0.029793 -0.149252
vn -0.988350 -0.029793 -0.149252
vn -0.992283 -0.123593 0.009974
vn -0.992283 -0.123593 0.009974
vn -0.992283 -0.123593 0.009974
vn 0.115967 0.032688 0.992715
vn 0.115967 0.032688 0.992715
vn 0.115967 0.032688 0.992715
vn 0.115967 0.032688 0.992715
vn -0.007587 -0.026105 0.999630
vn -0.007587 -0.026105 0.999631
vn -0.007587 -0.026105 0.999630
vn -0.007587 -0.026105 0.999630
s off
f 5/40/1 6/25/2 7/41/3 8/28/4
f 67/75/5 66/74/6 14/6/7
f 8/28/8 7/41/9 2/64/10 4/44/11
f 21/18/12 22/35/13 6/25/14 10/2/15
f 6/25/16 5/40/17 11/3/18 10/2/19
f 5/40/20 17/50/21 18/13/22 11/3/23
f 3/34/24 1/59/25 9/1/26 12/4/27
f 66/74/28 70/78/29 14/6/30
f 70/78/31 67/75/32 14/6/33
f 71/79/34 68/76/35 15/7/36
f 74/82/37 73/81/38 13/5/39
f 18/13/40 17/50/41 23/56/42 24/19/43
f 19/15/44 72/80/45 77/85/46
f 77/85/47 65/73/48 19/15/49
f 79/87/50 69/77/51 20/16/52
f 27/24/53 28/51/54 22/35/55 21/18/56
f 24/19/57 23/56/58 3/34/59 12/4/60
f 81/89/61 75/83/62 16/8/63
f 13/5/64 82/90/65 74/82/66
f 73/81/67 82/90/68 13/5/69
f 1/59/70 28/51/71 27/24/72 9/1/73
f 4/44/74 2/64/75 30/71/76 29/63/77
f 29/63/78 30/71/79 32/32/80 31/70/81
f 33/29/82 34/36/83 50/52/84 49/37/85
f 34/36/86 33/29/87 36/45/88 35/26/89
f 35/26/90 36/45/91 54/60/92 53/42/93
f 37/27/94 38/38/95 52/48/96 51/39/97
f 38/38/98 37/27/99 40/43/100 39/30/101
f 39/30/102 40/43/103 56/62/104 55/46/105
f 41/31/106 42/67/107 61/61/108 62/69/109
f 42/67/110 41/31/111 44/72/112 43/68/113
f 43/68/114 44/72/115 63/65/116 64/66/117
f 45/33/118 46/55/119 59/47/120 60/58/121
f 46/55/122 45/33/123 48/57/124 47/53/125
f 47/53/126 48/57/127 57/49/128 58/54/129
f 49/37/130 50/52/131 60/58/132 59/47/133
f 51/39/134 52/48/135 58/54/136 57/49/137
f 53/42/138 54/60/139 64/66/140 63/65/141
f 55/46/142 56/62/143 62/69/144 61/61/145
f 6/25/146 34/36/147 35/26/148 7/41/149
f 37/27/150 5/40/151 8/28/152 40/43/153
f 33/29/154 38/38/155 39/30/156 36/45/157
f 44/72/158 41/31/159 31/70/160 32/32/161
f 48/57/162 45/33/163 1/59/164 3/34/165
f 22/35/166 50/52/167 34/36/168 6/25/169
f 49/37/170 52/48/171 38/38/172 33/29/173
f 51/39/174 17/50/175 5/40/176 37/27/177
f 7/41/178 35/26/179 53/42/180 2/64/181
f 40/43/182 8/28/183 4/44/184 56/62/185
f 36/45/186 39/30/187 55/46/188 54/60/189
f 59/47/190 58/54/191 52/48/192 49/37/193
f 57/49/194 23/56/195 17/50/196 51/39/197
f 28/51/198 60/58/199 50/52/200 22/35/201
f 47/53/202 58/54/203 59/47/204 46/55/205
f 3/34/206 23/56/207 57/49/208 48/57/209
f 45/33/210 60/58/211 28/51/212 1/59/213
f 54/60/214 55/46/215 61/61/216 64/66/217
f 56/62/218 4/44/219 29/63/220 62/69/221
f 2/64/222 53/42/223 63/65/224 30/71/225
f 64/66/226 61/61/227 42/67/228 43/68/229
f 62/69/230 29/63/231 31/70/232 41/31/233
f 30/71/234 63/65/235 44/72/236 32/32/237
f 82/90/238 80/88/239 26/22/240
f 74/82/241 81/89/242 16/8/243
f 75/83/244 74/82/245 16/8/246
f 67/75/247 71/79/248 15/7/249
f 68/76/250 67/75/251 15/7/252
f 20/16/253 69/77/254 66/74/255
f 68/76/256 72/80/257 19/15/258
f 19/15/259 65/73/260 68/76/261
f 70/78/262 10/10/263 11/11/264 67/75/265
f 11/11/266 71/79/267 67/75/268
f 81/89/269 78/86/270 25/21/271
f 25/21/272 76/84/273 81/89/274
f 12/12/275 9/9/276 73/81/277 74/82/278
f 12/12/279 74/82/280 75/83/281
f 65/73/282 79/87/283 20/16/284
f 66/74/285 65/73/286 20/16/287
f 18/14/288 72/80/289 68/76/290 11/11/291
f 11/11/292 68/76/293 71/79/294
f 77/85/295 76/84/296 25/21/297
f 26/22/298 80/88/299 79/87/300
f 21/17/301 10/10/302 69/77/303
f 69/77/304 10/10/305 70/78/306 66/74/307
f 68/76/308 65/73/309 66/74/310 67/75/311
f 25/21/312 78/86/313 77/85/314
f 78/86/315 82/90/316 26/22/317
f 79/87/318 78/86/319 26/22/320
f 18/14/321 24/20/322 72/80/323
f 72/80/324 24/20/325 76/84/326 77/85/327
f 76/84/328 24/20/329 81/89/330
f 81/89/331 24/20/332 12/12/333 75/83/334
f 27/23/335 80/88/336 9/9/337
f 73/81/338 9/9/339 80/88/340 82/90/341
f 79/87/342 80/88/343 27/23/344 21/17/345
f 79/87/346 21/17/347 69/77/348
f 77/85/349 78/86/350 79/87/351 65/73/352
f 74/82/353 82/90/354 78/86/355 81/89/356
