# This file uses centimeters as units for non-parametric coordinates.

v -0.826904 0.841702 -0.683044
v -0.826904 -29.618382 -0.683044
v 0.000000 -30.123232 -0.683044
v 0.826904 -29.618376 -0.683044
v 0.826904 0.841702 -0.683044
v 0.000000 1.346554 -0.683044
v -0.826904 0.841702 0.682983
v -0.826904 -29.618382 0.682983
v 0.000000 -30.123232 0.682983
v 0.826904 -29.618376 0.682983
v 0.826904 0.841702 0.682983
v 0.000000 1.346554 0.682983
v -2.092041 1.551620 0.682983
v -2.092041 -30.328302 0.682983
v -2.092041 1.551620 -0.683044
v -2.092041 -30.328302 -0.683044
v 0.000000 -31.605518 -0.683044
v 0.000000 -31.605518 0.682983
v 2.092041 -30.328297 -0.683044
v 2.092041 -30.328302 0.682983
v 2.092041 1.551620 0.682983
v 2.092041 1.551620 -0.683044
v 0.000000 2.828842 -0.683044
v 0.000000 2.828842 0.682983
v 1.303223 -36.592237 -1.089600
v 0.000000 -35.494570 -1.089600
v -1.302979 -36.592237 -1.089600
v -1.493896 -38.666037 -1.089600
v 0.000000 -39.883831 -1.089600
v 1.494141 -38.666037 -1.089600
v 1.263672 -36.746674 0.976257
v 0.000000 -35.494560 0.976257
v -1.263672 -36.746674 0.976257
v -1.493896 -38.666039 0.976257
v 0.000000 -39.883831 0.976257
v 1.494141 -38.666039 0.976257
v 1.091309 -42.380749 -0.056641
v -1.091309 -42.380749 -0.056641
v -2.856689 -41.098036 -0.056641
v -3.531006 -38.456795 -0.056641
v -2.377686 -34.562031 -0.056641
v 2.377686 -34.562031 -0.056641
v 3.531006 -38.456795 -0.056641
v 2.856934 -41.098036 -0.056641
v -3.193848 -36.450098 -0.056641
v 3.193848 -36.450098 -0.056641
v 0.000000 -35.341417 -1.548584
v 0.000000 -35.341415 1.435242
v -1.126953 -32.371912 0.449646
v -1.126953 -32.371916 -0.562988
v 1.127197 -32.371916 -0.562988
v 1.127197 -32.371912 0.449646
v 2.925781 -34.185234 -0.562988
v 2.925781 -34.185236 0.449646
v -2.925537 -34.185234 -0.562988
v -2.925537 -34.185228 0.449646
v -0.611328 -32.371912 0.313538
v -0.611328 -32.371914 -0.426819
v 0.611328 -32.371912 0.313538
v 0.611328 -32.371914 -0.426819
v -0.611328 -31.094624 0.313538
v -0.611328 -31.094625 -0.426819
v 0.611328 -31.094624 0.313538
v 0.611328 -31.094625 -0.426819
vt 0.050648 0.211805
vt 0.050687 0.210973
vt 0.050731 0.210893
vt 0.050683 0.211737
vt 0.050593 0.211726
vt 0.050557 0.211793
vt 0.050504 0.211661
vt 0.050469 0.211729
vt 0.050461 0.210884
vt 0.050506 0.210805
vt 0.050619 0.210806
vt 0.050574 0.210885
vt 0.050594 0.211767
vt 0.050629 0.211699
vt 0.050662 0.210890
vt 0.050618 0.210969
vt 0.050558 0.211763
vt 0.050593 0.211695
vt 0.050523 0.211737
vt 0.050558 0.211669
vt 0.050529 0.210934
vt 0.050573 0.210856
vt 0.050573 0.210935
vt 0.050618 0.210856
vt 0.138646 0.420557
vt 0.138860 0.420521
vt 0.138654 0.420252
vt 0.138940 0.420686
vt 0.139173 0.420478
vt 0.139165 0.420688
vt 0.138834 0.420885
vt 0.138839 0.421102
vt 0.139080 0.420890
vt 0.138589 0.420923
vt 0.138555 0.421132
vt 0.138306 0.421021
vt 0.138495 0.420736
vt 0.138186 0.420813
vt 0.138277 0.420537
vt 0.138441 0.420371
vt 0.138639 0.420414
vt 0.138860 0.420362
vt 0.138587 0.420765
vt 0.138493 0.420578
vt 0.138834 0.420728
vt 0.138927 0.420539
vt 0.048536 0.212171
vt 0.048510 0.212125
vt 0.048383 0.212003
vt 0.048459 0.212083
vt 0.049164 0.212029
vt 0.049183 0.211863
vt 0.048932 0.212401
vt 0.049383 0.211989
vt 0.049030 0.212417
vt 0.048565 0.212110
vt 0.049068 0.211504
vt 0.049257 0.211628
vt 0.049257 0.211628
vt 0.049068 0.211504
vt 0.048756 0.211580
vt 0.048939 0.211696
vt 0.048939 0.211696
vt 0.048756 0.211580
vt 0.049068 0.211504
vt 0.049257 0.211628
vt 0.048756 0.211580
vt 0.048939 0.211696
vn -1.000000 0.000000 0.000000
vn -1.000000 0.000000 0.000000
vn -1.000000 0.000000 0.000000
vn -1.000000 0.000000 0.000000
vn -0.521070 -0.853514 0.000000
vn -0.521070 -0.853514 0.000000
vn -0.521070 -0.853514 0.000000
vn -0.521070 -0.853514 0.000000
vn 0.521134 -0.853475 -0.000002
vn 0.521134 -0.853475 -0.000002
vn 0.521134 -0.853475 -0.000002
vn 0.521134 -0.853475 -0.000002
vn 1.000000 0.000000 0.000000
vn 1.000000 0.000000 0.000000
vn 1.000000 0.000000 0.000000
vn 1.000000 0.000000 0.000000
vn 0.521121 0.853483 0.000000
vn 0.521121 0.853483 0.000000
vn 0.521121 0.853483 0.000000
vn 0.521121 0.853483 0.000000
vn -0.521056 0.853522 0.000000
vn -0.521056 0.853522 0.000000
vn -0.521056 0.853522 0.000000
vn -0.521056 0.853522 0.000000
vn 1.000000 0.000000 0.000000
vn 1.000000 0.000000 0.000000
vn 1.000000 0.000000 0.000000
vn 1.000000 0.000000 0.000000
vn 0.520984 0.853567 0.000000
vn 0.520984 0.853567 0.000000
vn 0.520984 0.853567 0.000000
vn 0.520984 0.853567 0.000000
vn -0.521148 0.853466 0.000000
vn -0.521148 0.853466 0.000000
vn -0.521148 0.853466 0.000000
vn -0.521148 0.853466 0.000000
vn -1.000000 0.000000 0.000000
vn -1.000000 0.000000 0.000000
vn -1.000000 0.000000 0.000000
vn -1.000000 0.000000 0.000000
vn -0.521148 -0.853466 0.000000
vn -0.521148 -0.853466 0.000000
vn -0.521148 -0.853466 0.000000
vn -0.521148 -0.853466 0.000000
vn 0.520984 -0.853567 0.000000
vn 0.520984 -0.853567 0.000000
vn 0.520984 -0.853567 0.000000
vn 0.520984 -0.853567 0.000000
vn 0.000000 0.000000 1.000000
vn 0.000000 0.000000 1.000000
vn 0.000000 0.000000 1.000000
vn 0.000000 0.000000 1.000000
vn 0.000010 0.000000 -1.000000
vn 0.000012 0.000000 -1.000000
vn 0.000012 0.000000 -1.000000
vn 0.000010 0.000000 -1.000000
vn 0.000012 0.000000 -1.000000
vn 0.000014 0.000000 -1.000000
vn 0.000014 0.000000 -1.000000
vn 0.000012 0.000000 -1.000000
vn -0.000014 0.000000 1.000000
vn 0.000000 0.000000 1.000000
vn 0.000000 0.000000 1.000000
vn -0.000014 0.000000 1.000000
vn 0.000014 0.000000 -1.000000
vn 0.000023 0.000000 -1.000000
vn 0.000023 0.000000 -1.000000
vn 0.000014 0.000000 -1.000000
vn -0.000013 0.000000 1.000000
vn -0.000014 0.000000 1.000000
vn -0.000014 0.000000 1.000000
vn -0.000013 0.000000 1.000000
vn -0.000009 0.000000 1.000000
vn -0.000013 0.000000 1.000000
vn -0.000013 0.000000 1.000000
vn -0.000009 0.000000 1.000000
vn 0.000023 0.000000 -1.000000
vn 0.000023 0.000000 -1.000000
vn 0.000023 0.000000 -1.000000
vn 0.000023 0.000000 -1.000000
vn 0.000023 0.000000 -1.000000
vn 0.000000 0.000000 -1.000000
vn 0.000000 0.000000 -1.000000
vn 0.000023 0.000000 -1.000000
vn 0.000028 0.000000 1.000000
vn -0.000009 0.000000 1.000000
vn -0.000009 0.000000 1.000000
vn 0.000028 0.000000 1.000000
vn 0.000000 0.000000 -1.000000
vn 0.000010 0.000000 -1.000000
vn 0.000010 0.000000 -1.000000
vn 0.000000 0.000000 -1.000000
vn 0.000000 0.000000 1.000000
vn 0.000028 0.000000 1.000000
vn 0.000028 0.000000 1.000000
vn 0.000000 0.000000 1.000000
vn 0.269285 0.319683 -0.908454
vn 0.269285 0.319683 -0.908454
vn 0.269285 0.319683 -0.908454
vn -0.269285 0.319683 -0.908454
vn -0.269285 0.319683 -0.908454
vn -0.269285 0.319683 -0.908454
vn -0.458396 0.198188 -0.866369
vn -0.458396 0.198188 -0.866369
vn -0.458396 0.198188 -0.866369
vn -0.458684 -0.117114 -0.880848
vn -0.458684 -0.117114 -0.880848
vn -0.458684 -0.117114 -0.880848
vn -0.217331 -0.283302 -0.934081
vn -0.217331 -0.283302 -0.934081
vn -0.217331 -0.283302 -0.934081
vn -0.217331 -0.283302 -0.934081
vn 0.000000 -0.382261 -0.924055
vn 0.000000 -0.382261 -0.924055
vn 0.000000 -0.382261 -0.924055
vn 0.217331 -0.283302 -0.934081
vn 0.217331 -0.283302 -0.934081
vn 0.217331 -0.283302 -0.934081
vn 0.217331 -0.283302 -0.934081
vn 0.458683 -0.117114 -0.880848
vn 0.458683 -0.117114 -0.880848
vn 0.458683 -0.117114 -0.880848
vn 0.460487 0.059597 -0.885664
vn 0.460487 0.059597 -0.885664
vn 0.460487 0.059597 -0.885664
vn 0.460487 0.059597 -0.885664
vn -0.000001 -0.000000 -1.000000
vn -0.000001 -0.000000 -1.000000
vn -0.000001 -0.000000 -1.000000
vn -0.000001 -0.000000 -1.000000
vn 0.000000 -0.000000 1.000000
vn 0.000000 -0.000000 1.000000
vn 0.000000 -0.000000 1.000000
vn 0.000000 -0.000000 1.000000
vn 0.000000 -0.382257 0.924056
vn 0.000000 -0.382257 0.924056
vn 0.000000 -0.382257 0.924056
vn -0.217328 -0.283300 0.934082
vn -0.217328 -0.283300 0.934082
vn -0.217328 -0.283300 0.934082
vn -0.217328 -0.283300 0.934082
vn -0.458685 -0.117110 0.880848
vn -0.458685 -0.117110 0.880848
vn -0.458685 -0.117110 0.880848
vn -0.440300 0.190362 0.877438
vn -0.440300 0.190362 0.877438
vn -0.440300 0.190362 0.877438
vn -0.284651 0.287279 0.914573
vn -0.284651 0.287279 0.914573
vn -0.284651 0.287279 0.914573
vn 0.284651 0.287279 0.914573
vn 0.284651 0.287279 0.914573
vn 0.284651 0.287279 0.914573
vn 0.454264 0.065667 0.888444
vn 0.454264 0.065667 0.888444
vn 0.454264 0.065667 0.888444
vn 0.454264 0.065667 0.888444
vn 0.458685 -0.117110 0.880848
vn 0.458685 -0.117110 0.880848
vn 0.458685 -0.117110 0.880848
vn 0.217328 -0.283300 0.934082
vn 0.217328 -0.283300 0.934082
vn 0.217328 -0.283300 0.934082
vn 0.217328 -0.283300 0.934082
vn -0.460487 0.059597 -0.885664
vn -0.460487 0.059597 -0.885664
vn -0.460487 0.059597 -0.885664
vn -0.460487 0.059597 -0.885664
vn -0.454264 0.065667 0.888444
vn -0.454264 0.065667 0.888444
vn -0.454264 0.065667 0.888444
vn -0.454264 0.065667 0.888444
vn 0.458396 0.198188 -0.866369
vn 0.458396 0.198188 -0.866369
vn 0.458396 0.198188 -0.866369
vn 0.440300 0.190362 0.877438
vn 0.440300 0.190362 0.877438
vn 0.440300 0.190362 0.877438
vn 0.000000 -0.000000 1.000000
vn 0.000000 -0.000000 1.000000
vn 0.000000 -0.000000 1.000000
vn 0.000000 -0.000000 1.000000
vn 0.000001 -0.000000 -1.000000
vn 0.000001 -0.000000 -1.000000
vn 0.000001 -0.000000 -1.000000
vn 0.000001 -0.000000 -1.000000
vn 0.431885 -0.871289 0.233088
vn 0.431885 -0.871289 0.233088
vn 0.431885 -0.871289 0.233088
vn 0.431885 -0.871289 0.233088
vn -0.431888 -0.871286 0.233094
vn -0.431888 -0.871286 0.233094
vn -0.431888 -0.871286 0.233094
vn -0.431888 -0.871286 0.233094
vn -0.431889 -0.871285 -0.233097
vn -0.431889 -0.871285 -0.233097
vn -0.431889 -0.871285 -0.233097
vn -0.431889 -0.871285 -0.233097
vn 0.431889 -0.871285 -0.233096
vn 0.431889 -0.871285 -0.233096
vn 0.431889 -0.871285 -0.233096
vn 0.431889 -0.871285 -0.233096
vn -0.709964 0.704238 -0.000002
vn -0.709964 0.704238 -0.000002
vn -0.709964 0.704238 -0.000002
vn -0.709964 0.704238 -0.000002
vn -0.000000 1.000000 -0.000004
vn -0.000000 1.000000 -0.000004
vn -0.000000 1.000000 -0.000004
vn -0.000000 1.000000 -0.000004
vn 0.709967 0.704235 -0.000001
vn 0.709967 0.704235 -0.000001
vn 0.709967 0.704235 -0.000001
vn 0.709967 0.704235 -0.000001
vn -0.000000 0.315025 -0.949083
vn -0.000000 0.315025 -0.949083
vn -0.000000 0.315025 -0.949083
vn -0.000000 0.315024 0.949084
vn -0.000000 0.315024 0.949084
vn -0.000000 0.315024 0.949084
vn 0.229080 0.227232 0.946514
vn 0.229080 0.227232 0.946514
vn 0.229080 0.227232 0.946514
vn -0.229081 0.227232 0.946513
vn -0.229081 0.227232 0.946513
vn -0.229081 0.227232 0.946513
vn -0.229080 0.227234 -0.946513
vn -0.229080 0.227234 -0.946513
vn -0.229080 0.227234 -0.946513
vn 0.229080 0.227233 -0.946513
vn 0.229080 0.227233 -0.946513
vn 0.229080 0.227233 -0.946513
vn 0.566507 -0.824057 -0.000002
vn 0.566507 -0.824057 -0.000002
vn 0.566507 -0.824057 -0.000002
vn -0.566512 -0.824054 0.000003
vn -0.566512 -0.824054 0.000003
vn -0.566512 -0.824054 0.000003
vn -0.000001 1.000000 -0.000005
vn -0.000001 1.000000 -0.000005
vn -0.000001 1.000000 -0.000005
vn -0.000001 1.000000 -0.000005
vn -0.000000 1.000000 0.000000
vn -0.000000 1.000000 0.000000
vn -0.000000 1.000000 0.000000
vn -0.000000 1.000000 0.000000
vn 0.000002 1.000000 -0.000005
vn 0.000002 1.000000 -0.000005
vn 0.000002 1.000000 -0.000005
vn 0.000002 1.000000 -0.000005
vn -0.000000 1.000000 -0.000020
vn -0.000000 1.000000 -0.000020
vn -0.000000 1.000000 -0.000020
vn -0.000000 1.000000 -0.000020
vn -1.000000 -0.000000 0.000001
vn -1.000000 -0.000000 0.000001
vn -1.000000 -0.000000 0.000001
vn -1.000000 -0.000000 0.000001
vn 0.000000 -0.000000 1.000000
vn 0.000000 -0.000000 1.000000
vn 0.000000 -0.000000 1.000000
vn 0.000000 -0.000000 1.000000
vn 1.000000 0.000000 -0.000000
vn 1.000000 0.000000 -0.000000
vn 1.000000 0.000000 -0.000000
vn 1.000000 0.000000 -0.000000
vn -0.000000 0.000000 -1.000000
vn -0.000000 0.000000 -1.000000
vn -0.000000 0.000000 -1.000000
vn -0.000000 0.000000 -1.000000
s off
f 14/1/1 13/2/2 15/3/3 16/4/4
f 16/4/5 17/5/6 18/6/7 14/1/8
f 17/5/9 19/7/10 20/8/11 18/6/12
f 21/9/13 20/8/14 19/7/15 22/10/16
f 22/10/17 23/11/18 24/12/19 21/9/20
f 23/11/21 15/3/22 13/2/23 24/12/24
f 8/13/25 2/14/26 1/15/27 7/16/28
f 2/14/29 8/13/30 9/17/31 3/18/32
f 3/18/33 9/17/34 10/19/35 4/20/36
f 11/21/37 5/22/38 4/20/39 10/19/40
f 5/22/41 11/21/42 12/23/43 6/24/44
f 6/24/45 12/23/46 7/16/47 1/15/48
f 8/13/49 7/16/50 13/2/51 14/1/52
f 1/15/53 2/14/54 16/4/55 15/3/56
f 2/14/57 3/18/58 17/5/59 16/4/60
f 9/17/61 8/13/62 14/1/63 18/6/64
f 3/18/65 4/20/66 19/7/67 17/5/68
f 10/19/69 9/17/70 18/6/71 20/8/72
f 11/21/73 10/19/74 20/8/75 21/9/76
f 4/20/77 5/22/78 22/10/79 19/7/80
f 5/22/81 6/24/82 23/11/83 22/10/84
f 12/23/85 11/21/86 21/9/87 24/12/88
f 6/24/89 1/15/90 15/3/91 23/11/92
f 7/16/93 12/23/94 24/12/95 13/2/96
f 25/25/97 26/26/98 42/27/99
f 26/26/100 27/28/101 41/29/102
f 27/28/103 45/30/104 41/29/105
f 28/31/106 39/32/107 40/33/108
f 28/31/109 29/34/110 38/35/111 39/32/112
f 29/34/113 37/36/114 38/35/115
f 29/34/116 30/37/117 44/38/118 37/36/119
f 30/37/120 43/39/121 44/38/122
f 30/37/123 25/25/124 46/40/125 43/39/126
f 26/26/127 29/34/128 28/31/129 27/28/130
f 31/41/131 32/42/132 35/43/133 36/44/134
f 38/35/135 37/36/136 35/43/137
f 39/32/138 38/35/139 35/43/140 34/45/141
f 40/33/142 39/32/143 34/45/144
f 41/29/145 45/30/146 33/46/147
f 32/42/148 41/29/149 33/46/150
f 42/27/151 32/42/152 31/41/153
f 43/39/154 46/40/155 31/41/156 36/44/157
f 44/38/158 43/39/159 36/44/160
f 37/36/161 44/38/162 36/44/163 35/43/164
f 27/28/165 28/31/166 40/33/167 45/30/168
f 33/46/169 45/30/170 40/33/171 34/45/172
f 25/25/173 42/27/174 46/40/175
f 31/41/176 46/40/177 42/27/178
f 35/43/179 32/42/180 33/46/181 34/45/182
f 25/25/183 30/37/184 29/34/185 26/26/186
f 32/47/187 42/48/188 54/49/189 48/50/190
f 41/51/191 32/47/192 48/50/193 56/52/194
f 26/53/195 41/51/196 55/54/197 47/55/198
f 42/48/199 26/53/200 47/55/201 53/56/202
f 49/57/203 50/58/204 55/54/205 56/52/206
f 62/59/207 61/60/208 63/61/209 64/62/210
f 51/63/211 52/64/212 54/49/213 53/56/214
f 47/55/215 50/58/216 51/63/217
f 52/64/218 49/57/219 48/50/220
f 54/49/221 52/64/222 48/50/223
f 49/57/224 56/52/225 48/50/226
f 47/55/227 55/54/228 50/58/229
f 51/63/230 53/56/231 47/55/232
f 53/56/233 54/49/234 42/48/235
f 55/54/236 41/51/237 56/52/238
f 50/58/239 49/57/240 57/65/241 58/66/242
f 49/57/243 52/64/244 59/67/245 57/65/246
f 52/64/247 51/63/248 60/68/249 59/67/250
f 51/63/251 50/58/252 58/66/253 60/68/254
f 58/66/255 57/65/256 61/60/257 62/59/258
f 57/65/259 59/67/260 63/61/261 61/60/262
f 59/67/263 60/68/264 64/62/265 63/61/266
f 60/68/267 58/66/268 62/59/269 64/62/270
