# This file uses centimeters as units for non-parametric coordinates.

v 2.477292 2.437196 -4.290779
v -2.477292 2.437196 -4.290779
v -4.954558 2.437196 0.000000
v -2.477292 2.437196 4.290779
v 2.477292 2.437196 4.290779
v 4.954584 2.437196 0.000000
v 0.000000 2.437196 0.000000
v -3.049816 3.632850 5.282432
v 3.049816 3.632850 5.282432
v 6.099631 3.632850 0.000000
v 3.049816 3.632850 -5.282407
v -3.049816 3.632850 -5.282407
v -6.099631 3.632850 0.000000
v 6.585892 15.857616 -0.000001
v 3.292946 15.857616 -5.703520
v -3.292946 15.857616 -5.703520
v -6.585892 15.857616 -0.000001
v -3.292946 15.857616 5.703546
v 3.292946 15.857616 5.703546
vt 0.026896 0.230296
vt 0.026896 0.230296
vt 0.026896 0.230296
vt 0.026896 0.230296
vt 0.026896 0.230296
vt 0.026896 0.230296
vt 0.026896 0.230296
vt 0.026896 0.230296
vt 0.026896 0.230296
vt 0.026896 0.230296
vt 0.026896 0.230296
vt 0.026896 0.230296
vt 0.026896 0.230296
vt 0.026896 0.230296
vt 0.026896 0.230296
vt 0.026896 0.230296
vt 0.026896 0.230296
vt 0.026896 0.230296
vt 0.026896 0.230296
vt 0.026896 0.230296
vt 0.026896 0.230296
vt 0.026896 0.230296
vt 0.026896 0.230296
vt 0.026896 0.230296
vt 0.026896 0.230296
vt 0.026896 0.230296
vt 0.026896 0.230296
vt 0.026896 0.230296
vn 0.000000 -1.000000 0.000000
vn 0.000000 -1.000000 0.000000
vn 0.000000 -1.000000 0.000000
vn 0.000000 -1.000000 0.000000
vn 0.000000 -1.000000 0.000000
vn 0.000000 -1.000000 0.000000
vn 0.000000 -1.000000 0.000000
vn 0.000000 -1.000000 0.000000
vn 0.000000 -1.000000 0.000000
vn 0.000000 -1.000000 0.000000
vn 0.000000 -1.000000 0.000000
vn 0.000000 -1.000000 0.000000
vn 0.000000 -1.000000 0.000000
vn 0.000000 -1.000000 0.000000
vn 0.000000 -1.000000 0.000000
vn 0.000000 -1.000000 0.000000
vn 0.000000 -1.000000 0.000000
vn 0.000000 -1.000000 0.000000
vn 0.000000 -0.638388 0.769715
vn 0.000000 -0.638388 0.769715
vn 0.000000 -0.638388 0.769715
vn 0.000000 -0.638388 0.769715
vn 0.666595 -0.638384 0.384860
vn 0.666595 -0.638384 0.384860
vn 0.666595 -0.638384 0.384860
vn 0.666595 -0.638384 0.384860
vn 0.666596 -0.638381 -0.384862
vn 0.666596 -0.638381 -0.384862
vn 0.666596 -0.638381 -0.384862
vn 0.666596 -0.638381 -0.384862
vn 0.000000 -0.638378 -0.769723
vn 0.000000 -0.638378 -0.769723
vn 0.000000 -0.638378 -0.769723
vn 0.000000 -0.638378 -0.769723
vn -0.666594 -0.638386 -0.384858
vn -0.666594 -0.638386 -0.384858
vn -0.666594 -0.638386 -0.384858
vn -0.666594 -0.638386 -0.384858
vn -0.666593 -0.638388 0.384857
vn -0.666593 -0.638388 0.384857
vn -0.666593 -0.638388 0.384857
vn -0.666593 -0.638388 0.384857
vn 0.865511 -0.034427 -0.499706
vn 0.865511 -0.034427 -0.499706
vn 0.865511 -0.034427 -0.499706
vn 0.865511 -0.034427 -0.499706
vn 0.000000 -0.034427 -0.999407
vn 0.000000 -0.034427 -0.999407
vn 0.000000 -0.034427 -0.999407
vn 0.000000 -0.034427 -0.999407
vn -0.865511 -0.034427 -0.499706
vn -0.865511 -0.034427 -0.499706
vn -0.865511 -0.034427 -0.499706
vn -0.865511 -0.034427 -0.499706
vn -0.865512 -0.034427 0.499704
vn -0.865512 -0.034427 0.499704
vn -0.865512 -0.034427 0.499704
vn -0.865512 -0.034427 0.499704
vn 0.000000 -0.034427 0.999407
vn 0.000000 -0.034427 0.999407
vn 0.000000 -0.034427 0.999407
vn 0.000000 -0.034427 0.999407
vn 0.865512 -0.034427 0.499704
vn 0.865512 -0.034427 0.499704
vn 0.865512 -0.034427 0.499704
vn 0.865512 -0.034427 0.499704
vn 0.000000 1.000000 0.000000
vn 0.000000 1.000000 0.000000
vn 0.000000 1.000000 0.000000
vn 0.000000 1.000000 0.000000
vn 0.000000 1.000000 0.000000
vn 0.000000 1.000000 0.000000
vn 0.000000 1.000000 0.000000
vn 0.000000 1.000000 0.000000
s off
f 2/2/1 1/1/2 7/14/3
f 3/3/4 2/2/5 7/14/6
f 4/4/7 3/3/8 7/14/9
f 5/5/10 4/4/11 7/14/12
f 6/6/13 5/5/14 7/14/15
f 1/1/16 6/6/17 7/14/18
f 4/10/19 5/11/20 9/16/21 8/15/22
f 5/11/23 6/12/24 10/17/25 9/16/26
f 6/12/27 1/13/28 11/18/29 10/17/30
f 1/7/31 2/8/32 12/20/33 11/19/34
f 2/8/35 3/9/36 13/21/37 12/20/38
f 3/9/39 4/10/40 8/15/41 13/21/42
f 15/24/43 14/22/44 10/17/45 11/18/46
f 11/19/47 12/20/48 16/25/49 15/23/50
f 13/21/51 17/26/52 16/25/53 12/20/54
f 18/27/55 17/26/56 13/21/57 8/15/58
f 8/15/59 9/16/60 19/28/61 18/27/62
f 10/17/63 14/22/64 19/28/65 9/16/66
f 17/26/67 14/22/68 15/23/69 16/25/70
f 19/28/71 14/22/72 17/26/73 18/27/74
