# This file uses centimeters as units for non-parametric coordinates.

v 0.522283 0.904611 -49.337231
v -0.522283 0.904611 -49.337231
v -1.044565 -0.000007 -49.337231
v -0.522283 -0.904618 -49.337231
v 0.522283 -0.904618 -49.337231
v 1.044565 -0.000007 -49.337231
v 0.000000 -0.000007 -49.337231
v 0.522283 0.904618 -34.349167
v -0.522283 0.904618 -34.349167
v -1.044565 0.000000 -34.349167
v -0.522283 -0.904611 -34.349167
v 0.522283 -0.904611 -34.349167
v 1.044565 0.000000 -34.349167
v 1.044565 -0.000007 -46.727070
v 0.522283 0.904611 -46.727070
v -0.522283 0.904611 -46.727070
v -1.044565 -0.000007 -46.727070
v -0.522283 -0.904618 -46.727070
v 0.522283 -0.904618 -46.727070
v 0.522283 3.894211 -49.543098
v -0.522283 3.894211 -49.543098
v -0.522283 3.894211 -37.165192
v 0.522283 3.894211 -37.165192
v -0.522283 -3.894225 -49.543098
v 0.522283 -3.894225 -49.543098
v 0.522283 -3.894225 -37.165192
v -0.522283 -3.894225 -37.165192
v 0.522283 0.904611 -47.989235
v -0.522283 0.904611 -47.989235
v -1.044565 -0.000007 -47.989235
v -0.522283 -0.904618 -47.989235
v 0.522283 -0.904618 -47.989235
v 1.044565 -0.000007 -47.989235
v 0.522283 2.399415 -40.812458
v -0.522283 2.399415 -40.812458
v -0.522283 0.904611 -39.404442
v -1.044565 -0.000007 -39.404442
v -0.522283 -0.904618 -39.404442
v -0.522283 -3.858473 -42.670284
v 0.522283 -3.858473 -42.670284
v 0.522283 -0.904618 -39.404442
v 1.044565 -0.000007 -39.404442
v 0.522283 0.904611 -39.404442
v 0.522283 3.599857 -42.752186
v -0.522283 3.599857 -42.752186
v -0.522283 4.110549 -41.714943
v 0.522283 4.110549 -41.714943
v -0.522283 -3.894225 -47.334320
v 0.522283 -3.894225 -47.334320
v 0.522283 -2.399429 -44.597008
v 0.522283 -4.336439 -46.270889
v -0.522283 -4.336439 -46.270889
v -0.522283 -2.399429 -44.597008
v 1.335735 -0.000007 -47.932442
v 0.667868 1.156778 -47.932442
v 0.667868 1.156778 -46.783863
v 1.335735 -0.000007 -46.783863
v -0.667867 1.156778 -47.932442
v -0.667867 1.156778 -46.783863
v -1.335735 -0.000007 -47.932442
v -1.335735 -0.000007 -46.783863
v -0.667868 -1.156785 -47.932442
v -0.667868 -1.156785 -46.783863
v 0.667867 -1.156785 -47.932442
v 0.667867 -1.156785 -46.783863
v -0.522283 0.904618 40.033932
v 0.522283 0.904618 40.033932
v 1.044565 0.000000 40.033932
v 0.522283 -0.904611 40.033932
v -0.522283 -0.904611 40.033932
v -1.044565 0.000000 40.033932
v 0.522283 0.904618 -29.370197
v -0.522283 0.904618 -29.370197
v -1.044565 0.000000 -29.370197
v -0.522283 -0.904611 -29.370197
v 0.522283 -0.904611 -29.370197
v 1.044565 0.000000 -29.370197
v 0.522283 -0.904611 -24.762760
v -0.522283 -0.904611 -24.762760
v -1.044565 0.000000 -24.762760
v -0.522283 0.904618 -24.762760
v 0.522283 0.904618 -24.762760
v 1.044565 0.000000 -24.762760
vt 0.028936 0.275165
vt 0.028936 0.275165
vt 0.028936 0.275165
vt 0.028936 0.275165
vt 0.028936 0.275165
vt 0.028936 0.275165
vt 0.028936 0.275165
vt 0.028936 0.275165
vt 0.028936 0.275165
vt 0.028936 0.275165
vt 0.028936 0.275165
vt 0.028936 0.275165
vt 0.028936 0.275165
vt 0.028936 0.275165
vt 0.028936 0.275165
vt 0.028936 0.275165
vt 0.028936 0.275165
vt 0.028936 0.275165
vt 0.028936 0.275165
vt 0.028936 0.275165
vt 0.028936 0.275165
vt 0.028936 0.275165
vt 0.028936 0.275165
vt 0.095245 0.212911
vt 0.028936 0.275165
vt 0.028936 0.275165
vt 0.028936 0.275165
vt 0.028936 0.275165
vt 0.215097 0.309624
vt 0.215097 0.309624
vt 0.217102 0.275753
vt 0.217102 0.275753
vt 0.215097 0.309624
vt 0.215097 0.309624
vt 0.217102 0.275753
vt 0.217102 0.275753
vt 0.028936 0.275165
vt 0.028936 0.275165
vt 0.028936 0.275165
vt 0.028936 0.275165
vt 0.028936 0.275165
vt 0.028936 0.275165
vt 0.028936 0.275165
vt 0.215097 0.309624
vt 0.215097 0.309624
vt 0.028936 0.275165
vt 0.028936 0.275165
vt 0.028936 0.275165
vt 0.215097 0.309624
vt 0.215097 0.309624
vt 0.028936 0.275165
vt 0.028936 0.275165
vt 0.028936 0.275165
vt 0.215097 0.309624
vt 0.215097 0.309624
vt 0.215097 0.309624
vt 0.217102 0.275753
vt 0.217102 0.275753
vt 0.215097 0.309624
vt 0.215097 0.309624
vt 0.215097 0.309624
vt 0.215097 0.309624
vt 0.215097 0.309624
vt 0.215097 0.309624
vt 0.215097 0.309624
vt 0.217102 0.275753
vt 0.217102 0.275753
vt 0.217102 0.275753
vt 0.217102 0.275753
vt 0.217102 0.275753
vt 0.217102 0.275753
vt 0.217102 0.275753
vt 0.217102 0.275753
vt 0.217102 0.275753
vt 0.217102 0.275753
vt 0.217102 0.275753
vt 0.217102 0.275753
vt 0.215097 0.309624
vt 0.215097 0.309624
vt 0.215097 0.309624
vt 0.215097 0.309624
vt 0.215097 0.309624
vt 0.215097 0.309624
vt 0.095245 0.212910
vt 0.095245 0.212910
vt 0.095245 0.212911
vt 0.095245 0.212910
vt 0.095245 0.212910
vt 0.095245 0.212911
vt 0.095245 0.212911
vt 0.095245 0.212910
vt 0.095245 0.212910
vt 0.095245 0.212910
vt 0.095245 0.212910
vt 0.095245 0.212911
vt 0.095245 0.212910
vt 0.095245 0.212910
vt 0.095245 0.212911
vt 0.095245 0.212910
vt 0.095245 0.212910
vt 0.095245 0.212911
vt 0.095245 0.212911
vt 0.095245 0.212910
vt 0.095245 0.212910
vt 0.095245 0.212910
vt 0.095245 0.212911
vt 0.028936 0.275165
vt 0.028936 0.275165
vt 0.028936 0.275165
vt 0.028936 0.275165
vt 0.028936 0.275165
vt 0.028936 0.275165
vt 0.028936 0.275165
vt 0.028936 0.275165
vt 0.028936 0.275165
vt 0.028936 0.275165
vt 0.028936 0.275165
vt 0.028936 0.275165
vt 0.028936 0.275165
vt 0.028936 0.275165
vt 0.028936 0.275165
vt 0.028936 0.275165
vt 0.028936 0.275165
vt 0.028936 0.275165
vt 0.028936 0.275165
vt 0.028936 0.275165
vt 0.028936 0.275165
vt 0.103745 0.178426
vt 0.103745 0.178426
vt 0.103745 0.178426
vt 0.103745 0.178426
vt 0.103745 0.178426
vt 0.103745 0.178426
vt 0.103745 0.178426
vt 0.103745 0.178426
vt 0.103745 0.178426
vt 0.103745 0.178426
vt 0.103745 0.178426
vt 0.103745 0.178426
vn 0.000000 1.000000 0.000000
vn 0.000000 1.000000 0.000000
vn 0.000000 1.000000 0.000000
vn 0.000000 1.000000 0.000000
vn -0.866025 0.500001 0.000000
vn -0.866025 0.500001 0.000000
vn -0.866025 0.500001 0.000000
vn -0.866025 0.500001 0.000000
vn -0.866023 -0.500004 0.000000
vn -0.866023 -0.500004 0.000000
vn -0.866023 -0.500004 0.000000
vn -0.866023 -0.500004 0.000000
vn 0.000000 -1.000000 0.000000
vn 0.000000 -1.000000 0.000000
vn 0.000000 -1.000000 0.000000
vn 0.000000 -1.000000 0.000000
vn 0.866023 -0.500004 0.000000
vn 0.866023 -0.500004 0.000000
vn 0.866023 -0.500004 0.000000
vn 0.866023 -0.500004 0.000000
vn 0.866025 0.500001 0.000000
vn 0.866025 0.500001 0.000000
vn 0.866025 0.500001 0.000000
vn 0.866025 0.500001 0.000000
vn 0.000000 0.000000 -1.000000
vn 0.000000 0.000000 -1.000000
vn 0.000000 0.000000 -1.000000
vn 0.000000 0.000000 -1.000000
vn 0.000000 0.000000 -1.000000
vn 0.000000 0.000000 -1.000000
vn 0.000000 0.000000 -1.000000
vn 0.000000 0.000000 -1.000000
vn 0.000000 0.000000 -1.000000
vn 0.000000 0.000000 -1.000000
vn 0.000000 0.000000 -1.000000
vn 0.000000 0.000000 -1.000000
vn 0.000000 0.000000 -1.000000
vn 0.000000 0.000000 -1.000000
vn 0.000000 0.000000 -1.000000
vn 0.000000 0.000000 -1.000000
vn 0.000000 0.000000 -1.000000
vn 0.000000 0.000000 -1.000000
vn 0.000000 -0.466510 -0.884516
vn 0.000000 -0.466510 -0.884516
vn 0.000000 -0.466510 -0.884516
vn 0.000000 -0.466510 -0.884516
vn -0.866025 0.500001 -0.000001
vn -0.866025 0.500001 -0.000001
vn -0.866025 0.500001 -0.000001
vn -0.866025 0.500001 -0.000001
vn -0.866023 -0.500004 0.000001
vn -0.866023 -0.500004 0.000001
vn -0.866023 -0.500004 0.000001
vn -0.866023 -0.500004 0.000001
vn 0.000000 -0.999979 -0.006494
vn 0.000000 -0.999979 -0.006494
vn 0.000000 -0.999979 -0.006494
vn 0.000000 -0.999979 -0.006494
vn 0.866023 -0.500004 0.000001
vn 0.866023 -0.500004 0.000001
vn 0.866023 -0.500004 0.000001
vn 0.866023 -0.500004 0.000001
vn 0.866025 0.500001 -0.000001
vn 0.866025 0.500001 -0.000001
vn 0.866025 0.500001 -0.000001
vn 0.866025 0.500001 -0.000001
vn 0.866026 0.499998 0.000000
vn 0.866026 0.499998 0.000000
vn 0.866026 0.499998 0.000000
vn 0.866026 0.499998 0.000000
vn 0.000000 1.000000 0.000000
vn 0.000000 1.000000 0.000000
vn 0.000000 1.000000 0.000000
vn 0.000000 1.000000 0.000000
vn -0.866026 0.499998 0.000000
vn -0.866026 0.499998 0.000000
vn -0.866026 0.499998 0.000000
vn -0.866026 0.499998 0.000000
vn -0.866025 -0.500000 0.000000
vn -0.866025 -0.500000 0.000000
vn -0.866025 -0.500000 0.000000
vn -0.866025 -0.500000 0.000000
vn 0.000000 -1.000000 0.000000
vn 0.000000 -1.000000 0.000000
vn 0.000000 -1.000000 0.000000
vn 0.000000 -1.000000 0.000000
vn 0.866025 -0.500001 0.000000
vn 0.866025 -0.500001 0.000000
vn 0.866025 -0.500001 0.000000
vn 0.866025 -0.500001 0.000000
vn 0.000000 -0.685660 -0.727922
vn 0.000000 -0.685660 -0.727922
vn 0.000000 -0.685660 -0.727922
vn 0.000000 -0.685660 -0.727922
vn 0.000000 0.685661 0.727921
vn 0.000000 0.685661 0.727921
vn 0.000000 0.685661 0.727921
vn 0.000000 0.685661 0.727921
vn 0.000000 0.685659 -0.727923
vn 0.000000 0.685659 -0.727923
vn 0.000000 0.685659 -0.727923
vn 0.000000 0.685659 -0.727923
vn 1.000000 0.000000 0.000000
vn 1.000000 0.000000 0.000000
vn 1.000000 0.000000 0.000000
vn 1.000000 0.000000 0.000000
vn 0.000000 -0.685658 0.727924
vn 0.000000 -0.685658 0.727924
vn 0.000000 -0.685658 0.727924
vn 0.000000 -0.685658 0.727924
vn -1.000000 0.000000 0.000000
vn -1.000000 0.000000 0.000000
vn -1.000000 0.000000 0.000000
vn -1.000000 0.000000 0.000000
vn 0.000000 1.000000 0.000000
vn 0.000000 1.000000 0.000000
vn 0.000000 1.000000 0.000000
vn 0.000000 1.000000 0.000000
vn -0.866025 0.500001 0.000000
vn -0.866025 0.500001 0.000000
vn -0.866025 0.500001 0.000000
vn -0.866025 0.500001 0.000000
vn -0.866024 -0.500003 0.000000
vn -0.866024 -0.500003 0.000000
vn -0.866024 -0.500003 0.000000
vn -0.866024 -0.500003 0.000000
vn 0.000000 -1.000000 0.000000
vn 0.000000 -1.000000 0.000000
vn 0.000000 -1.000000 0.000000
vn 0.000000 -1.000000 0.000000
vn 0.866024 -0.500003 0.000000
vn 0.866024 -0.500003 0.000000
vn 0.866024 -0.500003 0.000000
vn 0.866024 -0.500003 0.000000
vn 0.866025 0.500001 0.000000
vn 0.866025 0.500001 0.000000
vn 0.866025 0.500001 0.000000
vn 0.866025 0.500001 0.000000
vn 0.000000 0.850332 0.526247
vn 0.000000 0.850332 0.526247
vn 0.000000 0.850332 0.526247
vn 0.000000 0.850332 0.526247
vn -0.866025 0.500001 0.000000
vn -0.866025 0.500001 0.000000
vn -0.866025 0.500001 0.000000
vn -0.866025 0.500001 0.000000
vn -0.866023 -0.500004 0.000000
vn -0.866023 -0.500004 0.000000
vn -0.866023 -0.500004 0.000000
vn -0.866023 -0.500004 0.000000
vn 0.866023 -0.500004 0.000000
vn 0.866023 -0.500004 0.000000
vn 0.866023 -0.500004 0.000000
vn 0.866023 -0.500004 0.000000
vn 0.866025 0.500000 0.000000
vn 0.866025 0.500000 0.000000
vn 0.866025 0.500000 0.000000
vn 0.866025 0.500000 0.000000
vn 0.000000 0.999062 0.043305
vn 0.000000 0.999062 0.043305
vn 0.000000 0.999062 0.043305
vn 0.000000 0.999062 0.043305
vn -1.000000 0.000000 0.000000
vn -1.000000 0.000000 0.000000
vn -1.000000 0.000000 0.000000
vn -1.000000 0.000000 0.000000
vn -1.000000 -0.000000 0.000000
vn -1.000000 -0.000000 0.000000
vn -1.000000 -0.000000 0.000000
vn -1.000000 -0.000000 0.000000
vn 0.000000 0.998872 0.047496
vn 0.000000 0.998872 0.047496
vn 0.000000 0.998872 0.047496
vn 0.000000 0.998872 0.047496
vn 1.000000 -0.000000 0.000000
vn 1.000000 -0.000000 0.000000
vn 1.000000 -0.000000 0.000000
vn 1.000000 -0.000000 0.000000
vn 1.000000 0.000000 0.000000
vn 1.000000 0.000000 0.000000
vn 1.000000 0.000000 0.000000
vn 1.000000 0.000000 0.000000
vn -1.000000 -0.000000 0.000000
vn -1.000000 -0.000000 0.000000
vn -1.000000 -0.000000 0.000000
vn -1.000000 -0.000000 0.000000
vn 0.000000 -1.000000 0.000000
vn 0.000000 -1.000000 0.000000
vn 0.000000 -1.000000 0.000000
vn 0.000000 -1.000000 0.000000
vn 1.000000 0.000000 0.000000
vn 1.000000 0.000000 0.000000
vn 1.000000 0.000000 0.000000
vn 1.000000 0.000000 0.000000
vn 1.000000 0.000000 0.000000
vn 1.000000 0.000000 0.000000
vn 1.000000 0.000000 0.000000
vn 1.000000 0.000000 0.000000
vn 0.000000 -0.991304 0.131592
vn 0.000000 -0.991304 0.131592
vn 0.000000 -0.991304 0.131592
vn 0.000000 -0.991304 0.131592
vn -1.000000 -0.000000 0.000000
vn -1.000000 -0.000000 0.000000
vn -1.000000 -0.000000 0.000000
vn -1.000000 -0.000000 0.000000
vn 0.000000 0.653846 -0.756628
vn 0.000000 0.653846 -0.756628
vn 0.000000 0.653846 -0.756628
vn 0.000000 0.653846 -0.756628
vn 0.000000 -0.877664 0.479276
vn 0.000000 -0.877664 0.479276
vn 0.000000 -0.877664 0.479276
vn 0.000000 -0.877664 0.479276
vn 1.000000 0.000000 0.000000
vn 1.000000 0.000000 0.000000
vn 1.000000 0.000000 0.000000
vn 1.000000 0.000000 0.000000
vn 1.000000 0.000000 0.000000
vn 1.000000 0.000000 0.000000
vn 1.000000 0.000000 0.000000
vn 1.000000 0.000000 0.000000
vn 1.000000 0.000000 0.000000
vn -1.000000 0.000000 0.000000
vn -1.000000 0.000000 0.000000
vn -1.000000 0.000000 0.000000
vn -1.000000 0.000000 0.000000
vn -1.000000 0.000000 0.000000
vn -1.000000 0.000000 0.000000
vn -1.000000 0.000000 0.000000
vn -1.000000 0.000000 0.000000
vn -1.000000 0.000000 0.000000
vn 0.190283 0.109861 -0.975563
vn 0.190283 0.109861 -0.975563
vn 0.190283 0.109861 -0.975563
vn 0.190283 0.109861 -0.975563
vn 0.190274 0.109861 0.975565
vn 0.190274 0.109861 0.975565
vn 0.190274 0.109861 0.975565
vn 0.190274 0.109861 0.975565
vn 0.000000 0.219717 -0.975564
vn 0.000000 0.219717 -0.975564
vn 0.000000 0.219717 -0.975564
vn 0.000000 0.219717 -0.975564
vn 0.000000 0.219717 0.975564
vn 0.000000 0.219717 0.975564
vn 0.000000 0.219717 0.975564
vn 0.000000 0.219717 0.975564
vn -0.190289 0.109861 -0.975562
vn -0.190289 0.109861 -0.975562
vn -0.190289 0.109861 -0.975562
vn -0.190289 0.109861 -0.975562
vn -0.190271 0.109861 0.975565
vn -0.190271 0.109861 0.975565
vn -0.190271 0.109861 0.975565
vn -0.190271 0.109861 0.975565
vn -0.190272 -0.109861 -0.975565
vn -0.190272 -0.109861 -0.975565
vn -0.190272 -0.109861 -0.975565
vn -0.190272 -0.109861 -0.975565
vn -0.190296 -0.109861 0.975560
vn -0.190296 -0.109861 0.975560
vn -0.190296 -0.109861 0.975560
vn -0.190296 -0.109861 0.975560
vn 0.000000 -0.219717 -0.975564
vn 0.000000 -0.219717 -0.975564
vn 0.000000 -0.219717 -0.975564
vn 0.000000 -0.219717 -0.975564
vn 0.000000 -0.219717 0.975564
vn 0.000000 -0.219717 0.975564
vn 0.000000 -0.219717 0.975564
vn 0.000000 -0.219717 0.975564
vn 0.190272 -0.109861 -0.975565
vn 0.190272 -0.109861 -0.975565
vn 0.190272 -0.109861 -0.975565
vn 0.190272 -0.109861 -0.975565
vn 0.190296 -0.109861 0.975560
vn 0.190296 -0.109861 0.975560
vn 0.190296 -0.109861 0.975560
vn 0.190296 -0.109861 0.975560
vn 0.000000 1.000000 0.000000
vn 0.000000 1.000000 0.000000
vn 0.000000 1.000000 0.000000
vn 0.000000 1.000000 0.000000
vn -0.866025 0.500001 0.000000
vn -0.866025 0.500001 0.000000
vn -0.866025 0.500001 0.000000
vn -0.866025 0.500001 0.000000
vn -0.866023 -0.500004 0.000000
vn -0.866023 -0.500004 0.000000
vn -0.866023 -0.500004 0.000000
vn -0.866023 -0.500004 0.000000
vn 0.000000 -1.000000 0.000000
vn 0.000000 -1.000000 0.000000
vn 0.000000 -1.000000 0.000000
vn 0.000000 -1.000000 0.000000
vn 0.866023 -0.500004 0.000000
vn 0.866023 -0.500004 0.000000
vn 0.866023 -0.500004 0.000000
vn 0.866023 -0.500004 0.000000
vn 0.866025 0.500001 0.000000
vn 0.866025 0.500001 0.000000
vn 0.866025 0.500001 0.000000
vn 0.866025 0.500001 0.000000
vn 0.000000 -1.000000 0.000000
vn 0.000000 -1.000000 0.000000
vn 0.000000 -1.000000 0.000000
vn 0.000000 -1.000000 0.000000
vn -0.866023 -0.500004 0.000000
vn -0.866023 -0.500004 0.000000
vn -0.866023 -0.500004 0.000000
vn -0.866023 -0.500004 0.000000
vn -0.866025 0.500001 0.000000
vn -0.866025 0.500001 0.000000
vn -0.866025 0.500001 0.000000
vn -0.866025 0.500001 0.000000
vn 0.000000 1.000000 0.000000
vn 0.000000 1.000000 0.000000
vn 0.000000 1.000000 0.000000
vn 0.000000 1.000000 0.000000
vn 0.866025 0.500001 0.000000
vn 0.866025 0.500001 0.000000
vn 0.866025 0.500001 0.000000
vn 0.866025 0.500001 0.000000
vn 0.866023 -0.500004 0.000000
vn 0.866023 -0.500004 0.000000
vn 0.866023 -0.500004 0.000000
vn 0.866023 -0.500004 0.000000
s off
f 72/128/1 73/129/2 81/130/3 82/131/4
f 73/129/5 74/132/6 80/133/7 81/130/8
f 74/132/9 75/134/10 79/135/11 80/133/12
f 75/134/13 76/136/14 78/137/15 79/135/16
f 76/136/17 77/138/18 83/139/19 78/137/20
f 77/138/21 72/128/22 82/131/23 83/139/24
f 2/2/25 1/1/26 7/14/27
f 3/3/28 2/2/29 7/14/30
f 4/4/31 3/3/32 7/14/33
f 5/5/34 4/4/35 7/14/36
f 6/6/37 5/5/38 7/14/39
f 1/1/40 6/6/41 7/14/42
f 34/31/43 35/32/44 46/35/45 47/36/46
f 36/46/47 37/47/48 10/18/49 9/17/50
f 37/47/51 38/48/52 11/19/53 10/18/54
f 39/57/55 40/58/56 26/66/57 27/67/58
f 41/51/59 42/52/60 13/21/61 12/20/62
f 42/52/63 43/53/64 8/15/65 13/21/66
f 54/24/67 55/84/68 56/85/69 57/86/70
f 55/84/71 58/87/72 59/88/73 56/85/74
f 58/87/75 60/89/76 61/90/77 59/88/78
f 60/89/79 62/91/80 63/92/81 61/90/82
f 62/91/83 64/93/84 65/94/85 63/92/86
f 64/93/87 54/24/88 57/86/89 65/94/90
f 15/29/91 16/30/92 21/33/93 20/34/94
f 9/68/95 8/69/96 23/70/97 22/71/98
f 18/44/99 19/45/100 25/49/101 24/50/102
f 40/58/103 41/72/104 12/73/105 26/66/106
f 12/73/107 11/74/108 27/67/109 26/66/110
f 11/74/111 38/75/112 39/57/113 27/67/114
f 1/7/115 2/8/116 29/39/117 28/38/118
f 2/8/119 3/9/120 30/40/121 29/39/122
f 3/9/123 4/10/124 31/41/125 30/40/126
f 4/10/127 5/11/128 32/42/129 31/41/130
f 5/11/131 6/12/132 33/43/133 32/42/134
f 6/12/135 1/13/136 28/37/137 33/43/138
f 44/54/139 45/55/140 35/56/141 34/59/142
f 16/25/143 17/26/144 37/47/145 36/46/146
f 17/26/147 18/27/148 38/48/149 37/47/150
f 19/28/151 14/22/152 42/52/153 41/51/154
f 14/22/155 15/23/156 43/53/157 42/52/158
f 20/34/159 21/33/160 45/55/161 44/54/162
f 16/30/163 35/56/164 45/55/165 21/33/166
f 46/35/167 35/32/168 9/68/169 22/71/170
f 47/36/171 46/35/172 22/71/173 23/70/174
f 8/69/175 34/31/176 47/36/177 23/70/178
f 44/54/179 34/59/180 15/29/181 20/34/182
f 48/60/183 53/61/184 18/44/185 24/50/186
f 24/50/187 25/49/188 49/62/189 48/60/190
f 19/45/191 50/63/192 49/62/193 25/49/194
f 51/64/195 50/63/196 41/65/197 40/78/198
f 52/79/199 51/64/200 40/78/201 39/80/202
f 39/80/203 38/81/204 53/61/205 52/79/206
f 52/79/207 53/61/208 50/63/209 51/64/210
f 53/61/211 48/60/212 49/62/213 50/63/214
f 8/69/215 43/76/216 34/31/217
f 15/29/218 34/59/219 43/82/220
f 19/45/221 41/65/222 50/63/223
f 18/44/224 53/61/225 38/81/226
f 16/30/227 36/83/228 35/56/229
f 9/68/230 35/32/231 36/77/232
f 33/95/233 28/96/234 55/84/235 54/24/236
f 15/97/237 14/98/238 57/86/239 56/85/240
f 28/96/241 29/99/242 58/87/243 55/84/244
f 16/100/245 15/97/246 56/85/247 59/88/248
f 29/99/249 30/101/250 60/89/251 58/87/252
f 17/102/253 16/100/254 59/88/255 61/90/256
f 30/101/257 31/103/258 62/91/259 60/89/260
f 18/104/261 17/102/262 61/90/263 63/92/264
f 31/103/265 32/105/266 64/93/267 62/91/268
f 19/106/269 18/104/270 63/92/271 65/94/272
f 32/105/273 33/95/274 54/24/275 64/93/276
f 14/98/277 19/106/278 65/94/279 57/86/280
f 8/16/281 9/17/282 73/116/283 72/115/284
f 9/17/285 10/18/286 74/117/287 73/116/288
f 10/18/289 11/19/290 75/118/291 74/117/292
f 11/19/293 12/20/294 76/119/295 75/118/296
f 12/20/297 13/21/298 77/120/299 76/119/300
f 13/21/301 8/15/302 72/114/303 77/120/304
f 79/122/305 78/121/306 69/111/307 70/112/308
f 80/123/309 79/122/310 70/112/311 71/113/312
f 81/124/313 80/123/314 71/113/315 66/107/316
f 82/126/317 81/124/318 66/107/319 67/109/320
f 83/127/321 82/125/322 67/108/323 68/110/324
f 78/121/325 83/127/326 68/110/327 69/111/328
