# This file uses centimeters as units for non-parametric coordinates.

v 0.058312 44.113140 -16.044668
v 9.738162 46.591385 0.533869
v 7.404680 44.879681 -12.200013
v 0.058312 47.215446 16.044668
v 7.404680 47.454704 12.200013
v -9.738162 43.023079 0.533869
v -7.404680 43.014072 -12.200013
v -7.404680 45.943024 12.200013
v 0.041820 47.976128 -11.506809
v 0.041820 49.757050 0.382877
v 6.983948 49.753456 0.382877
v 5.310439 48.525871 -8.749521
v 0.041820 50.201019 11.506809
v 5.310439 50.372604 8.749521
v -7.019907 48.213226 0.416580
v -5.310439 47.187912 -8.749521
v -5.310439 49.288467 8.749521
v -13.151496 43.161213 -0.144607
v -11.303164 42.966621 -8.040678
v -12.004856 45.350574 -0.194083
v -10.298925 45.285477 -6.426818
v -12.167165 44.392937 4.776525
v -11.283751 45.804146 3.321004
v -0.523056 44.711403 0.533869
v -8.846555 -0.048128 11.858394
v 8.857340 -0.047897 13.928427
v -8.818452 0.000000 -11.790335
v 8.818452 0.000000 -13.931298
v 11.639992 -0.052376 0.632664
v -11.660865 -0.063042 0.635511
v 0.069446 0.000000 0.635804
v 0.069446 0.000000 -24.016668
v 0.128742 6.442619 -19.146704
v 0.256677 7.437157 19.205658
v -10.003121 2.392523 12.062004
v 0.380550 9.748323 20.409758
v 9.666264 1.678625 14.388732
v 14.587204 4.101343 0.875608
v 8.738010 2.617270 -14.455559
v 0.350121 8.467192 -20.376776
v -9.651052 2.176353 -12.989724
v -14.697905 3.159374 0.899835
v -2.152529 0.000000 23.645216
v 2.256697 0.000000 24.180447
v 0.069446 1.951862 24.296974
v -8.928105 36.647354 -14.326582
v 0.090374 38.630112 -19.264715
v 8.812103 40.525707 -14.522399
v 11.914672 42.593475 0.660182
v 8.913862 43.089577 14.512033
v 0.069446 43.958862 19.263830
v -8.960377 38.505142 14.181007
v -12.009025 37.093807 0.667288
v 0.058312 45.582085 -16.044668
v 9.738162 48.060329 0.533869
v 7.404680 46.348625 -12.200013
v 0.058312 48.684391 16.044668
v 7.404680 48.923645 12.200013
v -9.738162 44.492023 0.533869
v -7.404680 44.483017 -12.200013
v -7.404680 47.411968 12.200013
v 0.041820 41.395027 -11.506809
v 0.041820 41.448235 0.382877
v 6.983948 43.172359 0.382877
v 5.310439 41.944771 -8.749521
v 0.041820 43.619919 11.506809
v 5.310439 43.791504 8.749521
v -6.983948 40.613266 0.382877
v -5.310439 40.606812 -8.749521
v -5.310439 42.707371 8.749521
v -10.759228 43.073387 -15.453037
v 0.020834 44.284378 -21.302460
v 0.034095 39.681297 -21.408821
v -10.834159 38.008698 -15.314474
v 10.716991 41.548191 -15.472622
v 10.728581 45.472889 -15.482098
v 14.413860 47.408333 0.564469
v 14.630617 43.495605 0.581129
v 10.840959 44.120590 15.576006
v 10.775761 48.396881 15.587845
v -0.001595 47.909004 21.234772
v -0.001595 44.421425 21.341206
v -10.916164 40.014751 15.328577
v -10.819183 46.193542 15.566615
v -14.627495 38.550110 0.613291
v -14.412258 43.251427 0.591470
v -2.853272 0.000000 -21.345118
v 3.913425 0.000000 -20.712385
v 0.069446 0.000000 -21.071825
v 0.069446 2.904608 -22.938852
v -10.965585 16.308414 13.652841
v 11.145121 17.121094 14.469129
v 0.706194 20.336086 -20.221720
v -16.487377 15.034303 0.994390
v -9.911481 19.120272 -13.674003
v 10.175391 19.648449 -15.099383
v 16.205866 16.719479 1.173861
v 0.680929 17.309330 20.218996
vt 0.048583 0.299571
vt 0.048634 0.299558
vt 0.048871 0.299566
vt 0.048919 0.299577
vt 0.048282 0.299564
vt 0.048402 0.299556
vt 0.048806 0.299587
vt 0.048526 0.299585
vt 0.048305 0.299576
vt 0.048634 0.299558
vt 0.048871 0.299566
vt 0.048919 0.299577
vt 0.048282 0.299564
vt 0.048402 0.299556
vt 0.048806 0.299587
vt 0.048526 0.299585
vt 0.048305 0.299576
vt 0.048806 0.299587
vt 0.048526 0.299585
vt 0.048526 0.299585
vt 0.048806 0.299587
vt 0.048305 0.299576
vt 0.048305 0.299576
vt 0.048577 0.299572
vt 0.005567 0.353929
vt 0.005444 0.353923
vt 0.005439 0.354413
vt 0.005572 0.354351
vt 0.006082 0.353838
vt 0.005746 0.353831
vt 0.005797 0.353818
vt 0.006034 0.353826
vt 0.006180 0.354792
vt 0.006130 0.354741
vt 0.006105 0.354766
vt 0.005744 0.354754
vt 0.006099 0.354785
vt 0.006009 0.354733
vt 0.005793 0.354702
vt 0.006031 0.353940
vt 0.005797 0.353924
vt 0.005799 0.354327
vt 0.006024 0.354323
vt 0.005927 0.354787
vt 0.005674 0.354760
vt 0.005679 0.354412
vt 0.005946 0.354371
vt 0.005445 0.353825
vt 0.005565 0.353817
vt 0.005577 0.354666
vt 0.005800 0.354618
vt 0.005474 0.353957
vt 0.005687 0.353966
vt 0.005497 0.354407
vt 0.005910 0.354817
vt 0.006091 0.354800
vt 0.005690 0.354813
vt 0.006067 0.354677
vt 0.005689 0.353845
vt 0.005969 0.353848
vt 0.005468 0.353837
vt 0.005515 0.354746
vt 0.005437 0.354567
vt 0.005963 0.353971
vt 0.006083 0.353944
vt 0.006085 0.354356
vt 0.006018 0.354693
vt 0.006087 0.354643
vt 0.005404 0.354664
vt 0.005438 0.354751
vt 0.005470 0.354715
vt 0.005523 0.354782
vt 0.005455 0.354608
vt 0.005580 0.354697
vt 0.005969 0.353848
vt 0.006082 0.353838
vt 0.006083 0.353944
vt 0.005963 0.353971
vt 0.006031 0.353940
vt 0.006034 0.353826
vt 0.005797 0.353818
vt 0.005797 0.353924
vt 0.005567 0.353929
vt 0.005565 0.353817
vt 0.005445 0.353825
vt 0.005444 0.353923
vt 0.005474 0.353957
vt 0.005468 0.353837
vt 0.005689 0.353845
vt 0.005687 0.353966
vt 0.006034 0.353826
vt 0.005797 0.353818
vt 0.005565 0.353817
vt 0.005445 0.353825
vt 0.005468 0.353837
vt 0.006082 0.353838
vt 0.005969 0.353848
vt 0.005689 0.353845
vn -0.012511 0.989976 -0.140681
vn -0.012511 0.989976 -0.140681
vn -0.012511 0.989976 -0.140681
vn -0.012511 0.989976 -0.140681
vn -0.026537 0.998038 -0.056717
vn -0.026537 0.998038 -0.056717
vn -0.026537 0.998038 -0.056717
vn -0.026537 0.998038 -0.056717
vn -0.214278 0.965783 -0.146113
vn -0.214278 0.965783 -0.146113
vn -0.214278 0.965783 -0.146113
vn -0.214278 0.965783 -0.146113
vn -0.180907 0.981622 -0.060751
vn -0.180907 0.981622 -0.060751
vn -0.180907 0.981622 -0.060751
vn -0.180907 0.981622 -0.060751
vn 0.740619 0.634537 -0.221013
vn 0.740619 0.634537 -0.221013
vn 0.740619 0.634537 -0.221013
vn 0.740619 0.634537 -0.221013
vn 0.251135 0.737506 -0.626910
vn 0.251135 0.737506 -0.626910
vn 0.251135 0.737506 -0.626910
vn 0.251135 0.737506 -0.626910
vn 0.251706 0.808929 0.531299
vn 0.251706 0.808929 0.531299
vn 0.251706 0.808929 0.531299
vn 0.251706 0.808929 0.531299
vn 0.747812 0.656180 0.101020
vn 0.747812 0.656180 0.101020
vn 0.747812 0.656180 0.101020
vn 0.747812 0.656180 0.101020
vn -0.407660 0.694581 -0.592765
vn -0.407660 0.694581 -0.592765
vn -0.407660 0.694581 -0.592765
vn -0.407660 0.694581 -0.592765
vn -0.837360 0.504919 -0.209488
vn -0.837360 0.504919 -0.209488
vn -0.837360 0.504919 -0.209488
vn -0.837360 0.504919 -0.209488
vn -0.391936 0.767912 0.506653
vn -0.391936 0.767912 0.506653
vn -0.391936 0.767912 0.506653
vn -0.391936 0.767912 0.506653
vn -0.855968 0.512169 0.070724
vn -0.855968 0.512169 0.070724
vn -0.855968 0.512169 0.070724
vn -0.855968 0.512169 0.070724
vn -0.110023 -0.993111 -0.040327
vn -0.110023 -0.993111 -0.040327
vn -0.110023 -0.993111 -0.040327
vn -0.110023 -0.993111 -0.040327
vn -0.447883 0.879366 -0.161608
vn -0.447883 0.879366 -0.161608
vn -0.447883 0.879366 -0.161608
vn -0.447883 0.879366 -0.161608
vn -0.505328 0.686154 -0.523294
vn -0.505328 0.686154 -0.523294
vn -0.505328 0.686154 -0.523294
vn -0.505328 0.686154 -0.523294
vn -0.090358 -0.961701 0.258780
vn -0.090358 -0.961701 0.258780
vn -0.090358 -0.961701 0.258780
vn -0.090358 -0.961701 0.258780
vn -0.659494 0.698737 0.277191
vn -0.659494 0.698737 0.277191
vn -0.659494 0.698737 0.277191
vn -0.659494 0.698737 0.277191
vn -0.497042 0.867669 -0.009994
vn -0.497042 0.867669 -0.009994
vn -0.497042 0.867669 -0.009994
vn -0.497042 0.867669 -0.009994
vn 0.131446 -0.974762 0.180445
vn 0.131446 -0.974762 0.180445
vn 0.131446 -0.974762 0.180445
vn 0.131446 -0.974762 0.180445
vn 0.173154 -0.984177 0.037608
vn 0.173154 -0.984177 0.037608
vn 0.173154 -0.984177 0.037608
vn 0.173154 -0.984177 0.037608
vn 0.133322 -0.988602 0.069937
vn 0.133322 -0.988602 0.069937
vn 0.133322 -0.988602 0.069937
vn 0.133322 -0.988602 0.069937
vn 0.146602 -0.980491 0.130940
vn 0.146602 -0.980491 0.130940
vn 0.146602 -0.980491 0.130940
vn 0.146602 -0.980491 0.130940
vn 0.479122 0.041086 0.876786
vn 0.479122 0.041086 0.876786
vn 0.479122 0.041086 0.876786
vn 0.479122 0.041086 0.876786
vn -0.172786 0.983876 -0.046189
vn -0.172786 0.983876 -0.046189
vn -0.172786 0.983876 -0.046189
vn -0.172786 0.983876 -0.046189
vn 0.627494 0.270876 -0.729985
vn 0.627494 0.270876 -0.729985
vn 0.627494 0.270876 -0.729985
vn -0.001993 -0.999997 -0.001197
vn -0.001993 -0.999997 -0.001197
vn -0.001993 -0.999997 -0.001197
vn -0.001993 -0.999997 -0.001197
vn -0.001993 -0.999997 -0.001197
vn 0.954720 0.115843 -0.274027
vn 0.954720 0.115843 -0.274027
vn 0.954720 0.115843 -0.274027
vn 0.954720 0.115843 -0.274027
vn -0.920926 -0.073339 -0.382775
vn -0.920926 -0.073339 -0.382775
vn -0.920926 -0.073339 -0.382775
vn -0.920926 -0.073339 -0.382775
vn -0.185617 0.970339 -0.154879
vn -0.185617 0.970339 -0.154879
vn -0.185617 0.970339 -0.154879
vn -0.185617 0.970339 -0.154879
vn 0.934323 -0.107722 0.339759
vn 0.934323 -0.107722 0.339759
vn 0.934323 -0.107722 0.339759
vn 0.934323 -0.107722 0.339759
vn -0.945438 0.137165 0.295523
vn -0.945438 0.137165 0.295523
vn -0.945438 0.137165 0.295523
vn -0.945438 0.137165 0.295523
vn 0.002127 -0.999997 -0.001521
vn 0.002127 -0.999997 -0.001521
vn 0.002127 -0.999997 -0.001521
vn 0.002127 -0.999997 -0.001521
vn 0.002127 -0.999997 -0.001521
vn -0.736888 0.497321 -0.457895
vn -0.736888 0.497321 -0.457895
vn -0.736888 0.497321 -0.457895
vn -0.736888 0.497321 -0.457895
vn -0.132943 0.991033 -0.013396
vn -0.132943 0.991033 -0.013396
vn -0.132943 0.991033 -0.013396
vn -0.132943 0.991033 -0.013396
vn -0.091813 0.974368 -0.205371
vn -0.091813 0.974368 -0.205371
vn -0.091813 0.974368 -0.205371
vn -0.091813 0.974368 -0.205371
vn -0.540479 -0.071312 0.838330
vn -0.540479 -0.071312 0.838330
vn -0.540479 -0.071312 0.838330
vn -0.540479 -0.071312 0.838330
vn -0.506381 0.012523 -0.862219
vn -0.506381 0.012523 -0.862219
vn -0.506381 0.012523 -0.862219
vn -0.506381 0.012523 -0.862219
vn 0.513091 -0.046336 -0.857083
vn 0.513091 -0.046336 -0.857083
vn 0.513091 -0.046336 -0.857083
vn 0.513091 -0.046336 -0.857083
vn -0.118292 -0.190735 0.974488
vn -0.118292 -0.190735 0.974488
vn -0.118292 -0.190735 0.974488
vn -0.418791 -0.340413 0.841863
vn -0.418791 -0.340413 0.841863
vn -0.418791 -0.340413 0.841863
vn -0.418791 -0.340413 0.841863
vn 0.202038 -0.412782 0.888140
vn 0.202038 -0.412782 0.888140
vn 0.202038 -0.412782 0.888140
vn 0.202038 -0.412782 0.888140
vn 0.817819 -0.544630 0.185875
vn 0.817819 -0.544630 0.185875
vn 0.817819 -0.544630 0.185875
vn 0.817819 -0.544630 0.185875
vn 0.890398 -0.386945 -0.239719
vn 0.890398 -0.386945 -0.239719
vn 0.890398 -0.386945 -0.239719
vn 0.890398 -0.386945 -0.239719
vn 0.327502 -0.342721 -0.880503
vn 0.327502 -0.342721 -0.880503
vn 0.327502 -0.342721 -0.880503
vn 0.327502 -0.342721 -0.880503
vn -0.287498 -0.510494 -0.810396
vn -0.287498 -0.510494 -0.810396
vn -0.287498 -0.510494 -0.810396
vn -0.287498 -0.510494 -0.810396
vn -0.776533 -0.593319 -0.212060
vn -0.776533 -0.593319 -0.212060
vn -0.776533 -0.593319 -0.212060
vn -0.776533 -0.593319 -0.212060
vn -0.770863 -0.590566 0.238749
vn -0.770863 -0.590566 0.238749
vn -0.770863 -0.590566 0.238749
vn -0.770863 -0.590566 0.238749
vn -0.737525 0.505934 0.447311
vn -0.737525 0.505934 0.447311
vn -0.737525 0.505934 0.447311
vn -0.737525 0.505934 0.447311
vn 0.004378 -0.999990 0.000252
vn 0.004378 -0.999990 0.000252
vn 0.004378 -0.999990 0.000252
vn 0.004378 -0.999990 0.000252
vn 0.004378 -0.999990 0.000252
vn -0.005500 -0.999985 0.000033
vn -0.005500 -0.999985 0.000033
vn -0.005500 -0.999985 0.000033
vn -0.005500 -0.999985 0.000033
vn 0.699317 0.517737 0.492853
vn 0.699317 0.517737 0.492853
vn 0.699317 0.517737 0.492853
vn 0.699317 0.517737 0.492853
vn -0.483090 0.000165 -0.875571
vn -0.483090 0.000165 -0.875571
vn -0.483090 0.000165 -0.875571
vn -0.483090 0.000165 -0.875571
vn 0.480530 0.010057 -0.876921
vn 0.480530 0.010057 -0.876921
vn 0.480530 0.010057 -0.876921
vn 0.480530 0.010057 -0.876921
vn 0.972137 0.024671 -0.233112
vn 0.972137 0.024671 -0.233112
vn 0.972137 0.024671 -0.233112
vn 0.972137 0.024671 -0.233112
vn 0.970596 0.033559 0.238362
vn 0.970596 0.033559 0.238362
vn 0.970596 0.033559 0.238362
vn 0.970596 0.033559 0.238362
vn 0.466660 0.014693 0.884314
vn 0.466660 0.014693 0.884314
vn 0.466660 0.014693 0.884314
vn 0.466660 0.014693 0.884314
vn -0.471833 -0.007270 0.881658
vn -0.471833 -0.007270 0.881658
vn -0.471833 -0.007270 0.881658
vn -0.471833 -0.007270 0.881658
vn -0.971577 0.023199 0.235583
vn -0.971577 0.023199 0.235583
vn -0.971577 0.023199 0.235583
vn -0.971577 0.023199 0.235583
vn -0.973500 0.025192 -0.227296
vn -0.973500 0.025192 -0.227296
vn -0.973500 0.025192 -0.227296
vn -0.973500 0.025192 -0.227296
vn 0.126039 0.980525 -0.150613
vn 0.126039 0.980525 -0.150613
vn 0.126039 0.980525 -0.150613
vn 0.126039 0.980525 -0.150613
vn 0.032428 0.989935 0.137757
vn 0.032428 0.989935 0.137757
vn 0.032428 0.989935 0.137757
vn 0.032428 0.989935 0.137757
vn 0.158569 0.986796 -0.032991
vn 0.158569 0.986796 -0.032991
vn 0.158569 0.986796 -0.032991
vn 0.158569 0.986796 -0.032991
vn -0.226778 0.964858 0.132741
vn -0.226778 0.964858 0.132741
vn -0.226778 0.964858 0.132741
vn -0.226778 0.964858 0.132741
vn -0.868612 0.486538 0.093772
vn -0.868612 0.486538 0.093772
vn -0.868612 0.486538 0.093772
vn -0.868612 0.486538 0.093772
vn -0.395970 0.675589 0.621922
vn -0.395970 0.675589 0.621922
vn -0.395970 0.675589 0.621922
vn -0.395970 0.675589 0.621922
vn -0.380284 0.617875 -0.688197
vn -0.380284 0.617875 -0.688197
vn -0.380284 0.617875 -0.688197
vn -0.380284 0.617875 -0.688197
vn -0.849816 0.485204 -0.205887
vn -0.849816 0.485204 -0.205887
vn -0.849816 0.485204 -0.205887
vn -0.849816 0.485204 -0.205887
vn 0.234679 0.713994 0.659650
vn 0.234679 0.713994 0.659650
vn 0.234679 0.713994 0.659650
vn 0.234679 0.713994 0.659650
vn 0.809099 0.568766 0.147865
vn 0.809099 0.568766 0.147865
vn 0.809099 0.568766 0.147865
vn 0.809099 0.568766 0.147865
vn 0.260852 0.643750 -0.719404
vn 0.260852 0.643750 -0.719404
vn 0.260852 0.643750 -0.719404
vn 0.260852 0.643750 -0.719404
vn 0.773584 0.560791 -0.295095
vn 0.773584 0.560791 -0.295095
vn 0.773584 0.560791 -0.295095
vn 0.773584 0.560791 -0.295095
vn -0.231761 0.949881 -0.209793
vn -0.231761 0.949881 -0.209793
vn -0.231761 0.949881 -0.209793
vn -0.231761 0.949881 -0.209793
vn -0.149331 -0.826365 -0.542975
vn -0.149331 -0.826365 -0.542975
vn -0.149331 -0.826365 -0.542975
vn -0.149331 -0.826365 -0.542975
vn 0.364010 -0.859597 -0.358594
vn 0.364010 -0.859597 -0.358594
vn 0.364010 -0.859597 -0.358594
vn 0.364010 -0.859597 -0.358594
vn 0.022507 0.970897 -0.238437
vn 0.022507 0.970897 -0.238437
vn 0.022507 0.970897 -0.238437
vn 0.022507 0.970897 -0.238437
vn 0.390122 -0.920252 0.030663
vn 0.390122 -0.920252 0.030663
vn 0.390122 -0.920252 0.030663
vn 0.390122 -0.920252 0.030663
vn 0.359648 -0.925259 0.120619
vn 0.359648 -0.925259 0.120619
vn 0.359648 -0.925259 0.120619
vn 0.359648 -0.925259 0.120619
vn 0.136572 -0.923524 0.358403
vn 0.136572 -0.923524 0.358403
vn 0.136572 -0.923524 0.358403
vn 0.136572 -0.923524 0.358403
vn 0.093906 -0.821995 0.561699
vn 0.093906 -0.821995 0.561699
vn 0.093906 -0.821995 0.561699
vn 0.093906 -0.821995 0.561699
vn -0.497508 -0.842886 0.205011
vn -0.497508 -0.842886 0.205011
vn -0.497508 -0.842886 0.205011
vn -0.497508 -0.842886 0.205011
vn -0.338308 0.932037 -0.129823
vn -0.338308 0.932037 -0.129823
vn -0.338308 0.932037 -0.129823
vn -0.338308 0.932037 -0.129823
vn -0.512200 -0.854492 -0.086569
vn -0.512200 -0.854492 -0.086569
vn -0.512200 -0.854492 -0.086569
vn -0.512200 -0.854492 -0.086569
vn -0.288877 0.955068 -0.066300
vn -0.288877 0.955068 -0.066300
vn -0.288877 0.955068 -0.066300
vn -0.288877 0.955068 -0.066300
vn 0.688616 0.525859 -0.499280
vn 0.688616 0.525859 -0.499280
vn 0.688616 0.525859 -0.499280
vn 0.688616 0.525859 -0.499280
vn 0.000000 -1.000000 0.000000
vn 0.000000 -1.000000 0.000000
vn 0.000000 -1.000000 0.000000
vn 0.000000 -1.000000 0.000000
vn 0.000000 -1.000000 0.000000
vn 0.000000 -1.000000 0.000000
vn -0.650714 0.264162 -0.711891
vn -0.650714 0.264162 -0.711891
vn -0.650714 0.264162 -0.711891
vn 0.500945 -0.034597 0.864787
vn 0.500945 -0.034597 0.864787
vn 0.500945 -0.034597 0.864787
vn 0.500945 -0.034597 0.864787
vn 0.929853 -0.099970 -0.354089
vn 0.929853 -0.099970 -0.354089
vn 0.929853 -0.099970 -0.354089
vn 0.929853 -0.099970 -0.354089
vn -0.947957 0.123526 -0.293459
vn -0.947957 0.123526 -0.293459
vn -0.947957 0.123526 -0.293459
vn -0.947957 0.123526 -0.293459
vn 0.952518 0.122371 0.278811
vn 0.952518 0.122371 0.278811
vn 0.952518 0.122371 0.278811
vn 0.952518 0.122371 0.278811
vn -0.911116 -0.122926 0.393392
vn -0.911116 -0.122926 0.393392
vn -0.911116 -0.122926 0.393392
vn -0.911116 -0.122926 0.393392
vn -0.495881 0.021738 0.868118
vn -0.495881 0.021738 0.868118
vn -0.495881 0.021738 0.868118
vn -0.495881 0.021738 0.868118
vn -0.556537 -0.013411 -0.830715
vn -0.556537 -0.013411 -0.830715
vn -0.556537 -0.013411 -0.830715
vn -0.556537 -0.013411 -0.830715
vn 0.472896 0.058323 -0.879186
vn 0.472896 0.058323 -0.879186
vn 0.472896 0.058323 -0.879186
vn 0.472896 0.058323 -0.879186
s off
f 9/12/1 10/1/2 11/10/3 12/11/4
f 10/1/5 13/13/6 14/14/7 11/10/8
f 15/16/9 10/1/10 9/12/11 16/15/12
f 17/17/13 13/13/14 10/1/15 15/16/16
f 2/2/17 3/3/18 12/11/19 11/10/20
f 3/3/21 1/4/22 9/12/23 12/11/24
f 4/5/25 5/6/26 14/14/27 13/13/28
f 5/6/29 2/2/30 11/10/31 14/14/32
f 1/4/33 7/7/34 16/15/35 9/12/36
f 19/18/37 18/19/38 20/20/39 21/21/40
f 8/9/41 4/5/42 13/13/43 17/17/44
f 18/19/45 22/22/46 23/23/47 20/20/48
f 7/7/49 6/8/50 18/19/51 19/18/52
f 15/16/53 16/15/54 21/21/55 20/20/56
f 16/15/57 7/7/58 19/18/59 21/21/60
f 6/8/61 8/9/62 22/22/63 18/19/64
f 8/9/65 17/17/66 23/23/67 22/22/68
f 17/17/69 15/16/70 20/20/71 23/23/72
f 6/8/73 24/24/74 4/5/75 8/9/76
f 7/7/77 1/4/78 24/24/79 6/8/80
f 24/24/81 1/4/82 3/3/83 2/2/84
f 4/5/85 24/24/86 2/2/87 5/6/88
f 50/25/89 51/26/90 98/27/91 92/28/92
f 62/29/93 63/30/94 64/31/95 65/32/96
f 32/33/97 90/34/98 88/35/99
f 31/36/100 89/37/101 88/35/102 28/38/103 29/39/104
f 48/40/105 49/41/106 97/42/107 96/43/108
f 41/44/109 42/45/110 94/46/111 95/47/112
f 63/30/113 66/48/114 67/49/115 64/31/116
f 37/50/117 38/51/118 97/42/119 92/28/120
f 52/52/121 53/53/122 94/46/123 91/54/124
f 27/55/125 87/56/126 89/37/127 31/36/128 30/57/129
f 27/55/130 33/58/131 90/34/132 87/56/133
f 68/59/134 63/30/135 62/29/136 69/60/137
f 70/61/138 66/48/139 63/30/140 68/59/141
f 35/62/142 36/63/143 98/27/144 91/54/145
f 46/64/146 47/65/147 93/66/148 95/47/149
f 39/67/150 40/68/151 93/66/152 96/43/153
f 45/69/154 43/70/155 44/71/156
f 25/72/157 34/73/158 36/63/159 35/62/160
f 37/50/161 36/63/162 34/73/163 26/74/164
f 26/74/165 29/39/166 38/51/167 37/50/168
f 39/67/169 38/51/170 29/39/171 28/38/172
f 28/38/173 33/58/174 40/68/175 39/67/176
f 41/44/177 40/68/178 33/58/179 27/55/180
f 27/55/181 30/57/182 42/45/183 41/44/184
f 35/62/185 42/45/186 30/57/187 25/72/188
f 25/72/189 43/70/190 45/69/191 34/73/192
f 30/57/193 31/36/194 44/71/195 43/70/196 25/72/197
f 44/71/198 31/36/199 29/39/200 26/74/201
f 26/74/202 34/73/203 45/69/204 44/71/205
f 71/75/206 72/76/207 73/77/208 74/78/209
f 75/79/210 73/77/211 72/76/212 76/80/213
f 77/81/214 78/82/215 75/79/216 76/80/217
f 79/83/218 78/82/219 77/81/220 80/84/221
f 81/85/222 82/86/223 79/83/224 80/84/225
f 83/87/226 82/86/227 81/85/228 84/88/229
f 86/89/230 85/90/231 83/87/232 84/88/233
f 74/78/234 85/90/235 86/89/236 71/75/237
f 56/91/238 55/92/239 77/81/240 76/80/241
f 58/93/242 57/94/243 81/85/244 80/84/245
f 55/92/246 58/93/247 80/84/248 77/81/249
f 57/94/250 61/95/251 84/88/252 81/85/253
f 55/92/254 56/91/255 65/32/256 64/31/257
f 56/91/258 54/96/259 62/29/260 65/32/261
f 57/94/262 58/93/263 67/49/264 66/48/265
f 58/93/266 55/92/267 64/31/268 67/49/269
f 54/96/270 60/97/271 69/60/272 62/29/273
f 60/97/274 59/98/275 68/59/276 69/60/277
f 61/95/278 57/94/279 66/48/280 70/61/281
f 59/98/282 61/95/283 70/61/284 68/59/285
f 54/96/286 72/76/287 71/75/288 60/97/289
f 47/65/290 46/64/291 74/78/292 73/77/293
f 48/40/294 47/65/295 73/77/296 75/79/297
f 56/91/298 76/80/299 72/76/300 54/96/301
f 49/41/302 48/40/303 75/79/304 78/82/305
f 50/25/306 49/41/307 78/82/308 79/83/309
f 51/26/310 50/25/311 79/83/312 82/86/313
f 52/52/314 51/26/315 82/86/316 83/87/317
f 53/53/318 52/52/319 83/87/320 85/90/321
f 59/98/322 86/89/323 84/88/324 61/95/325
f 46/64/326 53/53/327 85/90/328 74/78/329
f 60/97/330 71/75/331 86/89/332 59/98/333
f 88/35/334 90/34/335 33/58/336 28/38/337
f 88/35/338 89/37/339 32/33/340
f 89/37/341 87/56/342 32/33/343
f 87/56/344 90/34/345 32/33/346
f 92/28/347 98/27/348 36/63/349 37/50/350
f 96/43/351 97/42/352 38/51/353 39/67/354
f 95/47/355 94/46/356 53/53/357 46/64/358
f 92/28/359 97/42/360 49/41/361 50/25/362
f 91/54/363 94/46/364 42/45/365 35/62/366
f 91/54/367 98/27/368 51/26/369 52/52/370
f 95/47/371 93/66/372 40/68/373 41/44/374
f 96/43/375 93/66/376 47/65/377 48/40/378
