# This file uses centimeters as units for non-parametric coordinates.

v -30.224741 0.000000 30.224741
v -30.224741 1.000000 30.224741
v 30.224741 1.000000 -30.224741
v 30.224741 0.000000 -30.224741
v 30.224741 0.000000 28.411438
v 28.411438 0.000000 30.224741
v 30.224741 1.000000 28.411438
v 28.411438 1.000000 30.224741
v -30.224741 1.000000 -28.411438
v -28.411438 1.000000 -30.224741
v -30.224741 0.000000 -28.411438
v -28.411438 0.000000 -30.224741
v 30.224743 0.000000 21.666035
v 30.224741 1.000000 21.700623
v 30.224743 0.000000 20.735718
v 30.224741 1.000000 20.844240
v 23.661057 1.000000 21.522200
v 24.059622 0.000000 21.399233
v 26.887369 1.000000 -30.224741
v 27.014713 0.000000 -30.224741
v 25.893879 1.000000 -30.224741
v 25.957720 0.000000 -30.224741
v 22.306440 1.000000 -30.224741
v 22.397369 0.000000 -30.224741
v 21.087513 1.000000 -30.224741
v 21.010056 0.000000 -30.224741
v 26.222698 1.000000 -23.224545
v 22.387951 1.000000 -27.261036
v 22.423784 0.000000 -27.446968
v 26.248688 0.000000 -23.395782
v -30.224743 1.000000 2.060213
v -30.224741 0.000000 2.182669
v -30.224741 0.000000 1.124185
v -30.224743 1.000000 1.127876
v -26.290001 1.000000 1.941622
v -22.876856 1.000000 3.404894
v -26.439032 1.000000 2.421668
v -26.604811 0.000000 2.411391
v -23.139706 0.000000 3.375336
v -26.496378 0.000000 1.885339
vt 0.875644 0.001544
vt 0.994847 0.001544
vt 0.998534 0.005230
vt 0.998534 0.124433
vt 0.879331 0.124433
vt 0.875644 0.120747
vt 0.197515 0.326485
vt 0.196644 0.326395
vt 0.196621 0.326366
vt 0.196792 0.325901
vt 0.197613 0.325993
vt 0.197516 0.326473
vt 0.197591 0.325987
vt 0.196792 0.325912
vt 0.196622 0.326378
vt 0.196643 0.326383
vt 0.197591 0.325976
vt 0.197612 0.326004
vt 0.196642 0.326325
vt 0.998534 0.018873
vt 0.196641 0.326313
vt 0.196644 0.326317
vt 0.998534 0.020614
vt 0.196643 0.326306
vt 0.985190 0.019236
vt 0.196709 0.326329
vt 0.196837 0.325905
vt 0.991749 0.124433
vt 0.196836 0.325916
vt 0.196851 0.325906
vt 0.989729 0.124433
vt 0.196850 0.325918
vt 0.196900 0.325911
vt 0.982436 0.124433
vt 0.196899 0.325922
vt 0.196916 0.325912
vt 0.979958 0.124433
vt 0.196917 0.325924
vt 0.990398 0.110202
vt 0.980887 0.118408
vt 0.196900 0.325945
vt 0.196824 0.325971
vt 0.197561 0.326305
vt 0.875644 0.058800
vt 0.197685 0.326346
vt 0.197719 0.326195
vt 0.197591 0.326170
vt 0.875644 0.060696
vt 0.883644 0.059041
vt 0.890582 0.056067
vt 0.883340 0.058066
vt 0.197456 0.326256
vt 0.197263 0.326272
vt 0.197465 0.326188
vt 0.196900 0.325935
vt 0.196824 0.325961
vt 0.196641 0.326311
vt 0.197160 0.326221
vt 0.196844 0.326253
vt 0.197172 0.326096
vn 0.000000 0.000000 1.000000
vn 0.000000 0.000000 1.000000
vn 0.000000 0.000000 1.000000
vn 0.000000 0.000000 1.000000
vn 0.000000 1.000000 0.000000
vn 0.000000 1.000000 0.000000
vn 0.000000 1.000000 0.000000
vn 0.000000 1.000000 0.000000
vn 0.000000 0.000000 -1.000000
vn 0.000000 0.000000 -1.000000
vn 0.000000 0.000000 -1.000000
vn 0.000000 0.000000 -1.000000
vn 1.000000 0.000002 0.000000
vn 1.000000 0.000002 0.000000
vn 1.000000 0.000002 0.000000
vn 1.000000 0.000002 0.000000
vn -1.000000 -0.000002 -0.000000
vn -1.000000 -0.000002 -0.000000
vn -1.000000 -0.000002 -0.000000
vn -1.000000 -0.000002 -0.000000
vn 0.000000 -1.000000 0.000000
vn 0.000000 -1.000000 0.000000
vn 0.000000 -1.000000 0.000000
vn 0.000000 -1.000000 0.000000
vn 0.707107 0.000000 0.707107
vn 0.707107 0.000000 0.707107
vn 0.707107 0.000000 0.707107
vn 0.707107 0.000000 0.707107
vn -0.707107 0.000000 -0.707107
vn -0.707107 0.000000 -0.707107
vn -0.707107 0.000000 -0.707107
vn -0.707107 0.000000 -0.707107
vn 0.104346 -0.093805 0.990107
vn 0.104346 -0.093805 0.990107
vn 0.104346 -0.093805 0.990107
vn 0.104346 -0.093805 0.990107
vn 1.000000 0.000000 -0.000000
vn 1.000000 0.000000 -0.000000
vn 1.000000 0.000000 -0.000000
vn 1.000000 0.000000 -0.000000
vn 0.000000 0.000000 -1.000000
vn 0.000000 0.000000 -1.000000
vn 0.000000 0.000000 -1.000000
vn 0.000000 0.000000 -1.000000
vn 0.997815 0.048645 -0.044719
vn 0.997815 0.048645 -0.044719
vn 0.997815 0.048645 -0.044719
vn 0.997815 0.048645 -0.044719
vn 0.000000 0.000000 -1.000000
vn 0.000000 0.000000 -1.000000
vn 0.000000 0.000000 -1.000000
vn 0.000000 0.000000 -1.000000
vn 0.984386 -0.004127 -0.175975
vn 0.984386 -0.004127 -0.175975
vn 0.984386 -0.004127 -0.175975
vn 0.984386 -0.004127 -0.175975
vn -1.000000 -0.000002 0.000000
vn -1.000000 -0.000002 0.000000
vn -1.000000 -0.000002 0.000000
vn -1.000000 -0.000002 0.000000
vn -0.963525 -0.036421 -0.265129
vn -0.963525 -0.036421 -0.265129
vn -0.963525 -0.036421 -0.265129
vn -0.963525 -0.036421 -0.265129
vn -0.992436 -0.067294 -0.102673
vn -0.992436 -0.067294 -0.102673
vn -0.992436 -0.067294 -0.102673
vn -0.992436 -0.067294 -0.102673
vn 0.034829 0.085383 -0.995739
vn 0.034829 0.085383 -0.995739
vn 0.034829 0.085383 -0.995739
vn 0.034829 0.085383 -0.995739
vn 0.266833 -0.038006 -0.962993
vn 0.266833 -0.038006 -0.962993
vn 0.266833 -0.038006 -0.962993
vn 0.266833 -0.038006 -0.962993
vn -0.399258 0.054390 0.915224
vn -0.399258 0.054390 0.915224
vn -0.399258 0.054390 0.915224
vn -0.399258 0.054390 0.915224
vn 0.079286 -0.062375 -0.994898
vn 0.079286 -0.062375 -0.994898
vn 0.079286 -0.062375 -0.994898
vn 0.079286 -0.062375 -0.994898
vn -0.201302 -0.008601 0.979491
vn -0.201302 -0.008601 0.979491
vn -0.201302 -0.008601 0.979491
vn -0.201302 -0.008601 0.979491
vn 0.000000 1.000000 0.000000
vn 0.000000 1.000000 0.000000
vn 0.000000 1.000000 0.000000
vn 0.000000 1.000000 0.000000
vn 0.000000 1.000000 0.000000
vn 0.000000 1.000000 0.000000
vn 0.000000 1.000000 0.000000
vn 0.000000 1.000000 0.000000
vn 0.000000 1.000000 0.000000
vn 0.000000 1.000000 0.000000
vn 0.000000 1.000000 0.000000
vn 0.000000 1.000000 0.000000
vn 0.000000 1.000000 0.000000
vn 0.000000 1.000000 0.000000
vn 0.000000 1.000000 0.000000
vn 0.000000 1.000000 0.000000
vn 0.000000 1.000000 0.000000
vn 0.000000 1.000000 0.000000
vn 0.000000 1.000000 0.000000
vn 0.000000 1.000000 0.000000
vn 0.000000 1.000000 0.000000
vn 0.000000 1.000000 0.000000
vn 0.000000 1.000000 0.000000
vn 0.000000 1.000000 0.000000
vn 0.000000 1.000000 0.000000
vn 0.000000 1.000000 0.000000
vn 0.000000 1.000000 0.000000
vn 0.000000 1.000000 0.000000
vn 0.000000 1.000000 0.000000
vn 0.000000 1.000000 0.000000
vn 0.000000 1.000000 0.000000
vn 0.000000 1.000000 0.000000
vn 0.000000 1.000000 0.000000
vn 0.000000 1.000000 0.000000
vn 0.000000 1.000000 0.000000
vn 0.000000 1.000000 0.000000
vn 0.000000 -1.000000 0.000000
vn 0.000000 -1.000000 0.000000
vn 0.000000 -1.000000 0.000000
vn 0.000000 -1.000000 0.000000
vn 0.000000 -1.000000 0.000000
vn 0.000000 -1.000000 0.000000
vn 0.000000 -1.000000 0.000000
vn 0.000000 -1.000000 0.000000
vn 0.000000 -1.000000 0.000000
vn 0.000000 -1.000000 0.000000
vn 0.000000 -1.000000 0.000000
vn 0.000000 -1.000000 0.000000
vn 0.000000 -1.000000 0.000000
vn 0.000000 -1.000000 0.000000
vn 0.000000 -1.000000 0.000000
vn 0.000000 -1.000000 0.000000
vn 0.000000 -1.000000 0.000000
vn 0.000000 -1.000000 0.000000
vn 0.000000 -1.000000 0.000000
vn 0.000000 -1.000000 0.000000
vn 0.000000 -1.000000 0.000000
vn 0.000000 -1.000000 0.000000
vn 0.000000 -1.000000 0.000000
vn 0.000000 -1.000000 0.000000
vn 0.000000 -1.000000 0.000000
vn 0.000000 -1.000000 0.000000
vn 0.000000 -1.000000 0.000000
vn 0.000000 -1.000000 0.000000
vn 0.000000 -1.000000 0.000000
vn 0.000000 -1.000000 0.000000
vn 0.000000 -1.000000 0.000000
vn 0.000000 -1.000000 0.000000
vn 0.000000 -1.000000 0.000000
vn 0.000000 -1.000000 0.000000
s off
f 1/7/1 6/8/2 8/16/3 2/12/4
f 28/40/5 27/39/6 21/31/7 23/34/8
f 12/13/9 10/17/10 25/36/11 26/38/12
f 7/9/13 5/15/14 13/19/15 14/21/16
f 9/11/17 11/18/18 33/46/19 34/47/20
f 6/8/21 18/26/22 13/19/23 5/15/24
f 6/8/25 5/15/26 7/9/27 8/16/28
f 9/11/29 10/17/30 12/13/31 11/18/32
f 17/57/33 18/26/34 15/22/35 16/24/36
f 16/24/37 15/22/38 4/14/39 3/10/40
f 20/29/41 19/27/42 3/10/43 4/14/44
f 22/32/45 21/30/46 27/56/47 30/42/48
f 24/35/49 23/33/50 21/30/51 22/32/52
f 26/38/53 25/36/54 28/55/55 29/41/56
f 31/43/57 32/45/58 1/7/59 2/12/60
f 29/41/61 28/55/62 23/33/63 24/35/64
f 30/42/65 27/56/66 19/27/67 20/29/68
f 14/21/69 13/19/70 18/26/71 17/57/72
f 39/53/73 38/52/74 37/58/75 36/59/76
f 40/54/77 39/53/78 36/59/79 35/60/80
f 38/52/81 32/45/82 31/43/83 37/58/84
f 33/46/85 40/54/86 35/60/87 34/47/88
f 27/39/89 16/23/90 3/4/91 19/28/92
f 36/50/93 28/40/94 9/6/95 35/49/96
f 17/25/97 8/2/98 7/3/99 14/20/100
f 28/40/101 17/25/102 16/23/103 27/39/104
f 9/6/105 28/40/106 25/37/107 10/5/108
f 35/49/109 9/6/110 34/48/111
f 36/50/112 17/25/113 28/40/114
f 2/1/115 8/2/116 17/25/117
f 2/1/118 37/51/119 31/44/120
f 2/1/121 17/25/122 36/50/123 37/51/124
f 40/54/125 12/13/126 29/41/127 39/53/128
f 39/53/129 1/7/130 32/45/131 38/52/132
f 39/53/133 18/26/134 6/8/135 1/7/136
f 11/18/137 12/13/138 40/54/139 33/46/140
f 29/41/141 12/13/142 26/38/143
f 18/26/144 29/41/145 30/42/146 15/22/147
f 30/42/148 29/41/149 24/35/150 22/32/151
f 15/22/152 30/42/153 20/29/154 4/14/155
f 39/53/156 29/41/157 18/26/158
