# This file uses centimeters as units for non-parametric coordinates.

v -0.948730 5.117095 46.932983
v -24.712158 6.154284 24.249268
v 2.954346 -7.804577 48.932373
v -28.837402 -7.804577 18.396362
v 11.779053 -7.804577 31.503418
v -14.874268 -7.804577 11.175171
v 6.185059 4.232690 33.116211
v -13.406250 5.594444 18.009399
v -29.677734 -7.804577 42.286987
v -24.874756 6.220038 30.643677
v -13.435791 5.747723 44.561768
v -27.081543 2.948909 42.241821
v -16.776855 5.425757 -58.073608
v -24.498047 4.505805 -37.048706
v -13.379639 -7.804577 -61.370972
v -23.086182 -7.804577 -34.300659
v -33.137939 -7.804577 -64.552246
v -38.675781 -7.804577 -43.985352
v -32.205811 3.893206 -60.928223
v -37.108887 3.773642 -44.821411
v -7.957520 -7.804577 -43.292114
v -13.854980 5.226393 -47.898438
v -11.133301 2.511314 -43.785156
v -17.659668 4.881069 -41.114258
v 9.608154 3.701652 9.548340
v 14.846680 4.816594 -13.515381
v -28.306396 4.165980 -4.511230
v -17.320313 4.045657 -30.978027
v -40.057861 -7.804577 -13.507202
v -17.985352 -7.804577 -39.026855
v 11.908936 -7.804577 23.350586
v 22.745605 -7.804577 -18.916870
v -2.278320 8.771999 -4.277466
v -18.346924 6.304216 11.877930
v -22.113525 -7.804577 13.779663
v -27.402832 3.452380 -19.333496
v -35.968262 0.511127 -13.011475
v 8.856445 0.714584 21.702148
v -0.007080 4.062659 17.891113
v 3.198975 5.535614 9.927734
v 27.062988 0.090467 62.121948
v 20.365967 3.605288 36.341431
v 28.394043 -7.804577 64.552246
v 19.533203 -7.804577 29.788574
v 40.057861 -7.804577 56.063477
v 31.181152 -7.804577 30.569336
v 36.599365 -0.463608 55.357788
v 30.080566 2.678780 36.661377
v 9.203857 -7.804577 46.204102
v 17.672363 3.369630 40.760986
v 19.739014 1.558807 55.275146
v 11.252686 0.304479 47.722290
v -8.181396 -7.804577 -34.177002
v 22.619141 -7.804577 -40.193359
v -6.253418 6.558284 -36.502930
v 18.081787 7.417109 -40.904785
v -6.152588 6.927902 -46.760620
v 12.106934 8.326670 -55.391479
v -7.694824 -7.804577 -55.928223
v 14.853271 -7.804577 -59.469238
v 11.238770 6.420516 -32.802368
v 10.297363 -7.804577 -25.508057
v 3.624023 7.787241 -54.496094
v -6.321289 1.912625 -54.528931
v 8.809814 3.898477 -28.322021
v -0.667725 6.341963 -33.754517
vt 0.459767 0.179502
vt 0.459780 0.179451
vt 0.459744 0.179398
vt 0.459649 0.179365
vt 0.459637 0.179457
vt 0.459635 0.179602
vt 0.459572 0.179486
vt 0.459571 0.179404
vt 0.459638 0.179558
vt 0.459765 0.179554
vt 0.459777 0.179482
vt 0.459747 0.179615
vt 0.459454 0.207127
vt 0.459447 0.207064
vt 0.459398 0.207041
vt 0.459335 0.207052
vt 0.459356 0.207144
vt 0.459406 0.207240
vt 0.459314 0.207207
vt 0.459287 0.207131
vt 0.459393 0.207176
vt 0.459481 0.207093
vt 0.459448 0.207041
vt 0.459488 0.207192
vt 0.459260 0.207256
vt 0.459147 0.207314
vt 0.459033 0.207335
vt 0.459088 0.207592
vt 0.459025 0.207447
vt 0.459080 0.207479
vt 0.459088 0.207534
vt 0.459262 0.207316
vt 0.459139 0.207481
vt 0.459268 0.207414
vt 0.459294 0.207539
vt 0.459113 0.207426
vt 0.459384 0.207371
vt 0.459333 0.207310
vt 0.459396 0.207416
vt 0.459358 0.207353
vt 0.459767 0.179502
vt 0.459780 0.179451
vt 0.459744 0.179398
vt 0.459649 0.179365
vt 0.459637 0.179457
vt 0.459635 0.179602
vt 0.459572 0.179486
vt 0.459571 0.179404
vt 0.459638 0.179558
vt 0.459765 0.179554
vt 0.459777 0.179482
vt 0.459747 0.179615
vt 0.458878 0.206940
vt 0.458913 0.206948
vt 0.458963 0.206969
vt 0.458938 0.207019
vt 0.458838 0.207050
vt 0.458807 0.206991
vt 0.458815 0.207028
vt 0.458794 0.207036
vt 0.458968 0.207111
vt 0.458854 0.207140
vt 0.458800 0.207075
vt 0.458907 0.207033
vt 0.458999 0.207047
vt 0.458976 0.206982
vn -0.957623 0.283363 -0.051616
vn -0.957623 0.283363 -0.051616
vn -0.957623 0.283363 -0.051616
vn -0.957623 0.283363 -0.051616
vn -0.957623 0.283363 -0.051616
vn 0.578263 0.340072 -0.741595
vn 0.578263 0.340072 -0.741595
vn 0.578263 0.340072 -0.741595
vn 0.578263 0.340072 -0.741595
vn 0.049372 0.998762 -0.006056
vn 0.049372 0.998762 -0.006056
vn 0.049372 0.998762 -0.006056
vn 0.049372 0.998762 -0.006056
vn 0.049372 0.998762 -0.006056
vn -0.411742 0.451324 -0.791691
vn -0.411742 0.451324 -0.791691
vn -0.411742 0.451324 -0.791691
vn -0.411742 0.451324 -0.791691
vn 0.845007 0.328073 0.422294
vn 0.845007 0.328073 0.422294
vn 0.845007 0.328073 0.422294
vn 0.845007 0.328073 0.422294
vn -0.190991 0.074082 0.978792
vn -0.190991 0.074082 0.978792
vn -0.190991 0.074082 0.978792
vn -0.190991 0.074082 0.978792
vn -0.190991 0.074082 0.978792
vn 0.084695 0.996205 -0.020037
vn 0.084695 0.996205 -0.020037
vn 0.084695 0.996205 -0.020037
vn -0.232089 0.946816 0.222879
vn -0.232089 0.946815 0.222879
vn -0.232089 0.946815 0.222879
vn 0.482274 0.227609 0.845935
vn 0.482274 0.227609 0.845935
vn 0.482274 0.227609 0.845935
vn 0.482274 0.227609 0.845935
vn 0.482274 0.227609 0.845935
vn -0.953121 0.134781 -0.270912
vn -0.953121 0.134781 -0.270912
vn -0.953122 0.134781 -0.270912
vn -0.953122 0.134781 -0.270912
vn -0.058054 0.998063 0.022351
vn -0.058054 0.998063 0.022351
vn -0.058054 0.998063 0.022351
vn -0.058054 0.998063 0.022351
vn -0.058054 0.998063 0.022351
vn -0.524342 0.129668 0.841577
vn -0.524342 0.129668 0.841577
vn -0.524342 0.129668 0.841577
vn -0.524342 0.129668 0.841577
vn 0.150602 0.278281 -0.948620
vn 0.150602 0.278281 -0.948619
vn 0.150602 0.278281 -0.948619
vn 0.150602 0.278281 -0.948619
vn 0.909772 0.303803 -0.282875
vn 0.909772 0.303803 -0.282875
vn 0.909772 0.303803 -0.282875
vn 0.909772 0.303803 -0.282875
vn 0.909772 0.303803 -0.282875
vn -0.094882 0.995257 -0.021495
vn -0.094882 0.995256 -0.021495
vn -0.094882 0.995257 -0.021495
vn 0.427694 0.858300 0.283547
vn 0.427694 0.858300 0.283547
vn 0.427694 0.858300 0.283547
vn 0.100626 0.968421 -0.228112
vn 0.100626 0.968421 -0.228112
vn 0.100626 0.968421 -0.228112
vn 0.874629 0.435337 0.213320
vn 0.874629 0.435337 0.213320
vn 0.874629 0.435337 0.213320
vn 0.874629 0.435337 0.213320
vn 0.874629 0.435337 0.213320
vn 0.384263 0.529335 -0.756403
vn 0.384263 0.529335 -0.756403
vn 0.384263 0.529335 -0.756403
vn 0.384263 0.529335 -0.756403
vn -0.283464 0.169488 0.943887
vn -0.283464 0.169488 0.943887
vn -0.283464 0.169488 0.943887
vn -0.283464 0.169488 0.943887
vn -0.283464 0.169488 0.943887
vn 0.279327 0.917786 0.282216
vn 0.279327 0.917786 0.282216
vn 0.279327 0.917786 0.282216
vn -0.674777 0.436797 -0.594881
vn -0.674777 0.436797 -0.594881
vn -0.674777 0.436797 -0.594881
vn -0.674777 0.436797 -0.594881
vn -0.674777 0.436797 -0.594881
vn -0.206744 0.976767 -0.056429
vn -0.206744 0.976766 -0.056429
vn -0.206744 0.976767 -0.056429
vn -0.795926 0.341771 0.499695
vn -0.795926 0.341771 0.499695
vn -0.795926 0.341771 0.499695
vn -0.795926 0.341771 0.499695
vn -0.795926 0.341771 0.499695
vn -0.122007 0.990996 -0.055149
vn -0.122007 0.990996 -0.055149
vn -0.122007 0.990996 -0.055149
vn -0.122007 0.990996 -0.055149
vn -0.367973 0.927414 -0.067081
vn -0.367973 0.927414 -0.067081
vn -0.367973 0.927414 -0.067081
vn 0.248322 0.937012 0.245650
vn 0.248322 0.937012 0.245650
vn 0.248322 0.937012 0.245650
vn 0.053193 0.977881 0.202285
vn 0.053193 0.977881 0.202285
vn 0.053193 0.977881 0.202285
vn 0.053193 0.977881 0.202285
vn 0.279436 0.953891 0.109581
vn 0.279436 0.953891 0.109581
vn 0.279436 0.953891 0.109581
vn 0.279436 0.953891 0.109581
vn -0.789359 0.341113 -0.510446
vn -0.789359 0.341113 -0.510446
vn -0.789359 0.341113 -0.510446
vn -0.789359 0.341113 -0.510446
vn -0.789359 0.341113 -0.510446
vn 0.901879 0.318781 -0.291536
vn 0.901879 0.318781 -0.291536
vn 0.901879 0.318781 -0.291536
vn 0.901879 0.318781 -0.291536
vn 0.092611 0.989518 0.110804
vn 0.092611 0.989518 0.110804
vn 0.092611 0.989518 0.110804
vn 0.092611 0.989518 0.110804
vn 0.092611 0.989518 0.110804
vn 0.066172 0.499654 -0.863694
vn 0.066172 0.499654 -0.863694
vn 0.066172 0.499654 -0.863694
vn 0.066172 0.499654 -0.863694
vn 0.556645 0.331751 0.761635
vn 0.556645 0.331751 0.761635
vn 0.556645 0.331751 0.761635
vn 0.556645 0.331751 0.761635
vn -0.680399 0.073691 0.729127
vn -0.680399 0.073691 0.729128
vn -0.680399 0.073691 0.729127
vn -0.680399 0.073691 0.729127
vn -0.680399 0.073691 0.729128
vn 0.139785 0.983301 0.116529
vn 0.139785 0.983301 0.116529
vn 0.139785 0.983301 0.116529
vn -0.280613 0.946715 0.158071
vn -0.280613 0.946715 0.158071
vn -0.280613 0.946715 0.158071
vn -0.019864 0.996221 0.084549
vn -0.019864 0.996221 0.084549
vn -0.019864 0.996221 0.084549
vn -0.019864 0.996221 0.084549
vn -0.019864 0.996221 0.084549
vn -0.445334 0.756595 -0.478792
vn -0.445334 0.756595 -0.478792
vn -0.445334 0.756595 -0.478792
vn 0.899698 0.247610 -0.359489
vn 0.899698 0.247610 -0.359489
vn 0.899698 0.247610 -0.359489
vn 0.899698 0.247610 -0.359489
vn -0.991740 0.125929 -0.024365
vn -0.991740 0.125929 -0.024365
vn -0.991740 0.125929 -0.024365
vn -0.991740 0.125929 -0.024365
vn -0.991740 0.125929 -0.024365
vn -0.429432 0.185315 0.883882
vn -0.429432 0.185315 0.883882
vn -0.429432 0.185315 0.883882
vn -0.429432 0.185315 0.883882
vn -0.429432 0.185315 0.883882
vn -0.059706 0.997590 0.035361
vn -0.059706 0.997590 0.035361
vn -0.059706 0.997590 0.035361
vn -0.059706 0.997590 0.035361
vn -0.133861 0.198680 -0.970880
vn -0.133861 0.198680 -0.970880
vn -0.133861 0.198680 -0.970880
vn -0.133861 0.198680 -0.970880
vn -0.133861 0.198680 -0.970880
vn 0.740255 0.257684 0.620985
vn 0.740255 0.257684 0.620985
vn 0.740255 0.257684 0.620985
vn 0.740255 0.257684 0.620985
vn 0.740255 0.257684 0.620985
vn -0.043557 0.880504 0.472032
vn -0.043557 0.880505 0.472032
vn -0.043557 0.880504 0.472032
vn 0.000000 -1.000000 -0.000000
vn 0.000000 -1.000000 -0.000000
vn 0.000000 -1.000000 -0.000000
vn 0.000000 -1.000000 -0.000000
vn 0.000000 -1.000000 -0.000000
vn 0.000000 -1.000000 0.000000
vn 0.000000 -1.000000 0.000000
vn 0.000000 -1.000000 0.000000
vn 0.000000 -1.000000 0.000000
vn 0.000000 -1.000000 0.000000
vn 0.000000 -1.000000 0.000000
vn 0.000000 -1.000000 0.000000
vn 0.000000 -1.000000 0.000000
vn 0.000000 -1.000000 0.000000
vn 0.000000 -1.000000 0.000000
vn 0.000000 -1.000000 0.000000
vn 0.000000 -1.000000 0.000000
vn 0.000000 -1.000000 0.000000
vn 0.000000 -1.000000 0.000000
vn 0.000000 -1.000000 0.000000
vn 0.000000 -1.000000 -0.000000
vn 0.000000 -1.000000 -0.000000
vn 0.000000 -1.000000 -0.000000
vn 0.000000 -1.000000 -0.000000
vn 0.000000 -1.000000 -0.000000
s off
f 9/1/1 12/2/2 10/3/3 2/4/4 4/5/5
f 5/6/6 6/7/7 8/8/8 7/9/9
f 1/10/10 8/8/11 2/4/12 10/3/13 11/11/14
f 2/4/15 8/8/16 6/7/17 4/5/18
f 7/9/19 1/10/20 3/12/21 5/6/22
f 1/10/23 11/11/24 12/2/25 9/1/26 3/12/27
f 7/9/28 8/8/29 1/10/30
f 12/2/31 11/11/32 10/3/33
f 21/13/34 23/14/35 24/15/36 14/16/37 16/17/38
f 17/18/39 18/19/40 20/20/41 19/21/42
f 13/22/43 20/20/44 14/16/45 24/15/46 22/23/47
f 14/16/48 20/20/49 18/19/50 16/17/51
f 19/21/52 13/22/53 15/24/54 17/18/55
f 13/22/56 22/23/57 23/14/58 21/13/59 15/24/60
f 19/21/61 20/20/62 13/22/63
f 24/15/64 23/14/65 22/23/66
f 28/25/67 33/26/68 26/27/69
f 31/28/70 32/29/71 26/27/72 25/30/73 38/31/74
f 26/27/75 32/29/76 30/32/77 28/25/78
f 31/28/79 38/31/80 39/33/81 34/34/82 35/35/83
f 25/30/84 40/36/85 39/33/86
f 37/37/87 36/38/88 28/25/89 30/32/90 29/39/91
f 34/34/92 33/26/93 28/25/94
f 35/35/95 34/34/96 27/40/97 37/37/98 29/39/99
f 34/34/100 28/25/101 36/38/102 27/40/103
f 27/40/104 36/38/105 37/37/106
f 39/33/107 38/31/108 25/30/109
f 39/33/110 40/36/111 33/26/112 34/34/113
f 40/36/114 25/30/115 26/27/116 33/26/117
f 49/41/118 52/42/119 50/43/120 42/44/121 44/45/122
f 45/46/123 46/47/124 48/48/125 47/49/126
f 41/50/127 48/48/128 42/44/129 50/43/130 51/51/131
f 42/44/132 48/48/133 46/47/134 44/45/135
f 47/49/136 41/50/137 43/52/138 45/46/139
f 41/50/140 51/51/141 52/42/142 49/41/143 43/52/144
f 47/49/145 48/48/146 41/50/147
f 52/42/148 51/51/149 50/43/150
f 55/53/151 66/54/152 61/55/153 56/56/154 58/57/155
f 57/58/156 63/59/157 64/60/158
f 54/61/159 60/62/160 58/57/161 56/56/162
f 59/63/163 53/64/164 55/53/165 57/58/166 64/60/167
f 53/64/168 62/65/169 65/66/170 66/54/171 55/53/172
f 55/53/173 58/57/174 63/59/175 57/58/176
f 64/60/177 63/59/178 58/57/179 60/62/180 59/63/181
f 61/55/182 65/66/183 62/65/184 54/61/185 56/56/186
f 66/54/187 65/66/188 61/55/189
f 9/1/190 4/5/191 6/7/192 5/6/193 3/12/194
f 21/13/195 16/17/196 18/19/197 17/18/198 15/24/199
f 32/29/200 31/28/201 35/35/202 29/39/203 30/32/204
f 49/41/205 44/45/206 46/47/207 45/46/208 43/52/209
f 54/61/210 62/65/211 53/64/212 59/63/213 60/62/214
