# This file uses centimeters as units for non-parametric coordinates.

v 1.182487 -41.116150 0.293938
v 22.959904 -57.548981 -2.748772
v 5.584152 -53.855484 -1.601784
v -23.922356 -57.171112 3.415886
v 13.871960 -62.477234 0.355446
v 9.260174 -50.246552 5.352699
v 14.252857 -53.888168 -3.221031
v 5.584145 -53.848587 2.312675
v 19.141384 -57.548843 5.352699
v 22.672462 -8.519180 0.293938
v -10.321430 -44.054932 -2.742851
v 22.017673 -9.178879 2.127174
v -21.971127 -9.688171 1.710991
v 22.921944 -53.849991 2.312675
v -18.978123 -9.823792 -1.561821
v 3.361706 -50.240433 0.355446
v -8.585926 -57.192184 -2.827919
v -1.017704 -38.437958 0.294029
v 25.488476 -50.238678 0.355446
v 14.072414 -57.565994 -5.310524
v -25.488472 -59.171875 0.293938
v 11.418354 -47.725449 -5.352684
v 22.921951 -53.855484 -1.601784
v -3.762558 -37.901794 1.836403
v -9.897423 -57.188538 3.415886
v -14.577675 -62.565475 0.293938
v -23.922352 -57.171112 -2.827919
v -2.944313 -40.572250 0.293938
v -10.321419 -44.043732 3.330803
v -3.936195 -59.178162 0.293938
v 3.429989 -59.389420 0.355446
v -0.230598 -10.765274 2.025810
v 24.571041 -59.395905 0.355446
v 1.078037 -10.919022 -1.129814
v -20.352360 -13.817215 -2.078758
v -20.352352 -13.817215 2.900749
v -19.766239 0.985901 -2.078758
v -19.766232 0.985901 2.900749
v -14.790531 0.788925 -2.078758
v -14.790524 0.788925 2.900749
v -15.376667 -14.014191 -2.078758
v -15.376659 -14.014191 2.900749
v 16.241268 -12.566238 -2.078758
v 16.241276 -12.566238 2.900749
v 16.241268 2.248474 -2.078758
v 16.241276 2.248474 2.900749
v 21.220974 2.248474 -2.078758
v 21.220982 2.248474 2.900749
v 21.220974 -12.566238 -2.078758
v 21.220982 -12.566238 2.900749
vt 0.101830 0.350857
vt 0.101830 0.350857
vt 0.101830 0.350857
vt 0.101830 0.350857
vt 0.101830 0.350857
vt 0.101830 0.350857
vt 0.101830 0.350857
vt 0.101830 0.350857
vt 0.101830 0.350857
vt 0.101830 0.350857
vt 0.101830 0.350857
vt 0.101830 0.350857
vt 0.101830 0.350857
vt 0.101830 0.350857
vt 0.101830 0.350857
vt 0.101830 0.350857
vt 0.101830 0.350857
vt 0.101830 0.350857
vt 0.101830 0.350857
vt 0.101830 0.350857
vt 0.101830 0.350857
vt 0.101830 0.350857
vt 0.101830 0.350857
vt 0.101830 0.350857
vt 0.101830 0.350857
vt 0.101830 0.350857
vt 0.101830 0.350857
vt 0.101830 0.350857
vt 0.101830 0.350857
vt 0.101830 0.350857
vt 0.101830 0.350857
vt 0.101830 0.350857
vt 0.101830 0.350857
vt 0.101830 0.350857
vt 0.101830 0.350857
vt 0.101830 0.350857
vt 0.101830 0.350857
vt 0.101830 0.350857
vt 0.101830 0.350857
vt 0.101830 0.350857
vt 0.101830 0.350857
vt 0.101830 0.350857
vt 0.101830 0.350857
vt 0.101830 0.350857
vt 0.101830 0.350857
vt 0.101830 0.350857
vt 0.101830 0.350857
vt 0.101830 0.350857
vt 0.101830 0.350857
vt 0.101830 0.350857
vt 0.101830 0.350857
vt 0.101830 0.350857
vt 0.101830 0.350857
vt 0.101830 0.350857
vt 0.039175 0.303196
vt 0.039175 0.303196
vt 0.039175 0.303196
vt 0.039175 0.303196
vt 0.039175 0.303196
vt 0.039175 0.303196
vt 0.039175 0.303196
vt 0.039175 0.303196
vt 0.039175 0.303196
vt 0.039175 0.303196
vt 0.039175 0.303196
vt 0.039175 0.303196
vt 0.039175 0.303196
vt 0.039175 0.303196
vt 0.039175 0.303196
vt 0.039175 0.303196
vt 0.039175 0.303196
vt 0.039175 0.303196
vt 0.039175 0.303196
vt 0.039175 0.303196
vt 0.039175 0.303196
vt 0.039175 0.303196
vt 0.039175 0.303196
vt 0.039175 0.303196
vt 0.039175 0.303196
vt 0.039175 0.303196
vt 0.039175 0.303196
vt 0.039175 0.303196
vn 0.662512 -0.066375 -0.746105
vn 0.662512 -0.066375 -0.746105
vn 0.662512 -0.066375 -0.746105
vn 0.052080 0.998592 -0.010100
vn 0.016523 0.999451 -0.028719
vn -0.018311 0.998732 -0.046901
vn 0.052080 0.998592 -0.010100
vn -0.665430 -0.004966 0.746444
vn -0.665430 -0.004966 0.746444
vn -0.665430 -0.004966 0.746444
vn 0.472971 0.022809 0.880783
vn 0.472971 0.022809 0.880783
vn 0.472971 0.022809 0.880783
vn -0.646323 0.015730 0.762902
vn -0.646323 0.015730 0.762902
vn -0.646322 0.015730 0.762902
vn -0.170408 -0.391203 -0.904390
vn -0.170407 -0.391203 -0.904390
vn -0.170408 -0.391203 -0.904390
vn -0.574559 0.046844 -0.817122
vn -0.574559 0.046844 -0.817121
vn -0.574559 0.046844 -0.817121
vn -0.734579 0.071537 -0.674742
vn -0.734579 0.071537 -0.674742
vn -0.734579 0.071537 -0.674742
vn 0.128070 -0.091402 0.987544
vn 0.084367 -0.090899 0.992280
vn -0.045072 -0.088401 0.995065
vn -0.292166 0.217980 -0.931195
vn -0.292166 0.217979 -0.931195
vn -0.292166 0.217979 -0.931195
vn 0.208355 -0.654563 -0.726729
vn 0.208355 -0.654563 -0.726729
vn 0.208355 -0.654563 -0.726729
vn 0.099615 0.080539 0.991761
vn 0.099615 0.080539 0.991761
vn 0.099615 0.080539 0.991761
vn 0.201057 -0.760028 -0.618007
vn 0.201057 -0.760028 -0.618007
vn 0.201057 -0.760028 -0.618007
vn 0.201057 -0.760029 -0.618007
vn 0.219334 0.008491 0.975613
vn 0.219334 0.008491 0.975613
vn 0.219334 0.008491 0.975613
vn 0.178812 -0.247163 -0.952332
vn 0.178812 -0.247163 -0.952332
vn 0.178812 -0.247163 -0.952332
vn 0.329539 0.041254 -0.943240
vn 0.329539 0.041254 -0.943240
vn 0.329539 0.041254 -0.943240
vn -0.000052 -0.644940 0.764233
vn -0.000052 -0.644940 0.764233
vn -0.000052 -0.644940 0.764233
vn 0.000051 0.634918 0.772580
vn 0.000051 0.634918 0.772580
vn 0.000051 0.634918 0.772580
vn -0.315640 -0.487790 0.813900
vn -0.315640 -0.487790 0.813900
vn -0.315640 -0.487790 0.813900
vn 0.231415 -0.803531 0.548438
vn 0.231415 -0.803531 0.548438
vn 0.231415 -0.803531 0.548438
vn 0.212337 0.389410 -0.896255
vn 0.212337 0.389410 -0.896255
vn 0.212337 0.389410 -0.896255
vn 0.212337 0.389410 -0.896255
vn 0.017550 -0.071980 -0.997252
vn 0.017550 -0.071980 -0.997252
vn 0.017550 -0.071980 -0.997252
vn 0.307143 0.110286 -0.945251
vn 0.307143 0.110286 -0.945251
vn 0.307143 0.110286 -0.945251
vn -0.014708 -0.004641 0.999881
vn -0.014708 -0.004641 0.999881
vn -0.014708 -0.004641 0.999881
vn 0.000008 0.006472 0.999979
vn 0.000008 0.006472 0.999979
vn 0.000008 0.006472 0.999979
vn -0.000623 -0.501713 0.865034
vn -0.000623 -0.501713 0.865034
vn -0.000623 -0.501713 0.865034
vn 0.195478 -0.614108 0.764630
vn 0.195478 -0.614108 0.764630
vn 0.195478 -0.614108 0.764630
vn -0.000689 -0.501786 -0.864991
vn -0.000689 -0.501786 -0.864991
vn -0.000689 -0.501786 -0.864991
vn 0.071604 -0.053422 -0.996002
vn 0.071604 -0.053422 -0.996002
vn 0.071604 -0.053422 -0.996002
vn 0.570009 0.039685 0.820680
vn 0.570009 0.039685 0.820680
vn 0.570009 0.039685 0.820680
vn 0.572103 0.037408 -0.819328
vn 0.572103 0.037408 -0.819328
vn 0.572103 0.037408 -0.819328
vn 0.001046 -0.078381 0.996923
vn 0.001046 -0.078381 0.996923
vn 0.001046 -0.078381 0.996923
vn -0.337388 0.177419 0.924496
vn -0.337388 0.177419 0.924496
vn -0.337388 0.177419 0.924496
vn -0.021706 0.028990 -0.999344
vn -0.021706 0.028990 -0.999344
vn -0.021706 0.028990 -0.999344
vn -0.036201 -0.070938 -0.996824
vn -0.002826 -0.073968 -0.997257
vn -0.008069 -0.073498 -0.997263
vn -0.621404 0.041569 -0.782387
vn -0.621404 0.041569 -0.782387
vn -0.621404 0.041569 -0.782387
vn -0.645615 0.048720 0.762108
vn -0.645615 0.048720 0.762108
vn -0.645615 0.048720 0.762108
vn -0.525179 -0.633761 -0.567921
vn -0.525179 -0.633761 -0.567921
vn -0.525179 -0.633761 -0.567921
vn 0.472924 0.022806 -0.880808
vn 0.472924 0.022806 -0.880808
vn 0.472924 0.022806 -0.880808
vn 0.583123 -0.042202 0.811287
vn 0.583123 -0.042202 0.811287
vn 0.583123 -0.042202 0.811287
vn -0.905649 0.052324 0.420787
vn -0.905649 0.052324 0.420787
vn -0.905649 0.052324 0.420787
vn -0.914355 0.105932 -0.390811
vn -0.914355 0.105932 -0.390811
vn -0.914355 0.105932 -0.390811
vn -0.029540 0.037079 0.998876
vn -0.029540 0.037079 0.998876
vn -0.029540 0.037079 0.998876
vn 0.000009 0.006476 -0.999979
vn 0.000009 0.006476 -0.999979
vn 0.000009 0.006476 -0.999979
vn -0.665439 -0.004966 -0.746436
vn -0.665439 -0.004966 -0.746436
vn -0.665439 -0.004966 -0.746436
vn 0.579398 0.081792 -0.810930
vn 0.579398 0.081792 -0.810930
vn 0.579398 0.081792 -0.810930
vn 0.469288 0.020850 0.882799
vn 0.469288 0.020850 0.882799
vn 0.469288 0.020850 0.882799
vn -0.068914 0.946285 0.315905
vn -0.068914 0.946285 0.315905
vn -0.068914 0.946285 0.315905
vn -0.157887 0.493628 -0.855221
vn -0.157887 0.493628 -0.855221
vn -0.157887 0.493628 -0.855221
vn -0.088956 -0.300822 0.949523
vn -0.088956 -0.300822 0.949523
vn -0.088956 -0.300822 0.949523
vn -0.089046 -0.301124 -0.949418
vn -0.089046 -0.301124 -0.949418
vn -0.089046 -0.301124 -0.949418
vn -0.236351 -0.759892 0.605560
vn -0.236351 -0.759892 0.605560
vn -0.236351 -0.759892 0.605560
vn -0.236348 -0.759883 -0.605571
vn -0.236348 -0.759883 -0.605571
vn -0.236348 -0.759883 -0.605571
vn 0.663546 -0.065698 0.745245
vn 0.663546 -0.065698 0.745245
vn 0.663546 -0.065698 0.745245
vn 0.662422 -0.066366 0.746186
vn 0.662422 -0.066366 0.746186
vn 0.662422 -0.066366 0.746186
vn 0.909709 0.131648 -0.393825
vn 0.909709 0.131648 -0.393825
vn 0.909709 0.131648 -0.393825
vn 0.939183 0.020435 0.342809
vn 0.939183 0.020435 0.342809
vn 0.939183 0.020435 0.342809
vn -0.018311 0.998732 -0.046901
vn 0.016523 0.999451 -0.028719
vn -0.104035 0.990365 -0.091399
vn 0.128070 -0.091402 0.987544
vn 0.221087 -0.091884 0.970916
vn 0.084367 -0.090899 0.992280
vn 0.180770 -0.389464 0.903128
vn 0.180770 -0.389464 0.903128
vn 0.180770 -0.389464 0.903128
vn -0.008069 -0.073498 -0.997263
vn -0.002826 -0.073968 -0.997257
vn 0.035941 -0.077382 -0.996354
vn -0.999217 0.039564 0.000000
vn -0.999217 0.039564 0.000000
vn -0.999217 0.039564 0.000000
vn -0.999217 0.039564 0.000000
vn 0.039558 0.999217 -0.000000
vn 0.039558 0.999217 -0.000000
vn 0.039558 0.999217 -0.000000
vn 0.039558 0.999217 -0.000000
vn 0.999217 -0.039564 -0.000000
vn 0.999217 -0.039564 -0.000000
vn 0.999217 -0.039564 -0.000000
vn 0.999217 -0.039564 -0.000000
vn -0.039555 -0.999217 0.000000
vn -0.039555 -0.999217 0.000000
vn -0.039555 -0.999217 0.000000
vn -0.039555 -0.999217 0.000000
vn 0.000000 0.000000 1.000000
vn 0.000000 0.000000 1.000000
vn 0.000000 0.000000 1.000000
vn 0.000000 0.000000 1.000000
vn -0.000000 0.000000 -1.000000
vn -0.000000 0.000000 -1.000000
vn -0.000000 0.000000 -1.000000
vn -0.000000 0.000000 -1.000000
vn -1.000000 0.000000 0.000000
vn -1.000000 0.000000 0.000000
vn -1.000000 0.000000 0.000000
vn -1.000000 0.000000 0.000000
vn 0.000000 1.000000 0.000000
vn 0.000000 1.000000 0.000000
vn 0.000000 1.000000 0.000000
vn 0.000000 1.000000 0.000000
vn 1.000000 0.000000 -0.000000
vn 1.000000 0.000000 -0.000000
vn 1.000000 0.000000 -0.000000
vn 1.000000 0.000000 -0.000000
vn 0.000000 -1.000000 0.000000
vn 0.000000 -1.000000 0.000000
vn 0.000000 -1.000000 0.000000
vn 0.000000 -1.000000 0.000000
vn 0.000000 0.000000 1.000000
vn 0.000000 0.000000 1.000000
vn 0.000000 0.000000 1.000000
vn 0.000000 0.000000 1.000000
vn -0.000000 0.000000 -1.000000
vn -0.000000 0.000000 -1.000000
vn -0.000000 0.000000 -1.000000
vn -0.000000 0.000000 -1.000000
s off
f 23/1/1 19/2/2 33/3/3
f 13/4/4 32/5/5 34/6/6 15/7/7
f 8/8/8 16/9/9 31/10/10
f 29/11/11 30/12/12 28/13/13
f 6/14/14 16/9/15 8/8/16
f 22/15/17 7/16/18 3/17/19
f 22/15/20 3/17/21 1/18/22
f 15/19/23 21/20/24 13/4/25
f 32/5/26 18/21/27 1/18/28
f 10/22/29 22/15/30 1/18/31
f 17/23/32 30/24/33 26/25/34
f 13/4/35 29/26/36 24/27/37
f 2/28/38 33/3/39 5/29/40 20/30/41
f 14/31/42 12/32/43 6/14/44
f 23/33/45 7/16/46 22/15/47
f 23/33/48 22/15/49 10/22/50
f 8/8/51 14/31/52 6/14/53
f 9/34/54 14/31/55 8/8/56
f 5/29/57 9/35/58 8/36/59
f 9/35/60 5/29/61 33/3/62
f 7/16/63 23/33/64 2/37/65 20/38/66
f 28/13/67 15/19/68 34/39/69
f 15/19/70 28/13/71 11/40/72
f 13/4/73 24/27/74 32/5/75
f 4/41/76 25/42/77 29/26/78
f 26/25/79 25/43/80 4/44/81
f 25/43/82 26/25/83 30/24/84
f 17/23/85 26/25/86 27/45/87
f 10/22/88 1/18/89 34/39/90
f 19/2/91 10/46/92 14/47/93
f 23/1/94 10/46/95 19/2/96
f 1/18/97 12/32/98 32/5/99
f 12/32/100 1/18/101 6/14/102
f 11/40/103 27/48/104 15/19/105
f 1/18/106 18/21/107 34/39/108
f 16/9/109 1/18/110 3/49/111
f 6/14/112 1/18/113 16/9/114
f 3/17/115 20/38/116 5/50/117
f 11/40/118 28/13/119 30/12/120
f 29/11/121 28/13/122 24/27/123
f 21/20/124 4/41/125 13/4/126
f 27/48/127 21/20/128 15/19/129
f 4/41/130 29/26/131 13/4/132
f 27/48/133 11/40/134 17/51/135
f 3/49/136 31/10/137 16/9/138
f 30/12/139 17/51/140 11/40/141
f 25/43/142 30/12/143 29/11/144
f 32/5/145 12/32/146 10/52/147
f 3/17/148 7/16/149 20/38/150
f 31/53/151 5/29/152 8/36/153
f 3/49/154 5/29/155 31/53/156
f 21/54/157 26/25/158 4/44/159
f 27/45/160 26/25/161 21/54/162
f 33/3/163 14/47/164 9/35/165
f 14/47/166 33/3/167 19/2/168
f 23/1/169 33/3/170 2/28/171
f 14/47/172 10/46/173 12/32/174
f 34/6/175 32/5/176 10/46/177
f 32/5/178 24/27/179 18/21/180
f 24/27/181 28/13/182 18/21/183
f 34/39/184 18/21/185 28/13/186
f 35/55/187 36/56/188 38/57/189 37/58/190
f 37/58/191 38/57/192 40/59/193 39/60/194
f 39/60/195 40/59/196 42/61/197 41/62/198
f 41/62/199 42/61/200 36/63/201 35/64/202
f 36/56/203 42/65/204 40/66/205 38/57/206
f 41/67/207 35/55/208 37/58/209 39/68/210
f 43/69/211 44/70/212 46/71/213 45/72/214
f 45/72/215 46/71/216 48/73/217 47/74/218
f 47/74/219 48/73/220 50/75/221 49/76/222
f 49/76/223 50/75/224 44/77/225 43/78/226
f 44/70/227 50/79/228 48/80/229 46/71/230
f 49/81/231 43/69/232 45/72/233 47/82/234
