# This file uses centimeters as units for non-parametric coordinates.

v -2.113122 96.834984 1.820369
v 1.527616 96.834984 1.820369
v -0.960975 133.068848 0.668222
v 0.375470 133.068848 0.668222
v -0.960975 133.068848 -0.668222
v 0.375470 133.068848 -0.668222
v -2.113122 96.834984 -1.820369
v 1.527616 96.834984 -1.820369
v -1.928338 103.184776 1.635585
v 1.342832 103.184776 1.635585
v 1.342832 103.184776 -1.635585
v -1.928338 103.184776 -1.635585
v -0.292753 99.921516 5.040783
v 4.748028 99.921516 0.000000
v -0.292753 99.921516 -5.040783
v -5.333534 99.921516 -0.000000
v -0.292753 95.761391 0.000000
vt 0.079051 0.302689
vt 0.079179 0.302677
vt 0.079128 0.301904
vt 0.079088 0.301910
vt 0.079122 0.301870
vt 0.079081 0.301876
vt 0.079161 0.302600
vt 0.079028 0.302612
vt 0.079015 0.302790
vt 0.079171 0.302777
vt 0.079191 0.302858
vt 0.079042 0.302870
vt 0.079133 0.302838
vt 0.079301 0.302718
vt 0.079072 0.302620
vt 0.078912 0.302752
vt 0.079105 0.302824
vn 0.000000 0.032354 0.999476
vn 0.000000 0.032354 0.999476
vn 0.000000 0.032354 0.999477
vn 0.000000 0.032354 0.999477
vn 0.000000 0.032354 -0.999477
vn 0.000000 0.032354 -0.999477
vn 0.000000 0.032354 -0.999476
vn 0.000000 0.032354 -0.999476
vn 0.999477 0.032354 0.000000
vn 0.999477 0.032354 0.000000
vn 0.999476 0.032354 0.000000
vn 0.999476 0.032354 0.000000
vn -0.999476 0.032354 0.000000
vn -0.999477 0.032354 0.000000
vn -0.999477 0.032354 0.000000
vn -0.999476 0.032354 0.000000
vn 0.660234 0.358034 0.660230
vn 0.660234 0.358034 0.660230
vn 0.660234 0.358034 0.660230
vn 0.660232 0.358033 -0.660232
vn 0.660232 0.358033 -0.660232
vn 0.660232 0.358033 -0.660232
vn -0.660232 0.358033 -0.660232
vn -0.660232 0.358033 -0.660232
vn -0.660232 0.358033 -0.660232
vn -0.660232 0.358033 0.660232
vn -0.660232 0.358033 0.660232
vn -0.660232 0.358033 0.660232
vn 0.000000 -0.721954 0.691941
vn 0.000000 -0.721954 0.691941
vn 0.000000 -0.721954 0.691941
vn 0.691941 -0.721954 0.000000
vn 0.691941 -0.721954 0.000000
vn 0.691941 -0.721954 0.000000
vn 0.000000 -0.721955 -0.691940
vn 0.000000 -0.721955 -0.691940
vn 0.000000 -0.721955 -0.691940
vn -0.673321 -0.305417 0.673320
vn -0.673321 -0.305417 0.673320
vn -0.673321 -0.305417 0.673320
vn -0.691900 0.721994 0.000000
vn -0.691900 0.721994 0.000000
vn -0.691900 0.721994 0.000000
vn 0.000000 0.721994 -0.691900
vn 0.000000 0.721994 -0.691899
vn 0.000000 0.721994 -0.691899
vn 0.691900 0.721994 0.000000
vn 0.691900 0.721994 0.000000
vn 0.691900 0.721994 0.000000
vn 0.000000 0.721994 0.691899
vn 0.000000 0.721994 0.691899
vn 0.000000 0.721994 0.691899
vn -0.691941 -0.721954 0.000000
vn -0.691941 -0.721954 0.000000
vn -0.691941 -0.721954 0.000000
vn 0.673319 -0.305416 0.673322
vn 0.673319 -0.305416 0.673322
vn 0.673319 -0.305416 0.673322
vn 0.673319 -0.305416 -0.673322
vn 0.673319 -0.305416 -0.673322
vn 0.673319 -0.305416 -0.673322
vn -0.673321 -0.305417 -0.673320
vn -0.673321 -0.305417 -0.673320
vn -0.673321 -0.305417 -0.673320
vn 0.000000 -0.861358 -0.507999
vn 0.000000 -0.861358 -0.507999
vn 0.000000 -0.861358 -0.507999
vn 0.508000 -0.861357 0.000000
vn 0.508000 -0.861357 0.000000
vn 0.508000 -0.861357 0.000000
vn 0.000000 -0.861358 0.507999
vn 0.000000 -0.861358 0.507999
vn 0.000000 -0.861358 0.507999
vn -0.508000 -0.861357 0.000000
vn -0.508000 -0.861357 0.000000
vn -0.508000 -0.861357 0.000000
s off
f 9/1/1 10/2/2 4/3/3 3/4/4
f 11/7/5 12/8/6 5/6/7 6/5/8
f 10/2/9 11/7/10 6/5/11 4/3/12
f 5/6/13 12/8/14 9/1/15 3/4/16
f 13/13/17 14/14/18 10/2/19
f 14/14/20 15/15/21 11/7/22
f 12/8/23 15/15/24 16/16/25
f 16/16/26 13/13/27 9/1/28
f 1/12/29 2/11/30 13/13/31
f 2/11/32 8/10/33 14/14/34
f 7/9/35 15/15/36 8/10/37
f 16/16/38 1/12/39 13/13/40
f 16/16/41 9/1/42 12/8/43
f 12/8/44 11/7/45 15/15/46
f 14/14/47 11/7/48 10/2/49
f 13/13/50 10/2/51 9/1/52
f 7/9/53 1/12/54 16/16/55
f 13/13/56 2/11/57 14/14/58
f 14/14/59 8/10/60 15/15/61
f 16/16/62 15/15/63 7/9/64
f 7/9/65 8/10/66 17/17/67
f 8/10/68 2/11/69 17/17/70
f 2/11/71 1/12/72 17/17/73
f 1/12/74 7/9/75 17/17/76
