# This file uses centimeters as units for non-parametric coordinates.

v 81.620094 0.000000 -119.527824
v -81.620094 0.000000 -119.527824
v 81.620094 2.369233 -119.527824
v -81.620094 2.369233 -119.527824
v 80.768066 0.137785 -130.698730
v -80.768066 0.137785 -130.698730
v -80.768066 1.773825 -130.698730
v 80.255165 1.773825 -129.681702
v 80.768066 0.137785 -120.964699
v -80.768066 0.137785 -120.964699
v -80.768066 1.773825 -120.964699
v 80.768066 1.773825 -120.964699
v 72.985413 1.773825 -120.964699
v 73.151505 1.773825 -130.698730
v 73.247215 0.137785 -130.698730
v 72.030624 1.773826 -125.237785
v 70.468597 1.773825 -130.389542
v 71.556931 0.137785 -130.698730
v 70.040146 1.773826 -124.840050
v 72.970108 0.137785 -120.964699
v 71.405052 0.137785 -126.060379
v 72.283302 0.137785 -125.923111
v 47.978130 1.773825 -130.698730
v 48.012932 0.137785 -130.698730
v 46.461971 1.773825 -130.344513
v 46.981441 0.137785 -130.698730
v -24.600767 1.773825 -120.964699
v -25.014820 0.137785 -120.964699
v -20.695818 1.773825 -130.893127
v -21.696339 0.137785 -130.698730
v -26.012859 1.773825 -130.323486
v -25.584826 0.137785 -130.698730
v -21.780516 1.773825 -126.173935
v -24.322023 1.773825 -126.010437
v -22.788971 0.137785 -125.945045
v -24.759724 0.137785 -125.940735
v 47.691208 0.137785 -126.032234
v 47.663597 1.773826 -125.357079
v -62.649868 1.773825 -128.313599
v -64.207077 0.137785 -129.534286
v -81.620094 0.000000 119.527824
v 81.620094 0.000000 119.527824
v -81.620094 2.369233 119.527824
v 81.620094 2.369233 119.527824
v -80.768066 0.137785 130.698730
v 80.768066 0.137785 130.698730
v 80.768066 1.773825 130.698730
v -80.255165 1.773825 129.681702
v -80.768066 0.137785 120.964699
v 80.768066 0.137785 120.964699
v 80.768066 1.773825 120.964699
v -80.768066 1.773825 120.964699
v -72.985413 1.773825 120.964699
v -73.151505 1.773825 130.698730
v -73.247215 0.137785 130.698730
v -72.030624 1.773826 125.237785
v -70.468597 1.773825 130.389542
v -71.556931 0.137785 130.698730
v -70.040146 1.773826 124.840050
v -72.970108 0.137785 120.964699
v -71.405052 0.137785 126.060379
v -72.283302 0.137785 125.923111
v -47.978130 1.773825 130.698730
v -48.012932 0.137785 130.698730
v -46.461971 1.773825 130.344513
v -46.981441 0.137785 130.698730
v 24.600767 1.773825 120.964699
v 25.014820 0.137785 120.964699
v 20.695818 1.773825 130.893127
v 21.696339 0.137785 130.698730
v 26.012859 1.773825 130.323486
v 25.584826 0.137785 130.698730
v 21.780516 1.773825 126.173935
v 24.322023 1.773825 126.010437
v 22.788971 0.137785 125.945045
v 24.759724 0.137785 125.940735
v -47.691208 0.137785 126.032234
v -47.663597 1.773826 125.357079
v 62.649868 1.773825 128.313599
v 64.207077 0.137785 129.534286
v -14.400139 0.000000 119.527824
v -14.672432 2.369233 119.527824
v -14.503589 1.773825 120.964699
v -14.315544 0.137785 120.964699
v -13.829375 1.773825 130.611084
v -13.635212 0.137785 130.698730
v -13.964279 0.137785 125.990509
v -14.169055 1.773825 125.751068
v -47.512138 1.773825 120.964706
v -47.379711 2.369233 119.527824
v -47.565525 0.137785 120.964691
v -47.524849 0.000000 119.527824
v -4.046691 0.000000 -119.527824
v -4.389069 2.369233 -119.527824
v -4.064046 1.773825 -120.964699
v -3.827623 0.137785 -120.964706
v -2.437555 1.773825 -130.743973
v -2.208658 0.137785 -130.698730
v -2.995217 0.137785 -125.969528
v -3.233932 1.773825 -125.955780
v -24.794743 2.369233 -119.527824
v -25.107866 0.000000 -119.527824
vt 0.199111 0.326213
vt 0.195914 0.306352
vt 0.195912 0.306339
vt 0.199105 0.326262
vt 0.196494 0.307287
vt 0.195985 0.306333
vt 0.195984 0.306319
vt 0.196494 0.307274
vt 0.199101 0.327078
vt 0.195985 0.306333
vt 0.195984 0.306319
vt 0.199062 0.326952
vt 0.196470 0.307228
vt 0.199189 0.326078
vt 0.199178 0.326152
vt 0.198429 0.326202
vt 0.196378 0.307254
vt 0.196378 0.307267
vt 0.196426 0.307231
vt 0.196469 0.307241
vt 0.196419 0.307249
vt 0.198417 0.327030
vt 0.196309 0.307118
vt 0.196310 0.307132
vt 0.196300 0.307100
vt 0.196301 0.307114
vt 0.196161 0.306651
vt 0.196161 0.306662
vt 0.196403 0.320322
vt 0.196406 0.320256
vt 0.196080 0.306667
vt 0.196080 0.306678
vt 0.197346 0.320327
vt 0.196117 0.306657
vt 0.197354 0.320395
vt 0.196118 0.306667
vt 0.196348 0.307112
vt 0.196352 0.307092
vt 0.195968 0.306447
vt 0.195964 0.306450
vt 0.196378 0.307254
vt 0.196378 0.307267
vt 0.196310 0.307132
vt 0.196309 0.307118
vt 0.642514 0.055618
vt 0.749353 0.055618
vt 0.749353 0.212641
vt 0.642514 0.212641
vt 0.642514 0.212641
vt 0.749353 0.212641
vt 0.749353 0.055618
vt 0.642514 0.055618
vt 0.195985 0.306333
vt 0.195984 0.306319
vt 0.195912 0.306339
vt 0.195914 0.306352
vt 0.195968 0.306447
vt 0.196494 0.307274
vt 0.196494 0.307287
vt 0.196405 0.307319
vt 0.196405 0.307306
vt 0.196161 0.306662
vt 0.195985 0.306333
vt 0.195984 0.306319
vt 0.196494 0.307274
vt 0.196470 0.307228
vt 0.196161 0.306651
vt 0.196494 0.307287
vt 0.196381 0.307258
vt 0.196428 0.307235
vt 0.196381 0.307271
vt 0.196469 0.307241
vt 0.196422 0.307252
vt 0.196426 0.307231
vt 0.196419 0.307249
vt 0.196300 0.307100
vt 0.196301 0.307114
vt 0.196094 0.306707
vt 0.196094 0.306696
vt 0.196352 0.307092
vt 0.195964 0.306450
vt 0.196128 0.306688
vt 0.196348 0.307112
vt 0.196128 0.306677
vt 0.196118 0.306667
vt 0.196117 0.306657
vt 0.196080 0.306678
vt 0.196080 0.306667
vt 0.196285 0.306894
vt 0.686509 0.055618
vt 0.686331 0.055618
vt 0.196285 0.306882
vt 0.196285 0.306882
vt 0.196285 0.306895
vt 0.196200 0.306904
vt 0.196200 0.306916
vt 0.196243 0.306909
vt 0.196244 0.306892
vt 0.196389 0.307077
vt 0.664924 0.055618
vt 0.196387 0.307073
vt 0.196389 0.307091
vt 0.196388 0.307088
vt 0.664829 0.055618
vt 0.197383 0.324338
vt 0.197393 0.324384
vt 0.196395 0.324357
vt 0.196405 0.324316
vt 0.197389 0.324303
vt 0.196394 0.324277
vt 0.197359 0.324218
vt 0.197350 0.324198
vt 0.196392 0.324173
vt 0.196394 0.324193
vt 0.196404 0.324234
vt 0.197392 0.324253
vt 0.197365 0.324179
vt 0.196403 0.324154
vt 0.196406 0.324117
vt 0.197356 0.324141
vt 0.196227 0.306786
vt 0.693285 0.212641
vt 0.693061 0.212641
vt 0.196225 0.306771
vt 0.196226 0.306773
vt 0.196228 0.306788
vt 0.196150 0.306806
vt 0.196153 0.306822
vt 0.196190 0.306807
vt 0.196188 0.306788
vt 0.679706 0.212641
vt 0.196162 0.306652
vt 0.196161 0.306663
vt 0.679501 0.212641
vt 0.196446 0.320547
vt 0.197379 0.320621
vt 0.197365 0.320450
vt 0.196392 0.320376
vt 0.196490 0.320672
vt 0.196484 0.320504
vt 0.197368 0.320565
vt 0.197381 0.320738
vt 0.196451 0.320715
vt 0.197393 0.320791
vt 0.197362 0.320407
vt 0.196403 0.320334
vt 0.198332 0.326557
vt 0.198432 0.327067
vt 0.198433 0.326251
vt 0.198360 0.326659
vn 0.006685 0.096346 -0.995325
vn 0.006685 0.096346 -0.995325
vn 0.006685 0.096346 -0.995325
vn 0.006685 0.096346 -0.995325
vn -1.000000 0.000000 -0.000000
vn -1.000000 0.000000 -0.000000
vn -1.000000 0.000000 -0.000000
vn -1.000000 0.000000 -0.000000
vn 0.000000 1.000000 0.000000
vn 0.000000 1.000000 0.000000
vn 0.000000 1.000000 0.000000
vn 0.986226 0.163113 -0.027415
vn 0.986226 0.163113 -0.027415
vn 0.986226 0.163113 -0.027415
vn 0.986226 0.163113 -0.027415
vn 0.000000 -0.995434 -0.095454
vn 0.000000 -0.995434 -0.095454
vn 0.000000 -0.995434 -0.095454
vn -0.860148 0.000000 -0.510044
vn -0.860148 0.000000 -0.510044
vn -0.860148 0.000000 -0.510044
vn -0.860148 0.000000 -0.510044
vn 0.000000 0.923826 -0.382813
vn -0.000000 0.923826 -0.382813
vn -0.000000 0.923826 -0.382813
vn -0.000000 0.923826 -0.382813
vn 0.860149 0.000000 -0.510043
vn 0.860149 0.000000 -0.510043
vn 0.860149 0.000000 -0.510043
vn 0.860149 0.000000 -0.510043
vn -0.000000 0.923826 -0.382813
vn -0.000000 0.923826 -0.382813
vn -0.000000 0.923826 -0.382813
vn 0.000000 1.000000 0.000000
vn 0.000000 1.000000 0.000000
vn 0.000000 1.000000 0.000000
vn 0.000000 1.000000 0.000000
vn 0.000000 1.000000 0.000000
vn 0.066019 0.307342 -0.949306
vn 0.066019 0.307342 -0.949306
vn 0.066019 0.307342 -0.949306
vn 0.066019 0.307342 -0.949306
vn 0.000000 -1.000000 -0.000000
vn 0.000000 -1.000000 -0.000000
vn 0.000000 -1.000000 -0.000000
vn 0.000000 -1.000000 -0.000000
vn 0.000000 -1.000000 -0.000000
vn 0.000000 -0.995434 -0.095454
vn 0.000000 -0.995434 -0.095454
vn 0.000000 -0.995434 -0.095454
vn 0.809472 0.585345 0.046110
vn 0.809472 0.585345 0.046110
vn 0.809472 0.585345 0.046110
vn 0.809472 0.585345 0.046110
vn 0.787441 0.472440 -0.395899
vn 0.787441 0.472440 -0.395899
vn 0.787441 0.472440 -0.395899
vn 0.787441 0.472440 -0.395899
vn -0.978852 -0.107470 0.174065
vn -0.978852 -0.107470 0.174065
vn -0.978852 -0.107470 0.174065
vn -0.978852 -0.107470 0.174065
vn -0.977974 -0.062412 -0.199176
vn -0.977974 -0.062412 -0.199176
vn -0.977974 -0.062412 -0.199176
vn -0.977974 -0.062412 -0.199176
vn 0.004034 0.048192 -0.998830
vn 0.004034 0.048192 -0.998830
vn 0.004037 0.053962 -0.998535
vn 0.004031 0.041938 -0.999112
vn -0.000000 1.000000 0.000000
vn -0.000000 1.000000 0.000000
vn -0.000000 1.000000 0.000000
vn -0.000000 -1.000000 -0.000000
vn -0.000000 -1.000000 -0.000000
vn -0.000000 -1.000000 -0.000000
vn 0.096903 0.307076 -0.946739
vn 0.096903 0.307076 -0.946739
vn 0.096903 0.307076 -0.946739
vn 0.096903 0.307076 -0.946739
vn 0.000000 1.000000 -0.000000
vn 0.000000 1.000000 -0.000000
vn 0.000000 1.000000 -0.000000
vn 0.000000 1.000000 -0.000000
vn -0.000000 -1.000000 0.000000
vn -0.000000 -1.000000 0.000000
vn -0.000000 -1.000000 0.000000
vn -0.000000 -1.000000 0.000000
vn -0.000000 -1.000000 -0.000000
vn -0.000000 -1.000000 -0.000000
vn -0.000000 -1.000000 -0.000000
vn -0.000000 -1.000000 -0.000000
vn -0.000000 -1.000000 -0.000000
vn -0.000000 -1.000000 -0.000000
vn -0.000000 -1.000000 -0.000000
vn -0.000000 -1.000000 -0.000000
vn -0.000000 1.000000 -0.000000
vn -0.000000 1.000000 -0.000000
vn -0.000000 1.000000 -0.000000
vn -0.000000 1.000000 -0.000000
vn -0.997968 -0.005946 -0.063445
vn -0.997968 -0.005946 -0.063445
vn -0.997968 -0.005946 -0.063445
vn -0.997968 -0.005946 -0.063445
vn 0.957008 0.219620 -0.189479
vn 0.957008 0.219620 -0.189479
vn 0.957008 0.219620 -0.189479
vn 0.957008 0.219620 -0.189479
vn -0.846921 0.494804 -0.194664
vn -0.846921 0.494804 -0.194664
vn -0.846921 0.494804 -0.194664
vn -0.846921 0.494804 -0.194664
vn -0.843552 0.337505 -0.417745
vn -0.843552 0.337505 -0.417745
vn -0.843552 0.337505 -0.417745
vn -0.843552 0.337505 -0.417745
vn 0.966732 -0.250553 0.051496
vn 0.966732 -0.250553 0.051496
vn 0.966732 -0.250553 0.051496
vn 0.966732 -0.250553 0.051496
vn 0.963386 0.022105 -0.267205
vn 0.963386 0.022105 -0.267205
vn 0.963386 0.022105 -0.267205
vn 0.963386 0.022105 -0.267205
vn -0.000000 1.000000 -0.000000
vn -0.000000 1.000000 -0.000000
vn -0.000000 1.000000 -0.000000
vn -0.037664 0.448538 -0.892970
vn -0.037664 0.448538 -0.892970
vn -0.037664 0.448538 -0.892970
vn -0.037664 0.448538 -0.892970
vn -0.000000 -1.000000 0.000000
vn -0.000000 -1.000000 0.000000
vn -0.000000 -1.000000 0.000000
vn -0.000000 -1.000000 0.000000
vn -0.000000 -1.000000 0.000000
vn -0.000000 -1.000000 0.000000
vn -0.000000 -1.000000 0.000000
vn -0.000000 -1.000000 0.000000
vn -0.000000 -1.000000 0.000000
vn -0.000000 -1.000000 0.000000
vn 0.000000 -0.995434 -0.095454
vn 0.000000 -0.995434 -0.095454
vn 0.000000 -0.995434 -0.095454
vn 0.000000 -0.995434 -0.095454
vn -0.000000 1.000000 -0.000000
vn -0.000000 1.000000 -0.000000
vn -0.000000 1.000000 -0.000000
vn -0.000000 1.000000 -0.000000
vn 0.000000 0.923826 -0.382813
vn 0.000000 0.923826 -0.382813
vn 0.000000 0.923826 -0.382813
vn -0.000000 1.000000 0.000000
vn -0.000000 1.000000 0.000000
vn -0.000000 1.000000 0.000000
vn -0.000000 1.000000 0.000000
vn -0.006685 0.096346 0.995325
vn -0.006685 0.096346 0.995325
vn -0.006685 0.096346 0.995325
vn -0.006685 0.096346 0.995325
vn 0.000000 1.000000 0.000000
vn 0.000000 1.000000 -0.000000
vn 0.000000 1.000000 -0.000000
vn 0.000000 1.000000 0.000000
vn 0.000000 -1.000000 0.000000
vn 0.000000 -1.000000 0.000000
vn 0.000000 -1.000000 0.000000
vn 0.000000 -1.000000 0.000000
vn 1.000000 0.000000 0.000000
vn 1.000000 0.000000 0.000000
vn 1.000000 0.000000 0.000000
vn 1.000000 0.000000 0.000000
vn -1.000000 0.000000 0.000000
vn -1.000000 0.000000 0.000000
vn -1.000000 0.000000 0.000000
vn -1.000000 0.000000 0.000000
vn 1.000000 0.000000 0.000000
vn 1.000000 0.000000 0.000000
vn 1.000000 0.000000 0.000000
vn 1.000000 0.000000 0.000000
vn 0.000000 1.000000 0.000000
vn 0.000000 1.000000 0.000000
vn 0.000000 1.000000 0.000000
vn -0.986226 0.163113 0.027415
vn -0.986226 0.163113 0.027415
vn -0.986226 0.163113 0.027415
vn -0.986226 0.163113 0.027415
vn 0.000000 -0.995434 0.095454
vn 0.000000 -0.995434 0.095454
vn 0.000000 -0.995434 0.095454
vn 0.860148 0.000000 0.510044
vn 0.860148 0.000000 0.510044
vn 0.860148 0.000000 0.510044
vn 0.860148 0.000000 0.510044
vn 0.000000 0.923826 0.382813
vn 0.000000 0.923826 0.382812
vn 0.000000 0.923826 0.382812
vn 0.000000 0.923826 0.382813
vn -0.860149 0.000000 0.510043
vn -0.860149 0.000000 0.510043
vn -0.860149 0.000000 0.510043
vn -0.860149 0.000000 0.510043
vn 0.000000 0.923826 0.382813
vn 0.000000 0.923826 0.382813
vn 0.000000 0.923826 0.382813
vn -0.000000 1.000000 -0.000000
vn -0.000000 1.000000 -0.000000
vn -0.000000 1.000000 -0.000000
vn -0.000000 1.000000 -0.000000
vn -0.000000 1.000000 -0.000000
vn -0.066019 0.307342 0.949306
vn -0.066019 0.307342 0.949306
vn -0.066019 0.307342 0.949306
vn -0.066019 0.307342 0.949306
vn -0.000000 -1.000000 0.000000
vn -0.000000 -1.000000 0.000000
vn -0.000000 -1.000000 0.000000
vn -0.000000 -1.000000 0.000000
vn -0.000000 -1.000000 0.000000
vn 0.000000 -0.995434 0.095454
vn 0.000000 -0.995434 0.095454
vn 0.000000 -0.995434 0.095454
vn -0.809472 0.585345 -0.046110
vn -0.809472 0.585345 -0.046110
vn -0.809472 0.585345 -0.046110
vn -0.809472 0.585345 -0.046110
vn -0.787441 0.472440 0.395899
vn -0.787441 0.472440 0.395899
vn -0.787441 0.472440 0.395899
vn -0.787441 0.472440 0.395899
vn 0.978852 -0.107470 -0.174065
vn 0.978852 -0.107470 -0.174065
vn 0.978852 -0.107470 -0.174065
vn 0.978852 -0.107470 -0.174065
vn 0.977974 -0.062412 0.199176
vn 0.977974 -0.062412 0.199176
vn 0.977974 -0.062412 0.199176
vn 0.977974 -0.062412 0.199176
vn -0.004034 0.048192 0.998830
vn -0.004034 0.048192 0.998830
vn -0.004035 0.041868 0.999115
vn -0.004033 0.054568 0.998502
vn 0.000000 1.000000 -0.000000
vn 0.000000 1.000000 -0.000000
vn 0.000000 1.000000 -0.000000
vn 0.000000 -1.000000 0.000000
vn 0.000000 -1.000000 0.000000
vn 0.000000 -1.000000 0.000000
vn -0.096903 0.307076 0.946739
vn -0.096903 0.307076 0.946739
vn -0.096903 0.307076 0.946739
vn -0.096903 0.307076 0.946739
vn -0.000000 1.000000 0.000000
vn -0.000000 1.000000 0.000000
vn -0.000000 1.000000 0.000000
vn -0.000000 1.000000 0.000000
vn 0.000000 -1.000000 -0.000000
vn 0.000000 -1.000000 -0.000000
vn 0.000000 -1.000000 -0.000000
vn 0.000000 -1.000000 -0.000000
vn 0.000000 -1.000000 0.000000
vn 0.000000 -1.000000 0.000000
vn 0.000000 -1.000000 0.000000
vn 0.000000 -1.000000 0.000000
vn 0.000000 -1.000000 0.000000
vn 0.000000 -1.000000 0.000000
vn 0.000000 -1.000000 0.000000
vn 0.000000 -1.000000 0.000000
vn 0.000000 1.000000 0.000000
vn 0.000000 1.000000 0.000000
vn 0.000000 1.000000 0.000000
vn 0.000000 1.000000 0.000000
vn 0.997968 -0.005946 0.063445
vn 0.997968 -0.005946 0.063445
vn 0.997968 -0.005946 0.063445
vn 0.997968 -0.005946 0.063445
vn -0.957008 0.219620 0.189479
vn -0.957008 0.219620 0.189479
vn -0.957008 0.219620 0.189479
vn -0.957008 0.219620 0.189479
vn 0.846921 0.494804 0.194664
vn 0.846921 0.494804 0.194664
vn 0.846921 0.494804 0.194664
vn 0.846921 0.494804 0.194664
vn 0.843552 0.337505 0.417745
vn 0.843552 0.337505 0.417745
vn 0.843552 0.337505 0.417745
vn 0.843552 0.337505 0.417745
vn -0.966732 -0.250553 -0.051496
vn -0.966732 -0.250553 -0.051496
vn -0.966732 -0.250553 -0.051496
vn -0.966732 -0.250553 -0.051496
vn -0.963386 0.022105 0.267205
vn -0.963386 0.022105 0.267205
vn -0.963386 0.022105 0.267205
vn -0.963386 0.022105 0.267205
vn 0.000000 1.000000 0.000000
vn 0.000000 1.000000 0.000000
vn 0.000000 1.000000 0.000000
vn 0.037664 0.448538 0.892970
vn 0.037664 0.448538 0.892970
vn 0.037664 0.448538 0.892970
vn 0.037664 0.448538 0.892970
vn 0.000000 -1.000000 -0.000000
vn 0.000000 -1.000000 -0.000000
vn 0.000000 -1.000000 -0.000000
vn 0.000000 -1.000000 -0.000000
vn 0.000000 -1.000000 -0.000000
vn 0.000000 -1.000000 -0.000000
vn 0.000000 -1.000000 -0.000000
vn 0.000000 -1.000000 -0.000000
vn 0.000000 -1.000000 -0.000000
vn 0.000000 -1.000000 -0.000000
vn 0.000000 -0.995434 0.095454
vn 0.000000 -0.995434 0.095454
vn 0.000000 -0.995434 0.095454
vn 0.000000 -0.995434 0.095454
vn 0.000000 1.000000 0.000000
vn 0.000000 1.000000 0.000000
vn 0.000000 1.000000 0.000000
vn 0.000000 1.000000 0.000000
vn 0.000000 0.923826 0.382813
vn 0.000000 0.923826 0.382813
vn 0.000000 0.923826 0.382813
vn 0.000000 1.000000 -0.000000
vn 0.000000 1.000000 -0.000000
vn 0.000000 1.000000 -0.000000
vn -0.004033 0.054568 0.998502
vn -0.004035 0.041868 0.999115
vn -0.004034 0.048192 0.998830
vn -0.004034 0.048192 0.998830
vn 0.000000 -1.000000 -0.000000
vn 0.000000 -1.000000 -0.000000
vn 0.000000 -1.000000 -0.000000
vn 0.000000 -1.000000 -0.000000
vn 0.000000 -1.000000 0.000000
vn 0.000000 -1.000000 0.000000
vn 0.000000 -1.000000 0.000000
vn 0.000000 -1.000000 0.000000
vn 0.000000 1.000000 0.000000
vn 0.000000 1.000000 0.000000
vn 0.000000 1.000000 0.000000
vn 0.000000 1.000000 0.000000
vn 0.000000 -0.995434 0.095454
vn 0.000000 -0.995434 0.095454
vn 0.000000 -0.995434 0.095454
vn 0.000000 -0.995434 0.095454
vn 0.000000 1.000000 -0.000000
vn 0.000000 1.000000 -0.000000
vn 0.000000 1.000000 -0.000000
vn 0.000000 1.000000 -0.000000
vn 0.000000 0.923826 0.382812
vn 0.000000 0.923826 0.382812
vn 0.000000 0.923826 0.382813
vn 0.000000 0.923826 0.382813
vn 0.000000 1.000000 -0.000000
vn 0.000000 1.000000 -0.000000
vn 0.000000 1.000000 -0.000000
vn 0.000000 1.000000 -0.000000
vn 0.000000 0.923826 0.382812
vn 0.000000 0.923826 0.382812
vn 0.000000 0.923826 0.382812
vn 0.000000 0.923826 0.382812
vn 0.000000 -1.000000 -0.000000
vn 0.000000 -1.000000 -0.000000
vn 0.000000 -1.000000 -0.000000
vn 0.000000 -0.995434 0.095454
vn 0.000000 -0.995434 0.095454
vn 0.000000 -0.995434 0.095454
vn 0.000000 -0.995434 0.095454
vn -0.000000 0.923826 -0.382813
vn -0.000000 0.923826 -0.382813
vn 0.000000 0.923826 -0.382813
vn 0.000000 0.923826 -0.382813
vn 0.004031 0.041938 -0.999112
vn 0.004037 0.053962 -0.998535
vn 0.004034 0.048192 -0.998830
vn 0.004034 0.048192 -0.998830
vn -0.000000 -1.000000 0.000000
vn -0.000000 -1.000000 0.000000
vn -0.000000 -1.000000 0.000000
vn -0.000000 -1.000000 0.000000
vn -0.000000 -1.000000 -0.000000
vn -0.000000 -1.000000 -0.000000
vn -0.000000 -1.000000 -0.000000
vn -0.000000 -1.000000 -0.000000
vn -0.000000 1.000000 -0.000000
vn -0.000000 1.000000 -0.000000
vn -0.000000 1.000000 -0.000000
vn -0.000000 1.000000 -0.000000
vn 0.000000 -0.995434 -0.095454
vn 0.000000 -0.995434 -0.095454
vn 0.000000 -0.995434 -0.095454
vn -0.000000 1.000000 0.000000
vn -0.000000 1.000000 0.000000
vn -0.000000 1.000000 0.000000
vn -0.000000 1.000000 0.000000
vn 0.000000 0.923826 -0.382813
vn -0.000000 0.923826 -0.382813
vn 0.000000 0.923826 -0.382813
vn 0.000000 -0.995434 -0.095454
vn 0.000000 -0.995434 -0.095454
vn 0.000000 -0.995434 -0.095454
vn 0.000000 -0.995434 -0.095454
vn 0.000000 1.000000 -0.000000
vn 0.000000 1.000000 -0.000000
vn 0.000000 1.000000 0.000000
vn 0.000000 1.000000 0.000000
vn 0.000000 1.000000 -0.000000
vn 0.000000 1.000000 -0.000000
vn 0.000000 1.000000 -0.000000
vn 0.000000 1.000000 -0.000000
vn 0.000000 -1.000000 0.000000
vn 0.000000 -1.000000 0.000000
vn 0.000000 -1.000000 0.000000
vn 0.000000 -1.000000 0.000000
vn 0.000000 -1.000000 0.000000
vn 0.000000 -1.000000 0.000000
vn 0.000000 -1.000000 0.000000
vn 0.000000 -1.000000 0.000000
s off
f 17/17/1 18/18/2 24/24/3 23/23/4
f 10/10/5 11/11/6 7/3/7 6/2/8
f 11/11/9 39/39/10 7/3/11
f 12/1/12 9/4/13 5/9/14 8/12/15
f 28/28/16 2/6/17 10/10/18
f 2/6/19 4/7/20 11/11/21 10/10/22
f 27/29/23 101/30/24 94/33/25 95/35/26
f 3/14/27 1/15/28 9/4/29 12/1/30
f 13/16/31 3/14/32 12/1/33
f 14/22/34 16/147/35 13/16/36 12/1/37 8/12/38
f 5/9/39 15/148/40 14/22/41 8/12/42
f 9/4/43 20/149/44 22/150/45 15/148/46 5/9/47
f 1/15/48 20/149/49 9/4/50
f 17/17/51 19/19/52 21/21/53 18/18/54
f 19/19/55 13/13/56 20/20/57 21/21/58
f 13/16/59 16/147/60 22/150/61 20/149/62
f 16/147/63 14/22/64 15/148/65 22/150/66
f 25/25/67 26/26/68 98/128/69 97/127/70
f 19/19/71 38/38/72 13/13/73
f 40/40/74 10/10/75 6/2/76
f 39/39/77 40/40/78 6/2/79 7/3/80
f 23/23/81 38/38/82 19/19/83 17/17/84
f 35/135/85 99/136/86 96/137/87 28/138/88
f 18/18/89 21/21/90 37/37/91 24/24/92
f 26/26/93 37/37/94 99/129/95 98/128/96
f 29/139/97 33/140/98 100/141/99 97/142/100
f 24/24/101 37/37/102 38/38/103 23/23/104
f 37/37/105 26/26/106 25/25/107 38/38/108
f 30/143/109 35/135/110 33/140/111 29/139/112
f 35/135/113 28/138/114 27/29/115 33/140/116
f 28/28/117 36/36/118 34/34/119 27/27/120
f 36/36/121 32/32/122 31/31/123 34/34/124
f 11/11/125 27/27/126 34/34/127
f 31/31/128 32/32/129 40/40/130 39/39/131
f 32/32/132 36/36/133 10/10/134 40/40/135
f 20/20/136 37/37/137 21/21/138
f 10/10/139 36/36/140 28/28/141
f 1/5/142 93/121/143 96/126/144 20/20/145
f 11/11/146 34/34/147 31/31/148 39/39/149
f 4/7/150 27/27/151 11/11/152
f 13/13/153 38/38/154 100/130/155 95/125/156
f 57/41/157 58/42/158 64/43/159 63/44/160
f 43/45/161 90/100/162 101/131/163 4/48/164
f 92/104/165 102/134/166 93/122/167 81/90/168
f 42/51/169 1/50/170 3/47/171 44/46/172
f 2/49/173 41/52/174 43/45/175 4/48/176
f 50/53/177 51/54/178 47/55/179 46/56/180
f 51/54/181 79/57/182 47/55/183
f 52/58/184 49/59/185 45/60/186 48/61/187
f 68/62/188 42/63/189 50/53/190
f 42/63/191 44/64/192 51/54/193 50/53/194
f 44/64/195 82/92/196 83/93/197 67/67/198
f 43/65/199 41/68/200 49/59/201 52/58/202
f 53/66/203 43/65/204 52/58/205
f 54/69/206 56/70/207 53/66/208 52/58/209 48/61/210
f 45/60/211 55/71/212 54/69/213 48/61/214
f 49/59/215 60/72/216 62/73/217 55/71/218 45/60/219
f 41/68/220 60/72/221 49/59/222
f 57/41/223 59/74/224 61/75/225 58/42/226
f 59/74/227 53/66/228 60/72/229 61/75/230
f 53/66/231 56/70/232 62/73/233 60/72/234
f 56/70/235 54/69/236 55/71/237 62/73/238
f 65/105/239 66/106/240 86/107/241 85/108/242
f 59/74/243 78/80/244 53/66/245
f 80/81/246 50/53/247 46/56/248
f 79/57/249 80/81/250 46/56/251 47/55/252
f 63/44/253 78/80/254 59/74/255 57/41/256
f 75/82/257 87/97/258 84/94/259 68/62/260
f 58/42/261 61/75/262 77/83/263 64/43/264
f 66/106/265 77/109/266 87/110/267 86/107/268
f 69/79/269 73/84/270 88/98/271 85/95/272
f 64/43/273 77/83/274 78/80/275 63/44/276
f 77/83/277 66/77/278 65/76/279 78/80/280
f 70/78/281 75/82/282 73/84/283 69/79/284
f 75/82/285 68/62/286 67/67/287 73/84/288
f 68/62/289 76/85/290 74/86/291 67/67/292
f 76/85/293 72/87/294 71/88/295 74/86/296
f 51/54/297 67/67/298 74/86/299
f 71/88/300 72/87/301 80/81/302 79/57/303
f 80/81/304 72/87/305 76/85/306 50/53/307
f 60/72/308 77/83/309 61/75/310
f 68/62/311 50/53/312 76/85/313
f 91/111/314 92/112/315 81/113/316 84/114/317
f 71/88/318 79/57/319 51/54/320 74/86/321
f 67/67/322 51/54/323 44/64/324
f 53/66/325 78/80/326 89/99/327
f 85/95/328 86/96/329 70/78/330 69/79/331
f 84/114/332 87/110/333 77/109/334 91/111/335
f 86/96/336 87/97/337 75/82/338 70/78/339
f 85/108/340 88/115/341 78/116/342 65/105/343
f 42/63/344 68/62/345 84/94/346 81/89/347
f 83/93/348 88/98/349 73/84/350 67/67/351
f 89/99/352 90/101/353 43/65/354 53/66/355
f 89/117/356 78/116/357 88/115/358 83/118/359
f 83/118/360 82/119/361 90/120/362 89/117/363
f 91/102/364 77/83/365 60/72/366
f 41/68/367 92/103/368 91/102/369 60/72/370
f 95/125/371 94/124/372 3/8/373 13/13/374
f 97/142/375 98/144/376 30/143/377 29/139/378
f 96/126/379 99/129/380 37/37/381 20/20/382
f 98/144/383 99/136/384 35/135/385 30/143/386
f 97/127/387 100/130/388 38/38/389 25/25/390
f 28/28/391 102/133/392 2/6/393
f 95/35/394 100/141/395 33/140/396 27/29/397
f 4/7/398 101/132/399 27/27/400
f 96/137/401 93/145/402 102/146/403 28/138/404
f 94/123/405 82/91/406 44/46/407 3/47/408
f 101/131/409 90/100/410 82/91/411 94/123/412
f 81/90/413 93/122/414 1/50/415 42/51/416
f 2/49/417 102/134/418 92/104/419 41/52/420
