# This file uses centimeters as units for non-parametric coordinates.

v -10.625122 8.524054 -1.154766
v -20.293335 10.538269 -1.154743
v -30.364441 5.435589 -1.154707
v -31.035828 -5.239756 -1.154751
v -22.576111 -16.586506 -1.154739
v -6.395264 -20.144951 -1.154760
v 8.509949 -17.660755 -1.154746
v 20.907959 -6.627174 -1.154743
v 27.682739 -7.740997 -1.154711
v 31.035767 -6.801126 -1.154762
v 24.698181 -1.142618 -1.154764
v 23.069885 7.229385 -1.154724
v 19.929077 2.881296 -1.154724
v 19.557129 -3.149153 -1.154766
v 7.301392 -4.702631 -1.154712
v -7.872375 7.382665 -1.154718
v -3.515808 12.214552 -1.154742
v 1.918884 7.192648 -1.154761
v 4.140015 11.551799 -1.154716
v -12.062073 19.926533 -1.154747
v -16.857910 15.381433 -1.154756
v -9.134888 14.270729 -1.154735
v -4.861084 16.185659 -1.154732
v 1.515564 16.080376 -1.154759
v -7.938904 20.144949 -1.154758
v -10.625088 8.524054 1.154682
v -20.293362 10.538269 1.154705
v -30.364407 5.435589 1.154680
v -31.035854 -5.239756 1.154697
v -22.576138 -16.586506 1.154709
v -6.395290 -20.144951 1.154688
v 8.509922 -17.660755 1.154702
v 20.907932 -6.627174 1.154705
v 27.682774 -7.740997 1.154676
v 31.035801 -6.801126 1.154686
v 24.698215 -1.142618 1.154684
v 23.069920 7.229385 1.154663
v 19.929111 2.881296 1.154663
v 19.557163 -3.149153 1.154682
v 7.301426 -4.702631 1.154675
v -7.872341 7.382665 1.154669
v -3.515834 12.214552 1.154706
v 1.918919 7.192648 1.154687
v 4.140049 11.551799 1.154671
v 1.515538 16.080376 1.154689
v -4.861110 16.185659 1.154655
v -7.938930 20.144949 1.154690
v -12.062099 19.926533 1.154701
v -16.857937 15.381433 1.154693
v -9.134914 14.270729 1.154714
vt 0.080648 0.229852
vt 0.080659 0.229722
vt 0.080707 0.229813
vt 0.080718 0.229914
vt 0.081307 0.229807
vt 0.081161 0.229779
vt 0.081220 0.229681
vt 0.080576 0.229906
vt 0.080619 0.229939
vt 0.080704 0.229961
vt 0.081142 0.229652
vt 0.081085 0.229714
vt 0.081061 0.229783
vt 0.080971 0.229843
vt 0.080934 0.229750
vt 0.080976 0.229678
vt 0.081134 0.229903
vt 0.081183 0.229900
vt 0.080892 0.230014
vt 0.080880 0.230207
vt 0.081098 0.230351
vt 0.081368 0.230428
vt 0.081549 0.230312
vt 0.081367 0.229929
vt 0.081562 0.230108
vt 0.080723 0.229804
vt 0.080675 0.229714
vt 0.080664 0.229844
vt 0.080734 0.229905
vt 0.081323 0.229797
vt 0.081236 0.229672
vt 0.081176 0.229769
vt 0.080591 0.229897
vt 0.080634 0.229930
vt 0.080720 0.229952
vt 0.081159 0.229643
vt 0.081101 0.229705
vt 0.080950 0.229741
vt 0.080986 0.229834
vt 0.081077 0.229774
vt 0.080992 0.229670
vt 0.081149 0.229893
vt 0.081199 0.229890
vt 0.080907 0.230004
vt 0.080895 0.230196
vt 0.081112 0.230340
vt 0.081382 0.230415
vt 0.081563 0.230299
vt 0.081382 0.229918
vt 0.081576 0.230095
vn -0.000000 0.000002 1.000000
vn -0.000002 0.000003 1.000000
vn -0.000002 0.000003 1.000000
vn -0.000001 0.000003 1.000000
vn -0.000003 0.000001 1.000000
vn 0.000002 0.000001 1.000000
vn 0.000003 0.000002 1.000000
vn -0.000002 -0.000002 1.000000
vn -0.000000 0.000002 1.000000
vn 0.000000 0.000001 1.000000
vn -0.000001 0.000003 1.000000
vn 0.000000 0.000001 1.000000
vn -0.000000 0.000002 1.000000
vn -0.000001 0.000003 1.000000
vn 0.000008 0.000002 1.000000
vn 0.000003 0.000002 1.000000
vn 0.000002 0.000001 1.000000
vn 0.000003 0.000009 1.000000
vn 0.000002 0.000003 1.000000
vn 0.000005 -0.000000 1.000000
vn 0.000005 -0.000000 1.000000
vn 0.000004 0.000003 1.000000
vn 0.000002 0.000003 1.000000
vn 0.000004 0.000003 1.000000
vn 0.000003 0.000009 1.000000
vn 0.000002 0.000001 1.000000
vn 0.000001 0.000000 1.000000
vn 0.000002 0.000003 1.000000
vn 0.000002 0.000001 1.000000
vn 0.000001 -0.000000 1.000000
vn -0.000001 0.000003 1.000000
vn -0.000001 0.000003 1.000000
vn 0.000000 0.000001 1.000000
vn -0.000001 0.000002 1.000000
vn -0.000001 0.000002 1.000000
vn 0.000000 0.000001 1.000000
vn 0.000001 0.000001 1.000000
vn 0.000001 0.000001 1.000000
vn 0.000000 0.000001 1.000000
vn 0.000001 0.000000 1.000000
vn 0.000001 0.000001 1.000000
vn 0.000001 0.000000 1.000000
vn 0.000001 0.000001 1.000000
vn 0.000001 0.000000 1.000000
vn 0.000001 -0.000000 1.000000
vn 0.000001 0.000000 1.000000
vn 0.000001 -0.000000 1.000000
vn -0.000000 -0.000000 1.000000
vn -0.000000 -0.000000 1.000000
vn -0.000004 0.000005 -1.000000
vn -0.000004 0.000005 -1.000000
vn -0.000001 -0.000001 -1.000000
vn -0.000002 -0.000000 -1.000000
vn 0.000003 -0.000001 -1.000000
vn 0.000001 -0.000002 -1.000000
vn 0.000002 -0.000002 -1.000000
vn -0.000012 -0.000013 -1.000000
vn -0.000003 -0.000009 -1.000000
vn -0.000001 -0.000001 -1.000000
vn -0.000001 -0.000001 -1.000000
vn -0.000003 -0.000009 -1.000000
vn -0.000001 -0.000001 -1.000000
vn -0.000002 -0.000000 -1.000000
vn 0.000002 -0.000002 -1.000000
vn 0.000001 -0.000002 -1.000000
vn 0.000000 -0.000004 -1.000000
vn -0.000002 -0.000000 -1.000000
vn 0.000003 0.000000 -1.000000
vn 0.000003 0.000000 -1.000000
vn 0.000001 0.000000 -1.000000
vn 0.000002 0.000001 -1.000000
vn -0.000002 -0.000000 -1.000000
vn 0.000002 0.000001 -1.000000
vn 0.000001 0.000000 -1.000000
vn 0.000002 -0.000002 -1.000000
vn 0.000002 -0.000002 -1.000000
vn 0.000001 0.000000 -1.000000
vn 0.000001 0.000000 -1.000000
vn 0.000002 -0.000001 -1.000000
vn -0.000000 0.000001 -1.000000
vn -0.000002 -0.000000 -1.000000
vn -0.000001 -0.000001 -1.000000
vn -0.000001 0.000002 -1.000000
vn -0.000001 0.000002 -1.000000
vn 0.000000 0.000002 -1.000000
vn -0.000000 0.000001 -1.000000
vn 0.000001 0.000000 -1.000000
vn -0.000000 0.000001 -1.000000
vn 0.000000 0.000002 -1.000000
vn 0.000001 0.000000 -1.000000
vn 0.000001 0.000000 -1.000000
vn 0.000001 0.000000 -1.000000
vn 0.000001 -0.000001 -1.000000
vn 0.000002 -0.000001 -1.000000
vn -0.000003 0.000003 -1.000000
vn 0.000002 -0.000001 -1.000000
vn 0.000001 -0.000001 -1.000000
vn -0.000003 0.000003 -1.000000
vn 0.203954 0.978980 -0.000000
vn 0.203954 0.978981 -0.000000
vn 0.203954 0.978980 -0.000000
vn 0.203954 0.978981 -0.000000
vn -0.451965 0.892036 0.000001
vn -0.451965 0.892036 0.000001
vn -0.451965 0.892036 0.000001
vn -0.451965 0.892036 0.000001
vn -0.998028 0.062770 0.000002
vn -0.998028 0.062770 0.000002
vn -0.998028 0.062770 0.000002
vn -0.998028 0.062770 0.000002
vn -0.801704 -0.597721 -0.000009
vn -0.801704 -0.597721 -0.000009
vn -0.801704 -0.597721 -0.000009
vn -0.801704 -0.597721 -0.000009
vn -0.214785 -0.976662 -0.000002
vn -0.214785 -0.976662 -0.000002
vn -0.214785 -0.976662 -0.000002
vn -0.214785 -0.976662 -0.000002
vn 0.164399 -0.986394 0.000002
vn 0.164399 -0.986394 0.000002
vn 0.164399 -0.986394 0.000002
vn 0.164399 -0.986394 0.000002
vn 0.664806 -0.747016 0.000008
vn 0.664806 -0.747016 0.000008
vn 0.664806 -0.747016 0.000008
vn 0.664806 -0.747016 0.000008
vn -0.162229 -0.986753 0.000000
vn -0.162229 -0.986753 0.000000
vn -0.162229 -0.986753 0.000000
vn -0.162229 -0.986753 0.000000
vn 0.269902 -0.962888 -0.000004
vn 0.269902 -0.962888 -0.000004
vn 0.269902 -0.962888 -0.000004
vn 0.269902 -0.962888 -0.000004
vn 0.666013 0.745941 -0.000010
vn 0.666012 0.745941 -0.000010
vn 0.666013 0.745941 -0.000010
vn 0.666012 0.745941 -0.000010
vn 0.981606 0.190916 -0.000015
vn 0.981606 0.190916 -0.000015
vn 0.981606 0.190916 -0.000015
vn 0.981607 0.190916 -0.000015
vn -0.810633 0.585554 0.000012
vn -0.810633 0.585554 0.000012
vn -0.810633 0.585554 0.000012
vn -0.810633 0.585554 0.000012
vn -0.998103 0.061561 0.000015
vn -0.998103 0.061561 0.000015
vn -0.998103 0.061561 0.000015
vn -0.998103 0.061561 0.000015
vn -0.125749 0.992062 0.000002
vn -0.125749 0.992062 0.000002
vn -0.125749 0.992062 0.000002
vn -0.125749 0.992062 0.000002
vn 0.623005 0.782218 -0.000009
vn 0.623005 0.782218 -0.000009
vn 0.623005 0.782218 -0.000009
vn 0.623005 0.782218 -0.000009
vn 0.742695 -0.669630 -0.000001
vn 0.742695 -0.669630 -0.000001
vn 0.742695 -0.669630 -0.000001
vn 0.742695 -0.669630 -0.000001
vn -0.678662 -0.734451 0.000001
vn -0.678662 -0.734451 0.000001
vn -0.678662 -0.734451 0.000001
vn -0.678662 -0.734451 0.000001
vn 0.891004 -0.453996 -0.000014
vn 0.891004 -0.453996 -0.000014
vn 0.891004 -0.453996 -0.000014
vn 0.891004 -0.453996 -0.000014
vn 0.865205 0.501419 -0.000001
vn 0.865205 0.501419 -0.000001
vn 0.865205 0.501419 -0.000001
vn 0.865205 0.501419 -0.000001
vn 0.016509 0.999864 0.000000
vn 0.016509 0.999864 0.000000
vn 0.016509 0.999864 0.000000
vn 0.016509 0.999864 0.000000
vn 0.789509 0.613738 0.000009
vn 0.789509 0.613738 0.000009
vn 0.789509 0.613738 0.000009
vn 0.789510 0.613738 0.000009
vn -0.052899 0.998600 -0.000000
vn -0.052899 0.998600 -0.000000
vn -0.052899 0.998600 -0.000000
vn -0.052899 0.998600 -0.000000
vn -0.687878 0.725826 -0.000008
vn -0.687878 0.725826 -0.000008
vn -0.687878 0.725826 -0.000008
vn -0.687878 0.725826 -0.000008
vn -0.142353 -0.989816 -0.000002
vn -0.142353 -0.989816 -0.000002
vn -0.142353 -0.989816 -0.000002
vn -0.142353 -0.989816 -0.000002
vn -0.967984 0.251014 0.000002
vn -0.967984 0.251014 0.000002
vn -0.967984 0.251014 0.000002
vn -0.967984 0.251014 0.000002
s off
f 36/1/1 37/2/2 38/3/3 39/4/4
f 49/5/5 50/6/6 48/7/7
f 35/8/8 36/1/9 34/9/10
f 33/10/11 34/9/12 36/1/13 39/4/14
f 47/11/15 48/7/16 50/6/17 46/12/18
f 42/13/19 43/14/20 44/15/21 45/16/22
f 42/13/23 45/16/24 46/12/25 50/6/26
f 41/17/27 42/13/28 50/6/29 26/18/30
f 33/10/31 39/4/32 40/19/33 32/20/34
f 32/20/35 40/19/36 31/21/37
f 31/21/38 40/19/39 41/17/40 30/22/41
f 29/23/42 30/22/43 41/17/44 26/18/45
f 29/23/46 26/18/47 27/24/48 28/25/49
f 13/26/50 12/27/51 11/28/52 14/29/53
f 21/30/54 20/31/55 22/32/56
f 10/33/57 9/34/58 11/28/59
f 11/28/60 9/34/61 8/35/62 14/29/63
f 22/32/64 20/31/65 25/36/66 23/37/67
f 19/38/68 18/39/69 17/40/70 24/41/71
f 23/37/72 24/41/73 17/40/74 22/32/75
f 22/32/76 17/40/77 16/42/78 1/43/79
f 15/44/80 14/29/81 8/35/82 7/45/83
f 7/45/84 6/46/85 15/44/86
f 16/42/87 15/44/88 6/46/89 5/47/90
f 16/42/91 5/47/92 4/48/93 1/43/94
f 2/49/95 1/43/96 4/48/97 3/50/98
f 1/43/99 2/49/100 27/24/101 26/18/102
f 2/49/103 3/50/104 28/25/105 27/24/106
f 3/50/107 4/48/108 29/23/109 28/25/110
f 4/48/111 5/47/112 30/22/113 29/23/114
f 5/47/115 6/46/116 31/21/117 30/22/118
f 6/46/119 7/45/120 32/20/121 31/21/122
f 7/45/123 8/35/124 33/10/125 32/20/126
f 8/35/127 9/34/128 34/9/129 33/10/130
f 9/34/131 10/33/132 35/8/133 34/9/134
f 10/33/135 11/28/136 36/1/137 35/8/138
f 11/28/139 12/27/140 37/2/141 36/1/142
f 12/27/143 13/26/144 38/3/145 37/2/146
f 13/26/147 14/29/148 39/4/149 38/3/150
f 14/29/151 15/44/152 40/19/153 39/4/154
f 15/44/155 16/42/156 41/17/157 40/19/158
f 16/42/159 17/40/160 42/13/161 41/17/162
f 17/40/163 18/39/164 43/14/165 42/13/166
f 18/39/167 19/38/168 44/15/169 43/14/170
f 19/38/171 24/41/172 45/16/173 44/15/174
f 24/41/175 23/37/176 46/12/177 45/16/178
f 23/37/179 25/36/180 47/11/181 46/12/182
f 25/36/183 20/31/184 48/7/185 47/11/186
f 20/31/187 21/30/188 49/5/189 48/7/190
f 21/30/191 22/32/192 50/6/193 49/5/194
f 22/32/195 1/43/196 26/18/197 50/6/198
