# This file uses centimeters as units for non-parametric coordinates.

v 0.000000 -58.551510 0.000000
v 0.000000 50.534073 0.000000
v 44.580391 -35.426826 0.000000
v 47.817829 -18.562033 0.000000
v 40.777470 1.132498 0.000000
v 38.961628 32.231960 0.000000
v 45.550537 39.399544 0.000000
v 28.963337 57.897652 0.000000
v 23.079969 53.806946 0.000000
v 30.510391 -48.369991 0.000000
v 11.263531 -49.194748 0.000000
v 37.328384 16.506147 0.000000
v 11.464136 50.701454 0.000000
v -43.380493 -35.784744 0.000000
v -47.817829 -18.562033 0.000000
v -40.996975 -0.926762 0.000000
v -39.298321 33.377991 0.000000
v -46.086483 38.725410 0.000000
v -29.795334 56.754242 0.000000
v -23.911966 52.663582 0.000000
v -30.510391 -48.369991 0.000000
v -13.373735 -51.364845 0.000000
v -37.328384 16.506147 0.000000
v -11.464136 50.701454 0.000000
v 0.000000 -61.668854 -1.639166
v 14.085765 -54.099564 -1.639166
v 0.000000 53.224564 -1.639166
v 12.074497 53.400833 -1.639166
v 32.134789 -50.945251 -1.639166
v 46.953892 -37.312988 -1.639166
v 50.363693 -19.550304 -1.639166
v 44.058319 -0.253544 -1.639166
v 39.315781 17.384949 -1.639166
v 42.499146 31.842278 -1.639166
v 23.772202 57.360344 -1.639166
v 49.438843 39.391457 -1.639166
v 29.968803 61.668846 -1.639166
v -14.085765 -54.099564 -1.639166
v -12.074497 53.400833 -1.639166
v -32.134789 -50.945251 -1.639166
v -46.953892 -37.312988 -1.639166
v -50.363693 -19.550304 -1.639166
v -44.058319 -0.253544 -1.639166
v -39.315781 17.384949 -1.639166
v -42.499146 31.842278 -1.639166
v -23.772202 57.360344 -1.639166
v -49.438843 39.391457 -1.639166
v -29.968803 61.668846 -1.639166
v 0.000000 -61.668854 -7.010269
v 14.085765 -54.099564 -7.010269
v 0.000000 53.224564 -7.010269
v 12.074497 53.400833 -7.010269
v 32.134789 -50.945251 -7.010269
v 46.953892 -37.312988 -7.010269
v 50.363693 -19.550304 -7.010269
v 44.058319 -0.253544 -7.010269
v 39.315781 17.384949 -7.010269
v 42.499146 31.842278 -7.010269
v 23.772202 57.360344 -7.010269
v 49.438843 39.391457 -7.010269
v 29.968803 61.668846 -7.010269
v -14.085765 -54.099564 -7.010269
v -12.074497 53.400833 -7.010269
v -32.134789 -50.945251 -7.010269
v -46.953892 -37.312988 -7.010269
v -50.363693 -19.550304 -7.010269
v -44.058319 -0.253544 -7.010269
v -39.315781 17.384949 -7.010269
v -42.499146 31.842278 -7.010269
v -23.772202 57.360344 -7.010269
v -49.438843 39.391457 -7.010269
v -29.968803 61.668846 -7.010269
vt 0.024829 0.250295
vt 0.024829 0.250295
vt 0.024829 0.250295
vt 0.024829 0.250295
vt 0.024829 0.250295
vt 0.024829 0.250295
vt 0.024829 0.250295
vt 0.024829 0.250295
vt 0.024829 0.250295
vt 0.024829 0.250295
vt 0.024829 0.250295
vt 0.024829 0.250295
vt 0.024829 0.250295
vt 0.024829 0.250295
vt 0.024829 0.250295
vt 0.024829 0.250295
vt 0.024829 0.250295
vt 0.024829 0.250295
vt 0.024829 0.250295
vt 0.024829 0.250295
vt 0.024829 0.250295
vt 0.024829 0.250295
vt 0.024829 0.250295
vt 0.024829 0.250295
vt 0.024829 0.250295
vt 0.024829 0.250295
vt 0.024829 0.250295
vt 0.024829 0.250295
vt 0.024829 0.250295
vt 0.024829 0.250295
vt 0.024829 0.250295
vt 0.024829 0.250295
vt 0.024829 0.250295
vt 0.024829 0.250295
vt 0.024829 0.250295
vt 0.024829 0.250295
vt 0.024829 0.250295
vt 0.024829 0.250295
vt 0.024829 0.250295
vt 0.024829 0.250295
vt 0.024829 0.250295
vt 0.024829 0.250295
vt 0.024829 0.250295
vt 0.024829 0.250295
vt 0.024829 0.250295
vt 0.024829 0.250295
vt 0.024829 0.250295
vt 0.024829 0.250295
vt 0.024829 0.250295
vt 0.024829 0.250295
vt 0.024829 0.250295
vt 0.024829 0.250295
vt 0.024829 0.250295
vt 0.024829 0.250295
vt 0.024829 0.250295
vt 0.024829 0.250295
vt 0.024829 0.250295
vt 0.024829 0.250295
vt 0.024829 0.250295
vt 0.024829 0.250295
vt 0.024829 0.250295
vt 0.024829 0.250295
vt 0.024829 0.250295
vt 0.024829 0.250295
vt 0.024829 0.250295
vt 0.024829 0.250295
vt 0.024829 0.250295
vt 0.024829 0.250295
vt 0.024829 0.250295
vt 0.024829 0.250295
vt 0.024829 0.250295
vt 0.024829 0.250295
vt 0.024829 0.250295
vt 0.024829 0.250295
vt 0.024829 0.250295
vt 0.024829 0.250295
vt 0.024829 0.250295
vt 0.024829 0.250295
vt 0.024829 0.250295
vt 0.024829 0.250295
vt 0.024829 0.250295
vt 0.024829 0.250295
vt 0.024829 0.250295
vt 0.024829 0.250295
vt 0.024829 0.250295
vt 0.024829 0.250295
vt 0.024829 0.250295
vt 0.024829 0.250295
vt 0.024829 0.250295
vt 0.024829 0.250295
vt 0.024829 0.250295
vt 0.024829 0.250295
vt 0.024829 0.250295
vt 0.024829 0.250295
vt 0.024829 0.250295
vt 0.024829 0.250295
vt 0.024829 0.250295
vt 0.024829 0.250295
vt 0.024829 0.250295
vt 0.024829 0.250295
vt 0.024829 0.250295
vt 0.024829 0.250295
vt 0.024829 0.250295
vt 0.024829 0.250295
vn -0.000000 0.000000 -1.000000
vn 0.000000 0.000000 -1.000000
vn -0.000000 0.000000 -1.000000
vn 0.000000 0.000000 -1.000000
vn 0.000000 0.000000 -1.000000
vn -0.000000 0.000000 -1.000000
vn -0.000000 0.000000 -1.000000
vn 0.000000 0.000000 -1.000000
vn -0.000000 0.000000 -1.000000
vn -0.000000 0.000000 -1.000000
vn 0.000000 0.000000 -1.000000
vn 0.000000 0.000000 -1.000000
vn 0.000000 0.000000 -1.000000
vn 0.000000 0.000000 -1.000000
vn -0.000000 0.000000 -1.000000
vn -0.000000 0.000000 -1.000000
vn 0.000000 0.000000 -1.000000
vn 0.000000 0.000000 -1.000000
vn 0.000000 0.000000 -1.000000
vn 0.000000 0.000000 -1.000000
vn -0.000000 0.000000 -1.000000
vn -0.000000 0.000000 -1.000000
vn 0.000000 0.000000 -1.000000
vn 0.000000 0.000000 -1.000000
vn 0.000000 0.000000 -1.000000
vn -0.000000 0.000000 -1.000000
vn 0.000000 0.000000 -1.000000
vn 0.000000 0.000000 -1.000000
vn -0.000000 0.000000 -1.000000
vn 0.000000 0.000000 -1.000000
vn 0.000000 0.000000 -1.000000
vn -0.000000 0.000000 -1.000000
vn 0.000000 0.000000 -1.000000
vn 0.000000 0.000000 -1.000000
vn -0.000000 0.000000 -1.000000
vn -0.000000 0.000000 -1.000000
vn -0.000000 0.000000 -1.000000
vn -0.000000 0.000000 -1.000000
vn -0.000000 0.000000 -1.000000
vn -0.000000 0.000000 -1.000000
vn 0.000000 0.000000 -1.000000
vn -0.000000 0.000000 -1.000000
vn 0.000000 0.000000 -1.000000
vn 0.000000 0.000000 -1.000000
vn -0.000000 0.000000 -1.000000
vn 0.000000 0.000000 -1.000000
vn 0.000000 0.000000 -1.000000
vn -0.000000 0.000000 -1.000000
vn 0.000000 0.000000 -1.000000
vn -0.000000 0.000000 -1.000000
vn -0.000000 0.000000 -1.000000
vn -0.000000 0.000000 -1.000000
vn 0.000000 0.000000 -1.000000
vn -0.000000 0.000000 -1.000000
vn 0.000000 0.000000 -1.000000
vn 0.000000 0.000000 -1.000000
vn -0.000000 0.000000 -1.000000
vn -0.000000 0.000000 -1.000000
vn 0.000000 0.000000 -1.000000
vn 0.000000 0.000000 -1.000000
vn 0.000000 0.000000 -1.000000
vn 0.000000 0.000000 -1.000000
vn 0.000000 0.000000 -1.000000
vn 0.000000 0.000000 -1.000000
vn 0.000000 0.000000 -1.000000
vn 0.000000 0.000000 -1.000000
vn 0.000000 0.000000 1.000000
vn 0.000000 0.000000 1.000000
vn 0.000000 0.000000 1.000000
vn 0.000000 0.000000 1.000000
vn 0.000000 0.000000 1.000000
vn 0.000000 0.000000 1.000000
vn 0.000000 0.000000 1.000000
vn 0.000000 0.000000 1.000000
vn 0.000000 0.000000 1.000000
vn 0.000000 0.000000 1.000000
vn 0.000000 0.000000 1.000000
vn 0.000000 0.000000 1.000000
vn 0.000000 0.000000 1.000000
vn 0.000000 0.000000 1.000000
vn 0.000000 0.000000 1.000000
vn 0.000000 0.000000 1.000000
vn 0.000000 0.000000 1.000000
vn 0.000000 0.000000 1.000000
vn 0.000000 0.000000 1.000000
vn 0.000000 0.000000 1.000000
vn 0.000000 0.000000 1.000000
vn 0.000000 0.000000 1.000000
vn 0.000000 0.000000 1.000000
vn 0.000000 0.000000 1.000000
vn 0.000000 0.000000 1.000000
vn 0.000000 0.000000 1.000000
vn 0.000000 0.000000 1.000000
vn 0.000000 0.000000 1.000000
vn 0.000000 0.000000 1.000000
vn 0.000000 0.000000 1.000000
vn 0.000000 0.000000 1.000000
vn 0.000000 0.000000 1.000000
vn 0.000000 0.000000 1.000000
vn 0.000000 0.000000 1.000000
vn 0.000000 0.000000 1.000000
vn 0.000000 0.000000 1.000000
vn 0.000000 0.000000 1.000000
vn 0.000000 0.000000 1.000000
vn 0.000000 0.000000 1.000000
vn 0.000000 0.000000 1.000000
vn 0.000000 0.000000 1.000000
vn 0.000000 0.000000 1.000000
vn 0.000000 0.000000 1.000000
vn 0.000000 0.000000 1.000000
vn 0.000000 0.000000 1.000000
vn 0.000000 0.000000 1.000000
vn 0.000000 0.000000 1.000000
vn 0.000000 0.000000 1.000000
vn 0.000000 0.000000 1.000000
vn 0.000000 0.000000 1.000000
vn 0.000000 0.000000 1.000000
vn 0.000000 0.000000 1.000000
vn 0.000000 0.000000 1.000000
vn 0.000000 0.000000 1.000000
vn 0.000000 0.000000 1.000000
vn 0.000000 0.000000 1.000000
vn 0.000000 0.000000 1.000000
vn 0.000000 0.000000 1.000000
vn 0.000000 0.000000 1.000000
vn 0.000000 0.000000 1.000000
vn 0.000000 0.000000 1.000000
vn 0.000000 0.000000 1.000000
vn 0.000000 0.000000 1.000000
vn 0.000000 0.000000 1.000000
vn 0.000000 0.000000 1.000000
vn 0.000000 0.000000 1.000000
vn 0.205306 -0.307476 0.929144
vn 0.205306 -0.307476 0.929144
vn 0.205306 -0.307476 0.929144
vn 0.205306 -0.307476 0.929144
vn -0.007596 0.520276 0.853964
vn -0.007596 0.520276 0.853964
vn -0.007596 0.520276 0.853964
vn -0.007596 0.520276 0.853964
vn 0.040620 -0.380729 0.923794
vn 0.040620 -0.380729 0.923794
vn 0.040620 -0.380729 0.923794
vn 0.040620 -0.380729 0.923794
vn 0.325033 -0.353331 0.877218
vn 0.325033 -0.353331 0.877218
vn 0.325033 -0.353331 0.877218
vn 0.325033 -0.353331 0.877218
vn 0.511509 -0.098191 0.853649
vn 0.511509 -0.098191 0.853649
vn 0.511509 -0.098191 0.853649
vn 0.511509 -0.098191 0.853649
vn 0.537886 0.184105 0.822669
vn 0.537886 0.184105 0.822669
vn 0.537886 0.184105 0.822669
vn 0.537886 0.184105 0.822669
vn 0.532845 0.132220 0.835819
vn 0.532845 0.132220 0.835819
vn 0.532845 0.132220 0.835819
vn 0.532845 0.132220 0.835819
vn 0.513940 -0.082014 0.853897
vn 0.513940 -0.082014 0.853897
vn 0.513940 -0.082014 0.853897
vn 0.513940 -0.082014 0.853897
vn -0.146399 0.483096 0.863241
vn -0.146399 0.483096 0.863241
vn -0.146399 0.483096 0.863242
vn -0.146399 0.483096 0.863241
vn 0.365305 -0.335813 0.868206
vn 0.365305 -0.335813 0.868206
vn 0.365305 -0.335813 0.868206
vn 0.365305 -0.335813 0.868206
vn 0.351993 0.311263 0.882732
vn 0.351993 0.311263 0.882732
vn 0.351993 0.311263 0.882732
vn 0.351993 0.311263 0.882732
vn -0.311073 0.447393 0.838494
vn -0.311073 0.447393 0.838494
vn -0.311073 0.447393 0.838494
vn -0.311073 0.447393 0.838494
vn -0.242622 -0.451497 0.858653
vn -0.242622 -0.451497 0.858653
vn -0.242622 -0.451497 0.858653
vn -0.242622 -0.451497 0.858653
vn 0.007596 0.520276 0.853964
vn 0.007596 0.520276 0.853964
vn 0.007596 0.520276 0.853964
vn 0.007596 0.520276 0.853964
vn -0.086595 -0.495497 0.864282
vn -0.086595 -0.495497 0.864282
vn -0.086595 -0.495497 0.864282
vn -0.086595 -0.495497 0.864282
vn -0.307601 -0.324867 0.894339
vn -0.307601 -0.324868 0.894339
vn -0.307601 -0.324868 0.894339
vn -0.307601 -0.324868 0.894339
vn -0.438241 -0.098297 0.893466
vn -0.438241 -0.098297 0.893466
vn -0.438241 -0.098297 0.893466
vn -0.438242 -0.098297 0.893466
vn -0.504045 0.179145 0.844894
vn -0.504045 0.179145 0.844894
vn -0.504045 0.179145 0.844894
vn -0.504045 0.179145 0.844894
vn -0.513542 0.123162 0.849179
vn -0.513542 0.123162 0.849179
vn -0.513542 0.123162 0.849179
vn -0.513542 0.123162 0.849179
vn -0.524357 -0.086251 0.847119
vn -0.524357 -0.086251 0.847119
vn -0.524357 -0.086251 0.847119
vn -0.524357 -0.086251 0.847119
vn 0.100186 0.408508 0.907240
vn 0.100186 0.408508 0.907240
vn 0.100186 0.408508 0.907240
vn 0.100186 0.408508 0.907240
vn -0.369170 -0.392966 0.842194
vn -0.369170 -0.392966 0.842194
vn -0.369170 -0.392966 0.842194
vn -0.369170 -0.392966 0.842194
vn 0.219467 0.315645 0.923148
vn 0.219467 0.315645 0.923148
vn 0.219467 0.315645 0.923148
vn 0.219467 0.315645 0.923148
vn -0.343529 0.304792 0.888307
vn -0.343529 0.304792 0.888307
vn -0.343529 0.304792 0.888307
vn -0.343529 0.304792 0.888307
vn 0.473355 -0.880872 0.000000
vn 0.473355 -0.880872 0.000000
vn 0.473355 -0.880872 0.000000
vn 0.473355 -0.880872 0.000000
vn -0.014597 0.999893 0.000000
vn -0.014597 0.999893 0.000000
vn -0.014597 0.999893 0.000000
vn -0.014597 0.999893 0.000000
vn 0.172154 -0.985070 0.000000
vn 0.172154 -0.985070 0.000000
vn 0.172154 -0.985070 0.000000
vn 0.172154 -0.985070 0.000000
vn 0.677021 -0.735964 0.000000
vn 0.677021 -0.735964 0.000000
vn 0.677021 -0.735964 0.000000
vn 0.677021 -0.735964 0.000000
vn 0.982069 -0.188522 0.000000
vn 0.982069 -0.188522 0.000000
vn 0.982069 -0.188522 0.000000
vn 0.982069 -0.188522 0.000000
vn 0.950542 0.310597 0.000000
vn 0.950542 0.310597 0.000000
vn 0.950542 0.310597 0.000000
vn 0.950542 0.310597 0.000000
vn 0.965702 0.259653 0.000000
vn 0.965702 0.259653 0.000000
vn 0.965702 0.259653 0.000000
vn 0.965702 0.259653 0.000000
vn 0.976605 -0.215039 0.000000
vn 0.976605 -0.215039 0.000000
vn 0.976605 -0.215039 0.000000
vn 0.976605 -0.215039 0.000000
vn -0.320617 0.947209 0.000000
vn -0.320617 0.947209 0.000000
vn -0.320617 0.947209 0.000000
vn -0.320617 0.947209 0.000000
vn 0.736200 -0.676764 0.000000
vn 0.736200 -0.676764 0.000000
vn 0.736200 -0.676764 0.000000
vn 0.736200 -0.676764 0.000000
vn 0.752956 0.658070 0.000000
vn 0.752956 0.658070 0.000000
vn 0.752956 0.658070 0.000000
vn 0.752956 0.658070 0.000000
vn -0.570870 0.821040 0.000000
vn -0.570870 0.821040 0.000000
vn -0.570870 0.821040 0.000000
vn -0.570870 0.821040 0.000000
vn -0.473355 -0.880872 0.000000
vn -0.473355 -0.880872 0.000000
vn -0.473355 -0.880872 0.000000
vn -0.473355 -0.880872 0.000000
vn 0.014597 0.999893 0.000000
vn 0.014597 0.999893 0.000000
vn 0.014597 0.999893 0.000000
vn 0.014597 0.999893 0.000000
vn -0.172154 -0.985070 0.000000
vn -0.172154 -0.985070 0.000000
vn -0.172154 -0.985070 0.000000
vn -0.172154 -0.985070 0.000000
vn -0.677021 -0.735964 0.000000
vn -0.677021 -0.735964 0.000000
vn -0.677021 -0.735964 0.000000
vn -0.677021 -0.735964 0.000000
vn -0.982069 -0.188522 0.000000
vn -0.982069 -0.188522 0.000000
vn -0.982069 -0.188522 0.000000
vn -0.982069 -0.188522 0.000000
vn -0.950542 0.310597 0.000000
vn -0.950542 0.310597 0.000000
vn -0.950542 0.310597 0.000000
vn -0.950542 0.310597 0.000000
vn -0.965702 0.259653 0.000000
vn -0.965702 0.259653 0.000000
vn -0.965702 0.259653 0.000000
vn -0.965702 0.259653 0.000000
vn -0.976605 -0.215039 0.000000
vn -0.976605 -0.215039 0.000000
vn -0.976605 -0.215039 0.000000
vn -0.976605 -0.215039 0.000000
vn 0.320617 0.947209 0.000000
vn 0.320617 0.947209 0.000000
vn 0.320617 0.947209 0.000000
vn 0.320617 0.947209 0.000000
vn -0.736200 -0.676764 0.000000
vn -0.736200 -0.676764 0.000000
vn -0.736200 -0.676764 0.000000
vn -0.736200 -0.676764 0.000000
vn 0.570870 0.821040 0.000000
vn 0.570870 0.821040 0.000000
vn 0.570870 0.821040 0.000000
vn 0.570870 0.821040 0.000000
vn -0.752956 0.658070 0.000000
vn -0.752956 0.658070 0.000000
vn -0.752956 0.658070 0.000000
vn -0.752956 0.658070 0.000000
s off
f 49/79/1 51/82/2 50/80/3
f 51/82/4 52/81/5 50/80/6
f 50/80/7 52/81/8 53/83/9
f 53/83/10 52/81/11 54/84/12
f 54/84/13 52/81/14 55/85/15
f 55/85/16 52/81/17 56/86/18
f 56/86/19 52/81/20 57/87/21
f 57/87/22 52/81/23 58/88/24
f 52/81/25 59/89/26 58/88/27
f 58/88/28 59/89/29 60/90/30
f 60/90/31 59/89/32 61/91/33
f 49/93/34 62/92/35 51/94/36
f 51/94/37 62/92/38 63/95/39
f 62/92/40 64/96/41 63/95/42
f 64/96/43 65/97/44 63/95/45
f 65/97/46 66/98/47 63/95/48
f 66/98/49 67/99/50 63/95/51
f 67/99/52 68/100/53 63/95/54
f 68/100/55 69/101/56 63/95/57
f 63/95/58 69/101/59 70/102/60
f 69/101/61 71/103/62 70/102/63
f 70/102/64 71/103/65 72/104/66
f 1/27/67 11/28/68 2/29/69
f 2/29/70 11/28/71 13/30/72
f 11/28/73 10/31/74 13/30/75
f 10/31/76 3/32/77 13/30/78
f 3/32/79 4/33/80 13/30/81
f 4/33/82 5/34/83 13/30/84
f 5/34/85 12/35/86 13/30/87
f 12/35/88 6/36/89 13/30/90
f 13/30/91 6/36/92 9/37/93
f 6/36/94 7/38/95 9/37/96
f 7/38/97 8/39/98 9/37/99
f 1/40/100 2/41/101 22/42/102
f 2/41/103 24/43/104 22/42/105
f 22/42/106 24/43/107 21/44/108
f 21/44/109 24/43/110 14/45/111
f 14/45/112 24/43/113 15/46/114
f 15/46/115 24/43/116 16/47/117
f 16/47/118 24/43/119 23/48/120
f 23/48/121 24/43/122 17/49/123
f 24/43/124 20/50/125 17/49/126
f 17/49/127 20/50/128 18/51/129
f 20/50/130 19/52/131 18/51/132
f 1/1/133 25/53/134 26/54/135 11/11/136
f 13/13/137 28/55/138 27/56/139 2/2/140
f 11/11/141 26/54/142 29/57/143 10/10/144
f 10/10/145 29/57/146 30/58/147 3/3/148
f 3/3/149 30/58/150 31/59/151 4/4/152
f 4/4/153 31/59/154 32/60/155 5/5/156
f 5/5/157 32/60/158 33/61/159 12/12/160
f 12/12/161 33/61/162 34/62/163 6/6/164
f 9/9/165 35/63/166 28/55/167 13/13/168
f 6/6/169 34/62/170 36/64/171 7/7/172
f 7/7/173 36/64/174 37/65/175 8/8/176
f 8/8/177 37/65/178 35/63/179 9/9/180
f 22/25/181 38/66/182 25/67/183 1/26/184
f 2/14/185 27/68/186 39/69/187 24/15/188
f 21/24/189 40/70/190 38/66/191 22/25/192
f 14/23/193 41/71/194 40/70/195 21/24/196
f 15/22/197 42/72/198 41/71/199 14/23/200
f 16/21/201 43/73/202 42/72/203 15/22/204
f 23/20/205 44/74/206 43/73/207 16/21/208
f 17/19/209 45/75/210 44/74/211 23/20/212
f 24/15/213 39/69/214 46/76/215 20/16/216
f 18/18/217 47/77/218 45/75/219 17/19/220
f 20/16/221 46/76/222 48/78/223 19/17/224
f 19/17/225 48/78/226 47/77/227 18/18/228
f 25/53/229 49/79/230 50/80/231 26/54/232
f 28/55/233 52/81/234 51/82/235 27/56/236
f 26/54/237 50/80/238 53/83/239 29/57/240
f 29/57/241 53/83/242 54/84/243 30/58/244
f 30/58/245 54/84/246 55/85/247 31/59/248
f 31/59/249 55/85/250 56/86/251 32/60/252
f 32/60/253 56/86/254 57/87/255 33/61/256
f 33/61/257 57/87/258 58/88/259 34/62/260
f 35/63/261 59/89/262 52/81/263 28/55/264
f 34/62/265 58/88/266 60/90/267 36/64/268
f 36/64/269 60/90/270 61/91/271 37/65/272
f 37/65/273 61/91/274 59/89/275 35/63/276
f 38/66/277 62/92/278 49/93/279 25/67/280
f 27/68/281 51/94/282 63/95/283 39/69/284
f 40/70/285 64/96/286 62/92/287 38/66/288
f 41/71/289 65/97/290 64/96/291 40/70/292
f 42/72/293 66/98/294 65/97/295 41/71/296
f 43/73/297 67/99/298 66/98/299 42/72/300
f 44/74/301 68/100/302 67/99/303 43/73/304
f 45/75/305 69/101/306 68/100/307 44/74/308
f 39/69/309 63/95/310 70/102/311 46/76/312
f 47/77/313 71/103/314 69/101/315 45/75/316
f 46/76/317 70/102/318 72/104/319 48/78/320
f 48/78/321 72/104/322 71/103/323 47/77/324
