# This file uses centimeters as units for non-parametric coordinates.

v -44.414955 40.634193 33.879608
v -44.414955 29.968575 33.879608
v -41.758842 29.968575 33.879608
v -41.758842 40.634193 33.879608
v -44.354874 40.530640 35.515152
v -44.354874 30.072128 35.515152
v -41.818924 30.072128 35.515152
v -41.818924 40.530640 35.515152
v -47.776047 48.145561 34.088299
v -6.426270 48.145561 34.088299
v -6.426270 48.145561 31.254707
v -47.776047 4.167342 31.254707
v -47.776047 48.145561 31.254707
v -18.656502 4.167342 34.088299
v -6.426270 6.439245 34.088299
v -7.541553 4.167342 33.414658
v -6.426273 4.167342 31.254707
v -6.426270 4.892580 33.414658
v -47.776047 4.167342 33.245922
v -46.320068 4.167342 34.088299
v -47.776047 14.928131 34.088299
v -46.603764 5.570923 34.088299
v -47.776047 5.570923 33.352180
vt 0.494058 0.041386
vt 0.493315 0.041349
vt 0.493278 0.041979
vt 0.493997 0.042018
vt 0.494058 0.041386
vt 0.493315 0.041349
vt 0.493278 0.041979
vt 0.493997 0.042018
vt 0.494058 0.041386
vt 0.493315 0.041349
vt 0.493278 0.041979
vt 0.493997 0.042018
vt 0.492873 0.032668
vt 0.492890 0.032327
vt 0.492909 0.032022
vt 0.492951 0.031721
vt 0.492910 0.032038
vt 0.493634 0.031742
vt 0.493471 0.032226
vt 0.492926 0.032014
vt 0.492908 0.032319
vt 0.493594 0.032290
vt 0.493413 0.032434
vt 0.493588 0.032620
vt 0.493592 0.032708
vt 0.493242 0.032337
vt 0.493605 0.032048
vn 0.000000 0.000000 1.000000
vn 0.000000 0.000000 1.000000
vn 0.000000 0.000000 1.000000
vn 0.000000 0.000000 1.000000
vn 0.000000 0.000000 -1.000000
vn 0.000000 0.000000 -1.000000
vn 0.000000 0.000000 -1.000000
vn 0.000000 0.000000 -1.000000
vn -0.999326 0.000000 0.036710
vn -0.999326 0.000000 0.036710
vn -0.999326 0.000000 0.036710
vn -0.999326 0.000000 0.036710
vn 0.000000 -0.998002 0.063189
vn 0.000000 -0.998002 0.063189
vn 0.000000 -0.998002 0.063189
vn 0.000000 -0.998002 0.063189
vn 0.999326 0.000000 0.036710
vn 0.999326 0.000000 0.036710
vn 0.999326 0.000000 0.036710
vn 0.999326 0.000000 0.036710
vn 0.000000 0.998002 0.063187
vn 0.000000 0.998002 0.063187
vn 0.000000 0.998002 0.063187
vn 0.000000 0.998002 0.063187
vn 1.000000 -0.000000 0.000001
vn 1.000000 -0.000000 0.000001
vn 1.000000 -0.000000 0.000001
vn 1.000000 -0.000000 0.000001
vn 1.000000 -0.000000 0.000001
vn -0.000000 0.000000 -1.000000
vn -0.000000 0.000000 -1.000000
vn -0.000000 0.000000 -1.000000
vn -0.000000 0.000000 -1.000000
vn 0.070824 -0.315361 0.946325
vn 0.070824 -0.315361 0.946325
vn 0.070824 -0.315361 0.946325
vn 0.070824 -0.315361 0.946325
vn 0.524758 -0.806978 0.270955
vn 0.524758 -0.806978 0.270955
vn 0.524758 -0.806978 0.270955
vn -0.530610 -0.066476 0.845006
vn -0.530610 -0.066476 0.845006
vn -0.530610 -0.066476 0.845006
vn 0.000000 1.000000 0.000000
vn 0.000000 1.000000 0.000000
vn 0.000000 1.000000 0.000000
vn 0.000000 1.000000 0.000000
vn -0.000000 -1.000000 0.000000
vn -0.000000 -1.000000 0.000000
vn -0.000000 -1.000000 0.000000
vn -0.000000 -1.000000 0.000000
vn -0.000000 -1.000000 0.000000
vn -0.000000 -1.000000 0.000000
vn 0.000000 0.000000 1.000000
vn 0.000000 0.000000 1.000000
vn 0.000000 0.000000 1.000000
vn 0.000000 0.000000 1.000000
vn 0.000000 0.000000 1.000000
vn 0.000000 0.000000 1.000000
vn 0.000000 0.000000 1.000000
vn -1.000000 0.000000 0.000000
vn -1.000000 0.000000 0.000000
vn -1.000000 0.000000 0.000000
vn -1.000000 0.000000 0.000000
vn -1.000000 0.000000 0.000000
vn -1.000000 0.000000 0.000000
vn -0.513038 -0.084180 0.854228
vn -0.513038 -0.084180 0.854228
vn -0.513038 -0.084180 0.854228
vn -0.513038 -0.084180 0.854228
s off
f 5/9/1 6/10/2 7/11/3 8/12/4
f 1/5/5 4/8/6 3/7/7 2/6/8
f 1/1/9 2/2/10 6/10/11 5/9/12
f 2/2/13 3/3/14 7/11/15 6/10/16
f 3/3/17 4/4/18 8/12/19 7/11/20
f 4/4/21 1/1/22 5/9/23 8/12/24
f 10/13/25 15/14/26 18/15/27 17/16/28 11/17/29
f 12/18/30 13/19/31 11/17/32 17/16/33
f 16/20/34 18/15/35 15/14/36 14/21/37
f 16/20/38 17/16/39 18/15/40
f 23/22/41 22/23/42 21/24/43
f 9/25/44 10/13/45 11/17/46 13/19/47
f 12/18/48 17/16/49 16/20/50 14/21/51 20/26/52 19/27/53
f 15/14/54 10/13/55 9/25/56 21/24/57 22/23/58 20/26/59 14/21/60
f 9/25/61 13/19/62 12/18/63 19/27/64 23/22/65 21/24/66
f 20/26/67 22/23/68 23/22/69 19/27/70
