# This file uses centimeters as units for non-parametric coordinates.

v -1.410330 29.498976 23.016754
v 1.410330 29.498976 23.016754
v -2.412252 40.285076 23.133249
v 2.412252 40.285076 23.133249
v -2.412252 40.292965 22.402927
v 2.412252 40.292965 22.402927
v -1.410330 29.506863 22.286430
v 1.410330 29.506863 22.286430
v -1.410330 33.487236 22.329422
v -1.410330 33.479347 23.059740
v 1.410330 33.479347 23.059740
v 1.410330 33.487236 22.329422
v -0.533319 29.785984 23.019850
v 0.533319 29.785984 23.019850
v 0.533319 33.225739 23.057003
v -0.533319 33.225739 23.057003
v 0.533319 33.233620 22.326681
v -0.533319 33.233620 22.326681
v 0.533319 29.793873 22.289530
v -0.533319 29.793873 22.289530
v -2.412252 36.184616 22.358557
v 2.412252 36.184616 22.358557
v 2.412252 36.176727 23.088877
v -2.412252 36.176727 23.088877
v -0.546078 27.496029 22.264711
v 0.546078 27.496029 22.264711
v 0.546078 27.488140 22.995035
v -0.546078 27.488140 22.995035
vt 0.093279 0.209540
vt 0.092983 0.209478
vt 0.092997 0.209055
vt 0.093297 0.209109
vt 0.093041 0.209046
vt 0.093340 0.209099
vt 0.093026 0.209466
vt 0.093321 0.209528
vt 0.093300 0.210031
vt 0.093008 0.209960
vt 0.092966 0.209974
vt 0.093257 0.210046
vt 0.093056 0.209960
vt 0.093167 0.209987
vt 0.093072 0.209529
vt 0.093184 0.209553
vt 0.093115 0.209517
vt 0.093227 0.209541
vt 0.093099 0.209946
vt 0.093209 0.209973
vt 0.093328 0.209378
vt 0.093031 0.209319
vt 0.092988 0.209330
vt 0.093285 0.209390
vt 0.093300 0.210031
vt 0.093008 0.209960
vt 0.092966 0.209974
vt 0.093257 0.210046
vn 0.000000 -0.010801 0.999942
vn 0.000000 -0.010801 0.999942
vn 0.000000 -0.010801 0.999942
vn 0.000000 -0.010801 0.999942
vn 0.000000 0.999942 0.010800
vn 0.000000 0.999942 0.010800
vn 0.000000 0.999942 0.010800
vn 0.000000 0.999942 0.010800
vn 0.000000 0.010801 -0.999942
vn 0.000000 0.010801 -0.999942
vn 0.000000 0.010801 -0.999942
vn 0.000000 0.010801 -0.999942
vn 0.000000 -0.999942 -0.010800
vn 0.000000 -0.999942 -0.010800
vn 0.000000 -0.999942 -0.010800
vn 0.000000 -0.999942 -0.010800
vn 0.937428 -0.348160 -0.003760
vn 0.937428 -0.348160 -0.003760
vn 0.937428 -0.348160 -0.003760
vn 0.937428 -0.348160 -0.003760
vn -0.937428 -0.348160 -0.003760
vn -0.937428 -0.348160 -0.003760
vn -0.937428 -0.348160 -0.003760
vn -0.937428 -0.348160 -0.003760
vn -1.000000 -0.000000 -0.000000
vn -1.000000 -0.000000 -0.000000
vn -1.000000 -0.000000 -0.000000
vn -1.000000 -0.000000 -0.000000
vn 1.000000 -0.000000 -0.000000
vn 1.000000 -0.000000 -0.000000
vn 1.000000 -0.000000 -0.000000
vn 1.000000 -0.000000 -0.000000
vn 0.000000 -0.010787 0.999942
vn 0.000000 -0.010787 0.999942
vn 0.000000 -0.010787 0.999942
vn 0.000000 -0.010787 0.999942
vn -0.000001 -0.010800 0.999942
vn -0.000001 -0.010800 0.999942
vn -0.000001 -0.010800 0.999942
vn -0.000001 -0.010800 0.999942
vn 0.000000 -0.010793 0.999942
vn 0.000000 -0.010793 0.999942
vn 0.000000 -0.010793 0.999942
vn 0.000000 -0.010793 0.999942
vn 0.000001 -0.010800 0.999942
vn 0.000001 -0.010800 0.999942
vn 0.000001 -0.010800 0.999942
vn 0.000001 -0.010800 0.999942
vn 0.000000 0.010800 -0.999942
vn 0.000000 0.010800 -0.999942
vn 0.000000 0.010800 -0.999942
vn 0.000000 0.010800 -0.999942
vn -0.000000 0.010800 -0.999942
vn -0.000000 0.010800 -0.999942
vn -0.000000 0.010800 -0.999942
vn -0.000000 0.010800 -0.999942
vn 0.000000 0.010800 -0.999942
vn 0.000000 0.010800 -0.999942
vn 0.000000 0.010800 -0.999942
vn 0.000000 0.010800 -0.999942
vn 0.000000 0.010800 -0.999942
vn 0.000000 0.010800 -0.999942
vn 0.000000 0.010800 -0.999942
vn 0.000000 0.010800 -0.999942
vn -1.000000 -0.000000 0.000000
vn -1.000000 -0.000000 0.000000
vn -1.000000 -0.000000 0.000000
vn -1.000000 -0.000000 0.000000
vn 0.000000 -0.999942 -0.010796
vn 0.000000 -0.999942 -0.010796
vn 0.000000 -0.999942 -0.010796
vn 0.000000 -0.999942 -0.010796
vn 1.000000 -0.000000 0.000000
vn 1.000000 -0.000000 0.000000
vn 1.000000 -0.000000 0.000000
vn 1.000000 -0.000000 0.000000
vn 0.000000 0.999942 0.010800
vn 0.000000 0.999942 0.010800
vn 0.000000 0.999942 0.010800
vn 0.000000 0.999942 0.010800
vn 0.000000 0.010799 -0.999942
vn 0.000000 0.010799 -0.999942
vn 0.000000 0.010799 -0.999942
vn 0.000000 0.010799 -0.999942
vn 1.000000 -0.000000 -0.000000
vn 1.000000 -0.000000 -0.000000
vn 1.000000 -0.000000 -0.000000
vn 1.000000 -0.000000 -0.000000
vn 0.000000 -0.010800 0.999942
vn 0.000000 -0.010800 0.999942
vn 0.000000 -0.010800 0.999942
vn 0.000000 -0.010800 0.999942
vn -1.000000 0.000000 0.000000
vn -1.000000 0.000000 0.000000
vn -1.000000 0.000000 0.000000
vn -1.000000 0.000000 0.000000
vn 0.000000 0.010800 -0.999942
vn 0.000000 0.010800 -0.999942
vn 0.000000 0.010800 -0.999942
vn 0.000000 0.010800 -0.999942
vn 0.918745 -0.394828 -0.004264
vn 0.918745 -0.394828 -0.004264
vn 0.918745 -0.394828 -0.004264
vn 0.918745 -0.394828 -0.004264
vn 0.000000 -0.010800 0.999942
vn 0.000000 -0.010800 0.999942
vn 0.000000 -0.010800 0.999942
vn 0.000000 -0.010800 0.999942
vn -0.918745 -0.394828 -0.004264
vn -0.918745 -0.394828 -0.004264
vn -0.918745 -0.394828 -0.004264
vn -0.918745 -0.394828 -0.004264
s off
f 10/1/1 11/2/2 23/23/3 24/24/4
f 3/4/5 4/3/6 6/5/7 5/6/8
f 21/21/9 22/22/10 12/7/11 9/8/12
f 25/25/13 26/26/14 27/27/15 28/28/16
f 11/2/17 12/7/18 22/22/19 23/23/20
f 9/8/21 10/1/22 24/24/23 21/21/24
f 7/9/25 1/12/26 10/1/27 9/8/28
f 2/11/29 8/10/30 12/7/31 11/2/32
f 1/12/33 2/11/34 14/13/35 13/14/36
f 2/11/37 11/2/38 15/15/39 14/13/40
f 11/2/41 10/1/42 16/16/43 15/15/44
f 10/1/45 1/12/46 13/14/47 16/16/48
f 9/8/49 12/7/50 17/17/51 18/18/52
f 12/7/53 8/10/54 19/19/55 17/17/56
f 8/10/57 7/9/58 20/20/59 19/19/60
f 7/9/61 9/8/62 18/18/63 20/20/64
f 14/13/65 15/15/66 17/17/67 19/19/68
f 15/15/69 16/16/70 18/18/71 17/17/72
f 16/16/73 13/14/74 20/20/75 18/18/76
f 13/14/77 14/13/78 19/19/79 20/20/80
f 5/6/81 6/5/82 22/22/83 21/21/84
f 23/23/85 22/22/86 6/5/87 4/3/88
f 24/24/89 23/23/90 4/3/91 3/4/92
f 21/21/93 24/24/94 3/4/95 5/6/96
f 7/9/97 8/10/98 26/26/99 25/25/100
f 8/10/101 2/11/102 27/27/103 26/26/104
f 2/11/105 1/12/106 28/28/107 27/27/108
f 1/12/109 7/9/110 25/25/111 28/28/112
