# This file uses centimeters as units for non-parametric coordinates.

v -103.274689 -11.060142 19.120377
v 103.274689 -11.060142 19.120377
v -103.274689 6.763390 19.120377
v 103.274689 4.290649 19.120377
v -103.274689 11.060143 -19.120377
v 103.274689 11.060143 -19.120377
v -103.274689 -11.060142 -19.120377
v 103.274689 -11.060142 -19.120377
v -103.274689 11.060143 0.537010
v -76.125626 11.060143 19.120377
v -96.811790 11.060150 14.236801
v -53.393204 11.060143 19.120377
v -28.549702 11.060143 19.120377
v -40.948246 11.060150 14.865273
v -41.606453 8.173040 19.120377
v 84.592285 11.060143 19.120377
v 103.274689 11.060143 10.457764
v 38.515465 -11.060142 19.120377
v 75.978577 -11.060142 19.120377
v 59.683292 -6.765211 19.120377
v 59.422035 -11.060150 15.531693
vt 0.458609 0.182627
vt 0.457707 0.183023
vt 0.457695 0.182972
vt 0.458613 0.182568
vt 0.457614 0.182820
vt 0.458523 0.182432
vt 0.457629 0.182882
vt 0.458521 0.182499
vt 0.458570 0.182499
vt 0.458493 0.182615
vt 0.458573 0.182558
vt 0.458435 0.182640
vt 0.458348 0.182677
vt 0.458385 0.182646
vt 0.458393 0.182662
vt 0.457776 0.182926
vt 0.457681 0.182941
vt 0.457990 0.182899
vt 0.457826 0.182971
vt 0.457898 0.182935
vt 0.457891 0.182926
vn 0.000000 0.000000 1.000000
vn 0.000000 0.000000 1.000000
vn 0.000000 0.000000 1.000000
vn 0.000000 0.000000 1.000000
vn 0.000000 0.000000 1.000000
vn 0.000000 1.000000 -0.000000
vn 0.000000 1.000000 -0.000000
vn 0.000000 1.000000 -0.000000
vn 0.000000 0.000000 -1.000000
vn 0.000000 0.000000 -1.000000
vn 0.000000 0.000000 -1.000000
vn 0.000000 0.000000 -1.000000
vn 0.000000 -1.000000 -0.000000
vn 0.000000 -1.000000 -0.000000
vn 0.000000 -1.000000 -0.000000
vn 1.000000 0.000000 0.000000
vn 1.000000 0.000000 0.000000
vn 1.000000 0.000000 0.000000
vn 1.000000 0.000000 0.000000
vn 1.000000 0.000000 0.000000
vn -1.000000 0.000000 0.000000
vn -1.000000 0.000000 0.000000
vn -1.000000 0.000000 0.000000
vn -1.000000 0.000000 0.000000
vn -1.000000 0.000000 0.000000
vn -0.130337 0.823534 0.552090
vn -0.130337 0.823534 0.552090
vn -0.130337 0.823534 0.552090
vn 0.195287 0.797270 0.571160
vn 0.195287 0.797270 0.571160
vn 0.195287 0.797270 0.571160
vn -0.182749 0.826469 0.532495
vn -0.182749 0.826469 0.532495
vn -0.182749 0.826470 0.532495
vn 0.274538 0.757668 0.592088
vn 0.274538 0.757668 0.592088
vn 0.274538 0.757668 0.592088
vn 0.129936 -0.640399 0.756971
vn 0.129936 -0.640399 0.756971
vn 0.129936 -0.640399 0.756971
vn -0.165115 -0.626458 0.761766
vn -0.165115 -0.626458 0.761766
vn -0.165115 -0.626458 0.761766
vn 0.000000 0.000000 1.000000
vn 0.000000 0.000000 1.000000
vn 0.000000 0.000000 1.000000
vn 0.000000 0.000000 1.000000
vn 0.000000 0.000000 1.000000
vn -0.000000 0.000000 1.000000
vn -0.000000 0.000000 1.000000
vn -0.000000 0.000000 1.000000
vn -0.000000 0.000000 1.000000
vn 0.000000 0.000000 1.000000
vn 0.000000 0.000000 1.000000
vn 0.000000 0.000000 1.000000
vn 0.000000 0.000000 1.000000
vn 0.000000 -1.000000 0.000000
vn 0.000000 -1.000000 0.000000
vn 0.000000 -1.000000 0.000000
vn 0.000000 -1.000000 0.000000
vn -0.000000 -1.000000 0.000000
vn -0.000000 -1.000000 0.000000
vn -0.000000 -1.000000 0.000000
vn -0.000000 -1.000000 0.000000
vn -0.430914 0.879198 0.203284
vn -0.430914 0.879198 0.203284
vn -0.430914 0.879198 0.203284
vn -0.000000 1.000000 0.000000
vn -0.000000 1.000000 0.000000
vn -0.000000 1.000000 0.000000
vn -0.000000 1.000000 0.000000
vn -0.000000 1.000000 0.000000
vn -0.000000 1.000000 0.000000
vn 0.000000 1.000000 0.000000
vn 0.000000 1.000000 0.000000
vn 0.000000 1.000000 0.000000
vn 0.000000 1.000000 0.000000
vn 0.000000 1.000000 0.000000
s off
f 1/1/1 15/15/2 12/12/3 10/10/4 3/4/5
f 5/6/6 14/14/7 6/5/8
f 5/6/9 6/5/10 8/7/11 7/8/12
f 7/8/13 8/7/14 21/21/15
f 2/2/16 8/7/17 6/5/18 17/17/19 4/3/20
f 7/8/21 1/1/22 3/4/23 9/9/24 5/6/25
f 3/4/26 10/10/27 11/11/28
f 15/15/29 14/14/30 12/12/31
f 13/13/32 14/14/33 15/15/34
f 17/17/35 16/16/36 4/3/37
f 18/18/38 21/21/39 20/20/40
f 20/20/41 21/21/42 19/19/43
f 15/15/44 20/20/45 4/3/46 16/16/47 13/13/48
f 1/1/49 18/18/50 20/20/51 15/15/52
f 4/3/53 20/20/54 19/19/55 2/2/56
f 21/21/57 8/7/58 2/2/59 19/19/60
f 7/8/61 21/21/62 18/18/63 1/1/64
f 3/4/65 11/11/66 9/9/67
f 9/9/68 11/11/69 10/10/70 12/12/71 14/14/72 5/6/73
f 6/5/74 14/14/75 13/13/76 16/16/77 17/17/78
