# This file uses centimeters as units for non-parametric coordinates.

v -49.074356 -116.398689 4.484892
v 49.074356 -116.398689 4.484892
v -48.671837 -115.648483 5.600500
v 48.328747 -116.143608 5.600485
v -48.325375 -120.723175 -0.884730
v 48.343990 -120.885605 -0.884730
v -49.074356 -121.114441 0.230863
v 49.074356 -121.114441 0.230863
v -50.557056 -107.095840 6.384702
v 50.557056 -107.095840 6.384702
v 50.557056 -107.095955 4.270345
v -50.557056 -107.095955 4.270345
v -49.910641 -108.628204 5.600485
v 49.910641 -108.628204 5.600485
v 49.910641 -108.628296 4.484899
v -49.910641 -108.628296 4.484899
v -50.557056 -110.693886 0.445410
v 50.557056 -110.693886 0.445410
v 50.557056 -110.693962 -1.668947
v -50.557056 -110.693962 -1.668947
v -49.910641 -111.863068 0.230856
v 49.910641 -111.863068 0.230856
v 49.910641 -111.863144 -0.884730
v -49.910641 -111.863144 -0.884730
v -50.557056 -42.224983 6.384702
v 50.557056 -42.224983 6.384702
v 50.557056 -42.225094 4.270349
v -50.557056 -42.225094 4.270349
v -50.557056 0.000000 0.719254
v 50.557056 0.000000 0.719254
v 50.557056 2.370758 0.719156
v -50.557056 2.370758 0.719156
v -50.557056 -45.762676 0.445417
v 50.557056 -45.762676 0.445417
v 50.557056 -45.762768 -1.668936
v -50.557056 -45.762768 -1.668936
v -24.760950 -108.628204 5.600485
v -24.825640 -108.628296 4.484899
v -19.918682 -120.924728 -0.884730
v -17.731609 -120.867523 -0.884722
v -18.224028 -121.114441 0.230863
v -19.446404 -121.114441 0.230863
v -19.686615 -116.308319 -0.884730
v -19.480301 -116.168205 0.230863
v -39.701637 -121.114433 -0.884730
v -42.873207 -120.966721 -0.884722
v -42.385979 -121.114441 0.230863
v -40.412422 -121.114441 0.230863
v -42.118931 -116.280243 0.230863
v -40.927357 -115.758369 0.230856
v -44.610870 -111.803673 -0.924616
v -41.912140 -116.809746 -0.884730
v -40.173241 -116.211327 -0.884722
v 29.462166 -121.114433 0.230863
v 27.433475 -121.114433 0.230863
v 31.199875 -116.655647 0.230863
v 29.921368 -116.322990 0.230856
v 30.408184 -111.844528 -0.897219
v 31.825645 -115.985146 -0.884730
v 29.657856 -115.709892 -0.884730
v 30.612694 -120.652809 -0.884722
v 26.935772 -121.114433 -0.884730
v 30.399887 -111.844467 0.234274
v -44.906158 -111.870216 0.238920
v 8.421220 -115.970749 -0.884722
v 5.976116 -119.265633 -0.884730
v 4.884331 -121.114441 0.230863
v 5.796606 -116.247406 0.230863
v 32.745781 -111.682388 4.484899
v -38.998360 -112.519058 4.484899
v 32.539261 -111.652969 5.600485
v -38.884552 -112.453400 5.600492
v 13.346951 -111.915688 5.600485
v 19.447712 -114.998085 5.600477
v 19.638636 -116.398689 4.484892
v 13.836316 -111.988548 4.484892
v -38.630844 -116.398689 4.484892
v -39.410370 -116.398689 4.484892
v -39.637138 -116.434387 5.600492
v -37.863113 -115.819489 5.600485
v 33.276497 -116.398689 4.484892
v 34.078743 -116.398689 4.484892
v 32.280106 -116.398689 5.600485
v 34.521702 -116.122353 5.600485
v -23.662464 -116.296295 5.600477
v -26.612404 -116.122765 5.600485
v -25.354849 -112.440842 5.600477
v -22.729990 -112.627274 5.600477
v -24.428410 -116.398689 4.484892
v -26.050907 -116.398689 4.484892
v -24.712345 -112.612495 4.484899
v -23.038738 -112.603928 4.484892
v -50.557053 1.002987 6.384695
v 50.557053 1.002987 6.384695
v 50.557053 0.000000 4.145189
v -50.557053 0.000000 4.145189
v 50.557056 1.002987 -1.668934
v -50.557056 1.002987 -1.668934
vt 0.196659 0.305458
vt 0.641373 0.140862
vt 0.641373 0.249557
vt 0.641451 0.249557
vt 0.641451 0.140862
vt 0.641450 0.140862
vt 0.641450 0.249557
vt 0.641373 0.249557
vt 0.641373 0.140862
vt 0.196220 0.305425
vt 0.196664 0.305418
vt 0.196224 0.305431
vt 0.196221 0.305424
vt 0.196663 0.305416
vt 0.571732 0.140862
vt 0.571638 0.249557
vt 0.571638 0.249557
vt 0.571638 0.140862
vt 0.571732 0.140862
vt 0.571638 0.140862
vt 0.571732 0.249557
vt 0.571732 0.249557
vt 0.625486 0.140862
vt 0.625473 0.249557
vt 0.625473 0.249557
vt 0.625473 0.140862
vt 0.625486 0.140862
vt 0.625473 0.140862
vt 0.625486 0.249557
vt 0.625486 0.249557
vt 0.571439 0.140862
vt 0.571651 0.249557
vt 0.571652 0.249557
vt 0.571652 0.140862
vt 0.571439 0.140862
vt 0.571651 0.140862
vt 0.571439 0.249557
vt 0.571439 0.249557
vt 0.196551 0.305425
vt 0.196644 0.304427
vt 0.196607 0.304422
vt 0.196206 0.304434
vt 0.196288 0.304427
vt 0.196211 0.304436
vt 0.196288 0.304428
vt 0.196640 0.304429
vt 0.196605 0.304423
vt 0.196634 0.304382
vt 0.196605 0.304384
vt 0.196633 0.304384
vt 0.196607 0.304404
vt 0.196638 0.304421
vt 0.196604 0.304383
vt 0.196596 0.304383
vt 0.196507 0.304386
vt 0.196596 0.304384
vt 0.196500 0.304384
vt 0.196308 0.304389
vt 0.196213 0.304430
vt 0.196299 0.304389
vt 0.196291 0.304409
vt 0.196215 0.304389
vt 0.196299 0.304388
vt 0.196216 0.304391
vt 0.196607 0.304401
vt 0.196299 0.304410
vt 0.196509 0.304404
vt 0.196212 0.304428
vt 0.196292 0.304408
vt 0.196598 0.304407
vt 0.196637 0.304422
vt 0.196598 0.304403
vt 0.196507 0.304384
vt 0.196308 0.304388
vt 0.196300 0.304409
vt 0.196499 0.304386
vt 0.196506 0.304407
vt 0.196390 0.304408
vt 0.196399 0.304386
vt 0.196402 0.304388
vt 0.196401 0.304408
vt 0.196661 0.305423
vt 0.196614 0.305438
vt 0.196658 0.305458
vt 0.196299 0.305439
vt 0.196228 0.305465
vt 0.196224 0.305432
vt 0.196300 0.305439
vt 0.196228 0.305466
vt 0.196616 0.305458
vt 0.196297 0.305464
vt 0.196295 0.305465
vt 0.196616 0.305459
vt 0.196294 0.305464
vt 0.196298 0.305465
vt 0.196661 0.305424
vt 0.196551 0.305426
vt 0.196382 0.305436
vt 0.196549 0.305443
vt 0.196556 0.305442
vt 0.196556 0.305442
vt 0.196549 0.305442
vt 0.196612 0.305458
vt 0.196557 0.305460
vt 0.196614 0.305439
vt 0.196612 0.305459
vt 0.196384 0.305437
vt 0.196550 0.305460
vt 0.196550 0.305459
vt 0.196358 0.305464
vt 0.196357 0.305463
vt 0.196557 0.305459
vt 0.619396 0.140862
vt 0.619396 0.249557
vt 0.621803 0.249557
vt 0.621803 0.140862
vt 0.622906 0.249557
vt 0.622906 0.140862
vn -0.039957 -0.950682 0.307583
vn -0.039957 -0.950682 0.307583
vn -0.039957 -0.950682 0.307583
vn -0.039957 -0.950682 0.307583
vn 0.000000 0.981298 0.192494
vn 0.000000 0.981298 0.192494
vn 0.000000 0.981298 0.192494
vn 0.000000 0.981298 0.192494
vn 0.000000 -1.000000 0.000000
vn 0.000000 -1.000000 0.000000
vn 0.000000 -1.000000 0.000000
vn 0.000000 -1.000000 0.000000
vn 1.000000 0.000000 0.000001
vn 1.000000 0.000000 0.000001
vn 1.000000 0.000000 0.000001
vn 1.000000 0.000000 0.000001
vn -1.000000 0.000000 0.000001
vn -1.000000 0.000000 0.000001
vn -1.000000 0.000000 0.000001
vn -1.000000 0.000000 0.000001
vn 0.000000 -0.455577 0.890197
vn 0.000000 -0.455577 0.890197
vn 0.000000 -0.455577 0.890197
vn 0.000000 -0.455577 0.890197
vn 0.921372 -0.388682 0.000023
vn 0.921372 -0.388682 0.000023
vn 0.921372 -0.388682 0.000023
vn 0.921372 -0.388682 0.000023
vn 0.000000 -0.138664 -0.990339
vn 0.000000 -0.138664 -0.990339
vn 0.000000 -0.138664 -0.990339
vn -0.921371 -0.388683 0.000023
vn -0.921371 -0.388683 0.000023
vn -0.921371 -0.388683 0.000023
vn -0.921371 -0.388683 0.000023
vn 0.000000 0.000001 1.000000
vn 0.000000 0.000001 1.000000
vn 0.000000 0.000001 1.000000
vn 0.000000 0.000001 1.000000
vn 0.932862 -0.147577 0.328618
vn 0.932862 -0.147577 0.328618
vn 0.932862 -0.147577 0.328618
vn 0.932862 -0.147577 0.328618
vn -0.966070 -0.135537 0.219861
vn -0.966070 -0.135537 0.219861
vn -0.966070 -0.135537 0.219861
vn -0.966070 -0.135537 0.219861
vn -0.001844 -0.181481 0.983393
vn -0.001844 -0.181481 0.983393
vn -0.001844 -0.181481 0.983393
vn 0.875151 -0.483850 0.000025
vn 0.875151 -0.483850 0.000025
vn 0.875151 -0.483850 0.000025
vn 0.875151 -0.483850 0.000025
vn -0.875152 -0.483848 0.000025
vn -0.875152 -0.483848 0.000025
vn -0.875152 -0.483848 0.000025
vn -0.875152 -0.483848 0.000025
vn 0.939287 -0.123512 -0.320134
vn 0.939287 -0.123512 -0.320134
vn 0.939287 -0.123512 -0.320134
vn 0.939287 -0.123512 -0.320134
vn -0.933784 -0.124850 -0.335351
vn -0.933784 -0.124850 -0.335351
vn -0.933784 -0.124850 -0.335351
vn -0.933784 -0.124850 -0.335351
vn 0.000000 0.000000 1.000000
vn 0.000000 0.000000 1.000000
vn 0.000000 0.000000 1.000000
vn 0.000000 0.000000 1.000000
vn 1.000000 0.000000 0.000000
vn 1.000000 0.000000 0.000000
vn 1.000000 0.000000 0.000000
vn 1.000000 0.000000 0.000000
vn 0.000000 0.000000 -1.000000
vn 0.000000 0.000000 -1.000000
vn 0.000000 0.000000 -1.000000
vn 0.000000 0.000000 -1.000000
vn -1.000000 0.000000 0.000000
vn -1.000000 0.000000 0.000000
vn -1.000000 0.000000 0.000000
vn -1.000000 0.000000 0.000000
vn 0.000000 -0.005984 0.999982
vn 0.000000 -0.005984 0.999982
vn 0.000000 -0.005984 0.999982
vn 0.000000 -0.005984 0.999982
vn 1.000000 -0.000000 0.000000
vn 1.000000 -0.000000 0.000000
vn 1.000000 -0.000000 0.000000
vn 1.000000 -0.000000 0.000000
vn 0.000000 0.000000 -1.000000
vn 0.000000 0.000000 -1.000000
vn 0.000000 0.000000 -1.000000
vn 0.000000 0.000000 -1.000000
vn -1.000000 -0.000000 0.000000
vn -1.000000 -0.000000 0.000000
vn -1.000000 -0.000000 0.000000
vn -1.000000 -0.000000 0.000000
vn 0.000000 -0.000000 1.000000
vn 0.000000 -0.000000 1.000000
vn 0.000000 -0.000000 1.000000
vn 0.000000 -0.000000 1.000000
vn 1.000000 0.000000 0.000000
vn 1.000000 0.000000 0.000000
vn 1.000000 0.000000 0.000000
vn 1.000000 0.000000 0.000000
vn 0.000000 0.000000 -1.000000
vn 0.000000 0.000000 -1.000000
vn 0.000000 0.000000 -1.000000
vn 0.000000 0.000000 -1.000000
vn -1.000000 0.000000 0.000000
vn -1.000000 0.000000 0.000000
vn -1.000000 0.000000 0.000000
vn -1.000000 0.000000 0.000000
vn 0.000000 0.000000 1.000000
vn 0.000000 0.000000 1.000000
vn 0.000000 0.000000 1.000000
vn 0.000000 0.000000 1.000000
vn -0.045334 -0.856767 0.513708
vn -0.045334 -0.856767 0.513708
vn -0.045334 -0.856767 0.513708
vn -0.045334 -0.856767 0.513708
vn -0.000718 -0.972810 0.231604
vn -0.000718 -0.972810 0.231604
vn -0.000718 -0.972810 0.231604
vn -0.000718 -0.972810 0.231604
vn 0.000052 -0.176965 0.984217
vn 0.000052 -0.176965 0.984217
vn 0.000052 -0.176965 0.984217
vn 0.000052 -0.176965 0.984217
vn 0.000001 -0.557045 -0.830483
vn 0.000001 -0.557045 -0.830483
vn 0.000001 -0.557045 -0.830483
vn -0.000000 -0.557038 -0.830487
vn -0.000000 -0.557038 -0.830487
vn -0.000000 -0.557038 -0.830487
vn -0.000000 -0.557038 -0.830487
vn 0.000000 -0.180497 0.983576
vn 0.000000 -0.180497 0.983576
vn 0.000000 -0.180497 0.983576
vn 0.000000 -0.557040 -0.830486
vn 0.000000 -0.557040 -0.830486
vn 0.000000 -0.557040 -0.830486
vn -0.019485 -0.971331 -0.236929
vn -0.019485 -0.971331 -0.236929
vn -0.019485 -0.971331 -0.236929
vn -0.019485 -0.971331 -0.236929
vn -0.000000 0.000001 1.000000
vn -0.000000 0.000001 1.000000
vn -0.000000 0.000001 1.000000
vn -0.000000 0.000001 1.000000
vn 0.000000 -0.000001 -1.000000
vn 0.000000 -0.000001 -1.000000
vn 0.000000 -0.000001 -1.000000
vn 0.000000 -0.000001 -1.000000
vn 0.004639 -0.996436 -0.084231
vn 0.004639 -0.996436 -0.084231
vn 0.004639 -0.996436 -0.084231
vn 0.004639 -0.996436 -0.084231
vn -0.000000 0.000001 1.000000
vn -0.000000 0.000001 1.000000
vn -0.000000 0.000001 1.000000
vn -0.000000 0.000001 1.000000
vn 0.025236 -0.737532 -0.674841
vn 0.025236 -0.737532 -0.674841
vn 0.025236 -0.737532 -0.674841
vn 0.025236 -0.737532 -0.674841
vn 0.000000 0.000001 1.000000
vn 0.000000 0.000001 1.000000
vn 0.000000 0.000001 1.000000
vn 0.000000 0.000001 1.000000
vn -0.000000 -0.000001 -1.000000
vn -0.000000 -0.000001 -1.000000
vn -0.000000 -0.000001 -1.000000
vn -0.000000 -0.000001 -1.000000
vn -0.005953 -0.954973 -0.296634
vn -0.005953 -0.954973 -0.296634
vn -0.005953 -0.954973 -0.296634
vn -0.005953 -0.954973 -0.296634
vn -0.007391 -0.011951 -0.999901
vn -0.007391 -0.011951 -0.999901
vn -0.007391 -0.011951 -0.999901
vn 0.000283 -0.005973 -0.999982
vn 0.000283 -0.005973 -0.999982
vn 0.000283 -0.005973 -0.999982
vn 0.000283 -0.005973 -0.999982
vn 0.000638 -0.002798 -0.999996
vn 0.000638 -0.002798 -0.999996
vn 0.000638 -0.002798 -0.999996
vn 0.000175 -0.000680 1.000000
vn 0.000175 -0.000680 1.000000
vn 0.000175 -0.000680 1.000000
vn -0.000041 -0.002116 0.999998
vn -0.000041 -0.002116 0.999998
vn -0.000041 -0.002116 0.999998
vn -0.001615 -0.002848 0.999995
vn -0.001615 -0.002848 0.999995
vn -0.001615 -0.002848 0.999995
vn -0.000000 0.000001 -1.000000
vn -0.000000 0.000001 -1.000000
vn -0.000000 0.000001 -1.000000
vn -0.000000 0.000001 -1.000000
vn -0.000000 0.000000 -1.000000
vn -0.000000 0.000000 -1.000000
vn -0.000000 0.000000 -1.000000
vn -0.000000 0.000000 -1.000000
vn 0.000000 0.000000 1.000000
vn 0.000000 0.000000 1.000000
vn 0.000000 0.000000 1.000000
vn 0.000000 0.000000 1.000000
vn 0.000045 -0.001314 0.999999
vn 0.000045 -0.001314 0.999999
vn 0.000045 -0.001314 0.999999
vn 0.000045 -0.001314 0.999999
vn -0.815398 0.263625 -0.515391
vn -0.815398 0.263625 -0.515391
vn -0.815398 0.263625 -0.515391
vn -0.815398 0.263625 -0.515391
vn -0.917313 -0.227559 -0.326733
vn -0.917313 -0.227559 -0.326733
vn -0.917313 -0.227559 -0.326733
vn -0.917313 -0.227559 -0.326733
vn 0.978048 -0.144206 -0.150424
vn 0.978048 -0.144206 -0.150424
vn 0.978048 -0.144206 -0.150424
vn 0.978048 -0.144206 -0.150424
vn 0.818401 -0.418189 -0.394129
vn 0.818401 -0.418189 -0.394129
vn 0.818401 -0.418189 -0.394129
vn 0.818401 -0.418189 -0.394129
vn 0.956419 -0.019820 -0.291326
vn 0.956419 -0.019820 -0.291326
vn 0.956419 -0.019820 -0.291326
vn 0.956419 -0.019820 -0.291326
vn -0.938653 -0.317111 -0.135544
vn -0.938653 -0.317111 -0.135544
vn -0.938653 -0.317111 -0.135544
vn -0.938653 -0.317111 -0.135544
vn 0.985747 -0.134645 -0.100861
vn 0.985747 -0.134645 -0.100861
vn 0.985747 -0.134645 -0.100861
vn 0.985747 -0.134645 -0.100861
vn 0.860593 0.501691 0.087673
vn 0.860593 0.501691 0.087673
vn 0.860593 0.501691 0.087673
vn 0.860593 0.501691 0.087673
vn -0.687675 -0.698435 -0.198221
vn -0.687675 -0.698435 -0.198221
vn -0.687675 -0.698435 -0.198221
vn -0.687675 -0.698435 -0.198221
vn -0.840642 -0.080838 -0.535524
vn -0.840642 -0.080838 -0.535524
vn -0.840642 -0.080838 -0.535524
vn -0.840642 -0.080838 -0.535524
vn -0.000043 -0.009094 -0.999959
vn -0.000043 -0.009094 -0.999959
vn -0.000043 -0.009094 -0.999959
vn 0.000039 -0.003239 -0.999995
vn 0.000039 -0.003239 -0.999995
vn 0.000039 -0.003239 -0.999995
vn -0.000000 0.000001 -1.000000
vn -0.000000 0.000001 -1.000000
vn -0.000000 0.000001 -1.000000
vn -0.000000 0.000001 -1.000000
vn -0.032520 -0.765319 -0.642829
vn -0.032520 -0.765319 -0.642829
vn -0.032520 -0.765319 -0.642829
vn -0.032520 -0.765319 -0.642829
vn 0.000000 0.000001 1.000000
vn 0.000000 0.000001 1.000000
vn 0.000000 0.000001 1.000000
vn 0.000000 0.000001 1.000000
vn -0.000002 -0.000763 1.000000
vn -0.000002 -0.000763 1.000000
vn -0.000002 -0.000763 1.000000
vn 0.000000 0.000001 1.000000
vn 0.000000 0.000001 1.000000
vn 0.000000 0.000001 1.000000
vn 0.000000 0.000001 1.000000
vn 0.000000 0.000000 -1.000000
vn 0.000000 0.000000 -1.000000
vn 0.000000 0.000000 -1.000000
vn 0.000000 0.000000 -1.000000
vn 0.000000 0.000001 -1.000000
vn 0.000000 0.000001 -1.000000
vn 0.000000 0.000001 -1.000000
vn 0.000000 0.000001 -1.000000
vn 0.000000 0.000001 -1.000000
vn 0.000000 0.000001 -1.000000
vn 0.000000 0.000001 -1.000000
vn 0.000000 0.000001 -1.000000
vn 0.000000 0.000001 -1.000000
vn 0.000000 0.000001 -1.000000
vn 0.000000 0.000001 -1.000000
vn 0.000000 0.000001 -1.000000
vn 0.000000 0.000000 1.000000
vn 0.000000 0.000000 1.000000
vn 0.000000 0.000000 1.000000
vn 0.000000 0.000000 1.000000
vn -0.000000 -0.000002 1.000000
vn -0.000000 -0.000002 1.000000
vn -0.000000 -0.000002 1.000000
vn -0.000000 0.000002 -1.000000
vn -0.000000 0.000002 -1.000000
vn -0.000000 0.000002 -1.000000
vn 0.000000 -0.455574 0.890198
vn 0.000000 -0.455574 0.890198
vn 0.000000 -0.455574 0.890198
vn 0.000000 -0.138664 -0.990340
vn 0.000000 -0.138664 -0.990340
vn 0.000000 -0.138664 -0.990340
vn 0.000000 -0.138664 -0.990340
vn -0.000000 0.000001 -1.000000
vn -0.000000 0.000001 -1.000000
vn -0.000000 0.000001 -1.000000
vn -0.000000 0.000001 -1.000000
vn -0.000000 -0.000001 1.000000
vn -0.000000 -0.000001 1.000000
vn -0.000000 -0.000001 1.000000
vn -0.000000 -0.000001 1.000000
vn -0.011878 -0.933335 0.358811
vn -0.011878 -0.933335 0.358811
vn -0.011878 -0.933335 0.358811
vn -0.011878 -0.933335 0.358811
vn 0.000001 -0.000000 1.000000
vn 0.000001 -0.000000 1.000000
vn 0.000001 -0.000000 1.000000
vn 0.000001 -0.000000 1.000000
vn -0.000000 -0.000001 1.000000
vn -0.000000 -0.000001 1.000000
vn -0.000000 -0.000001 1.000000
vn -0.000000 -0.000001 1.000000
vn 0.012372 -0.830779 0.556465
vn 0.012372 -0.830779 0.556465
vn 0.012372 -0.830779 0.556465
vn 0.012372 -0.830779 0.556465
vn 0.000000 0.000000 -1.000000
vn 0.000000 0.000000 -1.000000
vn 0.000000 0.000000 -1.000000
vn 0.000000 0.000000 -1.000000
vn 0.000000 0.000002 -1.000000
vn 0.000000 0.000002 -1.000000
vn 0.000000 0.000002 -1.000000
vn 0.000000 0.000002 -1.000000
vn 0.880081 0.025258 0.474151
vn 0.880081 0.025258 0.474151
vn 0.880081 0.025258 0.474151
vn 0.880081 0.025258 0.474151
vn -0.930714 -0.335924 0.144663
vn -0.930714 -0.335924 0.144663
vn -0.930714 -0.335924 0.144663
vn -0.930714 -0.335924 0.144663
vn 0.987865 -0.146359 0.051979
vn 0.987865 -0.146359 0.051979
vn 0.987865 -0.146359 0.051979
vn 0.987865 -0.146359 0.051979
vn -0.898135 -0.172167 0.404613
vn -0.898135 -0.172167 0.404613
vn -0.898135 -0.172167 0.404613
vn -0.898135 -0.172167 0.404613
vn -0.870947 0.270970 0.409911
vn -0.870947 0.270970 0.409911
vn -0.870947 0.270970 0.409911
vn -0.870947 0.270970 0.409911
vn -0.892442 -0.427254 0.144919
vn -0.892442 -0.427254 0.144919
vn -0.892442 -0.427254 0.144919
vn -0.892442 -0.427254 0.144919
vn 0.965228 -0.059497 0.254550
vn 0.965228 -0.059497 0.254550
vn 0.965228 -0.059497 0.254550
vn 0.965228 -0.059497 0.254550
vn 0.818636 -0.284580 0.498848
vn 0.818636 -0.284580 0.498848
vn 0.818636 -0.284580 0.498848
vn 0.818636 -0.284580 0.498848
vn 0.000000 0.000000 1.000000
vn 0.000000 0.000000 1.000000
vn 0.000000 0.000000 1.000000
vn 0.000000 0.000000 1.000000
vn 1.000000 0.000000 -0.000000
vn 1.000000 0.000000 -0.000000
vn 1.000000 0.000000 -0.000000
vn 1.000000 0.000000 -0.000000
vn 0.000000 -0.002964 -0.999996
vn 0.000000 -0.002964 -0.999996
vn 0.000000 -0.002964 -0.999996
vn 0.000000 -0.002964 -0.999996
vn -1.000000 0.000000 -0.000000
vn -1.000000 0.000000 -0.000000
vn -1.000000 0.000000 -0.000000
vn -1.000000 0.000000 -0.000000
vn -1.000000 -0.000003 0.000000
vn -1.000000 -0.000003 0.000000
vn -1.000000 -0.000003 0.000000
vn 0.000000 0.906630 -0.421927
vn 0.000000 0.906630 -0.421927
vn 0.000000 0.906630 -0.421927
vn 0.000000 0.906630 -0.421927
vn 1.000000 -0.000003 0.000000
vn 1.000000 -0.000003 0.000000
vn 1.000000 -0.000003 0.000000
s off
f 1/84/1 78/90/2 79/93/3 3/1/4
f 93/113/5 94/114/6 31/29/7 32/27/8
f 29/23/9 30/30/10 95/115/11 96/116/12
f 94/114/13 95/115/14 30/30/15 31/29/16
f 32/27/17 29/23/18 96/116/19 93/113/20
f 9/11/21 37/97/22 14/87/23 10/10/24
f 14/87/25 15/12/26 11/13/27 10/10/28
f 12/14/29 38/39/30 16/82/31
f 9/11/32 12/14/33 16/82/34 13/96/35
f 13/96/36 72/105/37 87/100/38 37/97/39
f 2/86/40 15/12/41 14/87/42 4/89/43
f 13/96/44 16/82/45 1/84/46 3/1/47
f 21/71/48 64/47/49 17/46/50
f 19/42/51 18/44/52 22/59/53 23/68/54
f 24/52/55 21/71/56 17/46/57 20/40/58
f 23/68/59 22/59/60 8/64/61 6/62/62
f 7/50/63 21/71/64 24/52/65 5/48/66
f 9/2/67 10/3/68 26/16/69 25/20/70
f 10/3/71 11/8/72 27/17/73 26/16/74
f 28/18/75 27/17/76 11/8/77 12/9/78
f 25/20/79 28/18/80 12/9/81 9/2/82
f 33/31/83 34/38/84 30/24/85 29/28/86
f 34/38/87 35/37/88 97/117/89 30/24/90
f 98/118/91 97/117/92 35/37/93 36/35/94
f 98/118/95 36/35/96 33/31/97 29/28/98
f 17/6/99 18/7/100 34/32/101 33/36/102
f 35/33/103 34/32/104 18/7/105 19/4/106
f 36/34/107 35/33/108 19/4/109 20/5/110
f 20/5/111 17/6/112 33/36/113 36/34/114
f 37/97/115 73/107/116 71/88/117 14/87/118
f 74/110/119 75/111/120 81/91/121 83/95/122
f 84/92/123 82/94/124 2/86/125 4/89/126
f 17/46/127 64/47/128 63/45/129 18/44/130
f 20/40/131 51/41/132 24/52/133
f 20/40/134 19/42/135 58/43/136 51/41/137
f 18/44/138 63/45/139 22/59/140
f 58/43/141 19/42/142 23/68/143
f 5/48/144 46/53/145 47/49/146 7/50/147
f 7/50/148 47/49/149 49/51/150 21/71/151
f 24/52/152 52/65/153 46/53/154 5/48/155
f 48/56/156 45/54/157 39/73/158 42/55/159
f 42/55/160 44/77/161 50/70/162 48/56/163
f 41/76/164 40/57/165 66/79/166 67/80/167
f 22/59/168 56/69/169 54/60/170 8/64/171
f 61/63/172 59/61/173 23/68/174 6/62/175
f 54/60/176 61/63/177 6/62/178 8/64/179
f 24/52/180 51/41/181 52/65/182
f 58/43/183 65/78/184 43/67/185 51/41/186
f 23/68/187 59/61/188 58/43/189
f 63/45/190 56/69/191 22/59/192
f 64/47/193 50/70/194 44/77/195
f 21/71/196 49/51/197 64/47/198
f 45/54/199 53/72/200 43/67/201 39/73/202
f 40/57/203 43/67/204 65/78/205 66/79/206
f 67/80/207 68/81/208 44/77/209 41/76/210
f 64/47/211 44/77/212 68/81/213 63/45/214
f 54/60/215 56/69/216 59/61/217 61/63/218
f 56/69/219 63/45/220 58/43/221 59/61/222
f 63/45/223 57/75/224 60/66/225 58/43/226
f 57/75/227 55/58/228 62/74/229 60/66/230
f 39/73/231 43/67/232 44/77/233 42/55/234
f 43/67/235 40/57/236 41/76/237 44/77/238
f 46/53/239 52/65/240 49/51/241 47/49/242
f 52/65/243 51/41/244 64/47/245 49/51/246
f 51/41/247 53/72/248 50/70/249 64/47/250
f 53/72/251 45/54/252 48/56/253 50/70/254
f 51/41/255 43/67/256 53/72/257
f 60/66/258 65/78/259 58/43/260
f 66/79/261 65/78/262 60/66/263 62/74/264
f 67/80/265 66/79/266 62/74/267 55/58/268
f 57/75/269 68/81/270 67/80/271 55/58/272
f 63/45/273 68/81/274 57/75/275
f 3/1/276 79/93/277 72/105/278 13/96/279
f 16/82/280 38/39/281 91/101/282 70/83/283
f 15/12/284 69/85/285 76/98/286 38/39/287
f 75/111/288 76/98/289 69/85/290 81/91/291
f 16/82/292 70/83/293 78/90/294 1/84/295
f 14/87/296 71/88/297 84/92/298 4/89/299
f 37/97/300 88/99/301 73/107/302
f 38/39/303 76/98/304 92/102/305
f 13/96/306 37/97/307 9/11/308
f 12/14/309 11/13/310 15/12/311 38/39/312
f 82/94/313 69/85/314 15/12/315 2/86/316
f 83/95/317 71/88/318 73/107/319 74/110/320
f 80/106/321 77/103/322 90/112/323 86/104/324
f 72/105/325 80/106/326 86/104/327 87/100/328
f 74/110/329 73/107/330 88/99/331 85/108/332
f 85/108/333 89/109/334 75/111/335 74/110/336
f 89/109/337 92/102/338 76/98/339 75/111/340
f 77/103/341 70/83/342 91/101/343 90/112/344
f 81/91/345 69/85/346 71/88/347 83/95/348
f 69/85/349 82/94/350 84/92/351 71/88/352
f 78/90/353 70/83/354 72/105/355 79/93/356
f 70/83/357 77/103/358 80/106/359 72/105/360
f 85/108/361 88/99/362 92/102/363 89/109/364
f 88/99/365 37/97/366 38/39/367 92/102/368
f 37/97/369 87/100/370 91/101/371 38/39/372
f 87/100/373 86/104/374 90/112/375 91/101/376
f 25/15/377 26/22/378 94/114/379 93/113/380
f 26/22/381 27/21/382 95/115/383 94/114/384
f 96/116/385 95/115/386 27/21/387 28/19/388
f 93/113/389 96/116/390 28/19/391 25/15/392
f 98/118/393 29/28/394 32/26/395
f 32/26/396 31/25/397 97/117/398 98/118/399
f 31/25/400 30/24/401 97/117/402
