# This file uses centimeters as units for non-parametric coordinates.

v 31.366728 24.078674 -7.952143
v 18.109592 41.705482 -7.952143
v -0.000000 47.082306 -7.952143
v -18.109592 41.705482 -7.952143
v -31.366737 24.078674 -7.952143
v -36.219193 -0.000003 -7.952143
v -31.366737 -24.078678 -7.952143
v -18.109592 -41.705482 -7.952143
v -0.000000 -47.082310 -7.952143
v 18.109592 -41.705482 -7.952143
v 31.366728 -24.078678 -7.952143
v 36.219193 -0.000003 -7.952143
v 31.366728 24.078674 -2.840889
v 18.109592 41.705482 -2.840889
v -0.000000 47.082306 -2.840889
v -18.109592 41.705482 -2.840889
v -31.366737 24.078674 -2.840889
v -36.219193 -0.000002 -2.840889
v -31.366737 -24.078678 -2.840889
v -18.109592 -41.705482 -2.840889
v -0.000000 -47.082306 -2.840889
v 18.109592 -41.705482 -2.840889
v 31.366728 -24.078678 -2.840889
v 36.219193 -0.000002 -2.840889
v -0.000000 -0.000003 -7.952143
v 28.630959 21.981230 0.000000
v 16.530092 38.072601 0.000000
v -0.000000 -0.000002 -0.000000
v -0.000000 42.981064 0.000000
v -16.530092 38.072601 0.000000
v -28.630962 21.981230 0.000000
v -33.060196 -0.000002 -0.000000
v -28.630962 -21.981234 0.000000
v -16.530092 -38.072601 0.000000
v -0.000000 -42.981071 0.000000
v 16.530092 -38.072601 0.000000
v 28.630959 -21.981234 0.000000
v 33.060196 -0.000002 -0.000000
vt 0.027092 0.253663
vt 0.027092 0.253663
vt 0.027092 0.253663
vt 0.027092 0.253663
vt 0.027092 0.253663
vt 0.027092 0.253663
vt 0.027092 0.253663
vt 0.027092 0.253663
vt 0.027092 0.253663
vt 0.027092 0.253663
vt 0.027092 0.253663
vt 0.027092 0.253663
vt 0.027092 0.253663
vt 0.027092 0.253663
vt 0.027092 0.253663
vt 0.027092 0.253663
vt 0.027092 0.253663
vt 0.027092 0.253663
vt 0.027092 0.253663
vt 0.027092 0.253663
vt 0.027092 0.253663
vt 0.027092 0.253663
vt 0.027092 0.253663
vt 0.027092 0.253663
vt 0.027092 0.253663
vt 0.027092 0.253663
vt 0.027092 0.253663
vt 0.027092 0.253663
vt 0.027092 0.253663
vt 0.027092 0.253663
vt 0.027092 0.253663
vt 0.027092 0.253663
vt 0.027092 0.253663
vt 0.027092 0.253663
vt 0.027092 0.253663
vt 0.027092 0.253663
vt 0.027092 0.253663
vt 0.027092 0.253663
vt 0.027092 0.253663
vt 0.027092 0.253663
vt 0.027092 0.253663
vt 0.027092 0.253663
vt 0.027092 0.253663
vt 0.027092 0.253663
vt 0.027092 0.253663
vt 0.027092 0.253663
vt 0.027092 0.253663
vt 0.027092 0.253663
vt 0.027092 0.253663
vt 0.027092 0.253663
vt 0.027092 0.253663
vt 0.027092 0.253663
vt 0.027092 0.253663
vt 0.027092 0.253663
vt 0.027092 0.253663
vt 0.027092 0.253663
vt 0.027092 0.253663
vt 0.027092 0.253663
vt 0.027092 0.253663
vt 0.027092 0.253663
vt 0.027092 0.253663
vt 0.027092 0.253663
vt 0.027092 0.253663
vt 0.027092 0.253663
vn 0.799193 0.601074 0.000000
vn 0.799193 0.601074 0.000000
vn 0.799193 0.601074 0.000000
vn 0.799193 0.601074 0.000000
vn 0.284624 0.958639 0.000000
vn 0.284624 0.958639 0.000000
vn 0.284624 0.958639 0.000000
vn 0.284624 0.958639 0.000000
vn -0.284624 0.958639 0.000000
vn -0.284624 0.958639 0.000000
vn -0.284624 0.958639 0.000000
vn -0.284624 0.958639 0.000000
vn -0.799193 0.601074 0.000000
vn -0.799193 0.601074 0.000000
vn -0.799193 0.601074 0.000000
vn -0.799193 0.601074 0.000000
vn -0.980292 0.197553 -0.000000
vn -0.980292 0.197553 -0.000000
vn -0.980292 0.197553 -0.000000
vn -0.980292 0.197553 -0.000000
vn -0.980292 -0.197554 0.000000
vn -0.980292 -0.197554 0.000000
vn -0.980292 -0.197554 0.000000
vn -0.980292 -0.197554 0.000000
vn -0.799193 -0.601074 0.000000
vn -0.799193 -0.601074 0.000000
vn -0.799193 -0.601074 0.000000
vn -0.799193 -0.601074 0.000000
vn -0.284625 -0.958639 0.000001
vn -0.284625 -0.958639 0.000001
vn -0.284625 -0.958639 0.000001
vn -0.284625 -0.958639 0.000001
vn 0.284625 -0.958639 0.000001
vn 0.284625 -0.958639 0.000001
vn 0.284625 -0.958639 0.000001
vn 0.284625 -0.958639 0.000001
vn 0.799193 -0.601074 0.000000
vn 0.799193 -0.601074 0.000000
vn 0.799193 -0.601074 0.000000
vn 0.799193 -0.601074 0.000000
vn 0.980292 -0.197554 0.000000
vn 0.980292 -0.197554 0.000000
vn 0.980292 -0.197554 0.000000
vn 0.980292 -0.197554 0.000000
vn 0.980292 0.197554 -0.000000
vn 0.980292 0.197554 -0.000000
vn 0.980292 0.197554 -0.000000
vn 0.980292 0.197554 -0.000000
vn 0.000000 0.000000 -1.000000
vn 0.000000 0.000000 -1.000000
vn -0.000000 -0.000000 -1.000000
vn 0.000000 0.000000 -1.000000
vn 0.000000 0.000000 -1.000000
vn -0.000000 -0.000000 -1.000000
vn -0.000000 0.000000 -1.000000
vn 0.000000 0.000000 -1.000000
vn -0.000000 -0.000000 -1.000000
vn -0.000000 0.000000 -1.000000
vn -0.000000 0.000000 -1.000000
vn -0.000000 -0.000000 -1.000000
vn 0.000000 -0.000000 -1.000000
vn -0.000000 0.000000 -1.000000
vn -0.000000 -0.000000 -1.000000
vn -0.000000 -0.000000 -1.000000
vn 0.000000 -0.000000 -1.000000
vn -0.000000 -0.000000 -1.000000
vn 0.000000 -0.000000 -1.000000
vn -0.000000 -0.000000 -1.000000
vn -0.000000 -0.000000 -1.000000
vn 0.000000 -0.000000 -1.000000
vn 0.000000 -0.000000 -1.000000
vn -0.000000 -0.000000 -1.000000
vn -0.000000 -0.000000 -1.000000
vn 0.000000 -0.000000 -1.000000
vn -0.000000 -0.000000 -1.000000
vn 0.000000 -0.000000 -1.000000
vn -0.000000 -0.000000 -1.000000
vn -0.000000 -0.000000 -1.000000
vn 0.000000 -0.000000 -1.000000
vn 0.000000 -0.000000 -1.000000
vn -0.000000 -0.000000 -1.000000
vn 0.000000 0.000000 -1.000000
vn 0.000000 -0.000000 -1.000000
vn -0.000000 -0.000000 -1.000000
vn -0.000000 -0.000000 1.000000
vn -0.000000 -0.000000 1.000000
vn 0.000000 -0.000000 1.000000
vn -0.000000 -0.000000 1.000000
vn 0.000000 -0.000000 1.000000
vn 0.000000 -0.000000 1.000000
vn 0.000000 -0.000000 1.000000
vn 0.000000 -0.000000 1.000000
vn 0.000000 -0.000000 1.000000
vn 0.000000 -0.000000 1.000000
vn 0.000000 -0.000000 1.000000
vn 0.000000 -0.000000 1.000000
vn 0.000000 -0.000000 1.000000
vn 0.000000 0.000000 1.000000
vn 0.000000 -0.000000 1.000000
vn 0.000000 0.000000 1.000000
vn 0.000000 0.000000 1.000000
vn 0.000000 -0.000000 1.000000
vn 0.000000 0.000000 1.000000
vn 0.000000 0.000000 1.000000
vn 0.000000 -0.000000 1.000000
vn 0.000000 0.000000 1.000000
vn 0.000000 0.000000 1.000000
vn 0.000000 -0.000000 1.000000
vn 0.000000 0.000000 1.000000
vn -0.000000 0.000000 1.000000
vn 0.000000 -0.000000 1.000000
vn -0.000000 0.000000 1.000000
vn -0.000000 0.000000 1.000000
vn 0.000000 -0.000000 1.000000
vn -0.000000 0.000000 1.000000
vn 0.000000 0.000000 1.000000
vn 0.000000 -0.000000 1.000000
vn 0.000000 0.000000 1.000000
vn -0.000000 -0.000000 1.000000
vn 0.000000 -0.000000 1.000000
vn 0.508339 0.382300 0.771646
vn 0.508339 0.382300 0.771646
vn 0.508339 0.382300 0.771646
vn 0.508339 0.382300 0.771646
vn 0.166700 0.561426 0.810563
vn 0.166700 0.561426 0.810563
vn 0.166700 0.561426 0.810563
vn 0.166700 0.561426 0.810563
vn -0.166700 0.561426 0.810563
vn -0.166700 0.561426 0.810563
vn -0.166700 0.561426 0.810563
vn -0.166700 0.561426 0.810563
vn -0.508339 0.382300 0.771647
vn -0.508339 0.382300 0.771647
vn -0.508339 0.382300 0.771647
vn -0.508339 0.382300 0.771647
vn -0.662720 0.133547 0.736863
vn -0.662720 0.133547 0.736863
vn -0.662720 0.133547 0.736863
vn -0.662720 0.133547 0.736863
vn -0.662720 -0.133547 0.736863
vn -0.662720 -0.133547 0.736863
vn -0.662720 -0.133547 0.736863
vn -0.662720 -0.133547 0.736863
vn -0.508338 -0.382300 0.771647
vn -0.508338 -0.382300 0.771647
vn -0.508338 -0.382300 0.771647
vn -0.508338 -0.382300 0.771647
vn -0.166700 -0.561426 0.810563
vn -0.166700 -0.561426 0.810563
vn -0.166700 -0.561426 0.810563
vn -0.166700 -0.561426 0.810563
vn 0.166700 -0.561426 0.810562
vn 0.166700 -0.561426 0.810562
vn 0.166700 -0.561426 0.810563
vn 0.166700 -0.561426 0.810562
vn 0.508339 -0.382300 0.771646
vn 0.508339 -0.382300 0.771646
vn 0.508339 -0.382300 0.771646
vn 0.508339 -0.382300 0.771646
vn 0.662721 -0.133547 0.736863
vn 0.662721 -0.133547 0.736863
vn 0.662721 -0.133547 0.736863
vn 0.662721 -0.133547 0.736863
vn 0.662721 0.133547 0.736863
vn 0.662721 0.133547 0.736863
vn 0.662721 0.133547 0.736863
vn 0.662721 0.133547 0.736863
s off
f 1/13/1 2/14/2 14/27/3 13/26/4
f 2/14/5 3/15/6 15/28/7 14/27/8
f 3/15/9 4/16/10 16/29/11 15/28/12
f 4/16/13 5/17/14 17/30/15 16/29/16
f 5/17/17 6/18/18 18/31/19 17/30/20
f 6/18/21 7/19/22 19/32/23 18/31/24
f 7/19/25 8/20/26 20/33/27 19/32/28
f 8/20/29 9/21/30 21/34/31 20/33/32
f 9/21/33 10/22/34 22/35/35 21/34/36
f 10/22/37 11/23/38 23/36/39 22/35/40
f 11/23/41 12/24/42 24/37/43 23/36/44
f 12/24/45 1/25/46 13/38/47 24/37/48
f 2/2/49 1/1/50 25/51/51
f 3/3/52 2/2/53 25/51/54
f 4/4/55 3/3/56 25/51/57
f 5/5/58 4/4/59 25/51/60
f 6/6/61 5/5/62 25/51/63
f 7/7/64 6/6/65 25/51/66
f 8/8/67 7/7/68 25/51/69
f 9/9/70 8/8/71 25/51/72
f 10/10/73 9/9/74 25/51/75
f 11/11/76 10/10/77 25/51/78
f 12/12/79 11/11/80 25/51/81
f 1/1/82 12/12/83 25/51/84
f 26/53/85 27/54/86 28/52/87
f 27/54/88 29/55/89 28/52/90
f 29/55/91 30/56/92 28/52/93
f 30/56/94 31/57/95 28/52/96
f 31/57/97 32/58/98 28/52/99
f 32/58/100 33/59/101 28/52/102
f 33/59/103 34/60/104 28/52/105
f 34/60/106 35/61/107 28/52/108
f 35/61/109 36/62/110 28/52/111
f 36/62/112 37/63/113 28/52/114
f 37/63/115 38/64/116 28/52/117
f 38/64/118 26/53/119 28/52/120
f 13/49/121 14/48/122 27/54/123 26/53/124
f 14/48/125 15/47/126 29/55/127 27/54/128
f 15/47/129 16/46/130 30/56/131 29/55/132
f 16/46/133 17/45/134 31/57/135 30/56/136
f 17/45/137 18/44/138 32/58/139 31/57/140
f 18/44/141 19/43/142 33/59/143 32/58/144
f 19/43/145 20/42/146 34/60/147 33/59/148
f 20/42/149 21/41/150 35/61/151 34/60/152
f 21/41/153 22/40/154 36/62/155 35/61/156
f 22/40/157 23/39/158 37/63/159 36/62/160
f 23/39/161 24/50/162 38/64/163 37/63/164
f 24/50/165 13/49/166 26/53/167 38/64/168
