# This file uses centimeters as units for non-parametric coordinates.

v 5.441552 147.493866 -1.356323
v 3.895366 147.493866 -4.034363
v 5.441552 166.882660 -1.356323
v 3.895367 166.882660 -4.034363
v 4.401773 166.882660 -0.755981
v 2.855588 166.882660 -3.434082
v 4.401774 147.493851 -0.755981
v 2.855589 147.493851 -3.434082
v -1.546185 147.493866 5.390686
v 1.546185 147.493866 5.390686
v -1.546185 166.882660 5.390686
v 1.546185 166.882660 5.390686
v -1.546185 166.882660 4.190063
v 1.546185 166.882660 4.190063
v -1.546185 147.493851 4.190063
v 1.546185 147.493851 4.190063
v -3.895366 147.493866 -4.034363
v -5.441552 147.493866 -1.356323
v -3.895367 166.882660 -4.034363
v -5.441552 166.882660 -1.356323
v -2.855588 166.882660 -3.434082
v -4.401773 166.882660 -0.755981
v -2.855589 147.493851 -3.434082
v -4.401774 147.493851 -0.755981
v 3.342435 143.751175 -5.789246
v -3.342432 143.751175 -5.789246
v -6.684866 143.751175 0.000000
v -3.342434 143.751175 5.789246
v 3.342433 143.751175 5.789246
v 6.684866 143.751175 0.000000
v 3.342435 147.681412 -5.789246
v -3.342432 147.681412 -5.789246
v -6.684866 147.681412 0.000000
v -3.342434 147.681412 5.789246
v 3.342433 147.681412 5.789246
v 6.684866 147.681412 0.000000
v 3.778600 142.858429 0.000000
v 1.889301 142.858429 -3.272339
v 1.889300 142.858429 3.272339
v -1.889300 142.858429 3.272339
v -3.778600 142.858429 0.000000
v -1.889300 142.858429 -3.272339
v 1.880605 138.252243 0.000000
v 0.940303 138.252243 -1.628662
v 0.940302 138.252243 1.628662
v -0.940302 138.252243 1.628662
v -1.880605 138.252243 0.000000
v -0.940302 138.252243 -1.628662
v 1.880605 0.000000 0.000000
v 0.940303 0.000000 -1.628662
v 0.940302 0.000000 1.628662
v -0.940302 0.000000 1.628662
v -1.880605 0.000000 0.000000
v -0.940302 0.000000 -1.628662
v 3.342435 169.323608 -5.789246
v -3.342432 169.323608 -5.789246
v -6.684866 169.323608 0.000000
v -3.342434 169.323608 5.789246
v 3.342433 169.323608 5.789246
v 6.684866 169.323608 0.000000
v 4.313373 169.323608 -7.470947
v -4.313370 169.323608 -7.471008
v -8.626741 169.323608 0.000000
v -4.313372 169.323608 7.470947
v 4.313371 169.323608 7.470947
v 8.626741 169.323608 0.000000
v 4.313373 172.287964 -7.470947
v -4.313370 172.287964 -7.471008
v -8.626741 172.287964 0.000000
v -4.313372 172.287964 7.470947
v 4.313371 172.287964 7.470947
v 8.626741 172.287964 0.000000
v 1.400053 178.410431 -2.424988
v -1.400053 178.410431 -2.424988
v -2.800107 178.410431 0.000000
v -1.400053 178.410431 2.424988
v 1.400053 178.410431 2.424988
v 2.800107 178.410431 0.000000
v 1.400053 180.883942 -2.424988
v -1.400053 180.883942 -2.424988
v -2.800107 180.883942 0.000000
v -1.400053 180.883942 2.424988
v 1.400053 180.883942 2.424988
v 2.800107 180.883942 0.000000
v 3.342435 167.050903 -5.789246
v -3.342432 167.050903 -5.789246
v -6.684866 167.050903 0.000000
v -3.342434 167.050903 5.789246
v 3.342433 167.050903 5.789246
v 6.684866 167.050903 0.000000
v 2.649615 148.581421 -4.589233
v -2.649612 148.581421 -4.589294
v -2.649612 166.150909 -4.589294
v 2.649614 166.150909 -4.589294
v -5.299225 148.581421 0.000000
v -5.299225 166.150909 0.000000
v -2.649613 148.581421 4.589233
v -2.649613 166.150909 4.589294
v 2.649613 148.581421 4.589294
v 2.649613 166.150909 4.589294
v 5.299225 148.581421 0.000000
v 5.299225 166.150909 0.000000
vt 0.081010 0.276031
vt 0.080886 0.276008
vt 0.080840 0.275039
vt 0.080978 0.275049
vt 0.080860 0.275030
vt 0.080997 0.275040
vt 0.080903 0.275993
vt 0.081027 0.276015
vt 0.081010 0.276031
vt 0.080886 0.276008
vt 0.080840 0.275039
vt 0.080978 0.275049
vt 0.080903 0.275993
vt 0.080860 0.275030
vt 0.081027 0.276015
vt 0.080997 0.275040
vt 0.081010 0.276031
vt 0.080886 0.276008
vt 0.080840 0.275039
vt 0.080978 0.275049
vt 0.080903 0.275993
vt 0.080860 0.275030
vt 0.081027 0.276015
vt 0.080997 0.275040
vt 0.079814 0.276259
vt 0.079827 0.276263
vt 0.079827 0.276234
vt 0.079814 0.276231
vt 0.079793 0.276266
vt 0.079792 0.276237
vt 0.079745 0.276265
vt 0.079745 0.276236
vt 0.079733 0.276261
vt 0.079733 0.276233
vt 0.079768 0.276259
vt 0.079768 0.276231
vt 0.079814 0.276231
vt 0.079827 0.276234
vt 0.079792 0.276237
vt 0.079745 0.276236
vt 0.079733 0.276233
vt 0.079768 0.276231
vt 0.079773 0.276267
vt 0.079799 0.276267
vt 0.079754 0.276268
vt 0.079760 0.276270
vt 0.079787 0.276271
vt 0.079806 0.276269
vt 0.079780 0.276302
vt 0.079781 0.276298
vt 0.079779 0.276306
vt 0.079779 0.276306
vt 0.079780 0.276301
vt 0.079781 0.276298
vt 0.080321 0.275473
vt 0.080308 0.275463
vt 0.080332 0.275476
vt 0.080331 0.275469
vt 0.080319 0.275459
vt 0.080307 0.275457
vt 0.079814 0.276231
vt 0.079827 0.276234
vt 0.079827 0.276234
vt 0.079814 0.276231
vt 0.079792 0.276237
vt 0.079792 0.276237
vt 0.079745 0.276236
vt 0.079745 0.276236
vt 0.079733 0.276233
vt 0.079733 0.276233
vt 0.079768 0.276231
vt 0.079768 0.276231
vt 0.079827 0.276234
vt 0.079814 0.276231
vt 0.079792 0.276237
vt 0.079745 0.276236
vt 0.079733 0.276233
vt 0.079768 0.276231
vt 0.079827 0.276234
vt 0.079814 0.276231
vt 0.079792 0.276237
vt 0.079745 0.276236
vt 0.079733 0.276233
vt 0.079768 0.276231
vt 0.079827 0.276234
vt 0.079814 0.276231
vt 0.079792 0.276237
vt 0.079745 0.276236
vt 0.079733 0.276233
vt 0.079768 0.276231
vt 0.018522 0.127771
vt 0.018731 0.127793
vt 0.018731 0.126850
vt 0.018522 0.126855
vt 0.018674 0.127828
vt 0.018675 0.126843
vt 0.018389 0.127840
vt 0.018388 0.126840
vt 0.018178 0.127815
vt 0.018177 0.126846
vt 0.018255 0.127781
vt 0.018254 0.126853
vt 0.079827 0.276234
vt 0.079814 0.276231
vt 0.079814 0.276231
vt 0.079827 0.276234
vt 0.079792 0.276237
vt 0.079792 0.276237
vt 0.079745 0.276236
vt 0.079745 0.276236
vt 0.079733 0.276233
vt 0.079733 0.276233
vt 0.079768 0.276231
vt 0.079768 0.276231
vn 0.866023 -0.000000 -0.500005
vn 0.866023 -0.000000 -0.500005
vn 0.866023 -0.000000 -0.500005
vn 0.866023 -0.000000 -0.500005
vn -0.499978 0.000000 -0.866038
vn -0.499978 0.000000 -0.866038
vn -0.499978 0.000000 -0.866038
vn -0.499978 0.000000 -0.866038
vn 0.500016 0.000000 0.866016
vn 0.500016 0.000000 0.866016
vn 0.500016 0.000000 0.866016
vn 0.500016 0.000000 0.866016
vn 0.000000 0.000000 1.000000
vn 0.000000 0.000000 1.000000
vn 0.000000 0.000000 1.000000
vn 0.000000 0.000000 1.000000
vn 1.000000 0.000000 0.000000
vn 1.000000 0.000000 0.000000
vn 1.000000 0.000000 0.000000
vn 1.000000 0.000000 0.000000
vn -1.000000 0.000000 0.000000
vn -1.000000 0.000000 0.000000
vn -1.000000 0.000000 0.000000
vn -1.000000 0.000000 0.000000
vn -0.866023 -0.000000 -0.500005
vn -0.866023 -0.000000 -0.500005
vn -0.866023 -0.000000 -0.500005
vn -0.866023 -0.000000 -0.500005
vn -0.500016 0.000000 0.866016
vn -0.500016 0.000000 0.866016
vn -0.500016 0.000000 0.866016
vn -0.500016 0.000000 0.866016
vn 0.499978 0.000000 -0.866038
vn 0.499978 0.000000 -0.866038
vn 0.499978 0.000000 -0.866038
vn 0.499978 0.000000 -0.866038
vn 0.000000 0.000000 -1.000000
vn 0.000000 0.000000 -1.000000
vn 0.000000 0.000000 -1.000000
vn 0.000000 0.000000 -1.000000
vn -0.866025 0.000000 -0.500001
vn -0.866025 0.000000 -0.500001
vn -0.866025 0.000000 -0.500001
vn -0.866025 0.000000 -0.500001
vn -0.866025 0.000000 0.500001
vn -0.866025 0.000000 0.500001
vn -0.866025 0.000000 0.500001
vn -0.866025 0.000000 0.500001
vn 0.000000 0.000000 1.000000
vn 0.000000 0.000000 1.000000
vn 0.000000 0.000000 1.000000
vn 0.000000 0.000000 1.000000
vn 0.866025 0.000000 0.500002
vn 0.866025 0.000000 0.500002
vn 0.866025 0.000000 0.500002
vn 0.866025 0.000000 0.500002
vn 0.866025 0.000000 -0.500001
vn 0.866025 0.000000 -0.500001
vn 0.866025 0.000000 -0.500001
vn 0.866025 0.000000 -0.500001
vn 0.000000 1.000000 -0.000001
vn 0.000000 1.000000 -0.000001
vn 0.000000 1.000000 -0.000001
vn 0.000000 1.000000 -0.000001
vn 0.000000 1.000000 -0.000001
vn 0.000000 1.000000 -0.000001
vn 0.289507 -0.942469 -0.167146
vn 0.289507 -0.942469 -0.167146
vn 0.289507 -0.942469 -0.167146
vn 0.289507 -0.942469 -0.167146
vn 0.289507 -0.942469 0.167147
vn 0.289507 -0.942469 0.167147
vn 0.289507 -0.942469 0.167147
vn 0.289507 -0.942469 0.167147
vn 0.000000 -0.942469 0.334292
vn 0.000000 -0.942469 0.334292
vn 0.000000 -0.942469 0.334292
vn 0.000000 -0.942469 0.334292
vn -0.289507 -0.942469 0.167148
vn -0.289507 -0.942469 0.167148
vn -0.289507 -0.942469 0.167148
vn -0.289507 -0.942469 0.167148
vn -0.289507 -0.942469 -0.167145
vn -0.289507 -0.942469 -0.167145
vn -0.289507 -0.942469 -0.167145
vn -0.289507 -0.942469 -0.167145
vn 0.000000 -0.942469 -0.334293
vn 0.000000 -0.942469 -0.334293
vn 0.000000 -0.942469 -0.334293
vn 0.000000 -0.942469 -0.334293
vn 0.815648 -0.336089 -0.470917
vn 0.815648 -0.336089 -0.470917
vn 0.815648 -0.336089 -0.470917
vn 0.815648 -0.336089 -0.470917
vn 0.815647 -0.336089 0.470918
vn 0.815647 -0.336089 0.470918
vn 0.815647 -0.336089 0.470918
vn 0.815647 -0.336089 0.470918
vn 0.000000 -0.336084 0.941832
vn 0.000000 -0.336084 0.941832
vn 0.000000 -0.336084 0.941832
vn 0.000000 -0.336084 0.941832
vn -0.815648 -0.336089 0.470917
vn -0.815648 -0.336089 0.470917
vn -0.815648 -0.336089 0.470917
vn -0.815648 -0.336089 0.470917
vn -0.815647 -0.336089 -0.470918
vn -0.815647 -0.336089 -0.470918
vn -0.815647 -0.336089 -0.470918
vn -0.815647 -0.336089 -0.470918
vn 0.000000 -0.336084 -0.941832
vn 0.000000 -0.336084 -0.941832
vn 0.000000 -0.336084 -0.941832
vn 0.000000 -0.336084 -0.941832
vn 0.866027 0.000000 -0.499997
vn 0.866027 0.000000 -0.499997
vn 0.866027 0.000000 -0.499997
vn 0.866027 0.000000 -0.499997
vn 0.866027 0.000000 0.499998
vn 0.866027 0.000000 0.499998
vn 0.866027 0.000000 0.499998
vn 0.866027 0.000000 0.499998
vn 0.000000 0.000000 1.000000
vn 0.000000 0.000000 1.000000
vn 0.000000 0.000000 1.000000
vn 0.000000 0.000000 1.000000
vn -0.866027 0.000000 0.499998
vn -0.866027 0.000000 0.499998
vn -0.866027 0.000000 0.499998
vn -0.866027 0.000000 0.499998
vn -0.866027 0.000000 -0.499998
vn -0.866027 0.000000 -0.499998
vn -0.866027 0.000000 -0.499998
vn -0.866027 0.000000 -0.499998
vn 0.000000 0.000000 -1.000000
vn 0.000000 0.000000 -1.000000
vn 0.000000 0.000000 -1.000000
vn 0.000000 0.000000 -1.000000
vn 0.000000 0.000000 -1.000000
vn 0.000000 0.000000 -1.000000
vn 0.000000 0.000000 -1.000000
vn 0.000000 0.000000 -1.000000
vn -0.866024 -0.000000 -0.500002
vn -0.866024 -0.000000 -0.500002
vn -0.866024 -0.000000 -0.500002
vn -0.866024 -0.000000 -0.500002
vn -0.866025 -0.000000 0.500001
vn -0.866025 -0.000000 0.500001
vn -0.866025 -0.000000 0.500001
vn -0.866025 -0.000000 0.500001
vn 0.000000 0.000000 1.000000
vn 0.000000 0.000000 1.000000
vn 0.000000 0.000000 1.000000
vn 0.000000 0.000000 1.000000
vn 0.866023 -0.000000 0.500004
vn 0.866023 -0.000000 0.500004
vn 0.866023 -0.000000 0.500004
vn 0.866023 -0.000000 0.500004
vn 0.866025 -0.000000 -0.500001
vn 0.866025 -0.000000 -0.500001
vn 0.866025 -0.000000 -0.500001
vn 0.866025 -0.000000 -0.500001
vn 0.000000 -1.000000 -0.000008
vn 0.000000 -1.000000 -0.000008
vn 0.000000 -1.000000 -0.000008
vn 0.000000 -1.000000 -0.000008
vn 0.000000 -1.000000 0.000001
vn 0.000000 -1.000000 0.000001
vn 0.000000 -1.000000 0.000001
vn 0.000000 -1.000000 0.000001
vn 0.000000 -1.000000 -0.000002
vn 0.000000 -1.000000 -0.000002
vn 0.000000 -1.000000 -0.000002
vn 0.000000 -1.000000 -0.000002
vn 0.000000 -1.000000 0.000008
vn 0.000000 -1.000000 0.000008
vn 0.000000 -1.000000 0.000008
vn 0.000000 -1.000000 0.000008
vn 0.000000 -1.000000 -0.000006
vn 0.000000 -1.000000 -0.000006
vn 0.000000 -1.000000 -0.000006
vn 0.000000 -1.000000 -0.000006
vn 0.000000 -1.000000 -0.000002
vn 0.000000 -1.000000 -0.000002
vn 0.000000 -1.000000 -0.000002
vn 0.000000 -1.000000 -0.000002
vn 0.000007 0.000000 -1.000000
vn 0.000007 0.000000 -1.000000
vn 0.000007 0.000000 -1.000000
vn 0.000007 0.000000 -1.000000
vn -0.866026 0.000000 -0.499999
vn -0.866026 0.000000 -0.499999
vn -0.866026 0.000000 -0.499999
vn -0.866026 0.000000 -0.499999
vn -0.866024 0.000000 0.500002
vn -0.866024 0.000000 0.500002
vn -0.866024 0.000000 0.500002
vn -0.866024 0.000000 0.500002
vn 0.000000 0.000000 1.000000
vn 0.000000 0.000000 1.000000
vn 0.000000 0.000000 1.000000
vn 0.000000 0.000000 1.000000
vn 0.866024 0.000000 0.500002
vn 0.866024 0.000000 0.500002
vn 0.866024 0.000000 0.500002
vn 0.866024 0.000000 0.500002
vn 0.866025 0.000000 -0.500000
vn 0.866025 0.000000 -0.500000
vn 0.866025 0.000000 -0.500000
vn 0.866025 0.000000 -0.500000
vn 0.000004 0.636006 -0.771684
vn 0.000004 0.636006 -0.771684
vn 0.000004 0.636006 -0.771684
vn 0.000004 0.636006 -0.771684
vn -0.668299 0.636006 -0.385840
vn -0.668299 0.636006 -0.385840
vn -0.668299 0.636006 -0.385840
vn -0.668299 0.636006 -0.385840
vn -0.668299 0.636006 0.385841
vn -0.668299 0.636006 0.385841
vn -0.668299 0.636006 0.385841
vn -0.668299 0.636006 0.385841
vn 0.000000 0.636003 0.771686
vn 0.000000 0.636003 0.771686
vn 0.000000 0.636004 0.771686
vn 0.000000 0.636004 0.771686
vn 0.668298 0.636005 0.385842
vn 0.668299 0.636005 0.385842
vn 0.668299 0.636005 0.385842
vn 0.668299 0.636005 0.385842
vn 0.668299 0.636006 -0.385841
vn 0.668299 0.636006 -0.385841
vn 0.668299 0.636006 -0.385841
vn 0.668299 0.636006 -0.385841
vn 0.000000 0.000000 -1.000000
vn 0.000000 0.000000 -1.000000
vn 0.000000 0.000000 -1.000000
vn 0.000000 0.000000 -1.000000
vn -0.866028 0.000000 -0.499996
vn -0.866028 0.000000 -0.499996
vn -0.866028 0.000000 -0.499996
vn -0.866028 0.000000 -0.499996
vn -0.866028 0.000000 0.499996
vn -0.866028 0.000000 0.499996
vn -0.866028 0.000000 0.499996
vn -0.866028 0.000000 0.499996
vn 0.000000 0.000000 1.000000
vn 0.000000 0.000000 1.000000
vn 0.000000 0.000000 1.000000
vn 0.000000 0.000000 1.000000
vn 0.866028 0.000000 0.499996
vn 0.866028 0.000000 0.499996
vn 0.866028 0.000000 0.499996
vn 0.866028 0.000000 0.499996
vn 0.866028 0.000000 -0.499996
vn 0.866028 0.000000 -0.499996
vn 0.866028 0.000000 -0.499996
vn 0.866028 0.000000 -0.499996
vn 0.000006 -0.000002 -1.000000
vn 0.000006 -0.000002 -1.000000
vn 0.000006 -0.000002 -1.000000
vn 0.000006 -0.000002 -1.000000
vn -0.866027 0.000000 -0.499998
vn -0.866027 0.000000 -0.499998
vn -0.866027 0.000000 -0.499998
vn -0.866027 0.000000 -0.499998
vn -0.866025 -0.000001 0.500000
vn -0.866025 -0.000001 0.500000
vn -0.866025 -0.000001 0.500000
vn -0.866025 -0.000001 0.500000
vn -0.000006 -0.000002 1.000000
vn -0.000006 -0.000002 1.000000
vn -0.000006 -0.000002 1.000000
vn -0.000006 -0.000002 1.000000
vn 0.866027 0.000000 0.499998
vn 0.866027 0.000000 0.499998
vn 0.866027 0.000000 0.499998
vn 0.866027 0.000000 0.499998
vn 0.866025 -0.000001 -0.500000
vn 0.866025 -0.000001 -0.500000
vn 0.866025 -0.000001 -0.500000
vn 0.866025 -0.000001 -0.500000
vn 0.000003 0.799993 -0.600009
vn 0.000003 0.799993 -0.600009
vn 0.000003 0.799993 -0.600009
vn 0.000003 0.799993 -0.600009
vn 0.000000 -0.799991 -0.600012
vn 0.000000 -0.799991 -0.600012
vn 0.000000 -0.799991 -0.600012
vn 0.000000 -0.799991 -0.600012
vn -0.519621 0.799993 -0.300007
vn -0.519622 0.799993 -0.300007
vn -0.519622 0.799993 -0.300007
vn -0.519622 0.799993 -0.300007
vn -0.519616 -0.799998 -0.300003
vn -0.519616 -0.799998 -0.300003
vn -0.519616 -0.799998 -0.300003
vn -0.519616 -0.799998 -0.300003
vn -0.519617 0.799998 0.300003
vn -0.519617 0.799998 0.300003
vn -0.519617 0.799998 0.300003
vn -0.519617 0.799998 0.300003
vn -0.519616 -0.799999 0.300000
vn -0.519616 -0.799999 0.300000
vn -0.519617 -0.799999 0.300001
vn -0.519616 -0.799999 0.300000
vn -0.000003 0.799993 0.600010
vn -0.000003 0.799993 0.600010
vn -0.000003 0.799993 0.600010
vn -0.000003 0.799993 0.600010
vn 0.000000 -0.799995 0.600006
vn 0.000000 -0.799995 0.600006
vn 0.000000 -0.799995 0.600006
vn 0.000000 -0.799995 0.600006
vn 0.519622 0.799994 0.300004
vn 0.519622 0.799994 0.300004
vn 0.519622 0.799994 0.300004
vn 0.519622 0.799994 0.300004
vn 0.519617 -0.799999 0.300000
vn 0.519617 -0.799999 0.300000
vn 0.519617 -0.799999 0.300000
vn 0.519617 -0.799999 0.300000
vn 0.519618 0.799998 -0.300000
vn 0.519618 0.799998 -0.300000
vn 0.519617 0.799998 -0.300000
vn 0.519618 0.799998 -0.300000
vn 0.519617 -0.800000 -0.299997
vn 0.519617 -0.800000 -0.299997
vn 0.519617 -0.800000 -0.299997
vn 0.519617 -0.800000 -0.299997
vn 0.000000 -1.000000 0.000000
vn 0.000000 -1.000000 0.000000
vn 0.000000 -1.000000 0.000000
vn 0.000000 -1.000000 0.000000
vn 0.000000 -1.000000 0.000000
vn 0.000000 -1.000000 0.000000
s off
f 1/1/1 2/2/2 4/3/3 3/4/4
f 2/2/5 8/7/6 6/5/7 4/3/8
f 7/8/9 1/1/10 3/4/11 5/6/12
f 9/9/13 10/10/14 12/11/15 11/12/16
f 10/10/17 16/13/18 14/14/19 12/11/20
f 15/15/21 9/9/22 11/12/23 13/16/24
f 17/17/25 18/18/26 20/19/27 19/20/28
f 18/18/29 24/21/30 22/22/31 20/19/32
f 23/23/33 17/17/34 19/20/35 21/24/36
f 25/25/37 26/26/38 32/27/39 31/28/40
f 26/26/41 27/29/42 33/30/43 32/27/44
f 27/29/45 28/31/46 34/32/47 33/30/48
f 28/31/49 29/33/50 35/34/51 34/32/52
f 29/33/53 30/35/54 36/36/55 35/34/56
f 30/35/57 25/25/58 31/28/59 36/36/60
f 79/37/61 80/38/62 81/39/63 82/40/64 83/41/65 84/42/66
f 25/25/67 30/35/68 37/43/69 38/44/70
f 30/35/71 29/33/72 39/45/73 37/43/74
f 29/33/75 28/31/76 40/46/77 39/45/78
f 28/31/79 27/29/80 41/47/81 40/46/82
f 27/29/83 26/26/84 42/48/85 41/47/86
f 26/26/87 25/25/88 38/44/89 42/48/90
f 38/44/91 37/43/92 43/49/93 44/50/94
f 37/43/95 39/45/96 45/51/97 43/49/98
f 39/45/99 40/46/100 46/52/101 45/51/102
f 40/46/103 41/47/104 47/53/105 46/52/106
f 41/47/107 42/48/108 48/54/109 47/53/110
f 42/48/111 38/44/112 44/50/113 48/54/114
f 44/50/115 43/49/116 49/55/117 50/56/118
f 43/49/119 45/51/120 51/57/121 49/55/122
f 45/51/123 46/52/124 52/58/125 51/57/126
f 46/52/127 47/53/128 53/59/129 52/58/130
f 47/53/131 48/54/132 54/60/133 53/59/134
f 48/54/135 44/50/136 50/56/137 54/60/138
f 85/61/139 86/62/140 56/63/141 55/64/142
f 86/62/143 87/65/144 57/66/145 56/63/146
f 87/65/147 88/67/148 58/68/149 57/66/150
f 88/67/151 89/69/152 59/70/153 58/68/154
f 89/69/155 90/71/156 60/72/157 59/70/158
f 90/71/159 85/61/160 55/64/161 60/72/162
f 55/64/163 56/63/164 62/73/165 61/74/166
f 56/63/167 57/66/168 63/75/169 62/73/170
f 57/66/171 58/68/172 64/76/173 63/75/174
f 58/68/175 59/70/176 65/77/177 64/76/178
f 59/70/179 60/72/180 66/78/181 65/77/182
f 60/72/183 55/64/184 61/74/185 66/78/186
f 61/74/187 62/73/188 68/79/189 67/80/190
f 62/73/191 63/75/192 69/81/193 68/79/194
f 63/75/195 64/76/196 70/82/197 69/81/198
f 64/76/199 65/77/200 71/83/201 70/82/202
f 65/77/203 66/78/204 72/84/205 71/83/206
f 66/78/207 61/74/208 67/80/209 72/84/210
f 67/80/211 68/79/212 74/85/213 73/86/214
f 68/79/215 69/81/216 75/87/217 74/85/218
f 69/81/219 70/82/220 76/88/221 75/87/222
f 70/82/223 71/83/224 77/89/225 76/88/226
f 71/83/227 72/84/228 78/90/229 77/89/230
f 72/84/231 67/80/232 73/86/233 78/90/234
f 73/86/235 74/85/236 80/38/237 79/37/238
f 74/85/239 75/87/240 81/39/241 80/38/242
f 75/87/243 76/88/244 82/40/245 81/39/246
f 76/88/247 77/89/248 83/41/249 82/40/250
f 77/89/251 78/90/252 84/42/253 83/41/254
f 78/90/255 73/86/256 79/37/257 84/42/258
f 91/91/259 92/92/260 93/93/261 94/94/262
f 92/92/263 95/95/264 96/96/265 93/93/266
f 95/95/267 97/97/268 98/98/269 96/96/270
f 97/97/271 99/99/272 100/100/273 98/98/274
f 99/99/275 101/101/276 102/102/277 100/100/278
f 101/101/279 91/91/280 94/94/281 102/102/282
f 31/28/283 32/27/284 92/103/285 91/104/286
f 86/62/287 85/61/288 94/105/289 93/106/290
f 32/27/291 33/30/292 95/107/293 92/103/294
f 87/65/295 86/62/296 93/106/297 96/108/298
f 33/30/299 34/32/300 97/109/301 95/107/302
f 88/67/303 87/65/304 96/108/305 98/110/306
f 34/32/307 35/34/308 99/111/309 97/109/310
f 89/69/311 88/67/312 98/110/313 100/112/314
f 35/34/315 36/36/316 101/113/317 99/111/318
f 90/71/319 89/69/320 100/112/321 102/114/322
f 36/36/323 31/28/324 91/104/325 101/113/326
f 85/61/327 90/71/328 102/114/329 94/105/330
f 50/56/331 49/55/332 51/57/333 52/58/334 53/59/335 54/60/336
