# This file uses centimeters as units for non-parametric coordinates.

v -55.543945 122.223907 38.688293
v -58.372559 120.184692 38.688293
v -58.020752 116.715469 38.688293
v -54.840576 115.285446 38.688293
v -52.011963 117.324646 38.688293
v -52.363525 120.793884 38.688293
v -55.543945 122.223907 43.554077
v -58.372559 120.184692 43.554077
v -58.020752 116.715462 43.554077
v -54.840576 115.285446 43.554077
v -52.011963 117.324646 43.554077
v -52.363525 120.793877 43.554077
v -55.543945 122.223907 40.221741
v -52.363525 120.793877 40.221741
v -52.011963 117.324646 40.221741
v -54.840576 115.285446 40.221741
v -58.020752 116.715462 40.221741
v -58.372559 120.184692 40.221741
v -55.543945 122.223907 42.096680
v -52.363525 120.793884 42.096680
v -52.011963 117.324646 42.096680
v -54.840576 115.285446 42.096680
v -58.020752 116.715469 42.096680
v -58.372559 120.184692 42.096680
v -55.389648 120.702515 40.632874
v -53.604004 119.899612 40.632874
v -55.389648 120.702515 41.685547
v -53.604004 119.899612 41.685547
v -53.406494 117.951767 40.632874
v -53.406494 117.951767 41.685547
v -54.994629 116.806839 40.632874
v -54.994629 116.806839 41.685547
v -56.780273 117.609741 40.632874
v -56.780273 117.609741 41.685547
v -56.977783 119.557571 40.632874
v -56.977783 119.557571 41.685547
v -55.192139 118.754669 44.808044
v -92.662842 42.079384 38.676758
v -48.404297 42.079384 38.676758
v -92.662842 213.460754 38.676758
v -48.404297 213.460754 38.676758
v -92.907715 213.927628 34.361877
v -48.159424 213.927628 34.361877
v -92.907715 41.612503 34.361877
v -48.159424 41.612503 34.361877
v -88.287598 46.479385 38.676758
v -52.779541 46.479385 38.676758
v -52.779541 209.060760 38.676758
v -88.287598 197.327209 38.676758
v -70.533447 201.828506 38.676758
v -61.656494 207.511719 38.676758
v -79.410400 197.847198 38.676758
v -92.662842 103.754471 38.676758
v -88.287598 111.428650 38.676758
v -79.410400 111.948647 38.676758
v -70.533447 116.979385 38.676758
v -61.656494 124.227150 38.676758
v -52.779541 125.776184 38.676758
v -48.404297 118.102005 38.676758
v -48.159424 118.001404 34.361877
v -92.907715 103.653870 34.361877
v -88.287598 97.976547 38.676758
v -79.410400 98.496544 38.676758
v -70.533447 103.527283 38.676758
v -61.656494 110.775047 38.676758
v -52.779541 112.324081 38.676758
v -86.298584 113.428650 37.176758
v -79.978516 113.948639 37.176758
v -78.937500 195.847198 37.176758
v -86.298584 195.327209 37.176758
v -71.771729 118.560242 37.176758
v -69.447510 200.139359 37.176758
v -62.471680 126.227150 37.176758
v -60.951904 205.511719 37.176758
v -54.768311 127.776184 37.176758
v -54.768311 207.060760 37.176758
v -86.298584 48.479385 37.176758
v -54.768311 48.479385 37.176758
v -78.842529 96.496544 37.176758
v -86.298584 95.976547 37.176758
v -69.295410 101.946426 37.176758
v -60.841309 108.775047 37.176758
v -54.768311 110.324081 37.176758
vt 0.482686 0.040713
vt 0.483176 0.040718
vt 0.483178 0.040764
vt 0.482684 0.040759
vt 0.483414 0.041133
vt 0.483418 0.041182
vt 0.483165 0.041540
vt 0.483166 0.041592
vt 0.482679 0.041535
vt 0.482677 0.041587
vt 0.482439 0.041123
vt 0.482435 0.041172
vt 0.482650 0.041187
vt 0.482790 0.040955
vt 0.482789 0.040988
vt 0.482648 0.041222
vt 0.482785 0.041421
vt 0.482784 0.041457
vt 0.483061 0.041424
vt 0.483062 0.041459
vt 0.483203 0.041193
vt 0.483204 0.041227
vt 0.483067 0.040958
vt 0.483068 0.040991
vt 0.482430 0.041233
vt 0.482681 0.040816
vt 0.482679 0.040861
vt 0.482426 0.041281
vt 0.482674 0.041651
vt 0.482672 0.041702
vt 0.483168 0.041657
vt 0.483170 0.041708
vt 0.483422 0.041243
vt 0.483426 0.041291
vt 0.483180 0.040821
vt 0.483181 0.040866
vt 0.482925 0.041328
vt 0.481930 0.035411
vt 0.481747 0.035401
vt 0.481778 0.035043
vt 0.481964 0.035053
vt 0.481969 0.035049
vt 0.481948 0.034714
vt 0.481910 0.035091
vt 0.481887 0.035331
vt 0.481903 0.035685
vt 0.481199 0.035398
vt 0.481216 0.035056
vt 0.481238 0.034685
vt 0.481221 0.035015
vt 0.481927 0.035437
vt 0.481212 0.035644
vt 0.481903 0.035685
vt 0.481200 0.035372
vt 0.481221 0.035015
vt 0.481964 0.035053
vt 0.481778 0.035043
vt 0.481930 0.035411
vt 0.481593 0.035034
vt 0.481407 0.035024
vt 0.481593 0.035034
vt 0.481565 0.035391
vt 0.481383 0.035381
vt 0.481407 0.035024
vt 0.481202 0.035295
vt 0.481184 0.035645
vt 0.481200 0.035372
vt 0.481221 0.035015
vt 0.481925 0.035463
vt 0.481743 0.035453
vt 0.481747 0.035401
vt 0.481565 0.035391
vt 0.481561 0.035443
vt 0.481383 0.035381
vt 0.481379 0.035434
vt 0.481197 0.035424
vt 0.481903 0.035685
vt 0.481197 0.035649
vt 0.481743 0.035453
vt 0.481925 0.035463
vt 0.481561 0.035443
vt 0.481379 0.035434
vt 0.481197 0.035424
vt 0.481945 0.024356
vt 0.481903 0.024355
vt 0.481899 0.023823
vt 0.481951 0.023825
vt 0.481833 0.023796
vt 0.481848 0.024329
vt 0.481786 0.024285
vt 0.481773 0.023761
vt 0.481734 0.024278
vt 0.481728 0.023752
vt 0.481940 0.024739
vt 0.481739 0.024752
vt 0.481894 0.024462
vt 0.481943 0.024462
vt 0.481832 0.024432
vt 0.481776 0.024394
vt 0.481735 0.024386
vn -0.584802 0.811176 0.000000
vn -0.584802 0.811176 0.000000
vn -0.584802 0.811176 0.000000
vn -0.584802 0.811176 0.000000
vn -0.994900 -0.100863 0.000001
vn -0.994900 -0.100863 0.000001
vn -0.994900 -0.100863 0.000001
vn -0.994900 -0.100863 0.000001
vn -0.410100 -0.912041 -0.000003
vn -0.410100 -0.912041 -0.000003
vn -0.410100 -0.912041 -0.000003
vn -0.410100 -0.912041 -0.000003
vn 0.584800 -0.811178 0.000000
vn 0.584800 -0.811178 0.000000
vn 0.584800 -0.811178 0.000000
vn 0.584800 -0.811178 0.000000
vn 0.994900 0.100865 0.000000
vn 0.994900 0.100865 0.000000
vn 0.994900 0.100865 0.000000
vn 0.994900 0.100865 0.000000
vn 0.410101 0.912040 0.000000
vn 0.410101 0.912040 0.000000
vn 0.410101 0.912040 0.000000
vn 0.410101 0.912040 0.000000
vn 0.000000 0.000000 -1.000000
vn 0.000000 0.000000 -1.000000
vn 0.000000 0.000000 -1.000000
vn 0.000000 0.000000 -1.000000
vn 0.000000 0.000000 -1.000000
vn 0.000000 0.000000 -1.000000
vn 0.410101 0.912040 0.000000
vn 0.410101 0.912040 0.000000
vn 0.410101 0.912040 0.000000
vn 0.410101 0.912040 0.000000
vn 0.994900 0.100862 0.000000
vn 0.994900 0.100862 0.000000
vn 0.994900 0.100862 0.000000
vn 0.994900 0.100862 0.000000
vn 0.584803 -0.811175 0.000000
vn 0.584803 -0.811175 0.000000
vn 0.584803 -0.811175 0.000000
vn 0.584803 -0.811175 0.000000
vn -0.410099 -0.912041 0.000000
vn -0.410099 -0.912041 0.000000
vn -0.410099 -0.912041 0.000000
vn -0.410099 -0.912041 0.000000
vn -0.994900 -0.100864 -0.000002
vn -0.994900 -0.100864 -0.000002
vn -0.994900 -0.100864 -0.000002
vn -0.994900 -0.100864 -0.000002
vn -0.584801 0.811177 0.000000
vn -0.584801 0.811177 0.000000
vn -0.584801 0.811177 0.000000
vn -0.584801 0.811177 0.000000
vn 0.410100 0.912041 0.000000
vn 0.410100 0.912041 0.000000
vn 0.410100 0.912041 0.000000
vn 0.410100 0.912041 0.000000
vn 0.994900 0.100864 0.000000
vn 0.994900 0.100864 0.000000
vn 0.994900 0.100864 0.000000
vn 0.994900 0.100864 0.000000
vn 0.584801 -0.811177 0.000000
vn 0.584801 -0.811177 0.000000
vn 0.584801 -0.811177 0.000000
vn 0.584801 -0.811177 0.000000
vn -0.410099 -0.912041 0.000000
vn -0.410099 -0.912041 0.000000
vn -0.410099 -0.912041 0.000000
vn -0.410099 -0.912041 0.000000
vn -0.994900 -0.100864 0.000000
vn -0.994900 -0.100864 0.000000
vn -0.994900 -0.100864 0.000000
vn -0.994900 -0.100864 0.000000
vn -0.584802 0.811176 0.000000
vn -0.584802 0.811176 0.000000
vn -0.584802 0.811176 0.000000
vn -0.584802 0.811176 0.000000
vn 0.121584 0.270396 0.955041
vn 0.121584 0.270396 0.955041
vn 0.121584 0.270396 0.955041
vn 0.121584 0.270396 0.955041
vn 0.121584 0.270396 -0.955041
vn 0.121584 0.270396 -0.955041
vn 0.121584 0.270396 -0.955041
vn 0.121584 0.270396 -0.955041
vn 0.294962 0.029904 0.955041
vn 0.294962 0.029904 0.955041
vn 0.294962 0.029904 0.955041
vn 0.294962 0.029904 0.955041
vn 0.294959 0.029903 -0.955042
vn 0.294959 0.029903 -0.955042
vn 0.294959 0.029903 -0.955042
vn 0.294959 0.029903 -0.955042
vn 0.173377 -0.240492 0.955041
vn 0.173377 -0.240492 0.955041
vn 0.173377 -0.240492 0.955041
vn 0.173377 -0.240492 0.955041
vn 0.173379 -0.240493 -0.955041
vn 0.173379 -0.240493 -0.955041
vn 0.173379 -0.240493 -0.955041
vn 0.173379 -0.240493 -0.955041
vn -0.121585 -0.270398 0.955040
vn -0.121585 -0.270398 0.955040
vn -0.121585 -0.270398 0.955040
vn -0.121585 -0.270398 0.955040
vn -0.121584 -0.270397 -0.955041
vn -0.121584 -0.270397 -0.955041
vn -0.121584 -0.270397 -0.955041
vn -0.121584 -0.270397 -0.955041
vn -0.294961 -0.029903 0.955041
vn -0.294961 -0.029903 0.955041
vn -0.294961 -0.029903 0.955041
vn -0.294961 -0.029903 0.955041
vn -0.294960 -0.029902 -0.955042
vn -0.294960 -0.029902 -0.955042
vn -0.294960 -0.029902 -0.955042
vn -0.294960 -0.029902 -0.955042
vn -0.173378 0.240494 0.955041
vn -0.173378 0.240494 0.955041
vn -0.173378 0.240494 0.955041
vn -0.173378 0.240494 0.955041
vn -0.173379 0.240494 -0.955040
vn -0.173379 0.240494 -0.955040
vn -0.173379 0.240494 -0.955040
vn -0.173379 0.240494 -0.955040
vn -0.224271 0.311087 0.923541
vn -0.224271 0.311087 0.923541
vn -0.224271 0.311087 0.923541
vn -0.381548 -0.038682 0.923539
vn -0.381548 -0.038682 0.923539
vn -0.381548 -0.038682 0.923539
vn -0.157274 -0.349769 0.923540
vn -0.157274 -0.349769 0.923540
vn -0.157274 -0.349769 0.923540
vn 0.224271 -0.311088 0.923540
vn 0.224271 -0.311088 0.923540
vn 0.224271 -0.311088 0.923540
vn 0.381547 0.038682 0.923540
vn 0.381547 0.038682 0.923540
vn 0.381547 0.038682 0.923540
vn 0.157275 0.349769 0.923540
vn 0.157275 0.349769 0.923540
vn 0.157275 0.349769 0.923540
vn 0.000000 0.000000 1.000000
vn 0.000000 0.000000 1.000000
vn 0.000000 0.000000 1.000000
vn 0.000000 0.000000 1.000000
vn 0.000000 0.000000 -1.000000
vn -0.000000 0.000000 -1.000000
vn 0.000000 0.000000 -1.000000
vn 0.000000 0.000000 -1.000000
vn -0.000000 -0.994197 0.107572
vn -0.000000 -0.994197 0.107572
vn -0.000000 -0.994197 0.107572
vn -0.000000 -0.994197 0.107572
vn 0.998395 0.000000 0.056628
vn 0.998395 0.000000 0.056628
vn 0.998395 0.000000 0.056628
vn 0.998395 0.000000 0.056628
vn -0.998396 0.000000 0.056627
vn -0.998396 0.000000 0.056627
vn -0.998396 0.000000 0.056627
vn -0.998396 0.000000 0.056627
vn 0.000000 0.000000 1.000000
vn 0.000000 0.000000 1.000000
vn 0.000000 0.000000 1.000000
vn 0.000000 0.000000 1.000000
vn 0.000000 0.000000 1.000000
vn 0.000000 0.000000 1.000000
vn 0.000000 0.000000 1.000000
vn 0.000000 0.000000 1.000000
vn 0.000000 0.000000 1.000000
vn 0.000000 0.000000 1.000000
vn 0.000000 0.000000 1.000000
vn -0.000000 0.000000 1.000000
vn -0.000000 0.000000 1.000000
vn -0.000000 0.000000 1.000000
vn -0.000000 0.000000 1.000000
vn 0.000000 0.000000 1.000000
vn 0.000000 0.000000 1.000000
vn 0.000000 0.000000 1.000000
vn -0.000000 0.000000 1.000000
vn -0.000000 0.000000 1.000000
vn -0.000000 0.000000 1.000000
vn -0.000000 0.000000 1.000000
vn 0.000000 0.000000 1.000000
vn 0.000000 0.000000 1.000000
vn 0.000000 0.000000 1.000000
vn 0.000000 0.000000 1.000000
vn 0.000000 0.994197 0.107573
vn 0.000000 0.994197 0.107573
vn 0.000000 0.994197 0.107573
vn 0.000000 0.994197 0.107573
vn 0.000000 0.000000 1.000000
vn 0.000000 0.000000 1.000000
vn 0.000000 0.000000 1.000000
vn 0.000000 0.000000 1.000000
vn 0.000000 0.000000 1.000000
vn 0.000000 0.000000 1.000000
vn 0.000000 0.000000 1.000000
vn -0.000000 0.000000 1.000000
vn -0.000000 0.000000 1.000000
vn -0.000000 0.000000 1.000000
vn -0.000000 0.000000 1.000000
vn 0.000000 0.000000 1.000000
vn 0.000000 0.000000 1.000000
vn 0.000000 0.000000 1.000000
vn 0.000000 0.000000 1.000000
vn 0.000000 0.000000 1.000000
vn 0.000000 0.000000 1.000000
vn 0.000000 0.000000 1.000000
vn 0.000000 0.000000 1.000000
vn 0.000000 0.000000 1.000000
vn 0.000000 0.000000 1.000000
vn 0.000000 0.000000 1.000000
vn 0.000000 0.000000 1.000000
vn 0.000000 0.000000 1.000000
vn 0.000000 0.000000 1.000000
vn 0.000000 0.000000 1.000000
vn 0.000000 0.000000 1.000000
vn 0.000000 0.000000 1.000000
vn 0.000000 0.000000 1.000000
vn 0.000000 0.000000 1.000000
vn 0.000000 0.000000 1.000000
vn 0.000000 0.000000 1.000000
vn 0.000000 0.000000 1.000000
vn -0.000001 0.000000 1.000000
vn -0.000001 0.000000 1.000000
vn -0.000001 0.000000 1.000000
vn -0.000001 0.000000 1.000000
vn 0.000000 0.000000 1.000000
vn 0.000000 0.000000 1.000000
vn 0.000000 0.000000 1.000000
vn 0.000000 0.000000 1.000000
vn 0.000000 0.000000 1.000000
vn 0.000000 0.000000 1.000000
vn 0.000000 0.000000 1.000000
vn 0.000000 0.000000 1.000000
vn 0.000000 0.000000 1.000000
vn 0.000000 0.000000 1.000000
vn 0.000000 0.000000 1.000000
vn 0.000000 0.000000 1.000000
vn 0.000000 0.000000 1.000000
vn -0.000000 0.000000 1.000000
vn -0.000000 0.000000 1.000000
vn -0.000000 0.000000 1.000000
vn -0.000000 0.000000 1.000000
vn 0.998395 0.000000 0.056628
vn 0.998395 0.000000 0.056628
vn 0.998395 0.000000 0.056628
vn 0.998395 0.000000 0.056628
vn 0.000000 0.000000 -1.000000
vn 0.000000 0.000000 -1.000000
vn 0.000000 0.000000 -1.000000
vn 0.000000 0.000000 -1.000000
vn -0.998395 -0.000000 0.056628
vn -0.998395 -0.000000 0.056628
vn -0.998395 -0.000000 0.056628
vn -0.998395 -0.000000 0.056628
vn -0.041669 0.608910 0.792144
vn -0.041669 0.608910 0.792144
vn -0.041669 0.608910 0.792144
vn -0.041669 0.608910 0.792144
vn 0.037449 -0.584723 0.810368
vn 0.037449 -0.584723 0.810368
vn 0.037449 -0.584723 0.810368
vn 0.037449 -0.584723 0.810368
vn 0.602154 0.000000 0.798380
vn 0.602154 0.000000 0.798380
vn 0.602154 0.000000 0.798380
vn 0.602154 0.000000 0.798380
vn -0.376317 0.458627 0.805014
vn -0.376317 0.458627 0.805014
vn -0.376317 0.458627 0.805014
vn -0.376317 0.458627 0.805014
vn 0.318365 -0.500269 0.805217
vn 0.318365 -0.500269 0.805217
vn 0.318365 -0.500269 0.805217
vn 0.318365 -0.500269 0.805217
vn -0.102720 0.549738 0.828998
vn -0.102720 0.549738 0.828998
vn -0.102720 0.549738 0.828998
vn -0.102720 0.549738 0.828998
vn -0.602154 0.000000 0.798380
vn -0.602154 0.000000 0.798380
vn -0.602154 0.000000 0.798380
vn -0.602154 0.000000 0.798380
vn 0.127747 -0.621011 0.773322
vn 0.127747 -0.621011 0.773322
vn 0.127747 -0.621011 0.773322
vn 0.127747 -0.621011 0.773322
vn -0.294626 0.521999 0.800445
vn -0.294626 0.521999 0.800445
vn -0.294626 0.521999 0.800445
vn -0.294626 0.521999 0.800445
vn 0.246267 -0.546709 0.800289
vn 0.246267 -0.546709 0.800289
vn 0.246267 -0.546709 0.800289
vn 0.246267 -0.546709 0.800289
vn 0.000000 0.599998 0.800002
vn 0.000000 0.599998 0.800002
vn 0.000000 0.599998 0.800002
vn 0.000000 0.599998 0.800002
vn 0.037202 -0.584257 0.810716
vn 0.037202 -0.584257 0.810716
vn 0.037202 -0.584257 0.810716
vn 0.037202 -0.584257 0.810716
vn 0.602154 0.000000 0.798380
vn 0.602154 0.000000 0.798380
vn 0.602154 0.000000 0.798380
vn 0.602154 0.000000 0.798380
vn 0.296406 -0.521063 0.800398
vn 0.296406 -0.521063 0.800398
vn 0.296406 -0.521063 0.800398
vn 0.296406 -0.521063 0.800398
vn 0.373823 -0.460255 0.805247
vn 0.373823 -0.460255 0.805247
vn 0.373823 -0.460255 0.805247
vn 0.373823 -0.460255 0.805247
vn 0.128245 -0.618851 0.774969
vn 0.128245 -0.618851 0.774969
vn 0.128245 -0.618851 0.774969
vn 0.128245 -0.618851 0.774969
vn -0.602154 0.000000 0.798380
vn -0.602154 0.000000 0.798380
vn -0.602154 0.000000 0.798380
vn -0.602154 0.000000 0.798380
s off
f 1/1/1 2/2/2 18/3/3 13/4/4
f 2/2/5 3/5/6 17/6/7 18/3/8
f 3/5/9 4/7/10 16/8/11 17/6/12
f 4/7/13 5/9/14 15/10/15 16/8/16
f 5/9/17 6/11/18 14/12/19 15/10/20
f 6/11/21 1/1/22 13/4/23 14/12/24
f 1/1/25 6/11/26 5/9/27 4/7/28 3/5/29 2/2/30
f 26/13/31 25/14/32 27/15/33 28/16/34
f 29/17/35 26/13/36 28/16/37 30/18/38
f 31/19/39 29/17/40 30/18/41 32/20/42
f 33/21/43 31/19/44 32/20/45 34/22/46
f 35/23/47 33/21/48 34/22/49 36/24/50
f 25/14/51 35/23/52 36/24/53 27/15/54
f 20/25/55 19/26/56 7/27/57 12/28/58
f 21/29/59 20/25/60 12/28/61 11/30/62
f 22/31/63 21/29/64 11/30/65 10/32/66
f 23/33/67 22/31/68 10/32/69 9/34/70
f 24/35/71 23/33/72 9/34/73 8/36/74
f 19/26/75 24/35/76 8/36/77 7/27/78
f 14/12/79 13/4/80 25/14/81 26/13/82
f 19/26/83 20/25/84 28/16/85 27/15/86
f 15/10/87 14/12/88 26/13/89 29/17/90
f 20/25/91 21/29/92 30/18/93 28/16/94
f 16/8/95 15/10/96 29/17/97 31/19/98
f 21/29/99 22/31/100 32/20/101 30/18/102
f 17/6/103 16/8/104 31/19/105 33/21/106
f 22/31/107 23/33/108 34/22/109 32/20/110
f 18/3/111 17/6/112 33/21/113 35/23/114
f 23/33/115 24/35/116 36/24/117 34/22/118
f 13/4/119 18/3/120 35/23/121 25/14/122
f 24/35/123 19/26/124 27/15/125 36/24/126
f 7/27/127 8/36/128 37/37/129
f 8/36/130 9/34/131 37/37/132
f 9/34/133 10/32/134 37/37/135
f 10/32/136 11/30/137 37/37/138
f 11/30/139 12/28/140 37/37/141
f 12/28/142 7/27/143 37/37/144
f 67/84/145 68/85/146 69/86/147 70/87/148
f 60/48/149 61/44/150 42/43/151 43/49/152
f 38/46/153 44/45/154 45/65/155 39/66/156
f 59/47/157 60/48/158 43/49/159 41/50/160
f 61/44/161 53/51/162 40/42/163 42/43/164
f 47/52/165 46/53/166 38/46/167 39/66/168
f 58/54/169 59/47/170 41/50/171 48/55/172
f 40/42/173 49/56/174 52/57/175
f 40/42/176 53/51/177 54/58/178 49/56/179
f 40/42/180 50/59/181 51/60/182
f 72/88/183 71/89/184 73/90/185 74/91/186
f 41/50/187 40/42/188 51/60/189 48/55/190
f 42/43/191 40/42/192 41/50/193 43/49/194
f 74/91/195 73/90/196 75/92/197 76/93/198
f 40/42/199 52/57/200 50/59/201
f 69/86/202 68/85/203 71/89/204 72/88/205
f 54/58/206 53/51/207 62/69/208
f 62/69/209 63/70/210 55/71/211 54/58/212
f 56/72/213 55/71/214 63/70/215 64/73/216
f 57/74/217 56/72/218 64/73/219 65/75/220
f 58/54/221 57/74/222 65/75/223 66/76/224
f 66/76/225 59/47/226 58/54/227
f 62/69/228 53/51/229 38/46/230 46/53/231
f 77/94/232 78/95/233 79/96/234 80/97/235
f 81/98/236 79/96/237 78/95/238
f 82/99/239 81/98/240 78/95/241
f 83/100/242 82/99/243 78/95/244
f 39/66/245 59/47/246 66/76/247 47/52/248
f 39/66/249 45/65/250 60/48/251 59/47/252
f 45/65/253 44/45/254 61/44/255 60/48/256
f 44/45/257 38/46/258 53/51/259 61/44/260
f 54/58/261 55/71/262 68/39/263 67/38/264
f 52/57/265 49/56/266 70/41/267 69/40/268
f 49/56/269 54/58/270 67/38/271 70/41/272
f 56/72/273 57/74/274 73/63/275 71/62/276
f 51/60/277 50/59/278 72/61/279 74/64/280
f 57/74/281 58/54/282 75/67/283 73/63/284
f 58/54/285 48/55/286 76/68/287 75/67/288
f 48/55/289 51/60/290 74/64/291 76/68/292
f 55/71/293 56/72/294 71/62/295 68/39/296
f 50/59/297 52/57/298 69/40/299 72/61/300
f 46/53/301 47/52/302 78/78/303 77/77/304
f 63/70/305 62/69/306 80/80/307 79/79/308
f 62/69/309 46/53/310 77/77/311 80/80/312
f 64/73/313 63/70/314 79/79/315 81/81/316
f 65/75/317 64/73/318 81/81/319 82/82/320
f 66/76/321 65/75/322 82/82/323 83/83/324
f 47/52/325 66/76/326 83/83/327 78/78/328
