# This file uses centimeters as units for non-parametric coordinates.

v 22.992432 63.717243 -8.271423
v 9.627686 61.392731 -21.990417
v 9.627686 67.470428 -21.990417
v 8.745483 66.602547 21.469788
v 9.839966 61.392731 22.645020
v -9.406799 61.389835 -21.992188
v -8.273987 66.602547 -21.653687
v -9.603577 67.473312 21.808289
v -9.603577 61.389835 21.808289
v -23.445862 61.803337 8.591919
v -23.491943 61.803337 -8.290710
v -23.445862 64.170265 8.591919
v -23.491943 67.059822 -8.290710
v -9.406799 67.473312 -21.992188
v 22.992432 61.392731 -8.271423
v 20.387207 67.470428 -10.868286
v 22.588867 67.470428 10.041443
v 11.302185 67.470428 21.605774
v 23.491943 61.392731 8.895081
v -5.088501 67.316780 -22.645081
v 7.631592 67.316780 22.250061
v -7.183533 67.316780 -17.205383
v -7.183533 64.010750 -22.645081
v 22.992432 67.470428 -5.853088
v 9.839966 67.470428 17.550049
v 9.839966 64.462379 22.645020
v -19.847351 67.163239 11.619751
v -23.445862 67.059822 7.215210
v 9.772583 67.470428 4.996399
v 8.679688 66.602547 6.464844
v 7.574951 67.316772 6.901123
v -9.474792 67.473312 -6.845581
v 9.707764 67.470428 -7.074890
v 15.118530 -0.000003 -15.118530
v 0.000000 -0.000003 -21.380798
v -15.118469 -0.000003 -15.118530
v -21.380798 -0.000003 0.000000
v -15.118469 -0.000003 15.118469
v 0.000000 -0.000003 21.380737
v 15.118530 -0.000003 15.118469
v 21.380859 -0.000003 0.000000
v 9.667358 61.389839 -9.667419
v 0.000000 61.389839 -13.671692
v -9.667358 61.389839 -9.667419
v -13.671631 61.389839 0.000000
v -9.667358 61.389839 9.667358
v 0.000000 61.389839 13.671692
v 9.667358 61.389839 9.667358
v 13.671753 61.389839 0.000000
v 15.118530 3.680130 -15.118530
v 21.380859 3.680130 0.000000
v 15.118530 3.680130 15.118469
v 0.000000 3.680130 21.380737
v -15.118469 3.680130 15.118469
v -21.380798 3.680130 0.000000
v -15.118469 3.680130 -15.118530
v 0.000000 3.680130 -21.380798
v 7.151489 7.715893 -7.151489
v 10.113708 7.715893 0.000000
v 7.151489 7.715893 7.151428
v 0.000000 7.715893 10.113647
v -7.151428 7.715893 7.151428
v -10.113647 7.715893 0.000000
v -7.151428 7.715893 -7.151489
v 0.000000 7.715893 -10.113708
v 4.227905 16.040400 -4.227966
v 5.979126 16.040400 0.000000
v 4.227905 16.040400 4.227844
v 0.000000 16.040400 5.979126
v -4.227905 16.040400 4.227905
v -5.979126 16.040400 0.000000
v -4.227905 16.040400 -4.227966
v 0.000000 16.040400 -5.979126
v 9.667358 57.487274 -9.667419
v 13.671753 57.487274 0.000000
v 9.667358 57.487274 9.667358
v 0.000000 57.487274 13.671692
v -9.667358 57.487274 9.667358
v -13.671631 57.487274 0.000000
v -9.667358 57.487274 -9.667419
v 0.000000 57.487274 -13.671692
v 2.346313 28.441893 -2.346313
v 0.000000 28.441893 -3.318237
v -2.346252 28.441893 -2.346313
v -3.318176 28.441893 0.000000
v -2.346252 28.441893 2.346252
v 0.000000 28.441893 3.318176
v 2.346313 28.441893 2.346252
v 3.318237 28.441893 0.000000
v 3.573486 54.283104 -3.573486
v 5.053650 54.283104 0.000000
v 3.573486 54.283104 3.573486
v 0.000000 54.283104 5.053650
v -3.573486 54.283104 3.573486
v -5.053589 54.283104 0.000000
v -3.573486 54.283104 -3.573486
v 0.000000 54.283104 -5.053711
v 9.501892 6.744362 -9.501953
v 0.000000 6.744362 -13.437744
v -9.501892 6.744362 -9.501953
v -13.437683 6.744362 0.000000
v -9.501892 6.744362 9.501892
v 0.000000 6.744362 13.437683
v 9.501892 6.744362 9.501892
v 13.437744 6.744362 0.000000
v 11.197693 4.629038 -11.197693
v 0.000000 4.629038 -15.835876
v -11.197632 4.629038 -11.197693
v -15.835876 4.629038 0.000000
v -11.197632 4.629038 11.197632
v 0.000000 4.629038 15.835815
v 11.197693 4.629038 11.197632
v 15.835938 4.629038 0.000000
vt 0.004300 0.275056
vt 0.003909 0.275035
vt 0.003910 0.275071
vt 0.003657 0.275242
vt 0.003661 0.275527
vt 0.003981 0.275626
vt 0.003697 0.275452
vt 0.004303 0.274962
vt 0.004504 0.275172
vt 0.003981 0.275721
vt 0.004599 0.275237
vt 0.004606 0.275141
vt 0.004643 0.275517
vt 0.004649 0.275435
vt 0.004428 0.275612
vt 0.004303 0.275623
vt 0.004406 0.275673
vt 0.004404 0.275710
vt 0.004582 0.275147
vt 0.003734 0.275375
vt 0.003692 0.275443
vt 0.003649 0.275405
vt 0.003659 0.275479
vt 0.004575 0.275167
vt 0.004545 0.275095
vt 0.003874 0.275001
vt 0.003985 0.274974
vt 0.003650 0.275168
vt 0.003915 0.275244
vt 0.003909 0.275285
vt 0.003919 0.275290
vt 0.004391 0.275309
vt 0.004088 0.275118
vt 0.005500 0.280876
vt 0.005451 0.281008
vt 0.005455 0.280945
vt 0.005504 0.280815
vt 0.005251 0.281077
vt 0.005252 0.281012
vt 0.005033 0.281027
vt 0.005031 0.280963
vt 0.004947 0.280899
vt 0.004945 0.280838
vt 0.005026 0.280781
vt 0.005024 0.280722
vt 0.005204 0.280730
vt 0.005204 0.280673
vt 0.005393 0.280766
vt 0.005395 0.280708
vt 0.005432 0.280142
vt 0.005394 0.280198
vt 0.005251 0.280227
vt 0.005095 0.280206
vt 0.005030 0.280152
vt 0.005084 0.280100
vt 0.005216 0.280077
vt 0.005356 0.280093
vt 0.005350 0.280728
vt 0.005427 0.280807
vt 0.005359 0.280799
vt 0.005309 0.280747
vt 0.005210 0.280702
vt 0.005215 0.280729
vt 0.005078 0.280739
vt 0.005127 0.280754
vt 0.005023 0.280823
vt 0.005093 0.280810
vt 0.005087 0.280912
vt 0.005137 0.280866
vt 0.005245 0.280946
vt 0.005238 0.280887
vt 0.005390 0.280899
vt 0.005331 0.280858
vt 0.005307 0.280709
vt 0.005278 0.280678
vt 0.005220 0.280668
vt 0.005167 0.280683
vt 0.005147 0.280715
vt 0.005174 0.280746
vt 0.005234 0.280758
vt 0.005289 0.280742
vt 0.005257 0.280550
vt 0.005274 0.280566
vt 0.005304 0.280241
vt 0.005278 0.280221
vt 0.005224 0.280545
vt 0.005225 0.280214
vt 0.005194 0.280553
vt 0.005176 0.280224
vt 0.005183 0.280569
vt 0.005158 0.280245
vt 0.005199 0.280586
vt 0.005183 0.280266
vt 0.005232 0.280592
vt 0.005238 0.280273
vt 0.005264 0.280583
vt 0.005288 0.280263
vt 0.005354 0.280144
vt 0.005430 0.280195
vt 0.005215 0.280127
vt 0.005085 0.280151
vt 0.005031 0.280205
vt 0.005096 0.280262
vt 0.005250 0.280283
vt 0.005392 0.280253
vt 0.005437 0.280808
vt 0.005398 0.280904
vt 0.005246 0.280954
vt 0.005080 0.280918
vt 0.005013 0.280825
vt 0.005072 0.280737
vt 0.005209 0.280699
vt 0.005355 0.280726
vn 0.716294 0.000000 -0.697799
vn 0.716294 0.000000 -0.697799
vn 0.716294 0.000000 -0.697799
vn 0.000000 -1.000000 -0.000000
vn 0.000000 -1.000000 -0.000000
vn 0.000000 -1.000000 -0.000000
vn 0.000000 -1.000000 -0.000000
vn 0.009125 0.999958 0.000015
vn 0.009125 0.999958 0.000015
vn 0.009125 0.999958 0.000015
vn 0.009125 0.999958 0.000015
vn -0.034712 0.026476 0.999047
vn -0.034712 0.026476 0.999047
vn -0.034712 0.026476 0.999047
vn -0.034712 0.026476 0.999047
vn 0.000151 -1.000000 -0.000000
vn 0.000151 -1.000000 -0.000000
vn 0.000151 -1.000000 -0.000000
vn 0.000151 -1.000000 -0.000000
vn -0.697275 0.000000 -0.716803
vn -0.697275 0.000000 -0.716803
vn -0.697275 0.000000 -0.716803
vn -0.697275 0.000000 -0.716803
vn -0.029259 0.999572 0.000087
vn -0.029259 0.999572 0.000087
vn -0.029259 0.999572 0.000087
vn -0.694566 0.035673 0.718544
vn -0.694566 0.035673 0.718544
vn -0.694566 0.035673 0.718544
vn -0.694566 0.035673 0.718544
vn -0.029601 -0.999562 -0.000074
vn -0.029601 -0.999562 -0.000074
vn -0.029601 -0.999562 -0.000074
vn -0.029601 -0.999562 -0.000074
vn 0.286333 0.000000 -0.958130
vn 0.286333 0.000000 -0.958130
vn 0.286333 0.000000 -0.958130
vn -0.324802 0.938504 0.117104
vn -0.324802 0.938504 0.117104
vn -0.324802 0.938504 0.117104
vn -0.183365 0.399470 0.898221
vn -0.183365 0.399470 0.898221
vn -0.183365 0.399470 0.898221
vn -0.333331 0.211236 -0.918842
vn -0.333331 0.211236 -0.918842
vn -0.333331 0.211236 -0.918842
vn 0.540507 0.841336 -0.002182
vn 0.540507 0.841336 -0.002182
vn 0.540507 0.841336 -0.002182
vn 0.540507 0.841336 -0.002182
vn 0.667751 0.294498 0.683652
vn 0.667751 0.294498 0.683652
vn 0.667751 0.294498 0.683652
vn -0.999996 0.000475 0.002811
vn -0.999996 0.000475 0.002811
vn -0.999996 0.000475 0.002811
vn -0.999996 0.000475 0.002811
vn -0.245755 0.964700 -0.094652
vn -0.245755 0.964700 -0.094652
vn -0.245755 0.964700 -0.094652
vn 0.026116 -0.081457 -0.996335
vn 0.026116 -0.081457 -0.996335
vn 0.026116 -0.081457 -0.996335
vn 0.026116 -0.081457 -0.996335
vn -0.440345 0.153143 -0.884672
vn -0.440345 0.153143 -0.884672
vn -0.440345 0.153143 -0.884672
vn 0.850688 0.284724 -0.441885
vn 0.850688 0.284724 -0.441885
vn 0.850688 0.284724 -0.441885
vn -0.617079 0.786896 0.002984
vn -0.617079 0.786896 0.002984
vn -0.617079 0.786896 0.002984
vn -0.617079 0.786896 0.002984
vn -0.731808 0.000000 0.681511
vn -0.731808 0.000000 0.681511
vn -0.731808 0.000000 0.681511
vn 0.708259 -0.051887 0.704043
vn 0.708259 -0.051887 0.704043
vn 0.708259 -0.051887 0.704043
vn 0.708259 -0.051887 0.704043
vn 0.000000 1.000000 0.000000
vn 0.000000 1.000000 0.000000
vn 0.000000 1.000000 0.000000
vn 0.000000 1.000000 0.000000
vn -0.745151 0.286846 0.602055
vn -0.745151 0.286846 0.602055
vn -0.745151 0.286846 0.602055
vn 0.999577 0.000000 -0.029088
vn 0.999577 0.000000 -0.029088
vn 0.999577 0.000000 -0.029088
vn -0.999996 -0.000000 0.002730
vn -0.999996 -0.000000 0.002730
vn -0.999996 -0.000000 0.002730
vn -0.690565 0.000000 0.723270
vn -0.690565 0.000000 0.723270
vn -0.690565 0.000000 0.723270
vn -0.029867 0.999554 0.000008
vn -0.029867 0.999554 0.000008
vn -0.029867 0.999554 0.000008
vn -0.029867 0.999554 0.000008
vn 0.044722 -0.028341 -0.998597
vn 0.044722 -0.028341 -0.998597
vn 0.044722 -0.028341 -0.998597
vn -0.010265 0.999940 -0.003953
vn -0.010265 0.999940 -0.003953
vn -0.010265 0.999940 -0.003953
vn 0.717090 0.005919 -0.696956
vn 0.717090 0.005919 -0.696956
vn 0.717090 0.005919 -0.696956
vn 0.717090 0.005919 -0.696956
vn 0.995915 0.090233 0.003451
vn 0.995915 0.090233 0.003451
vn 0.995915 0.090233 0.003451
vn 0.995915 0.090233 0.003451
vn 0.000000 1.000000 -0.000000
vn 0.000000 1.000000 -0.000000
vn 0.000000 1.000000 -0.000000
vn 0.709629 0.000000 0.704575
vn 0.709629 0.000000 0.704575
vn 0.709629 0.000000 0.704575
vn 0.000000 1.000000 0.000001
vn 0.000000 1.000000 0.000001
vn 0.000000 1.000000 0.000001
vn 0.000000 1.000000 0.000001
vn -0.619126 0.785285 0.003324
vn -0.619126 0.785285 0.003324
vn -0.619126 0.785285 0.003324
vn 0.566782 0.818315 0.095489
vn 0.566782 0.818315 0.095489
vn 0.566782 0.818315 0.095489
vn 0.000282 0.999939 0.011037
vn 0.000282 0.999939 0.011037
vn 0.000282 0.999939 0.011037
vn -0.296822 0.951574 -0.080027
vn -0.296822 0.951574 -0.080027
vn -0.296822 0.951574 -0.080027
vn 0.608935 0.793216 0.002736
vn 0.608935 0.793216 0.002736
vn 0.608935 0.793216 0.002736
vn -0.029717 0.999558 -0.000133
vn -0.029717 0.999558 -0.000133
vn -0.029717 0.999558 -0.000133
vn 0.000000 1.000000 -0.000000
vn 0.000000 1.000000 -0.000000
vn 0.000000 1.000000 -0.000000
vn -0.005114 0.999965 -0.006641
vn -0.005114 0.999965 -0.006641
vn -0.005114 0.999965 -0.006641
vn -0.005114 0.999965 -0.006641
vn 0.382683 0.000000 -0.923880
vn 0.382683 0.000000 -0.923880
vn 0.382683 0.000000 -0.923880
vn 0.382683 0.000000 -0.923880
vn -0.382683 0.000000 -0.923880
vn -0.382683 0.000000 -0.923880
vn -0.382683 0.000000 -0.923880
vn -0.382683 0.000000 -0.923880
vn -0.923880 0.000000 -0.382684
vn -0.923880 0.000000 -0.382684
vn -0.923880 0.000000 -0.382684
vn -0.923880 0.000000 -0.382684
vn -0.923880 0.000000 0.382684
vn -0.923880 0.000000 0.382684
vn -0.923880 0.000000 0.382684
vn -0.923880 0.000000 0.382684
vn -0.382683 0.000000 0.923880
vn -0.382683 0.000000 0.923880
vn -0.382683 0.000000 0.923880
vn -0.382683 0.000000 0.923880
vn 0.382683 0.000000 0.923880
vn 0.382683 0.000000 0.923880
vn 0.382683 0.000000 0.923880
vn 0.382683 0.000000 0.923880
vn 0.923880 0.000000 0.382683
vn 0.923880 0.000000 0.382683
vn 0.923880 0.000000 0.382683
vn 0.923880 0.000000 0.382683
vn 0.923880 0.000000 -0.382684
vn 0.923880 0.000000 -0.382684
vn 0.923880 0.000000 -0.382684
vn 0.923880 0.000000 -0.382684
vn 0.000000 -1.000000 0.000000
vn 0.000000 -1.000000 0.000000
vn 0.000000 -1.000000 0.000000
vn 0.000000 -1.000000 0.000000
vn 0.000000 -1.000000 0.000000
vn 0.000000 -1.000000 0.000000
vn 0.000000 -1.000000 0.000000
vn 0.000000 -1.000000 0.000000
vn 0.000000 1.000000 0.000000
vn 0.000000 1.000000 0.000000
vn 0.000000 1.000000 0.000000
vn 0.000000 1.000000 0.000000
vn 0.000000 1.000000 0.000000
vn 0.000000 1.000000 0.000000
vn 0.000000 1.000000 0.000000
vn 0.000000 1.000000 0.000000
vn 0.178781 0.981098 -0.074053
vn 0.178781 0.981098 -0.074053
vn 0.178781 0.981098 -0.074053
vn 0.178781 0.981098 -0.074053
vn 0.178781 0.981098 0.074053
vn 0.178781 0.981098 0.074053
vn 0.178781 0.981098 0.074053
vn 0.178781 0.981098 0.074053
vn 0.074053 0.981098 0.178781
vn 0.074053 0.981098 0.178781
vn 0.074053 0.981098 0.178781
vn 0.074053 0.981098 0.178781
vn -0.074053 0.981098 0.178781
vn -0.074053 0.981098 0.178781
vn -0.074053 0.981098 0.178781
vn -0.074053 0.981098 0.178781
vn -0.178781 0.981098 0.074053
vn -0.178781 0.981098 0.074053
vn -0.178781 0.981098 0.074053
vn -0.178781 0.981098 0.074053
vn -0.178781 0.981098 -0.074053
vn -0.178781 0.981098 -0.074053
vn -0.178781 0.981098 -0.074053
vn -0.178781 0.981098 -0.074053
vn -0.074053 0.981098 -0.178781
vn -0.074053 0.981098 -0.178781
vn -0.074053 0.981098 -0.178781
vn -0.074053 0.981098 -0.178781
vn 0.074053 0.981098 -0.178781
vn 0.074053 0.981098 -0.178781
vn 0.074053 0.981098 -0.178781
vn 0.074053 0.981098 -0.178781
vn 0.839698 0.417052 -0.347815
vn 0.839698 0.417052 -0.347815
vn 0.839698 0.417052 -0.347815
vn 0.839698 0.417052 -0.347815
vn 0.839698 0.417052 0.347815
vn 0.839698 0.417052 0.347815
vn 0.839698 0.417052 0.347815
vn 0.839698 0.417052 0.347815
vn 0.347815 0.417052 0.839698
vn 0.347815 0.417052 0.839698
vn 0.347815 0.417052 0.839698
vn 0.347815 0.417052 0.839698
vn -0.347815 0.417052 0.839698
vn -0.347815 0.417052 0.839698
vn -0.347815 0.417052 0.839698
vn -0.347815 0.417052 0.839698
vn -0.839698 0.417052 0.347815
vn -0.839698 0.417052 0.347815
vn -0.839698 0.417052 0.347815
vn -0.839698 0.417052 0.347815
vn -0.839698 0.417052 -0.347815
vn -0.839698 0.417052 -0.347815
vn -0.839698 0.417052 -0.347815
vn -0.839698 0.417052 -0.347815
vn -0.347815 0.417052 -0.839698
vn -0.347815 0.417052 -0.839698
vn -0.347815 0.417052 -0.839698
vn -0.347815 0.417052 -0.839698
vn 0.347815 0.417052 -0.839698
vn 0.347815 0.417052 -0.839698
vn 0.347815 0.417052 -0.839698
vn 0.347815 0.417052 -0.839698
vn 0.922107 -0.061927 -0.381948
vn 0.922107 -0.061927 -0.381948
vn 0.922107 -0.061927 -0.381948
vn 0.922107 -0.061927 -0.381948
vn 0.922107 -0.061927 0.381948
vn 0.922107 -0.061927 0.381948
vn 0.922107 -0.061927 0.381948
vn 0.922107 -0.061927 0.381948
vn 0.381948 -0.061927 0.922107
vn 0.381948 -0.061927 0.922107
vn 0.381948 -0.061927 0.922107
vn 0.381948 -0.061927 0.922107
vn -0.381948 -0.061927 0.922107
vn -0.381948 -0.061927 0.922107
vn -0.381948 -0.061927 0.922107
vn -0.381948 -0.061927 0.922107
vn -0.922107 -0.061927 0.381948
vn -0.922107 -0.061927 0.381948
vn -0.922107 -0.061927 0.381948
vn -0.922107 -0.061927 0.381948
vn -0.922107 -0.061927 -0.381948
vn -0.922107 -0.061927 -0.381948
vn -0.922107 -0.061927 -0.381948
vn -0.922107 -0.061927 -0.381948
vn -0.381948 -0.061927 -0.922107
vn -0.381948 -0.061927 -0.922107
vn -0.381948 -0.061927 -0.922107
vn -0.381948 -0.061927 -0.922107
vn 0.381948 -0.061927 -0.922107
vn 0.381948 -0.061927 -0.922107
vn 0.381948 -0.061927 -0.922107
vn 0.381948 -0.061927 -0.922107
vn 0.923880 0.000000 -0.382684
vn 0.923880 0.000000 -0.382684
vn 0.923880 0.000000 -0.382684
vn 0.923880 0.000000 -0.382684
vn 0.923880 0.000000 0.382683
vn 0.923880 0.000000 0.382683
vn 0.923880 0.000000 0.382683
vn 0.923880 0.000000 0.382683
vn 0.382683 0.000000 0.923880
vn 0.382683 0.000000 0.923880
vn 0.382683 0.000000 0.923880
vn 0.382683 0.000000 0.923880
vn -0.382683 0.000000 0.923880
vn -0.382683 0.000000 0.923880
vn -0.382683 0.000000 0.923880
vn -0.382683 0.000000 0.923880
vn -0.923880 0.000001 0.382684
vn -0.923880 0.000001 0.382684
vn -0.923880 0.000001 0.382684
vn -0.923880 0.000001 0.382684
vn -0.923880 0.000001 -0.382684
vn -0.923880 0.000001 -0.382684
vn -0.923880 0.000001 -0.382684
vn -0.923880 0.000001 -0.382684
vn -0.382683 0.000000 -0.923880
vn -0.382683 0.000000 -0.923880
vn -0.382683 0.000000 -0.923880
vn -0.382683 0.000000 -0.923880
vn 0.382684 0.000000 -0.923880
vn 0.382684 0.000000 -0.923880
vn 0.382684 0.000000 -0.923880
vn 0.382684 0.000000 -0.923880
vn 0.375379 0.194450 -0.906245
vn 0.375379 0.194450 -0.906245
vn 0.375379 0.194450 -0.906245
vn 0.375379 0.194450 -0.906245
vn -0.375379 0.194450 -0.906245
vn -0.375379 0.194450 -0.906245
vn -0.375379 0.194450 -0.906245
vn -0.375379 0.194450 -0.906245
vn -0.906245 0.194450 -0.375379
vn -0.906245 0.194450 -0.375379
vn -0.906245 0.194450 -0.375379
vn -0.906245 0.194450 -0.375379
vn -0.906245 0.194450 0.375379
vn -0.906245 0.194450 0.375379
vn -0.906245 0.194450 0.375379
vn -0.906245 0.194450 0.375379
vn -0.375379 0.194450 0.906245
vn -0.375379 0.194450 0.906245
vn -0.375379 0.194450 0.906245
vn -0.375379 0.194450 0.906245
vn 0.375379 0.194450 0.906245
vn 0.375379 0.194450 0.906245
vn 0.375379 0.194450 0.906245
vn 0.375379 0.194450 0.906245
vn 0.906245 0.194450 0.375379
vn 0.906245 0.194450 0.375379
vn 0.906245 0.194450 0.375379
vn 0.906245 0.194450 0.375379
vn 0.906245 0.194450 -0.375379
vn 0.906245 0.194450 -0.375379
vn 0.906245 0.194450 -0.375379
vn 0.906245 0.194450 -0.375379
vn 0.344915 -0.927697 -0.142868
vn 0.344915 -0.927697 -0.142868
vn 0.344915 -0.927697 -0.142868
vn 0.344915 -0.927697 -0.142868
vn 0.344915 -0.927697 0.142868
vn 0.344915 -0.927697 0.142868
vn 0.344915 -0.927697 0.142868
vn 0.344915 -0.927697 0.142868
vn 0.142868 -0.927697 0.344916
vn 0.142868 -0.927697 0.344916
vn 0.142868 -0.927697 0.344916
vn 0.142868 -0.927697 0.344916
vn -0.142868 -0.927697 0.344915
vn -0.142868 -0.927697 0.344915
vn -0.142868 -0.927697 0.344915
vn -0.142868 -0.927697 0.344915
vn -0.344915 -0.927697 0.142868
vn -0.344915 -0.927697 0.142868
vn -0.344915 -0.927697 0.142868
vn -0.344915 -0.927697 0.142868
vn -0.344915 -0.927697 -0.142869
vn -0.344915 -0.927697 -0.142869
vn -0.344915 -0.927697 -0.142869
vn -0.344915 -0.927697 -0.142869
vn -0.142868 -0.927697 -0.344915
vn -0.142868 -0.927697 -0.344915
vn -0.142868 -0.927697 -0.344915
vn -0.142868 -0.927697 -0.344915
vn 0.142868 -0.927697 -0.344916
vn 0.142868 -0.927697 -0.344916
vn 0.142868 -0.927697 -0.344916
vn 0.142868 -0.927697 -0.344916
vn 0.364680 0.303115 -0.880415
vn 0.364680 0.303115 -0.880415
vn 0.364680 0.303115 -0.880415
vn 0.364680 0.303115 -0.880415
vn -0.364680 0.303115 -0.880414
vn -0.364680 0.303115 -0.880414
vn -0.364680 0.303115 -0.880414
vn -0.364680 0.303115 -0.880414
vn -0.880414 0.303115 -0.364680
vn -0.880414 0.303115 -0.364680
vn -0.880414 0.303115 -0.364680
vn -0.880414 0.303115 -0.364680
vn -0.880414 0.303116 0.364680
vn -0.880414 0.303116 0.364680
vn -0.880414 0.303116 0.364680
vn -0.880414 0.303116 0.364680
vn -0.364680 0.303115 0.880415
vn -0.364680 0.303115 0.880415
vn -0.364680 0.303115 0.880415
vn -0.364680 0.303115 0.880415
vn 0.364679 0.303116 0.880415
vn 0.364679 0.303116 0.880415
vn 0.364679 0.303116 0.880415
vn 0.364679 0.303116 0.880415
vn 0.880414 0.303116 0.364680
vn 0.880414 0.303116 0.364680
vn 0.880414 0.303116 0.364680
vn 0.880414 0.303116 0.364680
vn 0.880414 0.303116 -0.364680
vn 0.880414 0.303116 -0.364680
vn 0.880414 0.303116 -0.364680
vn 0.880414 0.303116 -0.364680
vn 0.074053 0.981098 -0.178780
vn 0.074053 0.981098 -0.178780
vn 0.074053 0.981098 -0.178780
vn 0.074053 0.981098 -0.178780
vn -0.074053 0.981098 -0.178780
vn -0.074053 0.981098 -0.178780
vn -0.074053 0.981098 -0.178780
vn -0.074053 0.981098 -0.178780
vn -0.178780 0.981098 -0.074053
vn -0.178780 0.981098 -0.074053
vn -0.178780 0.981098 -0.074053
vn -0.178780 0.981098 -0.074053
vn -0.178780 0.981098 0.074053
vn -0.178780 0.981098 0.074053
vn -0.178780 0.981098 0.074053
vn -0.178780 0.981098 0.074053
vn -0.074053 0.981098 0.178780
vn -0.074053 0.981098 0.178780
vn -0.074053 0.981098 0.178780
vn -0.074053 0.981098 0.178780
vn 0.074053 0.981098 0.178780
vn 0.074053 0.981098 0.178780
vn 0.074053 0.981098 0.178780
vn 0.074053 0.981098 0.178780
vn 0.178781 0.981098 0.074053
vn 0.178781 0.981098 0.074053
vn 0.178781 0.981098 0.074053
vn 0.178781 0.981098 0.074053
vn 0.178780 0.981098 -0.074053
vn 0.178780 0.981098 -0.074053
vn 0.178780 0.981098 -0.074053
vn 0.178780 0.981098 -0.074053
s off
f 2/1/1 1/2/2 15/3/3
f 19/4/4 5/5/5 2/1/6 15/3/7
f 8/6/8 21/7/9 31/31/10 32/32/11
f 5/5/12 21/7/13 8/6/14 9/10/15
f 5/5/16 9/10/17 6/11/18 2/1/19
f 14/12/20 6/11/21 11/13/22 13/14/23
f 13/14/24 28/15/25 14/12/26
f 9/10/27 8/6/28 27/16/29 12/17/30
f 9/10/31 10/18/32 11/13/33 6/11/34
f 7/19/35 6/11/36 14/12/37
f 25/20/38 4/21/39 18/22/40
f 4/21/41 26/23/42 18/22/43
f 23/24/44 7/19/45 20/25/46
f 21/7/47 4/21/48 30/30/49 31/31/50
f 5/5/51 4/21/52 21/7/53
f 28/15/54 13/14/55 11/13/56 12/17/57
f 7/19/58 22/9/59 20/25/60
f 3/8/61 2/1/62 6/11/63 23/24/64
f 6/11/65 7/19/66 23/24/67
f 24/26/68 1/2/69 16/27/70
f 4/21/71 25/20/72 29/29/73 30/30/74
f 4/21/75 5/5/76 26/23/77
f 19/4/78 17/28/79 18/22/80 26/23/81
f 25/20/82 18/22/83 17/28/84 24/26/85
f 27/16/86 28/15/87 12/17/88
f 1/2/89 19/4/90 15/3/91
f 12/17/92 11/13/93 10/18/94
f 9/10/95 12/17/96 10/18/97
f 32/32/98 28/15/99 27/16/100 8/6/101
f 3/8/102 23/24/103 20/25/104
f 22/9/105 3/8/106 20/25/107
f 16/27/108 1/2/109 2/1/110 3/8/111
f 1/2/112 24/26/113 17/28/114 19/4/115
f 25/20/116 24/26/117 29/29/118
f 19/4/119 26/23/120 5/5/121
f 29/29/122 24/26/123 16/27/124 33/33/125
f 30/30/126 29/29/127 33/33/128
f 31/31/129 30/30/130 33/33/131
f 32/32/132 31/31/133 33/33/134
f 32/32/135 22/9/136 7/19/137
f 32/32/138 7/19/139 14/12/140
f 14/12/141 28/15/142 32/32/143
f 33/33/144 16/27/145 3/8/146
f 32/32/147 33/33/148 3/8/149 22/9/150
f 34/34/151 35/35/152 57/36/153 50/37/154
f 35/35/155 36/38/156 56/39/157 57/36/158
f 36/38/159 37/40/160 55/41/161 56/39/162
f 37/40/163 38/42/164 54/43/165 55/41/166
f 38/42/167 39/44/168 53/45/169 54/43/170
f 39/44/171 40/46/172 52/47/173 53/45/174
f 40/46/175 41/48/176 51/49/177 52/47/178
f 41/48/179 34/34/180 50/37/181 51/49/182
f 34/34/183 41/48/184 40/46/185 39/44/186 38/42/187 37/40/188 36/38/189 35/35/190
f 42/50/191 43/51/192 44/52/193 45/53/194 46/54/195 47/55/196 48/56/197 49/57/198
f 105/58/199 98/59/200 58/60/201 59/61/202
f 104/62/203 105/58/204 59/61/205 60/63/206
f 103/64/207 104/62/208 60/63/209 61/65/210
f 102/66/211 103/64/212 61/65/213 62/67/214
f 101/68/215 102/66/216 62/67/217 63/69/218
f 100/70/219 101/68/220 63/69/221 64/71/222
f 99/72/223 100/70/224 64/71/225 65/73/226
f 98/59/227 99/72/228 65/73/229 58/60/230
f 59/61/231 58/60/232 66/74/233 67/75/234
f 60/63/235 59/61/236 67/75/237 68/76/238
f 61/65/239 60/63/240 68/76/241 69/77/242
f 62/67/243 61/65/244 69/77/245 70/78/246
f 63/69/247 62/67/248 70/78/249 71/79/250
f 64/71/251 63/69/252 71/79/253 72/80/254
f 65/73/255 64/71/256 72/80/257 73/81/258
f 58/60/259 65/73/260 73/81/261 66/74/262
f 89/82/263 82/83/264 90/84/265 91/85/266
f 88/86/267 89/82/268 91/85/269 92/87/270
f 87/88/271 88/86/272 92/87/273 93/89/274
f 86/90/275 87/88/276 93/89/277 94/91/278
f 85/92/279 86/90/280 94/91/281 95/93/282
f 84/94/283 85/92/284 95/93/285 96/95/286
f 83/96/287 84/94/288 96/95/289 97/97/290
f 82/83/291 83/96/292 97/97/293 90/84/294
f 75/98/295 74/99/296 42/50/297 49/57/298
f 76/100/299 75/98/300 49/57/301 48/56/302
f 77/101/303 76/100/304 48/56/305 47/55/306
f 78/102/307 77/101/308 47/55/309 46/54/310
f 79/103/311 78/102/312 46/54/313 45/53/314
f 80/104/315 79/103/316 45/53/317 44/52/318
f 81/105/319 80/104/320 44/52/321 43/51/322
f 74/99/323 81/105/324 43/51/325 42/50/326
f 66/74/327 73/81/328 83/96/329 82/83/330
f 73/81/331 72/80/332 84/94/333 83/96/334
f 72/80/335 71/79/336 85/92/337 84/94/338
f 71/79/339 70/78/340 86/90/341 85/92/342
f 70/78/343 69/77/344 87/88/345 86/90/346
f 69/77/347 68/76/348 88/86/349 87/88/350
f 68/76/351 67/75/352 89/82/353 88/86/354
f 67/75/355 66/74/356 82/83/357 89/82/358
f 91/85/359 90/84/360 74/99/361 75/98/362
f 92/87/363 91/85/364 75/98/365 76/100/366
f 93/89/367 92/87/368 76/100/369 77/101/370
f 94/91/371 93/89/372 77/101/373 78/102/374
f 95/93/375 94/91/376 78/102/377 79/103/378
f 96/95/379 95/93/380 79/103/381 80/104/382
f 97/97/383 96/95/384 80/104/385 81/105/386
f 90/84/387 97/97/388 81/105/389 74/99/390
f 106/106/391 107/107/392 99/72/393 98/59/394
f 107/107/395 108/108/396 100/70/397 99/72/398
f 108/108/399 109/109/400 101/68/401 100/70/402
f 109/109/403 110/110/404 102/66/405 101/68/406
f 110/110/407 111/111/408 103/64/409 102/66/410
f 111/111/411 112/112/412 104/62/413 103/64/414
f 112/112/415 113/113/416 105/58/417 104/62/418
f 113/113/419 106/106/420 98/59/421 105/58/422
f 50/37/423 57/36/424 107/107/425 106/106/426
f 57/36/427 56/39/428 108/108/429 107/107/430
f 56/39/431 55/41/432 109/109/433 108/108/434
f 55/41/435 54/43/436 110/110/437 109/109/438
f 54/43/439 53/45/440 111/111/441 110/110/442
f 53/45/443 52/47/444 112/112/445 111/111/446
f 52/47/447 51/49/448 113/113/449 112/112/450
f 51/49/451 50/37/452 106/106/453 113/113/454
