# This file uses centimeters as units for non-parametric coordinates.

v 25.000254 0.000000 19.543863
v 20.202599 27.273628 14.935732
v 27.258699 27.273628 14.935732
v 20.202599 27.273628 -14.935732
v 27.258699 27.273628 -14.935732
v 25.000254 0.000000 -19.543863
v 32.056355 0.000000 -19.543863
v 20.202599 27.273628 0.000000
v 27.258699 27.273628 0.000000
v 30.337564 9.770954 0.000000
v 32.056355 0.000002 9.770954
v 32.056355 0.000000 -9.770954
v 23.307453 9.623201 0.000001
v 25.000254 0.000002 -9.770953
v 25.000254 0.000000 9.770954
v 30.292328 0.000000 19.543863
v 30.856939 6.818407 18.391829
v 32.056355 0.000000 17.100636
v -25.000254 0.000000 -19.543863
v -20.202599 27.273628 -14.935732
v -27.258699 27.273628 -14.935732
v -20.202599 27.273628 14.935732
v -27.258699 27.273628 14.935732
v -25.000254 0.000000 19.543863
v -32.056355 0.000000 19.543863
v -20.202599 27.273628 -0.000000
v -27.258699 27.273628 -0.000000
v -30.337566 9.770956 -0.000000
v -32.056355 0.000000 -9.770954
v -32.056355 0.000000 9.770954
v -23.307453 9.623203 -0.000002
v -25.000254 0.000000 9.770954
v -25.000254 0.000000 -9.770954
v -29.448254 14.826489 17.038792
v -31.748617 1.749413 19.248283
v -28.544760 4.813702 18.730545
v -31.003571 5.984844 16.178528
v -30.292328 0.000000 -19.543863
v -30.856939 6.818407 -18.391829
v -32.056355 0.000000 -17.100636
v -35.100266 27.133900 21.227013
v 35.100269 27.133900 -21.154953
v 35.100269 33.656113 -21.154953
v -35.100269 33.656113 -21.154953
v 10.423334 33.328354 20.761707
v 15.614629 33.328354 -21.076389
v -18.656219 33.328354 20.761707
v -18.656219 27.133900 20.761707
v -18.656219 27.133900 -21.076393
v 28.596033 33.656113 20.724060
v 28.596033 27.133900 20.724060
v 12.884232 27.133900 21.264656
v 21.451450 27.133900 -21.264656
v 34.432861 32.025555 21.227020
v 34.432861 28.764454 21.227020
v -35.100266 32.025555 21.227013
v 34.432861 27.133900 14.772049
v -35.100269 27.133900 -14.699982
v -35.100269 28.764454 -21.154953
v 34.432861 33.656113 14.772049
v -35.100269 33.656113 14.772034
v 5.570237 27.133900 -21.076389
v 17.283823 27.133900 -19.945683
v 9.298515 27.133900 16.380877
v 7.047415 28.764454 20.761707
v 15.614629 28.764454 -21.076389
v -28.703537 33.656113 20.724060
v -28.703535 27.133900 -20.651993
v -25.052961 33.656113 -21.264664
v -18.656219 32.025562 -21.076393
v -12.826979 33.328354 -17.700485
v 31.096252 27.133900 8.026306
v 32.129128 33.656113 8.179199
v 35.100266 27.133900 6.686890
v 35.100269 33.656113 6.669220
v 34.432858 33.656113 9.312347
v 34.432858 27.133900 9.050293
v -35.100269 27.133900 12.328384
v -35.100269 27.133900 7.879883
v -29.895058 27.133900 9.819939
v -35.100269 28.658379 10.324905
vt 0.004347 0.299679
vt 0.005071 0.299382
vt 0.004356 0.299513
vt 0.004364 0.299348
vt 0.005013 0.299994
vt 0.005081 0.299549
vt 0.005040 0.299952
vt 0.005090 0.299716
vt 0.004328 0.299958
vt 0.005029 0.300348
vt 0.004324 0.300046
vt 0.005025 0.300260
vt 0.004332 0.299911
vt 0.004315 0.300221
vt 0.005017 0.300083
vt 0.004670 0.300328
vt 0.004329 0.299993
vt 0.004312 0.300265
vt 0.004312 0.300265
vt 0.004329 0.299993
vt 0.004670 0.300328
vt 0.005081 0.299549
vt 0.004356 0.299513
vt 0.004364 0.299348
vt 0.005071 0.299382
vt 0.004348 0.299627
vt 0.004593 0.299864
vt 0.005013 0.299994
vt 0.004328 0.299958
vt 0.004324 0.300046
vt 0.005017 0.300083
vt 0.004335 0.299847
vt 0.004331 0.299919
vt 0.005040 0.299952
vt 0.005025 0.300260
vt 0.005029 0.300348
vt 0.005090 0.299716
vt 0.004347 0.299679
vt 0.004332 0.299911
vt 0.004315 0.300221
vt 0.006498 0.300112
vt 0.006558 0.300082
vt 0.006453 0.300137
vt 0.005912 0.300449
vt 0.005892 0.300411
vt 0.005977 0.300413
vt 0.006095 0.300270
vt 0.006082 0.300290
vt 0.006200 0.300242
vt 0.006673 0.300075
vt 0.006752 0.300074
vt 0.006729 0.300044
vt 0.006768 0.300125
vt 0.006804 0.300083
vt 0.006828 0.300114
vt 0.005896 0.300447
vt 0.005914 0.300466
vt 0.005980 0.300448
vt 0.006578 0.300221
vt 0.006580 0.300188
vt 0.006825 0.300140
vt 0.005914 0.300404
vt 0.005899 0.300374
vt 0.005876 0.300388
vt 0.005880 0.300422
vt 0.006497 0.300138
vt 0.006791 0.300109
vt 0.006735 0.300118
vt 0.006784 0.300094
vt 0.005833 0.300368
vt 0.006034 0.300300
vt 0.006094 0.300246
vt 0.005828 0.300332
vt 0.006283 0.300306
vt 0.006260 0.300329
vt 0.006223 0.300317
vt 0.006200 0.300362
vt 0.006732 0.300019
vt 0.005865 0.300415
vt 0.005860 0.300379
vt 0.006774 0.300094
vn 0.810353 0.031752 0.585081
vn 0.810353 0.031752 0.585081
vn 0.810353 0.031752 0.585081
vn 0.000000 1.000000 0.000000
vn 0.000000 1.000000 0.000000
vn 0.000000 1.000000 0.000000
vn 0.000000 1.000000 0.000000
vn 0.000000 0.166598 -0.986025
vn 0.000000 0.166598 -0.986025
vn 0.000000 0.166598 -0.986025
vn 0.000000 0.166598 -0.986025
vn -0.000000 -1.000000 0.000000
vn -0.000000 -1.000000 0.000000
vn -0.000000 -1.000000 0.000000
vn -0.000000 -1.000000 0.000000
vn 0.984878 0.173248 -0.000000
vn 0.984878 0.173248 -0.000000
vn 0.984878 0.173248 -0.000000
vn 0.984878 0.173248 -0.000000
vn 0.984878 0.173248 -0.000000
vn -0.984878 -0.173248 -0.000000
vn -0.984878 -0.173248 -0.000000
vn -0.984878 -0.173248 -0.000000
vn -0.984878 -0.173248 -0.000000
vn -0.984878 -0.173248 -0.000000
vn -0.984878 -0.173248 0.000000
vn -0.984878 -0.173248 0.000000
vn -0.984878 -0.173248 0.000000
vn -0.984878 -0.173248 0.000000
vn -0.984878 -0.173248 0.000000
vn 0.000000 1.000000 0.000000
vn 0.000000 1.000000 0.000000
vn 0.000000 1.000000 0.000000
vn 0.000000 1.000000 0.000000
vn 0.007438 -0.709116 0.705053
vn 0.007438 -0.709116 0.705053
vn 0.007438 -0.709116 0.705053
vn 0.007438 -0.709116 0.705053
vn 0.007438 -0.709116 -0.705053
vn 0.007438 -0.709116 -0.705053
vn 0.007438 -0.709116 -0.705053
vn 0.007438 -0.709116 -0.705053
vn 0.984878 0.173248 0.000000
vn 0.984878 0.173248 0.000000
vn 0.984878 0.173248 0.000000
vn 0.984878 0.173248 0.000000
vn 0.984878 0.173248 0.000000
vn 0.984878 0.173248 0.000000
vn -0.000000 0.166598 0.986025
vn -0.000000 0.166598 0.986025
vn -0.000000 0.166598 0.986025
vn -0.000000 0.166598 0.986025
vn -0.000000 0.166598 0.986025
vn 0.000000 -1.000000 0.000000
vn 0.000000 -1.000000 0.000000
vn 0.000000 -1.000000 0.000000
vn 0.000000 -1.000000 0.000000
vn 0.000000 -1.000000 0.000000
vn -0.810353 0.031752 -0.585081
vn -0.810353 0.031752 -0.585081
vn -0.810353 0.031752 -0.585081
vn 0.000000 1.000000 0.000000
vn 0.000000 1.000000 0.000000
vn 0.000000 1.000000 0.000000
vn 0.000000 1.000000 0.000000
vn 0.000000 0.166598 0.986025
vn 0.000000 0.166598 0.986025
vn 0.000000 0.166598 0.986025
vn 0.000000 0.166598 0.986025
vn 0.000000 0.166598 0.986025
vn 0.000000 -1.000000 0.000000
vn 0.000000 -1.000000 0.000000
vn 0.000000 -1.000000 0.000000
vn 0.000000 -1.000000 0.000000
vn -0.984878 0.173248 -0.000000
vn -0.984878 0.173248 -0.000000
vn -0.984878 0.173248 -0.000000
vn -0.984878 0.173248 -0.000000
vn 0.984878 -0.173248 -0.000000
vn 0.984878 -0.173248 -0.000000
vn 0.984878 -0.173248 -0.000000
vn 0.984878 -0.173248 -0.000000
vn 0.984878 -0.173248 -0.000000
vn 0.984878 -0.173248 0.000000
vn 0.984878 -0.173248 0.000000
vn 0.984878 -0.173248 0.000000
vn 0.984878 -0.173248 0.000000
vn 0.984878 -0.173248 0.000000
vn 0.000000 1.000000 0.000000
vn 0.000000 1.000000 0.000000
vn 0.000000 1.000000 0.000000
vn 0.000000 1.000000 0.000000
vn -0.007438 -0.709116 -0.705053
vn -0.007438 -0.709116 -0.705053
vn -0.007438 -0.709116 -0.705053
vn -0.007438 -0.709116 -0.705053
vn -0.007438 -0.709116 0.705053
vn -0.007438 -0.709116 0.705053
vn -0.007438 -0.709116 0.705053
vn -0.007438 -0.709116 0.705053
vn -0.706166 0.055542 0.705864
vn -0.706166 0.055542 0.705864
vn -0.706166 0.055542 0.705864
vn -0.440062 0.576439 0.688523
vn -0.440062 0.576439 0.688523
vn -0.440062 0.576439 0.688523
vn -0.000000 0.166598 0.986025
vn -0.000000 0.166598 0.986025
vn -0.000000 0.166598 0.986025
vn -0.000000 0.166598 0.986025
vn -0.984878 0.173248 0.000000
vn -0.984878 0.173248 0.000000
vn -0.984878 0.173248 0.000000
vn -0.984878 0.173248 0.000000
vn -0.984878 0.173248 0.000000
vn -0.984878 0.173248 0.000000
vn -0.984878 0.173248 -0.000000
vn -0.984878 0.173248 -0.000000
vn -0.984878 0.173248 -0.000000
vn -0.984878 0.173248 -0.000000
vn -0.984878 0.173248 -0.000000
vn -0.984878 0.173248 -0.000000
vn 0.000000 0.166598 -0.986025
vn 0.000000 0.166598 -0.986025
vn 0.000000 0.166598 -0.986025
vn 0.000000 0.166598 -0.986025
vn 0.000000 0.166598 -0.986025
vn 0.000000 -1.000000 0.000000
vn 0.000000 -1.000000 0.000000
vn 0.000000 -1.000000 0.000000
vn 0.000000 -1.000000 0.000000
vn 0.000000 -1.000000 0.000000
vn 0.207020 0.737996 -0.642265
vn 0.207020 0.737996 -0.642265
vn 0.207020 0.737996 -0.642265
vn 0.242302 0.940654 0.237613
vn 0.242302 0.940654 0.237613
vn 0.242302 0.940654 0.237613
vn 0.082685 -0.509349 -0.856578
vn 0.082685 -0.509349 -0.856578
vn 0.082685 -0.509349 -0.856578
vn -0.222187 -0.945311 -0.238790
vn -0.222187 -0.945311 -0.238790
vn -0.222187 -0.945311 -0.238790
vn -0.222187 0.945311 0.238789
vn -0.222187 0.945311 0.238789
vn -0.222187 0.945311 0.238789
vn 0.242301 -0.940654 0.237614
vn 0.242301 -0.940654 0.237614
vn 0.242301 -0.940654 0.237614
vn 0.078385 0.000000 0.996923
vn 0.078385 0.000000 0.996923
vn 0.078385 0.000000 0.996923
vn 0.078385 0.000000 0.996923
vn 0.078385 0.000000 0.996923
vn 0.357214 0.001427 -0.934022
vn 0.357214 0.001427 -0.934022
vn 0.357214 0.001427 -0.934022
vn 0.357214 0.001427 -0.934022
vn -0.000000 -1.000000 0.000000
vn -0.000000 -1.000000 0.000000
vn -0.000000 -1.000000 0.000000
vn -0.000000 -1.000000 0.000000
vn -0.000000 -1.000000 0.000000
vn -1.000000 0.000000 0.000000
vn -1.000000 0.000000 0.000000
vn -1.000000 0.000000 0.000000
vn -1.000000 0.000000 0.000000
vn -1.000000 0.000000 0.000000
vn -0.030812 0.000656 -0.999525
vn -0.030812 0.000656 -0.999525
vn -0.030812 0.000656 -0.999525
vn -0.030812 0.000656 -0.999525
vn -0.030812 0.000656 -0.999525
vn 0.048938 -0.948728 0.312282
vn 0.048938 -0.948728 0.312282
vn 0.048938 -0.948728 0.312282
vn -0.064056 0.025863 0.997611
vn -0.064056 0.025863 0.997611
vn -0.064056 0.025863 0.997611
vn -0.064056 0.025863 0.997611
vn -0.064056 0.025863 0.997611
vn -0.064056 0.025863 0.997611
vn -0.064056 0.025863 0.997611
vn 0.000000 0.000000 1.000000
vn 0.000000 0.000000 1.000000
vn 0.000000 0.000000 1.000000
vn 0.000000 0.000000 1.000000
vn 0.000000 -1.000000 -0.000000
vn 0.000000 -1.000000 -0.000000
vn 0.000000 -1.000000 -0.000000
vn 0.000000 -1.000000 -0.000000
vn 0.000000 -1.000000 -0.000000
vn 0.027284 -0.026193 -0.999285
vn 0.027284 -0.026193 -0.999285
vn 0.027284 -0.026193 -0.999285
vn 0.027284 -0.026193 -0.999285
vn 0.027284 -0.026193 -0.999285
vn 0.027284 -0.026193 -0.999285
vn 0.011007 0.999929 0.004611
vn 0.011007 0.999929 0.004611
vn 0.011007 0.999929 0.004611
vn 0.011007 0.999929 0.004611
vn 0.011007 0.999929 0.004611
vn 0.011007 0.999929 0.004611
vn 0.000000 1.000000 0.000000
vn 0.000000 1.000000 0.000000
vn 0.000000 1.000000 0.000000
vn 0.000000 1.000000 0.000000
vn -0.000000 -0.000000 -1.000000
vn -0.000000 -0.000000 -1.000000
vn -0.000000 -0.000000 -1.000000
vn -0.000000 -0.000000 -1.000000
vn -0.000000 -0.000000 -1.000000
vn -0.216578 -0.696262 -0.684334
vn -0.216578 -0.696262 -0.684334
vn -0.216578 -0.696262 -0.684334
vn -0.270577 -0.806352 0.525913
vn -0.270577 -0.806352 0.525913
vn -0.270577 -0.806352 0.525913
vn -0.030778 0.949202 -0.313158
vn -0.030778 0.949202 -0.313158
vn -0.030778 0.949202 -0.313158
vn 1.000000 0.000000 -0.000000
vn 1.000000 0.000000 -0.000000
vn 1.000000 0.000000 -0.000000
vn 1.000000 0.000000 -0.000000
vn 0.377875 -0.039509 0.925013
vn 0.377875 -0.039509 0.925013
vn 0.377875 -0.039509 0.925013
vn 0.377875 -0.039509 0.925013
vn 0.000000 -1.000000 0.000000
vn 0.000000 -1.000000 0.000000
vn 0.000000 -1.000000 0.000000
vn 0.000000 -1.000000 0.000000
vn 0.000000 -1.000000 0.000000
vn 1.000000 -0.000000 -0.000000
vn 1.000000 -0.000000 -0.000000
vn 1.000000 -0.000000 -0.000000
vn 1.000000 -0.000000 -0.000000
vn -0.013259 0.999908 -0.003020
vn -0.013259 0.999908 -0.003020
vn -0.013259 0.999908 -0.003020
vn -0.013259 0.999908 -0.003020
vn 0.000001 1.000000 -0.000000
vn 0.000001 1.000000 -0.000000
vn 0.000001 1.000000 -0.000000
vn 0.000001 1.000000 -0.000000
vn 1.000000 0.000000 -0.000001
vn 1.000000 0.000000 -0.000001
vn 1.000000 0.000000 -0.000001
vn 1.000000 0.000000 -0.000001
vn 0.000000 -1.000000 -0.000000
vn 0.000000 -1.000000 -0.000000
vn 0.000000 -1.000000 -0.000000
vn 0.000000 -1.000000 -0.000000
vn 0.000000 -1.000000 -0.000000
vn 0.000000 -1.000000 0.000000
vn 0.000000 -1.000000 0.000000
vn 0.000000 -1.000000 0.000000
vn 0.000000 -1.000000 0.000000
vn -0.014171 0.999892 -0.003991
vn -0.014171 0.999892 -0.003991
vn -0.014171 0.999892 -0.003991
vn -0.280135 -0.763948 -0.581298
vn -0.280135 -0.763948 -0.581298
vn -0.280135 -0.763948 -0.581298
vn -0.193472 -0.832535 0.519090
vn -0.193472 -0.832535 0.519090
vn -0.193472 -0.832535 0.519090
vn -1.000000 -0.000000 -0.000000
vn -1.000000 -0.000000 -0.000000
vn -1.000000 -0.000000 -0.000000
vn -1.000000 -0.000000 -0.000000
vn -1.000000 -0.000000 -0.000000
vn -1.000000 -0.000000 -0.000000
vn 0.000000 -1.000000 -0.000000
vn 0.000000 -1.000000 -0.000000
vn 0.000000 -1.000000 -0.000000
vn 0.000000 -1.000000 -0.000000
vn 0.000000 -1.000000 -0.000000
vn -0.013259 0.999908 -0.003020
vn -0.013259 0.999908 -0.003020
vn -0.013259 0.999908 -0.003020
s off
f 18/18/1 17/17/2 16/16/3
f 8/6/4 9/3/5 5/4/6 4/2/7
f 4/2/8 5/4/9 7/9/10 6/5/11
f 6/5/12 7/9/13 12/11/14 14/15/15
f 9/3/16 10/13/17 12/11/18 7/9/19 5/4/20
f 6/5/21 14/15/22 13/7/23 8/6/24 4/2/25
f 8/6/26 13/7/27 15/12/28 1/10/29 2/8/30
f 2/8/31 3/1/32 9/3/33 8/6/34
f 12/11/35 10/13/36 13/7/37 14/15/38
f 10/13/39 11/14/40 15/12/41 13/7/42
f 17/17/43 18/18/44 11/14/45 10/13/46 9/3/47 3/1/48
f 1/10/49 16/16/50 17/17/51 3/1/52 2/8/53
f 15/12/54 11/14/55 18/18/56 16/16/57 1/10/58
f 40/19/59 39/20/60 38/21/61
f 26/22/62 27/23/63 23/24/64 22/25/65
f 22/25/66 23/24/67 34/26/68 36/27/69 24/28/70
f 24/28/71 25/29/72 30/30/73 32/31/74
f 37/32/75 30/30/76 25/29/77 35/33/78
f 24/28/79 32/31/80 31/34/81 26/22/82 22/25/83
f 26/22/84 31/34/85 33/35/86 19/36/87 20/37/88
f 20/37/89 21/38/90 27/23/91 26/22/92
f 30/30/93 28/39/94 31/34/95 32/31/96
f 28/39/97 29/40/98 33/35/99 31/34/100
f 37/32/101 36/27/102 34/26/103
f 35/33/104 36/27/105 37/32/106
f 24/28/107 36/27/108 35/33/109 25/29/110
f 27/23/111 28/39/112 30/30/113 37/32/114 34/26/115 23/24/116
f 39/20/117 40/19/118 29/40/119 28/39/120 27/23/121 21/38/122
f 19/36/123 38/21/124 39/20/125 21/38/126 20/37/127
f 33/35/128 29/40/129 40/19/130 38/21/131 19/36/132
f 70/41/133 69/42/134 71/43/135
f 54/44/136 60/45/137 50/46/138
f 66/47/139 63/48/140 62/49/141
f 68/50/142 58/51/143 59/52/144
f 67/53/145 61/54/146 56/55/147
f 57/56/148 55/57/149 51/58/150
f 48/59/151 47/60/152 67/53/153 56/55/154 41/61/155
f 72/62/156 73/63/157 76/64/158 77/65/159
f 49/66/160 48/59/161 41/61/162 78/67/163 80/68/164
f 56/55/165 61/54/166 81/69/167 78/67/168 41/61/169
f 42/70/170 53/71/171 66/47/172 46/72/173 43/73/174
f 64/74/175 65/75/176 48/59/177
f 54/44/178 50/46/179 45/76/180 65/75/181 52/77/182 51/58/183 55/57/184
f 48/59/185 65/75/186 45/76/187 47/60/188
f 62/49/189 63/48/190 64/74/191 48/59/192 49/66/193
f 69/42/194 70/41/195 49/66/196 68/50/197 59/52/198 44/78/199
f 47/60/200 71/43/201 69/42/202 44/78/203 61/54/204 67/53/205
f 45/76/206 46/72/207 71/43/208 47/60/209
f 46/72/210 66/47/211 62/49/212 49/66/213 70/41/214
f 66/47/215 53/71/216 63/48/217
f 64/74/218 52/77/219 65/75/220
f 70/41/221 71/43/222 46/72/223
f 57/56/224 60/45/225 54/44/226 55/57/227
f 74/79/228 75/80/229 73/63/230 72/62/231
f 74/79/232 72/62/233 63/48/234 53/71/235 42/70/236
f 43/73/237 75/80/238 74/79/239 42/70/240
f 43/73/241 46/72/242 73/63/243 75/80/244
f 76/64/245 73/63/246 50/46/247 60/45/248
f 77/65/249 76/64/250 60/45/251 57/56/252
f 72/62/253 51/58/254 52/77/255 64/74/256 63/48/257
f 57/56/258 51/58/259 72/62/260 77/65/261
f 50/46/262 73/63/263 45/76/264
f 78/67/265 81/69/266 80/68/267
f 80/68/268 81/69/269 79/81/270
f 81/69/271 61/54/272 44/78/273 59/52/274 58/51/275 79/81/276
f 49/66/277 80/68/278 79/81/279 58/51/280 68/50/281
f 73/63/282 46/72/283 45/76/284
