# This file uses centimeters as units for non-parametric coordinates.

v -49.074356 0.214554 249.956055
v 49.074356 0.214554 249.956055
v -48.671837 1.330141 249.205872
v 48.328747 1.330141 249.700989
v -48.325375 1.330141 -249.600494
v 48.343990 1.330141 -249.762909
v -49.074356 0.214554 -249.991760
v 49.074356 0.214554 -249.991760
v -50.557053 2.114354 240.653290
v 50.557053 2.114354 240.653290
v 50.557053 0.000000 240.653351
v -50.557053 0.000000 240.653351
v -49.910641 1.330141 242.185577
v 49.910641 1.330141 242.185577
v 49.910641 0.214554 242.185669
v -49.910641 0.214554 242.185669
v -50.557053 -0.000000 -239.571198
v 50.557053 -0.000000 -239.571198
v 50.557053 2.114354 -239.571274
v -50.557053 2.114354 -239.571274
v -49.910641 0.214554 -240.740387
v 49.910641 0.214554 -240.740387
v 49.910641 1.330141 -240.740448
v -49.910641 1.330141 -240.740448
v -24.760950 1.330141 242.185577
v -24.825640 0.214554 242.185669
v -19.918682 1.330140 -249.802032
v -17.731609 1.330140 -249.744827
v -18.224028 0.214554 -249.991760
v -19.446404 0.214554 -249.991760
v -19.686615 1.330141 -245.185638
v -19.480301 0.214554 -245.045517
v -39.701637 1.330140 -249.991745
v -42.873207 1.330140 -249.844025
v -42.385979 0.214554 -249.991760
v -40.412422 0.214554 -249.991760
v -42.118931 0.214554 -245.157547
v -40.927357 0.214554 -244.635681
v -44.610870 1.370027 -240.680984
v -41.912140 1.330141 -245.687057
v -40.173241 1.330141 -245.088638
v 29.462166 0.214554 -249.991745
v 27.433475 0.214554 -249.991745
v 31.199875 0.214554 -245.532959
v 29.921368 0.214554 -245.200302
v 30.408184 1.342627 -240.721832
v 31.825645 1.330141 -244.862457
v 29.657856 1.330141 -244.587189
v 30.612694 1.330141 -249.530121
v 26.935772 1.330141 -249.991745
v 30.399887 0.211139 -240.721771
v -44.906158 0.206492 -240.747528
v 8.421220 1.330141 -244.848053
v 5.976116 1.330141 -248.142944
v 4.884331 0.214554 -249.991760
v 5.796606 0.214554 -245.124710
v 32.745781 0.214554 245.239777
v -38.998360 0.214554 246.076447
v 32.539261 1.330141 245.210358
v -38.884552 1.330141 246.010773
v 13.346951 1.330141 245.473053
v 19.447712 1.330141 248.555450
v 19.638636 0.214554 249.956055
v 13.836316 0.214554 245.545929
v -38.630844 0.214554 249.956055
v -39.410370 0.214554 249.956055
v -39.637138 1.330141 249.991760
v -37.863113 1.330141 249.376862
v 33.276497 0.214554 249.956055
v 34.078743 0.214554 249.956055
v 32.280106 1.330141 249.956055
v 34.521702 1.330141 249.679718
v -23.662464 1.330140 249.853668
v -26.612404 1.330140 249.680145
v -25.354849 1.330141 245.998230
v -22.729990 1.330141 246.184662
v -24.428410 0.214554 249.956055
v -26.050907 0.214554 249.956055
v -24.712345 0.214554 246.169891
v -23.038738 0.214554 246.161285
v -50.557053 -0.000000 0.008293
v 50.557053 -0.000000 0.008293
v 50.557053 2.114354 0.008202
v -50.557053 2.114354 0.008202
v 50.557053 2.114354 112.564713
v 50.557053 0.000000 112.564804
v -50.557053 0.000000 112.564804
v -50.557053 2.114354 112.564713
v 50.557053 -0.000000 -112.540634
v -50.557053 -0.000000 -112.540634
v -50.557053 2.114354 -112.540726
v 50.557053 2.114354 -112.540726
vt 0.196659 0.305458
vt 0.196220 0.305425
vt 0.196664 0.305418
vt 0.196224 0.305431
vt 0.196221 0.305424
vt 0.196663 0.305416
vt 0.196551 0.305425
vt 0.196644 0.304427
vt 0.196607 0.304422
vt 0.196206 0.304434
vt 0.196288 0.304427
vt 0.196211 0.304436
vt 0.196288 0.304428
vt 0.196640 0.304429
vt 0.196605 0.304423
vt 0.196634 0.304382
vt 0.196605 0.304384
vt 0.196633 0.304384
vt 0.196607 0.304404
vt 0.196638 0.304421
vt 0.196604 0.304383
vt 0.196596 0.304383
vt 0.196507 0.304386
vt 0.196596 0.304384
vt 0.196500 0.304384
vt 0.196308 0.304389
vt 0.196213 0.304430
vt 0.196299 0.304389
vt 0.196291 0.304409
vt 0.196215 0.304389
vt 0.196299 0.304388
vt 0.196216 0.304391
vt 0.196607 0.304401
vt 0.196299 0.304410
vt 0.196509 0.304404
vt 0.196212 0.304428
vt 0.196292 0.304408
vt 0.196598 0.304407
vt 0.196637 0.304422
vt 0.196598 0.304403
vt 0.196507 0.304384
vt 0.196308 0.304388
vt 0.196300 0.304409
vt 0.196499 0.304386
vt 0.196506 0.304407
vt 0.196390 0.304408
vt 0.196399 0.304386
vt 0.196402 0.304388
vt 0.196401 0.304408
vt 0.196661 0.305423
vt 0.196614 0.305438
vt 0.196658 0.305458
vt 0.196299 0.305439
vt 0.196228 0.305465
vt 0.196224 0.305432
vt 0.196300 0.305439
vt 0.196228 0.305466
vt 0.196616 0.305458
vt 0.196297 0.305464
vt 0.196295 0.305465
vt 0.196616 0.305459
vt 0.196294 0.305464
vt 0.196298 0.305465
vt 0.196661 0.305424
vt 0.196551 0.305426
vt 0.196382 0.305436
vt 0.196549 0.305443
vt 0.196556 0.305442
vt 0.196556 0.305442
vt 0.196549 0.305442
vt 0.196612 0.305458
vt 0.196557 0.305460
vt 0.196614 0.305439
vt 0.196612 0.305459
vt 0.196384 0.305437
vt 0.196550 0.305460
vt 0.196550 0.305459
vt 0.196358 0.305464
vt 0.196357 0.305463
vt 0.196557 0.305459
vt 0.641316 0.141200
vt 0.641316 0.249457
vt 0.504179 0.249457
vt 0.504179 0.141200
vt 0.641316 0.249457
vt 0.641316 0.141200
vt 0.504179 0.141200
vt 0.504179 0.249457
vt 0.504167 0.249457
vt 0.504167 0.141200
vt 0.624674 0.141200
vt 0.624674 0.249457
vt 0.624674 0.249457
vt 0.504167 0.249457
vt 0.624674 0.141200
vt 0.504167 0.141200
vt 0.504317 0.141200
vt 0.504317 0.249457
vt 0.641316 0.249457
vt 0.641316 0.141200
vt 0.504317 0.249457
vt 0.504317 0.141200
vt 0.641316 0.141200
vt 0.641316 0.249457
vt 0.624681 0.249457
vt 0.624681 0.141200
vt 0.504181 0.141200
vt 0.504181 0.249457
vt 0.504181 0.141200
vt 0.624680 0.141200
vt 0.624681 0.249457
vt 0.504181 0.249457
vn -0.039956 0.307580 0.950683
vn -0.039956 0.307580 0.950683
vn -0.039956 0.307580 0.950683
vn -0.039956 0.307580 0.950683
vn 0.000000 0.890189 0.455592
vn 0.000000 0.943760 0.330631
vn 0.000000 0.948258 0.317501
vn 0.000000 0.890189 0.455592
vn 0.945463 0.242817 0.217118
vn 0.944569 0.253253 0.208929
vn 0.921369 0.000017 0.388690
vn 0.921369 0.000017 0.388690
vn 0.000000 -0.990339 0.138667
vn 0.000000 -0.995766 0.091928
vn -0.000000 -0.999185 0.040371
vn -0.921369 0.000017 0.388690
vn -0.921369 0.000017 0.388690
vn -0.965239 0.165873 0.201992
vn -0.964596 0.158613 0.210703
vn 0.000000 0.987629 0.156811
vn 0.000000 1.000000 0.000000
vn 0.000000 1.000000 0.000000
vn 0.000000 0.943760 0.330631
vn 0.932861 0.328621 0.147577
vn 0.944569 0.253253 0.208929
vn 0.945463 0.242817 0.217118
vn 0.932861 0.328621 0.147577
vn -0.964596 0.158613 0.210703
vn -0.965239 0.165873 0.201992
vn -0.966068 0.219868 0.135536
vn -0.966068 0.219868 0.135536
vn -0.000340 -0.999824 -0.018779
vn -0.000058 -0.990250 -0.139299
vn -0.000149 -0.984130 -0.177447
vn 0.875153 -0.000019 -0.483846
vn 0.875153 -0.000019 -0.483846
vn 0.944364 0.267320 -0.191614
vn 0.944529 0.257983 -0.203248
vn -0.940778 0.270276 -0.204667
vn -0.940376 0.280061 -0.193025
vn -0.875153 -0.000019 -0.483846
vn -0.875153 -0.000019 -0.483846
vn 0.944529 0.257983 -0.203248
vn 0.944364 0.267320 -0.191614
vn 0.939285 0.320137 -0.123512
vn 0.939286 0.320137 -0.123512
vn -0.933783 0.335353 -0.124850
vn -0.940376 0.280061 -0.193025
vn -0.940778 0.270276 -0.204667
vn -0.933783 0.335353 -0.124850
vn 0.000000 0.943760 0.330631
vn -0.000000 1.000000 0.000000
vn 0.000000 1.000000 0.000000
vn 0.000000 0.948258 0.317501
vn 0.000990 0.548277 0.836296
vn -0.002179 0.545977 0.837797
vn -0.045334 0.513706 0.856768
vn -0.045334 0.513706 0.856768
vn -0.000717 0.231599 0.972811
vn -0.000717 0.231599 0.972811
vn -0.000717 0.231599 0.972811
vn -0.000717 0.231599 0.972811
vn -0.000149 -0.984130 -0.177447
vn -0.000058 -0.990250 -0.139299
vn 0.000060 -0.993300 -0.115561
vn 0.000018 -0.983795 -0.179299
vn -0.000000 0.830485 -0.557040
vn -0.000000 0.830485 -0.557040
vn -0.000004 0.830485 -0.557041
vn -0.000000 0.830485 -0.557040
vn 0.000000 0.830485 -0.557041
vn 0.000000 0.830486 -0.557040
vn -0.000000 0.830485 -0.557040
vn 0.000018 -0.983795 -0.179299
vn 0.000060 -0.993300 -0.115561
vn 0.000011 -0.999748 -0.022454
vn 0.000000 0.830486 -0.557040
vn 0.000000 0.830485 -0.557041
vn 0.000000 0.830485 -0.557041
vn -0.019483 0.236938 -0.971330
vn -0.019483 0.236938 -0.971330
vn -0.019483 0.236938 -0.971330
vn -0.019483 0.236937 -0.971330
vn 0.000000 -1.000000 -0.000000
vn 0.000000 -1.000000 -0.000000
vn -0.000081 -1.000000 -0.000143
vn -0.000340 -0.999824 -0.018779
vn -0.001278 0.999997 -0.002066
vn -0.000583 0.999999 -0.000942
vn 0.000000 1.000000 0.000000
vn 0.000000 1.000000 0.000000
vn 0.004640 0.084243 -0.996435
vn 0.004640 0.084243 -0.996435
vn 0.004640 0.084243 -0.996434
vn 0.004640 0.084243 -0.996434
vn 0.000000 -1.000000 0.000000
vn 0.000030 -1.000000 -0.000880
vn -0.000015 -1.000000 -0.000804
vn 0.000000 -1.000000 0.000000
vn 0.025236 0.674845 -0.737528
vn 0.025236 0.674845 -0.737528
vn -0.010993 0.655158 -0.755412
vn 0.006393 0.664772 -0.747019
vn 0.000011 -0.999748 -0.022454
vn 0.000035 -1.000000 -0.000135
vn 0.000000 -1.000000 -0.000000
vn 0.000000 -1.000000 -0.000000
vn 0.000000 1.000000 0.000000
vn 0.000138 1.000000 -0.000604
vn 0.000039 1.000000 -0.000169
vn 0.000000 1.000000 0.000000
vn -0.005955 0.296652 -0.954967
vn -0.005955 0.296652 -0.954967
vn -0.005955 0.296652 -0.954967
vn -0.005955 0.296652 -0.954967
vn -0.001278 0.999997 -0.002066
vn -0.007391 0.999901 -0.011951
vn -0.000583 0.999999 -0.000942
vn 0.000151 0.999990 -0.004492
vn 0.000193 0.999992 -0.004094
vn 0.000199 0.999991 -0.004293
vn 0.000151 0.999974 -0.007238
vn 0.000039 1.000000 -0.000169
vn 0.000138 1.000000 -0.000604
vn 0.000638 0.999996 -0.002797
vn 0.000060 -0.993300 -0.115561
vn 0.000035 -1.000000 -0.000135
vn 0.000011 -0.999748 -0.022454
vn -0.000058 -0.990250 -0.139299
vn -0.000015 -1.000000 -0.000804
vn 0.000030 -1.000000 -0.000880
vn -0.000340 -0.999824 -0.018779
vn -0.000081 -1.000000 -0.000143
vn -0.000058 -0.990250 -0.139299
vn 0.000000 1.000000 -0.000000
vn -0.000019 0.999992 -0.003909
vn 0.000199 0.999991 -0.004293
vn 0.000000 1.000000 -0.000000
vn -0.000000 1.000000 0.000000
vn 0.000199 0.999991 -0.004293
vn 0.000193 0.999992 -0.004094
vn -0.000000 1.000000 0.000000
vn 0.000000 -1.000000 0.000000
vn 0.000029 -1.000000 -0.000842
vn 0.000030 -1.000000 -0.000880
vn 0.000000 -1.000000 0.000000
vn -0.000058 -0.990250 -0.139299
vn 0.000030 -1.000000 -0.000880
vn 0.000029 -1.000000 -0.000842
vn 0.000060 -0.993300 -0.115561
vn -0.815397 0.515393 0.263625
vn -0.815397 0.515393 0.263625
vn -0.815397 0.515393 0.263625
vn -0.815397 0.515393 0.263625
vn -0.917311 0.326739 -0.227558
vn -0.917311 0.326739 -0.227558
vn -0.917311 0.326739 -0.227558
vn -0.917311 0.326739 -0.227558
vn 0.978047 0.150426 -0.144206
vn 0.978047 0.150426 -0.144206
vn 0.978047 0.150426 -0.144206
vn 0.978047 0.150426 -0.144206
vn 0.818400 0.394133 -0.418188
vn 0.818400 0.394133 -0.418188
vn 0.818399 0.394133 -0.418188
vn 0.818400 0.394133 -0.418188
vn 0.956418 0.291327 -0.019820
vn 0.956418 0.291327 -0.019820
vn 0.956418 0.291327 -0.019820
vn 0.956418 0.291327 -0.019820
vn -0.938652 0.135546 -0.317111
vn -0.938652 0.135546 -0.317111
vn -0.938652 0.135546 -0.317111
vn -0.938652 0.135546 -0.317111
vn 0.985748 0.100857 -0.134645
vn 0.985748 0.100857 -0.134645
vn 0.985748 0.100857 -0.134645
vn 0.985748 0.100857 -0.134645
vn 0.860593 -0.087674 0.501689
vn 0.860593 -0.087674 0.501689
vn 0.860593 -0.087674 0.501689
vn 0.860593 -0.087674 0.501689
vn -0.687675 0.198219 -0.698435
vn -0.687675 0.198219 -0.698435
vn -0.687675 0.198219 -0.698435
vn -0.687675 0.198219 -0.698435
vn -0.840643 0.535523 -0.080837
vn -0.840643 0.535523 -0.080837
vn -0.840643 0.535523 -0.080837
vn -0.840643 0.535523 -0.080837
vn 0.000151 0.999974 -0.007238
vn 0.000199 0.999991 -0.004293
vn -0.000019 0.999992 -0.003909
vn 0.000017 0.999999 -0.001344
vn 0.000193 0.999992 -0.004094
vn 0.000151 0.999990 -0.004492
vn -0.000000 1.000000 0.000000
vn 0.000193 0.999992 -0.004094
vn 0.000017 0.999999 -0.001344
vn 0.000000 1.000000 0.000000
vn 0.006393 0.664772 -0.747019
vn -0.010993 0.655158 -0.755412
vn -0.032521 0.642827 -0.765321
vn -0.032521 0.642827 -0.765321
vn -0.000001 -1.000000 -0.000322
vn 0.000029 -1.000000 -0.000842
vn 0.000000 -1.000000 0.000000
vn 0.000000 -1.000000 0.000000
vn 0.000060 -0.993300 -0.115561
vn 0.000029 -1.000000 -0.000842
vn -0.000001 -1.000000 -0.000322
vn 0.000000 1.000000 0.000000
vn 0.000000 1.000000 0.000000
vn 0.000000 1.000000 0.000000
vn 0.000000 0.987629 0.156811
vn -0.000000 -0.999185 0.040371
vn 0.000000 -0.995766 0.091928
vn 0.000000 -1.000000 0.000000
vn -0.000000 -1.000000 0.000000
vn 0.000000 -0.996148 0.087690
vn 0.000000 -1.000000 -0.000000
vn 0.000000 -1.000000 -0.000000
vn 0.000000 -0.995766 0.091928
vn 0.000000 -1.000000 -0.000000
vn 0.000000 -1.000000 -0.000000
vn 0.000000 -1.000000 -0.000000
vn 0.000000 -1.000000 -0.000000
vn -0.000000 -0.999185 0.040371
vn -0.000000 -1.000000 0.000000
vn -0.000000 -1.000000 -0.000000
vn -0.000000 -1.000000 -0.000000
vn 0.000000 0.948258 0.317501
vn 0.000000 1.000000 0.000000
vn 0.000000 1.000000 0.000000
vn 0.000000 1.000000 0.000000
vn 0.000000 0.943760 0.330631
vn -0.000000 1.000000 0.000000
vn -0.000000 1.000000 0.000000
vn 0.000000 -0.995766 0.091928
vn 0.000000 -1.000000 -0.000000
vn -0.000000 -1.000000 -0.000000
vn 0.000000 0.987629 0.156811
vn 0.000000 0.943760 0.330631
vn 0.000000 0.890189 0.455592
vn 0.000000 -0.990339 0.138667
vn 0.000000 -0.990339 0.138667
vn 0.000000 -0.996148 0.087690
vn 0.000000 -0.995766 0.091928
vn 0.000000 -1.000000 0.000000
vn 0.000000 -1.000000 -0.000000
vn 0.000000 -0.996148 0.087690
vn 0.000000 -1.000000 0.000000
vn 0.000000 1.000000 0.000000
vn 0.000000 1.000000 0.000000
vn -0.000000 1.000000 0.000000
vn -0.000000 1.000000 0.000000
vn -0.011877 0.358802 0.933338
vn -0.011877 0.358802 0.933338
vn -0.011877 0.358802 0.933338
vn -0.011877 0.358802 0.933338
vn 0.000000 1.000000 0.000000
vn 0.000000 1.000000 0.000000
vn 0.000000 1.000000 0.000000
vn 0.000000 1.000000 0.000000
vn -0.000000 1.000000 0.000000
vn -0.000000 1.000000 0.000000
vn -0.000000 1.000000 0.000000
vn -0.000000 1.000000 0.000000
vn 0.012372 0.556456 0.830785
vn 0.012372 0.556456 0.830785
vn -0.002179 0.545977 0.837797
vn 0.000990 0.548277 0.836296
vn -0.000000 -1.000000 -0.000000
vn -0.000000 -1.000000 -0.000000
vn 0.000000 -1.000000 -0.000000
vn 0.000000 -1.000000 -0.000000
vn 0.000000 -1.000000 -0.000000
vn -0.000000 -1.000000 0.000000
vn 0.000000 -1.000000 0.000000
vn 0.000000 -1.000000 -0.000000
vn 0.880079 0.474155 -0.025259
vn 0.880079 0.474155 -0.025259
vn 0.880079 0.474155 -0.025259
vn 0.880079 0.474155 -0.025259
vn -0.930713 0.144664 0.335925
vn -0.930713 0.144664 0.335925
vn -0.930713 0.144663 0.335925
vn -0.930713 0.144663 0.335925
vn 0.987865 0.051979 0.146359
vn 0.987865 0.051979 0.146359
vn 0.987865 0.051979 0.146359
vn 0.987865 0.051979 0.146359
vn -0.898134 0.404616 0.172167
vn -0.898134 0.404616 0.172167
vn -0.898134 0.404616 0.172167
vn -0.898134 0.404616 0.172167
vn -0.870945 0.409914 -0.270971
vn -0.870945 0.409914 -0.270971
vn -0.870945 0.409914 -0.270971
vn -0.870945 0.409914 -0.270971
vn -0.892443 0.144913 0.427253
vn -0.892443 0.144913 0.427253
vn -0.892443 0.144913 0.427253
vn -0.892443 0.144913 0.427253
vn 0.965229 0.254546 0.059497
vn 0.965229 0.254546 0.059497
vn 0.965229 0.254546 0.059497
vn 0.965229 0.254546 0.059497
vn 0.818635 0.498848 0.284583
vn 0.818635 0.498848 0.284583
vn 0.818635 0.498848 0.284583
vn 0.818635 0.498848 0.284583
vn 0.000000 1.000000 0.000000
vn 0.000000 1.000000 0.000000
vn 0.000000 1.000000 0.000000
vn 0.000000 1.000000 0.000000
vn 0.000000 -1.000000 0.000000
vn 0.000000 -1.000000 0.000000
vn 0.000000 -1.000000 0.000000
vn 0.000000 -1.000000 0.000000
vn 1.000000 0.000000 0.000000
vn 1.000000 0.000000 0.000000
vn 1.000000 0.000000 0.000000
vn 1.000000 0.000000 0.000000
vn -1.000000 0.000000 0.000000
vn -1.000000 0.000000 0.000000
vn -1.000000 0.000000 0.000000
vn -1.000000 0.000000 0.000000
vn 0.000000 -1.000000 0.000000
vn 0.000000 -1.000000 0.000000
vn 0.000000 -1.000000 0.000000
vn 0.000000 -1.000000 0.000000
vn 1.000000 0.000001 0.000000
vn 1.000000 0.000000 0.000000
vn 1.000000 0.000000 0.000000
vn 1.000000 0.000001 0.000000
vn 0.000000 1.000000 0.000000
vn 0.000000 1.000000 0.000000
vn 0.000000 1.000000 0.000000
vn 0.000000 1.000000 0.000000
vn -1.000000 0.000001 0.000000
vn -1.000000 0.000000 0.000000
vn -1.000000 0.000000 0.000000
vn -1.000000 0.000001 0.000000
vn 0.000000 1.000000 0.000000
vn 0.000000 1.000000 0.000000
vn 0.000000 1.000000 0.000000
vn 0.000000 1.000000 0.000000
vn -0.000000 -1.000000 0.000000
vn -0.000000 -1.000000 0.000000
vn -0.000000 -1.000000 0.000000
vn -0.000000 -1.000000 0.000000
vn 1.000000 0.000001 0.000000
vn 1.000000 0.000001 0.000000
vn 1.000000 0.000002 0.000000
vn 1.000000 0.000002 0.000000
vn -1.000000 0.000002 0.000000
vn -1.000000 0.000001 0.000000
vn -1.000000 0.000001 0.000000
vn -1.000000 0.000002 0.000000
vn 0.000000 -1.000000 0.000000
vn 0.000000 -1.000000 0.000000
vn -0.000000 -1.000000 0.000000
vn -0.000000 -1.000000 0.000000
vn -1.000000 0.000001 0.000000
vn -1.000000 0.000001 0.000000
vn -1.000000 0.000000 0.000000
vn -1.000000 0.000000 0.000000
vn 0.000000 1.000000 0.000000
vn 0.000000 1.000000 0.000000
vn 0.000000 1.000000 0.000000
vn 0.000000 1.000000 0.000000
vn 1.000000 0.000000 0.000000
vn 1.000000 0.000000 0.000000
vn 1.000000 0.000001 0.000000
vn 1.000000 0.000001 0.000000
s off
f 1/52/1 66/58/2 67/61/3 3/1/4
f 9/3/5 25/65/6 14/55/7 10/2/8
f 14/55/9 15/4/10 11/5/11 10/2/12
f 12/6/13 26/7/14 16/50/15
f 9/3/16 12/6/17 16/50/18 13/64/19
f 13/64/20 60/73/21 75/68/22 25/65/23
f 2/54/24 15/4/25 14/55/26 4/57/27
f 13/64/28 16/50/29 1/52/30 3/1/31
f 21/39/32 52/15/33 17/14/34
f 19/10/35 18/12/36 22/27/37 23/36/38
f 24/20/39 21/39/40 17/14/41 20/8/42
f 23/36/43 22/27/44 8/32/45 6/30/46
f 7/18/47 21/39/48 24/20/49 5/16/50
f 25/65/51 61/75/52 59/56/53 14/55/54
f 62/78/55 63/79/56 69/59/57 71/63/58
f 72/60/59 70/62/60 2/54/61 4/57/62
f 17/14/63 52/15/64 51/13/65 18/12/66
f 20/8/67 39/9/68 24/20/69
f 20/8/70 19/10/71 46/11/72 39/9/73
f 18/12/74 51/13/75 22/27/76
f 46/11/77 19/10/78 23/36/79
f 5/16/80 34/21/81 35/17/82 7/18/83
f 7/18/84 35/17/85 37/19/86 21/39/87
f 24/20/88 40/33/89 34/21/90 5/16/91
f 36/24/92 33/22/93 27/41/94 30/23/95
f 30/23/96 32/45/97 38/38/98 36/24/99
f 29/44/100 28/25/101 54/47/102 55/48/103
f 22/27/104 44/37/105 42/28/106 8/32/107
f 49/31/108 47/29/109 23/36/110 6/30/111
f 42/28/112 49/31/113 6/30/114 8/32/115
f 24/20/116 39/9/117 40/33/118
f 46/11/119 53/46/120 31/35/121 39/9/122
f 23/36/123 47/29/124 46/11/125
f 51/13/126 44/37/127 22/27/128
f 52/15/129 38/38/130 32/45/131
f 21/39/132 37/19/133 52/15/134
f 33/22/135 41/40/136 31/35/137 27/41/138
f 28/25/139 31/35/140 53/46/141 54/47/142
f 55/48/143 56/49/144 32/45/145 29/44/146
f 52/15/147 32/45/148 56/49/149 51/13/150
f 42/28/151 44/37/152 47/29/153 49/31/154
f 44/37/155 51/13/156 46/11/157 47/29/158
f 51/13/159 45/43/160 48/34/161 46/11/162
f 45/43/163 43/26/164 50/42/165 48/34/166
f 27/41/167 31/35/168 32/45/169 30/23/170
f 31/35/171 28/25/172 29/44/173 32/45/174
f 34/21/175 40/33/176 37/19/177 35/17/178
f 40/33/179 39/9/180 52/15/181 37/19/182
f 39/9/183 41/40/184 38/38/185 52/15/186
f 41/40/187 33/22/188 36/24/189 38/38/190
f 39/9/191 31/35/192 41/40/193
f 48/34/194 53/46/195 46/11/196
f 54/47/197 53/46/198 48/34/199 50/42/200
f 55/48/201 54/47/202 50/42/203 43/26/204
f 45/43/205 56/49/206 55/48/207 43/26/208
f 51/13/209 56/49/210 45/43/211
f 3/1/212 67/61/213 60/73/214 13/64/215
f 16/50/216 26/7/217 79/69/218 58/51/219
f 15/4/220 57/53/221 64/66/222 26/7/223
f 63/79/224 64/66/225 57/53/226 69/59/227
f 16/50/228 58/51/229 66/58/230 1/52/231
f 14/55/232 59/56/233 72/60/234 4/57/235
f 25/65/236 76/67/237 61/75/238
f 26/7/239 64/66/240 80/70/241
f 13/64/242 25/65/243 9/3/244
f 12/6/245 11/5/246 15/4/247 26/7/248
f 70/62/249 57/53/250 15/4/251 2/54/252
f 71/63/253 59/56/254 61/75/255 62/78/256
f 68/74/257 65/71/258 78/80/259 74/72/260
f 60/73/261 68/74/262 74/72/263 75/68/264
f 62/78/265 61/75/266 76/67/267 73/76/268
f 73/76/269 77/77/270 63/79/271 62/78/272
f 77/77/273 80/70/274 64/66/275 63/79/276
f 65/71/277 58/51/278 79/69/279 78/80/280
f 69/59/281 57/53/282 59/56/283 71/63/284
f 57/53/285 70/62/286 72/60/287 59/56/288
f 66/58/289 58/51/290 60/73/291 67/61/292
f 58/51/293 65/71/294 68/74/295 60/73/296
f 73/76/297 76/67/298 80/70/299 77/77/300
f 76/67/301 25/65/302 26/7/303 80/70/304
f 25/65/305 75/68/306 79/69/307 26/7/308
f 75/68/309 74/72/310 78/80/311 79/69/312
f 9/81/313 10/82/314 85/83/315 88/84/316
f 11/85/317 12/86/318 87/87/319 86/88/320
f 10/82/321 11/85/322 86/88/323 85/83/324
f 12/86/325 9/81/326 88/84/327 87/87/328
f 86/89/329 87/90/330 81/91/331 82/92/332
f 83/93/333 85/94/334 86/89/335 82/92/336
f 84/95/337 88/96/338 85/94/339 83/93/340
f 81/91/341 87/90/342 88/96/343 84/95/344
f 91/97/345 92/98/346 19/99/347 20/100/348
f 89/101/349 90/102/350 17/103/351 18/104/352
f 92/98/353 89/101/354 18/104/355 19/99/356
f 17/103/357 90/102/358 91/97/359 20/100/360
f 82/105/361 81/106/362 90/107/363 89/108/364
f 91/109/365 90/107/366 81/106/367 84/110/368
f 84/110/369 83/111/370 92/112/371 91/109/372
f 83/111/373 82/105/374 89/108/375 92/112/376
