# This file uses centimeters as units for non-parametric coordinates.

v 7.216690 -42.025223 -2.210785
v 7.216682 -42.025223 2.210777
v -0.000000 -45.691940 5.282761
v 0.000000 -45.691940 -5.282761
v -0.000000 31.842251 5.282761
v 0.000000 31.842255 -5.282761
v 7.216690 28.078384 2.210785
v 7.216690 28.078384 -2.210785
v 0.000000 31.842251 -5.282761
v 7.216690 18.909389 8.354736
v 7.216690 18.909389 -8.354736
v 7.216682 -32.661961 8.354744
v 7.216690 -32.661953 -8.354736
v 7.216690 10.244089 -20.562592
v 7.216688 10.244094 20.562592
v 0.000000 10.598097 23.109161
v -0.000002 10.598097 -23.109177
v 7.216686 4.823997 22.878292
v 7.216690 4.823997 -22.878296
v 0.000000 -27.423386 19.009705
v 7.216682 -23.171013 16.914879
v 7.216690 -23.171009 -16.914886
v 0.000000 -27.423386 -19.009689
v 7.216690 -9.568243 -22.878296
v 7.216686 -9.568244 22.878292
v 0.000000 -11.889434 23.109161
v -0.000002 -11.889434 -23.109177
v 7.216690 -27.494741 3.191101
v 7.216690 -27.494741 -3.191101
v 9.697304 -27.494741 3.191109
v 9.697304 -27.494741 -3.191109
v 9.697304 16.163935 3.191109
v 9.697304 16.163935 -3.191109
v 7.216690 16.163935 3.191101
v 7.216690 16.163935 -3.191101
v 8.481783 8.854692 1.469210
v 8.481782 8.854692 -1.469206
v 109.966675 -22.506477 1.469215
v 109.966660 -22.506477 -1.469200
v 117.490784 -21.756081 1.469215
v 117.490768 -21.756081 -1.469200
v 9.349342 11.662122 1.469215
v 9.349341 11.662122 -1.469215
v 6.416389 -22.903990 2.860115
v 114.464218 -22.989197 2.860107
v 124.284531 -20.022640 2.849739
v 129.203888 -15.020688 2.812515
v 127.713608 -8.003841 2.782349
v 121.087265 -8.023128 2.805183
v 118.143692 -15.275814 2.513557
v 6.416397 -19.973083 0.000000
v 114.160461 -20.007259 -0.000008
v 122.870361 -17.311703 0.000015
v 126.071655 -14.059018 0.000015
v 125.554596 -10.637142 -0.000008
v 122.805405 -10.854670 0.000008
v 120.634628 -16.052425 0.000000
v 6.416389 -25.546078 0.000008
v 114.668900 -25.700375 0.000000
v 125.284882 -22.438658 0.000015
v 131.445801 -15.979918 0.000015
v 129.243729 -6.252619 0.000000
v 120.075363 -5.839292 0.000008
v 115.783783 -14.389830 0.000015
v 6.416389 -22.903990 -2.860100
v 114.464218 -22.989197 -2.860107
v 124.284531 -20.022640 -2.849724
v 129.203888 -15.020688 -2.812485
v 127.713623 -8.003839 -2.782356
v 121.087265 -8.023128 -2.805168
v 118.143677 -15.275815 -2.513535
vt 0.081614 0.233466
vt 0.080875 0.233427
vt 0.080883 0.233289
vt 0.081622 0.233326
vt 0.081605 0.233023
vt 0.080897 0.233019
vt 0.080892 0.233094
vt 0.081595 0.233128
vt 0.080877 0.233392
vt 0.081597 0.233163
vt 0.081608 0.233084
vt 0.080890 0.233128
vt 0.081612 0.233430
vt 0.081598 0.233185
vt 0.080889 0.233150
vt 0.080944 0.233084
vt 0.081561 0.233113
vt 0.080886 0.233212
vt 0.081602 0.233248
vt 0.080935 0.233211
vt 0.080879 0.233352
vt 0.081610 0.233390
vt 0.081569 0.233240
vt 0.081602 0.233261
vt 0.080885 0.233225
vt 0.080938 0.233164
vt 0.081566 0.233193
vt 0.081340 0.255278
vt 0.081261 0.255242
vt 0.081212 0.255245
vt 0.081290 0.255281
vt 0.081271 0.254281
vt 0.081354 0.254285
vt 0.081322 0.254281
vt 0.081406 0.254285
vt 0.081406 0.254953
vt 0.081391 0.254951
vt 0.080483 0.255274
vt 0.080484 0.255281
vt 0.080406 0.255278
vt 0.080407 0.255271
vt 0.081386 0.254926
vt 0.081401 0.254928
vt 0.080097 0.252317
vt 0.080073 0.252339
vt 0.080063 0.252353
vt 0.080086 0.252331
vt 0.079927 0.252361
vt 0.079901 0.252342
vt 0.080005 0.252287
vt 0.080024 0.252311
vt 0.080104 0.252269
vt 0.080111 0.252296
vt 0.080170 0.252292
vt 0.080154 0.252311
vt 0.080189 0.252363
vt 0.080165 0.252344
vt 0.080131 0.252392
vt 0.080140 0.252354
vt 0.079892 0.252318
vt 0.080002 0.252258
vt 0.080109 0.252239
vt 0.080192 0.252269
vt 0.080217 0.252367
vt 0.080138 0.252411
vt 0.079918 0.252333
vt 0.080021 0.252279
vt 0.080118 0.252261
vt 0.080183 0.252284
vt 0.080202 0.252353
vt 0.080144 0.252382
vn 0.452974 -0.891524 0.000000
vn 0.452974 -0.891524 0.000000
vn 0.452974 -0.891524 0.000000
vn 0.452974 -0.891524 0.000000
vn 0.462434 0.886654 0.000000
vn 0.462434 0.886654 0.000000
vn 0.462434 0.886654 0.000000
vn 0.462434 0.886654 0.000000
vn 0.535841 -0.463205 0.705915
vn 0.535841 -0.463205 0.705915
vn 0.535841 -0.463205 0.705915
vn 0.541410 0.468018 -0.698452
vn 0.541410 0.468018 -0.698452
vn 0.541410 0.468018 -0.698452
vn 0.541410 0.468018 -0.698452
vn 1.000000 -0.000000 0.000000
vn 1.000000 -0.000000 0.000000
vn 1.000000 -0.000000 0.000000
vn 1.000000 -0.000000 0.000000
vn 0.000000 0.000000 0.000000
vn 0.000000 0.000000 0.000000
vn 0.000000 0.000000 0.000000
vn 0.541410 0.468018 0.698452
vn 0.541410 0.468018 0.698452
vn 0.541410 0.468018 0.698452
vn 0.325096 0.371545 -0.869636
vn 0.325096 0.371545 -0.869636
vn 0.325096 0.371545 -0.869636
vn 1.000000 0.000000 0.000000
vn 1.000000 0.000000 0.000000
vn 1.000000 0.000000 0.000000
vn 1.000000 0.000000 0.000000
vn 0.325096 0.371545 0.869636
vn 0.325096 0.371545 0.869636
vn 0.325096 0.371545 0.869636
vn 1.000000 0.000000 0.000001
vn 1.000000 0.000000 0.000001
vn 1.000000 0.000000 0.000001
vn 1.000000 0.000000 0.000001
vn 0.535841 -0.463205 -0.705915
vn 0.535841 -0.463205 -0.705915
vn 0.535841 -0.463205 -0.705915
vn 1.000000 -0.000000 0.000000
vn 1.000000 -0.000000 0.000000
vn 1.000000 -0.000000 0.000000
vn 1.000000 -0.000000 0.000000
vn 0.237275 0.792168 0.562291
vn 0.237275 0.792168 0.562291
vn 0.237275 0.792168 0.562291
vn -1.000000 0.000000 -0.000000
vn -1.000000 0.000000 -0.000000
vn -1.000000 0.000000 -0.000000
vn -1.000000 0.000000 -0.000000
vn 0.636776 0.495628 -0.590651
vn 0.636776 0.495628 -0.590651
vn 0.636776 0.495628 -0.590651
vn 0.448953 -0.358769 0.818368
vn 0.448953 -0.358769 0.818368
vn 0.448953 -0.358769 0.818368
vn 1.000000 -0.000000 0.000000
vn 1.000000 -0.000000 0.000000
vn 1.000000 -0.000000 0.000000
vn 1.000000 -0.000000 0.000000
vn 0.448953 -0.358769 -0.818368
vn 0.448953 -0.358769 -0.818368
vn 0.448953 -0.358769 -0.818368
vn 0.597069 -0.481887 0.641321
vn 0.597069 -0.481887 0.641321
vn 0.597069 -0.481887 0.641321
vn 1.000000 -0.000000 0.000000
vn 1.000000 -0.000000 0.000000
vn 1.000000 -0.000000 0.000000
vn 1.000000 -0.000000 0.000000
vn 0.520884 -0.571722 -0.633888
vn 0.520884 -0.571722 -0.633888
vn 0.520884 -0.571722 -0.633888
vn -1.000000 0.000000 -0.000000
vn -1.000000 0.000000 -0.000000
vn -1.000000 0.000000 -0.000000
vn -1.000000 0.000000 -0.000000
vn 1.000000 -0.000000 0.000000
vn 1.000000 -0.000000 0.000000
vn 1.000000 -0.000000 0.000000
vn 1.000000 -0.000000 0.000000
vn 0.112291 -0.253554 0.960782
vn 0.112291 -0.253554 0.960782
vn 0.112291 -0.253554 0.960782
vn -1.000000 0.000000 -0.000000
vn -1.000000 0.000000 -0.000000
vn -1.000000 0.000000 -0.000000
vn -1.000000 0.000000 -0.000000
vn 0.112291 -0.253554 -0.960782
vn 0.112291 -0.253554 -0.960782
vn 0.112291 -0.253554 -0.960782
vn 0.237276 0.792167 -0.562291
vn 0.237276 0.792167 -0.562291
vn 0.237276 0.792167 -0.562291
vn 0.636776 0.495628 0.590651
vn 0.636776 0.495628 0.590651
vn 0.636776 0.495628 0.590651
vn 0.520884 -0.571722 0.633888
vn 0.520884 -0.571722 0.633888
vn 0.520884 -0.571722 0.633888
vn 0.597069 -0.481887 -0.641322
vn 0.597069 -0.481887 -0.641322
vn 0.597069 -0.481887 -0.641322
vn 0.031976 0.000000 0.999489
vn 0.031976 0.000000 0.999489
vn 0.031976 0.000000 0.999489
vn 0.031976 0.000000 0.999489
vn -1.000000 0.000000 -0.000000
vn -1.000000 0.000000 -0.000000
vn -1.000000 0.000000 -0.000000
vn -1.000000 0.000000 -0.000000
vn 0.031976 0.000000 -0.999489
vn 0.031976 0.000000 -0.999489
vn 0.031976 0.000000 -0.999489
vn 0.031976 0.000000 -0.999489
vn 0.000000 -1.000000 0.000000
vn 0.000000 -1.000000 0.000000
vn 0.000000 -1.000000 0.000000
vn 0.000000 -1.000000 0.000000
vn 1.000000 0.000000 0.000000
vn 1.000000 0.000000 0.000000
vn 1.000000 0.000000 0.000000
vn 1.000000 0.000000 0.000000
vn 0.000000 1.000000 0.000000
vn 0.000000 1.000000 0.000000
vn 0.000000 1.000000 0.000000
vn 0.000000 1.000000 0.000000
vn -0.000003 0.000000 -1.000000
vn -0.000003 0.000000 -1.000000
vn -0.000003 0.000000 -1.000000
vn -0.000003 0.000000 -1.000000
vn -0.000003 0.000000 1.000000
vn -0.000003 0.000000 1.000000
vn -0.000003 0.000000 1.000000
vn -0.000003 0.000000 1.000000
vn -0.295247 -0.955421 0.000001
vn -0.295247 -0.955421 0.000001
vn -0.295247 -0.955421 0.000001
vn -0.295247 -0.955421 0.000001
vn 0.295247 0.955421 -0.000001
vn 0.295247 0.955421 -0.000001
vn 0.295247 0.955421 -0.000001
vn 0.295247 0.955421 -0.000001
vn -0.000000 -0.000002 -1.000000
vn -0.000000 -0.000002 -1.000000
vn -0.000000 -0.000002 -1.000000
vn -0.000000 -0.000002 -1.000000
vn -0.000000 -0.000001 1.000000
vn -0.000000 -0.000001 1.000000
vn -0.000000 -0.000001 1.000000
vn -0.000000 -0.000001 1.000000
vn -0.324228 -0.945979 -0.000000
vn -0.324228 -0.945979 -0.000000
vn -0.324228 -0.945979 -0.000000
vn -0.324228 -0.945979 -0.000000
vn 0.003462 0.695202 0.718807
vn 0.003462 0.695202 0.718807
vn 0.003462 0.695202 0.718807
vn 0.003462 0.695202 0.718807
vn -0.202028 0.662493 0.721309
vn -0.202028 0.662493 0.721309
vn -0.202028 0.662493 0.721309
vn -0.202028 0.662493 0.721309
vn -0.495717 0.490902 0.716435
vn -0.495717 0.490902 0.716435
vn -0.495717 0.490902 0.716435
vn -0.495717 0.490902 0.716435
vn -0.700050 -0.132591 0.701677
vn -0.700050 -0.132591 0.701677
vn -0.700050 -0.132591 0.701677
vn -0.700050 -0.132591 0.701677
vn 0.019774 -0.715550 0.698282
vn 0.019774 -0.715550 0.698282
vn 0.019774 -0.715550 0.698282
vn 0.019774 -0.715550 0.698282
vn 0.649221 -0.283219 0.705903
vn 0.649221 -0.283219 0.705903
vn 0.649221 -0.283219 0.705903
vn 0.649221 -0.283219 0.705903
vn -0.006788 -0.729863 0.683560
vn -0.006788 -0.729863 0.683560
vn -0.006788 -0.729863 0.683560
vn -0.006788 -0.729863 0.683560
vn 0.214810 -0.703710 0.677236
vn 0.214810 -0.703710 0.677236
vn 0.214810 -0.703710 0.677236
vn 0.214810 -0.703710 0.677236
vn 0.555346 -0.534843 0.636815
vn 0.555346 -0.534843 0.636815
vn 0.555346 -0.534843 0.636815
vn 0.555346 -0.534843 0.636815
vn 0.803985 0.178313 0.567286
vn 0.803985 0.178313 0.567286
vn 0.803985 0.178313 0.567286
vn 0.803985 0.178313 0.567286
vn 0.021203 0.816482 0.576981
vn 0.021203 0.816482 0.576981
vn 0.021203 0.816482 0.576981
vn 0.021203 0.816482 0.576981
vn -0.709826 0.313337 0.630846
vn -0.709826 0.313337 0.630846
vn -0.709826 0.313337 0.630846
vn -0.709826 0.313337 0.630846
vn -0.006788 -0.729863 -0.683560
vn -0.006788 -0.729863 -0.683560
vn -0.006788 -0.729863 -0.683560
vn -0.006788 -0.729863 -0.683560
vn 0.214810 -0.703710 -0.677236
vn 0.214810 -0.703710 -0.677236
vn 0.214810 -0.703710 -0.677236
vn 0.214810 -0.703710 -0.677236
vn 0.555346 -0.534843 -0.636816
vn 0.555346 -0.534843 -0.636816
vn 0.555346 -0.534843 -0.636816
vn 0.555346 -0.534843 -0.636816
vn 0.803988 0.178312 -0.567282
vn 0.803988 0.178312 -0.567282
vn 0.803988 0.178312 -0.567282
vn 0.803988 0.178312 -0.567282
vn 0.021203 0.816482 -0.576982
vn 0.021203 0.816482 -0.576982
vn 0.021203 0.816482 -0.576982
vn 0.021203 0.816482 -0.576982
vn -0.709827 0.313338 -0.630845
vn -0.709827 0.313338 -0.630845
vn -0.709827 0.313338 -0.630845
vn -0.709827 0.313338 -0.630845
vn 0.003462 0.695202 -0.718806
vn 0.003462 0.695202 -0.718806
vn 0.003462 0.695202 -0.718806
vn 0.003462 0.695202 -0.718806
vn -0.202028 0.662494 -0.721309
vn -0.202028 0.662494 -0.721309
vn -0.202028 0.662494 -0.721309
vn -0.202028 0.662494 -0.721309
vn -0.495717 0.490902 -0.716435
vn -0.495717 0.490902 -0.716435
vn -0.495717 0.490902 -0.716435
vn -0.495717 0.490902 -0.716435
vn -0.700048 -0.132589 -0.701679
vn -0.700048 -0.132589 -0.701679
vn -0.700048 -0.132589 -0.701679
vn -0.700048 -0.132589 -0.701679
vn 0.019774 -0.715552 -0.698280
vn 0.019774 -0.715552 -0.698280
vn 0.019774 -0.715552 -0.698280
vn 0.019774 -0.715552 -0.698280
vn 0.649220 -0.283220 -0.705904
vn 0.649220 -0.283220 -0.705904
vn 0.649220 -0.283220 -0.705904
vn 0.649220 -0.283220 -0.705904
s off
f 1/1/1 2/2/2 3/3/3 4/4/4
f 6/5/5 5/6/6 7/7/7 8/8/8
f 2/2/9 12/9/10 3/3/11
f 8/8/12 11/10/13 9/11/14 6/5/15
f 14/14/16 15/15/17 18/18/18 19/19/19
f 9/11/20 5/6/21 6/5/22
f 5/6/23 10/12/24 7/7/25
f 17/17/26 14/14/27 19/19/28
f 8/8/29 7/7/30 10/12/31 11/10/32
f 16/16/33 18/18/34 15/15/35
f 2/2/36 1/1/37 13/13/38 12/9/39
f 4/4/40 13/13/41 1/1/42
f 10/12/43 15/15/44 14/14/45 11/10/46
f 16/16/47 15/15/48 10/12/49
f 17/17/50 16/16/51 5/6/52 9/11/53
f 9/11/54 11/10/55 17/17/56
f 20/20/57 21/21/58 25/25/59
f 24/24/60 25/25/61 21/21/62 22/22/63
f 23/23/64 24/24/65 22/22/66
f 3/3/67 12/9/68 20/20/69
f 22/22/70 21/21/71 12/9/72 13/13/73
f 23/23/74 22/22/75 13/13/76
f 4/4/77 3/3/78 20/20/79 23/23/80
f 19/19/81 18/18/82 25/25/83 24/24/84
f 20/20/85 25/25/86 26/26/87
f 23/23/88 20/20/89 26/26/90 27/27/91
f 27/27/92 24/24/93 23/23/94
f 17/17/95 11/10/96 14/14/97
f 16/16/98 10/12/99 5/6/100
f 20/20/101 12/9/102 21/21/103
f 23/23/104 13/13/105 4/4/106
f 26/26/107 25/25/108 18/18/109 16/16/110
f 27/27/111 26/26/112 16/16/113 17/17/114
f 17/17/115 19/19/116 24/24/117 27/27/118
f 28/28/119 29/29/120 31/30/121 30/31/122
f 30/31/123 31/30/124 33/32/125 32/33/126
f 32/33/127 33/32/128 35/34/129 34/35/130
f 29/29/131 35/34/132 33/32/133 31/30/134
f 34/35/135 28/28/136 30/31/137 32/33/138
f 36/36/139 37/37/140 39/38/141 38/39/142
f 40/40/143 41/41/144 43/42/145 42/43/146
f 37/37/147 43/42/148 41/41/149 39/38/150
f 42/43/151 36/36/152 38/39/153 40/40/154
f 57/44/155 50/45/156 64/46/157 71/47/158
f 51/48/159 44/49/160 45/50/161 52/51/162
f 52/51/163 45/50/164 46/52/165 53/53/166
f 53/53/167 46/52/168 47/54/169 54/55/170
f 54/55/171 47/54/172 48/56/173 55/57/174
f 55/57/175 48/56/176 49/58/177 56/59/178
f 56/59/179 49/58/180 50/45/181 57/44/182
f 44/49/183 58/60/184 59/61/185 45/50/186
f 45/50/187 59/61/188 60/62/189 46/52/190
f 47/54/191 46/52/192 60/62/193 61/63/194
f 48/56/195 47/54/196 61/63/197 62/64/198
f 49/58/199 48/56/200 62/64/201 63/65/202
f 49/58/203 63/65/204 64/46/205 50/45/206
f 58/60/207 65/66/208 66/67/209 59/61/210
f 59/61/211 66/67/212 67/68/213 60/62/214
f 61/63/215 60/62/216 67/68/217 68/69/218
f 62/64/219 61/63/220 68/69/221 69/70/222
f 63/65/223 62/64/224 69/70/225 70/71/226
f 63/65/227 70/71/228 71/47/229 64/46/230
f 65/66/231 51/48/232 52/51/233 66/67/234
f 66/67/235 52/51/236 53/53/237 67/68/238
f 68/69/239 67/68/240 53/53/241 54/55/242
f 69/70/243 68/69/244 54/55/245 55/57/246
f 70/71/247 69/70/248 55/57/249 56/59/250
f 70/71/251 56/59/252 57/44/253 71/47/254
