# This file uses centimeters as units for non-parametric coordinates.

v -65.891472 53.581024 -24.752083
v -49.440189 53.580994 -34.966450
v -65.891472 53.581024 24.752085
v -73.115479 53.581032 0.000001
v -49.439857 53.580994 34.966408
v 66.382675 53.581108 0.000000
v 60.054489 53.581093 24.063795
v 60.054489 53.581093 -24.063795
v 40.988174 53.581032 -36.868187
v 40.988174 53.581032 36.868191
v -30.093662 53.580975 -35.922630
v 3.716599 53.580978 -34.048378
v 5.071196 53.580982 34.048138
v -30.091051 53.580971 35.922260
v -4.889955 53.581024 -0.000046
vt 0.308377 0.417064
vt 0.308294 0.417038
vt 0.308416 0.417241
vt 0.308439 0.417143
vt 0.308346 0.417304
vt 0.307709 0.417170
vt 0.307753 0.417263
vt 0.307755 0.417085
vt 0.307872 0.417055
vt 0.307881 0.417326
vt 0.308211 0.417054
vt 0.308044 0.417069
vt 0.308068 0.417317
vt 0.308252 0.417313
vt 0.308164 0.417134
vn -0.000002 1.000000 -0.000002
vn -0.000002 1.000000 -0.000002
vn -0.000002 1.000000 -0.000002
vn -0.000001 1.000000 -0.000000
vn -0.000001 1.000000 -0.000000
vn -0.000001 1.000000 -0.000000
vn -0.000001 1.000000 0.000000
vn -0.000001 1.000000 0.000000
vn -0.000001 1.000000 0.000000
vn -0.000002 1.000000 0.000002
vn -0.000002 1.000000 0.000002
vn -0.000002 1.000000 0.000002
vn -0.000002 1.000000 0.000002
vn -0.000002 1.000000 0.000002
vn -0.000002 1.000000 0.000002
vn -0.000000 1.000000 0.000001
vn -0.000000 1.000000 0.000001
vn -0.000000 1.000000 0.000001
vn 0.000001 1.000000 0.000003
vn 0.000001 1.000000 0.000003
vn 0.000001 1.000000 0.000003
vn 0.000001 1.000000 0.000002
vn 0.000001 1.000000 0.000002
vn 0.000001 1.000000 0.000002
vn 0.000000 1.000000 0.000000
vn 0.000000 1.000000 0.000000
vn 0.000000 1.000000 0.000000
vn 0.000000 1.000000 -0.000000
vn 0.000000 1.000000 -0.000000
vn 0.000000 1.000000 -0.000000
vn 0.000001 1.000000 -0.000002
vn 0.000001 1.000000 -0.000002
vn 0.000001 1.000000 -0.000002
vn 0.000001 1.000000 -0.000002
vn 0.000001 1.000000 -0.000002
vn 0.000001 1.000000 -0.000002
vn -0.000000 1.000000 -0.000002
vn -0.000000 1.000000 -0.000002
vn -0.000000 1.000000 -0.000002
vn -0.000002 1.000000 -0.000002
vn -0.000002 1.000000 -0.000002
vn -0.000002 1.000000 -0.000002
s off
f 9/9/1 15/15/2 8/8/3
f 8/8/4 15/15/5 6/6/6
f 6/6/7 15/15/8 7/7/9
f 7/7/10 15/15/11 10/10/12
f 10/10/13 15/15/14 13/13/15
f 13/13/16 15/15/17 14/14/18
f 14/14/19 15/15/20 5/5/21
f 5/5/22 15/15/23 3/3/24
f 3/3/25 15/15/26 4/4/27
f 4/4/28 15/15/29 1/1/30
f 1/1/31 15/15/32 2/2/33
f 2/2/34 15/15/35 11/11/36
f 11/11/37 15/15/38 12/12/39
f 12/12/40 15/15/41 9/9/42
