# This file uses centimeters as units for non-parametric coordinates.

v 39.668697 0.000000 -44.708687
v 49.712032 0.000000 -44.708687
v 39.668697 71.106873 -54.752022
v 49.712032 71.106873 -54.752022
v 39.668697 0.000000 -54.752022
v 46.882442 0.000000 -54.752022
v 49.712032 6.477221 -54.752022
v 49.712032 66.153534 -54.752022
v 49.712032 41.276043 -54.752022
v 46.185543 52.251240 -54.752022
v 49.712032 52.180241 -52.722481
v 39.668697 71.106873 -44.708687
v 49.712032 71.106873 -44.708687
v -40.244633 0.000000 -44.708687
v -50.287968 0.000000 -44.708687
v -50.287968 71.106873 -44.708687
v -40.244633 71.106873 -54.752022
v -40.244633 0.000000 -54.752022
v -50.287968 0.000000 -54.752022
v -40.244633 17.735796 -44.708687
v -40.244633 17.735798 -54.752022
v -50.287968 17.735796 -44.708687
v -50.287968 32.405586 -54.752022
v -50.287968 6.927922 -54.752022
v -46.772831 71.106873 -54.752022
v -50.287968 71.106873 -51.236885
v -50.287968 46.338184 -54.752022
v -40.244633 71.106873 -44.708687
v -50.287994 18.482145 -51.006771
v -47.570732 18.428783 -54.751976
v 39.668697 0.000000 54.642567
v 49.712032 0.000000 54.642567
v 49.712032 71.066765 44.599232
v 39.668697 0.000000 44.599232
v 49.712032 0.000000 44.599232
v 49.712032 5.465693 54.642567
v 49.712032 32.063736 54.642567
v 47.096432 11.984905 54.642567
v 49.712032 12.556822 51.965015
v 47.201168 71.066765 54.642567
v 49.712032 71.066765 52.131763
v 49.712032 66.233978 54.642567
v 39.668697 71.066757 54.642567
v 39.668697 71.066765 44.599232
v -40.407475 63.787682 -45.733223
v -40.407475 71.106873 -45.733223
v 39.831539 63.787682 -45.733223
v 39.831539 71.106873 -45.733223
v 39.831539 63.787682 -53.052437
v 39.831539 71.106873 -53.052437
v -40.407475 63.787682 -53.052437
v -40.407475 71.106873 -53.052437
v 48.523922 63.787678 44.743336
v 48.523922 71.106873 44.743336
v 48.523922 63.787678 -44.720257
v 48.523922 71.106873 -44.720257
v 41.204708 63.787678 -44.720257
v 41.204708 71.106873 -44.720257
v 41.204708 63.787678 44.743336
v 41.204708 71.106873 44.743336
v -41.809940 63.787678 44.743336
v -41.809940 71.106873 44.743336
v -41.809940 63.787678 -44.720257
v -41.809940 71.106873 -44.720257
v -49.129154 63.787678 -44.720257
v -49.129154 71.106873 -44.720257
v -49.129154 63.787678 44.743336
v -49.129154 71.106873 44.743336
v -40.244633 0.000000 54.642567
v -50.287968 0.000000 54.642567
v -40.244633 71.106873 54.642567
v -50.287968 71.106873 54.642567
v -40.244633 71.106873 44.599232
v -50.287968 71.106873 44.599232
v -40.244633 0.000000 44.599232
v -50.287968 0.000000 44.599232
v -50.287968 25.307056 54.642567
v -50.287968 41.762779 54.642567
v -46.972294 33.851887 54.642567
v -50.287968 34.880455 52.049622
v -40.407475 63.787682 53.265430
v -40.407475 71.106873 53.265430
v 39.831539 63.787682 53.265430
v 39.831539 71.106873 53.265430
v 39.831539 63.787682 45.946217
v 39.831539 71.106873 45.946217
v -40.407475 63.787682 45.946217
v -40.407475 71.106873 45.946217
v -53.211597 71.106880 57.398434
v 53.211597 71.106880 57.398434
v 53.211597 78.588768 57.398434
v -53.211597 78.588768 -57.398434
v -53.211597 71.106880 -57.398434
v 53.211597 71.106880 -57.398434
v 50.005665 78.588768 -57.398434
v 53.211597 78.588768 -28.045515
v 53.211597 76.210617 -57.398434
v -49.526653 78.588768 -13.626266
v 49.697433 78.588768 11.502271
v -53.211597 71.106880 11.123086
v 53.211597 71.106880 14.995644
v -50.005543 78.588768 57.398434
v -53.211597 77.466484 57.398434
v -53.010914 78.588768 31.240669
vt 0.446481 0.024506
vt 0.446390 0.024501
vt 0.446364 0.023555
vt 0.446464 0.023555
vt 0.446392 0.023509
vt 0.446488 0.023509
vt 0.446429 0.023685
vt 0.446503 0.024474
vt 0.446415 0.024469
vt 0.446379 0.023684
vt 0.446393 0.023553
vt 0.445682 0.037883
vt 0.445710 0.037879
vt 0.445703 0.037857
vt 0.446414 0.024409
vt 0.445706 0.037657
vt 0.445701 0.037706
vt 0.445715 0.037706
vt 0.445705 0.037742
vt 0.446398 0.023787
vt 0.446002 0.037669
vt 0.445997 0.037667
vt 0.446004 0.037763
vt 0.446397 0.024468
vt 0.446384 0.024501
vt 0.446478 0.024506
vt 0.446487 0.024474
vt 0.446493 0.023506
vt 0.446389 0.023848
vt 0.446405 0.023509
vt 0.446454 0.023509
vt 0.446498 0.023508
vt 0.446400 0.024302
vt 0.446385 0.024377
vt 0.446488 0.024409
vt 0.446448 0.024298
vt 0.446482 0.024328
vt 0.446486 0.024311
vt 0.446498 0.023840
vt 0.446492 0.024171
vt 0.445850 0.035109
vt 0.445535 0.034137
vt 0.446289 0.034109
vt 0.446503 0.024432
vt 0.446327 0.024419
vt 0.446269 0.024493
vt 0.446451 0.024506
vt 0.446425 0.023579
vt 0.446481 0.023540
vt 0.445071 0.037992
vt 0.445067 0.037999
vt 0.445062 0.038026
vt 0.445054 0.037907
vt 0.446276 0.024246
vt 0.446295 0.023506
vt 0.446328 0.023548
vt 0.446264 0.023525
vt 0.446310 0.024274
vt 0.446247 0.023903
vt 0.446239 0.023724
vt 0.446265 0.024392
vt 0.446467 0.024506
vt 0.445508 0.024472
vt 0.445503 0.024232
vt 0.446469 0.024262
vt 0.445566 0.024425
vt 0.445563 0.024190
vt 0.446501 0.024457
vt 0.446503 0.024219
vt 0.445520 0.024488
vt 0.446099 0.024081
vt 0.446088 0.023670
vt 0.445503 0.024026
vt 0.446503 0.024095
vt 0.446495 0.023682
vt 0.445975 0.024506
vt 0.445961 0.024042
vt 0.445689 0.024484
vt 0.446006 0.023990
vt 0.446011 0.023506
vt 0.445692 0.023938
vt 0.446496 0.024007
vt 0.446503 0.023522
vt 0.446243 0.024506
vt 0.446250 0.023958
vt 0.446281 0.024493
vt 0.446282 0.023546
vt 0.446411 0.023876
vt 0.446314 0.023506
vt 0.446503 0.023513
vt 0.446480 0.023553
vt 0.446311 0.024417
vt 0.446492 0.024430
vt 0.446469 0.024506
vt 0.446486 0.023843
vt 0.446477 0.023734
vt 0.445367 0.037943
vt 0.445384 0.037975
vt 0.445356 0.037982
vt 0.445369 0.038031
vt 0.446474 0.024037
vt 0.446467 0.024506
vt 0.445508 0.024472
vt 0.445503 0.024232
vt 0.446469 0.024262
vt 0.445566 0.024425
vt 0.445563 0.024190
vt 0.446501 0.024457
vt 0.446503 0.024219
vt 0.445685 0.037627
vt 0.445760 0.037626
vt 0.445769 0.037619
vt 0.445736 0.023511
vt 0.445051 0.023475
vt 0.445039 0.023696
vt 0.445745 0.023722
vt 0.445821 0.037650
vt 0.445476 0.037699
vt 0.445616 0.037648
vt 0.445822 0.037623
vt 0.445032 0.023825
vt 0.445074 0.023119
vt 0.445070 0.023195
vt 0.445793 0.022899
vt 0.445440 0.022882
vt 0.445751 0.023865
vt 0.445226 0.037697
vt 0.445139 0.037714
vt 0.445129 0.037707
vt 0.445069 0.023170
vt 0.445078 0.023030
vt 0.445804 0.023090
vt 0.445441 0.023214
vt 0.445808 0.023162
vt 0.445782 0.023549
vn 0.000000 0.000000 1.000000
vn 0.000000 0.000000 1.000000
vn 0.000000 0.000000 1.000000
vn 0.000000 0.000000 1.000000
vn 0.000000 1.000000 0.000000
vn 0.000000 1.000000 0.000000
vn 0.000000 1.000000 0.000000
vn 0.000000 1.000000 0.000000
vn 0.000000 0.000000 -1.000000
vn 0.000000 0.000000 -1.000000
vn 0.000000 0.000000 -1.000000
vn 0.000000 -1.000000 0.000000
vn 0.000000 -1.000000 0.000000
vn 0.000000 -1.000000 0.000000
vn 0.000000 -1.000000 0.000000
vn 1.000000 0.000000 0.000000
vn 1.000000 0.000000 0.000000
vn 1.000000 0.000000 0.000000
vn 1.000000 0.000000 0.000000
vn -1.000000 0.000000 0.000000
vn -1.000000 0.000000 0.000000
vn -1.000000 0.000000 0.000000
vn -1.000000 0.000000 0.000000
vn 0.887281 -0.387611 -0.249981
vn 0.887281 -0.387611 -0.249981
vn 0.887281 -0.387611 -0.249981
vn 0.000000 0.000000 -1.000000
vn 0.000000 0.000000 -1.000000
vn 0.000000 0.000000 -1.000000
vn 0.492995 -0.125055 -0.860998
vn 0.492995 -0.125055 -0.860998
vn 0.492995 -0.125055 -0.860998
vn 0.494863 0.159006 -0.854299
vn 0.494863 0.159006 -0.854299
vn 0.494863 0.159006 -0.854299
vn -0.000002 0.000000 -1.000000
vn -0.000002 0.000000 -1.000000
vn -0.000002 0.000000 -1.000000
vn -0.000002 0.000000 -1.000000
vn -0.000000 0.000000 -1.000000
vn -0.000000 0.000000 -1.000000
vn -0.000000 0.000000 -1.000000
vn -0.000000 0.000000 -1.000000
vn 1.000000 0.000000 0.000000
vn 1.000000 0.000000 0.000000
vn 1.000000 0.000000 0.000000
vn 1.000000 0.000000 0.000000
vn 1.000000 0.000000 0.000000
vn 1.000000 0.000000 0.000000
vn 1.000000 0.000000 0.000000
vn -0.703573 0.099850 -0.703573
vn -0.703573 0.099850 -0.703573
vn -0.703573 0.099850 -0.703573
vn 0.000000 -1.000000 0.000000
vn 0.000000 -1.000000 0.000000
vn 0.000000 -1.000000 0.000000
vn 0.000000 -1.000000 0.000000
vn 0.000000 1.000000 0.000000
vn 0.000000 1.000000 0.000000
vn 0.000000 1.000000 0.000000
vn 0.000000 1.000000 0.000000
vn 0.000000 1.000000 0.000000
vn 1.000000 0.000000 0.000000
vn 1.000000 0.000000 0.000000
vn 1.000000 0.000000 0.000000
vn 1.000000 0.000000 0.000000
vn -0.000002 0.000002 -1.000000
vn -0.000002 0.000002 -1.000000
vn -0.000002 0.000002 -1.000000
vn -0.000002 0.000002 -1.000000
vn -1.000000 -0.000001 0.000001
vn -1.000000 -0.000001 0.000001
vn -1.000000 -0.000001 0.000001
vn -1.000000 -0.000001 0.000001
vn 0.000000 0.000000 1.000000
vn 0.000000 0.000000 1.000000
vn 0.000000 0.000000 1.000000
vn 0.000000 0.000000 1.000000
vn -0.000005 -0.000002 -1.000000
vn -0.000005 -0.000002 -1.000000
vn -0.000005 -0.000002 -1.000000
vn -0.000005 -0.000002 -1.000000
vn -1.000000 0.000001 0.000002
vn -1.000000 0.000001 0.000002
vn -1.000000 0.000001 0.000002
vn -1.000000 0.000001 0.000002
vn 1.000000 0.000000 0.000000
vn 1.000000 0.000000 0.000000
vn 1.000000 0.000000 0.000000
vn 1.000000 0.000000 0.000000
vn 0.000000 0.000000 1.000000
vn 0.000000 0.000000 1.000000
vn 0.000000 0.000000 1.000000
vn 0.000000 0.000000 1.000000
vn -1.000000 -0.000000 0.000000
vn -1.000000 -0.000000 0.000000
vn -1.000000 -0.000000 0.000000
vn -1.000000 -0.000000 0.000000
vn 0.000001 0.000000 -1.000000
vn 0.000001 0.000000 -1.000000
vn 0.000001 0.000000 -1.000000
vn 0.000001 0.000000 -1.000000
vn -0.704119 -0.258041 -0.661537
vn -0.704119 -0.258041 -0.661537
vn -0.704119 -0.258041 -0.661537
vn -0.690705 0.307619 -0.654444
vn -0.690705 0.307619 -0.654444
vn -0.690705 0.307619 -0.654444
vn 0.000000 0.000000 -1.000000
vn 0.000000 0.000000 -1.000000
vn 0.000000 0.000000 -1.000000
vn -1.000000 0.000000 0.000000
vn -1.000000 0.000000 0.000000
vn -1.000000 0.000000 0.000000
vn 0.663727 0.344839 0.663742
vn 0.663727 0.344839 0.663742
vn 0.663727 0.344839 0.663742
vn 0.000000 -1.000000 0.000000
vn 0.000000 -1.000000 0.000000
vn 0.000000 -1.000000 0.000000
vn 0.000000 -1.000000 0.000000
vn -1.000000 0.000000 0.000000
vn -1.000000 0.000000 0.000000
vn -1.000000 0.000000 0.000000
vn -1.000000 0.000000 0.000000
vn 0.660818 0.265130 0.702158
vn 0.660818 0.265130 0.702158
vn 0.660818 0.265130 0.702158
vn 0.722132 -0.094070 0.685330
vn 0.722132 -0.094070 0.685330
vn 0.722132 -0.094070 0.685330
vn 1.000000 0.000000 0.000000
vn 1.000000 0.000000 0.000000
vn 1.000000 0.000000 0.000000
vn -0.000000 1.000000 0.000000
vn -0.000000 1.000000 0.000000
vn -0.000000 1.000000 0.000000
vn -0.000000 1.000000 0.000000
vn -0.000000 1.000000 0.000000
vn -0.000000 0.000000 1.000000
vn -0.000000 0.000000 1.000000
vn -0.000000 0.000000 1.000000
vn -0.000000 0.000000 1.000000
vn -0.000000 0.000000 1.000000
vn 0.000000 0.000000 -1.000000
vn 0.000000 0.000000 -1.000000
vn 0.000000 0.000000 -1.000000
vn 0.000000 0.000000 -1.000000
vn 1.000000 0.000000 0.000000
vn 1.000000 0.000000 0.000000
vn 1.000000 0.000000 0.000000
vn 1.000000 0.000000 0.000000
vn 1.000000 0.000000 0.000000
vn 1.000000 0.000000 0.000000
vn 1.000000 0.000000 0.000000
vn 1.000000 0.000000 0.000000
vn 1.000000 0.000000 0.000000
vn 1.000000 0.000000 0.000000
vn 1.000000 0.000000 0.000000
vn 0.000000 0.000000 1.000000
vn 0.000000 0.000000 1.000000
vn 0.000000 0.000000 1.000000
vn 0.000000 0.000000 1.000000
vn 0.000002 0.000000 1.000000
vn 0.000002 0.000000 1.000000
vn 0.000002 0.000000 1.000000
vn 0.000000 0.000000 1.000000
vn 0.000000 0.000000 1.000000
vn 0.000000 0.000000 1.000000
vn 0.000000 0.000000 1.000000
vn 1.000000 0.000000 0.000000
vn 1.000000 0.000000 0.000000
vn 1.000000 0.000000 0.000000
vn 1.000000 0.000000 0.000000
vn 0.000000 0.000000 -1.000000
vn 0.000000 0.000000 -1.000000
vn 0.000000 0.000000 -1.000000
vn 0.000000 0.000000 -1.000000
vn -1.000000 0.000000 0.000000
vn -1.000000 0.000000 0.000000
vn -1.000000 0.000000 0.000000
vn -1.000000 0.000000 0.000000
vn 0.000000 1.000000 0.000000
vn 0.000000 1.000000 0.000000
vn 0.000000 1.000000 0.000000
vn 0.000000 1.000000 0.000000
vn 0.000000 -1.000000 0.000000
vn 0.000000 -1.000000 0.000000
vn 0.000000 -1.000000 0.000000
vn 0.000000 -1.000000 0.000000
vn 1.000000 0.000000 0.000000
vn 1.000000 0.000000 0.000000
vn 1.000000 0.000000 0.000000
vn 1.000000 0.000000 0.000000
vn 0.000000 0.000000 -1.000000
vn 0.000000 0.000000 -1.000000
vn 0.000000 0.000000 -1.000000
vn 0.000000 0.000000 -1.000000
vn -1.000000 0.000000 0.000000
vn -1.000000 0.000000 0.000000
vn -1.000000 0.000000 0.000000
vn -1.000000 0.000000 0.000000
vn 0.000000 0.000000 1.000000
vn 0.000000 0.000000 1.000000
vn 0.000000 0.000000 1.000000
vn 0.000000 0.000000 1.000000
vn 0.000000 1.000000 0.000000
vn 0.000000 1.000000 0.000000
vn 0.000000 1.000000 0.000000
vn 0.000000 1.000000 0.000000
vn 0.000000 -1.000000 0.000000
vn 0.000000 -1.000000 0.000000
vn 0.000000 -1.000000 0.000000
vn 0.000000 -1.000000 0.000000
vn 1.000000 0.000000 0.000000
vn 1.000000 0.000000 0.000000
vn 1.000000 0.000000 0.000000
vn 1.000000 0.000000 0.000000
vn 0.000000 0.000000 -1.000000
vn 0.000000 0.000000 -1.000000
vn 0.000000 0.000000 -1.000000
vn 0.000000 0.000000 -1.000000
vn -1.000000 0.000000 0.000000
vn -1.000000 0.000000 0.000000
vn -1.000000 0.000000 0.000000
vn -1.000000 0.000000 0.000000
vn 0.000000 0.000000 1.000000
vn 0.000000 0.000000 1.000000
vn 0.000000 0.000000 1.000000
vn 0.000000 0.000000 1.000000
vn 0.000000 1.000000 0.000000
vn 0.000000 1.000000 0.000000
vn 0.000000 1.000000 0.000000
vn 0.000000 1.000000 0.000000
vn 0.000000 -1.000000 0.000000
vn 0.000000 -1.000000 0.000000
vn 0.000000 -1.000000 0.000000
vn 0.000000 -1.000000 0.000000
vn 0.000000 0.000000 1.000000
vn 0.000000 0.000000 1.000000
vn 0.000000 0.000000 1.000000
vn 0.000000 1.000000 0.000000
vn 0.000000 1.000000 0.000000
vn 0.000000 1.000000 0.000000
vn 0.000000 1.000000 0.000000
vn 0.000000 0.000000 -1.000000
vn 0.000000 0.000000 -1.000000
vn 0.000000 0.000000 -1.000000
vn 0.000000 0.000000 -1.000000
vn 0.000000 -1.000000 0.000000
vn 0.000000 -1.000000 0.000000
vn 0.000000 -1.000000 0.000000
vn 0.000000 -1.000000 0.000000
vn -1.000000 0.000000 0.000000
vn -1.000000 0.000000 0.000000
vn -1.000000 0.000000 0.000000
vn -1.000000 0.000000 0.000000
vn 1.000000 0.000000 0.000000
vn 1.000000 0.000000 0.000000
vn 1.000000 0.000000 0.000000
vn 1.000000 0.000000 0.000000
vn -0.765110 -0.320679 0.558365
vn -0.765110 -0.320679 0.558365
vn -0.765110 -0.320679 0.558365
vn -0.701197 0.272089 0.659007
vn -0.701197 0.272089 0.659007
vn -0.701197 0.272089 0.659007
vn 0.000000 0.000000 1.000000
vn 0.000000 0.000000 1.000000
vn 0.000000 0.000000 1.000000
vn 0.000000 0.000000 1.000000
vn 0.000000 0.000000 1.000000
vn 0.000000 0.000000 1.000000
vn 0.000000 0.000000 1.000000
vn 0.000000 0.000000 1.000000
vn -1.000000 0.000000 0.000000
vn -1.000000 0.000000 0.000000
vn -1.000000 0.000000 0.000000
vn -1.000000 0.000000 0.000000
vn -1.000000 0.000000 0.000000
vn -1.000000 0.000000 0.000000
vn -1.000000 0.000000 0.000000
vn 0.000000 0.000000 1.000000
vn 0.000000 0.000000 1.000000
vn 0.000000 0.000000 1.000000
vn 0.000000 0.000000 1.000000
vn 1.000000 0.000000 0.000000
vn 1.000000 0.000000 0.000000
vn 1.000000 0.000000 0.000000
vn 1.000000 0.000000 0.000000
vn 0.000000 0.000000 -1.000000
vn 0.000000 0.000000 -1.000000
vn 0.000000 0.000000 -1.000000
vn 0.000000 0.000000 -1.000000
vn -1.000000 0.000000 0.000000
vn -1.000000 0.000000 0.000000
vn -1.000000 0.000000 0.000000
vn -1.000000 0.000000 0.000000
vn 0.000000 1.000000 0.000000
vn 0.000000 1.000000 0.000000
vn 0.000000 1.000000 0.000000
vn 0.000000 1.000000 0.000000
vn 0.000000 -1.000000 0.000000
vn 0.000000 -1.000000 0.000000
vn 0.000000 -1.000000 0.000000
vn 0.000000 -1.000000 0.000000
vn 0.594518 0.801456 -0.064934
vn 0.594518 0.801456 -0.064934
vn 0.594518 0.801456 -0.064934
vn 0.000000 -1.000000 0.000000
vn 0.000000 -1.000000 0.000000
vn 0.000000 -1.000000 0.000000
vn 0.000000 -1.000000 0.000000
vn -0.957213 0.287674 0.031411
vn -0.957213 0.287674 0.031411
vn -0.957213 0.287674 0.031411
vn -0.957213 0.287674 0.031411
vn 0.974760 0.219861 -0.038794
vn 0.974760 0.219861 -0.038794
vn 0.974760 0.219861 -0.038794
vn 0.974760 0.219861 -0.038794
vn 0.000000 0.000000 -1.000000
vn 0.000000 0.000000 -1.000000
vn 0.000000 0.000000 -1.000000
vn 0.000000 -1.000000 0.000000
vn 0.000000 -1.000000 0.000000
vn 0.000000 -1.000000 0.000000
vn 0.000000 -1.000000 0.000000
vn -0.330157 0.943164 0.037933
vn -0.330157 0.943164 0.037933
vn -0.330157 0.943164 0.037933
vn 1.000000 0.000000 0.000000
vn 1.000000 0.000000 0.000000
vn 1.000000 0.000000 0.000000
vn 1.000000 0.000000 0.000000
vn 0.000000 1.000000 0.000000
vn 0.000000 1.000000 0.000000
vn 0.000000 1.000000 0.000000
vn 0.000000 0.000000 1.000000
vn 0.000000 0.000000 1.000000
vn 0.000000 0.000000 1.000000
vn 0.000000 1.000000 0.000000
vn 0.000000 1.000000 0.000000
vn 0.000000 1.000000 0.000000
vn -0.999833 0.018115 -0.002489
vn -0.999833 0.018115 -0.002489
vn -0.999833 0.018115 -0.002489
vn -0.999833 0.018115 -0.002489
vn 0.000000 0.000000 -1.000000
vn 0.000000 0.000000 -1.000000
vn 0.000000 0.000000 -1.000000
vn 0.000000 0.000000 -1.000000
vn 0.000000 1.000000 -0.000000
vn 0.000000 1.000000 -0.000000
vn 0.000000 1.000000 -0.000000
vn 0.000000 1.000000 -0.000000
vn 0.887636 0.453741 0.078874
vn 0.887636 0.453741 0.078874
vn 0.887636 0.453741 0.078874
vn 0.000000 1.000000 -0.000000
vn 0.000000 1.000000 -0.000000
vn 0.000000 1.000000 -0.000000
vn 0.000000 1.000000 -0.000000
vn -0.970575 0.228699 -0.075372
vn -0.970575 0.228699 -0.075372
vn -0.970575 0.228699 -0.075372
vn 0.000000 0.000000 1.000000
vn 0.000000 0.000000 1.000000
vn 0.000000 0.000000 1.000000
vn 0.000000 0.000000 1.000000
s off
f 1/1/1 2/2/2 13/3/3 12/4/4
f 13/3/5 4/5/6 3/6/7 12/4/8
f 3/6/9 10/7/10 5/8/11
f 5/8/12 6/9/13 2/2/14 1/1/15
f 13/3/16 11/10/17 8/11/18 4/5/19
f 5/8/20 1/1/21 12/4/22 3/6/23
f 2/12/24 6/13/25 7/14/26
f 5/8/27 7/15/28 6/9/29
f 8/16/30 11/17/31 10/18/32
f 10/18/33 11/17/34 9/19/35
f 3/6/36 4/5/37 8/11/38 10/7/39
f 5/8/40 10/7/41 9/20/42 7/15/43
f 2/2/44 7/15/45 9/20/46 11/10/47
f 2/2/48 11/10/49 13/3/50
f 26/21/51 25/22/52 27/23/53
f 18/24/54 14/25/55 15/26/56 19/27/57
f 16/28/58 28/29/59 17/30/60 25/31/61 26/32/62
f 18/24/63 21/33/64 20/34/65 14/25/66
f 24/35/67 30/36/68 21/33/69 18/24/70
f 15/26/71 22/37/72 29/38/73 24/35/74
f 14/25/75 20/34/76 22/37/77 15/26/78
f 27/39/79 21/33/80 30/36/81 23/40/82
f 23/40/83 29/38/84 22/37/85 27/39/86
f 20/34/87 21/33/88 17/30/89 28/29/90
f 22/37/91 20/34/92 28/29/93 16/28/94
f 27/39/95 22/37/96 16/28/97 26/32/98
f 17/30/99 21/33/100 27/39/101 25/31/102
f 29/38/103 23/40/104 30/36/105
f 24/35/106 29/38/107 30/36/108
f 24/35/109 18/24/110 19/27/111
f 15/26/112 24/35/113 19/27/114
f 42/41/115 41/42/116 40/43/117
f 34/44/118 35/45/119 32/46/120 31/47/121
f 34/44/122 31/47/123 43/48/124 44/49/125
f 39/50/126 38/51/127 36/52/128
f 37/53/129 38/51/130 39/50/131
f 39/54/132 35/45/133 33/55/134
f 43/48/135 40/56/136 41/57/137 33/55/138 44/49/139
f 43/48/140 38/58/141 37/59/142 42/60/143 40/56/144
f 44/49/145 33/55/146 35/45/147 34/44/148
f 42/60/149 33/55/150 41/57/151
f 39/54/152 33/55/153 42/60/154 37/59/155
f 32/46/156 35/45/157 39/54/158 36/61/159
f 31/47/160 32/46/161 36/61/162 38/58/163
f 31/47/164 38/58/165 43/48/166
f 45/62/167 47/63/168 48/64/169 46/65/170
f 47/63/171 49/66/172 50/67/173 48/64/174
f 49/66/175 51/68/176 52/69/177 50/67/178
f 51/68/179 45/62/180 46/65/181 52/69/182
f 46/65/183 48/64/184 50/67/185 52/69/186
f 51/68/187 49/66/188 47/63/189 45/62/190
f 53/70/191 55/71/192 56/72/193 54/73/194
f 55/71/195 57/74/196 58/75/197 56/72/198
f 57/74/199 59/76/200 60/77/201 58/75/202
f 59/76/203 53/70/204 54/73/205 60/77/206
f 54/73/207 56/72/208 58/75/209 60/77/210
f 59/76/211 57/74/212 55/71/213 53/70/214
f 61/78/215 63/79/216 64/80/217 62/81/218
f 63/79/219 65/82/220 66/83/221 64/80/222
f 65/82/223 67/84/224 68/85/225 66/83/226
f 67/84/227 61/78/228 62/81/229 68/85/230
f 62/81/231 64/80/232 66/83/233 68/85/234
f 67/84/235 65/82/236 63/79/237 61/78/238
f 69/86/239 71/87/240 79/88/241
f 73/89/242 74/90/243 72/91/244 71/87/245
f 73/89/246 75/92/247 76/93/248 74/90/249
f 75/92/250 69/86/251 70/94/252 76/93/253
f 74/90/254 80/95/255 78/96/256 72/91/257
f 75/92/258 73/89/259 71/87/260 69/86/261
f 78/97/262 80/98/263 79/99/264
f 79/99/265 80/98/266 77/100/267
f 79/88/268 71/87/269 72/91/270 78/96/271
f 69/86/272 79/88/273 77/101/274 70/94/275
f 70/94/276 77/101/277 80/95/278 76/93/279
f 76/93/280 80/95/281 74/90/282
f 81/102/283 83/103/284 84/104/285 82/105/286
f 83/103/287 85/106/288 86/107/289 84/104/290
f 85/106/291 87/108/292 88/109/293 86/107/294
f 87/108/295 81/102/296 82/105/297 88/109/298
f 82/105/299 84/104/300 86/107/301 88/109/302
f 87/108/303 85/106/304 83/103/305 81/102/306
f 96/110/307 97/111/308 95/112/309
f 93/113/310 94/114/311 101/115/312 100/116/313
f 93/117/314 100/118/315 98/119/316 92/120/317
f 90/121/318 101/115/319 99/122/320 91/123/321
f 92/124/322 95/125/323 93/113/324
f 100/116/325 101/115/326 90/121/327 89/126/328
f 104/127/329 103/128/330 102/129/331
f 94/114/332 97/130/333 96/131/334 101/115/335
f 98/132/336 99/122/337 96/131/338
f 102/133/339 90/121/340 91/123/341
f 104/134/342 99/122/343 98/132/344
f 104/134/345 100/116/346 89/126/347 103/135/348
f 93/113/349 95/125/350 97/130/351 94/114/352
f 98/132/353 96/131/354 95/125/355 92/124/356
f 99/122/357 101/115/358 96/131/359
f 104/134/360 102/133/361 91/123/362 99/122/363
f 98/132/364 100/116/365 104/134/366
f 89/126/367 90/121/368 102/133/369 103/135/370
