# This file uses centimeters as units for non-parametric coordinates.

v -39.323483 26.519562 2.129312
v -48.649582 26.519562 2.129255
v 39.323555 26.519562 2.129276
v 48.649605 26.519562 2.129333
v 39.323555 30.743023 2.129273
v -39.323483 30.743023 2.129315
v 31.455681 30.743023 2.129210
v -31.455658 30.743023 2.129186
v -11.194189 40.403492 2.129277
v 11.194214 40.403492 2.129311
v -39.323483 -26.519566 2.129312
v -48.649582 -26.519566 2.129255
v 39.323555 -26.519566 2.129276
v 48.649605 -26.519566 2.129333
v 39.323555 -30.743027 2.129273
v -39.323483 -30.743027 2.129315
v 31.455681 -30.743027 2.129210
v -31.455658 -30.743027 2.129186
v -11.194189 -40.403496 2.129277
v 11.194214 -40.403496 2.129311
v 35.389641 24.105547 2.129339
v 24.203169 -25.154831 2.129186
v -27.786716 30.743023 2.129282
v 27.871099 30.743023 2.129348
v -37.337482 -25.621012 2.129180
v -35.152817 25.247845 2.129360
v -18.431536 -31.107456 2.129288
v -8.755868 -30.743027 2.129269
v 18.484573 -30.743027 2.129276
v 45.122608 19.764063 2.129255
v 42.126709 1.979761 2.129237
v 44.211029 -19.415646 2.129249
v -9.624111 33.290909 2.129299
v 3.803942 36.893829 2.129335
v 10.642365 33.956036 2.129208
v -44.336678 -18.967524 2.129312
v -43.485771 -4.246422 2.129282
v -45.927269 13.493382 2.129348
v -1.836794 -34.790123 2.129225
v 30.167618 1.110013 2.129192
v -39.323555 26.519562 -2.129276
v -48.649555 26.519562 -2.129140
v 39.323578 26.519562 -2.129119
v 48.649582 26.519562 -2.129255
v 39.323578 30.743023 -2.129122
v -39.323555 30.743023 -2.129273
v 31.455706 30.743023 -2.129186
v -31.455635 30.743023 -2.129210
v -11.194165 40.403492 -2.129119
v 11.194238 40.403492 -2.129277
v -39.323555 -26.519566 -2.129276
v -48.649555 -26.519566 -2.129140
v 39.323578 -26.519566 -2.129119
v 48.649582 -26.519566 -2.129255
v 39.323578 -30.743027 -2.129122
v -39.323555 -30.743027 -2.129273
v 31.455706 -30.743027 -2.129186
v -31.455635 -30.743027 -2.129210
v -11.194165 -40.403496 -2.129119
v 11.194238 -40.403496 -2.129277
v 35.389618 24.105547 -2.129249
v 24.203144 -25.154831 -2.129210
v -27.786692 30.743023 -2.129113
v 27.871075 30.743023 -2.129240
v -37.337456 -25.621012 -2.129216
v -35.152794 25.247845 -2.129228
v -18.431511 -31.107456 -2.129107
v -8.755844 -30.743027 -2.129126
v 18.484596 -30.743027 -2.129119
v 45.122581 19.764063 -2.129140
v 42.126686 1.979761 -2.129158
v 44.211006 -19.415646 -2.129147
v -9.624086 33.290909 -2.129289
v 3.803919 36.893829 -2.129253
v 10.642342 33.956036 -2.129188
v -44.336750 -18.967524 -2.129276
v -43.485744 -4.246422 -2.129113
v -45.927246 13.493382 -2.129240
v -1.836818 -34.790123 -2.129170
v 30.167595 1.110013 -2.129204
v -48.649582 -7.661835 2.129255
v -48.649582 -3.001494 2.129255
v -48.649555 -6.907831 -2.129138
v -48.649555 -2.337673 -2.129138
v 48.649605 16.353605 2.129330
v 48.649605 9.779565 2.129330
v 48.649582 13.344273 -2.129258
v 46.183594 13.493583 2.129261
v -27.772781 22.520706 2.129341
v -27.729324 -3.100536 2.129262
v -27.697685 -21.803795 2.129181
v -27.686432 -28.421717 2.129235
v -27.835474 22.543879 -2.129225
v -27.988129 -3.119359 -2.129133
v -28.100201 -21.963192 -2.129214
v -28.137806 -28.290722 -2.129163
vt 0.435366 0.037630
vt 0.435779 0.037532
vt 0.435600 0.037625
vt 0.435961 0.037528
vt 0.436138 0.037615
vt 0.436010 0.037567
vt 0.435906 0.037529
vt 0.435729 0.037573
vt 0.435834 0.037531
vt 0.436138 0.037615
vt 0.435600 0.037625
vt 0.435366 0.037630
vt 0.435961 0.037528
vt 0.435779 0.037532
vt 0.435728 0.037573
vt 0.436011 0.037568
vt 0.435834 0.037531
vt 0.435906 0.037529
vt 0.435664 0.037599
vt 0.435664 0.037599
vt 0.435976 0.037568
vt 0.435745 0.037572
vt 0.436074 0.037591
vt 0.436070 0.037589
vt 0.435950 0.037564
vt 0.435909 0.037570
vt 0.435786 0.037572
vt 0.435454 0.037628
vt 0.435529 0.037626
vt 0.435477 0.037627
vt 0.435916 0.037559
vt 0.435861 0.037545
vt 0.435827 0.037557
vt 0.436261 0.037612
vt 0.435843 0.037558
vt 0.435366 0.037630
vt 0.435600 0.037625
vt 0.435664 0.037599
vt 0.435454 0.037628
vt 0.436138 0.037615
vt 0.435961 0.037528
vt 0.435779 0.037532
vt 0.435366 0.037630
vt 0.435729 0.037573
vt 0.436010 0.037567
vt 0.435827 0.037557
vt 0.435834 0.037531
vt 0.435861 0.037545
vt 0.435906 0.037529
vt 0.436138 0.037615
vt 0.435961 0.037528
vt 0.435779 0.037532
vt 0.435600 0.037625
vt 0.435728 0.037573
vt 0.436011 0.037568
vt 0.435906 0.037529
vt 0.435834 0.037531
vt 0.435786 0.037572
vt 0.435843 0.037558
vt 0.435664 0.037599
vt 0.435745 0.037572
vt 0.436070 0.037589
vt 0.435976 0.037568
vt 0.436074 0.037591
vt 0.435950 0.037564
vt 0.435909 0.037570
vt 0.435477 0.037627
vt 0.435529 0.037626
vt 0.435916 0.037559
vt 0.436239 0.037613
vt 0.436298 0.037613
vt 0.436366 0.037610
vt 0.436261 0.037612
vt 0.436366 0.037610
vt 0.436298 0.037613
vt 0.436239 0.037613
vt 0.436366 0.037610
vt 0.436366 0.037610
vt 0.436366 0.037610
vt 0.436366 0.037610
vt 0.436366 0.037610
vt 0.436366 0.037610
vt 0.435366 0.037630
vt 0.435366 0.037630
vt 0.435366 0.037630
vt 0.435428 0.037628
vt 0.885490 0.887285
vt 0.875275 0.888865
vt 0.907276 0.880116
vt 0.923570 0.880983
vt 0.856001 0.869992
vt 0.854953 0.845164
vt 0.969470 0.881697
vt 0.978960 0.891263
vt 0.869269 0.919909
vt 0.851422 0.899819
vt 0.935335 0.874345
vt 0.909691 0.853067
vt 0.905618 0.889064
vt 0.889891 0.984090
vt 0.910200 0.919109
vt 0.893686 0.926170
vt 0.983675 0.985549
vt 0.954560 0.990511
vt 0.920428 0.988859
vt 0.942961 0.995282
vt 0.886135 0.932990
vt 0.952556 0.880337
vt 0.968869 0.879977
vt 0.897750 0.841325
vt 0.888520 0.834161
vt 0.906655 0.879623
vt 0.909370 0.852720
vt 0.907550 0.877503
vt 0.857607 0.879414
vt 0.854656 0.843307
vt 0.941003 0.873336
vt 0.892736 0.926983
vt 0.911199 0.907459
vt 0.868379 0.916873
vt 0.852093 0.909302
vt 0.983012 0.984441
vt 0.889227 0.982982
vt 0.952341 0.988258
vt 0.918174 0.988848
vt 0.929620 0.993978
vt 0.881776 0.915507
vt 0.882521 0.872336
vt 0.891418 0.895550
vt 0.891611 0.884399
vt 0.436011 0.037577
vt 0.983309 0.970627
vt 0.984239 0.927388
vt 0.984922 0.895638
vt 0.882319 0.836586
vt 0.436014 0.037578
vt 0.882089 0.847247
vt 0.985151 0.884977
vt 0.881407 0.878996
vt 0.880477 0.922235
vt 0.880180 0.936050
vt 0.880843 0.937157
vt 0.988322 0.935677
vt 0.876128 0.842872
vt 0.890875 0.927064
vt 0.883065 0.840821
vt 0.890130 0.970235
vt 0.866922 0.834136
vt 0.877781 0.878262
vt 0.876732 0.971601
vt 0.896873 0.888890
vt 0.877623 0.974637
vn 0.000000 -0.000000 1.000000
vn 0.000000 -0.000000 1.000000
vn 0.000000 -0.000000 1.000000
vn 0.000000 -0.000000 1.000000
vn -1.000000 -0.000001 0.000000
vn -1.000000 -0.000001 0.000000
vn -1.000000 -0.000001 0.000000
vn -1.000000 -0.000001 0.000000
vn 1.000000 -0.000001 -0.000000
vn 1.000000 -0.000001 -0.000000
vn 1.000000 -0.000001 -0.000000
vn 1.000000 -0.000001 -0.000000
vn 0.000000 1.000000 0.000000
vn 0.000000 1.000000 0.000000
vn 0.000000 1.000000 0.000000
vn 0.000000 1.000000 0.000000
vn 0.687664 -0.592922 0.419000
vn 0.687664 -0.592922 0.419000
vn 0.687664 -0.592922 0.419000
vn -1.000000 -0.000000 0.000000
vn -1.000000 -0.000000 0.000000
vn -1.000000 -0.000000 0.000000
vn -1.000000 -0.000000 0.000000
vn 0.000000 1.000000 0.000000
vn 0.000000 1.000000 0.000000
vn 0.000000 1.000000 0.000000
vn 0.000000 1.000000 0.000000
vn 0.000000 0.000000 1.000000
vn 0.000000 0.000000 1.000000
vn 0.000000 0.000000 1.000000
vn 0.000000 1.000000 0.000000
vn 0.000000 1.000000 0.000000
vn 0.000000 1.000000 0.000000
vn 0.000000 1.000000 0.000000
vn 0.000000 1.000000 0.000000
vn 0.000000 1.000000 0.000000
vn 0.000000 1.000000 0.000000
vn 0.000000 1.000000 0.000000
vn 0.000000 0.000000 1.000000
vn 0.000000 0.000000 1.000000
vn 0.000000 0.000000 1.000000
vn -0.000000 -0.000000 1.000000
vn -0.000000 -0.000000 1.000000
vn -0.000000 -0.000000 1.000000
vn 0.000000 1.000000 0.000000
vn 0.000000 1.000000 0.000000
vn 0.000000 1.000000 0.000000
vn 0.000000 1.000000 0.000000
vn -0.430375 0.902650 0.000000
vn -0.430375 0.902650 0.000000
vn -0.430375 0.902650 0.000000
vn -0.430375 0.902650 0.000000
vn -0.000000 0.000000 1.000000
vn -0.000002 0.000006 1.000000
vn -0.000002 0.000006 1.000000
vn -0.000000 0.000000 1.000000
vn -0.000000 0.000000 1.000000
vn 0.430375 0.902650 -0.000000
vn 0.430375 0.902650 -0.000000
vn 0.430375 0.902650 -0.000000
vn 0.430375 0.902650 -0.000000
vn -1.000000 0.000001 0.000000
vn -1.000000 0.000001 0.000000
vn -1.000000 0.000001 0.000000
vn -1.000000 0.000001 0.000000
vn 1.000000 0.000001 -0.000000
vn 1.000000 0.000001 -0.000000
vn 1.000000 0.000001 -0.000000
vn 1.000000 0.000001 -0.000000
vn 0.000000 -1.000000 0.000000
vn 0.000000 -1.000000 0.000000
vn 0.000000 -1.000000 0.000000
vn 0.000000 -1.000000 0.000000
vn 0.000000 -1.000000 0.000000
vn 0.000000 -1.000000 0.000000
vn 0.000000 -1.000000 0.000000
vn 0.000000 -1.000000 0.000000
vn 0.000000 0.000000 1.000000
vn 0.000000 0.000000 1.000000
vn 0.000000 0.000000 1.000000
vn 0.000000 -1.000000 0.000000
vn 0.000000 -1.000000 0.000000
vn 0.000000 -1.000000 0.000000
vn 0.000000 -1.000000 0.000000
vn 0.000000 -1.000000 0.000000
vn 0.000000 -1.000000 0.000000
vn 0.000000 -1.000000 0.000000
vn 0.000000 -1.000000 0.000000
vn 0.000000 0.000000 1.000000
vn 0.000000 0.000000 1.000000
vn 0.000000 0.000000 1.000000
vn 0.000000 -1.000000 0.000000
vn 0.000000 -1.000000 0.000000
vn 0.000000 -1.000000 0.000000
vn 0.000000 -1.000000 0.000000
vn -0.430375 -0.902650 0.000000
vn -0.430375 -0.902650 0.000000
vn -0.430375 -0.902650 0.000000
vn -0.430375 -0.902650 0.000000
vn -0.000000 0.000000 1.000000
vn -0.000000 0.000000 1.000000
vn -0.000000 0.000000 1.000000
vn -0.000000 0.000000 1.000000
vn 0.430375 -0.902650 -0.000000
vn 0.430375 -0.902650 -0.000000
vn 0.430375 -0.902650 -0.000000
vn 0.430375 -0.902650 -0.000000
vn 0.000000 0.000000 1.000000
vn 0.000000 0.000000 1.000000
vn 0.000000 0.000000 1.000000
vn 0.000000 0.000000 1.000000
vn 0.000000 0.000000 1.000000
vn 0.000000 0.000000 1.000000
vn 0.000000 0.000000 1.000000
vn 0.000000 0.000000 1.000000
vn 0.000000 0.000000 1.000000
vn 0.000000 0.000000 1.000000
vn 0.000000 0.000000 1.000000
vn 0.000000 0.000000 1.000000
vn 0.000000 0.000000 1.000000
vn -0.000000 0.000000 1.000000
vn -0.000000 0.000000 1.000000
vn -0.000000 0.000000 1.000000
vn -0.000000 0.000000 1.000000
vn 0.000000 0.000000 1.000000
vn 0.000000 0.000000 1.000000
vn 0.000000 0.000000 1.000000
vn 0.000000 -0.000000 1.000000
vn 0.000000 -0.000000 1.000000
vn 0.000000 -0.000000 1.000000
vn -0.000000 0.000000 1.000000
vn 0.000003 -0.000004 1.000000
vn 0.000003 -0.000004 1.000000
vn 0.000000 0.000000 1.000000
vn 0.000000 0.000000 1.000000
vn 0.000000 0.000000 1.000000
vn 0.000000 0.000000 1.000000
vn -0.000008 -0.000008 1.000000
vn 0.000000 0.000000 1.000000
vn 0.000000 0.000000 1.000000
vn 0.000000 -0.000000 1.000000
vn 0.000000 -0.000000 1.000000
vn 0.000000 -0.000000 1.000000
vn 0.000000 0.000000 1.000000
vn 0.000000 0.000000 1.000000
vn 0.000000 0.000000 1.000000
vn 0.000000 0.000000 1.000000
vn 0.000000 0.000000 1.000000
vn 0.000000 0.000000 1.000000
vn 0.000000 -0.000000 1.000000
vn 0.000000 -0.000000 1.000000
vn 0.000000 -0.000000 1.000000
vn 0.000000 -0.000000 1.000000
vn 0.000000 0.000000 1.000000
vn 0.000000 0.000000 1.000000
vn 0.000000 0.000000 1.000000
vn 0.000000 0.000000 1.000000
vn 0.000000 0.000000 1.000000
vn 0.000000 0.000000 1.000000
vn 0.000000 0.000000 1.000000
vn -0.000000 0.000000 1.000000
vn -0.000000 0.000000 1.000000
vn -0.000000 0.000000 1.000000
vn -0.000000 0.000000 1.000000
vn -0.000000 0.000000 1.000000
vn -0.000000 0.000000 1.000000
vn -0.000000 0.000000 1.000000
vn -0.000000 -0.000000 1.000000
vn -0.000000 -0.000000 1.000000
vn -0.000000 -0.000000 1.000000
vn -0.000000 -0.000000 1.000000
vn 0.000000 -0.000000 1.000000
vn 0.000000 -0.000000 1.000000
vn 0.000000 -0.000000 1.000000
vn 0.000000 -0.000000 1.000000
vn 0.000000 -0.000000 1.000000
vn 0.000000 -0.000000 1.000000
vn 0.000000 -0.000000 1.000000
vn 0.000000 -0.000000 1.000000
vn 0.000000 -0.000000 1.000000
vn 0.000000 -0.000000 1.000000
vn 0.000000 -0.000000 1.000000
vn 0.000000 -0.000000 1.000000
vn 0.000000 -0.000000 1.000000
vn 0.000000 -0.000000 1.000000
vn 0.000000 0.000000 1.000000
vn 0.000000 0.000000 1.000000
vn 0.000000 0.000000 1.000000
vn 0.000000 0.000000 1.000000
vn -0.000000 0.000000 1.000000
vn -0.000000 0.000000 1.000000
vn -0.000000 0.000000 1.000000
vn -0.000000 0.000000 1.000000
vn 0.000000 -0.000000 1.000000
vn 0.000000 -0.000000 1.000000
vn 0.000000 -0.000000 1.000000
vn 0.000000 -0.000000 1.000000
vn -0.000000 0.000000 1.000000
vn -0.000000 0.000000 1.000000
vn 0.000005 0.000007 1.000000
vn 0.000002 -0.000003 1.000000
vn 0.000002 -0.000003 1.000000
vn -0.000000 -0.000000 1.000000
vn 0.000000 0.000000 1.000000
vn 0.000000 0.000000 1.000000
vn 0.000000 0.000000 1.000000
vn 0.000000 0.000000 1.000000
vn 0.000000 0.000000 1.000000
vn 0.000000 0.000000 1.000000
vn 0.000000 0.000000 1.000000
vn 0.000000 -0.000000 1.000000
vn 0.000000 -0.000000 1.000000
vn 0.000000 -0.000000 1.000000
vn 0.000000 -0.000000 -1.000000
vn 0.000000 -0.000000 -1.000000
vn 0.000000 -0.000000 -1.000000
vn 0.000000 -0.000000 -1.000000
vn -0.000000 0.000000 -1.000000
vn -0.000000 0.000000 -1.000000
vn -0.000000 0.000000 -1.000000
vn -0.000000 0.000000 -1.000000
vn -0.000000 0.000000 -1.000000
vn -0.000000 0.000000 -1.000000
vn -0.000000 -0.000000 -1.000000
vn -0.000000 -0.000000 -1.000000
vn -0.000000 -0.000000 -1.000000
vn 0.000002 -0.000006 -1.000000
vn 0.000002 -0.000006 -1.000000
vn -0.000000 0.000000 -1.000000
vn -0.000000 0.000000 -1.000000
vn -0.000000 0.000000 -1.000000
vn -0.000000 0.000000 -1.000000
vn -0.000000 -0.000000 -1.000000
vn -0.000000 -0.000000 -1.000000
vn -0.000000 -0.000000 -1.000000
vn -0.000000 0.000000 -1.000000
vn -0.000000 0.000000 -1.000000
vn -0.000000 0.000000 -1.000000
vn -0.000000 0.000000 -1.000000
vn -0.000000 0.000000 -1.000000
vn -0.000000 0.000000 -1.000000
vn -0.000000 0.000000 -1.000000
vn 0.000000 0.000000 -1.000000
vn 0.000000 0.000000 -1.000000
vn 0.000000 0.000000 -1.000000
vn 0.000000 0.000000 -1.000000
vn -0.000000 0.000000 -1.000000
vn -0.000000 0.000000 -1.000000
vn -0.000000 0.000000 -1.000000
vn -0.000000 0.000000 -1.000000
vn -0.000000 0.000000 -1.000000
vn -0.000000 0.000000 -1.000000
vn -0.000000 0.000000 -1.000000
vn -0.000000 0.000000 -1.000000
vn -0.000000 0.000000 -1.000000
vn -0.000000 0.000000 -1.000000
vn -0.000000 0.000000 -1.000000
vn -0.000000 0.000000 -1.000000
vn -0.000000 0.000000 -1.000000
vn 0.000000 -0.000000 -1.000000
vn 0.000000 -0.000000 -1.000000
vn 0.000000 -0.000000 -1.000000
vn -0.000000 0.000005 -1.000000
vn 0.000000 0.000005 -1.000000
vn -0.000000 0.000000 -1.000000
vn -0.000000 0.000000 -1.000000
vn -0.000000 0.000000 -1.000000
vn -0.000000 0.000000 -1.000000
vn -0.000000 0.000000 -1.000000
vn -0.000000 0.000000 -1.000000
vn 0.000000 0.000000 -1.000000
vn 0.000000 0.000000 -1.000000
vn 0.000000 0.000000 -1.000000
vn 0.000008 0.000008 -1.000000
vn -0.000000 -0.000000 -1.000000
vn -0.000000 -0.000000 -1.000000
vn -0.000000 -0.000000 -1.000000
vn -0.000000 0.000000 -1.000000
vn -0.000000 0.000000 -1.000000
vn -0.000000 0.000000 -1.000000
vn 0.000000 0.000000 -1.000000
vn 0.000000 0.000000 -1.000000
vn 0.000000 0.000000 -1.000000
vn 0.000000 0.000000 -1.000000
vn 0.000000 0.000000 -1.000000
vn 0.000000 0.000000 -1.000000
vn 0.000000 0.000000 -1.000000
vn -0.000000 0.000000 -1.000000
vn -0.000000 0.000000 -1.000000
vn -0.000000 0.000000 -1.000000
vn 0.000000 0.000000 -1.000000
vn 0.000000 0.000000 -1.000000
vn 0.000000 0.000000 -1.000000
vn 0.000000 0.000000 -1.000000
vn -0.000000 0.000000 -1.000000
vn -0.000000 0.000000 -1.000000
vn -0.000000 0.000000 -1.000000
vn -0.000000 0.000000 -1.000000
vn -0.000000 0.000000 -1.000000
vn -0.000000 0.000000 -1.000000
vn -0.000000 -0.000000 -1.000000
vn -0.000000 -0.000000 -1.000000
vn -0.000000 -0.000000 -1.000000
vn -0.000000 -0.000000 -1.000000
vn 0.000000 -0.000000 -1.000000
vn 0.000000 -0.000000 -1.000000
vn 0.000000 -0.000000 -1.000000
vn 0.000000 -0.000000 -1.000000
vn -0.000000 -0.000000 -1.000000
vn -0.000000 -0.000000 -1.000000
vn -0.000000 -0.000000 -1.000000
vn 0.000000 -0.000000 -1.000000
vn 0.000000 -0.000000 -1.000000
vn 0.000000 -0.000000 -1.000000
vn 0.000000 -0.000000 -1.000000
vn 0.000000 -0.000000 -1.000000
vn 0.000000 -0.000000 -1.000000
vn 0.000000 -0.000000 -1.000000
vn 0.000000 -0.000000 -1.000000
vn 0.000000 -0.000000 -1.000000
vn 0.000000 -0.000000 -1.000000
vn 0.000000 -0.000000 -1.000000
vn -0.000000 0.000000 -1.000000
vn -0.000000 0.000000 -1.000000
vn -0.000000 0.000000 -1.000000
vn -0.000000 0.000000 -1.000000
vn 0.000000 -0.000000 -1.000000
vn 0.000000 -0.000000 -1.000000
vn 0.000000 -0.000000 -1.000000
vn 0.000000 -0.000000 -1.000000
vn -0.000000 0.000000 -1.000000
vn 0.000005 0.000014 -1.000000
vn -0.000000 0.000000 -1.000000
vn -0.000000 -0.000000 -1.000000
vn 0.000000 -0.000004 -1.000000
vn -0.000000 -0.000004 -1.000000
vn -0.000000 -0.000000 -1.000000
vn -0.000000 -0.000000 -1.000000
vn -0.000000 0.000000 -1.000000
vn -0.000000 0.000000 -1.000000
vn -0.000000 0.000000 -1.000000
vn -0.000000 0.000000 -1.000000
vn -0.000000 0.000000 -1.000000
vn -0.000000 0.000000 -1.000000
vn -0.000000 0.000000 -1.000000
vn -0.000000 0.000000 -1.000000
vn -0.000000 0.000000 -1.000000
vn -0.000000 0.000000 -1.000000
vn 0.000000 0.000000 1.000000
vn 0.000000 0.000000 1.000000
vn 0.000000 0.000000 1.000000
vn 0.000000 0.000000 1.000000
vn -1.000000 0.000000 0.000000
vn -1.000000 0.000000 0.000000
vn -1.000000 0.000000 0.000000
vn -1.000000 0.000000 0.000000
vn 0.000000 0.000000 -1.000000
vn 0.000000 0.000000 -1.000000
vn 0.000000 0.000000 -1.000000
vn 0.000000 0.000000 -1.000000
vn -0.505661 0.859371 0.076080
vn -0.505661 0.859371 0.076080
vn -0.505661 0.859371 0.076080
vn -0.505661 0.859371 0.076080
vn -0.291244 -0.953756 -0.074337
vn -0.291244 -0.953756 -0.074337
vn -0.291244 -0.953756 -0.074337
vn -0.291244 -0.953756 -0.074337
vn 1.000000 -0.000000 -0.000001
vn 1.000000 -0.000000 -0.000001
vn 1.000000 -0.000000 -0.000001
vn 1.000000 -0.000000 -0.000001
vn 1.000000 0.000000 -0.000000
vn 1.000000 0.000000 -0.000000
vn 1.000000 0.000000 -0.000000
vn 1.000000 0.000000 -0.000000
vn 0.755980 0.501946 0.420173
vn 0.755980 0.501946 0.420173
vn 0.755980 0.501946 0.420173
vn -0.000000 0.000000 -1.000000
vn -0.000000 0.000000 -1.000000
vn -0.000000 0.000000 -1.000000
vn -0.000000 0.000000 -1.000000
vn -0.000000 0.000000 1.000000
vn -0.000000 0.000000 1.000000
vn -0.000000 0.000000 1.000000
vn -0.000000 0.000000 1.000000
vn 0.000000 0.000000 1.000000
vn 0.000000 0.000000 1.000000
vn 0.000000 0.000000 1.000000
vn 0.000005 0.000007 1.000000
vn -0.000000 0.000000 1.000000
vn -0.000000 0.000000 1.000000
vn -0.000000 -0.000000 1.000000
vn -0.000000 -0.000000 1.000000
vn -0.000000 -0.000000 1.000000
vn 0.000002 -0.000003 1.000000
vn 0.000002 -0.000003 1.000000
vn 0.000003 -0.000004 1.000000
vn 0.000003 -0.000004 1.000000
vn -0.000000 0.000000 1.000000
vn -0.000000 0.000000 1.000000
vn -0.000000 0.000000 1.000000
vn -0.000002 0.000006 1.000000
vn -0.000002 0.000006 1.000000
vn -0.000000 0.000000 1.000000
vn 0.000000 -0.000000 1.000000
vn 0.000000 -0.000000 1.000000
vn 0.000000 -0.000000 1.000000
vn -0.000000 0.000000 -1.000000
vn 0.000005 0.000014 -1.000000
vn -0.000000 0.000000 -1.000000
vn -0.000000 -0.000004 -1.000000
vn 0.000000 -0.000004 -1.000000
vn -0.000000 -0.000000 -1.000000
vn -0.000000 0.000000 -1.000000
vn 0.000000 0.000005 -1.000000
vn -0.000000 0.000005 -1.000000
vn -0.000000 0.000000 -1.000000
vn -0.000000 0.000000 -1.000000
vn -0.000000 0.000000 -1.000000
vn 0.000002 -0.000006 -1.000000
vn 0.000002 -0.000006 -1.000000
vn -0.000000 0.000000 -1.000000
vn -0.000000 0.000000 -1.000000
vn -0.000000 0.000000 -1.000000
s off
f 4/1/1 3/3/2 21/19/3 30/28/4
f 1/5/5 6/4/6 46/41/7 41/40/8
f 5/2/9 3/3/10 43/37/11 45/42/12
f 3/3/13 4/1/14 44/36/15 43/37/16
f 87/85/17 85/83/18 88/86/19
f 12/77/20 81/79/21 83/82/22 52/72/23
f 2/78/24 1/5/25 41/40/26 42/74/27
f 7/8/28 3/3/29 5/2/30
f 7/8/31 5/2/32 45/42/33 47/44/34
f 6/4/35 8/6/36 48/45/37 46/41/38
f 1/5/39 8/6/40 6/4/41
f 35/33/42 10/9/43 34/32/44
f 9/7/45 10/9/46 50/47/47 49/49/48
f 8/6/49 9/7/50 49/49/51 48/45/52
f 40/143/53 91/129/54 92/130/55 27/89/56 28/90/57
f 10/9/58 7/8/59 47/44/60 50/47/61
f 16/13/62 11/10/63 51/50/64 56/51/65
f 13/11/66 15/14/67 55/52/68 53/53/69
f 14/12/70 13/11/71 53/53/72 54/43/73
f 11/10/74 12/77/75 52/72/76 51/50/77
f 17/15/78 15/14/79 13/11/80
f 15/14/81 17/15/82 57/54/83 55/52/84
f 18/16/85 16/13/86 56/51/87 58/55/88
f 11/10/89 16/13/90 18/16/91
f 20/17/92 19/18/93 59/56/94 60/57/95
f 19/18/96 18/16/97 58/55/98 59/56/99
f 17/15/100 29/27/101 39/35/102 20/17/103
f 17/15/104 20/17/105 60/57/106 57/54/107
f 22/20/108 17/15/109 13/11/110
f 22/144/111 32/98/112 31/99/113 40/87/114
f 3/3/115 7/8/116 21/19/117
f 7/8/118 24/22/119 21/19/120
f 24/103/121 35/104/122 33/105/123 23/100/124
f 26/24/125 23/21/126 8/6/127
f 8/6/128 1/5/129 26/24/130
f 40/143/131 90/145/132 91/129/133
f 25/23/134 11/10/135 18/16/136
f 27/25/137 92/131/138 25/23/139 18/16/140
f 28/90/141 39/97/142 29/93/143
f 22/20/144 29/27/145 17/15/146
f 19/18/147 27/25/148 18/16/149
f 19/18/150 39/35/151 28/26/152 27/25/153
f 20/17/154 39/35/155 19/18/156
f 14/12/157 32/30/158 22/20/159 13/11/160
f 4/1/161 30/28/162 88/86/163 85/83/164
f 14/12/165 31/29/166 32/30/167
f 7/8/168 10/9/169 35/33/170 24/22/171
f 33/31/172 9/7/173 8/6/174 23/21/175
f 34/32/176 10/9/177 9/7/178
f 34/32/179 9/7/180 33/31/181
f 1/5/182 2/78/183 38/71/184 26/24/185
f 12/77/186 36/34/187 37/70/188 81/79/189
f 36/34/190 12/77/191 11/10/192 25/23/193
f 40/87/194 31/99/195 30/101/196 21/102/197
f 40/143/198 23/100/199 89/147/200
f 89/147/201 90/145/202 40/143/203
f 33/105/204 35/104/205 34/106/206
f 40/143/207 28/90/208 29/93/209 22/94/210
f 21/102/211 24/142/212 40/87/213
f 44/36/214 70/39/215 61/38/216 43/37/217
f 47/44/218 45/42/219 43/37/220
f 41/40/221 46/41/222 48/45/223
f 75/46/224 74/48/225 50/47/226
f 95/137/227 96/135/228 65/110/229
f 57/54/230 53/53/231 55/52/232
f 51/50/233 58/55/234 56/51/235
f 57/54/236 60/57/237 79/59/238 69/58/239
f 62/60/240 53/53/241 57/54/242
f 62/111/243 80/149/244 71/115/245 72/116/246
f 43/37/247 61/38/248 47/44/249
f 47/44/250 61/38/251 64/61/252
f 64/123/253 63/122/254 73/124/255 75/125/256
f 66/62/257 48/45/258 63/63/259
f 48/45/260 66/62/261 41/40/262
f 94/139/263 95/137/264 65/110/265 76/113/266 77/114/267
f 65/64/268 58/55/269 51/50/270
f 67/65/271 58/55/272 65/64/273 96/136/274
f 68/108/275 69/112/276 79/117/277
f 62/60/278 57/54/279 69/58/280
f 59/56/281 58/55/282 67/65/283
f 59/56/284 67/65/285 68/66/286 79/59/287
f 60/57/288 59/56/289 79/59/290
f 54/43/291 53/53/292 62/60/293 72/67/294
f 44/36/295 87/85/296 70/39/297
f 54/43/298 72/67/299 71/68/300
f 47/44/301 64/61/302 75/46/303 50/47/304
f 73/69/305 63/63/306 48/45/307 49/49/308
f 74/48/309 49/49/310 50/47/311
f 74/48/312 73/69/313 49/49/314
f 41/40/315 66/62/316 78/75/317 42/74/318
f 52/72/319 83/82/320 77/76/321 76/73/322
f 76/73/323 65/64/324 51/50/325 52/72/326
f 80/149/327 61/120/328 70/121/329 71/115/330
f 63/141/331 93/140/332 66/118/333
f 66/118/334 93/140/335 94/139/336 77/114/337 78/119/338
f 73/124/339 74/126/340 75/125/341
f 80/107/342 62/151/343 69/112/344 68/108/345
f 64/123/346 80/107/347 63/122/348
f 37/70/349 38/71/350 2/78/351 82/81/352
f 84/80/353 82/81/354 2/78/355 42/74/356
f 77/76/357 84/80/358 42/74/359 78/75/360
f 81/79/361 37/70/362 77/76/363 83/82/364
f 37/70/365 82/81/366 84/80/367 77/76/368
f 87/85/369 86/84/370 14/12/371 54/43/372
f 4/1/373 85/83/374 87/85/375 44/36/376
f 87/85/377 88/86/378 86/84/379
f 70/39/380 87/85/381 54/43/382 71/68/383
f 88/86/384 31/29/385 14/12/386 86/84/387
f 88/86/388 30/28/389 31/29/390
f 89/147/391 23/100/392 26/152/393
f 26/95/394 38/96/395 37/91/396 90/128/397 89/127/398
f 91/146/399 90/128/400 37/91/401 36/92/402 25/148/403
f 92/130/404 91/129/405 25/88/406
f 40/143/407 24/103/408 23/100/409
f 80/107/410 93/132/411 63/122/412
f 94/133/413 93/132/414 80/107/415
f 80/107/416 95/134/417 94/133/418
f 80/107/419 68/108/420 67/109/421 96/138/422 95/134/423
f 61/150/424 80/107/425 64/123/426
