# This file uses centimeters as units for non-parametric coordinates.

v -0.000126 -32.898788 6.131203
v -8.529903 -11.800916 -6.131187
v -18.220818 -14.873504 -4.207100
v -5.351807 -68.746933 -1.014137
v -5.140503 -76.991989 4.879356
v -4.006954 -79.820724 -1.029564
v -15.372562 -68.746689 -0.358253
v -17.359249 -67.713058 2.866692
v -18.572395 -77.120590 3.421501
v -19.069336 -79.884262 -2.067558
v -12.045898 -76.930649 5.125755
v -6.621822 -61.880905 2.113579
v -19.831963 -41.022934 -0.779518
v -4.195560 -34.480148 4.896156
v -5.297966 -53.697861 4.511131
v -2.396362 -40.875778 -1.061485
v -10.764771 -37.071701 -0.456352
v -0.000126 -30.844589 -2.945091
v -13.640594 -24.116959 -2.018059
v -1.681515 -31.645920 -0.849373
v -18.461910 -19.241135 -0.367821
v -11.624977 -28.819382 -1.346626
v -17.774170 -14.120894 -0.542107
v -18.196209 -11.137355 2.397911
v -5.390015 -64.366379 -1.928551
v -17.468021 -64.739975 -1.593285
v -21.482075 -52.079697 4.649902
v -11.300903 -49.280685 -4.282509
v -1.060177 -49.712204 -1.202904
v -20.302608 -51.267563 -1.634392
v -18.611946 -15.992232 2.568687
v 8.529667 -11.800916 -6.131187
v 18.221062 -14.881755 -5.313759
v 19.297607 -19.241501 -0.172264
v 5.351807 -68.746933 -1.014137
v 6.590092 -66.908493 1.187141
v 5.140503 -76.991989 4.879356
v 4.006962 -79.820724 -1.029564
v 17.359249 -67.713058 2.998772
v 18.572388 -77.120590 3.211739
v 19.069576 -79.884262 -2.238869
v 12.046146 -76.930649 5.102150
v 12.333374 -63.233017 3.373802
v 18.919064 -39.445358 3.455162
v 11.008671 -33.278549 5.174110
v 5.297359 -54.388779 4.660286
v 10.765015 -37.071579 -0.456352
v 12.897251 -25.880379 -1.918602
v 1.681522 -31.645920 -0.849373
v 9.895382 -28.819382 -1.346626
v 4.195797 -34.480392 4.896156
v 14.624878 -68.746689 0.119926
v 19.554928 -51.267563 -1.369865
v 5.436035 -64.466293 -1.222496
v 21.482063 -52.079697 4.711082
v 11.300659 -49.280685 -3.013313
v 1.060429 -51.646225 -0.729652
v 18.765507 -29.879196 4.365791
v -0.000130 -21.392273 -5.146339
v -14.914177 -22.932983 -4.926094
v 16.181725 -24.993027 -5.069435
v -18.200710 -9.408351 -2.371162
v 18.200836 -9.318532 -2.667473
v 18.196499 -11.072974 2.477196
v 0.000401 -9.812503 4.351845
v 0.000389 -6.917701 -2.998726
v -10.769623 -13.552185 1.715965
v -10.769615 -13.552185 -3.263557
v -10.820892 2.513428 1.715965
v -10.820885 2.513428 -3.263557
v -15.800201 2.497543 1.715965
v -15.800194 2.497543 -3.263557
v -15.748932 -13.568069 1.715965
v -15.748924 -13.568069 -3.263557
v 16.378098 -13.825745 1.687767
v 16.378105 -13.825745 -3.291756
v 16.578506 2.238693 1.687767
v 16.578514 2.238693 -3.291756
v 11.599579 2.300812 1.687767
v 11.599586 2.300812 -3.291756
v 11.399170 -13.763626 1.687767
v 11.399178 -13.763626 -3.291756
vt 0.459120 0.093148
vt 0.459223 0.093216
vt 0.459260 0.093168
vt 0.459306 0.093167
vt 0.459524 0.093214
vt 0.459599 0.093428
vt 0.459641 0.093369
vt 0.459663 0.093492
vt 0.459581 0.093419
vt 0.459555 0.093329
vt 0.459376 0.093509
vt 0.459384 0.093393
vt 0.459407 0.093414
vt 0.459349 0.093413
vt 0.459370 0.093348
vt 0.459231 0.093219
vt 0.459240 0.093332
vt 0.459510 0.093362
vt 0.459405 0.093372
vt 0.459506 0.093105
vt 0.459555 0.093235
vt 0.459536 0.093197
vt 0.459564 0.093232
vt 0.459587 0.093072
vt 0.459131 0.093022
vt 0.459117 0.092992
vt 0.459134 0.093071
vt 0.459143 0.093102
vt 0.459322 0.093186
vt 0.459208 0.093252
vt 0.459556 0.093260
vt 0.459375 0.093222
vt 0.459615 0.093318
vt 0.459663 0.093171
vt 0.459923 0.093106
vt 0.459811 0.093183
vt 0.459871 0.093239
vt 0.459878 0.093177
vt 0.459805 0.093430
vt 0.459836 0.093370
vt 0.459827 0.093379
vt 0.459815 0.093494
vt 0.459793 0.093409
vt 0.459766 0.093238
vt 0.460100 0.093519
vt 0.459986 0.093411
vt 0.460090 0.093404
vt 0.460027 0.093335
vt 0.460076 0.093226
vt 0.460039 0.093352
vt 0.459929 0.093318
vt 0.459967 0.093367
vt 0.459856 0.093352
vt 0.459809 0.093095
vt 0.459605 0.093198
vt 0.459953 0.093089
vt 0.459877 0.092998
vt 0.459761 0.093190
vt 0.459675 0.093106
vt 0.459985 0.093169
vt 0.459808 0.093227
vt 0.459664 0.093321
vt 0.459100 0.093074
vt 0.459495 0.092948
vt 0.459471 0.093073
vt 0.459863 0.093087
vt 0.039175 0.303196
vt 0.039175 0.303196
vt 0.039175 0.303196
vt 0.039175 0.303196
vt 0.039175 0.303196
vt 0.039175 0.303196
vt 0.039175 0.303196
vt 0.039175 0.303196
vt 0.039175 0.303196
vt 0.039175 0.303196
vt 0.039175 0.303196
vt 0.039175 0.303196
vt 0.039175 0.303196
vt 0.039175 0.303196
vt 0.039175 0.303196
vt 0.039175 0.303196
vt 0.039175 0.303196
vt 0.039175 0.303196
vt 0.039175 0.303196
vt 0.039175 0.303196
vt 0.039175 0.303196
vt 0.039175 0.303196
vt 0.039175 0.303196
vt 0.039175 0.303196
vt 0.039175 0.303196
vt 0.039175 0.303196
vt 0.039175 0.303196
vt 0.039175 0.303196
vn -0.892163 -0.386843 0.233232
vn -0.892163 -0.386843 0.233232
vn -0.892163 -0.386843 0.233232
vn -0.074542 -0.064974 -0.995099
vn -0.074542 -0.064974 -0.995099
vn -0.074542 -0.064974 -0.995099
vn -0.074542 -0.064974 -0.995099
vn 0.984087 0.119328 0.131659
vn 0.984087 0.119328 0.131659
vn 0.984087 0.119328 0.131659
vn 0.964707 0.061844 0.255960
vn 0.964707 0.061844 0.255960
vn 0.964707 0.061844 0.255960
vn -0.942526 0.324848 -0.078226
vn -0.942526 0.324848 -0.078226
vn -0.942526 0.324848 -0.078226
vn -0.960240 -0.219185 -0.172908
vn -0.960240 -0.219185 -0.172908
vn -0.960240 -0.219185 -0.172908
vn -0.960240 -0.219185 -0.172908
vn -0.837851 0.076165 -0.540560
vn -0.837851 0.076165 -0.540560
vn -0.837851 0.076165 -0.540560
vn -0.254082 0.089558 0.963027
vn -0.254082 0.089558 0.963027
vn -0.254082 0.089558 0.963027
vn -0.269578 -0.059651 -0.961129
vn -0.269578 -0.059651 -0.961129
vn -0.269578 -0.059651 -0.961129
vn 0.014997 0.075830 -0.997008
vn 0.014997 0.075830 -0.997008
vn 0.014997 0.075830 -0.997008
vn 0.014997 0.075830 -0.997008
vn 0.006532 -0.020404 0.999770
vn 0.006532 -0.020404 0.999770
vn 0.006532 -0.020404 0.999770
vn -0.046816 0.212237 0.976096
vn -0.046816 0.212237 0.976096
vn -0.046816 0.212237 0.976096
vn 0.036682 0.183396 0.982355
vn 0.036682 0.183396 0.982355
vn 0.036682 0.183396 0.982355
vn 0.983586 0.120931 0.133918
vn 0.983586 0.120931 0.133918
vn 0.983586 0.120931 0.133918
vn 0.186368 -0.958244 -0.216876
vn 0.186368 -0.958244 -0.216876
vn 0.186368 -0.958244 -0.216876
vn -0.390377 -0.710888 -0.585016
vn -0.390377 -0.710888 -0.585016
vn -0.390377 -0.710888 -0.585016
vn -0.974239 0.100794 -0.201742
vn -0.974239 0.100794 -0.201742
vn -0.974239 0.100794 -0.201742
vn -0.974239 0.100794 -0.201742
vn -0.441173 -0.136015 -0.887055
vn -0.441173 -0.136015 -0.887055
vn -0.441173 -0.136015 -0.887055
vn -0.441173 -0.136015 -0.887055
vn 0.405912 -0.877538 -0.255271
vn 0.405912 -0.877538 -0.255271
vn 0.405912 -0.877538 -0.255271
vn -0.262969 -0.054634 0.963256
vn -0.262969 -0.054634 0.963256
vn -0.262969 -0.054634 0.963256
vn -0.104156 0.043867 0.993593
vn -0.104156 0.043867 0.993593
vn -0.104156 0.043867 0.993593
vn 0.010625 -0.136879 -0.990531
vn 0.010625 -0.136879 -0.990531
vn 0.010625 -0.136879 -0.990531
vn -0.984944 0.069198 -0.158422
vn -0.984944 0.069198 -0.158422
vn -0.984944 0.069198 -0.158422
vn -0.078980 0.063656 0.994842
vn -0.078980 0.063656 0.994842
vn -0.078980 0.063656 0.994842
vn 0.932955 -0.067023 0.353700
vn 0.932955 -0.067023 0.353700
vn 0.932955 -0.067023 0.353700
vn 0.932955 -0.067023 0.353700
vn -0.019978 -0.038920 -0.999043
vn -0.019978 -0.038920 -0.999043
vn -0.019978 -0.038920 -0.999043
vn -0.019978 -0.038920 -0.999043
vn -0.038957 -0.257352 -0.965532
vn -0.038957 -0.257352 -0.965532
vn -0.038957 -0.257352 -0.965532
vn -0.038957 -0.257352 -0.965532
vn -0.793686 -0.514927 -0.323902
vn -0.793686 -0.514927 -0.323902
vn -0.793686 -0.514927 -0.323902
vn 0.286345 -0.037197 -0.957404
vn 0.286345 -0.037197 -0.957404
vn 0.286345 -0.037197 -0.957404
vn 0.854018 -0.274227 0.442100
vn 0.854018 -0.274227 0.442100
vn 0.854018 -0.274227 0.442100
vn 0.114386 -0.082756 0.989983
vn 0.114386 -0.082756 0.989983
vn 0.114386 -0.082756 0.989983
vn -0.022349 -0.162678 -0.986426
vn -0.022349 -0.162678 -0.986426
vn -0.022349 -0.162678 -0.986426
vn 0.171546 0.188808 -0.966914
vn 0.171546 0.188808 -0.966914
vn 0.171546 0.188808 -0.966914
vn 0.171546 0.188808 -0.966914
vn -0.019582 -0.278198 0.960324
vn -0.019582 -0.278198 0.960324
vn -0.019582 -0.278198 0.960324
vn 0.864877 -0.264858 0.426425
vn 0.864877 -0.264858 0.426425
vn 0.864877 -0.264858 0.426425
vn -0.982451 0.059875 -0.176650
vn -0.982451 0.059875 -0.176650
vn -0.982451 0.059875 -0.176650
vn -0.191928 0.208534 -0.958998
vn -0.191928 0.208534 -0.958998
vn -0.191928 0.208534 -0.958998
vn -0.191928 0.208534 -0.958998
vn -0.990416 0.064604 -0.122079
vn -0.990416 0.064604 -0.122079
vn -0.990416 0.064604 -0.122079
vn -0.046527 -0.015125 -0.998803
vn -0.046527 -0.015125 -0.998803
vn -0.046527 -0.015125 -0.998803
vn -0.046527 -0.015125 -0.998803
vn 0.762306 0.105050 0.638635
vn 0.762306 0.105050 0.638635
vn 0.762306 0.105050 0.638635
vn -0.000000 -0.102142 -0.994770
vn -0.000000 -0.102142 -0.994770
vn -0.000000 -0.102142 -0.994770
vn 0.893758 -0.446341 -0.044455
vn 0.893758 -0.446341 -0.044455
vn 0.893758 -0.446341 -0.044455
vn 0.893758 -0.446341 -0.044455
vn 0.016167 -0.070894 -0.997353
vn 0.016167 -0.070894 -0.997353
vn 0.016167 -0.070894 -0.997353
vn 0.016167 -0.070894 -0.997353
vn -0.918031 0.245876 0.311069
vn -0.918031 0.245876 0.311069
vn -0.918031 0.245876 0.311069
vn -0.984087 0.119328 0.131658
vn -0.984087 0.119328 0.131658
vn -0.984087 0.119328 0.131658
vn -0.998460 0.017077 -0.052790
vn -0.998460 0.017077 -0.052790
vn -0.998460 0.017077 -0.052790
vn 0.914206 0.388939 -0.113815
vn 0.914206 0.388939 -0.113815
vn 0.914206 0.388939 -0.113815
vn 0.923952 -0.208541 -0.320662
vn 0.923952 -0.208541 -0.320662
vn 0.923952 -0.208541 -0.320662
vn 0.709296 0.075600 -0.700845
vn 0.709296 0.075600 -0.700845
vn 0.709296 0.075600 -0.700845
vn 0.226781 0.090565 0.969726
vn 0.226781 0.090565 0.969726
vn 0.226781 0.090565 0.969726
vn 0.226781 0.090565 0.969726
vn 0.163553 -0.129488 -0.978000
vn 0.163553 -0.129488 -0.978000
vn 0.163553 -0.129488 -0.978000
vn -0.002799 0.105900 -0.994373
vn -0.002799 0.105900 -0.994373
vn -0.002799 0.105900 -0.994373
vn -0.002799 0.105900 -0.994373
vn -0.247831 0.232473 0.940498
vn -0.247831 0.232473 0.940498
vn -0.247831 0.232473 0.940498
vn -0.247831 0.232473 0.940498
vn 0.000347 -0.024427 0.999702
vn 0.000347 -0.024427 0.999702
vn 0.000347 -0.024427 0.999702
vn 0.121237 -0.050638 -0.991331
vn 0.121237 -0.050638 -0.991331
vn 0.121237 -0.050638 -0.991331
vn -0.179736 -0.280153 0.942979
vn -0.179736 -0.280153 0.942979
vn -0.179736 -0.280153 0.942979
vn -0.739845 -0.249699 0.624724
vn -0.739845 -0.249699 0.624724
vn -0.739845 -0.249699 0.624724
vn -0.186342 -0.958249 -0.216876
vn -0.186342 -0.958249 -0.216876
vn -0.186342 -0.958249 -0.216876
vn 0.336148 -0.757658 -0.559428
vn 0.336148 -0.757658 -0.559428
vn 0.336148 -0.757658 -0.559428
vn 0.969644 0.053303 0.238642
vn 0.969644 0.053303 0.238642
vn 0.969644 0.053303 0.238642
vn 0.705394 -0.703289 0.088344
vn 0.705394 -0.703289 0.088344
vn 0.705394 -0.703289 0.088344
vn -0.405917 -0.877531 -0.255285
vn -0.405917 -0.877531 -0.255285
vn -0.405917 -0.877531 -0.255285
vn 0.262015 -0.057163 0.963369
vn 0.262015 -0.057163 0.963369
vn 0.262015 -0.057163 0.963369
vn 0.004619 0.100059 0.994971
vn 0.004619 0.100059 0.994971
vn 0.004619 0.100059 0.994971
vn 0.009714 -0.200572 -0.979631
vn 0.009714 -0.200572 -0.979631
vn 0.009714 -0.200572 -0.979631
vn 0.992358 0.003552 0.123339
vn 0.992358 0.003552 0.123339
vn 0.992358 0.003552 0.123339
vn 0.992358 0.003552 0.123339
vn 0.142806 -0.091522 0.985510
vn 0.142806 -0.091522 0.985510
vn 0.142806 -0.091522 0.985510
vn -0.924491 -0.055622 0.377124
vn -0.924491 -0.055622 0.377124
vn -0.924491 -0.055622 0.377124
vn -0.022453 -0.109573 -0.993725
vn -0.022453 -0.109573 -0.993725
vn -0.022453 -0.109573 -0.993725
vn -0.044034 0.036979 -0.998345
vn -0.044034 0.036979 -0.998345
vn -0.044034 0.036979 -0.998345
vn 0.744948 -0.262393 -0.613354
vn 0.744948 -0.262393 -0.613354
vn 0.744948 -0.262393 -0.613354
vn -0.057508 -0.094990 -0.993816
vn -0.057508 -0.094990 -0.993816
vn -0.057508 -0.094990 -0.993816
vn -0.057508 -0.094990 -0.993816
vn -0.818247 -0.298170 0.491494
vn -0.818247 -0.298170 0.491494
vn -0.818247 -0.298170 0.491494
vn -0.018529 -0.104030 0.994402
vn -0.018529 -0.104030 0.994402
vn -0.018529 -0.104030 0.994402
vn 0.015678 -0.131702 0.991166
vn 0.015678 -0.131702 0.991166
vn 0.015678 -0.131702 0.991166
vn -0.038303 -0.013957 0.999169
vn -0.038303 -0.013957 0.999169
vn -0.038303 -0.013957 0.999169
vn -0.085264 0.075403 -0.993501
vn -0.085264 0.075403 -0.993501
vn -0.085264 0.075403 -0.993501
vn -0.085264 0.075403 -0.993501
vn 0.326305 0.158823 0.931826
vn 0.326305 0.158823 0.931826
vn 0.326305 0.158823 0.931826
vn 0.946421 0.164357 -0.277981
vn 0.946421 0.164357 -0.277981
vn 0.946421 0.164357 -0.277981
vn 0.239118 0.209076 -0.948214
vn 0.239118 0.209076 -0.948214
vn 0.239118 0.209076 -0.948214
vn -0.120278 0.480962 0.868452
vn -0.120278 0.480962 0.868452
vn -0.120278 0.480962 0.868452
vn 0.206706 -0.083387 -0.974843
vn 0.206706 -0.083387 -0.974843
vn 0.206706 -0.083387 -0.974843
vn -0.778914 0.027939 0.626508
vn -0.778914 0.027939 0.626508
vn -0.778914 0.027939 0.626508
vn 0.350169 -0.931026 0.102819
vn 0.350169 -0.931026 0.102819
vn 0.350169 -0.931026 0.102819
vn 0.009047 -0.226801 -0.973899
vn 0.009047 -0.226801 -0.973899
vn 0.009047 -0.226801 -0.973899
vn -0.045792 -0.226573 -0.972917
vn -0.045792 -0.226573 -0.972917
vn -0.045792 -0.226573 -0.972917
vn -0.445301 -0.880345 -0.163400
vn -0.445301 -0.880345 -0.163400
vn -0.445301 -0.880345 -0.163400
vn -0.004281 -0.991900 0.126949
vn -0.004281 -0.991900 0.126949
vn -0.004281 -0.991900 0.126949
vn -0.040557 -0.890963 0.452261
vn -0.040557 -0.890963 0.452261
vn -0.040557 -0.890963 0.452261
vn -0.025659 -0.903583 0.427643
vn -0.025659 -0.903583 0.427643
vn -0.025659 -0.903583 0.427643
vn 0.030456 -0.903817 0.426835
vn 0.030456 -0.903817 0.426835
vn 0.030456 -0.903817 0.426835
vn 0.048001 -0.889101 0.455187
vn 0.048001 -0.889101 0.455187
vn 0.048001 -0.889101 0.455187
vn 0.005041 -0.993096 0.117196
vn 0.005041 -0.993096 0.117196
vn 0.005041 -0.993096 0.117196
vn -0.110255 0.928603 0.354315
vn -0.110255 0.928603 0.354315
vn -0.110255 0.928603 0.354315
vn -0.110255 0.928603 0.354315
vn -0.993866 -0.104266 -0.036863
vn -0.993866 -0.104266 -0.036863
vn -0.993866 -0.104266 -0.036863
vn 0.108425 0.931688 0.346701
vn 0.108425 0.931688 0.346701
vn 0.108425 0.931688 0.346701
vn 0.108425 0.931688 0.346701
vn -0.111948 0.076365 0.990775
vn -0.111948 0.076365 0.990775
vn -0.111948 0.076365 0.990775
vn 0.107418 0.076399 0.991274
vn 0.107418 0.076399 0.991274
vn 0.107418 0.076399 0.991274
vn 0.991876 0.120143 0.041807
vn 0.991876 0.120143 0.041807
vn 0.991876 0.120143 0.041807
vn -0.278006 0.306812 -0.910263
vn -0.278006 0.306812 -0.910263
vn -0.278006 0.306812 -0.910263
vn 0.986757 0.072589 -0.145057
vn 0.986757 0.072589 -0.145057
vn 0.986757 0.072589 -0.145057
vn 0.208228 0.420757 -0.882952
vn 0.208228 0.420757 -0.882952
vn 0.208228 0.420757 -0.882952
vn 0.100048 0.655126 -0.748866
vn 0.100048 0.655126 -0.748866
vn 0.100048 0.655126 -0.748866
vn -0.117298 0.673226 -0.730074
vn -0.117298 0.673226 -0.730074
vn -0.117298 0.673226 -0.730074
vn -0.990864 -0.039657 0.128903
vn -0.990864 -0.039657 0.128903
vn -0.990864 -0.039657 0.128903
vn -0.896758 -0.399065 0.191239
vn -0.896758 -0.399065 0.191239
vn -0.896758 -0.399065 0.191239
vn -0.000000 0.539933 -0.841708
vn -0.000000 0.539933 -0.841708
vn -0.000000 0.539933 -0.841708
vn 0.999995 0.003191 -0.000000
vn 0.999995 0.003191 -0.000000
vn 0.999995 0.003191 -0.000000
vn 0.999995 0.003191 -0.000000
vn -0.003191 0.999995 0.000000
vn -0.003191 0.999995 0.000000
vn -0.003191 0.999995 0.000000
vn -0.003191 0.999995 0.000000
vn -0.999995 -0.003191 0.000000
vn -0.999995 -0.003191 0.000000
vn -0.999995 -0.003191 0.000000
vn -0.999995 -0.003191 0.000000
vn 0.003191 -0.999995 -0.000000
vn 0.003191 -0.999995 -0.000000
vn 0.003191 -0.999995 -0.000000
vn 0.003191 -0.999995 -0.000000
vn -0.000000 0.000000 -1.000000
vn -0.000000 0.000000 -1.000000
vn -0.000000 0.000000 -1.000000
vn -0.000000 0.000000 -1.000000
vn 0.000000 0.000000 1.000000
vn 0.000000 0.000000 1.000000
vn 0.000000 0.000000 1.000000
vn 0.000000 0.000000 1.000000
vn 0.999922 -0.012475 -0.000000
vn 0.999922 -0.012475 -0.000000
vn 0.999922 -0.012475 -0.000000
vn 0.999922 -0.012475 -0.000000
vn 0.012475 0.999922 -0.000000
vn 0.012475 0.999922 -0.000000
vn 0.012475 0.999922 -0.000000
vn 0.012475 0.999922 -0.000000
vn -0.999922 0.012475 0.000000
vn -0.999922 0.012475 0.000000
vn -0.999922 0.012475 0.000000
vn -0.999922 0.012475 0.000000
vn -0.012475 -0.999922 0.000000
vn -0.012475 -0.999922 0.000000
vn -0.012475 -0.999922 0.000000
vn -0.012475 -0.999922 0.000000
vn -0.000000 0.000000 -1.000000
vn -0.000000 0.000000 -1.000000
vn -0.000000 0.000000 -1.000000
vn -0.000000 0.000000 -1.000000
vn 0.000000 0.000000 1.000000
vn 0.000000 0.000000 1.000000
vn 0.000000 0.000000 1.000000
vn 0.000000 0.000000 1.000000
s off
f 3/1/1 60/2/2 19/3/3
f 3/1/4 2/4/5 59/5/6 60/2/7
f 4/6/8 5/7/9 6/8/10
f 25/9/11 12/10/12 4/6/13
f 10/11/14 9/12/15 7/13/16
f 26/14/17 8/15/18 27/16/19 30/17/20
f 7/13/21 9/12/22 8/15/23
f 9/12/24 11/18/25 8/15/26
f 30/17/27 28/19/28 26/14/29
f 7/13/30 4/6/31 6/8/32 10/11/33
f 14/20/34 27/16/35 15/21/36
f 8/15/37 11/18/38 12/10/39
f 5/7/40 12/10/41 11/18/42
f 4/6/43 12/10/44 5/7/45
f 20/22/46 18/23/47 1/24/48
f 19/3/49 18/23/50 20/22/51
f 31/25/52 24/26/53 23/27/54 21/28/55
f 19/3/56 22/29/57 21/28/58 23/27/59
f 20/22/60 1/24/61 14/20/62
f 24/26/63 14/20/64 1/24/65
f 31/25/66 14/20/67 24/26/68
f 19/3/69 20/22/70 22/29/71
f 27/16/72 31/25/73 13/30/74
f 14/20/75 31/25/76 27/16/77
f 20/22/78 14/20/79 15/21/80 16/31/81
f 20/22/82 16/31/83 17/32/84 22/29/85
f 26/14/86 25/9/87 4/6/88 7/13/89
f 7/13/90 8/15/91 26/14/92
f 28/19/93 29/33/94 25/9/95
f 15/21/96 25/9/97 29/33/98
f 8/15/99 12/10/100 27/16/101
f 28/19/102 25/9/103 26/14/104
f 16/31/105 29/33/106 28/19/107 17/32/108
f 15/21/109 27/16/110 12/10/111
f 25/9/112 15/21/113 12/10/114
f 30/17/115 27/16/116 13/30/117
f 17/32/118 28/19/119 30/17/120 13/30/121
f 13/30/122 31/25/123 21/28/124
f 22/29/125 17/32/126 13/30/127 21/28/128
f 15/21/129 29/33/130 16/31/131
f 59/5/132 2/4/133 32/34/134
f 34/35/135 48/36/136 61/37/137 33/38/138
f 33/38/139 61/37/140 59/5/141 32/34/142
f 35/39/143 37/40/144 36/41/145
f 35/39/146 38/42/147 37/40/148
f 54/43/149 35/39/150 46/44/151
f 41/45/152 52/46/153 40/47/154
f 53/48/155 55/49/156 39/50/157
f 52/46/158 39/50/159 40/47/160
f 40/47/161 39/50/162 43/51/163 42/52/164
f 53/48/165 52/46/166 56/53/167
f 52/46/168 41/45/169 38/42/170 35/39/171
f 43/51/172 36/41/173 37/40/174 42/52/175
f 45/54/176 46/44/177 55/49/178
f 52/46/179 35/39/180 54/43/181
f 46/44/182 36/41/183 43/51/184
f 35/39/185 36/41/186 46/44/187
f 49/55/188 1/24/189 18/23/190
f 48/36/191 49/55/192 18/23/193
f 58/56/194 34/35/195 64/57/196
f 48/36/197 34/35/198 50/58/199
f 49/55/200 51/59/201 1/24/202
f 64/57/203 1/24/204 51/59/205
f 58/56/206 64/57/207 51/59/208
f 48/36/209 50/58/210 49/55/211
f 44/60/212 53/48/213 34/35/214 58/56/215
f 45/54/216 44/60/217 58/56/218
f 49/55/219 46/44/220 51/59/221
f 49/55/222 50/58/223 47/61/224
f 34/35/225 53/48/226 47/61/227
f 52/46/228 53/48/229 39/50/230
f 56/53/231 52/46/232 54/43/233 57/62/234
f 46/44/235 57/62/236 54/43/237
f 39/50/238 55/49/239 43/51/240
f 46/44/241 43/51/242 55/49/243
f 51/59/244 46/44/245 45/54/246
f 49/55/247 47/61/248 56/53/249 57/62/250
f 55/49/251 44/60/252 45/54/253
f 53/48/254 44/60/255 55/49/256
f 47/61/257 53/48/258 56/53/259
f 58/56/260 51/59/261 45/54/262
f 50/58/263 34/35/264 47/61/265
f 46/44/266 49/55/267 57/62/268
f 48/36/269 18/23/270 61/37/271
f 60/2/272 59/5/273 18/23/274
f 59/5/275 61/37/276 18/23/277
f 19/3/278 60/2/279 18/23/280
f 11/18/281 9/12/282 5/7/283
f 9/12/284 10/11/285 5/7/286
f 10/11/287 6/8/288 5/7/289
f 38/42/290 41/45/291 37/40/292
f 41/45/293 40/47/294 37/40/295
f 40/47/296 42/52/297 37/40/298
f 62/63/299 24/26/300 65/64/301 66/65/302
f 24/26/303 62/63/304 23/27/305
f 64/57/306 63/66/307 66/65/308 65/64/309
f 1/24/310 65/64/311 24/26/312
f 1/24/313 64/57/314 65/64/315
f 64/57/316 34/35/317 63/66/318
f 62/63/319 2/4/320 3/1/321
f 63/66/322 34/35/323 33/38/324
f 63/66/325 33/38/326 32/34/327
f 32/34/328 66/65/329 63/66/330
f 2/4/331 62/63/332 66/65/333
f 3/1/334 23/27/335 62/63/336
f 19/3/337 23/27/338 3/1/339
f 32/34/340 2/4/341 66/65/342
f 67/71/343 68/72/344 70/73/345 69/74/346
f 69/74/347 70/73/348 72/75/349 71/76/350
f 71/76/351 72/75/352 74/77/353 73/78/354
f 73/78/355 74/77/356 68/79/357 67/80/358
f 68/72/359 74/81/360 72/82/361 70/73/362
f 73/83/363 67/71/364 69/74/365 71/84/366
f 75/85/367 76/86/368 78/87/369 77/88/370
f 77/88/371 78/87/372 80/89/373 79/90/374
f 79/90/375 80/89/376 82/91/377 81/92/378
f 81/92/379 82/91/380 76/93/381 75/94/382
f 76/86/383 82/70/384 80/69/385 78/87/386
f 81/68/387 75/85/388 77/88/389 79/67/390
