# This file uses centimeters as units for non-parametric coordinates.

v -72.108315 0.000000 38.419849
v 72.387642 0.000000 38.419849
v -72.108315 5.524055 38.419849
v -72.108315 5.524058 33.617367
v 72.387642 5.524058 33.617367
v 72.387642 0.000000 -33.517941
v -72.108315 0.000000 -33.517941
v -72.108315 74.975723 38.419849
v 72.387642 74.975723 38.419849
v 72.387642 80.000000 38.419849
v -72.108315 80.000000 -33.611271
v 72.387642 80.000000 -33.074394
v 72.387642 74.975723 33.617367
v -72.108315 74.975723 33.617367
v -66.550369 80.000000 38.419849
v -72.108315 77.406685 38.419849
v -72.108315 80.000000 26.893894
v 72.387642 5.524055 38.419849
v -70.114372 5.524056 38.419849
v -52.346657 5.524055 38.419849
v -67.578796 5.524055 36.199699
v -65.717010 3.499279 38.419849
v -67.591042 10.224051 33.617367
v -67.591042 70.275726 33.617367
v 67.870384 10.224055 33.617367
v 67.870384 70.275726 33.617367
v -2.406348 5.524058 33.617367
v 2.685683 5.524058 33.617367
v -2.406348 10.224055 33.617367
v 2.685683 10.224055 33.617367
v -2.406348 70.275726 33.617367
v 2.685683 70.275726 33.617367
v 2.685683 74.975723 33.617367
v -2.406348 74.975723 33.617367
v -67.591042 10.224055 -29.259609
v -67.591042 70.275726 -29.259609
v -2.406348 10.224055 -29.259609
v -2.406348 70.275726 -29.259609
v 2.685683 10.224055 -29.259609
v 2.685683 70.275726 -29.259609
v 67.870384 10.224055 -29.259609
v 67.870384 70.275726 -29.259609
v 72.387642 0.000000 33.601952
v -72.108315 0.000000 33.601952
v 72.387642 80.000000 33.627861
v -67.648239 37.020126 30.812489
v -2.417648 37.020126 30.812489
v -67.648239 42.061272 30.812489
v -2.417648 42.061272 30.812489
v -67.648239 42.061272 -29.296631
v -2.417648 42.061272 -29.296631
v -67.648239 37.020126 -29.296631
v -2.417648 37.020126 -29.296631
v 2.719475 37.020126 30.812489
v 67.950066 37.020126 30.812489
v 2.719475 42.061272 30.812489
v 67.950066 42.061272 30.812489
v 2.719475 42.061272 -29.296631
v 67.950066 42.061272 -29.296631
v 2.719475 37.020126 -29.296631
v 67.950066 37.020126 -29.296631
v 6.370853 60.436172 38.087753
v 6.370853 41.524841 38.087753
v 10.897339 41.524841 38.087753
v 10.897339 60.436172 38.087753
v 6.473242 60.252560 40.873196
v 6.473242 41.708454 40.873196
v 10.794950 41.708454 40.873196
v 10.794950 60.252560 40.873196
v 0.642955 73.754669 38.443161
v 71.110329 73.754669 38.443161
v 71.110329 73.754669 33.617363
v 0.642955 7.389162 33.617363
v 0.642955 73.754669 33.617363
v 50.267838 7.389162 38.443161
v 71.110329 11.417501 38.443161
v 69.209686 7.389162 37.295906
v 71.110321 7.389162 33.617363
v 71.110329 8.675091 37.295906
v 0.642955 7.389162 37.008537
v 3.124199 7.389162 38.443161
v 0.642955 26.469246 38.443161
v 2.640734 9.877869 38.443161
v 0.642955 9.877869 37.189499
v -10.537925 60.436172 38.087753
v -10.537925 41.524841 38.087753
v -6.011439 41.524841 38.087753
v -6.011439 60.436172 38.087753
v -10.435535 60.252560 40.873196
v -10.435535 41.708454 40.873196
v -6.113828 41.708454 40.873196
v -6.113828 60.252560 40.873196
v -0.181685 73.754669 33.617367
v -70.649063 73.754669 33.617367
v -70.649063 73.754669 38.443165
v -0.181685 7.389166 38.443165
v -0.181685 7.389166 33.617367
v -4.191544 73.754669 38.443165
v -0.181685 73.754669 35.952290
v -0.181685 61.754673 38.443165
v -69.698746 8.389067 33.617367
v -68.748421 7.389166 33.617367
v -70.649063 9.388968 33.617367
v -68.748421 7.389166 36.030506
v -65.372223 7.389166 38.443165
v -70.649063 9.388968 36.030506
v -70.649063 12.941313 38.443165
v -36.115170 73.754669 33.617367
v -19.337582 51.882030 33.617367
v -19.337582 51.882034 33.617367
vt 0.447959 0.037076
vt 0.448740 0.036484
vt 0.447988 0.036514
vt 0.448679 0.037116
vt 0.447997 0.036446
vt 0.448702 0.036359
vt 0.448709 0.036800
vt 0.448368 0.036465
vt 0.448729 0.036484
vt 0.448610 0.036475
vt 0.448657 0.036712
vt 0.448679 0.037116
vt 0.448740 0.036484
vt 0.448674 0.036576
vt 0.448730 0.036317
vt 0.448406 0.036467
vt 0.448012 0.036347
vt 0.447984 0.037080
vt 0.448712 0.036483
vt 0.447997 0.036446
vt 0.448333 0.036464
vt 0.448353 0.037096
vt 0.448740 0.036484
vt 0.448355 0.037096
vt 0.448403 0.036467
vt 0.448405 0.036467
vt 0.448679 0.037116
vt 0.448679 0.037116
vt 0.447997 0.036446
vt 0.448331 0.036463
vt 0.447960 0.037071
vt 0.447960 0.037071
vt 0.448286 0.037092
vt 0.448283 0.037092
vt 0.448679 0.037116
vt 0.448740 0.036484
vt 0.448405 0.036467
vt 0.448355 0.037096
vt 0.448283 0.037092
vt 0.448331 0.036463
vt 0.447997 0.036446
vt 0.447960 0.037071
vt 0.447960 0.037054
vt 0.448676 0.037094
vt 0.447999 0.036427
vt 0.447988 0.038569
vt 0.447268 0.038529
vt 0.447306 0.037899
vt 0.448049 0.037937
vt 0.447323 0.037569
vt 0.448029 0.037603
vt 0.447972 0.038215
vt 0.447287 0.038179
vt 0.447988 0.038569
vt 0.447268 0.038529
vt 0.447306 0.037899
vt 0.448049 0.037937
vt 0.447323 0.037569
vt 0.448029 0.037603
vt 0.447972 0.038215
vt 0.447287 0.038179
vt 0.448740 0.021914
vt 0.447997 0.021877
vt 0.447959 0.022506
vt 0.448679 0.022546
vt 0.448740 0.021914
vt 0.448679 0.022546
vt 0.447959 0.022506
vt 0.447997 0.021877
vt 0.448740 0.021914
vt 0.447997 0.021877
vt 0.447959 0.022506
vt 0.448679 0.022546
vt 0.447959 0.037076
vt 0.447977 0.036735
vt 0.447995 0.036430
vt 0.448038 0.036129
vt 0.447997 0.036446
vt 0.448720 0.036150
vt 0.448557 0.036634
vt 0.448013 0.036422
vt 0.447995 0.036727
vt 0.448681 0.036698
vt 0.448500 0.036842
vt 0.448675 0.037028
vt 0.448679 0.037116
vt 0.448329 0.036745
vt 0.448692 0.036456
vt 0.448740 0.021914
vt 0.447997 0.021877
vt 0.447959 0.022506
vt 0.448679 0.022546
vt 0.448740 0.021914
vt 0.448679 0.022546
vt 0.447959 0.022506
vt 0.447997 0.021877
vt 0.448740 0.021914
vt 0.447997 0.021877
vt 0.447959 0.022506
vt 0.448679 0.022546
vt 0.447959 0.037076
vt 0.447977 0.036735
vt 0.447995 0.036430
vt 0.448013 0.036139
vt 0.447997 0.036446
vt 0.448730 0.036317
vt 0.448709 0.036800
vt 0.448406 0.036467
vt 0.448679 0.037116
vt 0.448663 0.036762
vt 0.448320 0.036744
vt 0.448319 0.037096
vt 0.448510 0.037107
vt 0.448720 0.036150
vt 0.448063 0.036119
vt 0.447978 0.036726
vt 0.448013 0.036422
vt 0.447995 0.036727
vn -0.414309 0.887938 0.199785
vn -0.414309 0.887938 0.199785
vn -0.414309 0.887938 0.199785
vn -1.000000 0.000000 -0.000000
vn -1.000000 0.000000 -0.000000
vn -1.000000 0.000000 -0.000000
vn -1.000000 0.000000 -0.000000
vn 0.000000 -1.000000 -0.000001
vn 0.000000 -1.000000 -0.000001
vn 0.000000 -1.000000 -0.000001
vn 0.000000 -1.000000 -0.000001
vn 0.000000 -1.000000 -0.000001
vn 0.000000 -1.000000 -0.000001
vn -0.104441 0.689665 0.716557
vn -0.104441 0.689665 0.716557
vn -0.104441 0.689665 0.716557
vn 0.377400 0.819629 0.431019
vn 0.377400 0.819629 0.431019
vn 0.377400 0.819629 0.431019
vn 1.000000 0.000000 0.000000
vn 1.000000 0.000000 0.000000
vn 1.000000 0.000000 0.000000
vn 1.000000 0.000000 0.000000
vn 0.001858 0.002189 -0.999996
vn 0.001858 0.002189 -0.999996
vn 0.001858 0.002189 -0.999996
vn 0.001858 0.002189 -0.999996
vn 0.000000 1.000000 0.000000
vn 0.000000 1.000000 0.000000
vn 0.000000 1.000000 0.000000
vn 0.000000 1.000000 0.000000
vn -0.000000 0.000000 1.000000
vn -0.000000 0.000000 1.000000
vn -0.000000 0.000000 1.000000
vn -0.000000 0.000000 1.000000
vn -0.000000 0.000000 1.000000
vn -0.000000 0.000000 1.000000
vn -0.000000 0.000000 1.000000
vn -0.000000 0.000000 1.000000
vn -0.000000 0.000000 1.000000
vn -0.000000 0.000000 1.000000
vn -0.000000 0.000000 1.000000
vn -0.000000 1.000000 0.000001
vn -0.000000 1.000000 0.000001
vn -0.000000 1.000000 0.000001
vn -0.000000 0.000000 1.000000
vn -0.000000 0.000000 1.000000
vn -0.000000 0.000000 1.000000
vn -0.000000 0.000000 1.000000
vn -0.000000 0.000000 1.000000
vn -0.000000 0.000000 1.000000
vn -0.000000 0.000000 1.000000
vn 0.000000 0.000000 1.000000
vn 0.000000 0.000000 1.000000
vn 0.000000 0.000000 1.000000
vn 0.000000 0.000000 1.000000
vn -0.000000 0.000000 1.000000
vn -0.000000 0.000000 1.000000
vn -0.000000 0.000000 1.000000
vn -0.000000 0.000000 1.000000
vn -0.000000 1.000000 0.000001
vn -0.000000 1.000000 0.000001
vn -0.000000 1.000000 0.000001
vn -0.000000 1.000000 0.000001
vn -0.000000 1.000000 0.000001
vn -0.000000 1.000000 0.000001
vn -0.000000 0.000000 1.000000
vn -0.000000 0.000000 1.000000
vn -0.000000 0.000000 1.000000
vn -0.000000 0.000000 1.000000
vn -0.000000 0.000000 1.000000
vn -0.000000 0.000000 1.000000
vn -0.000000 0.000000 1.000000
vn -0.000000 0.000000 1.000000
vn -0.000000 0.000000 1.000000
vn -0.000000 0.000000 1.000000
vn -0.000000 0.000000 1.000000
vn -0.000000 0.000000 1.000000
vn -0.000000 0.000000 1.000000
vn -0.000000 0.000000 1.000000
vn -0.000000 0.000000 1.000000
vn -0.000000 0.000000 1.000000
vn -0.000000 0.000000 1.000000
vn -0.000000 0.000000 1.000000
vn -0.000000 0.000000 1.000000
vn -0.000000 0.000000 1.000000
vn -0.000000 0.000000 1.000000
vn -0.000000 0.000000 1.000000
vn -0.000000 0.000000 1.000000
vn -0.000000 0.000000 1.000000
vn -0.000000 0.000000 1.000000
vn -0.000000 0.000000 1.000000
vn -0.000000 0.000000 1.000000
vn -0.000000 0.000000 1.000000
vn -0.000000 0.000000 1.000000
vn -0.000000 0.000000 1.000000
vn -0.000000 0.000000 1.000000
vn -0.000000 0.000000 1.000000
vn -0.000000 0.000000 1.000000
vn -0.000000 0.000000 1.000000
vn -0.000000 0.000000 1.000000
vn -0.000000 0.000000 1.000000
vn 1.000000 0.000000 0.000000
vn 1.000000 0.000000 0.000000
vn 1.000000 0.000000 0.000000
vn 1.000000 0.000000 0.000000
vn -0.000000 1.000000 0.000000
vn -0.000000 1.000000 0.000000
vn -0.000000 1.000000 0.000000
vn -0.000000 1.000000 0.000000
vn -1.000000 0.000000 -0.000000
vn -1.000000 0.000000 -0.000000
vn -1.000000 0.000000 -0.000000
vn -1.000000 0.000000 -0.000000
vn 0.000000 -1.000000 0.000000
vn 0.000000 -1.000000 0.000000
vn 0.000000 -1.000000 0.000000
vn 0.000000 -1.000000 0.000000
vn 1.000000 0.000000 0.000000
vn 1.000000 0.000000 0.000000
vn 1.000000 0.000000 0.000000
vn 1.000000 0.000000 0.000000
vn 0.000000 1.000000 0.000000
vn 0.000000 1.000000 0.000000
vn 0.000000 1.000000 0.000000
vn 0.000000 1.000000 0.000000
vn -1.000000 0.000000 -0.000000
vn -1.000000 0.000000 -0.000000
vn -1.000000 0.000000 -0.000000
vn -1.000000 0.000000 -0.000000
vn 0.000000 -1.000000 0.000000
vn 0.000000 -1.000000 0.000000
vn 0.000000 -1.000000 0.000000
vn 0.000000 -1.000000 0.000000
vn 0.000000 -1.000000 0.000000
vn 0.000000 -1.000000 0.000000
vn 0.000000 -1.000000 0.000000
vn 0.000000 -1.000000 0.000000
vn 0.000000 -1.000000 0.000000
vn 0.000000 -1.000000 0.000000
vn 0.000000 -1.000000 0.000000
vn 0.000000 -1.000000 0.000000
vn -1.000000 0.000000 -0.000000
vn -1.000000 0.000000 -0.000000
vn -1.000000 0.000000 -0.000000
vn -1.000000 0.000000 -0.000000
vn -1.000000 -0.000001 -0.000000
vn -1.000000 -0.000001 -0.000000
vn -1.000000 -0.000001 -0.000000
vn 1.000000 0.000000 0.000000
vn 1.000000 0.000000 0.000000
vn 1.000000 0.000000 0.000000
vn 1.000000 0.000000 0.000000
vn 1.000000 0.000000 0.000000
vn 1.000000 0.000000 0.000000
vn 1.000000 0.000000 0.000000
vn 0.000000 1.000000 -0.000001
vn 0.000000 1.000000 -0.000001
vn 0.000000 1.000000 -0.000001
vn 0.000000 1.000000 -0.000001
vn 0.000000 1.000000 0.000000
vn 0.000000 1.000000 0.000000
vn 0.000000 1.000000 0.000000
vn 0.000000 1.000000 0.000000
vn -1.000000 0.000000 -0.000000
vn -1.000000 0.000000 -0.000000
vn -1.000000 0.000000 -0.000000
vn -1.000000 0.000000 -0.000000
vn -1.000000 0.000000 -0.000000
vn -1.000000 0.000000 -0.000000
vn -1.000000 0.000000 -0.000000
vn 1.000000 0.000000 0.000000
vn 1.000000 0.000000 0.000000
vn 1.000000 0.000000 0.000000
vn 1.000000 0.000000 0.000000
vn 1.000000 0.000001 0.000000
vn 1.000000 0.000001 0.000000
vn 1.000000 0.000001 0.000000
vn 0.000000 0.000000 1.000000
vn 0.000000 0.000000 1.000000
vn 0.000000 0.000000 1.000000
vn 0.000000 0.000000 1.000000
vn 0.000000 1.000000 0.000000
vn 0.000000 1.000000 0.000000
vn 0.000000 1.000000 0.000000
vn 0.000000 1.000000 0.000000
vn 0.000000 -1.000000 0.000000
vn 0.000000 -1.000000 0.000000
vn 0.000000 -1.000000 0.000000
vn 0.000000 -1.000000 0.000000
vn 1.000000 0.000000 0.000000
vn 1.000000 0.000000 0.000000
vn 1.000000 0.000000 0.000000
vn 1.000000 0.000000 0.000000
vn -1.000000 0.000000 0.000000
vn -1.000000 0.000000 0.000000
vn -1.000000 0.000000 0.000000
vn -1.000000 0.000000 0.000000
vn 0.000000 0.000000 1.000000
vn 0.000000 0.000000 1.000000
vn 0.000000 0.000000 1.000000
vn 0.000000 0.000000 1.000000
vn 0.000000 1.000000 0.000000
vn 0.000000 1.000000 0.000000
vn 0.000000 1.000000 0.000000
vn 0.000000 1.000000 0.000000
vn 0.000000 -1.000000 0.000000
vn 0.000000 -1.000000 0.000000
vn 0.000000 -1.000000 0.000000
vn 0.000000 -1.000000 0.000000
vn 1.000000 0.000000 0.000000
vn 1.000000 0.000000 0.000000
vn 1.000000 0.000000 0.000000
vn 1.000000 0.000000 0.000000
vn -1.000000 0.000000 0.000000
vn -1.000000 0.000000 0.000000
vn -1.000000 0.000000 0.000000
vn -1.000000 0.000000 0.000000
vn 0.000000 0.000000 1.000000
vn 0.000000 0.000000 1.000000
vn 0.000000 0.000000 1.000000
vn 0.000000 0.000000 1.000000
vn 0.000000 0.000000 -1.000000
vn 0.000000 0.000000 -1.000000
vn 0.000000 0.000000 -1.000000
vn 0.000000 0.000000 -1.000000
vn -0.999325 0.000000 0.036734
vn -0.999325 0.000000 0.036734
vn -0.999325 0.000000 0.036734
vn -0.999325 0.000000 0.036734
vn 0.000000 -0.997834 0.065776
vn 0.000000 -0.997835 0.065776
vn 0.000000 -0.997834 0.065776
vn 0.000000 -0.997834 0.065776
vn 0.999325 0.000000 0.036734
vn 0.999325 0.000000 0.036734
vn 0.999325 0.000000 0.036734
vn 0.999325 0.000000 0.036734
vn 0.000000 0.997835 0.065775
vn 0.000000 0.997834 0.065775
vn 0.000000 0.997835 0.065775
vn 0.000000 0.997835 0.065775
vn 1.000000 -0.000000 0.000001
vn 1.000000 -0.000000 0.000001
vn 1.000000 -0.000000 0.000001
vn 1.000000 -0.000000 0.000001
vn 1.000000 -0.000000 0.000001
vn -0.000000 0.000000 -1.000000
vn -0.000000 0.000000 -1.000000
vn -0.000000 0.000000 -1.000000
vn -0.000000 0.000000 -1.000000
vn 0.071053 -0.304078 0.949994
vn 0.071053 -0.304078 0.949994
vn 0.071053 -0.304078 0.949994
vn 0.071053 -0.304078 0.949994
vn 0.538264 -0.795567 0.278110
vn 0.538264 -0.795567 0.278110
vn 0.538264 -0.795567 0.278110
vn -0.530452 -0.063872 0.845305
vn -0.530452 -0.063872 0.845305
vn -0.530452 -0.063872 0.845305
vn 0.000000 1.000000 0.000000
vn 0.000000 1.000000 0.000000
vn 0.000000 1.000000 0.000000
vn 0.000000 1.000000 0.000000
vn -0.000000 -1.000000 0.000000
vn -0.000000 -1.000000 0.000000
vn -0.000000 -1.000000 0.000000
vn -0.000000 -1.000000 0.000000
vn -0.000000 -1.000000 0.000000
vn -0.000000 -1.000000 0.000000
vn 0.000000 0.000000 1.000000
vn 0.000000 0.000000 1.000000
vn 0.000000 0.000000 1.000000
vn 0.000000 0.000000 1.000000
vn 0.000000 0.000000 1.000000
vn 0.000000 0.000000 1.000000
vn 0.000000 0.000000 1.000000
vn -1.000000 0.000000 0.000000
vn -1.000000 0.000000 0.000000
vn -1.000000 0.000000 0.000000
vn -1.000000 0.000000 0.000000
vn -1.000000 0.000000 0.000000
vn -1.000000 0.000000 0.000000
vn -0.512932 -0.080891 0.854609
vn -0.512932 -0.080891 0.854609
vn -0.512932 -0.080891 0.854609
vn -0.512932 -0.080891 0.854609
vn 0.000000 0.000000 1.000000
vn 0.000000 0.000000 1.000000
vn 0.000000 0.000000 1.000000
vn 0.000000 0.000000 1.000000
vn 0.000000 0.000000 -1.000000
vn 0.000000 0.000000 -1.000000
vn 0.000000 0.000000 -1.000000
vn 0.000000 0.000000 -1.000000
vn -0.999325 0.000000 0.036734
vn -0.999325 0.000000 0.036734
vn -0.999325 0.000000 0.036734
vn -0.999325 0.000000 0.036734
vn 0.000000 -0.997834 0.065776
vn 0.000000 -0.997834 0.065776
vn 0.000000 -0.997834 0.065776
vn 0.000000 -0.997834 0.065776
vn 0.999325 0.000000 0.036734
vn 0.999325 0.000000 0.036734
vn 0.999325 0.000000 0.036734
vn 0.999325 0.000000 0.036734
vn 0.000000 0.997834 0.065776
vn 0.000000 0.997834 0.065776
vn 0.000000 0.997834 0.065776
vn 0.000000 0.997834 0.065776
vn -1.000000 -0.000000 0.000001
vn -1.000000 -0.000000 0.000001
vn -1.000000 -0.000000 0.000001
vn -1.000000 -0.000000 0.000001
vn -1.000000 -0.000000 0.000001
vn 0.231518 0.197719 0.952526
vn 0.231518 0.197719 0.952526
vn 0.231518 0.197719 0.952526
vn 0.000000 0.000000 -1.000000
vn 0.000000 0.000000 -1.000000
vn 0.000000 0.000000 -1.000000
vn 0.000000 0.000000 -1.000000
vn 0.000000 0.000000 -1.000000
vn 0.000000 0.000000 -1.000000
vn -0.003254 -0.046249 -0.998925
vn -0.003254 -0.046249 -0.998925
vn -0.000000 0.000000 1.000000
vn -0.000000 -0.000000 1.000000
vn -0.000000 -0.000000 1.000000
vn -0.000000 -0.000000 1.000000
vn -0.000000 -0.000000 1.000000
vn -0.000000 -0.000000 1.000000
vn 0.000000 -0.000000 -1.000000
vn 0.000000 -0.000000 -1.000000
vn 0.000000 -0.000000 -1.000000
vn 0.000000 -0.000000 -1.000000
vn 0.000000 -0.000000 -1.000000
vn -0.724849 -0.688908 -0.000000
vn -0.724849 -0.688908 -0.000000
vn -0.724849 -0.688908 -0.000000
vn -0.724849 -0.688908 -0.000000
vn 0.000000 0.000000 -1.000000
vn 0.000000 0.000000 -1.000000
vn 0.000000 0.000000 -1.000000
vn -0.508885 -0.483652 0.712121
vn -0.508885 -0.483652 0.712121
vn -0.508885 -0.483652 0.712121
vn -0.508885 -0.483652 0.712121
vn 1.000000 0.000000 0.000000
vn 1.000000 0.000000 0.000000
vn 1.000000 0.000000 0.000000
vn 1.000000 0.000000 0.000000
vn 1.000000 0.000000 0.000000
vn 0.000000 -1.000000 -0.000000
vn 0.000000 -1.000000 -0.000000
vn 0.000000 -1.000000 -0.000000
vn 0.000000 -1.000000 -0.000000
vn 0.000000 -1.000000 -0.000000
vn -0.000000 1.000000 0.000000
vn -0.000000 1.000000 0.000000
vn -0.000000 1.000000 0.000000
vn -0.000000 1.000000 0.000000
vn 0.000000 -0.000002 -1.000000
vn 0.000000 -0.000002 -1.000000
vn 0.000000 0.000000 -1.000000
vn 0.000000 0.000000 -1.000000
vn -0.000000 1.000000 0.000000
vn -0.000000 1.000000 0.000000
vn -0.000000 1.000000 0.000000
vn -0.000000 1.000000 0.000000
s off
f 17/15/1 16/7/2 15/16/3
f 4/2/4 14/27/5 11/6/6 7/14/7
f 14/27/8 34/22/9 33/33/10 13/32/11 9/18/12 8/4/13
f 21/19/14 22/11/15 20/10/16
f 19/9/17 22/11/18 21/19/19
f 13/32/20 5/20/21 6/3/22 12/17/23
f 6/3/24 7/14/25 11/6/26 12/17/27
f 3/13/28 19/9/29 21/19/30 4/2/31
f 1/12/32 2/1/33 22/11/34
f 22/11/35 2/1/36 18/8/37 20/10/38
f 1/12/39 22/11/40 19/9/41 3/13/42
f 5/20/43 20/10/44 18/8/45
f 10/5/46 15/16/47 9/18/48
f 9/18/49 15/16/50 16/7/51 8/4/52
f 14/27/53 4/2/54 23/23/55 24/28/56
f 5/20/57 13/32/58 26/31/59 25/29/60
f 28/21/61 27/25/62 4/2/63 21/19/64 20/10/65 5/20/66
f 27/25/67 28/21/68 30/30/69 29/26/70
f 29/26/71 30/30/72 32/34/73 31/24/74
f 31/24/75 32/34/76 33/33/77 34/22/78
f 36/35/79 35/36/80 37/37/81 38/38/82
f 4/2/83 27/25/84 29/26/85 23/23/86
f 31/24/87 34/22/88 14/27/89 24/28/90
f 30/30/91 28/21/92 5/20/93 25/29/94
f 40/39/95 39/40/96 41/41/97 42/42/98
f 13/32/99 33/33/100 32/34/101 26/31/102
f 24/28/103 23/23/104 35/36/105 36/35/106
f 23/23/107 29/26/108 37/37/109 35/36/110
f 29/26/111 31/24/112 38/38/113 37/37/114
f 31/24/115 24/28/116 36/35/117 38/38/118
f 32/34/119 30/30/120 39/40/121 40/39/122
f 30/30/123 25/29/124 41/41/125 39/40/126
f 25/29/127 26/31/128 42/42/129 41/41/130
f 26/31/131 32/34/132 40/39/133 42/42/134
f 43/43/135 44/44/136 7/14/137 6/3/138
f 1/12/139 44/44/140 43/43/141 2/1/142
f 3/13/143 4/2/144 44/44/145 1/12/146
f 4/2/147 7/14/148 44/44/149
f 2/1/150 43/43/151 5/20/152 18/8/153
f 43/43/154 6/3/155 5/20/156
f 45/45/157 17/15/158 15/16/159 10/5/160
f 12/17/161 11/6/162 17/15/163 45/45/164
f 11/6/165 14/27/166 17/15/167
f 14/27/168 8/4/169 16/7/170 17/15/171
f 9/18/172 13/32/173 45/45/174 10/5/175
f 13/32/176 12/17/177 45/45/178
f 46/46/179 47/47/180 49/48/181 48/49/182
f 48/49/183 49/48/184 51/50/185 50/51/186
f 52/52/187 53/53/188 47/47/189 46/46/190
f 47/47/191 53/53/192 51/50/193 49/48/194
f 52/52/195 46/46/196 48/49/197 50/51/198
f 54/54/199 55/55/200 57/56/201 56/57/202
f 56/57/203 57/56/204 59/58/205 58/59/206
f 60/60/207 61/61/208 55/55/209 54/54/210
f 55/55/211 61/61/212 59/58/213 57/56/214
f 60/60/215 54/54/216 56/57/217 58/59/218
f 66/62/219 67/63/220 68/64/221 69/65/222
f 62/66/223 65/67/224 64/68/225 63/69/226
f 62/70/227 63/71/228 67/63/229 66/62/230
f 63/71/231 64/72/232 68/64/233 67/63/234
f 64/72/235 65/73/236 69/65/237 68/64/238
f 65/73/239 62/70/240 66/62/241 69/65/242
f 71/74/243 76/75/244 79/76/245 78/77/246 72/78/247
f 73/79/248 74/80/249 72/78/250 78/77/251
f 77/81/252 79/76/253 76/75/254 75/82/255
f 77/81/256 78/77/257 79/76/258
f 84/83/259 83/84/260 82/85/261
f 70/86/262 71/74/263 72/78/264 74/80/265
f 73/79/266 78/77/267 77/81/268 75/82/269 81/87/270 80/88/271
f 76/75/272 71/74/273 70/86/274 82/85/275 83/84/276 81/87/277 75/82/278
f 70/86/279 74/80/280 73/79/281 80/88/282 84/83/283 82/85/284
f 81/87/285 83/84/286 84/83/287 80/88/288
f 89/89/289 90/90/290 91/91/291 92/92/292
f 85/93/293 88/94/294 87/95/295 86/96/296
f 85/97/297 86/98/298 90/90/299 89/89/300
f 86/98/301 87/99/302 91/91/303 90/90/304
f 87/99/305 88/100/306 92/92/307 91/91/308
f 88/100/309 85/97/310 89/89/311 92/92/312
f 94/101/313 103/102/314 106/103/315 107/104/316 95/105/317
f 100/106/318 99/107/319 98/108/320
f 93/109/321 97/110/322 109/111/323 110/112/324
f 110/112/325 94/101/326 108/113/327 93/109/328
f 96/114/329 100/106/330 98/108/331 95/105/332 107/104/333 105/115/334
f 101/116/335 103/102/336 94/101/337 110/112/338 109/111/339
f 104/117/340 106/103/341 103/102/342 102/118/343
f 101/116/344 102/118/345 103/102/346
f 104/117/347 105/115/348 107/104/349 106/103/350
f 93/109/351 99/107/352 100/106/353 96/114/354 97/110/355
f 96/114/356 105/115/357 104/117/358 102/118/359 97/110/360
f 95/105/361 98/108/362 108/113/363 94/101/364
f 109/111/365 97/110/366 102/118/367 101/116/368
f 108/113/369 98/108/370 99/107/371 93/109/372
