# This file uses centimeters as units for non-parametric coordinates.

v -10.622446 2.379381 54.772411
v 13.968895 -0.000038 54.455360
v -10.207287 3.620054 54.258068
v 13.500818 1.259578 54.042320
v -13.501074 1.259578 -53.596073
v 12.208467 1.259578 -52.909718
v -13.968980 -0.000038 -54.009113
v 12.676544 -0.000038 -53.322762
v -7.122400 3.475891 48.699314
v 9.008389 1.259578 49.541748
v 7.716039 1.259578 -48.409210
v -9.008645 1.259578 -49.095566
v -9.510485 -0.000038 -49.508583
v 8.217964 -0.000038 -48.822231
v 9.510314 -0.000038 49.954788
v -7.570136 2.237175 49.222950
v -0.000043 -0.000038 61.679176
v -0.000043 -0.000038 55.303429
v -0.000043 -0.000038 -54.857224
v -0.000043 -0.000038 -61.232929
v -0.000043 1.259578 -60.764874
v -0.000043 1.259578 -54.399742
v -0.000043 1.259578 54.845989
v -0.000043 1.259578 61.211098
v -16.028559 1.259578 24.880028
v -16.028559 1.259578 -24.433716
v -11.265803 1.259578 -24.433760
v -11.265803 1.259578 24.879963
v -0.000178 1.259578 -24.433760
v -0.000178 1.259578 24.879963
v 11.265486 1.259578 24.879963
v 11.265486 1.259578 -24.433760
v 16.028202 1.259578 -24.433716
v 16.028202 1.259578 24.880028
v 16.594067 -0.000038 -24.433760
v 16.594067 -0.000038 24.879986
v 11.901963 -0.000038 -24.433760
v 11.901963 -0.000038 24.879963
v -0.000041 -0.000038 24.879963
v -0.000041 -0.000038 -24.433760
v -11.902184 -0.000038 24.879963
v -11.902184 -0.000038 -24.433760
v -16.594196 -0.000038 -24.433760
v -16.594196 -0.000038 24.879986
v -7.762550 1.259578 44.208508
v -12.192269 1.259578 49.123787
v -12.706373 -0.000038 49.136646
v -5.280381 1.259578 51.736942
v -7.608157 1.259578 57.171341
v -7.785058 -0.000038 57.653278
v -8.252598 -0.000038 44.968170
v -4.859042 -0.000038 52.570744
v -0.000172 1.259578 -26.377398
v 10.256393 1.259578 -28.838829
v 14.832807 1.259578 -31.235281
v 15.397882 -0.000038 -31.083599
v 10.759941 -0.000038 -30.054304
v -0.000041 -0.000038 -27.614805
v -0.000041 0.526630 -26.275953
v 11.032920 1.613935 -27.192316
v 15.690083 1.613935 -27.791651
v 15.160477 2.873551 -27.454426
v 10.478978 2.873551 -26.406811
v -0.000175 1.786245 -25.107952
vt 0.132015 0.159642
vt 0.131081 0.159258
vt 0.131030 0.159461
vt 0.132030 0.159433
vt 0.132022 0.159540
vt 0.132022 0.159540
vt 0.131055 0.159360
vt 0.131055 0.159360
vt 0.131057 0.159357
vt 0.131057 0.159357
vt 0.132022 0.159537
vt 0.132022 0.159537
vt 0.131793 0.159389
vt 0.137663 0.424977
vt 0.137910 0.424993
vt 0.137909 0.425125
vt 0.131279 0.159502
vt 0.131766 0.159601
vt 0.137659 0.425130
vt 0.137906 0.425130
vt 0.138152 0.424991
vt 0.137908 0.424991
vt 0.131319 0.159302
vt 0.137414 0.425043
vt 0.137659 0.425124
vt 0.137410 0.425116
vt 0.137690 0.425053
vt 0.137407 0.425121
vt 0.131298 0.159512
vt 0.131033 0.159456
vt 0.131079 0.159258
vt 0.131338 0.159306
vt 0.131299 0.159506
vt 0.131033 0.159456
vt 0.131081 0.159258
vt 0.131318 0.159302
vt 0.131030 0.159461
vt 0.131278 0.159508
vt 0.131339 0.159306
vt 0.131079 0.159258
vt 0.131773 0.159385
vt 0.132030 0.159432
vt 0.138128 0.425066
vt 0.138407 0.425149
vt 0.138158 0.425141
vt 0.132015 0.159642
vt 0.131769 0.159595
vt 0.132014 0.159648
vt 0.131749 0.159592
vt 0.131746 0.159597
vt 0.132014 0.159648
vt 0.138404 0.425077
vt 0.138154 0.425146
vt 0.138406 0.425154
vt 0.132030 0.159433
vt 0.131790 0.159389
vt 0.131771 0.159385
vt 0.132030 0.159432
vt 0.138124 0.425068
vt 0.138401 0.424999
vt 0.137414 0.424967
vt 0.137411 0.425044
vt 0.137663 0.424975
vt 0.137691 0.425052
vt 0.137417 0.424969
vt 0.138402 0.425001
vt 0.138405 0.425075
vt 0.138156 0.424993
vt 0.131977 0.159423
vt 0.138347 0.424999
vt 0.131985 0.159424
vt 0.131982 0.159424
vt 0.138403 0.425032
vt 0.132027 0.159476
vt 0.132027 0.159478
vt 0.132027 0.159480
vt 0.131981 0.159423
vt 0.138350 0.424998
vt 0.132026 0.159485
vt 0.138402 0.425037
vt 0.137678 0.425051
vt 0.137615 0.425123
vt 0.131235 0.159494
vt 0.131237 0.159494
vt 0.131238 0.159501
vt 0.137602 0.425128
vt 0.131223 0.159498
vt 0.137666 0.425053
vt 0.137678 0.425053
vt 0.137631 0.425129
vt 0.131251 0.159503
vt 0.131268 0.159506
vt 0.131272 0.159501
vt 0.137639 0.425124
vt 0.131259 0.159498
vt 0.137684 0.425052
vn 0.431492 0.368214 0.823549
vn 0.431492 0.368214 0.823549
vn 0.431492 0.368214 0.823549
vn 0.431492 0.368214 0.823549
vn 0.497764 0.367284 -0.785706
vn 0.497764 0.367284 -0.785706
vn 0.497764 0.367284 -0.785706
vn 0.497764 0.367284 -0.785706
vn 0.000000 1.000000 0.000000
vn 0.000000 1.000000 0.000000
vn 0.000000 1.000000 0.000000
vn 0.000000 1.000000 0.000000
vn 0.000000 1.000000 0.000000
vn 0.000000 1.000000 0.000000
vn 0.000000 1.000000 0.000000
vn 0.000000 1.000000 0.000000
vn 0.000000 -1.000000 0.000000
vn 0.000000 -1.000000 0.000000
vn 0.000000 -1.000000 0.000000
vn 0.000000 -1.000000 0.000000
vn 0.000000 -1.000000 0.000000
vn 0.000000 -1.000000 0.000000
vn 0.000000 -1.000000 0.000000
vn 0.000000 -1.000000 0.000000
vn 0.000000 -1.000000 -0.000000
vn 0.000000 -1.000000 -0.000000
vn 0.000000 -1.000000 -0.000000
vn 0.000000 -1.000000 -0.000000
vn 0.000000 -1.000000 0.000000
vn 0.000000 -1.000000 0.000000
vn 0.000000 -1.000000 0.000000
vn 0.000000 -1.000000 0.000000
vn -0.431496 0.368183 -0.823561
vn -0.431496 0.368183 -0.823561
vn -0.431496 0.368183 -0.823561
vn -0.431496 0.368183 -0.823561
vn 0.000000 1.000000 0.000000
vn 0.000000 1.000000 0.000000
vn 0.000000 1.000000 0.000000
vn 0.000000 1.000000 0.000000
vn 0.000000 1.000000 0.000000
vn 0.000000 1.000000 0.000000
vn 0.000000 1.000000 0.000000
vn 0.000000 1.000000 0.000000
vn -0.435762 0.344215 0.831642
vn -0.435762 0.344215 0.831642
vn -0.435762 0.344215 0.831642
vn -0.435762 0.344215 0.831642
vn -0.912244 0.409647 0.000000
vn -0.912244 0.409647 0.000000
vn -0.912244 0.409647 0.000000
vn -0.912244 0.409647 0.000000
vn 0.000000 1.000000 0.000000
vn 0.000000 1.000000 0.000000
vn 0.000000 1.000000 0.000000
vn 0.000000 1.000000 0.000000
vn 0.000000 1.000000 0.000000
vn 0.000000 1.000000 0.000000
vn 0.000000 1.000000 0.000000
vn 0.000000 1.000000 0.000000
vn 0.000000 1.000000 0.000000
vn 0.000000 1.000000 0.000000
vn 0.000000 1.000000 0.000000
vn 0.000000 1.000000 0.000000
vn 0.000000 1.000000 0.000000
vn 0.000000 1.000000 0.000000
vn 0.000000 1.000000 0.000000
vn 0.000000 1.000000 0.000000
vn 0.912182 0.409786 0.000000
vn 0.912182 0.409786 0.000000
vn 0.912182 0.409786 0.000000
vn 0.912182 0.409786 0.000000
vn 0.000000 -1.000000 0.000000
vn 0.000000 -1.000000 0.000000
vn 0.000000 -1.000000 0.000000
vn 0.000000 -1.000000 0.000000
vn 0.000000 -1.000000 0.000000
vn 0.000000 -1.000000 0.000000
vn 0.000000 -1.000000 0.000000
vn 0.000000 -1.000000 0.000000
vn 0.000000 -1.000000 0.000000
vn 0.000000 -1.000000 0.000000
vn 0.000000 -1.000000 0.000000
vn 0.000000 -1.000000 0.000000
vn 0.000000 -1.000000 0.000000
vn 0.000000 -1.000000 0.000000
vn 0.000000 -1.000000 0.000000
vn 0.000000 -1.000000 0.000000
vn 0.000000 1.000000 0.000000
vn 0.000000 1.000000 0.000000
vn 0.000000 1.000000 0.000000
vn 0.000000 1.000000 0.000000
vn 0.000000 -1.000000 0.000000
vn 0.000000 -1.000000 0.000000
vn 0.000000 -1.000000 0.000000
vn 0.000000 -1.000000 0.000000
vn 0.915344 0.386950 -0.111426
vn 0.915344 0.386950 -0.111426
vn 0.915344 0.386950 -0.111426
vn 0.915344 0.386950 -0.111426
vn -0.917463 0.389596 -0.080483
vn -0.917463 0.389596 -0.080483
vn -0.917463 0.389596 -0.080483
vn -0.917463 0.389596 -0.080483
vn 0.000000 1.000000 -0.000000
vn 0.000000 1.000000 -0.000000
vn 0.000000 1.000000 -0.000000
vn 0.000000 1.000000 -0.000000
vn 0.000000 1.000000 0.000000
vn 0.000000 1.000000 0.000000
vn 0.000000 1.000000 0.000000
vn 0.000000 1.000000 0.000000
vn 0.000000 -1.000000 0.000000
vn 0.000000 -1.000000 0.000000
vn 0.000000 -1.000000 0.000000
vn 0.000000 -1.000000 0.000000
vn 0.000000 -1.000000 0.000000
vn 0.000000 -1.000000 0.000000
vn 0.000000 -1.000000 0.000000
vn 0.000000 -1.000000 0.000000
vn -0.403020 0.864262 -0.301043
vn -0.403020 0.864262 -0.301043
vn -0.403020 0.864262 -0.301043
vn -0.403020 0.864262 -0.301043
vn 0.000000 1.000000 0.000000
vn 0.000000 1.000000 0.000000
vn 0.000000 1.000000 0.000000
vn 0.000000 1.000000 0.000000
vn 0.000000 1.000000 -0.000000
vn 0.000000 1.000000 -0.000000
vn 0.000000 1.000000 -0.000000
vn 0.000000 1.000000 -0.000000
vn 0.917412 0.389717 0.080477
vn 0.917412 0.389717 0.080477
vn 0.917412 0.389717 0.080477
vn 0.917412 0.389717 0.080477
vn 0.000000 -1.000000 0.000000
vn 0.000000 -1.000000 0.000000
vn 0.000000 -1.000000 0.000000
vn 0.000000 -1.000000 0.000000
vn 0.000000 -1.000000 0.000000
vn 0.000000 -1.000000 0.000000
vn 0.000000 -1.000000 0.000000
vn 0.000000 -1.000000 0.000000
vn 0.376223 -0.875444 0.303403
vn 0.376223 -0.875444 0.303403
vn 0.376223 -0.875444 0.303403
vn 0.376223 -0.875444 0.303403
vn -0.909468 0.375608 0.178291
vn -0.909468 0.375608 0.178291
vn -0.909468 0.375608 0.178291
vn -0.909468 0.375608 0.178291
vn 0.000000 -1.000000 0.000000
vn 0.000000 -1.000000 0.000000
vn 0.000000 -1.000000 0.000000
vn 0.000000 -1.000000 -0.000000
vn 0.000000 -1.000000 -0.000000
vn 0.000000 -1.000000 -0.000000
vn 0.000000 -1.000000 -0.000000
vn 0.000000 1.000000 -0.000000
vn 0.000000 1.000000 -0.000000
vn 0.000000 1.000000 -0.000000
vn 0.000000 1.000000 -0.000000
vn 0.000000 1.000000 -0.000000
vn 0.000000 1.000000 -0.000000
vn 0.000000 1.000000 -0.000000
vn 0.000000 1.000000 0.000000
vn 0.000000 1.000000 0.000000
vn 0.000000 1.000000 0.000000
vn 0.000000 1.000000 -0.000000
vn 0.000000 1.000000 -0.000000
vn 0.000000 1.000000 -0.000000
vn 0.000000 1.000000 -0.000000
vn -0.909183 0.390411 0.144795
vn -0.909183 0.390411 0.144795
vn -0.909183 0.390411 0.144795
vn -0.909183 0.390411 0.144795
vn -0.648617 0.715153 -0.260486
vn -0.648617 0.715153 -0.260486
vn -0.648617 0.715153 -0.260486
vn 0.517777 0.819928 0.244184
vn 0.517777 0.819928 0.244184
vn 0.517777 0.819928 0.244184
vn 0.517777 0.819928 0.244184
vn -0.464174 0.420537 0.779546
vn -0.464174 0.420537 0.779546
vn -0.464174 0.420537 0.779546
vn -0.464174 0.420537 0.779546
vn 0.000000 -1.000000 -0.000000
vn 0.000000 -1.000000 -0.000000
vn 0.000000 -1.000000 -0.000000
vn 0.000000 -1.000000 -0.000000
vn 0.000000 -1.000000 0.000000
vn 0.000000 -1.000000 0.000000
vn 0.000000 -1.000000 0.000000
vn -0.447378 -0.861531 -0.240036
vn -0.447378 -0.861531 -0.240036
vn -0.447378 -0.861531 -0.240036
vn -0.447378 -0.861531 -0.240036
vn -0.558612 -0.823617 -0.098022
vn -0.558612 -0.823617 -0.098022
vn -0.558612 -0.823617 -0.098022
vn 0.652478 -0.708818 0.268048
vn 0.652478 -0.708818 0.268048
vn 0.652478 -0.708818 0.268048
vn 0.666677 0.733732 0.131072
vn 0.666677 0.733732 0.131072
vn 0.666677 0.733732 0.131072
vn 0.000000 0.788050 0.615612
vn 0.000000 0.788050 0.615612
vn 0.000000 0.788050 0.615612
vn -0.001300 0.777395 0.629012
vn -0.001300 0.777395 0.629012
vn -0.001300 0.777395 0.629012
vn -0.001300 0.777395 0.629012
vn 0.058585 0.847118 0.528166
vn 0.058585 0.847118 0.528166
vn 0.058585 0.847118 0.528166
vn 0.058585 0.847118 0.528166
vn 0.913498 0.403838 -0.049366
vn 0.913498 0.403838 -0.049366
vn 0.913498 0.403838 -0.049366
vn 0.913498 0.403838 -0.049366
vn -0.029478 -0.887513 -0.459839
vn -0.029478 -0.887513 -0.459839
vn -0.029478 -0.887513 -0.459839
vn -0.029478 -0.887513 -0.459839
vn 0.025870 -0.904483 -0.425725
vn 0.025870 -0.904483 -0.425725
vn 0.025870 -0.904483 -0.425725
vn 0.025870 -0.904483 -0.425725
vn 0.000000 -0.961479 -0.274879
vn 0.000000 -0.961479 -0.274879
vn 0.000000 -0.961479 -0.274879
vn 0.097373 -0.926166 0.364329
vn 0.097373 -0.926166 0.364329
vn 0.097373 -0.926166 0.364329
vn 0.112886 -0.888242 0.445290
vn 0.112886 -0.888242 0.445290
vn 0.112886 -0.888242 0.445290
vn 0.112886 -0.888242 0.445290
vn 0.080114 -0.885729 0.457237
vn 0.080114 -0.885729 0.457237
vn 0.080114 -0.885729 0.457237
vn 0.080114 -0.885729 0.457237
vn 0.878482 0.400873 -0.259945
vn 0.878482 0.400873 -0.259945
vn 0.878482 0.400873 -0.259945
vn 0.878482 0.400873 -0.259945
vn -0.164875 0.881132 -0.443197
vn -0.164875 0.881132 -0.443197
vn -0.164875 0.881132 -0.443197
vn -0.164875 0.881132 -0.443197
vn -0.134034 0.861321 -0.490062
vn -0.134034 0.861321 -0.490062
vn -0.134034 0.861321 -0.490062
vn -0.134034 0.861321 -0.490062
vn -0.065971 0.921649 -0.382375
vn -0.065971 0.921649 -0.382375
vn -0.065971 0.921649 -0.382375
s off
f 24/12/1 17/5/2 2/48/3 4/46/4
f 20/8/5 21/9/6 6/30/7 8/37/8
f 23/11/9 24/12/10 4/46/11 10/1/12
f 6/30/13 21/9/14 22/10/15 11/34/16
f 19/7/17 20/8/18 8/37/19 14/3/20
f 2/48/21 17/5/22 18/6/23 15/51/24
f 18/6/25 17/5/26 50/76/27 52/79/28
f 7/31/29 20/8/30 19/7/31 13/40/32
f 5/35/33 21/9/34 20/8/35 7/31/36
f 22/10/37 21/9/38 5/35/39 12/2/40
f 48/74/41 49/75/42 24/12/43 23/11/44
f 49/75/45 50/76/46 17/5/47 24/12/48
f 25/41/49 26/32/50 43/39/51 44/57/52
f 26/32/53 25/41/54 28/13/55 27/36/56
f 27/14/57 28/15/58 30/43/59 29/64/60
f 29/64/61 30/43/62 31/16/63 32/25/64
f 32/17/65 31/47/66 34/49/67 33/33/68
f 33/33/69 34/49/70 36/50/71 35/29/72
f 35/29/73 36/50/74 38/18/75 37/38/76
f 37/19/77 38/20/78 39/59/79 40/27/80
f 40/27/81 39/59/82 41/21/83 42/22/84
f 42/23/85 41/56/86 44/57/87 43/39/88
f 22/24/89 53/81/90 54/82/91 11/26/92
f 57/86/93 58/88/94 19/62/95 14/28/96
f 55/84/97 56/85/98 8/37/99 6/30/100
f 7/31/101 43/39/102 26/32/103 5/35/104
f 54/83/105 55/84/106 6/30/107 11/34/108
f 5/35/109 26/32/110 27/36/111 12/2/112
f 8/37/113 56/85/114 57/87/115 14/3/116
f 42/23/117 43/39/118 7/31/119 13/40/120
f 45/69/121 46/71/122 3/58/123 9/42/124
f 30/43/125 23/67/126 10/44/127 31/45/128
f 4/46/129 34/49/130 31/47/131 10/1/132
f 2/48/133 36/50/134 34/49/135 4/46/136
f 38/18/137 36/50/138 2/48/139 15/51/140
f 18/52/141 39/59/142 38/53/143 15/54/144
f 1/55/145 47/72/146 51/77/147 16/4/148
f 46/71/149 47/72/150 1/55/151 3/58/152
f 52/80/153 39/59/154 18/52/155
f 13/61/156 19/62/157 58/88/158 42/63/159
f 27/14/160 53/81/161 22/24/162 12/65/163
f 30/43/164 48/73/165 23/67/166
f 45/70/167 30/43/168 28/68/169
f 28/13/170 25/41/171 46/71/172 45/69/173
f 25/41/174 44/57/175 47/72/176 46/71/177
f 9/66/178 30/43/179 45/70/180
f 3/58/181 49/75/182 48/74/183 9/42/184
f 1/55/185 50/76/186 49/75/187 3/58/188
f 51/77/189 47/72/190 44/57/191 41/56/192
f 41/21/193 39/59/194 51/78/195
f 52/79/196 50/76/197 1/55/198 16/4/199
f 16/60/200 39/59/201 52/80/202
f 51/78/203 39/59/204 16/60/205
f 9/66/206 48/73/207 30/43/208
f 27/14/209 29/64/210 64/96/211
f 63/94/212 64/96/213 29/64/214 32/25/215
f 32/17/216 33/33/217 62/93/218 63/95/219
f 33/33/220 35/29/221 61/92/222 62/93/223
f 60/91/224 61/92/225 35/29/226 37/38/227
f 40/27/228 59/89/229 60/90/230 37/19/231
f 42/63/232 59/89/233 40/27/234
f 42/63/235 58/88/236 59/89/237
f 60/90/238 59/89/239 58/88/240 57/86/241
f 57/87/242 56/85/243 61/92/244 60/91/245
f 62/93/246 61/92/247 56/85/248 55/84/249
f 63/95/250 62/93/251 55/84/252 54/83/253
f 54/82/254 53/81/255 64/96/256 63/94/257
f 27/14/258 64/96/259 53/81/260
