# This file uses centimeters as units for non-parametric coordinates.

v -49.074356 0.214554 124.879875
v 49.074356 0.214554 124.879875
v -48.671837 1.330141 124.129677
v 48.328747 1.330141 124.624794
v -48.325375 1.330141 -124.524315
v 48.343990 1.330141 -124.686745
v -49.074356 0.214554 -124.915581
v 49.074356 0.214554 -124.915581
v -50.557056 2.114354 115.577034
v 50.557056 2.114354 115.577034
v 50.557056 0.000000 115.577141
v -50.557056 0.000000 115.577141
v -49.910641 1.330141 117.109390
v 49.910641 1.330141 117.109390
v 49.910641 0.214554 117.109489
v -49.910641 0.214554 117.109489
v -50.557056 0.000000 -114.495018
v 50.557056 -0.000000 -114.495018
v 50.557056 2.114354 -114.495102
v -50.557056 2.114354 -114.495102
v -49.910641 0.214554 -115.664207
v 49.910641 0.214554 -115.664207
v 49.910641 1.330141 -115.664276
v -49.910641 1.330141 -115.664276
v -50.557056 2.114354 50.706177
v 50.557056 2.114354 50.706177
v 50.557056 0.000000 50.706284
v -50.557056 0.000000 50.706284
v -50.557056 0.000000 0.701402
v 50.557056 0.000000 0.701402
v 50.557056 2.114354 0.701303
v -50.557056 2.114354 0.701303
v -50.557056 0.000000 -49.563812
v 50.557056 0.000000 -49.563812
v 50.557056 2.114354 -49.563904
v -50.557056 2.114354 -49.563904
v -24.760950 1.330141 117.109390
v -24.825640 0.214554 117.109489
v -19.918682 1.330140 -124.725868
v -17.731609 1.330140 -124.668655
v -18.224028 0.214554 -124.915581
v -19.446404 0.214554 -124.915581
v -19.686615 1.330141 -120.109467
v -19.480301 0.214554 -119.969345
v -39.701637 1.330140 -124.915573
v -42.873207 1.330140 -124.767853
v -42.385979 0.214554 -124.915581
v -40.412422 0.214554 -124.915581
v -42.118931 0.214554 -120.081375
v -40.927357 0.214554 -119.559509
v -44.610870 1.370027 -115.604813
v -41.912140 1.330141 -120.610886
v -40.173241 1.330141 -120.012466
v 29.462166 0.214554 -124.915573
v 27.433475 0.214554 -124.915573
v 31.199875 0.214554 -120.456787
v 29.921368 0.214554 -120.124130
v 30.408184 1.342627 -115.645660
v 31.825645 1.330141 -119.786278
v 29.657856 1.330141 -119.511024
v 30.612694 1.330141 -124.453941
v 26.935772 1.330141 -124.915573
v 30.399887 0.211139 -115.645599
v -44.906158 0.206492 -115.671356
v 8.421220 1.330141 -119.771873
v 5.976116 1.330141 -123.066765
v 4.884331 0.214554 -124.915581
v 5.796606 0.214554 -120.048538
v 32.745781 0.214554 120.163582
v -38.998360 0.214554 121.000252
v 32.539261 1.330141 120.134155
v -38.884552 1.330141 120.934586
v 13.346951 1.330141 120.396873
v 19.447712 1.330141 123.479279
v 19.638636 0.214554 124.879875
v 13.836316 0.214554 120.469742
v -38.630844 0.214554 124.879875
v -39.410370 0.214554 124.879875
v -39.637138 1.330141 124.915581
v -37.863113 1.330141 124.300682
v 33.276497 0.214554 124.879875
v 34.078743 0.214554 124.879875
v 32.280106 1.330141 124.879875
v 34.521702 1.330141 124.603546
v -23.662464 1.330140 124.777489
v -26.612404 1.330140 124.603951
v -25.354849 1.330141 120.922035
v -22.729990 1.330141 121.108459
v -24.428410 0.214554 124.879875
v -26.050907 0.214554 124.879875
v -24.712345 0.214554 121.093689
v -23.038738 0.214554 121.085114
vt 0.196659 0.305458
vt 0.641373 0.140862
vt 0.641373 0.249557
vt 0.641451 0.249557
vt 0.641451 0.140862
vt 0.641450 0.140862
vt 0.641450 0.249557
vt 0.641373 0.249557
vt 0.641373 0.140862
vt 0.196220 0.305425
vt 0.196664 0.305418
vt 0.196224 0.305431
vt 0.196221 0.305424
vt 0.196663 0.305416
vt 0.571732 0.140862
vt 0.571638 0.249557
vt 0.571638 0.249557
vt 0.571638 0.140862
vt 0.571732 0.140862
vt 0.571638 0.140862
vt 0.571732 0.249557
vt 0.571732 0.249557
vt 0.625486 0.140862
vt 0.625473 0.249557
vt 0.625473 0.249557
vt 0.625473 0.140862
vt 0.625486 0.140862
vt 0.625473 0.140862
vt 0.625486 0.249557
vt 0.625486 0.249557
vt 0.571439 0.140862
vt 0.571651 0.249557
vt 0.571652 0.249557
vt 0.571652 0.140862
vt 0.571439 0.140862
vt 0.571651 0.140862
vt 0.571439 0.249557
vt 0.571439 0.249557
vt 0.196551 0.305425
vt 0.196644 0.304427
vt 0.196607 0.304422
vt 0.196206 0.304434
vt 0.196288 0.304427
vt 0.196211 0.304436
vt 0.196288 0.304428
vt 0.196640 0.304429
vt 0.196605 0.304423
vt 0.196634 0.304382
vt 0.196605 0.304384
vt 0.196633 0.304384
vt 0.196607 0.304404
vt 0.196638 0.304421
vt 0.196604 0.304383
vt 0.196596 0.304383
vt 0.196507 0.304386
vt 0.196596 0.304384
vt 0.196500 0.304384
vt 0.196308 0.304389
vt 0.196213 0.304430
vt 0.196299 0.304389
vt 0.196291 0.304409
vt 0.196215 0.304389
vt 0.196299 0.304388
vt 0.196216 0.304391
vt 0.196607 0.304401
vt 0.196299 0.304410
vt 0.196509 0.304404
vt 0.196212 0.304428
vt 0.196292 0.304408
vt 0.196598 0.304407
vt 0.196637 0.304422
vt 0.196598 0.304403
vt 0.196507 0.304384
vt 0.196308 0.304388
vt 0.196300 0.304409
vt 0.196499 0.304386
vt 0.196506 0.304407
vt 0.196390 0.304408
vt 0.196399 0.304386
vt 0.196402 0.304388
vt 0.196401 0.304408
vt 0.196661 0.305423
vt 0.196614 0.305438
vt 0.196658 0.305458
vt 0.196299 0.305439
vt 0.196228 0.305465
vt 0.196224 0.305432
vt 0.196300 0.305439
vt 0.196228 0.305466
vt 0.196616 0.305458
vt 0.196297 0.305464
vt 0.196295 0.305465
vt 0.196616 0.305459
vt 0.196294 0.305464
vt 0.196298 0.305465
vt 0.196661 0.305424
vt 0.196551 0.305426
vt 0.196382 0.305436
vt 0.196549 0.305443
vt 0.196556 0.305442
vt 0.196556 0.305442
vt 0.196549 0.305442
vt 0.196612 0.305458
vt 0.196557 0.305460
vt 0.196614 0.305439
vt 0.196612 0.305459
vt 0.196384 0.305437
vt 0.196550 0.305460
vt 0.196550 0.305459
vt 0.196358 0.305464
vt 0.196357 0.305463
vt 0.196557 0.305459
vn -0.039958 0.307586 0.950681
vn -0.039958 0.307586 0.950681
vn -0.039958 0.307586 0.950681
vn -0.039958 0.307586 0.950681
vn 0.000000 1.000000 0.000000
vn 0.000000 1.000000 0.000000
vn 0.000000 1.000000 0.000000
vn 0.000000 1.000000 0.000000
vn 0.000000 -1.000000 0.000000
vn 0.000000 -1.000000 0.000000
vn 0.000000 -1.000000 0.000000
vn 0.000000 -1.000000 0.000000
vn 1.000000 -0.000001 0.000000
vn 1.000000 -0.000001 0.000000
vn 1.000000 -0.000000 0.000000
vn 1.000000 0.000000 0.000000
vn -1.000000 0.000000 0.000000
vn -1.000000 -0.000000 0.000000
vn -1.000000 -0.000001 0.000000
vn -1.000000 -0.000001 0.000000
vn 0.000000 0.999999 0.001537
vn 0.000000 0.943763 0.330622
vn 0.000000 0.948261 0.317492
vn 0.000000 0.999968 0.007978
vn 0.945463 0.242817 0.217117
vn 0.944570 0.253253 0.208928
vn 0.999976 0.000000 0.006876
vn 0.999985 0.000000 0.005406
vn 0.000000 -1.000000 0.000400
vn 0.000000 -0.995766 0.091927
vn -0.000000 -0.999185 0.040371
vn -0.999985 0.000000 0.005406
vn -0.999976 0.000000 0.006876
vn -0.965239 0.165872 0.201991
vn -0.964597 0.158612 0.210702
vn 0.000000 0.987629 0.156808
vn 0.000000 1.000000 0.000000
vn 0.000000 1.000000 0.000000
vn 0.000000 0.943763 0.330622
vn 0.932861 0.328620 0.147576
vn 0.944570 0.253253 0.208928
vn 0.945463 0.242817 0.217117
vn 0.932861 0.328620 0.147576
vn -0.964597 0.158612 0.210702
vn -0.965239 0.165872 0.201991
vn -0.966069 0.219865 0.135537
vn -0.966069 0.219865 0.135537
vn -0.000340 -0.999824 -0.018779
vn -0.000058 -0.990250 -0.139299
vn -0.000000 -1.000000 -0.000417
vn 0.999988 -0.000000 -0.004989
vn 0.999977 -0.000000 -0.006749
vn 0.944364 0.267319 -0.191614
vn 0.944529 0.257983 -0.203248
vn -0.940777 0.270278 -0.204666
vn -0.940376 0.280062 -0.193026
vn -0.999977 -0.000000 -0.006749
vn -0.999988 -0.000000 -0.004989
vn 0.944529 0.257983 -0.203248
vn 0.944364 0.267319 -0.191614
vn 0.939285 0.320137 -0.123512
vn 0.939286 0.320137 -0.123512
vn -0.933782 0.335355 -0.124850
vn -0.940376 0.280062 -0.193026
vn -0.940777 0.270278 -0.204666
vn -0.933782 0.335355 -0.124850
vn 0.000000 0.999999 0.001537
vn 0.000000 0.999968 0.007978
vn 0.000000 1.000000 0.000000
vn 0.000000 1.000000 0.000000
vn 0.999985 0.000000 0.005406
vn 0.999976 0.000000 0.006876
vn 1.000000 -0.000001 0.000000
vn 1.000000 -0.000001 0.000000
vn 0.000000 -1.000000 0.000000
vn 0.000000 -1.000000 0.000000
vn 0.000000 -0.999998 0.002119
vn 0.000000 -1.000000 0.000400
vn -1.000000 -0.000001 0.000000
vn -1.000000 -0.000001 0.000000
vn -0.999976 0.000000 0.006876
vn -0.999985 0.000000 0.005406
vn -0.000000 -1.000000 0.000000
vn -0.000000 -1.000000 0.000000
vn 0.000000 -1.000000 0.000000
vn 0.000000 -1.000000 0.000000
vn 1.000000 0.000000 0.000000
vn 1.000000 -0.000000 0.000000
vn 1.000000 0.000001 0.000000
vn 1.000000 0.000001 0.000000
vn 0.000000 1.000000 0.000000
vn 0.000000 1.000000 0.000000
vn 0.000000 1.000000 0.000000
vn 0.000000 1.000000 0.000000
vn -1.000000 0.000001 0.000000
vn -1.000000 0.000001 0.000000
vn -1.000000 -0.000000 0.000000
vn -1.000000 0.000000 0.000000
vn -0.000000 -1.000000 -0.000417
vn 0.000000 -1.000000 -0.000309
vn -0.000000 -1.000000 0.000000
vn -0.000000 -1.000000 0.000000
vn 1.000000 0.000001 0.000000
vn 1.000000 0.000001 0.000000
vn 0.999977 -0.000000 -0.006749
vn 0.999988 -0.000000 -0.004989
vn 0.000000 1.000000 0.000000
vn 0.000000 1.000000 0.000000
vn 0.000000 0.999999 -0.001238
vn -0.000000 0.999999 -0.001615
vn -0.999988 -0.000000 -0.004989
vn -0.999977 -0.000000 -0.006749
vn -1.000000 0.000001 0.000000
vn -1.000000 0.000001 0.000000
vn 0.000000 0.943763 0.330622
vn -0.000000 1.000000 0.000000
vn 0.000000 1.000000 0.000000
vn 0.000000 0.948261 0.317492
vn 0.000990 0.548275 0.836298
vn -0.002179 0.545975 0.837798
vn -0.045333 0.513704 0.856769
vn -0.045333 0.513704 0.856769
vn -0.000718 0.231602 0.972810
vn -0.000718 0.231602 0.972810
vn -0.000718 0.231602 0.972810
vn -0.000718 0.231602 0.972810
vn -0.000000 -1.000000 -0.000417
vn -0.000058 -0.990250 -0.139299
vn 0.000060 -0.993300 -0.115561
vn 0.000000 -1.000000 -0.000309
vn -0.000000 0.999999 -0.001615
vn 0.000000 0.830485 -0.557040
vn -0.000002 0.830485 -0.557041
vn -0.000000 0.999999 -0.001615
vn 0.000000 0.999999 -0.001238
vn 0.000000 0.830485 -0.557040
vn 0.000000 0.830485 -0.557040
vn 0.000000 -1.000000 -0.000309
vn 0.000060 -0.993300 -0.115561
vn 0.000011 -0.999748 -0.022454
vn 0.000000 0.830485 -0.557040
vn 0.000000 0.999999 -0.001238
vn 0.000000 0.830485 -0.557041
vn -0.019486 0.236934 -0.971330
vn -0.019486 0.236934 -0.971330
vn -0.019486 0.236934 -0.971330
vn -0.019486 0.236934 -0.971330
vn 0.000000 -1.000000 -0.000000
vn 0.000000 -1.000000 -0.000000
vn -0.000081 -1.000000 -0.000143
vn -0.000340 -0.999824 -0.018779
vn -0.001278 0.999997 -0.002066
vn -0.000583 0.999999 -0.000942
vn 0.000000 1.000000 0.000000
vn 0.000000 1.000000 0.000000
vn 0.004638 0.084233 -0.996435
vn 0.004638 0.084233 -0.996435
vn 0.004638 0.084233 -0.996435
vn 0.004638 0.084233 -0.996435
vn 0.000000 -1.000000 0.000000
vn 0.000030 -1.000000 -0.000880
vn -0.000015 -1.000000 -0.000804
vn 0.000000 -1.000000 0.000000
vn 0.025236 0.674843 -0.737529
vn 0.025236 0.674843 -0.737529
vn -0.010993 0.655157 -0.755413
vn 0.006393 0.664771 -0.747020
vn 0.000011 -0.999748 -0.022454
vn 0.000035 -1.000000 -0.000135
vn 0.000000 -1.000000 -0.000000
vn 0.000000 -1.000000 -0.000000
vn 0.000000 1.000000 0.000000
vn 0.000138 1.000000 -0.000604
vn 0.000039 1.000000 -0.000169
vn 0.000000 1.000000 0.000000
vn -0.005954 0.296649 -0.954968
vn -0.005954 0.296649 -0.954968
vn -0.005954 0.296649 -0.954968
vn -0.005954 0.296649 -0.954968
vn -0.001278 0.999997 -0.002066
vn -0.007391 0.999901 -0.011951
vn -0.000583 0.999999 -0.000942
vn 0.000151 0.999990 -0.004492
vn 0.000193 0.999992 -0.004094
vn 0.000199 0.999991 -0.004293
vn 0.000151 0.999974 -0.007238
vn 0.000039 1.000000 -0.000169
vn 0.000138 1.000000 -0.000604
vn 0.000638 0.999996 -0.002797
vn 0.000060 -0.993300 -0.115561
vn 0.000035 -1.000000 -0.000135
vn 0.000011 -0.999748 -0.022454
vn -0.000058 -0.990250 -0.139299
vn -0.000015 -1.000000 -0.000804
vn 0.000030 -1.000000 -0.000880
vn -0.000340 -0.999824 -0.018779
vn -0.000081 -1.000000 -0.000143
vn -0.000058 -0.990250 -0.139299
vn 0.000000 1.000000 -0.000000
vn -0.000019 0.999992 -0.003909
vn 0.000199 0.999991 -0.004293
vn 0.000000 1.000000 -0.000000
vn -0.000000 1.000000 0.000000
vn 0.000199 0.999991 -0.004293
vn 0.000193 0.999992 -0.004094
vn -0.000000 1.000000 0.000000
vn 0.000000 -1.000000 0.000000
vn 0.000029 -1.000000 -0.000842
vn 0.000030 -1.000000 -0.000880
vn 0.000000 -1.000000 0.000000
vn -0.000058 -0.990250 -0.139299
vn 0.000030 -1.000000 -0.000880
vn 0.000029 -1.000000 -0.000842
vn 0.000060 -0.993300 -0.115561
vn -0.815398 0.515391 0.263625
vn -0.815398 0.515391 0.263625
vn -0.815398 0.515391 0.263625
vn -0.815398 0.515391 0.263625
vn -0.917312 0.326737 -0.227557
vn -0.917312 0.326737 -0.227557
vn -0.917312 0.326737 -0.227557
vn -0.917312 0.326737 -0.227557
vn 0.978048 0.150425 -0.144205
vn 0.978048 0.150425 -0.144205
vn 0.978048 0.150425 -0.144205
vn 0.978048 0.150426 -0.144205
vn 0.818399 0.394132 -0.418189
vn 0.818399 0.394132 -0.418189
vn 0.818399 0.394132 -0.418189
vn 0.818399 0.394132 -0.418189
vn 0.956418 0.291328 -0.019820
vn 0.956418 0.291327 -0.019820
vn 0.956418 0.291327 -0.019820
vn 0.956418 0.291327 -0.019820
vn -0.938652 0.135545 -0.317112
vn -0.938652 0.135545 -0.317112
vn -0.938652 0.135545 -0.317112
vn -0.938652 0.135545 -0.317112
vn 0.985748 0.100856 -0.134644
vn 0.985748 0.100856 -0.134644
vn 0.985748 0.100856 -0.134644
vn 0.985748 0.100856 -0.134644
vn 0.860593 -0.087674 0.501689
vn 0.860593 -0.087674 0.501689
vn 0.860593 -0.087674 0.501689
vn 0.860593 -0.087674 0.501689
vn -0.687678 0.198218 -0.698433
vn -0.687678 0.198218 -0.698433
vn -0.687678 0.198218 -0.698433
vn -0.687678 0.198218 -0.698433
vn -0.840642 0.535525 -0.080838
vn -0.840642 0.535525 -0.080838
vn -0.840642 0.535525 -0.080838
vn -0.840642 0.535524 -0.080838
vn 0.000151 0.999974 -0.007238
vn 0.000199 0.999991 -0.004293
vn -0.000019 0.999992 -0.003909
vn 0.000017 0.999999 -0.001344
vn 0.000193 0.999992 -0.004094
vn 0.000151 0.999990 -0.004492
vn -0.000000 1.000000 0.000000
vn 0.000193 0.999992 -0.004094
vn 0.000017 0.999999 -0.001344
vn 0.000000 1.000000 0.000000
vn 0.006393 0.664771 -0.747020
vn -0.010993 0.655157 -0.755413
vn -0.032521 0.642827 -0.765321
vn -0.032521 0.642827 -0.765321
vn -0.000001 -1.000000 -0.000322
vn 0.000029 -1.000000 -0.000842
vn 0.000000 -1.000000 0.000000
vn 0.000000 -1.000000 0.000000
vn 0.000060 -0.993300 -0.115561
vn 0.000029 -1.000000 -0.000842
vn -0.000001 -1.000000 -0.000322
vn 0.000000 1.000000 0.000000
vn 0.000000 1.000000 0.000000
vn 0.000000 1.000000 0.000000
vn 0.000000 0.987629 0.156808
vn -0.000000 -0.999185 0.040371
vn 0.000000 -0.995766 0.091927
vn 0.000000 -1.000000 0.000000
vn -0.000000 -1.000000 0.000000
vn 0.000000 -0.996148 0.087689
vn 0.000000 -1.000000 -0.000000
vn 0.000000 -1.000000 -0.000000
vn 0.000000 -0.995766 0.091927
vn 0.000000 -1.000000 -0.000000
vn 0.000000 -1.000000 -0.000000
vn 0.000000 -1.000000 -0.000000
vn 0.000000 -1.000000 -0.000000
vn -0.000000 -0.999185 0.040371
vn -0.000000 -1.000000 0.000000
vn -0.000000 -1.000000 -0.000000
vn -0.000000 -1.000000 -0.000000
vn 0.000000 0.948261 0.317492
vn 0.000000 1.000000 0.000000
vn 0.000000 1.000000 0.000000
vn 0.000000 1.000000 0.000000
vn 0.000000 0.943763 0.330622
vn -0.000000 1.000000 0.000000
vn -0.000000 1.000000 0.000000
vn 0.000000 -0.995766 0.091927
vn 0.000000 -1.000000 -0.000000
vn -0.000000 -1.000000 -0.000000
vn 0.000000 0.987629 0.156808
vn 0.000000 0.943763 0.330622
vn 0.000000 0.999999 0.001537
vn 0.000000 -1.000000 0.000400
vn 0.000000 -0.999998 0.002119
vn 0.000000 -0.996148 0.087689
vn 0.000000 -0.995766 0.091927
vn 0.000000 -1.000000 0.000000
vn 0.000000 -1.000000 -0.000000
vn 0.000000 -0.996148 0.087689
vn 0.000000 -1.000000 0.000000
vn 0.000000 1.000000 0.000000
vn 0.000000 1.000000 0.000000
vn -0.000000 1.000000 0.000000
vn -0.000000 1.000000 0.000000
vn -0.011877 0.358808 0.933336
vn -0.011877 0.358808 0.933336
vn -0.011877 0.358808 0.933336
vn -0.011877 0.358808 0.933336
vn 0.000000 1.000000 0.000000
vn 0.000000 1.000000 0.000000
vn 0.000000 1.000000 0.000000
vn 0.000000 1.000000 0.000000
vn -0.000000 1.000000 0.000000
vn -0.000000 1.000000 0.000000
vn -0.000000 1.000000 0.000000
vn -0.000000 1.000000 0.000000
vn 0.012372 0.556454 0.830787
vn 0.012372 0.556454 0.830787
vn -0.002179 0.545975 0.837798
vn 0.000990 0.548275 0.836298
vn -0.000000 -1.000000 -0.000000
vn -0.000000 -1.000000 -0.000000
vn 0.000000 -1.000000 -0.000000
vn 0.000000 -1.000000 -0.000000
vn 0.000000 -1.000000 -0.000000
vn -0.000000 -1.000000 0.000000
vn 0.000000 -1.000000 0.000000
vn 0.000000 -1.000000 -0.000000
vn 0.880081 0.474152 -0.025258
vn 0.880081 0.474152 -0.025258
vn 0.880081 0.474152 -0.025258
vn 0.880081 0.474152 -0.025258
vn -0.930714 0.144662 0.335924
vn -0.930714 0.144662 0.335924
vn -0.930714 0.144662 0.335924
vn -0.930714 0.144662 0.335924
vn 0.987865 0.051978 0.146358
vn 0.987865 0.051978 0.146358
vn 0.987865 0.051978 0.146358
vn 0.987865 0.051978 0.146358
vn -0.898135 0.404614 0.172166
vn -0.898135 0.404614 0.172166
vn -0.898135 0.404614 0.172166
vn -0.898135 0.404614 0.172166
vn -0.870947 0.409911 -0.270970
vn -0.870947 0.409911 -0.270970
vn -0.870947 0.409911 -0.270970
vn -0.870947 0.409911 -0.270970
vn -0.892442 0.144920 0.427253
vn -0.892442 0.144920 0.427253
vn -0.892442 0.144920 0.427253
vn -0.892442 0.144920 0.427253
vn 0.965228 0.254548 0.059497
vn 0.965228 0.254548 0.059497
vn 0.965228 0.254548 0.059497
vn 0.965228 0.254548 0.059497
vn 0.818637 0.498847 0.284580
vn 0.818637 0.498847 0.284580
vn 0.818637 0.498847 0.284580
vn 0.818637 0.498847 0.284580
s off
f 1/84/1 78/90/2 79/93/3 3/1/4
f 25/15/5 26/22/6 31/29/7 32/27/8
f 29/23/9 30/30/10 27/21/11 28/19/12
f 26/22/13 27/21/14 30/30/15 31/29/16
f 32/27/17 29/23/18 28/19/19 25/15/20
f 9/11/21 37/97/22 14/87/23 10/10/24
f 14/87/25 15/12/26 11/13/27 10/10/28
f 12/14/29 38/39/30 16/82/31
f 9/11/32 12/14/33 16/82/34 13/96/35
f 13/96/36 72/105/37 87/100/38 37/97/39
f 2/86/40 15/12/41 14/87/42 4/89/43
f 13/96/44 16/82/45 1/84/46 3/1/47
f 21/71/48 64/47/49 17/46/50
f 19/42/51 18/44/52 22/59/53 23/68/54
f 24/52/55 21/71/56 17/46/57 20/40/58
f 23/68/59 22/59/60 8/64/61 6/62/62
f 7/50/63 21/71/64 24/52/65 5/48/66
f 9/2/67 10/3/68 26/16/69 25/20/70
f 10/3/71 11/8/72 27/17/73 26/16/74
f 28/18/75 27/17/76 11/8/77 12/9/78
f 25/20/79 28/18/80 12/9/81 9/2/82
f 33/31/83 34/38/84 30/24/85 29/28/86
f 31/25/87 30/24/88 34/38/89 35/37/90
f 32/26/91 31/25/92 35/37/93 36/35/94
f 36/35/95 33/31/96 29/28/97 32/26/98
f 17/6/99 18/7/100 34/32/101 33/36/102
f 35/33/103 34/32/104 18/7/105 19/4/106
f 36/34/107 35/33/108 19/4/109 20/5/110
f 20/5/111 17/6/112 33/36/113 36/34/114
f 37/97/115 73/107/116 71/88/117 14/87/118
f 74/110/119 75/111/120 81/91/121 83/95/122
f 84/92/123 82/94/124 2/86/125 4/89/126
f 17/46/127 64/47/128 63/45/129 18/44/130
f 20/40/131 51/41/132 24/52/133
f 20/40/134 19/42/135 58/43/136 51/41/137
f 18/44/138 63/45/139 22/59/140
f 58/43/141 19/42/142 23/68/143
f 5/48/144 46/53/145 47/49/146 7/50/147
f 7/50/148 47/49/149 49/51/150 21/71/151
f 24/52/152 52/65/153 46/53/154 5/48/155
f 48/56/156 45/54/157 39/73/158 42/55/159
f 42/55/160 44/77/161 50/70/162 48/56/163
f 41/76/164 40/57/165 66/79/166 67/80/167
f 22/59/168 56/69/169 54/60/170 8/64/171
f 61/63/172 59/61/173 23/68/174 6/62/175
f 54/60/176 61/63/177 6/62/178 8/64/179
f 24/52/180 51/41/181 52/65/182
f 58/43/183 65/78/184 43/67/185 51/41/186
f 23/68/187 59/61/188 58/43/189
f 63/45/190 56/69/191 22/59/192
f 64/47/193 50/70/194 44/77/195
f 21/71/196 49/51/197 64/47/198
f 45/54/199 53/72/200 43/67/201 39/73/202
f 40/57/203 43/67/204 65/78/205 66/79/206
f 67/80/207 68/81/208 44/77/209 41/76/210
f 64/47/211 44/77/212 68/81/213 63/45/214
f 54/60/215 56/69/216 59/61/217 61/63/218
f 56/69/219 63/45/220 58/43/221 59/61/222
f 63/45/223 57/75/224 60/66/225 58/43/226
f 57/75/227 55/58/228 62/74/229 60/66/230
f 39/73/231 43/67/232 44/77/233 42/55/234
f 43/67/235 40/57/236 41/76/237 44/77/238
f 46/53/239 52/65/240 49/51/241 47/49/242
f 52/65/243 51/41/244 64/47/245 49/51/246
f 51/41/247 53/72/248 50/70/249 64/47/250
f 53/72/251 45/54/252 48/56/253 50/70/254
f 51/41/255 43/67/256 53/72/257
f 60/66/258 65/78/259 58/43/260
f 66/79/261 65/78/262 60/66/263 62/74/264
f 67/80/265 66/79/266 62/74/267 55/58/268
f 57/75/269 68/81/270 67/80/271 55/58/272
f 63/45/273 68/81/274 57/75/275
f 3/1/276 79/93/277 72/105/278 13/96/279
f 16/82/280 38/39/281 91/101/282 70/83/283
f 15/12/284 69/85/285 76/98/286 38/39/287
f 75/111/288 76/98/289 69/85/290 81/91/291
f 16/82/292 70/83/293 78/90/294 1/84/295
f 14/87/296 71/88/297 84/92/298 4/89/299
f 37/97/300 88/99/301 73/107/302
f 38/39/303 76/98/304 92/102/305
f 13/96/306 37/97/307 9/11/308
f 12/14/309 11/13/310 15/12/311 38/39/312
f 82/94/313 69/85/314 15/12/315 2/86/316
f 83/95/317 71/88/318 73/107/319 74/110/320
f 80/106/321 77/103/322 90/112/323 86/104/324
f 72/105/325 80/106/326 86/104/327 87/100/328
f 74/110/329 73/107/330 88/99/331 85/108/332
f 85/108/333 89/109/334 75/111/335 74/110/336
f 89/109/337 92/102/338 76/98/339 75/111/340
f 77/103/341 70/83/342 91/101/343 90/112/344
f 81/91/345 69/85/346 71/88/347 83/95/348
f 69/85/349 82/94/350 84/92/351 71/88/352
f 78/90/353 70/83/354 72/105/355 79/93/356
f 70/83/357 77/103/358 80/106/359 72/105/360
f 85/108/361 88/99/362 92/102/363 89/109/364
f 88/99/365 37/97/366 38/39/367 92/102/368
f 37/97/369 87/100/370 91/101/371 38/39/372
f 87/100/373 86/104/374 90/112/375 91/101/376
