# This file uses centimeters as units for non-parametric coordinates.

v -33.804443 -7.804569 11.255615
v -2.983643 -7.804569 4.358887
v -30.608643 4.354935 8.017578
v -12.080322 3.264409 7.210693
v -31.002441 3.650733 -9.611328
v -11.697021 3.286624 -12.238525
v -34.553467 -7.804569 -11.054932
v -11.219727 -7.804569 -14.629150
v -15.060303 -7.804569 19.270264
v -7.175293 3.087018 -2.149414
v -22.107666 3.704748 11.953613
v -14.921143 0.232628 16.486572
v -4.410156 -0.338701 3.697510
v 33.427002 -7.804569 -11.057129
v 12.358398 -7.804569 -37.938965
v 31.063721 5.773499 -11.103516
v 13.554688 6.120764 -35.510498
v 11.376953 5.139725 1.800781
v 5.733643 5.876977 -13.223877
v 10.159912 -7.804569 3.885986
v -1.310303 -7.804569 -13.060059
v 29.243652 5.641223 -34.642578
v 32.062988 -7.804569 -37.829346
v 25.454346 -7.804569 1.719727
v 23.766846 5.006148 -0.705566
v 6.393066 5.983950 -22.371094
v 0.388916 2.117941 -13.384766
v 5.092529 5.625001 -8.136230
v 7.549316 -7.804569 23.470947
v 30.023193 -7.804569 34.847412
v 10.387451 3.989260 22.541992
v 22.246338 4.809781 31.478516
v 19.167725 3.510993 11.485596
v 32.375732 4.991965 19.652100
v 18.317627 -7.804569 9.216553
v 34.553223 -7.804569 18.889404
v 15.011475 -7.804569 37.938965
v 30.031494 5.176528 28.186035
v 13.648438 4.217835 29.311035
v 16.009033 2.078759 35.932373
v 29.007568 2.664076 33.378906
vt 0.459122 0.179449
vt 0.459112 0.179441
vt 0.459164 0.179512
vt 0.458976 0.179547
vt 0.459094 0.179559
vt 0.459114 0.179639
vt 0.458984 0.179614
vt 0.459133 0.179505
vt 0.459014 0.179522
vt 0.458996 0.179443
vt 0.459054 0.179427
vt 0.459126 0.179483
vt 0.459180 0.179554
vt 0.459137 0.179829
vt 0.459148 0.179914
vt 0.459266 0.179898
vt 0.459246 0.179815
vt 0.459112 0.179905
vt 0.459280 0.179853
vt 0.459291 0.179880
vt 0.459330 0.179962
vt 0.459315 0.179914
vt 0.459238 0.180031
vt 0.459211 0.180035
vt 0.459195 0.179950
vt 0.459223 0.179950
vt 0.459121 0.180005
vt 0.459279 0.179901
vt 0.459122 0.179449
vt 0.459112 0.179441
vt 0.459164 0.179512
vt 0.458976 0.179547
vt 0.459094 0.179559
vt 0.459114 0.179639
vt 0.458984 0.179614
vt 0.459133 0.179505
vt 0.459014 0.179522
vt 0.458996 0.179443
vt 0.459054 0.179427
vt 0.459126 0.179483
vt 0.459180 0.179554
vn 0.534252 0.741464 0.405964
vn 0.534252 0.741464 0.405964
vn 0.534252 0.741464 0.405964
vn -0.139911 0.184511 -0.972821
vn -0.139911 0.184511 -0.972821
vn -0.139911 0.184511 -0.972821
vn -0.139911 0.184511 -0.972821
vn 0.502543 0.828323 0.247652
vn 0.502543 0.828323 0.247652
vn 0.502543 0.828323 0.247652
vn -0.960825 0.276230 0.022623
vn -0.960825 0.276230 0.022623
vn -0.960825 0.276230 0.022623
vn -0.960825 0.276230 0.022623
vn 0.210840 0.908249 0.361429
vn 0.210840 0.908249 0.361429
vn 0.210840 0.908249 0.361429
vn 0.013372 0.999102 -0.040209
vn 0.013372 0.999102 -0.040209
vn 0.013372 0.999102 -0.040209
vn 0.055781 0.998418 0.007104
vn 0.055781 0.998418 0.007104
vn 0.055781 0.998418 0.007104
vn 0.055781 0.998418 0.007104
vn 0.055781 0.998418 0.007104
vn -0.376905 0.323465 0.867936
vn -0.376905 0.323465 0.867936
vn -0.376905 0.323465 0.867936
vn -0.376905 0.323465 0.867936
vn -0.376905 0.323465 0.867936
vn 0.761323 0.200255 0.616672
vn 0.761323 0.200255 0.616672
vn 0.761323 0.200255 0.616672
vn 0.761323 0.200255 0.616672
vn 0.911415 0.121646 -0.393098
vn 0.911415 0.121646 -0.393098
vn 0.911415 0.121646 -0.393098
vn 0.911415 0.121646 -0.393098
vn 0.911415 0.121646 -0.393098
vn 0.029779 0.202571 -0.978815
vn 0.029779 0.202571 -0.978815
vn 0.029779 0.202571 -0.978815
vn 0.029779 0.202571 -0.978815
vn 0.013270 0.999901 0.004685
vn 0.013270 0.999901 0.004685
vn 0.013269 0.999901 0.004685
vn 0.013269 0.999901 0.004685
vn 0.013269 0.999901 0.004685
vn -0.863610 0.155795 -0.479485
vn -0.863610 0.155795 -0.479485
vn -0.863610 0.155795 -0.479485
vn -0.863610 0.155795 -0.479485
vn -0.863610 0.155795 -0.479485
vn 0.164728 0.173068 0.971037
vn 0.164728 0.173068 0.971037
vn 0.164728 0.173068 0.971037
vn 0.164728 0.173068 0.971037
vn 0.978817 0.194975 -0.062460
vn 0.978817 0.194975 -0.062460
vn 0.978817 0.194975 -0.062460
vn 0.978817 0.194975 -0.062460
vn 0.006305 0.998252 0.058772
vn 0.006305 0.998252 0.058772
vn 0.006305 0.998252 0.058772
vn 0.006305 0.998252 0.058772
vn 0.006305 0.998252 0.058772
vn -0.815123 0.174973 0.552230
vn -0.815123 0.174973 0.552230
vn -0.815123 0.174973 0.552230
vn -0.815124 0.174973 0.552230
vn -0.815124 0.174973 0.552230
vn 0.819175 0.176850 0.545598
vn 0.819175 0.176850 0.545598
vn 0.819175 0.176850 0.545598
vn 0.819175 0.176850 0.545598
vn -0.574349 0.817991 -0.031839
vn -0.574349 0.817991 -0.031839
vn -0.574349 0.817991 -0.031839
vn -0.574348 0.817991 -0.031863
vn -0.574348 0.817991 -0.031863
vn -0.574348 0.817991 -0.031863
vn 0.082602 0.793863 0.602460
vn 0.082602 0.793863 0.602460
vn 0.082602 0.793863 0.602460
vn 0.508479 0.134922 -0.850438
vn 0.508479 0.134922 -0.850438
vn 0.508479 0.134922 -0.850438
vn 0.508479 0.134922 -0.850438
vn 0.150856 0.877885 0.454490
vn 0.150856 0.877885 0.454490
vn 0.150856 0.877885 0.454490
vn -0.779832 0.159562 -0.605312
vn -0.779832 0.159562 -0.605312
vn -0.779832 0.159562 -0.605312
vn -0.779832 0.159562 -0.605312
vn -0.152458 0.923263 0.352621
vn -0.152458 0.923263 0.352621
vn -0.152458 0.923263 0.352621
vn -0.056947 0.994470 -0.088241
vn -0.056947 0.994470 -0.088241
vn -0.056947 0.994470 -0.088241
vn -0.054452 0.998207 -0.024858
vn -0.054452 0.998207 -0.024858
vn -0.054452 0.998207 -0.024858
vn -0.054452 0.998207 -0.024858
vn -0.054452 0.998207 -0.024858
vn -0.877960 0.217990 0.426223
vn -0.877960 0.217990 0.426223
vn -0.877960 0.217990 0.426224
vn -0.877960 0.217990 0.426223
vn -0.877960 0.217990 0.426223
vn 0.191520 0.165363 0.967458
vn 0.191520 0.165363 0.967458
vn 0.191520 0.165363 0.967458
vn 0.191520 0.165363 0.967458
vn 0.954265 0.139454 0.264445
vn 0.954265 0.139453 0.264445
vn 0.954265 0.139454 0.264445
vn 0.954265 0.139453 0.264445
vn 0.954265 0.139454 0.264445
vn 0.000000 -1.000000 -0.000000
vn 0.000000 -1.000000 -0.000000
vn 0.000000 -1.000000 -0.000000
vn 0.000000 -1.000000 -0.000000
vn 0.000000 -1.000000 -0.000000
vn 0.000000 -1.000000 0.000000
vn 0.000000 -1.000000 0.000000
vn 0.000000 -1.000000 0.000000
vn 0.000000 -1.000000 0.000000
vn 0.000000 -1.000000 0.000000
vn 0.000000 -1.000000 0.000000
vn 0.000000 -1.000000 0.000000
vn 0.000000 -1.000000 0.000000
vn 0.000000 -1.000000 0.000000
vn 0.000000 -1.000000 0.000000
vn 0.000000 -1.000000 0.000000
s off
f 4/1/1 12/2/2 13/3/3
f 5/4/4 6/5/5 8/6/6 7/7/7
f 13/3/8 10/8/9 4/1/10
f 7/7/11 1/9/12 3/10/13 5/4/14
f 11/11/15 12/2/16 4/1/17
f 3/10/18 6/5/19 5/4/20
f 3/10/21 11/11/22 4/1/23 10/8/24 6/5/25
f 1/9/26 9/12/27 12/2/28 11/11/29 3/10/30
f 13/3/31 12/2/32 9/12/33 2/13/34
f 2/13/35 8/6/36 6/5/37 10/8/38 13/3/39
f 22/14/40 23/15/41 15/16/42 17/17/43
f 16/18/44 22/14/45 17/17/46 26/19/47 19/20/48
f 15/16/49 21/21/50 27/22/51 26/19/52 17/17/53
f 20/23/54 24/24/55 25/25/56 18/26/57
f 14/27/58 23/15/59 22/14/60 16/18/61
f 16/18/62 19/20/63 28/28/64 18/26/65 25/25/66
f 20/23/67 18/26/68 28/28/69 27/22/70 21/21/71
f 25/25/72 24/24/73 14/27/74 16/18/75
f 26/19/76 27/22/77 19/20/78
f 27/22/79 28/28/80 19/20/81
f 32/29/82 40/30/83 41/31/84
f 33/32/85 34/33/86 36/34/87 35/35/88
f 41/31/89 38/36/90 32/29/91
f 35/35/92 29/37/93 31/38/94 33/32/95
f 39/39/96 40/30/97 32/29/98
f 31/38/99 34/33/100 33/32/101
f 31/38/102 39/39/103 32/29/104 38/36/105 34/33/106
f 29/37/107 37/40/108 40/30/109 39/39/110 31/38/111
f 41/31/112 40/30/113 37/40/114 30/41/115
f 30/41/116 36/34/117 34/33/118 38/36/119 41/31/120
f 2/13/121 9/12/122 1/9/123 7/7/124 8/6/125
f 15/16/126 23/15/127 14/27/128 24/24/129 20/23/130 21/21/131
f 30/41/132 37/40/133 29/37/134 35/35/135 36/34/136
