# This file uses centimeters as units for non-parametric coordinates.

v 12.122704 46.376259 35.901970
v 8.301257 47.400211 35.901970
v 5.503763 44.602718 35.901974
v 6.527716 40.781273 35.901970
v 10.349163 39.757320 35.901970
v 13.146657 42.554813 35.901974
v 12.122704 46.376259 41.422478
v 8.301257 47.400211 41.422478
v 5.503763 44.602718 41.422478
v 6.527717 40.781273 41.422478
v 10.349163 39.757320 41.422478
v 13.146657 42.554813 41.422478
v 12.122704 46.376259 37.641754
v 13.146657 42.554813 37.641750
v 10.349163 39.757320 37.641754
v 6.527716 40.781273 37.641758
v 5.503763 44.602718 37.641750
v 8.301257 47.400211 37.641754
v 12.122704 46.376259 39.768959
v 13.146657 42.554813 39.768955
v 10.349163 39.757320 39.768959
v 6.527717 40.781273 39.768959
v 5.503763 44.602718 39.768955
v 8.301257 47.400211 39.768959
v 10.895890 45.149448 38.108185
v 11.470800 43.003857 38.108181
v 10.895890 45.149448 39.302528
v 11.470800 43.003857 39.302521
v 9.900119 41.433174 38.108185
v 9.900119 41.433174 39.302528
v 7.754529 42.008083 38.108185
v 7.754529 42.008083 39.302528
v 7.179620 44.153675 38.108181
v 7.179620 44.153675 39.302521
v 8.750301 45.724358 38.108185
v 8.750301 45.724358 39.302528
v 9.325209 43.578766 42.845219
v 0.523621 73.754669 35.934994
v 73.841431 73.754669 35.934994
v 73.841431 73.754669 32.154781
v 0.523621 7.389160 32.154781
v 0.523621 73.754669 32.154781
v 52.155823 7.389160 35.934933
v 73.841431 11.417500 35.934994
v 71.863892 7.389160 35.036373
v 73.841431 7.389160 32.154781
v 73.841431 8.675087 35.036373
v 0.523621 7.389160 34.811153
v 3.105225 7.389160 35.934933
v 0.523621 26.469246 35.935055
v 2.602234 9.877869 35.935055
v 0.523621 9.877869 34.952938
vt 0.445427 0.022406
vt 0.445916 0.022410
vt 0.445918 0.022456
vt 0.445425 0.022452
vt 0.446155 0.022826
vt 0.446158 0.022875
vt 0.445905 0.023233
vt 0.445907 0.023285
vt 0.445419 0.023227
vt 0.445417 0.023279
vt 0.445180 0.022816
vt 0.445175 0.022865
vt 0.445390 0.022880
vt 0.445531 0.022648
vt 0.445530 0.022681
vt 0.445388 0.022914
vt 0.445526 0.023114
vt 0.445525 0.023149
vt 0.445802 0.023117
vt 0.445802 0.023152
vt 0.445943 0.022886
vt 0.445944 0.022920
vt 0.445808 0.022651
vt 0.445808 0.022684
vt 0.445170 0.022925
vt 0.445422 0.022509
vt 0.445420 0.022554
vt 0.445166 0.022974
vt 0.445414 0.023344
vt 0.445412 0.023395
vt 0.445909 0.023349
vt 0.445910 0.023401
vt 0.446163 0.022936
vt 0.446166 0.022984
vt 0.445920 0.022514
vt 0.445922 0.022559
vt 0.445666 0.023021
vt 0.447184 0.036649
vt 0.447202 0.036308
vt 0.447220 0.036002
vt 0.447262 0.035702
vt 0.447222 0.036019
vt 0.447945 0.035723
vt 0.447782 0.036206
vt 0.446686 0.053159
vt 0.446719 0.053153
vt 0.446733 0.053104
vt 0.446406 0.053021
vt 0.446686 0.053194
vt 0.445735 0.052693
vt 0.445770 0.052699
vt 0.445747 0.052448
vt 0.447903 0.036689
vt 0.447238 0.035995
vt 0.447219 0.036300
vt 0.447553 0.036318
vt 0.447916 0.036029
vt 0.447899 0.036601
vt 0.447724 0.036415
vt 0.447906 0.036271
vt 0.445776 0.052736
vt 0.445733 0.052729
vn 0.258819 0.965926 0.000000
vn 0.258819 0.965926 0.000000
vn 0.258819 0.965926 0.000000
vn 0.258819 0.965926 0.000000
vn -0.707106 0.707108 0.000000
vn -0.707106 0.707108 0.000000
vn -0.707106 0.707108 0.000000
vn -0.707106 0.707108 0.000000
vn -0.965926 -0.258819 0.000000
vn -0.965926 -0.258819 0.000000
vn -0.965926 -0.258819 0.000000
vn -0.965926 -0.258819 0.000000
vn -0.258819 -0.965926 0.000000
vn -0.258819 -0.965926 0.000000
vn -0.258819 -0.965926 0.000000
vn -0.258819 -0.965926 0.000000
vn 0.707106 -0.707108 0.000000
vn 0.707106 -0.707108 0.000000
vn 0.707106 -0.707108 0.000000
vn 0.707106 -0.707108 0.000000
vn 0.965926 0.258820 0.000000
vn 0.965926 0.258820 0.000000
vn 0.965926 0.258820 0.000000
vn 0.965926 0.258820 0.000000
vn 0.965926 0.258820 0.000000
vn 0.965926 0.258820 0.000000
vn 0.965926 0.258820 0.000000
vn 0.965926 0.258820 0.000000
vn 0.707107 -0.707107 0.000000
vn 0.707107 -0.707107 0.000000
vn 0.707107 -0.707107 0.000000
vn 0.707107 -0.707107 0.000000
vn -0.258819 -0.965926 0.000000
vn -0.258819 -0.965926 0.000000
vn -0.258819 -0.965926 0.000000
vn -0.258819 -0.965926 0.000000
vn -0.965926 -0.258819 0.000000
vn -0.965926 -0.258819 0.000000
vn -0.965926 -0.258819 0.000000
vn -0.965926 -0.258819 0.000000
vn -0.707107 0.707106 0.000000
vn -0.707107 0.707106 0.000000
vn -0.707107 0.707106 0.000000
vn -0.707107 0.707106 0.000000
vn 0.258819 0.965926 0.000000
vn 0.258819 0.965926 0.000000
vn 0.258819 0.965926 0.000000
vn 0.258819 0.965926 0.000000
vn 0.965926 0.258819 0.000000
vn 0.965926 0.258819 0.000000
vn 0.965926 0.258819 0.000000
vn 0.965926 0.258819 0.000000
vn 0.707107 -0.707106 0.000000
vn 0.707107 -0.707106 0.000000
vn 0.707107 -0.707107 0.000000
vn 0.707107 -0.707107 0.000000
vn -0.258819 -0.965926 0.000000
vn -0.258819 -0.965926 0.000000
vn -0.258819 -0.965926 0.000000
vn -0.258819 -0.965926 0.000000
vn -0.965926 -0.258820 0.000000
vn -0.965926 -0.258820 0.000000
vn -0.965926 -0.258820 0.000000
vn -0.965926 -0.258820 0.000000
vn -0.707107 0.707106 0.000000
vn -0.707107 0.707106 0.000000
vn -0.707107 0.707107 0.000000
vn -0.707107 0.707107 0.000000
vn 0.258819 0.965926 0.000000
vn 0.258819 0.965926 0.000000
vn 0.258819 0.965926 0.000000
vn 0.258819 0.965926 0.000000
vn 0.286370 0.076732 0.955042
vn 0.286370 0.076732 0.955042
vn 0.286370 0.076732 0.955042
vn 0.286370 0.076732 0.955042
vn 0.286372 0.076735 -0.955041
vn 0.286372 0.076735 -0.955041
vn 0.286372 0.076735 -0.955041
vn 0.286372 0.076735 -0.955041
vn 0.209641 -0.209638 0.955041
vn 0.209641 -0.209638 0.955041
vn 0.209641 -0.209638 0.955041
vn 0.209641 -0.209638 0.955041
vn 0.209638 -0.209641 -0.955041
vn 0.209638 -0.209641 -0.955041
vn 0.209638 -0.209641 -0.955041
vn 0.209638 -0.209641 -0.955041
vn -0.076732 -0.286371 0.955041
vn -0.076732 -0.286371 0.955041
vn -0.076732 -0.286371 0.955041
vn -0.076732 -0.286371 0.955041
vn -0.076733 -0.286372 -0.955041
vn -0.076733 -0.286372 -0.955041
vn -0.076733 -0.286372 -0.955041
vn -0.076733 -0.286372 -0.955041
vn -0.286368 -0.076731 0.955042
vn -0.286368 -0.076731 0.955042
vn -0.286368 -0.076731 0.955042
vn -0.286368 -0.076731 0.955042
vn -0.286372 -0.076735 -0.955041
vn -0.286372 -0.076735 -0.955041
vn -0.286372 -0.076735 -0.955041
vn -0.286372 -0.076735 -0.955041
vn -0.209641 0.209638 0.955041
vn -0.209641 0.209638 0.955041
vn -0.209641 0.209638 0.955041
vn -0.209641 0.209638 0.955041
vn -0.209638 0.209641 -0.955041
vn -0.209638 0.209641 -0.955041
vn -0.209638 0.209641 -0.955041
vn -0.209638 0.209641 -0.955041
vn 0.076734 0.286371 0.955041
vn 0.076734 0.286371 0.955041
vn 0.076734 0.286371 0.955041
vn 0.076734 0.286371 0.955041
vn 0.076733 0.286371 -0.955041
vn 0.076733 0.286371 -0.955041
vn 0.076733 0.286371 -0.955041
vn 0.076733 0.286371 -0.955041
vn 0.099256 0.370433 0.923541
vn 0.099256 0.370433 0.923541
vn 0.099256 0.370433 0.923541
vn -0.271177 0.271177 0.923540
vn -0.271177 0.271177 0.923540
vn -0.271177 0.271177 0.923540
vn -0.370434 -0.099257 0.923540
vn -0.370434 -0.099257 0.923540
vn -0.370434 -0.099257 0.923540
vn -0.099256 -0.370434 0.923541
vn -0.099256 -0.370434 0.923541
vn -0.099256 -0.370434 0.923540
vn 0.271177 -0.271177 0.923540
vn 0.271177 -0.271177 0.923540
vn 0.271177 -0.271177 0.923540
vn 0.370433 0.099257 0.923541
vn 0.370433 0.099257 0.923541
vn 0.370433 0.099257 0.923541
vn 1.000000 -0.000000 0.000002
vn 1.000000 -0.000000 0.000002
vn 1.000000 -0.000000 0.000002
vn 1.000000 -0.000000 0.000002
vn 1.000000 -0.000000 0.000002
vn -0.000000 0.000000 -1.000000
vn -0.000000 0.000000 -1.000000
vn -0.000000 0.000000 -1.000000
vn -0.000000 0.000000 -1.000000
vn 0.054538 -0.242843 0.968531
vn 0.054538 -0.242843 0.968531
vn 0.054538 -0.242843 0.968531
vn 0.054538 -0.242843 0.968531
vn 0.510588 -0.785187 0.350401
vn 0.510588 -0.785187 0.350401
vn 0.510588 -0.785187 0.350401
vn -0.426567 -0.053441 0.902876
vn -0.426567 -0.053441 0.902876
vn -0.426567 -0.053441 0.902876
vn 0.000000 1.000000 0.000000
vn 0.000000 1.000000 0.000000
vn 0.000000 1.000000 0.000000
vn 0.000000 1.000000 0.000000
vn -0.000000 -1.000000 0.000000
vn -0.000000 -1.000000 0.000000
vn -0.000000 -1.000000 0.000000
vn -0.000000 -1.000000 0.000000
vn -0.000000 -1.000000 0.000000
vn -0.000000 -1.000000 0.000000
vn 0.000000 0.000000 1.000000
vn 0.000000 0.000000 1.000000
vn 0.000000 0.000000 1.000000
vn 0.000000 0.000000 1.000000
vn 0.000000 0.000000 1.000000
vn 0.000000 0.000000 1.000000
vn 0.000000 0.000000 1.000000
vn -1.000000 0.000000 0.000000
vn -1.000000 0.000000 0.000000
vn -1.000000 0.000000 0.000000
vn -1.000000 0.000000 0.000000
vn -1.000000 0.000000 0.000000
vn -1.000000 0.000000 0.000000
vn -0.410849 -0.067413 0.909208
vn -0.410849 -0.067413 0.909208
vn -0.410849 -0.067413 0.909208
vn -0.410849 -0.067413 0.909208
s off
f 1/1/1 2/2/2 18/3/3 13/4/4
f 2/2/5 3/5/6 17/6/7 18/3/8
f 3/5/9 4/7/10 16/8/11 17/6/12
f 4/7/13 5/9/14 15/10/15 16/8/16
f 5/9/17 6/11/18 14/12/19 15/10/20
f 6/11/21 1/1/22 13/4/23 14/12/24
f 26/13/25 25/14/26 27/15/27 28/16/28
f 29/17/29 26/13/30 28/16/31 30/18/32
f 31/19/33 29/17/34 30/18/35 32/20/36
f 33/21/37 31/19/38 32/20/39 34/22/40
f 35/23/41 33/21/42 34/22/43 36/24/44
f 25/14/45 35/23/46 36/24/47 27/15/48
f 20/25/49 19/26/50 7/27/51 12/28/52
f 21/29/53 20/25/54 12/28/55 11/30/56
f 22/31/57 21/29/58 11/30/59 10/32/60
f 23/33/61 22/31/62 10/32/63 9/34/64
f 24/35/65 23/33/66 9/34/67 8/36/68
f 19/26/69 24/35/70 8/36/71 7/27/72
f 14/12/73 13/4/74 25/14/75 26/13/76
f 19/26/77 20/25/78 28/16/79 27/15/80
f 15/10/81 14/12/82 26/13/83 29/17/84
f 20/25/85 21/29/86 30/18/87 28/16/88
f 16/8/89 15/10/90 29/17/91 31/19/92
f 21/29/93 22/31/94 32/20/95 30/18/96
f 17/6/97 16/8/98 31/19/99 33/21/100
f 22/31/101 23/33/102 34/22/103 32/20/104
f 18/3/105 17/6/106 33/21/107 35/23/108
f 23/33/109 24/35/110 36/24/111 34/22/112
f 13/4/113 18/3/114 35/23/115 25/14/116
f 24/35/117 19/26/118 27/15/119 36/24/120
f 7/27/121 8/36/122 37/37/123
f 8/36/124 9/34/125 37/37/126
f 9/34/127 10/32/128 37/37/129
f 10/32/130 11/30/131 37/37/132
f 11/30/133 12/28/134 37/37/135
f 12/28/136 7/27/137 37/37/138
f 39/38/139 44/39/140 47/40/141 46/41/142 40/42/143
f 41/43/144 42/44/145 40/42/146 46/41/147
f 45/45/148 47/46/149 44/47/150 43/48/151
f 45/45/152 46/49/153 47/46/154
f 52/50/155 51/51/156 50/52/157
f 38/53/158 39/38/159 40/42/160 42/44/161
f 41/43/162 46/41/163 45/54/164 43/55/165 49/56/166 48/57/167
f 44/39/168 39/38/169 38/53/170 50/58/171 51/59/172 49/56/173 43/55/174
f 38/53/175 42/44/176 41/43/177 48/57/178 52/60/179 50/58/180
f 49/61/181 51/51/182 52/50/183 48/62/184
