# This file uses centimeters as units for non-parametric coordinates.

v -73.432198 0.064863 -13.394388
v -86.697708 0.000000 -13.447369
v -74.138000 3.491867 -13.261766
v -86.176704 3.358615 12.940874
v -73.302292 0.000000 13.447369
v -86.697708 0.000000 13.447369
v -83.348854 3.424737 -13.447369
v -86.697708 2.568553 -13.447369
v -86.697708 3.424737 -6.723684
v -77.990685 3.424737 13.447369
v -73.302292 3.424737 4.034210
v -73.302292 2.226079 13.447369
v -62.091862 3.424737 1.371166
v -62.221767 0.064863 -4.476503
v -62.927567 3.491867 -4.432006
v -62.091862 0.000000 4.529483
v -62.091862 2.226079 4.529483
v 75.612961 68.480377 2.607012
v 84.783417 68.480377 2.607012
v 75.612961 64.568787 4.763307
v 84.783417 64.568787 4.763307
v 78.425652 68.480377 -0.757104
v 81.970741 68.480377 -0.757104
v 82.177254 64.568787 -0.024731
v 78.219131 64.568787 -0.024731
v 75.612961 65.540985 7.573611
v 77.905350 66.209900 9.228924
v 75.612961 69.452583 7.573611
v 77.905350 70.121490 9.228924
v 84.783417 65.540985 7.573611
v 82.491028 66.209900 9.228924
v 84.783417 69.452583 7.573611
v 82.491028 70.121490 9.228924
v 73.432198 0.064863 13.394388
v 86.697708 0.000000 13.447369
v 74.138000 3.491867 13.261766
v 86.176704 3.358615 -12.940874
v 73.302292 0.000000 -13.447369
v 86.697708 0.000000 -13.447369
v 79.283691 3.424737 13.447369
v 86.697708 2.568553 13.447369
v 86.697708 3.424737 6.723684
v 77.990685 3.424737 -13.447369
v 73.302292 3.424737 -4.034210
v 73.302292 2.226079 -13.447369
v 63.139732 3.424737 -1.371166
v 63.321060 0.064863 4.476503
v 64.026863 3.491867 4.432006
v 62.091862 0.000000 -4.529483
v 62.091862 2.226079 -4.529483
v -81.863472 3.080274 6.950589
v -78.136528 3.080274 6.950589
v -82.278694 84.950630 1.323860
v -78.676147 84.950630 2.278692
v -81.323875 84.950630 -2.278692
v -77.965378 84.328323 -0.986209
v -81.863472 3.080274 -6.950589
v -78.136528 3.080274 -6.950589
v -81.865311 30.877172 1.861635
v -78.137848 30.537390 1.864783
v -81.528000 29.632910 -1.863470
v -78.472008 29.354294 -1.863470
v -81.616142 56.185158 -2.081622
v -77.923584 55.739723 -1.622802
v -81.618172 57.946617 1.678263
v -78.828926 53.096737 2.015833
v -81.381813 73.514740 -2.244026
v -78.097672 72.720695 -1.269628
v -82.246262 73.890465 1.378207
v -78.965080 73.096413 2.358011
v -81.864418 17.370604 1.862526
v -78.137207 17.258419 1.864148
v -81.682251 17.423903 -1.863470
v -78.318382 17.322674 -1.863470
v 81.863472 3.080274 -6.950589
v 78.136528 3.080274 -6.950589
v 82.278694 84.950630 -1.323860
v 78.676147 84.950630 -2.278692
v 81.323875 84.950630 2.278692
v 77.965378 84.328323 0.986209
v 81.863472 3.080274 6.950589
v 78.136528 3.080274 6.950589
v 81.865311 30.877172 -1.861635
v 78.137848 30.537390 -1.864783
v 81.528000 29.632910 1.863470
v 78.472008 29.354294 1.863470
v 81.616142 56.185158 2.081622
v 77.923584 55.739723 1.622802
v 81.618172 57.946617 -1.678263
v 78.828926 53.096737 -2.015833
v 81.381813 73.514740 2.244026
v 78.097672 72.720695 1.269628
v 82.246262 73.890465 -1.378207
v 78.965080 73.096413 -2.358011
v 81.864418 17.370604 -1.862526
v 78.137207 17.258419 -1.864148
v 81.682251 17.423903 1.863470
v 78.318382 17.322674 1.863470
v -84.585213 68.480377 3.127766
v -75.414757 68.480377 3.127766
v -84.585213 64.568787 5.284060
v -75.414757 64.568787 5.284060
v -81.979042 68.480377 -1.660267
v -78.020920 68.480377 -1.660267
v -78.020920 64.568787 0.496023
v -81.979042 64.568787 0.496023
v -84.585213 65.540985 8.094365
v -82.292831 66.209900 9.749678
v -84.585213 69.452583 8.094365
v -82.292831 70.121490 9.749678
v -75.414757 65.540985 8.094365
v -77.707146 66.209900 9.749678
v -75.414757 69.452583 8.094365
v -77.707146 70.121490 9.749678
vt 0.081587 0.252001
vt 0.081002 0.251864
vt 0.081579 0.251831
vt 0.081410 0.251462
vt 0.081418 0.251626
vt 0.081993 0.251754
vt 0.081286 0.251764
vt 0.080997 0.251781
vt 0.081202 0.251579
vt 0.081698 0.251525
vt 0.081783 0.251710
vt 0.081990 0.251671
vt 0.081587 0.252001
vt 0.081579 0.251831
vt 0.081783 0.251710
vt 0.081993 0.251754
vt 0.081990 0.251671
vt 0.081127 0.256045
vt 0.081143 0.256269
vt 0.081010 0.256022
vt 0.080993 0.255797
vt 0.081993 0.255856
vt 0.081867 0.255650
vt 0.081714 0.255919
vt 0.081835 0.256127
vt 0.081340 0.256393
vt 0.081073 0.255901
vt 0.081056 0.255678
vt 0.081285 0.255892
vt 0.081433 0.255623
vt 0.081557 0.256380
vt 0.081328 0.256171
vt 0.081714 0.256108
vt 0.080997 0.251781
vt 0.081202 0.251579
vt 0.081286 0.251764
vt 0.081993 0.251754
vt 0.081418 0.251626
vt 0.081002 0.251864
vt 0.081587 0.252001
vt 0.081990 0.251671
vt 0.081783 0.251710
vt 0.081698 0.251525
vt 0.081410 0.251462
vt 0.081579 0.251831
vt 0.081783 0.251710
vt 0.081587 0.252001
vt 0.081579 0.251831
vt 0.081993 0.251754
vt 0.081990 0.251671
vt 0.081639 0.252226
vt 0.081614 0.252194
vt 0.081616 0.252054
vt 0.081641 0.252086
vt 0.081714 0.251238
vt 0.081622 0.251237
vt 0.081665 0.251226
vt 0.081667 0.251395
vt 0.081709 0.251406
vt 0.081683 0.252209
vt 0.081658 0.252176
vt 0.081662 0.252038
vt 0.081686 0.252066
vt 0.081644 0.251952
vt 0.081617 0.251923
vt 0.081623 0.251672
vt 0.081650 0.251634
vt 0.081688 0.251945
vt 0.081666 0.251921
vt 0.081666 0.251615
vt 0.081701 0.251639
vt 0.081622 0.251413
vt 0.081663 0.251425
vt 0.081668 0.251262
vt 0.081639 0.252226
vt 0.081614 0.252194
vt 0.081616 0.252054
vt 0.081641 0.252086
vt 0.081714 0.251238
vt 0.081622 0.251237
vt 0.081665 0.251226
vt 0.081667 0.251395
vt 0.081709 0.251406
vt 0.081683 0.252209
vt 0.081658 0.252176
vt 0.081662 0.252038
vt 0.081686 0.252066
vt 0.081644 0.251952
vt 0.081617 0.251923
vt 0.081623 0.251672
vt 0.081650 0.251634
vt 0.081688 0.251945
vt 0.081666 0.251921
vt 0.081666 0.251615
vt 0.081701 0.251639
vt 0.081622 0.251413
vt 0.081663 0.251425
vt 0.081668 0.251262
vt 0.081127 0.256045
vt 0.081143 0.256269
vt 0.081010 0.256022
vt 0.080993 0.255797
vt 0.081993 0.255856
vt 0.081867 0.255650
vt 0.081714 0.255919
vt 0.081835 0.256127
vt 0.081340 0.256393
vt 0.081073 0.255901
vt 0.081056 0.255678
vt 0.081285 0.255892
vt 0.081433 0.255623
vt 0.081557 0.256380
vt 0.081328 0.256171
vt 0.081714 0.256108
vn -0.245834 0.961547 -0.122442
vn -0.245834 0.961547 -0.122442
vn -0.245834 0.961547 -0.122442
vn 0.002435 -0.999996 -0.001213
vn 0.002435 -0.999996 -0.001213
vn 0.002435 -0.999996 -0.001213
vn 0.002435 -0.999996 -0.001213
vn 0.245834 0.961547 0.122442
vn 0.245834 0.961547 0.122442
vn 0.245834 0.961547 0.122442
vn -0.987212 0.157167 0.026685
vn -0.987212 0.157167 0.026685
vn -0.987212 0.157167 0.026685
vn 0.019816 0.042737 -0.998890
vn 0.019816 0.042737 -0.998890
vn 0.019816 0.042737 -0.998890
vn -0.004279 0.999989 0.002047
vn -0.004279 0.999989 0.002047
vn -0.004279 0.999989 0.002047
vn -0.004279 0.999989 0.002047
vn -0.062250 0.158264 0.985433
vn -0.062250 0.158264 0.985433
vn -0.062250 0.158264 0.985433
vn 0.969810 0.201518 -0.137330
vn 0.969810 0.201518 -0.137330
vn 0.969810 0.201518 -0.137330
vn 0.999871 -0.010890 -0.011809
vn 0.999871 -0.010890 -0.011809
vn 0.999871 -0.010890 -0.011809
vn 0.999871 -0.010890 -0.011809
vn 0.003371 -0.003297 -0.999989
vn 0.003371 -0.003297 -0.999989
vn 0.003371 -0.003297 -0.999989
vn 0.003371 -0.003297 -0.999989
vn -1.000000 0.000000 0.000000
vn -1.000000 0.000000 0.000000
vn -1.000000 0.000000 0.000000
vn -1.000000 0.000000 0.000000
vn -0.000000 0.000000 1.000000
vn -0.000000 0.000000 1.000000
vn -0.000000 0.000000 1.000000
vn -0.000000 0.000000 1.000000
vn -0.003774 0.999991 0.001969
vn -0.003774 0.999991 0.001969
vn -0.003774 0.999991 0.001969
vn -0.003774 0.999991 0.001969
vn 0.613960 0.146490 -0.775625
vn 0.613960 0.146490 -0.775625
vn 0.613960 0.146490 -0.775625
vn 0.613960 0.146490 -0.775625
vn -0.001631 0.999981 0.005930
vn -0.001631 0.999981 0.005930
vn -0.001631 0.999981 0.005930
vn -0.001631 0.999981 0.005930
vn -0.000000 -0.999994 -0.003619
vn -0.000000 -0.999994 -0.003619
vn -0.000000 -0.999994 -0.003619
vn -0.000000 -0.999994 -0.003619
vn 0.096305 0.977733 0.186449
vn 0.096305 0.977733 0.186449
vn 0.096305 0.977733 0.186449
vn 0.096305 0.977733 0.186449
vn 0.622545 0.000000 0.782584
vn 0.622545 0.000000 0.782584
vn 0.622545 0.000000 0.782584
vn 0.622545 0.000000 0.782584
vn 0.000000 0.000000 1.000000
vn 0.000000 0.000000 1.000000
vn 0.000000 0.000000 1.000000
vn 0.000000 0.000000 1.000000
vn 0.000000 -0.184034 -0.982920
vn 0.000000 -0.184034 -0.982920
vn 0.000000 -0.184034 -0.982920
vn 0.000000 -0.184034 -0.982920
vn 0.000000 -0.942360 0.334601
vn 0.000000 -0.942360 0.334601
vn 0.000000 -0.927159 0.374667
vn 0.000000 -0.927159 0.374667
vn 1.000000 0.000000 0.000000
vn 1.000000 0.000000 0.000000
vn 1.000000 0.000000 0.000000
vn 1.000000 0.000000 0.000000
vn -1.000000 0.000000 0.000000
vn -1.000000 0.000000 0.000000
vn -1.000000 0.000000 0.000000
vn -1.000000 0.000000 0.000000
vn 0.000000 1.000000 0.000001
vn 0.000000 1.000000 0.000001
vn 0.000000 1.000000 0.000001
vn 0.000000 1.000000 0.000001
vn 0.819280 -0.179459 -0.544586
vn 0.819280 -0.179459 -0.544586
vn 0.819280 -0.179459 -0.544586
vn 0.819280 -0.179459 -0.544586
vn 0.000000 -1.000000 -0.000001
vn 0.000000 -1.000000 -0.000001
vn 0.000000 -1.000000 -0.000001
vn 0.000000 -1.000000 -0.000001
vn -0.819279 -0.179460 -0.544587
vn -0.819279 -0.179460 -0.544587
vn -0.819279 -0.179460 -0.544587
vn -0.819279 -0.179460 -0.544587
vn 0.000000 0.977539 -0.210755
vn 0.000000 0.927162 -0.374662
vn 0.000000 0.927162 -0.374662
vn 0.000000 0.977539 -0.210755
vn -0.585421 0.000000 0.810730
vn -0.585421 0.000000 0.810730
vn -0.585421 0.000000 0.810730
vn -0.585421 0.000000 0.810730
vn 0.585421 0.000000 0.810730
vn 0.585421 0.000000 0.810730
vn 0.585421 0.000000 0.810730
vn 0.585421 0.000000 0.810730
vn 0.000000 0.977539 -0.210755
vn 0.000000 0.977539 -0.210755
vn 0.000000 0.981375 -0.192103
vn 0.000000 0.981375 -0.192103
vn 0.000000 -0.945048 0.326931
vn 0.000000 -0.945048 0.326931
vn 0.000000 -0.942360 0.334601
vn 0.000000 -0.942360 0.334601
vn 0.113812 0.985544 0.125498
vn 0.113812 0.985544 0.125498
vn 0.113812 0.985544 0.125498
vn -0.002435 -0.999996 0.001213
vn -0.002435 -0.999996 0.001213
vn -0.002435 -0.999996 0.001213
vn -0.002435 -0.999996 0.001213
vn -0.245834 0.961547 -0.122442
vn -0.245834 0.961547 -0.122442
vn -0.245834 0.961547 -0.122442
vn 0.987212 0.157167 -0.026685
vn 0.987212 0.157167 -0.026685
vn 0.987212 0.157167 -0.026685
vn -0.035409 0.045926 0.998317
vn -0.035409 0.045926 0.998317
vn -0.035409 0.045926 0.998317
vn 0.004676 0.999988 -0.001284
vn 0.004676 0.999988 -0.001284
vn 0.004676 0.999988 -0.001284
vn 0.004676 0.999988 -0.001284
vn 0.062250 0.158264 -0.985433
vn 0.062250 0.158264 -0.985433
vn 0.062250 0.158264 -0.985433
vn -0.968610 0.201381 0.145742
vn -0.968610 0.201381 0.145742
vn -0.968610 0.201381 0.145742
vn -0.975302 0.143824 0.167630
vn -0.975302 0.143824 0.167630
vn -0.975302 0.143824 0.167630
vn -0.975302 0.143824 0.167630
vn -0.002835 -0.006138 0.999977
vn -0.002835 -0.006138 0.999977
vn -0.002835 -0.006138 0.999977
vn -0.002835 -0.006138 0.999977
vn 1.000000 0.000000 0.000000
vn 1.000000 0.000000 0.000000
vn 1.000000 0.000000 0.000000
vn 1.000000 0.000000 0.000000
vn 0.000000 0.000000 -1.000000
vn 0.000000 0.000000 -1.000000
vn 0.000000 0.000000 -1.000000
vn 0.000000 0.000000 -1.000000
vn 0.003774 0.999991 -0.001969
vn 0.003774 0.999991 -0.001969
vn 0.003774 0.999991 -0.001969
vn 0.003774 0.999991 -0.001969
vn -0.651812 0.153435 0.742697
vn -0.651812 0.153435 0.742697
vn -0.651812 0.153435 0.742697
vn -0.651812 0.153435 0.742697
vn 0.001809 0.999981 -0.005947
vn 0.001809 0.999981 -0.005947
vn 0.001809 0.999981 -0.005947
vn 0.001809 0.999981 -0.005947
vn 0.000000 -0.999994 0.003619
vn 0.000000 -0.999994 0.003619
vn 0.000000 -0.999994 0.003619
vn 0.000000 -0.999994 0.003619
vn -0.096800 0.979140 -0.178648
vn -0.096800 0.979140 -0.178648
vn -0.096800 0.979140 -0.178648
vn -0.096800 0.979140 -0.178648
vn -0.622545 0.000000 -0.782584
vn -0.622545 0.000000 -0.782584
vn -0.622545 0.000000 -0.782584
vn -0.622545 0.000000 -0.782584
vn 0.004860 0.336543 0.941656
vn 0.004860 0.336543 0.941656
vn 0.002362 0.184261 0.982875
vn 0.002258 0.177917 0.984043
vn 0.102119 0.993002 -0.059326
vn 0.107178 0.992288 -0.062265
vn 0.230049 0.963958 -0.133648
vn 0.324402 0.007533 -0.945889
vn 0.324402 0.007533 -0.945889
vn 0.243332 0.005916 -0.969925
vn 0.259837 0.006246 -0.965632
vn 0.000000 -1.000000 0.000000
vn 0.000000 -1.000000 0.000000
vn 0.000000 -1.000000 0.000000
vn 0.000000 -1.000000 0.000000
vn 0.999927 0.006423 -0.010253
vn 0.999927 0.006423 -0.010253
vn 0.999678 0.006343 -0.024589
vn 0.999688 0.006346 -0.024143
vn -0.999927 0.006296 -0.010315
vn -0.999927 0.006296 -0.010315
vn -0.999681 0.006215 -0.024473
vn -0.999672 0.006213 -0.024850
vn -0.033698 0.000122 0.999432
vn -0.030687 0.000112 0.999529
vn -0.071692 -0.000519 0.997427
vn -0.180062 -0.004420 0.983645
vn 0.048837 -0.000119 -0.998807
vn 0.045705 -0.000111 -0.998955
vn 0.002880 0.201723 -0.979438
vn 0.002792 0.195596 -0.980681
vn 0.999215 0.003277 0.039470
vn 0.999907 0.003960 0.013041
vn 0.983682 0.003172 0.179889
vn 0.992868 0.002646 0.119190
vn -0.998399 0.004006 -0.056426
vn -0.998634 0.003415 -0.052142
vn -0.996714 -0.005648 -0.080804
vn -0.997972 -0.001532 -0.063645
vn 0.127396 0.002160 -0.991850
vn 0.117921 0.001790 -0.993021
vn 0.045705 -0.000111 -0.998955
vn 0.048837 -0.000119 -0.998807
vn -0.180062 -0.004420 0.983645
vn -0.071692 -0.000519 0.997427
vn -0.236256 -0.000551 0.971691
vn -0.243996 0.001573 0.969775
vn 0.992868 0.002646 0.119190
vn 0.983682 0.003172 0.179889
vn 0.972235 -0.004137 0.233972
vn 0.972425 -0.005694 0.233147
vn -0.997972 -0.001532 -0.063645
vn -0.996714 -0.005648 -0.080804
vn -0.985426 -0.007525 -0.169936
vn -0.986690 -0.008294 -0.162398
vn 0.259837 0.006246 -0.965632
vn 0.243332 0.005916 -0.969925
vn 0.117921 0.001790 -0.993021
vn 0.127396 0.002160 -0.991850
vn -0.243996 0.001573 0.969775
vn -0.236256 -0.000551 0.971691
vn -0.269629 0.008635 0.962926
vn -0.269629 0.008635 0.962926
vn 0.972425 -0.005694 0.233147
vn 0.972235 -0.004137 0.233972
vn 0.973973 -0.019450 0.225826
vn 0.973973 -0.019450 0.225826
vn -0.986690 -0.008294 -0.162398
vn -0.985426 -0.007525 -0.169936
vn -0.969727 0.000134 -0.244193
vn -0.969727 0.000134 -0.244193
vn 0.000000 1.000000 0.000001
vn 0.107178 0.992288 -0.062265
vn 0.102119 0.993002 -0.059326
vn 0.002258 0.177917 0.984043
vn 0.002362 0.184261 0.982875
vn -0.030687 0.000112 0.999529
vn -0.033698 0.000122 0.999432
vn 0.999688 0.006346 -0.024143
vn 0.999678 0.006343 -0.024589
vn 0.999907 0.003960 0.013041
vn 0.999215 0.003277 0.039470
vn -0.999672 0.006213 -0.024850
vn -0.999681 0.006215 -0.024473
vn -0.998634 0.003415 -0.052142
vn -0.998399 0.004006 -0.056426
vn 0.002792 0.195596 -0.980681
vn 0.002880 0.201723 -0.979438
vn 0.004787 0.335308 -0.942097
vn 0.004787 0.335308 -0.942097
vn -0.004860 0.336543 -0.941656
vn -0.004860 0.336543 -0.941656
vn -0.002362 0.184261 -0.982875
vn -0.002258 0.177917 -0.984043
vn -0.102119 0.993002 0.059326
vn -0.107178 0.992288 0.062265
vn -0.230049 0.963958 0.133648
vn -0.324402 0.007533 0.945889
vn -0.324402 0.007533 0.945889
vn -0.243332 0.005916 0.969925
vn -0.259837 0.006246 0.965632
vn 0.000000 -1.000000 0.000000
vn 0.000000 -1.000000 0.000000
vn 0.000000 -1.000000 0.000000
vn 0.000000 -1.000000 0.000000
vn -0.999927 0.006423 0.010253
vn -0.999927 0.006423 0.010253
vn -0.999678 0.006343 0.024589
vn -0.999688 0.006346 0.024143
vn 0.999927 0.006296 0.010315
vn 0.999927 0.006296 0.010315
vn 0.999681 0.006215 0.024473
vn 0.999672 0.006213 0.024850
vn 0.033698 0.000122 -0.999432
vn 0.030687 0.000112 -0.999529
vn 0.071692 -0.000519 -0.997427
vn 0.180062 -0.004420 -0.983645
vn -0.048837 -0.000119 0.998807
vn -0.045705 -0.000111 0.998955
vn -0.002880 0.201723 0.979438
vn -0.002792 0.195596 0.980681
vn -0.999215 0.003277 -0.039470
vn -0.999907 0.003960 -0.013041
vn -0.983682 0.003172 -0.179889
vn -0.992868 0.002646 -0.119190
vn 0.998399 0.004006 0.056426
vn 0.998634 0.003415 0.052142
vn 0.996714 -0.005648 0.080804
vn 0.997972 -0.001532 0.063645
vn -0.127396 0.002160 0.991850
vn -0.117921 0.001790 0.993021
vn -0.045705 -0.000111 0.998955
vn -0.048837 -0.000119 0.998807
vn 0.180062 -0.004420 -0.983645
vn 0.071692 -0.000519 -0.997427
vn 0.236256 -0.000551 -0.971691
vn 0.243996 0.001573 -0.969775
vn -0.992868 0.002646 -0.119190
vn -0.983682 0.003172 -0.179889
vn -0.972235 -0.004137 -0.233972
vn -0.972425 -0.005694 -0.233147
vn 0.997972 -0.001532 0.063645
vn 0.996714 -0.005648 0.080804
vn 0.985426 -0.007525 0.169936
vn 0.986690 -0.008294 0.162398
vn -0.259837 0.006246 0.965632
vn -0.243332 0.005916 0.969925
vn -0.117921 0.001790 0.993021
vn -0.127396 0.002160 0.991850
vn 0.243996 0.001573 -0.969775
vn 0.236256 -0.000551 -0.971691
vn 0.269629 0.008635 -0.962926
vn 0.269629 0.008635 -0.962926
vn -0.972425 -0.005694 -0.233147
vn -0.972235 -0.004137 -0.233972
vn -0.973973 -0.019450 -0.225826
vn -0.973973 -0.019450 -0.225826
vn 0.986690 -0.008294 0.162398
vn 0.985426 -0.007525 0.169936
vn 0.969727 0.000134 0.244193
vn 0.969727 0.000134 0.244193
vn 0.000000 1.000000 -0.000001
vn -0.107178 0.992288 0.062265
vn -0.102119 0.993002 0.059326
vn -0.002258 0.177917 -0.984043
vn -0.002362 0.184261 -0.982875
vn 0.030687 0.000112 -0.999529
vn 0.033698 0.000122 -0.999432
vn -0.999688 0.006346 0.024143
vn -0.999678 0.006343 0.024589
vn -0.999907 0.003960 -0.013041
vn -0.999215 0.003277 -0.039470
vn 0.999672 0.006213 0.024850
vn 0.999681 0.006215 0.024473
vn 0.998634 0.003415 0.052142
vn 0.998399 0.004006 0.056426
vn -0.002792 0.195596 0.980681
vn -0.002880 0.201723 0.979438
vn -0.004787 0.335308 0.942097
vn -0.004787 0.335308 0.942097
vn 0.000000 0.000000 1.000000
vn 0.000000 0.000000 1.000000
vn 0.000000 0.000000 1.000000
vn 0.000000 0.000000 1.000000
vn 0.000000 -0.482763 -0.875751
vn 0.000000 -0.482763 -0.875751
vn 0.000000 -0.482763 -0.875751
vn 0.000000 -0.482763 -0.875751
vn 0.000000 -0.942360 0.334601
vn 0.000000 -0.942360 0.334601
vn 0.000000 -0.927159 0.374668
vn 0.000000 -0.927159 0.374668
vn 1.000000 0.000002 0.000000
vn 1.000000 0.000002 0.000000
vn 1.000000 0.000002 0.000000
vn 1.000000 0.000002 0.000000
vn -1.000000 0.000000 0.000000
vn -1.000000 0.000000 0.000000
vn -1.000000 0.000000 0.000000
vn -1.000000 0.000000 0.000000
vn 0.000000 1.000000 -0.000000
vn 0.000000 1.000000 -0.000000
vn 0.000000 1.000000 -0.000000
vn 0.000000 1.000000 -0.000000
vn 0.849319 -0.254842 -0.462291
vn 0.849319 -0.254842 -0.462291
vn 0.849319 -0.254842 -0.462291
vn 0.849319 -0.254842 -0.462291
vn 0.000000 -1.000000 -0.000001
vn 0.000000 -1.000000 -0.000001
vn 0.000000 -1.000000 -0.000001
vn 0.000000 -1.000000 -0.000001
vn -0.849319 -0.254841 -0.462291
vn -0.849319 -0.254841 -0.462291
vn -0.849319 -0.254841 -0.462291
vn -0.849319 -0.254841 -0.462291
vn 0.000000 0.977539 -0.210756
vn 0.000000 0.927162 -0.374662
vn 0.000000 0.927162 -0.374662
vn 0.000000 0.977539 -0.210756
vn -0.585422 0.000000 0.810729
vn -0.585422 0.000000 0.810729
vn -0.585422 0.000000 0.810729
vn -0.585422 0.000000 0.810729
vn 0.585421 0.000000 0.810730
vn 0.585421 0.000000 0.810730
vn 0.585421 0.000000 0.810730
vn 0.585421 0.000000 0.810730
vn 0.000000 0.977539 -0.210756
vn 0.000000 0.977539 -0.210756
vn 0.000000 0.981375 -0.192103
vn 0.000000 0.981375 -0.192103
vn 0.000000 -0.945048 0.326931
vn 0.000000 -0.945048 0.326931
vn 0.000000 -0.942360 0.334601
vn 0.000000 -0.942360 0.334601
s off
f 8/8/1 9/9/2 7/7/3
f 5/6/4 6/5/5 2/2/6 1/1/7
f 12/12/8 11/11/9 10/10/10
f 9/9/11 6/5/12 4/4/13
f 1/1/14 7/7/15 3/3/16
f 3/3/17 7/7/18 9/9/19 4/4/20
f 6/5/21 10/10/22 4/4/23
f 13/15/24 14/13/25 15/14/26
f 16/16/27 14/13/28 13/15/29 17/17/30
f 1/1/31 2/2/32 8/8/33 7/7/34
f 2/2/35 6/5/36 9/9/37 8/8/38
f 12/12/39 10/10/40 6/5/41 5/6/42
f 3/3/43 4/4/44 10/10/45 11/11/46
f 1/1/47 3/3/48 15/14/49 14/13/50
f 3/3/51 11/11/52 13/15/53 15/14/54
f 5/6/55 1/1/56 14/13/57 16/16/58
f 11/11/59 12/12/60 17/17/61 13/15/62
f 12/12/63 5/6/64 16/16/65 17/17/66
f 29/18/67 27/19/68 31/20/69 33/21/70
f 22/22/71 23/23/72 24/24/73 25/25/74
f 26/26/75 30/27/76 31/20/77 27/19/78
f 32/28/79 30/27/80 21/29/81 19/30/82
f 20/31/83 26/26/84 28/32/85 18/33/86
f 18/33/87 19/30/88 23/23/89 22/22/90
f 19/30/91 21/29/92 24/24/93 23/23/94
f 21/29/95 20/31/96 25/25/97 24/24/98
f 20/31/99 18/33/100 22/22/101 25/25/102
f 28/32/103 29/18/104 33/21/105 32/28/106
f 26/26/107 27/19/108 29/18/109 28/32/110
f 31/20/111 30/27/112 32/28/113 33/21/114
f 28/32/115 32/28/116 19/30/117 18/33/118
f 20/31/119 21/29/120 30/27/121 26/26/122
f 41/34/123 42/35/124 40/36/125
f 38/37/126 39/38/127 35/39/128 34/40/129
f 45/41/130 44/42/131 43/43/132
f 42/35/133 39/38/134 37/44/135
f 34/40/136 40/36/137 36/45/138
f 36/45/139 40/36/140 42/35/141 37/44/142
f 39/38/143 43/43/144 37/44/145
f 46/46/146 47/47/147 48/48/148
f 49/49/149 47/47/150 46/46/151 50/50/152
f 34/40/153 35/39/154 41/34/155 40/36/156
f 35/39/157 39/38/158 42/35/159 41/34/160
f 45/41/161 43/43/162 39/38/163 38/37/164
f 36/45/165 37/44/166 43/43/167 44/42/168
f 34/40/169 36/45/170 48/48/171 47/47/172
f 36/45/173 44/42/174 46/46/175 48/48/176
f 38/37/177 34/40/178 47/47/179 49/49/180
f 44/42/181 45/41/182 50/50/183 46/46/184
f 45/41/185 38/37/186 49/49/187 50/50/188
f 51/51/189 52/52/190 72/53/191 71/54/192
f 55/55/193 54/56/194 56/57/195
f 55/55/196 56/57/197 68/58/198 67/59/199
f 57/60/200 58/61/201 52/52/202 51/51/203
f 52/52/204 58/61/205 74/62/206 72/53/207
f 57/60/208 51/51/209 71/54/210 73/63/211
f 59/64/212 60/65/213 66/66/214 65/67/215
f 61/68/216 62/69/217 74/62/218 73/63/219
f 60/65/220 62/69/221 64/70/222 66/66/223
f 61/68/224 59/64/225 65/67/226 63/71/227
f 63/71/228 64/70/229 62/69/230 61/68/231
f 65/67/232 66/66/233 70/72/234 69/73/235
f 66/66/236 64/70/237 68/58/238 70/72/239
f 63/71/240 65/67/241 69/73/242 67/59/243
f 67/59/244 68/58/245 64/70/246 63/71/247
f 69/73/248 70/72/249 54/56/250 53/74/251
f 70/72/252 68/58/253 56/57/254 54/56/255
f 67/59/256 69/73/257 53/74/258 55/55/259
f 53/74/260 54/56/261 55/55/262
f 71/54/263 72/53/264 60/65/265 59/64/266
f 72/53/267 74/62/268 62/69/269 60/65/270
f 73/63/271 71/54/272 59/64/273 61/68/274
f 73/63/275 74/62/276 58/61/277 57/60/278
f 75/75/279 76/76/280 96/77/281 95/78/282
f 79/79/283 78/80/284 80/81/285
f 79/79/286 80/81/287 92/82/288 91/83/289
f 81/84/290 82/85/291 76/76/292 75/75/293
f 76/76/294 82/85/295 98/86/296 96/77/297
f 81/84/298 75/75/299 95/78/300 97/87/301
f 83/88/302 84/89/303 90/90/304 89/91/305
f 85/92/306 86/93/307 98/86/308 97/87/309
f 84/89/310 86/93/311 88/94/312 90/90/313
f 85/92/314 83/88/315 89/91/316 87/95/317
f 87/95/318 88/94/319 86/93/320 85/92/321
f 89/91/322 90/90/323 94/96/324 93/97/325
f 90/90/326 88/94/327 92/82/328 94/96/329
f 87/95/330 89/91/331 93/97/332 91/83/333
f 91/83/334 92/82/335 88/94/336 87/95/337
f 93/97/338 94/96/339 78/80/340 77/98/341
f 94/96/342 92/82/343 80/81/344 78/80/345
f 91/83/346 93/97/347 77/98/348 79/79/349
f 77/98/350 78/80/351 79/79/352
f 95/78/353 96/77/354 84/89/355 83/88/356
f 96/77/357 98/86/358 86/93/359 84/89/360
f 97/87/361 95/78/362 83/88/363 85/92/364
f 97/87/365 98/86/366 82/85/367 81/84/368
f 110/99/369 108/100/370 112/101/371 114/102/372
f 103/103/373 104/104/374 105/105/375 106/106/376
f 107/107/377 111/108/378 112/101/379 108/100/380
f 113/109/381 111/108/382 102/110/383 100/111/384
f 101/112/385 107/107/386 109/113/387 99/114/388
f 99/114/389 100/111/390 104/104/391 103/103/392
f 100/111/393 102/110/394 105/105/395 104/104/396
f 102/110/397 101/112/398 106/106/399 105/105/400
f 101/112/401 99/114/402 103/103/403 106/106/404
f 109/113/405 110/99/406 114/102/407 113/109/408
f 107/107/409 108/100/410 110/99/411 109/113/412
f 112/101/413 111/108/414 113/109/415 114/102/416
f 109/113/417 113/109/418 100/111/419 99/114/420
f 101/112/421 102/110/422 111/108/423 107/107/424
