# This file uses centimeters as units for non-parametric coordinates.

v 16.434956 -0.201202 -109.580345
v -16.266207 -0.201202 -109.580360
v -31.115532 -0.201202 -95.284836
v -31.337950 -0.201202 92.370102
v -16.089058 -0.201202 104.037613
v 12.980652 -0.201202 106.158211
v 31.337994 -0.201202 92.370140
v 32.188419 -0.201202 -97.833588
v 16.434956 1.314743 -109.580345
v -16.266207 1.314743 -109.580360
v -31.115532 1.314743 -95.284836
v -31.337950 1.314743 92.370102
v -16.089058 1.314743 104.037613
v 12.980652 1.314743 106.158211
v 31.337994 1.314743 92.370140
v 32.188419 1.314743 -97.833588
v -39.036537 -0.201202 70.845093
v 39.036610 -0.201202 73.349045
v -39.036541 1.314743 70.605164
v 39.036606 1.314743 73.109138
v -36.637310 3.191864 -71.925705
v -36.637295 4.707809 -71.705154
v 39.036606 -0.201202 -76.102516
v 39.036606 1.314743 -75.881989
v -21.686905 2.623421 99.618973
v 37.776009 -0.201202 79.138268
v -21.680651 4.139366 99.623642
v 37.695404 1.314743 79.173401
v 10.508391 1.314743 88.344986
v 3.489308 -0.201202 90.797447
v 0.199524 1.314743 108.073936
v 0.880411 -0.201202 108.073914
v -36.177425 -0.201202 -80.271935
v -36.230324 1.314743 -79.946007
v 38.020359 -0.201202 -79.327324
v 38.064892 1.314743 -78.996765
v -1.604394 -0.201202 -113.109604
v -1.552813 1.314743 -113.109604
v 7.220572 -0.201202 72.328636
v 7.260777 1.314743 72.090019
v 0.195380 1.020706 -79.157898
v 0.257358 2.536652 -78.939613
v -0.313684 -0.201202 -87.631645
v -0.246298 1.314743 -87.300026
v 39.036610 -0.201202 -74.353706
v 39.036606 1.314743 -74.346085
v -39.036434 -0.201202 -65.668266
v -39.036438 1.314743 -65.660622
v 0.213994 -0.201202 -76.561684
v 0.265657 1.314743 -76.559799
v 28.900679 1.314743 -76.681175
vt 0.218631 0.327554
vt 0.218681 0.327603
vt 0.218682 0.327599
vt 0.218631 0.327550
vt 0.218660 0.327652
vt 0.218661 0.327647
vt 0.218571 0.327688
vt 0.218570 0.327683
vt 0.217799 0.327833
vt 0.217710 0.327804
vt 0.217710 0.327799
vt 0.217799 0.327828
vt 0.217682 0.327746
vt 0.217682 0.327741
vt 0.217728 0.327694
vt 0.217727 0.327689
vt 0.217807 0.327661
vt 0.217807 0.327656
vt 0.218540 0.327532
vt 0.218541 0.327528
vt 0.218443 0.327537
vt 0.218442 0.327533
vt 0.217916 0.327823
vt 0.217915 0.327828
vt 0.217752 0.327818
vt 0.217783 0.327671
vt 0.217752 0.327813
vt 0.217782 0.327667
vt 0.217769 0.327732
vt 0.217765 0.327754
vt 0.217696 0.327770
vt 0.217695 0.327773
vt 0.218606 0.327674
vt 0.218605 0.327670
vt 0.218457 0.327536
vt 0.218456 0.327532
vt 0.218659 0.327582
vt 0.218659 0.327577
vt 0.217851 0.327729
vt 0.217851 0.327724
vt 0.218506 0.327612
vt 0.218506 0.327607
vt 0.218533 0.327607
vt 0.218532 0.327602
vt 0.218435 0.327538
vt 0.218435 0.327534
vt 0.218536 0.327695
vt 0.218536 0.327691
vt 0.218486 0.327616
vt 0.218486 0.327611
vt 0.218459 0.327552
vn 0.192265 -0.003271 -0.981338
vn 0.192265 -0.003271 -0.981338
vn 0.192265 -0.003271 -0.981338
vn 0.192265 -0.003271 -0.981338
vn -0.693546 0.000000 -0.720413
vn -0.693546 0.000000 -0.720413
vn -0.693546 0.000000 -0.720413
vn -0.693546 0.000000 -0.720413
vn -0.947977 0.017628 -0.317849
vn -0.947977 0.017628 -0.317849
vn -0.947977 0.017628 -0.317849
vn -0.947977 0.017628 -0.317849
vn -0.600560 0.000008 0.799579
vn -0.600560 0.000008 0.799579
vn -0.600560 0.000008 0.799579
vn -0.600560 0.000008 0.799579
vn 0.152105 0.034152 0.987774
vn 0.152105 0.034152 0.987774
vn 0.152105 0.034152 0.987774
vn 0.152105 0.034152 0.987774
vn 0.600559 0.000000 0.799580
vn 0.600559 0.000000 0.799580
vn 0.600559 0.000000 0.799580
vn 0.600559 0.000000 0.799580
vn 0.899901 0.018874 0.435686
vn 0.899901 0.018874 0.435686
vn 0.899901 0.018874 0.435686
vn 0.899901 0.018874 0.435686
vn 0.597771 0.000000 -0.801667
vn 0.597771 0.000000 -0.801667
vn 0.597771 0.000000 -0.801667
vn 0.597771 0.000000 -0.801667
vn 0.000000 -1.000000 -0.000000
vn 0.000000 -1.000000 -0.000000
vn 0.000000 -1.000000 -0.000000
vn 0.000000 -1.000000 -0.000000
vn 0.000000 -1.000000 -0.000000
vn 0.000000 1.000000 0.000000
vn 0.000000 1.000000 0.000000
vn 0.000000 1.000000 0.000000
vn 0.000000 1.000000 0.000000
vn 0.000000 1.000000 0.000000
vn -0.941848 0.026510 0.334993
vn -0.941848 0.026510 0.334993
vn -0.941848 0.026510 0.334993
vn -0.941848 0.026510 0.334993
vn 1.000000 0.000002 0.000000
vn 1.000000 0.000002 0.000000
vn 1.000000 0.000002 0.000000
vn 1.000000 0.000002 0.000000
vn 0.000000 -1.000000 -0.000000
vn 0.000000 -1.000000 -0.000000
vn 0.000000 -1.000000 -0.000000
vn 0.000000 -1.000000 -0.000000
vn -0.031371 0.944798 -0.326149
vn -0.031371 0.944798 -0.326149
vn -0.031371 0.944798 -0.326149
vn -0.936160 0.026388 -0.350582
vn -0.936160 0.026388 -0.350582
vn -0.936160 0.026388 -0.350582
vn -0.936160 0.026388 -0.350582
vn -0.140642 -0.861944 -0.487106
vn -0.140642 -0.861944 -0.487106
vn -0.140642 -0.861944 -0.487106
vn -0.140642 -0.861944 -0.487106
vn 0.001936 0.889593 0.456750
vn 0.001936 0.889593 0.456750
vn 0.001936 0.889593 0.456750
vn 0.953410 0.040335 -0.298970
vn 0.953410 0.040335 -0.298970
vn 0.953410 0.040335 -0.298970
vn 0.953410 0.040335 -0.298970
vn -0.619570 0.000070 0.784941
vn -0.619570 0.000070 0.784941
vn -0.619570 0.000070 0.784941
vn -0.619570 0.000070 0.784941
vn 0.975950 0.040416 0.214217
vn 0.975950 0.040416 0.214217
vn 0.975950 0.040416 0.214217
vn 0.975950 0.040416 0.214217
vn 0.000000 -1.000000 -0.000000
vn 0.000000 -1.000000 -0.000000
vn 0.000000 -1.000000 -0.000000
vn 0.000000 -1.000000 -0.000000
vn 0.000000 1.000000 -0.000000
vn 0.000000 1.000000 -0.000000
vn 0.000000 1.000000 -0.000000
vn 0.000000 1.000000 -0.000000
vn 0.198840 0.920264 0.337013
vn 0.198840 0.920264 0.337013
vn 0.198840 0.920264 0.337013
vn 0.000000 1.000000 0.000000
vn 0.000000 1.000000 0.000000
vn 0.000000 1.000000 0.000000
vn 0.000000 1.000000 0.000000
vn -0.214999 -0.923419 -0.317921
vn -0.214999 -0.923419 -0.317921
vn -0.214999 -0.923419 -0.317921
vn 0.015577 -0.938490 0.344955
vn 0.015577 -0.938490 0.344955
vn 0.015577 -0.938490 0.344955
vn 0.000000 1.000000 -0.000001
vn 0.000000 1.000000 -0.000001
vn 0.000000 1.000000 -0.000001
vn -0.235547 -0.052905 0.970422
vn -0.235547 -0.052905 0.970422
vn -0.235547 -0.052905 0.970422
vn -0.235547 -0.052905 0.970422
vn 0.000000 -1.000000 0.000000
vn 0.000000 -1.000000 0.000000
vn 0.000000 -1.000000 0.000000
vn -0.998778 -0.008648 -0.048658
vn -0.998778 -0.008648 -0.048658
vn -0.998778 -0.008648 -0.048658
vn -0.998778 -0.008648 -0.048658
vn 0.024288 -0.964093 0.264452
vn 0.024288 -0.964093 0.264452
vn 0.024288 -0.964093 0.264452
vn 0.024288 -0.964093 0.264452
vn 0.032044 0.995609 -0.087956
vn 0.032044 0.995609 -0.087956
vn 0.032044 0.995609 -0.087956
vn 0.032044 0.995609 -0.087956
vn 0.954033 0.018599 -0.299125
vn 0.954033 0.018599 -0.299125
vn 0.954033 0.018599 -0.299125
vn 0.954033 0.018599 -0.299125
vn -0.233635 0.003975 -0.972316
vn -0.233635 0.003975 -0.972316
vn -0.233635 0.003975 -0.972316
vn -0.233635 0.003975 -0.972316
vn 0.000000 -1.000000 0.000000
vn 0.000000 -1.000000 0.000000
vn 0.000000 -1.000000 0.000000
vn 0.000000 -1.000000 0.000000
vn 0.000000 -1.000000 0.000000
vn 0.000000 1.000000 0.000000
vn 0.000000 1.000000 0.000000
vn 0.000000 1.000000 0.000000
vn 0.000000 1.000000 0.000000
vn 0.000000 1.000000 0.000000
vn 0.000000 -1.000000 -0.000000
vn 0.000000 -1.000000 -0.000000
vn 0.000000 -1.000000 -0.000000
vn 0.000000 -1.000000 -0.000000
vn 0.000000 1.000000 0.000000
vn 0.000000 1.000000 0.000000
vn 0.000000 1.000000 0.000000
vn 0.000000 1.000000 0.000000
vn -0.031616 -0.993658 0.107909
vn -0.031616 -0.993658 0.107909
vn -0.031616 -0.993658 0.107909
vn -0.031616 -0.993658 0.107909
vn -0.024875 0.963205 -0.267615
vn -0.024875 0.963205 -0.267615
vn -0.024875 0.963205 -0.267615
vn -0.024875 0.963205 -0.267615
vn 0.000000 1.000000 0.000000
vn 0.000000 1.000000 0.000000
vn 0.000000 1.000000 0.000000
vn 0.000000 1.000000 0.000000
vn 1.000000 0.000002 -0.000001
vn 1.000000 0.000002 -0.000001
vn 1.000000 0.000002 -0.000001
vn 1.000000 0.000002 -0.000001
vn -1.000000 -0.000002 -0.000001
vn -1.000000 -0.000002 -0.000001
vn -1.000000 -0.000002 -0.000001
vn -1.000000 -0.000002 -0.000001
vn 0.000000 -1.000000 0.000000
vn 0.000000 -1.000000 0.000000
vn 0.000000 -1.000000 0.000000
vn 0.000000 -1.000000 0.000000
vn 0.000000 1.000000 0.000000
vn 0.000000 1.000000 0.000000
vn 0.000000 1.000000 0.000000
vn 0.000000 1.000000 0.000000
vn 0.003202 -0.962651 -0.270727
vn 0.003202 -0.962651 -0.270727
vn 0.003202 -0.962651 -0.270727
vn 0.003202 -0.962651 -0.270727
vn 0.144798 0.849890 0.506676
vn 0.144798 0.849890 0.506676
vn 0.144798 0.849890 0.506676
vn 0.144798 0.849890 0.506676
vn 0.000000 -1.000000 0.000001
vn 0.000000 -1.000000 0.000001
vn 0.000000 -1.000000 0.000001
vn 0.000000 -1.000000 0.000001
vn 0.000000 -1.000000 -0.000001
vn 0.000000 -1.000000 -0.000001
vn 0.000000 -1.000000 -0.000001
vn 0.000000 1.000000 0.000001
vn 0.000000 1.000000 0.000001
vn 0.000000 1.000000 0.000001
vn 0.000000 1.000000 0.000000
vn 0.000000 1.000000 0.000000
vn 0.000000 1.000000 0.000000
vn 0.000000 1.000000 0.000000
vn 0.000000 1.000000 -0.000002
vn 0.000000 1.000000 -0.000002
vn 0.000000 1.000000 -0.000002
s off
f 1/1/1 37/37/2 38/38/3 9/4/4
f 2/2/5 3/5/6 11/6/7 10/3/8
f 3/5/9 33/33/10 34/34/11 11/6/12
f 4/9/13 25/25/14 27/27/15 12/12/16
f 31/31/17 32/32/18 6/13/19 14/14/20
f 6/13/21 7/15/22 15/16/23 14/14/24
f 7/15/25 26/26/26 28/28/27 15/16/28
f 8/19/29 1/1/30 9/4/31 16/20/32
f 1/1/33 8/19/34 35/35/35 43/43/36 37/37/37
f 9/4/38 38/38/39 44/44/40 36/36/41 16/20/42
f 19/23/43 17/24/44 4/9/45 12/12/46
f 20/18/47 18/17/48 45/45/49 46/46/50
f 17/24/51 39/39/52 30/30/53 4/9/54
f 29/29/55 12/12/56 27/27/57
f 22/8/58 21/7/59 47/47/60 48/48/61
f 21/7/62 41/41/63 49/49/64 47/47/65
f 50/50/66 51/51/67 42/42/68
f 24/22/69 23/21/70 35/35/71 36/36/72
f 27/27/73 25/25/74 5/10/75 13/11/76
f 28/28/77 26/26/78 18/17/79 20/18/80
f 32/32/81 30/30/82 7/15/83 6/13/84
f 15/16/85 29/29/86 31/31/87 14/14/88
f 13/11/89 29/29/90 27/27/91
f 29/29/92 40/40/93 19/23/94 12/12/95
f 25/25/96 30/30/97 5/10/98
f 4/9/99 30/30/100 25/25/101
f 31/31/102 29/29/103 13/11/104
f 5/10/105 32/32/106 31/31/107 13/11/108
f 5/10/109 30/30/110 32/32/111
f 34/34/112 33/33/113 21/7/114 22/8/115
f 33/33/116 43/43/117 41/41/118 21/7/119
f 36/36/120 44/44/121 42/42/122 51/51/123
f 36/36/124 35/35/125 8/19/126 16/20/127
f 38/38/128 37/37/129 2/2/130 10/3/131
f 37/37/132 43/43/133 33/33/134 3/5/135 2/2/136
f 44/44/137 38/38/138 10/3/139 11/6/140 34/34/141
f 39/39/142 49/49/143 45/45/144 18/17/145
f 40/40/146 50/50/147 48/48/148 19/23/149
f 41/41/150 43/43/151 35/35/152 23/21/153
f 42/42/154 44/44/155 34/34/156 22/8/157
f 20/18/158 40/40/159 29/29/160 28/28/161
f 46/46/162 45/45/163 23/21/164 24/22/165
f 48/48/166 47/47/167 17/24/168 19/23/169
f 47/47/170 49/49/171 39/39/172 17/24/173
f 46/46/174 50/50/175 40/40/176 20/18/177
f 45/45/178 49/49/179 41/41/180 23/21/181
f 48/48/182 50/50/183 42/42/184 22/8/185
f 30/30/186 39/39/187 18/17/188 26/26/189
f 7/15/190 30/30/191 26/26/192
f 28/28/193 29/29/194 15/16/195
f 24/22/196 51/51/197 50/50/198 46/46/199
f 36/36/200 51/51/201 24/22/202
