# This file uses centimeters as units for non-parametric coordinates.

v 0.203796 21.317301 1.765005
v 13.221313 21.317303 1.765053
v 17.851685 16.512173 1.765026
v 21.957886 20.967838 1.765025
v 34.189148 21.579399 1.765051
v 29.296631 6.901911 1.765029
v 29.471375 -4.630394 1.765040
v 31.568176 -17.385830 1.764997
v 30.694519 -21.142567 1.764999
v 14.269714 -21.317299 1.765000
v 12.959229 -18.259487 1.765004
v -6.173950 -22.627789 1.765036
v -26.442871 -22.278324 1.765018
v -33.534912 -16.475414 1.765011
v -34.189148 -8.788803 1.765015
v -27.753357 -3.232540 1.765022
v -29.151184 -8.823963 1.765053
v -27.229126 -11.881771 1.765057
v -23.647156 -8.911327 1.765022
v -5.212891 -1.485218 1.765009
v 6.668884 7.426109 1.765010
v 6.319397 15.900610 1.765048
v 28.472534 22.604059 1.765023
v 6.930969 22.627790 1.765052
v 30.869263 16.774275 1.765009
v 0.203795 21.317301 -1.764963
v 6.930967 22.627790 -1.764916
v 13.221312 21.317303 -1.764915
v 17.851683 16.512173 -1.764942
v 21.957884 20.967838 -1.764943
v 28.472532 22.604059 -1.764945
v 34.189148 21.579399 -1.764917
v 30.869261 16.774275 -1.764959
v 29.296629 6.901911 -1.764939
v 29.471373 -4.630394 -1.764928
v 31.568174 -17.385830 -1.764971
v 30.694517 -21.142567 -1.764969
v 14.269712 -21.317299 -1.764968
v 12.959227 -18.259487 -1.764964
v -6.173952 -22.627789 -1.764933
v -26.442873 -22.278324 -1.764950
v -33.534912 -16.475414 -1.764957
v -34.189087 -8.788803 -1.764954
v -27.753359 -3.232540 -1.764946
v -29.151186 -8.823963 -1.764915
v -27.229128 -11.881771 -1.764973
v -23.647158 -8.911327 -1.764946
v -5.212893 -1.485218 -1.764959
v 6.668882 7.426109 -1.764958
v 6.319395 15.900610 -1.764920
vt 0.079644 0.227072
vt 0.079660 0.227162
vt 0.079738 0.227192
vt 0.079151 0.226603
vt 0.079238 0.226546
vt 0.079142 0.226494
vt 0.079054 0.226487
vt 0.078850 0.226401
vt 0.078777 0.226393
vt 0.078823 0.226479
vt 0.078936 0.226454
vt 0.079720 0.227299
vt 0.079628 0.227195
vt 0.079607 0.227336
vt 0.079321 0.227222
vt 0.079577 0.227131
vt 0.079313 0.226921
vt 0.079069 0.227060
vt 0.079147 0.226730
vt 0.078856 0.226794
vt 0.078993 0.226540
vt 0.078852 0.227008
vt 0.079054 0.227094
vt 0.078840 0.226955
vt 0.078850 0.226632
vt 0.079612 0.227101
vt 0.079707 0.227222
vt 0.079628 0.227192
vt 0.079105 0.226517
vt 0.079202 0.226570
vt 0.079115 0.226626
vt 0.079017 0.226509
vt 0.078785 0.226501
vt 0.078738 0.226413
vt 0.078811 0.226422
vt 0.078898 0.226475
vt 0.079688 0.227329
vt 0.079596 0.227224
vt 0.079576 0.227366
vt 0.079288 0.227250
vt 0.079544 0.227160
vt 0.079278 0.226947
vt 0.079035 0.227086
vt 0.079111 0.226754
vt 0.078820 0.226817
vt 0.078956 0.226562
vt 0.078817 0.227033
vt 0.078804 0.226979
vt 0.079019 0.227119
vt 0.078813 0.226654
vn 0.000008 -0.000007 -1.000000
vn 0.000002 0.000002 -1.000000
vn 0.000001 0.000003 -1.000000
vn -0.000000 0.000003 -1.000000
vn 0.000004 0.000000 -1.000000
vn 0.000004 0.000000 -1.000000
vn -0.000001 0.000003 -1.000000
vn 0.000002 0.000003 -1.000000
vn 0.000002 0.000003 -1.000000
vn -0.000000 0.000000 -1.000000
vn -0.000001 -0.000000 -1.000000
vn -0.000001 0.000001 -1.000000
vn 0.000001 0.000003 -1.000000
vn 0.000002 0.000002 -1.000000
vn 0.000001 0.000000 -1.000000
vn -0.000001 0.000001 -1.000000
vn 0.000001 0.000000 -1.000000
vn 0.000002 -0.000000 -1.000000
vn -0.000001 -0.000001 -1.000000
vn 0.000002 -0.000000 -1.000000
vn 0.000001 0.000000 -1.000000
vn 0.000000 -0.000001 -1.000000
vn -0.000001 -0.000001 -1.000000
vn 0.000000 -0.000001 -1.000000
vn -0.000000 -0.000000 -1.000000
vn 0.000000 0.000000 -1.000000
vn 0.000000 0.000000 -1.000000
vn -0.000000 -0.000000 -1.000000
vn 0.000001 0.000001 -1.000000
vn 0.000001 0.000001 -1.000000
vn -0.000000 0.000003 -1.000000
vn -0.000001 0.000003 -1.000000
vn -0.000000 0.000000 -1.000000
vn 0.000001 0.000001 -1.000000
vn -0.000000 -0.000001 -1.000000
vn -0.000000 0.000003 -1.000000
vn -0.000000 0.000002 -1.000000
vn 0.000001 0.000001 -1.000000
vn -0.000000 0.000002 -1.000000
vn -0.000000 0.000003 -1.000000
vn 0.000000 0.000000 -1.000000
vn 0.000000 -0.000000 -1.000000
vn 0.000001 0.000001 -1.000000
vn 0.000001 0.000001 -1.000000
vn -0.000000 0.000000 -1.000000
vn -0.000000 0.000000 -1.000000
vn 0.000000 -0.000000 -1.000000
vn -0.000000 0.000000 -1.000000
vn -0.000001 -0.000000 -1.000000
vn -0.000008 0.000007 1.000000
vn -0.000007 -0.000000 1.000000
vn -0.000007 0.000001 1.000000
vn -0.000004 -0.000000 1.000000
vn -0.000004 -0.000000 1.000000
vn 0.000000 -0.000003 1.000000
vn 0.000001 -0.000003 1.000000
vn 0.000000 -0.000000 1.000000
vn -0.000002 -0.000003 1.000000
vn -0.000002 -0.000003 1.000000
vn 0.000001 0.000000 1.000000
vn -0.000007 0.000001 1.000000
vn -0.000007 -0.000000 1.000000
vn -0.000005 -0.000003 1.000000
vn -0.000001 -0.000001 1.000000
vn -0.000005 -0.000003 1.000000
vn 0.000000 -0.000001 1.000000
vn -0.000001 -0.000001 1.000000
vn -0.000001 -0.000001 1.000000
vn 0.000000 -0.000001 1.000000
vn 0.000001 0.000001 1.000000
vn 0.000001 0.000001 1.000000
vn 0.000000 0.000000 1.000000
vn 0.000001 0.000001 1.000000
vn 0.000001 0.000001 1.000000
vn -0.000000 -0.000000 1.000000
vn -0.000001 -0.000001 1.000000
vn 0.000000 0.000000 1.000000
vn -0.000000 -0.000000 1.000000
vn -0.000001 -0.000001 1.000000
vn 0.000000 -0.000000 1.000000
vn 0.000001 -0.000003 1.000000
vn 0.000000 -0.000003 1.000000
vn -0.000001 -0.000001 1.000000
vn 0.000000 0.000001 1.000000
vn 0.000000 -0.000002 1.000000
vn 0.000000 -0.000003 1.000000
vn 0.000000 -0.000003 1.000000
vn 0.000000 -0.000002 1.000000
vn -0.000001 -0.000001 1.000000
vn -0.000000 -0.000000 1.000000
vn -0.000001 -0.000001 1.000000
vn -0.000001 -0.000001 1.000000
vn -0.000001 0.000000 1.000000
vn 0.000000 -0.000000 1.000000
vn 0.000000 -0.000000 1.000000
vn -0.000001 0.000000 1.000000
vn 0.000000 -0.000000 1.000000
vn 0.000001 0.000000 1.000000
vn -0.191211 0.981549 0.000000
vn 0.000000 1.000000 0.000000
vn -0.000001 1.000000 0.000000
vn -0.191211 0.981549 0.000000
vn 0.000000 1.000000 0.000000
vn 0.203954 0.978980 0.000000
vn 0.203954 0.978980 0.000000
vn -0.000001 1.000000 0.000000
vn 0.720080 0.693891 -0.000000
vn 0.720080 0.693891 -0.000000
vn 0.720080 0.693891 -0.000000
vn 0.720080 0.693891 -0.000000
vn -0.735356 0.677681 0.000000
vn -0.735356 0.677681 0.000000
vn -0.735356 0.677681 0.000000
vn -0.735356 0.677681 0.000000
vn -0.243595 0.969877 0.000000
vn -0.049937 0.998752 0.000000
vn -0.049938 0.998752 0.000000
vn -0.243595 0.969877 0.000000
vn -0.049937 0.998752 0.000000
vn 0.176431 0.984313 -0.000000
vn 0.176431 0.984313 -0.000000
vn -0.049938 0.998752 0.000000
vn 0.822732 -0.568430 -0.000000
vn 0.948683 -0.316229 -0.000000
vn 0.948683 -0.316229 -0.000000
vn 0.822732 -0.568430 -0.000000
vn 0.948683 -0.316229 -0.000000
vn 0.997874 -0.065169 -0.000001
vn 0.997874 -0.065169 -0.000001
vn 0.948683 -0.316229 -0.000000
vn 0.997874 -0.065169 -0.000001
vn 0.995655 0.093120 -0.000001
vn 0.995655 0.093120 -0.000001
vn 0.997874 -0.065169 -0.000001
vn 0.995655 0.093120 -0.000001
vn 0.997268 0.073873 -0.000001
vn 0.997268 0.073873 -0.000001
vn 0.995655 0.093120 -0.000001
vn 0.997268 0.073873 -0.000001
vn 0.974008 -0.226513 -0.000001
vn 0.974008 -0.226513 -0.000001
vn 0.997268 0.073873 -0.000001
vn 0.010638 -0.999943 0.000000
vn 0.010638 -0.999943 0.000000
vn 0.010638 -0.999943 0.000000
vn 0.010638 -0.999943 0.000000
vn -0.919146 -0.393918 0.000001
vn -0.919146 -0.393918 0.000001
vn -0.919146 -0.393918 0.000001
vn -0.919146 -0.393918 0.000001
vn 0.222583 -0.974914 0.000000
vn 0.101469 -0.994839 0.000000
vn 0.101469 -0.994839 0.000000
vn 0.222583 -0.974914 0.000000
vn 0.101469 -0.994839 0.000000
vn -0.017239 -0.999851 0.000000
vn -0.017239 -0.999851 0.000000
vn 0.101469 -0.994839 0.000000
vn -0.633259 -0.773940 -0.000000
vn -0.633259 -0.773940 -0.000000
vn -0.633260 -0.773940 -0.000000
vn -0.633259 -0.773940 -0.000000
vn -0.996398 -0.084803 -0.000009
vn -0.996398 -0.084803 -0.000009
vn -0.996398 -0.084803 -0.000009
vn -0.996398 -0.084803 -0.000009
vn -0.653492 0.756933 -0.000006
vn -0.653492 0.756933 -0.000006
vn -0.653492 0.756933 -0.000006
vn -0.653492 0.756933 -0.000006
vn 0.970144 -0.242531 -0.000001
vn 0.970144 -0.242531 -0.000001
vn 0.970144 -0.242531 -0.000001
vn 0.970144 -0.242531 -0.000001
vn 0.846636 0.532173 -0.000000
vn 0.846636 0.532173 -0.000000
vn 0.846636 0.532173 -0.000000
vn 0.846636 0.532173 -0.000000
vn -0.638340 0.769755 0.000000
vn -0.427007 0.904248 0.000000
vn -0.427007 0.904248 0.000000
vn -0.638339 0.769755 0.000000
vn -0.427007 0.904248 0.000000
vn -0.474402 0.880309 0.000000
vn -0.474402 0.880309 0.000000
vn -0.427007 0.904248 0.000000
vn -0.474402 0.880309 0.000000
vn -0.600000 0.800000 0.000000
vn -0.600000 0.800000 0.000000
vn -0.474402 0.880309 0.000000
vn -0.999151 -0.041205 0.000001
vn -0.999151 -0.041205 0.000001
vn -0.999151 -0.041205 0.000001
vn -0.999151 -0.041205 0.000001
vn -0.663036 -0.748587 0.000000
vn -0.663036 -0.748587 0.000000
vn -0.663036 -0.748587 0.000000
vn -0.663036 -0.748587 0.000000
s off
f 44/1/1 45/2/2 43/3/3
f 50/4/4 26/5/5 27/6/6 28/7/7
f 31/8/8 32/9/9 33/10/10 30/11/11
f 42/12/12 43/3/13 45/2/14 46/13/15
f 42/12/16 46/13/17 41/14/18
f 40/15/19 41/14/20 46/13/21 47/16/22
f 40/15/23 47/16/24 48/17/25 39/18/26
f 39/18/27 48/17/28 49/19/29 35/20/30
f 50/4/31 28/7/32 29/21/33 49/19/34
f 37/22/35 38/23/36 36/24/37
f 35/20/38 36/24/39 38/23/40 39/18/41
f 34/25/42 35/20/43 49/19/44 29/21/45
f 33/10/46 34/25/47 29/21/48 30/11/49
f 16/26/50 15/27/51 17/28/52
f 24/29/53 1/30/54 22/31/55 2/32/56
f 25/33/57 5/34/58 23/35/59 4/36/60
f 17/28/61 15/27/62 14/37/63 18/38/64
f 14/37/65 13/39/66 18/38/67
f 18/38/68 13/39/69 12/40/70 19/41/71
f 20/42/72 19/41/73 12/40/74 11/43/75
f 21/44/76 20/42/77 11/43/78 7/45/79
f 3/46/80 2/32/81 22/31/82 21/44/83
f 9/47/84 8/48/85 10/49/86
f 10/49/87 8/48/88 7/45/89 11/43/90
f 21/44/91 7/45/92 6/50/93 3/46/94
f 3/46/95 6/50/96 25/33/97 4/36/98
f 1/30/99 24/29/100 27/6/101 26/5/102
f 24/29/103 2/32/104 28/7/105 27/6/106
f 2/32/107 3/46/108 29/21/109 28/7/110
f 3/46/111 4/36/112 30/11/113 29/21/114
f 4/36/115 23/35/116 31/8/117 30/11/118
f 23/35/119 5/34/120 32/9/121 31/8/122
f 5/34/123 25/33/124 33/10/125 32/9/126
f 25/33/127 6/50/128 34/25/129 33/10/130
f 6/50/131 7/45/132 35/20/133 34/25/134
f 7/45/135 8/48/136 36/24/137 35/20/138
f 8/48/139 9/47/140 37/22/141 36/24/142
f 9/47/143 10/49/144 38/23/145 37/22/146
f 10/49/147 11/43/148 39/18/149 38/23/150
f 11/43/151 12/40/152 40/15/153 39/18/154
f 12/40/155 13/39/156 41/14/157 40/15/158
f 13/39/159 14/37/160 42/12/161 41/14/162
f 14/37/163 15/27/164 43/3/165 42/12/166
f 15/27/167 16/26/168 44/1/169 43/3/170
f 16/26/171 17/28/172 45/2/173 44/1/174
f 17/28/175 18/38/176 46/13/177 45/2/178
f 18/38/179 19/41/180 47/16/181 46/13/182
f 19/41/183 20/42/184 48/17/185 47/16/186
f 20/42/187 21/44/188 49/19/189 48/17/190
f 21/44/191 22/31/192 50/4/193 49/19/194
f 22/31/195 1/30/196 26/5/197 50/4/198
