# This file uses centimeters as units for non-parametric coordinates.

v 6.893280 -20.394667 2.277359
v -5.897217 -20.047512 4.506760
v 6.894440 -20.244619 3.687378
v -5.694183 -19.458790 5.820663
v 7.054474 -0.860777 1.174347
v -6.357117 -4.127289 1.616501
v 7.054474 -0.860777 0.000031
v -6.357117 -4.127289 0.442200
v -6.235199 -14.234517 3.442413
v -6.242828 -15.222517 2.065811
v 1.085388 -20.372690 3.689423
v 0.359009 -20.511747 2.277359
v 7.076996 3.398712 1.414078
v -6.100067 3.268207 1.414078
v -6.100067 3.268207 0.000031
v 7.076996 3.398712 0.000031
v -0.461091 -0.515585 -0.200641
v 0.312243 -0.431546 -0.110919
v -1.974890 2.262327 7.057965
v -0.480204 2.424757 7.231377
v -2.052765 3.640797 6.438026
v -0.558080 3.803226 6.611439
v -0.501383 0.197624 -0.521391
v 0.271950 0.281663 -0.431670
vt 0.674096 0.041642
vt 0.674097 0.041771
vt 0.673658 0.041749
vt 0.673649 0.041574
vt 0.643734 0.036722
vt 0.662531 0.028769
vt 0.645042 0.030054
vt 0.674649 0.041367
vt 0.673967 0.041236
vt 0.673970 0.041401
vt 0.674642 0.041536
vt 0.673854 0.041530
vt 0.673850 0.041361
vt 0.674642 0.041536
vt 0.674426 0.041824
vt 0.674417 0.041685
vt 0.674649 0.041367
vt 0.643734 0.051351
vt 0.673970 0.041401
vt 0.673967 0.041236
vt 0.675619 0.028835
vt 0.675619 0.054278
vt 0.677068 0.054232
vt 0.673273 0.029508
vt 0.682385 0.029634
vt 0.682330 0.054066
vt 0.057089 0.227857
vt 0.056938 0.227852
vt 0.057623 0.227674
vt 0.057933 0.227687
vt 0.057611 0.227331
vt 0.057919 0.227346
vt 0.056932 0.227686
vt 0.057084 0.227692
vn -0.014213 -0.964844 0.262438
vn -0.014213 -0.964844 0.262438
vn -0.014213 -0.964844 0.262438
vn -0.014213 -0.964844 0.262438
vn 0.323214 0.419604 0.848213
vn 0.323214 0.419604 0.848213
vn 0.323214 0.419604 0.848213
vn -0.009904 0.999951 0.000000
vn -0.009904 0.999951 0.000000
vn -0.009904 0.999951 0.000000
vn -0.009904 0.999951 0.000000
vn -0.994121 -0.039333 0.100877
vn -0.994121 -0.039333 0.100877
vn -0.994121 -0.039333 0.100877
vn -0.994121 -0.039333 0.100877
vn 0.999966 -0.008252 0.000029
vn 0.999966 -0.008252 0.000029
vn 0.999966 -0.008252 0.000029
vn 0.999966 -0.008252 0.000029
vn 0.116216 0.177928 0.977157
vn 0.116216 0.177928 0.977157
vn 0.116216 0.177928 0.977157
vn -0.329738 -0.444870 -0.832685
vn -0.329738 -0.444870 -0.832685
vn -0.329738 -0.444870 -0.832685
vn -0.999926 -0.010021 0.006868
vn -0.999926 -0.010021 0.006868
vn -0.999926 -0.010021 0.006868
vn -0.999926 -0.010021 0.006868
vn -0.084689 -0.145125 -0.985782
vn -0.084689 -0.145125 -0.985782
vn -0.084689 -0.145125 -0.985782
vn 0.000360 0.127733 0.991809
vn 0.000360 0.127733 0.991809
vn 0.000360 0.127733 0.991809
vn 0.000360 0.127733 0.991809
vn 0.019780 -0.995103 0.096840
vn 0.019780 -0.995103 0.096840
vn 0.019780 -0.995103 0.096840
vn 0.019780 -0.995103 0.096840
vn -0.002643 -0.114228 -0.993451
vn -0.002643 -0.114228 -0.993451
vn -0.002643 -0.114228 -0.993451
vn -0.002643 -0.114228 -0.993451
vn 0.017089 -0.003611 0.999848
vn 0.017089 -0.003611 0.999848
vn 0.017089 -0.003611 0.999848
vn 0.017089 -0.003611 0.999848
vn -0.999396 0.034740 -0.000000
vn -0.999396 0.034740 -0.000000
vn -0.999396 0.034740 -0.000000
vn -0.999396 0.034740 -0.000000
vn -0.011810 -0.037625 -0.999222
vn -0.011810 -0.037625 -0.999222
vn -0.011810 -0.037625 -0.999222
vn -0.011810 -0.037625 -0.999222
vn 0.999986 -0.005286 0.000000
vn 0.999986 -0.005286 0.000000
vn 0.999986 -0.005286 0.000000
vn 0.999986 -0.005286 0.000000
vn 0.058249 -0.928241 0.367391
vn 0.058249 -0.928241 0.367391
vn 0.058249 -0.928241 0.367391
vn 0.058249 -0.928241 0.367391
vn -0.148322 0.398641 0.905034
vn -0.148322 0.398641 0.905034
vn -0.148322 0.398641 0.905034
vn -0.148322 0.398641 0.905034
vn -0.044552 0.891429 -0.450966
vn -0.044552 0.891429 -0.450966
vn -0.044552 0.891429 -0.450966
vn -0.044552 0.891429 -0.450966
vn 0.148322 -0.398641 -0.905034
vn 0.148322 -0.398641 -0.905034
vn 0.148322 -0.398641 -0.905034
vn 0.148322 -0.398641 -0.905034
vn 0.993395 0.088803 0.072670
vn 0.993395 0.088803 0.072670
vn 0.993395 0.088803 0.072670
vn 0.993395 0.088803 0.072670
vn -0.979698 -0.125615 -0.156245
vn -0.979698 -0.125615 -0.156245
vn -0.979698 -0.125615 -0.156245
vn -0.979698 -0.125615 -0.156245
s off
f 11/1/1 4/4/2 2/3/3 12/2/4
f 9/5/5 4/7/6 11/6/7
f 13/8/8 16/11/9 15/10/10 14/9/11
f 10/12/12 2/3/13 4/4/14 9/13/15
f 7/14/16 5/17/17 3/16/18 1/15/19
f 6/18/20 9/5/21 11/6/22
f 12/2/23 2/3/24 10/12/25
f 9/13/26 6/20/27 8/19/28 10/12/29
f 12/2/30 10/12/31 8/19/32
f 3/21/33 5/22/34 6/18/35 11/6/36
f 1/15/37 3/16/38 11/1/39 12/2/40
f 1/15/41 12/2/42 8/19/43 7/14/44
f 5/23/45 13/26/46 14/25/47 6/24/48
f 6/20/49 14/9/50 15/10/51 8/19/52
f 8/19/53 15/10/54 16/11/55 7/14/56
f 7/14/57 16/11/58 13/8/59 5/17/60
f 17/27/61 18/28/62 20/29/63 19/30/64
f 19/30/65 20/29/66 22/31/67 21/32/68
f 21/32/69 22/31/70 24/33/71 23/34/72
f 23/34/73 24/33/74 18/28/75 17/27/76
f 18/28/77 24/33/78 22/31/79 20/29/80
f 23/34/81 17/27/82 19/30/83 21/32/84
