# This file uses centimeters as units for non-parametric coordinates.

v -0.006793 -16.345100 0.000000
v -0.006793 16.024704 0.000000
v 13.155150 -7.243042 0.000000
v 14.110973 -3.299408 0.000000
v 14.825026 7.827568 0.000000
v 10.077535 16.072063 0.000000
v 6.534342 -9.498367 0.000000
v 12.990042 2.631016 0.000000
v 3.984740 16.090584 0.000000
v -12.814476 -7.383919 0.000000
v -14.124559 -3.299408 0.000000
v -15.013123 7.562218 0.000000
v -10.380802 15.622025 0.000000
v -7.773381 -10.352516 0.000000
v -13.003628 2.631016 0.000000
v -3.998326 16.090584 0.000000
v 0.000001 -18.803825 -1.802826
v 8.816957 -12.257996 -1.802826
v 0.000001 18.300056 -1.802826
v 4.531343 18.373985 -1.802826
v 14.941949 -8.588810 -1.802826
v 16.027035 -3.833523 -1.802826
v 14.754511 3.268681 -1.802826
v 17.351170 8.433838 -1.802826
v 11.246758 18.803806 -1.802826
v -8.816957 -12.257996 -1.802826
v -4.531343 18.373985 -1.802826
v -14.941949 -8.588810 -1.802826
v -16.027035 -3.833523 -1.802826
v -14.754512 3.268681 -1.802826
v -17.351171 8.433838 -1.802826
v -11.246758 18.803806 -1.802826
v 0.000001 -18.803825 -7.710247
v 8.816957 -12.257996 -7.710247
v 0.000001 18.300056 -7.710247
v 4.531343 18.373985 -7.710247
v 14.941949 -8.588810 -7.710247
v 16.027035 -3.833523 -7.710247
v 14.754511 3.268681 -7.710247
v 17.351170 8.433838 -7.710247
v 11.246758 18.803806 -7.710247
v -8.816957 -12.257996 -7.710247
v -4.531343 18.373985 -7.710247
v -14.941949 -8.588810 -7.710247
v -16.027035 -3.833523 -7.710247
v -14.754512 3.268681 -7.710247
v -17.351171 8.433838 -7.710247
v -11.246758 18.803806 -7.710247
vt 0.024829 0.250295
vt 0.024829 0.250295
vt 0.024829 0.250295
vt 0.024829 0.250295
vt 0.024829 0.250295
vt 0.024829 0.250295
vt 0.024829 0.250295
vt 0.024829 0.250295
vt 0.024829 0.250295
vt 0.024829 0.250295
vt 0.024829 0.250295
vt 0.024829 0.250295
vt 0.024829 0.250295
vt 0.024829 0.250295
vt 0.024829 0.250295
vt 0.024829 0.250295
vt 0.024829 0.250295
vt 0.024829 0.250295
vt 0.024829 0.250295
vt 0.024829 0.250295
vt 0.024829 0.250295
vt 0.024829 0.250295
vt 0.024829 0.250295
vt 0.024829 0.250295
vt 0.024829 0.250295
vt 0.024829 0.250295
vt 0.024829 0.250295
vt 0.024829 0.250295
vt 0.024829 0.250295
vt 0.024829 0.250295
vt 0.024829 0.250295
vt 0.024829 0.250295
vt 0.024829 0.250295
vt 0.024829 0.250295
vt 0.024829 0.250295
vt 0.024829 0.250295
vt 0.024829 0.250295
vt 0.024829 0.250295
vt 0.024829 0.250295
vt 0.024829 0.250295
vt 0.024829 0.250295
vt 0.024829 0.250295
vt 0.024829 0.250295
vt 0.024829 0.250295
vt 0.024829 0.250295
vt 0.024829 0.250295
vt 0.024829 0.250295
vt 0.024829 0.250295
vt 0.024829 0.250295
vt 0.024829 0.250295
vt 0.024829 0.250295
vt 0.024829 0.250295
vt 0.024829 0.250295
vt 0.024829 0.250295
vt 0.024829 0.250295
vt 0.024829 0.250295
vt 0.024829 0.250295
vt 0.024829 0.250295
vt 0.024829 0.250295
vt 0.024829 0.250295
vt 0.024829 0.250295
vt 0.024829 0.250295
vt 0.024829 0.250295
vt 0.024829 0.250295
vt 0.024829 0.250295
vt 0.024829 0.250295
vt 0.024829 0.250295
vt 0.024829 0.250295
vt 0.024829 0.250295
vt 0.024829 0.250295
vt 0.024829 0.250295
vt 0.024829 0.250295
vn 0.000000 0.000000 -1.000000
vn 0.000000 0.000000 -1.000000
vn 0.000000 0.000000 -1.000000
vn 0.000000 0.000000 -1.000000
vn 0.000000 0.000000 -1.000000
vn 0.000000 0.000000 -1.000000
vn 0.000000 0.000000 -1.000000
vn 0.000000 0.000000 -1.000000
vn 0.000000 0.000000 -1.000000
vn 0.000000 0.000000 -1.000000
vn 0.000000 0.000000 -1.000000
vn 0.000000 0.000000 -1.000000
vn 0.000000 0.000000 -1.000000
vn 0.000000 0.000000 -1.000000
vn 0.000000 0.000000 -1.000000
vn 0.000000 0.000000 -1.000000
vn 0.000000 0.000000 -1.000000
vn 0.000000 0.000000 -1.000000
vn 0.000000 0.000000 -1.000000
vn 0.000000 0.000000 -1.000000
vn -0.000000 0.000000 -1.000000
vn -0.000000 0.000000 -1.000000
vn -0.000000 0.000000 -1.000000
vn -0.000000 0.000000 -1.000000
vn -0.000000 0.000000 -1.000000
vn -0.000000 0.000000 -1.000000
vn 0.000000 0.000000 -1.000000
vn -0.000000 0.000000 -1.000000
vn 0.000000 0.000000 -1.000000
vn 0.000000 0.000000 -1.000000
vn -0.000000 0.000000 -1.000000
vn 0.000000 0.000000 -1.000000
vn 0.000000 0.000000 -1.000000
vn -0.000000 0.000000 -1.000000
vn 0.000000 0.000000 -1.000000
vn 0.000000 0.000000 -1.000000
vn -0.000000 0.000000 -1.000000
vn 0.000000 0.000000 -1.000000
vn 0.000000 0.000000 1.000000
vn 0.000000 0.000000 1.000000
vn 0.000000 0.000000 1.000000
vn 0.000000 0.000000 1.000000
vn 0.000000 0.000000 1.000000
vn 0.000000 0.000000 1.000000
vn 0.000000 0.000000 1.000000
vn 0.000000 0.000000 1.000000
vn 0.000000 0.000000 1.000000
vn 0.000000 0.000000 1.000000
vn 0.000000 0.000000 1.000000
vn 0.000000 0.000000 1.000000
vn 0.000000 0.000000 1.000000
vn 0.000000 0.000000 1.000000
vn 0.000000 0.000000 1.000000
vn 0.000000 0.000000 1.000000
vn 0.000000 0.000000 1.000000
vn 0.000000 0.000000 1.000000
vn 0.000000 0.000000 1.000000
vn 0.000000 0.000000 1.000000
vn 0.000000 0.000000 1.000000
vn 0.000000 0.000000 1.000000
vn 0.000000 0.000000 1.000000
vn 0.000000 0.000000 1.000000
vn 0.000000 0.000000 1.000000
vn 0.000000 0.000000 1.000000
vn 0.000000 0.000000 1.000000
vn 0.000000 0.000000 1.000000
vn 0.000000 0.000000 1.000000
vn 0.000000 0.000000 1.000000
vn 0.000000 0.000000 1.000000
vn 0.000000 0.000000 1.000000
vn 0.000000 0.000000 1.000000
vn 0.000000 0.000000 1.000000
vn 0.000000 0.000000 1.000000
vn 0.000000 0.000000 1.000000
vn 0.000000 0.000000 1.000000
vn 0.000000 0.000000 1.000000
vn 0.363207 -0.416513 0.833425
vn 0.363207 -0.416513 0.833425
vn 0.363207 -0.416513 0.833425
vn 0.363207 -0.416513 0.833425
vn -0.010188 0.621076 0.783684
vn -0.010188 0.621076 0.783684
vn -0.010188 0.621076 0.783684
vn -0.010188 0.621076 0.783684
vn 0.232926 -0.501109 0.833448
vn 0.232926 -0.501109 0.833448
vn 0.232926 -0.501109 0.833448
vn 0.232926 -0.501109 0.833448
vn 0.648764 -0.152211 0.745612
vn 0.648764 -0.152211 0.745612
vn 0.648764 -0.152211 0.745612
vn 0.648764 -0.152211 0.745612
vn 0.692296 0.127141 0.710325
vn 0.692296 0.127141 0.710325
vn 0.692296 0.127141 0.710325
vn 0.692296 0.127141 0.710325
vn 0.663789 -0.283898 0.691944
vn 0.663789 -0.283898 0.691944
vn 0.663789 -0.283898 0.691944
vn 0.663789 -0.283898 0.691944
vn 0.513814 0.299544 0.803908
vn 0.513814 0.299544 0.803908
vn 0.513814 0.299544 0.803908
vn 0.513814 0.299544 0.803908
vn -0.018879 0.587891 0.808720
vn -0.018879 0.587891 0.808720
vn -0.018879 0.587891 0.808720
vn -0.018879 0.587891 0.808720
vn -0.397923 -0.526300 0.751443
vn -0.397923 -0.526300 0.751443
vn -0.397923 -0.526300 0.751443
vn -0.397923 -0.526300 0.751443
vn 0.010187 0.621038 0.783714
vn 0.010187 0.621038 0.783714
vn 0.010187 0.621038 0.783714
vn 0.010187 0.621038 0.783714
vn -0.328594 -0.552762 0.765820
vn -0.328594 -0.552762 0.765820
vn -0.328594 -0.552762 0.765820
vn -0.328594 -0.552762 0.765820
vn -0.616415 -0.167019 0.769505
vn -0.616415 -0.167019 0.769505
vn -0.616415 -0.167019 0.769505
vn -0.616415 -0.167019 0.769505
vn -0.694867 0.127613 0.707725
vn -0.694867 0.127613 0.707726
vn -0.694867 0.127613 0.707726
vn -0.694867 0.127613 0.707726
vn -0.001628 0.550405 0.834896
vn -0.001628 0.550405 0.834896
vn -0.001628 0.550405 0.834896
vn -0.001628 0.550406 0.834896
vn -0.690475 -0.315008 0.651164
vn -0.690475 -0.315008 0.651164
vn -0.690475 -0.315008 0.651164
vn -0.690475 -0.315008 0.651164
vn -0.518346 0.301976 0.800080
vn -0.518346 0.301976 0.800080
vn -0.518346 0.301976 0.800080
vn -0.518346 0.301976 0.800080
vn 0.596095 -0.802914 0.000000
vn 0.596095 -0.802914 0.000000
vn 0.596095 -0.802914 0.000000
vn 0.596095 -0.802914 0.000000
vn -0.016313 0.999867 0.000000
vn -0.016313 0.999867 0.000000
vn -0.016313 0.999867 0.000000
vn -0.016313 0.999867 0.000000
vn 0.513897 -0.857852 0.000000
vn 0.513897 -0.857852 0.000000
vn 0.513897 -0.857852 0.000000
vn 0.513897 -0.857852 0.000000
vn 0.974940 -0.222467 0.000000
vn 0.974940 -0.222467 0.000000
vn 0.974940 -0.222467 0.000000
vn 0.974940 -0.222467 0.000000
vn 0.984325 0.176365 0.000000
vn 0.984325 0.176365 0.000000
vn 0.984325 0.176365 0.000000
vn 0.984325 0.176365 0.000000
vn 0.893451 -0.449161 0.000000
vn 0.893451 -0.449161 0.000000
vn 0.893451 -0.449161 0.000000
vn 0.893451 -0.449161 0.000000
vn 0.861773 0.507294 0.000000
vn 0.861773 0.507294 0.000000
vn 0.861773 0.507294 0.000000
vn 0.861773 0.507294 0.000000
vn -0.063874 0.997958 0.000000
vn -0.063874 0.997958 0.000000
vn -0.063874 0.997958 0.000000
vn -0.063874 0.997958 0.000000
vn -0.596095 -0.802914 0.000000
vn -0.596095 -0.802914 0.000000
vn -0.596095 -0.802914 0.000000
vn -0.596095 -0.802914 0.000000
vn 0.016313 0.999867 0.000000
vn 0.016313 0.999867 0.000000
vn 0.016313 0.999867 0.000000
vn 0.016313 0.999867 0.000000
vn -0.513897 -0.857852 0.000000
vn -0.513897 -0.857852 0.000000
vn -0.513897 -0.857852 0.000000
vn -0.513897 -0.857852 0.000000
vn -0.974940 -0.222467 0.000000
vn -0.974940 -0.222467 0.000000
vn -0.974940 -0.222467 0.000000
vn -0.974940 -0.222467 0.000000
vn -0.984325 0.176364 0.000000
vn -0.984325 0.176364 0.000000
vn -0.984325 0.176364 0.000000
vn -0.984325 0.176364 0.000000
vn 0.063874 0.997958 0.000000
vn 0.063874 0.997958 0.000000
vn 0.063874 0.997958 0.000000
vn 0.063874 0.997958 0.000000
vn -0.893451 -0.449161 0.000000
vn -0.893451 -0.449161 0.000000
vn -0.893451 -0.449161 0.000000
vn -0.893451 -0.449161 0.000000
vn -0.861773 0.507294 0.000000
vn -0.861773 0.507294 0.000000
vn -0.861773 0.507294 0.000000
vn -0.861773 0.507294 0.000000
s off
f 33/1/1 35/3/2 34/2/3
f 35/3/4 36/4/5 34/2/6
f 36/4/7 37/5/8 34/2/9
f 37/5/10 36/4/11 38/6/12
f 36/4/13 39/7/14 38/6/15
f 36/4/16 41/9/17 40/8/18 39/7/19
f 33/10/20 42/12/21 35/11/22
f 35/11/23 42/12/24 43/13/25
f 42/12/26 44/14/27 43/13/28
f 44/14/29 45/15/30 43/13/31
f 45/15/32 46/16/33 43/13/34
f 47/17/35 48/18/36 43/13/37 46/16/38
f 1/19/39 7/21/40 2/20/41
f 2/20/42 7/21/43 9/22/44
f 9/22/45 7/21/46 3/23/47
f 3/23/48 4/24/49 9/22/50
f 9/22/51 4/24/52 8/25/53
f 6/26/54 9/22/55 8/25/56 5/27/57
f 1/28/58 2/30/59 14/29/60
f 2/30/61 16/31/62 14/29/63
f 10/32/64 14/29/65 16/31/66
f 10/32/67 16/31/68 11/33/69
f 15/34/70 11/33/71 16/31/72
f 12/35/73 15/34/74 16/31/75 13/36/76
f 1/37/77 17/40/78 18/39/79 7/38/80
f 9/41/81 20/44/82 19/43/83 2/42/84
f 18/39/85 21/46/86 3/45/87 7/38/88
f 3/45/89 21/46/90 22/48/91 4/47/92
f 22/48/93 23/50/94 8/49/95 4/47/96
f 23/50/97 24/52/98 5/51/99 8/49/100
f 5/51/101 24/52/102 25/54/103 6/53/104
f 20/44/105 9/41/106 6/53/107 25/54/108
f 14/55/109 26/58/110 17/57/111 1/56/112
f 2/59/113 19/62/114 27/61/115 16/60/116
f 28/63/117 26/58/118 14/55/119 10/64/120
f 11/65/121 29/66/122 28/63/123 10/64/124
f 30/67/125 29/66/126 11/65/127 15/68/128
f 27/61/129 32/70/130 13/69/131 16/60/132
f 31/71/133 30/67/134 15/68/135 12/72/136
f 13/69/137 32/70/138 31/71/139 12/72/140
f 17/40/141 33/1/142 34/2/143 18/39/144
f 20/44/145 36/4/146 35/3/147 19/43/148
f 34/2/149 37/5/150 21/46/151 18/39/152
f 21/46/153 37/5/154 38/6/155 22/48/156
f 38/6/157 39/7/158 23/50/159 22/48/160
f 39/7/161 40/8/162 24/52/163 23/50/164
f 24/52/165 40/8/166 41/9/167 25/54/168
f 36/4/169 20/44/170 25/54/171 41/9/172
f 26/58/173 42/12/174 33/10/175 17/57/176
f 19/62/177 35/11/178 43/13/179 27/61/180
f 42/12/181 26/58/182 28/63/183 44/14/184
f 29/66/185 45/15/186 44/14/187 28/63/188
f 45/15/189 29/66/190 30/67/191 46/16/192
f 43/13/193 48/18/194 32/70/195 27/61/196
f 46/16/197 30/67/198 31/71/199 47/17/200
f 32/70/201 48/18/202 47/17/203 31/71/204
