# This file uses centimeters as units for non-parametric coordinates.

v -33.443604 -7.804569 -33.104126
v -5.571045 -7.804569 -39.332642
v -32.399170 5.833929 -36.826294
v -10.143555 6.104115 -41.302856
v -32.157959 4.846099 -47.042969
v -15.795898 5.093188 -55.783081
v -32.924561 -7.804569 -55.089355
v -13.021240 -7.804569 -58.690063
v -16.677979 6.185895 -33.139771
v -17.399170 -7.804573 -24.537231
v -23.552002 4.676675 -54.824463
v -31.932861 -1.150833 -54.081177
v -18.937012 4.277383 -28.366089
v -27.527100 5.982326 -34.073364
v 20.997559 -7.804569 58.690063
v 22.024658 -7.804569 27.123901
v 18.661133 6.239817 54.786255
v 22.511963 5.149291 36.644775
v 1.591797 5.535615 50.760620
v 3.986084 5.171506 31.411255
v -0.534424 -7.804569 53.838013
v 2.120605 -7.804569 30.351440
v 33.443604 -7.804569 42.544678
v 14.675293 4.971900 29.555298
v 24.597412 5.589630 47.539429
v 30.783203 2.117510 41.713989
v 21.027344 1.546181 28.339966
v -5.554932 -7.804569 39.327759
v -6.479736 -7.804569 11.875854
v -7.619141 4.007500 38.429565
v -7.312744 5.031167 14.300903
v -25.607178 2.373230 33.753418
v -23.003174 3.703377 23.008545
v -26.486572 -7.804573 33.302368
v -27.177002 -7.804569 18.792847
v 2.574951 4.861472 23.401367
v 6.423096 -7.804569 22.704468
v -16.095459 -7.804569 41.342163
v -16.786133 2.674906 39.762085
v -18.340088 4.227419 18.180664
v -26.212158 0.393898 19.796875
v -25.663086 3.224327 25.393311
vt 0.458878 0.206940
vt 0.458913 0.206948
vt 0.458963 0.206969
vt 0.458938 0.207019
vt 0.458838 0.207050
vt 0.458807 0.206991
vt 0.458815 0.207028
vt 0.458794 0.207036
vt 0.458968 0.207111
vt 0.458854 0.207140
vt 0.458800 0.207075
vt 0.458907 0.207033
vt 0.458999 0.207047
vt 0.458976 0.206982
vt 0.459122 0.179449
vt 0.459112 0.179441
vt 0.459164 0.179512
vt 0.458976 0.179547
vt 0.459094 0.179559
vt 0.459114 0.179639
vt 0.458984 0.179614
vt 0.459133 0.179505
vt 0.459014 0.179522
vt 0.458996 0.179443
vt 0.459054 0.179427
vt 0.459126 0.179483
vt 0.459180 0.179554
vt 0.459137 0.179829
vt 0.459148 0.179914
vt 0.459266 0.179898
vt 0.459246 0.179815
vt 0.459112 0.179905
vt 0.459280 0.179853
vt 0.459291 0.179880
vt 0.459330 0.179962
vt 0.459315 0.179914
vt 0.459238 0.180031
vt 0.459211 0.180035
vt 0.459195 0.179950
vt 0.459223 0.179950
vt 0.459121 0.180005
vt 0.459279 0.179901
vn -0.021731 0.998618 -0.047858
vn -0.021731 0.998618 -0.047858
vn -0.021731 0.998618 -0.047858
vn -0.021731 0.998618 -0.047858
vn -0.021731 0.998618 -0.047858
vn -0.502560 0.650061 -0.569960
vn -0.502560 0.650061 -0.569960
vn -0.502560 0.650061 -0.569960
vn 0.898183 0.258600 -0.355518
vn 0.898183 0.258600 -0.355518
vn 0.898183 0.258600 -0.355518
vn 0.898183 0.258600 -0.355518
vn -0.995853 0.081944 -0.039522
vn -0.995853 0.081944 -0.039522
vn -0.995853 0.081944 -0.039522
vn -0.995853 0.081944 -0.039522
vn -0.995853 0.081944 -0.039522
vn -0.475680 0.242283 0.845593
vn -0.475680 0.242283 0.845593
vn -0.475680 0.242283 0.845593
vn -0.475680 0.242283 0.845593
vn -0.475680 0.242283 0.845593
vn -0.066591 0.993094 -0.096588
vn -0.066591 0.993094 -0.096588
vn -0.066591 0.993094 -0.096588
vn -0.066591 0.993094 -0.096588
vn -0.168604 0.165580 -0.971677
vn -0.168604 0.165580 -0.971677
vn -0.168604 0.165580 -0.971677
vn -0.168604 0.165580 -0.971677
vn -0.168604 0.165580 -0.971677
vn 0.750664 0.318164 0.579030
vn 0.750664 0.318164 0.579030
vn 0.750664 0.318164 0.579030
vn 0.750664 0.318164 0.579030
vn 0.750664 0.318164 0.579030
vn -0.047770 0.935069 0.351233
vn -0.047770 0.935069 0.351233
vn -0.047770 0.935069 0.351233
vn 0.526625 0.741453 -0.415828
vn 0.526625 0.741453 -0.415828
vn 0.526625 0.741453 -0.415828
vn -0.983183 0.140154 -0.117085
vn -0.983183 0.140154 -0.117085
vn -0.983183 0.140154 -0.117085
vn -0.983183 0.140154 -0.117085
vn 0.365452 0.828299 -0.424695
vn 0.365452 0.828299 -0.424695
vn 0.365452 0.828299 -0.424695
vn -0.221766 0.239281 0.945285
vn -0.221766 0.239281 0.945285
vn -0.221766 0.239281 0.945285
vn -0.221766 0.239281 0.945285
vn 0.402652 0.908254 -0.113785
vn 0.402652 0.908254 -0.113785
vn 0.402652 0.908254 -0.113785
vn -0.035741 0.999091 -0.023223
vn -0.035741 0.999091 -0.023223
vn -0.035741 0.999091 -0.023223
vn 0.021034 0.998412 -0.052254
vn 0.021034 0.998412 -0.052254
vn 0.021034 0.998412 -0.052254
vn 0.021034 0.998412 -0.052254
vn 0.021034 0.998412 -0.052254
vn 0.753863 0.279598 0.594572
vn 0.753863 0.279598 0.594572
vn 0.753863 0.279598 0.594572
vn 0.753863 0.279598 0.594572
vn 0.753863 0.279598 0.594572
vn 0.793400 0.162307 -0.586662
vn 0.793400 0.162307 -0.586662
vn 0.793400 0.162307 -0.586662
vn 0.793400 0.162307 -0.586662
vn -0.158062 0.100507 -0.982301
vn -0.158062 0.100507 -0.982301
vn -0.158062 0.100507 -0.982301
vn -0.158062 0.100507 -0.982301
vn -0.158062 0.100507 -0.982301
vn 0.644697 0.208381 -0.735489
vn 0.644697 0.208381 -0.735489
vn 0.644697 0.208381 -0.735489
vn 0.644697 0.208381 -0.735489
vn -0.046186 0.998023 0.042616
vn -0.046186 0.998023 0.042616
vn -0.046186 0.998023 0.042616
vn -0.046186 0.998023 0.042616
vn -0.046186 0.998024 0.042616
vn -0.314282 0.168282 -0.934296
vn -0.314282 0.168282 -0.934296
vn -0.314282 0.168282 -0.934296
vn -0.314282 0.168282 -0.934296
vn -0.314282 0.168282 -0.934296
vn -0.590042 0.049435 0.805858
vn -0.590042 0.049435 0.805858
vn -0.590042 0.049435 0.805858
vn -0.590042 0.049435 0.805858
vn 0.800310 0.197958 0.565965
vn 0.800310 0.197958 0.565965
vn 0.800310 0.197958 0.565965
vn 0.800310 0.197958 0.565965
vn -0.114551 0.987982 0.103777
vn -0.114551 0.987982 0.103777
vn -0.114551 0.987982 0.103777
vn -0.114551 0.987982 0.103777
vn -0.114551 0.987982 0.103777
vn -0.994108 0.101928 0.036875
vn -0.994108 0.101928 0.036875
vn -0.994108 0.101928 0.036875
vn -0.994108 0.101928 0.036875
vn -0.994108 0.101928 0.036875
vn 0.157608 0.128333 0.979128
vn 0.157608 0.128333 0.979128
vn 0.157608 0.128333 0.979127
vn 0.157608 0.128333 0.979128
vn -0.467136 0.805914 -0.363713
vn -0.467136 0.805914 -0.363713
vn -0.467136 0.805914 -0.363712
vn -0.469190 0.805730 -0.361469
vn -0.469190 0.805730 -0.361469
vn -0.469190 0.805730 -0.361469
vn -0.000000 -1.000000 -0.000000
vn -0.000000 -1.000000 -0.000000
vn -0.000000 -1.000000 -0.000000
vn -0.000000 -1.000000 -0.000000
vn -0.000000 -1.000000 -0.000000
vn 0.000000 -1.000000 0.000000
vn 0.000000 -1.000000 0.000000
vn 0.000000 -1.000000 0.000000
vn 0.000000 -1.000000 0.000000
vn 0.000000 -1.000000 0.000000
vn 0.000000 -1.000000 0.000000
vn 0.000000 -1.000000 0.000000
vn 0.000000 -1.000000 0.000000
vn 0.000000 -1.000000 0.000000
vn 0.000000 -1.000000 0.000000
vn 0.000000 -1.000000 0.000000
s off
f 3/1/1 14/2/2 9/3/3 4/4/4 6/5/5
f 5/6/6 11/7/7 12/8/8
f 2/9/9 8/10/10 6/5/11 4/4/12
f 7/11/13 1/12/14 3/1/15 5/6/16 12/8/17
f 1/12/18 10/13/19 13/14/20 14/2/21 3/1/22
f 3/1/23 6/5/24 11/7/25 5/6/26
f 12/8/27 11/7/28 6/5/29 8/10/30 7/11/31
f 9/3/32 13/14/33 10/13/34 2/9/35 4/4/36
f 14/2/37 13/14/38 9/3/39
f 18/15/40 26/16/41 27/17/42
f 19/18/43 20/19/44 22/20/45 21/21/46
f 27/17/47 24/22/48 18/15/49
f 21/21/50 15/23/51 17/24/52 19/18/53
f 25/25/54 26/16/55 18/15/56
f 17/24/57 20/19/58 19/18/59
f 17/24/60 25/25/61 18/15/62 24/22/63 20/19/64
f 15/23/65 23/26/66 26/16/67 25/25/68 17/24/69
f 27/17/70 26/16/71 23/26/72 16/27/73
f 16/27/74 22/20/75 20/19/76 24/22/77 27/17/78
f 36/28/79 37/29/80 29/30/81 31/31/82
f 30/32/83 36/28/84 31/31/85 40/33/86 33/34/87
f 29/30/88 35/35/89 41/36/90 40/33/91 31/31/92
f 34/37/93 38/38/94 39/39/95 32/40/96
f 28/41/97 37/29/98 36/28/99 30/32/100
f 30/32/101 33/34/102 42/42/103 32/40/104 39/39/105
f 34/37/106 32/40/107 42/42/108 41/36/109 35/35/110
f 39/39/111 38/38/112 28/41/113 30/32/114
f 40/33/115 41/36/116 33/34/117
f 41/36/118 42/42/119 33/34/120
f 2/9/121 10/13/122 1/12/123 7/11/124 8/10/125
f 16/27/126 23/26/127 15/23/128 21/21/129 22/20/130
f 29/30/131 37/29/132 28/41/133 38/38/134 34/37/135 35/35/136
