# This file uses centimeters as units for non-parametric coordinates.

v -12.817414 323.659241 -73.612663
v 12.812407 323.659241 -73.612724
v 12.812407 438.173767 -73.612724
v -12.817414 438.173767 -73.612663
v -0.002514 438.173767 -50.534676
v -17.350418 323.659241 -31.877033
v -17.350418 323.659241 -69.192337
v -17.350418 438.173767 -69.192337
v -17.350418 438.173767 -31.877033
v 12.812407 323.659241 -27.456673
v -12.817414 323.659241 -27.456738
v -12.817414 438.173767 -27.456738
v 12.812407 438.173767 -27.456673
v 17.345560 323.659241 -69.192337
v 17.345560 323.659241 -31.877033
v 17.345560 438.173767 -31.877033
v 17.345560 438.173767 -69.192337
vt 0.080017 0.306458
vt 0.080017 0.306458
vt 0.080017 0.306458
vt 0.080017 0.306458
vt 0.080017 0.266445
vt 0.080017 0.306458
vt 0.080017 0.306458
vt 0.080017 0.306457
vt 0.080017 0.306458
vt 0.080017 0.306458
vt 0.080017 0.306458
vt 0.080017 0.306458
vt 0.080017 0.306458
vt 0.080017 0.306458
vt 0.080017 0.306458
vt 0.080017 0.306458
vt 0.080017 0.306458
vn -0.000002 0.000000 -1.000000
vn -0.000002 0.000000 -1.000000
vn -0.000002 0.000000 -1.000000
vn -0.000002 0.000000 -1.000000
vn 0.000000 1.000000 0.000000
vn 0.000000 1.000000 0.000000
vn 0.000000 1.000000 0.000000
vn 0.000000 1.000000 0.000000
vn 0.000000 1.000000 0.000000
vn 0.000000 1.000000 0.000000
vn 0.000000 1.000000 0.000000
vn 0.000000 1.000000 0.000000
vn 0.000000 1.000000 0.000000
vn 0.000000 1.000000 0.000000
vn 0.000000 1.000000 0.000000
vn 0.000000 1.000000 0.000000
vn -1.000000 0.000000 -0.000000
vn -1.000000 0.000000 -0.000000
vn -1.000000 0.000000 -0.000000
vn -1.000000 0.000000 -0.000000
vn -0.000002 0.000000 1.000000
vn -0.000002 0.000000 1.000000
vn -0.000002 0.000000 1.000000
vn -0.000002 0.000000 1.000000
vn 1.000000 0.000000 0.000000
vn 1.000000 0.000000 0.000000
vn 1.000000 0.000000 0.000000
vn 1.000000 0.000000 0.000000
vn 0.000000 1.000000 0.000002
vn 0.000000 1.000000 0.000002
vn 0.000000 1.000000 0.000002
vn 0.000000 1.000000 0.000000
vn 0.000000 1.000000 0.000000
vn 0.000000 1.000000 0.000000
vn 0.000000 1.000000 0.000000
vn 0.000000 1.000000 0.000000
vn 0.000000 1.000000 0.000000
vn 0.000000 1.000000 0.000000
vn 0.000000 1.000000 0.000000
vn 0.000000 1.000000 0.000000
vn -0.799345 0.000000 -0.600872
vn -0.799345 0.000000 -0.600872
vn -0.799345 0.000000 -0.600872
vn -0.799345 0.000000 -0.600872
vn -0.799343 0.000000 0.600875
vn -0.799343 0.000000 0.600875
vn -0.799343 0.000000 0.600875
vn -0.799343 0.000000 0.600875
vn 0.799337 0.000000 0.600883
vn 0.799337 0.000000 0.600883
vn 0.799337 0.000000 0.600883
vn 0.799337 0.000000 0.600883
vn 0.799339 0.000000 -0.600881
vn 0.799339 0.000000 -0.600881
vn 0.799339 0.000000 -0.600881
vn 0.799339 0.000000 -0.600881
s off
f 2/1/1 1/11/2 4/6/3 3/10/4
f 3/10/5 4/6/6 5/5/7
f 5/5/8 16/16/9 17/9/10
f 5/5/11 8/12/12 9/7/13
f 5/5/14 12/14/15 13/8/16
f 7/2/17 6/13/18 9/7/19 8/12/20
f 11/3/21 10/15/22 13/8/23 12/14/24
f 15/4/25 14/17/26 17/9/27 16/16/28
f 3/10/29 5/5/30 17/9/31
f 5/5/32 4/6/33 8/12/34
f 5/5/35 9/7/36 12/14/37
f 5/5/38 13/8/39 16/16/40
f 4/6/41 1/11/42 7/2/43 8/12/44
f 9/7/45 6/13/46 11/3/47 12/14/48
f 13/8/49 10/15/50 15/4/51 16/16/52
f 3/10/53 17/9/54 14/17/55 2/1/56
