# This file uses centimeters as units for non-parametric coordinates.

v -2.288330 0.000004 3.962341
v 2.288330 0.000004 3.962341
v 4.575745 0.000004 0.000000
v 2.288330 0.000004 -3.962097
v -2.288330 0.000004 -3.962097
v -4.575684 0.000004 0.000000
v -2.288330 13.480973 3.962341
v 2.288330 13.480973 3.962341
v 4.575745 13.480973 0.000000
v 2.288330 13.480973 -3.962097
v -2.288330 13.480973 -3.962097
v -4.575684 13.480973 0.000000
v 0.000000 0.000004 0.000000
v 0.000000 13.480973 0.000000
v -1.244019 13.480973 2.155518
v 1.244568 13.480973 2.155518
v 2.488647 13.480973 0.000000
v 1.244568 13.480973 -2.155304
v -1.244019 13.480973 -2.155304
v -2.488586 13.480973 0.000000
v -1.244019 96.613754 2.155518
v 1.244568 96.613754 2.155518
v 2.488647 96.613754 0.000000
v 1.244568 96.613754 -2.155304
v -1.244019 96.613754 -2.155304
v -2.488586 96.613754 0.000000
v 0.000000 13.480973 0.000000
v 0.000000 96.613754 0.000000
vt 0.098184 0.017656
vt 0.098184 0.017656
vt 0.098184 0.017656
vt 0.098184 0.017656
vt 0.098184 0.017656
vt 0.098184 0.017656
vt 0.098184 0.017656
vt 0.098184 0.017656
vt 0.098184 0.017656
vt 0.098184 0.017656
vt 0.098184 0.017656
vt 0.098184 0.017656
vt 0.098184 0.017656
vt 0.098184 0.017656
vt 0.098184 0.017656
vt 0.098184 0.017656
vt 0.098184 0.017656
vt 0.098184 0.017656
vt 0.098184 0.017656
vt 0.098184 0.017656
vt 0.098184 0.017656
vt 0.098184 0.017656
vt 0.098184 0.017656
vt 0.098184 0.017656
vt 0.098184 0.017656
vt 0.098184 0.017656
vt 0.098184 0.017656
vt 0.098184 0.017656
vt 0.098184 0.017656
vt 0.098184 0.017656
vt 0.098184 0.017656
vt 0.098184 0.017656
vt 0.098184 0.017656
vt 0.098184 0.017656
vt 0.098184 0.017656
vt 0.098184 0.017656
vt 0.098184 0.017656
vt 0.098184 0.017656
vt 0.098184 0.017656
vt 0.098184 0.017656
vt 0.098184 0.017656
vt 0.098184 0.017656
vt 0.098184 0.017656
vt 0.098184 0.017656
vt 0.098184 0.017656
vt 0.098184 0.017656
vt 0.098184 0.017656
vt 0.098184 0.017656
vt 0.098184 0.017656
vt 0.098184 0.017656
vt 0.098184 0.017656
vt 0.098184 0.017656
vt 0.098184 0.017656
vt 0.098184 0.017656
vt 0.098184 0.017656
vt 0.098184 0.017656
vn 0.000000 0.000000 1.000000
vn 0.000000 0.000000 1.000000
vn 0.000000 0.000000 1.000000
vn 0.000000 0.000000 1.000000
vn 0.866050 0.000000 0.499958
vn 0.866050 0.000000 0.499958
vn 0.866050 0.000000 0.499958
vn 0.866050 0.000000 0.499958
vn 0.866037 0.000000 -0.499980
vn 0.866037 0.000000 -0.499980
vn 0.866037 0.000000 -0.499980
vn 0.866037 0.000000 -0.499980
vn 0.000000 0.000000 -1.000000
vn 0.000000 0.000000 -1.000000
vn 0.000000 0.000000 -1.000000
vn 0.000000 0.000000 -1.000000
vn -0.866037 0.000000 -0.499980
vn -0.866037 0.000000 -0.499980
vn -0.866037 0.000000 -0.499980
vn -0.866037 0.000000 -0.499980
vn -0.866050 0.000000 0.499958
vn -0.866050 0.000000 0.499958
vn -0.866050 0.000000 0.499958
vn -0.866050 0.000000 0.499958
vn 0.000000 -1.000000 0.000000
vn 0.000000 -1.000000 0.000000
vn 0.000000 -1.000000 0.000000
vn 0.000000 -1.000000 0.000000
vn 0.000000 -1.000000 0.000000
vn 0.000000 -1.000000 0.000000
vn 0.000000 -1.000000 0.000000
vn 0.000000 -1.000000 0.000000
vn 0.000000 -1.000000 0.000000
vn 0.000000 -1.000000 0.000000
vn 0.000000 -1.000000 0.000000
vn 0.000000 -1.000000 0.000000
vn 0.000000 -1.000000 0.000000
vn 0.000000 -1.000000 0.000000
vn 0.000000 -1.000000 0.000000
vn 0.000000 -1.000000 0.000000
vn 0.000000 -1.000000 0.000000
vn 0.000000 -1.000000 0.000000
vn 0.000000 1.000000 0.000000
vn 0.000000 1.000000 0.000000
vn 0.000000 1.000000 0.000000
vn 0.000000 1.000000 0.000000
vn 0.000000 1.000000 0.000000
vn 0.000000 1.000000 0.000000
vn 0.000000 1.000000 0.000000
vn 0.000000 1.000000 0.000000
vn 0.000000 1.000000 0.000000
vn 0.000000 1.000000 0.000000
vn 0.000000 1.000000 -0.000000
vn 0.000000 1.000000 0.000000
vn 0.000000 1.000000 -0.000000
vn 0.000000 1.000000 -0.000000
vn 0.000000 1.000000 0.000000
vn 0.000000 1.000000 -0.000000
vn 0.000000 1.000000 0.000000
vn 0.000000 1.000000 0.000000
vn 0.000000 0.000000 1.000000
vn 0.000000 0.000000 1.000000
vn 0.000000 0.000000 1.000000
vn 0.000000 0.000000 1.000000
vn 0.866100 0.000000 0.499871
vn 0.866100 0.000000 0.499871
vn 0.866100 0.000000 0.499871
vn 0.866100 0.000000 0.499871
vn 0.866076 0.000000 -0.499912
vn 0.866076 0.000000 -0.499912
vn 0.866076 0.000000 -0.499912
vn 0.866076 0.000000 -0.499912
vn 0.000000 0.000000 -1.000000
vn 0.000000 0.000000 -1.000000
vn 0.000000 0.000000 -1.000000
vn 0.000000 0.000000 -1.000000
vn -0.865995 0.000000 -0.500053
vn -0.865995 0.000000 -0.500053
vn -0.865995 0.000000 -0.500053
vn -0.865995 0.000000 -0.500053
vn -0.866019 0.000000 0.500012
vn -0.866019 0.000000 0.500012
vn -0.866019 0.000000 0.500012
vn -0.866019 0.000000 0.500012
vn 0.000000 -1.000000 -0.000000
vn 0.000000 -1.000000 0.000000
vn 0.000000 -1.000000 -0.000000
vn 0.000000 -1.000000 -0.000000
vn 0.000000 -1.000000 -0.000000
vn 0.000000 -1.000000 -0.000000
vn 0.000000 -1.000000 0.000000
vn 0.000000 -1.000000 -0.000000
vn 0.000000 -1.000000 -0.000000
vn 0.000000 -1.000000 0.000000
vn 0.000000 -1.000000 0.000000
vn 0.000000 -1.000000 -0.000000
vn 0.000000 -1.000000 0.000000
vn 0.000000 -1.000000 0.000000
vn 0.000000 -1.000000 -0.000000
vn 0.000000 -1.000000 0.000000
vn 0.000000 -1.000000 0.000000
vn 0.000000 -1.000000 -0.000000
vn 0.000000 1.000000 0.000002
vn 0.000000 1.000000 -0.000000
vn 0.000000 1.000000 0.000000
vn 0.000000 1.000000 -0.000000
vn 0.000000 1.000000 -0.000002
vn 0.000000 1.000000 0.000000
vn 0.000000 1.000000 -0.000002
vn 0.000000 1.000000 -0.000002
vn 0.000000 1.000000 0.000000
vn 0.000000 1.000000 -0.000002
vn 0.000000 1.000000 0.000000
vn 0.000000 1.000000 0.000000
vn 0.000000 1.000000 0.000000
vn 0.000000 1.000000 0.000002
vn 0.000000 1.000000 0.000000
vn 0.000000 1.000000 0.000002
vn 0.000000 1.000000 0.000002
vn 0.000000 1.000000 0.000000
s off
f 1/1/1 2/2/2 8/3/3 7/4/4
f 2/2/5 3/5/6 9/6/7 8/3/8
f 3/5/9 4/7/10 10/8/11 9/6/12
f 4/7/13 5/9/14 11/10/15 10/8/16
f 5/9/17 6/11/18 12/12/19 11/10/20
f 6/11/21 1/13/22 7/14/23 12/12/24
f 2/15/25 1/16/26 13/17/27
f 3/18/28 2/15/29 13/17/30
f 4/19/31 3/18/32 13/17/33
f 5/20/34 4/19/35 13/17/36
f 6/21/37 5/20/38 13/17/39
f 1/16/40 6/21/41 13/17/42
f 7/22/43 8/23/44 14/24/45
f 8/23/46 9/25/47 14/24/48
f 9/25/49 10/26/50 14/24/51
f 10/26/52 11/27/53 14/24/54
f 11/27/55 12/28/56 14/24/57
f 12/28/58 7/22/59 14/24/60
f 15/29/61 16/30/62 22/31/63 21/32/64
f 16/30/65 17/33/66 23/34/67 22/31/68
f 17/33/69 18/35/70 24/36/71 23/34/72
f 18/35/73 19/37/74 25/38/75 24/36/76
f 19/37/77 20/39/78 26/40/79 25/38/80
f 20/39/81 15/41/82 21/42/83 26/40/84
f 16/43/85 15/44/86 27/45/87
f 17/46/88 16/43/89 27/45/90
f 18/47/91 17/46/92 27/45/93
f 19/48/94 18/47/95 27/45/96
f 20/49/97 19/48/98 27/45/99
f 15/44/100 20/49/101 27/45/102
f 21/50/103 22/51/104 28/52/105
f 22/51/106 23/53/107 28/52/108
f 23/53/109 24/54/110 28/52/111
f 24/54/112 25/55/113 28/52/114
f 25/55/115 26/56/116 28/52/117
f 26/56/118 21/50/119 28/52/120
