# This file uses centimeters as units for non-parametric coordinates.

v -0.000000 -47.075294 35.339447
v -1.838623 -47.552040 35.816193
v -0.000000 -56.886906 46.865570
v -3.300075 -56.886906 46.865570
v 0.000000 -56.880032 -46.865570
v -3.300075 -56.880032 -46.865570
v 0.000000 -47.075294 -35.339447
v -1.838623 -47.552040 -35.816193
v -3.300075 -51.834812 40.098953
v -3.300075 -51.834812 -40.098961
v -1.603109 -51.012836 39.550983
v -2.404664 -51.012836 -39.276985
v -1.838623 -48.237999 36.502148
v -1.838623 -48.237999 -36.502148
v -2.404664 -48.608883 36.873032
v -2.404664 -48.608883 -36.873032
v 0.000000 -47.075302 -35.339447
v 0.000000 58.601425 -45.655548
v -3.300075 58.601425 -45.655548
v 0.000000 47.075302 -35.339447
v -1.838623 47.552048 -35.816193
v -3.300075 51.834816 -40.098961
v -2.404664 51.012844 -39.276985
v -1.838623 48.238007 -36.502148
v -2.404664 48.608891 -36.873032
v -0.000000 47.075302 35.339447
v -1.838623 47.552048 35.816193
v -0.000000 57.099300 46.865570
v -3.300075 57.099300 46.865570
v -0.000000 -47.075302 35.339447
v -3.300075 51.834816 40.098953
v -2.404664 51.012844 39.276978
v -1.838623 48.238007 36.502148
v -2.404664 48.608891 36.873032
v 0.000000 47.075302 -35.339447
v -0.000000 47.075302 35.339447
v -3.300075 -30.238342 46.865570
v -3.300075 -14.882295 46.865570
v -3.300075 -24.660341 44.555748
v -1.732831 -24.660341 46.865570
v 0.000000 -58.601421 -11.119820
v -1.632296 -58.601421 -11.119820
v -3.300075 -52.634449 -10.889172
v -2.017547 -51.510113 -10.728825
v -2.404664 -49.445004 -10.779213
v -1.838623 -48.580853 -10.766566
v -1.838623 -47.742382 -10.743189
v 0.000000 -47.075294 -10.726940
v 0.000000 57.101734 -46.865570
v -3.300075 57.691711 -46.865570
v -3.300075 58.601425 45.996536
v -0.000000 58.601425 45.708061
v -3.300075 -58.601421 -45.090878
v 0.000000 -58.601421 -44.920361
v -3.300075 -58.601414 45.574738
v -0.000000 -58.601421 45.308662
v -3.300075 -56.633972 -11.043775
v -3.300075 -58.601421 9.682346
v -0.000000 5.894106 35.339447
v -1.838623 6.040775 35.674202
v -1.838623 5.994516 36.892952
v -2.404664 6.024557 37.517715
v -2.003258 5.814161 39.414192
v -3.300075 5.894109 40.098953
vt 0.005866 0.277138
vt 0.005867 0.277340
vt 0.005733 0.277415
vt 0.005732 0.277214
vt 0.005732 0.278336
vt 0.005733 0.278449
vt 0.005866 0.278373
vt 0.005866 0.278261
vt 0.005733 0.278065
vt 0.005866 0.277990
vt 0.005867 0.277999
vt 0.005733 0.278074
vt 0.005866 0.278306
vt 0.005733 0.278382
vt 0.048692 0.326187
vt 0.048692 0.326187
vt 0.005866 0.277138
vt 0.005867 0.277340
vt 0.005733 0.277415
vt 0.005732 0.277214
vt 0.005732 0.278336
vt 0.005733 0.278449
vt 0.005866 0.278373
vt 0.005866 0.278261
vt 0.048692 0.326187
vt 0.048692 0.326187
vt 0.005733 0.278065
vt 0.005866 0.277990
vt 0.005867 0.277999
vt 0.005733 0.278074
vt 0.005733 0.278382
vt 0.005866 0.278306
vt 0.005866 0.277138
vt 0.005867 0.277340
vt 0.005733 0.277415
vt 0.005732 0.277214
vt 0.005732 0.278336
vt 0.005733 0.278449
vt 0.005866 0.278373
vt 0.005866 0.278261
vt 0.048692 0.326187
vt 0.048692 0.326187
vt 0.005733 0.278065
vt 0.005866 0.277990
vt 0.005867 0.277999
vt 0.005733 0.278074
vt 0.005733 0.278382
vt 0.005866 0.278306
vt 0.005866 0.277138
vt 0.005867 0.277340
vt 0.005733 0.277415
vt 0.005732 0.277214
vt 0.005732 0.278336
vt 0.005733 0.278449
vt 0.005866 0.278373
vt 0.005866 0.278261
vt 0.048692 0.326187
vt 0.048692 0.326187
vt 0.005733 0.278065
vt 0.005866 0.277990
vt 0.005867 0.277999
vt 0.005733 0.278074
vt 0.005733 0.278382
vt 0.005866 0.278306
vt 0.005765 0.277397
vt 0.005778 0.277390
vt 0.005771 0.277394
vt 0.005771 0.277394
vt 0.005797 0.277177
vt 0.005797 0.277379
vt 0.005797 0.278038
vt 0.005797 0.278029
vt 0.048692 0.326187
vt 0.005797 0.278345
vt 0.005797 0.278412
vt 0.005797 0.278300
vt 0.005752 0.277202
vt 0.005752 0.277405
vt 0.005750 0.277406
vt 0.005750 0.277204
vt 0.005743 0.277410
vt 0.005743 0.277208
vt 0.005856 0.277346
vt 0.005856 0.277144
vt 0.005797 0.277596
vt 0.005819 0.277367
vt 0.005799 0.278298
vt 0.005800 0.278411
vt 0.005800 0.278344
vt 0.048692 0.326187
vt 0.005799 0.278027
vt 0.005800 0.278037
vt 0.048692 0.326187
vt 0.048692 0.326187
vt 0.048692 0.326187
vt 0.048692 0.326187
vt 0.048692 0.326187
vt 0.048692 0.326187
vt 0.048692 0.326187
vt 0.048692 0.326187
vt 0.006548 0.279190
vt 0.006548 0.276590
vt 0.006830 0.276384
vt 0.006830 0.279532
vt 0.004567 0.279052
vt 0.004820 0.278792
vt 0.006548 0.279190
vt 0.006529 0.279221
vt 0.006800 0.279566
vt 0.004820 0.278792
vt 0.004539 0.279004
vt 0.004539 0.275856
vt 0.004820 0.276192
vt 0.004779 0.276192
vt 0.004820 0.276192
vt 0.004820 0.277655
vt 0.004779 0.278818
vt 0.004577 0.275818
vt 0.005946 0.276452
vt 0.005956 0.276135
vt 0.006529 0.276595
vt 0.006548 0.276590
vt 0.006782 0.276326
vn 0.000000 -1.000000 -0.000000
vn 0.000000 -1.000000 -0.000000
vn 0.000000 -1.000000 -0.000000
vn 0.000000 -1.000000 -0.000000
vn -0.297464 0.954726 0.003657
vn -0.297464 0.954726 0.003657
vn -0.297464 0.954726 0.003657
vn -0.297464 0.954726 0.003657
vn -0.996033 -0.088852 0.004888
vn -0.996033 -0.088852 0.004888
vn -0.996033 -0.088852 0.004888
vn -0.996033 -0.088852 0.004888
vn -1.000000 -0.000000 0.000000
vn -1.000000 -0.000000 0.000000
vn -1.000000 -0.000000 0.000000
vn -0.671478 0.740723 0.021133
vn -0.671478 0.740723 0.021133
vn -0.671478 0.740723 0.021133
vn -0.671478 0.740723 0.021133
vn -1.000000 -0.000000 0.000000
vn -1.000000 -0.000000 0.000000
vn -1.000000 -0.000000 0.000000
vn -1.000000 -0.000000 0.000000
vn -0.739442 0.673047 0.015310
vn -0.739442 0.673047 0.015310
vn -0.739442 0.673047 0.015310
vn -0.739442 0.673047 0.015310
vn 0.063221 0.707244 -0.704137
vn 0.063221 0.707244 -0.704137
vn 0.063221 0.707244 -0.704137
vn 0.063221 0.707244 -0.704137
vn -0.250995 0.000000 0.967988
vn -0.250995 0.000000 0.967988
vn -0.250995 0.000000 0.967988
vn -0.250995 0.000000 0.967988
vn -1.000000 0.000000 0.000000
vn -1.000000 0.000000 0.000000
vn -1.000000 0.000000 0.000000
vn -1.000000 0.000000 0.000000
vn -1.000000 0.000000 0.000000
vn -1.000000 0.000000 0.000000
vn -1.000000 0.000000 0.000000
vn -0.676253 0.000000 0.736669
vn -0.676253 0.000000 0.736669
vn -0.676253 0.000000 0.736669
vn -0.676253 0.000000 0.736669
vn -1.000000 0.000000 0.000000
vn -1.000000 0.000000 0.000000
vn -1.000000 0.000000 0.000000
vn -1.000000 0.000000 0.000000
vn -0.548058 0.000000 0.836440
vn -0.548058 0.000000 0.836440
vn -0.548058 0.000000 0.836440
vn -0.548058 0.000000 0.836440
vn -0.820314 -0.131482 0.556594
vn -0.820314 -0.131482 0.556594
vn -0.820314 -0.131482 0.556594
vn -0.215224 0.001677 -0.976563
vn -0.215224 0.001677 -0.976563
vn -0.215224 0.001677 -0.976563
vn -0.215224 0.001677 -0.976563
vn -0.995488 -0.003708 0.094811
vn -0.995488 -0.003708 0.094811
vn -0.995488 -0.003708 0.094811
vn -0.995488 -0.003708 0.094811
vn -1.000000 0.000000 0.000000
vn -1.000000 0.000000 0.000000
vn -1.000000 0.000000 0.000000
vn -0.567462 -0.003739 -0.823391
vn -0.567462 -0.003739 -0.823391
vn -0.567462 -0.003739 -0.823391
vn -0.567462 -0.003739 -0.823391
vn -1.000000 0.000000 0.000000
vn -1.000000 0.000000 0.000000
vn -1.000000 0.000000 0.000000
vn -1.000000 0.000000 0.000000
vn -0.662209 -0.009146 -0.749263
vn -0.662209 -0.009146 -0.749263
vn -0.662209 -0.009146 -0.749263
vn -0.662209 -0.009146 -0.749263
vn 0.000000 1.000000 -0.000000
vn 0.000000 1.000000 -0.000000
vn 0.000000 1.000000 -0.000000
vn 0.000000 1.000000 -0.000000
vn -0.250995 -0.967989 0.000000
vn -0.250994 -0.967988 0.000000
vn -0.250994 -0.967988 0.000000
vn -0.250995 -0.967989 0.000000
vn -1.000000 -0.000000 0.000000
vn -1.000000 -0.000000 0.000000
vn -1.000000 -0.000000 0.000000
vn -1.000000 -0.000000 0.000000
vn -1.000000 -0.000000 0.000000
vn -1.000000 -0.000000 0.000000
vn -1.000000 -0.000000 0.000000
vn -0.676251 -0.736671 0.000000
vn -0.676251 -0.736671 0.000000
vn -0.676251 -0.736671 0.000000
vn -0.676251 -0.736671 0.000000
vn -1.000000 -0.000000 0.000000
vn -1.000000 -0.000000 0.000000
vn -1.000000 -0.000000 0.000000
vn -1.000000 -0.000000 0.000000
vn -0.548057 -0.836441 0.000000
vn -0.548057 -0.836441 0.000000
vn -0.548057 -0.836441 0.000000
vn -0.548057 -0.836441 0.000000
vn -1.000000 0.000000 0.000000
vn -1.000000 0.000000 0.000000
vn -1.000000 0.000000 0.000000
vn -1.000000 0.000000 0.000000
vn -1.000000 0.000000 0.000000
vn -1.000000 0.000000 0.000000
vn -1.000000 0.000000 0.000000
vn -1.000000 0.000000 0.000000
vn -1.000000 0.000000 0.000000
vn 0.000001 0.000000 1.000000
vn 0.000001 0.000000 1.000000
vn 0.000001 0.000000 1.000000
vn -0.806000 0.226461 0.546882
vn -0.806000 0.226461 0.546882
vn -0.806000 0.226461 0.546882
vn 0.000012 0.000000 1.000000
vn 0.000012 0.000000 1.000000
vn 0.000012 0.000000 1.000000
vn 0.000000 0.000000 1.000000
vn 0.000000 0.000000 1.000000
vn 0.000000 0.000000 1.000000
vn -1.000000 0.000000 0.000000
vn -1.000000 0.000000 0.000000
vn -1.000000 0.000000 0.000000
vn 0.000000 0.000000 1.000000
vn 0.000000 0.000000 1.000000
vn 0.000000 0.000000 1.000000
vn 0.000000 0.000000 1.000000
vn 0.000000 0.000000 1.000000
vn 0.000000 0.000000 1.000000
vn 0.030997 -0.638583 0.768929
vn 0.030997 -0.638583 0.768929
vn 0.030997 -0.638583 0.768929
vn 0.030997 -0.638583 0.768929
vn -1.000000 -0.000000 0.000000
vn -1.000000 -0.000000 0.000000
vn -1.000000 -0.000000 0.000000
vn -1.000000 -0.000000 0.000000
vn -0.547644 0.836668 -0.008474
vn -0.547644 0.836668 -0.008474
vn -0.547644 0.836668 -0.008474
vn -0.547644 0.836668 -0.008474
vn -0.967506 -0.252735 0.007535
vn -0.967506 -0.252735 0.007535
vn -0.967506 -0.252735 0.007535
vn -0.967506 -0.252735 0.007535
vn -0.738348 0.674368 -0.008376
vn -0.738348 0.674368 -0.008376
vn -0.738348 0.674368 -0.008376
vn -0.738348 0.674368 -0.008376
vn -1.000000 0.000000 0.000000
vn -1.000000 0.000000 0.000000
vn -1.000000 0.000000 0.000000
vn -1.000000 0.000000 0.000000
vn -0.297243 0.954800 -0.001962
vn -0.297243 0.954800 -0.001962
vn -0.297243 0.954800 -0.001962
vn -0.297243 0.954800 -0.001962
vn 0.000001 0.000000 -1.000000
vn 0.000001 0.000000 -1.000000
vn 0.000001 0.000000 -1.000000
vn 0.000001 0.000000 -1.000000
vn -1.000000 0.000000 0.000000
vn -1.000000 0.000000 0.000000
vn -1.000000 0.000000 0.000000
vn -1.000000 0.000000 0.000000
vn 0.036211 0.558855 0.828475
vn 0.036211 0.558855 0.828475
vn 0.036211 0.558855 0.828475
vn 0.036211 0.558855 0.828475
vn -1.000000 -0.000000 0.000000
vn -1.000000 -0.000000 0.000000
vn -1.000000 -0.000000 0.000000
vn -1.000000 -0.000000 0.000000
vn 0.017545 -0.733803 -0.679136
vn 0.017545 -0.733803 -0.679136
vn 0.017545 -0.733803 -0.679136
vn 0.017545 -0.733803 -0.679136
vn -1.000000 0.000000 0.000000
vn -1.000000 0.000000 0.000000
vn -1.000000 0.000000 0.000000
vn -1.000000 0.000000 0.000000
vn -0.000002 -1.000000 0.000000
vn -0.000002 -1.000000 0.000000
vn -0.000002 -1.000000 0.000000
vn -1.000000 0.000000 0.000000
vn -1.000000 0.000000 0.000000
vn -1.000000 0.000000 0.000000
vn -0.761563 -0.647012 0.037388
vn -0.761563 -0.647012 0.037388
vn -0.761563 -0.647012 0.037388
vn -0.762547 -0.644037 -0.061136
vn -0.762547 -0.644037 -0.061136
vn -0.762547 -0.644037 -0.061136
vn -1.000000 0.000000 0.000000
vn -1.000000 0.000000 0.000000
vn -1.000000 0.000000 0.000000
vn 0.000000 -1.000000 0.000000
vn 0.000000 -1.000000 0.000000
vn 0.000000 -1.000000 0.000000
vn 0.000000 -1.000000 0.000000
vn -0.215386 -0.001301 -0.976528
vn -0.215386 -0.001301 -0.976528
vn -0.215386 -0.001301 -0.976528
vn -0.215386 -0.001301 -0.976528
vn -1.000000 -0.000000 0.000000
vn -1.000000 -0.000000 0.000000
vn -1.000000 -0.000000 0.000000
vn -1.000000 -0.000000 0.000000
vn -0.661603 0.007132 -0.749820
vn -0.661603 0.007132 -0.749820
vn -0.661603 0.007132 -0.749820
vn -0.661603 0.007132 -0.749820
vn -0.967754 -0.004622 0.251853
vn -0.967754 -0.004622 0.251853
vn -0.967754 -0.004622 0.251853
vn -0.967754 -0.004622 0.251853
vn -0.380233 -0.002433 -0.924888
vn -0.380233 -0.002433 -0.924888
vn -0.380233 -0.002433 -0.924888
vn -0.380233 -0.002433 -0.924888
vn -1.000000 0.000000 0.000000
vn -1.000000 0.000000 0.000000
vn -1.000000 0.000000 0.000000
vn 1.000000 0.000000 0.000000
vn 1.000000 0.000000 0.000000
vn 1.000000 0.000000 0.000000
vn 1.000000 0.000000 0.000000
vn 1.000000 0.000000 0.000000
vn 1.000000 0.000000 0.000000
vn 1.000000 0.000000 0.000000
vn 0.000000 0.000000 0.000000
vn 1.000000 0.000000 0.000000
vn 1.000000 0.000000 0.000000
vn 1.000000 -0.000000 0.000000
vn 1.000000 -0.000000 0.000000
vn 1.000000 -0.000000 0.000000
vn 1.000000 0.000000 0.000000
vn 1.000000 0.000000 0.000000
vn 1.000000 0.000000 0.000000
vn 1.000000 0.000000 0.000000
vn 0.000000 0.000000 0.000000
vn 1.000000 0.000000 0.000000
vn 1.000000 0.000000 0.000000
vn 1.000000 0.000000 0.000000
vn 1.000000 0.000000 0.000000
vn 1.000000 0.000000 0.000000
vn 0.000000 0.000000 0.000000
vn 1.000000 0.000000 0.000000
vn 1.000000 0.000000 0.000000
vn 1.000000 0.000000 0.000000
vn 1.000000 0.000000 0.000000
vn 1.000000 -0.000000 -0.000000
vn 1.000000 -0.000000 -0.000000
vn 1.000000 -0.000000 -0.000000
vn 0.000000 -0.000000 -0.000000
vn 1.000000 -0.000000 -0.000000
vn 1.000000 0.000000 0.000000
vn 1.000000 0.000000 0.000000
vn 1.000000 0.000000 0.000000
vn 1.000000 0.000000 0.000000
vn 1.000000 0.000000 0.000000
vn 1.000000 0.000000 0.000000
vn 1.000000 0.000000 0.000000
vn 1.000000 0.000000 0.000000
vn 1.000000 0.000000 0.000000
vn 1.000000 -0.000000 0.000000
vn 1.000000 -0.000000 0.000000
vn 1.000000 -0.000000 0.000000
s off
f 41/69/1 42/70/2 53/81/3 54/82/4
f 7/5/5 8/6/6 47/75/7 48/76/8
f 45/15/9 16/16/10 12/25/11 44/26/12
f 53/81/13 10/12/14 6/3/15
f 44/72/16 12/9/17 10/12/18 43/71/19
f 47/75/20 8/6/21 14/14/22 46/74/23
f 46/41/24 14/42/25 16/16/26 45/15/27
f 49/77/28 50/78/29 19/19/30 18/20/31
f 20/21/32 21/22/33 8/23/34 17/24/35
f 16/16/36 25/57/37 23/58/38 12/25/39
f 50/78/40 22/30/41 19/19/42
f 12/28/43 23/27/44 22/30/45 10/29/46
f 8/23/47 21/22/48 24/31/49 14/32/50
f 14/42/51 24/73/52 25/57/53 16/16/54
f 39/67/55 40/68/56 38/66/57
f 59/87/58 60/88/59 27/39/60 26/40/61
f 34/90/62 62/93/63 63/94/64 32/95/65
f 39/67/66 9/46/67 37/65/68
f 32/44/69 63/91/70 64/92/71 31/45/72
f 27/39/73 60/88/74 61/89/75 33/48/76
f 33/96/77 61/97/78 62/93/79 34/90/80
f 18/49/81 19/50/82 51/79/83 52/80/84
f 36/53/85 27/54/86 21/55/87 35/56/88
f 25/57/89 34/90/90 32/95/91 23/58/92
f 51/79/93 31/62/94 29/51/95
f 23/60/96 32/59/97 31/62/98 22/61/99
f 21/55/100 27/54/101 33/63/102 24/64/103
f 24/73/104 33/96/105 34/90/106 25/57/107
f 37/65/108 9/46/109 4/35/110
f 31/45/111 38/66/112 29/34/113
f 31/45/114 64/92/115 39/67/116
f 40/68/117 29/34/118 38/66/119
f 37/65/120 40/68/121 39/67/122
f 4/35/123 40/68/124 37/65/125
f 28/33/126 40/68/127 3/36/128
f 31/45/129 39/67/130 38/66/131
f 3/36/132 40/68/133 4/35/134
f 28/33/135 29/34/136 40/68/137
f 3/1/138 4/2/139 55/83/140 56/84/141
f 9/11/142 43/71/143 57/85/144 58/86/145
f 11/10/146 44/72/147 43/71/148 9/11/149
f 15/98/150 45/15/151 44/26/152 11/99/153
f 13/100/154 46/41/155 45/15/156 15/98/157
f 2/7/158 47/75/159 46/74/160 13/13/161
f 48/76/162 47/75/163 2/7/164 1/8/165
f 5/17/166 6/18/167 50/78/168 49/77/169
f 10/29/170 22/30/171 50/78/172 6/18/173
f 52/80/174 51/79/175 29/51/176 28/52/177
f 22/61/178 31/62/179 51/79/180 19/50/181
f 54/82/182 53/81/183 6/3/184 5/4/185
f 43/71/186 10/12/187 53/81/188 57/85/189
f 56/84/190 55/83/191 58/86/192
f 9/11/193 55/83/194 4/2/195
f 57/85/196 53/81/197 42/70/198
f 58/86/199 57/85/200 42/70/201
f 9/11/202 58/86/203 55/83/204
f 56/84/205 58/86/206 42/70/207 41/69/208
f 30/37/209 2/38/210 60/88/211 59/87/212
f 61/89/213 60/88/214 2/38/215 13/47/216
f 62/93/217 61/97/218 13/100/219 15/98/220
f 63/94/221 62/93/222 15/98/223 11/99/224
f 64/92/225 63/91/226 11/43/227 9/46/228
f 39/67/229 64/92/230 9/46/231
f 20/101/232 17/102/233 5/103/234 49/104/235
f 52/105/236 36/106/237 35/107/238 21/108/239 20/101/240 18/109/241
f 18/109/242 20/101/243 49/104/244
f 26/110/245 28/111/246 3/112/247 1/113/248 2/114/249 30/115/250 59/116/251
f 52/105/252 28/111/253 26/110/254 27/117/255 36/106/256
f 1/113/257 3/112/258 56/118/259
f 48/119/260 41/120/261 17/102/262 8/121/263 7/122/264
f 17/102/265 54/123/266 5/103/267
f 17/102/268 41/120/269 54/123/270
f 1/113/271 56/118/272 41/120/273
f 1/113/274 41/120/275 48/119/276
