# This file uses centimeters as units for non-parametric coordinates.

v -4.727716 0.005211 -5.562446
v 4.727716 0.005211 -5.562446
v 2.956221 21.097340 0.089174
v -2.956221 21.097340 0.089174
v -4.727716 0.000000 -7.820183
v 4.727716 0.000000 -7.820183
v 2.956221 25.445496 -1.002082
v -2.956221 25.445496 -1.002082
v -13.015810 4.794846 5.319197
v 13.015810 4.794845 5.319197
v -13.015810 23.670916 0.261368
v 13.015810 23.670916 0.261368
v 14.566780 4.014140 6.904182
v 14.566780 25.139519 1.243653
v -14.566866 25.139530 1.243695
v -14.566866 4.014151 6.904223
v 17.751904 0.564087 7.828645
v 17.751902 28.589584 0.319235
v -17.751894 0.564083 7.828641
v 17.751904 0.000002 5.723450
v 17.751902 28.025501 -1.785959
v -17.751904 28.025497 -1.785961
v -17.751902 0.000000 5.723450
v -15.436609 26.424570 0.899348
v -12.426325 28.589582 0.319233
v -17.751894 25.265642 1.209879
v -17.751904 28.266083 -0.888085
v 1.278315 0.564087 7.828642
v 10.387098 1.808639 7.495163
v 10.536127 0.313342 6.892851
vt 0.822637 0.794354
vt 0.823122 0.794347
vt 0.823102 0.794906
vt 0.822661 0.794977
vt 0.823086 0.794893
vt 0.822652 0.794962
vt 0.822628 0.794352
vt 0.823104 0.794346
vt 0.996460 0.792421
vt 0.996515 0.977203
vt 0.750326 0.976982
vt 0.750299 0.792641
vt 0.818411 0.765877
vt 0.818881 0.765811
vt 0.818896 0.765822
vt 0.818420 0.765890
vt 0.818393 0.765177
vt 0.818403 0.765180
vt 0.818897 0.765159
vt 0.818913 0.765162
vt 0.818997 0.765916
vt 0.818298 0.766029
vt 0.818331 0.765111
vt 0.818254 0.765040
vt 0.818645 0.765036
vt 0.818964 0.765741
vt 0.819029 0.765030
vt 0.819012 0.765505
vt 0.818972 0.765896
vt 0.818285 0.766005
vt 0.818992 0.765727
vt 0.819001 0.765029
vt 0.818247 0.765039
vt 0.818279 0.765535
vn 0.000000 -0.258819 0.965926
vn 0.000000 -0.258819 0.965926
vn 0.000000 -0.258819 0.965926
vn 0.000000 -0.258819 0.965926
vn 0.000000 -0.999997 0.002308
vn 0.000000 -0.999997 0.002308
vn 0.000000 -0.999997 0.002308
vn 0.000000 -0.999997 0.002308
vn 0.995747 0.056259 0.072957
vn 0.995747 0.056259 0.072957
vn 0.995747 0.056259 0.072957
vn 0.995747 0.056259 0.072957
vn 0.000000 0.243421 0.969921
vn 0.000000 0.243421 0.969921
vn 0.000000 0.243421 0.969921
vn 0.000000 0.243421 0.969921
vn -0.995747 0.056259 0.072957
vn -0.995747 0.056259 0.072957
vn -0.995747 0.056259 0.072957
vn -0.995747 0.056259 0.072957
vn 0.000000 0.258819 -0.965926
vn 0.000000 0.258819 -0.965926
vn 0.000000 0.258819 -0.965926
vn 0.000000 0.258819 -0.965926
vn 0.000000 0.258819 0.965926
vn 0.000000 0.258819 0.965926
vn 0.000000 0.258819 0.965926
vn 0.000000 0.258819 0.965926
vn -0.650654 0.196541 0.733499
vn -0.650654 0.196541 0.733499
vn -0.650654 0.196541 0.733499
vn -0.650654 0.196541 0.733499
vn 0.000001 -0.555966 0.831205
vn 0.000001 -0.555966 0.831205
vn 0.000001 -0.555966 0.831205
vn 0.000001 -0.555966 0.831205
vn 0.650645 0.196542 0.733506
vn 0.650645 0.196542 0.733506
vn 0.650645 0.196542 0.733506
vn 0.650645 0.196542 0.733506
vn 0.000001 0.897083 0.441861
vn 0.000001 0.897083 0.441861
vn 0.000001 0.897083 0.441861
vn 0.000001 0.897083 0.441861
vn -0.000007 0.258819 0.965926
vn -0.000007 0.258819 0.965926
vn -0.000007 0.258819 0.965926
vn -0.000007 0.258819 0.965926
vn -0.174211 0.564270 0.807001
vn -0.174211 0.564270 0.807001
vn -0.174211 0.564270 0.807001
vn 0.000000 0.258814 0.965927
vn 0.000000 0.258814 0.965927
vn 0.000000 0.258814 0.965927
vn 0.000000 0.258814 0.965927
vn 1.000000 0.000000 -0.000000
vn 1.000000 0.000000 -0.000000
vn 1.000000 0.000000 -0.000000
vn 1.000000 0.000000 -0.000000
vn 0.000000 -0.965926 0.258819
vn 0.000000 -0.965926 0.258819
vn 0.000000 -0.965926 0.258819
vn 0.000000 -0.258819 -0.965926
vn 0.000000 -0.258819 -0.965926
vn 0.000000 -0.258819 -0.965926
vn 0.000000 -0.258819 -0.965926
vn -0.000000 0.965926 -0.258819
vn -0.000000 0.965926 -0.258819
vn -0.000000 0.965926 -0.258819
vn -0.000000 0.965926 -0.258819
vn -0.000000 0.965926 -0.258819
vn -1.000000 0.000001 0.000004
vn -1.000000 0.000001 0.000004
vn -1.000000 0.000001 0.000004
vn -1.000000 0.000001 0.000004
vn -1.000000 0.000001 0.000004
vn -0.000007 0.258819 0.965926
vn -0.000007 0.258819 0.965926
vn -0.000007 0.258819 0.965926
vn -0.000007 0.258819 0.965926
vn -0.000007 0.258819 0.965926
vn 0.000000 0.258819 0.965926
vn 0.000000 0.258819 0.965926
vn 0.000000 0.258819 0.965926
vn 0.000000 0.258819 0.965926
vn 0.000000 0.258819 0.965926
vn -0.218436 0.524259 0.823066
vn -0.218436 0.524259 0.823066
vn -0.218436 0.524259 0.823066
vn 0.083831 -0.365117 0.927179
vn 0.083831 -0.365117 0.927179
vn 0.083831 -0.365117 0.927179
vn -0.000000 -0.965926 0.258819
vn -0.000000 -0.965926 0.258819
vn -0.000000 -0.965926 0.258819
vn -0.105913 -0.380595 0.918657
vn -0.105913 -0.380595 0.918657
vn -0.105913 -0.380595 0.918657
vn 0.000000 0.258826 0.965924
vn 0.000000 0.258826 0.965924
vn 0.000000 0.258826 0.965924
vn 0.000001 0.258824 0.965925
vn 0.000001 0.258824 0.965925
vn 0.000001 0.258824 0.965925
vn 0.000000 -0.965926 0.258819
vn 0.000000 -0.965926 0.258819
vn 0.000000 -0.965926 0.258819
vn 0.000000 -0.965926 0.258819
s off
f 3/1/1 4/2/2 1/3/3 2/4/4
f 2/4/5 1/3/6 5/5/7 6/6/8
f 3/1/9 2/4/10 6/6/11 7/7/12
f 4/2/13 3/1/14 7/7/15 8/8/16
f 1/3/17 4/2/18 8/8/19 5/5/20
f 6/6/21 5/5/22 8/8/23 7/7/24
f 10/9/25 12/10/26 11/11/27 9/12/28
f 12/13/29 10/14/30 13/15/31 14/16/32
f 11/17/33 12/13/34 14/16/35 15/18/36
f 9/19/37 11/17/38 15/18/39 16/20/40
f 10/14/41 9/19/42 16/20/43 13/15/44
f 14/16/45 13/15/46 17/21/47 18/22/48
f 24/23/49 27/24/50 26/25/51
f 29/26/52 16/20/53 19/27/54 28/28/55
f 18/22/56 17/21/57 20/29/58 21/30/59
f 20/29/60 30/31/61 23/32/62
f 21/30/63 20/29/64 23/32/65 22/33/66
f 27/24/67 25/34/68 18/22/69 21/30/70 22/33/71
f 19/27/72 26/25/73 27/24/74 22/33/75 23/32/76
f 16/20/77 15/18/78 24/23/79 26/25/80 19/27/81
f 15/18/82 14/16/83 18/22/84 25/34/85 24/23/86
f 25/34/87 27/24/88 24/23/89
f 30/31/90 29/26/91 28/28/92
f 17/21/93 30/31/94 20/29/95
f 17/21/96 29/26/97 30/31/98
f 13/15/99 29/26/100 17/21/101
f 13/15/102 16/20/103 29/26/104
f 23/32/105 30/31/106 28/28/107 19/27/108
