# This file uses centimeters as units for non-parametric coordinates.

v -19.116619 39.479820 -37.149094
v -47.535614 39.478394 -32.953079
v -59.755749 39.477482 11.345693
v -43.856644 39.478569 32.509785
v -63.802368 39.477482 -13.037687
v -19.844791 39.479820 37.082191
v 0.110263 39.479622 0.000000
v 19.007584 39.479820 37.149094
v 45.240967 39.478394 33.171711
v 61.927902 39.477482 -12.294198
v 42.906250 39.478569 -32.021271
v 64.495682 39.477482 13.024679
v 21.070667 39.479820 -37.670506
vt 0.308395 0.420385
vt 0.308395 0.420385
vt 0.308395 0.420385
vt 0.308395 0.420385
vt 0.308395 0.420385
vt 0.308395 0.420385
vt 0.308395 0.420385
vt 0.308395 0.420385
vt 0.308395 0.420385
vt 0.308395 0.420385
vt 0.308395 0.420385
vt 0.308395 0.420385
vt 0.308395 0.420385
vn -0.000046 1.000000 0.000029
vn -0.000046 1.000000 0.000029
vn -0.000046 1.000000 0.000029
vn -0.000040 1.000000 -0.000021
vn -0.000040 1.000000 -0.000021
vn -0.000040 1.000000 -0.000021
vn -0.000035 1.000000 0.000006
vn -0.000035 1.000000 0.000006
vn -0.000035 1.000000 0.000006
vn -0.000037 1.000000 0.000016
vn -0.000037 1.000000 0.000016
vn -0.000037 1.000000 0.000016
vn -0.000046 1.000000 -0.000030
vn -0.000046 1.000000 -0.000030
vn -0.000046 1.000000 -0.000030
vn 0.000050 1.000000 -0.000031
vn 0.000050 1.000000 -0.000031
vn 0.000050 1.000000 -0.000031
vn 0.000038 1.000000 0.000018
vn 0.000038 1.000000 0.000018
vn 0.000038 1.000000 0.000018
vn 0.000034 1.000000 -0.000004
vn 0.000034 1.000000 -0.000004
vn 0.000034 1.000000 -0.000004
vn 0.000036 1.000000 -0.000011
vn 0.000036 1.000000 -0.000011
vn 0.000036 1.000000 -0.000011
vn 0.000049 1.000000 0.000032
vn 0.000049 1.000000 0.000032
vn 0.000049 1.000000 0.000032
vn 0.000000 1.000000 0.000005
vn 0.000000 1.000000 0.000005
vn 0.000000 1.000000 0.000005
vn 0.000000 1.000000 -0.000005
vn 0.000000 1.000000 -0.000005
vn 0.000000 1.000000 -0.000005
s off
f 7/7/1 1/1/2 2/2/3
f 7/7/4 3/3/5 4/4/6
f 7/7/7 5/5/8 3/3/9
f 7/7/10 2/2/11 5/5/12
f 7/7/13 4/4/14 6/6/15
f 7/7/16 8/9/17 9/8/18
f 7/7/19 10/11/20 11/10/21
f 7/7/22 12/12/23 10/11/24
f 7/7/25 9/8/26 12/12/27
f 7/7/28 11/10/29 13/13/30
f 1/1/31 7/7/32 13/13/33
f 7/7/34 6/6/35 8/9/36
