# This file uses centimeters as units for non-parametric coordinates.

v 34.153061 -11.060143 20.603535
v 103.669128 -11.060143 17.601612
v 37.419041 11.060143 20.462498
v 103.669144 5.768288 17.601612
v 24.684759 11.060143 -17.263985
v 102.019318 11.060143 -20.603535
v 24.684759 -11.060143 -17.263985
v 102.019318 -11.060143 -20.603535
v -103.669128 -11.060143 19.289188
v 22.673731 -11.060143 19.289188
v -103.669128 6.144066 19.289188
v 18.170874 11.060143 15.304551
v -103.669128 11.060143 -18.951565
v 22.673733 11.060143 -13.594740
v -103.669128 -11.060143 -18.951565
v 22.673731 -11.060143 -18.951565
v -1.896923 11.060143 19.289188
v 22.673731 11.060143 6.798191
v 22.673731 5.489723 19.289188
v 25.689579 11.060143 6.004783
v 25.879625 -11.060143 10.405712
v 87.394196 11.060143 18.304413
v 103.222763 11.060143 7.264827
v -103.669144 11.060143 12.790900
v -85.333542 11.060143 19.289188
v -73.093155 -11.060143 19.289188
v -55.849457 -5.944999 19.289188
v -38.191944 -11.060143 19.289188
v -55.448681 -11.060143 14.560799
v 9.488087 11.060143 -18.951565
v 22.673733 1.080932 -18.951565
vt 0.458564 0.180743
vt 0.457707 0.181119
vt 0.457695 0.181066
vt 0.458548 0.180687
vt 0.457614 0.180916
vt 0.458523 0.180528
vt 0.457629 0.180978
vt 0.458521 0.180595
vt 0.458609 0.206019
vt 0.457707 0.206415
vt 0.457705 0.206340
vt 0.458613 0.205961
vt 0.457619 0.206222
vt 0.458523 0.205824
vt 0.457629 0.206274
vt 0.458521 0.205891
vt 0.457872 0.206277
vt 0.457667 0.206308
vt 0.457696 0.206370
vt 0.458578 0.180607
vt 0.458585 0.180688
vt 0.457887 0.180974
vt 0.457671 0.181020
vt 0.458598 0.205932
vt 0.458480 0.206012
vt 0.458391 0.206115
vt 0.458266 0.206162
vt 0.458142 0.206224
vt 0.458255 0.206153
vt 0.457709 0.206171
vt 0.457621 0.206240
vn -0.043143 0.000000 -0.999069
vn -0.043143 0.000000 -0.999069
vn -0.043143 0.000000 -0.999069
vn -0.043143 0.000000 -0.999069
vn 0.000000 -1.000000 -0.000000
vn 0.000000 -1.000000 -0.000000
vn 0.000000 -1.000000 -0.000000
vn 0.000000 -1.000000 -0.000000
vn 0.000000 -1.000000 -0.000000
vn 0.999069 -0.000000 -0.043143
vn 0.999069 -0.000000 -0.043143
vn 0.999069 -0.000000 -0.043143
vn 0.999069 -0.000000 -0.043143
vn 0.999069 -0.000000 -0.043143
vn -0.999069 0.000000 0.043143
vn -0.999069 0.000000 0.043143
vn -0.999069 0.000000 0.043143
vn -0.999069 0.000000 0.043143
vn -0.000000 0.000000 1.000000
vn -0.000000 0.000000 1.000000
vn -0.000000 0.000000 1.000000
vn -0.000000 0.000000 1.000000
vn -0.000000 0.000000 1.000000
vn 0.000000 1.000000 0.000000
vn 0.000000 1.000000 0.000000
vn 0.000000 1.000000 0.000000
vn 0.000000 1.000000 0.000000
vn 0.000000 1.000000 0.000000
vn 0.000000 1.000000 0.000000
vn 0.000000 1.000000 0.000000
vn 0.000000 1.000000 0.000000
vn 0.000000 0.000000 -1.000000
vn 0.000000 0.000000 -1.000000
vn 0.000000 0.000000 -1.000000
vn 0.000000 0.000000 -1.000000
vn 0.000000 0.000000 -1.000000
vn 0.000000 -1.000000 0.000000
vn 0.000000 -1.000000 0.000000
vn 0.000000 -1.000000 0.000000
vn 0.000000 -1.000000 0.000000
vn 1.000000 -0.000000 0.000000
vn 1.000000 -0.000000 0.000000
vn 1.000000 -0.000000 0.000000
vn 1.000000 -0.000000 0.000000
vn 1.000000 -0.000000 0.000000
vn 1.000000 -0.000000 0.000000
vn -1.000000 -0.000001 -0.000000
vn -1.000000 -0.000001 -0.000000
vn -1.000000 -0.000001 -0.000000
vn -1.000000 -0.000001 -0.000000
vn -1.000000 -0.000001 -0.000000
vn 0.609801 0.723839 0.322799
vn 0.609801 0.723839 0.322800
vn 0.609801 0.723839 0.322799
vn 0.147731 0.651627 0.744015
vn 0.147731 0.651627 0.744015
vn 0.147731 0.651627 0.744015
vn 0.043143 0.000000 0.999069
vn 0.043143 0.000000 0.999069
vn 0.043143 0.000000 0.999069
vn 0.043143 0.000000 0.999069
vn 0.043143 0.000000 0.999069
vn 0.000000 1.000000 -0.000000
vn 0.000000 1.000000 -0.000000
vn 0.000000 1.000000 -0.000000
vn 0.000000 1.000000 -0.000000
vn 0.000000 1.000000 -0.000000
vn 0.000000 1.000000 -0.000000
vn -0.771161 0.117848 0.625638
vn -0.771161 0.117848 0.625638
vn -0.771161 0.117848 0.625638
vn -0.771161 0.117848 0.625638
vn 0.296444 0.855255 0.425041
vn 0.296444 0.855255 0.425041
vn 0.296444 0.855255 0.425041
vn -0.209096 0.779869 0.589986
vn -0.209096 0.779869 0.589986
vn -0.209096 0.779869 0.589986
vn 0.195034 -0.657482 0.727791
vn 0.195034 -0.657482 0.727791
vn 0.195034 -0.657482 0.727791
vn -0.195232 -0.673943 0.712520
vn -0.195232 -0.673943 0.712520
vn -0.195232 -0.673943 0.712520
vn 0.337010 0.445296 -0.829540
vn 0.337010 0.445296 -0.829540
vn 0.337010 0.445295 -0.829540
vn 0.000000 0.000000 1.000000
vn 0.000000 0.000000 1.000000
vn 0.000000 0.000000 1.000000
vn 0.000000 0.000000 1.000000
vn 0.000000 0.000000 1.000000
vn 0.000000 0.000000 1.000000
vn 0.000000 0.000000 1.000000
vn 0.000000 0.000000 1.000000
vn 0.000000 -1.000000 0.000000
vn 0.000000 -1.000000 0.000000
vn 0.000000 -1.000000 0.000000
vn 0.000000 -1.000000 0.000000
vn 0.000000 -1.000000 -0.000000
vn 0.000000 -1.000000 -0.000000
vn 0.000000 -1.000000 -0.000000
s off
f 5/6/1 6/5/2 8/7/3 7/8/4
f 7/8/5 8/7/6 2/2/7 1/1/8 21/21/9
f 2/2/10 8/7/11 6/5/12 23/23/13 4/3/14
f 7/8/15 21/21/16 20/20/17 5/6/18
f 11/12/19 27/27/20 19/19/21 17/17/22 25/25/23
f 24/24/24 25/25/25 17/17/26 12/11/27 18/18/28 14/13/29 30/30/30 13/14/31
f 13/14/32 30/30/33 31/31/34 16/15/35 15/16/36
f 15/16/37 29/29/38 26/26/39 9/9/40
f 10/10/41 16/15/42 31/31/43 14/13/44 18/18/45 19/19/46
f 15/16/47 9/9/48 11/12/49 24/24/50 13/14/51
f 19/19/52 18/18/53 12/11/54
f 17/17/55 19/19/56 12/11/57
f 3/4/58 1/1/59 2/2/60 4/3/61 22/22/62
f 20/20/63 3/4/64 22/22/65 23/23/66 6/5/67 5/6/68
f 20/20/69 21/21/70 1/1/71 3/4/72
f 23/23/73 22/22/74 4/3/75
f 11/12/76 25/25/77 24/24/78
f 26/26/79 29/29/80 27/27/81
f 27/27/82 29/29/83 28/28/84
f 31/31/85 30/30/86 14/13/87
f 9/9/88 26/26/89 27/27/90 11/12/91
f 19/19/92 27/27/93 28/28/94 10/10/95
f 29/29/96 16/15/97 10/10/98 28/28/99
f 15/16/100 16/15/101 29/29/102
