# This file uses centimeters as units for non-parametric coordinates.

v -3.804626 -2.576962 154.301392
v 3.755798 -2.576962 154.301392
v -3.804626 4.983578 154.301392
v 3.755798 4.983578 154.301392
v -6.530762 7.709751 -8.296661
v 6.481934 7.709751 -8.296661
v -6.530762 -5.303135 11.243362
v 6.481934 -5.303135 11.243362
v -6.530762 -5.303135 64.957047
v -6.530762 7.709751 64.957047
v 6.481934 7.709751 64.957047
v 6.481934 -5.303135 64.957047
v -8.017883 -2.718868 142.718475
v -8.017883 5.125484 142.718475
v 7.969055 5.125484 142.718475
v 7.969055 -2.718868 142.718475
v 3.897705 5.125484 136.147995
v -3.946686 5.125484 136.147995
v -3.946533 -2.718868 136.147995
v 3.897705 -2.718868 136.147995
v 3.897400 5.125484 76.239395
v -3.946686 5.125484 76.239395
v -3.946686 -2.718868 76.239395
v 3.897400 -2.718868 76.239395
v 3.310242 -1.853867 110.233536
v 3.310242 -2.401009 94.328232
v 3.310242 -26.094019 65.417557
v 3.310242 -18.750879 97.073669
v 3.310242 -33.263397 108.597031
v 3.310242 -25.765608 121.191483
v 3.310242 -11.321812 121.705246
v -3.350067 -1.853867 110.233536
v -3.350067 -2.401009 94.328232
v -3.350067 -26.094019 65.417557
v -3.350067 -18.750879 97.073669
v -3.350067 -33.263397 108.597031
v -3.350067 -25.765608 121.191483
v -3.350067 -11.321812 121.705246
v 3.310242 -8.684004 107.625885
v 3.310242 -8.804132 97.274246
v 3.310242 -29.442387 71.191711
v 3.310242 -19.416807 101.015091
v 3.310242 -26.865046 106.277313
v 3.310242 -23.373793 114.449310
v 3.310242 -14.572489 114.912949
v -3.350067 -8.684004 107.625885
v -3.350067 -8.804132 97.274246
v -3.350067 -29.442387 71.191711
v -3.350067 -19.416807 101.015091
v -3.350067 -26.865046 106.277313
v -3.350067 -23.373793 114.449310
v -3.350067 -14.572489 114.912949
v 3.310242 -25.137959 102.108383
v -3.350067 -25.137959 102.108383
v -3.350067 -28.253859 97.663803
v 3.310242 -28.253859 97.663803
v 3.310242 -48.583260 22.047424
v 3.310242 -47.016735 37.953033
v 3.310242 -34.144363 34.685211
v 3.310242 -18.478815 20.796051
v 3.310242 -26.845112 10.971909
v 3.310242 -39.054184 10.580368
v -3.350067 -48.583260 22.047424
v -3.350067 -47.016735 37.953033
v -3.350067 -34.144363 34.685211
v -3.350067 -18.478815 20.796051
v -3.350067 -26.845112 10.971909
v -3.350067 -39.054184 10.580368
v 3.310242 -41.752869 24.653969
v 3.310242 -40.615250 35.005379
v 3.310242 -33.478737 30.743103
v 3.310242 -24.876596 23.116417
v 3.310242 -29.392643 17.696686
v 3.310242 -35.959988 17.352371
v -3.350067 -41.752869 24.653969
v -3.350067 -40.615250 35.005379
v -3.350067 -33.478737 30.743103
v -3.350067 -24.876596 23.116417
v -3.350067 -29.392643 17.696686
v -3.350067 -35.959988 17.352371
v 3.310242 -26.900349 29.715729
v -3.350067 -26.900349 29.715729
v -3.350067 -23.784122 34.160919
v 3.310242 -23.784122 34.160919
v 6.481934 -48.164024 -8.296661
v -6.530762 -48.164024 -8.296661
v 6.481934 -48.164001 11.243362
v -6.530762 -48.164001 11.243362
v 6.481934 -55.843826 -3.095474
v -6.530762 -55.843826 -3.095474
v 6.481934 -55.843792 6.042175
v -6.530762 -55.843792 6.042175
vt 0.090816 0.227219
vt 0.090812 0.227227
vt 0.090815 0.227185
vt 0.090819 0.227178
vt 0.090047 0.227122
vt 0.090019 0.227131
vt 0.089819 0.227120
vt 0.089851 0.227112
vt 0.089855 0.227173
vt 0.089823 0.227184
vt 0.090021 0.227196
vt 0.090049 0.227185
vt 0.090717 0.227172
vt 0.090714 0.227214
vt 0.090741 0.227224
vt 0.090744 0.227161
vt 0.090737 0.227171
vt 0.090711 0.227179
vt 0.090733 0.227235
vt 0.090709 0.227222
vt 0.090077 0.227145
vt 0.090093 0.227139
vt 0.090094 0.227178
vt 0.090078 0.227184
vt 0.090504 0.227212
vt 0.090426 0.227195
vt 0.090434 0.227189
vt 0.090511 0.227206
vt 0.090329 0.227237
vt 0.090338 0.227231
vt 0.090420 0.227315
vt 0.090411 0.227322
vt 0.090455 0.227360
vt 0.090463 0.227352
vt 0.090523 0.227340
vt 0.090530 0.227332
vt 0.090546 0.227274
vt 0.090552 0.227267
vt 0.090487 0.227233
vt 0.090430 0.227221
vt 0.090346 0.227253
vt 0.090428 0.227317
vt 0.090451 0.227335
vt 0.090500 0.227325
vt 0.090517 0.227278
vt 0.090439 0.227215
vt 0.090494 0.227227
vt 0.090356 0.227246
vt 0.090436 0.227310
vt 0.090459 0.227328
vt 0.090507 0.227317
vt 0.090524 0.227271
vt 0.090430 0.227278
vt 0.090443 0.227286
vt 0.090435 0.227293
vt 0.090422 0.227285
vt 0.090013 0.227406
vt 0.090080 0.227423
vt 0.090092 0.227415
vt 0.090026 0.227398
vt 0.090103 0.227311
vt 0.090091 0.227318
vt 0.090050 0.227282
vt 0.090063 0.227276
vt 0.089992 0.227302
vt 0.090006 0.227295
vt 0.089975 0.227350
vt 0.089989 0.227343
vt 0.090026 0.227388
vt 0.090075 0.227400
vt 0.090076 0.227323
vt 0.090055 0.227306
vt 0.090013 0.227316
vt 0.089998 0.227347
vt 0.090088 0.227392
vt 0.090039 0.227380
vt 0.090088 0.227316
vt 0.090068 0.227299
vt 0.090026 0.227309
vt 0.090012 0.227339
vt 0.090095 0.227346
vt 0.090084 0.227338
vt 0.090071 0.227345
vt 0.090083 0.227353
vt 0.089851 0.227112
vt 0.089819 0.227120
vt 0.089823 0.227184
vt 0.089855 0.227173
vt 0.089819 0.227120
vt 0.089851 0.227112
vt 0.089823 0.227184
vt 0.089855 0.227173
vn 0.000000 0.000000 1.000000
vn 0.000000 0.000000 1.000000
vn 0.000000 0.000000 1.000000
vn 0.000000 0.000000 1.000000
vn 0.000000 1.000000 0.000000
vn 0.000000 1.000000 0.000000
vn 0.000000 1.000000 0.000000
vn 0.000000 1.000000 0.000000
vn 0.000000 -1.000000 0.000000
vn 0.000000 -1.000000 0.000000
vn 0.000000 -1.000000 0.000000
vn 0.000000 -1.000000 0.000000
vn 1.000000 -0.000000 0.000000
vn 1.000000 -0.000000 0.000000
vn 1.000000 -0.000000 0.000000
vn 1.000000 -0.000000 0.000000
vn -1.000000 0.000000 0.000000
vn -1.000000 0.000000 0.000000
vn -1.000000 0.000000 0.000000
vn -1.000000 0.000000 0.000000
vn -0.850043 -0.000008 -0.526713
vn -0.850043 -0.000008 -0.526713
vn -0.850043 -0.000008 -0.526713
vn -0.850043 -0.000008 -0.526713
vn 0.000000 1.000000 0.000000
vn 0.000000 1.000000 0.000000
vn 0.000000 1.000000 0.000000
vn 0.000000 1.000000 0.000000
vn 0.850039 0.000000 -0.526720
vn 0.850039 0.000000 -0.526720
vn 0.850039 0.000000 -0.526720
vn 0.850039 0.000000 -0.526720
vn 0.000000 -1.000000 -0.000000
vn 0.000000 -1.000000 -0.000000
vn 0.000000 -1.000000 -0.000000
vn 0.000000 -1.000000 -0.000000
vn -0.939760 0.000000 0.341835
vn -0.939760 0.000000 0.341835
vn -0.939760 0.000000 0.341835
vn -0.939760 0.000000 0.341835
vn 0.000000 0.999925 0.012250
vn 0.000000 0.999925 0.012250
vn 0.000000 0.999925 0.012250
vn 0.000000 0.999925 0.012250
vn 0.939760 0.000000 0.341835
vn 0.939760 0.000000 0.341835
vn 0.939760 0.000000 0.341835
vn 0.939760 0.000000 0.341835
vn 0.000000 -0.999925 0.012250
vn 0.000000 -0.999925 0.012250
vn 0.000000 -0.999925 0.012250
vn 0.000000 -0.999925 0.012250
vn 0.000000 1.000000 0.000000
vn 0.000000 1.000000 0.000000
vn 0.000000 1.000000 0.000000
vn 0.000000 1.000000 0.000000
vn -1.000000 -0.000010 0.000001
vn -1.000000 -0.000010 0.000001
vn -1.000000 -0.000010 0.000001
vn -1.000000 -0.000010 0.000001
vn 0.000000 -1.000000 0.000000
vn 0.000000 -1.000000 0.000000
vn 0.000000 -1.000000 0.000000
vn 0.000000 -1.000000 0.000000
vn 1.000000 0.000000 -0.000005
vn 1.000000 0.000000 -0.000005
vn 1.000000 0.000000 -0.000005
vn 1.000000 0.000000 -0.000005
vn 0.000000 0.974756 0.223272
vn 0.000000 0.974756 0.223272
vn 0.000000 0.974756 0.223272
vn 0.000000 0.974756 0.223272
vn -0.974760 0.000000 0.223256
vn -0.974760 0.000000 0.223256
vn -0.974760 0.000000 0.223256
vn -0.974760 0.000000 0.223256
vn 0.000000 -0.974756 0.223272
vn 0.000000 -0.974756 0.223272
vn 0.000000 -0.974756 0.223272
vn 0.000000 -0.974756 0.223272
vn 0.974751 0.000000 0.223294
vn 0.974751 0.000000 0.223294
vn 0.974751 0.000000 0.223294
vn 0.974751 0.000000 0.223294
vn 0.000000 0.999409 -0.034380
vn 0.000000 0.999409 -0.034380
vn 0.000000 0.999409 -0.034380
vn 0.000000 0.999409 -0.034380
vn 0.000000 0.773448 -0.633860
vn 0.000000 0.773448 -0.633860
vn 0.000000 0.773448 -0.633860
vn 0.000000 0.773448 -0.633860
vn 0.000000 -0.909113 -0.416550
vn 0.000000 -0.909113 -0.416550
vn 0.000000 -0.909113 -0.416550
vn 0.000000 -0.909113 -0.416550
vn 0.000000 -0.859260 0.511539
vn 0.000000 -0.859260 0.511539
vn 0.000000 -0.859260 0.511539
vn 0.000000 -0.859260 0.511539
vn 0.000000 -0.035547 0.999368
vn 0.000000 -0.035547 0.999368
vn 0.000000 -0.035547 0.999368
vn 0.000000 -0.035547 0.999368
vn 0.000000 0.771248 0.636534
vn 0.000000 0.771248 0.636534
vn 0.000000 0.771248 0.636534
vn 0.000000 0.771248 0.636534
vn 1.000000 -0.000000 0.000000
vn 1.000000 -0.000000 0.000000
vn 1.000000 -0.000000 0.000000
vn 1.000000 -0.000000 0.000000
vn 1.000000 -0.000000 0.000000
vn 1.000000 -0.000000 0.000000
vn 1.000000 -0.000000 0.000000
vn 1.000000 -0.000000 0.000000
vn 1.000000 0.000000 0.000000
vn 1.000000 0.000000 0.000000
vn 1.000000 0.000000 0.000000
vn 1.000000 0.000000 0.000000
vn 1.000000 0.000000 0.000000
vn 1.000000 0.000000 0.000000
vn 1.000000 0.000000 0.000000
vn 1.000000 0.000000 0.000000
vn 1.000000 0.000000 0.000000
vn 1.000000 0.000000 0.000000
vn 1.000000 0.000000 0.000000
vn 1.000000 0.000000 0.000000
vn 1.000000 0.000000 0.000000
vn 1.000000 0.000000 0.000000
vn 1.000000 0.000000 0.000000
vn 1.000000 0.000000 0.000000
vn -1.000000 0.000000 0.000000
vn -1.000000 0.000000 0.000000
vn -1.000000 0.000000 0.000000
vn -1.000000 0.000000 0.000000
vn -1.000000 0.000000 0.000000
vn -1.000000 0.000000 0.000000
vn -1.000000 0.000000 0.000000
vn -1.000000 0.000000 0.000000
vn -1.000000 -0.000000 0.000000
vn -1.000000 -0.000000 0.000000
vn -1.000000 -0.000000 0.000000
vn -1.000000 -0.000000 0.000000
vn -1.000000 0.000000 0.000000
vn -1.000000 0.000000 0.000000
vn -1.000000 0.000000 0.000000
vn -1.000000 0.000000 0.000000
vn -1.000000 0.000000 0.000000
vn -1.000000 0.000000 0.000000
vn -1.000000 0.000000 0.000000
vn -1.000000 0.000000 0.000000
vn -1.000000 0.000000 0.000000
vn -1.000000 0.000000 0.000000
vn -1.000000 0.000000 0.000000
vn -1.000000 0.000000 0.000000
vn 0.000000 -0.999933 0.011604
vn 0.000000 -0.999933 0.011604
vn 0.000000 -0.999933 0.011604
vn 0.000000 -0.999933 0.011604
vn 0.000000 -0.784198 0.620510
vn 0.000000 -0.784198 0.620510
vn 0.000000 -0.784198 0.620510
vn 0.000000 -0.784198 0.620510
vn 0.000000 0.923859 0.382732
vn 0.000000 0.923859 0.382732
vn 0.000000 0.923859 0.382732
vn 0.000000 0.923859 0.382732
vn 0.000000 0.919594 -0.392870
vn 0.000000 0.919594 -0.392870
vn 0.000000 0.919594 -0.392870
vn 0.000000 0.919594 -0.392870
vn 0.000000 0.052605 -0.998615
vn 0.000000 0.052605 -0.998615
vn 0.000000 0.052605 -0.998615
vn 0.000000 0.052605 -0.998615
vn 0.000000 -0.777796 -0.628517
vn 0.000000 -0.777796 -0.628517
vn 0.000000 -0.777796 -0.628517
vn 0.000000 -0.777796 -0.628517
vn 0.000000 0.986025 0.166595
vn 0.000000 0.986025 0.166595
vn 0.000000 0.986025 0.166595
vn 0.000000 0.986025 0.166595
vn 0.000000 0.187700 0.982226
vn 0.000000 0.187700 0.982226
vn 0.000000 0.187700 0.982226
vn 0.000000 0.187700 0.982226
vn -1.000000 0.000000 0.000000
vn -1.000000 0.000000 0.000000
vn -1.000000 0.000000 0.000000
vn -1.000000 0.000000 0.000000
vn 0.000000 -0.061980 -0.998077
vn 0.000000 -0.061980 -0.998077
vn 0.000000 -0.061980 -0.998077
vn 0.000000 -0.061980 -0.998077
vn 1.000000 -0.000000 0.000000
vn 1.000000 -0.000000 0.000000
vn 1.000000 -0.000000 0.000000
vn 1.000000 -0.000000 0.000000
vn 0.000000 -0.995185 0.098015
vn 0.000000 -0.995185 0.098015
vn 0.000000 -0.995185 0.098015
vn 0.000000 -0.995185 0.098015
vn 0.000000 0.929448 0.368953
vn 0.000000 0.929448 0.368953
vn 0.000000 0.929448 0.368953
vn 0.000000 0.929448 0.368953
vn 0.000000 0.761336 -0.648358
vn 0.000000 0.761336 -0.648358
vn 0.000000 0.761336 -0.648358
vn 0.000000 0.761336 -0.648358
vn 0.000000 0.032053 -0.999486
vn 0.000000 0.032053 -0.999486
vn 0.000000 0.032053 -0.999486
vn 0.000000 0.032053 -0.999486
vn 0.000000 -0.769105 -0.639123
vn 0.000000 -0.769105 -0.639123
vn 0.000000 -0.769105 -0.639123
vn 0.000000 -0.769105 -0.639123
vn 1.000000 0.000000 0.000000
vn 1.000000 0.000000 0.000000
vn 1.000000 0.000000 0.000000
vn 1.000000 0.000000 0.000000
vn 1.000000 0.000000 0.000000
vn 1.000000 0.000000 0.000000
vn 1.000000 0.000000 0.000000
vn 1.000000 0.000000 0.000000
vn 1.000000 -0.000000 0.000000
vn 1.000000 -0.000000 0.000000
vn 1.000000 -0.000000 0.000000
vn 1.000000 -0.000000 0.000000
vn 1.000000 0.000000 0.000000
vn 1.000000 0.000000 0.000000
vn 1.000000 0.000000 0.000000
vn 1.000000 0.000000 0.000000
vn 1.000000 0.000000 0.000000
vn 1.000000 0.000000 0.000000
vn 1.000000 0.000000 0.000000
vn 1.000000 0.000000 0.000000
vn -1.000000 0.000000 0.000000
vn -1.000000 0.000000 0.000000
vn -1.000000 0.000000 0.000000
vn -1.000000 0.000000 0.000000
vn -1.000000 0.000000 0.000000
vn -1.000000 0.000000 0.000000
vn -1.000000 0.000000 0.000000
vn -1.000000 0.000000 0.000000
vn -1.000000 0.000000 0.000000
vn -1.000000 0.000000 0.000000
vn -1.000000 0.000000 0.000000
vn -1.000000 0.000000 0.000000
vn -1.000000 -0.000000 0.000000
vn -1.000000 -0.000000 0.000000
vn -1.000000 -0.000000 0.000000
vn -1.000000 -0.000000 0.000000
vn -1.000000 0.000000 0.000000
vn -1.000000 0.000000 0.000000
vn -1.000000 0.000000 0.000000
vn -1.000000 0.000000 0.000000
vn 0.000000 0.994015 -0.109242
vn 0.000000 0.994015 -0.109242
vn 0.000000 0.994015 -0.109242
vn 0.000000 0.994015 -0.109242
vn 0.000000 -0.956056 -0.293185
vn 0.000000 -0.956056 -0.293185
vn 0.000000 -0.956056 -0.293185
vn 0.000000 -0.956056 -0.293185
vn 0.000000 -0.768249 0.640151
vn 0.000000 -0.768249 0.640151
vn 0.000000 -0.768249 0.640151
vn 0.000000 -0.768249 0.640151
vn 0.000000 -0.052356 0.998628
vn 0.000000 -0.052356 0.998628
vn 0.000000 -0.052356 0.998628
vn 0.000000 -0.052356 0.998628
vn 0.000000 0.783395 0.621524
vn 0.000000 0.783395 0.621524
vn 0.000000 0.783395 0.621524
vn 0.000000 0.783395 0.621524
vn 0.000000 -0.986043 -0.166494
vn 0.000000 -0.986043 -0.166494
vn 0.000000 -0.986043 -0.166494
vn 0.000000 -0.986043 -0.166494
vn 0.000000 -0.154304 -0.988023
vn 0.000000 -0.154304 -0.988023
vn 0.000000 -0.154304 -0.988023
vn 0.000000 -0.154304 -0.988023
vn -1.000000 0.000000 0.000000
vn -1.000000 0.000000 0.000000
vn -1.000000 0.000000 0.000000
vn -1.000000 0.000000 0.000000
vn 0.000000 0.050541 0.998722
vn 0.000000 0.050541 0.998722
vn 0.000000 0.050541 0.998722
vn 0.000000 0.050541 0.998722
vn 1.000000 0.000000 0.000000
vn 1.000000 0.000000 0.000000
vn 1.000000 0.000000 0.000000
vn 1.000000 0.000000 0.000000
vn -1.000000 0.000000 0.000000
vn -1.000000 0.000000 0.000000
vn -1.000000 0.000000 0.000000
vn -1.000000 0.000000 0.000000
vn 0.000000 0.902408 -0.430883
vn 0.000000 0.902408 -0.430883
vn 0.000000 0.902408 -0.430883
vn 0.000000 0.902408 -0.430883
vn 1.000000 0.000000 0.000000
vn 1.000000 0.000000 0.000000
vn 1.000000 0.000000 0.000000
vn 1.000000 0.000000 0.000000
vn 0.000000 -0.884036 0.467418
vn 0.000000 -0.884036 0.467418
vn 0.000000 -0.884036 0.467418
vn 0.000000 -0.884036 0.467418
vn 0.000000 -1.000000 0.000004
vn 0.000000 -1.000000 0.000004
vn 0.000000 -1.000000 0.000004
vn 0.000000 -1.000000 0.000004
vn 0.000000 0.000000 -1.000000
vn 0.000000 0.000000 -1.000000
vn 0.000000 0.000000 -1.000000
vn 0.000000 0.000000 -1.000000
vn 1.000000 0.000000 0.000000
vn 1.000000 0.000000 0.000000
vn 1.000000 0.000000 0.000000
vn 1.000000 0.000000 0.000000
vn 0.000000 0.000000 1.000000
vn 0.000000 0.000000 1.000000
vn 0.000000 0.000000 1.000000
vn 0.000000 0.000000 1.000000
vn -1.000000 0.000000 0.000000
vn -1.000000 0.000000 0.000000
vn -1.000000 0.000000 0.000000
vn -1.000000 0.000000 0.000000
vn 0.000000 -0.560755 -0.827982
vn 0.000000 -0.560755 -0.827982
vn 0.000000 -0.560755 -0.827982
vn 0.000000 -0.560755 -0.827982
vn 1.000000 -0.000000 0.000000
vn 1.000000 -0.000000 0.000000
vn 1.000000 -0.000000 0.000000
vn 1.000000 -0.000000 0.000000
vn 0.000000 -0.560756 0.827981
vn 0.000000 -0.560756 0.827981
vn 0.000000 -0.560756 0.827981
vn 0.000000 -0.560756 0.827981
vn -1.000000 0.000000 0.000000
vn -1.000000 0.000000 0.000000
vn -1.000000 0.000000 0.000000
vn -1.000000 0.000000 0.000000
s off
f 1/1/1 2/2/2 4/3/3 3/4/4
f 10/5/5 11/6/6 6/7/7 5/8/8
f 7/9/9 8/10/10 12/11/11 9/12/12
f 11/6/13 12/11/14 8/10/15 6/7/16
f 7/9/17 9/12/18 10/5/19 5/8/20
f 18/13/21 19/14/22 13/15/23 14/16/24
f 14/16/25 15/17/26 17/18/27 18/13/28
f 15/17/29 16/19/30 20/20/31 17/18/32
f 19/14/33 20/20/34 16/19/35 13/15/36
f 14/16/37 13/15/38 1/1/39 3/4/40
f 3/4/41 4/3/42 15/17/43 14/16/44
f 2/2/45 16/19/46 15/17/47 4/3/48
f 13/15/49 16/19/50 2/2/51 1/1/52
f 18/13/53 17/18/54 21/21/55 22/22/56
f 22/22/57 23/23/58 19/14/59 18/13/60
f 23/23/61 24/24/62 20/20/63 19/14/64
f 17/18/65 20/20/66 24/24/67 21/21/68
f 22/22/69 21/21/70 11/6/71 10/5/72
f 10/5/73 9/12/74 23/23/75 22/22/76
f 9/12/77 12/11/78 24/24/79 23/23/80
f 21/21/81 24/24/82 12/11/83 11/6/84
f 25/25/85 26/26/86 33/27/87 32/28/88
f 26/26/89 27/29/90 34/30/91 33/27/92
f 55/31/93 56/32/94 29/33/95 36/34/96
f 29/33/97 30/35/98 37/36/99 36/34/100
f 30/35/101 31/37/102 38/38/103 37/36/104
f 31/37/105 25/25/106 32/28/107 38/38/108
f 26/26/109 25/25/110 39/39/111 40/40/112
f 27/29/113 26/26/114 40/40/115 41/41/116
f 29/33/117 56/32/118 53/42/119 43/43/120
f 30/35/121 29/33/122 43/43/123 44/44/124
f 31/37/125 30/35/126 44/44/127 45/45/128
f 25/25/129 31/37/130 45/45/131 39/39/132
f 32/28/133 33/27/134 47/46/135 46/47/136
f 33/27/137 34/30/138 48/48/139 47/46/140
f 54/49/141 55/31/142 36/34/143 50/50/144
f 36/34/145 37/36/146 51/51/147 50/50/148
f 37/36/149 38/38/150 52/52/151 51/51/152
f 38/38/153 32/28/154 46/47/155 52/52/156
f 40/40/157 39/39/158 46/47/159 47/46/160
f 41/41/161 40/40/162 47/46/163 48/48/164
f 43/43/165 53/42/166 54/49/167 50/50/168
f 44/44/169 43/43/170 50/50/171 51/51/172
f 45/45/173 44/44/174 51/51/175 52/52/176
f 39/39/177 45/45/178 52/52/179 46/47/180
f 35/53/181 49/54/182 42/55/183 28/56/184
f 54/49/185 53/42/186 42/55/187 49/54/188
f 35/53/189 55/31/190 54/49/191 49/54/192
f 28/56/193 56/32/194 55/31/195 35/53/196
f 53/42/197 56/32/198 28/56/199 42/55/200
f 57/57/201 58/58/202 64/59/203 63/60/204
f 83/61/205 84/62/206 60/63/207 66/64/208
f 60/63/209 61/65/210 67/66/211 66/64/212
f 61/65/213 62/67/214 68/68/215 67/66/216
f 62/67/217 57/57/218 63/60/219 68/68/220
f 58/58/221 57/57/222 69/69/223 70/70/224
f 60/63/225 84/62/226 81/71/227 72/72/228
f 61/65/229 60/63/230 72/72/231 73/73/232
f 62/67/233 61/65/234 73/73/235 74/74/236
f 57/57/237 62/67/238 74/74/239 69/69/240
f 63/60/241 64/59/242 76/75/243 75/76/244
f 82/77/245 83/61/246 66/64/247 78/78/248
f 66/64/249 67/66/250 79/79/251 78/78/252
f 67/66/253 68/68/254 80/80/255 79/79/256
f 68/68/257 63/60/258 75/76/259 80/80/260
f 70/70/261 69/69/262 75/76/263 76/75/264
f 72/72/265 81/71/266 82/77/267 78/78/268
f 73/73/269 72/72/270 78/78/271 79/79/272
f 74/74/273 73/73/274 79/79/275 80/80/276
f 69/69/277 74/74/278 80/80/279 75/76/280
f 65/81/281 77/82/282 71/83/283 59/84/284
f 82/77/285 81/71/286 71/83/287 77/82/288
f 65/81/289 83/61/290 82/77/291 77/82/292
f 59/84/293 84/62/294 83/61/295 65/81/296
f 81/71/297 84/62/298 59/84/299 71/83/300
f 64/59/301 48/48/302 34/30/303 76/75/304
f 76/75/305 34/30/306 27/29/307 70/70/308
f 70/70/309 27/29/310 41/41/311 58/58/312
f 58/58/313 41/41/314 48/48/315 64/59/316
f 90/85/317 89/86/318 91/87/319 92/88/320
f 5/8/321 6/7/322 85/89/323 86/90/324
f 6/7/325 8/10/326 87/91/327 85/89/328
f 8/10/329 7/9/330 88/92/331 87/91/332
f 7/9/333 5/8/334 86/90/335 88/92/336
f 86/90/337 85/89/338 89/86/339 90/85/340
f 85/89/341 87/91/342 91/87/343 89/86/344
f 87/91/345 88/92/346 92/88/347 91/87/348
f 88/92/349 86/90/350 90/85/351 92/88/352
