# This file uses centimeters as units for non-parametric coordinates.

v -64.414185 100.150787 -93.698593
v -0.253296 100.150787 -93.698593
v -64.414185 94.725281 -93.698593
v -0.253296 94.725281 -93.698593
v -0.253296 100.150787 -83.989380
v -64.414185 100.150787 -84.960205
v -63.443359 100.150787 -83.989380
v -64.414185 96.352760 -84.960205
v -64.414185 94.725281 -87.261833
v -63.443359 96.352760 -83.989380
v -61.141754 94.725281 -83.989380
v -0.253296 94.725281 -85.947433
v -0.253296 97.138702 -83.989380
v -9.386566 94.725281 -83.989380
v -6.920410 109.512566 -8.074841
v -6.920410 107.553749 -8.876236
v -6.920410 105.880310 -7.580547
v -6.920410 106.165688 -5.483463
v -6.920410 108.124512 -4.682091
v -6.920410 109.797951 -5.977779
v -14.483734 109.512566 -8.074841
v -14.483734 107.553749 -8.876236
v -14.483734 105.880310 -7.580547
v -14.483734 106.165688 -5.483463
v -14.483734 108.124512 -4.682091
v -14.483734 109.797951 -5.977779
v -48.797516 109.512566 -8.074841
v -48.797516 107.553749 -8.876236
v -48.797516 105.880310 -7.580547
v -48.797516 106.165688 -5.483463
v -48.797516 108.124512 -4.682091
v -48.797516 109.797951 -5.977779
v -56.360840 109.512566 -8.074841
v -56.360840 107.553749 -8.876236
v -56.360840 105.880310 -7.580547
v -56.360840 106.165688 -5.483463
v -56.360840 108.124512 -4.682091
v -56.360840 109.797951 -5.977779
v -64.414185 94.725281 -3.232471
v -0.253296 94.725281 -3.232471
v -64.414185 100.150787 -3.232471
v -0.253296 100.150787 -3.232471
v -0.253296 94.725281 -12.941681
v -64.414185 94.725281 -11.970852
v -63.443359 94.725281 -12.941681
v -64.414185 98.523308 -11.970852
v -64.414185 100.150787 -9.669228
v -63.443359 98.523308 -12.941681
v -61.141754 100.150787 -12.941681
v -0.253296 100.150787 -10.983624
v -0.253296 97.737366 -12.941681
v -9.386566 100.150787 -12.941681
v -50.935089 108.545784 9.124817
v -53.373047 108.545784 8.671280
v -51.303711 109.352844 9.377811
v -53.120056 109.352844 9.039917
v -51.641602 109.352844 11.194138
v -53.457947 109.352844 10.856243
v -51.388611 108.545784 11.562773
v -53.826569 108.545784 11.109236
v -51.659271 108.545784 -2.256054
v -54.074860 108.545784 -1.695446
v -51.895752 109.352844 -1.876621
v -53.695435 109.352844 -1.458958
v -51.478088 109.352844 -0.076965
v -53.277771 109.352844 0.340702
v -51.098663 108.545784 0.159523
v -53.514252 108.545784 0.720135
v -55.984131 106.273575 16.899818
v -49.044891 106.273575 16.899818
v -55.062866 108.638016 15.526024
v -49.044891 108.638016 15.526024
v -55.984131 108.638016 -7.439995
v -49.044891 108.638016 -7.439995
v -55.984131 106.273575 -7.439995
v -49.044891 106.273575 -7.439995
v -55.258575 108.638016 0.983147
v -49.770447 108.638016 1.830772
v -55.984131 106.273575 0.544792
v -49.044891 106.273575 1.392418
v -55.258575 108.638016 9.450172
v -49.770447 108.638016 9.673393
v -55.984131 106.273575 9.453850
v -49.044891 106.273575 9.677086
v -11.434509 108.545784 11.532494
v -8.972137 108.545784 11.239113
v -11.157990 109.352844 11.181164
v -9.323456 109.352844 10.962589
v -11.376556 109.352844 9.346649
v -9.542023 109.352844 9.128078
v -11.727875 108.545784 9.070126
v -9.265503 108.545784 8.776749
v -12.024445 108.545784 -0.303013
v -9.822418 108.545784 0.837318
v -11.598328 109.352844 -0.438370
v -9.957764 109.352844 0.411198
v -10.748779 109.352844 -2.078934
v -9.108215 109.352844 -1.229359
v -10.884125 108.545784 -2.505051
v -8.682098 108.545784 -1.364716
v -14.234680 106.273575 16.899818
v -7.295441 106.273575 16.899818
v -13.313446 108.638016 15.526024
v -8.221802 108.638016 15.403221
v -13.830597 108.638016 -7.439995
v -7.564789 108.638016 -7.439995
v -14.234680 106.273575 -7.439995
v -7.295441 106.273575 -7.439995
v -13.509125 108.638016 0.983147
v -7.723419 108.638016 1.830772
v -14.234680 106.273575 0.544792
v -7.295441 106.273575 1.392418
v -12.697998 108.638016 9.450172
v -8.020996 108.638016 9.673393
v -14.234680 106.273575 9.453850
v -7.295441 106.273575 9.677086
vt 0.458694 0.023389
vt 0.457975 0.023350
vt 0.458012 0.022720
vt 0.458755 0.022757
vt 0.458364 0.022406
vt 0.458021 0.022555
vt 0.458011 0.022694
vt 0.458680 0.023071
vt 0.458668 0.023035
vt 0.457993 0.022999
vt 0.458720 0.022641
vt 0.458708 0.022607
vt 0.458742 0.022536
vt 0.458700 0.022422
vt 0.035493 0.227333
vt 0.035593 0.227609
vt 0.035498 0.228042
vt 0.035382 0.227728
vt 0.035392 0.227815
vt 0.035269 0.228270
vt 0.035097 0.227750
vt 0.034933 0.228191
vt 0.034995 0.227481
vt 0.034814 0.227887
vt 0.035190 0.227269
vt 0.035035 0.227652
vt 0.035493 0.227333
vt 0.035593 0.227609
vt 0.035498 0.228042
vt 0.035382 0.227728
vt 0.035392 0.227815
vt 0.035269 0.228270
vt 0.035097 0.227750
vt 0.034933 0.228191
vt 0.034995 0.227481
vt 0.034814 0.227887
vt 0.035190 0.227269
vt 0.035035 0.227652
vt 0.458694 0.023389
vt 0.457975 0.023350
vt 0.458012 0.022720
vt 0.458755 0.022757
vt 0.458364 0.022406
vt 0.458021 0.022555
vt 0.458011 0.022694
vt 0.458680 0.023071
vt 0.458668 0.023035
vt 0.457993 0.022999
vt 0.458720 0.022641
vt 0.458708 0.022607
vt 0.458742 0.022536
vt 0.458700 0.022422
vt 0.081654 0.281763
vt 0.080945 0.281908
vt 0.080935 0.281625
vt 0.081646 0.281482
vt 0.080654 0.281316
vt 0.081360 0.281175
vt 0.080666 0.281596
vt 0.081369 0.281454
vt 0.081645 0.281898
vt 0.080665 0.281908
vt 0.080654 0.281556
vt 0.081638 0.281545
vt 0.080675 0.281081
vt 0.081647 0.281071
vt 0.080685 0.281431
vt 0.081654 0.281421
vt 0.035456 0.229935
vt 0.035526 0.229755
vt 0.035562 0.229697
vt 0.035503 0.229852
vt 0.035783 0.229714
vt 0.035745 0.229856
vt 0.036420 0.229874
vt 0.036449 0.229694
vt 0.036456 0.229752
vt 0.036427 0.229932
vt 0.035802 0.229754
vt 0.036109 0.229933
vt 0.036085 0.229855
vt 0.036087 0.229713
vt 0.036118 0.229753
vt 0.035753 0.229934
vt 0.081650 0.281839
vt 0.080773 0.281908
vt 0.080774 0.281613
vt 0.081654 0.281544
vt 0.080655 0.281094
vt 0.081524 0.281026
vt 0.080654 0.281386
vt 0.081520 0.281319
vt 0.081654 0.281653
vt 0.081119 0.281908
vt 0.081116 0.281661
vt 0.081653 0.281407
vt 0.080654 0.281376
vt 0.081190 0.281128
vt 0.080659 0.281622
vt 0.081193 0.281372
vt 0.035456 0.229935
vt 0.035512 0.229790
vt 0.035550 0.229742
vt 0.035505 0.229847
vt 0.035776 0.229737
vt 0.035754 0.229833
vt 0.036428 0.229856
vt 0.036449 0.229726
vt 0.036456 0.229788
vt 0.036433 0.229933
vt 0.035792 0.229790
vt 0.036112 0.229934
vt 0.036090 0.229850
vt 0.036086 0.229730
vt 0.036114 0.229789
vt 0.035755 0.229934
vn 0.000000 -0.000000 -1.000000
vn 0.000000 -0.000000 -1.000000
vn 0.000000 -0.000000 -1.000000
vn 0.000000 -0.000000 -1.000000
vn 0.164225 -0.621486 0.766019
vn 0.164225 -0.621486 0.766019
vn 0.164225 -0.621486 0.766019
vn 0.000000 1.000000 -0.000000
vn 0.000000 1.000000 -0.000000
vn 0.000000 1.000000 -0.000000
vn 0.000000 1.000000 -0.000000
vn 0.000000 1.000000 -0.000000
vn -0.707109 0.000000 0.707105
vn -0.707109 0.000000 0.707105
vn -0.707109 0.000000 0.707105
vn -0.707109 0.000000 0.707105
vn -1.000000 -0.000000 -0.000000
vn -1.000000 -0.000000 -0.000000
vn -1.000000 -0.000000 -0.000000
vn -0.499999 -0.707109 0.499998
vn -0.499999 -0.707109 0.499998
vn -0.499999 -0.707109 0.499998
vn -0.499999 -0.707109 0.499998
vn 0.000000 -1.000000 -0.000000
vn 0.000000 -1.000000 -0.000000
vn 0.000000 -1.000000 -0.000000
vn 0.000000 -1.000000 -0.000000
vn 1.000000 0.000000 0.000000
vn 1.000000 0.000000 0.000000
vn 1.000000 0.000000 0.000000
vn 1.000000 0.000000 0.000000
vn -0.000000 0.000000 1.000000
vn -0.000000 0.000000 1.000000
vn -0.000000 0.000000 1.000000
vn -0.000000 0.000000 1.000000
vn 0.000000 -1.000000 -0.000000
vn 0.000000 -1.000000 -0.000000
vn 0.000000 -1.000000 -0.000000
vn 0.000000 -1.000000 -0.000000
vn -1.000000 -0.000000 -0.000000
vn -1.000000 -0.000000 -0.000000
vn -1.000000 -0.000000 -0.000000
vn -1.000000 -0.000000 -0.000000
vn -0.000000 0.000000 1.000000
vn -0.000000 0.000000 1.000000
vn -0.000000 0.000000 1.000000
vn -0.000000 0.000000 1.000000
vn 1.000000 0.000000 0.000000
vn 1.000000 0.000000 0.000000
vn 1.000000 0.000000 0.000000
vn 0.000000 0.378659 -0.925537
vn 0.000000 0.378659 -0.925537
vn 0.000000 0.378659 -0.925537
vn 0.000000 0.378659 -0.925537
vn 0.000000 -0.612208 -0.790697
vn 0.000000 -0.612208 -0.790697
vn 0.000000 -0.612208 -0.790697
vn 0.000000 -0.612208 -0.790697
vn 0.000000 -0.990867 0.134843
vn 0.000000 -0.990867 0.134843
vn 0.000000 -0.990867 0.134843
vn 0.000000 -0.990867 0.134843
vn 0.000000 -0.378648 0.925541
vn 0.000000 -0.378648 0.925541
vn 0.000000 -0.378648 0.925541
vn 0.000000 -0.378648 0.925541
vn 0.000000 0.612208 0.790697
vn 0.000000 0.612208 0.790697
vn 0.000000 0.612208 0.790697
vn 0.000000 0.612208 0.790697
vn 0.000000 0.990866 -0.134848
vn 0.000000 0.990866 -0.134848
vn 0.000000 0.990866 -0.134848
vn 0.000000 0.990866 -0.134848
vn 1.000000 0.000000 0.000000
vn 1.000000 0.000000 0.000000
vn 1.000000 0.000000 0.000000
vn 1.000000 0.000000 0.000000
vn -1.000000 0.000000 0.000000
vn -1.000000 0.000000 0.000000
vn -1.000000 0.000000 0.000000
vn -1.000000 0.000000 0.000000
vn -1.000000 0.000000 0.000000
vn -1.000000 0.000000 0.000000
vn -1.000000 0.000000 0.000000
vn -1.000000 0.000000 0.000000
vn 1.000000 0.000000 0.000000
vn 1.000000 0.000000 0.000000
vn 1.000000 0.000000 0.000000
vn 1.000000 0.000000 0.000000
vn 0.000000 0.378659 -0.925536
vn 0.000000 0.378659 -0.925536
vn 0.000000 0.378659 -0.925536
vn 0.000000 0.378659 -0.925536
vn 0.000000 -0.612208 -0.790697
vn 0.000000 -0.612208 -0.790697
vn 0.000000 -0.612208 -0.790697
vn 0.000000 -0.612208 -0.790697
vn 0.000000 -0.990867 0.134843
vn 0.000000 -0.990867 0.134843
vn 0.000000 -0.990867 0.134843
vn 0.000000 -0.990867 0.134843
vn 0.000000 -0.378648 0.925541
vn 0.000000 -0.378648 0.925541
vn 0.000000 -0.378648 0.925541
vn 0.000000 -0.378648 0.925541
vn 0.000000 0.612208 0.790697
vn 0.000000 0.612208 0.790697
vn 0.000000 0.612208 0.790697
vn 0.000000 0.612208 0.790697
vn 0.000000 0.990866 -0.134848
vn 0.000000 0.990866 -0.134848
vn 0.000000 0.990866 -0.134848
vn 0.000000 0.990866 -0.134848
vn 1.000000 -0.000001 0.000000
vn 1.000000 0.000000 0.000000
vn 1.000000 0.000000 0.000000
vn 1.000000 -0.000001 0.000000
vn -1.000000 -0.000001 0.000000
vn -1.000000 -0.000001 0.000000
vn -1.000000 -0.000001 0.000000
vn -1.000000 -0.000001 0.000000
vn -1.000000 0.000000 0.000000
vn -1.000000 0.000000 0.000000
vn -1.000000 -0.000001 0.000000
vn -1.000000 -0.000001 0.000000
vn 1.000000 0.000000 0.000000
vn 1.000000 0.000000 0.000000
vn 1.000000 0.000001 0.000000
vn 1.000000 0.000001 0.000000
vn 0.000000 0.000000 1.000000
vn 0.000000 0.000000 1.000000
vn 0.000000 0.000000 1.000000
vn 0.000000 0.000000 1.000000
vn 0.164225 0.621486 -0.766019
vn 0.164225 0.621486 -0.766019
vn 0.164225 0.621486 -0.766019
vn 0.000000 -1.000000 0.000000
vn 0.000000 -1.000000 0.000000
vn 0.000000 -1.000000 0.000000
vn 0.000000 -1.000000 0.000000
vn 0.000000 -1.000000 0.000000
vn -0.707109 0.000000 -0.707105
vn -0.707109 0.000000 -0.707105
vn -0.707109 0.000000 -0.707105
vn -0.707109 0.000000 -0.707105
vn -1.000000 0.000000 0.000000
vn -1.000000 0.000000 0.000000
vn -1.000000 0.000000 0.000000
vn -0.499999 0.707109 -0.499998
vn -0.499999 0.707109 -0.499998
vn -0.499999 0.707109 -0.499998
vn -0.499999 0.707109 -0.499998
vn 0.000000 1.000000 0.000000
vn 0.000000 1.000000 0.000000
vn 0.000000 1.000000 0.000000
vn 0.000000 1.000000 0.000000
vn 1.000000 -0.000000 -0.000000
vn 1.000000 -0.000000 -0.000000
vn 1.000000 -0.000000 -0.000000
vn 1.000000 -0.000000 -0.000000
vn -0.000000 0.000000 -1.000000
vn -0.000000 0.000000 -1.000000
vn -0.000000 0.000000 -1.000000
vn -0.000000 0.000000 -1.000000
vn 0.000000 1.000000 0.000000
vn 0.000000 1.000000 0.000000
vn 0.000000 1.000000 0.000000
vn 0.000000 1.000000 0.000000
vn -1.000000 0.000000 0.000000
vn -1.000000 0.000000 0.000000
vn -1.000000 0.000000 0.000000
vn -1.000000 0.000000 0.000000
vn -0.000000 0.000000 -1.000000
vn -0.000000 0.000000 -1.000000
vn -0.000000 0.000000 -1.000000
vn -0.000000 0.000000 -1.000000
vn 1.000000 -0.000000 -0.000000
vn 1.000000 -0.000000 -0.000000
vn 1.000000 -0.000000 -0.000000
vn 0.170293 0.364740 -0.915404
vn 0.170293 0.364740 -0.915404
vn 0.170293 0.364740 -0.915404
vn 0.170293 0.364740 -0.915404
vn 0.000000 1.000000 -0.000002
vn 0.000000 1.000000 -0.000002
vn 0.000000 1.000000 -0.000002
vn 0.000000 1.000000 -0.000002
vn -0.170294 0.364739 0.915404
vn -0.170294 0.364739 0.915404
vn -0.170294 0.364740 0.915404
vn -0.170294 0.364739 0.915404
vn -0.915408 0.364731 -0.170292
vn -0.915408 0.364731 -0.170292
vn -0.915408 0.364731 -0.170292
vn -0.915408 0.364731 -0.170292
vn 0.915407 0.364734 0.170292
vn 0.915407 0.364734 0.170292
vn 0.915407 0.364734 0.170292
vn 0.915407 0.364734 0.170292
vn -0.210495 0.364738 -0.907005
vn -0.210495 0.364738 -0.907005
vn -0.210495 0.364738 -0.907005
vn -0.210495 0.364738 -0.907005
vn 0.000000 1.000000 0.000000
vn 0.000000 1.000000 0.000000
vn 0.000000 1.000000 0.000000
vn 0.000000 1.000000 0.000000
vn 0.210498 0.364738 0.907004
vn 0.210498 0.364738 0.907004
vn 0.210498 0.364738 0.907004
vn 0.210498 0.364738 0.907004
vn -0.907006 0.364735 0.210497
vn -0.907006 0.364735 0.210497
vn -0.907006 0.364735 0.210497
vn -0.907006 0.364735 0.210497
vn 0.907008 0.364730 -0.210497
vn 0.907008 0.364730 -0.210497
vn 0.907008 0.364730 -0.210497
vn 0.907007 0.364730 -0.210497
vn 0.000000 0.502380 0.864647
vn 0.000000 0.502380 0.864647
vn 0.000000 0.502380 0.864647
vn 0.000000 0.502380 0.864647
vn 0.000000 1.000000 0.000000
vn 0.000000 1.000000 0.000000
vn 0.000000 1.000000 0.000000
vn 0.000000 1.000000 0.000000
vn 0.000000 0.000000 -1.000000
vn 0.000000 0.000000 -1.000000
vn 0.000000 0.000000 -1.000000
vn 0.000000 0.000000 -1.000000
vn 0.989216 0.135787 -0.054892
vn 0.974089 0.224865 -0.024227
vn 0.973855 0.225915 -0.023860
vn 0.989216 0.135787 -0.054892
vn -0.988089 0.147553 0.043693
vn -0.976062 0.216233 0.023378
vn -0.972269 0.233149 0.018303
vn -0.988089 0.147553 0.043693
vn 0.000000 1.000000 0.000000
vn 0.000000 1.000000 0.000000
vn 0.000000 1.000000 0.000001
vn 0.000000 1.000000 0.000001
vn 0.973710 0.227057 0.018296
vn 0.977390 0.210201 0.022883
vn 0.988202 0.147949 0.039606
vn 0.988202 0.147949 0.039606
vn -0.972269 0.233149 0.018303
vn -0.976062 0.216233 0.023378
vn -0.950502 0.310660 0.006027
vn -0.950495 0.310682 0.006034
vn 0.000000 1.000000 0.000000
vn 0.000000 1.000000 0.000000
vn 0.000000 1.000000 0.000000
vn 0.000000 1.000000 0.000000
vn 0.973855 0.225915 -0.023860
vn 0.974089 0.224865 -0.024227
vn 0.977390 0.210201 0.022883
vn 0.973710 0.227057 0.018296
vn -0.950495 0.310682 0.006034
vn -0.950502 0.310660 0.006027
vn -0.943044 0.332387 0.013649
vn -0.943044 0.332387 0.013649
vn 0.110158 0.364741 0.924570
vn 0.110158 0.364741 0.924570
vn 0.110158 0.364741 0.924570
vn 0.110158 0.364741 0.924570
vn 0.000000 1.000000 -0.000001
vn 0.000000 1.000000 -0.000001
vn 0.000000 1.000000 -0.000001
vn 0.000000 1.000000 -0.000001
vn -0.110157 0.364743 -0.924569
vn -0.110157 0.364743 -0.924569
vn -0.110157 0.364743 -0.924569
vn -0.110157 0.364743 -0.924569
vn 0.924573 0.364733 -0.110155
vn 0.924573 0.364733 -0.110155
vn 0.924573 0.364733 -0.110155
vn 0.924573 0.364733 -0.110155
vn -0.924574 0.364732 0.110155
vn -0.924574 0.364732 0.110155
vn -0.924574 0.364732 0.110155
vn -0.924574 0.364732 0.110155
vn -0.428174 0.364745 0.826818
vn -0.428174 0.364746 0.826818
vn -0.428173 0.364745 0.826818
vn -0.428174 0.364746 0.826818
vn 0.000000 1.000000 0.000004
vn 0.000000 1.000000 0.000004
vn 0.000000 1.000000 0.000004
vn 0.000000 1.000000 0.000004
vn 0.428176 0.364744 -0.826817
vn 0.428176 0.364744 -0.826817
vn 0.428176 0.364745 -0.826817
vn 0.428176 0.364744 -0.826817
vn 0.826825 0.364736 0.428168
vn 0.826825 0.364736 0.428168
vn 0.826825 0.364736 0.428168
vn 0.826825 0.364736 0.428168
vn -0.826826 0.364735 -0.428167
vn -0.826826 0.364735 -0.428167
vn -0.826826 0.364735 -0.428167
vn -0.826826 0.364735 -0.428167
vn 0.008725 0.518871 0.854808
vn 0.008725 0.518871 0.854808
vn 0.008725 0.518871 0.854808
vn 0.008725 0.518871 0.854808
vn 0.000000 1.000000 0.000001
vn 0.000000 1.000000 0.000001
vn 0.000000 1.000000 -0.000000
vn 0.000000 1.000000 -0.000000
vn 0.000000 0.000000 -1.000000
vn 0.000000 0.000000 -1.000000
vn 0.000000 0.000000 -1.000000
vn 0.000000 0.000000 -1.000000
vn 0.942504 0.333876 0.014611
vn 0.959738 0.280416 0.016447
vn 0.959668 0.280656 0.016439
vn 0.942504 0.333876 0.014611
vn -0.972855 0.230629 0.019061
vn -0.944683 0.326587 0.030238
vn -0.936276 0.349717 0.032944
vn -0.972855 0.230629 0.019061
vn 0.000000 1.000000 -0.000000
vn 0.000000 1.000000 -0.000000
vn 0.000000 1.000000 0.000001
vn 0.000000 1.000000 0.000001
vn 0.980989 0.193583 0.013636
vn 0.983017 0.183085 0.012559
vn 0.989380 0.145092 0.008669
vn 0.989380 0.145092 0.008669
vn -0.936276 0.349717 0.032944
vn -0.944683 0.326587 0.030238
vn -0.898581 0.438772 0.005657
vn -0.898595 0.438741 0.005766
vn 0.000000 1.000000 -0.000000
vn 0.000000 1.000000 -0.000000
vn 0.000000 1.000000 -0.000000
vn 0.000000 1.000000 -0.000000
vn 0.959668 0.280656 0.016439
vn 0.959738 0.280416 0.016447
vn 0.983017 0.183085 0.012559
vn 0.980989 0.193583 0.013636
vn -0.898595 0.438741 0.005766
vn -0.898581 0.438772 0.005657
vn -0.891358 0.451481 -0.040570
vn -0.891358 0.451481 -0.040570
s off
f 1/1/1 2/2/2 4/3/3 3/4/4
f 14/5/5 12/6/6 13/7/7
f 6/8/8 7/9/9 5/10/10 2/2/11 1/1/12
f 8/11/13 10/12/14 7/9/15 6/8/16
f 9/13/17 1/1/18 3/4/19
f 8/11/20 9/13/21 11/14/22 10/12/23
f 3/4/24 4/3/25 12/6/26 14/5/27
f 2/2/28 5/10/29 13/7/30 12/6/31
f 7/9/32 10/12/33 11/14/34 5/10/35
f 3/4/36 14/5/37 11/14/38 9/13/39
f 9/13/40 8/11/41 6/8/42 1/1/43
f 5/10/44 11/14/45 14/5/46 13/7/47
f 2/2/48 12/6/49 4/3/50
f 15/15/51 16/16/52 22/17/53 21/18/54
f 16/16/55 17/19/56 23/20/57 22/17/58
f 17/19/59 18/21/60 24/22/61 23/20/62
f 18/21/63 19/23/64 25/24/65 24/22/66
f 19/23/67 20/25/68 26/26/69 25/24/70
f 20/25/71 15/15/72 21/18/73 26/26/74
f 15/15/75 20/25/76 17/19/77 16/16/78
f 26/26/79 23/20/80 24/22/81 25/24/82
f 21/18/83 22/17/84 23/20/85 26/26/86
f 17/19/87 20/25/88 19/23/89 18/21/90
f 27/27/91 28/28/92 34/29/93 33/30/94
f 28/28/95 29/31/96 35/32/97 34/29/98
f 29/31/99 30/33/100 36/34/101 35/32/102
f 30/33/103 31/35/104 37/36/105 36/34/106
f 31/35/107 32/37/108 38/38/109 37/36/110
f 32/37/111 27/27/112 33/30/113 38/38/114
f 27/27/115 32/37/116 29/31/117 28/28/118
f 38/38/119 35/32/120 36/34/121 37/36/122
f 33/30/123 34/29/124 35/32/125 38/38/126
f 29/31/127 32/37/128 31/35/129 30/33/130
f 39/39/131 40/40/132 42/41/133 41/42/134
f 52/43/135 50/44/136 51/45/137
f 44/46/138 45/47/139 43/48/140 40/40/141 39/39/142
f 46/49/143 48/50/144 45/47/145 44/46/146
f 47/51/147 39/39/148 41/42/149
f 46/49/150 47/51/151 49/52/152 48/50/153
f 41/42/154 42/41/155 50/44/156 52/43/157
f 40/40/158 43/48/159 51/45/160 50/44/161
f 45/47/162 48/50/163 49/52/164 43/48/165
f 41/42/166 52/43/167 49/52/168 47/51/169
f 47/51/170 46/49/171 44/46/172 39/39/173
f 43/48/174 49/52/175 52/43/176 51/45/177
f 40/40/178 50/44/179 42/41/180
f 53/53/181 54/54/182 56/55/183 55/56/184
f 55/56/185 56/55/186 58/57/187 57/58/188
f 57/58/189 58/57/190 60/59/191 59/60/192
f 54/54/193 60/59/194 58/57/195 56/55/196
f 59/60/197 53/53/198 55/56/199 57/58/200
f 61/61/201 62/62/202 64/63/203 63/64/204
f 63/64/205 64/63/206 66/65/207 65/66/208
f 65/66/209 66/65/210 68/67/211 67/68/212
f 62/62/213 68/67/214 66/65/215 64/63/216
f 67/68/217 61/61/218 63/64/219 65/66/220
f 69/69/221 70/70/222 72/71/223 71/72/224
f 71/72/225 72/71/226 82/73/227 81/74/228
f 73/75/229 74/76/230 76/77/231 75/78/232
f 70/70/233 84/79/234 82/73/235 72/71/236
f 75/78/237 79/80/238 77/81/239 73/75/240
f 77/81/241 78/82/242 74/76/243 73/75/244
f 78/82/245 80/83/246 76/77/247 74/76/248
f 77/81/249 79/80/250 83/84/251 81/74/252
f 81/74/253 82/73/254 78/82/255 77/81/256
f 82/73/257 84/79/258 80/83/259 78/82/260
f 81/74/261 83/84/262 69/69/263 71/72/264
f 85/85/265 86/86/266 88/87/267 87/88/268
f 87/88/269 88/87/270 90/89/271 89/90/272
f 89/90/273 90/89/274 92/91/275 91/92/276
f 86/86/277 92/91/278 90/89/279 88/87/280
f 91/92/281 85/85/282 87/88/283 89/90/284
f 93/93/285 94/94/286 96/95/287 95/96/288
f 95/96/289 96/95/290 98/97/291 97/98/292
f 97/98/293 98/97/294 100/99/295 99/100/296
f 94/94/297 100/99/298 98/97/299 96/95/300
f 99/100/301 93/93/302 95/96/303 97/98/304
f 101/101/305 102/102/306 104/103/307 103/104/308
f 103/104/309 104/103/310 114/105/311 113/106/312
f 105/107/313 106/108/314 108/109/315 107/110/316
f 102/102/317 116/111/318 114/105/319 104/103/320
f 107/110/321 111/112/322 109/113/323 105/107/324
f 109/113/325 110/114/326 106/108/327 105/107/328
f 110/114/329 112/115/330 108/109/331 106/108/332
f 109/113/333 111/112/334 115/116/335 113/106/336
f 113/106/337 114/105/338 110/114/339 109/113/340
f 114/105/341 116/111/342 112/115/343 110/114/344
f 113/106/345 115/116/346 101/101/347 103/104/348
