# This file uses centimeters as units for non-parametric coordinates.

v 40.232613 0.000000 2.828986
v 42.847683 0.000000 2.828986
v 40.232613 0.000000 -4.092807
v 42.847683 0.000000 -4.092807
v 40.232613 5.655376 2.828986
v 42.847683 5.655376 2.828986
v 42.847683 5.655376 -4.092807
v 40.232613 5.655376 -4.092807
v 38.447472 0.000000 9.145748
v 44.633080 0.000000 9.145748
v 44.633080 5.655376 4.560907
v 38.447472 5.655376 4.560907
v 44.633080 0.000000 -5.110686
v 44.633080 5.655376 -5.110686
v 38.447472 5.655376 -5.110686
v 38.447472 0.000000 -5.110686
v 40.232738 55.020863 -4.092807
v 42.847683 55.020863 -4.092807
v 40.232613 55.020863 2.828986
v 42.847683 55.020863 2.828986
v 39.232582 65.627365 3.828986
v 43.847713 65.627365 3.828986
v 43.847713 65.627365 -5.092807
v 39.232582 65.627365 -5.092807
v 43.847713 55.020863 -5.092807
v 39.232708 55.020844 -5.092807
v 43.847713 55.020863 3.828986
v 39.232582 55.020844 3.828986
v -42.847939 0.000000 2.828986
v -40.232738 0.000000 2.828986
v -42.847939 0.000000 -4.092807
v -40.232738 0.000000 -4.092807
v -42.847939 5.655376 2.828986
v -40.232738 5.655376 2.828986
v -40.232738 5.655376 -4.092807
v -42.847939 5.655376 -4.092807
v -44.633080 0.000000 9.145748
v -38.447472 0.000000 9.145748
v -38.447472 5.655376 4.560907
v -44.633080 5.655376 4.560907
v -38.447472 0.000000 -5.110686
v -38.447472 5.655376 -5.110686
v -44.633080 5.655376 -5.110686
v -44.633080 0.000000 -5.110686
v -42.847939 55.020863 -4.092807
v -40.232738 55.020863 -4.092807
v -42.847939 55.020863 2.828986
v -40.232738 55.020863 2.828986
v -43.847969 65.627365 3.828986
v -39.232838 65.627365 3.828986
v -39.232838 65.627365 -5.092807
v -43.847969 65.627365 -5.092807
v -39.232838 55.020863 -5.092807
v -43.847969 55.020863 -5.092807
v -39.232838 55.020863 3.828986
v -43.847969 55.020863 3.828986
vt 0.493985 0.035390
vt 0.493266 0.035351
vt 0.493303 0.034721
vt 0.494046 0.034758
vt 0.493320 0.034390
vt 0.494027 0.034425
vt 0.493284 0.035000
vt 0.493969 0.035037
vt 0.493989 0.035349
vt 0.493268 0.035310
vt 0.493286 0.034961
vt 0.493973 0.034997
vt 0.493985 0.035390
vt 0.493266 0.035351
vt 0.493268 0.035310
vt 0.493989 0.035349
vt 0.493284 0.035000
vt 0.493286 0.034961
vt 0.493973 0.034997
vt 0.493969 0.035037
vt 0.494018 0.034518
vt 0.493315 0.034483
vt 0.494037 0.034855
vt 0.493298 0.034817
vt 0.493315 0.034483
vt 0.494018 0.034518
vt 0.494037 0.034855
vt 0.493298 0.034817
vt 0.493989 0.035349
vt 0.493268 0.035310
vt 0.493298 0.034817
vt 0.494037 0.034855
vt 0.494046 0.034758
vt 0.493303 0.034721
vt 0.493320 0.034390
vt 0.494027 0.034425
vt 0.493315 0.034483
vt 0.494018 0.034518
vt 0.493969 0.035037
vt 0.493284 0.035000
vt 0.493266 0.035351
vt 0.493985 0.035390
vt 0.493286 0.034961
vt 0.493315 0.034483
vt 0.493973 0.034997
vt 0.494018 0.034518
vt 0.493985 0.035390
vt 0.493266 0.035351
vt 0.493268 0.035310
vt 0.493989 0.035349
vt 0.493284 0.035000
vt 0.493286 0.034961
vt 0.493973 0.034997
vt 0.493969 0.035037
vt 0.494037 0.034855
vt 0.493298 0.034817
vn 0.000000 0.000000 1.000000
vn 0.000000 0.000000 1.000000
vn 0.000000 0.000000 1.000000
vn 0.000000 0.000000 1.000000
vn 0.000000 1.000000 0.000000
vn 0.000000 1.000000 0.000000
vn 0.000000 1.000000 0.000000
vn 0.000000 1.000000 0.000000
vn 0.000000 0.000000 -1.000000
vn 0.000000 0.000000 -1.000000
vn 0.000000 0.000000 -1.000000
vn 0.000000 0.000000 -1.000000
vn 0.000000 -1.000000 0.000000
vn 0.000000 -1.000000 0.000000
vn 0.000000 -1.000000 0.000000
vn 0.000000 -1.000000 0.000000
vn 1.000000 0.000000 0.000000
vn 1.000000 0.000000 0.000000
vn 1.000000 0.000000 0.000000
vn 1.000000 0.000000 0.000000
vn -1.000000 0.000001 -0.000009
vn -1.000000 0.000001 -0.000009
vn -1.000000 0.000001 -0.000009
vn -1.000000 0.000001 -0.000009
vn 0.000000 0.629752 0.776796
vn 0.000000 0.629752 0.776796
vn 0.000000 0.629752 0.776796
vn 0.000000 0.629752 0.776796
vn 1.000000 0.000000 0.000000
vn 1.000000 0.000000 0.000000
vn 1.000000 0.000000 0.000000
vn 1.000000 0.000000 0.000000
vn 0.000000 0.000000 -1.000000
vn 0.000000 0.000000 -1.000000
vn 0.000000 0.000000 -1.000000
vn 0.000000 0.000000 -1.000000
vn -1.000000 0.000000 0.000000
vn -1.000000 0.000000 0.000000
vn -1.000000 0.000000 0.000000
vn -1.000000 0.000000 0.000000
vn 0.000000 -1.000000 0.000000
vn 0.000000 -1.000000 0.000000
vn 0.000000 -1.000000 0.000000
vn 0.000000 -1.000000 0.000000
vn 0.000000 1.000000 0.000000
vn 0.000000 1.000000 0.000000
vn 0.000000 1.000000 0.000000
vn 0.000000 1.000000 0.000000
vn 0.000000 -1.000000 0.000000
vn 0.000000 -1.000000 0.000000
vn 0.000000 -1.000000 0.000000
vn 0.000000 -1.000000 0.000000
vn 0.000000 1.000000 0.000000
vn 0.000000 1.000000 0.000000
vn 0.000000 1.000000 0.000000
vn 0.000000 1.000000 0.000000
vn 0.000000 1.000000 0.000000
vn 0.000000 1.000000 0.000000
vn 0.000000 1.000000 0.000000
vn 0.000000 1.000000 0.000000
vn 0.000000 -1.000000 0.000000
vn 0.000000 -1.000000 0.000000
vn 0.000000 -1.000000 0.000000
vn 0.000000 -1.000000 0.000000
vn 0.000000 -1.000000 0.000000
vn 0.000000 -1.000000 0.000000
vn 0.000000 -1.000000 0.000000
vn 0.000000 -1.000000 0.000000
vn 0.000000 1.000000 0.000000
vn 0.000000 1.000000 0.000000
vn 0.000000 1.000000 0.000000
vn 0.000000 1.000000 0.000000
vn 0.000000 0.000000 1.000000
vn 0.000000 0.000000 1.000000
vn 0.000000 0.000000 1.000000
vn 0.000000 0.000000 1.000000
vn 0.000000 0.000000 -1.000000
vn 0.000000 0.000000 -1.000000
vn 0.000000 0.000000 -1.000000
vn 0.000000 0.000000 -1.000000
vn 1.000000 0.000000 0.000000
vn 1.000000 0.000000 0.000000
vn 1.000000 0.000000 0.000000
vn 1.000000 0.000000 0.000000
vn -1.000000 -0.000006 -0.000007
vn -1.000000 -0.000006 -0.000007
vn -1.000000 -0.000006 -0.000007
vn -1.000000 -0.000006 -0.000007
vn 0.000001 -1.000000 0.000003
vn 0.000014 -1.000000 0.000003
vn 0.000014 -1.000000 0.000003
vn 0.000001 -1.000000 0.000003
vn 0.000014 -1.000000 -0.000003
vn 0.000001 -1.000000 -0.000003
vn 0.000001 -1.000000 -0.000003
vn 0.000014 -1.000000 -0.000003
vn 0.000001 -1.000000 -0.000003
vn 0.000001 -1.000000 0.000003
vn 0.000001 -1.000000 0.000003
vn 0.000001 -1.000000 -0.000003
vn 0.000014 -1.000000 0.000003
vn 0.000014 -1.000000 -0.000003
vn 0.000014 -1.000000 -0.000003
vn 0.000014 -1.000000 0.000003
vn 0.000000 0.000000 1.000000
vn 0.000000 0.000000 1.000000
vn 0.000000 0.000000 1.000000
vn 0.000000 0.000000 1.000000
vn 0.000000 1.000000 0.000000
vn 0.000000 1.000000 0.000000
vn 0.000000 1.000000 0.000000
vn 0.000000 1.000000 0.000000
vn 0.000000 0.000000 -1.000000
vn 0.000000 0.000000 -1.000000
vn 0.000000 0.000000 -1.000000
vn 0.000000 0.000000 -1.000000
vn 0.000000 -1.000000 0.000000
vn 0.000000 -1.000000 0.000000
vn 0.000000 -1.000000 0.000000
vn 0.000000 -1.000000 0.000000
vn 1.000000 0.000000 0.000000
vn 1.000000 0.000000 0.000000
vn 1.000000 0.000000 0.000000
vn 1.000000 0.000000 0.000000
vn -1.000000 0.000000 0.000000
vn -1.000000 0.000000 0.000000
vn -1.000000 0.000000 0.000000
vn -1.000000 0.000000 0.000000
vn 0.000000 0.629752 0.776796
vn 0.000000 0.629752 0.776796
vn 0.000000 0.629752 0.776796
vn 0.000000 0.629752 0.776796
vn 1.000000 0.000000 0.000000
vn 1.000000 0.000000 0.000000
vn 1.000000 0.000000 0.000000
vn 1.000000 0.000000 0.000000
vn 0.000000 0.000000 -1.000000
vn 0.000000 0.000000 -1.000000
vn 0.000000 0.000000 -1.000000
vn 0.000000 0.000000 -1.000000
vn -1.000000 0.000000 0.000000
vn -1.000000 0.000000 0.000000
vn -1.000000 0.000000 0.000000
vn -1.000000 0.000000 0.000000
vn 0.000000 -1.000000 0.000000
vn 0.000000 -1.000000 0.000000
vn 0.000000 -1.000000 0.000000
vn 0.000000 -1.000000 0.000000
vn 0.000000 1.000000 0.000000
vn 0.000000 1.000000 0.000000
vn 0.000000 1.000000 0.000000
vn 0.000000 1.000000 0.000000
vn 0.000000 -1.000000 0.000000
vn 0.000000 -1.000000 0.000000
vn 0.000000 -1.000000 0.000000
vn 0.000000 -1.000000 0.000000
vn 0.000000 1.000000 0.000000
vn 0.000000 1.000000 0.000000
vn 0.000000 1.000000 0.000000
vn 0.000000 1.000000 0.000000
vn 0.000000 1.000000 0.000000
vn 0.000000 1.000000 0.000000
vn 0.000000 1.000000 0.000000
vn 0.000000 1.000000 0.000000
vn 0.000000 -1.000000 0.000000
vn 0.000000 -1.000000 0.000000
vn 0.000000 -1.000000 0.000000
vn 0.000000 -1.000000 0.000000
vn 0.000000 -1.000000 0.000000
vn 0.000000 -1.000000 0.000000
vn 0.000000 -1.000000 0.000000
vn 0.000000 -1.000000 0.000000
vn 0.000000 1.000000 0.000000
vn 0.000000 1.000000 0.000000
vn 0.000000 1.000000 0.000000
vn 0.000000 1.000000 0.000000
vn 0.000000 0.000000 1.000000
vn 0.000000 0.000000 1.000000
vn 0.000000 0.000000 1.000000
vn 0.000000 0.000000 1.000000
vn 0.000000 0.000000 -1.000000
vn 0.000000 0.000000 -1.000000
vn 0.000000 0.000000 -1.000000
vn 0.000000 0.000000 -1.000000
vn 1.000000 0.000000 0.000000
vn 1.000000 0.000000 0.000000
vn 1.000000 0.000000 0.000000
vn 1.000000 0.000000 0.000000
vn -1.000000 0.000000 0.000000
vn -1.000000 0.000000 0.000000
vn -1.000000 0.000000 0.000000
vn -1.000000 0.000000 0.000000
vn 0.000000 -1.000000 -0.000001
vn 0.000000 -1.000000 -0.000001
vn 0.000000 -1.000000 -0.000001
vn 0.000000 -1.000000 -0.000001
vn 0.000000 -1.000000 -0.000000
vn 0.000000 -1.000000 -0.000000
vn 0.000000 -1.000000 -0.000000
vn 0.000000 -1.000000 -0.000000
vn 0.000000 -1.000000 -0.000000
vn 0.000000 -1.000000 -0.000001
vn 0.000000 -1.000000 -0.000001
vn 0.000000 -1.000000 -0.000000
vn 0.000000 -1.000000 -0.000001
vn 0.000000 -1.000000 -0.000000
vn 0.000000 -1.000000 -0.000000
vn 0.000000 -1.000000 -0.000001
s off
f 5/9/1 6/10/2 20/24/3 19/23/4
f 21/4/5 22/3/6 23/5/7 24/6/8
f 24/6/9 23/5/10 25/25/11 26/26/12
f 3/8/13 4/7/14 2/2/15 1/1/16
f 6/10/17 7/11/18 18/22/19 20/24/20
f 8/12/21 5/9/22 19/23/23 17/21/24
f 9/13/25 10/14/26 11/15/27 12/16/28
f 10/14/29 13/17/30 14/18/31 11/15/32
f 15/19/33 14/18/34 13/17/35 16/20/36
f 16/20/37 9/13/38 12/16/39 15/19/40
f 1/1/41 2/2/42 10/14/43 9/13/44
f 6/10/45 5/9/46 12/16/47 11/15/48
f 2/2/49 4/7/50 13/17/51 10/14/52
f 7/11/53 6/10/54 11/15/55 14/18/56
f 8/12/57 7/11/58 14/18/59 15/19/60
f 4/7/61 3/8/62 16/20/63 13/17/64
f 3/8/65 1/1/66 9/13/67 16/20/68
f 5/9/69 8/12/70 15/19/71 12/16/72
f 28/27/73 27/28/74 22/3/75 21/4/76
f 17/21/77 18/22/78 7/11/79 8/12/80
f 27/28/81 25/25/82 23/5/83 22/3/84
f 26/26/85 28/27/86 21/4/87 24/6/88
f 18/22/89 17/21/90 26/26/91 25/25/92
f 19/23/93 20/24/94 27/28/95 28/27/96
f 20/24/97 18/22/98 25/25/99 27/28/100
f 17/21/101 19/23/102 28/27/103 26/26/104
f 33/29/105 34/30/106 48/31/107 47/32/108
f 49/33/109 50/34/110 51/35/111 52/36/112
f 52/36/113 51/35/114 53/37/115 54/38/116
f 31/39/117 32/40/118 30/41/119 29/42/120
f 34/30/121 35/43/122 46/44/123 48/31/124
f 36/45/125 33/29/126 47/32/127 45/46/128
f 37/47/129 38/48/130 39/49/131 40/50/132
f 38/48/133 41/51/134 42/52/135 39/49/136
f 43/53/137 42/52/138 41/51/139 44/54/140
f 44/54/141 37/47/142 40/50/143 43/53/144
f 29/42/145 30/41/146 38/48/147 37/47/148
f 34/30/149 33/29/150 40/50/151 39/49/152
f 30/41/153 32/40/154 41/51/155 38/48/156
f 35/43/157 34/30/158 39/49/159 42/52/160
f 36/45/161 35/43/162 42/52/163 43/53/164
f 32/40/165 31/39/166 44/54/167 41/51/168
f 31/39/169 29/42/170 37/47/171 44/54/172
f 33/29/173 36/45/174 43/53/175 40/50/176
f 56/55/177 55/56/178 50/34/179 49/33/180
f 45/46/181 46/44/182 35/43/183 36/45/184
f 55/56/185 53/37/186 51/35/187 50/34/188
f 54/38/189 56/55/190 49/33/191 52/36/192
f 46/44/193 45/46/194 54/38/195 53/37/196
f 47/32/197 48/31/198 55/56/199 56/55/200
f 48/31/201 46/44/202 53/37/203 55/56/204
f 45/46/205 47/32/206 56/55/207 54/38/208
