# This file uses centimeters as units for non-parametric coordinates.

v -21.843262 3.782887 1.414543
v -18.460876 9.301450 1.414585
v -14.722534 11.348659 1.414550
v -14.277466 13.573886 1.414532
v -9.648987 17.312267 1.414582
v -3.418335 18.113350 1.414504
v -4.575500 20.961639 1.414552
v -2.617249 24.432995 1.414531
v 3.613342 24.611013 1.414515
v 5.393555 21.139660 1.414562
v 4.236450 18.202360 1.414549
v 10.912109 16.778214 1.414575
v 15.273560 13.929922 1.414576
v 15.362549 11.259650 1.414572
v 18.744934 8.678387 1.414552
v 25.776611 14.731004 1.414562
v 33.253418 13.484878 1.414555
v 37.080811 4.316940 1.414516
v 33.787476 -7.432259 1.414532
v 22.394287 -14.285957 1.414581
v 18.833923 -18.558393 1.414548
v 13.226318 -21.584702 1.414539
v 12.158264 -24.343987 1.414523
v -10.717102 -24.611013 1.414565
v -12.586304 -22.029747 1.414522
v -18.994934 -17.668301 1.414546
v -22.767151 -10.941004 1.414570
v -27.581604 -9.036928 1.414551
v -30.826599 -3.598476 1.414536
v -32.862061 8.743742 1.414520
v -37.080750 12.936749 1.414585
v -29.342529 14.447622 1.414513
v -26.914856 12.241919 1.414558
v 22.928345 4.850996 1.414560
v 26.577698 11.259650 1.414530
v 31.117188 9.835505 1.414522
v 33.520447 3.871895 1.414543
v 30.583130 -5.474058 1.414545
v 23.551392 -9.301449 1.414534
v 23.907410 -1.646667 1.414518
v 33.787426 -7.432259 -1.414509
v 22.394238 -14.285957 -1.414520
v 23.551342 -9.301449 -1.414507
v 30.583080 -5.474058 -1.414557
v 37.080761 4.316940 -1.414524
v 33.520397 3.871895 -1.414497
v 33.253368 13.484878 -1.414486
v 31.117138 9.835505 -1.414518
v 25.776562 14.731004 -1.414478
v 26.577648 11.259650 -1.414511
v 18.744884 8.678387 -1.414489
v 22.928295 4.850996 -1.414541
v 5.393506 21.139660 -1.414539
v -4.575488 20.961639 -1.414488
v -2.617297 24.432995 -1.414509
v 3.613293 24.611013 -1.414526
v -18.994984 -17.668301 -1.414556
v 18.833874 -18.558393 -1.414554
v 13.226331 -21.584702 -1.414501
v -12.586352 -22.029747 -1.414518
v -22.767200 -10.941004 -1.414471
v -21.843250 3.782887 -1.414497
v -27.581654 -9.036928 -1.414490
v -30.826649 -3.598476 -1.414505
v 4.236402 18.202360 -1.414491
v -3.418384 18.113350 -1.414537
v 15.362500 11.259650 -1.414469
v -14.722522 11.348659 -1.414491
v -14.277514 13.573886 -1.414509
v 15.273511 13.929922 -1.414526
v 23.907421 -1.646667 -1.414522
v -18.460926 9.301450 -1.414516
v 12.158216 -24.343987 -1.414517
v -10.717151 -24.611013 -1.414475
v 10.912061 16.778214 -1.414466
v -9.649035 17.312267 -1.414459
v -32.862110 8.743742 -1.414520
v -26.914906 12.241919 -1.414482
v -37.080799 12.936749 -1.414516
v -29.342579 14.447622 -1.414528
vt 0.081266 0.228690
vt 0.081394 0.228841
vt 0.081378 0.228771
vt 0.081299 0.228682
vt 0.081220 0.228519
vt 0.081259 0.228544
vt 0.081254 0.228413
vt 0.081281 0.228475
vt 0.081337 0.228435
vt 0.081331 0.228479
vt 0.081423 0.228559
vt 0.081377 0.228588
vt 0.081584 0.228452
vt 0.081717 0.228513
vt 0.081691 0.228448
vt 0.081607 0.228409
vt 0.081892 0.229152
vt 0.081435 0.228915
vt 0.081499 0.228986
vt 0.081807 0.229162
vt 0.081948 0.228881
vt 0.081948 0.229092
vt 0.082017 0.229101
vt 0.082069 0.229051
vt 0.081600 0.228503
vt 0.081701 0.228550
vt 0.081462 0.228541
vt 0.081853 0.228723
vt 0.081848 0.228686
vt 0.081462 0.228503
vt 0.081370 0.228670
vt 0.081904 0.228778
vt 0.081511 0.229026
vt 0.081782 0.229181
vt 0.081515 0.228486
vt 0.081786 0.228600
vt 0.082116 0.228887
vt 0.082031 0.228792
vt 0.082188 0.228854
vt 0.082070 0.228775
vt 0.081235 0.228708
vt 0.081267 0.228700
vt 0.081347 0.228790
vt 0.081363 0.228860
vt 0.081188 0.228536
vt 0.081227 0.228561
vt 0.081221 0.228430
vt 0.081248 0.228492
vt 0.081304 0.228452
vt 0.081298 0.228497
vt 0.081391 0.228577
vt 0.081345 0.228606
vt 0.081551 0.228471
vt 0.081574 0.228427
vt 0.081658 0.228467
vt 0.081684 0.228533
vt 0.081862 0.229176
vt 0.081777 0.229185
vt 0.081469 0.229006
vt 0.081405 0.228934
vt 0.081917 0.228904
vt 0.082039 0.229075
vt 0.081987 0.229125
vt 0.081918 0.229115
vt 0.081567 0.228522
vt 0.081668 0.228569
vt 0.081430 0.228559
vt 0.081430 0.228521
vt 0.081816 0.228707
vt 0.081821 0.228744
vt 0.081338 0.228688
vt 0.081873 0.228800
vt 0.081753 0.229203
vt 0.081482 0.229046
vt 0.081482 0.228504
vt 0.081753 0.228621
vt 0.081999 0.228814
vt 0.082085 0.228910
vt 0.082039 0.228798
vt 0.082157 0.228878
vn -0.000000 -0.000000 -1.000000
vn -0.000000 -0.000000 -1.000000
vn -0.000000 -0.000000 -1.000000
vn -0.000000 -0.000000 -1.000000
vn -0.000000 0.000000 -1.000000
vn -0.000000 0.000000 -1.000000
vn -0.000000 0.000000 -1.000000
vn -0.000000 0.000000 -1.000000
vn -0.000000 -0.000000 -1.000000
vn -0.000000 -0.000000 -1.000000
vn -0.000000 -0.000000 -1.000000
vn -0.000000 -0.000000 -1.000000
vn -0.000000 0.000000 -1.000000
vn -0.000000 0.000000 -1.000000
vn -0.000000 0.000000 -1.000000
vn -0.000000 0.000000 -1.000000
vn -0.000000 -0.000000 -1.000000
vn -0.000000 -0.000000 -1.000000
vn -0.000000 -0.000000 -1.000000
vn -0.000000 -0.000000 -1.000000
vn -0.000000 0.000000 -1.000000
vn -0.000000 0.000000 -1.000000
vn -0.000000 0.000000 -1.000000
vn -0.000000 0.000000 -1.000000
vn -0.000000 0.000000 -1.000000
vn -0.000000 0.000000 -1.000000
vn -0.000000 0.000000 -1.000000
vn -0.000000 0.000000 -1.000000
vn -0.000000 0.000000 -1.000000
vn -0.000000 0.000000 -1.000000
vn -0.000000 0.000000 -1.000000
vn -0.000000 0.000000 -1.000000
vn -0.000000 -0.000000 -1.000000
vn -0.000000 -0.000000 -1.000000
vn -0.000000 -0.000000 -1.000000
vn -0.000000 -0.000000 -1.000000
vn -0.000000 0.000000 -1.000000
vn -0.000000 0.000000 -1.000000
vn -0.000000 0.000000 -1.000000
vn -0.000000 0.000000 -1.000000
vn -0.000000 0.000000 -1.000000
vn -0.000000 0.000000 -1.000000
vn -0.000000 0.000000 -1.000000
vn -0.000000 0.000000 -1.000000
vn -0.000000 0.000000 -1.000000
vn -0.000000 0.000000 -1.000000
vn -0.000000 0.000000 -1.000000
vn -0.000000 0.000000 -1.000000
vn -0.000000 0.000000 -1.000000
vn -0.000000 0.000000 -1.000000
vn -0.000000 0.000000 -1.000000
vn -0.000000 0.000000 -1.000000
vn -0.000000 -0.000000 -1.000000
vn -0.000000 -0.000000 -1.000000
vn -0.000000 -0.000000 -1.000000
vn -0.000000 -0.000000 -1.000000
vn -0.000000 -0.000000 -1.000000
vn -0.000000 -0.000000 -1.000000
vn -0.000000 -0.000000 -1.000000
vn -0.000000 -0.000000 -1.000000
vn -0.000000 0.000000 -1.000000
vn -0.000000 0.000000 -1.000000
vn -0.000000 0.000000 -1.000000
vn -0.000000 0.000000 -1.000000
vn -0.000000 0.000000 -1.000000
vn -0.000000 0.000000 -1.000000
vn -0.000000 0.000000 -1.000000
vn -0.000000 0.000000 -1.000000
vn -0.000000 0.000000 -1.000000
vn -0.000000 0.000000 -1.000000
vn -0.000000 0.000000 -1.000000
vn -0.000000 0.000000 -1.000000
vn -0.000000 0.000000 -1.000000
vn -0.000000 0.000000 -1.000000
vn -0.000000 0.000000 -1.000000
vn -0.000000 0.000000 -1.000000
vn -0.000000 0.000000 -1.000000
vn -0.000000 0.000000 -1.000000
vn -0.000000 0.000000 -1.000000
vn -0.000000 0.000000 -1.000000
vn 0.000000 0.000000 1.000000
vn 0.000000 0.000000 1.000000
vn 0.000000 0.000000 1.000000
vn 0.000000 0.000000 1.000000
vn 0.000000 0.000000 1.000000
vn 0.000000 0.000000 1.000000
vn 0.000000 0.000000 1.000000
vn 0.000000 0.000000 1.000000
vn 0.000000 0.000000 1.000000
vn 0.000000 0.000000 1.000000
vn 0.000000 0.000000 1.000000
vn 0.000000 0.000000 1.000000
vn 0.000000 0.000000 1.000000
vn 0.000000 0.000000 1.000000
vn 0.000000 0.000000 1.000000
vn 0.000000 0.000000 1.000000
vn 0.000000 0.000000 1.000000
vn 0.000000 0.000000 1.000000
vn 0.000000 0.000000 1.000000
vn 0.000000 0.000000 1.000000
vn 0.000000 0.000000 1.000000
vn 0.000000 0.000000 1.000000
vn 0.000000 0.000000 1.000000
vn 0.000000 0.000000 1.000000
vn 0.000000 0.000000 1.000000
vn 0.000000 0.000000 1.000000
vn 0.000000 0.000000 1.000000
vn 0.000000 0.000000 1.000000
vn 0.000000 0.000000 1.000000
vn 0.000000 0.000000 1.000000
vn 0.000000 0.000000 1.000000
vn 0.000000 0.000000 1.000000
vn 0.000000 0.000000 1.000000
vn 0.000000 0.000000 1.000000
vn 0.000000 0.000000 1.000000
vn 0.000000 0.000000 1.000000
vn 0.000000 0.000000 1.000000
vn 0.000000 0.000000 1.000000
vn 0.000000 0.000000 1.000000
vn 0.000000 0.000000 1.000000
vn 0.000000 0.000000 1.000000
vn 0.000000 0.000000 1.000000
vn 0.000000 0.000000 1.000000
vn 0.000000 0.000000 1.000000
vn 0.000000 0.000000 1.000000
vn 0.000000 0.000000 1.000000
vn 0.000000 0.000000 1.000000
vn 0.000000 0.000000 1.000000
vn 0.000000 0.000000 1.000000
vn 0.000000 0.000000 1.000000
vn 0.000000 0.000000 1.000000
vn 0.000000 0.000000 1.000000
vn 0.000000 0.000000 1.000000
vn 0.000000 0.000000 1.000000
vn 0.000000 0.000000 1.000000
vn 0.000000 0.000000 1.000000
vn 0.000000 0.000000 1.000000
vn 0.000000 0.000000 1.000000
vn 0.000000 0.000000 1.000000
vn 0.000000 0.000000 1.000000
vn 0.000000 0.000000 1.000000
vn 0.000000 0.000000 1.000000
vn 0.000000 0.000000 1.000000
vn 0.000000 0.000000 1.000000
vn 0.000000 0.000000 1.000000
vn 0.000000 0.000000 1.000000
vn 0.000000 0.000000 1.000000
vn 0.000000 0.000000 1.000000
vn 0.000000 0.000000 1.000000
vn 0.000000 0.000000 1.000000
vn 0.000000 0.000000 1.000000
vn 0.000000 0.000000 1.000000
vn 0.000000 0.000000 1.000000
vn 0.000000 0.000000 1.000000
vn 0.000000 0.000000 1.000000
vn 0.000000 0.000000 1.000000
vn 0.000000 0.000000 1.000000
vn 0.000000 0.000000 1.000000
vn 0.000000 0.000000 1.000000
vn 0.000000 0.000000 1.000000
vn 0.515480 -0.856902 0.000000
vn 0.515480 -0.856902 0.000000
vn 0.515480 -0.856902 0.000000
vn 0.515480 -0.856902 0.000000
vn -0.478073 0.878320 -0.000000
vn -0.478073 0.878320 -0.000000
vn -0.478073 0.878320 -0.000000
vn -0.478073 0.878320 -0.000000
vn 0.962888 -0.269900 0.000000
vn 0.962888 -0.269900 0.000000
vn 0.962888 -0.269900 0.000000
vn 0.962888 -0.269900 0.000000
vn -0.953994 0.299827 -0.000000
vn -0.953994 0.299827 -0.000000
vn -0.953994 0.299827 -0.000000
vn -0.953994 0.299827 -0.000000
vn 0.922812 0.385251 0.000000
vn 0.922812 0.385251 0.000000
vn 0.922812 0.385251 0.000000
vn 0.922812 0.385251 0.000000
vn -0.927519 -0.373776 -0.000000
vn -0.927519 -0.373776 -0.000000
vn -0.927519 -0.373776 -0.000000
vn -0.927519 -0.373776 -0.000000
vn 0.164399 0.986394 0.000000
vn 0.164399 0.986394 0.000000
vn 0.164399 0.986394 0.000000
vn 0.164399 0.986394 0.000000
vn -0.299340 -0.954147 -0.000000
vn -0.299340 -0.954147 -0.000000
vn -0.299340 -0.954147 -0.000000
vn -0.299340 -0.954147 -0.000000
vn -0.652370 0.757901 -0.000000
vn -0.652370 0.757901 -0.000000
vn -0.652370 0.757901 -0.000000
vn -0.652370 0.757901 -0.000000
vn 0.868985 -0.494839 0.000000
vn 0.868985 -0.494839 0.000000
vn 0.868985 -0.494839 0.000000
vn 0.868985 -0.494839 0.000000
vn -0.870978 0.491321 -0.000000
vn -0.870978 0.491321 -0.000000
vn -0.870978 0.491321 -0.000000
vn -0.870978 0.491321 -0.000000
vn -0.028560 0.999592 -0.000000
vn -0.028560 0.999592 -0.000000
vn -0.028560 0.999592 -0.000000
vn -0.028560 0.999592 -0.000000
vn 0.889817 0.456317 0.000000
vn 0.889817 0.456317 0.000000
vn 0.889817 0.456317 0.000000
vn 0.889817 0.456317 0.000000
vn 0.474932 -0.880022 0.000000
vn 0.474932 -0.880022 0.000000
vn 0.474932 -0.880022 0.000000
vn 0.474932 -0.880022 0.000000
vn -0.562624 -0.826713 -0.000000
vn -0.562624 -0.826713 -0.000000
vn -0.562624 -0.826713 -0.000000
vn -0.562624 -0.826713 -0.000000
vn -0.367774 -0.929915 -0.000000
vn -0.367774 -0.929915 -0.000000
vn -0.367774 -0.929915 -0.000000
vn -0.367774 -0.929915 -0.000000
vn -0.858747 -0.512399 -0.000000
vn -0.858747 -0.512399 -0.000000
vn -0.858747 -0.512399 -0.000000
vn -0.858747 -0.512399 -0.000000
vn -0.926467 -0.376377 -0.000000
vn -0.926467 -0.376377 -0.000000
vn -0.926467 -0.376377 -0.000000
vn -0.926467 -0.376377 -0.000000
vn 0.930408 -0.366524 0.000000
vn 0.930408 -0.366524 0.000000
vn 0.930408 -0.366524 0.000000
vn 0.930408 -0.366524 0.000000
vn -0.980581 0.196116 -0.000000
vn -0.980581 0.196116 -0.000000
vn -0.980581 0.196116 -0.000000
vn -0.980581 0.196116 -0.000000
vn 0.999445 0.033315 0.000000
vn 0.999445 0.033315 0.000000
vn 0.999445 0.033315 0.000000
vn 0.999445 0.033315 0.000000
vn -0.852601 0.522562 -0.000000
vn -0.852601 0.522562 -0.000000
vn -0.852601 0.522562 -0.000000
vn -0.852601 0.522562 -0.000000
vn -0.480315 0.877096 -0.000000
vn -0.480315 0.877096 -0.000000
vn -0.480315 0.877096 -0.000000
vn -0.480315 0.877096 -0.000000
vn 0.988837 0.149003 0.000000
vn 0.988837 0.149003 0.000000
vn 0.988837 0.149003 0.000000
vn 0.988837 0.149003 0.000000
vn 0.606673 0.794951 0.000000
vn 0.606673 0.794951 0.000000
vn 0.606673 0.794951 0.000000
vn 0.606673 0.794951 0.000000
vn 0.932568 -0.360993 0.000000
vn 0.932568 -0.360993 0.000000
vn 0.932568 -0.360993 0.000000
vn 0.932568 -0.360993 0.000000
vn 0.011672 -0.999932 0.000000
vn 0.011672 -0.999932 0.000000
vn 0.011672 -0.999932 0.000000
vn 0.011672 -0.999932 0.000000
vn -0.809942 -0.586510 -0.000000
vn -0.809942 -0.586510 -0.000000
vn -0.809942 -0.586510 -0.000000
vn -0.809942 -0.586510 -0.000000
vn -0.872235 -0.489088 -0.000000
vn -0.872235 -0.489088 -0.000000
vn -0.872235 -0.489088 -0.000000
vn -0.872235 -0.489088 -0.000000
vn 0.998920 -0.046461 0.000000
vn 0.998920 -0.046461 0.000000
vn 0.998920 -0.046461 0.000000
vn 0.998920 -0.046461 0.000000
vn 0.768221 -0.640184 0.000000
vn 0.768221 -0.640184 0.000000
vn 0.768221 -0.640184 0.000000
vn 0.768221 -0.640184 0.000000
vn 0.546789 0.837271 0.000000
vn 0.546789 0.837271 0.000000
vn 0.546789 0.837271 0.000000
vn 0.546789 0.837271 0.000000
vn 0.208639 0.977993 0.000000
vn 0.208639 0.977993 0.000000
vn 0.208639 0.977993 0.000000
vn 0.208639 0.977993 0.000000
vn -0.628337 0.777941 -0.000000
vn -0.628337 0.777941 -0.000000
vn -0.628337 0.777941 -0.000000
vn -0.628337 0.777941 -0.000000
vn -0.127522 0.991836 -0.000000
vn -0.127522 0.991836 -0.000000
vn -0.127522 0.991836 -0.000000
vn -0.127522 0.991836 -0.000000
vn -0.986672 -0.162721 -0.000000
vn -0.986672 -0.162721 -0.000000
vn -0.986672 -0.162721 -0.000000
vn -0.986672 -0.162721 -0.000000
vn 0.857663 0.514212 0.000000
vn 0.857663 0.514212 0.000000
vn 0.857663 0.514212 0.000000
vn 0.857663 0.514212 0.000000
vn -0.704945 -0.709262 -0.000000
vn -0.704945 -0.709262 -0.000000
vn -0.704945 -0.709262 -0.000000
vn -0.704945 -0.709262 -0.000000
vn -0.191630 0.981467 -0.000000
vn -0.191630 0.981467 -0.000000
vn -0.191630 0.981467 -0.000000
vn -0.191630 0.981467 -0.000000
vn 0.672456 0.740137 0.000000
vn 0.672456 0.740137 0.000000
vn 0.672456 0.740137 0.000000
vn 0.672456 0.740137 0.000000
s off
f 41/1/1 42/2/2 43/3/3 44/4/4
f 45/5/5 41/1/6 44/4/7 46/6/8
f 47/7/9 45/5/10 46/6/11 48/8/12
f 49/9/13 47/7/14 48/8/15 50/10/16
f 51/11/17 49/9/18 50/10/19 52/12/20
f 53/13/21 54/14/22 55/15/23 56/16/24
f 57/17/25 58/18/26 59/19/27 60/20/28
f 62/21/29 61/22/30 63/23/31 64/24/32
f 65/25/33 66/26/34 54/14/35 53/13/36
f 67/27/37 68/28/38 69/29/39 70/30/40
f 71/31/41 61/22/42 62/21/43 72/32/44
f 71/31/45 72/32/46 68/28/47 52/12/48
f 51/11/49 52/12/50 68/28/51 67/27/52
f 60/20/53 59/19/54 73/33/55 74/34/56
f 57/17/57 61/22/58 71/31/59 43/3/60
f 57/17/61 43/3/62 42/2/63 58/18/64
f 75/35/65 70/30/66 69/29/67 65/25/68
f 66/26/69 65/25/70 69/29/71 76/36/72
f 62/21/73 64/24/74 77/37/75 78/38/76
f 78/38/77 77/37/78 79/39/79 80/40/80
f 19/41/81 38/42/82 39/43/83 20/44/84
f 18/45/85 37/46/86 38/42/87 19/41/88
f 17/47/89 36/48/90 37/46/91 18/45/92
f 16/49/93 35/50/94 36/48/95 17/47/96
f 15/51/97 34/52/98 35/50/99 16/49/100
f 10/53/101 9/54/102 8/55/103 7/56/104
f 26/57/105 25/58/106 22/59/107 21/60/108
f 1/61/109 29/62/110 28/63/111 27/64/112
f 11/65/113 10/53/114 7/56/115 6/66/116
f 14/67/117 13/68/118 4/69/119 3/70/120
f 40/71/121 2/72/122 1/61/123 27/64/124
f 40/71/125 34/52/126 3/70/127 2/72/128
f 15/51/129 14/67/130 3/70/131 34/52/132
f 25/58/133 24/73/134 23/74/135 22/59/136
f 26/57/137 39/43/138 40/71/139 27/64/140
f 26/57/141 21/60/142 20/44/143 39/43/144
f 12/75/145 11/65/146 4/69/147 13/68/148
f 6/66/149 5/76/150 4/69/151 11/65/152
f 1/61/153 33/77/154 30/78/155 29/62/156
f 33/77/157 32/79/158 31/80/159 30/78/160
f 19/41/161 20/44/162 42/2/163 41/1/164
f 39/43/165 38/42/166 44/4/167 43/3/168
f 18/45/169 19/41/170 41/1/171 45/5/172
f 38/42/173 37/46/174 46/6/175 44/4/176
f 17/47/177 18/45/178 45/5/179 47/7/180
f 37/46/181 36/48/182 48/8/183 46/6/184
f 16/49/185 17/47/186 47/7/187 49/9/188
f 36/48/189 35/50/190 50/10/191 48/8/192
f 15/51/193 16/49/194 49/9/195 51/11/196
f 35/50/197 34/52/198 52/12/199 50/10/200
f 7/56/201 8/55/202 55/15/203 54/14/204
f 8/55/205 9/54/206 56/16/207 55/15/208
f 9/54/209 10/53/210 53/13/211 56/16/212
f 21/60/213 22/59/214 59/19/215 58/18/216
f 25/58/217 26/57/218 57/17/219 60/20/220
f 27/64/221 28/63/222 63/23/223 61/22/224
f 28/63/225 29/62/226 64/24/227 63/23/228
f 6/66/229 7/56/230 54/14/231 66/26/232
f 10/53/233 11/65/234 65/25/235 53/13/236
f 3/70/237 4/69/238 69/29/239 68/28/240
f 13/68/241 14/67/242 67/27/243 70/30/244
f 1/61/245 2/72/246 72/32/247 62/21/248
f 2/72/249 3/70/250 68/28/251 72/32/252
f 34/52/253 40/71/254 71/31/255 52/12/256
f 14/67/257 15/51/258 51/11/259 67/27/260
f 22/59/261 23/74/262 73/33/263 59/19/264
f 23/74/265 24/73/266 74/34/267 73/33/268
f 24/73/269 25/58/270 60/20/271 74/34/272
f 26/57/273 27/64/274 61/22/275 57/17/276
f 40/71/277 39/43/278 43/3/279 71/31/280
f 20/44/281 21/60/282 58/18/283 42/2/284
f 12/75/285 13/68/286 70/30/287 75/35/288
f 11/65/289 12/75/290 75/35/291 65/25/292
f 4/69/293 5/76/294 76/36/295 69/29/296
f 5/76/297 6/66/298 66/26/299 76/36/300
f 29/62/301 30/78/302 77/37/303 64/24/304
f 33/77/305 1/61/306 62/21/307 78/38/308
f 30/78/309 31/80/310 79/39/311 77/37/312
f 31/80/313 32/79/314 80/40/315 79/39/316
f 32/79/317 33/77/318 78/38/319 80/40/320
