# This file uses centimeters as units for non-parametric coordinates.

v -10.819366 -0.000031 15.176025
v 15.433167 0.000000 15.176025
v -16.042358 35.832489 15.982178
v 17.185852 35.832489 15.982178
v -16.042358 35.832489 -17.246094
v 17.185852 35.832489 -17.246094
v -14.406158 0.000000 -14.663330
v 15.433167 -0.000031 -10.915283
v -0.357239 45.489990 16.199463
v 0.810791 0.000000 15.176025
v -0.071991 29.525482 15.840332
v 0.322968 15.352814 15.521484
v 6.723328 26.495728 15.771973
v 6.867645 19.338257 15.611084
v -5.365845 18.962250 15.602539
v -5.830261 26.152985 15.764404
v 6.189819 19.726257 12.839844
v 0.673279 16.372955 12.792236
v 6.038330 25.627258 12.923828
v 0.354706 28.297729 12.961670
v -4.535919 25.288452 12.918945
v -4.116455 19.409912 12.835449
v 0.996521 0.000000 -14.663330
v 0.099548 45.489990 -17.942383
v -15.257477 18.643738 15.595459
v -14.406158 0.000000 9.999512
v 15.787445 7.242767 15.338867
v 16.609436 24.048431 15.717041
v 16.188293 15.438202 11.125000
v 12.885620 13.326904 15.475830
v 12.003510 0.000000 -14.663330
v 16.141846 14.488586 -15.707764
v -0.071991 29.525482 15.840332
v 6.723328 26.495728 15.771973
v 6.867645 19.338257 15.611084
v 0.322968 15.352814 15.521484
v 0.810791 0.000000 15.176025
v 15.433167 0.000000 15.176025
v 15.787445 7.242767 15.338867
v 12.885620 13.326904 15.475830
v 16.609436 24.048431 15.717041
v 17.185852 35.832489 15.982178
v -10.819366 -0.000031 15.176025
v -15.257477 18.643738 15.595459
v -5.365845 18.962250 15.602539
v -5.830261 26.152985 15.764404
v -16.042358 35.832489 15.982178
v -0.357239 45.489990 16.199463
v -0.071991 29.525482 15.840332
v 0.322968 15.352814 15.521484
v 0.810791 0.000000 15.176025
v -1.274536 7.298187 34.952393
v 0.091370 5.983521 34.843018
v 0.092102 8.612885 35.062012
v 1.458008 7.298187 34.952393
v 0.092102 8.612885 15.369873
v 1.458008 7.298187 15.340088
v -1.274536 7.298187 15.340088
v 0.091370 5.983521 15.310547
v -19.881531 37.536957 19.965088
v 19.881531 37.514954 19.964355
v -19.881531 37.536957 -21.313477
v 19.881531 37.514954 -21.311523
v 0.158600 48.065643 20.319580
v 0.372650 48.065643 -22.189941
v 0.156982 44.312378 20.193115
v 0.368805 44.312378 -21.877441
v 19.670166 33.761688 -20.999023
v 19.670166 33.761688 19.837891
v -19.670166 33.783691 -21.000977
v -19.670166 33.783691 19.838623
vt 0.132610 0.205531
vt 0.132610 0.205531
vt 0.132610 0.205531
vt 0.132610 0.205531
vt 0.132610 0.205531
vt 0.132610 0.205531
vt 0.132610 0.205531
vt 0.132610 0.205531
vt 0.132610 0.205531
vt 0.132610 0.205531
vt 0.132610 0.205531
vt 0.132610 0.205531
vt 0.005887 0.302216
vt 0.005887 0.302216
vt 0.005887 0.302216
vt 0.005887 0.302216
vt 0.005887 0.302216
vt 0.005887 0.302216
vt 0.005887 0.302216
vt 0.005887 0.302216
vt 0.005887 0.302216
vt 0.005887 0.302216
vt 0.005887 0.302216
vt 0.005887 0.302216
vt 0.010437 0.007195
vt 0.010437 0.007195
vt 0.010437 0.007195
vt 0.010437 0.007195
vt 0.010437 0.007195
vt 0.010437 0.007195
vt 0.132610 0.205531
vt 0.132610 0.205531
vt 0.132611 0.205531
vt 0.132610 0.205531
vt 0.132611 0.205531
vt 0.005859 0.275398
vt 0.132610 0.205531
vt 0.132610 0.205531
vt 0.132610 0.205531
vt 0.132610 0.205531
vt 0.132610 0.205531
vt 0.132610 0.205531
vt 0.132610 0.205531
vt 0.132610 0.205531
vt 0.132611 0.205531
vt 0.132611 0.205531
vt 0.132610 0.205531
vt 0.132610 0.205531
vt 0.132610 0.205531
vt 0.132610 0.205531
vt 0.132610 0.205531
vt 0.132610 0.205531
vt 0.132610 0.205531
vt 0.132610 0.205531
vt 0.132610 0.205531
vt 0.132610 0.205531
vt 0.132610 0.205531
vt 0.005859 0.275394
vt 0.005859 0.275394
vt 0.005859 0.275398
vt 0.005859 0.275398
vt 0.005859 0.275398
vt 0.005859 0.275394
vt 0.005859 0.275398
vt 0.005859 0.275394
vt 0.005859 0.275394
vt 0.005887 0.302216
vt 0.005887 0.302216
vt 0.005887 0.302216
vt 0.005887 0.302216
vt 0.005887 0.302216
vt 0.005887 0.302216
vt 0.005887 0.302216
vt 0.005887 0.302216
vt 0.005887 0.302216
vt 0.005887 0.302216
vt 0.005887 0.302216
vt 0.005887 0.302216
vt 0.005887 0.302216
vt 0.005887 0.302216
vt 0.005887 0.302216
vt 0.005887 0.302216
vt 0.005887 0.302216
vt 0.005887 0.302216
vt 0.005887 0.302216
vt 0.005887 0.302216
vt 0.005887 0.302216
vt 0.005887 0.302216
vt 0.005887 0.302216
vt 0.005887 0.302216
vt 0.005887 0.302216
vt 0.005887 0.302216
vt 0.005887 0.302216
vt 0.005887 0.302216
vt 0.005887 0.302216
vt 0.005887 0.302216
vt 0.005887 0.302216
vt 0.005887 0.302216
vn 0.000002 -0.022490 0.999747
vn 0.000004 -0.022496 0.999747
vn -0.000001 -0.022494 0.999747
vn 0.000004 -0.022496 0.999747
vn 0.000001 -0.022505 0.999747
vn -0.000001 -0.022494 0.999747
vn -0.000001 -0.022494 0.999747
vn 0.000001 -0.022505 0.999747
vn -0.000012 -0.022491 0.999747
vn -0.000012 -0.022491 0.999747
vn 0.000001 -0.022505 0.999747
vn 0.000001 -0.022495 0.999747
vn 0.000001 -0.022505 0.999747
vn 0.000014 -0.022480 0.999747
vn 0.000001 -0.022495 0.999747
vn 0.000000 -0.022478 0.999747
vn 0.000005 -0.022491 0.999747
vn 0.000007 -0.022493 0.999747
vn 0.000007 -0.022493 0.999747
vn 0.000005 -0.022491 0.999747
vn 0.000008 -0.022495 0.999747
vn 0.000005 -0.022491 0.999747
vn 0.000001 -0.022495 0.999747
vn 0.000008 -0.022495 0.999747
vn 0.000014 -0.022480 0.999747
vn 0.000008 -0.022495 0.999747
vn 0.000001 -0.022495 0.999747
vn 0.000002 -0.071894 -0.997412
vn 0.000002 -0.071894 -0.997412
vn 0.000002 -0.071894 -0.997412
vn 0.000002 -0.071894 -0.997412
vn 0.000002 -0.071894 -0.997412
vn -0.000001 -1.000000 0.000000
vn -0.000001 -1.000000 0.000000
vn -0.000001 -1.000000 0.000000
vn -0.000001 -1.000000 0.000000
vn -0.000001 -1.000000 0.000000
vn 0.998806 -0.048855 0.000000
vn 0.998806 -0.048855 0.000000
vn 0.998806 -0.048855 0.000000
vn 0.998806 -0.048855 0.000000
vn 0.998806 -0.048855 0.000000
vn 0.998806 -0.048855 0.000000
vn 0.998806 -0.048855 0.000000
vn 0.998806 -0.048855 0.000000
vn -0.998959 -0.045615 0.000000
vn -0.998959 -0.045615 0.000000
vn -0.998959 -0.045615 0.000000
vn -0.998959 -0.045615 0.000000
vn -0.998959 -0.045615 0.000000
vn -0.000002 -0.022490 0.999747
vn -0.000002 -0.022492 0.999747
vn -0.000003 -0.022492 0.999747
vn -0.000003 -0.022492 0.999747
vn -0.000002 -0.022492 0.999747
vn -0.000001 -0.022496 0.999747
vn -0.000002 -0.022492 0.999747
vn 0.000006 -0.022492 0.999747
vn -0.000001 -0.022496 0.999747
vn -0.000001 -0.022496 0.999747
vn 0.000006 -0.022492 0.999747
vn 0.000002 -0.022493 0.999747
vn 0.000006 -0.022492 0.999747
vn 0.000002 -0.022488 0.999747
vn 0.000002 -0.022493 0.999747
vn 0.000002 -0.022488 0.999747
vn -0.000002 -0.022488 0.999747
vn 0.000002 -0.022493 0.999747
vn -0.000002 -0.022488 0.999747
vn -0.000029 -0.022497 0.999747
vn 0.000002 -0.022493 0.999747
vn -0.000005 -0.014215 0.999899
vn -0.000005 -0.014215 0.999899
vn -0.000005 -0.014215 0.999899
vn -0.000005 -0.014215 0.999899
vn 0.000010 -0.014205 0.999899
vn 0.000010 -0.014205 0.999899
vn 0.000010 -0.014205 0.999899
vn 0.000010 -0.014205 0.999899
vn -0.506352 0.827664 0.242034
vn -0.506352 0.827664 0.242034
vn -0.506352 0.827663 0.242034
vn -0.506352 0.827664 0.242034
vn -0.970968 -0.026453 0.237743
vn -0.970968 -0.026453 0.237743
vn -0.970968 -0.026453 0.237743
vn -0.970968 -0.026453 0.237743
vn -0.389583 -0.859062 0.332020
vn -0.389583 -0.859062 0.332020
vn -0.389583 -0.859062 0.332020
vn -0.389583 -0.859062 0.332020
vn 0.462147 -0.779035 0.423704
vn 0.462147 -0.779035 0.423704
vn 0.462147 -0.779035 0.423704
vn 0.462147 -0.779035 0.423704
vn 0.910994 0.053935 0.408877
vn 0.910994 0.053935 0.408877
vn 0.910994 0.053935 0.408877
vn 0.910994 0.053935 0.408877
vn 0.503408 0.786992 0.356683
vn 0.503408 0.786993 0.356683
vn 0.503408 0.786993 0.356683
vn 0.503408 0.786992 0.356683
vn 0.000000 -1.000000 -0.000001
vn 0.000000 -1.000000 -0.000001
vn 0.000000 -1.000000 -0.000001
vn 0.000000 -1.000000 -0.000001
vn 0.000000 -1.000000 -0.000001
vn -0.000005 -0.071895 -0.997412
vn -0.000005 -0.071895 -0.997412
vn -0.000005 -0.071895 -0.997412
vn -0.000005 -0.071895 -0.997412
vn -0.804665 -0.204092 0.557549
vn -0.804665 -0.204092 0.557549
vn -0.804665 -0.204092 0.557549
vn 0.824453 -0.297186 0.481621
vn 0.824453 -0.297186 0.481621
vn 0.824453 -0.297186 0.481621
vn 0.714114 -0.251076 -0.653454
vn 0.714114 -0.251076 -0.653454
vn 0.714114 -0.251076 -0.653454
vn 0.679314 0.309015 0.665614
vn 0.679314 0.309015 0.665614
vn 0.679314 0.309015 0.665614
vn 0.000000 -0.083000 0.996550
vn 0.000000 -0.083000 0.996550
vn 0.000000 -0.083000 0.996550
vn 0.000000 -0.083000 0.996550
vn 0.693472 0.720483 0.000000
vn 0.693472 0.720483 0.000000
vn 0.693472 0.720483 0.000000
vn 0.693472 0.720483 0.000000
vn -0.693464 -0.720492 0.000000
vn -0.693464 -0.720491 0.000000
vn -0.693464 -0.720492 0.000000
vn -0.693464 -0.720492 0.000000
vn 0.693271 -0.720677 0.000000
vn 0.693271 -0.720677 0.000000
vn 0.693271 -0.720677 0.000000
vn 0.693271 -0.720677 0.000000
vn -0.693279 0.720669 0.000000
vn -0.693279 0.720669 0.000000
vn -0.693279 0.720669 0.000000
vn -0.693279 0.720669 0.000000
vn 0.001017 -1.000000 0.000003
vn -0.001891 -0.999998 -0.000005
vn -0.477614 -0.878569 -0.001220
vn -0.477614 -0.878569 -0.001220
vn 0.467064 -0.884223 0.001193
vn -0.001891 -0.999998 -0.000005
vn 0.001017 -1.000000 0.000003
vn 0.467064 -0.884223 0.001193
vn -0.001009 0.999999 -0.000003
vn 0.473679 0.880697 0.001210
vn 0.473679 0.880697 0.001210
vn 0.001875 0.999998 0.000005
vn -0.463170 0.886269 -0.001183
vn -0.463170 0.886269 -0.001183
vn -0.001009 0.999999 -0.000003
vn 0.001875 0.999998 0.000005
vn -0.000002 -0.082974 -0.996552
vn -0.000002 -0.082974 -0.996552
vn -0.000002 -0.082974 -0.996552
vn -0.000002 -0.082974 -0.996552
vn 0.998418 -0.056226 0.000000
vn 0.998418 -0.056226 0.000000
vn 0.998418 -0.056226 0.000000
vn 0.998418 -0.056226 0.000000
vn -0.000014 -0.033675 0.999433
vn -0.000014 -0.033675 0.999433
vn -0.000014 -0.033675 0.999433
vn -0.000014 -0.033675 0.999433
vn 0.000008 -0.082974 -0.996552
vn 0.000008 -0.082974 -0.996552
vn 0.000008 -0.082974 -0.996552
vn 0.000008 -0.082974 -0.996552
vn 0.000013 -0.033675 0.999433
vn 0.000013 -0.033675 0.999433
vn 0.000013 -0.033675 0.999433
vn 0.000013 -0.033675 0.999433
vn -0.998418 -0.056226 0.000000
vn -0.998418 -0.056226 0.000000
vn -0.998418 -0.056226 0.000000
vn -0.998418 -0.056226 0.000000
s off
f 48/54/1 49/55/2 42/48/3
f 49/55/4 34/40/5 42/48/6
f 42/48/7 34/40/8 41/47/9
f 41/47/10 34/40/11 40/46/12
f 34/40/13 35/41/14 40/46/15
f 38/44/16 39/45/17 51/57/18
f 51/57/19 39/45/20 50/56/21
f 39/45/22 40/46/23 50/56/24
f 35/41/25 50/56/26 40/46/27
f 23/5/28 24/6/29 6/7/30 32/38/31 31/37/32
f 10/2/33 23/5/34 31/37/35 8/8/36 2/3/37
f 2/3/38 8/8/39 32/38/40 6/7/41 4/4/42 28/34/43 29/35/44 27/33/45
f 7/9/46 26/32/47 25/31/48 3/11/49 5/12/50
f 9/1/51 47/53/52 33/39/53
f 33/39/54 47/53/55 46/52/56
f 47/53/57 44/50/58 46/52/59
f 46/52/60 44/50/61 45/51/62
f 44/50/63 43/49/64 45/51/65
f 43/49/66 37/43/67 45/51/68
f 37/43/69 36/42/70 45/51/71
f 18/26/72 17/27/73 19/28/74 20/29/75
f 20/29/76 21/30/77 22/25/78 18/26/79
f 12/14/80 14/16/81 17/20/82 18/19/83
f 14/16/84 13/15/85 19/21/86 17/20/87
f 13/15/88 11/13/89 20/22/90 19/21/91
f 11/13/92 16/18/93 21/23/94 20/22/95
f 16/18/96 15/17/97 22/24/98 21/23/99
f 15/17/100 12/14/101 18/19/102 22/24/103
f 7/9/104 23/5/105 10/2/106 1/10/107 26/32/108
f 5/12/109 24/6/110 23/5/111 7/9/112
f 25/36/113 26/58/114 1/59/115
f 28/60/116 30/61/117 29/62/118
f 31/63/119 32/64/120 8/65/121
f 29/62/122 30/61/123 27/66/124
f 52/67/125 53/68/126 55/69/127 54/70/128
f 54/70/129 55/69/130 57/71/131 56/72/132
f 58/73/133 59/74/134 53/75/135 52/76/136
f 53/68/137 59/77/138 57/78/139 55/69/140
f 58/79/141 52/67/142 54/70/143 56/80/144
f 66/81/145 67/82/146 68/83/147 69/84/148
f 70/85/149 67/82/150 66/81/151 71/86/152
f 64/87/153 61/88/154 63/89/155 65/90/156
f 62/91/157 60/92/158 64/87/159 65/90/160
f 65/93/161 63/94/162 68/83/163 67/82/164
f 63/94/165 61/95/166 69/84/167 68/83/168
f 61/95/169 64/96/170 66/81/171 69/84/172
f 62/97/173 65/93/174 67/82/175 70/85/176
f 64/96/177 60/98/178 71/86/179 66/81/180
f 60/98/181 62/97/182 70/85/183 71/86/184
