# This file uses centimeters as units for non-parametric coordinates.

v -29.791822 -190.950562 3.001427
v 29.791731 -190.950562 3.001427
v -29.791822 0.071136 3.001427
v 29.791731 0.071136 3.001427
v -29.791822 0.071136 -3.001427
v 29.791731 0.071136 -3.001427
v -29.791822 -190.950562 -3.001427
v 29.791731 -190.950562 -3.001427
v -0.000045 -290.950562 -3.001427
v -0.000045 -290.950562 3.001427
v -0.000045 0.071136 3.001427
v -0.000045 0.071136 -3.001427
v -28.694994 -105.427460 -3.001427
v 28.556805 -103.367813 -3.001427
v 28.556772 -103.114120 3.001427
v -2.829177 -161.878098 3.001427
v -2.829220 -162.216278 -3.001427
v -35.508244 4.398393 -4.404216
v 35.569901 4.398393 -4.404216
v -35.508244 -4.863346 -4.404216
v 35.569901 -4.863346 -4.404216
v -35.508244 -4.863346 4.857487
v 35.569901 -4.863346 4.857487
v -35.508244 4.398393 4.857487
v 35.569901 4.398393 4.857487
v -5.902903 4.398365 -4.404216
v -6.543352 -4.863346 -4.404216
v -7.298153 -3.661898 4.857487
v -22.525501 4.398380 4.857487
v 16.567482 4.398380 4.857487
v -7.009951 0.556104 4.857487
v -6.242563 4.398365 -0.236449
v 1.132297 -54.952225 3.001427
v 1.132275 -55.121315 -3.001427
v -28.694994 -105.173790 3.001427
vt 0.226795 0.193247
vt 0.226690 0.193574
vt 0.226696 0.192574
vt 0.226804 0.192574
vt 0.226694 0.192575
vt 0.226802 0.192575
vt 0.226793 0.193242
vt 0.226707 0.199970
vt 0.226712 0.199964
vt 0.226689 0.193566
vt 0.226844 0.199296
vt 0.226842 0.199296
vt 0.226730 0.199296
vt 0.226734 0.199296
vt 0.226780 0.200291
vt 0.226775 0.200300
vt 0.226799 0.192755
vt 0.226731 0.199387
vt 0.226727 0.199387
vt 0.226830 0.199473
vt 0.226695 0.192751
vt 0.226694 0.192751
vt 0.226833 0.199473
vt 0.485489 0.156965
vt 0.485894 0.156993
vt 0.485886 0.156885
vt 0.485492 0.156857
vt 0.485898 0.156851
vt 0.485509 0.156822
vt 0.485901 0.156905
vt 0.485899 0.156977
vt 0.485706 0.156946
vt 0.486460 0.157032
vt 0.486490 0.157001
vt 0.486488 0.156894
vt 0.486459 0.156926
vt 0.485506 0.156932
vt 0.486197 0.156980
vt 0.226836 0.199385
vt 0.226695 0.192663
vt 0.226694 0.192663
vt 0.226838 0.199384
vt 0.226801 0.192755
vn 0.000000 0.000000 1.000000
vn 0.000000 0.000000 1.000000
vn 0.000000 -0.000000 1.000000
vn 0.000000 0.000000 1.000000
vn -0.000000 1.000000 0.000000
vn -0.000000 1.000000 0.000000
vn -0.000000 1.000000 0.000000
vn -0.000000 1.000000 0.000000
vn 1.000000 0.000000 0.000000
vn 1.000000 0.000000 0.000000
vn 1.000000 0.000616 -0.000014
vn 1.000000 -0.000644 0.000022
vn -1.000000 0.000000 0.000000
vn -1.000000 0.000000 0.000000
vn -1.000000 -0.000636 0.000018
vn -1.000000 0.000624 -0.000018
vn 0.000000 0.000000 -1.000000
vn 0.000000 0.000000 -1.000000
vn 0.000000 0.000000 -1.000000
vn 0.000000 0.000000 -1.000000
vn 0.958374 -0.285517 0.000000
vn 0.958374 -0.285517 0.000000
vn 0.958374 -0.285517 0.000000
vn 0.958374 -0.285517 0.000000
vn -0.958374 -0.285517 0.000000
vn -0.958374 -0.285517 0.000000
vn -0.958374 -0.285517 0.000000
vn -0.958374 -0.285517 0.000000
vn 0.000000 0.000000 1.000000
vn -0.000000 -0.000000 1.000000
vn -0.000000 -0.000000 1.000000
vn 0.000000 0.000000 1.000000
vn -0.000000 1.000000 0.000000
vn -0.000000 1.000000 0.000000
vn -0.000000 1.000000 0.000000
vn -0.000000 1.000000 0.000000
vn -0.000000 0.000000 -1.000000
vn -0.000000 0.000000 -1.000000
vn 0.000000 0.000000 -1.000000
vn 0.000000 0.000000 -1.000000
vn 0.000000 0.000000 1.000000
vn 0.000000 -0.000000 1.000000
vn 0.000000 0.000000 1.000000
vn 0.000000 0.000000 1.000000
vn 0.999929 -0.011953 0.000255
vn 0.999929 -0.011953 0.000255
vn 1.000000 0.000000 0.000000
vn 1.000000 0.000000 0.000000
vn -0.999946 -0.010409 0.000220
vn -0.999946 -0.010409 0.000220
vn -1.000000 0.000000 0.000000
vn -1.000000 0.000000 0.000000
vn 0.000000 0.000000 -1.000000
vn 0.000000 0.000000 -1.000000
vn 0.000000 0.000000 -1.000000
vn 0.000000 0.000000 -1.000000
vn -0.000000 -0.000000 1.000000
vn -0.000000 0.000000 1.000000
vn -0.000000 0.000000 1.000000
vn -0.000000 0.000000 1.000000
vn 0.000000 0.000000 -1.000000
vn -0.000000 0.000000 -1.000000
vn 0.000000 0.000000 -1.000000
vn 0.000000 0.000000 -1.000000
vn 0.000000 -0.000000 -1.000000
vn 0.000000 -0.000000 -1.000000
vn 0.000000 -0.000000 -1.000000
vn 0.000000 -0.000000 -1.000000
vn 0.020964 -0.997628 0.065561
vn 0.020964 -0.997628 0.065561
vn 0.020964 -0.997628 0.065561
vn 0.020964 -0.997628 0.065561
vn 0.190609 0.769701 0.609286
vn 0.190609 0.769701 0.609286
vn 0.190609 0.769701 0.609286
vn 1.000000 0.000000 0.000000
vn 1.000000 0.000000 0.000000
vn 1.000000 0.000000 0.000000
vn 1.000000 0.000000 0.000000
vn -1.000000 0.000000 0.000000
vn -1.000000 0.000000 0.000000
vn -1.000000 0.000000 0.000000
vn -1.000000 0.000000 0.000000
vn 0.000000 -0.000000 -1.000000
vn 0.000000 -0.000000 -1.000000
vn 0.000000 -0.000000 -1.000000
vn 0.000000 -0.000000 -1.000000
vn -0.014107 -0.997841 0.064146
vn -0.014107 -0.997841 0.064146
vn -0.014107 -0.997841 0.064146
vn -0.014107 -0.997841 0.064146
vn -0.000000 0.000000 1.000000
vn -0.000000 0.000000 1.000000
vn -0.000000 0.000000 1.000000
vn -0.000000 0.000000 1.000000
vn -0.000000 0.000000 1.000000
vn -0.000001 1.000000 -0.000000
vn -0.000001 1.000000 -0.000000
vn -0.000001 1.000000 -0.000000
vn -0.000001 1.000000 -0.000000
vn -0.000001 1.000000 -0.000000
vn 0.000001 1.000000 0.000000
vn 0.000001 1.000000 0.000000
vn 0.000001 1.000000 0.000000
vn 0.000001 1.000000 0.000000
vn 0.000001 1.000000 0.000000
vn 0.000000 0.000000 1.000000
vn 0.000000 0.000000 1.000000
vn 0.000000 0.000000 1.000000
vn 0.000000 0.000000 1.000000
vn 0.000000 0.000000 1.000000
vn -0.130515 0.800881 0.584428
vn -0.130515 0.800881 0.584428
vn -0.130515 0.800881 0.584428
vn -0.000000 -0.000000 1.000000
vn -0.000000 0.000000 1.000000
vn -0.000000 -0.000000 1.000000
vn 0.000000 0.000000 -1.000000
vn 0.000000 0.000000 -1.000000
vn -0.000000 0.000000 -1.000000
vn 0.000000 0.000000 -1.000000
vn 0.000000 0.000000 -1.000000
vn 0.000000 0.000000 -1.000000
vn 0.000000 0.000000 1.000000
vn 0.000000 -0.000000 1.000000
vn 0.000000 -0.000000 1.000000
s off
f 1/1/1 10/2/2 16/21/3 35/43/4
f 3/4/5 11/3/6 12/5/7 5/6/8
f 2/8/9 8/9/10 14/18/11 15/19/12
f 7/7/13 1/1/14 35/43/15 13/17/16
f 12/5/17 34/41/18 13/17/19 5/6/20
f 8/9/21 2/8/22 10/16/23 9/15/24
f 1/1/25 7/7/26 9/10/27 10/2/28
f 11/12/29 33/39/30 15/19/31 4/13/32
f 12/11/33 11/12/34 4/13/35 6/14/36
f 8/9/37 9/15/38 17/23/39 14/18/40
f 35/43/41 33/40/42 11/3/43 3/4/44
f 15/19/45 14/18/46 6/14/47 4/13/48
f 13/17/49 35/43/50 3/4/51 5/6/52
f 13/17/53 17/22/54 9/10/55 7/7/56
f 15/19/57 16/20/58 10/16/59 2/8/60
f 14/18/61 34/42/62 12/11/63 6/14/64
f 18/24/65 26/25/66 27/26/67 20/27/68
f 20/27/69 27/26/70 28/28/71 22/29/72
f 31/30/73 32/31/74 29/32/75
f 19/33/76 25/34/77 23/35/78 21/36/79
f 24/37/80 18/24/81 20/27/82 22/29/83
f 27/26/84 26/25/85 19/33/86 21/36/87
f 28/28/88 27/26/89 21/36/90 23/35/91
f 30/38/92 31/30/93 28/28/94 23/35/95 25/34/96
f 26/25/97 32/31/98 30/38/99 25/34/100 19/33/101
f 24/37/102 29/32/103 32/31/104 26/25/105 18/24/106
f 22/29/107 28/28/108 31/30/109 29/32/110 24/37/111
f 31/30/112 30/38/113 32/31/114
f 33/39/115 16/20/116 15/19/117
f 14/18/118 17/23/119 34/42/120
f 13/17/121 34/41/122 17/22/123
f 35/43/124 16/21/125 33/40/126
