# This file uses centimeters as units for non-parametric coordinates.

v -11.868530 -42.390167 2.711365
v 14.412415 -41.233963 5.365570
v -11.881287 -42.081108 4.390045
v 13.954041 -40.028206 6.929871
v -13.554932 -2.156284 1.398132
v 14.253967 -8.422745 1.924561
v -13.554932 -2.156284 0.000031
v 14.253967 -8.422745 0.526459
v 14.704346 -29.247650 4.098419
v 14.788574 -31.282646 2.459473
v 0.074524 -42.144615 4.392487
v 1.577942 -42.406021 2.711365
v -13.801208 0.984352 1.683563
v 13.307861 1.169910 1.683563
v 13.307861 1.169910 0.000031
v -13.801208 0.984352 0.000031
v -12.841125 -19.187134 1.147736
v -12.848633 -19.006775 2.660889
v 14.458191 -17.864937 2.910187
v 14.479187 -18.051476 1.340668
v 7.439819 -29.711983 3.633453
v -12.349121 -30.922318 3.553833
v -12.344604 -31.030754 1.945862
v 7.554810 -31.123199 2.076355
v -13.263428 -9.112255 1.919403
v -13.259338 -9.209625 0.475372
v 0.238251 -0.560637 -0.080477
v 1.016634 -0.510822 -0.026566
v -0.852847 0.528184 9.133133
v 0.651599 0.624465 9.237331
v -0.956374 2.020902 8.887836
v 0.548072 2.117183 8.992034
v 0.184687 0.211683 -0.207392
v 0.963070 0.261498 -0.153481
v -2.699387 -31.223644 4.583254
v -5.145411 -29.903505 4.509571
v -7.779621 -30.682619 4.567298
v -9.058931 -33.104588 4.722621
v -8.233939 -35.750656 4.884553
v -5.787914 -37.070789 4.958237
v -3.153704 -36.291679 4.900508
v -1.874395 -33.869713 4.745186
v -2.498347 -31.125484 3.473372
v -5.124434 -29.708166 3.394264
v -7.952559 -30.544632 3.456242
v -9.326046 -33.144894 3.622998
v -8.440323 -35.985748 3.796851
v -5.814235 -37.403065 3.875958
v -2.986110 -36.566601 3.813981
v -1.612623 -33.966339 3.647224
v -3.020036 -31.474705 4.786642
v -5.182236 -30.307751 4.721508
v -7.510784 -30.996460 4.772538
v -8.641651 -33.137394 4.909838
v -7.912386 -35.476425 5.052979
v -5.750186 -36.643379 5.118113
v -3.421638 -35.954670 5.067083
v -2.290771 -33.813736 4.929783
v -3.490359 -31.876873 4.522684
v -5.237457 -30.933950 4.470055
v -7.118969 -31.490440 4.511287
v -8.032730 -33.220356 4.622228
v -7.443470 -35.110336 4.737890
v -5.696372 -36.053261 4.790519
v -3.814861 -35.496769 4.749286
v -2.901099 -33.766853 4.638345
v -4.033627 -32.988083 4.601693
v -5.469669 -32.061253 4.548980
v -6.759608 -32.697777 4.593132
v -7.396299 -33.287682 4.632098
v -6.884698 -34.093185 4.680483
v -5.646573 -34.034664 4.672514
v -4.158717 -34.383492 4.689044
v -3.541178 -33.698235 4.644206
v -5.561104 -33.018036 4.820534
vt 0.765613 0.045346
vt 0.765614 0.045475
vt 0.765174 0.045453
vt 0.765166 0.045278
vt 0.766863 0.030241
vt 0.742928 0.036744
vt 0.765198 0.038029
vt 0.766166 0.045071
vt 0.765483 0.044939
vt 0.765486 0.045105
vt 0.766158 0.045240
vt 0.765370 0.045234
vt 0.765366 0.045064
vt 0.766158 0.045240
vt 0.765943 0.045528
vt 0.765934 0.045389
vt 0.766166 0.045071
vt 0.766776 0.029405
vt 0.765472 0.045129
vt 0.765483 0.044946
vt 0.726263 0.036810
vt 0.726574 0.040037
vt 0.766301 0.044267
vt 0.726486 0.044688
vt 0.766067 0.045362
vt 0.766068 0.045205
vt 0.726263 0.043540
vt 0.726263 0.030563
vt 0.765431 0.044999
vt 0.765437 0.045160
vt 0.766067 0.045362
vt 0.765437 0.045160
vt 0.765431 0.044999
vt 0.766832 0.044700
vt 0.766068 0.045205
vt 0.766832 0.028968
vt 0.755168 0.030445
vt 0.765999 0.045300
vt 0.726263 0.029465
vt 0.766004 0.045447
vt 0.765532 0.045329
vt 0.765532 0.045329
vt 0.765370 0.045234
vt 0.766004 0.045447
vt 0.726263 0.053537
vt 0.765999 0.045300
vt 0.755168 0.054517
vt 0.765366 0.045064
vt 0.766863 0.054314
vt 0.766125 0.045126
vt 0.726666 0.029230
vt 0.766121 0.045290
vt 0.766121 0.045290
vt 0.765472 0.045129
vt 0.766832 0.043990
vt 0.766125 0.045126
vt 0.765483 0.044946
vt 0.726307 0.043676
vt 0.057089 0.227857
vt 0.056938 0.227852
vt 0.057623 0.227674
vt 0.057933 0.227687
vt 0.057611 0.227331
vt 0.057919 0.227346
vt 0.056932 0.227686
vt 0.057084 0.227692
vt 0.146835 0.419833
vt 0.146673 0.419631
vt 0.146688 0.419730
vt 0.146859 0.419948
vt 0.146721 0.420061
vt 0.146740 0.420193
vt 0.146371 0.420166
vt 0.146371 0.420308
vt 0.146013 0.420071
vt 0.145994 0.420204
vt 0.145883 0.419847
vt 0.145859 0.419962
vt 0.146031 0.419640
vt 0.146016 0.419739
vt 0.146350 0.419556
vt 0.146350 0.419650
vt 0.146782 0.419814
vt 0.146640 0.419635
vt 0.146679 0.420014
vt 0.146369 0.420106
vt 0.146054 0.420023
vt 0.145936 0.419826
vt 0.146067 0.419642
vt 0.146351 0.419568
vt 0.146699 0.419846
vt 0.146586 0.419700
vt 0.146614 0.420006
vt 0.146367 0.420079
vt 0.146116 0.420014
vt 0.146020 0.419856
vt 0.146123 0.419706
vt 0.146353 0.419644
vt 0.146407 0.419850
vt 0.146389 0.419767
vt 0.146397 0.419938
vt 0.146364 0.419976
vt 0.146329 0.419939
vt 0.146313 0.419852
vt 0.146324 0.419767
vt 0.146356 0.419733
vt 0.146360 0.419813
vn 0.028519 -0.904262 0.426025
vn 0.028519 -0.904262 0.426025
vn 0.028519 -0.904262 0.426025
vn 0.028519 -0.904262 0.426025
vn -0.212073 0.262032 0.941469
vn -0.212073 0.262032 0.941469
vn -0.212073 0.262032 0.941469
vn -0.006845 0.999977 0.000000
vn -0.006845 0.999977 0.000000
vn -0.006845 0.999977 0.000000
vn -0.006845 0.999977 0.000000
vn 0.984969 -0.005740 0.172636
vn 0.984969 -0.005740 0.172636
vn 0.984969 -0.005740 0.172636
vn 0.984969 -0.005740 0.172636
vn -0.999123 -0.041877 0.000008
vn -0.999123 -0.041877 0.000008
vn -0.999123 -0.041882 0.000022
vn -0.999123 -0.041882 0.000021
vn 0.218908 -0.281138 -0.934367
vn 0.218908 -0.281138 -0.934367
vn 0.218908 -0.281138 -0.934367
vn 0.999650 0.023653 0.011866
vn 0.999650 0.023653 0.011866
vn 0.999648 0.023667 0.011991
vn 0.999650 0.023652 0.011834
vn 0.050888 -0.082967 -0.995252
vn 0.050882 -0.082968 -0.995252
vn 0.050888 -0.082967 -0.995252
vn -0.001453 0.074178 0.997244
vn -0.001453 0.074178 0.997244
vn -0.009237 0.070307 0.997483
vn -0.008287 0.069996 0.997513
vn -0.003097 -0.986116 0.166027
vn -0.003097 -0.986116 0.166027
vn -0.003097 -0.986116 0.166027
vn -0.003097 -0.986116 0.166027
vn 0.002647 -0.066218 -0.997802
vn 0.006523 -0.063209 -0.997979
vn 0.007081 -0.063323 -0.997968
vn 0.002647 -0.066218 -0.997802
vn -0.009853 -0.002419 0.999949
vn -0.009853 -0.002419 0.999949
vn -0.009853 -0.002419 0.999949
vn -0.009853 -0.002419 0.999949
vn 0.997668 0.068254 0.000000
vn 0.997668 0.068254 0.000000
vn 0.997668 0.068254 0.000000
vn 0.997668 0.068254 0.000000
vn 0.007201 -0.021514 -0.999743
vn 0.007201 -0.021514 -0.999743
vn 0.007201 -0.021514 -0.999743
vn 0.007201 -0.021514 -0.999743
vn -0.999242 -0.038921 0.000000
vn -0.999242 -0.038921 0.000000
vn -0.999242 -0.038921 0.000000
vn -0.999242 -0.038921 0.000000
vn -0.999123 -0.041880 0.000048
vn -0.999123 -0.041880 0.000047
vn -0.999123 -0.041878 0.000050
vn -0.999123 -0.041878 0.000050
vn -0.070032 0.102070 0.992309
vn -0.070037 0.102073 0.992308
vn -0.070032 0.102070 0.992309
vn 0.999650 0.023652 0.011834
vn 0.999648 0.023667 0.011991
vn 0.999650 0.023653 0.011866
vn 0.999650 0.023653 0.011866
vn -0.009070 0.079558 0.996789
vn -0.008734 0.081630 0.996625
vn -0.001453 0.074178 0.997244
vn -0.006098 0.084932 0.996368
vn 0.007563 -0.070455 -0.997486
vn 0.007683 -0.069227 -0.997571
vn 0.006192 -0.073147 -0.997302
vn 0.002647 -0.066218 -0.997802
vn -0.070037 0.102072 0.992309
vn -0.070037 0.102073 0.992308
vn -0.070032 0.102070 0.992309
vn -0.008287 0.069996 0.997513
vn -0.009237 0.070307 0.997483
vn -0.008734 0.081630 0.996625
vn -0.009070 0.079558 0.996789
vn -0.999123 -0.041882 0.000021
vn -0.999123 -0.041882 0.000022
vn -0.999123 -0.041880 0.000047
vn -0.999123 -0.041880 0.000048
vn 0.007081 -0.063323 -0.997968
vn 0.006523 -0.063209 -0.997979
vn 0.007683 -0.069227 -0.997571
vn 0.007563 -0.070455 -0.997486
vn 0.050888 -0.082967 -0.995252
vn 0.050882 -0.082968 -0.995252
vn 0.050882 -0.082967 -0.995252
vn -0.006098 0.084932 0.996368
vn -0.001453 0.074178 0.997244
vn -0.001453 0.074178 0.997244
vn -0.999123 -0.041878 0.000050
vn -0.999123 -0.041877 0.000008
vn -0.999123 -0.041877 0.000008
vn -0.999123 -0.041878 0.000050
vn 0.002647 -0.066218 -0.997802
vn 0.006192 -0.073147 -0.997302
vn 0.002647 -0.066218 -0.997802
vn 0.054851 -0.990817 0.123586
vn 0.054851 -0.990817 0.123586
vn 0.054851 -0.990817 0.123586
vn 0.054851 -0.990817 0.123586
vn -0.078202 0.156375 0.984597
vn -0.078202 0.156375 0.984597
vn -0.078202 0.156375 0.984597
vn -0.078202 0.156375 0.984597
vn -0.048714 0.978432 -0.200741
vn -0.048714 0.978432 -0.200741
vn -0.048714 0.978432 -0.200741
vn -0.048714 0.978432 -0.200741
vn 0.078201 -0.156374 -0.984597
vn 0.078201 -0.156374 -0.984597
vn 0.078201 -0.156374 -0.984597
vn 0.078201 -0.156374 -0.984597
vn 0.996794 0.074095 0.030198
vn 0.996794 0.074095 0.030198
vn 0.996794 0.074095 0.030198
vn 0.996794 0.074095 0.030198
vn -0.990496 -0.086295 -0.107099
vn -0.990496 -0.086295 -0.107099
vn -0.990496 -0.086295 -0.107099
vn -0.990496 -0.086295 -0.107099
vn 0.464972 0.870524 0.161213
vn 0.464972 0.870524 0.161213
vn 0.464972 0.870524 0.161213
vn 0.464972 0.870524 0.161213
vn -0.276694 0.947421 0.160732
vn -0.276694 0.947421 0.160732
vn -0.276694 0.947421 0.160732
vn -0.276694 0.947421 0.160732
vn -0.862562 0.467952 0.192376
vn -0.862562 0.467952 0.192376
vn -0.862562 0.467952 0.192376
vn -0.862562 0.467952 0.192376
vn -0.931628 -0.275995 0.236422
vn -0.931628 -0.275995 0.236422
vn -0.931628 -0.275995 0.236422
vn -0.931628 -0.275995 0.236422
vn -0.463559 -0.843819 0.270338
vn -0.463559 -0.843819 0.270338
vn -0.463559 -0.843819 0.270338
vn -0.463559 -0.843819 0.270338
vn 0.278179 -0.920106 0.275720
vn 0.278179 -0.920106 0.275720
vn 0.278179 -0.920106 0.275720
vn 0.278179 -0.920106 0.275720
vn 0.863738 -0.440544 0.244699
vn 0.863738 -0.440544 0.244699
vn 0.863738 -0.440544 0.244699
vn 0.863738 -0.440544 0.244699
vn 0.932742 0.302789 0.195732
vn 0.932742 0.302789 0.195732
vn 0.932742 0.302789 0.195732
vn 0.932742 0.302789 0.195732
vn 0.210518 0.438817 0.873568
vn 0.210518 0.438817 0.873568
vn 0.210518 0.438817 0.873568
vn 0.210518 0.438817 0.873568
vn -0.119700 0.469526 0.874767
vn -0.119700 0.469526 0.874767
vn -0.119700 0.469526 0.874767
vn -0.119700 0.469526 0.874767
vn -0.378694 0.257050 0.889110
vn -0.378694 0.257050 0.889110
vn -0.378694 0.257050 0.889110
vn -0.378694 0.257050 0.889110
vn -0.413032 -0.073223 0.907768
vn -0.413032 -0.073223 0.907768
vn -0.413032 -0.073223 0.907768
vn -0.413032 -0.073223 0.907768
vn -0.204323 -0.327083 0.922642
vn -0.204323 -0.327083 0.922642
vn -0.204323 -0.327083 0.922642
vn -0.204323 -0.327083 0.922642
vn 0.125956 -0.357292 0.925461
vn 0.125956 -0.357292 0.925461
vn 0.125956 -0.357292 0.925461
vn 0.125956 -0.357292 0.925461
vn 0.384702 -0.144741 0.911622
vn 0.384702 -0.144741 0.911622
vn 0.384702 -0.144741 0.911622
vn 0.384702 -0.144741 0.911622
vn 0.418980 0.185031 0.888943
vn 0.418980 0.185031 0.888943
vn 0.418980 0.185031 0.888943
vn 0.418980 0.185031 0.888943
vn -0.215055 -0.347525 0.912676
vn -0.215055 -0.347525 0.912676
vn -0.215055 -0.347525 0.912676
vn -0.215055 -0.347525 0.912676
vn 0.132277 -0.379382 0.915736
vn 0.132277 -0.379382 0.915736
vn 0.132277 -0.379382 0.915736
vn 0.132277 -0.379382 0.915736
vn 0.404428 -0.155829 0.901197
vn 0.404428 -0.155829 0.901197
vn 0.404428 -0.155829 0.901197
vn 0.404428 -0.155829 0.901197
vn 0.440377 0.190987 0.877264
vn 0.440377 0.190987 0.877264
vn 0.440377 0.190987 0.877264
vn 0.440377 0.190987 0.877264
vn 0.221164 0.457846 0.861083
vn 0.221164 0.457846 0.861083
vn 0.221164 0.457846 0.861083
vn 0.221164 0.457846 0.861083
vn -0.126101 0.490251 0.862411
vn -0.126101 0.490251 0.862411
vn -0.126101 0.490251 0.862411
vn -0.126101 0.490251 0.862411
vn -0.398524 0.266780 0.877501
vn -0.398524 0.266780 0.877501
vn -0.398524 0.266780 0.877501
vn -0.398524 0.266780 0.877501
vn -0.434537 -0.080584 0.897041
vn -0.434537 -0.080584 0.897041
vn -0.434537 -0.080584 0.897041
vn -0.434537 -0.080584 0.897041
vn 0.006921 0.067991 0.997662
vn 0.006921 0.067991 0.997662
vn 0.006921 0.067991 0.997662
vn 0.006921 0.067991 0.997662
vn 0.000996 0.068754 0.997633
vn 0.000996 0.068754 0.997633
vn 0.000996 0.068754 0.997633
vn 0.000996 0.068754 0.997633
vn -0.005046 0.067843 0.997683
vn -0.005046 0.067843 0.997683
vn -0.005046 0.067843 0.997683
vn -0.005046 0.067843 0.997683
vn -0.006476 0.058111 0.998289
vn -0.006476 0.058111 0.998289
vn -0.006476 0.058111 0.998289
vn -0.006476 0.058111 0.998289
vn 0.002034 0.057279 0.998356
vn 0.002034 0.057279 0.998356
vn 0.002034 0.057279 0.998356
vn 0.002034 0.057279 0.998356
vn 0.003795 0.057177 0.998357
vn 0.003795 0.057177 0.998357
vn 0.003795 0.057177 0.998357
vn 0.003795 0.057177 0.998357
vn 0.012586 0.056412 0.998328
vn 0.012586 0.056412 0.998328
vn 0.012586 0.056412 0.998328
vn 0.012586 0.056412 0.998328
vn 0.013232 0.066199 0.997719
vn 0.013232 0.066199 0.997719
vn 0.013232 0.066199 0.997719
vn 0.013232 0.066199 0.997719
vn 0.132006 0.258952 0.956827
vn 0.132006 0.258952 0.956827
vn 0.132006 0.258952 0.956827
vn -0.105940 0.280856 0.953885
vn -0.105940 0.280856 0.953885
vn -0.105940 0.280856 0.953885
vn -0.129607 0.203983 0.970357
vn -0.129607 0.203983 0.970357
vn -0.129607 0.203983 0.970357
vn -0.101460 -0.004683 0.994829
vn -0.101460 -0.004683 0.994829
vn -0.101460 -0.004683 0.994829
vn 0.013229 -0.145157 0.989320
vn 0.013229 -0.145157 0.989320
vn 0.013229 -0.145157 0.989320
vn -0.043889 -0.140327 0.989132
vn -0.043889 -0.140327 0.989132
vn -0.043889 -0.140327 0.989132
vn 0.083578 -0.010117 0.996450
vn 0.083578 -0.010117 0.996450
vn 0.083578 -0.010117 0.996450
vn 0.137182 0.153707 0.978548
vn 0.137182 0.153707 0.978548
vn 0.137182 0.153707 0.978548
s off
f 11/1/1 12/2/2 2/3/3 4/4/4
f 9/49/5 11/6/6 4/7/7
f 13/8/8 14/9/9 15/10/10 16/11/11
f 10/12/12 9/48/13 4/4/14 2/3/15
f 25/56/16 26/53/17 17/25/18 18/35/19
f 12/2/20 10/12/21 2/3/22
f 9/13/23 10/43/24 20/30/25 19/33/26
f 12/2/27 24/42/28 10/12/29
f 3/21/30 11/6/31 21/47/32 22/45/33
f 1/15/34 12/2/35 11/1/36 3/16/37
f 1/15/38 23/44/39 24/42/40 12/2/41
f 5/22/42 6/18/43 14/23/44 13/24/45
f 6/20/46 8/54/47 15/10/48 14/9/49
f 8/54/50 7/14/51 16/11/52 15/10/53
f 7/14/54 5/17/55 13/8/56 16/11/57
f 22/46/58 23/44/59 1/15/60 3/16/61
f 9/49/62 21/47/63 11/6/64
f 19/29/65 20/32/66 8/19/67 6/57/68
f 18/36/69 19/28/70 6/58/71 25/55/72
f 20/32/73 17/25/74 26/53/75 8/19/76
f 19/34/77 21/37/78 9/5/79
f 22/39/80 21/37/81 19/34/82 18/27/83
f 18/26/84 17/31/85 23/40/86 22/38/87
f 24/41/88 23/40/89 17/31/90 20/30/91
f 10/43/92 24/41/93 20/30/94
f 25/51/95 6/18/96 5/22/97
f 7/14/98 26/52/99 25/50/100 5/17/101
f 8/54/102 26/52/103 7/14/104
f 27/59/105 28/60/106 30/61/107 29/62/108
f 29/62/109 30/61/110 32/63/111 31/64/112
f 31/64/113 32/63/114 34/65/115 33/66/116
f 33/66/117 34/65/118 28/60/119 27/59/120
f 28/60/121 34/65/122 32/63/123 30/61/124
f 33/66/125 27/59/126 29/62/127 31/64/128
f 36/67/129 35/68/130 43/69/131 44/70/132
f 37/71/133 36/67/134 44/70/135 45/72/136
f 38/73/137 37/71/138 45/72/139 46/74/140
f 39/75/141 38/73/142 46/74/143 47/76/144
f 40/77/145 39/75/146 47/76/147 48/78/148
f 41/79/149 40/77/150 48/78/151 49/80/152
f 42/81/153 41/79/154 49/80/155 50/82/156
f 35/68/157 42/81/158 50/82/159 43/69/160
f 35/68/161 36/67/162 52/83/163 51/84/164
f 36/67/165 37/71/166 53/85/167 52/83/168
f 37/71/169 38/73/170 54/86/171 53/85/172
f 38/73/173 39/75/174 55/87/175 54/86/176
f 39/75/177 40/77/178 56/88/179 55/87/180
f 40/77/181 41/79/182 57/89/183 56/88/184
f 41/79/185 42/81/186 58/90/187 57/89/188
f 42/81/189 35/68/190 51/84/191 58/90/192
f 51/84/193 52/83/194 60/91/195 59/92/196
f 52/83/197 53/85/198 61/93/199 60/91/200
f 53/85/201 54/86/202 62/94/203 61/93/204
f 54/86/205 55/87/206 63/95/207 62/94/208
f 55/87/209 56/88/210 64/96/211 63/95/212
f 56/88/213 57/89/214 65/97/215 64/96/216
f 57/89/217 58/90/218 66/98/219 65/97/220
f 58/90/221 51/84/222 59/92/223 66/98/224
f 59/92/225 60/91/226 68/99/227 67/100/228
f 60/91/229 61/93/230 69/101/231 68/99/232
f 61/93/233 62/94/234 70/102/235 69/101/236
f 62/94/237 63/95/238 71/103/239 70/102/240
f 63/95/241 64/96/242 72/104/243 71/103/244
f 64/96/245 65/97/246 73/105/247 72/104/248
f 65/97/249 66/98/250 74/106/251 73/105/252
f 66/98/253 59/92/254 67/100/255 74/106/256
f 67/100/257 68/99/258 75/107/259
f 68/99/260 69/101/261 75/107/262
f 69/101/263 70/102/264 75/107/265
f 70/102/266 71/103/267 75/107/268
f 71/103/269 72/104/270 75/107/271
f 72/104/272 73/105/273 75/107/274
f 73/105/275 74/106/276 75/107/277
f 74/106/278 67/100/279 75/107/280
