# This file uses centimeters as units for non-parametric coordinates.

v 19.502930 1.565430 6.937988
v 19.502930 23.715088 6.937988
v -10.002930 1.565430 6.937988
v -10.000977 23.715088 6.937988
v -10.002930 1.565430 -5.454590
v -10.000977 23.715088 -5.454590
v 19.502930 1.565430 -5.454590
v 19.502930 23.715088 -5.454590
v 19.502930 41.277344 6.937988
v 19.502930 67.608887 6.937988
v -10.000977 41.277588 6.937988
v -10.000977 67.608887 6.937988
v -10.000977 41.277588 -5.454590
v -10.000977 67.608887 -5.454590
v 19.502930 41.277344 -5.454590
v 19.502930 67.608887 -5.454590
v 19.502930 84.909180 6.937988
v 19.502930 106.911377 6.937988
v -10.000977 84.909180 6.937988
v -10.000977 106.911377 6.937988
v -10.000977 84.909180 -5.454590
v -10.000977 106.911377 -5.454590
v 19.502930 84.909180 -5.454590
v 19.502930 106.911377 -5.454590
v 346.264648 29.183350 6.937988
v 366.418945 71.693848 6.937988
v 34.801758 14.527832 6.937988
v 34.801758 93.948975 6.937988
v 32.756836 14.077637 -5.454590
v 32.756836 94.398926 -5.454590
v 346.263672 29.183350 -5.454590
v 346.263672 74.472900 -5.454590
v 81.182617 16.088867 6.937988
v 81.182617 92.387695 6.937988
v 81.182617 92.387695 -5.454590
v 81.182617 16.088867 -5.454590
v 76.141602 104.273682 6.937988
v 76.141602 104.273682 -5.454590
v 76.141602 4.203125 -5.454590
v 76.141602 4.203125 6.937988
v 570.645508 53.965820 6.937988
v 603.991211 57.997559 6.937988
v 606.431641 57.758789 -5.454590
v 570.645508 53.965820 -5.454590
v 226.586914 81.857178 6.937988
v 206.432617 84.063721 -5.454590
v 207.807617 93.771484 -5.454590
v 207.807617 93.771484 6.937988
v 407.663086 46.384277 6.937988
v 206.434570 22.773193 6.937988
v 32.756836 56.191406 6.937988
v 47.797852 20.279297 6.937988
v 43.768555 40.914551 6.937988
v 32.756836 75.804688 6.937988
v 42.250977 87.701660 6.937988
v 364.315430 22.173096 6.937988
v 365.064453 22.168701 -5.454590
v 361.311523 81.384766 6.938232
v 363.633789 81.414063 -5.454590
v 0.500977 1.565430 12.765869
v 0.500977 23.715332 12.765869
v 0.500977 23.715332 -11.282471
v 0.500977 1.565430 -11.282471
v 0.500977 41.277832 12.765869
v 0.500977 67.608887 12.765869
v 0.500977 67.608887 -11.282471
v 0.500977 41.277832 -11.282471
v 0.501953 84.909180 12.765869
v 0.501953 106.911377 12.765869
v 0.500977 106.911377 -11.282471
v 0.500977 84.909180 -11.282471
v 207.807617 13.061523 6.937988
v 207.807617 13.093506 -5.454590
v 206.432617 22.768066 -5.454590
v 599.564453 47.495117 6.937988
v 602.284180 47.926025 -5.454590
vt 0.167569 0.012869
vt 0.167560 0.012870
vt 0.167561 0.012881
vt 0.167569 0.012880
vt 0.167560 0.012881
vt 0.167568 0.012881
vt 0.167560 0.012871
vt 0.167568 0.012871
vt 0.167545 0.012870
vt 0.167537 0.012870
vt 0.167537 0.012881
vt 0.167545 0.012881
vt 0.167537 0.012882
vt 0.167545 0.012882
vt 0.167537 0.012871
vt 0.167545 0.012871
vt 0.167533 0.012870
vt 0.167525 0.012870
vt 0.167525 0.012881
vt 0.167533 0.012881
vt 0.167526 0.012882
vt 0.167533 0.012882
vt 0.167526 0.012871
vt 0.167533 0.012871
vt 0.019501 0.038181
vt 0.019293 0.038181
vt 0.019296 0.038199
vt 0.019498 0.038205
vt 0.020383 0.037738
vt 0.020373 0.038738
vt 0.019914 0.038238
vt 0.019036 0.038187
vt 0.167619 0.012833
vt 0.167619 0.012833
vt 0.167619 0.012733
vt 0.167619 0.012734
vt 0.020373 0.038725
vt 0.020383 0.037739
vt 0.019307 0.038280
vt 0.019488 0.038266
vt 0.167629 0.012824
vt 0.167630 0.012825
vt 0.167629 0.012761
vt 0.167629 0.012759
vt 0.167624 0.012852
vt 0.167624 0.012855
vt 0.167627 0.012855
vt 0.167629 0.012852
vt 0.167627 0.012855
vt 0.167629 0.012852
vt 0.167630 0.012855
vt 0.167619 0.012705
vt 0.167624 0.012716
vt 0.167624 0.012719
vt 0.167620 0.012710
vt 0.167620 0.012709
vt 0.167624 0.012719
vt 0.167624 0.012716
vt 0.167619 0.012705
vt 0.167619 0.012852
vt 0.167620 0.012832
vt 0.167619 0.012855
vt 0.167629 0.012825
vt 0.167620 0.012741
vt 0.167628 0.012752
vt 0.167620 0.012737
vt 0.167628 0.012747
vt 0.167629 0.012702
vt 0.167628 0.012706
vt 0.167629 0.012702
vt 0.167628 0.012707
vt 0.167625 0.012714
vt 0.167625 0.012714
vt 0.019301 0.038302
vt 0.019486 0.038302
vt 0.167620 0.012832
vt 0.019808 0.010094
vt 0.019819 0.010084
vt 0.019827 0.010092
vt 0.019857 0.009885
vt 0.019862 0.009876
vt 0.019859 0.009921
vt 0.167619 0.012855
vt 0.167629 0.012855
vt 0.167620 0.012852
vt 0.167629 0.012824
vt 0.019848 0.010094
vt 0.019306 0.038281
vt 0.019472 0.038286
vt 0.019446 0.038292
vt 0.019361 0.038292
vt 0.019352 0.038290
vt 0.019818 0.009875
vt 0.019809 0.009882
vt 0.019805 0.009876
vt 0.019431 0.038183
vt 0.019295 0.038199
vt 0.019310 0.038184
vt 0.019341 0.038181
vt 0.019392 0.038181
vt 0.019842 0.009883
vt 0.019832 0.009875
vt 0.019499 0.038205
vt 0.019485 0.038185
vt 0.019805 0.009897
vt 0.167624 0.012855
vt 0.167622 0.012855
vt 0.167621 0.012855
vt 0.167621 0.012855
vt 0.167621 0.012855
vt 0.167622 0.012852
vt 0.167568 0.012853
vt 0.167560 0.012853
vt 0.167560 0.012855
vt 0.167568 0.012854
vt 0.167545 0.012854
vt 0.167537 0.012854
vt 0.167537 0.012855
vt 0.167545 0.012855
vt 0.167533 0.012854
vt 0.167525 0.012854
vt 0.167526 0.012856
vt 0.167534 0.012855
vt 0.019393 0.038293
vn -0.485192 0.000021 0.874407
vn -0.485192 0.000021 0.874407
vn -0.485192 0.000021 0.874407
vn -0.485192 0.000021 0.874407
vn -1.000000 0.000088 0.000000
vn -1.000000 0.000088 0.000000
vn -1.000000 0.000088 0.000000
vn -1.000000 0.000088 0.000000
vn -0.485192 0.000021 -0.874407
vn -0.485192 0.000021 -0.874407
vn -0.485192 0.000021 -0.874407
vn -0.485192 0.000021 -0.874407
vn -0.000023 1.000000 0.000000
vn -0.000023 1.000000 0.000000
vn -0.000023 1.000000 0.000000
vn -0.000023 1.000000 0.000000
vn 0.000000 -1.000000 0.000000
vn 0.000000 -1.000000 0.000000
vn 0.000000 -1.000000 0.000000
vn 0.000000 -1.000000 0.000000
vn -0.485227 0.000000 0.874388
vn -0.485227 0.000000 0.874388
vn -0.485227 0.000000 0.874388
vn -0.485227 0.000000 0.874388
vn -1.000000 0.000000 0.000000
vn -1.000000 0.000000 0.000000
vn -1.000000 0.000000 0.000000
vn -1.000000 0.000000 0.000000
vn -0.485227 0.000000 -0.874388
vn -0.485227 0.000000 -0.874388
vn -0.485227 0.000000 -0.874388
vn -0.485227 0.000000 -0.874388
vn 0.000000 1.000000 0.000000
vn 0.000000 1.000000 0.000000
vn 0.000000 1.000000 0.000000
vn 0.000000 1.000000 0.000000
vn 0.000023 -1.000000 0.000000
vn 0.000023 -1.000000 0.000000
vn 0.000023 -1.000000 0.000000
vn 0.000023 -1.000000 0.000000
vn -0.485192 0.000000 0.874407
vn -0.485192 0.000000 0.874407
vn -0.485192 0.000000 0.874407
vn -0.485192 0.000000 0.874407
vn -1.000000 0.000000 0.000000
vn -1.000000 0.000000 0.000000
vn -1.000000 0.000000 0.000000
vn -1.000000 0.000000 0.000000
vn -0.485227 0.000000 -0.874388
vn -0.485227 0.000000 -0.874388
vn -0.485227 0.000000 -0.874388
vn -0.485227 0.000000 -0.874388
vn 0.000000 1.000000 0.000000
vn 0.000000 1.000000 0.000000
vn 0.000000 1.000000 0.000000
vn 0.000000 1.000000 0.000000
vn 0.000000 -1.000000 0.000000
vn 0.000000 -1.000000 0.000000
vn 0.000000 -1.000000 0.000000
vn 0.000000 -1.000000 0.000000
vn 0.000000 0.000000 -1.000000
vn 0.000000 0.000000 -1.000000
vn 0.000000 0.000000 -1.000000
vn 0.000000 0.000000 -1.000000
vn -0.000000 0.000000 1.000000
vn -0.000000 0.000000 1.000000
vn -0.000000 0.000000 1.000000
vn -0.000000 0.000000 1.000000
vn 0.079511 0.996834 0.000000
vn 0.079511 0.996834 0.000000
vn 0.079511 0.996834 0.000000
vn 0.079511 0.996834 0.000000
vn -0.000000 0.000000 -1.000000
vn -0.000000 0.000000 -1.000000
vn -0.000000 0.000000 -1.000000
vn -0.000000 0.000000 -1.000000
vn 0.067248 -0.997735 -0.001287
vn 0.067248 -0.997735 -0.001287
vn 0.067248 -0.997736 -0.001287
vn 0.067248 -0.997735 -0.001287
vn 0.000000 0.000000 1.000000
vn 0.000000 0.000000 1.000000
vn 0.000000 0.000000 1.000000
vn 0.000000 0.000000 1.000000
vn 0.000000 0.000000 -1.000000
vn 0.000000 0.000000 -1.000000
vn 0.000000 0.000000 -1.000000
vn 0.000000 0.000000 -1.000000
vn 0.000000 0.000000 -1.000000
vn 0.000000 0.000000 -1.000000
vn 0.000000 0.000000 -1.000000
vn -0.000001 -0.000016 1.000000
vn -0.000001 -0.000016 1.000000
vn -0.000001 -0.000016 1.000000
vn -0.000001 -0.000016 1.000000
vn 0.000000 0.000000 1.000000
vn 0.000000 0.000000 1.000000
vn 0.000000 0.000000 1.000000
vn 0.000000 0.000000 1.000000
vn -0.000000 0.000000 -1.000000
vn -0.000000 0.000000 -1.000000
vn -0.000000 0.000000 -1.000000
vn -0.000000 0.000000 -1.000000
vn 0.000000 0.000000 1.000000
vn 0.000000 0.000000 1.000000
vn 0.000000 0.000000 1.000000
vn 0.000000 0.000000 1.000000
vn 0.000000 0.000000 -1.000000
vn 0.000000 0.000000 -1.000000
vn 0.000000 0.000000 -1.000000
vn 0.000000 0.000000 -1.000000
vn 0.000000 0.000000 -1.000000
vn 0.000000 0.000000 -1.000000
vn 0.000000 0.000000 -1.000000
vn 0.000000 0.000000 -1.000000
vn 0.000000 0.000000 1.000000
vn 0.000000 0.000000 1.000000
vn 0.000000 0.000000 1.000000
vn 0.000000 0.000000 1.000000
vn -0.000000 0.000000 -1.000000
vn -0.000000 0.000000 -1.000000
vn -0.000000 0.000000 -1.000000
vn -0.000000 0.000000 -1.000000
vn 0.000000 0.000000 1.000000
vn 0.000000 0.000000 1.000000
vn 0.000000 0.000000 1.000000
vn 0.000000 0.000000 -1.000000
vn 0.000000 0.000000 -1.000000
vn 0.000000 0.000000 -1.000000
vn 0.000000 0.000000 -1.000000
vn 0.000000 0.000000 -1.000000
vn 0.000000 0.000000 -1.000000
vn 0.000000 0.000000 -1.000000
vn 0.000000 0.000000 -1.000000
vn 0.000000 0.000000 -1.000000
vn 0.000000 0.000000 -1.000000
vn 0.000000 0.000000 -1.000000
vn 0.000000 0.000000 -1.000000
vn -0.000002 -0.000013 1.000000
vn -0.000002 -0.000013 1.000000
vn -0.000002 -0.000013 1.000000
vn -0.000002 -0.000013 1.000000
vn 0.000000 0.000000 1.000000
vn 0.000000 0.000000 1.000000
vn 0.000000 0.000000 1.000000
vn -0.000000 0.000000 1.000000
vn -0.000000 0.000000 1.000000
vn -0.000000 0.000000 1.000000
vn 0.046520 0.998917 0.000000
vn 0.046520 0.998917 0.000000
vn 0.046520 0.998917 0.000000
vn 0.046520 0.998917 0.000000
vn 0.046520 -0.998917 0.000000
vn 0.046520 -0.998917 0.000000
vn 0.046520 -0.998917 0.000000
vn 0.046520 -0.998917 0.000000
vn -0.000000 0.000000 -1.000000
vn -0.000000 0.000000 -1.000000
vn -0.000000 0.000000 -1.000000
vn -0.000000 0.000000 -1.000000
vn 0.000000 0.000000 1.000000
vn 0.000000 0.000000 1.000000
vn 0.000000 0.000000 1.000000
vn 0.000000 0.000000 1.000000
vn 0.000000 0.000000 1.000000
vn 0.000000 0.000000 1.000000
vn 0.000000 0.000000 1.000000
vn -0.000000 0.000000 1.000000
vn -0.000000 0.000000 1.000000
vn -0.000000 0.000000 1.000000
vn -0.000000 0.000000 1.000000
vn -0.000000 0.000000 1.000000
vn 0.000000 0.000000 1.000000
vn 0.000000 0.000000 1.000000
vn 0.000000 0.000000 1.000000
vn -0.000000 0.000000 1.000000
vn -0.000000 0.000000 1.000000
vn -0.000000 0.000000 1.000000
vn -0.000000 0.000000 1.000000
vn -0.000000 0.000000 1.000000
vn 0.000000 0.000000 1.000000
vn 0.000000 0.000000 1.000000
vn 0.000000 0.000000 1.000000
vn 0.000000 0.000000 1.000000
vn 0.000000 0.000000 1.000000
vn 0.000000 0.000000 1.000000
vn 0.000000 0.000000 1.000000
vn 0.000000 0.000000 1.000000
vn 0.000000 0.000000 1.000000
vn 0.000000 0.000000 1.000000
vn 0.000000 0.000000 1.000000
vn 0.057866 -0.998324 0.000637
vn 0.057866 -0.998324 0.000637
vn 0.057866 -0.998324 0.000637
vn 0.057866 -0.998324 0.000637
vn 0.107485 -0.994205 -0.002066
vn 0.107485 -0.994205 -0.002066
vn 0.107485 -0.994205 -0.002066
vn 0.107485 -0.994205 -0.002066
vn 0.079735 0.996779 0.008649
vn 0.079735 0.996779 0.008649
vn 0.079735 0.996779 0.008649
vn 0.079735 0.996779 0.008649
vn -1.000000 0.000000 0.000000
vn -1.000000 0.000000 0.000000
vn -1.000000 0.000000 0.000000
vn -1.000000 0.000000 0.000000
vn -1.000000 0.000000 0.000000
vn -1.000000 0.000000 0.000000
vn -1.000000 0.000000 0.000000
vn -1.000000 0.000000 0.000000
vn 0.000000 0.000000 1.000000
vn 0.000000 0.000000 1.000000
vn 0.000000 0.000000 1.000000
vn 0.000000 0.000000 1.000000
vn 0.000000 0.000000 1.000000
vn 0.000000 0.000000 1.000000
vn 0.000000 0.000000 1.000000
vn -0.000000 0.000000 1.000000
vn -0.000000 0.000000 1.000000
vn -0.000000 0.000000 1.000000
vn -0.000000 0.000000 1.000000
vn 0.000000 0.000000 1.000000
vn 0.000000 0.000000 1.000000
vn 0.000000 0.000000 1.000000
vn 0.000000 0.000000 -1.000000
vn 0.000000 0.000000 -1.000000
vn 0.000000 0.000000 -1.000000
vn 0.000000 0.000000 -1.000000
vn 0.000000 0.000000 -1.000000
vn 0.000000 0.000000 -1.000000
vn -0.000000 0.000000 -1.000000
vn -0.000000 0.000000 -1.000000
vn -0.000000 0.000000 -1.000000
vn 0.293218 0.000000 0.956046
vn 0.293218 0.000000 0.956046
vn 0.293218 0.000000 0.956046
vn 0.293218 0.000000 0.956046
vn 0.000013 1.000000 0.000000
vn 0.000013 1.000000 0.000000
vn 0.000013 1.000000 0.000000
vn 0.000013 1.000000 0.000000
vn 0.293218 0.000000 -0.956046
vn 0.293218 0.000000 -0.956046
vn 0.293218 0.000000 -0.956046
vn 0.293218 0.000000 -0.956046
vn 0.000000 -1.000000 0.000000
vn 0.000000 -1.000000 0.000000
vn 0.000000 -1.000000 0.000000
vn 0.000000 -1.000000 0.000000
vn 0.293218 0.000000 0.956046
vn 0.293218 0.000000 0.956046
vn 0.293218 0.000000 0.956046
vn 0.293218 0.000000 0.956046
vn 0.000000 1.000000 0.000000
vn 0.000000 1.000000 0.000000
vn 0.000000 1.000000 0.000000
vn 0.000000 1.000000 0.000000
vn 0.293218 0.000000 -0.956046
vn 0.293218 0.000000 -0.956046
vn 0.293218 0.000000 -0.956046
vn 0.293218 0.000000 -0.956046
vn -0.000026 -1.000000 0.000000
vn -0.000026 -1.000000 0.000000
vn -0.000026 -1.000000 0.000000
vn -0.000026 -1.000000 0.000000
vn 0.293232 0.000000 0.956041
vn 0.293232 0.000000 0.956041
vn 0.293232 0.000000 0.956041
vn 0.293232 0.000000 0.956041
vn 0.000000 1.000000 0.000000
vn 0.000000 1.000000 0.000000
vn 0.000000 1.000000 0.000000
vn 0.000000 1.000000 0.000000
vn 0.293218 0.000000 -0.956046
vn 0.293218 0.000000 -0.956046
vn 0.293218 0.000000 -0.956046
vn 0.293218 0.000000 -0.956046
vn 0.000000 -1.000000 -0.000000
vn 0.000000 -1.000000 -0.000000
vn 0.000000 -1.000000 -0.000000
vn 0.000000 -1.000000 -0.000000
vn -0.000000 0.000000 1.000000
vn -0.000000 0.000000 1.000000
vn -0.000000 0.000000 1.000000
vn -0.000000 0.000000 1.000000
vn 0.000000 0.000000 -1.000000
vn 0.000000 0.000000 -1.000000
vn 0.000000 0.000000 -1.000000
vn 0.000000 0.000000 -1.000000
vn 0.000000 0.000000 -1.000000
vn 0.000000 0.000000 -1.000000
vn 0.000000 0.000000 -1.000000
vn 0.096443 0.995287 0.010121
vn 0.096443 0.995287 0.010121
vn 0.096443 0.995287 0.010121
vn 0.096443 0.995287 0.010121
vn 0.905439 -0.381774 0.185549
vn 0.905439 -0.381774 0.185549
vn 0.905439 -0.381774 0.185549
vn 0.905439 -0.381774 0.185549
vn -0.000000 0.000000 -1.000000
vn -0.000000 0.000000 -1.000000
vn -0.000000 0.000000 -1.000000
vn 0.000000 0.000000 1.000000
vn 0.000000 0.000000 1.000000
vn 0.000000 0.000000 1.000000
vn 0.000000 0.000000 1.000000
s off
f 60/1/1 61/2/2 4/3/3 3/4/4
f 3/4/5 4/3/6 6/5/7 5/6/8
f 5/6/9 6/5/10 62/7/11 63/8/12
f 61/2/13 62/7/14 6/5/15 4/3/16
f 63/8/17 60/1/18 3/4/19 5/6/20
f 64/9/21 65/10/22 12/11/23 11/12/24
f 11/12/25 12/11/26 14/13/27 13/14/28
f 13/14/29 14/13/30 66/15/31 67/16/32
f 65/10/33 66/15/34 14/13/35 12/11/36
f 67/16/37 64/9/38 11/12/39 13/14/40
f 68/17/41 69/18/42 20/19/43 19/20/44
f 19/20/45 20/19/46 22/21/47 21/22/48
f 21/22/49 22/21/50 70/23/51 71/24/52
f 69/18/53 70/23/54 22/21/55 20/19/56
f 71/24/57 68/17/58 19/20/59 21/22/60
f 29/25/61 30/26/62 35/27/63 36/28/64
f 34/29/65 33/30/66 50/31/67 45/32/68
f 38/33/69 37/34/70 48/35/71 47/36/72
f 36/37/73 35/38/74 46/39/75 74/40/76
f 40/41/77 39/42/78 73/43/79 72/44/80
f 51/45/81 9/46/82 2/47/83 27/48/84
f 8/49/85 29/50/86 7/51/87
f 59/52/88 43/53/89 44/54/90 32/55/91
f 26/56/92 41/57/93 42/58/94 58/59/95
f 28/60/96 34/61/97 37/34/98 18/62/99
f 29/50/100 36/63/101 39/42/102 7/51/103
f 37/34/104 34/61/105 45/64/106 48/35/107
f 39/42/108 36/63/109 74/65/110 73/43/111
f 32/55/112 46/66/113 47/36/114 59/52/115
f 50/67/116 72/44/117 56/68/118 25/69/119
f 57/70/120 73/43/121 74/65/122 31/71/123
f 41/57/124 75/72/125 42/58/126
f 31/71/127 44/54/128 76/73/129 57/70/130
f 32/74/131 31/75/132 74/40/133 46/39/134
f 38/33/135 47/36/136 46/66/137 35/76/138
f 48/35/139 45/64/140 26/56/141 58/59/142
f 26/77/143 49/78/144 41/79/145
f 52/80/146 27/81/147 33/82/148
f 37/34/149 38/33/150 24/83/151 18/62/152
f 39/42/153 40/41/154 1/84/155 7/51/156
f 38/33/157 35/76/158 30/85/159 24/83/160
f 40/41/161 33/86/162 27/48/163 1/84/164
f 25/87/165 41/79/166 49/78/167
f 45/88/168 50/89/169 25/90/170 49/91/171 26/92/172
f 54/93/173 55/94/174 28/95/175
f 53/96/176 34/97/177 55/98/178 54/99/179 51/100/180
f 27/81/181 52/80/182 53/101/183 51/102/184
f 33/103/185 34/97/186 53/96/187 52/104/188
f 28/95/189 55/94/190 34/105/191
f 57/70/192 56/68/193 72/44/194 73/43/195
f 56/68/196 57/70/197 76/73/198 75/72/199
f 58/59/200 59/52/201 47/36/202 48/35/203
f 9/46/204 15/106/205 8/49/206 2/47/207
f 16/107/208 10/108/209 17/109/210 23/110/211
f 17/109/212 28/60/213 18/62/214
f 9/46/215 51/45/216 54/111/217 10/108/218
f 10/108/219 54/111/220 28/60/221 17/109/222
f 27/48/223 2/47/224 1/84/225
f 30/85/226 16/107/227 23/110/228
f 30/85/229 23/110/230 24/83/231
f 8/49/232 15/106/233 29/50/234
f 1/112/235 2/113/236 61/2/237 60/1/238
f 2/113/239 8/114/240 62/7/241 61/2/242
f 63/8/243 62/7/244 8/114/245 7/115/246
f 7/115/247 1/112/248 60/1/249 63/8/250
f 9/116/251 10/117/252 65/10/253 64/9/254
f 10/117/255 16/118/256 66/15/257 65/10/258
f 67/16/259 66/15/260 16/118/261 15/119/262
f 15/119/263 9/116/264 64/9/265 67/16/266
f 17/120/267 18/121/268 69/18/269 68/17/270
f 18/121/271 24/122/272 70/23/273 69/18/274
f 71/24/275 70/23/276 24/122/277 23/123/278
f 23/123/279 17/120/280 68/17/281 71/24/282
f 40/41/283 72/44/284 50/67/285 33/86/286
f 44/124/287 31/75/288 32/74/289
f 30/85/290 29/50/291 15/106/292 16/107/293
f 42/58/294 43/53/295 59/52/296 58/59/297
f 75/72/298 76/73/299 43/53/300 42/58/301
f 76/73/302 44/54/303 43/53/304
f 56/68/305 75/72/306 41/57/307 25/69/308
