# This file uses centimeters as units for non-parametric coordinates.

v -8.492846 39.037823 -6.481003
v -6.853740 39.492142 -6.484352
v -6.178574 35.355919 1.360921
v -7.967194 34.701061 1.735371
v -2.582674 33.490967 4.206727
v -4.222748 32.570633 4.704433
v 6.172089 35.360683 1.351876
v 7.967194 34.701061 1.735371
v 4.222747 32.570633 4.704433
v 2.582674 33.490967 4.206727
v 6.853740 39.492142 -6.484352
v 8.492846 39.037823 -6.481003
v 0.000000 32.860176 4.820625
v 0.000000 31.372263 5.820390
v -4.927345 38.107342 -8.638792
v -6.033531 37.420322 -9.459987
v 4.987434 38.211605 -8.504297
v 6.109085 37.531914 -9.296836
v -2.551678 36.788906 -10.999170
v -3.232276 37.596024 -9.485830
v 0.000000 36.927254 -11.645929
v 0.000000 37.982708 -10.334262
v 2.534983 36.771057 -11.020511
v 3.262191 37.620495 -9.456572
v -5.253394 38.802967 -9.181741
v -5.980420 38.282814 -9.864511
v -7.866847 35.546066 2.218142
v -6.636503 35.926945 1.974214
v -4.166695 33.352940 5.258501
v -2.833469 33.836178 5.055933
v -0.000012 32.145752 6.395995
v 0.000008 33.096981 5.740052
v 6.630168 35.932243 1.964634
v 7.866848 35.546066 2.218142
v 2.833466 33.836174 5.055933
v 4.166690 33.352936 5.258504
v 6.055573 38.389694 -9.710046
v 5.316809 38.907635 -9.042646
v -3.454126 38.455727 -10.310546
v -2.702502 37.631298 -11.420531
v 2.682340 37.613373 -11.443976
v 3.491752 38.477528 -10.279499
v 0.001408 38.675636 -10.987913
v 0.001567 37.745953 -12.161198
v -8.624785 37.089088 -2.883376
v -6.871681 37.423363 -2.651250
v 8.543492 37.164093 -3.025469
v 6.791356 37.482376 -2.763287
v -8.535314 37.986401 -2.204730
v -7.352754 38.159019 -2.088197
v 8.455459 38.064079 -2.342663
v 7.274281 38.224655 -2.206815
v -8.455972 39.765190 -5.292417
v -7.983824 39.832291 -6.727800
v -7.366786 40.042419 -5.374395
v -6.886984 40.083656 -6.808526
v 8.442385 39.767303 -5.296681
v 7.978901 39.837395 -6.731862
v 6.877936 40.088379 -6.813376
v 7.353247 40.043278 -5.378999
vt 0.048409 0.210599
vt 0.048376 0.210829
vt 0.048299 0.210789
vt 0.048242 0.210718
vt 0.048461 0.210584
vt 0.048507 0.210609
vt 0.048434 0.210783
vt 0.048516 0.210739
vt 0.048586 0.210616
vt 0.048552 0.210752
vt 0.048278 0.210713
vt 0.048334 0.210771
vt 0.048381 0.210794
vt 0.048464 0.210807
vt 0.048523 0.210601
vt 0.048457 0.210567
vt 0.048336 0.210579
vt 0.048378 0.210585
vt 0.048569 0.210597
vt 0.048552 0.210752
vt 0.048516 0.210739
vt 0.048464 0.210807
vt 0.048434 0.210783
vt 0.048376 0.210829
vt 0.048381 0.210794
vt 0.048278 0.210713
vt 0.048242 0.210718
vt 0.048274 0.210573
vt 0.048334 0.210771
vt 0.048299 0.210789
vt 0.048523 0.210601
vt 0.048507 0.210609
vt 0.048409 0.210599
vt 0.048378 0.210585
vt 0.048457 0.210567
vt 0.048461 0.210584
vt 0.048586 0.210616
vt 0.048552 0.210752
vt 0.048516 0.210739
vt 0.048464 0.210807
vt 0.048434 0.210783
vt 0.048376 0.210829
vt 0.048381 0.210794
vt 0.048242 0.210718
vt 0.048278 0.210713
vt 0.048334 0.210771
vt 0.048299 0.210789
vt 0.048336 0.210579
vt 0.048523 0.210601
vt 0.048507 0.210609
vt 0.048409 0.210599
vt 0.048378 0.210585
vt 0.048457 0.210567
vt 0.048461 0.210584
vt 0.048545 0.210661
vt 0.048261 0.210632
vt 0.048580 0.210669
vt 0.048579 0.210673
vt 0.048603 0.210608
vt 0.048544 0.210662
vt 0.048557 0.210603
vt 0.048557 0.210603
vt 0.048260 0.210636
vt 0.048317 0.210586
vt 0.048317 0.210586
vt 0.048307 0.210569
vt 0.048293 0.210632
vt 0.048293 0.210633
vt 0.048599 0.210606
vt 0.048566 0.210605
vt 0.048272 0.210583
vt 0.048313 0.210568
vt 0.048598 0.210617
vt 0.048567 0.210595
vt 0.048283 0.210573
vt 0.048303 0.210578
vn -0.171818 0.825590 -0.537476
vn -0.171818 0.825590 -0.537476
vn -0.171818 0.825590 -0.537476
vn -0.171818 0.825590 -0.537476
vn -0.176590 0.854224 0.488996
vn -0.176590 0.854224 0.488996
vn -0.176590 0.854224 0.488996
vn -0.176590 0.854224 0.488996
vn -0.129600 0.730779 0.670199
vn -0.129600 0.730779 0.670199
vn -0.129600 0.730779 0.670199
vn -0.129600 0.730779 0.670199
vn -0.061879 0.554275 0.830030
vn -0.061879 0.554275 0.830030
vn -0.061879 0.554275 0.830030
vn -0.061879 0.554275 0.830030
vn 0.168872 0.853042 0.493764
vn 0.168872 0.853042 0.493764
vn 0.168872 0.853042 0.493764
vn 0.168872 0.853042 0.493764
vn 0.128772 0.731743 0.669306
vn 0.128772 0.731743 0.669306
vn 0.128772 0.731743 0.669306
vn 0.128772 0.731743 0.669306
vn 0.061879 0.554276 0.830030
vn 0.061879 0.554276 0.830030
vn 0.061879 0.554276 0.830030
vn 0.061879 0.554276 0.830030
vn 0.175293 0.826735 -0.534586
vn 0.175293 0.826735 -0.534586
vn 0.175293 0.826735 -0.534586
vn 0.175293 0.826735 -0.534586
vn -0.158825 0.788792 -0.593786
vn -0.158825 0.788792 -0.593786
vn -0.158825 0.788792 -0.593786
vn -0.158825 0.788792 -0.593786
vn 0.159820 0.785052 -0.598457
vn 0.159820 0.785052 -0.598457
vn 0.159820 0.785052 -0.598457
vn 0.159820 0.785052 -0.598457
vn -0.187166 0.748251 -0.636466
vn -0.187166 0.748251 -0.636466
vn -0.187166 0.748251 -0.636466
vn -0.187166 0.748251 -0.636466
vn 0.187409 0.746891 -0.637991
vn 0.187409 0.746891 -0.637991
vn 0.187409 0.746891 -0.637991
vn 0.187409 0.746891 -0.637991
vn 0.152264 -0.790928 0.592663
vn 0.152264 -0.790928 0.592663
vn 0.152264 -0.790928 0.592663
vn 0.152264 -0.790928 0.592663
vn 0.230414 -0.857929 -0.459202
vn 0.230414 -0.857929 -0.459202
vn 0.230414 -0.857929 -0.459202
vn 0.230414 -0.857929 -0.459202
vn 0.153652 -0.713151 -0.683964
vn 0.153652 -0.713151 -0.683964
vn 0.153652 -0.713151 -0.683964
vn 0.153652 -0.713151 -0.683964
vn 0.060967 -0.556680 -0.828487
vn 0.060967 -0.556680 -0.828487
vn 0.060967 -0.556680 -0.828487
vn 0.060967 -0.556680 -0.828487
vn -0.219451 -0.854451 -0.470910
vn -0.219451 -0.854451 -0.470910
vn -0.219451 -0.854451 -0.470910
vn -0.219451 -0.854451 -0.470910
vn -0.153123 -0.713979 -0.683218
vn -0.153123 -0.713979 -0.683218
vn -0.153123 -0.713979 -0.683218
vn -0.153123 -0.713979 -0.683218
vn -0.060967 -0.556680 -0.828487
vn -0.060967 -0.556680 -0.828487
vn -0.060967 -0.556680 -0.828487
vn -0.060967 -0.556680 -0.828487
vn -0.155471 -0.790637 0.592218
vn -0.155471 -0.790637 0.592218
vn -0.155471 -0.790637 0.592218
vn -0.155471 -0.790637 0.592218
vn 0.057935 -0.845613 0.530643
vn 0.057935 -0.845613 0.530643
vn 0.057935 -0.845613 0.530643
vn 0.057935 -0.845613 0.530643
vn -0.056314 -0.841810 0.536828
vn -0.056314 -0.841810 0.536828
vn -0.056314 -0.841810 0.536828
vn -0.056314 -0.841810 0.536828
vn 0.219857 -0.789265 0.573345
vn 0.219857 -0.789265 0.573345
vn 0.219857 -0.789265 0.573345
vn 0.219857 -0.789265 0.573345
vn -0.219903 -0.786747 0.576777
vn -0.219903 -0.786747 0.576777
vn -0.219903 -0.786747 0.576777
vn -0.219903 -0.786747 0.576777
vn 0.807471 0.467644 0.359583
vn 0.807471 0.467644 0.359583
vn 0.807471 0.467644 0.359583
vn 0.807471 0.467644 0.359583
vn -0.798645 0.034783 -0.600796
vn -0.798645 0.034783 -0.600796
vn -0.798645 0.034783 -0.600796
vn -0.798645 0.034783 -0.600796
vn -0.997566 0.069363 0.007148
vn -0.997566 0.069363 0.007148
vn -0.997566 0.069363 0.007148
vn -0.997566 0.069363 0.007148
vn 0.854288 0.505718 0.120173
vn 0.854288 0.505718 0.120173
vn 0.854288 0.505718 0.120173
vn 0.854288 0.505718 0.120173
vn -0.701818 -0.333586 0.629421
vn -0.701818 -0.333586 0.629421
vn -0.701818 -0.333586 0.629421
vn -0.701818 -0.333586 0.629421
vn 0.585270 0.783852 -0.207452
vn 0.585270 0.783852 -0.207452
vn 0.585270 0.783852 -0.207452
vn 0.585270 0.783852 -0.207452
vn -0.359266 -0.539817 0.761266
vn -0.359266 -0.539817 0.761266
vn -0.359266 -0.539817 0.761266
vn -0.359266 -0.539817 0.761266
vn 0.294993 0.919253 -0.260676
vn 0.294993 0.919253 -0.260676
vn 0.294993 0.919253 -0.260676
vn 0.294993 0.919253 -0.260676
vn 0.990903 0.017879 0.133384
vn 0.990903 0.017879 0.133384
vn 0.990903 0.017879 0.133384
vn 0.990903 0.017879 0.133384
vn -0.889037 0.407746 0.208225
vn -0.889037 0.407746 0.208225
vn -0.889037 0.407746 0.208225
vn -0.889037 0.407746 0.208225
vn -0.586699 0.783023 -0.206540
vn -0.586699 0.783023 -0.206540
vn -0.586699 0.783023 -0.206540
vn -0.586699 0.783023 -0.206540
vn 0.701818 -0.333586 0.629422
vn 0.701818 -0.333586 0.629422
vn 0.701818 -0.333586 0.629422
vn 0.701818 -0.333586 0.629422
vn -0.294993 0.919255 -0.260669
vn -0.294993 0.919255 -0.260669
vn -0.294993 0.919255 -0.260669
vn -0.294993 0.919255 -0.260669
vn 0.359264 -0.539816 0.761267
vn 0.359264 -0.539816 0.761267
vn 0.359264 -0.539816 0.761267
vn 0.359264 -0.539816 0.761267
vn 0.794967 0.029398 -0.605940
vn 0.794967 0.029398 -0.605940
vn 0.794967 0.029398 -0.605940
vn 0.794967 0.029398 -0.605940
vn -0.800081 0.469525 0.373385
vn -0.800081 0.469525 0.373385
vn -0.800081 0.469525 0.373385
vn -0.800081 0.469525 0.373385
vn 0.483886 0.667804 0.565590
vn 0.483886 0.667804 0.565590
vn 0.483886 0.667804 0.565590
vn 0.483886 0.667804 0.565590
vn -0.442854 -0.411314 -0.796682
vn -0.442854 -0.411314 -0.796682
vn -0.442854 -0.411314 -0.796682
vn -0.442854 -0.411314 -0.796682
vn 0.477509 -0.409044 -0.777604
vn 0.477509 -0.409044 -0.777604
vn 0.477509 -0.409044 -0.777604
vn 0.477509 -0.409044 -0.777604
vn -0.522450 0.660589 0.539137
vn -0.522450 0.660589 0.539137
vn -0.522450 0.660589 0.539137
vn -0.522450 0.660589 0.539137
vn 0.099872 0.693527 0.713474
vn 0.099872 0.693527 0.713474
vn 0.099872 0.693527 0.713474
vn 0.099872 0.693527 0.713474
vn -0.199453 -0.494831 -0.845790
vn -0.199453 -0.494831 -0.845790
vn -0.199453 -0.494831 -0.845790
vn -0.199453 -0.494831 -0.845790
vn -0.109522 0.694116 0.711483
vn -0.109522 0.694116 0.711483
vn -0.109522 0.694116 0.711483
vn -0.109522 0.694116 0.711483
vn 0.190630 -0.495892 -0.847202
vn 0.190630 -0.495892 -0.847202
vn 0.190630 -0.495892 -0.847202
vn 0.190630 -0.495892 -0.847202
vn -0.169102 0.851441 0.496441
vn -0.169102 0.851441 0.496441
vn -0.169102 0.851441 0.496441
vn -0.169102 0.851441 0.496441
vn 0.175559 0.852669 0.492073
vn 0.175559 0.852669 0.492073
vn 0.175559 0.852669 0.492073
vn 0.175559 0.852669 0.492073
vn 0.219052 -0.852610 -0.474417
vn 0.219052 -0.852610 -0.474417
vn 0.219052 -0.852610 -0.474417
vn 0.219052 -0.852610 -0.474417
vn -0.230315 -0.855687 -0.463417
vn -0.230315 -0.855687 -0.463417
vn -0.230315 -0.855687 -0.463417
vn -0.230315 -0.855687 -0.463417
vn -0.988748 0.008155 0.149366
vn -0.988748 0.008155 0.149366
vn -0.988748 0.008155 0.149366
vn -0.988748 0.008155 0.149366
vn 0.889681 0.398988 0.221981
vn 0.889681 0.398988 0.221981
vn 0.889681 0.398988 0.221981
vn 0.889681 0.398988 0.221981
vn 0.998016 0.058675 0.022823
vn 0.998016 0.058675 0.022823
vn 0.998016 0.058675 0.022823
vn 0.998016 0.058675 0.022823
vn -0.858074 0.495912 0.133340
vn -0.858074 0.495912 0.133340
vn -0.858074 0.495912 0.133340
vn -0.858074 0.495912 0.133340
vn -0.237793 0.970397 -0.042248
vn -0.237793 0.970397 -0.042248
vn -0.237793 0.970397 -0.042248
vn -0.237793 0.970397 -0.042248
vn 0.236474 0.970879 -0.038389
vn 0.236474 0.970879 -0.038389
vn 0.236474 0.970879 -0.038389
vn 0.236474 0.970879 -0.038389
vn -0.847987 0.463392 -0.257267
vn -0.847987 0.463392 -0.257267
vn -0.847987 0.463392 -0.257267
vn 0.922178 0.224449 0.314975
vn 0.922178 0.224449 0.314975
vn 0.922178 0.224449 0.314975
vn 0.848178 0.466395 -0.251138
vn 0.848178 0.466395 -0.251138
vn 0.848178 0.466395 -0.251138
vn -0.925965 0.210554 0.313458
vn -0.925965 0.210554 0.313458
vn -0.925965 0.210554 0.313458
s off
f 54/69/1 56/74/2 25/62/3 26/37/4
f 55/70/5 53/73/6 49/58/7 50/60/8
f 28/39/9 27/38/10 29/40/11 30/41/12
f 30/41/13 29/40/14 31/42/15 32/43/16
f 33/45/17 34/44/18 51/63/19 52/68/20
f 34/44/21 33/45/22 35/46/23 36/47/24
f 36/47/25 35/46/26 32/43/27 31/42/28
f 59/72/29 58/75/30 37/65/31 38/48/32
f 26/37/33 25/62/34 39/49/35 40/50/36
f 38/48/37 37/65/38 41/51/39 42/52/40
f 40/50/41 39/49/42 43/53/43 44/54/44
f 44/54/45 43/53/46 42/52/47 41/51/48
f 1/59/49 16/9/50 15/61/51 2/19/52
f 2/19/53 46/55/54 45/57/55 1/59/56
f 3/21/57 5/23/58 6/22/59 4/20/60
f 5/23/61 13/25/62 14/24/63 6/22/64
f 7/26/65 48/67/66 47/56/67 8/27/68
f 8/27/69 9/30/70 10/29/71 7/26/72
f 9/30/73 14/24/74 13/25/75 10/29/76
f 11/66/77 17/17/78 18/64/79 12/28/80
f 16/9/81 19/32/82 20/31/83 15/61/84
f 17/17/85 24/34/86 23/33/87 18/64/88
f 19/32/89 21/36/90 22/35/91 20/31/92
f 21/36/93 23/33/94 24/34/95 22/35/96
f 2/19/97 15/61/98 25/62/99 56/74/100
f 16/9/101 1/59/102 54/69/103 26/37/104
f 1/59/105 45/57/106 49/58/107 53/73/108
f 3/8/109 46/55/110 50/60/111 28/39/112
f 4/10/113 6/14/114 29/40/115 27/38/116
f 5/7/117 3/8/118 28/39/119 30/41/120
f 6/14/121 14/2/122 31/42/123 29/40/124
f 13/13/125 5/7/126 30/41/127 32/43/128
f 8/4/129 47/56/130 51/63/131 34/44/132
f 11/66/133 48/67/134 52/68/135 60/76/136
f 7/11/137 10/12/138 35/46/139 33/45/140
f 9/3/141 8/4/142 34/44/143 36/47/144
f 10/12/145 13/13/146 32/43/147 35/46/148
f 14/2/149 9/3/150 36/47/151 31/42/152
f 12/28/153 18/64/154 37/65/155 58/75/156
f 17/17/157 11/66/158 59/72/159 38/48/160
f 15/61/161 20/15/162 39/49/163 25/62/164
f 19/6/165 16/9/166 26/37/167 40/50/168
f 18/64/169 23/1/170 41/51/171 37/65/172
f 24/18/173 17/17/174 38/48/175 42/52/176
f 20/15/177 22/16/178 43/53/179 39/49/180
f 21/5/181 19/6/182 40/50/183 44/54/184
f 22/16/185 24/18/186 42/52/187 43/53/188
f 23/1/189 21/5/190 44/54/191 41/51/192
f 50/60/193 49/58/194 27/38/195 28/39/196
f 52/68/197 51/63/198 57/71/199 60/76/200
f 45/57/201 46/55/202 3/21/203 4/20/204
f 47/56/205 48/67/206 11/66/207 12/28/208
f 49/58/209 45/57/210 4/10/211 27/38/212
f 50/60/213 46/55/214 2/19/215 55/70/216
f 51/63/217 47/56/218 12/28/219 57/71/220
f 52/68/221 48/67/222 7/11/223 33/45/224
f 54/69/225 53/73/226 55/70/227 56/74/228
f 57/71/229 58/75/230 59/72/231 60/76/232
f 53/73/233 54/69/234 1/59/235
f 55/70/236 2/19/237 56/74/238
f 57/71/239 12/28/240 58/75/241
f 59/72/242 11/66/243 60/76/244
