# This file uses centimeters as units for non-parametric coordinates.

v -49.074356 0.214554 74.775101
v 49.074356 0.214554 74.775101
v -48.671837 1.330141 74.024902
v 48.328747 1.330141 74.520020
v -48.325375 1.330141 -74.419540
v 48.343990 1.330141 -74.581970
v -49.074356 0.214554 -74.810806
v 49.074356 0.214554 -74.810806
v -50.557060 2.114354 65.472260
v 50.557056 2.114354 65.472260
v 50.557056 0.000000 65.472267
v -50.557060 0.000000 65.472267
v -49.910641 1.330141 67.004608
v 49.910641 1.330141 67.004608
v 49.910641 0.214554 67.004715
v -49.910641 0.214554 67.004715
v -50.557060 -0.000000 -64.390244
v 50.557056 -0.000000 -64.390244
v 50.557056 2.114354 -64.390320
v -50.557060 2.114354 -64.390320
v -49.910641 0.214554 -65.559433
v 49.910641 0.214554 -65.559433
v 49.910641 1.330141 -65.559494
v -49.910641 1.330141 -65.559494
v -24.760950 1.330141 67.004608
v -24.825640 0.214554 67.004715
v -19.918682 1.330140 -74.621094
v -17.731609 1.330140 -74.563873
v -18.224028 0.214554 -74.810806
v -19.446404 0.214554 -74.810806
v -19.686615 1.330141 -70.004684
v -19.480301 0.214554 -69.864563
v -39.701637 1.330140 -74.810791
v -42.873207 1.330140 -74.663071
v -42.385979 0.214554 -74.810806
v -40.412422 0.214554 -74.810806
v -42.118931 0.214554 -69.976593
v -40.927357 0.214554 -69.454727
v -44.610870 1.370027 -65.500031
v -41.912140 1.330141 -70.506104
v -40.173241 1.330141 -69.907684
v 29.462166 0.214554 -74.810791
v 27.433475 0.214554 -74.810791
v 31.199875 0.214554 -70.352005
v 29.921368 0.214554 -70.019348
v 30.408184 1.342627 -65.540878
v 31.825645 1.330141 -69.681503
v 29.657856 1.330141 -69.406250
v 30.612694 1.330141 -74.349167
v 26.935772 1.330141 -74.810791
v 30.399887 0.211139 -65.540817
v -44.906158 0.206492 -65.566574
v 8.421220 1.330141 -69.667099
v 5.976116 1.330141 -72.961990
v 4.884331 0.214554 -74.810806
v 5.796606 0.214554 -69.943756
v 32.745781 0.214554 70.058807
v -38.998360 0.214554 70.895477
v 32.539261 1.330141 70.029373
v -38.884552 1.330141 70.829803
v 13.346951 1.330141 70.292099
v 19.447712 1.330141 73.374496
v 19.638636 0.214554 74.775101
v 13.836316 0.214554 70.364960
v -38.630844 0.214554 74.775101
v -39.410370 0.214554 74.775101
v -39.637138 1.330141 74.810806
v -37.863113 1.330141 74.195908
v 33.276497 0.214554 74.775101
v 34.078743 0.214554 74.775101
v 32.280106 1.330141 74.775101
v 34.521702 1.330141 74.498764
v -23.662464 1.330140 74.672714
v -26.612404 1.330140 74.499176
v -25.354849 1.330141 70.817261
v -22.729990 1.330141 71.003677
v -24.428410 0.214554 74.775101
v -26.050907 0.214554 74.775101
v -24.712345 0.214554 70.988907
v -23.038738 0.214554 70.980331
v -50.557060 -0.000000 0.540966
v 50.557056 0.000000 0.540966
v 50.557056 2.114354 0.540966
v -50.557060 2.114354 0.540966
vt 0.196659 0.305458
vt 0.196220 0.305425
vt 0.196664 0.305418
vt 0.196224 0.305431
vt 0.196221 0.305424
vt 0.196663 0.305416
vt 0.196551 0.305425
vt 0.196644 0.304427
vt 0.196607 0.304422
vt 0.196206 0.304434
vt 0.196288 0.304427
vt 0.196211 0.304436
vt 0.196288 0.304428
vt 0.196640 0.304429
vt 0.196605 0.304423
vt 0.196634 0.304382
vt 0.196605 0.304384
vt 0.196633 0.304384
vt 0.196607 0.304404
vt 0.196638 0.304421
vt 0.196604 0.304383
vt 0.196596 0.304383
vt 0.196507 0.304386
vt 0.196596 0.304384
vt 0.196500 0.304384
vt 0.196308 0.304389
vt 0.196213 0.304430
vt 0.196299 0.304389
vt 0.196291 0.304409
vt 0.196215 0.304389
vt 0.196299 0.304388
vt 0.196216 0.304391
vt 0.196607 0.304401
vt 0.196299 0.304410
vt 0.196509 0.304404
vt 0.196212 0.304428
vt 0.196292 0.304408
vt 0.196598 0.304407
vt 0.196637 0.304422
vt 0.196598 0.304403
vt 0.196507 0.304384
vt 0.196308 0.304388
vt 0.196300 0.304409
vt 0.196499 0.304386
vt 0.196506 0.304407
vt 0.196390 0.304408
vt 0.196399 0.304386
vt 0.196402 0.304388
vt 0.196401 0.304408
vt 0.196661 0.305423
vt 0.196614 0.305438
vt 0.196658 0.305458
vt 0.196299 0.305439
vt 0.196228 0.305465
vt 0.196224 0.305432
vt 0.196300 0.305439
vt 0.196228 0.305466
vt 0.196616 0.305458
vt 0.196297 0.305464
vt 0.196295 0.305465
vt 0.196616 0.305459
vt 0.196294 0.305464
vt 0.196298 0.305465
vt 0.196661 0.305424
vt 0.196551 0.305426
vt 0.196382 0.305436
vt 0.196549 0.305443
vt 0.196556 0.305442
vt 0.196556 0.305442
vt 0.196549 0.305442
vt 0.196612 0.305458
vt 0.196557 0.305460
vt 0.196614 0.305439
vt 0.196612 0.305459
vt 0.196384 0.305437
vt 0.196550 0.305460
vt 0.196550 0.305459
vt 0.196358 0.305464
vt 0.196357 0.305463
vt 0.196557 0.305459
vt 0.641450 0.140862
vt 0.641450 0.249557
vt 0.571651 0.249557
vt 0.571651 0.140862
vt 0.571652 0.249557
vt 0.641451 0.249557
vt 0.571652 0.140862
vt 0.641451 0.140862
vt 0.641450 0.140862
vt 0.571651 0.140862
vt 0.571651 0.249557
vt 0.641450 0.249557
vt 0.571652 0.249557
vt 0.641451 0.249557
vt 0.571652 0.140862
vt 0.641451 0.140862
vn -0.039958 0.307586 0.950681
vn -0.039958 0.307586 0.950681
vn -0.039958 0.307586 0.950681
vn -0.039958 0.307586 0.950681
vn 0.000000 0.890196 0.455578
vn 0.000000 0.943763 0.330623
vn 0.000000 0.948261 0.317493
vn 0.000000 0.890196 0.455578
vn 0.945464 0.242813 0.217115
vn 0.944571 0.253252 0.208926
vn 0.921377 0.000014 0.388670
vn 0.921377 0.000014 0.388670
vn 0.000000 -0.990341 0.138655
vn 0.000000 -0.995766 0.091923
vn -0.000000 -0.999185 0.040370
vn -0.921376 0.000014 0.388671
vn -0.921376 0.000014 0.388671
vn -0.965240 0.165871 0.201989
vn -0.964597 0.158610 0.210701
vn 0.000000 0.987629 0.156808
vn 0.000000 1.000000 0.000000
vn 0.000000 1.000000 0.000000
vn 0.000000 0.943763 0.330623
vn 0.932860 0.328623 0.147576
vn 0.944571 0.253252 0.208926
vn 0.945464 0.242813 0.217115
vn 0.932860 0.328623 0.147576
vn -0.964597 0.158610 0.210701
vn -0.965240 0.165871 0.201989
vn -0.966068 0.219868 0.135537
vn -0.966068 0.219868 0.135537
vn -0.000340 -0.999824 -0.018779
vn -0.000058 -0.990250 -0.139299
vn -0.000149 -0.984130 -0.177447
vn 0.875151 -0.000019 -0.483849
vn 0.875151 -0.000019 -0.483849
vn 0.944364 0.267320 -0.191614
vn 0.944529 0.257983 -0.203249
vn -0.940777 0.270276 -0.204668
vn -0.940376 0.280060 -0.193026
vn -0.875150 -0.000019 -0.483851
vn -0.875150 -0.000019 -0.483851
vn 0.944529 0.257983 -0.203249
vn 0.944364 0.267320 -0.191614
vn 0.939286 0.320137 -0.123512
vn 0.939286 0.320137 -0.123512
vn -0.933783 0.335352 -0.124850
vn -0.940376 0.280060 -0.193026
vn -0.940777 0.270276 -0.204668
vn -0.933783 0.335352 -0.124850
vn 0.000000 0.943763 0.330623
vn -0.000000 1.000000 0.000000
vn 0.000000 1.000000 0.000000
vn 0.000000 0.948261 0.317493
vn 0.000990 0.548277 0.836296
vn -0.002179 0.545977 0.837797
vn -0.045334 0.513706 0.856768
vn -0.045334 0.513706 0.856768
vn -0.000718 0.231605 0.972810
vn -0.000718 0.231605 0.972810
vn -0.000718 0.231605 0.972810
vn -0.000718 0.231605 0.972810
vn -0.000149 -0.984130 -0.177447
vn -0.000058 -0.990250 -0.139299
vn 0.000060 -0.993300 -0.115561
vn 0.000017 -0.983795 -0.179299
vn 0.000000 0.830485 -0.557040
vn 0.000000 0.830486 -0.557040
vn 0.000000 0.830485 -0.557041
vn 0.000000 0.830485 -0.557040
vn 0.000000 0.830485 -0.557041
vn 0.000000 0.830485 -0.557040
vn 0.000000 0.830486 -0.557040
vn 0.000017 -0.983795 -0.179299
vn 0.000060 -0.993300 -0.115561
vn 0.000011 -0.999748 -0.022454
vn 0.000000 0.830485 -0.557040
vn 0.000000 0.830485 -0.557041
vn 0.000000 0.830485 -0.557041
vn -0.019484 0.236938 -0.971330
vn -0.019484 0.236937 -0.971329
vn -0.019484 0.236938 -0.971330
vn -0.019484 0.236937 -0.971330
vn 0.000000 -1.000000 -0.000000
vn 0.000000 -1.000000 -0.000000
vn -0.000081 -1.000000 -0.000143
vn -0.000340 -0.999824 -0.018779
vn -0.001278 0.999997 -0.002066
vn -0.000583 0.999999 -0.000942
vn 0.000000 1.000000 0.000000
vn 0.000000 1.000000 0.000000
vn 0.004639 0.084236 -0.996435
vn 0.004639 0.084236 -0.996435
vn 0.004639 0.084236 -0.996435
vn 0.004639 0.084236 -0.996435
vn 0.000000 -1.000000 0.000000
vn 0.000030 -1.000000 -0.000880
vn -0.000015 -1.000000 -0.000804
vn 0.000000 -1.000000 0.000000
vn 0.025236 0.674845 -0.737528
vn 0.025236 0.674845 -0.737528
vn -0.010993 0.655158 -0.755412
vn 0.006393 0.664772 -0.747019
vn 0.000011 -0.999748 -0.022454
vn 0.000035 -1.000000 -0.000135
vn 0.000000 -1.000000 -0.000000
vn 0.000000 -1.000000 -0.000000
vn 0.000000 1.000000 0.000000
vn 0.000138 1.000000 -0.000604
vn 0.000039 1.000000 -0.000169
vn 0.000000 1.000000 0.000000
vn -0.005954 0.296647 -0.954969
vn -0.005954 0.296647 -0.954969
vn -0.005954 0.296647 -0.954969
vn -0.005954 0.296647 -0.954969
vn -0.001278 0.999997 -0.002066
vn -0.007391 0.999901 -0.011951
vn -0.000583 0.999999 -0.000942
vn 0.000151 0.999990 -0.004492
vn 0.000193 0.999992 -0.004094
vn 0.000199 0.999991 -0.004293
vn 0.000151 0.999974 -0.007238
vn 0.000039 1.000000 -0.000169
vn 0.000138 1.000000 -0.000604
vn 0.000638 0.999996 -0.002797
vn 0.000060 -0.993300 -0.115561
vn 0.000035 -1.000000 -0.000135
vn 0.000011 -0.999748 -0.022454
vn -0.000058 -0.990250 -0.139299
vn -0.000015 -1.000000 -0.000804
vn 0.000030 -1.000000 -0.000880
vn -0.000340 -0.999824 -0.018779
vn -0.000081 -1.000000 -0.000143
vn -0.000058 -0.990250 -0.139299
vn 0.000000 1.000000 -0.000000
vn -0.000019 0.999992 -0.003909
vn 0.000199 0.999991 -0.004293
vn 0.000000 1.000000 -0.000000
vn -0.000000 1.000000 0.000000
vn 0.000199 0.999991 -0.004293
vn 0.000193 0.999992 -0.004094
vn -0.000000 1.000000 0.000000
vn 0.000000 -1.000000 0.000000
vn 0.000029 -1.000000 -0.000842
vn 0.000030 -1.000000 -0.000880
vn 0.000000 -1.000000 0.000000
vn -0.000058 -0.990250 -0.139299
vn 0.000030 -1.000000 -0.000880
vn 0.000029 -1.000000 -0.000842
vn 0.000060 -0.993300 -0.115561
vn -0.815397 0.515393 0.263625
vn -0.815397 0.515393 0.263625
vn -0.815397 0.515393 0.263625
vn -0.815397 0.515393 0.263625
vn -0.917311 0.326738 -0.227558
vn -0.917311 0.326738 -0.227558
vn -0.917311 0.326738 -0.227558
vn -0.917311 0.326738 -0.227558
vn 0.978048 0.150426 -0.144205
vn 0.978048 0.150426 -0.144205
vn 0.978047 0.150426 -0.144205
vn 0.978047 0.150426 -0.144205
vn 0.818400 0.394130 -0.418189
vn 0.818400 0.394130 -0.418189
vn 0.818400 0.394130 -0.418189
vn 0.818400 0.394130 -0.418189
vn 0.956418 0.291327 -0.019820
vn 0.956418 0.291327 -0.019820
vn 0.956418 0.291327 -0.019820
vn 0.956418 0.291327 -0.019820
vn -0.938652 0.135546 -0.317111
vn -0.938652 0.135546 -0.317111
vn -0.938652 0.135546 -0.317111
vn -0.938652 0.135546 -0.317111
vn 0.985748 0.100857 -0.134644
vn 0.985748 0.100857 -0.134644
vn 0.985748 0.100857 -0.134644
vn 0.985748 0.100857 -0.134644
vn 0.860593 -0.087674 0.501691
vn 0.860593 -0.087674 0.501691
vn 0.860593 -0.087674 0.501691
vn 0.860593 -0.087674 0.501691
vn -0.687676 0.198218 -0.698435
vn -0.687676 0.198218 -0.698435
vn -0.687676 0.198218 -0.698435
vn -0.687676 0.198218 -0.698435
vn -0.840641 0.535525 -0.080837
vn -0.840641 0.535525 -0.080837
vn -0.840641 0.535525 -0.080837
vn -0.840642 0.535525 -0.080837
vn 0.000151 0.999974 -0.007238
vn 0.000199 0.999991 -0.004293
vn -0.000019 0.999992 -0.003909
vn 0.000017 0.999999 -0.001344
vn 0.000193 0.999992 -0.004094
vn 0.000151 0.999990 -0.004492
vn -0.000000 1.000000 0.000000
vn 0.000193 0.999992 -0.004094
vn 0.000017 0.999999 -0.001344
vn 0.000000 1.000000 0.000000
vn 0.006393 0.664772 -0.747019
vn -0.010993 0.655158 -0.755412
vn -0.032520 0.642827 -0.765321
vn -0.032520 0.642827 -0.765321
vn -0.000001 -1.000000 -0.000322
vn 0.000029 -1.000000 -0.000842
vn 0.000000 -1.000000 0.000000
vn 0.000000 -1.000000 0.000000
vn 0.000060 -0.993300 -0.115561
vn 0.000029 -1.000000 -0.000842
vn -0.000001 -1.000000 -0.000322
vn 0.000000 1.000000 0.000000
vn 0.000000 1.000000 0.000000
vn 0.000000 1.000000 0.000000
vn 0.000000 0.987629 0.156808
vn -0.000000 -0.999185 0.040370
vn 0.000000 -0.995766 0.091923
vn 0.000000 -1.000000 0.000000
vn -0.000000 -1.000000 0.000000
vn 0.000000 -0.996148 0.087685
vn 0.000000 -1.000000 -0.000000
vn 0.000000 -1.000000 -0.000000
vn 0.000000 -0.995766 0.091923
vn 0.000000 -1.000000 -0.000000
vn 0.000000 -1.000000 -0.000000
vn 0.000000 -1.000000 -0.000000
vn 0.000000 -1.000000 -0.000000
vn -0.000000 -0.999185 0.040370
vn -0.000000 -1.000000 0.000000
vn -0.000000 -1.000000 -0.000000
vn -0.000000 -1.000000 -0.000000
vn 0.000000 0.948261 0.317493
vn 0.000000 1.000000 0.000000
vn 0.000000 1.000000 0.000000
vn 0.000000 1.000000 0.000000
vn 0.000000 0.943763 0.330623
vn -0.000000 1.000000 0.000000
vn -0.000000 1.000000 0.000000
vn 0.000000 -0.995766 0.091923
vn 0.000000 -1.000000 -0.000000
vn -0.000000 -1.000000 -0.000000
vn 0.000000 0.987629 0.156808
vn 0.000000 0.943763 0.330623
vn 0.000000 0.890196 0.455578
vn 0.000000 -0.990341 0.138655
vn 0.000000 -0.990341 0.138655
vn 0.000000 -0.996148 0.087685
vn 0.000000 -0.995766 0.091923
vn 0.000000 -1.000000 0.000000
vn 0.000000 -1.000000 -0.000000
vn 0.000000 -0.996148 0.087685
vn 0.000000 -1.000000 0.000000
vn 0.000000 1.000000 0.000000
vn 0.000000 1.000000 0.000000
vn -0.000000 1.000000 0.000000
vn -0.000000 1.000000 0.000000
vn -0.011878 0.358808 0.933336
vn -0.011878 0.358808 0.933336
vn -0.011878 0.358808 0.933336
vn -0.011878 0.358808 0.933336
vn 0.000000 1.000000 0.000000
vn 0.000000 1.000000 0.000000
vn 0.000000 1.000000 0.000000
vn 0.000000 1.000000 0.000000
vn -0.000000 1.000000 0.000000
vn -0.000000 1.000000 0.000000
vn -0.000000 1.000000 0.000000
vn -0.000000 1.000000 0.000000
vn 0.012372 0.556456 0.830785
vn 0.012372 0.556456 0.830785
vn -0.002179 0.545977 0.837797
vn 0.000990 0.548277 0.836296
vn -0.000000 -1.000000 -0.000000
vn -0.000000 -1.000000 -0.000000
vn 0.000000 -1.000000 -0.000000
vn 0.000000 -1.000000 -0.000000
vn 0.000000 -1.000000 -0.000000
vn -0.000000 -1.000000 0.000000
vn 0.000000 -1.000000 0.000000
vn 0.000000 -1.000000 -0.000000
vn 0.880081 0.474152 -0.025258
vn 0.880081 0.474152 -0.025258
vn 0.880081 0.474152 -0.025258
vn 0.880081 0.474152 -0.025258
vn -0.930713 0.144664 0.335924
vn -0.930713 0.144664 0.335924
vn -0.930713 0.144664 0.335924
vn -0.930713 0.144664 0.335924
vn 0.987865 0.051978 0.146358
vn 0.987865 0.051978 0.146358
vn 0.987865 0.051978 0.146358
vn 0.987865 0.051978 0.146358
vn -0.898135 0.404615 0.172166
vn -0.898135 0.404615 0.172166
vn -0.898135 0.404615 0.172166
vn -0.898135 0.404615 0.172166
vn -0.870947 0.409911 -0.270970
vn -0.870947 0.409911 -0.270970
vn -0.870947 0.409911 -0.270970
vn -0.870947 0.409911 -0.270970
vn -0.892442 0.144921 0.427254
vn -0.892442 0.144921 0.427254
vn -0.892441 0.144921 0.427254
vn -0.892441 0.144921 0.427254
vn 0.965228 0.254547 0.059497
vn 0.965228 0.254547 0.059497
vn 0.965228 0.254547 0.059497
vn 0.965229 0.254547 0.059497
vn 0.818636 0.498847 0.284580
vn 0.818636 0.498847 0.284580
vn 0.818636 0.498847 0.284580
vn 0.818636 0.498847 0.284580
vn -0.000000 -1.000000 0.000000
vn -0.000000 -1.000000 0.000000
vn -0.000000 -1.000000 0.000000
vn -0.000000 -1.000000 0.000000
vn 1.000000 0.000001 0.000000
vn 1.000000 0.000001 0.000000
vn 1.000000 0.000000 0.000000
vn 1.000000 0.000000 0.000000
vn 0.000000 1.000000 0.000000
vn 0.000000 1.000000 0.000000
vn 0.000000 1.000000 0.000000
vn 0.000000 1.000000 0.000000
vn -1.000000 0.000000 0.000000
vn -1.000000 0.000000 0.000000
vn -1.000000 0.000001 0.000000
vn -1.000000 0.000001 0.000000
vn 0.000000 -1.000000 0.000000
vn -0.000000 -1.000000 0.000000
vn -0.000000 -1.000000 0.000000
vn 0.000000 -1.000000 0.000000
vn 1.000000 0.000001 0.000000
vn 1.000000 0.000002 0.000000
vn 1.000000 0.000002 0.000000
vn 1.000000 0.000001 0.000000
vn 0.000000 1.000000 0.000000
vn 0.000000 1.000000 0.000000
vn 0.000000 1.000000 0.000000
vn 0.000000 1.000000 0.000000
vn -1.000000 0.000003 0.000000
vn -1.000000 0.000001 0.000000
vn -1.000000 0.000001 0.000000
vn -1.000000 0.000003 0.000000
s off
f 1/52/1 66/58/2 67/61/3 3/1/4
f 9/3/5 25/65/6 14/55/7 10/2/8
f 14/55/9 15/4/10 11/5/11 10/2/12
f 12/6/13 26/7/14 16/50/15
f 9/3/16 12/6/17 16/50/18 13/64/19
f 13/64/20 60/73/21 75/68/22 25/65/23
f 2/54/24 15/4/25 14/55/26 4/57/27
f 13/64/28 16/50/29 1/52/30 3/1/31
f 21/39/32 52/15/33 17/14/34
f 19/10/35 18/12/36 22/27/37 23/36/38
f 24/20/39 21/39/40 17/14/41 20/8/42
f 23/36/43 22/27/44 8/32/45 6/30/46
f 7/18/47 21/39/48 24/20/49 5/16/50
f 25/65/51 61/75/52 59/56/53 14/55/54
f 62/78/55 63/79/56 69/59/57 71/63/58
f 72/60/59 70/62/60 2/54/61 4/57/62
f 17/14/63 52/15/64 51/13/65 18/12/66
f 20/8/67 39/9/68 24/20/69
f 20/8/70 19/10/71 46/11/72 39/9/73
f 18/12/74 51/13/75 22/27/76
f 46/11/77 19/10/78 23/36/79
f 5/16/80 34/21/81 35/17/82 7/18/83
f 7/18/84 35/17/85 37/19/86 21/39/87
f 24/20/88 40/33/89 34/21/90 5/16/91
f 36/24/92 33/22/93 27/41/94 30/23/95
f 30/23/96 32/45/97 38/38/98 36/24/99
f 29/44/100 28/25/101 54/47/102 55/48/103
f 22/27/104 44/37/105 42/28/106 8/32/107
f 49/31/108 47/29/109 23/36/110 6/30/111
f 42/28/112 49/31/113 6/30/114 8/32/115
f 24/20/116 39/9/117 40/33/118
f 46/11/119 53/46/120 31/35/121 39/9/122
f 23/36/123 47/29/124 46/11/125
f 51/13/126 44/37/127 22/27/128
f 52/15/129 38/38/130 32/45/131
f 21/39/132 37/19/133 52/15/134
f 33/22/135 41/40/136 31/35/137 27/41/138
f 28/25/139 31/35/140 53/46/141 54/47/142
f 55/48/143 56/49/144 32/45/145 29/44/146
f 52/15/147 32/45/148 56/49/149 51/13/150
f 42/28/151 44/37/152 47/29/153 49/31/154
f 44/37/155 51/13/156 46/11/157 47/29/158
f 51/13/159 45/43/160 48/34/161 46/11/162
f 45/43/163 43/26/164 50/42/165 48/34/166
f 27/41/167 31/35/168 32/45/169 30/23/170
f 31/35/171 28/25/172 29/44/173 32/45/174
f 34/21/175 40/33/176 37/19/177 35/17/178
f 40/33/179 39/9/180 52/15/181 37/19/182
f 39/9/183 41/40/184 38/38/185 52/15/186
f 41/40/187 33/22/188 36/24/189 38/38/190
f 39/9/191 31/35/192 41/40/193
f 48/34/194 53/46/195 46/11/196
f 54/47/197 53/46/198 48/34/199 50/42/200
f 55/48/201 54/47/202 50/42/203 43/26/204
f 45/43/205 56/49/206 55/48/207 43/26/208
f 51/13/209 56/49/210 45/43/211
f 3/1/212 67/61/213 60/73/214 13/64/215
f 16/50/216 26/7/217 79/69/218 58/51/219
f 15/4/220 57/53/221 64/66/222 26/7/223
f 63/79/224 64/66/225 57/53/226 69/59/227
f 16/50/228 58/51/229 66/58/230 1/52/231
f 14/55/232 59/56/233 72/60/234 4/57/235
f 25/65/236 76/67/237 61/75/238
f 26/7/239 64/66/240 80/70/241
f 13/64/242 25/65/243 9/3/244
f 12/6/245 11/5/246 15/4/247 26/7/248
f 70/62/249 57/53/250 15/4/251 2/54/252
f 71/63/253 59/56/254 61/75/255 62/78/256
f 68/74/257 65/71/258 78/80/259 74/72/260
f 60/73/261 68/74/262 74/72/263 75/68/264
f 62/78/265 61/75/266 76/67/267 73/76/268
f 73/76/269 77/77/270 63/79/271 62/78/272
f 77/77/273 80/70/274 64/66/275 63/79/276
f 65/71/277 58/51/278 79/69/279 78/80/280
f 69/59/281 57/53/282 59/56/283 71/63/284
f 57/53/285 70/62/286 72/60/287 59/56/288
f 66/58/289 58/51/290 60/73/291 67/61/292
f 58/51/293 65/71/294 68/74/295 60/73/296
f 73/76/297 76/67/298 80/70/299 77/77/300
f 76/67/301 25/65/302 26/7/303 80/70/304
f 25/65/305 75/68/306 79/69/307 26/7/308
f 75/68/309 74/72/310 78/80/311 79/69/312
f 17/81/313 18/82/314 82/83/315 81/84/316
f 83/85/317 82/83/318 18/82/319 19/86/320
f 84/87/321 83/85/322 19/86/323 20/88/324
f 20/88/325 17/81/326 81/84/327 84/87/328
f 12/89/329 81/90/330 82/91/331 11/92/332
f 83/93/333 10/94/334 11/92/335 82/91/336
f 84/95/337 9/96/338 10/94/339 83/93/340
f 9/96/341 84/95/342 81/90/343 12/89/344
