# This file uses centimeters as units for non-parametric coordinates.

v -94.547546 35.378860 -37.003212
v -94.547546 35.378860 37.003220
v -93.392532 51.277767 -37.849892
v -91.689713 48.528576 37.487427
v 93.860428 49.853615 -37.958626
v 98.173920 51.277767 36.447502
v 96.532570 35.378860 -37.003212
v 96.556404 35.378860 35.645126
v -101.656876 35.378860 -31.452393
v -101.656876 35.378860 31.452412
v -101.691841 45.898857 31.809521
v -102.152290 48.599396 -32.171932
v 101.512131 47.184586 -32.280716
v 105.944710 48.599396 30.769569
v 103.665718 35.378860 30.094322
v 103.641876 35.378860 -31.452393
v -0.508852 49.482559 -37.849892
v -0.059918 49.482559 35.363373
v 1.429417 35.378860 34.596367
v 0.992512 35.378860 -37.003212
v -49.026928 51.199997 -36.067440
v -55.428337 50.938652 36.406101
v -49.072037 35.378860 35.590271
v -48.194588 35.378860 -35.304653
v 50.345737 35.378860 -35.761799
v 48.762531 35.378860 37.003220
v 52.322311 51.255871 37.851387
v 51.044315 51.191376 -36.402809
v 1.005931 35.378860 -18.186367
v 50.147350 35.378860 -17.780626
v 97.837784 35.378860 -18.186367
v 103.641876 35.378860 -17.836384
v 105.920212 48.599396 -18.437023
v 96.824707 52.696732 -18.186367
v 47.847897 54.969917 -14.591030
v -2.736262 50.963394 -19.307888
v -47.790222 52.711845 -13.849896
v -93.459290 52.642838 -18.186367
v -102.152290 48.599396 -18.437023
v -101.656876 35.378860 -17.836384
v -95.825928 35.378860 -18.186367
v -48.572769 35.378860 -18.906727
v -3.383681 35.378860 13.598217
v -41.692322 35.378860 12.817025
v -95.825928 35.378860 11.067041
v -103.665718 35.378860 10.576638
v -103.975540 47.186554 10.565606
v -90.721115 49.300610 15.082865
v -48.942493 52.024288 15.029652
v -3.064131 52.185070 11.931069
v 51.148575 53.785545 14.657825
v 94.073135 52.628319 15.511579
v 103.130638 48.599396 12.756217
v 100.927055 35.378860 12.511593
v 95.086250 35.378860 15.718116
v 42.488735 35.378860 13.343441
v 51.701420 43.633514 -36.912956
v 0.246074 42.738693 -38.287144
v -49.587818 43.633514 -36.506824
v -95.863594 43.647255 -38.287144
v -103.950630 42.291721 -32.543594
v -103.950630 42.291721 -18.552523
v -105.905769 41.576691 10.816013
v -103.717598 40.924980 32.360867
v -95.001778 42.280510 38.104397
v -53.278530 43.574982 36.826599
v 0.697819 42.738693 35.785011
v 51.534534 43.647255 38.288612
v 99.302887 43.647255 36.875965
v 106.889389 42.291721 31.132433
v 104.057716 42.291721 12.925103
v 106.864784 42.291721 -18.552523
v 104.633850 41.575691 -32.598660
v 97.107597 42.931213 -38.342190
v -99.979233 -0.000000 -32.897427
v -99.979233 -0.000000 32.897427
v 100.005905 -0.000000 32.897427
v 100.005905 -0.000000 -32.897427
v 100.005905 36.024742 -32.897427
v 100.005905 36.024742 32.897427
v -99.979233 36.024742 32.897427
v -99.979233 36.024742 -32.897427
v 100.005905 10.147221 -32.897427
v 100.005905 30.034260 -32.897427
v 96.692375 14.514340 -32.897427
v 100.005905 14.599200 -30.849991
v 100.005905 1.941660 32.897427
v 100.005905 29.518814 32.897427
v 100.005905 6.917944 29.355034
v 97.664734 7.097948 32.897427
v -99.979233 31.949379 32.897427
v -96.053795 16.698980 32.897427
v -99.979233 16.610701 30.772572
vt 0.450249 0.093619
vt 0.450249 0.078927
vt 0.450249 0.093619
vt 0.450249 0.078927
vt 0.450249 0.075254
vt 0.450249 0.093619
vt 0.450249 0.075254
vt 0.450249 0.093619
vt 0.450249 0.093619
vt 0.450249 0.078927
vt 0.450249 0.093619
vt 0.450249 0.093619
vt 0.450249 0.075254
vt 0.450249 0.075254
vt 0.450249 0.093619
vt 0.450249 0.078927
vt 0.450249 0.078927
vt 0.450249 0.093619
vt 0.450249 0.075254
vt 0.450249 0.093619
vt 0.450249 0.093619
vt 0.450249 0.075254
vt 0.450249 0.093619
vt 0.450249 0.093619
vt 0.450249 0.093619
vt 0.450249 0.093619
vt 0.450249 0.093619
vt 0.450249 0.093619
vt 0.450249 0.093619
vt 0.450249 0.093619
vt 0.450249 0.098777
vt 0.450249 0.098777
vt 0.450249 0.078927
vt 0.450249 0.078927
vt 0.450249 0.078927
vt 0.450249 0.078927
vt 0.450249 0.093619
vt 0.450249 0.093619
vt 0.450249 0.075254
vt 0.450249 0.075254
vt 0.450249 0.079995
vt 0.450249 0.079995
vt 0.450249 0.079995
vt 0.450249 0.079995
vt 0.450249 0.075254
vt 0.450249 0.075254
vt 0.450249 0.093619
vt 0.450249 0.075254
vt 0.450249 0.075254
vt 0.450249 0.075254
vt 0.450249 0.075254
vt 0.450249 0.075254
vt 0.450249 0.096520
vt 0.450249 0.093619
vt 0.450249 0.093619
vt 0.450249 0.076741
vt 0.450249 0.093619
vt 0.450249 0.093619
vt 0.450249 0.093619
vt 0.450249 0.093619
vt 0.450249 0.093619
vt 0.450249 0.093619
vt 0.450249 0.093619
vt 0.450249 0.078927
vt 0.450249 0.078927
vt 0.450249 0.078927
vt 0.450249 0.078927
vt 0.450249 0.078927
vt 0.450249 0.095149
vt 0.450249 0.081069
vt 0.450249 0.093619
vt 0.450249 0.093619
vt 0.450249 0.093619
vt 0.450249 0.093619
vt 0.450249 0.093619
vt 0.450249 0.093619
vt 0.450249 0.075254
vt 0.450249 0.093619
vt 0.450249 0.093619
vt 0.450249 0.093619
vt 0.450249 0.093619
vt 0.450249 0.093619
vt 0.450249 0.078927
vt 0.450249 0.078927
vt 0.450249 0.078927
vt 0.450249 0.078927
vt 0.450249 0.093619
vt 0.450249 0.079995
vt 0.450249 0.093619
vt 0.450249 0.093619
vt 0.450249 0.093619
vt 0.450249 0.093619
vt 0.450249 0.075254
vt 0.450249 0.075254
vt 0.450249 0.075254
vt 0.450249 0.075254
vt 0.446714 0.033880
vt 0.446717 0.033787
vt 0.446699 0.034137
vt 0.446703 0.034041
vt 0.447402 0.033823
vt 0.447392 0.033541
vt 0.447416 0.033688
vt 0.447430 0.033557
vt 0.447479 0.033545
vt 0.447418 0.034177
vt 0.446736 0.033897
vt 0.447438 0.033442
vt 0.446736 0.033464
vt 0.446748 0.033275
vt 0.446823 0.033264
vt 0.446751 0.033221
vt 0.446732 0.033604
vt 0.446753 0.033177
vt 0.447460 0.033211
vn -0.953310 0.297681 -0.050856
vn -0.953310 0.297681 -0.050856
vn -0.953310 0.297681 -0.050856
vn -0.953310 0.297681 -0.050856
vn 0.985282 0.146553 0.087988
vn 0.985282 0.146553 0.087988
vn 0.985282 0.146553 0.087988
vn 0.985282 0.146553 0.087988
vn 0.000000 -1.000000 0.000000
vn 0.000000 -1.000000 0.000000
vn 0.000000 -1.000000 0.000000
vn 0.000000 -1.000000 0.000000
vn -0.049766 0.059764 0.996971
vn -0.049766 0.059764 0.996971
vn -0.049766 0.059764 0.996971
vn -0.049766 0.059764 0.996971
vn 0.025582 0.068592 -0.997317
vn 0.025582 0.068592 -0.997317
vn 0.025582 0.068592 -0.997317
vn 0.025582 0.068592 -0.997317
vn 0.000000 -1.000000 0.000000
vn 0.000000 -1.000000 0.000000
vn 0.000000 -1.000000 0.000000
vn 0.000000 -1.000000 0.000000
vn -0.541623 0.337768 0.769778
vn -0.541623 0.337768 0.769778
vn -0.541623 0.337768 0.769778
vn -0.541623 0.337768 0.769778
vn -0.284823 0.955471 0.077144
vn -0.284823 0.955471 0.077144
vn -0.284823 0.955471 0.077144
vn -0.284823 0.955471 0.077144
vn -0.583073 0.223923 -0.780950
vn -0.583073 0.223923 -0.780950
vn -0.583073 0.223923 -0.780950
vn -0.583073 0.223923 -0.780950
vn 0.413309 0.909869 0.036252
vn 0.413309 0.909869 0.036252
vn 0.413309 0.909869 0.036252
vn 0.413309 0.909869 0.036252
vn 0.613934 0.135488 0.777643
vn 0.613934 0.135488 0.777643
vn 0.613934 0.135488 0.777643
vn 0.613934 0.135488 0.777643
vn 0.000000 -1.000000 0.000000
vn 0.000000 -1.000000 0.000000
vn 0.000000 -1.000000 0.000000
vn 0.000000 -1.000000 0.000000
vn 0.620428 0.354489 -0.699576
vn 0.620428 0.354489 -0.699576
vn 0.620428 0.354489 -0.699576
vn 0.620428 0.354489 -0.699576
vn 0.020356 0.063756 0.997758
vn 0.020356 0.063756 0.997758
vn 0.020356 0.063756 0.997758
vn 0.020356 0.063756 0.997758
vn 0.000000 -1.000000 -0.000000
vn 0.000000 -1.000000 -0.000000
vn 0.000000 -1.000000 -0.000000
vn 0.000000 -1.000000 -0.000000
vn -0.034526 0.060641 -0.997562
vn -0.034526 0.060641 -0.997562
vn -0.034526 0.060641 -0.997562
vn -0.034526 0.060641 -0.997562
vn 0.026657 0.073708 0.996924
vn 0.026657 0.073708 0.996924
vn 0.026657 0.073708 0.996924
vn 0.026657 0.073708 0.996924
vn 0.000000 -1.000000 0.000000
vn 0.000000 -1.000000 0.000000
vn 0.000000 -1.000000 0.000000
vn 0.000000 -1.000000 0.000000
vn 0.039277 0.049733 -0.997990
vn 0.039277 0.049733 -0.997990
vn 0.039277 0.049733 -0.997990
vn 0.039277 0.049733 -0.997990
vn 0.000000 -1.000000 0.000000
vn 0.000000 -1.000000 0.000000
vn 0.000000 -1.000000 0.000000
vn 0.000000 -1.000000 0.000000
vn 0.030008 0.057360 0.997903
vn 0.030008 0.057360 0.997903
vn 0.030008 0.057360 0.997903
vn 0.030008 0.057360 0.997903
vn -0.032549 0.052824 -0.998073
vn -0.032549 0.052824 -0.998073
vn -0.032549 0.052824 -0.998073
vn -0.032549 0.052824 -0.998073
vn 0.000000 -1.000000 -0.000000
vn 0.000000 -1.000000 -0.000000
vn 0.000000 -1.000000 -0.000000
vn 0.000000 -1.000000 -0.000000
vn 0.000000 -1.000000 0.000000
vn 0.000000 -1.000000 0.000000
vn 0.000000 -1.000000 0.000000
vn 0.000000 -1.000000 0.000000
vn 0.000000 -1.000000 0.000000
vn 0.000000 -1.000000 0.000000
vn 0.000000 -1.000000 0.000000
vn 0.000000 -1.000000 0.000000
vn 0.915449 0.321198 -0.242457
vn 0.915449 0.321198 -0.242457
vn 0.915449 0.321198 -0.242457
vn 0.915449 0.321198 -0.242457
vn 0.422955 0.882757 -0.204572
vn 0.422955 0.882757 -0.204572
vn 0.422955 0.882757 -0.204572
vn 0.422955 0.882757 -0.204572
vn -0.369592 0.928389 -0.038684
vn -0.369592 0.928389 -0.038684
vn -0.369592 0.928389 -0.038684
vn -0.369592 0.928389 -0.038684
vn -0.961679 0.274178 0.000000
vn -0.961679 0.274178 0.000000
vn -0.961679 0.274178 0.000000
vn -0.961679 0.274178 0.000000
vn 0.000000 -1.000000 0.000000
vn 0.000000 -1.000000 0.000000
vn 0.000000 -1.000000 0.000000
vn 0.000000 -1.000000 0.000000
vn 0.000000 -1.000000 0.000000
vn 0.000000 -1.000000 0.000000
vn 0.000000 -1.000000 0.000000
vn 0.000000 -1.000000 0.000000
vn 0.000000 -1.000000 0.000000
vn 0.000000 -1.000000 0.000000
vn 0.000000 -1.000000 0.000000
vn 0.000000 -1.000000 0.000000
vn 0.000000 -1.000000 0.000000
vn 0.000000 -1.000000 0.000000
vn 0.000000 -1.000000 0.000000
vn 0.000000 -1.000000 0.000000
vn 0.000000 -1.000000 0.000000
vn 0.000000 -1.000000 0.000000
vn 0.000000 -1.000000 0.000000
vn 0.000000 -1.000000 0.000000
vn 0.000000 -1.000000 -0.000000
vn 0.000000 -1.000000 -0.000000
vn 0.000000 -1.000000 -0.000000
vn 0.000000 -1.000000 -0.000000
vn -0.927857 0.355379 0.113078
vn -0.927857 0.355379 0.113078
vn -0.927857 0.355379 0.113078
vn -0.927857 0.355379 0.113078
vn -0.221681 0.973698 0.052627
vn -0.221681 0.973698 0.052627
vn -0.221681 0.973698 0.052627
vn -0.221681 0.973698 0.052627
vn 0.356651 0.933725 -0.030942
vn 0.356651 0.933725 -0.030942
vn 0.356651 0.933725 -0.030942
vn 0.356651 0.933725 -0.030942
vn 0.978511 0.138755 -0.152521
vn 0.978511 0.138755 -0.152521
vn 0.978511 0.138755 -0.152521
vn 0.978511 0.138755 -0.152521
vn 0.000000 -1.000000 0.000000
vn 0.000000 -1.000000 0.000000
vn 0.000000 -1.000000 0.000000
vn 0.000000 -1.000000 0.000000
vn 0.000000 -1.000000 -0.000000
vn 0.000000 -1.000000 -0.000000
vn 0.000000 -1.000000 -0.000000
vn 0.000000 -1.000000 -0.000000
vn 0.000000 -1.000000 -0.000000
vn 0.000000 -1.000000 -0.000000
vn 0.000000 -1.000000 -0.000000
vn 0.000000 -1.000000 -0.000000
vn 0.026999 -0.155060 -0.987536
vn 0.026999 -0.155060 -0.987536
vn 0.026999 -0.155060 -0.987536
vn 0.026999 -0.155060 -0.987536
vn -0.036109 -0.161958 -0.986137
vn -0.036109 -0.161958 -0.986137
vn -0.036109 -0.161958 -0.986137
vn -0.036109 -0.161958 -0.986137
vn 0.037125 -0.142730 -0.989065
vn 0.037125 -0.142730 -0.989065
vn 0.037125 -0.142730 -0.989065
vn 0.037125 -0.142730 -0.989065
vn -0.561692 -0.256615 -0.786544
vn -0.561692 -0.256615 -0.786544
vn -0.561692 -0.256615 -0.786544
vn -0.561692 -0.256615 -0.786544
vn -0.949116 -0.314927 0.000000
vn -0.949116 -0.314927 0.000000
vn -0.949116 -0.314927 0.000000
vn -0.949116 -0.314927 0.000000
vn -0.942080 -0.328278 -0.068692
vn -0.942080 -0.328278 -0.068692
vn -0.942080 -0.328278 -0.068692
vn -0.942080 -0.328278 -0.068692
vn -0.932690 -0.350054 0.086901
vn -0.932690 -0.350054 0.086901
vn -0.932690 -0.350054 0.086901
vn -0.932690 -0.350054 0.086901
vn -0.550183 -0.240272 0.799730
vn -0.550183 -0.240272 0.799730
vn -0.550183 -0.240272 0.799730
vn -0.550183 -0.240272 0.799730
vn 0.032647 -0.143070 0.989174
vn 0.032647 -0.143070 0.989174
vn 0.032647 -0.143070 0.989174
vn 0.032647 -0.143070 0.989174
vn 0.018076 -0.148397 0.988763
vn 0.018076 -0.148397 0.988763
vn 0.018076 -0.148397 0.988763
vn 0.018076 -0.148397 0.988763
vn -0.048006 -0.150061 0.987511
vn -0.048006 -0.150061 0.987511
vn -0.048006 -0.150061 0.987511
vn -0.048006 -0.150061 0.987511
vn 0.028610 -0.159691 0.986752
vn 0.028610 -0.159691 0.986752
vn 0.028610 -0.159691 0.986752
vn 0.028610 -0.159691 0.986752
vn 0.555275 -0.332312 0.762390
vn 0.555275 -0.332312 0.762390
vn 0.555275 -0.332312 0.762390
vn 0.555275 -0.332312 0.762390
vn 0.905096 -0.401194 -0.140868
vn 0.905096 -0.401194 -0.140868
vn 0.905096 -0.401194 -0.140868
vn 0.905096 -0.401194 -0.140868
vn 0.906336 -0.414732 0.080948
vn 0.906336 -0.414732 0.080948
vn 0.906336 -0.414732 0.080948
vn 0.906336 -0.414732 0.080948
vn 0.946922 -0.314137 -0.068237
vn 0.946922 -0.314137 -0.068237
vn 0.946922 -0.314137 -0.068237
vn 0.946922 -0.314137 -0.068237
vn 0.585367 -0.208345 -0.783542
vn 0.585367 -0.208345 -0.783542
vn 0.585367 -0.208345 -0.783542
vn 0.585367 -0.208345 -0.783542
vn -0.029971 -0.151971 -0.987930
vn -0.029971 -0.151971 -0.987930
vn -0.029971 -0.151971 -0.987930
vn -0.029971 -0.151971 -0.987930
vn -0.053570 0.998562 0.002017
vn -0.053570 0.998562 0.002017
vn -0.053570 0.998562 0.002017
vn -0.053570 0.998562 0.002017
vn -0.035058 0.997233 0.065556
vn -0.035058 0.997233 0.065556
vn -0.035058 0.997233 0.065556
vn -0.035058 0.997233 0.065556
vn 0.030021 0.987139 -0.157020
vn 0.030021 0.987139 -0.157020
vn 0.030021 0.987139 -0.157020
vn 0.030021 0.987139 -0.157020
vn 0.031320 0.996881 -0.072432
vn 0.031320 0.996881 -0.072432
vn 0.031320 0.996881 -0.072432
vn 0.031320 0.996881 -0.072432
vn 0.016242 0.996207 0.085482
vn 0.016242 0.996207 0.085482
vn 0.016242 0.996207 0.085482
vn 0.016242 0.996207 0.085482
vn 0.013273 0.996206 0.086008
vn 0.013273 0.996206 0.086008
vn 0.013273 0.996206 0.086008
vn 0.013273 0.996206 0.086008
vn 0.016660 0.999825 -0.008473
vn 0.016660 0.999825 -0.008473
vn 0.016660 0.999825 -0.008473
vn 0.016660 0.999825 -0.008473
vn 0.037877 0.999091 0.019554
vn 0.037877 0.999091 0.019554
vn 0.037877 0.999091 0.019554
vn 0.037877 0.999091 0.019554
vn -0.047212 0.989675 -0.135332
vn -0.047212 0.989675 -0.135332
vn -0.047212 0.989675 -0.135332
vn -0.047212 0.989675 -0.135332
vn 0.004764 0.997629 -0.068663
vn 0.004764 0.997629 -0.068663
vn 0.004764 0.997629 -0.068663
vn 0.004764 0.997629 -0.068663
vn -0.065158 0.997386 0.031226
vn -0.065158 0.997386 0.031226
vn -0.065158 0.997386 0.031226
vn -0.065158 0.997386 0.031226
vn -0.037032 0.992708 0.114716
vn -0.037032 0.992708 0.114716
vn -0.037032 0.992708 0.114716
vn -0.037032 0.992708 0.114716
vn -0.000000 0.000000 1.000000
vn -0.000000 0.000000 1.000000
vn -0.000000 0.000000 1.000000
vn -0.000000 0.000000 1.000000
vn 1.000000 -0.000000 0.000000
vn 1.000000 -0.000000 0.000000
vn 1.000000 -0.000000 0.000000
vn 1.000000 -0.000000 0.000000
vn 0.000000 0.000000 -1.000000
vn 0.000000 0.000000 -1.000000
vn 0.000000 0.000000 -1.000000
vn -1.000000 0.000000 0.000000
vn -1.000000 0.000000 0.000000
vn -1.000000 0.000000 0.000000
vn 0.511835 -0.264400 -0.817385
vn 0.511835 -0.264400 -0.817385
vn 0.511835 -0.264400 -0.817385
vn 0.482376 0.366000 -0.795837
vn 0.482376 0.366000 -0.795837
vn 0.482376 0.366000 -0.795837
vn 0.822108 -0.144546 0.550677
vn 0.822108 -0.144546 0.550677
vn 0.822108 -0.144546 0.550677
vn 0.787383 0.357504 0.502215
vn 0.787383 0.357504 0.502215
vn 0.787383 0.357504 0.502215
vn -0.450848 -0.288007 0.844860
vn -0.450848 -0.288007 0.844860
vn -0.450848 -0.288007 0.844860
vn -0.475001 0.111659 0.872873
vn -0.475001 0.111659 0.872873
vn -0.475001 0.111659 0.872873
vn -0.000000 0.000000 1.000000
vn -0.000000 0.000000 1.000000
vn -0.000000 0.000000 1.000000
vn -0.000000 0.000000 1.000000
vn -0.000000 0.000000 1.000000
vn -0.000000 0.000000 1.000000
vn -0.000000 0.000000 1.000000
vn -0.000000 0.000000 1.000000
vn 0.000000 0.000000 1.000000
vn 0.000000 0.000000 1.000000
vn 0.000000 0.000000 1.000000
vn -1.000000 0.000000 0.000000
vn -1.000000 0.000000 0.000000
vn -1.000000 0.000000 0.000000
vn -1.000000 0.000000 0.000000
vn -1.000000 0.000000 0.000000
vn -1.000000 0.000000 0.000000
vn -1.000000 0.000000 0.000000
vn -0.000000 0.000000 -1.000000
vn -0.000000 0.000000 -1.000000
vn -0.000000 0.000000 -1.000000
vn -0.000000 0.000000 -1.000000
vn 0.000000 0.000000 -1.000000
vn 0.000000 0.000000 -1.000000
vn 0.000000 0.000000 -1.000000
vn 0.000000 0.000000 -1.000000
vn 1.000000 0.000000 0.000000
vn 1.000000 0.000000 0.000000
vn 1.000000 0.000000 0.000000
vn 1.000000 0.000000 0.000000
vn 1.000000 0.000000 0.000000
vn 1.000000 0.000000 0.000000
vn 1.000000 0.000000 0.000000
vn 1.000000 0.000000 0.000000
vn 1.000000 0.000000 0.000000
vn 1.000000 0.000000 0.000000
vn 1.000000 0.000000 0.000000
vn 1.000000 0.000000 0.000000
vn -0.000000 -1.000000 0.000000
vn -0.000000 -1.000000 0.000000
vn -0.000000 -1.000000 0.000000
vn -0.000000 -1.000000 0.000000
vn 0.000000 1.000000 0.000000
vn 0.000000 1.000000 0.000000
vn 0.000000 1.000000 0.000000
vn 0.000000 1.000000 0.000000
s off
f 39/57/1 62/82/2 63/83/3 47/67/4
f 71/92/5 72/93/6 33/51/7 53/73/8
f 29/47/9 30/48/10 56/76/11 43/62/12
f 18/26/13 67/87/14 68/88/15 27/44/16
f 28/45/17 57/77/18 58/78/19 17/23/20
f 40/58/21 41/59/22 45/64/23 46/66/24
f 64/84/25 65/85/26 4/4/27 11/17/28
f 47/67/29 48/68/30 38/56/31 39/57/32
f 3/3/33 60/80/34 61/81/35 12/18/36
f 33/51/37 34/52/38 52/72/39 53/73/40
f 6/6/41 69/89/42 70/91/43 14/20/44
f 54/74/45 55/75/46 31/49/47 32/50/48
f 73/94/49 74/95/50 5/5/51 13/19/52
f 22/34/53 66/86/54 67/87/55 18/26/56
f 42/61/57 29/47/58 43/62/59 44/63/60
f 17/23/61 58/78/62 59/79/63 21/31/64
f 65/85/65 66/86/66 22/34/67 4/4/68
f 41/60/69 42/61/70 44/63/71 45/65/72
f 21/31/73 59/79/74 60/80/75 3/3/76
f 30/48/77 31/49/78 55/75/79 56/76/80
f 27/44/81 68/88/82 69/90/83 6/12/84
f 74/96/85 57/77/86 28/45/87 5/14/88
f 25/40/89 30/48/90 29/47/91 20/30/92
f 7/7/93 31/49/94 30/48/95 25/40/96
f 32/50/97 31/49/98 7/7/99 16/22/100
f 13/19/101 33/51/102 72/93/103 73/94/104
f 5/5/105 34/52/106 33/51/107 13/19/108
f 39/57/109 38/56/110 3/3/111 12/18/112
f 61/81/113 62/82/114 39/57/115 12/18/116
f 1/1/117 41/59/118 40/58/119 9/15/120
f 24/38/121 42/61/122 41/60/123 1/9/124
f 20/30/125 29/47/126 42/61/127 24/38/128
f 44/63/129 43/62/130 19/27/131 23/35/132
f 45/65/133 44/63/134 23/35/135 2/10/136
f 46/66/137 45/64/138 2/2/139 10/16/140
f 47/67/141 63/83/142 64/84/143 11/17/144
f 4/4/145 48/68/146 47/67/147 11/17/148
f 53/73/149 52/72/150 6/6/151 14/20/152
f 70/91/153 71/92/154 53/73/155 14/20/156
f 8/8/157 55/75/158 54/74/159 15/21/160
f 56/76/161 55/75/162 8/8/163 26/41/164
f 43/62/165 56/76/166 26/41/167 19/27/168
f 58/78/169 57/77/170 25/39/171 20/29/172
f 59/79/173 58/78/174 20/29/175 24/37/176
f 60/80/177 59/79/178 24/37/179 1/1/180
f 61/81/181 60/80/182 1/1/183 9/15/184
f 9/15/185 40/58/186 62/82/187 61/81/188
f 63/83/189 62/82/190 40/58/191 46/66/192
f 64/84/193 63/83/194 46/66/195 10/16/196
f 2/2/197 65/85/198 64/84/199 10/16/200
f 2/2/201 23/36/202 66/86/203 65/85/204
f 67/87/205 66/86/206 23/36/207 19/28/208
f 68/88/209 67/87/210 19/28/211 26/42/212
f 69/90/213 68/88/214 26/42/215 8/11/216
f 70/91/217 69/89/218 8/8/219 15/21/220
f 54/74/221 71/92/222 70/91/223 15/21/224
f 32/50/225 72/93/226 71/92/227 54/74/228
f 73/94/229 72/93/230 32/50/231 16/22/232
f 7/7/233 74/95/234 73/94/235 16/22/236
f 7/13/237 25/39/238 57/77/239 74/96/240
f 51/71/241 35/53/242 36/54/243 50/70/244
f 49/69/245 37/55/246 38/56/247 48/68/248
f 5/5/249 28/46/250 35/53/251 34/52/252
f 17/24/253 21/32/254 37/55/255 36/54/256
f 18/25/257 50/70/258 49/69/259 22/33/260
f 6/6/261 52/72/262 51/71/263 27/43/264
f 50/70/265 36/54/266 37/55/267 49/69/268
f 52/72/269 34/52/270 35/53/271 51/71/272
f 28/46/273 17/24/274 36/54/275 35/53/276
f 21/32/277 3/3/278 38/56/279 37/55/280
f 22/33/281 49/69/282 48/68/283 4/4/284
f 27/43/285 51/71/286 50/70/287 18/25/288
f 92/97/289 80/98/290 81/99/291 91/100/292
f 79/101/293 80/98/294 86/102/295 84/103/296
f 85/104/297 75/105/298 82/106/299
f 75/105/300 93/107/301 82/106/302
f 86/102/303 85/104/304 84/103/305
f 83/108/306 85/104/307 86/102/308
f 88/109/309 90/110/310 89/111/311
f 89/111/312 90/110/313 87/112/314
f 91/100/315 93/107/316 92/97/317
f 92/97/318 93/107/319 76/113/320
f 76/113/321 77/114/322 87/112/323 90/110/324
f 76/113/325 88/109/326 80/98/327 92/97/328
f 76/113/329 90/110/330 88/109/331
f 75/105/332 76/113/333 93/107/334
f 82/106/335 93/107/336 91/100/337 81/99/338
f 85/104/339 82/106/340 79/101/341 84/103/342
f 78/115/343 75/105/344 85/104/345 83/108/346
f 86/102/347 89/111/348 78/115/349 83/108/350
f 86/102/351 80/98/352 88/109/353 89/111/354
f 78/115/355 89/111/356 87/112/357 77/114/358
f 76/113/359 75/105/360 78/115/361 77/114/362
f 81/99/363 80/98/364 79/101/365 82/106/366
