# This file uses centimeters as units for non-parametric coordinates.

v 0.000000 47.585033 -35.722103
v 0.000000 -47.585033 -35.722103
v -0.000000 47.585033 35.722103
v -0.000000 -47.585033 35.722103
v 0.000000 16.285025 -13.558985
v -0.000000 0.000000 35.722103
v 0.000000 -47.585033 0.000000
v 0.000000 3.409399 -21.184212
v 0.000000 25.150810 -4.547050
v 0.000000 -19.270451 -35.722103
v 0.000000 15.095738 -22.242886
v 0.000000 24.075865 -16.340734
v 0.000000 34.516083 -6.247037
v -0.000000 47.585033 15.742603
v -4.757344 -19.893093 -34.154823
v -3.584476 15.095738 -22.242886
v -2.793705 -29.543156 -30.528622
v -1.948698 3.433812 -20.476517
v -3.584476 24.075865 -16.340734
v -2.694819 15.043519 -13.832533
v -3.584476 34.516083 -6.247037
v -3.584476 25.150810 -4.547050
v -3.489727 46.330593 16.134935
v 0.000000 -25.270702 -33.373985
v -4.256184 -20.906656 -34.540813
v -2.636034 -28.556189 -31.190248
v 0.000000 -20.607899 -35.198711
v 0.000000 -24.474949 -33.685394
v -1.394758 -20.969131 -32.111858
v -5.845041 -24.482967 -31.566441
v -6.561837 -24.024809 -31.019043
v -4.343234 7.859193 -21.156446
v -3.584476 36.916237 16.780865
v -0.000000 34.312794 16.623531
v -2.929159 45.694492 16.242441
v -3.143300 37.440731 16.681690
v -0.000000 34.862331 16.539131
v -0.000000 47.061733 15.827294
v -3.584476 36.317162 13.514671
v -0.000000 35.750946 12.789544
v -2.676651 34.463318 6.903903
v -0.000000 34.041794 6.348979
v -4.066640 19.986866 -14.874488
v -5.112940 27.075876 -4.720386
v -3.584476 43.084663 5.961069
v 0.000000 42.946983 5.754027
v -4.320004 36.026180 6.987328
v -5.238716 39.552021 13.671270
v -4.576292 39.784336 16.549244
v -3.899416 39.924835 16.460577
v -0.000000 41.202824 13.809871
v 0.000000 -0.572782 -30.242472
v -3.645342 -1.579820 -29.551668
v -5.497664 -7.359808 -26.290766
v -2.180848 -12.429863 -25.451694
v 0.000000 -11.091038 -27.290880
v 0.000000 29.585613 -10.876762
v 0.000000 42.891022 -25.135462
v 0.000000 35.047691 -15.226379
v 0.000000 38.048985 -12.762429
v -3.584476 30.037601 -10.576875
v -5.452992 23.881210 -7.087254
v -3.467694 29.869474 -9.801512
v -3.467694 33.512238 -6.279653
v -4.989689 24.472458 -6.890615
v -4.710936 27.460428 -5.037886
v 0.000000 29.588739 -9.935830
v 0.000000 33.512238 -6.279653
v -3.525667 20.839821 -6.218229
v 0.000000 25.717897 -4.791402
v -3.467694 25.894594 -4.878763
v -0.552107 26.137735 -7.859011
v -0.552107 30.705151 -4.954003
v 0.000000 21.362732 -6.085885
v -4.261987 20.182911 -6.191023
v 0.226637 22.095200 -6.340674
v 0.000000 27.944885 -2.545291
v -3.584476 28.283510 -2.351800
v -5.140861 30.373873 -2.151245
v -3.584476 36.838963 -3.859668
v 0.000000 36.653061 -4.126684
v 0.000000 39.397640 -7.663953
v -5.197329 24.036451 -9.151561
v -4.050489 19.937958 -8.057199
v -0.049926 20.827211 -8.306988
v -4.556619 22.475861 -11.475714
v -3.385423 19.134985 -9.922968
v 0.000000 20.191156 -10.183678
vt 0.636098 0.242730
vt 0.875967 0.002883
vt 0.803947 0.176012
vt 0.783186 0.126640
vt 0.829871 0.219878
vt 0.997412 0.003304
vt 0.860509 0.250127
vt 0.855277 0.237229
vt 0.997412 0.326875
vt 0.635077 0.243410
vt 0.635369 0.243702
vt 0.635598 0.244065
vt 0.636098 0.244867
vt 0.635723 0.243731
vt 0.635528 0.243490
vt 0.635278 0.243276
vt 0.634456 0.242728
vt 0.635723 0.243731
vt 0.636098 0.244867
vt 0.636098 0.245234
vt 0.635598 0.244065
vt 0.635528 0.243490
vt 0.635369 0.243702
vt 0.635278 0.243276
vt 0.635077 0.243410
vt 0.634456 0.242728
vt 0.636048 0.245116
vt 0.929488 0.326640
vt 0.929776 0.324862
vt 0.779113 0.079591
vt 0.776226 0.126970
vt 0.772212 0.122947
vt 0.774103 0.086949
vt 0.758415 0.129183
vt 0.758994 0.122337
vt 0.761011 0.098471
vt 0.760667 0.102544
vt 0.754522 0.002463
vt 0.762505 0.078358
vt 0.961023 0.748098
vt 0.961181 0.747390
vt 0.961176 0.747505
vt 0.961470 0.747415
vt 0.961376 0.747801
vt 0.773132 0.105441
vt 0.961104 0.747734
vt 0.636098 0.245026
vt 0.777480 0.106393
vt 0.635656 0.243909
vt 0.634423 0.242898
vt 0.634428 0.242902
vt 0.761447 0.081060
vt 0.782333 0.306614
vt 0.782304 0.306248
vt 0.782328 0.306256
vt 0.782360 0.306579
vt 0.756302 0.094190
vt 0.782353 0.306089
vt 0.782495 0.305948
vt 0.782492 0.305978
vt 0.782368 0.306118
vt 0.754522 0.098731
vt 0.997412 0.165089
vt 0.634527 0.242980
vt 0.634550 0.242998
vt 0.867314 0.259650
vt 0.634716 0.243128
vt 0.634734 0.243141
vt 0.932483 0.281526
vt 0.635405 0.243654
vt 0.635116 0.243384
vt 0.634817 0.242969
vt 0.634823 0.242973
vt 0.634739 0.243092
vt 0.634515 0.242936
vt 0.782462 0.306687
vt 0.634428 0.242873
vt 0.782465 0.306658
vt 0.922917 0.304918
vt 0.752085 0.231086
vt 0.635911 0.244300
vt 0.635918 0.244321
vt 0.635884 0.244484
vt 0.635856 0.244668
vt 0.635842 0.244636
vt 0.932196 0.283393
vt 0.752937 0.229217
vt 0.753258 0.231765
vt 0.751709 0.228468
vt 0.752064 0.227354
vt 0.753371 0.226251
vt 0.635407 0.243387
vt 0.635803 0.242926
vt 0.635553 0.243218
vt 0.635480 0.243141
vt 0.635385 0.243368
vt 0.635150 0.243416
vt 0.635385 0.243368
vt 0.635150 0.243416
vt 0.635116 0.243384
vt 0.635278 0.243276
vt 0.635278 0.243276
vt 0.635407 0.243387
vt 0.635087 0.243420
vt 0.635077 0.243410
vt 0.635077 0.243410
vt 0.752940 0.230447
vt 0.753504 0.229353
vt 0.790514 0.310200
vt 0.824202 0.283650
vt 0.832579 0.293883
vt 0.838990 0.265130
vt 0.854729 0.281948
vt 0.842188 0.265152
vt 0.854618 0.278535
vt 0.859678 0.252052
vt 0.854365 0.239762
vt 0.849361 0.253334
vt 0.635095 0.243429
vt 0.859237 0.268897
vt 0.635105 0.243439
vt 0.635080 0.243414
vt 0.847736 0.235373
vt 0.919448 0.286370
vt 0.897552 0.280484
vt 0.841346 0.233198
vt 0.753855 0.228301
vt 0.635010 0.243358
vt 0.753516 0.227355
vt 0.634999 0.243349
vt 0.635024 0.243313
vt 0.635178 0.243210
vt 0.635188 0.243216
vt 0.635299 0.243095
vt 0.635203 0.243465
vt 0.635147 0.243480
vt 0.635150 0.243483
vt 0.753802 0.227614
vt 0.635316 0.243571
vt 0.635238 0.243571
vt 0.635244 0.243577
vt 0.752740 0.226906
vt 0.753260 0.230635
vt 0.751896 0.229245
vt 0.752379 0.227590
vt 0.751524 0.228947
vt 0.753067 0.227499
vt 0.753161 0.226920
vn -1.000000 0.000000 -0.000000
vn -1.000000 0.000000 -0.000000
vn -1.000000 0.000000 -0.000000
vn -1.000000 0.000000 -0.000000
vn -1.000000 -0.000000 -0.000000
vn -1.000000 -0.000000 -0.000000
vn -1.000000 -0.000000 -0.000000
vn -1.000000 0.000000 -0.000000
vn -1.000000 0.000000 -0.000000
vn -1.000000 0.000000 -0.000000
vn -1.000000 0.000000 0.000000
vn -1.000000 0.000000 0.000000
vn -1.000000 0.000000 0.000000
vn -1.000000 0.000000 0.000000
vn -1.000000 0.000000 0.000000
vn -1.000000 0.000000 0.000000
vn -1.000000 0.000000 -0.000000
vn -1.000000 0.000000 -0.000000
vn -1.000000 0.000000 -0.000000
vn -1.000000 0.000000 -0.000000
vn -1.000000 0.000000 -0.000000
vn -1.000000 0.000000 -0.000000
vn -1.000000 -0.000000 -0.000000
vn -1.000000 -0.000000 -0.000000
vn -1.000000 -0.000000 -0.000000
vn -0.968483 0.121690 -0.217330
vn -0.968483 0.121690 -0.217330
vn -0.968483 0.121690 -0.217330
vn -0.968483 0.121690 -0.217330
vn -0.989543 0.081617 -0.118930
vn -0.989543 0.081617 -0.118930
vn -0.989543 0.081617 -0.118930
vn -0.989543 0.081617 -0.118930
vn -0.144443 0.423537 -0.894289
vn -0.144443 0.423537 -0.894289
vn -0.144443 0.423537 -0.894289
vn -0.144443 0.423537 -0.894289
vn 0.000000 0.549238 -0.835666
vn 0.000000 0.549238 -0.835666
vn 0.000000 0.549238 -0.835666
vn 0.000000 0.549238 -0.835666
vn 0.207154 -0.487863 0.847984
vn 0.207154 -0.487863 0.847984
vn 0.207154 -0.487863 0.847984
vn 0.207154 -0.487863 0.847984
vn -0.007762 0.710849 -0.703301
vn -0.007762 0.710849 -0.703301
vn -0.007762 0.710849 -0.703301
vn -0.007762 0.710849 -0.703301
vn 0.567321 -0.286156 0.772180
vn 0.567321 -0.286156 0.772180
vn 0.567321 -0.286156 0.772180
vn 0.567321 -0.286156 0.772180
vn -1.000000 -0.000000 0.000000
vn -1.000000 -0.000000 0.000000
vn -1.000000 -0.000000 0.000000
vn -0.733401 -0.193673 -0.651624
vn -0.733401 -0.193673 -0.651624
vn -0.733401 -0.193673 -0.651624
vn -0.733401 -0.193673 -0.651624
vn -0.228195 -0.105212 -0.967914
vn -0.228195 -0.105212 -0.967914
vn -0.228195 -0.105212 -0.967914
vn -0.228195 -0.105212 -0.967914
vn -0.145469 -0.464056 -0.873780
vn -0.145469 -0.464056 -0.873780
vn -0.145469 -0.464056 -0.873780
vn -0.145469 -0.464056 -0.873780
vn -1.000000 -0.000000 -0.000000
vn -1.000000 -0.000000 -0.000000
vn -1.000000 -0.000000 -0.000000
vn -1.000000 -0.000000 -0.000000
vn -1.000000 -0.000000 -0.000000
vn -1.000000 -0.000000 -0.000000
vn 0.466511 -0.678852 -0.567034
vn 0.466511 -0.678852 -0.567034
vn 0.466511 -0.678852 -0.567034
vn 0.055697 -0.994275 -0.091185
vn 0.055697 -0.994275 -0.091185
vn 0.055697 -0.994275 -0.091185
vn -0.891379 -0.165179 -0.422089
vn -0.891379 -0.165179 -0.422089
vn -0.891379 -0.165179 -0.422089
vn -0.712272 0.031355 -0.701203
vn -0.712272 0.031355 -0.701203
vn -0.712272 0.031355 -0.701203
vn -0.030380 -0.115630 -0.992828
vn -0.030380 -0.115630 -0.992828
vn -0.030380 -0.115630 -0.992828
vn -0.591627 -0.488323 -0.641497
vn -0.591627 -0.488323 -0.641497
vn -0.591627 -0.488323 -0.641497
vn -0.591627 -0.488323 -0.641497
vn -0.584810 -0.227183 0.778707
vn -0.584810 -0.227183 0.778707
vn -0.584810 -0.227183 0.778707
vn -0.584810 -0.227183 0.778707
vn -0.965893 0.168546 -0.196579
vn -0.965893 0.168546 -0.196579
vn -0.965893 0.168546 -0.196579
vn -0.965893 0.168546 -0.196579
vn -0.413035 -0.904422 -0.106881
vn -0.413035 -0.904422 -0.106881
vn -0.413035 -0.904422 -0.106881
vn -0.413035 -0.904422 -0.106881
vn 0.274953 -0.313025 0.909074
vn 0.274953 -0.313025 0.909074
vn 0.274953 -0.313025 0.909074
vn -1.000000 0.000000 -0.000000
vn -1.000000 0.000000 -0.000000
vn -1.000000 0.000000 -0.000000
vn -1.000000 0.000000 -0.000000
vn -1.000000 0.000000 -0.000000
vn -1.000000 0.000000 -0.000000
vn 0.005003 0.050450 0.998714
vn 0.005003 0.050450 0.998714
vn 0.005003 0.050450 0.998714
vn 0.005003 0.050450 0.998714
vn 0.131817 0.114157 0.984679
vn 0.131817 0.114157 0.984679
vn 0.131817 0.114157 0.984679
vn 0.131817 0.114157 0.984679
vn 0.047610 0.185719 0.981449
vn 0.047610 0.185719 0.981449
vn 0.047610 0.185719 0.981449
vn 0.047610 0.185719 0.981449
vn -1.000000 0.000000 -0.000000
vn -1.000000 0.000000 -0.000000
vn -1.000000 0.000000 -0.000000
vn -1.000000 0.000000 -0.000000
vn -1.000000 0.000000 -0.000000
vn -1.000000 0.000000 -0.000000
vn -0.099449 -0.961651 0.255612
vn -0.099449 -0.961651 0.255612
vn -0.099449 -0.961651 0.255612
vn -0.099449 -0.961651 0.255612
vn -0.962794 0.172949 0.207646
vn -0.962794 0.172949 0.207646
vn -0.962794 0.172949 0.207646
vn -0.005271 -0.577906 0.816086
vn -0.005271 -0.577906 0.816086
vn -0.005271 -0.577906 0.816086
vn -0.005271 -0.577906 0.816086
vn -0.854735 -0.261172 0.448572
vn -0.854735 -0.261172 0.448572
vn -0.854735 -0.261172 0.448572
vn -0.854735 -0.261172 0.448572
vn -0.974478 0.187755 -0.123051
vn -0.974478 0.187755 -0.123051
vn -0.974478 0.187755 -0.123051
vn -0.974478 0.187755 -0.123051
vn -0.175114 0.917220 -0.357831
vn -0.175114 0.917220 -0.357831
vn -0.175114 0.917220 -0.357831
vn -0.175114 0.917220 -0.357831
vn -1.000000 0.000000 -0.000000
vn -1.000000 0.000000 -0.000000
vn -1.000000 0.000000 -0.000000
vn -0.610399 -0.473244 0.635180
vn -0.610399 -0.473244 0.635180
vn -0.610399 -0.473244 0.635180
vn -0.610399 -0.473244 0.635180
vn -0.815687 -0.566504 0.117169
vn -0.815687 -0.566504 0.117169
vn -0.815687 -0.566504 0.117169
vn -0.815687 -0.566504 0.117169
vn -0.907652 -0.391676 0.150856
vn -0.907652 -0.391676 0.150856
vn -0.907652 -0.391676 0.150856
vn -0.907652 -0.391676 0.150856
vn 0.097420 0.115434 0.988526
vn 0.097420 0.115434 0.988526
vn 0.097420 0.115434 0.988526
vn 0.097420 0.115434 0.988526
vn 0.496030 0.225617 0.838481
vn 0.496030 0.225617 0.838481
vn 0.496030 0.225617 0.838481
vn -1.000000 -0.000000 -0.000000
vn -1.000000 -0.000000 -0.000000
vn -1.000000 -0.000000 -0.000000
vn -1.000000 0.000000 0.000000
vn -1.000000 0.000000 0.000000
vn -1.000000 0.000000 0.000000
vn -0.297233 0.259272 -0.918929
vn -0.297233 0.259272 -0.918929
vn -0.297233 0.259272 -0.918929
vn -0.297233 0.259272 -0.918929
vn -0.938169 0.142530 -0.315475
vn -0.938169 0.142530 -0.315475
vn -0.938169 0.142530 -0.315475
vn -0.938169 0.142530 -0.315475
vn -0.488415 -0.220810 0.844212
vn -0.488415 -0.220810 0.844212
vn -0.488415 -0.220810 0.844212
vn -0.488415 -0.220810 0.844212
vn 0.788768 -0.220127 0.573924
vn 0.788768 -0.220127 0.573924
vn 0.788768 -0.220127 0.573924
vn 0.788768 -0.220127 0.573924
vn -1.000000 -0.000000 -0.000000
vn -1.000000 -0.000000 -0.000000
vn -1.000000 -0.000000 -0.000000
vn -1.000000 -0.000000 0.000000
vn -1.000000 -0.000000 0.000000
vn -1.000000 -0.000000 0.000000
vn 0.575657 -0.065992 0.815024
vn 0.575657 -0.065992 0.815024
vn 0.575657 -0.065992 0.815024
vn 0.343685 0.371292 0.862568
vn 0.343685 0.371292 0.862568
vn 0.343685 0.371292 0.862568
vn -1.000000 0.000000 -0.000000
vn -1.000000 0.000000 -0.000000
vn -1.000000 0.000000 -0.000000
vn -1.000000 -0.000000 -0.000000
vn -1.000000 -0.000000 -0.000000
vn -1.000000 -0.000000 -0.000000
vn -1.000000 -0.000000 -0.000000
vn -1.000000 -0.000000 -0.000000
vn -1.000000 -0.000000 -0.000000
vn -1.000000 0.000000 -0.000000
vn -1.000000 0.000000 -0.000000
vn -1.000000 0.000000 -0.000000
vn -1.000000 0.000000 -0.000000
vn -1.000000 0.000000 -0.000000
vn -1.000000 0.000000 -0.000000
vn -1.000000 0.000000 -0.000000
vn -1.000000 0.000000 -0.000000
vn -1.000000 0.000000 -0.000000
vn -1.000000 0.000000 -0.000000
vn -1.000000 0.000000 -0.000000
vn -1.000000 0.000000 -0.000000
vn 0.014204 0.699406 -0.714584
vn 0.014204 0.699406 -0.714584
vn 0.014204 0.699406 -0.714584
vn 0.014204 0.699406 -0.714584
vn -0.966501 0.235532 -0.101989
vn -0.966501 0.235532 -0.101989
vn -0.966501 0.235532 -0.101989
vn -0.944840 -0.310171 -0.105221
vn -0.944840 -0.310171 -0.105221
vn -0.944840 -0.310171 -0.105221
vn -0.944840 -0.310171 -0.105221
vn 0.241582 -0.951355 0.191213
vn 0.241582 -0.951355 0.191213
vn 0.241582 -0.951355 0.191213
vn 0.241582 -0.951355 0.191213
vn -0.846471 0.425626 0.319890
vn -0.846471 0.425626 0.319890
vn -0.846471 0.425626 0.319890
vn -0.846471 0.425626 0.319890
vn -0.593604 -0.042947 -0.803611
vn -0.593604 -0.042947 -0.803611
vn -0.593604 -0.042947 -0.803611
vn -0.593604 -0.042947 -0.803611
vn -1.000000 0.000000 -0.000000
vn -1.000000 0.000000 -0.000000
vn -1.000000 0.000000 -0.000000
vn -1.000000 0.000000 -0.000000
vn 0.108293 0.990231 0.087832
vn 0.108293 0.990231 0.087832
vn 0.108293 0.990231 0.087832
vn 0.108293 0.990231 0.087832
vn 0.000000 0.032474 -0.999473
vn 0.000000 0.032474 -0.999473
vn 0.000000 0.032474 -0.999473
vn 0.000000 0.032474 -0.999473
vn -0.966146 0.073506 -0.247304
vn -0.966146 0.073506 -0.247304
vn -0.966146 0.073506 -0.247304
vn -0.966146 0.073506 -0.247304
vn 0.001258 -0.402411 -0.915458
vn 0.001258 -0.402411 -0.915458
vn 0.001258 -0.402411 -0.915458
vn 0.001258 -0.402411 -0.915458
vn -0.399851 0.008500 0.916541
vn -0.399851 0.008500 0.916541
vn -0.399851 0.008500 0.916541
vn -0.335091 -0.349388 -0.875010
vn -0.335091 -0.349388 -0.875010
vn -0.335091 -0.349388 -0.875010
vn -0.335091 -0.349388 -0.875010
vn 0.000000 -0.427028 -0.904239
vn 0.000000 -0.427028 -0.904239
vn 0.000000 -0.427028 -0.904239
vn 0.074219 0.505464 0.859650
vn 0.074219 0.505464 0.859650
vn 0.074219 0.505464 0.859650
vn -0.985955 0.102118 -0.132152
vn -0.985955 0.102118 -0.132152
vn -0.985955 0.102118 -0.132152
vn -0.985955 0.102118 -0.132152
vn 0.015607 0.471237 0.881869
vn 0.015607 0.471237 0.881869
vn 0.015607 0.471237 0.881869
vn 0.124752 0.228970 0.965406
vn 0.124752 0.228970 0.965406
vn 0.124752 0.228970 0.965406
vn -0.081983 0.336545 0.938092
vn -0.081983 0.336545 0.938092
vn -0.081983 0.336545 0.938092
vn 0.023648 -0.029962 -0.999271
vn 0.023648 -0.029962 -0.999271
vn 0.023648 -0.029962 -0.999271
vn 0.203914 -0.236804 -0.949917
vn 0.203914 -0.236804 -0.949917
vn 0.203914 -0.236804 -0.949917
vn 0.061212 -0.052689 -0.996733
vn 0.061212 -0.052689 -0.996733
vn 0.061212 -0.052689 -0.996733
vn -0.981288 -0.103335 0.162469
vn -0.981288 -0.103335 0.162469
vn -0.981288 -0.103335 0.162469
vn -0.999737 0.011888 0.019606
vn -0.999737 0.011888 0.019606
vn -0.999737 0.011888 0.019606
vn -0.072854 0.246633 0.966367
vn -0.072854 0.246633 0.966367
vn -0.072854 0.246633 0.966367
vn -0.072854 0.246633 0.966367
vn -0.978888 -0.129032 0.158520
vn -0.978888 -0.129032 0.158520
vn -0.978888 -0.129032 0.158520
vn -1.000000 0.000000 -0.000000
vn -1.000000 0.000000 -0.000000
vn -1.000000 0.000000 -0.000000
vn -1.000000 0.000000 -0.000000
vn -1.000000 0.000000 -0.000000
vn -0.033342 -0.827074 0.561104
vn -0.033342 -0.827074 0.561104
vn -0.033342 -0.827074 0.561104
vn -0.033342 -0.827074 0.561104
vn -0.653288 -0.607334 0.452063
vn -0.653288 -0.607334 0.452063
vn -0.653288 -0.607334 0.452063
vn -0.653288 -0.607334 0.452063
vn -0.986217 0.155980 -0.055187
vn -0.986217 0.155980 -0.055187
vn -0.986217 0.155980 -0.055187
vn -0.986217 0.155980 -0.055187
vn 0.002571 0.843613 -0.536945
vn 0.002571 0.843613 -0.536945
vn 0.002571 0.843613 -0.536945
vn 0.002571 0.843613 -0.536945
vn -1.000000 0.000000 -0.000000
vn -1.000000 0.000000 -0.000000
vn -1.000000 0.000000 -0.000000
vn -1.000000 0.000000 -0.000000
vn -1.000000 0.000000 -0.000000
vn -1.000000 0.000000 -0.000000
vn -0.978479 0.143428 -0.148352
vn -0.978478 0.143428 -0.148352
vn -0.978479 0.143428 -0.148352
vn -0.937982 -0.330035 -0.106144
vn -0.937982 -0.330035 -0.106144
vn -0.937982 -0.330035 -0.106144
vn -0.937982 -0.330035 -0.106144
vn 0.259677 -0.883703 0.389406
vn 0.259677 -0.883703 0.389406
vn 0.259677 -0.883703 0.389406
vn 0.259677 -0.883703 0.389406
vn -0.999659 -0.014650 -0.021629
vn -0.999659 -0.014650 -0.021629
vn -0.999659 -0.014650 -0.021629
vn -0.135349 0.191968 0.972023
vn -0.135349 0.191968 0.972023
vn -0.135349 0.191968 0.972023
vn -0.982432 0.051528 -0.179366
vn -0.982432 0.051528 -0.179366
vn -0.982432 0.051528 -0.179366
vn -0.959669 -0.267661 0.085979
vn -0.959669 -0.267661 0.085979
vn -0.959669 -0.267661 0.085979
vn -0.959669 -0.267661 0.085979
vn 0.241098 -0.642072 0.727746
vn 0.241098 -0.642072 0.727746
vn 0.241098 -0.642072 0.727746
vn 0.241098 -0.642072 0.727746
vn -1.000000 -0.000000 -0.000000
vn -1.000000 -0.000000 -0.000000
vn -1.000000 -0.000000 -0.000000
vn -0.918437 0.161023 -0.361310
vn -0.918437 0.161023 -0.361311
vn -0.918437 0.161023 -0.361310
s off
f 1/1/1 58/93/2 60/95/3 82/134/4
f 11/14/5 12/15/6 1/1/7
f 59/94/8 12/15/9 57/92/10
f 1/1/11 52/81/12 11/14/13
f 7/2/14 8/3/15 56/4/16
f 7/2/17 5/5/18 8/3/19
f 4/6/20 9/7/21 74/8/22
f 3/9/23 14/28/24 38/29/25
f 16/18/26 53/82/27 54/83/28 32/49/29
f 32/49/30 43/70/31 19/22/32 16/18/33
f 11/14/34 52/81/35 53/82/36 16/18/37
f 12/15/38 11/14/39 16/18/40 19/22/41
f 8/12/42 5/11/43 20/23/44 18/21/45
f 80/132/46 81/133/47 13/16/48 21/24/49
f 55/84/50 56/85/51 8/12/52 18/21/53
f 2/38/54 24/39/55 28/52/56
f 30/45/57 31/48/58 15/31/59 25/32/60
f 15/31/61 10/34/62 27/35/63 25/32/64
f 24/36/65 17/30/66 26/33/67 28/37/68
f 2/38/69 27/57/70 10/62/71
f 2/38/72 28/52/73 27/57/74
f 29/42/75 30/46/76 25/41/77
f 25/41/78 27/43/79 29/42/80
f 27/43/81 28/44/82 29/42/83
f 28/44/84 26/40/85 29/42/86
f 26/40/87 30/46/88 29/42/89
f 17/30/90 31/48/91 30/45/92 26/33/93
f 32/49/94 54/83/95 55/84/96 18/21/97
f 44/71/98 79/131/99 80/132/100 21/24/101
f 39/64/102 40/65/103 34/51/104 33/50/105
f 35/80/106 51/87/107 38/88/108
f 6/63/109 77/66/110 9/7/111
f 3/9/112 34/69/113 6/63/114
f 23/53/115 49/54/116 50/55/117 35/56/118
f 33/58/119 34/59/120 37/60/121 36/61/122
f 14/76/123 23/53/124 35/56/125 38/78/126
f 3/9/127 38/29/128 51/79/129
f 3/9/130 37/86/131 34/69/132
f 41/67/133 42/68/134 40/65/135 39/64/136
f 23/26/137 48/75/138 49/77/139
f 9/10/140 77/128/141 78/130/142 22/25/143
f 20/23/144 43/70/145 32/49/146 18/21/147
f 23/26/148 45/72/149 47/74/150 48/75/151
f 14/17/152 46/73/153 45/72/154 23/26/155
f 1/1/156 46/73/157 14/17/158
f 78/130/159 79/131/160 44/71/161 22/25/162
f 48/75/163 47/74/164 41/67/165 39/64/166
f 49/77/167 48/75/168 39/64/169 33/50/170
f 50/55/171 49/54/172 33/58/173 36/61/174
f 51/87/175 50/89/176 36/90/177
f 3/9/178 51/79/179 37/86/180
f 1/1/181 10/13/182 52/81/183
f 53/82/184 52/81/185 10/13/186 15/19/187
f 54/83/188 53/82/189 15/19/190 31/47/191
f 55/84/192 54/83/193 31/47/194 17/20/195
f 24/27/196 56/85/197 55/84/198 17/20/199
f 7/2/200 56/4/201 2/38/202
f 2/38/203 56/4/204 24/39/205
f 35/80/206 50/89/207 51/87/208
f 51/87/209 36/90/210 37/91/211
f 6/63/212 9/7/213 4/6/214
f 4/6/215 5/5/216 7/2/217
f 58/109/218 59/110/219 60/111/220
f 60/111/221 59/110/222 57/112/223 13/113/224
f 81/133/225 82/134/226 60/95/227 13/16/228
f 1/1/229 12/15/230 59/94/231 58/93/232
f 61/96/233 57/92/234 12/15/235 19/22/236
f 62/97/237 61/96/238 83/135/239
f 75/121/240 62/97/241 83/135/242 84/136/243
f 84/136/244 85/137/245 74/119/246 75/121/247
f 61/96/248 62/97/249 65/99/250 63/98/251
f 44/71/252 21/24/253 64/101/254 66/100/255
f 13/113/256 57/112/257 67/114/258 68/115/259
f 57/92/260 61/96/261 63/98/262 67/103/263
f 21/24/264 13/16/265 68/102/266 64/101/267
f 9/7/268 70/116/269 76/117/270 74/8/271
f 9/10/272 22/25/273 71/106/274 70/105/275
f 69/104/276 65/99/277 62/97/278
f 22/25/279 44/71/280 66/100/281 71/106/282
f 68/107/283 73/108/284 64/143/285
f 63/144/286 72/145/287 67/146/288
f 68/115/289 67/114/290 72/118/291 73/120/292
f 65/147/293 72/145/294 63/144/295
f 69/148/296 72/145/297 65/147/298
f 76/142/299 72/145/300 69/148/301
f 71/138/302 73/108/303 70/129/304
f 64/143/305 73/108/306 66/127/307
f 66/127/308 73/108/309 71/138/310
f 73/120/311 72/118/312 70/116/313
f 4/6/314 74/8/315 85/123/316
f 74/119/317 76/122/318 69/104/319 75/121/320
f 70/116/321 72/118/322 76/117/323
f 6/63/324 34/69/325 40/124/326 42/125/327 77/66/328
f 78/130/329 77/128/330 42/68/331 41/67/332
f 41/67/333 47/74/334 79/131/335 78/130/336
f 80/132/337 79/131/338 47/74/339 45/72/340
f 45/72/341 46/73/342 81/133/343 80/132/344
f 46/73/345 82/134/346 81/133/347
f 1/1/348 82/134/349 46/73/350
f 86/139/351 61/96/352 19/22/353
f 84/136/354 83/135/355 86/139/356 87/140/357
f 87/140/358 88/141/359 85/137/360 84/136/361
f 4/6/362 85/123/363 88/126/364
f 69/104/365 62/97/366 75/121/367
f 86/139/368 19/22/369 43/70/370
f 87/140/371 86/139/372 43/70/373 20/23/374
f 5/11/375 88/141/376 87/140/377 20/23/378
f 4/6/379 88/126/380 5/5/381
f 83/135/382 61/96/383 86/139/384
