# This file uses centimeters as units for non-parametric coordinates.

v -19.481445 -7.804571 -1.084106
v 12.945801 -7.804570 15.330566
v -15.386719 6.162543 -2.424805
v 1.724365 6.983064 10.469360
v -2.717773 4.092149 -16.517456
v 16.340088 7.165248 -6.594238
v -3.944336 -7.804571 -19.791382
v 19.481445 -7.804570 -7.695313
v -8.714600 -7.804570 19.791382
v 12.957520 7.349811 5.718872
v -10.681396 6.391119 7.342285
v -7.275391 4.252042 16.896240
v 11.479980 4.837359 13.211548
vt 0.459122 0.179449
vt 0.459112 0.179441
vt 0.459164 0.179512
vt 0.458976 0.179547
vt 0.459094 0.179559
vt 0.459114 0.179639
vt 0.458984 0.179614
vt 0.459133 0.179505
vt 0.459014 0.179522
vt 0.458996 0.179443
vt 0.459054 0.179427
vt 0.459126 0.179483
vt 0.459180 0.179554
vn 0.063697 0.883264 0.464528
vn 0.063697 0.883264 0.464528
vn 0.063697 0.883264 0.464528
vn 0.443089 0.174763 -0.879278
vn 0.443089 0.174763 -0.879278
vn 0.443089 0.174763 -0.879278
vn 0.443089 0.174763 -0.879278
vn 0.111395 0.935387 0.335622
vn 0.111395 0.935387 0.335622
vn 0.111395 0.935387 0.335622
vn -0.736639 0.199850 -0.646082
vn -0.736639 0.199850 -0.646082
vn -0.736639 0.199850 -0.646082
vn -0.736639 0.199850 -0.646082
vn -0.109955 0.960847 0.254328
vn -0.109955 0.960847 0.254328
vn -0.109955 0.960847 0.254328
vn -0.056533 0.979235 -0.194684
vn -0.056533 0.979236 -0.194684
vn -0.056533 0.979236 -0.194684
vn -0.037773 0.999138 -0.017245
vn -0.037773 0.999138 -0.017245
vn -0.037773 0.999138 -0.017245
vn -0.037773 0.999138 -0.017245
vn -0.037773 0.999138 -0.017245
vn -0.869233 0.261209 0.419766
vn -0.869233 0.261209 0.419766
vn -0.869233 0.261209 0.419766
vn -0.869233 0.261209 0.419766
vn -0.869233 0.261209 0.419766
vn 0.191037 0.195489 0.961919
vn 0.191037 0.195489 0.961919
vn 0.191037 0.195489 0.961919
vn 0.191037 0.195489 0.961919
vn 0.950001 0.170351 0.261685
vn 0.950001 0.170351 0.261685
vn 0.950001 0.170351 0.261685
vn 0.950001 0.170351 0.261685
vn 0.950001 0.170351 0.261685
vn 0.000000 -1.000000 0.000000
vn 0.000000 -1.000000 0.000000
vn 0.000000 -1.000000 0.000000
vn 0.000000 -1.000000 0.000000
vn 0.000000 -1.000000 0.000000
s off
f 4/1/1 12/2/2 13/3/3
f 5/4/4 6/5/5 8/6/6 7/7/7
f 13/3/8 10/8/9 4/1/10
f 7/7/11 1/9/12 3/10/13 5/4/14
f 11/11/15 12/2/16 4/1/17
f 3/10/18 6/5/19 5/4/20
f 3/10/21 11/11/22 4/1/23 10/8/24 6/5/25
f 1/9/26 9/12/27 12/2/28 11/11/29 3/10/30
f 13/3/31 12/2/32 9/12/33 2/13/34
f 2/13/35 8/6/36 6/5/37 10/8/38 13/3/39
f 2/13/40 9/12/41 1/9/42 7/7/43 8/6/44
