# This file uses centimeters as units for non-parametric coordinates.

v -10.964183 60.436172 39.654247
v -10.964183 41.524841 39.654247
v -6.254601 41.524841 39.654247
v -6.254601 60.436172 39.654247
v -10.857653 60.252560 42.554249
v -10.857653 41.708454 42.554249
v -6.361132 41.708454 42.554249
v -6.361132 60.252560 42.554249
v -0.189034 73.754669 35.000000
v -73.506805 73.754669 35.000000
v -73.506805 73.754669 40.024277
v -0.189034 7.389166 40.024277
v -0.189034 7.389166 35.000000
v -4.361091 73.754669 40.024277
v -0.189034 73.754669 37.430954
v -0.189034 61.754673 40.024277
v -72.518044 8.389067 35.000000
v -71.529289 7.389166 35.000000
v -73.506805 9.388968 35.000000
v -71.529289 7.389166 37.512390
v -68.016518 7.389166 40.024277
v -73.506805 9.388968 37.512390
v -73.506805 12.941313 40.024277
v -37.576027 73.754669 35.000000
v -20.119783 51.882030 35.000000
v -20.119783 51.882034 35.000000
vt 0.446214 0.021409
vt 0.445472 0.021372
vt 0.445434 0.022002
vt 0.446153 0.022041
vt 0.446214 0.021409
vt 0.445472 0.021372
vt 0.445434 0.022002
vt 0.446153 0.022041
vt 0.446214 0.021409
vt 0.445472 0.021372
vt 0.445434 0.022002
vt 0.446153 0.022041
vt 0.445958 0.037972
vt 0.445975 0.037630
vt 0.445994 0.037325
vt 0.446011 0.037035
vt 0.445995 0.037342
vt 0.446728 0.037213
vt 0.446707 0.037696
vt 0.446404 0.037363
vt 0.446677 0.038012
vt 0.446661 0.037658
vt 0.446318 0.037640
vt 0.446317 0.037992
vt 0.446508 0.038002
vt 0.446719 0.037046
vt 0.446061 0.037014
vt 0.445976 0.037622
vt 0.446011 0.037318
vt 0.445993 0.037623
vn 0.000000 0.000000 1.000000
vn 0.000000 0.000000 1.000000
vn 0.000000 0.000000 1.000000
vn 0.000000 0.000000 1.000000
vn 0.000000 0.000000 -1.000000
vn 0.000000 0.000000 -1.000000
vn 0.000000 0.000000 -1.000000
vn 0.000000 0.000000 -1.000000
vn -0.999326 0.000000 0.036710
vn -0.999326 0.000000 0.036710
vn -0.999326 0.000000 0.036710
vn -0.999326 0.000000 0.036710
vn 0.000000 -0.998002 0.063189
vn 0.000000 -0.998002 0.063189
vn 0.000000 -0.998002 0.063189
vn 0.000000 -0.998002 0.063189
vn 0.999326 0.000000 0.036710
vn 0.999326 0.000000 0.036710
vn 0.999326 0.000000 0.036710
vn 0.999326 0.000000 0.036710
vn 0.000000 0.998002 0.063186
vn 0.000000 0.998002 0.063186
vn 0.000000 0.998002 0.063186
vn 0.000000 0.998002 0.063186
vn -1.000000 0.000000 0.000001
vn -1.000000 0.000000 0.000001
vn -1.000000 0.000000 0.000001
vn -1.000000 0.000000 0.000001
vn -1.000000 0.000000 0.000001
vn 0.231282 0.205506 0.950934
vn 0.231282 0.205506 0.950934
vn 0.231282 0.205506 0.950934
vn -0.000000 0.000000 -1.000000
vn -0.000000 0.000000 -1.000000
vn -0.000000 0.000000 -1.000000
vn -0.000000 0.000000 -1.000000
vn -0.000000 0.000000 -1.000000
vn -0.000000 0.000000 -1.000000
vn -0.003256 -0.048147 -0.998835
vn -0.003256 -0.048147 -0.998835
vn 0.000000 0.000000 1.000000
vn 0.000000 0.000000 1.000000
vn 0.000000 0.000000 1.000000
vn 0.000000 0.000000 1.000000
vn 0.000000 -0.000000 1.000000
vn 0.000000 0.000000 1.000000
vn -0.000000 -0.000000 -1.000000
vn -0.000000 -0.000000 -1.000000
vn -0.000000 -0.000000 -1.000000
vn -0.000000 -0.000000 -1.000000
vn -0.000000 -0.000000 -1.000000
vn -0.711056 -0.703135 0.000000
vn -0.711056 -0.703135 0.000000
vn -0.711056 -0.703135 0.000000
vn -0.711056 -0.703135 0.000000
vn -0.000000 0.000000 -1.000000
vn -0.000000 0.000000 -1.000000
vn -0.000000 0.000000 -1.000000
vn -0.504206 -0.498589 0.705114
vn -0.504206 -0.498589 0.705114
vn -0.504206 -0.498589 0.705114
vn -0.504206 -0.498589 0.705114
vn 1.000000 0.000000 -0.000000
vn 1.000000 0.000000 -0.000000
vn 1.000000 0.000000 -0.000000
vn 1.000000 0.000000 -0.000000
vn 1.000000 0.000000 -0.000000
vn 0.000000 -1.000000 0.000000
vn 0.000000 -1.000000 0.000000
vn 0.000000 -1.000000 0.000000
vn 0.000000 -1.000000 0.000000
vn 0.000000 -1.000000 0.000000
vn 0.000000 1.000000 0.000000
vn 0.000000 1.000000 0.000000
vn 0.000000 1.000000 0.000000
vn 0.000000 1.000000 0.000000
vn -0.000000 -0.000002 -1.000000
vn -0.000000 -0.000002 -1.000000
vn -0.000000 0.000000 -1.000000
vn -0.000000 0.000000 -1.000000
vn 0.000000 1.000000 0.000000
vn 0.000000 1.000000 0.000000
vn 0.000000 1.000000 0.000000
vn 0.000000 1.000000 0.000000
s off
f 5/9/1 6/10/2 7/11/3 8/12/4
f 1/5/5 4/8/6 3/7/7 2/6/8
f 1/1/9 2/2/10 6/10/11 5/9/12
f 2/2/13 3/3/14 7/11/15 6/10/16
f 3/3/17 4/4/18 8/12/19 7/11/20
f 4/4/21 1/1/22 5/9/23 8/12/24
f 10/13/25 19/14/26 22/15/27 23/16/28 11/17/29
f 16/18/30 15/19/31 14/20/32
f 9/21/33 13/22/34 25/23/35 26/24/36
f 26/24/37 10/13/38 24/25/39 9/21/40
f 12/26/41 16/18/42 14/20/43 11/17/44 23/16/45 21/27/46
f 17/28/47 19/14/48 10/13/49 26/24/50 25/23/51
f 20/29/52 22/15/53 19/14/54 18/30/55
f 17/28/56 18/30/57 19/14/58
f 20/29/59 21/27/60 23/16/61 22/15/62
f 9/21/63 15/19/64 16/18/65 12/26/66 13/22/67
f 12/26/68 21/27/69 20/29/70 18/30/71 13/22/72
f 11/17/73 14/20/74 24/25/75 10/13/76
f 25/23/77 13/22/78 18/30/79 17/28/80
f 24/25/81 14/20/82 15/19/83 9/21/84
