# This file uses centimeters as units for non-parametric coordinates.

v 30.249756 -9.059656 9.044708
v -21.515869 -6.971072 -35.758514
v 26.310669 8.480881 8.967316
v -19.522217 9.059656 -31.710907
v -23.054565 7.424591 32.283173
v -15.905884 8.653345 5.433380
v -25.083252 -6.503788 35.758514
v -30.249878 -6.269940 5.706329
v 23.277588 8.260422 -30.264374
v 27.976196 -7.844045 -35.575653
v 21.535645 -6.849063 35.544769
v 18.722778 7.201963 31.502777
v -20.890137 8.831633 -9.811981
v -24.813599 2.388285 5.165070
v -23.057617 8.233385 13.912628
vt 0.458623 0.179603
vt 0.458635 0.179687
vt 0.458752 0.179671
vt 0.458732 0.179588
vt 0.458598 0.179678
vt 0.458767 0.179626
vt 0.458777 0.179653
vt 0.458817 0.179736
vt 0.458801 0.179687
vt 0.458724 0.179805
vt 0.458697 0.179808
vt 0.458681 0.179723
vt 0.458709 0.179723
vt 0.458607 0.179778
vt 0.458765 0.179674
vn 0.022034 0.281259 -0.959379
vn 0.022034 0.281259 -0.959379
vn 0.022034 0.281259 -0.959379
vn 0.022034 0.281259 -0.959379
vn 0.011033 0.999938 0.001800
vn 0.011033 0.999938 0.001800
vn 0.011033 0.999938 0.001800
vn 0.011033 0.999938 0.001800
vn 0.011033 0.999938 0.001800
vn -0.937803 0.320431 -0.133600
vn -0.937803 0.320431 -0.133600
vn -0.937803 0.320431 -0.133600
vn -0.937803 0.320431 -0.133600
vn -0.937803 0.320431 -0.133600
vn 0.012528 0.259779 0.965587
vn 0.012528 0.259779 0.965587
vn 0.012528 0.259779 0.965587
vn 0.012528 0.259779 0.965587
vn 0.964748 0.256704 -0.058008
vn 0.964748 0.256704 -0.058008
vn 0.964748 0.256704 -0.058008
vn 0.964748 0.256704 -0.058008
vn 0.002444 0.998688 0.051157
vn 0.002444 0.998688 0.051157
vn 0.002444 0.998688 0.051157
vn 0.002444 0.998688 0.051157
vn 0.002444 0.998688 0.051157
vn -0.944865 0.318574 0.075770
vn -0.944865 0.318574 0.075770
vn -0.944865 0.318574 0.075770
vn -0.944865 0.318574 0.075770
vn -0.944865 0.318574 0.075770
vn 0.923289 0.236770 0.302452
vn 0.923289 0.236770 0.302452
vn 0.923289 0.236770 0.302452
vn 0.923289 0.236770 0.302452
vn -0.568159 0.799457 0.195101
vn -0.568159 0.799457 0.195101
vn -0.568159 0.799457 0.195101
vn -0.519062 0.755154 -0.400396
vn -0.519062 0.755154 -0.400396
vn -0.519062 0.755154 -0.400396
vn -0.031955 -0.999463 0.007217
vn -0.031996 -0.999466 0.006619
vn -0.030201 -0.998998 0.033025
vn -0.030201 -0.998998 0.033025
vn -0.033010 -0.999419 -0.008450
vn -0.033010 -0.999419 -0.008450
vn -0.031996 -0.999466 0.006619
vn -0.031955 -0.999463 0.007217
s off
f 9/1/1 10/2/2 2/3/3 4/4/4
f 3/5/5 9/1/6 4/4/7 13/6/8 6/7/9
f 2/3/10 8/8/11 14/9/12 13/6/13 4/4/14
f 7/10/15 11/11/16 12/12/17 5/13/18
f 1/14/19 10/2/20 9/1/21 3/5/22
f 3/5/23 6/7/24 15/15/25 5/13/26 12/12/27
f 7/10/28 5/13/29 15/15/30 14/9/31 8/8/32
f 12/12/33 11/11/34 1/14/35 3/5/36
f 13/6/37 14/9/38 6/7/39
f 14/9/40 15/15/41 6/7/42
f 8/8/43 1/14/44 11/11/45 7/10/46
f 2/3/47 10/2/48 1/14/49 8/8/50
