# This file uses centimeters as units for non-parametric coordinates.

v 109.001587 500.000000 58.375977
v 116.111694 500.000000 58.375977
v 109.001587 500.000000 49.653320
v 116.111694 500.000000 49.653320
v 110.312866 312.739990 58.375977
v 116.111694 312.739990 57.219482
v 109.001587 312.739990 49.653320
v 116.111694 312.739990 50.809814
v 109.001587 405.473145 49.653320
v 116.111694 406.367462 50.809814
v 109.001587 409.216705 58.375977
v 116.111694 410.111023 57.219482
v 109.001587 500.000000 -52.494385
v 116.111694 500.000000 -52.494385
v 109.001587 500.000000 -61.217041
v 116.111694 500.000000 -61.217041
v 109.001587 312.739990 -52.494385
v 116.111694 312.739990 -53.363281
v 109.335449 312.739990 -60.887939
v 116.111694 312.739990 -60.348389
v 109.607178 449.192413 -60.737061
v 116.111694 448.638092 -61.217041
v 109.433472 456.252838 -52.494385
v 116.111694 454.025909 -52.494385
v 58.376343 500.000000 -109.001709
v 58.376343 500.000000 -116.111816
v 49.653442 500.000000 -109.001709
v 49.653442 500.000000 -116.111816
v 58.376343 312.739990 -110.312988
v 57.219604 312.739990 -116.111816
v 49.653442 312.739990 -109.001709
v 50.810181 312.739990 -116.111816
v 49.653442 405.473145 -109.001709
v 50.810181 406.367462 -116.111816
v 58.376343 409.216705 -109.001709
v 57.219604 410.111023 -116.111816
v -52.494385 500.000000 -109.001709
v -52.494385 500.000000 -116.111816
v -61.217041 500.000000 -109.001709
v -61.217041 500.000000 -116.111816
v -52.494385 312.739990 -109.001709
v -53.362793 312.739990 -116.111816
v -60.887817 312.739990 -109.335449
v -60.348389 312.739990 -116.111816
v -60.736816 449.192413 -109.607178
v -61.217041 448.638092 -116.111816
v -52.494385 456.252838 -109.433594
v -52.494385 454.025909 -116.111816
v -109.001587 500.000000 -58.376221
v -116.111694 500.000000 -58.376221
v -109.001587 500.000000 -49.653564
v -116.111694 500.000000 -49.653564
v -110.312866 312.739990 -58.376221
v -116.111694 312.739990 -57.219727
v -109.001587 312.739990 -49.653564
v -116.111694 312.739990 -50.810303
v -109.001587 405.473145 -49.653564
v -116.111694 406.367462 -50.810303
v -109.001587 409.216705 -58.376221
v -116.111694 410.111023 -57.219727
v -109.001587 500.000000 52.494141
v -116.111694 500.000000 52.494141
v -109.001587 500.000000 61.217041
v -116.111694 500.000000 61.217041
v -109.001587 312.739990 52.494141
v -116.111694 312.739990 53.362793
v -109.335449 312.739990 60.887695
v -116.111694 312.739990 60.348389
v -109.607178 449.192413 60.736816
v -116.111694 448.638092 61.217041
v -109.433472 456.252838 52.494141
v -116.111694 454.025909 52.494141
v 52.494507 500.000000 109.001465
v 52.494507 500.000000 116.111572
v 61.217163 500.000000 109.001465
v 61.217163 500.000000 116.111572
v 52.494507 312.739990 109.001465
v 53.362915 312.739990 116.111572
v 60.887695 312.739990 109.335205
v 60.348267 312.739990 116.111572
v 60.736938 449.192413 109.607178
v 61.217163 448.638092 116.111572
v 52.494507 456.252838 109.433350
v 52.494507 454.025909 116.111572
v -58.376221 500.000000 109.001465
v -58.376221 500.000000 116.111572
v -49.653564 500.000000 109.001465
v -49.653564 500.000000 116.111572
v -58.376221 312.739990 110.312744
v -57.219727 312.739990 116.111572
v -49.653564 312.739990 109.001465
v -50.810059 312.739990 116.111572
v -49.653564 405.473145 109.001465
v -50.810059 406.367462 116.111572
v -58.376221 409.216705 109.001465
v -57.219727 410.111023 116.111572
v -92.629028 312.739990 92.628906
v 92.629028 312.739990 92.628906
v 92.629028 312.739990 -92.628906
v -92.629028 312.739990 -92.628906
v -92.629028 500.000000 92.628906
v 92.629028 500.000000 92.628906
v 92.629028 500.000000 -92.628906
v -92.629028 500.000000 -92.628906
v 92.629028 386.038788 87.729492
v 88.546143 388.129578 92.628906
v 92.629028 369.005554 -92.628906
v 92.629028 438.270905 -89.295410
v 89.315430 437.217590 -92.628906
v -88.326050 373.662292 -92.628906
v -92.629028 380.595886 -88.444336
v -92.629028 370.128754 92.628906
v -92.629028 455.984619 92.628906
v -88.877930 408.243256 92.628906
v -92.629028 405.687653 89.115967
vt 0.081069 0.259087
vt 0.081117 0.259086
vt 0.081029 0.259086
vt 0.081077 0.259085
vt 0.081116 0.259692
vt 0.081070 0.259685
vt 0.081077 0.259671
vt 0.081031 0.259664
vt 0.081077 0.259361
vt 0.081030 0.259360
vt 0.081116 0.259353
vt 0.081069 0.259353
vt 0.081117 0.259086
vt 0.081069 0.259087
vt 0.081029 0.259086
vt 0.081077 0.259085
vt 0.081030 0.259220
vt 0.081077 0.259211
vt 0.081116 0.259563
vt 0.081070 0.259567
vt 0.081069 0.259205
vt 0.081117 0.259196
vt 0.081031 0.259559
vt 0.081077 0.259555
vt 0.081117 0.259086
vt 0.081069 0.259087
vt 0.081029 0.259086
vt 0.081077 0.259085
vt 0.081030 0.259360
vt 0.081077 0.259361
vt 0.081116 0.259692
vt 0.081070 0.259685
vt 0.081069 0.259353
vt 0.081116 0.259353
vt 0.081031 0.259664
vt 0.081077 0.259671
vt 0.081117 0.259086
vt 0.081069 0.259087
vt 0.081029 0.259086
vt 0.081077 0.259085
vt 0.081030 0.259220
vt 0.081077 0.259211
vt 0.081116 0.259563
vt 0.081070 0.259567
vt 0.081069 0.259205
vt 0.081117 0.259196
vt 0.081031 0.259559
vt 0.081077 0.259555
vt 0.081117 0.259086
vt 0.081069 0.259087
vt 0.081029 0.259086
vt 0.081077 0.259085
vt 0.081030 0.259360
vt 0.081077 0.259361
vt 0.081116 0.259692
vt 0.081070 0.259685
vt 0.081069 0.259353
vt 0.081116 0.259353
vt 0.081031 0.259664
vt 0.081077 0.259671
vt 0.081117 0.259086
vt 0.081069 0.259087
vt 0.081029 0.259086
vt 0.081077 0.259085
vt 0.081030 0.259220
vt 0.081077 0.259211
vt 0.081116 0.259563
vt 0.081070 0.259567
vt 0.081069 0.259205
vt 0.081117 0.259196
vt 0.081031 0.259559
vt 0.081077 0.259555
vt 0.081117 0.259086
vt 0.081069 0.259087
vt 0.081029 0.259086
vt 0.081077 0.259085
vt 0.081030 0.259220
vt 0.081077 0.259211
vt 0.081116 0.259563
vt 0.081070 0.259567
vt 0.081069 0.259205
vt 0.081117 0.259196
vt 0.081031 0.259559
vt 0.081077 0.259555
vt 0.081117 0.259086
vt 0.081069 0.259087
vt 0.081029 0.259086
vt 0.081077 0.259085
vt 0.081030 0.259360
vt 0.081077 0.259361
vt 0.081116 0.259692
vt 0.081070 0.259685
vt 0.081069 0.259353
vt 0.081116 0.259353
vt 0.081031 0.259664
vt 0.081077 0.259671
vt 0.015490 0.297558
vt 0.014821 0.297500
vt 0.014716 0.297656
vt 0.015246 0.297688
vt 0.015490 0.297558
vt 0.014817 0.297500
vt 0.014718 0.297656
vt 0.015242 0.297690
vt 0.015490 0.297558
vt 0.014817 0.297500
vt 0.014718 0.297656
vt 0.015242 0.297690
vt 0.014814 0.297499
vt 0.014832 0.297502
vt 0.014718 0.297656
vt 0.014720 0.297653
vt 0.014728 0.297657
vt 0.015230 0.297689
vt 0.015247 0.297673
vt 0.015490 0.297558
vt 0.015490 0.297558
vt 0.015476 0.297558
vt 0.015485 0.297561
vn 0.000000 1.000000 0.000000
vn 0.000000 1.000000 0.000000
vn 0.000000 1.000000 0.000000
vn 0.000000 1.000000 0.000000
vn 0.081504 -0.006922 -0.996649
vn 0.081504 -0.006922 -0.996649
vn 0.081504 -0.006922 -0.996649
vn 0.081504 -0.006922 -0.996649
vn 0.176310 0.001193 0.984334
vn 0.176310 0.001193 0.984334
vn 0.176310 0.001193 0.984334
vn 0.176310 0.001193 0.984334
vn 1.000000 0.000000 0.000000
vn 1.000000 0.000000 0.000000
vn 1.000000 0.000000 0.000000
vn 1.000000 0.000000 0.000000
vn -0.997052 -0.006911 0.076420
vn -0.997052 -0.006911 0.076420
vn -0.997052 -0.006911 0.076420
vn -0.997052 -0.006911 0.076420
vn 0.160558 0.000000 -0.987026
vn 0.160558 0.000000 -0.987026
vn 0.160558 0.000000 -0.987026
vn 0.160558 0.000000 -0.987026
vn 0.081520 -0.007248 0.996645
vn 0.081520 -0.007248 0.996645
vn 0.081520 -0.007248 0.996645
vn 0.081520 -0.007248 0.996645
vn 1.000000 -0.000001 0.000000
vn 1.000000 -0.000001 0.000000
vn 1.000000 -0.000001 0.000000
vn 1.000000 -0.000001 0.000000
vn -1.000000 0.000000 0.000000
vn -1.000000 0.000000 0.000000
vn -1.000000 0.000000 0.000000
vn -1.000000 0.000000 0.000000
vn 0.000000 -1.000000 0.000000
vn 0.000000 -1.000000 0.000000
vn 0.000000 -1.000000 0.000000
vn 0.000000 -1.000000 0.000000
vn 0.000000 1.000000 0.000000
vn 0.000000 1.000000 0.000000
vn 0.000000 1.000000 0.000000
vn 0.000000 1.000000 0.000000
vn -0.035503 -0.006227 -0.999350
vn -0.035503 -0.006227 -0.999350
vn -0.035503 -0.006227 -0.999350
vn -0.035503 -0.006227 -0.999350
vn 0.062372 -0.003139 0.998048
vn 0.062372 -0.003139 0.998048
vn 0.062372 -0.003139 0.998048
vn 0.062372 -0.003139 0.998048
vn 1.000000 0.000000 0.000000
vn 1.000000 0.000000 0.000000
vn 1.000000 0.000000 0.000000
vn 1.000000 0.000000 0.000000
vn -0.999499 0.002528 -0.031563
vn -0.999499 0.002528 -0.031563
vn -0.999499 0.002528 -0.031563
vn -0.999499 0.002528 -0.031563
vn 0.004340 -0.002640 -0.999987
vn 0.004340 -0.002640 -0.999987
vn 0.004340 -0.002640 -0.999987
vn 0.004340 -0.002640 -0.999987
vn 0.000000 0.000000 1.000000
vn 0.000000 0.000000 1.000000
vn 0.000000 0.000000 1.000000
vn 0.000000 0.000000 1.000000
vn 1.000000 0.000000 0.000000
vn 1.000000 0.000000 0.000000
vn 1.000000 0.000000 0.000000
vn 1.000000 0.000000 0.000000
vn -0.999889 -0.014258 -0.004303
vn -0.999889 -0.014258 -0.004303
vn -0.999889 -0.014258 -0.004303
vn -0.999889 -0.014258 -0.004303
vn 0.000000 -1.000000 0.000000
vn 0.000000 -1.000000 0.000000
vn 0.000000 -1.000000 0.000000
vn 0.000000 -1.000000 0.000000
vn 0.000000 1.000000 0.000000
vn 0.000000 1.000000 0.000000
vn 0.000000 1.000000 0.000000
vn 0.000000 1.000000 0.000000
vn -0.996650 -0.006922 -0.081497
vn -0.996650 -0.006922 -0.081497
vn -0.996650 -0.006922 -0.081497
vn -0.996650 -0.006922 -0.081497
vn 0.984335 0.001192 -0.176302
vn 0.984335 0.001192 -0.176302
vn 0.984335 0.001192 -0.176302
vn 0.984335 0.001192 -0.176302
vn 0.000000 0.000000 -1.000000
vn 0.000000 0.000000 -1.000000
vn 0.000000 0.000000 -1.000000
vn 0.000000 0.000000 -1.000000
vn 0.076423 -0.006910 0.997052
vn 0.076423 -0.006910 0.997052
vn 0.076423 -0.006910 0.997052
vn 0.076423 -0.006910 0.997052
vn -0.987027 0.000000 -0.160557
vn -0.987027 0.000000 -0.160557
vn -0.987027 0.000000 -0.160557
vn -0.987027 0.000000 -0.160557
vn 0.996646 -0.007248 -0.081517
vn 0.996646 -0.007248 -0.081517
vn 0.996646 -0.007248 -0.081517
vn 0.996646 -0.007248 -0.081517
vn 0.000000 0.000000 -1.000000
vn 0.000000 0.000000 -1.000000
vn 0.000000 0.000000 -1.000000
vn 0.000000 0.000000 -1.000000
vn 0.000000 0.000000 1.000000
vn 0.000000 0.000000 1.000000
vn 0.000000 0.000000 1.000000
vn 0.000000 0.000000 1.000000
vn 0.000000 -1.000000 0.000001
vn 0.000000 -1.000000 0.000001
vn 0.000000 -1.000000 0.000001
vn 0.000000 -1.000000 0.000001
vn 0.000000 1.000000 0.000000
vn 0.000000 1.000000 0.000000
vn 0.000000 1.000000 0.000000
vn 0.000000 1.000000 0.000000
vn -0.999350 -0.006228 0.035503
vn -0.999350 -0.006228 0.035503
vn -0.999350 -0.006228 0.035503
vn -0.999350 -0.006228 0.035503
vn 0.998048 -0.003138 -0.062370
vn 0.998048 -0.003138 -0.062370
vn 0.998048 -0.003138 -0.062370
vn 0.998048 -0.003138 -0.062370
vn 0.000000 0.000000 -1.000000
vn 0.000000 0.000000 -1.000000
vn 0.000000 0.000000 -1.000000
vn 0.000000 0.000000 -1.000000
vn -0.031554 0.002529 0.999499
vn -0.031554 0.002529 0.999499
vn -0.031554 0.002529 0.999499
vn -0.031554 0.002529 0.999499
vn -0.999987 -0.002640 -0.004339
vn -0.999987 -0.002640 -0.004339
vn -0.999987 -0.002640 -0.004339
vn -0.999987 -0.002640 -0.004339
vn 1.000000 -0.000002 0.000000
vn 1.000000 -0.000002 0.000000
vn 1.000000 -0.000002 0.000000
vn 1.000000 -0.000002 0.000000
vn 0.000000 0.000000 -1.000000
vn 0.000000 0.000000 -1.000000
vn 0.000000 0.000000 -1.000000
vn 0.000000 0.000000 -1.000000
vn -0.004298 -0.014256 0.999889
vn -0.004298 -0.014256 0.999889
vn -0.004298 -0.014256 0.999889
vn -0.004298 -0.014256 0.999889
vn 0.000000 -1.000000 0.000005
vn 0.000000 -1.000000 0.000005
vn 0.000000 -1.000000 0.000005
vn 0.000000 -1.000000 0.000005
vn 0.000000 1.000000 0.000000
vn 0.000000 1.000000 0.000000
vn 0.000000 1.000000 0.000000
vn 0.000000 1.000000 0.000000
vn -0.081496 -0.006923 0.996650
vn -0.081496 -0.006923 0.996650
vn -0.081496 -0.006923 0.996650
vn -0.081496 -0.006923 0.996650
vn -0.176305 0.001193 -0.984335
vn -0.176305 0.001193 -0.984335
vn -0.176305 0.001193 -0.984335
vn -0.176305 0.001193 -0.984335
vn -1.000000 0.000000 0.000000
vn -1.000000 0.000000 0.000000
vn -1.000000 0.000000 0.000000
vn -1.000000 0.000000 0.000000
vn 0.997052 -0.006909 -0.076420
vn 0.997052 -0.006909 -0.076420
vn 0.997052 -0.006909 -0.076420
vn 0.997052 -0.006909 -0.076420
vn -0.160563 0.000000 0.987026
vn -0.160563 0.000000 0.987026
vn -0.160563 0.000000 0.987026
vn -0.160563 0.000000 0.987026
vn -0.081517 -0.007249 -0.996646
vn -0.081517 -0.007249 -0.996646
vn -0.081517 -0.007249 -0.996646
vn -0.081517 -0.007249 -0.996646
vn -1.000000 -0.000002 0.000000
vn -1.000000 -0.000002 0.000000
vn -1.000000 -0.000002 0.000000
vn -1.000000 -0.000002 0.000000
vn 1.000000 0.000000 0.000000
vn 1.000000 0.000000 0.000000
vn 1.000000 0.000000 0.000000
vn 1.000000 0.000000 0.000000
vn 0.000000 -1.000000 0.000000
vn 0.000000 -1.000000 0.000000
vn 0.000000 -1.000000 0.000000
vn 0.000000 -1.000000 0.000000
vn 0.000000 1.000000 0.000000
vn 0.000000 1.000000 0.000000
vn 0.000000 1.000000 0.000000
vn 0.000000 1.000000 0.000000
vn 0.035506 -0.006227 0.999350
vn 0.035506 -0.006227 0.999350
vn 0.035506 -0.006227 0.999350
vn 0.035506 -0.006227 0.999350
vn -0.062368 -0.003139 -0.998048
vn -0.062368 -0.003139 -0.998048
vn -0.062368 -0.003139 -0.998048
vn -0.062368 -0.003139 -0.998048
vn -1.000000 -0.000001 0.000000
vn -1.000000 -0.000001 0.000000
vn -1.000000 -0.000001 0.000000
vn -1.000000 -0.000001 0.000000
vn 0.999499 0.002529 0.031563
vn 0.999499 0.002529 0.031563
vn 0.999499 0.002529 0.031563
vn 0.999499 0.002529 0.031563
vn -0.004340 -0.002640 0.999987
vn -0.004340 -0.002640 0.999987
vn -0.004340 -0.002640 0.999987
vn -0.004340 -0.002640 0.999987
vn -0.000003 0.000000 -1.000000
vn -0.000003 0.000000 -1.000000
vn -0.000003 0.000000 -1.000000
vn -0.000003 0.000000 -1.000000
vn -1.000000 0.000000 0.000000
vn -1.000000 0.000000 0.000000
vn -1.000000 0.000000 0.000000
vn -1.000000 0.000000 0.000000
vn 0.999889 -0.014256 0.004303
vn 0.999889 -0.014256 0.004303
vn 0.999889 -0.014256 0.004303
vn 0.999889 -0.014256 0.004303
vn 0.000000 -1.000000 0.000000
vn 0.000000 -1.000000 0.000000
vn 0.000000 -1.000000 0.000000
vn 0.000000 -1.000000 0.000000
vn 0.000000 1.000000 0.000000
vn 0.000000 1.000000 0.000000
vn 0.000000 1.000000 0.000000
vn 0.000000 1.000000 0.000000
vn 0.999350 -0.006226 -0.035503
vn 0.999350 -0.006226 -0.035503
vn 0.999350 -0.006226 -0.035503
vn 0.999350 -0.006226 -0.035503
vn -0.998048 -0.003139 0.062371
vn -0.998048 -0.003139 0.062371
vn -0.998048 -0.003139 0.062371
vn -0.998048 -0.003139 0.062371
vn 0.000000 0.000000 1.000000
vn 0.000000 0.000000 1.000000
vn 0.000000 0.000000 1.000000
vn 0.000000 0.000000 1.000000
vn 0.031549 0.002529 -0.999499
vn 0.031549 0.002529 -0.999499
vn 0.031549 0.002529 -0.999499
vn 0.031549 0.002529 -0.999499
vn 0.999987 -0.002640 0.004340
vn 0.999987 -0.002640 0.004340
vn 0.999987 -0.002640 0.004340
vn 0.999987 -0.002640 0.004340
vn -1.000000 0.000002 0.000000
vn -1.000000 0.000002 0.000000
vn -1.000000 0.000002 0.000000
vn -1.000000 0.000002 0.000000
vn 0.000000 0.000000 1.000000
vn 0.000000 0.000000 1.000000
vn 0.000000 0.000000 1.000000
vn 0.000000 0.000000 1.000000
vn 0.004298 -0.014256 -0.999889
vn 0.004298 -0.014256 -0.999889
vn 0.004298 -0.014256 -0.999889
vn 0.004298 -0.014256 -0.999889
vn 0.000000 -1.000000 -0.000005
vn 0.000000 -1.000000 -0.000005
vn 0.000000 -1.000000 -0.000005
vn 0.000000 -1.000000 -0.000005
vn 0.000000 1.000000 0.000000
vn 0.000000 1.000000 0.000000
vn 0.000000 1.000000 0.000000
vn 0.000000 1.000000 0.000000
vn 0.996650 -0.006923 0.081497
vn 0.996650 -0.006923 0.081497
vn 0.996650 -0.006923 0.081497
vn 0.996650 -0.006923 0.081497
vn -0.984335 0.001193 0.176303
vn -0.984335 0.001193 0.176303
vn -0.984335 0.001193 0.176303
vn -0.984335 0.001193 0.176303
vn 0.000000 0.000000 1.000000
vn 0.000000 0.000000 1.000000
vn 0.000000 0.000000 1.000000
vn 0.000000 0.000000 1.000000
vn -0.076425 -0.006910 -0.997051
vn -0.076425 -0.006910 -0.997051
vn -0.076425 -0.006910 -0.997051
vn -0.076425 -0.006910 -0.997051
vn 0.987026 0.000000 0.160558
vn 0.987026 0.000000 0.160558
vn 0.987026 0.000000 0.160558
vn 0.987026 0.000000 0.160558
vn -0.996646 -0.007249 0.081517
vn -0.996646 -0.007249 0.081517
vn -0.996646 -0.007249 0.081517
vn -0.996646 -0.007249 0.081517
vn 0.000000 0.000000 1.000000
vn 0.000000 0.000000 1.000000
vn 0.000000 0.000000 1.000000
vn 0.000000 0.000000 1.000000
vn -0.000005 0.000000 -1.000000
vn -0.000005 0.000000 -1.000000
vn -0.000005 0.000000 -1.000000
vn -0.000005 0.000000 -1.000000
vn 0.000000 -1.000000 -0.000001
vn 0.000000 -1.000000 -0.000001
vn 0.000000 -1.000000 -0.000001
vn 0.000000 -1.000000 -0.000001
vn 0.000000 1.000000 0.000000
vn 0.000000 1.000000 0.000000
vn 0.000000 1.000000 0.000000
vn 0.000000 1.000000 0.000000
vn 0.000000 -1.000000 0.000000
vn 0.000000 -1.000000 0.000000
vn 0.000000 -1.000000 0.000000
vn 0.000000 -1.000000 0.000000
vn 0.000000 0.000000 1.000000
vn 0.000000 0.000000 1.000000
vn 0.000000 0.000000 1.000000
vn 1.000000 0.000001 0.000000
vn 1.000000 0.000001 0.000000
vn 1.000000 0.000001 0.000000
vn 1.000000 0.000001 0.000000
vn 0.000000 0.000000 -1.000000
vn 0.000000 0.000000 -1.000000
vn 0.000000 0.000000 -1.000000
vn -1.000000 0.000000 0.000000
vn -1.000000 0.000000 0.000000
vn -1.000000 0.000000 0.000000
vn 0.761363 -0.030764 0.647595
vn 0.761363 -0.030764 0.647595
vn 0.761363 -0.030764 0.647595
vn 0.776292 0.042043 0.628970
vn 0.776292 0.042043 0.628970
vn 0.776292 0.042043 0.628970
vn 0.715662 -0.045640 -0.696954
vn 0.715662 -0.045640 -0.696954
vn 0.715662 -0.045640 -0.696954
vn 0.703392 0.034170 -0.709981
vn 0.703392 0.034170 -0.709981
vn 0.703392 0.034170 -0.709981
vn -0.718788 -0.026775 -0.694713
vn -0.718788 -0.026775 -0.694713
vn -0.718788 -0.026775 -0.694713
vn -0.657015 0.046405 -0.752448
vn -0.657015 0.046405 -0.752448
vn -0.657015 0.046405 -0.752448
vn -0.663488 -0.052127 0.746369
vn -0.663488 -0.052127 0.746369
vn -0.663488 -0.052127 0.746369
vn -0.706751 0.069550 0.704035
vn -0.706751 0.069550 0.704035
vn -0.706751 0.069550 0.704035
vn 0.000000 0.000000 1.000000
vn 0.000000 0.000000 1.000000
vn 0.000000 0.000000 1.000000
vn 0.000000 0.000000 1.000000
vn 0.000000 0.000000 1.000000
vn 0.000000 0.000000 1.000000
vn 0.000000 0.000000 1.000000
vn 0.000000 0.000000 1.000000
vn 0.000000 0.000000 1.000000
vn 0.000000 0.000000 1.000000
vn 0.000000 0.000000 1.000000
vn -1.000000 0.000000 0.000000
vn -1.000000 0.000000 0.000000
vn -1.000000 0.000000 0.000000
vn -1.000000 0.000000 0.000000
vn -1.000000 -0.000000 0.000000
vn -1.000000 -0.000000 0.000000
vn -1.000000 -0.000000 0.000000
vn -1.000000 -0.000000 0.000000
vn -1.000000 0.000000 0.000000
vn -1.000000 0.000000 0.000000
vn -1.000000 0.000000 0.000000
vn 0.000000 0.000000 -1.000000
vn 0.000000 0.000000 -1.000000
vn 0.000000 0.000000 -1.000000
vn 0.000000 0.000000 -1.000000
vn 0.000000 0.000000 -1.000000
vn 0.000000 0.000000 -1.000000
vn 0.000000 0.000000 -1.000000
vn 0.000000 0.000000 -1.000000
vn 1.000000 -0.000001 0.000000
vn 1.000000 -0.000001 0.000000
vn 1.000000 -0.000001 0.000000
vn 1.000000 -0.000001 0.000000
vn 1.000000 0.000000 0.000000
vn 1.000000 0.000000 0.000000
vn 1.000000 0.000000 0.000000
s off
f 1/2/1 2/1/2 4/3/3 3/4/4
f 3/4/5 4/3/6 10/10/7 9/9/8
f 5/5/9 6/6/10 12/12/11 11/11/12
f 6/6/13 8/8/14 10/10/15 12/12/16
f 7/7/17 5/5/18 11/11/19 9/9/20
f 9/9/21 10/10/22 8/8/23 7/7/24
f 11/11/25 12/12/26 2/1/27 1/2/28
f 12/12/29 10/10/30 4/3/31 2/1/32
f 9/9/33 11/11/34 1/2/35 3/4/36
f 5/5/37 7/7/38 8/8/39 6/6/40
f 13/13/41 14/14/42 16/15/43 15/16/44
f 15/16/45 16/15/46 22/17/47 21/18/48
f 17/19/49 18/20/50 24/21/51 23/22/52
f 18/20/53 20/23/54 22/17/55 24/21/56
f 19/24/57 17/19/58 23/22/59 21/18/60
f 21/18/61 22/17/62 20/23/63 19/24/64
f 23/22/65 24/21/66 14/14/67 13/13/68
f 24/21/69 22/17/70 16/15/71 14/14/72
f 21/18/73 23/22/74 13/13/75 15/16/76
f 17/19/77 19/24/78 20/23/79 18/20/80
f 25/25/81 26/26/82 28/27/83 27/28/84
f 27/28/85 28/27/86 34/29/87 33/30/88
f 29/31/89 30/32/90 36/33/91 35/34/92
f 30/32/93 32/35/94 34/29/95 36/33/96
f 31/36/97 29/31/98 35/34/99 33/30/100
f 33/30/101 34/29/102 32/35/103 31/36/104
f 35/34/105 36/33/106 26/26/107 25/25/108
f 36/33/109 34/29/110 28/27/111 26/26/112
f 33/30/113 35/34/114 25/25/115 27/28/116
f 29/31/117 31/36/118 32/35/119 30/32/120
f 37/37/121 38/38/122 40/39/123 39/40/124
f 39/40/125 40/39/126 46/41/127 45/42/128
f 41/43/129 42/44/130 48/45/131 47/46/132
f 42/44/133 44/47/134 46/41/135 48/45/136
f 43/48/137 41/43/138 47/46/139 45/42/140
f 45/42/141 46/41/142 44/47/143 43/48/144
f 47/46/145 48/45/146 38/38/147 37/37/148
f 48/45/149 46/41/150 40/39/151 38/38/152
f 45/42/153 47/46/154 37/37/155 39/40/156
f 41/43/157 43/48/158 44/47/159 42/44/160
f 49/49/161 50/50/162 52/51/163 51/52/164
f 51/52/165 52/51/166 58/53/167 57/54/168
f 53/55/169 54/56/170 60/57/171 59/58/172
f 54/56/173 56/59/174 58/53/175 60/57/176
f 55/60/177 53/55/178 59/58/179 57/54/180
f 57/54/181 58/53/182 56/59/183 55/60/184
f 59/58/185 60/57/186 50/50/187 49/49/188
f 60/57/189 58/53/190 52/51/191 50/50/192
f 57/54/193 59/58/194 49/49/195 51/52/196
f 53/55/197 55/60/198 56/59/199 54/56/200
f 61/61/201 62/62/202 64/63/203 63/64/204
f 63/64/205 64/63/206 70/65/207 69/66/208
f 65/67/209 66/68/210 72/69/211 71/70/212
f 66/68/213 68/71/214 70/65/215 72/69/216
f 67/72/217 65/67/218 71/70/219 69/66/220
f 69/66/221 70/65/222 68/71/223 67/72/224
f 71/70/225 72/69/226 62/62/227 61/61/228
f 72/69/229 70/65/230 64/63/231 62/62/232
f 69/66/233 71/70/234 61/61/235 63/64/236
f 65/67/237 67/72/238 68/71/239 66/68/240
f 73/73/241 74/74/242 76/75/243 75/76/244
f 75/76/245 76/75/246 82/77/247 81/78/248
f 77/79/249 78/80/250 84/81/251 83/82/252
f 78/80/253 80/83/254 82/77/255 84/81/256
f 79/84/257 77/79/258 83/82/259 81/78/260
f 81/78/261 82/77/262 80/83/263 79/84/264
f 83/82/265 84/81/266 74/74/267 73/73/268
f 84/81/269 82/77/270 76/75/271 74/74/272
f 81/78/273 83/82/274 73/73/275 75/76/276
f 77/79/277 79/84/278 80/83/279 78/80/280
f 85/85/281 86/86/282 88/87/283 87/88/284
f 87/88/285 88/87/286 94/89/287 93/90/288
f 89/91/289 90/92/290 96/93/291 95/94/292
f 90/92/293 92/95/294 94/89/295 96/93/296
f 91/96/297 89/91/298 95/94/299 93/90/300
f 93/90/301 94/89/302 92/95/303 91/96/304
f 95/94/305 96/93/306 86/86/307 85/85/308
f 96/93/309 94/89/310 88/87/311 86/86/312
f 93/90/313 95/94/314 85/85/315 87/88/316
f 89/91/317 91/96/318 92/95/319 90/92/320
f 101/97/321 102/98/322 103/99/323 104/100/324
f 97/101/325 100/104/326 99/103/327 98/102/328
f 112/116/329 106/110/330 114/118/331
f 98/106/332 99/107/333 107/111/334 105/109/335
f 107/111/336 110/114/337 109/113/338
f 111/115/339 112/116/340 115/119/341
f 102/98/342 106/110/343 105/109/344
f 105/109/345 106/110/346 98/106/347
f 103/99/348 108/112/349 109/113/350
f 109/113/351 108/112/352 107/111/353
f 104/100/354 110/114/355 111/115/356
f 111/115/357 110/114/358 100/108/359
f 113/117/360 115/119/361 114/118/362
f 114/118/363 115/119/364 112/116/365
f 114/118/366 106/110/367 113/117/368
f 97/105/369 98/106/370 106/110/371 112/116/372
f 113/117/373 106/110/374 102/98/375 101/97/376
f 111/115/377 113/117/378 101/97/379 104/100/380
f 100/108/381 97/105/382 112/116/383 111/115/384
f 111/115/385 115/119/386 113/117/387
f 99/107/388 100/108/389 110/114/390 107/111/391
f 109/113/392 110/114/393 104/100/394 103/99/395
f 105/109/396 108/112/397 103/99/398 102/98/399
f 105/109/400 107/111/401 108/112/402
