# This file uses centimeters as units for non-parametric coordinates.

v -12.826948 102.453667 -46.523453
v -13.794838 102.374367 -46.138721
v -14.546726 101.922104 -46.705494
v -14.330723 101.549156 -47.656990
v -13.362834 101.628456 -48.041721
v -12.610948 102.080719 -47.474953
v -13.578837 102.001411 -47.090225
v -9.354071 89.164162 -40.525959
v -10.321960 89.084854 -40.141228
v -11.073849 88.632584 -40.708000
v -10.857845 88.259628 -41.659496
v -9.889956 88.338936 -42.044228
v -9.138070 88.791199 -41.477459
v -12.006148 99.766357 -46.430496
v -12.222149 100.139320 -45.478992
v -13.190040 100.060013 -45.094265
v -13.941928 99.607742 -45.661037
v -13.725924 99.234779 -46.612534
v -12.758035 99.314095 -46.997261
v -11.989145 103.999840 -44.097019
v -12.957035 103.920532 -43.712288
v -10.088959 92.945366 -38.759258
v -9.121069 93.024673 -39.143990
v -15.263933 100.368065 -50.248188
v -14.296043 100.447372 -50.632919
v -11.427967 89.472206 -45.679886
v -12.395856 89.392906 -45.295158
v -12.514606 101.258453 -45.984051
v -13.482496 101.179153 -45.599323
v -14.234384 100.726875 -46.166096
v -14.018382 100.353920 -47.117592
v -13.050491 100.433220 -47.502319
v -12.298605 100.885490 -46.935555
v -10.408926 95.576797 -41.857849
v -11.376815 95.497490 -41.473118
v -11.493319 93.567230 -42.164108
v -12.245207 93.114967 -42.730881
v -12.029204 92.742012 -43.682377
v -13.660847 94.290428 -47.468021
v -12.692957 94.369736 -47.852753
v -11.061315 92.821320 -44.067108
v -10.309428 93.273582 -43.500340
v -10.525429 93.646538 -42.548840
v -10.502813 97.844254 -41.626644
v -11.470702 97.764938 -41.241913
v -11.079101 97.078186 -40.398300
v -10.111210 97.157494 -40.783031
v -14.752136 98.409592 -49.364342
v -13.784247 98.488907 -49.749069
v -12.707236 96.743614 -47.399334
v -13.668822 97.344292 -49.694633
v -14.636712 97.264977 -49.309906
v -13.675126 96.664307 -47.014603
v -12.015649 100.857239 -47.020069
v -12.291858 101.334160 -45.803333
v -12.025721 100.315742 -45.343727
v -11.749512 99.838821 -46.560463
v -13.529544 101.232750 -45.311363
v -13.263407 100.214333 -44.851757
v -14.491020 100.654411 -46.036125
v -14.224884 99.635994 -45.576519
v -14.214810 100.177483 -47.252857
v -13.948673 99.159073 -46.793251
v -12.977124 100.278893 -47.744827
v -12.710987 99.260483 -47.285221
v 6.913298 23.131327 -10.376766
v 7.881188 23.210632 -10.761496
v 8.097189 22.837673 -11.712998
v 7.345303 22.385406 -12.279764
v 6.377413 22.306101 -11.895035
v 6.161409 22.679060 -10.943539
v -8.200397 84.749443 -38.533619
v -9.168287 84.670135 -38.148891
v -9.920176 84.217865 -38.715664
v -9.704173 83.844910 -39.667160
v -8.736283 83.924217 -40.051888
v -7.984397 84.376480 -39.485123
v -7.668697 79.838921 -38.208218
v -8.636586 79.759621 -37.823490
v -8.852590 80.132576 -36.871990
v -8.100701 80.584839 -36.305222
v -7.132812 80.664146 -36.689949
v -6.916811 80.291183 -37.641453
vt 0.028936 0.275165
vt 0.028936 0.275165
vt 0.028936 0.275165
vt 0.028936 0.275165
vt 0.028936 0.275165
vt 0.028936 0.275165
vt 0.028936 0.275165
vt 0.028936 0.275165
vt 0.028936 0.275165
vt 0.028936 0.275165
vt 0.028936 0.275165
vt 0.028936 0.275165
vt 0.028936 0.275165
vt 0.028936 0.275165
vt 0.028936 0.275165
vt 0.028936 0.275165
vt 0.028936 0.275165
vt 0.028936 0.275165
vt 0.028936 0.275165
vt 0.028936 0.275165
vt 0.028936 0.275165
vt 0.028936 0.275165
vt 0.028936 0.275165
vt 0.095245 0.212911
vt 0.028936 0.275165
vt 0.028936 0.275165
vt 0.028936 0.275165
vt 0.028936 0.275165
vt 0.215097 0.309624
vt 0.215097 0.309624
vt 0.217102 0.275753
vt 0.217102 0.275753
vt 0.215097 0.309624
vt 0.215097 0.309624
vt 0.217102 0.275753
vt 0.217102 0.275753
vt 0.028936 0.275165
vt 0.028936 0.275165
vt 0.028936 0.275165
vt 0.028936 0.275165
vt 0.028936 0.275165
vt 0.028936 0.275165
vt 0.028936 0.275165
vt 0.215097 0.309624
vt 0.215097 0.309624
vt 0.028936 0.275165
vt 0.028936 0.275165
vt 0.028936 0.275165
vt 0.215097 0.309624
vt 0.215097 0.309624
vt 0.028936 0.275165
vt 0.028936 0.275165
vt 0.028936 0.275165
vt 0.215097 0.309624
vt 0.215097 0.309624
vt 0.215097 0.309624
vt 0.217102 0.275753
vt 0.217102 0.275753
vt 0.215097 0.309624
vt 0.215097 0.309624
vt 0.215097 0.309624
vt 0.215097 0.309624
vt 0.215097 0.309624
vt 0.215097 0.309624
vt 0.215097 0.309624
vt 0.217102 0.275753
vt 0.217102 0.275753
vt 0.217102 0.275753
vt 0.217102 0.275753
vt 0.217102 0.275753
vt 0.217102 0.275753
vt 0.217102 0.275753
vt 0.217102 0.275753
vt 0.217102 0.275753
vt 0.217102 0.275753
vt 0.217102 0.275753
vt 0.217102 0.275753
vt 0.215097 0.309624
vt 0.215097 0.309624
vt 0.215097 0.309624
vt 0.215097 0.309624
vt 0.215097 0.309624
vt 0.215097 0.309624
vt 0.095245 0.212910
vt 0.095245 0.212910
vt 0.095245 0.212911
vt 0.095245 0.212910
vt 0.095245 0.212910
vt 0.095245 0.212911
vt 0.095245 0.212911
vt 0.095245 0.212910
vt 0.095245 0.212910
vt 0.095245 0.212910
vt 0.095245 0.212910
vt 0.095245 0.212911
vt 0.095245 0.212910
vt 0.095245 0.212910
vt 0.095245 0.212911
vt 0.095245 0.212910
vt 0.095245 0.212910
vt 0.095245 0.212911
vt 0.095245 0.212911
vt 0.095245 0.212910
vt 0.095245 0.212910
vt 0.095245 0.212910
vt 0.095245 0.212911
vt 0.028936 0.275165
vt 0.028936 0.275165
vt 0.028936 0.275165
vt 0.028936 0.275165
vt 0.028936 0.275165
vt 0.028936 0.275165
vt 0.028936 0.275165
vt 0.028936 0.275165
vt 0.028936 0.275165
vt 0.028936 0.275165
vt 0.028936 0.275165
vt 0.028936 0.275165
vt 0.028936 0.275165
vt 0.028936 0.275165
vt 0.028936 0.275165
vt 0.028936 0.275165
vt 0.028936 0.275165
vt 0.028936 0.275165
vt 0.028936 0.275165
vt 0.028936 0.275165
vt 0.028936 0.275165
vt 0.103745 0.178426
vt 0.103745 0.178426
vt 0.103745 0.178426
vt 0.103745 0.178426
vt 0.103745 0.178426
vt 0.103745 0.178426
vt 0.103745 0.178426
vt 0.103745 0.178426
vt 0.103745 0.178426
vt 0.103745 0.178426
vt 0.103745 0.178426
vt 0.103745 0.178426
vn 0.296195 0.456120 0.839180
vn 0.296195 0.456120 0.839180
vn 0.296195 0.456120 0.839180
vn 0.296195 0.456120 0.839180
vn -0.654357 0.162309 0.738561
vn -0.654357 0.162309 0.738561
vn -0.654357 0.162309 0.738561
vn -0.654357 0.162309 0.738561
vn -0.950552 -0.293813 -0.100623
vn -0.950552 -0.293813 -0.100623
vn -0.950552 -0.293813 -0.100623
vn -0.950552 -0.293813 -0.100623
vn -0.296195 -0.456120 -0.839180
vn -0.296195 -0.456120 -0.839180
vn -0.296195 -0.456120 -0.839180
vn -0.296195 -0.456120 -0.839180
vn 0.654355 -0.162311 -0.738563
vn 0.654355 -0.162311 -0.738563
vn 0.654355 -0.162311 -0.738563
vn 0.654355 -0.162311 -0.738563
vn 0.950553 0.293812 0.100620
vn 0.950553 0.293812 0.100620
vn 0.950553 0.293812 0.100620
vn 0.950553 0.293812 0.100620
vn -0.231709 0.886674 -0.400151
vn -0.231709 0.886674 -0.400151
vn -0.231709 0.886674 -0.400151
vn -0.231709 0.886674 -0.400151
vn -0.231709 0.886674 -0.400151
vn -0.231709 0.886674 -0.400151
vn -0.231709 0.886674 -0.400151
vn -0.231709 0.886674 -0.400151
vn -0.231709 0.886674 -0.400151
vn -0.231709 0.886674 -0.400151
vn -0.231709 0.886674 -0.400151
vn -0.231709 0.886674 -0.400151
vn -0.231709 0.886674 -0.400151
vn -0.231709 0.886674 -0.400151
vn -0.231709 0.886674 -0.400151
vn -0.231709 0.886674 -0.400151
vn -0.231709 0.886674 -0.400151
vn -0.231709 0.886674 -0.400151
vn -0.343129 0.571492 -0.745426
vn -0.343129 0.571492 -0.745426
vn -0.343129 0.571492 -0.745426
vn -0.343129 0.571492 -0.745426
vn -0.654357 0.162310 0.738561
vn -0.654357 0.162310 0.738561
vn -0.654357 0.162310 0.738561
vn -0.654357 0.162310 0.738561
vn -0.950552 -0.293814 -0.100623
vn -0.950552 -0.293813 -0.100623
vn -0.950552 -0.293814 -0.100623
vn -0.950552 -0.293813 -0.100623
vn -0.297694 -0.450352 -0.841761
vn -0.297694 -0.450352 -0.841761
vn -0.297694 -0.450352 -0.841761
vn -0.297694 -0.450352 -0.841761
vn 0.654355 -0.162311 -0.738563
vn 0.654355 -0.162311 -0.738563
vn 0.654355 -0.162311 -0.738563
vn 0.654355 -0.162311 -0.738563
vn 0.950553 0.293812 0.100620
vn 0.950553 0.293812 0.100620
vn 0.950553 0.293812 0.100620
vn 0.950553 0.293812 0.100620
vn 0.950553 0.293811 0.100617
vn 0.950553 0.293811 0.100617
vn 0.950553 0.293811 0.100617
vn 0.950553 0.293811 0.100617
vn 0.296195 0.456120 0.839180
vn 0.296195 0.456120 0.839180
vn 0.296195 0.456120 0.839180
vn 0.296195 0.456120 0.839180
vn -0.654359 0.162308 0.738560
vn -0.654359 0.162308 0.738560
vn -0.654359 0.162308 0.738560
vn -0.654359 0.162308 0.738560
vn -0.950553 -0.293812 -0.100619
vn -0.950553 -0.293812 -0.100619
vn -0.950553 -0.293812 -0.100619
vn -0.950553 -0.293812 -0.100619
vn -0.296195 -0.456120 -0.839180
vn -0.296195 -0.456120 -0.839180
vn -0.296195 -0.456120 -0.839180
vn -0.296195 -0.456120 -0.839180
vn 0.654357 -0.162309 -0.738561
vn 0.654357 -0.162309 -0.738561
vn 0.654357 -0.162309 -0.738561
vn 0.654357 -0.162309 -0.738561
vn -0.371756 0.332686 -0.866671
vn -0.371756 0.332686 -0.866671
vn -0.371756 0.332686 -0.866671
vn -0.371756 0.332686 -0.866671
vn 0.371756 -0.332685 0.866671
vn 0.371756 -0.332685 0.866671
vn 0.371756 -0.332685 0.866671
vn 0.371756 -0.332685 0.866671
vn 0.034422 0.958173 0.284112
vn 0.034422 0.958173 0.284112
vn 0.034422 0.958173 0.284112
vn 0.034422 0.958173 0.284112
vn 0.926596 0.075923 -0.368316
vn 0.926596 0.075923 -0.368316
vn 0.926596 0.075923 -0.368316
vn 0.926596 0.075923 -0.368316
vn -0.034422 -0.958173 -0.284111
vn -0.034422 -0.958173 -0.284111
vn -0.034422 -0.958173 -0.284111
vn -0.034422 -0.958173 -0.284111
vn -0.926596 -0.075923 0.368316
vn -0.926596 -0.075923 0.368316
vn -0.926596 -0.075923 0.368316
vn -0.926596 -0.075923 0.368316
vn 0.296195 0.456120 0.839180
vn 0.296195 0.456120 0.839180
vn 0.296195 0.456120 0.839180
vn 0.296195 0.456120 0.839180
vn -0.654357 0.162309 0.738561
vn -0.654357 0.162309 0.738561
vn -0.654357 0.162309 0.738561
vn -0.654357 0.162309 0.738561
vn -0.950552 -0.293813 -0.100622
vn -0.950552 -0.293813 -0.100622
vn -0.950552 -0.293813 -0.100622
vn -0.950552 -0.293813 -0.100622
vn -0.296195 -0.456120 -0.839180
vn -0.296195 -0.456120 -0.839180
vn -0.296195 -0.456120 -0.839180
vn -0.296195 -0.456120 -0.839180
vn 0.654355 -0.162310 -0.738563
vn 0.654355 -0.162310 -0.738563
vn 0.654355 -0.162310 -0.738563
vn 0.654355 -0.162310 -0.738563
vn 0.950553 0.293812 0.100620
vn 0.950553 0.293812 0.100620
vn 0.950553 0.293812 0.100620
vn 0.950553 0.293812 0.100620
vn 0.373801 -0.078755 0.924160
vn 0.373801 -0.078755 0.924160
vn 0.373801 -0.078755 0.924160
vn 0.373801 -0.078755 0.924160
vn -0.654357 0.162309 0.738561
vn -0.654357 0.162309 0.738561
vn -0.654357 0.162309 0.738561
vn -0.654357 0.162309 0.738561
vn -0.950552 -0.293813 -0.100623
vn -0.950552 -0.293813 -0.100623
vn -0.950552 -0.293813 -0.100623
vn -0.950552 -0.293813 -0.100623
vn 0.654355 -0.162311 -0.738563
vn 0.654355 -0.162311 -0.738563
vn 0.654355 -0.162311 -0.738563
vn 0.654355 -0.162311 -0.738563
vn 0.950553 0.293812 0.100620
vn 0.950553 0.293812 0.100620
vn 0.950553 0.293812 0.100620
vn 0.950553 0.293812 0.100620
vn 0.305951 0.417295 0.855721
vn 0.305951 0.417295 0.855721
vn 0.305951 0.417295 0.855721
vn 0.305951 0.417295 0.855721
vn -0.926596 -0.075923 0.368316
vn -0.926596 -0.075923 0.368316
vn -0.926596 -0.075923 0.368316
vn -0.926596 -0.075923 0.368316
vn -0.926596 -0.075923 0.368316
vn -0.926596 -0.075923 0.368316
vn -0.926596 -0.075923 0.368316
vn -0.926596 -0.075923 0.368316
vn 0.306866 0.413492 0.857238
vn 0.306866 0.413492 0.857238
vn 0.306866 0.413492 0.857238
vn 0.306866 0.413492 0.857238
vn 0.926596 0.075923 -0.368316
vn 0.926596 0.075923 -0.368316
vn 0.926596 0.075923 -0.368316
vn 0.926596 0.075923 -0.368316
vn 0.926596 0.075923 -0.368316
vn 0.926596 0.075923 -0.368316
vn 0.926596 0.075923 -0.368316
vn 0.926596 0.075923 -0.368316
vn -0.926596 -0.075923 0.368316
vn -0.926596 -0.075923 0.368316
vn -0.926596 -0.075923 0.368316
vn -0.926596 -0.075923 0.368316
vn -0.296195 -0.456120 -0.839180
vn -0.296195 -0.456120 -0.839180
vn -0.296195 -0.456120 -0.839180
vn -0.296195 -0.456120 -0.839180
vn 0.926596 0.075923 -0.368316
vn 0.926596 0.075923 -0.368316
vn 0.926596 0.075923 -0.368316
vn 0.926596 0.075923 -0.368316
vn 0.926596 0.075923 -0.368316
vn 0.926596 0.075923 -0.368316
vn 0.926596 0.075923 -0.368316
vn 0.926596 0.075923 -0.368316
vn -0.263128 -0.568833 -0.779226
vn -0.263128 -0.568833 -0.779226
vn -0.263128 -0.568833 -0.779226
vn -0.263128 -0.568833 -0.779226
vn -0.926596 -0.075923 0.368316
vn -0.926596 -0.075923 0.368316
vn -0.926596 -0.075923 0.368316
vn -0.926596 -0.075923 0.368316
vn 0.018348 0.969114 0.245929
vn 0.018348 0.969114 0.245929
vn 0.018348 0.969114 0.245929
vn 0.018348 0.969114 0.245929
vn -0.148907 -0.825282 -0.544735
vn -0.148907 -0.825282 -0.544735
vn -0.148907 -0.825282 -0.544735
vn -0.148907 -0.825282 -0.544735
vn 0.926596 0.075923 -0.368316
vn 0.926596 0.075923 -0.368316
vn 0.926596 0.075923 -0.368316
vn 0.926596 0.075923 -0.368316
vn 0.926596 0.075923 -0.368316
vn 0.926596 0.075923 -0.368316
vn 0.926596 0.075923 -0.368316
vn 0.926596 0.075923 -0.368316
vn 0.926596 0.075923 -0.368316
vn -0.926596 -0.075923 0.368316
vn -0.926596 -0.075923 0.368316
vn -0.926596 -0.075923 0.368316
vn -0.926596 -0.075923 0.368316
vn -0.926596 -0.075923 0.368316
vn -0.926596 -0.075923 0.368316
vn -0.926596 -0.075923 0.368316
vn -0.926596 -0.075923 0.368316
vn -0.926596 -0.075923 0.368316
vn -0.017191 0.929562 -0.368264
vn -0.017191 0.929562 -0.368264
vn -0.017191 0.929562 -0.368264
vn -0.017191 0.929562 -0.368264
vn 0.434895 -0.800452 0.412485
vn 0.434895 -0.800451 0.412485
vn 0.434895 -0.800451 0.412485
vn 0.434895 -0.800452 0.412485
vn -0.160968 0.965224 -0.205990
vn -0.160968 0.965224 -0.205990
vn -0.160968 0.965224 -0.205990
vn -0.160968 0.965224 -0.205990
vn 0.291126 -0.764789 0.574755
vn 0.291126 -0.764789 0.574755
vn 0.291126 -0.764789 0.574755
vn 0.291126 -0.764789 0.574755
vn -0.369828 0.900667 -0.228093
vn -0.369828 0.900667 -0.228093
vn -0.369828 0.900667 -0.228093
vn -0.369828 0.900667 -0.228093
vn 0.082283 -0.829344 0.552646
vn 0.082283 -0.829344 0.552646
vn 0.082283 -0.829344 0.552646
vn 0.082283 -0.829344 0.552646
vn -0.434893 0.800452 -0.412486
vn -0.434893 0.800452 -0.412486
vn -0.434893 0.800452 -0.412486
vn -0.434893 0.800452 -0.412486
vn 0.017178 -0.929561 0.368267
vn 0.017178 -0.929561 0.368267
vn 0.017179 -0.929561 0.368267
vn 0.017179 -0.929561 0.368267
vn -0.291126 0.764789 -0.574755
vn -0.291126 0.764789 -0.574755
vn -0.291126 0.764789 -0.574755
vn -0.291126 0.764789 -0.574755
vn 0.160968 -0.965224 0.205990
vn 0.160968 -0.965224 0.205990
vn 0.160968 -0.965224 0.205990
vn 0.160968 -0.965224 0.205990
vn -0.082282 0.829344 -0.552647
vn -0.082282 0.829344 -0.552647
vn -0.082282 0.829344 -0.552647
vn -0.082282 0.829344 -0.552647
vn 0.369834 -0.900666 0.228089
vn 0.369834 -0.900666 0.228089
vn 0.369834 -0.900666 0.228089
vn 0.369834 -0.900666 0.228089
vn 0.296195 0.456120 0.839180
vn 0.296195 0.456120 0.839180
vn 0.296195 0.456120 0.839180
vn 0.296195 0.456120 0.839180
vn -0.654357 0.162309 0.738561
vn -0.654357 0.162309 0.738561
vn -0.654357 0.162309 0.738561
vn -0.654357 0.162309 0.738561
vn -0.950552 -0.293813 -0.100623
vn -0.950552 -0.293813 -0.100623
vn -0.950552 -0.293813 -0.100623
vn -0.950552 -0.293813 -0.100623
vn -0.296195 -0.456120 -0.839180
vn -0.296195 -0.456120 -0.839180
vn -0.296195 -0.456120 -0.839180
vn -0.296195 -0.456120 -0.839180
vn 0.654354 -0.162311 -0.738563
vn 0.654354 -0.162311 -0.738563
vn 0.654355 -0.162311 -0.738563
vn 0.654355 -0.162311 -0.738563
vn 0.950553 0.293812 0.100620
vn 0.950553 0.293812 0.100620
vn 0.950553 0.293812 0.100620
vn 0.950553 0.293812 0.100620
vn -0.296195 -0.456120 -0.839180
vn -0.296195 -0.456120 -0.839180
vn -0.296195 -0.456120 -0.839180
vn -0.296195 -0.456120 -0.839180
vn -0.950552 -0.293813 -0.100623
vn -0.950552 -0.293813 -0.100623
vn -0.950552 -0.293813 -0.100623
vn -0.950552 -0.293813 -0.100623
vn -0.654357 0.162309 0.738561
vn -0.654357 0.162309 0.738561
vn -0.654357 0.162309 0.738561
vn -0.654357 0.162309 0.738561
vn 0.296195 0.456120 0.839180
vn 0.296195 0.456120 0.839180
vn 0.296195 0.456120 0.839180
vn 0.296195 0.456120 0.839180
vn 0.950553 0.293812 0.100620
vn 0.950553 0.293812 0.100620
vn 0.950553 0.293812 0.100620
vn 0.950553 0.293812 0.100620
vn 0.654355 -0.162311 -0.738563
vn 0.654355 -0.162311 -0.738563
vn 0.654355 -0.162311 -0.738563
vn 0.654355 -0.162311 -0.738563
s off
f 72/128/1 73/129/2 81/130/3 82/131/4
f 73/129/5 74/132/6 80/133/7 81/130/8
f 74/132/9 75/134/10 79/135/11 80/133/12
f 75/134/13 76/136/14 78/137/15 79/135/16
f 76/136/17 77/138/18 83/139/19 78/137/20
f 77/138/21 72/128/22 82/131/23 83/139/24
f 2/2/25 1/1/26 7/14/27
f 3/3/28 2/2/29 7/14/30
f 4/4/31 3/3/32 7/14/33
f 5/5/34 4/4/35 7/14/36
f 6/6/37 5/5/38 7/14/39
f 1/1/40 6/6/41 7/14/42
f 34/31/43 35/32/44 46/35/45 47/36/46
f 36/46/47 37/47/48 10/18/49 9/17/50
f 37/47/51 38/48/52 11/19/53 10/18/54
f 39/57/55 40/58/56 26/66/57 27/67/58
f 41/51/59 42/52/60 13/21/61 12/20/62
f 42/52/63 43/53/64 8/15/65 13/21/66
f 54/24/67 55/84/68 56/85/69 57/86/70
f 55/84/71 58/87/72 59/88/73 56/85/74
f 58/87/75 60/89/76 61/90/77 59/88/78
f 60/89/79 62/91/80 63/92/81 61/90/82
f 62/91/83 64/93/84 65/94/85 63/92/86
f 64/93/87 54/24/88 57/86/89 65/94/90
f 15/29/91 16/30/92 21/33/93 20/34/94
f 9/68/95 8/69/96 23/70/97 22/71/98
f 18/44/99 19/45/100 25/49/101 24/50/102
f 40/58/103 41/72/104 12/73/105 26/66/106
f 12/73/107 11/74/108 27/67/109 26/66/110
f 11/74/111 38/75/112 39/57/113 27/67/114
f 1/7/115 2/8/116 29/39/117 28/38/118
f 2/8/119 3/9/120 30/40/121 29/39/122
f 3/9/123 4/10/124 31/41/125 30/40/126
f 4/10/127 5/11/128 32/42/129 31/41/130
f 5/11/131 6/12/132 33/43/133 32/42/134
f 6/12/135 1/13/136 28/37/137 33/43/138
f 44/54/139 45/55/140 35/56/141 34/59/142
f 16/25/143 17/26/144 37/47/145 36/46/146
f 17/26/147 18/27/148 38/48/149 37/47/150
f 19/28/151 14/22/152 42/52/153 41/51/154
f 14/22/155 15/23/156 43/53/157 42/52/158
f 20/34/159 21/33/160 45/55/161 44/54/162
f 16/30/163 35/56/164 45/55/165 21/33/166
f 46/35/167 35/32/168 9/68/169 22/71/170
f 47/36/171 46/35/172 22/71/173 23/70/174
f 8/69/175 34/31/176 47/36/177 23/70/178
f 44/54/179 34/59/180 15/29/181 20/34/182
f 48/60/183 53/61/184 18/44/185 24/50/186
f 24/50/187 25/49/188 49/62/189 48/60/190
f 19/45/191 50/63/192 49/62/193 25/49/194
f 51/64/195 50/63/196 41/65/197 40/78/198
f 52/79/199 51/64/200 40/78/201 39/80/202
f 39/80/203 38/81/204 53/61/205 52/79/206
f 52/79/207 53/61/208 50/63/209 51/64/210
f 53/61/211 48/60/212 49/62/213 50/63/214
f 8/69/215 43/76/216 34/31/217
f 15/29/218 34/59/219 43/82/220
f 19/45/221 41/65/222 50/63/223
f 18/44/224 53/61/225 38/81/226
f 16/30/227 36/83/228 35/56/229
f 9/68/230 35/32/231 36/77/232
f 33/95/233 28/96/234 55/84/235 54/24/236
f 15/97/237 14/98/238 57/86/239 56/85/240
f 28/96/241 29/99/242 58/87/243 55/84/244
f 16/100/245 15/97/246 56/85/247 59/88/248
f 29/99/249 30/101/250 60/89/251 58/87/252
f 17/102/253 16/100/254 59/88/255 61/90/256
f 30/101/257 31/103/258 62/91/259 60/89/260
f 18/104/261 17/102/262 61/90/263 63/92/264
f 31/103/265 32/105/266 64/93/267 62/91/268
f 19/106/269 18/104/270 63/92/271 65/94/272
f 32/105/273 33/95/274 54/24/275 64/93/276
f 14/98/277 19/106/278 65/94/279 57/86/280
f 8/16/281 9/17/282 73/116/283 72/115/284
f 9/17/285 10/18/286 74/117/287 73/116/288
f 10/18/289 11/19/290 75/118/291 74/117/292
f 11/19/293 12/20/294 76/119/295 75/118/296
f 12/20/297 13/21/298 77/120/299 76/119/300
f 13/21/301 8/15/302 72/114/303 77/120/304
f 79/122/305 78/121/306 69/111/307 70/112/308
f 80/123/309 79/122/310 70/112/311 71/113/312
f 81/124/313 80/123/314 71/113/315 66/107/316
f 82/126/317 81/124/318 66/107/319 67/109/320
f 83/127/321 82/125/322 67/108/323 68/110/324
f 78/121/325 83/127/326 68/110/327 69/111/328
