# This file uses centimeters as units for non-parametric coordinates.

v 12.470520 -15.828419 2.277359
v -11.529907 -15.538288 4.506760
v 12.469666 -15.714874 3.687378
v -11.161743 -15.082970 5.820679
v 12.357361 -0.724228 1.174347
v -12.357178 -3.414219 1.697113
v 12.357361 -0.724228 0.000046
v -12.357178 -3.414219 0.522812
v -12.279724 -11.157944 3.442413
v -12.274170 -11.905655 2.065826
v 7.704224 -15.771374 3.689423
v 6.342712 -15.850788 2.277359
v 12.335632 2.178131 1.414078
v -12.378967 2.087914 1.414078
v -12.378967 2.087914 0.000046
v 12.335632 2.178131 0.000046
v -8.550267 -1.101463 -0.319338
v -7.694921 -1.103339 -0.268109
v -9.456081 0.356825 8.173588
v -7.802885 0.353199 8.272602
v -9.431385 1.974730 7.820484
v -7.778188 1.971104 7.919498
v -8.537489 -0.264372 -0.502031
v -7.682144 -0.266248 -0.450802
v 8.416897 -0.115023 -0.289071
v 9.164209 -0.533064 -0.257309
v 8.709676 1.867994 8.140568
v 10.154070 1.060013 8.201958
v 9.504126 3.255338 7.708093
v 10.948519 2.447356 7.769483
v 8.827938 0.602777 -0.512830
v 9.575252 0.184737 -0.481068
vt 0.742451 0.048584
vt 0.743048 0.048692
vt 0.743112 0.048698
vt 0.742551 0.048577
vt 0.743150 0.048484
vt 0.742241 0.047712
vt 0.742295 0.047698
vt 0.743190 0.047818
vt 0.743139 0.047833
vt 0.743203 0.048502
vt 0.742316 0.047832
vt 0.742272 0.047844
vt 0.742285 0.048554
vt 0.742338 0.048542
vt 0.743164 0.048099
vt 0.743207 0.048086
vt 0.057089 0.227857
vt 0.056938 0.227852
vt 0.057623 0.227674
vt 0.057933 0.227687
vt 0.057611 0.227331
vt 0.057919 0.227346
vt 0.056932 0.227686
vt 0.057084 0.227692
vt 0.057089 0.227857
vt 0.056938 0.227852
vt 0.057623 0.227674
vt 0.057933 0.227687
vt 0.057611 0.227331
vt 0.057919 0.227346
vt 0.056932 0.227686
vt 0.057084 0.227692
vn -0.003613 -0.980857 0.194698
vn -0.003613 -0.980857 0.194698
vn -0.003613 -0.980857 0.194698
vn -0.003613 -0.980857 0.194698
vn 0.113970 0.538383 0.834958
vn 0.113970 0.538383 0.834958
vn 0.113970 0.538383 0.834958
vn -0.003650 0.999993 0.000000
vn -0.003650 0.999993 0.000000
vn -0.003650 0.999993 0.000000
vn -0.003650 0.999993 0.000000
vn -0.975004 -0.121791 0.185835
vn -0.975004 -0.121791 0.185835
vn -0.975004 -0.121791 0.185835
vn -0.975004 -0.121791 0.185835
vn 0.999972 0.007491 -0.000002
vn 0.999972 0.007491 -0.000002
vn 0.999972 0.007491 -0.000002
vn 0.999972 0.007491 -0.000002
vn 0.038756 0.220072 0.974714
vn 0.038756 0.220072 0.974714
vn 0.038756 0.220072 0.974714
vn -0.111517 -0.569890 -0.814119
vn -0.111517 -0.569890 -0.814119
vn -0.111517 -0.569890 -0.814119
vn -0.999952 -0.009749 0.000663
vn -0.999952 -0.009749 0.000663
vn -0.999952 -0.009749 0.000663
vn -0.999952 -0.009749 0.000663
vn -0.026755 -0.178975 -0.983490
vn -0.026755 -0.178975 -0.983490
vn -0.026755 -0.178975 -0.983490
vn 0.002266 0.164178 0.986428
vn 0.002266 0.164178 0.986428
vn 0.002266 0.164178 0.986428
vn 0.002266 0.164178 0.986428
vn 0.007237 -0.997876 0.064740
vn 0.007237 -0.997876 0.064740
vn 0.007237 -0.997876 0.064740
vn 0.007237 -0.997876 0.064740
vn -0.003801 -0.147394 -0.989071
vn -0.003801 -0.147394 -0.989071
vn -0.003801 -0.147394 -0.989071
vn -0.003801 -0.147394 -0.989071
vn 0.010282 0.005204 0.999934
vn 0.010282 0.005204 0.999934
vn 0.010282 0.005204 0.999934
vn 0.010282 0.005204 0.999934
vn -0.999992 -0.003980 0.000000
vn -0.999992 -0.003980 0.000000
vn -0.999992 -0.003980 0.000000
vn -0.999992 -0.003980 0.000000
vn -0.007062 -0.062116 -0.998044
vn -0.007062 -0.062116 -0.998044
vn -0.007062 -0.062116 -0.998044
vn -0.007062 -0.062116 -0.998044
vn 0.999972 0.007486 0.000000
vn 0.999972 0.007486 0.000000
vn 0.999972 0.007486 0.000000
vn 0.999972 0.007486 0.000000
vn -0.012221 -0.985720 0.167951
vn -0.012221 -0.985720 0.167951
vn -0.012221 -0.985720 0.167951
vn -0.012221 -0.985720 0.167951
vn -0.057937 0.213714 0.975177
vn -0.057937 0.213714 0.975177
vn -0.057937 0.213714 0.975177
vn -0.057937 0.213714 0.975177
vn 0.017571 0.965985 -0.258003
vn 0.017571 0.965985 -0.258003
vn 0.017571 0.965984 -0.258003
vn 0.017571 0.965985 -0.258002
vn 0.057937 -0.213715 -0.975177
vn 0.057937 -0.213715 -0.975177
vn 0.057937 -0.213715 -0.975177
vn 0.057937 -0.213715 -0.975177
vn 0.999819 -0.012055 0.014695
vn 0.999819 -0.012055 0.014695
vn 0.999819 -0.012055 0.014695
vn 0.999819 -0.012055 0.014695
vn -0.994469 -0.007681 -0.104747
vn -0.994469 -0.007681 -0.104747
vn -0.994469 -0.007681 -0.104747
vn -0.994469 -0.007681 -0.104747
vn -0.483627 -0.848124 0.216313
vn -0.483627 -0.848124 0.216313
vn -0.483627 -0.848124 0.216313
vn -0.483627 -0.848124 0.216313
vn 0.096344 0.245520 0.964592
vn 0.096344 0.245520 0.964592
vn 0.096344 0.245520 0.964592
vn 0.096344 0.245520 0.964592
vn 0.474730 0.825451 -0.305388
vn 0.474730 0.825451 -0.305388
vn 0.474730 0.825451 -0.305388
vn 0.474730 0.825451 -0.305388
vn -0.096345 -0.245520 -0.964592
vn -0.096345 -0.245520 -0.964592
vn -0.096345 -0.245520 -0.964592
vn -0.096345 -0.245520 -0.964592
vn 0.866754 -0.498680 -0.007510
vn 0.866754 -0.498680 -0.007510
vn 0.866754 -0.498680 -0.007510
vn 0.866754 -0.498680 -0.007510
vn -0.875651 0.476008 -0.081564
vn -0.875651 0.476008 -0.081564
vn -0.875651 0.476008 -0.081564
vn -0.875651 0.476008 -0.081564
s off
f 11/1/1 4/2/2 2/3/3 12/4/4
f 9/5/5 4/2/6 11/1/7
f 13/6/8 16/7/9 15/8/10 14/9/11
f 10/10/12 2/3/13 4/2/14 9/5/15
f 7/11/16 5/12/17 3/13/18 1/14/19
f 6/15/20 9/5/21 11/1/22
f 12/4/23 2/3/24 10/10/25
f 9/5/26 6/15/27 8/16/28 10/10/29
f 12/4/30 10/10/31 8/16/32
f 3/13/33 5/12/34 6/15/35 11/1/36
f 1/14/37 3/13/38 11/1/39 12/4/40
f 1/14/41 12/4/42 8/16/43 7/11/44
f 5/12/45 13/6/46 14/9/47 6/15/48
f 6/15/49 14/9/50 15/8/51 8/16/52
f 8/16/53 15/8/54 16/7/55 7/11/56
f 7/11/57 16/7/58 13/6/59 5/12/60
f 17/17/61 18/18/62 20/19/63 19/20/64
f 19/20/65 20/19/66 22/21/67 21/22/68
f 21/22/69 22/21/70 24/23/71 23/24/72
f 23/24/73 24/23/74 18/18/75 17/17/76
f 18/18/77 24/23/78 22/21/79 20/19/80
f 23/24/81 17/17/82 19/20/83 21/22/84
f 25/25/85 26/26/86 28/27/87 27/28/88
f 27/28/89 28/27/90 30/29/91 29/30/92
f 29/30/93 30/29/94 32/31/95 31/32/96
f 31/32/97 32/31/98 26/26/99 25/25/100
f 26/26/101 32/31/102 30/29/103 28/27/104
f 31/32/105 25/25/106 27/28/107 29/30/108
