# This file uses centimeters as units for non-parametric coordinates.

v -66.404602 12.917078 35.000000
v -4.607491 12.917078 35.000000
v -4.607491 39.442181 35.000000
v -66.404602 39.442181 35.000000
v -65.804604 13.517075 38.101196
v -5.207491 13.517075 38.101196
v -5.207491 38.842186 38.101196
v -65.804604 38.842186 38.101196
v -64.704605 14.617078 35.000000
v -64.704605 37.742165 35.000000
v -6.307491 37.742165 35.000000
v -6.307491 14.617078 35.000000
v -64.704605 14.617078 -28.571270
v -64.704605 37.742165 -28.571270
v -6.307491 37.742165 -28.571270
v -6.307491 14.617078 -28.571270
v -61.904606 37.742165 32.200001
v -9.107491 37.742165 32.200001
v -9.107491 37.742165 -25.771271
v -61.904606 37.742165 -25.771271
v -61.904606 18.807220 32.200001
v -9.107491 18.807220 32.200001
v -9.107491 18.807220 -25.771271
v -61.904606 18.807220 -25.771271
v -32.708553 28.977125 38.092697
v -36.529999 30.001080 38.092697
v -39.327492 27.203587 38.092697
v -38.303539 23.382139 38.092697
v -34.482094 22.358185 38.092697
v -31.684599 25.155678 38.092697
v -32.708553 28.977125 43.613201
v -36.529999 30.001080 43.613201
v -39.327492 27.203587 43.613201
v -38.303539 23.382139 43.613201
v -34.482094 22.358185 43.613201
v -31.684599 25.155678 43.613201
v -32.708553 28.977125 39.832481
v -31.684599 25.155678 39.832481
v -34.482094 22.358185 39.832481
v -38.303539 23.382139 39.832481
v -39.327492 27.203587 39.832481
v -36.529999 30.001080 39.832481
v -32.708553 28.977125 41.959686
v -31.684599 25.155678 41.959686
v -34.482094 22.358185 41.959686
v -38.303539 23.382139 41.959686
v -39.327492 27.203587 41.959686
v -36.529999 30.001080 41.959686
v -33.935364 27.750313 40.298912
v -33.360458 25.604723 40.298912
v -33.935364 27.750313 41.493252
v -33.360458 25.604723 41.493252
v -34.931137 24.034042 40.298912
v -34.931137 24.034042 41.493252
v -37.076729 24.608952 40.298912
v -37.076729 24.608952 41.493252
v -37.651634 26.754541 40.298912
v -37.651634 26.754541 41.493252
v -36.080956 28.325222 40.298912
v -36.080956 28.325222 41.493252
v -35.506046 26.179632 45.035946
vt 0.446738 0.037380
vt 0.445995 0.037342
vt 0.445958 0.037972
vt 0.446677 0.038012
vt 0.446738 0.037380
vt 0.445995 0.037342
vt 0.445958 0.037972
vt 0.446677 0.038012
vt 0.446738 0.037380
vt 0.445995 0.037342
vt 0.445958 0.037972
vt 0.446677 0.038012
vt 0.446738 0.037380
vt 0.446677 0.038012
vt 0.445958 0.037972
vt 0.445995 0.037342
vt 0.446738 0.037380
vt 0.446677 0.038012
vt 0.445958 0.037972
vt 0.445995 0.037342
vt 0.446677 0.038012
vt 0.445958 0.037972
vt 0.445958 0.037972
vt 0.446677 0.038012
vt 0.446677 0.038012
vt 0.445958 0.037972
vt 0.445958 0.037972
vt 0.446677 0.038012
vt 0.445475 0.022094
vt 0.445965 0.022098
vt 0.445966 0.022144
vt 0.445473 0.022140
vt 0.446203 0.022514
vt 0.446207 0.022563
vt 0.445953 0.022921
vt 0.445955 0.022973
vt 0.445468 0.022915
vt 0.445465 0.022967
vt 0.445228 0.022504
vt 0.445224 0.022553
vt 0.445438 0.022568
vt 0.445579 0.022336
vt 0.445578 0.022369
vt 0.445437 0.022602
vt 0.445574 0.022802
vt 0.445573 0.022837
vt 0.445850 0.022805
vt 0.445851 0.022840
vt 0.445991 0.022574
vt 0.445993 0.022608
vt 0.445856 0.022339
vt 0.445856 0.022372
vt 0.445219 0.022613
vt 0.445470 0.022197
vt 0.445468 0.022242
vt 0.445214 0.022662
vt 0.445463 0.023032
vt 0.445460 0.023083
vt 0.445957 0.023037
vt 0.445958 0.023089
vt 0.446211 0.022624
vt 0.446214 0.022672
vt 0.445968 0.022201
vt 0.445970 0.022247
vt 0.445714 0.022709
vn 0.000000 0.000000 1.000000
vn 0.000000 0.000000 1.000000
vn 0.000000 0.000000 1.000000
vn 0.000000 0.000000 1.000000
vn 0.000000 0.000000 -1.000000
vn 0.000000 0.000000 -1.000000
vn 0.000000 0.000000 -1.000000
vn 0.000000 0.000000 -1.000000
vn 0.000000 -0.981794 0.189950
vn 0.000000 -0.981794 0.189950
vn 0.000000 -0.981794 0.189950
vn 0.000000 -0.981794 0.189950
vn 0.981794 0.000000 0.189951
vn 0.981794 0.000000 0.189951
vn 0.981794 0.000000 0.189951
vn 0.981794 0.000000 0.189951
vn 0.000000 0.981794 0.189949
vn 0.000000 0.981794 0.189949
vn 0.000000 0.981794 0.189949
vn 0.000000 0.981794 0.189949
vn -0.981794 0.000000 0.189951
vn -0.981794 0.000000 0.189951
vn -0.981794 0.000000 0.189951
vn -0.981794 0.000000 0.189951
vn -0.000000 0.000000 -1.000000
vn -0.000000 0.000000 -1.000000
vn -0.000000 0.000000 -1.000000
vn -0.000000 0.000000 -1.000000
vn -0.000000 0.000000 -1.000000
vn -0.000000 0.000000 -1.000000
vn -0.000000 0.000000 -1.000000
vn -0.000000 0.000000 -1.000000
vn -0.000000 0.000000 -1.000000
vn -0.000000 0.000000 -1.000000
vn -0.000000 0.000000 -1.000000
vn -0.000000 0.000000 -1.000000
vn -0.000000 0.000000 -1.000000
vn -0.000000 0.000000 -1.000000
vn -0.000000 0.000000 -1.000000
vn -0.000000 0.000000 -1.000000
vn -1.000000 0.000000 0.000000
vn -1.000000 0.000000 0.000000
vn -1.000000 0.000000 0.000000
vn -1.000000 0.000000 0.000000
vn 0.000000 1.000000 0.000000
vn 0.000000 1.000000 0.000000
vn 0.000000 1.000000 0.000000
vn 0.000000 1.000000 0.000000
vn 1.000000 0.000000 0.000000
vn 1.000000 0.000000 0.000000
vn 1.000000 0.000000 0.000000
vn 1.000000 0.000000 0.000000
vn 0.000000 -1.000000 0.000000
vn 0.000000 -1.000000 0.000000
vn 0.000000 -1.000000 0.000000
vn 0.000000 -1.000000 0.000000
vn 0.000000 1.000000 -0.000000
vn 0.000000 1.000000 -0.000000
vn 0.000000 1.000000 -0.000000
vn 0.000000 1.000000 -0.000000
vn 0.000000 1.000000 -0.000000
vn 0.000000 1.000000 0.000000
vn 0.000000 1.000000 0.000000
vn 0.000000 1.000000 -0.000000
vn 0.000000 1.000000 0.000000
vn 0.000000 1.000000 0.000000
vn 0.000000 1.000000 0.000000
vn 0.000000 1.000000 0.000000
vn 0.000000 1.000000 0.000000
vn 0.000000 1.000000 -0.000000
vn 0.000000 1.000000 -0.000000
vn 0.000000 1.000000 0.000000
vn 0.000000 0.000000 -1.000000
vn 0.000000 0.000000 -1.000000
vn 0.000000 0.000000 -1.000000
vn 0.000000 0.000000 -1.000000
vn -1.000000 0.000000 0.000000
vn -1.000000 0.000000 0.000000
vn -1.000000 0.000000 0.000000
vn -1.000000 0.000000 0.000000
vn 0.000000 0.000000 1.000000
vn 0.000000 0.000000 1.000000
vn 0.000000 0.000000 1.000000
vn 0.000000 0.000000 1.000000
vn 1.000000 0.000000 0.000000
vn 1.000000 0.000000 0.000000
vn 1.000000 0.000000 0.000000
vn 1.000000 0.000000 0.000000
vn 0.258819 0.965926 0.000000
vn 0.258819 0.965926 0.000000
vn 0.258819 0.965926 0.000000
vn 0.258819 0.965926 0.000000
vn -0.707107 0.707107 0.000000
vn -0.707107 0.707107 0.000000
vn -0.707107 0.707107 0.000000
vn -0.707107 0.707107 0.000000
vn -0.965926 -0.258819 0.000000
vn -0.965926 -0.258819 0.000000
vn -0.965926 -0.258819 0.000000
vn -0.965926 -0.258819 0.000000
vn -0.258819 -0.965926 0.000000
vn -0.258819 -0.965926 0.000000
vn -0.258819 -0.965926 0.000000
vn -0.258819 -0.965926 0.000000
vn 0.707106 -0.707107 0.000000
vn 0.707106 -0.707107 0.000000
vn 0.707106 -0.707107 0.000000
vn 0.707106 -0.707107 0.000000
vn 0.965926 0.258820 0.000000
vn 0.965926 0.258820 0.000000
vn 0.965926 0.258820 0.000000
vn 0.965926 0.258820 0.000000
vn -0.000000 0.000000 -1.000000
vn -0.000000 0.000000 -1.000000
vn -0.000000 0.000000 -1.000000
vn -0.000000 0.000000 -1.000000
vn -0.000000 0.000000 -1.000000
vn -0.000000 0.000000 -1.000000
vn 0.965926 0.258817 0.000000
vn 0.965926 0.258817 0.000000
vn 0.965926 0.258817 0.000000
vn 0.965926 0.258817 0.000000
vn 0.707108 -0.707106 0.000000
vn 0.707108 -0.707106 0.000000
vn 0.707108 -0.707106 0.000000
vn 0.707108 -0.707106 0.000000
vn -0.258819 -0.965926 0.000000
vn -0.258819 -0.965926 0.000000
vn -0.258819 -0.965926 0.000000
vn -0.258819 -0.965926 0.000000
vn -0.965926 -0.258818 0.000000
vn -0.965926 -0.258818 0.000000
vn -0.965926 -0.258818 0.000000
vn -0.965926 -0.258818 0.000000
vn -0.707107 0.707107 0.000000
vn -0.707107 0.707107 0.000000
vn -0.707107 0.707107 0.000000
vn -0.707107 0.707107 0.000000
vn 0.258819 0.965926 0.000000
vn 0.258819 0.965926 0.000000
vn 0.258819 0.965926 0.000000
vn 0.258819 0.965926 0.000000
vn 0.965926 0.258819 0.000000
vn 0.965926 0.258819 0.000000
vn 0.965926 0.258819 0.000000
vn 0.965926 0.258819 0.000000
vn 0.707106 -0.707107 0.000000
vn 0.707106 -0.707107 0.000000
vn 0.707106 -0.707107 0.000000
vn 0.707106 -0.707107 0.000000
vn -0.258819 -0.965926 0.000000
vn -0.258819 -0.965926 0.000000
vn -0.258819 -0.965926 0.000000
vn -0.258819 -0.965926 0.000000
vn -0.965926 -0.258819 0.000000
vn -0.965926 -0.258819 0.000000
vn -0.965926 -0.258819 0.000000
vn -0.965926 -0.258819 0.000000
vn -0.707106 0.707107 0.000000
vn -0.707106 0.707107 0.000000
vn -0.707106 0.707107 0.000000
vn -0.707106 0.707107 0.000000
vn 0.258819 0.965926 0.000000
vn 0.258819 0.965926 0.000000
vn 0.258819 0.965926 0.000000
vn 0.258819 0.965926 0.000000
vn 0.286371 0.076733 0.955041
vn 0.286371 0.076733 0.955041
vn 0.286371 0.076733 0.955041
vn 0.286371 0.076733 0.955041
vn 0.286370 0.076733 -0.955041
vn 0.286370 0.076733 -0.955041
vn 0.286370 0.076733 -0.955041
vn 0.286370 0.076733 -0.955041
vn 0.209639 -0.209638 0.955041
vn 0.209639 -0.209638 0.955041
vn 0.209639 -0.209638 0.955041
vn 0.209639 -0.209638 0.955041
vn 0.209640 -0.209640 -0.955041
vn 0.209640 -0.209640 -0.955041
vn 0.209640 -0.209640 -0.955041
vn 0.209640 -0.209640 -0.955041
vn -0.076733 -0.286371 0.955041
vn -0.076733 -0.286371 0.955041
vn -0.076733 -0.286371 0.955041
vn -0.076733 -0.286371 0.955041
vn -0.076734 -0.286373 -0.955040
vn -0.076734 -0.286373 -0.955040
vn -0.076734 -0.286373 -0.955040
vn -0.076734 -0.286373 -0.955040
vn -0.286371 -0.076733 0.955041
vn -0.286371 -0.076733 0.955041
vn -0.286371 -0.076733 0.955041
vn -0.286371 -0.076733 0.955041
vn -0.286370 -0.076734 -0.955041
vn -0.286370 -0.076734 -0.955041
vn -0.286370 -0.076734 -0.955041
vn -0.286370 -0.076734 -0.955041
vn -0.209639 0.209638 0.955041
vn -0.209639 0.209638 0.955041
vn -0.209639 0.209638 0.955041
vn -0.209639 0.209638 0.955041
vn -0.209640 0.209640 -0.955041
vn -0.209640 0.209640 -0.955041
vn -0.209640 0.209640 -0.955041
vn -0.209640 0.209640 -0.955040
vn 0.076733 0.286371 0.955041
vn 0.076733 0.286371 0.955041
vn 0.076733 0.286371 0.955041
vn 0.076733 0.286371 0.955041
vn 0.076734 0.286373 -0.955041
vn 0.076734 0.286373 -0.955041
vn 0.076734 0.286373 -0.955041
vn 0.076734 0.286373 -0.955041
vn 0.099257 0.370435 0.923540
vn 0.099257 0.370435 0.923540
vn 0.099257 0.370435 0.923540
vn -0.271176 0.271178 0.923540
vn -0.271176 0.271178 0.923540
vn -0.271176 0.271178 0.923540
vn -0.370434 -0.099258 0.923540
vn -0.370434 -0.099258 0.923540
vn -0.370434 -0.099258 0.923540
vn -0.099257 -0.370434 0.923540
vn -0.099257 -0.370434 0.923540
vn -0.099257 -0.370434 0.923540
vn 0.271176 -0.271178 0.923540
vn 0.271176 -0.271177 0.923540
vn 0.271176 -0.271178 0.923540
vn 0.370434 0.099258 0.923540
vn 0.370434 0.099258 0.923540
vn 0.370434 0.099258 0.923540
s off
f 5/9/1 6/10/2 7/11/3 8/12/4
f 13/17/5 14/18/6 15/19/7 16/20/8
f 1/1/9 2/2/10 6/10/11 5/9/12
f 2/2/13 3/3/14 7/11/15 6/10/16
f 3/3/17 4/4/18 8/12/19 7/11/20
f 4/4/21 1/1/22 5/9/23 8/12/24
f 1/5/25 4/8/26 10/14/27 9/13/28
f 4/8/29 3/7/30 11/15/31 10/14/32
f 3/7/33 2/6/34 12/16/35 11/15/36
f 2/6/37 1/5/38 9/13/39 12/16/40
f 9/13/41 10/14/42 14/18/43 13/17/44
f 21/25/45 22/26/46 23/27/47 24/28/48
f 11/15/49 12/16/50 16/20/51 15/19/52
f 12/16/53 9/13/54 13/17/55 16/20/56
f 10/14/57 11/15/58 18/22/59 17/21/60
f 11/15/61 15/19/62 19/23/63 18/22/64
f 15/19/65 14/18/66 20/24/67 19/23/68
f 14/18/69 10/14/70 17/21/71 20/24/72
f 17/21/73 18/22/74 22/26/75 21/25/76
f 18/22/77 19/23/78 23/27/79 22/26/80
f 19/23/81 20/24/82 24/28/83 23/27/84
f 20/24/85 17/21/86 21/25/87 24/28/88
f 25/29/89 26/30/90 42/31/91 37/32/92
f 26/30/93 27/33/94 41/34/95 42/31/96
f 27/33/97 28/35/98 40/36/99 41/34/100
f 28/35/101 29/37/102 39/38/103 40/36/104
f 29/37/105 30/39/106 38/40/107 39/38/108
f 30/39/109 25/29/110 37/32/111 38/40/112
f 25/29/113 30/39/114 29/37/115 28/35/116 27/33/117 26/30/118
f 50/41/119 49/42/120 51/43/121 52/44/122
f 53/45/123 50/41/124 52/44/125 54/46/126
f 55/47/127 53/45/128 54/46/129 56/48/130
f 57/49/131 55/47/132 56/48/133 58/50/134
f 59/51/135 57/49/136 58/50/137 60/52/138
f 49/42/139 59/51/140 60/52/141 51/43/142
f 44/53/143 43/54/144 31/55/145 36/56/146
f 45/57/147 44/53/148 36/56/149 35/58/150
f 46/59/151 45/57/152 35/58/153 34/60/154
f 47/61/155 46/59/156 34/60/157 33/62/158
f 48/63/159 47/61/160 33/62/161 32/64/162
f 43/54/163 48/63/164 32/64/165 31/55/166
f 38/40/167 37/32/168 49/42/169 50/41/170
f 43/54/171 44/53/172 52/44/173 51/43/174
f 39/38/175 38/40/176 50/41/177 53/45/178
f 44/53/179 45/57/180 54/46/181 52/44/182
f 40/36/183 39/38/184 53/45/185 55/47/186
f 45/57/187 46/59/188 56/48/189 54/46/190
f 41/34/191 40/36/192 55/47/193 57/49/194
f 46/59/195 47/61/196 58/50/197 56/48/198
f 42/31/199 41/34/200 57/49/201 59/51/202
f 47/61/203 48/63/204 60/52/205 58/50/206
f 37/32/207 42/31/208 59/51/209 49/42/210
f 48/63/211 43/54/212 51/43/213 60/52/214
f 31/55/215 32/64/216 61/65/217
f 32/64/218 33/62/219 61/65/220
f 33/62/221 34/60/222 61/65/223
f 34/60/224 35/58/225 61/65/226
f 35/58/227 36/56/228 61/65/229
f 36/56/230 31/55/231 61/65/232
