# This file uses centimeters as units for non-parametric coordinates.

v 0.432617 -0.662437 -0.749390
v -0.432617 -0.662437 -0.749390
v -0.865295 -0.662437 0.000000
v -0.432617 -0.662437 0.749390
v 0.432617 -0.662437 0.749390
v 0.865295 -0.662437 0.000000
v 0.432617 4.664959 -0.749390
v -0.432617 4.664959 -0.749390
v -0.865295 4.664959 0.000000
v -0.432617 4.664959 0.749390
v 0.432617 4.664959 0.749390
v 0.865295 4.664959 0.000000
v 1.007874 5.501629 -1.745728
v -1.007874 5.501629 -1.745728
v -2.015869 5.501629 0.000000
v -1.007874 5.501629 1.745728
v 1.007874 5.501629 1.745728
v 2.015869 5.501629 0.000000
v 2.073486 27.808392 -3.511841
v 1.967712 28.466454 -2.967041
v -1.671631 30.956352 -3.110352
v -2.077026 30.522717 -3.674927
v -4.292236 31.862740 0.001099
v -3.525146 32.160255 -0.007690
v -1.650757 30.816578 3.097778
v -2.070862 30.351322 3.666382
v 1.966736 28.347122 2.968262
v 2.069092 27.681087 3.506348
v 4.012329 26.505074 0.001099
v 3.603088 27.288799 0.004761
v 2.414246 28.101238 0.001099
v -2.336304 31.347816 -0.007202
v -1.087158 30.452324 2.062378
v 1.323730 28.806557 1.976074
v -1.101074 30.545477 -2.074951
v 1.324402 28.886086 -1.979492
vt 0.059304 0.229405
vt 0.059326 0.229452
vt 0.059353 0.228532
vt 0.059330 0.228494
vt 0.059184 0.229475
vt 0.059209 0.228550
vt 0.059022 0.229450
vt 0.059046 0.228530
vt 0.059004 0.229403
vt 0.059027 0.228492
vt 0.059144 0.229381
vt 0.059168 0.228475
vt 0.185807 0.250520
vt 0.185811 0.250538
vt 0.185770 0.250547
vt 0.185725 0.250537
vt 0.185722 0.250519
vt 0.185762 0.250511
vt 0.185874 0.250506
vt 0.185907 0.249922
vt 0.185778 0.250526
vt 0.185929 0.249886
vt 0.185672 0.250503
vt 0.185810 0.249867
vt 0.185665 0.250463
vt 0.185674 0.249888
vt 0.185759 0.250445
vt 0.185665 0.249923
vt 0.185862 0.250465
vt 0.185779 0.249938
vt 0.185781 0.249923
vt 0.185694 0.249873
vt 0.185685 0.249908
vt 0.185889 0.249907
vt 0.185908 0.249871
vt 0.185808 0.249853
vt 0.185808 0.249853
vt 0.185694 0.249873
vt 0.185685 0.249908
vt 0.185781 0.249923
vt 0.185889 0.249907
vt 0.185908 0.249871
vt 0.104685 0.179450
vt 0.104945 0.178743
vt 0.105320 0.178930
vt 0.105177 0.179290
vt 0.104320 0.179275
vt 0.104443 0.178915
vn -0.000000 0.000000 -1.000000
vn -0.000000 0.000000 -1.000000
vn -0.000000 0.000000 -1.000000
vn -0.000000 0.000000 -1.000000
vn -0.866005 0.000000 -0.500036
vn -0.866005 0.000000 -0.500036
vn -0.866005 0.000000 -0.500036
vn -0.866005 0.000000 -0.500036
vn -0.866004 0.000000 0.500037
vn -0.866004 0.000000 0.500037
vn -0.866004 0.000000 0.500037
vn -0.866004 0.000000 0.500037
vn 0.000000 0.000000 1.000000
vn 0.000000 0.000000 1.000000
vn 0.000000 0.000000 1.000000
vn 0.000000 0.000000 1.000000
vn 0.866004 0.000000 0.500037
vn 0.866004 0.000000 0.500037
vn 0.866004 0.000000 0.500037
vn 0.866004 0.000000 0.500037
vn 0.866005 0.000000 -0.500036
vn 0.866005 0.000000 -0.500036
vn 0.866005 0.000000 -0.500036
vn 0.866005 0.000000 -0.500036
vn -0.000000 -0.765810 -0.643067
vn -0.000000 -0.765810 -0.643067
vn -0.000000 -0.765810 -0.643067
vn -0.000000 -0.765810 -0.643067
vn -0.556897 -0.765811 -0.321557
vn -0.556897 -0.765811 -0.321557
vn -0.556897 -0.765811 -0.321557
vn -0.556897 -0.765811 -0.321557
vn -0.556897 -0.765811 0.321558
vn -0.556897 -0.765811 0.321558
vn -0.556897 -0.765811 0.321558
vn -0.556897 -0.765811 0.321558
vn 0.000000 -0.765808 0.643069
vn 0.000000 -0.765808 0.643069
vn 0.000000 -0.765808 0.643069
vn 0.000000 -0.765808 0.643069
vn 0.556897 -0.765811 0.321558
vn 0.556897 -0.765811 0.321558
vn 0.556897 -0.765811 0.321558
vn 0.556897 -0.765811 0.321558
vn 0.556897 -0.765811 -0.321557
vn 0.556897 -0.765811 -0.321557
vn 0.556897 -0.765811 -0.321557
vn 0.556897 -0.765811 -0.321557
vn 0.852550 0.421888 -0.308495
vn 0.852550 0.421888 -0.308495
vn 0.852550 0.421888 -0.308495
vn 0.852550 0.421888 -0.308495
vn 0.419807 0.587659 -0.691678
vn 0.419807 0.587659 -0.691678
vn 0.419807 0.587659 -0.691678
vn 0.419807 0.587659 -0.691678
vn -0.287069 0.827346 -0.482794
vn -0.287069 0.827346 -0.482794
vn -0.287069 0.827346 -0.482794
vn -0.287069 0.827346 -0.482794
vn -0.275384 0.814795 0.510169
vn -0.275384 0.814795 0.510169
vn -0.275384 0.814795 0.510169
vn -0.275384 0.814795 0.510169
vn 0.408678 0.576989 0.707153
vn 0.408678 0.576989 0.707153
vn 0.408678 0.576989 0.707153
vn 0.408678 0.576989 0.707153
vn 0.848035 0.418908 0.324581
vn 0.848035 0.418908 0.324581
vn 0.848035 0.418908 0.324581
vn 0.848035 0.418908 0.324581
vn -0.007897 -0.077840 -0.996935
vn -0.007897 -0.077840 -0.996935
vn -0.007897 -0.077840 -0.996935
vn -0.007897 -0.077840 -0.996935
vn -0.865183 -0.074938 -0.495825
vn -0.865183 -0.074938 -0.495826
vn -0.865183 -0.074938 -0.495826
vn -0.865183 -0.074938 -0.495825
vn -0.865360 -0.075023 0.495504
vn -0.865360 -0.075023 0.495504
vn -0.865360 -0.075023 0.495504
vn -0.865360 -0.075023 0.495504
vn -0.007933 -0.078036 0.996919
vn -0.007933 -0.078036 0.996919
vn -0.007933 -0.078036 0.996919
vn -0.007933 -0.078036 0.996919
vn 0.860951 -0.081447 0.502126
vn 0.860951 -0.081447 0.502126
vn 0.860951 -0.081447 0.502126
vn 0.860951 -0.081447 0.502126
vn 0.860744 -0.081334 -0.502499
vn 0.860744 -0.081334 -0.502499
vn 0.860744 -0.081334 -0.502499
vn 0.860744 -0.081334 -0.502499
vn 0.564133 0.825515 0.016692
vn 0.564133 0.825516 0.016692
vn 0.564133 0.825515 0.016691
vn 0.564133 0.825515 0.016691
vn 0.564132 0.825516 0.016692
vn 0.564132 0.825516 0.016692
vn 0.564133 0.825516 0.016692
vn 0.564133 0.825515 0.016692
vn 0.564145 0.825507 0.016681
vn 0.564145 0.825507 0.016681
vn 0.564145 0.825507 0.016681
vn 0.564145 0.825507 0.016681
vn 0.564129 0.825518 0.016660
vn 0.564129 0.825518 0.016660
vn 0.564129 0.825518 0.016660
vn 0.564129 0.825518 0.016660
vn 0.564113 0.825529 0.016670
vn 0.564113 0.825529 0.016670
vn 0.564113 0.825530 0.016670
vn 0.564113 0.825530 0.016670
vn 0.564127 0.825519 0.016714
vn 0.564127 0.825519 0.016714
vn 0.564127 0.825519 0.016714
vn 0.564127 0.825519 0.016714
vn 0.564145 0.825507 0.016697
vn 0.564145 0.825507 0.016697
vn 0.564145 0.825507 0.016697
vn 0.564145 0.825507 0.016697
vn 0.564116 0.825526 0.016711
vn 0.564116 0.825526 0.016711
vn 0.564116 0.825526 0.016711
vn 0.564116 0.825526 0.016711
s off
f 1/1/1 2/2/2 8/3/3 7/4/4
f 2/2/5 3/5/6 9/6/7 8/3/8
f 3/5/9 4/7/10 10/8/11 9/6/12
f 4/7/13 5/9/14 11/10/15 10/8/16
f 5/9/17 6/11/18 12/12/19 11/10/20
f 6/11/21 1/1/22 7/4/23 12/12/24
f 7/13/25 8/14/26 14/19/27 13/29/28
f 8/14/29 9/15/30 15/21/31 14/19/32
f 9/15/33 10/16/34 16/23/35 15/21/36
f 10/16/37 11/17/38 17/25/39 16/23/40
f 11/17/41 12/18/42 18/27/43 17/25/44
f 12/18/45 7/13/46 13/29/47 18/27/48
f 19/20/49 20/34/50 30/31/51 29/30/52
f 20/34/53 19/20/54 22/22/55 21/35/56
f 21/35/57 22/22/58 23/24/59 24/36/60
f 24/36/61 23/24/62 26/26/63 25/32/64
f 25/32/65 26/26/66 28/28/67 27/33/68
f 27/33/69 28/28/70 29/30/71 30/31/72
f 14/19/73 22/22/74 19/20/75 13/29/76
f 15/21/77 23/24/78 22/22/79 14/19/80
f 16/23/81 26/26/82 23/24/83 15/21/84
f 17/25/85 28/28/86 26/26/87 16/23/88
f 18/27/89 29/30/90 28/28/91 17/25/92
f 13/29/93 19/20/94 29/30/95 18/27/96
f 31/43/97 32/44/98 33/45/99 34/46/100
f 36/47/101 35/48/102 32/44/103 31/43/104
f 24/36/105 25/32/106 33/38/107 32/37/108
f 25/32/109 27/33/110 34/39/111 33/38/112
f 27/33/113 30/31/114 31/40/115 34/39/116
f 20/34/117 21/35/118 35/42/119 36/41/120
f 21/35/121 24/36/122 32/37/123 35/42/124
f 30/31/125 20/34/126 36/41/127 31/40/128
