# This file uses centimeters as units for non-parametric coordinates.

v -65.445435 312.739990 65.445557
v 65.445435 312.739990 65.445557
v 65.445435 312.739990 -65.445557
v -65.445435 312.739990 -65.445557
v -65.445435 500.000000 65.445557
v 65.445435 500.000000 65.445557
v 65.445435 500.000000 -65.445557
v -65.445435 500.000000 -65.445557
v 65.445435 389.347870 61.983887
v 62.560913 391.533081 65.445557
v 65.445435 371.545685 -65.445557
v 65.445435 443.938019 -63.090088
v 63.104248 442.837158 -65.445557
v -62.405396 376.412659 -65.445557
v -65.445435 383.659241 -62.488770
v -65.445435 372.719574 65.445557
v -65.445435 462.451416 65.445557
v -62.795166 412.554779 65.445557
v -65.445435 409.883789 62.963623
v 0.139038 312.739990 94.099609
v 0.139038 312.739990 -94.099609
v 0.139038 500.000000 94.099609
v 0.139038 500.000000 -94.099609
v 0.139038 403.500153 94.099609
v 0.139038 391.762299 -94.099609
v 94.099731 312.739990 0.695068
v -94.099731 312.739990 0.695068
v 94.099731 500.000000 0.695068
v -94.099731 500.000000 0.695068
v -94.099854 399.180115 0.695068
v 94.099731 398.473297 0.695068
v 0.096680 500.000000 0.483643
v 93.321289 500.000000 42.585205
v 99.994385 500.000000 45.349365
v 96.712280 500.000000 34.398682
v 103.385376 500.000000 37.162598
v 94.551880 312.739990 43.094971
v 100.443970 312.739990 44.263916
v 96.712280 312.739990 34.398682
v 102.935791 312.739990 38.247803
v 96.712280 409.659607 34.398682
v 102.935791 410.594299 38.247803
v 93.321289 413.572144 42.585205
v 100.443970 414.506836 44.263916
v -42.585083 500.000000 93.321289
v -45.349121 500.000000 99.994385
v -34.398438 500.000000 96.712158
v -37.162476 500.000000 103.385498
v -43.094849 312.739990 94.552002
v -44.263672 312.739990 100.444092
v -34.398438 312.739990 96.712158
v -38.247925 312.739990 102.935791
v -34.398438 409.659607 96.712158
v -38.247925 410.594299 102.935791
v -42.585083 413.572144 93.321289
v -44.263672 414.506836 100.444092
v -93.321289 500.000000 -42.585205
v -99.994263 500.000000 -45.349121
v -96.712280 500.000000 -34.398193
v -103.385254 500.000000 -37.162354
v -94.551880 312.739990 -43.094971
v -100.443909 312.739990 -44.263428
v -96.712280 312.739990 -34.398193
v -102.935730 312.739990 -38.247803
v -96.712280 409.659607 -34.398193
v -102.935730 410.594299 -38.247803
v -93.321289 413.572144 -42.585205
v -100.443909 414.506836 -44.263428
v 42.585083 500.000000 -93.321289
v 45.349243 500.000000 -99.994385
v 34.398438 500.000000 -96.712158
v 37.162476 500.000000 -103.385254
v 43.094971 312.739990 -94.552002
v 44.263794 312.739990 -100.443848
v 34.398438 312.739990 -96.712158
v 38.247925 312.739990 -102.935791
v 34.398438 409.659607 -96.712158
v 38.247925 410.594299 -102.935791
v 42.585083 413.572144 -93.321289
v 44.263794 414.506836 -100.443848
vt 0.015490 0.297558
vt 0.014821 0.297500
vt 0.014716 0.297656
vt 0.015246 0.297688
vt 0.015490 0.297558
vt 0.014832 0.297502
vt 0.015476 0.297558
vt 0.014817 0.297500
vt 0.014718 0.297656
vt 0.014718 0.297656
vt 0.014814 0.297499
vt 0.015230 0.297689
vt 0.014728 0.297657
vt 0.015247 0.297673
vt 0.015485 0.297561
vt 0.014720 0.297653
vt 0.015242 0.297690
vt 0.015490 0.297558
vt 0.015490 0.297558
vt 0.015153 0.297529
vt 0.014980 0.297673
vt 0.015155 0.297529
vt 0.014980 0.297672
vt 0.015153 0.297529
vt 0.014980 0.297673
vt 0.014768 0.297578
vt 0.015367 0.297624
vt 0.014769 0.297577
vt 0.015369 0.297623
vt 0.015367 0.297617
vt 0.014768 0.297575
vt 0.015068 0.297600
vt 0.081117 0.259086
vt 0.081069 0.259087
vt 0.081029 0.259086
vt 0.081077 0.259085
vt 0.081030 0.259360
vt 0.081077 0.259361
vt 0.081116 0.259692
vt 0.081070 0.259685
vt 0.081069 0.259353
vt 0.081116 0.259353
vt 0.081031 0.259664
vt 0.081077 0.259671
vt 0.081117 0.259086
vt 0.081069 0.259087
vt 0.081029 0.259086
vt 0.081077 0.259085
vt 0.081030 0.259360
vt 0.081077 0.259361
vt 0.081116 0.259692
vt 0.081070 0.259685
vt 0.081069 0.259353
vt 0.081116 0.259353
vt 0.081031 0.259664
vt 0.081077 0.259671
vt 0.081117 0.259086
vt 0.081069 0.259087
vt 0.081029 0.259086
vt 0.081077 0.259085
vt 0.081030 0.259360
vt 0.081077 0.259361
vt 0.081116 0.259692
vt 0.081070 0.259685
vt 0.081069 0.259353
vt 0.081116 0.259353
vt 0.081031 0.259664
vt 0.081077 0.259671
vt 0.081117 0.259086
vt 0.081069 0.259087
vt 0.081029 0.259086
vt 0.081077 0.259085
vt 0.081030 0.259360
vt 0.081077 0.259361
vt 0.081116 0.259692
vt 0.081070 0.259685
vt 0.081069 0.259353
vt 0.081116 0.259353
vt 0.081031 0.259664
vt 0.081077 0.259671
vn 0.000000 1.000000 0.000000
vn 0.000000 1.000000 0.000000
vn 0.000000 1.000000 0.000000
vn 0.000000 1.000000 0.000000
vn -0.410960 0.027341 0.911243
vn -0.410960 0.027341 0.911243
vn -0.410960 0.027341 0.911243
vn 0.910040 0.008838 0.414426
vn 0.910040 0.008838 0.414426
vn 0.910040 0.008838 0.414426
vn 0.910040 0.008838 0.414426
vn 0.405208 0.013307 -0.914128
vn 0.405208 0.013307 -0.914128
vn 0.405208 0.013307 -0.914128
vn 0.761564 -0.020802 0.647756
vn 0.761564 -0.020802 0.647756
vn 0.761564 -0.020802 0.647756
vn 0.776673 0.028435 0.629261
vn 0.776673 0.028435 0.629261
vn 0.776673 0.028435 0.629261
vn 0.716060 -0.030875 -0.697356
vn 0.716060 -0.030875 -0.697356
vn 0.716060 -0.030875 -0.697356
vn 0.703619 0.023109 -0.710202
vn 0.703619 0.023109 -0.710202
vn 0.703619 0.023109 -0.710202
vn -0.718943 -0.018102 -0.694833
vn -0.718943 -0.018102 -0.694833
vn -0.718943 -0.018102 -0.694833
vn -0.657415 0.031386 -0.752875
vn -0.657415 0.031386 -0.752875
vn -0.657415 0.031386 -0.752875
vn -0.663977 -0.035265 0.746921
vn -0.663977 -0.035265 0.746921
vn -0.663977 -0.035265 0.746921
vn -0.707676 0.047079 0.704967
vn -0.707676 0.047079 0.704967
vn -0.707676 0.047079 0.704967
vn -0.416911 -0.022144 0.908678
vn -0.416911 -0.022144 0.908678
vn -0.416911 -0.022144 0.908678
vn -0.400362 0.000000 0.916357
vn -0.400362 0.000000 0.916357
vn -0.400362 0.000000 0.916357
vn -0.400362 0.000000 0.916357
vn -0.400363 0.000000 0.916357
vn -0.400363 0.000000 0.916357
vn -0.400363 0.000000 0.916357
vn -0.400363 0.000000 0.916357
vn -0.914491 -0.005657 -0.404567
vn -0.914491 -0.005657 -0.404567
vn -0.914491 -0.005657 -0.404567
vn -0.914491 -0.005657 -0.404567
vn -0.913888 0.007626 -0.405894
vn -0.913888 0.007626 -0.405894
vn -0.913888 0.007626 -0.405894
vn -0.913888 0.007626 -0.405894
vn 0.401792 0.000000 -0.915731
vn 0.401792 0.000000 -0.915731
vn 0.401792 0.000000 -0.915731
vn 0.401792 0.000000 -0.915731
vn 0.409901 -0.006010 -0.912110
vn 0.409901 -0.006010 -0.912110
vn 0.409901 -0.006010 -0.912110
vn 0.409901 -0.006010 -0.912110
vn 0.910485 -0.006933 0.413485
vn 0.910485 -0.006933 0.413485
vn 0.910485 -0.006933 0.413485
vn 0.910485 -0.006933 0.413485
vn 0.000000 1.000000 0.000001
vn 0.000000 1.000000 0.000001
vn 0.000000 1.000000 0.000001
vn 0.000000 1.000000 0.000001
vn 0.409893 0.006974 0.912107
vn 0.409893 0.006974 0.912107
vn 0.409893 0.006974 0.912107
vn 0.409893 0.006974 0.912107
vn 0.408891 -0.005920 0.912564
vn 0.408891 -0.005920 0.912564
vn 0.408891 -0.005920 0.912564
vn 0.408891 -0.005920 0.912564
vn -0.409147 0.008717 -0.912427
vn -0.409147 0.008717 -0.912427
vn -0.409147 0.008717 -0.912427
vn -0.409147 0.008717 -0.912427
vn -0.407739 -0.005482 -0.913082
vn -0.407739 -0.005482 -0.913082
vn -0.407739 -0.005482 -0.913082
vn -0.407739 -0.005482 -0.913082
vn 0.000000 1.000000 -0.000000
vn 0.000000 1.000000 -0.000000
vn 0.000000 1.000000 -0.000000
vn 0.000000 1.000000 -0.000000
vn 0.917589 -0.000002 -0.397530
vn 0.917589 -0.000002 -0.397530
vn 0.917589 -0.000002 -0.397530
vn 0.917589 -0.000002 -0.397530
vn -0.909879 0.027642 0.413953
vn -0.909879 0.027642 0.413953
vn -0.909879 0.027642 0.413953
vn -0.914458 0.000000 0.404680
vn -0.914458 0.000000 0.404680
vn -0.914458 0.000000 0.404680
vn -0.914458 0.000000 0.404680
vn -0.914458 0.000000 0.404681
vn -0.914458 0.000000 0.404681
vn -0.914458 0.000000 0.404681
vn -0.914458 0.000000 0.404681
vn -0.906949 -0.019864 0.420773
vn -0.906949 -0.019864 0.420773
vn -0.906949 -0.019864 0.420773
vn 0.914116 -0.006286 -0.405405
vn 0.914116 -0.006286 -0.405405
vn 0.914116 -0.006286 -0.405405
vn 0.914116 -0.006286 -0.405405
vn 0.915558 0.013079 -0.401975
vn 0.915558 0.013079 -0.401975
vn 0.915558 0.013079 -0.401975
vn 0.000000 1.000000 -0.000000
vn 0.000000 1.000000 -0.000000
vn 0.000000 1.000000 -0.000000
vn 0.000000 1.000000 -0.000000
vn 0.000000 1.000000 0.000000
vn 0.000000 1.000000 0.000000
vn 0.000000 1.000000 0.000000
vn 0.000000 1.000000 0.000000
vn 0.456695 -0.006729 -0.889598
vn 0.456695 -0.006729 -0.889598
vn 0.456695 -0.006729 -0.889598
vn 0.456695 -0.006729 -0.889598
vn -0.213806 0.001159 0.976875
vn -0.213806 0.001159 0.976875
vn -0.213806 0.001159 0.976875
vn -0.213806 0.001159 0.976875
vn 0.923880 0.000000 0.382683
vn 0.923880 0.000000 0.382683
vn 0.923880 0.000000 0.382683
vn 0.923880 0.000000 0.382683
vn -0.950403 -0.006716 -0.310948
vn -0.950403 -0.006716 -0.310948
vn -0.950403 -0.006716 -0.310948
vn -0.950403 -0.006716 -0.310948
vn 0.526055 0.000000 -0.850451
vn 0.526055 0.000000 -0.850451
vn 0.526055 0.000000 -0.850451
vn 0.526055 0.000000 -0.850451
vn -0.306088 -0.007046 0.951977
vn -0.306088 -0.007046 0.951977
vn -0.306088 -0.007046 0.951977
vn -0.306088 -0.007046 0.951977
vn 0.923880 0.000000 0.382683
vn 0.923880 0.000000 0.382683
vn 0.923880 0.000000 0.382683
vn 0.923880 0.000000 0.382683
vn -0.923881 0.000000 -0.382679
vn -0.923881 0.000000 -0.382679
vn -0.923881 0.000000 -0.382679
vn -0.923881 0.000000 -0.382679
vn -0.000001 -1.000000 -0.000000
vn -0.000001 -1.000000 -0.000000
vn -0.000001 -1.000000 -0.000000
vn -0.000001 -1.000000 -0.000000
vn 0.000000 1.000000 0.000000
vn 0.000000 1.000000 0.000000
vn 0.000000 1.000000 0.000000
vn 0.000000 1.000000 0.000000
vn 0.889598 -0.006729 0.456695
vn 0.889598 -0.006729 0.456695
vn 0.889598 -0.006729 0.456695
vn 0.889598 -0.006729 0.456695
vn -0.976875 0.001159 -0.213806
vn -0.976875 0.001159 -0.213806
vn -0.976875 0.001159 -0.213806
vn -0.976875 0.001159 -0.213806
vn -0.382683 0.000000 0.923880
vn -0.382683 0.000000 0.923880
vn -0.382683 0.000000 0.923880
vn -0.382683 0.000000 0.923880
vn 0.310948 -0.006716 -0.950403
vn 0.310948 -0.006716 -0.950403
vn 0.310948 -0.006716 -0.950403
vn 0.310948 -0.006716 -0.950403
vn 0.850451 0.000000 0.526055
vn 0.850451 0.000000 0.526055
vn 0.850451 0.000000 0.526055
vn 0.850451 0.000000 0.526055
vn -0.951977 -0.007046 -0.306088
vn -0.951977 -0.007046 -0.306088
vn -0.951977 -0.007046 -0.306088
vn -0.951977 -0.007046 -0.306088
vn -0.382683 0.000000 0.923880
vn -0.382683 0.000000 0.923880
vn -0.382683 0.000000 0.923880
vn -0.382683 0.000000 0.923880
vn 0.382679 0.000000 -0.923881
vn 0.382679 0.000000 -0.923881
vn 0.382679 0.000000 -0.923881
vn 0.382679 0.000000 -0.923881
vn 0.000000 -1.000000 -0.000001
vn 0.000000 -1.000000 -0.000001
vn 0.000000 -1.000000 -0.000001
vn 0.000000 -1.000000 -0.000001
vn 0.000000 1.000000 0.000000
vn 0.000000 1.000000 0.000000
vn 0.000000 1.000000 0.000000
vn 0.000000 1.000000 0.000000
vn -0.456695 -0.006729 0.889598
vn -0.456695 -0.006729 0.889598
vn -0.456695 -0.006729 0.889598
vn -0.456695 -0.006729 0.889598
vn 0.213806 0.001159 -0.976875
vn 0.213806 0.001159 -0.976875
vn 0.213806 0.001159 -0.976875
vn 0.213806 0.001159 -0.976875
vn -0.923880 0.000000 -0.382683
vn -0.923880 0.000000 -0.382683
vn -0.923880 0.000000 -0.382683
vn -0.923880 0.000000 -0.382683
vn 0.950403 -0.006716 0.310948
vn 0.950403 -0.006716 0.310948
vn 0.950403 -0.006716 0.310948
vn 0.950403 -0.006716 0.310948
vn -0.526055 0.000000 0.850451
vn -0.526055 0.000000 0.850451
vn -0.526055 0.000000 0.850451
vn -0.526055 0.000000 0.850451
vn 0.306088 -0.007046 -0.951977
vn 0.306088 -0.007046 -0.951977
vn 0.306088 -0.007046 -0.951977
vn 0.306088 -0.007046 -0.951977
vn -0.923880 0.000000 -0.382683
vn -0.923880 0.000000 -0.382683
vn -0.923880 0.000000 -0.382683
vn -0.923880 0.000000 -0.382683
vn 0.923881 0.000000 0.382679
vn 0.923881 0.000000 0.382679
vn 0.923881 0.000000 0.382679
vn 0.923881 0.000000 0.382679
vn 0.000001 -1.000000 0.000000
vn 0.000001 -1.000000 0.000000
vn 0.000001 -1.000000 0.000000
vn 0.000001 -1.000000 0.000000
vn 0.000000 1.000000 0.000000
vn 0.000000 1.000000 0.000000
vn 0.000000 1.000000 0.000000
vn 0.000000 1.000000 0.000000
vn -0.889598 -0.006729 -0.456695
vn -0.889598 -0.006729 -0.456695
vn -0.889598 -0.006729 -0.456695
vn -0.889598 -0.006729 -0.456695
vn 0.976875 0.001159 0.213806
vn 0.976875 0.001159 0.213806
vn 0.976875 0.001159 0.213806
vn 0.976875 0.001159 0.213806
vn 0.382683 0.000000 -0.923880
vn 0.382683 0.000000 -0.923880
vn 0.382683 0.000000 -0.923880
vn 0.382683 0.000000 -0.923880
vn -0.310948 -0.006716 0.950403
vn -0.310948 -0.006716 0.950403
vn -0.310948 -0.006716 0.950403
vn -0.310948 -0.006716 0.950403
vn -0.850451 0.000000 -0.526055
vn -0.850451 0.000000 -0.526055
vn -0.850451 0.000000 -0.526055
vn -0.850451 0.000000 -0.526055
vn 0.951977 -0.007046 0.306088
vn 0.951977 -0.007046 0.306088
vn 0.951977 -0.007046 0.306088
vn 0.951977 -0.007046 0.306088
vn 0.382683 0.000000 -0.923880
vn 0.382683 0.000000 -0.923880
vn 0.382683 0.000000 -0.923880
vn 0.382683 0.000000 -0.923880
vn -0.382679 0.000000 0.923881
vn -0.382679 0.000000 0.923881
vn -0.382679 0.000000 0.923881
vn -0.382679 0.000000 0.923881
vn -0.000000 -1.000000 0.000001
vn -0.000000 -1.000000 0.000001
vn -0.000000 -1.000000 0.000001
vn -0.000000 -1.000000 0.000001
s off
f 5/1/1 22/22/2 32/32/3 29/29/4
f 16/5/5 24/24/6 18/7/7
f 2/8/8 26/26/9 31/31/10 9/11/11
f 11/10/12 25/25/13 13/13/14
f 6/2/15 10/6/16 9/11/17
f 9/11/18 10/6/19 2/8/20
f 7/3/21 12/16/22 13/13/23
f 13/13/24 12/16/25 11/10/26
f 8/4/27 14/12/28 15/14/29
f 15/14/30 14/12/31 4/17/32
f 17/18/33 19/15/34 18/7/35
f 18/7/36 19/15/37 16/5/38
f 18/7/39 24/24/40 17/18/41
f 1/19/42 20/20/43 24/24/44 16/5/45
f 17/18/46 24/24/47 22/22/48 5/1/49
f 15/14/50 30/30/51 29/29/52 8/4/53
f 4/17/54 27/27/55 30/30/56 15/14/57
f 3/9/58 21/21/59 25/25/60 11/10/61
f 13/13/62 25/25/63 23/23/64 7/3/65
f 9/11/66 31/31/67 28/28/68 6/2/69
f 23/23/70 32/32/71 28/28/72 7/3/73
f 24/24/74 20/20/75 2/8/76 10/6/77
f 22/22/78 24/24/79 10/6/80 6/2/81
f 25/25/82 21/21/83 4/17/84 14/12/85
f 23/23/86 25/25/87 14/12/88 8/4/89
f 29/29/90 32/32/91 23/23/92 8/4/93
f 31/31/94 26/26/95 3/9/96 11/10/97
f 30/30/98 16/5/99 19/15/100
f 29/29/101 30/30/102 17/18/103 5/1/104
f 30/30/105 27/27/106 1/19/107 16/5/108
f 30/30/109 19/15/110 17/18/111
f 28/28/112 31/31/113 12/16/114 7/3/115
f 31/31/116 11/10/117 12/16/118
f 28/28/119 32/32/120 22/22/121 6/2/122
f 33/33/123 34/34/124 36/35/125 35/36/126
f 35/36/127 36/35/128 42/37/129 41/38/130
f 37/39/131 38/40/132 44/41/133 43/42/134
f 38/40/135 40/43/136 42/37/137 44/41/138
f 39/44/139 37/39/140 43/42/141 41/38/142
f 41/38/143 42/37/144 40/43/145 39/44/146
f 43/42/147 44/41/148 34/34/149 33/33/150
f 44/41/151 42/37/152 36/35/153 34/34/154
f 41/38/155 43/42/156 33/33/157 35/36/158
f 37/39/159 39/44/160 40/43/161 38/40/162
f 45/45/163 46/46/164 48/47/165 47/48/166
f 47/48/167 48/47/168 54/49/169 53/50/170
f 49/51/171 50/52/172 56/53/173 55/54/174
f 50/52/175 52/55/176 54/49/177 56/53/178
f 51/56/179 49/51/180 55/54/181 53/50/182
f 53/50/183 54/49/184 52/55/185 51/56/186
f 55/54/187 56/53/188 46/46/189 45/45/190
f 56/53/191 54/49/192 48/47/193 46/46/194
f 53/50/195 55/54/196 45/45/197 47/48/198
f 49/51/199 51/56/200 52/55/201 50/52/202
f 57/57/203 58/58/204 60/59/205 59/60/206
f 59/60/207 60/59/208 66/61/209 65/62/210
f 61/63/211 62/64/212 68/65/213 67/66/214
f 62/64/215 64/67/216 66/61/217 68/65/218
f 63/68/219 61/63/220 67/66/221 65/62/222
f 65/62/223 66/61/224 64/67/225 63/68/226
f 67/66/227 68/65/228 58/58/229 57/57/230
f 68/65/231 66/61/232 60/59/233 58/58/234
f 65/62/235 67/66/236 57/57/237 59/60/238
f 61/63/239 63/68/240 64/67/241 62/64/242
f 69/69/243 70/70/244 72/71/245 71/72/246
f 71/72/247 72/71/248 78/73/249 77/74/250
f 73/75/251 74/76/252 80/77/253 79/78/254
f 74/76/255 76/79/256 78/73/257 80/77/258
f 75/80/259 73/75/260 79/78/261 77/74/262
f 77/74/263 78/73/264 76/79/265 75/80/266
f 79/78/267 80/77/268 70/70/269 69/69/270
f 80/77/271 78/73/272 72/71/273 70/70/274
f 77/74/275 79/78/276 69/69/277 71/72/278
f 73/75/279 75/80/280 76/79/281 74/76/282
