# This file uses centimeters as units for non-parametric coordinates.

v 39.956665 0.000000 -102.377136
v 50.000000 0.000000 -102.377136
v 39.956665 71.106873 -112.420471
v 50.000000 71.106873 -112.420471
v 39.956665 0.000000 -112.420471
v 47.170410 0.000000 -112.420471
v 50.000000 6.477221 -112.420471
v 50.000000 66.153534 -112.420471
v 50.000000 41.276043 -112.420471
v 46.473511 52.251240 -112.420471
v 50.000000 52.180241 -110.390930
v 39.956665 71.106873 -102.377136
v 50.000000 71.106873 -102.377136
v -39.956665 0.000000 -102.377136
v -50.000000 0.000000 -102.377136
v -50.000000 71.106873 -102.377136
v -39.956665 71.106873 -112.420471
v -39.956665 0.000000 -112.420471
v -50.000000 0.000000 -112.420471
v -39.956665 17.735796 -102.377136
v -39.956665 17.735798 -112.420471
v -48.237671 17.636070 -110.925964
v -50.000000 17.735796 -102.377136
v -39.956665 32.405586 -112.420471
v -39.956665 32.405582 -102.377136
v -50.000000 32.405582 -102.377136
v -50.000000 32.405586 -112.420471
v -39.956665 6.927921 -102.377136
v -39.956665 6.927922 -112.420471
v -50.000000 6.927922 -112.420471
v -50.000000 6.927921 -102.377136
v -46.484863 71.106873 -112.420471
v -50.000000 71.106873 -108.905334
v -50.000000 46.338184 -112.420471
v -39.956665 71.106873 -102.377136
v 39.956665 0.000000 110.184875
v 50.000000 0.000000 110.184875
v 50.000000 71.066765 100.141541
v 39.956665 0.000000 100.141541
v 50.000000 0.000000 100.141541
v 50.000000 5.465693 110.184875
v 50.000000 32.063736 110.184875
v 47.384399 11.984905 110.184875
v 50.000000 12.556822 107.507324
v 47.489136 71.066765 110.184875
v 50.000000 71.066765 107.674072
v 50.000000 66.233978 110.184875
v 39.956665 71.066757 110.184875
v 39.956665 71.066765 100.141541
v -40.119507 51.112740 -103.401672
v -40.119507 71.106873 -103.401672
v 40.119507 51.112740 -103.401672
v 40.119507 71.106873 -103.401672
v 40.119507 51.112740 -110.720886
v 40.119507 71.106873 -110.720886
v -40.119507 51.112740 -110.720886
v -40.119507 71.106873 -110.720886
v 48.811890 51.112740 100.141541
v 48.811890 71.106873 100.141541
v 48.811890 51.112740 -102.396484
v 48.811890 71.106873 -102.396484
v 41.492676 51.112740 -102.396484
v 41.492676 71.106873 -102.396484
v 41.492676 51.112740 100.141541
v 41.492676 71.106873 100.141541
v -41.521973 51.806496 100.141541
v -41.521973 71.106873 100.141541
v -41.521973 51.806496 -102.396484
v -41.521973 71.106873 -102.396484
v -48.841187 51.806496 -102.396484
v -48.841187 71.106873 -102.396484
v -48.841187 51.806496 100.141541
v -48.841187 71.106873 100.141541
v -39.956665 0.000000 110.184875
v -50.000000 0.000000 110.184875
v -39.956665 71.106873 110.184875
v -50.000000 71.106873 110.184875
v -39.956665 71.106873 100.141541
v -50.000000 71.106873 100.141541
v -39.956665 0.000000 100.141541
v -50.000000 0.000000 100.141541
v -50.000000 25.307056 110.184875
v -50.000000 41.762779 110.184875
v -46.684326 33.851887 110.184875
v -50.000000 34.880455 106.232239
v -40.119507 51.112740 108.807739
v -40.119507 71.106873 108.807739
v 40.119507 51.112740 108.807739
v 40.119507 71.106873 108.807739
v 40.119507 51.112740 101.488525
v 40.119507 71.106873 101.488525
v -40.119507 51.112740 101.488525
v -40.119507 71.106873 101.488525
v 53.420883 71.106880 113.174683
v 53.420883 71.106880 -115.481873
v 53.420883 78.588768 -115.481873
v -53.393677 78.588768 113.174683
v -53.393677 71.106888 113.174683
v 53.420883 78.588768 102.391907
v 53.420883 74.726929 113.174683
v 41.420883 78.588768 113.174683
v -53.393677 71.106880 -113.482117
v -51.393921 71.106880 -115.481873
v -53.393677 74.848198 -113.482117
v -53.393677 78.588768 -109.929749
v -51.393921 74.848198 -115.481873
v -47.841553 78.588768 -115.481873
v -53.393677 78.588768 -8.049866
v -53.393677 78.588768 32.750854
v -49.703369 78.588768 16.046082
v -53.393677 75.583298 16.318420
v -41.521969 63.787678 71.238144
v -48.841187 63.787678 71.238159
v -48.841187 71.106873 71.238159
v -41.521969 71.106873 71.238144
v -48.841187 63.787678 -77.255920
v -41.521973 63.787678 -77.255928
v -41.521973 71.106873 -77.255928
v -48.841187 71.106873 -77.255920
vt 0.446481 0.024506
vt 0.446415 0.024469
vt 0.446503 0.024474
vt 0.446393 0.023553
vt 0.446429 0.023685
vt 0.446379 0.023684
vt 0.446390 0.024501
vt 0.446414 0.024409
vt 0.446398 0.023787
vt 0.446392 0.023509
vt 0.446488 0.023509
vt 0.446364 0.023555
vt 0.446464 0.023555
vt 0.446480 0.024334
vt 0.446385 0.024330
vt 0.446386 0.024188
vt 0.446483 0.024192
vt 0.446498 0.023508
vt 0.446454 0.023509
vt 0.446498 0.023840
vt 0.446492 0.024171
vt 0.446400 0.024167
vt 0.446398 0.024303
vt 0.446490 0.024308
vt 0.446397 0.024468
vt 0.446384 0.024501
vt 0.446478 0.024506
vt 0.446487 0.024474
vt 0.446385 0.024434
vt 0.446398 0.024404
vt 0.446488 0.024409
vt 0.446479 0.024439
vt 0.446493 0.023506
vt 0.446389 0.023848
vt 0.446405 0.023509
vt 0.446239 0.023724
vt 0.446264 0.023525
vt 0.446328 0.023548
vt 0.446503 0.024432
vt 0.446327 0.024419
vt 0.446269 0.024493
vt 0.446451 0.024506
vt 0.446425 0.023579
vt 0.446481 0.023540
vt 0.446276 0.024246
vt 0.446310 0.024274
vt 0.446265 0.024392
vt 0.446247 0.023903
vt 0.446295 0.023506
vt 0.446467 0.024506
vt 0.445508 0.024472
vt 0.445503 0.024232
vt 0.446469 0.024262
vt 0.445566 0.024425
vt 0.445563 0.024190
vt 0.446501 0.024457
vt 0.446503 0.024219
vt 0.445520 0.024488
vt 0.445503 0.024026
vt 0.446088 0.023670
vt 0.446099 0.024081
vt 0.446495 0.023682
vt 0.446503 0.024095
vt 0.445961 0.024042
vt 0.445975 0.024506
vt 0.445689 0.024484
vt 0.445692 0.023938
vt 0.446011 0.023506
vt 0.446006 0.023990
vt 0.446503 0.023522
vt 0.446496 0.024007
vt 0.446250 0.023958
vt 0.446243 0.024506
vt 0.446281 0.024493
vt 0.446282 0.023546
vt 0.446480 0.023553
vt 0.446477 0.023734
vt 0.446411 0.023876
vt 0.446474 0.024037
vt 0.446469 0.024506
vt 0.446314 0.023506
vt 0.446503 0.023513
vt 0.446311 0.024417
vt 0.446492 0.024430
vt 0.446486 0.023843
vt 0.446467 0.024506
vt 0.445508 0.024472
vt 0.445503 0.024232
vt 0.446469 0.024262
vt 0.445566 0.024425
vt 0.445563 0.024190
vt 0.446501 0.024457
vt 0.446503 0.024219
vt 0.445723 0.022372
vt 0.445741 0.022031
vt 0.445759 0.021726
vt 0.445776 0.021435
vt 0.445761 0.021742
vt 0.446494 0.021613
vt 0.446473 0.022096
vt 0.446170 0.021763
vt 0.446345 0.021466
vt 0.445827 0.021415
vt 0.446259 0.021435
vt 0.445777 0.021718
vt 0.445759 0.022023
vt 0.446442 0.022412
vt 0.446484 0.021446
vt 0.446427 0.022058
vt 0.446340 0.021686
vt 0.446431 0.021442
vt 0.445682 0.037883
vt 0.445710 0.037879
vt 0.445703 0.037857
vt 0.445706 0.037657
vt 0.445701 0.037706
vt 0.445715 0.037706
vt 0.445705 0.037742
vt 0.446002 0.037669
vt 0.445997 0.037667
vt 0.446004 0.037763
vt 0.445071 0.037992
vt 0.445067 0.037999
vt 0.445062 0.038026
vt 0.445054 0.037907
vt 0.445367 0.037943
vt 0.445384 0.037975
vt 0.445356 0.037982
vt 0.445369 0.038031
vt 0.445326 0.037738
vt 0.445283 0.037753
vt 0.445328 0.037725
vt 0.446023 0.037654
vt 0.446020 0.037653
vt 0.446020 0.037667
vt 0.446022 0.037669
vt 0.446017 0.037641
vt 0.446009 0.037638
vt 0.445780 0.037678
vt 0.445710 0.037703
vt 0.445697 0.037687
vt 0.445660 0.037697
vt 0.445850 0.035109
vt 0.445535 0.034137
vt 0.446289 0.034109
vt 0.445734 0.024413
vt 0.446279 0.024435
vt 0.446286 0.023896
vt 0.445737 0.023877
vt 0.446464 0.024069
vt 0.445967 0.024051
vt 0.445971 0.023560
vt 0.446472 0.023576
vn 0.000000 0.000000 1.000000
vn 0.000000 0.000000 1.000000
vn 0.000000 0.000000 1.000000
vn 0.000000 0.000000 1.000000
vn 0.000000 1.000000 0.000000
vn 0.000000 1.000000 0.000000
vn 0.000000 1.000000 0.000000
vn 0.000000 1.000000 0.000000
vn 0.000000 0.000000 -1.000000
vn 0.000000 0.000000 -1.000000
vn 0.000000 0.000000 -1.000000
vn 0.000000 -1.000000 0.000000
vn 0.000000 -1.000000 0.000000
vn 0.000000 -1.000000 0.000000
vn 0.000000 -1.000000 0.000000
vn 1.000000 0.000000 0.000000
vn 1.000000 0.000000 0.000000
vn 1.000000 0.000000 0.000000
vn 1.000000 0.000000 0.000000
vn -1.000000 0.000000 0.000000
vn -1.000000 0.000000 0.000000
vn -1.000000 0.000000 0.000000
vn -1.000000 0.000000 0.000000
vn 0.887279 -0.387614 -0.249982
vn 0.887279 -0.387614 -0.249982
vn 0.887279 -0.387614 -0.249982
vn 0.000000 0.000000 -1.000000
vn 0.000000 0.000000 -1.000000
vn 0.000000 0.000000 -1.000000
vn 0.493002 -0.125056 -0.860994
vn 0.493002 -0.125056 -0.860994
vn 0.493002 -0.125056 -0.860994
vn 0.494867 0.159007 -0.854297
vn 0.494867 0.159007 -0.854297
vn 0.494867 0.159007 -0.854297
vn 0.000000 0.000000 1.000000
vn 0.000000 0.000000 1.000000
vn 0.000000 0.000000 1.000000
vn 0.000000 0.000000 1.000000
vn -0.703573 0.099851 -0.703573
vn -0.703573 0.099851 -0.703573
vn -0.703573 0.099851 -0.703573
vn -0.080864 -0.055362 -0.995186
vn -0.080864 -0.055362 -0.995186
vn -0.080864 -0.055362 -0.995186
vn -0.080864 -0.055362 -0.995186
vn 0.000000 -1.000000 0.000000
vn 0.000000 -1.000000 0.000000
vn 0.000000 -1.000000 0.000000
vn 0.000000 -1.000000 0.000000
vn -0.993514 -0.064238 -0.093828
vn -0.993514 -0.064238 -0.093828
vn -0.993514 -0.064238 -0.093828
vn -0.993514 -0.064238 -0.093828
vn 1.000000 0.000000 0.000000
vn 1.000000 0.000000 0.000000
vn 1.000000 0.000000 0.000000
vn 1.000000 0.000000 0.000000
vn 1.000000 0.000000 0.000000
vn 1.000000 0.000000 0.000000
vn 1.000000 0.000000 0.000000
vn 1.000000 0.000000 0.000000
vn -0.081464 0.075702 -0.993797
vn -0.081464 0.075702 -0.993797
vn -0.081464 0.075702 -0.993797
vn -0.081464 0.075702 -0.993797
vn -0.991650 0.087785 -0.094467
vn -0.991650 0.087785 -0.094467
vn -0.991650 0.087785 -0.094467
vn -0.991650 0.087785 -0.094467
vn 0.000000 0.000000 1.000000
vn 0.000000 0.000000 1.000000
vn 0.000000 0.000000 1.000000
vn 0.000000 0.000000 1.000000
vn 0.000000 1.000000 -0.000000
vn 0.000000 1.000000 -0.000000
vn 0.000000 1.000000 -0.000000
vn 0.000000 1.000000 -0.000000
vn 0.000000 1.000000 -0.000000
vn 1.000000 0.000000 0.000000
vn 1.000000 0.000000 0.000000
vn 1.000000 0.000000 0.000000
vn 1.000000 0.000000 0.000000
vn 0.000000 0.000000 -1.000000
vn 0.000000 0.000000 -1.000000
vn 0.000000 0.000000 -1.000000
vn 0.000000 0.000000 -1.000000
vn -1.000000 0.000000 0.000000
vn -1.000000 0.000000 0.000000
vn -1.000000 0.000000 0.000000
vn -1.000000 0.000000 0.000000
vn 0.000000 0.000000 1.000000
vn 0.000000 0.000000 1.000000
vn 0.000000 0.000000 1.000000
vn 0.000000 0.000000 1.000000
vn -0.000000 0.000000 -1.000000
vn -0.000000 0.000000 -1.000000
vn -0.000000 0.000000 -1.000000
vn -1.000000 0.000000 0.000000
vn -1.000000 0.000000 0.000000
vn -1.000000 0.000000 0.000000
vn 1.000000 0.000000 0.000000
vn 1.000000 0.000000 0.000000
vn 1.000000 0.000000 0.000000
vn 1.000000 0.000000 0.000000
vn 0.000000 0.000000 1.000000
vn 0.000000 0.000000 1.000000
vn 0.000000 0.000000 1.000000
vn 0.000000 0.000000 1.000000
vn 0.663735 0.344840 0.663733
vn 0.663735 0.344840 0.663733
vn 0.663735 0.344840 0.663733
vn 0.000000 -1.000000 0.000000
vn 0.000000 -1.000000 0.000000
vn 0.000000 -1.000000 0.000000
vn 0.000000 -1.000000 0.000000
vn -1.000000 0.000000 0.000000
vn -1.000000 0.000000 0.000000
vn -1.000000 0.000000 0.000000
vn -1.000000 0.000000 0.000000
vn 0.660816 0.265133 0.702158
vn 0.660816 0.265133 0.702158
vn 0.660816 0.265133 0.702158
vn 0.722130 -0.094071 0.685331
vn 0.722130 -0.094071 0.685331
vn 0.722130 -0.094071 0.685331
vn 1.000000 0.000000 0.000000
vn 1.000000 0.000000 0.000000
vn 1.000000 0.000000 0.000000
vn -0.000000 1.000000 0.000000
vn -0.000000 1.000000 0.000000
vn -0.000000 1.000000 0.000000
vn -0.000000 1.000000 0.000000
vn -0.000000 1.000000 0.000000
vn 0.000000 0.000000 1.000000
vn 0.000000 0.000000 1.000000
vn 0.000000 0.000000 1.000000
vn 0.000000 0.000000 1.000000
vn 0.000000 0.000000 1.000000
vn 0.000000 0.000000 -1.000000
vn 0.000000 0.000000 -1.000000
vn 0.000000 0.000000 -1.000000
vn 0.000000 0.000000 -1.000000
vn 0.000000 0.000000 1.000000
vn 0.000000 0.000000 1.000000
vn 0.000000 0.000000 1.000000
vn 0.000000 0.000000 1.000000
vn 1.000000 0.000001 0.000000
vn 1.000000 0.000001 0.000000
vn 1.000000 0.000001 0.000000
vn 1.000000 0.000001 0.000000
vn 0.000000 0.000000 -1.000000
vn 0.000000 0.000000 -1.000000
vn 0.000000 0.000000 -1.000000
vn 0.000000 0.000000 -1.000000
vn -1.000000 -0.000001 0.000000
vn -1.000000 -0.000001 0.000000
vn -1.000000 -0.000001 0.000000
vn -1.000000 -0.000001 0.000000
vn 0.000000 1.000000 0.000000
vn 0.000000 1.000000 0.000000
vn 0.000000 1.000000 0.000000
vn 0.000000 1.000000 0.000000
vn 0.000000 -1.000000 0.000000
vn 0.000000 -1.000000 0.000000
vn 0.000000 -1.000000 0.000000
vn 0.000000 -1.000000 0.000000
vn 1.000000 0.000000 0.000000
vn 1.000000 0.000000 0.000000
vn 1.000000 0.000000 0.000000
vn 1.000000 0.000000 0.000000
vn 0.000000 0.000000 -1.000000
vn 0.000000 0.000000 -1.000000
vn 0.000000 0.000000 -1.000000
vn 0.000000 0.000000 -1.000000
vn -1.000000 -0.000000 -0.000000
vn -1.000000 -0.000000 -0.000000
vn -1.000000 -0.000000 -0.000000
vn -1.000000 -0.000000 -0.000000
vn -0.000000 -0.000000 1.000000
vn -0.000000 -0.000000 1.000000
vn -0.000000 -0.000000 1.000000
vn -0.000000 -0.000000 1.000000
vn -0.000000 1.000000 -0.000000
vn -0.000000 1.000000 -0.000000
vn -0.000000 1.000000 -0.000000
vn -0.000000 1.000000 -0.000000
vn 0.000000 -1.000000 0.000000
vn 0.000000 -1.000000 0.000000
vn 0.000000 -1.000000 0.000000
vn 0.000000 -1.000000 0.000000
vn 1.000000 0.000000 0.000000
vn 1.000000 0.000000 0.000000
vn 1.000000 0.000000 -0.000000
vn 1.000000 0.000000 -0.000000
vn 0.000000 0.000000 -1.000000
vn 0.000000 0.000000 -1.000000
vn 0.000000 0.000000 -1.000000
vn 0.000000 0.000000 -1.000000
vn -1.000000 0.000000 0.000000
vn -1.000000 0.000000 0.000000
vn -1.000000 0.000000 0.000000
vn -1.000000 0.000000 0.000000
vn -0.000000 -0.000000 1.000000
vn -0.000000 -0.000000 1.000000
vn -0.000000 -0.000000 1.000000
vn -0.000000 -0.000000 1.000000
vn 0.000000 1.000000 0.000000
vn 0.000000 1.000000 0.000000
vn 0.000000 1.000000 0.000000
vn 0.000000 1.000000 0.000000
vn 0.000000 -0.997727 -0.067385
vn 0.000000 -0.997727 -0.067385
vn 0.000000 -0.997628 0.068838
vn 0.000000 -0.997628 0.068839
vn 0.000000 0.000000 1.000000
vn 0.000000 0.000000 1.000000
vn 0.000000 0.000000 1.000000
vn 0.000000 1.000000 0.000000
vn 0.000000 1.000000 0.000000
vn 0.000000 1.000000 0.000000
vn 0.000000 1.000000 0.000000
vn 0.000000 0.000000 -1.000000
vn 0.000000 0.000000 -1.000000
vn 0.000000 0.000000 -1.000000
vn 0.000000 0.000000 -1.000000
vn 0.000000 -1.000000 0.000000
vn 0.000000 -1.000000 0.000000
vn 0.000000 -1.000000 0.000000
vn 0.000000 -1.000000 0.000000
vn -1.000000 0.000000 0.000000
vn -1.000000 0.000000 0.000000
vn -1.000000 0.000000 0.000000
vn -1.000000 0.000000 0.000000
vn 1.000000 0.000000 0.000000
vn 1.000000 0.000000 0.000000
vn 1.000000 0.000000 0.000000
vn 1.000000 0.000000 0.000000
vn -0.765111 -0.320678 0.558364
vn -0.765111 -0.320678 0.558364
vn -0.765111 -0.320678 0.558364
vn -0.701201 0.272088 0.659004
vn -0.701201 0.272088 0.659004
vn -0.701201 0.272088 0.659004
vn 0.000000 0.000000 1.000000
vn 0.000000 0.000000 1.000000
vn 0.000000 0.000000 1.000000
vn 0.000000 0.000000 1.000000
vn 1.000000 0.000001 0.000000
vn 1.000000 0.000001 0.000000
vn 1.000000 0.000001 0.000000
vn 1.000000 0.000001 0.000000
vn 0.000000 0.000000 -1.000000
vn 0.000000 0.000000 -1.000000
vn 0.000000 0.000000 -1.000000
vn 0.000000 0.000000 -1.000000
vn -1.000000 -0.000001 0.000000
vn -1.000000 -0.000001 0.000000
vn -1.000000 -0.000001 0.000000
vn -1.000000 -0.000001 0.000000
vn 0.000000 1.000000 0.000000
vn 0.000000 1.000000 0.000000
vn 0.000000 1.000000 0.000000
vn 0.000000 1.000000 0.000000
vn 0.000000 -1.000000 0.000000
vn 0.000000 -1.000000 0.000000
vn 0.000000 -1.000000 0.000000
vn 0.000000 -1.000000 0.000000
vn -0.000000 0.000000 -1.000000
vn -0.000000 0.000000 -1.000000
vn -0.000000 0.000000 -1.000000
vn -0.000000 0.000000 -1.000000
vn -0.000000 0.000000 -1.000000
vn 0.289958 0.900997 0.322691
vn 0.289958 0.900997 0.322691
vn 0.289958 0.900997 0.322691
vn -0.000000 1.000000 0.000000
vn -0.000000 1.000000 0.000000
vn -0.000000 1.000000 0.000000
vn -0.000000 1.000000 0.000000
vn -0.707107 0.000000 -0.707107
vn -0.707107 0.000000 -0.707107
vn -0.707107 0.000000 -0.707107
vn -0.707107 0.000000 -0.707107
vn -0.587028 0.557491 -0.587028
vn -0.587028 0.557491 -0.587028
vn -0.587028 0.557491 -0.587028
vn -0.587028 0.557491 -0.587028
vn 0.000000 0.000000 1.000000
vn 0.000000 0.000000 1.000000
vn 0.000000 0.000000 1.000000
vn 0.000000 0.000000 1.000000
vn 0.000000 0.000000 1.000000
vn -1.000000 0.000000 -0.000000
vn -1.000000 0.000000 -0.000000
vn -1.000000 0.000000 -0.000000
vn -1.000000 0.000000 -0.000000
vn 1.000000 0.000000 -0.000000
vn 1.000000 0.000000 -0.000000
vn 1.000000 0.000000 -0.000000
vn 1.000000 0.000000 -0.000000
vn 1.000000 0.000000 -0.000000
vn -0.624337 0.775281 0.095619
vn -0.624337 0.775281 0.095619
vn -0.624337 0.775281 0.095619
vn -0.631477 0.762742 -0.139505
vn -0.631477 0.762742 -0.139505
vn -0.631477 0.762742 -0.139505
vn -0.000000 1.000000 -0.000000
vn -0.000000 1.000000 -0.000000
vn -0.000000 1.000000 -0.000000
vn -0.000000 1.000000 -0.000000
vn 0.000000 1.000000 -0.000000
vn 0.000000 1.000000 -0.000000
vn 0.000000 1.000000 -0.000000
vn 0.000000 1.000000 -0.000000
vn 0.000000 1.000000 0.000000
vn 0.000000 1.000000 0.000000
vn 0.000000 1.000000 0.000000
vn -1.000000 0.000000 0.000000
vn -1.000000 0.000000 0.000000
vn -1.000000 0.000000 0.000000
vn -1.000000 0.000000 0.000000
vn -1.000000 0.000000 0.000000
vn -1.000000 0.000000 0.000000
vn -1.000000 0.000000 0.000000
vn -1.000000 0.000000 0.000000
vn -0.000000 -1.000000 0.000000
vn -0.000000 -1.000000 0.000000
vn -0.000000 -1.000000 0.000000
vn -0.000000 -1.000000 0.000000
vn -0.000000 -1.000000 0.000000
vn 0.000000 0.000000 -1.000000
vn 0.000000 0.000000 -1.000000
vn 0.000000 0.000000 -1.000000
vn 0.000000 0.000000 -1.000000
vn 0.000000 0.000000 -1.000000
vn 0.000000 0.000000 -1.000000
vn 0.000000 0.000000 -1.000000
vn 0.000000 0.000000 -1.000000
vn 1.000000 0.000000 0.000000
vn 1.000000 0.000000 0.000000
vn 1.000000 0.000000 0.000000
vn 1.000000 0.000000 0.000000
vn 1.000000 0.000000 0.000000
vn 1.000000 0.000000 0.000000
vn 1.000000 0.000000 0.000000
vn 1.000000 0.000000 0.000000
vn 1.000000 0.000000 0.000000
vn 1.000000 0.000000 0.000000
vn 1.000000 0.000000 0.000000
vn 1.000000 0.000000 0.000000
vn 1.000000 0.000000 0.000000
vn 1.000000 0.000000 0.000000
vn 1.000000 0.000000 0.000000
vn 1.000000 0.000000 0.000000
vn 1.000000 0.000000 0.000000
vn 1.000000 0.000000 0.000000
vn 0.000000 0.000000 1.000000
vn 0.000000 0.000000 1.000000
vn 0.000000 0.000000 1.000000
vn 0.000000 0.000000 1.000000
vn 0.000000 0.000000 1.000000
vn 0.000000 0.000000 1.000000
vn 0.000000 0.000000 1.000000
vn 0.000000 0.000000 1.000000
vn 0.000000 0.000000 1.000000
vn 0.000000 0.000000 1.000000
vn 0.000000 0.000000 1.000000
vn 0.000000 0.000000 1.000000
vn 0.000000 0.000000 1.000000
vn 0.000000 0.000000 1.000000
vn 0.000000 0.000000 1.000000
vn -1.000000 0.000000 0.000000
vn -1.000000 0.000000 0.000000
vn -1.000000 0.000000 0.000000
vn -1.000000 0.000000 0.000000
vn -1.000000 0.000000 0.000000
vn -1.000000 0.000000 0.000000
vn -1.000000 0.000000 0.000000
vn -1.000000 0.000000 0.000000
vn -1.000000 0.000000 0.000000
vn -1.000000 0.000000 0.000000
vn -1.000000 0.000000 0.000000
vn -0.000000 0.000000 -1.000000
vn -0.000000 0.000000 -1.000000
vn -0.000000 0.000000 -1.000000
vn -0.000000 0.000000 -1.000000
vn 0.000000 -1.000000 0.000000
vn 0.000000 -0.997727 -0.067385
vn 0.000000 -0.997727 -0.067385
vn 0.000000 -1.000000 0.000000
vn -1.000000 0.000000 0.000000
vn -1.000000 0.000000 0.000000
vn -1.000000 -0.000000 -0.000000
vn -1.000000 -0.000000 -0.000000
vn -0.000000 1.000000 -0.000000
vn 0.000000 1.000000 0.000000
vn 0.000000 1.000000 0.000000
vn -0.000000 1.000000 -0.000000
vn 1.000000 0.000000 0.000000
vn 1.000000 0.000000 0.000000
vn 1.000000 0.000000 0.000000
vn 1.000000 0.000000 0.000000
vn 0.000000 -0.997628 0.068839
vn 0.000000 -0.997628 0.068838
vn 0.000000 -1.000000 0.000000
vn 0.000000 -1.000000 0.000000
vn 1.000000 0.000000 -0.000000
vn 1.000000 0.000000 -0.000000
vn 1.000000 0.000000 0.000000
vn 1.000000 0.000000 0.000000
vn 0.000000 1.000000 0.000000
vn 0.000000 1.000000 0.000000
vn -0.000000 1.000000 -0.000000
vn -0.000000 1.000000 -0.000000
vn -1.000000 -0.000000 -0.000000
vn -1.000000 0.000000 0.000000
vn -1.000000 0.000000 0.000000
vn -1.000000 -0.000000 -0.000000
s off
f 1/1/1 2/7/2 13/12/3 12/13/4
f 13/12/5 4/10/6 3/11/7 12/13/8
f 3/11/9 10/5/10 5/3/11
f 5/3/12 6/2/13 2/7/14 1/1/15
f 13/12/16 11/6/17 8/4/18 4/10/19
f 5/3/20 1/1/21 12/13/22 3/11/23
f 2/112/24 6/113/25 7/114/26
f 5/3/27 7/8/28 6/2/29
f 8/115/30 11/116/31 10/117/32
f 10/117/33 11/116/34 9/118/35
f 23/14/36 20/15/37 25/16/38 26/17/39
f 33/119/40 32/120/41 34/121/42
f 27/21/43 24/22/44 21/23/45 22/24/46
f 18/25/47 14/26/48 15/27/49 19/28/50
f 22/24/51 23/14/52 26/17/53 27/21/54
f 20/15/55 21/23/56 24/22/57 25/16/58
f 28/29/59 29/30/60 21/23/61 20/15/62
f 22/24/63 21/23/64 29/30/65 30/31/66
f 30/31/67 31/32/68 23/14/69 22/24/70
f 31/32/71 28/29/72 20/15/73 23/14/74
f 16/33/75 35/34/76 17/35/77 32/19/78 33/18/79
f 18/25/80 29/30/81 28/29/82 14/26/83
f 30/31/84 29/30/85 18/25/86 19/28/87
f 15/27/88 31/32/89 30/31/90 19/28/91
f 14/26/92 28/29/93 31/32/94 15/27/95
f 34/20/96 24/22/97 27/21/98
f 27/21/99 26/17/100 34/20/101
f 25/16/102 24/22/103 17/35/104 35/34/105
f 26/17/106 25/16/107 35/34/108 16/33/109
f 47/143/110 46/144/111 45/145/112
f 39/39/113 40/40/114 37/41/115 36/42/116
f 39/39/117 36/42/118 48/43/119 49/44/120
f 44/122/121 43/123/122 41/124/123
f 42/125/124 43/123/125 44/122/126
f 44/45/127 40/40/128 38/49/129
f 48/43/130 45/38/131 46/37/132 38/49/133 49/44/134
f 48/43/135 43/46/136 42/48/137 47/36/138 45/38/139
f 49/44/140 38/49/141 40/40/142 39/39/143
f 50/50/144 52/51/145 53/52/146 51/53/147
f 52/51/148 54/54/149 55/55/150 53/52/151
f 54/54/152 56/56/153 57/57/154 55/55/155
f 56/56/156 50/50/157 51/53/158 57/57/159
f 51/53/160 53/52/161 55/55/162 57/57/163
f 56/56/164 54/54/165 52/51/166 50/50/167
f 58/58/168 60/61/169 61/60/170 59/59/171
f 60/61/172 62/63/173 63/62/174 61/60/175
f 62/63/176 64/65/177 65/64/178 63/62/179
f 64/65/180 58/58/181 59/59/182 65/64/183
f 59/59/184 61/60/185 63/62/186 65/64/187
f 64/65/188 62/63/189 60/61/190 58/58/191
f 115/149/192 112/146/193 117/151/194 118/152/195
f 68/69/196 70/71/197 71/70/198 69/68/199
f 119/153/200 116/150/201 113/147/202 114/148/203
f 72/73/204 66/66/205 67/67/206 73/72/207
f 114/148/208 115/149/209 118/152/210 119/153/211
f 112/146/212 113/147/213 116/150/214 117/151/215
f 74/74/216 76/75/217 84/78/218
f 78/81/219 79/82/220 77/76/221 76/75/222
f 78/81/223 80/83/224 81/84/225 79/82/226
f 80/83/227 74/74/228 75/80/229 81/84/230
f 79/82/231 85/85/232 83/77/233 77/76/234
f 80/83/235 78/81/236 76/75/237 74/74/238
f 83/126/239 85/127/240 84/128/241
f 84/128/242 85/127/243 82/129/244
f 86/86/245 88/87/246 89/88/247 87/89/248
f 88/87/249 90/90/250 91/91/251 89/88/252
f 90/90/253 92/92/254 93/93/255 91/91/256
f 92/92/257 86/86/258 87/89/259 93/93/260
f 87/89/261 89/88/262 91/91/263 93/93/264
f 92/92/265 90/90/266 88/87/267 86/86/268
f 95/94/269 103/95/270 106/96/271 107/97/272 96/98/273
f 101/130/274 100/131/275 99/132/276
f 110/102/277 96/98/278 105/103/279 108/104/280
f 104/133/281 106/134/282 103/135/283 102/136/284
f 104/133/285 105/137/286 107/138/287 106/134/288
f 94/107/289 100/100/290 101/99/291 97/108/292 98/109/293
f 98/109/294 111/110/295 104/105/296 102/106/297
f 94/107/298 95/94/299 96/98/300 99/101/301 100/100/302
f 108/139/303 111/140/304 110/141/305
f 110/141/306 111/140/307 109/142/308
f 97/108/309 101/99/310 110/102/311 109/111/312
f 110/102/313 101/99/314 99/101/315 96/98/316
f 105/103/317 96/98/318 107/97/319
f 97/108/320 109/111/321 111/110/322 98/109/323
f 104/105/324 111/110/325 108/104/326 105/103/327
f 98/109/328 102/106/329 103/95/330 95/94/331 94/107/332
f 3/11/333 4/10/334 8/4/335 10/5/336
f 5/3/337 10/5/338 9/9/339 7/8/340
f 2/7/341 7/8/342 9/9/343 11/6/344
f 2/7/345 11/6/346 13/12/347
f 47/36/348 38/49/349 46/37/350
f 44/45/351 38/49/352 47/36/353 42/48/354
f 37/41/355 40/40/356 44/45/357 41/47/358
f 36/42/359 37/41/360 41/47/361 43/46/362
f 36/42/363 43/46/364 48/43/365
f 84/78/366 76/75/367 77/76/368 83/77/369
f 74/74/370 84/78/371 82/79/372 75/80/373
f 75/80/374 82/79/375 85/85/376 81/84/377
f 81/84/378 85/85/379 79/82/380
f 34/20/381 26/17/382 16/33/383 33/18/384
f 17/35/385 24/22/386 34/20/387 32/19/388
f 72/73/389 113/147/390 112/146/391 66/66/392
f 114/148/393 113/147/394 72/73/395 73/72/396
f 67/67/397 115/149/398 114/148/399 73/72/400
f 66/66/401 112/146/402 115/149/403 67/67/404
f 117/151/405 116/150/406 70/71/407 68/69/408
f 118/152/409 117/151/410 68/69/411 69/68/412
f 119/153/413 118/152/414 69/68/415 71/70/416
f 70/71/417 116/150/418 119/153/419 71/70/420
