# This file uses centimeters as units for non-parametric coordinates.

v 0.078197 6.794790 -5.400342
v 9.332501 0.012484 -5.070148
v 0.191782 -0.473400 -14.812404
v -9.808218 -0.473400 -4.812403
v -0.073699 0.130287 4.574545
v 0.195368 -7.238453 -4.545613
v 5.104928 7.952622 -5.740571
v -0.016245 6.266847 -12.125280
v -7.062461 6.278786 -5.085136
v 0.338793 4.773314 0.998617
v 7.064750 -7.016109 -5.006486
v 0.345847 -6.956246 -11.089672
v -7.254505 -6.206383 -4.504312
v -0.004211 -7.023416 2.066658
v 7.105479 -0.221838 -12.043621
v -7.038048 -0.081507 -12.038769
v -7.011249 -0.191854 2.069016
v 6.346720 2.367499 1.290652
vt 0.009521 0.238498
vt 0.185041 0.223678
vt 0.190221 0.377829
vt 0.132982 0.083070
vt 0.340411 0.222270
vt 0.046786 0.379634
vt 0.339088 0.356742
vt 0.340572 0.065916
vt 0.182437 0.010478
vt 0.602836 0.541345
vt 0.462239 0.695058
vt 0.453576 0.535316
vt 0.602572 0.696970
vt 0.326846 0.528506
vt 0.459800 0.383199
vt 0.310270 0.674078
vt 0.308785 0.383252
vt 0.011003 0.540628
vt 0.154438 0.383199
vt 0.159999 0.536030
vt 0.303305 0.532624
vt 0.151336 0.695848
vt 0.503429 0.010478
vt 0.501893 0.168613
vt 0.348535 0.161492
vt 0.511011 0.271249
vt 0.347403 0.304529
vt 0.643819 0.218068
vt 0.616368 0.341529
vt 0.167368 0.840865
vt 0.278486 0.848386
vt 0.165280 0.989522
vt 0.173129 0.699413
vt 0.009521 0.833897
vt 0.752975 0.496945
vt 0.608316 0.493619
vt 0.742787 0.345095
vt 0.753888 0.661628
vt 0.899142 0.501357
vn 0.357407 0.862856 -0.357407
vn 0.357407 0.862856 -0.357407
vn 0.357407 0.862856 -0.357407
vn 0.862856 0.357407 -0.357407
vn 0.862856 0.357407 -0.357407
vn 0.862856 0.357407 -0.357407
vn 0.577350 0.577350 -0.577350
vn 0.577350 0.577350 -0.577350
vn 0.577350 0.577350 -0.577350
vn 0.357407 0.357407 -0.862856
vn 0.357407 0.357407 -0.862856
vn 0.357407 0.357407 -0.862856
vn -0.357407 0.862856 -0.357407
vn -0.357407 0.862856 -0.357407
vn -0.357407 0.862856 -0.357407
vn -0.357407 0.357407 -0.862856
vn -0.357407 0.357407 -0.862856
vn -0.357407 0.357407 -0.862856
vn -0.577350 0.577350 -0.577350
vn -0.577350 0.577350 -0.577350
vn -0.577350 0.577350 -0.577350
vn -0.862856 0.357407 -0.357407
vn -0.862856 0.357407 -0.357407
vn -0.862856 0.357407 -0.357407
vn -0.357407 0.862856 0.357407
vn -0.357407 0.862856 0.357407
vn -0.357407 0.862856 0.357407
vn -0.862856 0.357407 0.357407
vn -0.862856 0.357407 0.357407
vn -0.862856 0.357407 0.357407
vn -0.577350 0.577350 0.577350
vn -0.577350 0.577350 0.577350
vn -0.577350 0.577350 0.577350
vn -0.357407 0.357407 0.862856
vn -0.357407 0.357407 0.862856
vn -0.357407 0.357407 0.862856
vn 0.357407 0.862856 0.357407
vn 0.357407 0.862856 0.357407
vn 0.357407 0.862856 0.357407
vn 0.357407 0.357407 0.862856
vn 0.357407 0.357407 0.862856
vn 0.357407 0.357407 0.862856
vn 0.577350 0.577350 0.577350
vn 0.577350 0.577350 0.577350
vn 0.577350 0.577350 0.577350
vn 0.862856 0.357407 0.357407
vn 0.862856 0.357407 0.357407
vn 0.862856 0.357407 0.357407
vn 0.357407 -0.862856 -0.357407
vn 0.357407 -0.862856 -0.357407
vn 0.357407 -0.862856 -0.357407
vn 0.357407 -0.357407 -0.862856
vn 0.357407 -0.357407 -0.862856
vn 0.357407 -0.357407 -0.862856
vn 0.577350 -0.577350 -0.577350
vn 0.577350 -0.577350 -0.577350
vn 0.577350 -0.577350 -0.577350
vn 0.862856 -0.357407 -0.357407
vn 0.862856 -0.357407 -0.357407
vn 0.862856 -0.357407 -0.357407
vn -0.357407 -0.862856 -0.357407
vn -0.357407 -0.862856 -0.357407
vn -0.357407 -0.862856 -0.357407
vn -0.862856 -0.357407 -0.357407
vn -0.862856 -0.357407 -0.357407
vn -0.862856 -0.357407 -0.357407
vn -0.577350 -0.577350 -0.577350
vn -0.577350 -0.577350 -0.577350
vn -0.577350 -0.577350 -0.577350
vn -0.357407 -0.357407 -0.862856
vn -0.357407 -0.357407 -0.862856
vn -0.357407 -0.357407 -0.862856
vn -0.357407 -0.862856 0.357407
vn -0.357407 -0.862856 0.357407
vn -0.357407 -0.862856 0.357407
vn -0.357407 -0.357407 0.862856
vn -0.357407 -0.357407 0.862856
vn -0.357407 -0.357407 0.862856
vn -0.577350 -0.577350 0.577350
vn -0.577350 -0.577350 0.577350
vn -0.577350 -0.577350 0.577350
vn -0.862856 -0.357407 0.357407
vn -0.862856 -0.357407 0.357407
vn -0.862856 -0.357407 0.357407
vn 0.357407 -0.862856 0.357407
vn 0.357407 -0.862856 0.357407
vn 0.357407 -0.862856 0.357407
vn 0.862856 -0.357407 0.357407
vn 0.862856 -0.357407 0.357407
vn 0.862856 -0.357407 0.357407
vn 0.577350 -0.577350 0.577350
vn 0.577350 -0.577350 0.577350
vn 0.577350 -0.577350 0.577350
vn 0.357407 -0.357407 0.862856
vn 0.357407 -0.357407 0.862856
vn 0.357407 -0.357407 0.862856
s off
f 1/30/1 7/31/2 8/32/3
f 7/1/4 2/2/5 15/3/6
f 7/1/7 15/3/8 8/6/9
f 8/18/10 15/19/11 3/20/12
f 1/30/13 8/32/14 9/34/15
f 8/18/16 3/20/17 16/22/18
f 8/13/19 16/11/20 9/10/21
f 9/10/22 16/11/23 4/12/24
f 1/30/25 9/34/26 10/33/27
f 9/10/28 4/12/29 17/15/30
f 9/27/31 17/25/32 10/26/33
f 10/26/34 17/25/35 5/24/36
f 1/30/37 10/33/38 7/31/39
f 10/26/40 5/24/41 18/28/42
f 10/26/43 18/28/44 7/29/45
f 7/1/46 18/4/47 2/2/48
f 6/35/49 12/36/50 11/37/51
f 12/21/52 3/20/53 15/19/54
f 12/7/55 15/3/56 11/5/57
f 11/5/58 15/3/59 2/2/60
f 6/35/61 13/38/62 12/36/63
f 13/14/64 4/12/65 16/11/66
f 13/14/67 16/11/68 12/16/69
f 12/21/70 16/22/71 3/20/72
f 6/35/73 14/39/74 13/38/75
f 14/23/76 5/24/77 17/25/78
f 14/17/79 17/15/80 13/14/81
f 13/14/82 17/15/83 4/12/84
f 6/35/85 11/37/86 14/39/87
f 11/5/88 2/2/89 18/4/90
f 11/5/91 18/4/92 14/8/93
f 14/8/94 18/4/95 5/9/96
