# This file uses centimeters as units for non-parametric coordinates.

v 19.494141 1.565430 6.937988
v 19.494141 23.715088 6.937988
v -10.011719 1.565430 6.937988
v -10.009766 23.715088 6.937988
v -10.011719 1.565430 -5.454590
v -10.009766 23.715088 -5.454590
v 19.494141 1.565430 -5.454590
v 19.494141 23.715088 -5.454590
v 19.494141 41.277344 6.937988
v 19.494141 67.608887 6.937988
v -10.009766 41.277588 6.937988
v -10.009766 67.608887 6.937988
v -10.009766 41.277588 -5.454590
v -10.009766 67.608887 -5.454590
v 19.494141 41.277344 -5.454590
v 19.494141 67.608887 -5.454590
v 19.494141 84.909180 6.937988
v 19.494141 106.911377 6.937988
v -10.009766 84.909180 6.937988
v -10.009766 106.911377 6.937988
v -10.009766 84.909180 -5.454590
v -10.009766 106.911377 -5.454590
v 19.494141 84.909180 -5.454590
v 19.494141 106.911377 -5.454590
v 194.622070 17.596436 6.937988
v 205.422852 88.210693 6.937988
v 34.792969 14.527832 6.937988
v 34.792969 93.948975 6.937988
v 32.748047 14.077637 -5.454590
v 32.748047 94.398926 -5.454590
v 194.621094 17.596436 -5.454590
v 185.267578 91.884277 -5.454590
v 81.173828 18.439453 6.937988
v 81.173828 90.037109 6.937988
v 81.173828 90.037109 -5.454590
v 81.173828 18.439453 -5.454590
v 76.132813 101.190918 6.937988
v 76.132813 101.190918 -5.454590
v 76.132813 7.285889 -5.454590
v 76.132813 7.285889 6.937988
v 32.748047 56.191406 6.937988
v 45.774414 30.596924 6.937988
v 32.748047 75.804688 6.937988
v 42.242188 87.701660 6.937988
v 212.672852 8.329834 6.937988
v 213.421875 8.323975 -5.454590
v 200.315430 101.020996 6.938232
v 202.637695 101.059570 -5.454590
v 0.492188 1.565430 12.765869
v 0.492188 23.715332 12.765869
v 0.492188 23.715332 -11.282471
v 0.492188 1.565430 -11.282471
v 0.492188 41.277832 12.765869
v 0.492188 67.608887 12.765869
v 0.492188 67.608887 -11.282471
v 0.492188 41.277832 -11.282471
v 0.493164 84.909180 12.765869
v 0.493164 106.911377 12.765869
v 0.492188 106.911377 -11.282471
v 0.492188 84.909180 -11.282471
v 254.740234 19.530273 6.937988
v 264.094727 9.364502 6.937988
v 264.094727 9.694824 -5.454590
v 254.740234 19.530273 -5.454590
v 254.740234 86.464355 6.937988
v 264.094727 97.023438 6.937988
v 264.094727 97.282715 -5.454590
v 254.740234 87.671387 -5.454590
v 240.383789 35.332520 6.937988
v 245.529297 74.039795 6.937988
vt 0.167569 0.012869
vt 0.167560 0.012870
vt 0.167561 0.012881
vt 0.167569 0.012880
vt 0.167560 0.012881
vt 0.167568 0.012881
vt 0.167560 0.012871
vt 0.167568 0.012871
vt 0.167545 0.012870
vt 0.167537 0.012870
vt 0.167537 0.012881
vt 0.167545 0.012881
vt 0.167537 0.012882
vt 0.167545 0.012882
vt 0.167537 0.012871
vt 0.167545 0.012871
vt 0.167533 0.012870
vt 0.167525 0.012870
vt 0.167525 0.012881
vt 0.167533 0.012881
vt 0.167526 0.012882
vt 0.167533 0.012882
vt 0.167526 0.012871
vt 0.167533 0.012871
vt 0.019501 0.038181
vt 0.019293 0.038181
vt 0.019296 0.038199
vt 0.019498 0.038205
vt 0.019352 0.038290
vt 0.020383 0.037738
vt 0.020373 0.038738
vt 0.019446 0.038292
vt 0.167624 0.012852
vt 0.167624 0.012855
vt 0.167627 0.012855
vt 0.167629 0.012852
vt 0.167627 0.012855
vt 0.167629 0.012852
vt 0.167630 0.012855
vt 0.167619 0.012705
vt 0.167620 0.012710
vt 0.167620 0.012709
vt 0.167854 0.012915
vt 0.167619 0.012705
vt 0.167619 0.012852
vt 0.167620 0.012832
vt 0.167619 0.012833
vt 0.167619 0.012855
vt 0.167629 0.012825
vt 0.167630 0.012825
vt 0.167619 0.012833
vt 0.167620 0.012832
vt 0.167629 0.012702
vt 0.167628 0.012706
vt 0.167629 0.012824
vt 0.167629 0.012824
vt 0.167628 0.012707
vt 0.167629 0.012702
vt 0.168122 0.012827
vt 0.168087 0.012581
vt 0.020383 0.037739
vt 0.019301 0.038302
vt 0.019486 0.038302
vt 0.020373 0.038725
vt 0.019808 0.010094
vt 0.019850 0.009884
vt 0.019862 0.009876
vt 0.019859 0.009921
vt 0.167619 0.012855
vt 0.167629 0.012855
vt 0.167620 0.012852
vt 0.019848 0.010094
vt 0.019818 0.009875
vt 0.019809 0.009882
vt 0.019805 0.009876
vt 0.019458 0.038184
vt 0.019295 0.038199
vt 0.019310 0.038184
vt 0.019341 0.038181
vt 0.019392 0.038181
vt 0.019832 0.009875
vt 0.019499 0.038205
vt 0.019805 0.009897
vt 0.167624 0.012855
vt 0.167622 0.012855
vt 0.167621 0.012855
vt 0.167621 0.012855
vt 0.167621 0.012855
vt 0.167622 0.012852
vt 0.167568 0.012853
vt 0.167560 0.012853
vt 0.167560 0.012855
vt 0.167568 0.012854
vt 0.167545 0.012854
vt 0.167537 0.012854
vt 0.167537 0.012855
vt 0.167545 0.012855
vt 0.167533 0.012854
vt 0.167525 0.012854
vt 0.167526 0.012856
vt 0.167534 0.012855
vt 0.019836 0.010093
vt 0.167626 0.012713
vt 0.167627 0.012709
vt 0.167627 0.012709
vt 0.167626 0.012714
vt 0.019432 0.038297
vt 0.019820 0.010093
vt 0.167622 0.012715
vt 0.167621 0.012710
vt 0.167621 0.012711
vt 0.167622 0.012715
vt 0.019357 0.038296
vt 0.167993 0.012469
vt 0.168129 0.012841
vt 0.167874 0.012935
vt 0.168003 0.012476
vt 0.168021 0.012601
vt 0.019835 0.010094
vt 0.019414 0.038291
vt 0.019820 0.010094
vt 0.019379 0.038290
vn -0.485192 0.000021 0.874407
vn -0.485192 0.000021 0.874407
vn -0.485192 0.000021 0.874407
vn -0.485192 0.000021 0.874407
vn -1.000000 0.000088 0.000000
vn -1.000000 0.000088 0.000000
vn -1.000000 0.000088 0.000000
vn -1.000000 0.000088 0.000000
vn -0.485192 0.000021 -0.874407
vn -0.485192 0.000021 -0.874407
vn -0.485192 0.000021 -0.874407
vn -0.485192 0.000021 -0.874407
vn -0.000023 1.000000 0.000000
vn -0.000023 1.000000 0.000000
vn -0.000023 1.000000 0.000000
vn -0.000023 1.000000 0.000000
vn 0.000000 -1.000000 0.000000
vn 0.000000 -1.000000 0.000000
vn 0.000000 -1.000000 0.000000
vn 0.000000 -1.000000 0.000000
vn -0.485227 0.000000 0.874388
vn -0.485227 0.000000 0.874388
vn -0.485227 0.000000 0.874388
vn -0.485227 0.000000 0.874388
vn -1.000000 0.000000 0.000000
vn -1.000000 0.000000 0.000000
vn -1.000000 0.000000 0.000000
vn -1.000000 0.000000 0.000000
vn -0.485227 0.000000 -0.874388
vn -0.485227 0.000000 -0.874388
vn -0.485227 0.000000 -0.874388
vn -0.485227 0.000000 -0.874388
vn 0.000000 1.000000 0.000000
vn 0.000000 1.000000 0.000000
vn 0.000000 1.000000 0.000000
vn 0.000000 1.000000 0.000000
vn 0.000023 -1.000000 0.000000
vn 0.000023 -1.000000 0.000000
vn 0.000023 -1.000000 0.000000
vn 0.000023 -1.000000 0.000000
vn -0.485192 0.000000 0.874407
vn -0.485192 0.000000 0.874407
vn -0.485192 0.000000 0.874407
vn -0.485192 0.000000 0.874407
vn -1.000000 0.000000 0.000000
vn -1.000000 0.000000 0.000000
vn -1.000000 0.000000 0.000000
vn -1.000000 0.000000 0.000000
vn -0.485227 0.000000 -0.874388
vn -0.485227 0.000000 -0.874388
vn -0.485227 0.000000 -0.874388
vn -0.485227 0.000000 -0.874388
vn 0.000000 1.000000 0.000000
vn 0.000000 1.000000 0.000000
vn 0.000000 1.000000 0.000000
vn 0.000000 1.000000 0.000000
vn 0.000000 -1.000000 0.000000
vn 0.000000 -1.000000 0.000000
vn 0.000000 -1.000000 0.000000
vn 0.000000 -1.000000 0.000000
vn -0.000000 0.000000 -1.000000
vn -0.000000 0.000000 -1.000000
vn -0.000000 0.000000 -1.000000
vn -0.000000 0.000000 -1.000000
vn 0.000000 0.000000 1.000000
vn 0.000000 0.000000 1.000000
vn 0.000000 0.000000 1.000000
vn 0.000000 0.000000 1.000000
vn 0.000000 0.000000 1.000000
vn 0.000000 0.000000 1.000000
vn 0.000000 0.000000 1.000000
vn 0.000000 0.000000 1.000000
vn 0.000000 0.000000 1.000000
vn 0.000000 0.000000 1.000000
vn 0.000000 0.000000 -1.000000
vn 0.000000 0.000000 -1.000000
vn 0.000000 0.000000 -1.000000
vn -0.000000 0.000000 -1.000000
vn -0.000000 0.000000 -1.000000
vn 0.000000 0.000000 -1.000000
vn -0.000000 0.000000 -1.000000
vn 0.000002 -0.000011 1.000000
vn 0.000001 -0.000004 1.000000
vn 0.000001 -0.000006 1.000000
vn 0.000002 -0.000011 1.000000
vn 0.000000 0.000000 1.000000
vn 0.000000 0.000000 1.000000
vn 0.000000 0.000000 1.000000
vn 0.000000 0.000000 1.000000
vn 0.000000 0.000000 -1.000000
vn 0.000000 0.000000 -1.000000
vn 0.000000 0.000000 -1.000000
vn 0.000000 0.000000 -1.000000
vn -0.000001 -0.000011 1.000000
vn -0.000001 -0.000011 1.000000
vn -0.000001 -0.000011 1.000000
vn -0.000001 -0.000011 1.000000
vn 0.000000 0.000000 -1.000000
vn 0.000000 0.000000 -1.000000
vn 0.000000 0.000000 -1.000000
vn 0.000000 0.000000 -1.000000
vn 0.000000 0.000000 1.000000
vn 0.000000 0.000000 1.000000
vn 0.000000 0.000000 1.000000
vn 0.000000 0.000000 1.000000
vn -0.000000 0.000000 -1.000000
vn -0.000000 0.000000 -1.000000
vn -0.000000 0.000000 -1.000000
vn -0.000000 0.000000 -1.000000
vn 0.000000 0.000000 -1.000000
vn 0.000000 0.000000 -1.000000
vn 0.000000 0.000000 -1.000000
vn -0.000000 0.000000 -1.000000
vn 0.000000 0.000000 -1.000000
vn 0.000000 0.000000 -1.000000
vn 0.000000 0.000000 -1.000000
vn 0.000000 0.000000 -1.000000
vn 0.000000 0.000000 1.000000
vn 0.000000 0.000000 1.000000
vn 0.000000 0.000000 1.000000
vn 0.100488 0.994938 0.000000
vn 0.100488 0.994938 0.000000
vn 0.100488 0.994938 0.000000
vn 0.100488 0.994938 0.000000
vn 0.100488 -0.994938 0.000000
vn 0.100488 -0.994938 0.000000
vn 0.100488 -0.994938 0.000000
vn 0.100488 -0.994938 0.000000
vn 0.000000 0.000000 -1.000000
vn 0.000000 0.000000 -1.000000
vn 0.000000 0.000000 -1.000000
vn 0.000000 0.000000 -1.000000
vn 0.000000 0.000000 1.000000
vn 0.000000 0.000000 1.000000
vn 0.000000 0.000000 1.000000
vn 0.000000 0.000000 1.000000
vn 0.000001 -0.000004 1.000000
vn 0.000000 0.000000 1.000000
vn 0.000000 0.000000 1.000000
vn 0.000001 -0.000006 1.000000
vn 0.000000 0.000000 1.000000
vn 0.000000 0.000000 1.000000
vn 0.000000 0.000000 1.000000
vn -0.000000 0.000000 1.000000
vn -0.000000 0.000000 1.000000
vn -0.000000 0.000000 1.000000
vn -0.000000 0.000000 1.000000
vn -0.000000 0.000000 1.000000
vn 0.000000 0.000000 1.000000
vn 0.000000 0.000000 1.000000
vn 0.000000 0.000000 1.000000
vn 0.000000 0.000000 1.000000
vn 0.000000 0.000000 1.000000
vn 0.000000 0.000000 1.000000
vn 0.000000 0.000000 1.000000
vn 0.000000 0.000000 1.000000
vn 0.000000 0.000000 1.000000
vn 0.007603 -0.999971 0.000466
vn 0.007603 -0.999971 0.000466
vn 0.007603 -0.999971 0.000466
vn 0.007603 -0.999971 0.000466
vn 0.828760 0.559516 0.009978
vn 0.863261 -0.504719 -0.006248
vn 0.870638 -0.491887 -0.006089
vn 0.821630 0.569931 0.010164
vn 0.001202 0.999998 0.001669
vn 0.001202 0.999998 0.001669
vn 0.001202 0.999998 0.001669
vn 0.001202 0.999998 0.001669
vn -1.000000 0.000000 0.000000
vn -1.000000 0.000000 0.000000
vn -1.000000 0.000000 0.000000
vn -1.000000 0.000000 0.000000
vn -1.000000 0.000000 0.000000
vn -1.000000 0.000000 0.000000
vn -1.000000 0.000000 0.000000
vn -1.000000 0.000000 0.000000
vn 0.000000 0.000000 1.000000
vn 0.000000 0.000000 1.000000
vn 0.000000 0.000000 1.000000
vn 0.000000 0.000000 1.000000
vn 0.000000 0.000000 1.000000
vn 0.000000 0.000000 1.000000
vn 0.000000 0.000000 1.000000
vn -0.000000 0.000000 1.000000
vn -0.000000 0.000000 1.000000
vn -0.000000 0.000000 1.000000
vn -0.000000 0.000000 1.000000
vn 0.000000 0.000000 1.000000
vn 0.000000 0.000000 1.000000
vn 0.000000 0.000000 1.000000
vn 0.000000 0.000000 -1.000000
vn 0.000000 0.000000 -1.000000
vn 0.000000 0.000000 -1.000000
vn 0.000000 0.000000 -1.000000
vn 0.000000 0.000000 -1.000000
vn 0.000000 0.000000 -1.000000
vn -0.000000 0.000000 -1.000000
vn -0.000000 0.000000 -1.000000
vn -0.000000 0.000000 -1.000000
vn 0.293218 0.000000 0.956046
vn 0.293218 0.000000 0.956046
vn 0.293218 0.000000 0.956046
vn 0.293218 0.000000 0.956046
vn 0.000013 1.000000 0.000000
vn 0.000013 1.000000 0.000000
vn 0.000013 1.000000 0.000000
vn 0.000013 1.000000 0.000000
vn 0.293218 0.000000 -0.956046
vn 0.293218 0.000000 -0.956046
vn 0.293218 0.000000 -0.956046
vn 0.293218 0.000000 -0.956046
vn 0.000000 -1.000000 0.000000
vn 0.000000 -1.000000 0.000000
vn 0.000000 -1.000000 0.000000
vn 0.000000 -1.000000 0.000000
vn 0.293218 0.000000 0.956046
vn 0.293218 0.000000 0.956046
vn 0.293218 0.000000 0.956046
vn 0.293218 0.000000 0.956046
vn 0.000000 1.000000 0.000000
vn 0.000000 1.000000 0.000000
vn 0.000000 1.000000 0.000000
vn 0.000000 1.000000 0.000000
vn 0.293218 0.000000 -0.956046
vn 0.293218 0.000000 -0.956046
vn 0.293218 0.000000 -0.956046
vn 0.293218 0.000000 -0.956046
vn -0.000026 -1.000000 0.000000
vn -0.000026 -1.000000 0.000000
vn -0.000026 -1.000000 0.000000
vn -0.000026 -1.000000 0.000000
vn 0.293232 0.000000 0.956041
vn 0.293232 0.000000 0.956041
vn 0.293232 0.000000 0.956041
vn 0.293232 0.000000 0.956041
vn 0.000000 1.000000 0.000000
vn 0.000000 1.000000 0.000000
vn 0.000000 1.000000 0.000000
vn 0.000000 1.000000 0.000000
vn 0.293218 0.000000 -0.956046
vn 0.293218 0.000000 -0.956046
vn 0.293218 0.000000 -0.956046
vn 0.293218 0.000000 -0.956046
vn 0.000000 -1.000000 -0.000000
vn 0.000000 -1.000000 -0.000000
vn 0.000000 -1.000000 -0.000000
vn 0.000000 -1.000000 -0.000000
vn 0.000000 0.000000 -1.000000
vn 0.000000 0.000000 -1.000000
vn 0.000000 0.000000 -1.000000
vn 0.000000 0.000000 -1.000000
vn 0.000000 0.000000 -1.000000
vn 0.000000 0.000000 -1.000000
vn 0.000000 0.000000 -1.000000
vn 0.000000 0.000000 -1.000000
vn 0.828760 0.559516 0.009978
vn 0.821630 0.569931 0.010164
vn 0.061949 0.997921 0.017797
vn 0.061949 0.997921 0.017797
vn 0.000000 0.000000 1.000000
vn 0.000000 0.000000 1.000000
vn 0.000000 0.000000 1.000000
vn 0.000000 0.000000 1.000000
vn 0.023553 -0.999646 -0.012375
vn 0.023553 -0.999646 -0.012375
vn 0.870638 -0.491887 -0.006089
vn 0.863261 -0.504719 -0.006248
vn 0.000000 0.000000 -1.000000
vn 0.000000 0.000000 -1.000000
vn 0.000000 0.000000 -1.000000
vn 0.000000 0.000000 -1.000000
vn 0.000001 -0.000004 1.000000
vn 0.000000 0.000000 1.000000
vn 0.000000 0.000000 1.000000
vn 0.000000 0.000000 1.000000
vn 0.000000 0.000000 1.000000
vn 0.000000 0.000000 1.000000
vn 0.000000 0.000000 1.000000
vn 0.000001 -0.000004 1.000000
vn 0.000000 0.000000 1.000000
vn 0.000000 0.000000 1.000000
s off
f 49/1/1 50/2/2 4/3/3 3/4/4
f 3/4/5 4/3/6 6/5/7 5/6/8
f 5/6/9 6/5/10 51/7/11 52/8/12
f 50/2/13 51/7/14 6/5/15 4/3/16
f 52/8/17 49/1/18 3/4/19 5/6/20
f 53/9/21 54/10/22 12/11/23 11/12/24
f 11/12/25 12/11/26 14/13/27 13/14/28
f 13/14/29 14/13/30 55/15/31 56/16/32
f 54/10/33 55/15/34 14/13/35 12/11/36
f 56/16/37 53/9/38 11/12/39 13/14/40
f 57/17/41 58/18/42 20/19/43 19/20/44
f 19/20/45 20/19/46 22/21/47 21/22/48
f 21/22/49 22/21/50 59/23/51 60/24/52
f 58/18/53 59/23/54 22/21/55 20/19/56
f 60/24/57 57/17/58 19/20/59 21/22/60
f 29/25/61 30/26/62 35/27/63 36/28/64
f 26/29/65 34/30/66 33/31/67 25/32/68 69/120/69 70/122/70
f 41/33/71 9/34/72 2/35/73 27/36/74
f 8/37/75 29/38/76 7/39/77
f 48/40/78 67/111/79 68/112/80 32/41/81
f 26/42/82 65/109/83 66/110/84 47/44/85
f 28/45/86 34/46/87 37/47/88 18/48/89
f 29/38/90 36/49/91 39/50/92 7/39/93
f 37/47/94 34/46/95 26/42/96 47/44/97
f 38/51/98 48/40/99 32/41/100 35/52/101
f 45/53/102 25/54/103 33/55/104 40/56/105
f 31/57/106 46/58/107 39/50/108 36/49/109
f 63/43/110 64/59/111 68/60/112 67/114/113
f 35/61/114 32/62/115 31/63/116 36/64/117
f 42/66/118 27/67/119 33/68/120
f 37/47/121 38/51/122 24/69/123 18/48/124
f 39/50/125 40/56/126 1/70/127 7/39/128
f 38/51/129 35/52/130 30/71/131 24/69/132
f 40/56/133 33/55/134 27/36/135 1/70/136
f 65/118/137 61/115/138 62/116/139 66/117/140
f 43/73/141 44/74/142 28/75/143
f 42/76/144 34/77/145 44/78/146 43/79/147 41/80/148
f 27/67/149 42/66/150 41/81/151
f 33/82/152 34/77/153 42/76/154
f 28/75/155 44/74/156 34/83/157
f 46/58/158 45/53/159 40/56/160 39/50/161
f 66/117/162 62/116/163 63/43/164 67/114/165
f 37/47/166 47/44/167 48/40/168 38/51/169
f 9/34/170 15/84/171 8/37/172 2/35/173
f 16/85/174 10/86/175 17/87/176 23/88/177
f 17/87/178 28/45/179 18/48/180
f 9/34/181 41/33/182 43/89/183 10/86/184
f 10/86/185 43/89/186 28/45/187 17/87/188
f 27/36/189 2/35/190 1/70/191
f 30/71/192 16/85/193 23/88/194
f 30/71/195 23/88/196 24/69/197
f 8/37/198 15/84/199 29/38/200
f 1/90/201 2/91/202 50/2/203 49/1/204
f 2/91/205 8/92/206 51/7/207 50/2/208
f 52/8/209 51/7/210 8/92/211 7/93/212
f 7/93/213 1/90/214 49/1/215 52/8/216
f 9/94/217 10/95/218 54/10/219 53/9/220
f 10/95/221 16/96/222 55/15/223 54/10/224
f 56/16/225 55/15/226 16/96/227 15/97/228
f 15/97/229 9/94/230 53/9/231 56/16/232
f 17/98/233 18/99/234 58/18/235 57/17/236
f 18/99/237 24/100/238 59/23/239 58/18/240
f 60/24/241 59/23/242 24/100/243 23/101/244
f 23/101/245 17/98/246 57/17/247 60/24/248
f 68/113/249 64/107/250 31/63/251 32/62/252
f 30/71/253 29/38/254 15/84/255 16/85/256
f 66/110/257 67/111/258 48/40/259 47/44/260
f 45/53/261 62/104/262 61/103/263 25/54/264
f 45/53/265 46/58/266 63/105/267 62/104/268
f 31/57/269 64/106/270 63/105/271 46/58/272
f 65/108/273 70/121/274 69/119/275 61/102/276
f 61/102/277 69/119/278 25/72/279
f 65/108/280 26/65/281 70/121/282
