# This file uses centimeters as units for non-parametric coordinates.

v -52.530043 108.070597 -1.683270
v -53.843159 107.499638 -2.723589
v -55.466258 106.793894 -2.723588
v -56.779373 106.222936 -1.683270
v -57.280940 106.004848 0.000000
v -56.779373 106.222936 1.683270
v -55.466258 106.793894 2.723588
v -53.843159 107.499638 2.723588
v -52.530043 108.070597 1.683270
v -52.028478 108.288684 0.000000
v -51.375678 110.341410 -3.110278
v -53.801999 109.286415 -5.032536
v -56.801096 107.982371 -5.032535
v -59.227418 106.927376 -3.110277
v -60.154189 106.524404 0.000000
v -59.227416 106.927376 3.110278
v -56.801095 107.982371 5.032535
v -53.801998 109.286415 5.032534
v -51.375678 110.341410 3.110277
v -50.448906 110.744381 0.000000
v -51.140230 113.091145 -4.063774
v -54.310371 111.712728 -6.575324
v -58.228881 110.008912 -6.575323
v -61.399022 108.630495 -4.063772
v -62.609907 108.103987 0.000000
v -61.399021 108.630495 4.063773
v -58.228879 110.008912 6.575323
v -54.310370 111.712729 6.575323
v -51.140230 113.091145 4.063772
v -49.929344 113.617653 0.000000
v -51.859524 115.901134 -4.398597
v -55.290860 114.409147 -7.117080
v -59.532224 112.564949 -7.117078
v -62.963560 111.072962 -4.398596
v -64.274213 110.503074 0.000000
v -62.963559 111.072962 4.398597
v -59.532224 112.564949 7.117078
v -55.290859 114.409147 7.117078
v -51.859524 115.901134 4.398596
v -50.548870 116.471022 0.000000
v -53.424065 118.343607 -4.063774
v -56.594207 116.965191 -6.575324
v -60.512717 115.261374 -6.575323
v -63.682858 113.882957 -4.063772
v -64.893742 113.356450 0.000000
v -63.682857 113.882958 4.063773
v -60.512715 115.261375 6.575323
v -56.594206 116.965191 6.575323
v -53.424066 118.343607 4.063772
v -52.213180 118.870115 0.000000
v -55.595660 120.046706 -3.110278
v -58.021982 118.991711 -5.032536
v -61.021079 117.687667 -5.032535
v -63.447401 116.632672 -3.110277
v -64.374171 116.229700 0.000000
v -63.447399 116.632672 3.110278
v -61.021078 117.687667 5.032535
v -58.021981 118.991711 5.032534
v -55.595660 120.046706 3.110277
v -54.668889 120.449677 0.000000
v -58.043700 120.751140 -1.683270
v -59.356816 120.180181 -2.723589
v -60.979915 119.474437 -2.723588
v -62.293030 118.903478 -1.683270
v -62.794597 118.685391 0.000000
v -62.293030 118.903478 1.683270
v -60.979915 119.474437 2.723588
v -59.356816 120.180181 2.723588
v -58.043700 120.751140 1.683270
v -57.542135 120.969226 0.000000
v -54.427568 106.624378 0.000000
v -60.395515 120.349718 0.000000
vt 0.357343 0.446893
vt 0.357439 0.446884
vt 0.357397 0.446762
vt 0.357221 0.446775
vt 0.357554 0.446885
vt 0.357606 0.446763
vt 0.357646 0.446895
vt 0.357775 0.446779
vt 0.357681 0.446910
vt 0.357843 0.446804
vt 0.357643 0.446925
vt 0.357777 0.446830
vt 0.357545 0.446934
vt 0.357594 0.446846
vt 0.357426 0.446934
vt 0.357368 0.446845
vt 0.357332 0.446923
vt 0.357194 0.446827
vt 0.357302 0.446908
vt 0.357141 0.446800
vt 0.357370 0.446597
vt 0.357140 0.446612
vt 0.357640 0.446599
vt 0.357861 0.446616
vt 0.357953 0.446644
vt 0.357869 0.446673
vt 0.357628 0.446691
vt 0.357328 0.446689
vt 0.357099 0.446669
vt 0.357033 0.446639
vt 0.357360 0.446414
vt 0.357111 0.446426
vt 0.357652 0.446415
vt 0.357893 0.446429
vt 0.357994 0.446453
vt 0.357903 0.446478
vt 0.357641 0.446493
vt 0.357313 0.446492
vt 0.357065 0.446474
vt 0.356994 0.446449
vt 0.357370 0.446234
vt 0.357139 0.446243
vt 0.357642 0.446235
vt 0.357865 0.446245
vt 0.357958 0.446260
vt 0.357873 0.446277
vt 0.357630 0.446287
vt 0.357327 0.446286
vt 0.357097 0.446274
vt 0.357030 0.446258
vt 0.357398 0.446083
vt 0.357219 0.446087
vt 0.357609 0.446083
vt 0.357781 0.446088
vt 0.357850 0.446096
vt 0.357783 0.446104
vt 0.357597 0.446109
vt 0.357368 0.446109
vt 0.357192 0.446103
vt 0.357138 0.446095
vt 0.357441 0.445981
vt 0.357343 0.445982
vt 0.357557 0.445981
vt 0.357651 0.445983
vt 0.357687 0.445985
vt 0.357648 0.445988
vt 0.357549 0.445990
vt 0.357427 0.445990
vt 0.357332 0.445988
vt 0.357301 0.445985
vt 0.357491 0.446946
vt 0.357494 0.445947
vn 0.636148 -0.615645 -0.465077
vn 0.636148 -0.615645 -0.465077
vn 0.636148 -0.615645 -0.465077
vn 0.636148 -0.615645 -0.465077
vn 0.326275 -0.750381 -0.574867
vn 0.326275 -0.750381 -0.574867
vn 0.326275 -0.750381 -0.574867
vn 0.326275 -0.750381 -0.574867
vn 0.016403 -0.885118 -0.465077
vn 0.016403 -0.885118 -0.465077
vn 0.016403 -0.885118 -0.465077
vn 0.016403 -0.885118 -0.465077
vn -0.175110 -0.968391 -0.177641
vn -0.175110 -0.968391 -0.177641
vn -0.175110 -0.968391 -0.177641
vn -0.175110 -0.968391 -0.177641
vn -0.175109 -0.968390 0.177643
vn -0.175109 -0.968390 0.177643
vn -0.175109 -0.968390 0.177643
vn -0.175109 -0.968390 0.177643
vn 0.016403 -0.885118 0.465077
vn 0.016403 -0.885118 0.465077
vn 0.016403 -0.885118 0.465077
vn 0.016403 -0.885118 0.465077
vn 0.326275 -0.750381 0.574867
vn 0.326275 -0.750381 0.574867
vn 0.326275 -0.750381 0.574867
vn 0.326275 -0.750381 0.574867
vn 0.636148 -0.615645 0.465077
vn 0.636148 -0.615645 0.465077
vn 0.636148 -0.615645 0.465077
vn 0.636148 -0.615645 0.465077
vn 0.827660 -0.532374 0.177643
vn 0.827660 -0.532374 0.177643
vn 0.827660 -0.532373 0.177643
vn 0.827660 -0.532374 0.177643
vn 0.827660 -0.532374 -0.177643
vn 0.827660 -0.532374 -0.177643
vn 0.827660 -0.532374 -0.177643
vn 0.827660 -0.532374 -0.177643
vn 0.668811 -0.294039 -0.682813
vn 0.668811 -0.294039 -0.682813
vn 0.668811 -0.294039 -0.682813
vn 0.668811 -0.294039 -0.682813
vn 0.213865 -0.491855 -0.844003
vn 0.213865 -0.491855 -0.844002
vn 0.213865 -0.491855 -0.844002
vn 0.213865 -0.491855 -0.844003
vn -0.241082 -0.689671 -0.682813
vn -0.241082 -0.689671 -0.682813
vn -0.241082 -0.689671 -0.682813
vn -0.241082 -0.689671 -0.682813
vn -0.522254 -0.811929 -0.260811
vn -0.522254 -0.811929 -0.260811
vn -0.522254 -0.811929 -0.260811
vn -0.522254 -0.811929 -0.260811
vn -0.522254 -0.811929 0.260812
vn -0.522254 -0.811929 0.260812
vn -0.522254 -0.811929 0.260812
vn -0.522254 -0.811929 0.260812
vn -0.241081 -0.689671 0.682813
vn -0.241081 -0.689671 0.682813
vn -0.241081 -0.689671 0.682813
vn -0.241081 -0.689671 0.682813
vn 0.213865 -0.491856 0.844002
vn 0.213865 -0.491856 0.844002
vn 0.213865 -0.491856 0.844002
vn 0.213865 -0.491856 0.844002
vn 0.668810 -0.294038 0.682813
vn 0.668810 -0.294038 0.682813
vn 0.668810 -0.294038 0.682813
vn 0.668810 -0.294038 0.682813
vn 0.949984 -0.171782 0.260811
vn 0.949984 -0.171782 0.260811
vn 0.949984 -0.171782 0.260811
vn 0.949983 -0.171782 0.260811
vn 0.949984 -0.171782 -0.260811
vn 0.949984 -0.171782 -0.260811
vn 0.949984 -0.171782 -0.260811
vn 0.949984 -0.171782 -0.260811
vn 0.603760 0.059831 -0.794918
vn 0.603760 0.059831 -0.794918
vn 0.603760 0.059831 -0.794918
vn 0.603760 0.059831 -0.794918
vn 0.074119 -0.170464 -0.982572
vn 0.074119 -0.170464 -0.982572
vn 0.074119 -0.170464 -0.982572
vn 0.074119 -0.170464 -0.982572
vn -0.455522 -0.400758 -0.794917
vn -0.455522 -0.400758 -0.794917
vn -0.455522 -0.400758 -0.794917
vn -0.455522 -0.400758 -0.794917
vn -0.782857 -0.543087 -0.303632
vn -0.782857 -0.543087 -0.303632
vn -0.782856 -0.543087 -0.303632
vn -0.782856 -0.543087 -0.303632
vn -0.782857 -0.543087 0.303631
vn -0.782857 -0.543087 0.303631
vn -0.782857 -0.543087 0.303631
vn -0.782857 -0.543087 0.303631
vn -0.455520 -0.400757 0.794918
vn -0.455520 -0.400757 0.794918
vn -0.455520 -0.400757 0.794918
vn -0.455520 -0.400757 0.794918
vn 0.074120 -0.170463 0.982572
vn 0.074120 -0.170463 0.982572
vn 0.074120 -0.170463 0.982572
vn 0.074120 -0.170463 0.982572
vn 0.603761 0.059831 0.794917
vn 0.603761 0.059831 0.794917
vn 0.603761 0.059831 0.794917
vn 0.603761 0.059831 0.794917
vn 0.931096 0.202160 0.303632
vn 0.931096 0.202160 0.303632
vn 0.931096 0.202160 0.303632
vn 0.931096 0.202160 0.303632
vn 0.931096 0.202160 -0.303632
vn 0.931096 0.202160 -0.303632
vn 0.931096 0.202160 -0.303632
vn 0.931096 0.202160 -0.303632
vn 0.455521 0.400757 -0.794918
vn 0.455521 0.400757 -0.794918
vn 0.455521 0.400757 -0.794918
vn 0.455521 0.400757 -0.794918
vn -0.074120 0.170463 -0.982572
vn -0.074120 0.170463 -0.982572
vn -0.074120 0.170463 -0.982572
vn -0.074120 0.170463 -0.982573
vn -0.603760 -0.059831 -0.794918
vn -0.603760 -0.059831 -0.794918
vn -0.603760 -0.059831 -0.794918
vn -0.603760 -0.059831 -0.794918
vn -0.931095 -0.202161 -0.303632
vn -0.931095 -0.202161 -0.303632
vn -0.931095 -0.202161 -0.303632
vn -0.931095 -0.202161 -0.303632
vn -0.931095 -0.202161 0.303632
vn -0.931095 -0.202161 0.303632
vn -0.931095 -0.202161 0.303632
vn -0.931095 -0.202161 0.303632
vn -0.603760 -0.059831 0.794918
vn -0.603760 -0.059831 0.794918
vn -0.603760 -0.059831 0.794918
vn -0.603760 -0.059831 0.794918
vn -0.074119 0.170463 0.982573
vn -0.074119 0.170463 0.982573
vn -0.074119 0.170463 0.982573
vn -0.074119 0.170463 0.982573
vn 0.455521 0.400757 0.794918
vn 0.455521 0.400757 0.794918
vn 0.455521 0.400757 0.794918
vn 0.455521 0.400757 0.794918
vn 0.782857 0.543087 0.303632
vn 0.782857 0.543087 0.303632
vn 0.782857 0.543087 0.303632
vn 0.782857 0.543087 0.303632
vn 0.782857 0.543087 -0.303631
vn 0.782857 0.543087 -0.303631
vn 0.782857 0.543087 -0.303631
vn 0.782857 0.543087 -0.303631
vn 0.241079 0.689674 -0.682810
vn 0.241079 0.689674 -0.682810
vn 0.241079 0.689674 -0.682810
vn 0.241079 0.689674 -0.682810
vn -0.213867 0.491859 -0.844000
vn -0.213867 0.491859 -0.844000
vn -0.213867 0.491859 -0.844000
vn -0.213867 0.491859 -0.844000
vn -0.668810 0.294042 -0.682812
vn -0.668810 0.294042 -0.682812
vn -0.668810 0.294042 -0.682812
vn -0.668810 0.294042 -0.682812
vn -0.949983 0.171786 -0.260809
vn -0.949983 0.171786 -0.260809
vn -0.949983 0.171786 -0.260809
vn -0.949983 0.171786 -0.260809
vn -0.949983 0.171786 0.260810
vn -0.949983 0.171786 0.260810
vn -0.949983 0.171786 0.260810
vn -0.949983 0.171786 0.260810
vn -0.668811 0.294043 0.682811
vn -0.668811 0.294043 0.682810
vn -0.668811 0.294043 0.682810
vn -0.668811 0.294043 0.682810
vn -0.213866 0.491859 0.844000
vn -0.213866 0.491859 0.844000
vn -0.213866 0.491859 0.844000
vn -0.213866 0.491859 0.844000
vn 0.241079 0.689674 0.682811
vn 0.241079 0.689674 0.682811
vn 0.241079 0.689674 0.682811
vn 0.241079 0.689674 0.682811
vn 0.522251 0.811931 0.260810
vn 0.522251 0.811931 0.260810
vn 0.522251 0.811931 0.260810
vn 0.522251 0.811931 0.260810
vn 0.522251 0.811931 -0.260810
vn 0.522251 0.811931 -0.260810
vn 0.522251 0.811931 -0.260810
vn 0.522251 0.811931 -0.260810
vn -0.016404 0.885120 -0.465074
vn -0.016404 0.885120 -0.465074
vn -0.016404 0.885120 -0.465074
vn -0.016404 0.885120 -0.465074
vn -0.326276 0.750383 -0.574865
vn -0.326276 0.750383 -0.574864
vn -0.326276 0.750383 -0.574865
vn -0.326276 0.750383 -0.574864
vn -0.636147 0.615647 -0.465076
vn -0.636147 0.615647 -0.465076
vn -0.636147 0.615647 -0.465076
vn -0.636147 0.615647 -0.465076
vn -0.827659 0.532376 -0.177643
vn -0.827659 0.532375 -0.177643
vn -0.827659 0.532376 -0.177643
vn -0.827659 0.532376 -0.177643
vn -0.827658 0.532375 0.177647
vn -0.827658 0.532375 0.177647
vn -0.827658 0.532375 0.177647
vn -0.827658 0.532375 0.177647
vn -0.636148 0.615647 0.465074
vn -0.636148 0.615647 0.465074
vn -0.636148 0.615647 0.465074
vn -0.636148 0.615647 0.465074
vn -0.326276 0.750383 0.574864
vn -0.326276 0.750383 0.574864
vn -0.326276 0.750383 0.574864
vn -0.326276 0.750383 0.574864
vn -0.016404 0.885118 0.465077
vn -0.016404 0.885118 0.465077
vn -0.016404 0.885118 0.465077
vn -0.016404 0.885118 0.465077
vn 0.175107 0.968391 0.177643
vn 0.175107 0.968391 0.177643
vn 0.175107 0.968391 0.177643
vn 0.175107 0.968391 0.177643
vn 0.175107 0.968391 -0.177643
vn 0.175107 0.968391 -0.177643
vn 0.175107 0.968391 -0.177643
vn 0.175107 0.968391 -0.177643
vn 0.500655 -0.849656 -0.165618
vn 0.500655 -0.849656 -0.165618
vn 0.500655 -0.849656 -0.165618
vn 0.390304 -0.897638 -0.204716
vn 0.390304 -0.897638 -0.204716
vn 0.390304 -0.897638 -0.204716
vn 0.279954 -0.945620 -0.165615
vn 0.279954 -0.945620 -0.165615
vn 0.279954 -0.945620 -0.165615
vn 0.211753 -0.975274 -0.063256
vn 0.211753 -0.975274 -0.063256
vn 0.211753 -0.975274 -0.063256
vn 0.211754 -0.975274 0.063256
vn 0.211754 -0.975274 0.063256
vn 0.211754 -0.975274 0.063256
vn 0.279954 -0.945620 0.165618
vn 0.279954 -0.945620 0.165618
vn 0.279954 -0.945620 0.165618
vn 0.390304 -0.897638 0.204716
vn 0.390304 -0.897638 0.204716
vn 0.390304 -0.897638 0.204716
vn 0.500655 -0.849657 0.165615
vn 0.500655 -0.849657 0.165615
vn 0.500655 -0.849657 0.165615
vn 0.568854 -0.820001 0.063269
vn 0.568854 -0.820001 0.063269
vn 0.568854 -0.820001 0.063269
vn 0.568854 -0.820001 -0.063269
vn 0.568854 -0.820001 -0.063269
vn 0.568854 -0.820001 -0.063269
vn -0.279949 0.945620 -0.165627
vn -0.279949 0.945620 -0.165627
vn -0.279949 0.945620 -0.165627
vn -0.390304 0.897638 -0.204716
vn -0.390304 0.897638 -0.204716
vn -0.390304 0.897638 -0.204716
vn -0.500659 0.849654 -0.165618
vn -0.500659 0.849654 -0.165618
vn -0.500659 0.849654 -0.165618
vn -0.568861 0.819997 -0.063256
vn -0.568861 0.819997 -0.063256
vn -0.568861 0.819997 -0.063256
vn -0.568860 0.819997 0.063269
vn -0.568860 0.819997 0.063269
vn -0.568860 0.819997 0.063269
vn -0.500659 0.849654 0.165615
vn -0.500659 0.849654 0.165615
vn -0.500659 0.849654 0.165615
vn -0.390304 0.897638 0.204716
vn -0.390304 0.897638 0.204716
vn -0.390304 0.897638 0.204716
vn -0.279949 0.945619 0.165630
vn -0.279949 0.945619 0.165630
vn -0.279949 0.945619 0.165630
vn -0.211746 0.975276 0.063256
vn -0.211746 0.975276 0.063256
vn -0.211746 0.975276 0.063256
vn -0.211746 0.975276 -0.063256
vn -0.211746 0.975276 -0.063256
vn -0.211746 0.975276 -0.063256
s off
f 1/1/1 2/2/2 12/3/3 11/4/4
f 2/2/5 3/5/6 13/6/7 12/3/8
f 3/5/9 4/7/10 14/8/11 13/6/12
f 4/7/13 5/9/14 15/10/15 14/8/16
f 5/9/17 6/11/18 16/12/19 15/10/20
f 6/11/21 7/13/22 17/14/23 16/12/24
f 7/13/25 8/15/26 18/16/27 17/14/28
f 8/15/29 9/17/30 19/18/31 18/16/32
f 9/17/33 10/19/34 20/20/35 19/18/36
f 10/19/37 1/1/38 11/4/39 20/20/40
f 11/4/41 12/3/42 22/21/43 21/22/44
f 12/3/45 13/6/46 23/23/47 22/21/48
f 13/6/49 14/8/50 24/24/51 23/23/52
f 14/8/53 15/10/54 25/25/55 24/24/56
f 15/10/57 16/12/58 26/26/59 25/25/60
f 16/12/61 17/14/62 27/27/63 26/26/64
f 17/14/65 18/16/66 28/28/67 27/27/68
f 18/16/69 19/18/70 29/29/71 28/28/72
f 19/18/73 20/20/74 30/30/75 29/29/76
f 20/20/77 11/4/78 21/22/79 30/30/80
f 21/22/81 22/21/82 32/31/83 31/32/84
f 22/21/85 23/23/86 33/33/87 32/31/88
f 23/23/89 24/24/90 34/34/91 33/33/92
f 24/24/93 25/25/94 35/35/95 34/34/96
f 25/25/97 26/26/98 36/36/99 35/35/100
f 26/26/101 27/27/102 37/37/103 36/36/104
f 27/27/105 28/28/106 38/38/107 37/37/108
f 28/28/109 29/29/110 39/39/111 38/38/112
f 29/29/113 30/30/114 40/40/115 39/39/116
f 30/30/117 21/22/118 31/32/119 40/40/120
f 31/32/121 32/31/122 42/41/123 41/42/124
f 32/31/125 33/33/126 43/43/127 42/41/128
f 33/33/129 34/34/130 44/44/131 43/43/132
f 34/34/133 35/35/134 45/45/135 44/44/136
f 35/35/137 36/36/138 46/46/139 45/45/140
f 36/36/141 37/37/142 47/47/143 46/46/144
f 37/37/145 38/38/146 48/48/147 47/47/148
f 38/38/149 39/39/150 49/49/151 48/48/152
f 39/39/153 40/40/154 50/50/155 49/49/156
f 40/40/157 31/32/158 41/42/159 50/50/160
f 41/42/161 42/41/162 52/51/163 51/52/164
f 42/41/165 43/43/166 53/53/167 52/51/168
f 43/43/169 44/44/170 54/54/171 53/53/172
f 44/44/173 45/45/174 55/55/175 54/54/176
f 45/45/177 46/46/178 56/56/179 55/55/180
f 46/46/181 47/47/182 57/57/183 56/56/184
f 47/47/185 48/48/186 58/58/187 57/57/188
f 48/48/189 49/49/190 59/59/191 58/58/192
f 49/49/193 50/50/194 60/60/195 59/59/196
f 50/50/197 41/42/198 51/52/199 60/60/200
f 51/52/201 52/51/202 62/61/203 61/62/204
f 52/51/205 53/53/206 63/63/207 62/61/208
f 53/53/209 54/54/210 64/64/211 63/63/212
f 54/54/213 55/55/214 65/65/215 64/64/216
f 55/55/217 56/56/218 66/66/219 65/65/220
f 56/56/221 57/57/222 67/67/223 66/66/224
f 57/57/225 58/58/226 68/68/227 67/67/228
f 58/58/229 59/59/230 69/69/231 68/68/232
f 59/59/233 60/60/234 70/70/235 69/69/236
f 60/60/237 51/52/238 61/62/239 70/70/240
f 2/2/241 1/1/242 71/71/243
f 3/5/244 2/2/245 71/71/246
f 4/7/247 3/5/248 71/71/249
f 5/9/250 4/7/251 71/71/252
f 6/11/253 5/9/254 71/71/255
f 7/13/256 6/11/257 71/71/258
f 8/15/259 7/13/260 71/71/261
f 9/17/262 8/15/263 71/71/264
f 10/19/265 9/17/266 71/71/267
f 1/1/268 10/19/269 71/71/270
f 61/62/271 62/61/272 72/72/273
f 62/61/274 63/63/275 72/72/276
f 63/63/277 64/64/278 72/72/279
f 64/64/280 65/65/281 72/72/282
f 65/65/283 66/66/284 72/72/285
f 66/66/286 67/67/287 72/72/288
f 67/67/289 68/68/290 72/72/291
f 68/68/292 69/69/293 72/72/294
f 69/69/295 70/70/296 72/72/297
f 70/70/298 61/62/299 72/72/300
