# This file uses centimeters as units for non-parametric coordinates.

v -4.037226 106.104637 2.330887
v -4.037226 106.104637 -2.330884
v -0.000012 106.104637 -4.661769
v 4.037197 106.104637 -2.330884
v 4.037197 106.104637 2.330886
v -0.000012 106.104637 4.661770
v -3.454672 96.922806 1.994546
v -3.454672 96.922806 -1.994545
v -0.000012 96.922806 -3.989090
v 3.454638 96.922806 -1.994547
v 3.454638 96.922806 1.994546
v -0.000012 96.922806 3.989091
v -4.005135 97.879570 2.312356
v -4.005135 97.879570 -2.312355
v -0.000012 97.879570 -4.624711
v 4.005102 97.879570 -2.312357
v 4.005102 97.879570 2.312356
v -0.000012 97.879570 4.624711
v -2.551459 104.006310 1.473079
v -2.551459 104.006310 -1.473076
v -0.000012 104.006310 -2.946154
v 2.551432 104.006310 -1.473077
v 2.551432 104.006310 1.473078
v -0.000012 104.006310 2.946156
v -2.528819 -5.154251 1.460006
v -2.528819 -5.154251 -1.460005
v -0.000011 -5.154251 -2.920010
v 2.528789 -5.154251 -1.460006
v 2.528789 -5.154251 1.460006
v -0.000011 -5.154251 2.920011
v 3.171703 114.034897 -11.434090
v -3.171724 114.034897 -11.434090
v -6.343437 108.541321 -11.434090
v -3.171725 103.047760 -11.434090
v 3.171701 103.047760 -11.434090
v 6.343414 108.541321 -11.434090
v 3.143557 113.986145 5.039206
v -3.143577 113.986145 5.039206
v -6.287145 108.541321 5.039206
v -3.143578 103.096512 5.039206
v 3.143555 103.096512 5.039206
v 6.287122 108.541321 5.039206
v 5.082707 108.541321 -13.264906
v 2.541350 112.943085 -13.264906
v 2.541348 104.139557 -13.264906
v -2.541372 104.139557 -13.264906
v -5.082730 108.541321 -13.264906
v -2.541370 112.943085 -13.264906
v -1.377408 109.918716 -11.748642
v 1.377385 109.918716 -11.748642
v -1.377408 109.918716 -97.655243
v 1.377385 109.918716 -97.655243
v -1.377408 107.163925 -97.655243
v 1.377385 107.163925 -97.655243
v -1.377408 107.163925 -11.748642
v 1.377385 107.163925 -11.748642
v 0.677063 118.160591 -63.301968
v 0.677063 109.918732 -47.012367
v 0.677063 125.053230 -96.483177
v 0.677063 109.918724 -96.483177
v -0.677101 125.053230 -96.483177
v -0.677101 109.918724 -96.483177
v -0.677101 118.160591 -63.301968
v -0.677101 109.918732 -47.012367
vt 0.436169 0.022581
vt 0.436162 0.023365
vt 0.436541 0.023402
vt 0.436549 0.022626
vt 0.436099 0.022470
vt 0.436092 0.023273
vt 0.436425 0.022402
vt 0.436418 0.023217
vt 0.436817 0.022451
vt 0.436809 0.023257
vt 0.436870 0.022563
vt 0.436862 0.023350
vt 0.436542 0.023322
vt 0.436163 0.023284
vt 0.436093 0.023189
vt 0.436418 0.023132
vt 0.436810 0.023173
vt 0.436863 0.023268
vt 0.090082 0.020111
vt 0.090054 0.021109
vt 0.090027 0.021106
vt 0.090053 0.020111
vt 0.090099 0.020110
vt 0.090069 0.021098
vt 0.090086 0.020109
vt 0.090057 0.021085
vt 0.090057 0.020109
vt 0.090032 0.021082
vt 0.090040 0.020110
vt 0.090017 0.021093
vt 0.433200 0.024152
vt 0.433233 0.024301
vt 0.433183 0.024533
vt 0.433098 0.024623
vt 0.433062 0.024476
vt 0.433114 0.024237
vt 0.433022 0.024184
vt 0.432297 0.024055
vt 0.432418 0.023957
vt 0.433131 0.024080
vt 0.432957 0.024483
vt 0.432233 0.024343
vt 0.433004 0.024666
vt 0.432293 0.024522
vt 0.433112 0.024553
vt 0.432412 0.024416
vt 0.433174 0.024266
vt 0.432473 0.024139
vt 0.433814 0.036192
vt 0.433795 0.036199
vt 0.433840 0.035212
vt 0.433861 0.035207
vt 0.433825 0.035204
vt 0.433846 0.035199
vt 0.433781 0.036188
vt 0.433800 0.036181
vt 0.103641 0.206128
vt 0.103641 0.206184
vt 0.104623 0.206368
vt 0.104632 0.205988
vt 0.104627 0.206372
vt 0.104636 0.205989
vt 0.103636 0.206186
vt 0.103636 0.206130
vn -0.866780 -0.498691 0.000000
vn -0.866780 -0.498691 0.000000
vn -0.866780 -0.498691 0.000000
vn -0.866780 -0.498691 0.000000
vn -0.433389 -0.498691 -0.750654
vn -0.433389 -0.498691 -0.750654
vn -0.433389 -0.498691 -0.750654
vn -0.433389 -0.498691 -0.750654
vn 0.433390 -0.498692 -0.750653
vn 0.433390 -0.498692 -0.750653
vn 0.433390 -0.498692 -0.750653
vn 0.433390 -0.498692 -0.750653
vn 0.866779 -0.498692 -0.000000
vn 0.866779 -0.498692 -0.000000
vn 0.866779 -0.498692 -0.000000
vn 0.866779 -0.498692 -0.000000
vn 0.433390 -0.498691 0.750653
vn 0.433390 -0.498691 0.750653
vn 0.433390 -0.498691 0.750653
vn 0.433390 -0.498691 0.750653
vn -0.433389 -0.498691 0.750653
vn -0.433389 -0.498691 0.750653
vn -0.433389 -0.498691 0.750653
vn -0.433389 -0.498691 0.750653
vn -0.000000 -1.000000 0.000000
vn -0.000000 -1.000000 0.000000
vn -0.000000 -1.000000 0.000000
vn -0.000000 -1.000000 0.000000
vn -0.000000 -1.000000 0.000000
vn -0.000000 -1.000000 0.000000
vn -0.999992 -0.003902 0.000000
vn -0.999992 -0.003902 0.000000
vn -0.999992 -0.003902 0.000000
vn -0.999992 -0.003902 0.000000
vn -0.499996 -0.003902 -0.866019
vn -0.499996 -0.003902 -0.866019
vn -0.499996 -0.003902 -0.866019
vn -0.499996 -0.003902 -0.866019
vn 0.499996 -0.003902 -0.866019
vn 0.499996 -0.003902 -0.866019
vn 0.499996 -0.003902 -0.866019
vn 0.499996 -0.003902 -0.866019
vn 0.999992 -0.003902 -0.000000
vn 0.999992 -0.003902 -0.000000
vn 0.999992 -0.003902 -0.000000
vn 0.999992 -0.003902 -0.000000
vn 0.499996 -0.003902 0.866019
vn 0.499996 -0.003902 0.866019
vn 0.499996 -0.003902 0.866019
vn 0.499996 -0.003902 0.866019
vn -0.499996 -0.003902 0.866019
vn -0.499996 -0.003902 0.866019
vn -0.499996 -0.003902 0.866019
vn -0.499996 -0.003902 0.866019
vn -1.000000 -0.000207 0.000000
vn -1.000000 -0.000207 0.000000
vn -1.000000 -0.000207 0.000000
vn -1.000000 -0.000207 0.000000
vn -0.500000 -0.000207 -0.866026
vn -0.499999 -0.000207 -0.866026
vn -0.499999 -0.000207 -0.866026
vn -0.500000 -0.000207 -0.866026
vn 0.500000 -0.000207 -0.866025
vn 0.500000 -0.000207 -0.866025
vn 0.500000 -0.000207 -0.866025
vn 0.500000 -0.000207 -0.866025
vn 1.000000 -0.000207 0.000000
vn 1.000000 -0.000207 0.000000
vn 1.000000 -0.000207 0.000000
vn 1.000000 -0.000207 0.000000
vn 0.500000 -0.000207 0.866025
vn 0.500000 -0.000207 0.866025
vn 0.500000 -0.000207 0.866025
vn 0.500000 -0.000207 0.866025
vn -0.499999 -0.000207 0.866026
vn -0.499999 -0.000207 0.866026
vn -0.499999 -0.000207 0.866026
vn -0.499999 -0.000207 0.866026
vn 0.000000 0.000000 -1.000000
vn 0.000000 0.000000 -1.000000
vn 0.000000 0.000000 -1.000000
vn 0.000000 0.000000 -1.000000
vn 0.000000 0.000000 -1.000000
vn 0.000000 0.000000 -1.000000
vn 0.000000 0.999996 0.002959
vn 0.000000 0.999996 0.002959
vn 0.000000 0.999996 0.002959
vn 0.000000 0.999996 0.002959
vn -0.866022 0.499997 0.002960
vn -0.866022 0.499997 0.002960
vn -0.866022 0.499997 0.002960
vn -0.866022 0.499997 0.002960
vn -0.866021 -0.499998 0.002959
vn -0.866021 -0.499998 0.002959
vn -0.866021 -0.499998 0.002959
vn -0.866021 -0.499998 0.002959
vn 0.000000 -0.999996 0.002959
vn 0.000000 -0.999996 0.002959
vn 0.000000 -0.999996 0.002959
vn 0.000000 -0.999996 0.002959
vn 0.866021 -0.499998 0.002960
vn 0.866021 -0.499998 0.002960
vn 0.866021 -0.499998 0.002960
vn 0.866021 -0.499998 0.002960
vn 0.866022 0.499997 0.002960
vn 0.866022 0.499997 0.002960
vn 0.866022 0.499997 0.002960
vn 0.866022 0.499997 0.002960
vn 0.743806 0.429436 -0.512189
vn 0.743806 0.429436 -0.512189
vn 0.743806 0.429436 -0.512189
vn 0.743806 0.429436 -0.512189
vn 0.743806 -0.429437 -0.512187
vn 0.743806 -0.429437 -0.512187
vn 0.743806 -0.429437 -0.512187
vn 0.743806 -0.429437 -0.512187
vn 0.000000 -0.858876 -0.512184
vn 0.000000 -0.858876 -0.512184
vn 0.000000 -0.858876 -0.512184
vn 0.000000 -0.858876 -0.512184
vn -0.743806 -0.429437 -0.512188
vn -0.743806 -0.429437 -0.512187
vn -0.743806 -0.429437 -0.512187
vn -0.743806 -0.429437 -0.512187
vn -0.743806 0.429436 -0.512189
vn -0.743806 0.429436 -0.512189
vn -0.743806 0.429436 -0.512189
vn -0.743806 0.429436 -0.512189
vn 0.000000 0.858871 -0.512193
vn 0.000000 0.858871 -0.512193
vn 0.000000 0.858871 -0.512193
vn 0.000000 0.858871 -0.512193
vn 0.000000 1.000000 0.000000
vn 0.000000 1.000000 0.000000
vn 0.000000 1.000000 0.000000
vn 0.000000 1.000000 0.000000
vn 0.000000 0.000000 -1.000000
vn 0.000000 0.000000 -1.000000
vn 0.000000 0.000000 -1.000000
vn 0.000000 0.000000 -1.000000
vn 0.000000 -1.000000 0.000000
vn 0.000000 -1.000000 0.000000
vn 0.000000 -1.000000 0.000000
vn 0.000000 -1.000000 0.000000
vn 1.000000 0.000000 0.000000
vn 1.000000 0.000000 0.000000
vn 1.000000 0.000000 0.000000
vn 1.000000 0.000000 0.000000
vn -1.000000 0.000000 0.000000
vn -1.000000 0.000000 0.000000
vn -1.000000 0.000000 0.000000
vn -1.000000 0.000000 0.000000
vn 1.000000 0.000000 0.000000
vn 1.000000 0.000000 0.000000
vn 1.000000 0.000000 0.000000
vn 1.000000 0.000000 0.000000
vn 0.000000 0.000000 -1.000000
vn 0.000000 0.000000 -1.000000
vn 0.000000 0.000000 -1.000000
vn 0.000000 0.000000 -1.000000
vn -1.000000 0.000000 0.000000
vn -1.000000 0.000000 0.000000
vn -1.000000 0.000000 0.000000
vn -1.000000 0.000000 0.000000
vn 0.000000 0.892290 0.451462
vn 0.000000 0.892290 0.451462
vn 0.000000 0.892290 0.451462
vn 0.000000 0.892290 0.451462
vn 0.000000 0.979099 0.203386
vn 0.000000 0.979099 0.203386
vn 0.000000 0.979099 0.203386
vn 0.000000 0.979099 0.203386
s off
f 13/13/1 14/14/2 8/2/3 7/3/4
f 14/14/5 15/15/6 9/6/7 8/2/8
f 15/15/9 16/16/10 10/8/11 9/6/12
f 16/16/13 17/17/14 11/10/15 10/8/16
f 17/17/17 18/18/18 12/12/19 11/10/20
f 18/18/21 13/13/22 7/3/23 12/12/24
f 10/8/25 11/10/26 12/12/27 7/3/28 8/2/29 9/6/30
f 2/1/31 14/14/32 13/13/33 1/4/34
f 3/5/35 15/15/36 14/14/37 2/1/38
f 4/7/39 16/16/40 15/15/41 3/5/42
f 5/9/43 17/17/44 16/16/45 4/7/46
f 6/11/47 18/18/48 17/17/49 5/9/50
f 1/4/51 13/13/52 18/18/53 6/11/54
f 20/19/55 26/20/56 25/21/57 19/22/58
f 21/23/59 27/24/60 26/20/61 20/19/62
f 22/25/63 28/26/64 27/24/65 21/23/66
f 23/27/67 29/28/68 28/26/69 22/25/70
f 24/29/71 30/30/72 29/28/73 23/27/74
f 19/22/75 25/21/76 30/30/77 24/29/78
f 44/31/79 43/32/80 45/33/81 46/34/82 47/35/83 48/36/84
f 32/37/85 38/38/86 37/39/87 31/40/88
f 33/41/89 39/42/90 38/38/91 32/37/92
f 34/43/93 40/44/94 39/42/95 33/41/96
f 35/45/97 41/46/98 40/44/99 34/43/100
f 36/47/101 42/48/102 41/46/103 35/45/104
f 31/40/105 37/39/106 42/48/107 36/47/108
f 31/40/109 36/47/110 43/32/111 44/31/112
f 36/47/113 35/45/114 45/33/115 43/32/116
f 35/45/117 34/43/118 46/34/119 45/33/120
f 34/43/121 33/41/122 47/35/123 46/34/124
f 33/41/125 32/37/126 48/36/127 47/35/128
f 32/37/129 31/40/130 44/31/131 48/36/132
f 49/49/133 50/50/134 52/51/135 51/52/136
f 51/52/137 52/51/138 54/53/139 53/54/140
f 53/54/141 54/53/142 56/55/143 55/56/144
f 50/50/145 56/55/146 54/53/147 52/51/148
f 55/56/149 49/49/150 51/52/151 53/54/152
f 57/57/153 58/58/154 60/59/155 59/60/156
f 59/60/157 60/59/158 62/61/159 61/62/160
f 61/62/161 62/61/162 64/63/163 63/64/164
f 63/64/165 64/63/166 58/58/167 57/57/168
f 63/64/169 57/57/170 59/60/171 61/62/172
