# This file uses centimeters as units for non-parametric coordinates.

v 19.494141 1.565430 6.937988
v 19.494141 23.715088 6.937988
v -10.011719 1.565430 6.937988
v -10.009766 23.715088 6.937988
v -10.011719 1.565430 -5.454590
v -10.009766 23.715088 -5.454590
v 19.494141 1.565430 -5.454590
v 19.494141 23.715088 -5.454590
v 19.494141 41.277344 6.937988
v 19.494141 67.608887 6.937988
v -10.009766 41.277588 6.937988
v -10.009766 67.608887 6.937988
v -10.009766 41.277588 -5.454590
v -10.009766 67.608887 -5.454590
v 19.494141 41.277344 -5.454590
v 19.494141 67.608887 -5.454590
v 19.494141 84.909180 6.937988
v 19.494141 106.911377 6.937988
v -10.009766 84.909180 6.937988
v -10.009766 106.911377 6.937988
v -10.009766 84.909180 -5.454590
v -10.009766 106.911377 -5.454590
v 19.494141 84.909180 -5.454590
v 19.494141 106.911377 -5.454590
v 164.944336 24.193359 6.937988
v 185.098633 80.387695 6.937988
v 34.792969 14.527832 6.937988
v 34.792969 93.948975 6.937988
v 32.748047 14.077637 -5.454590
v 32.748047 94.398926 -5.454590
v 164.943359 24.193359 -5.454590
v 164.943359 84.061279 -5.454590
v 81.173828 18.439453 6.937988
v 81.173828 90.037109 6.937988
v 81.173828 90.037109 -5.454590
v 81.173828 18.439453 -5.454590
v 76.132813 101.190918 6.937988
v 76.132813 101.190918 -5.454590
v 76.132813 7.285889 -5.454590
v 76.132813 7.285889 6.937988
v 350.095703 52.329590 6.937988
v 383.441406 57.658936 6.937988
v 385.881836 57.343506 -5.454590
v 350.095703 52.329590 -5.454590
v 226.342773 50.527344 6.937988
v 32.748047 56.191406 6.937988
v 45.774414 30.596924 6.937988
v 32.748047 75.804688 6.937988
v 42.242188 87.701660 6.937988
v 182.995117 14.926758 6.937988
v 183.744141 14.920898 -5.454590
v 179.991211 93.197998 6.938232
v 182.313477 93.236572 -5.454590
v 0.492188 1.565430 12.765869
v 0.492188 23.715332 12.765869
v 0.492188 23.715332 -11.282471
v 0.492188 1.565430 -11.282471
v 0.492188 41.277832 12.765869
v 0.492188 67.608887 12.765869
v 0.492188 67.608887 -11.282471
v 0.492188 41.277832 -11.282471
v 0.493164 84.909180 12.765869
v 0.493164 106.911377 12.765869
v 0.492188 106.911377 -11.282471
v 0.492188 84.909180 -11.282471
v 379.014648 43.776123 6.937988
v 381.734375 44.345703 -5.454590
vt 0.167569 0.012869
vt 0.167560 0.012870
vt 0.167561 0.012881
vt 0.167569 0.012880
vt 0.167560 0.012881
vt 0.167568 0.012881
vt 0.167560 0.012871
vt 0.167568 0.012871
vt 0.167545 0.012870
vt 0.167537 0.012870
vt 0.167537 0.012881
vt 0.167545 0.012881
vt 0.167537 0.012882
vt 0.167545 0.012882
vt 0.167537 0.012871
vt 0.167545 0.012871
vt 0.167533 0.012870
vt 0.167525 0.012870
vt 0.167525 0.012881
vt 0.167533 0.012881
vt 0.167526 0.012882
vt 0.167533 0.012882
vt 0.167526 0.012871
vt 0.167533 0.012871
vt 0.019501 0.038181
vt 0.019293 0.038181
vt 0.019296 0.038199
vt 0.019498 0.038205
vt 0.019352 0.038290
vt 0.020383 0.037738
vt 0.020373 0.038738
vt 0.019446 0.038292
vt 0.019361 0.038292
vt 0.167624 0.012852
vt 0.167624 0.012855
vt 0.167627 0.012855
vt 0.167629 0.012852
vt 0.167627 0.012855
vt 0.167629 0.012852
vt 0.167630 0.012855
vt 0.167619 0.012705
vt 0.167624 0.012716
vt 0.167624 0.012719
vt 0.167620 0.012710
vt 0.167620 0.012709
vt 0.167624 0.012719
vt 0.167624 0.012716
vt 0.167619 0.012705
vt 0.167619 0.012852
vt 0.167620 0.012832
vt 0.167619 0.012833
vt 0.167619 0.012855
vt 0.167629 0.012825
vt 0.167630 0.012825
vt 0.167619 0.012833
vt 0.167620 0.012832
vt 0.167629 0.012702
vt 0.167628 0.012706
vt 0.167629 0.012824
vt 0.167629 0.012824
vt 0.167628 0.012707
vt 0.167629 0.012702
vt 0.167625 0.012714
vt 0.167625 0.012714
vt 0.020383 0.037739
vt 0.019301 0.038302
vt 0.019486 0.038302
vt 0.020373 0.038725
vt 0.019808 0.010094
vt 0.019819 0.010084
vt 0.019827 0.010092
vt 0.019850 0.009884
vt 0.019862 0.009876
vt 0.019859 0.009921
vt 0.167619 0.012855
vt 0.167629 0.012855
vt 0.167620 0.012852
vt 0.019848 0.010094
vt 0.019818 0.009875
vt 0.019809 0.009882
vt 0.019805 0.009876
vt 0.019458 0.038184
vt 0.019295 0.038199
vt 0.019310 0.038184
vt 0.019341 0.038181
vt 0.019392 0.038181
vt 0.019832 0.009875
vt 0.019499 0.038205
vt 0.019805 0.009897
vt 0.167624 0.012855
vt 0.167622 0.012855
vt 0.167621 0.012855
vt 0.167621 0.012855
vt 0.167621 0.012855
vt 0.167622 0.012852
vt 0.167568 0.012853
vt 0.167560 0.012853
vt 0.167560 0.012855
vt 0.167568 0.012854
vt 0.167545 0.012854
vt 0.167537 0.012854
vt 0.167537 0.012855
vt 0.167545 0.012855
vt 0.167533 0.012854
vt 0.167525 0.012854
vt 0.167526 0.012856
vt 0.167534 0.012855
vt 0.019393 0.038293
vn -0.485192 0.000021 0.874407
vn -0.485192 0.000021 0.874407
vn -0.485192 0.000021 0.874407
vn -0.485192 0.000021 0.874407
vn -1.000000 0.000088 0.000000
vn -1.000000 0.000088 0.000000
vn -1.000000 0.000088 0.000000
vn -1.000000 0.000088 0.000000
vn -0.485192 0.000021 -0.874407
vn -0.485192 0.000021 -0.874407
vn -0.485192 0.000021 -0.874407
vn -0.485192 0.000021 -0.874407
vn -0.000023 1.000000 0.000000
vn -0.000023 1.000000 0.000000
vn -0.000023 1.000000 0.000000
vn -0.000023 1.000000 0.000000
vn 0.000000 -1.000000 0.000000
vn 0.000000 -1.000000 0.000000
vn 0.000000 -1.000000 0.000000
vn 0.000000 -1.000000 0.000000
vn -0.485227 0.000000 0.874388
vn -0.485227 0.000000 0.874388
vn -0.485227 0.000000 0.874388
vn -0.485227 0.000000 0.874388
vn -1.000000 0.000000 0.000000
vn -1.000000 0.000000 0.000000
vn -1.000000 0.000000 0.000000
vn -1.000000 0.000000 0.000000
vn -0.485227 0.000000 -0.874388
vn -0.485227 0.000000 -0.874388
vn -0.485227 0.000000 -0.874388
vn -0.485227 0.000000 -0.874388
vn 0.000000 1.000000 0.000000
vn 0.000000 1.000000 0.000000
vn 0.000000 1.000000 0.000000
vn 0.000000 1.000000 0.000000
vn 0.000023 -1.000000 0.000000
vn 0.000023 -1.000000 0.000000
vn 0.000023 -1.000000 0.000000
vn 0.000023 -1.000000 0.000000
vn -0.485192 0.000000 0.874407
vn -0.485192 0.000000 0.874407
vn -0.485192 0.000000 0.874407
vn -0.485192 0.000000 0.874407
vn -1.000000 0.000000 0.000000
vn -1.000000 0.000000 0.000000
vn -1.000000 0.000000 0.000000
vn -1.000000 0.000000 0.000000
vn -0.485227 0.000000 -0.874388
vn -0.485227 0.000000 -0.874388
vn -0.485227 0.000000 -0.874388
vn -0.485227 0.000000 -0.874388
vn 0.000000 1.000000 0.000000
vn 0.000000 1.000000 0.000000
vn 0.000000 1.000000 0.000000
vn 0.000000 1.000000 0.000000
vn 0.000000 -1.000000 0.000000
vn 0.000000 -1.000000 0.000000
vn 0.000000 -1.000000 0.000000
vn 0.000000 -1.000000 0.000000
vn -0.000000 0.000000 -1.000000
vn -0.000000 0.000000 -1.000000
vn -0.000000 0.000000 -1.000000
vn -0.000000 0.000000 -1.000000
vn 0.000000 0.000000 1.000000
vn 0.000000 0.000000 1.000000
vn 0.000000 0.000000 1.000000
vn 0.000000 0.000000 1.000000
vn 0.000000 0.000000 1.000000
vn 0.000000 0.000000 1.000000
vn 0.000000 0.000000 1.000000
vn 0.000000 0.000000 1.000000
vn 0.000000 0.000000 1.000000
vn 0.000000 0.000000 -1.000000
vn 0.000000 0.000000 -1.000000
vn 0.000000 0.000000 -1.000000
vn -0.000000 0.000000 -1.000000
vn -0.000000 0.000000 -1.000000
vn -0.000000 0.000000 -1.000000
vn -0.000000 0.000000 -1.000000
vn -0.000001 -0.000011 1.000000
vn -0.000001 -0.000011 1.000000
vn -0.000001 -0.000011 1.000000
vn -0.000001 -0.000011 1.000000
vn 0.000000 0.000000 1.000000
vn 0.000000 0.000000 1.000000
vn 0.000000 0.000000 1.000000
vn 0.000000 0.000000 1.000000
vn 0.000000 0.000000 -1.000000
vn 0.000000 0.000000 -1.000000
vn 0.000000 0.000000 -1.000000
vn 0.000000 0.000000 -1.000000
vn -0.000002 -0.000011 1.000000
vn -0.000002 -0.000011 1.000000
vn -0.000002 -0.000011 1.000000
vn -0.000002 -0.000011 1.000000
vn 0.000000 0.000000 -1.000000
vn 0.000000 0.000000 -1.000000
vn 0.000000 0.000000 -1.000000
vn 0.000000 0.000000 -1.000000
vn 0.000000 0.000000 1.000000
vn 0.000000 0.000000 1.000000
vn 0.000000 0.000000 1.000000
vn 0.000000 0.000000 1.000000
vn -0.000000 0.000000 -1.000000
vn -0.000000 0.000000 -1.000000
vn -0.000000 0.000000 -1.000000
vn -0.000000 0.000000 -1.000000
vn 0.000000 0.000000 1.000000
vn 0.000000 0.000000 1.000000
vn 0.000000 0.000000 1.000000
vn 0.000000 0.000000 -1.000000
vn 0.000000 0.000000 -1.000000
vn 0.000000 0.000000 -1.000000
vn 0.000000 0.000000 -1.000000
vn 0.000000 0.000000 -1.000000
vn 0.000000 0.000000 -1.000000
vn 0.000000 0.000000 -1.000000
vn 0.000000 0.000000 -1.000000
vn 0.000000 0.000000 1.000000
vn 0.000000 0.000000 1.000000
vn 0.000000 0.000000 1.000000
vn 0.000000 0.000000 1.000000
vn 0.000000 0.000000 1.000000
vn 0.000000 0.000000 1.000000
vn 0.100488 0.994938 0.000000
vn 0.100488 0.994938 0.000000
vn 0.100488 0.994938 0.000000
vn 0.100488 0.994938 0.000000
vn 0.100488 -0.994938 0.000000
vn 0.100488 -0.994938 0.000000
vn 0.100488 -0.994938 0.000000
vn 0.100488 -0.994938 0.000000
vn 0.000000 0.000000 -1.000000
vn 0.000000 0.000000 -1.000000
vn 0.000000 0.000000 -1.000000
vn 0.000000 0.000000 -1.000000
vn 0.000000 0.000000 1.000000
vn 0.000000 0.000000 1.000000
vn 0.000000 0.000000 1.000000
vn 0.000000 0.000000 1.000000
vn 0.000000 0.000000 1.000000
vn 0.000000 0.000000 1.000000
vn 0.000000 0.000000 1.000000
vn 0.000000 0.000000 1.000000
vn 0.000000 0.000000 1.000000
vn 0.000000 0.000000 1.000000
vn -0.000000 0.000000 1.000000
vn -0.000000 0.000000 1.000000
vn -0.000000 0.000000 1.000000
vn -0.000000 0.000000 1.000000
vn -0.000000 0.000000 1.000000
vn 0.000000 0.000000 1.000000
vn 0.000000 0.000000 1.000000
vn 0.000000 0.000000 1.000000
vn 0.000000 0.000000 1.000000
vn 0.000000 0.000000 1.000000
vn 0.000000 0.000000 1.000000
vn 0.000000 0.000000 1.000000
vn 0.000000 0.000000 1.000000
vn 0.000000 0.000000 1.000000
vn 0.071045 -0.997470 0.002383
vn 0.071045 -0.997470 0.002383
vn 0.071045 -0.997470 0.002383
vn 0.071045 -0.997470 0.002383
vn 0.146308 -0.989237 -0.002023
vn 0.146308 -0.989237 -0.002023
vn 0.146308 -0.989237 -0.002023
vn 0.146308 -0.989237 -0.002023
vn 0.075704 0.997093 0.008644
vn 0.075705 0.997093 0.008644
vn 0.075705 0.997093 0.008644
vn 0.075704 0.997093 0.008644
vn -1.000000 0.000000 0.000000
vn -1.000000 0.000000 0.000000
vn -1.000000 0.000000 0.000000
vn -1.000000 0.000000 0.000000
vn -1.000000 0.000000 0.000000
vn -1.000000 0.000000 0.000000
vn -1.000000 0.000000 0.000000
vn -1.000000 0.000000 0.000000
vn 0.000000 0.000000 1.000000
vn 0.000000 0.000000 1.000000
vn 0.000000 0.000000 1.000000
vn 0.000000 0.000000 1.000000
vn 0.000000 0.000000 1.000000
vn 0.000000 0.000000 1.000000
vn 0.000000 0.000000 1.000000
vn -0.000000 0.000000 1.000000
vn -0.000000 0.000000 1.000000
vn -0.000000 0.000000 1.000000
vn -0.000000 0.000000 1.000000
vn 0.000000 0.000000 1.000000
vn 0.000000 0.000000 1.000000
vn 0.000000 0.000000 1.000000
vn 0.000000 0.000000 -1.000000
vn 0.000000 0.000000 -1.000000
vn 0.000000 0.000000 -1.000000
vn 0.000000 0.000000 -1.000000
vn 0.000000 0.000000 -1.000000
vn 0.000000 0.000000 -1.000000
vn -0.000000 0.000000 -1.000000
vn -0.000000 0.000000 -1.000000
vn -0.000000 0.000000 -1.000000
vn 0.293218 0.000000 0.956046
vn 0.293218 0.000000 0.956046
vn 0.293218 0.000000 0.956046
vn 0.293218 0.000000 0.956046
vn 0.000013 1.000000 0.000000
vn 0.000013 1.000000 0.000000
vn 0.000013 1.000000 0.000000
vn 0.000013 1.000000 0.000000
vn 0.293218 0.000000 -0.956046
vn 0.293218 0.000000 -0.956046
vn 0.293218 0.000000 -0.956046
vn 0.293218 0.000000 -0.956046
vn 0.000000 -1.000000 0.000000
vn 0.000000 -1.000000 0.000000
vn 0.000000 -1.000000 0.000000
vn 0.000000 -1.000000 0.000000
vn 0.293218 0.000000 0.956046
vn 0.293218 0.000000 0.956046
vn 0.293218 0.000000 0.956046
vn 0.293218 0.000000 0.956046
vn 0.000000 1.000000 0.000000
vn 0.000000 1.000000 0.000000
vn 0.000000 1.000000 0.000000
vn 0.000000 1.000000 0.000000
vn 0.293218 0.000000 -0.956046
vn 0.293218 0.000000 -0.956046
vn 0.293218 0.000000 -0.956046
vn 0.293218 0.000000 -0.956046
vn -0.000026 -1.000000 0.000000
vn -0.000026 -1.000000 0.000000
vn -0.000026 -1.000000 0.000000
vn -0.000026 -1.000000 0.000000
vn 0.293232 0.000000 0.956041
vn 0.293232 0.000000 0.956041
vn 0.293232 0.000000 0.956041
vn 0.293232 0.000000 0.956041
vn 0.000000 1.000000 0.000000
vn 0.000000 1.000000 0.000000
vn 0.000000 1.000000 0.000000
vn 0.000000 1.000000 0.000000
vn 0.293218 0.000000 -0.956046
vn 0.293218 0.000000 -0.956046
vn 0.293218 0.000000 -0.956046
vn 0.293218 0.000000 -0.956046
vn 0.000000 -1.000000 -0.000000
vn 0.000000 -1.000000 -0.000000
vn 0.000000 -1.000000 -0.000000
vn 0.000000 -1.000000 -0.000000
vn 0.000000 0.000000 -1.000000
vn 0.000000 0.000000 -1.000000
vn 0.000000 0.000000 -1.000000
vn 0.000000 0.000000 -1.000000
vn 0.000000 0.000000 -1.000000
vn 0.000000 0.000000 -1.000000
vn 0.000000 0.000000 -1.000000
vn 0.172816 0.984704 0.022209
vn 0.172816 0.984704 0.022209
vn 0.172816 0.984704 0.022209
vn 0.172816 0.984704 0.022209
vn 0.935054 -0.298258 0.191615
vn 0.935054 -0.298258 0.191615
vn 0.935054 -0.298258 0.191615
vn 0.935054 -0.298258 0.191615
vn 0.000000 0.000000 -1.000000
vn 0.000000 0.000000 -1.000000
vn 0.000000 0.000000 -1.000000
vn 0.000000 0.000000 1.000000
vn 0.000000 0.000000 1.000000
vn 0.000000 0.000000 1.000000
vn 0.000000 0.000000 1.000000
s off
f 54/1/1 55/2/2 4/3/3 3/4/4
f 3/4/5 4/3/6 6/5/7 5/6/8
f 5/6/9 6/5/10 56/7/11 57/8/12
f 55/2/13 56/7/14 6/5/15 4/3/16
f 57/8/17 54/1/18 3/4/19 5/6/20
f 58/9/21 59/10/22 12/11/23 11/12/24
f 11/12/25 12/11/26 14/13/27 13/14/28
f 13/14/29 14/13/30 60/15/31 61/16/32
f 59/10/33 60/15/34 14/13/35 12/11/36
f 61/16/37 58/9/38 11/12/39 13/14/40
f 62/17/41 63/18/42 20/19/43 19/20/44
f 19/20/45 20/19/46 22/21/47 21/22/48
f 21/22/49 22/21/50 64/23/51 65/24/52
f 63/18/53 64/23/54 22/21/55 20/19/56
f 65/24/57 62/17/58 19/20/59 21/22/60
f 29/25/61 30/26/62 35/27/63 36/28/64
f 26/29/65 34/30/66 33/31/67 25/32/68 45/33/69
f 46/34/70 9/35/71 2/36/72 27/37/73
f 8/38/74 29/39/75 7/40/76
f 53/41/77 43/42/78 44/43/79 32/44/80
f 26/45/81 41/46/82 42/47/83 52/48/84
f 28/49/85 34/50/86 37/51/87 18/52/88
f 29/39/89 36/53/90 39/54/91 7/40/92
f 37/51/93 34/50/94 26/45/95 52/48/96
f 38/55/97 53/41/98 32/44/99 35/56/100
f 50/57/101 25/58/102 33/59/103 40/60/104
f 31/61/105 51/62/106 39/54/107 36/53/108
f 41/46/109 66/63/110 42/47/111
f 31/61/112 44/43/113 67/64/114 51/62/115
f 35/65/116 32/66/117 31/67/118 36/68/119
f 26/69/120 45/70/121 41/71/122
f 47/72/123 27/73/124 33/74/125
f 37/51/126 38/55/127 24/75/128 18/52/129
f 39/54/130 40/60/131 1/76/132 7/40/133
f 38/55/134 35/56/135 30/77/136 24/75/137
f 40/60/138 33/59/139 27/37/140 1/76/141
f 25/78/142 41/71/143 45/70/144
f 48/79/145 49/80/146 28/81/147
f 47/82/148 34/83/149 49/84/150 48/85/151 46/86/152
f 27/73/153 47/72/154 46/87/155
f 33/88/156 34/83/157 47/82/158
f 28/81/159 49/80/160 34/89/161
f 51/62/162 50/57/163 40/60/164 39/54/165
f 50/57/166 51/62/167 67/64/168 66/63/169
f 37/51/170 52/48/171 53/41/172 38/55/173
f 9/35/174 15/90/175 8/38/176 2/36/177
f 16/91/178 10/92/179 17/93/180 23/94/181
f 17/93/182 28/49/183 18/52/184
f 9/35/185 46/34/186 48/95/187 10/92/188
f 10/92/189 48/95/190 28/49/191 17/93/192
f 27/37/193 2/36/194 1/76/195
f 30/77/196 16/91/197 23/94/198
f 30/77/199 23/94/200 24/75/201
f 8/38/202 15/90/203 29/39/204
f 1/96/205 2/97/206 55/2/207 54/1/208
f 2/97/209 8/98/210 56/7/211 55/2/212
f 57/8/213 56/7/214 8/98/215 7/99/216
f 7/99/217 1/96/218 54/1/219 57/8/220
f 9/100/221 10/101/222 59/10/223 58/9/224
f 10/101/225 16/102/226 60/15/227 59/10/228
f 61/16/229 60/15/230 16/102/231 15/103/232
f 15/103/233 9/100/234 58/9/235 61/16/236
f 17/104/237 18/105/238 63/18/239 62/17/240
f 18/105/241 24/106/242 64/23/243 63/18/244
f 65/24/245 64/23/246 24/106/247 23/107/248
f 23/107/249 17/104/250 62/17/251 65/24/252
f 44/108/253 31/67/254 32/66/255
f 30/77/256 29/39/257 15/90/258 16/91/259
f 42/47/260 43/42/261 53/41/262 52/48/263
f 66/63/264 67/64/265 43/42/266 42/47/267
f 67/64/268 44/43/269 43/42/270
f 50/57/271 66/63/272 41/46/273 25/58/274
