# This file uses centimeters as units for non-parametric coordinates.

v 20.075157 -1.351546 22.450060
v 22.517529 -1.180980 20.171106
v -22.653746 -1.160795 19.959499
v -20.107735 -1.469352 22.580952
v 22.612408 -1.097041 -20.237364
v 20.025095 -1.181560 -22.568588
v -20.182407 -1.400111 -22.655676
v -22.378904 -1.442316 -19.994120
v 22.434332 1.219237 19.925739
v 20.012634 1.079451 22.675289
v -19.983620 1.293287 22.427738
v -22.537970 1.264873 19.871685
v -22.691853 1.162604 -19.981640
v -20.048412 1.199930 -22.507360
v 20.205065 1.086887 -22.689983
v 22.593184 1.128391 -19.898558
v 23.363113 0.724930 20.770226
v 20.825567 1.008724 23.205944
v 23.166025 -0.822123 20.932699
v 20.764761 -0.716986 23.550085
v 23.430546 -1.073869 -20.737244
v 20.677174 -0.866611 -23.256969
v 23.525591 0.890141 -20.696415
v 20.679869 0.841239 -23.263834
v -20.778521 0.758688 23.275702
v -23.440660 0.794668 20.931435
v -20.774128 -0.835822 23.263580
v -23.417561 -0.759093 20.854254
v -23.254545 0.996642 -20.850636
v -20.862265 0.753252 -23.293324
v -23.501667 -1.031187 -20.706747
v -20.650768 -0.830454 -23.297108
v 16.479149 -7.015633 10.544397
v 9.587565 -7.915262 15.585617
v 0.092563 -10.268029 -0.128795
v -15.136663 -6.920204 10.693605
v -9.363900 -7.915651 15.559136
v 14.088199 -7.589080 -9.979497
v 9.323692 -6.971966 -16.099253
v -16.210676 -6.959166 -11.450206
v -9.488260 -7.581012 -15.490926
v 16.303724 6.765172 10.153648
v 9.260461 7.773865 15.377384
v 0.135529 10.164804 -0.079985
v -15.540838 6.477641 11.565212
v -9.373094 7.824594 15.474480
v -9.512556 7.622099 -15.568926
v -15.720068 6.633485 -9.819093
v 15.442531 7.928472 -9.893332
v 9.643259 7.915498 -15.577163
v -15.569468 7.740921 -1.379144
v -21.699871 1.206656 -2.611495
v -22.409016 0.909644 -2.649702
v -22.539742 -0.913985 -2.601038
v -21.571592 -1.321053 -2.580773
v -15.492575 -7.709454 -1.308092
v 3.327001 7.807092 -16.824799
v 6.093579 1.128654 -23.873186
v 6.092247 0.808729 -24.525410
v 6.168691 -0.853251 -24.522480
v 5.930595 -1.262311 -23.851444
v 3.230382 -7.795312 -16.814678
v -3.795603 7.796620 16.761786
v -2.625883 1.175369 23.905094
v -2.534159 0.896568 24.578083
v -2.565720 -0.770291 24.762417
v -2.647077 -1.404389 23.849621
v -3.611100 -7.915437 16.914587
v 14.104038 -7.663064 -1.563812
v 21.347300 -1.132810 -3.018062
v 22.093149 -0.966592 -2.980389
v 22.231678 0.819740 -3.026194
v 21.300816 1.167103 -2.928190
v 14.294994 7.806481 -1.404015
vt 0.102300 0.179618
vt 0.103180 0.179692
vt 0.102548 0.179375
vt 0.103208 0.179408
vt 0.102264 0.179576
vt 0.103126 0.179678
vt 0.103243 0.179409
vt 0.102603 0.179347
vt 0.102266 0.179599
vt 0.102548 0.179357
vt 0.102297 0.179594
vt 0.103127 0.179704
vt 0.103182 0.179668
vt 0.103242 0.179427
vt 0.103210 0.179390
vt 0.102602 0.179364
vt 0.102266 0.179598
vt 0.102549 0.179375
vt 0.102547 0.179358
vt 0.102264 0.179576
vt 0.102299 0.179594
vt 0.103128 0.179678
vt 0.103125 0.179703
vt 0.102299 0.179618
vt 0.103182 0.179667
vt 0.103243 0.179408
vt 0.103242 0.179428
vt 0.103180 0.179693
vt 0.103209 0.179390
vt 0.102602 0.179347
vt 0.102603 0.179364
vt 0.103209 0.179408
vt 0.196624 0.302516
vt 0.196640 0.302546
vt 0.197522 0.302562
vt 0.197534 0.302527
vt 0.196633 0.301673
vt 0.196588 0.302494
vt 0.196674 0.301668
vt 0.197576 0.302511
vt 0.197561 0.301689
vt 0.197525 0.301675
vt 0.197508 0.301636
vt 0.196687 0.301623
vt 0.196620 0.302497
vt 0.197549 0.302520
vt 0.197525 0.302558
vt 0.196637 0.302543
vt 0.197533 0.301648
vt 0.197564 0.301679
vt 0.197580 0.302507
vt 0.196584 0.302490
vt 0.196630 0.301664
vt 0.196661 0.301634
vt 0.196685 0.301613
vt 0.197511 0.301627
vt 0.196802 0.302413
vt 0.197407 0.301847
vt 0.197364 0.301804
vt 0.197089 0.302110
vt 0.196826 0.301795
vt 0.196781 0.301837
vt 0.197366 0.302422
vt 0.197411 0.302380
vt 0.196737 0.302327
vt 0.197089 0.302035
vt 0.196762 0.301765
vt 0.196810 0.301720
vt 0.197380 0.301730
vt 0.197427 0.301776
vt 0.197431 0.302339
vt 0.197383 0.302384
vt 0.196784 0.302374
vt 0.196758 0.302369
vt 0.196725 0.302437
vt 0.197440 0.302448
vt 0.196757 0.301764
vt 0.197435 0.301774
vt 0.196708 0.302402
vt 0.197460 0.302417
vt 0.197452 0.301711
vt 0.196740 0.301699
vt 0.197429 0.302019
vt 0.197571 0.302036
vt 0.103217 0.179520
vt 0.103217 0.179520
vt 0.103215 0.179542
vt 0.197567 0.302043
vt 0.103215 0.179542
vt 0.197409 0.302077
vt 0.197021 0.301724
vt 0.196990 0.301618
vt 0.102827 0.179363
vt 0.102826 0.179363
vt 0.102826 0.179381
vt 0.196991 0.301628
vt 0.102827 0.179381
vt 0.197025 0.301798
vt 0.197053 0.302378
vt 0.197035 0.302550
vt 0.102670 0.179632
vt 0.102670 0.179632
vt 0.102670 0.179656
vt 0.197036 0.302553
vt 0.102670 0.179656
vt 0.197055 0.302417
vt 0.196771 0.302064
vt 0.196614 0.302023
vt 0.102428 0.179471
vt 0.102428 0.179470
vt 0.102427 0.179450
vt 0.196610 0.302016
vt 0.102427 0.179451
vt 0.196752 0.302005
vn 0.293003 -0.914918 0.277623
vn 0.293003 -0.914918 0.277623
vn 0.293003 -0.914918 0.277623
vn 0.293003 -0.914918 0.277623
vn -0.339393 -0.897582 0.281354
vn -0.339393 -0.897582 0.281354
vn -0.339393 -0.897582 0.281354
vn -0.339393 -0.897582 0.281354
vn 0.109035 -0.983416 -0.144926
vn 0.109035 -0.983416 -0.144926
vn 0.109035 -0.983416 -0.144926
vn 0.109035 -0.983416 -0.144926
vn -0.286895 -0.903806 -0.317530
vn -0.286895 -0.903806 -0.317530
vn -0.286895 -0.903806 -0.317530
vn -0.286895 -0.903806 -0.317530
vn 0.191228 0.969073 0.155979
vn 0.191228 0.969073 0.155979
vn 0.191228 0.969073 0.155979
vn 0.191228 0.969073 0.155979
vn -0.250040 0.930519 0.267610
vn -0.250040 0.930519 0.267610
vn -0.250040 0.930519 0.267610
vn -0.250040 0.930519 0.267610
vn -0.171326 0.961795 -0.213538
vn -0.171326 0.961795 -0.213538
vn -0.171326 0.961795 -0.213538
vn -0.171326 0.961795 -0.213538
vn 0.162859 0.970926 -0.175440
vn 0.162859 0.970926 -0.175440
vn 0.162859 0.970926 -0.175440
vn 0.162859 0.970926 -0.175440
vn 0.716178 0.051308 0.696030
vn 0.716178 0.051308 0.696030
vn 0.716178 0.051308 0.696030
vn 0.716178 0.051308 0.696030
vn 0.672248 -0.011047 -0.740244
vn 0.672248 -0.011047 -0.740244
vn 0.672248 -0.011047 -0.740244
vn 0.672248 -0.011047 -0.740244
vn -0.667377 -0.026939 0.744233
vn -0.667377 -0.026939 0.744233
vn -0.667377 -0.026939 0.744233
vn -0.667377 -0.026939 0.744233
vn -0.692438 -0.021146 -0.721167
vn -0.692438 -0.021146 -0.721167
vn -0.692438 -0.021146 -0.721167
vn -0.692438 -0.021146 -0.721167
vn 0.993636 -0.102906 -0.045802
vn 0.993636 -0.102906 -0.045802
vn 0.993636 -0.102906 -0.045802
vn 0.993636 -0.102906 -0.045802
vn 0.054087 0.152255 0.986860
vn 0.054087 0.152255 0.986860
vn 0.054087 0.152255 0.986860
vn 0.054087 0.152255 0.986860
vn -0.998659 0.032166 -0.040568
vn -0.998659 0.032166 -0.040568
vn -0.998659 0.032166 -0.040568
vn -0.998659 0.032166 -0.040568
vn -0.045649 -0.003787 -0.998950
vn -0.045649 -0.003787 -0.998950
vn -0.045649 -0.003787 -0.998950
vn -0.045649 -0.003787 -0.998950
vn -0.043830 -0.756470 -0.652558
vn -0.043830 -0.756470 -0.652558
vn -0.043830 -0.756470 -0.652558
vn -0.043830 -0.756470 -0.652558
vn 0.050421 0.754640 0.654199
vn 0.050421 0.754640 0.654199
vn 0.050421 0.754640 0.654199
vn 0.050421 0.754640 0.654199
vn -0.663722 0.747909 0.010275
vn -0.663722 0.747909 0.010275
vn -0.663722 0.747909 0.010275
vn -0.663722 0.747909 0.010275
vn 0.693720 0.718979 -0.042679
vn 0.693720 0.718979 -0.042679
vn 0.693720 0.718979 -0.042679
vn 0.693720 0.718979 -0.042679
vn 0.360012 -0.932823 -0.015237
vn 0.360012 -0.932823 -0.015237
vn 0.360012 -0.932823 -0.015237
vn 0.360012 -0.932823 -0.015237
vn 0.418740 0.907897 -0.019500
vn 0.418740 0.907897 -0.019500
vn 0.418740 0.907897 -0.019500
vn 0.418740 0.907897 -0.019500
vn 0.014850 0.963156 0.268532
vn 0.014850 0.963156 0.268532
vn 0.014850 0.963156 0.268532
vn 0.014850 0.963156 0.268532
vn 0.031693 -0.850988 0.524228
vn 0.031693 -0.850988 0.524228
vn 0.031693 -0.850988 0.524228
vn 0.031693 -0.850988 0.524228
vn -0.438326 0.898661 -0.016684
vn -0.438326 0.898661 -0.016684
vn -0.438326 0.898661 -0.016684
vn -0.438326 0.898661 -0.016684
vn -0.428066 -0.903667 -0.012049
vn -0.428066 -0.903667 -0.012049
vn -0.428066 -0.903667 -0.012049
vn -0.428066 -0.903667 -0.012049
vn -0.022263 0.887427 -0.460410
vn -0.022263 0.887427 -0.460410
vn -0.022263 0.887427 -0.460410
vn -0.022263 0.887427 -0.460410
vn -0.025457 -0.803524 -0.594728
vn -0.025457 -0.803524 -0.594728
vn -0.025457 -0.803524 -0.594728
vn -0.025457 -0.803524 -0.594728
vn 0.699171 -0.712588 -0.058128
vn 0.699171 -0.712588 -0.058128
vn 0.699171 -0.712588 -0.058128
vn 0.699171 -0.712588 -0.058128
vn 0.051539 -0.745950 0.664005
vn 0.051539 -0.745950 0.664005
vn 0.051539 -0.745950 0.664005
vn 0.051539 -0.745950 0.664005
vn -0.664102 -0.747613 0.006588
vn -0.664102 -0.747613 0.006588
vn -0.664102 -0.747613 0.006588
vn -0.664102 -0.747613 0.006588
vn -0.047143 0.741971 -0.668773
vn -0.047143 0.741971 -0.668773
vn -0.047143 0.741971 -0.668773
vn -0.047143 0.741971 -0.668773
vn 0.164026 -0.985268 0.048406
vn 0.164026 -0.985268 0.048406
vn 0.164026 -0.985268 0.048406
vn -0.141785 -0.986319 -0.084093
vn -0.141785 -0.986319 -0.084093
vn -0.141785 -0.986319 -0.084093
vn 0.076584 -0.984323 -0.158883
vn 0.076584 -0.984323 -0.158883
vn 0.076584 -0.984323 -0.158883
vn -0.194284 -0.980489 0.029911
vn -0.194284 -0.980489 0.029911
vn -0.194284 -0.980489 0.029911
vn 0.176370 0.983155 0.047958
vn 0.176370 0.983155 0.047958
vn 0.176370 0.983155 0.047958
vn 0.086747 0.992086 -0.090774
vn 0.086747 0.992086 -0.090774
vn 0.086747 0.992086 -0.090774
vn -0.193520 0.980265 -0.040379
vn -0.193520 0.980265 -0.040379
vn -0.193520 0.980265 -0.040379
vn -0.220545 0.975304 0.011915
vn -0.220545 0.975304 0.011915
vn -0.220545 0.975304 0.011915
vn 0.016897 0.989565 0.143091
vn 0.016897 0.989565 0.143091
vn 0.016897 0.989565 0.143091
vn 0.169387 0.983770 0.059195
vn 0.169387 0.983770 0.059195
vn 0.169387 0.983770 0.059195
vn 0.010165 0.990447 -0.137520
vn 0.010165 0.990447 -0.137520
vn 0.010165 0.990447 -0.137520
vn -0.159595 0.982481 0.096236
vn -0.159595 0.982481 0.096236
vn -0.159595 0.982481 0.096236
vn 0.146562 -0.982140 -0.117984
vn 0.146562 -0.982140 -0.117984
vn 0.146562 -0.982140 -0.117984
vn 0.184381 -0.982718 0.016379
vn 0.184381 -0.982718 0.016379
vn 0.184381 -0.982718 0.016379
vn 0.014082 -0.990090 0.139728
vn 0.014082 -0.990090 0.139728
vn 0.014082 -0.990090 0.139728
vn -0.166734 -0.983541 0.069624
vn -0.166734 -0.983541 0.069624
vn -0.166734 -0.983541 0.069624
vn 0.348192 -0.882952 0.314894
vn 0.348192 -0.882952 0.314894
vn 0.348192 -0.882952 0.314894
vn 0.348192 -0.882952 0.314894
vn -0.369654 -0.893463 0.255108
vn -0.369654 -0.893463 0.255108
vn -0.369654 -0.893463 0.255108
vn -0.369654 -0.893463 0.255108
vn 0.299181 -0.900005 -0.316988
vn 0.299181 -0.900005 -0.316988
vn 0.299181 -0.900005 -0.316988
vn 0.299181 -0.900005 -0.316988
vn -0.308099 -0.891200 -0.332922
vn -0.308099 -0.891200 -0.332922
vn -0.308099 -0.891200 -0.332922
vn -0.308099 -0.891200 -0.332922
vn 0.338063 0.890585 0.304255
vn 0.338063 0.890585 0.304255
vn 0.338063 0.890585 0.304255
vn 0.338063 0.890585 0.304255
vn -0.350431 0.892869 0.282813
vn -0.350431 0.892869 0.282813
vn -0.350431 0.892869 0.282813
vn -0.350431 0.892869 0.282813
vn -0.351524 0.897997 -0.264638
vn -0.351524 0.897997 -0.264638
vn -0.351524 0.897997 -0.264638
vn -0.351524 0.897997 -0.264638
vn 0.345374 0.874994 -0.339268
vn 0.345374 0.874994 -0.339268
vn 0.345374 0.874994 -0.339268
vn 0.345374 0.874994 -0.339268
vn -0.674090 0.738643 -0.003113
vn -0.674090 0.738643 -0.003113
vn -0.674090 0.738643 -0.003113
vn -0.674090 0.738643 -0.003113
vn -0.354204 0.934966 0.019426
vn -0.354204 0.934966 0.019426
vn -0.354204 0.934966 0.019426
vn -0.354204 0.934966 0.019426
vn -0.993765 0.099963 0.049389
vn -0.993765 0.099963 0.049389
vn -0.993765 0.099963 0.049389
vn -0.993765 0.099963 0.049389
vn -0.371804 -0.927981 0.024750
vn -0.371804 -0.927981 0.024750
vn -0.371804 -0.927981 0.024750
vn -0.371804 -0.927981 0.024750
vn -0.706235 -0.707605 0.022943
vn -0.706235 -0.707605 0.022943
vn -0.706235 -0.707605 0.022943
vn -0.706235 -0.707605 0.022943
vn 0.074933 0.755866 -0.650424
vn 0.074933 0.755866 -0.650424
vn 0.074933 0.755866 -0.650424
vn 0.074933 0.755866 -0.650424
vn 0.035003 0.912562 -0.407437
vn 0.035003 0.912562 -0.407437
vn 0.035003 0.912562 -0.407437
vn 0.035003 0.912562 -0.407437
vn 0.086528 -0.001002 -0.996249
vn 0.086528 -0.001002 -0.996249
vn 0.086528 -0.001002 -0.996249
vn 0.086528 -0.001002 -0.996249
vn 0.042026 -0.893003 -0.448084
vn 0.042026 -0.893003 -0.448084
vn 0.042026 -0.893003 -0.448084
vn 0.042026 -0.893003 -0.448084
vn 0.096067 -0.780914 -0.617208
vn 0.096067 -0.780914 -0.617208
vn 0.096067 -0.780914 -0.617208
vn 0.096067 -0.780914 -0.617208
vn -0.073970 0.753391 0.653399
vn -0.073970 0.753391 0.653399
vn -0.073970 0.753391 0.653399
vn -0.073970 0.753391 0.653399
vn -0.036273 0.888113 0.458191
vn -0.036273 0.888113 0.458191
vn -0.036273 0.888113 0.458191
vn -0.036273 0.888113 0.458191
vn -0.076806 0.053213 0.995625
vn -0.076806 0.053213 0.995625
vn -0.076806 0.053213 0.995625
vn -0.076806 0.053213 0.995625
vn -0.044547 -0.790065 0.611402
vn -0.044547 -0.790065 0.611402
vn -0.044547 -0.790065 0.611402
vn -0.044547 -0.790065 0.611402
vn -0.071500 -0.755472 0.651268
vn -0.071500 -0.755472 0.651268
vn -0.071500 -0.755472 0.651268
vn -0.071500 -0.755472 0.651268
vn 0.648982 -0.760274 0.028372
vn 0.648982 -0.760274 0.028372
vn 0.648982 -0.760274 0.028372
vn 0.648982 -0.760274 0.028372
vn 0.123475 -0.992284 0.011216
vn 0.123475 -0.992284 0.011216
vn 0.123475 -0.992284 0.011216
vn 0.123475 -0.992284 0.011216
vn 0.995336 -0.061892 0.073992
vn 0.995336 -0.061892 0.073992
vn 0.995336 -0.061892 0.073992
vn 0.995336 -0.061892 0.073992
vn 0.310244 0.950353 0.024032
vn 0.310244 0.950353 0.024032
vn 0.310244 0.950353 0.024032
vn 0.310244 0.950353 0.024032
vn 0.716549 0.693920 0.070940
vn 0.716549 0.693920 0.070940
vn 0.716549 0.693920 0.070940
vn 0.716549 0.693920 0.070940
vn -0.028402 0.989071 -0.144677
vn -0.028402 0.989071 -0.144677
vn -0.028402 0.989071 -0.144677
vn -0.025795 0.990741 0.133291
vn -0.025795 0.990741 0.133291
vn -0.025795 0.990741 0.133291
vn 0.167528 0.985180 0.036802
vn 0.167528 0.985180 0.036802
vn 0.167528 0.985180 0.036802
vn -0.141096 0.981904 -0.126322
vn -0.141096 0.981904 -0.126322
vn -0.141096 0.981904 -0.126322
vn -0.157135 -0.985642 -0.061789
vn -0.157135 -0.985642 -0.061789
vn -0.157135 -0.985642 -0.061789
vn 0.181887 -0.983278 -0.008986
vn 0.181887 -0.983278 -0.008986
vn 0.181887 -0.983278 -0.008986
vn -0.030626 -0.991022 0.130141
vn -0.030626 -0.991022 0.130141
vn -0.030626 -0.991022 0.130141
vn -0.032515 -0.987769 -0.152494
vn -0.032515 -0.987769 -0.152494
vn -0.032515 -0.987769 -0.152494
s off
f 1/1/1 2/17/2 19/9/3 20/24/4
f 3/2/5 4/23/6 27/12/7 28/28/8
f 5/3/9 6/31/10 22/16/11 21/18/12
f 7/4/13 8/27/14 31/14/15 32/32/16
f 9/5/17 10/21/18 18/11/19 17/20/20
f 11/6/21 12/25/22 26/13/23 25/22/24
f 13/7/25 14/29/26 30/15/27 29/26/28
f 15/8/29 16/19/30 23/10/31 24/30/32
f 17/20/33 18/11/34 20/24/35 19/9/36
f 21/18/37 22/16/38 24/30/39 23/10/40
f 25/22/41 26/13/42 28/28/43 27/12/44
f 29/26/45 30/15/46 32/32/47 31/14/48
f 17/20/49 19/9/50 71/110/51 72/111/52
f 20/24/53 18/11/54 65/102/55 66/103/56
f 28/28/57 26/13/58 53/86/59 54/87/60
f 32/32/61 30/15/62 59/94/63 60/95/64
f 7/43/65 61/96/66 62/98/67 41/59/68
f 63/99/69 64/100/70 10/48/71 43/73/72
f 51/83/73 52/84/74 12/51/75 45/71/76
f 9/52/77 73/112/78 74/114/79 42/65/80
f 2/17/81 70/109/82 71/110/83 19/9/84
f 72/111/85 73/113/86 9/5/87 17/20/88
f 10/21/89 64/101/90 65/102/91 18/11/92
f 66/103/93 67/105/94 1/1/95 20/24/96
f 12/25/97 52/85/98 53/86/99 26/13/100
f 54/87/101 55/89/102 3/2/103 28/28/104
f 14/29/105 58/93/106 59/94/107 30/15/108
f 60/95/109 61/97/110 7/4/111 32/32/112
f 33/74/113 69/107/114 70/108/115 2/38/116
f 67/104/117 68/106/118 34/57/119 1/34/120
f 55/88/121 56/90/122 36/64/123 3/40/124
f 47/69/125 57/91/126 58/92/127 14/56/128
f 33/74/129 34/57/130 35/60/131
f 35/60/132 40/58/133 41/59/134
f 35/60/135 39/61/136 38/62/137
f 35/60/138 37/63/139 36/64/140
f 43/73/141 42/65/142 44/66/143
f 44/66/144 49/67/145 50/68/146
f 44/66/147 47/69/148 48/70/149
f 44/66/150 45/71/151 46/72/152
f 44/66/153 63/99/154 43/73/155
f 44/66/156 42/65/157 74/114/158
f 44/66/159 50/68/160 57/91/161
f 44/66/162 51/83/163 45/71/164
f 35/60/165 62/98/166 39/61/167
f 35/60/168 69/107/169 33/74/170
f 35/60/171 34/57/172 68/106/173
f 35/60/174 36/64/175 56/90/176
f 1/34/177 34/57/178 33/75/179 2/33/180
f 3/36/181 36/76/182 37/63/183 4/35/184
f 5/39/185 38/77/186 39/61/187 6/44/188
f 7/43/189 41/59/190 40/78/191 8/42/192
f 9/45/193 42/79/194 43/73/195 10/48/196
f 11/47/197 46/72/198 45/80/199 12/46/200
f 13/50/201 48/70/202 47/81/203 14/49/204
f 15/55/205 50/68/206 49/82/207 16/54/208
f 13/50/209 52/84/210 51/83/211 48/70/212
f 53/86/213 52/85/214 13/7/215 29/26/216
f 54/87/217 53/86/218 29/26/219 31/14/220
f 8/27/221 55/89/222 54/87/223 31/14/224
f 40/58/225 56/90/226 55/88/227 8/41/228
f 58/92/229 57/91/230 50/68/231 15/55/232
f 59/94/233 58/93/234 15/8/235 24/30/236
f 60/95/237 59/94/238 24/30/239 22/16/240
f 6/31/241 61/97/242 60/95/243 22/16/244
f 62/98/245 61/96/246 6/44/247 39/61/248
f 11/47/249 64/100/250 63/99/251 46/72/252
f 65/102/253 64/101/254 11/6/255 25/22/256
f 66/103/257 65/102/258 25/22/259 27/12/260
f 4/23/261 67/105/262 66/103/263 27/12/264
f 37/63/265 68/106/266 67/104/267 4/35/268
f 70/108/269 69/107/270 38/62/271 5/37/272
f 71/110/273 70/109/274 5/3/275 21/18/276
f 72/111/277 71/110/278 21/18/279 23/10/280
f 16/19/281 73/113/282 72/111/283 23/10/284
f 74/114/285 73/112/286 16/53/287 49/67/288
f 44/66/289 57/91/290 47/69/291
f 44/66/292 46/72/293 63/99/294
f 44/66/295 74/114/296 49/67/297
f 44/66/298 48/70/299 51/83/300
f 35/60/301 56/90/302 40/58/303
f 35/60/304 38/62/305 69/107/306
f 35/60/307 68/106/308 37/63/309
f 35/60/310 41/59/311 62/98/312
