# This file uses centimeters as units for non-parametric coordinates.

v -250.051193 28.480461 -182.005554
v 250.051346 28.480461 -182.005554
v 250.051346 56.960930 -182.005554
v -250.051193 56.960930 -182.005554
v -250.051193 28.480459 89.418617
v -250.051193 56.960930 89.418633
v -125.013046 56.960930 89.418633
v 125.013229 56.960930 89.418617
v 250.051346 56.960930 89.418633
v 250.051346 28.480461 89.418633
v 125.013199 28.480461 89.418633
v -125.013046 28.480459 89.418617
v 50.000320 56.960930 182.005615
v -50.000168 56.960930 182.005615
v 50.000320 28.480461 182.005615
v -50.000168 28.480461 182.005615
v 260.051331 56.960934 99.418633
v 260.051331 28.480465 99.418633
v 260.051331 28.480461 -192.005554
v -260.051208 28.480446 99.418617
v -260.051208 56.960922 -192.005554
v -260.051208 28.480453 -192.005554
v -54.768433 56.960930 192.005615
v -54.768448 28.480459 192.005615
v 54.768570 28.480459 192.005615
v -129.781311 28.480455 99.418617
v -129.781311 56.960922 99.418633
v 129.781448 28.480461 99.418633
v 129.781509 56.960930 99.418617
v -260.051208 49.840797 99.418633
v -260.051208 56.960915 84.379051
v -227.483719 56.960915 99.418633
v 44.275467 56.960930 192.005615
v 54.768600 49.840813 192.005615
v 73.521835 56.960930 168.858856
v 260.051331 49.840813 -192.005554
v 260.051331 56.960930 -179.924347
v 238.103226 56.960930 -192.005554
v -280.188599 0.000000 212.136749
v -280.188599 0.000000 -212.136749
v 280.188660 0.000000 212.136749
v 280.188660 0.000000 -212.136749
v 280.188660 28.480469 212.136749
v 280.188660 28.480469 -212.136749
v -280.188599 28.480469 212.136749
v -280.188599 28.480469 -212.136749
v 290.188599 0.000000 -222.136749
v 290.188599 0.000000 222.136749
v 290.188599 28.480469 -222.136749
v 290.188599 28.480469 222.136749
v -290.188599 28.480469 222.136749
v -290.188599 0.000000 -222.136749
v -290.188599 0.000000 222.136749
v 151.470901 28.480469 222.136749
v 243.055038 28.480469 222.136749
v 205.917343 28.480469 212.136749
v 199.704086 21.085176 222.136749
v -194.956619 28.480469 222.136749
v -78.411972 28.480469 222.136749
v -118.397949 28.480469 212.136749
v -127.024429 23.064880 222.136749
v -280.188599 28.480469 86.276619
v -290.188599 22.348145 63.603889
v -290.188599 0.000000 40.192055
v -290.188599 28.480469 -50.730309
v -290.188599 28.480469 -195.776947
v -290.188599 24.208399 -222.136749
v -278.919861 28.480469 -222.136749
vt 0.024377 0.562836
vt 0.024381 0.562886
vt 0.024707 0.562758
vt 0.024737 0.562738
vt 0.179381 0.514389
vt 0.179381 0.514389
vt 0.025299 0.562981
vt 0.025286 0.562903
vt 0.179381 0.735262
vt 0.025377 0.562763
vt 0.025374 0.562804
vt 0.179381 0.735262
vt 0.051078 0.514389
vt 0.024643 0.562910
vt 0.051078 0.514389
vt 0.024817 0.562934
vt 0.024818 0.562995
vt 0.051078 0.735262
vt 0.051078 0.735262
vt 0.024619 0.562972
vt 0.025035 0.562954
vt 0.025036 0.562897
vt 0.007343 0.602743
vt 0.007343 0.646908
vt 0.051078 0.569613
vt 0.051078 0.680038
vt 0.024579 0.562907
vt 0.024577 0.562855
vt 0.007343 0.646908
vt 0.051078 0.680038
vt 0.051078 0.569613
vt 0.007343 0.602743
vt 0.024381 0.562886
vt 0.024707 0.562758
vt 0.024377 0.562836
vt 0.025377 0.562763
vt 0.025374 0.562804
vt 0.025299 0.562981
vt 0.024817 0.562934
vt 0.024818 0.562995
vt 0.024619 0.562972
vt 0.025035 0.562954
vt 0.025036 0.562897
vt 0.024579 0.562907
vt 0.024577 0.562855
vt 0.025300 0.562951
vt 0.025340 0.562842
vt 0.025169 0.562909
vt 0.024717 0.562923
vt 0.024618 0.562942
vt 0.024597 0.562884
vt 0.024706 0.562740
vt 0.024541 0.562779
vt 0.025041 0.562742
vt 0.195934 0.748416
vt 0.007343 0.748417
vt 0.007343 0.501235
vt 0.195934 0.501235
vt 0.027703 0.563248
vt 0.028026 0.562733
vt 0.028020 0.562704
vt 0.027688 0.563219
vt 0.195934 0.677051
vt 0.142877 0.748416
vt 0.195934 0.748416
vt 0.028647 0.563381
vt 0.028658 0.563217
vt 0.028653 0.563221
vt 0.028640 0.563409
vt 0.028376 0.563341
vt 0.027838 0.563252
vt 0.027917 0.563258
vt 0.028299 0.563322
vt 0.027703 0.563248
vt 0.028026 0.562733
vt 0.028020 0.562704
vt 0.027688 0.563219
vt 0.028647 0.563381
vt 0.028656 0.563246
vt 0.028682 0.562809
vt 0.028640 0.563409
vt 0.028682 0.562809
vt 0.027816 0.563241
vt 0.027765 0.563232
vt 0.028490 0.563354
vt 0.195934 0.501235
vt 0.007343 0.501235
vt 0.195934 0.533996
vt 0.028370 0.563334
vt 0.007343 0.748417
vt 0.028666 0.563098
vt 0.028620 0.562801
vt 0.028685 0.562794
vt 0.028677 0.562939
vt 0.028354 0.562742
vn -0.192398 0.880032 0.434196
vn -0.192398 0.880032 0.434196
vn -0.192398 0.880032 0.434196
vn 0.000000 -1.000000 -0.000000
vn 0.000000 -1.000000 -0.000000
vn 0.000000 -1.000000 -0.000000
vn 0.000000 1.000000 0.000000
vn 0.000000 1.000000 0.000000
vn 0.000000 1.000000 0.000000
vn 0.000000 1.000000 0.000000
vn 0.000000 1.000000 0.000000
vn 0.000000 1.000000 0.000000
vn 0.000000 -1.000000 0.000000
vn 0.000000 -1.000000 0.000000
vn 0.000000 -1.000000 0.000000
vn 0.000000 1.000000 0.000000
vn 0.000000 1.000000 0.000000
vn 0.000000 1.000000 0.000000
vn 0.000000 1.000000 0.000000
vn 0.000000 1.000000 -0.000000
vn 0.000000 1.000000 -0.000000
vn 0.000000 1.000000 -0.000000
vn 0.000000 1.000000 -0.000000
vn 0.000000 -1.000000 -0.000000
vn 0.000000 -1.000000 -0.000000
vn 0.000000 -1.000000 -0.000000
vn 0.000000 -1.000000 -0.000000
vn 0.000000 -1.000000 0.000000
vn 0.000000 -1.000000 0.000000
vn 0.000000 -1.000000 0.000000
vn 0.000000 -1.000000 0.000000
vn -0.776993 0.000000 0.629510
vn -0.776993 0.000000 0.629510
vn -0.776993 0.000000 0.629510
vn -0.776993 0.000000 0.629510
vn -0.000000 0.000000 1.000000
vn -0.000000 0.000000 1.000000
vn -0.000000 0.000000 1.000000
vn -0.000000 0.000000 1.000000
vn 0.000000 -1.000000 0.000000
vn 0.000000 -1.000000 0.000000
vn 0.000000 -1.000000 0.000000
vn 0.000000 -1.000000 0.000000
vn 0.000001 -1.000000 -0.000000
vn 0.000001 -1.000000 -0.000000
vn 0.000001 -1.000000 -0.000000
vn 0.000001 -1.000000 -0.000000
vn 0.000000 -1.000000 -0.000000
vn 0.000000 -1.000000 -0.000000
vn 0.000000 -1.000000 -0.000000
vn 0.000000 -1.000000 -0.000000
vn 0.000000 -1.000000 0.000000
vn 0.000000 -1.000000 0.000000
vn 0.000000 -1.000000 0.000000
vn 0.000000 -1.000000 0.000000
vn 0.289524 0.892474 -0.345927
vn 0.289524 0.892474 -0.345927
vn 0.289524 0.892474 -0.345927
vn 0.000000 -1.000000 -0.000000
vn 0.000000 -1.000000 -0.000000
vn 0.000000 -1.000000 -0.000000
vn 0.000000 -1.000000 -0.000000
vn -0.000000 1.000000 0.000000
vn -0.000000 1.000000 0.000000
vn -0.000000 1.000000 0.000000
vn -0.000000 1.000000 0.000000
vn 0.000000 -1.000000 0.000000
vn 0.000000 -1.000000 0.000000
vn 0.000000 -1.000000 0.000000
vn 0.000000 -1.000000 0.000000
vn -0.000000 1.000000 -0.000000
vn -0.000000 1.000000 -0.000000
vn -0.000000 1.000000 -0.000000
vn -0.000000 1.000000 -0.000000
vn 0.000000 -1.000000 -0.000001
vn 0.000000 -1.000000 -0.000001
vn 0.000000 -1.000000 -0.000001
vn 0.000000 -1.000000 -0.000001
vn 0.264172 0.840727 0.472643
vn 0.264172 0.840727 0.472643
vn 0.264172 0.840727 0.472643
vn -0.000000 -1.000000 0.000000
vn -0.000000 -1.000000 0.000000
vn -0.000000 -1.000000 0.000000
vn -0.000000 -1.000000 0.000000
vn -1.000000 -0.000000 0.000000
vn -1.000000 -0.000000 0.000000
vn -1.000000 -0.000000 0.000000
vn -1.000000 -0.000000 0.000000
vn -1.000000 -0.000000 0.000000
vn -0.000000 -0.000001 1.000000
vn -0.000000 -0.000001 1.000000
vn -0.000000 -0.000001 1.000000
vn -0.000000 -0.000001 1.000000
vn -0.000000 -0.000001 1.000000
vn -0.000000 1.000000 0.000001
vn -0.000000 1.000000 0.000001
vn -0.000000 1.000000 0.000001
vn -0.000000 1.000000 0.000001
vn -0.000001 1.000000 0.000000
vn -0.000001 1.000000 0.000000
vn -0.000001 1.000000 0.000000
vn -0.000001 1.000000 0.000000
vn -0.210797 0.883519 0.418280
vn -0.210797 0.883519 0.418280
vn -0.210797 0.883519 0.418280
vn 0.776992 -0.000002 0.629510
vn 0.776992 -0.000002 0.629510
vn 0.776992 -0.000002 0.629510
vn 0.776992 -0.000002 0.629510
vn 0.776992 -0.000002 0.629510
vn 0.000000 1.000000 -0.000000
vn 0.000000 1.000000 -0.000000
vn 0.000000 1.000000 -0.000000
vn 0.000000 1.000000 -0.000000
vn 0.000000 1.000000 0.000000
vn 0.000000 1.000000 0.000000
vn 0.000000 1.000000 0.000000
vn 0.000000 1.000000 0.000000
vn 0.000000 0.000000 1.000000
vn 0.000000 0.000000 1.000000
vn 0.000000 0.000000 1.000000
vn 0.000000 0.000000 1.000000
vn 0.000000 0.000000 1.000000
vn 0.534551 0.787786 0.306022
vn 0.534551 0.787786 0.306022
vn 0.534551 0.787786 0.306022
vn -0.000000 0.000000 -1.000000
vn -0.000000 0.000000 -1.000000
vn -0.000000 0.000000 -1.000000
vn -0.000000 0.000000 -1.000000
vn -0.000000 0.000000 -1.000000
vn -0.000000 1.000000 -0.000000
vn -0.000000 1.000000 -0.000000
vn -0.000000 1.000000 -0.000000
vn -0.000000 1.000000 -0.000000
vn -0.000000 1.000000 -0.000000
vn -0.000000 1.000000 -0.000000
vn -0.000000 1.000000 -0.000000
vn -0.000000 1.000000 -0.000000
vn 1.000000 0.000000 0.000000
vn 1.000000 0.000000 0.000000
vn 1.000000 0.000000 0.000000
vn 1.000000 0.000000 0.000000
vn 1.000000 0.000000 0.000000
vn 0.105085 0.856741 -0.504927
vn 0.105085 0.856741 -0.504927
vn 0.105085 0.856741 -0.504927
vn 0.000000 -1.000000 0.000000
vn 0.000000 -1.000000 0.000000
vn 0.000000 -1.000000 0.000000
vn 0.000000 -1.000000 0.000000
vn 1.000000 0.000000 0.000000
vn 1.000000 0.000000 0.000000
vn 1.000000 0.000000 0.000000
vn 1.000000 0.000000 0.000000
vn 0.000000 1.000000 0.000000
vn 0.000000 1.000000 0.000000
vn 0.000000 1.000000 0.000000
vn -1.000000 0.000000 0.000000
vn -1.000000 0.000000 0.000000
vn -1.000000 0.000000 0.000000
vn -1.000000 0.000000 0.000000
vn 0.000000 0.000000 1.000000
vn 0.000000 0.000000 1.000000
vn 0.000000 0.000000 1.000000
vn 0.000000 0.000000 1.000000
vn 0.000000 -1.000000 0.000000
vn 0.000000 -1.000000 0.000000
vn 0.000000 -1.000000 0.000000
vn 0.000000 -1.000000 0.000000
vn 0.000000 1.000000 0.000000
vn 0.000000 1.000000 0.000000
vn 0.000000 1.000000 0.000000
vn 0.000000 1.000000 0.000000
vn -0.281078 0.959462 -0.020689
vn -0.281078 0.959462 -0.020689
vn -0.281078 0.959462 -0.020689
vn -0.281078 0.959462 -0.020689
vn 0.000000 -1.000000 0.000000
vn 0.000000 -1.000000 0.000000
vn 0.000000 -1.000000 0.000000
vn 0.000000 -1.000000 0.000000
vn 0.000000 -1.000000 0.000000
vn 0.000000 -1.000000 0.000000
vn 0.000000 -1.000000 0.000000
vn 0.000000 -1.000000 0.000000
vn 0.000000 -1.000000 -0.000000
vn 0.000000 -1.000000 -0.000000
vn 0.000000 -1.000000 -0.000000
vn 0.000000 -1.000000 -0.000000
vn 0.000000 1.000000 -0.000000
vn 0.000000 1.000000 -0.000000
vn 0.000000 1.000000 -0.000000
vn 0.000000 1.000000 -0.000000
vn -0.142632 0.836104 0.529703
vn -0.142632 0.836104 0.529703
vn -0.142632 0.836104 0.529703
vn 0.116895 0.762407 0.636452
vn 0.116895 0.762407 0.636452
vn 0.116895 0.762407 0.636452
vn -0.000000 0.000000 1.000000
vn -0.000000 0.000000 1.000000
vn -0.000000 0.000000 1.000000
vn -0.000000 0.000000 1.000000
vn 0.000000 0.000000 1.000000
vn 0.000000 0.000000 1.000000
vn 0.000000 0.000000 1.000000
vn 0.000000 0.000000 1.000000
vn 0.000000 1.000000 0.000000
vn 0.000000 1.000000 0.000000
vn 0.000000 1.000000 0.000000
vn 0.000000 1.000000 0.000000
vn 0.000000 1.000000 0.000000
vn 0.000000 1.000000 0.000000
vn 0.000000 1.000000 0.000000
vn 0.000000 1.000000 0.000000
vn 0.000000 1.000000 0.000000
vn 0.000000 1.000000 0.000000
vn 0.000000 1.000000 0.000000
vn -0.101240 0.908775 0.404820
vn -0.101240 0.908775 0.404820
vn -0.101240 0.908775 0.404820
vn 0.067891 0.851609 0.519762
vn 0.067891 0.851609 0.519762
vn 0.067891 0.851609 0.519762
vn 0.000000 1.000000 0.000000
vn 0.000000 1.000000 0.000000
vn 0.000000 1.000000 0.000000
vn 0.000000 1.000000 0.000000
vn -0.000000 0.000000 1.000000
vn -0.000000 0.000000 1.000000
vn -0.000000 0.000000 1.000000
vn -0.000000 0.000000 1.000000
vn 0.000000 1.000000 0.000000
vn 0.000000 1.000000 0.000000
vn 0.000000 1.000000 0.000000
vn 0.000000 1.000000 0.000000
vn 0.000000 1.000000 0.000000
vn 0.000000 1.000000 0.000000
vn -1.000000 0.000000 0.000000
vn -1.000000 0.000000 0.000000
vn -1.000000 0.000000 0.000000
vn 0.000000 -1.000000 0.000000
vn 0.000000 -1.000000 0.000000
vn 0.000000 -1.000000 0.000000
vn -0.253196 0.954955 -0.154767
vn -0.253196 0.954955 -0.154767
vn -0.253196 0.954955 -0.154767
vn -0.591600 0.805075 0.043180
vn -0.591600 0.805075 0.043180
vn -0.591600 0.805075 0.043180
vn 0.000000 0.000000 -1.000000
vn 0.000000 0.000000 -1.000000
vn 0.000000 0.000000 -1.000000
vn 0.000000 0.000000 -1.000000
vn 0.000000 0.000000 -1.000000
vn -1.000000 0.000000 0.000000
vn -1.000000 0.000000 0.000000
vn -1.000000 0.000000 0.000000
vn -1.000000 0.000000 0.000000
vn -1.000000 0.000000 0.000000
vn 0.000000 1.000000 0.000000
vn 0.000000 1.000000 0.000000
vn 0.000000 1.000000 0.000000
vn 0.000000 1.000000 0.000000
vn 0.000000 1.000000 0.000000
vn 0.000000 1.000000 0.000000
vn 0.000000 1.000000 0.000000
vn -0.354134 0.934115 -0.044930
vn -0.354134 0.934115 -0.044930
vn -0.354134 0.934115 -0.044930
s off
f 6/8/1 30/46/2 32/48/3
f 12/31/4 5/13/5 1/5/6
f 6/15/7 7/25/8 4/6/9
f 8/30/10 9/18/11 3/9/12
f 10/19/13 11/26/14 2/12/15
f 14/23/16 13/29/17 8/30/18 7/25/19
f 8/30/20 3/9/21 4/6/22 7/25/23
f 2/12/24 11/26/25 12/31/26 1/5/27
f 11/26/28 15/24/29 16/32/30 12/31/31
f 26/42/32 24/40/33 23/39/34 27/43/35
f 28/44/36 18/33/37 17/35/38 29/45/39
f 10/2/40 2/3/41 19/34/42 18/33/43
f 1/11/44 5/7/45 20/38/46 22/37/47
f 16/17/48 15/20/49 25/41/50 24/40/51
f 2/3/52 1/11/53 22/37/54 19/34/55
f 36/52/56 38/54/57 3/4/58
f 12/21/59 16/17/60 24/40/61 26/42/62
f 14/16/63 7/22/64 27/43/65 23/39/66
f 11/27/67 10/2/68 18/33/69 28/44/70
f 9/1/71 8/28/72 29/45/73 17/35/74
f 5/7/75 12/21/76 26/42/77 20/38/78
f 34/50/79 35/51/80 13/14/81
f 15/20/82 11/27/83 28/44/84 25/41/85
f 20/38/86 30/46/87 31/47/88 21/36/89 22/37/90
f 26/42/91 27/43/92 32/48/93 30/46/94 20/38/95
f 7/22/96 6/8/97 32/48/98 27/43/99
f 6/8/100 4/10/101 21/36/102 31/47/103
f 31/47/104 30/46/105 6/8/106
f 28/44/107 29/45/108 35/51/109 34/50/110 25/41/111
f 8/28/112 13/14/113 35/51/114 29/45/115
f 13/14/116 14/16/117 23/39/118 33/49/119
f 34/50/120 33/49/121 23/39/122 24/40/123 25/41/124
f 34/50/125 13/14/126 33/49/127
f 38/54/128 36/52/129 19/34/130 22/37/131 21/36/132
f 4/10/133 3/4/134 38/54/135 21/36/136
f 3/4/137 9/1/138 17/35/139 37/53/140
f 17/35/141 18/33/142 19/34/143 36/52/144 37/53/145
f 36/52/146 3/4/147 37/53/148
f 39/55/149 40/56/150 42/57/151 41/58/152
f 48/59/153 47/60/154 49/61/155 50/62/156
f 60/63/157 62/64/158 45/65/159
f 51/66/160 63/67/161 64/68/162 53/69/163
f 61/70/164 57/71/165 54/72/166 59/73/167
f 41/74/168 42/75/169 47/60/170 48/59/171
f 44/76/172 43/77/173 50/62/174 49/61/175
f 45/78/176 62/79/177 63/67/178 51/66/179
f 40/80/180 39/81/181 53/69/182 64/68/183
f 42/75/184 40/80/185 52/82/186 47/60/187
f 39/81/188 41/74/189 48/59/190 53/69/191
f 43/77/192 56/83/193 55/84/194 50/62/195
f 56/83/196 57/71/197 55/84/198
f 54/72/199 57/71/200 56/83/201
f 57/71/202 48/59/203 50/62/204 55/84/205
f 51/66/206 53/69/207 61/70/208 58/85/209
f 43/86/210 44/87/211 56/88/212
f 54/72/213 56/83/214 60/89/215 59/73/216
f 58/85/217 60/89/218 45/78/219 51/66/220
f 60/89/221 61/70/222 59/73/223
f 58/85/224 61/70/225 60/89/226
f 56/88/227 44/87/228 46/90/229 60/63/230
f 53/69/231 48/59/232 57/71/233 61/70/234
f 60/63/235 46/90/236 62/64/237
f 65/91/238 62/79/239 46/92/240
f 64/68/241 63/67/242 65/91/243
f 40/80/244 64/68/245 52/82/246
f 46/92/247 67/93/248 66/94/249
f 63/67/250 62/79/251 65/91/252
f 47/60/253 52/82/254 67/93/255 68/95/256 49/61/257
f 64/68/258 65/91/259 66/94/260 67/93/261 52/82/262
f 65/91/263 46/92/264 66/94/265
f 46/92/266 44/76/267 49/61/268 68/95/269
f 68/95/270 67/93/271 46/92/272
