# This file uses centimeters as units for non-parametric coordinates.

v -53.585236 -0.000008 -51.228935
v -53.585232 0.380074 50.977234
v 54.178482 0.307945 51.763439
v 54.178482 -0.000008 -50.939507
v -55.185226 1.600533 -51.234310
v 55.778481 1.599983 -50.939510
v -55.185230 1.981026 50.987881
v 55.778481 1.906914 51.774063
v -15.021065 0.037987 98.839798
v -5.422718 0.025185 99.868332
v -15.051048 1.636940 99.004883
v -5.449593 1.624336 100.004036
v 14.803024 -0.000008 -99.175812
v 5.771175 -0.000008 -100.071350
v 5.795696 1.599998 -100.190605
v 14.830055 1.599983 -99.320824
v -53.585228 -44.820225 -14.785458
v -53.585228 -45.750877 -5.757160
v -55.185226 -45.610184 -5.742582
v -55.185226 -44.679390 -14.770863
v 54.178493 -45.169640 14.785479
v 54.178490 -46.100288 5.757179
v 55.778496 -45.959583 5.743441
v 55.778496 -45.030403 14.771889
vt 0.218808 0.308623
vt 0.218806 0.308617
vt 0.218808 0.308623
vt 0.218808 0.308623
vt 0.218806 0.308617
vt 0.218806 0.308617
vt 0.218808 0.308623
vt 0.218806 0.308617
vt 0.218806 0.308617
vt 0.218808 0.308623
vt 0.218947 0.308294
vt 0.218946 0.308276
vt 0.218808 0.308623
vt 0.218808 0.308623
vt 0.218806 0.308617
vt 0.218808 0.308623
vt 0.218806 0.308617
vt 0.218806 0.308617
vt 0.218949 0.308288
vt 0.218943 0.308282
vt 0.218808 0.308623
vt 0.218806 0.308617
vt 0.218808 0.308623
vt 0.218806 0.308617
vn 0.000005 1.000000 -0.000004
vn 0.000005 1.000000 -0.000004
vn 0.000005 1.000000 -0.000005
vn 0.000005 1.000000 -0.000005
vn -1.000000 0.000000 0.000000
vn -1.000000 0.000000 0.000000
vn -1.000000 0.000000 -0.000000
vn -1.000000 0.000000 -0.000000
vn 1.000000 0.000000 -0.000000
vn 1.000000 0.000000 -0.000000
vn 1.000000 0.000000 -0.000000
vn 1.000000 0.000000 -0.000000
vn 0.000353 0.999994 -0.003354
vn 0.000353 0.999994 -0.003354
vn 0.000353 0.999994 -0.003354
vn 0.000353 0.999994 -0.003354
vn 0.000000 -1.000000 0.000000
vn 0.000000 -1.000000 0.000000
vn 0.000000 -1.000000 0.000000
vn 0.000000 -1.000000 0.000000
vn 1.000000 0.000000 -0.000000
vn 1.000000 0.000000 -0.000000
vn 1.000000 0.000000 -0.000000
vn 1.000000 0.000000 -0.000000
vn -1.000000 -0.000000 0.000000
vn -1.000000 -0.000000 0.000000
vn -1.000000 -0.000000 0.000000
vn -1.000000 -0.000000 0.000000
vn -0.000351 -0.999994 0.003358
vn -0.000351 -0.999994 0.003358
vn -0.000351 -0.999994 0.003358
vn -0.000351 -0.999994 0.003358
vn 0.717751 -0.358877 -0.596692
vn 0.708987 -0.387195 -0.589422
vn 0.708987 -0.387195 -0.589422
vn 0.717751 -0.358877 -0.596692
vn -0.596996 -0.322476 -0.734578
vn -0.596996 -0.322476 -0.734578
vn -0.601280 -0.301830 -0.739838
vn -0.601280 -0.301830 -0.739838
vn -0.297157 -0.596612 -0.745488
vn -0.323829 -0.591167 -0.738686
vn -0.323829 -0.591167 -0.738686
vn -0.297157 -0.596612 -0.745488
vn -0.382992 -0.712206 0.588285
vn -0.382992 -0.712206 0.588286
vn -0.358160 -0.719846 0.594595
vn -0.358160 -0.719846 0.594595
vn 0.295820 -0.596974 0.745730
vn 0.322060 -0.591646 0.739075
vn 0.322060 -0.591646 0.739076
vn 0.295820 -0.596974 0.745730
vn 0.384598 -0.711668 -0.587888
vn 0.384598 -0.711668 -0.587888
vn 0.359681 -0.719370 -0.594253
vn 0.359681 -0.719370 -0.594253
vn 0.590628 -0.324332 0.738896
vn 0.590628 -0.324332 0.738896
vn 0.595015 -0.302738 0.744518
vn 0.595015 -0.302738 0.744518
vn -0.721168 -0.364179 0.589314
vn -0.711674 -0.394442 0.581322
vn -0.711674 -0.394442 0.581322
vn -0.721168 -0.364179 0.589314
vn -0.000621 -0.999978 -0.006647
vn -0.000621 -0.999978 -0.006647
vn -0.000621 -0.999978 -0.006647
vn -0.000621 -0.999978 -0.006647
vn 0.000621 0.999978 0.006647
vn 0.000621 0.999978 0.006647
vn 0.000621 0.999978 0.006647
vn 0.000621 0.999978 0.006647
vn -0.104676 -0.094969 0.989962
vn -0.104676 -0.094969 0.989962
vn -0.104676 -0.094969 0.989962
vn -0.104676 -0.094969 0.989962
vn 0.096911 -0.083467 -0.991787
vn 0.096911 -0.083467 -0.991787
vn 0.096911 -0.083467 -0.991787
vn 0.096911 -0.083467 -0.991787
vn -0.088105 -0.990860 -0.102147
vn -0.088105 -0.990860 -0.102147
vn -0.088105 -0.990860 -0.102147
vn -0.088105 -0.990860 -0.102147
vn 0.087558 -0.990917 0.102064
vn 0.087558 -0.990917 0.102064
vn 0.087558 -0.990917 0.102064
vn 0.087558 -0.990917 0.102064
s off
f 5/9/1 6/18/2 16/20/3 15/12/4
f 7/2/5 5/9/6 20/22/7 19/15/8
f 6/18/9 8/6/10 24/24/11 23/17/12
f 7/2/13 8/6/14 6/18/15 5/9/16
f 1/13/17 14/19/18 13/11/19 4/10/20
f 2/3/21 18/21/22 17/14/23 1/13/24
f 4/10/25 22/23/26 21/16/27 3/1/28
f 2/3/29 1/13/30 4/10/31 3/1/32
f 4/10/33 13/11/34 16/20/35 6/18/36
f 15/12/37 14/19/38 1/13/39 5/9/40
f 1/13/41 17/14/42 20/22/43 5/9/44
f 19/15/45 18/21/46 2/3/47 7/2/48
f 3/1/49 21/16/50 24/24/51 8/6/52
f 23/17/53 22/23/54 4/10/55 6/18/56
f 12/5/57 10/7/58 3/1/59 8/6/60
f 2/3/61 9/4/62 11/8/63 7/2/64
f 10/7/65 9/4/66 2/3/67 3/1/68
f 11/8/69 12/5/70 8/6/71 7/2/72
f 9/4/73 10/7/74 12/5/75 11/8/76
f 13/11/77 14/19/78 15/12/79 16/20/80
f 17/14/81 18/21/82 19/15/83 20/22/84
f 21/16/85 22/23/86 23/17/87 24/24/88
