# This file uses centimeters as units for non-parametric coordinates.

v 0.000000 13.671968 3.925995
v 0.000000 13.671968 -3.926020
v 0.000000 135.000000 -0.000015
v 0.000000 40.240620 3.925994
v 0.000000 40.240620 -3.926023
v 0.000000 119.510841 2.998064
v 0.000000 119.510841 -2.998098
v 0.000000 131.967987 2.058321
v 0.000000 131.967987 -2.058348
v -0.941577 13.671968 1.257909
v -0.941577 13.671968 -1.257933
v 0.941577 13.671968 -1.257933
v 0.941577 13.671968 1.257909
v 0.941663 40.228336 1.257908
v 0.941663 40.228336 -1.257931
v 0.391006 119.419479 -0.899008
v 0.391006 119.419479 0.898989
v -0.391006 119.419479 0.898989
v -0.391006 119.419479 -0.899008
v -0.941663 40.228333 -1.257934
v -0.941663 40.228333 1.257909
v -0.367056 131.257370 -0.000017
v 0.367056 131.257385 -0.000017
v 0.000000 79.612717 3.465105
v 0.668161 79.561157 0.940718
v 0.668161 79.561157 -0.940752
v 0.000000 79.612717 -3.465139
v -0.668161 79.561157 -0.940752
v -0.668161 79.561157 0.940718
v -0.401964 14.121973 0.637904
v -0.401964 14.121972 -0.637940
v 0.401964 14.121972 -0.637940
v 0.401964 14.121972 0.637904
v 0.402072 40.219936 -0.637939
v 0.402063 40.223080 0.637907
v -0.402063 40.223068 -0.637940
v -0.402071 40.219936 0.637906
v 0.224430 78.658043 -0.327971
v 0.224430 78.658043 0.327936
v -0.224430 78.658043 -0.327971
v -0.224430 78.658043 0.327936
v -0.668161 83.169983 -0.000017
v -0.224430 79.974319 -0.000019
v 0.224430 79.974327 -0.000019
v 0.668161 83.169983 -0.000017
v 0.000000 25.711319 -3.926019
v -0.941616 25.705746 -1.257933
v -0.402009 25.949448 -0.637940
v -0.402013 25.948027 0.637905
v -0.941616 25.705746 1.257908
v 0.000000 25.711315 3.925995
v 0.941616 25.705748 1.257907
v 0.402009 25.949453 0.637906
v 0.402013 25.948029 -0.637940
v 0.941616 25.705748 -1.257933
v 0.000000 19.691643 -2.881784
v -0.941597 19.688858 -1.257932
v -0.941597 19.688858 1.257909
v 0.000000 19.691643 2.881760
v 0.941597 19.688858 1.257909
v 0.941597 19.688858 -1.257932
v 0.000000 32.975971 2.881761
v -0.941639 32.967041 1.257908
v -0.941639 32.967041 -1.257933
v 0.000000 32.975971 -2.881783
v 0.941639 32.967041 -1.257933
v 0.941639 32.967041 1.257908
v 0.794631 61.373291 -1.389708
v 0.766338 65.442123 0.830822
v -0.799469 60.677551 -1.093039
v -0.770862 64.791542 1.059814
v 0.299765 62.357117 -0.355135
v 0.291815 64.077835 0.117472
v -0.300979 62.094872 -0.461550
v -0.292956 63.830303 0.447521
v 0.000000 63.748508 3.665401
v 0.000000 55.233486 -3.787881
v 0.000000 73.136826 3.550177
v 0.000000 60.585892 -3.672659
v 0.191585 68.801682 2.891611
v 0.198658 57.324226 -3.153799
v -0.199867 57.150291 -3.079632
v -0.192716 68.639030 2.948860
v -0.593112 79.408417 -0.837109
v -0.671049 79.145882 -0.944102
v 0.000000 125.689911 2.531923
v 0.000000 122.575623 2.766859
v 0.095788 123.523590 2.168365
v -0.095788 123.523590 2.168365
vt 0.089684 0.374812
vt 0.089696 0.374805
vt 0.089693 0.374799
vt 0.089682 0.374806
vt 0.090099 0.375001
vt 0.090114 0.374984
vt 0.090482 0.375157
vt 0.090476 0.375172
vt 0.090474 0.375177
vt 0.090480 0.375161
vt 0.090114 0.374992
vt 0.090100 0.375009
vt 0.089839 0.374865
vt 0.089828 0.374873
vt 0.089830 0.374879
vt 0.089841 0.374871
vt 0.090614 0.375231
vt 0.090616 0.375227
vt 0.089711 0.374789
vt 0.089695 0.374791
vt 0.089700 0.374803
vt 0.089661 0.374820
vt 0.089678 0.374817
vt 0.089672 0.374806
vt 0.090125 0.374976
vt 0.090489 0.375142
vt 0.090469 0.375193
vt 0.090089 0.375019
vt 0.089858 0.374854
vt 0.089843 0.374858
vt 0.089810 0.374891
vt 0.089821 0.374875
vt 0.089847 0.374869
vt 0.089825 0.374886
vt 0.090628 0.375214
vt 0.090619 0.375253
vt 0.090661 0.375250
vt 0.090102 0.374989
vt 0.090097 0.374995
vt 0.090097 0.374998
vt 0.090102 0.374992
vt 0.090107 0.375001
vt 0.090100 0.374995
vt 0.090100 0.374992
vt 0.090107 0.374993
vt 0.089777 0.374818
vt 0.089767 0.374833
vt 0.089762 0.374835
vt 0.089750 0.374843
vt 0.089745 0.374849
vt 0.089729 0.374852
vt 0.089740 0.374837
vt 0.089748 0.374837
vt 0.089759 0.374829
vt 0.089762 0.374821
vt 0.089744 0.374804
vt 0.089734 0.374818
vt 0.089711 0.374833
vt 0.089695 0.374836
vt 0.089706 0.374821
vt 0.089729 0.374806
vt 0.089770 0.374872
vt 0.089785 0.374868
vt 0.089807 0.374851
vt 0.089817 0.374836
vt 0.089803 0.374839
vt 0.089780 0.374856
vt 0.089989 0.374926
vt 0.090000 0.374956
vt 0.089986 0.374933
vt 0.089997 0.374963
vt 0.089990 0.374936
vt 0.089995 0.374949
vt 0.089990 0.374940
vt 0.089994 0.374952
vt 0.089915 0.374939
vt 0.089911 0.374878
vt 0.090055 0.375003
vt 0.090045 0.374939
vt 0.090010 0.374972
vt 0.089977 0.374914
vt 0.089975 0.374918
vt 0.090009 0.374975
vt 0.090112 0.374992
vt 0.090111 0.374991
vt 0.090568 0.375233
vt 0.090494 0.375203
vt 0.090520 0.375202
vt 0.090519 0.375204
vn -0.000001 -1.000000 0.000001
vn -0.000001 -1.000000 0.000001
vn -0.000001 -1.000000 0.000001
vn -0.000001 -1.000000 0.000001
vn 0.999971 0.007646 0.000000
vn 0.999971 0.007646 0.000000
vn 0.999971 0.007646 0.000000
vn -0.999617 0.006979 0.026772
vn -0.999617 0.006979 0.026772
vn -0.999617 0.006979 0.026772
vn -0.999998 0.002023 0.000000
vn -0.999998 0.002023 0.000000
vn -0.999998 0.002023 0.000000
vn 0.999998 0.002023 0.000000
vn 0.999998 0.002023 0.000000
vn 0.999998 0.002023 0.000000
vn 0.000000 -1.000000 -0.000000
vn 0.000000 -1.000000 -0.000000
vn 0.000000 -1.000000 -0.000000
vn 0.000000 -1.000000 0.000000
vn 0.000000 -1.000000 0.000000
vn 0.000000 -1.000000 0.000000
vn 0.974771 0.004811 -0.223156
vn 0.974771 0.004811 -0.223156
vn 0.974771 0.004811 -0.223156
vn 0.974771 0.004811 -0.223156
vn 0.974771 0.004811 0.223157
vn 0.974771 0.004811 0.223157
vn 0.974771 0.004811 0.223157
vn 0.974771 0.004811 0.223157
vn -0.974771 0.004811 -0.223156
vn -0.974771 0.004811 -0.223156
vn -0.974771 0.004811 -0.223156
vn -0.974771 0.004811 -0.223156
vn -0.974771 0.004811 0.223157
vn -0.974771 0.004811 0.223157
vn -0.974771 0.004811 0.223157
vn -0.974771 0.004811 0.223157
vn 0.915378 0.028866 -0.401560
vn 0.915378 0.028866 -0.401560
vn 0.915378 0.028866 -0.401560
vn 0.915378 0.028866 -0.401560
vn 0.915378 0.028866 0.401560
vn 0.915378 0.028866 0.401560
vn 0.915378 0.028866 0.401560
vn 0.915378 0.028866 0.401560
vn -0.915378 0.028866 -0.401560
vn -0.915378 0.028866 -0.401560
vn -0.915378 0.028866 -0.401560
vn -0.915378 0.028866 -0.401560
vn -0.915378 0.028866 0.401560
vn -0.915378 0.028866 0.401560
vn -0.915378 0.028866 0.401560
vn -0.915378 0.028866 0.401560
vn -0.984163 0.014342 -0.176685
vn -0.984163 0.014342 -0.176685
vn -0.984163 0.014342 -0.176685
vn -0.984163 0.014342 -0.176685
vn 0.984163 0.014342 -0.176685
vn 0.984163 0.014342 -0.176685
vn 0.984163 0.014342 -0.176685
vn 0.984163 0.014342 -0.176685
vn -0.973751 0.095500 0.206612
vn -0.973751 0.095500 0.206612
vn -0.973751 0.095500 0.206612
vn -0.973751 0.095500 0.206612
vn -0.000000 0.000001 -1.000000
vn -0.000000 0.000001 -1.000000
vn -0.000000 0.000001 -1.000000
vn 0.985095 0.096613 -0.142315
vn 0.985095 0.096613 -0.142315
vn 0.985095 0.096613 -0.142315
vn 0.985095 0.096613 0.142314
vn 0.985095 0.096613 0.142314
vn 0.985095 0.096613 0.142314
vn 1.000000 -0.000000 0.000000
vn 1.000000 -0.000000 0.000000
vn 1.000000 -0.000000 0.000000
vn -0.300494 0.302848 -0.904426
vn -0.300494 0.302848 -0.904426
vn -0.300494 0.302848 -0.904426
vn -0.999989 0.004622 0.000004
vn -0.999989 0.004622 0.000004
vn -0.999989 0.004622 0.000004
vn -0.999989 0.004622 0.000004
vn 0.084287 0.147704 0.985434
vn 0.084287 0.147704 0.985434
vn 0.084287 0.147704 0.985434
vn 0.000000 -0.809294 0.587404
vn 0.000000 -0.809294 0.587404
vn 0.000000 -0.809294 0.587404
vn 0.000000 -0.809294 0.587404
vn -0.000000 -0.809299 -0.587397
vn -0.000000 -0.809299 -0.587397
vn -0.000000 -0.809299 -0.587397
vn -0.000000 -0.809299 -0.587397
vn 0.754317 -0.000002 0.656510
vn 0.754317 -0.000002 0.656510
vn 0.754317 -0.000002 0.656510
vn 0.754319 -0.000002 -0.656509
vn 0.754319 -0.000002 -0.656509
vn 0.754319 -0.000002 -0.656509
vn -0.754314 -0.000002 0.656514
vn -0.754314 -0.000002 0.656514
vn -0.754314 -0.000002 0.656514
vn -0.754322 -0.000002 -0.656505
vn -0.754322 -0.000002 -0.656505
vn -0.754322 -0.000002 -0.656505
vn 0.848719 0.003044 0.528836
vn 0.848719 0.003044 0.528836
vn 0.848719 0.003044 0.528836
vn 0.848719 0.003044 0.528836
vn 0.876505 -0.120085 -0.466175
vn 0.876505 -0.120085 -0.466175
vn 0.876505 -0.120085 -0.466175
vn 0.876505 -0.120085 -0.466175
vn 0.813039 0.011188 -0.582103
vn 0.813039 0.011188 -0.582103
vn 0.813039 0.011188 -0.582103
vn 0.813039 0.011188 -0.582103
vn -0.876505 -0.120085 -0.466173
vn -0.876505 -0.120085 -0.466173
vn -0.876505 -0.120085 -0.466173
vn -0.876505 -0.120085 -0.466173
vn -0.797156 -0.000197 0.603774
vn -0.797156 -0.000197 0.603774
vn -0.797156 -0.000197 0.603774
vn -0.797156 -0.000197 0.603774
vn -0.797156 -0.000197 0.603774
vn -0.771362 -0.000650 -0.636396
vn -0.771362 -0.000650 -0.636396
vn -0.771362 -0.000650 -0.636396
vn -0.771362 -0.000650 -0.636396
vn -0.999617 0.006979 -0.026772
vn -0.999617 0.006979 -0.026772
vn -0.999617 0.006979 -0.026772
vn -0.876505 -0.120085 0.466176
vn -0.876505 -0.120085 0.466176
vn -0.876505 -0.120085 0.466176
vn -0.876505 -0.120085 0.466176
vn -0.876505 -0.120085 0.466176
vn 0.876504 -0.120085 0.466177
vn 0.876504 -0.120085 0.466177
vn 0.876504 -0.120085 0.466177
vn 0.876504 -0.120085 0.466177
vn 0.999617 0.006979 0.026772
vn 0.999617 0.006979 0.026772
vn 0.999617 0.006979 0.026772
vn 0.999617 0.006979 -0.026772
vn 0.999617 0.006979 -0.026772
vn 0.999617 0.006979 -0.026772
vn -0.999971 0.007646 0.000000
vn -0.999971 0.007646 0.000000
vn -0.999971 0.007646 0.000000
vn 0.999989 0.004622 -0.000002
vn 0.999989 0.004622 -0.000002
vn 0.999989 0.004622 -0.000002
vn 0.999989 0.004622 -0.000002
vn -1.000000 0.000000 0.000000
vn -1.000000 0.000000 0.000000
vn -1.000000 0.000000 0.000000
vn -0.915146 -0.034844 -0.401615
vn -0.915146 -0.034844 -0.401615
vn -0.915146 -0.034844 -0.401615
vn -0.915146 -0.034844 -0.401615
vn -0.754314 -0.000002 0.656514
vn -0.754314 -0.000002 0.656514
vn -0.754314 -0.000002 0.656514
vn -0.754322 -0.000003 -0.656505
vn -0.754322 -0.000003 -0.656505
vn -0.754322 -0.000003 -0.656505
vn -0.915146 -0.034844 0.401615
vn -0.915146 -0.034844 0.401615
vn -0.915146 -0.034844 0.401615
vn -0.915146 -0.034844 0.401615
vn 0.915146 -0.034844 0.401615
vn 0.915146 -0.034844 0.401615
vn 0.915146 -0.034844 0.401615
vn 0.915146 -0.034844 0.401615
vn 0.754319 -0.000003 -0.656509
vn 0.754319 -0.000003 -0.656509
vn 0.754319 -0.000003 -0.656509
vn 0.754317 -0.000002 0.656510
vn 0.754317 -0.000002 0.656510
vn 0.754317 -0.000002 0.656510
vn 0.915146 -0.034844 -0.401615
vn 0.915146 -0.034844 -0.401615
vn 0.915146 -0.034844 -0.401615
vn 0.915146 -0.034844 -0.401615
vn -0.915182 0.034834 -0.401532
vn -0.915182 0.034834 -0.401532
vn -0.915182 0.034834 -0.401532
vn -0.915182 0.034834 -0.401532
vn -0.754311 -0.000003 0.656517
vn -0.754311 -0.000003 0.656517
vn -0.754311 -0.000003 0.656517
vn -0.754311 -0.000003 0.656517
vn -1.000000 -0.000004 -0.000002
vn -1.000000 -0.000004 -0.000002
vn -1.000000 -0.000004 -0.000002
vn -1.000000 -0.000004 -0.000002
vn -0.754318 -0.000003 -0.656509
vn -0.754318 -0.000003 -0.656509
vn -0.754318 -0.000003 -0.656509
vn -0.754318 -0.000003 -0.656509
vn -0.915182 0.034834 0.401532
vn -0.915182 0.034834 0.401532
vn -0.915182 0.034834 0.401532
vn -0.915182 0.034834 0.401532
vn 0.915182 0.034833 0.401532
vn 0.915182 0.034833 0.401532
vn 0.915182 0.034833 0.401532
vn 0.915182 0.034833 0.401532
vn 0.754317 -0.000003 -0.656510
vn 0.754317 -0.000003 -0.656510
vn 0.754317 -0.000003 -0.656510
vn 0.754317 -0.000003 -0.656510
vn 1.000000 -0.000004 0.000002
vn 1.000000 -0.000004 0.000002
vn 1.000000 -0.000004 0.000002
vn 1.000000 -0.000004 0.000002
vn 0.754311 -0.000003 0.656517
vn 0.754311 -0.000003 0.656517
vn 0.754311 -0.000003 0.656517
vn 0.754311 -0.000003 0.656517
vn 0.915182 0.034834 -0.401532
vn 0.915182 0.034834 -0.401532
vn 0.915182 0.034834 -0.401532
vn 0.915182 0.034834 -0.401532
vn -0.915285 -0.028884 0.401770
vn -0.915285 -0.028884 0.401770
vn -0.915285 -0.028884 0.401770
vn -0.915285 -0.028884 0.401770
vn -0.754327 -0.000003 -0.656499
vn -0.754327 -0.000003 -0.656499
vn -0.754327 -0.000003 -0.656499
vn -0.754327 -0.000003 -0.656499
vn -1.000000 -0.000004 -0.000005
vn -1.000000 -0.000004 -0.000005
vn -1.000000 -0.000004 -0.000005
vn -1.000000 -0.000004 -0.000005
vn -0.754317 -0.000003 0.656510
vn -0.754317 -0.000003 0.656510
vn -0.754317 -0.000003 0.656510
vn -0.754317 -0.000003 0.656510
vn -0.915285 -0.028884 -0.401770
vn -0.915285 -0.028884 -0.401770
vn -0.915285 -0.028884 -0.401770
vn -0.915285 -0.028884 -0.401770
vn 0.915285 -0.028884 -0.401769
vn 0.915285 -0.028884 -0.401769
vn 0.915285 -0.028884 -0.401769
vn 0.915285 -0.028884 -0.401769
vn 0.754322 -0.000003 0.656505
vn 0.754322 -0.000003 0.656505
vn 0.754322 -0.000003 0.656505
vn 0.754322 -0.000003 0.656505
vn 1.000000 -0.000004 0.000005
vn 1.000000 -0.000004 0.000005
vn 1.000000 -0.000004 0.000005
vn 1.000000 -0.000004 0.000005
vn 0.754322 -0.000003 -0.656505
vn 0.754322 -0.000003 -0.656505
vn 0.754322 -0.000003 -0.656505
vn 0.754322 -0.000003 -0.656505
vn 0.915285 -0.028884 0.401770
vn 0.915285 -0.028884 0.401770
vn 0.915285 -0.028884 0.401770
vn 0.915285 -0.028884 0.401770
vn -0.985095 0.096613 0.142317
vn -0.985095 0.096613 0.142317
vn -0.985095 0.096613 0.142317
vn -0.999989 0.004622 0.000002
vn -0.999989 0.004622 0.000002
vn -0.999989 0.004622 0.000002
vn -0.999989 0.004622 0.000002
vn 0.868829 -0.001751 0.495110
vn 0.868829 -0.001751 0.495110
vn 0.868829 -0.001751 0.495110
vn 0.868829 -0.001751 0.495110
vn 0.799347 -0.006950 -0.600830
vn 0.799347 -0.006950 -0.600830
vn 0.799347 -0.006950 -0.600830
vn 0.799347 -0.006950 -0.600830
vn -0.769270 -0.000730 0.638924
vn -0.769270 -0.000730 0.638924
vn -0.769270 -0.000730 0.638924
vn -0.769270 -0.000730 0.638924
vn -0.799275 -0.000222 -0.600965
vn -0.799275 -0.000222 -0.600965
vn -0.799275 -0.000222 -0.600965
vn -0.799275 -0.000222 -0.600965
vn 0.999989 0.004621 -0.000004
vn 0.999989 0.004621 -0.000004
vn 0.999989 0.004621 -0.000004
vn 0.999989 0.004621 -0.000004
vn 0.947531 0.005220 0.319622
vn 0.947531 0.005220 0.319622
vn 0.947531 0.005220 0.319622
vn 0.947531 0.005220 0.319622
vn 0.966613 0.003538 0.256215
vn 0.966613 0.003538 0.256215
vn 0.966613 0.003538 0.256215
vn 0.966613 0.003538 0.256215
vn -0.965849 0.004775 0.259063
vn -0.965849 0.004775 0.259063
vn -0.965849 0.004775 0.259063
vn -0.965849 0.004775 0.259063
vn -0.946082 0.004724 0.323894
vn -0.946082 0.004724 0.323894
vn -0.946082 0.004724 0.323894
vn -0.946082 0.004724 0.323894
vn -0.952735 0.009074 -0.303668
vn -0.952735 0.009074 -0.303668
vn -0.952735 0.009074 -0.303668
vn -0.952735 0.009074 -0.303669
vn -0.952735 0.009074 -0.303669
vn -0.952735 0.009074 -0.303669
vn 0.963108 0.004826 -0.269072
vn 0.963108 0.004826 -0.269072
vn 0.963108 0.004826 -0.269072
vn 0.963108 0.004826 -0.269072
vn 0.944467 0.003870 -0.328583
vn 0.944467 0.003870 -0.328583
vn 0.944467 0.003870 -0.328583
vn 0.944467 0.003870 -0.328583
vn 0.936208 0.015177 -0.351120
vn 0.936208 0.015177 -0.351120
vn 0.936208 0.015177 -0.351120
vn 0.944200 0.004513 -0.329343
vn 0.944200 0.004513 -0.329343
vn 0.944200 0.004513 -0.329343
vn -0.809334 0.000889 0.587348
vn -0.809334 0.000889 0.587348
vn -0.809334 0.000889 0.587348
vn -0.964376 0.004110 -0.264503
vn -0.964376 0.004110 -0.264503
vn -0.964376 0.004110 -0.264503
vn -0.964376 0.004110 -0.264503
vn -0.964376 0.004110 -0.264503
vn -0.946455 0.004970 -0.322797
vn -0.946455 0.004970 -0.322797
vn -0.946455 0.004970 -0.322797
vn -0.946455 0.004970 -0.322797
vn -0.111422 -0.162740 -0.980358
vn -0.111422 -0.162740 -0.980358
vn -0.111422 -0.162740 -0.980358
vn 0.202939 -0.138292 0.969377
vn 0.202939 -0.138292 0.969377
vn 0.202939 -0.138292 0.969377
vn 0.967676 0.010997 0.251958
vn 0.967676 0.010997 0.251958
vn 0.967676 0.010997 0.251958
vn 0.965175 0.004675 0.261565
vn 0.965175 0.004675 0.261565
vn 0.965175 0.004675 0.261565
vn -0.961114 0.008909 0.276007
vn -0.961114 0.008909 0.276007
vn -0.961114 0.008909 0.276007
vn -0.961115 0.008909 0.276006
vn -0.961115 0.008909 0.276006
vn -0.961115 0.008909 0.276006
vn 0.000000 0.533852 0.845578
vn 0.000000 0.533852 0.845578
vn 0.000000 0.533852 0.845578
vn 0.984954 0.013418 0.172294
vn 0.984954 0.013418 0.172294
vn 0.984954 0.013418 0.172294
vn 0.984954 0.013418 0.172294
vn -0.984954 0.013418 0.172294
vn -0.984954 0.013418 0.172294
vn -0.984954 0.013418 0.172294
vn -0.984954 0.013418 0.172294
vn -0.983212 0.014144 0.181918
vn -0.983212 0.014144 0.181918
vn -0.983212 0.014144 0.181918
vn -0.983212 0.014144 0.181918
vn 0.983212 0.014144 0.181919
vn 0.983212 0.014144 0.181919
vn 0.983212 0.014144 0.181919
vn 0.983212 0.014144 0.181919
vn 0.983811 0.015549 0.178533
vn 0.983811 0.015549 0.178533
vn 0.983811 0.015549 0.178533
vn 0.000000 -0.165508 0.986208
vn 0.000000 -0.165508 0.986208
vn 0.000000 -0.165508 0.986208
vn -0.983811 0.015549 0.178533
vn -0.983811 0.015549 0.178533
vn -0.983811 0.015549 0.178533
s off
f 33/4/1 30/1/2 31/2/3 32/3/4
f 16/7/5 17/8/6 45/45/7
f 18/9/8 42/42/9 29/12/10
f 22/17/11 19/10/12 18/9/13
f 17/8/14 16/7/15 23/18/16
f 2/19/17 12/20/18 11/21/19
f 1/22/20 10/23/21 13/24/22
f 26/6/23 27/25/24 7/26/25 16/7/26
f 6/27/27 24/28/28 25/5/29 17/8/30
f 7/26/31 27/25/32 28/11/33 19/10/34
f 29/12/35 24/28/36 6/27/37 18/9/38
f 55/55/39 46/46/40 65/65/41 66/66/42
f 67/67/43 62/62/44 51/51/45 52/52/46
f 64/64/47 65/65/48 46/46/49 47/47/50
f 50/50/51 51/51/52 62/62/53 63/63/54
f 9/35/55 7/26/56 19/10/57 22/17/58
f 7/26/59 9/35/60 23/18/61 16/7/62
f 3/37/63 9/35/64 22/17/65 23/18/66
f 22/17/67 3/37/68 23/18/69
f 9/35/70 3/37/71 23/18/72
f 3/37/73 8/36/74 23/18/75
f 44/44/76 39/39/77 38/38/78
f 82/82/79 81/81/80 77/77/81
f 37/15/82 75/75/83 74/74/84 36/16/85
f 83/83/86 76/76/87 80/80/88
f 11/21/89 12/20/90 32/3/91 31/2/92
f 13/24/93 10/23/94 30/1/95 33/4/96
f 54/54/97 55/55/98 66/66/99
f 53/53/100 67/67/101 52/52/102
f 48/48/103 64/64/104 47/47/105
f 49/49/106 50/50/107 63/63/108
f 15/30/109 68/68/110 72/72/111 34/13/112
f 45/45/113 25/5/114 39/39/115 44/44/116
f 25/5/117 69/69/118 73/73/119 39/39/120
f 29/12/121 42/42/122 43/43/123 41/40/124
f 84/84/125 85/85/126 70/70/127 74/74/128 40/41/129
f 21/34/130 71/71/131 75/75/132 37/15/133
f 42/42/134 19/10/135 28/11/136
f 43/43/137 42/42/138 28/11/139 84/84/140 40/41/141
f 26/6/142 45/45/143 44/44/144 38/38/145
f 25/5/146 45/45/147 17/8/148
f 16/7/149 45/45/150 26/6/151
f 42/42/152 18/9/153 19/10/154
f 38/38/155 39/39/156 73/73/157 72/72/158
f 40/41/159 41/40/160 43/43/161
f 47/47/162 46/46/163 56/56/164 57/57/165
f 48/48/166 47/47/167 57/57/168
f 49/49/169 58/58/170 50/50/171
f 58/58/172 59/59/173 51/51/174 50/50/175
f 52/52/176 51/51/177 59/59/178 60/60/179
f 53/53/180 52/52/181 60/60/182
f 54/54/183 61/61/184 55/55/185
f 61/61/186 56/56/187 46/46/188 55/55/189
f 57/57/190 56/56/191 2/19/192 11/21/193
f 48/48/194 57/57/195 11/21/196 31/2/197
f 30/1/198 49/49/199 48/48/200 31/2/201
f 10/23/202 58/58/203 49/49/204 30/1/205
f 1/22/206 59/59/207 58/58/208 10/23/209
f 60/60/210 59/59/211 1/22/212 13/24/213
f 53/53/214 60/60/215 13/24/216 33/4/217
f 54/54/218 53/53/219 33/4/220 32/3/221
f 12/20/222 61/61/223 54/54/224 32/3/225
f 2/19/226 56/56/227 61/61/228 12/20/229
f 63/63/230 62/62/231 4/31/232 21/34/233
f 49/49/234 63/63/235 21/34/236 37/15/237
f 48/48/238 49/49/239 37/15/240 36/16/241
f 20/33/242 64/64/243 48/48/244 36/16/245
f 5/29/246 65/65/247 64/64/248 20/33/249
f 66/66/250 65/65/251 5/29/252 15/30/253
f 54/54/254 66/66/255 15/30/256 34/13/257
f 35/14/258 53/53/259 54/54/260 34/13/261
f 14/32/262 67/67/263 53/53/264 35/14/265
f 4/31/266 62/62/267 67/67/268 14/32/269
f 8/36/270 3/37/271 22/17/272
f 74/74/273 75/75/274 41/40/275 40/41/276
f 72/72/277 68/68/278 26/6/279 38/38/280
f 73/73/281 69/69/282 14/32/283 35/14/284
f 74/74/285 70/70/286 20/33/287 36/16/288
f 75/75/289 71/71/290 29/12/291 41/40/292
f 72/72/293 73/73/294 35/14/295 34/13/296
f 14/32/297 80/80/298 76/76/299 4/31/300
f 25/5/301 24/28/302 78/78/303 80/80/304
f 29/12/305 83/83/306 78/78/307 24/28/308
f 4/31/309 76/76/310 83/83/311 21/34/312
f 70/70/313 82/82/314 20/33/315
f 85/85/316 82/82/317 70/70/318
f 26/6/319 81/81/320 79/79/321 27/25/322
f 5/29/323 77/77/324 81/81/325 15/30/326
f 68/68/327 81/81/328 26/6/329
f 15/30/330 81/81/331 68/68/332
f 28/11/333 85/85/334 84/84/335
f 28/11/336 27/25/337 79/79/338 82/82/339 85/85/340
f 20/33/341 82/82/342 77/77/343 5/29/344
f 82/82/345 79/79/346 81/81/347
f 83/83/348 80/80/349 78/78/350
f 69/69/351 80/80/352 14/32/353
f 25/5/354 80/80/355 69/69/356
f 71/71/357 83/83/358 29/12/359
f 21/34/360 83/83/361 71/71/362
f 88/88/363 89/89/364 87/87/365
f 8/36/366 86/86/367 88/88/368 23/18/369
f 22/17/370 89/89/371 86/86/372 8/36/373
f 6/27/374 87/87/375 89/89/376 18/9/377
f 17/8/378 88/88/379 87/87/380 6/27/381
f 88/88/382 17/8/383 23/18/384
f 88/88/385 86/86/386 89/89/387
f 22/17/388 18/9/389 89/89/390
