# This file uses centimeters as units for non-parametric coordinates.

v 0.000000 13.671968 3.926008
v 0.000000 13.671968 -3.926007
v 0.000000 57.999840 0.000000
v 0.000000 45.106178 2.998081
v 0.000000 45.106178 -2.998081
v 0.000000 54.967827 2.058342
v 0.000000 54.967827 -2.058342
v -0.941577 13.671968 1.826007
v -0.941577 13.671968 -1.826007
v 0.941577 13.671968 -1.826007
v 0.941577 13.671968 1.826007
v 0.391006 45.014801 -0.899006
v 0.391006 45.014801 0.899006
v -0.391006 45.014801 0.899006
v -0.391006 45.014801 -0.899006
v -0.367056 54.257225 0.000000
v 0.367056 54.257225 0.000000
v 0.000000 35.583065 3.465122
v 0.668161 35.531502 1.365582
v 0.668161 35.531502 -1.365582
v 0.000000 35.583065 -3.465122
v -0.668161 35.531502 -1.365582
v -0.668161 35.531502 1.365582
v -0.401964 14.121972 0.926007
v -0.401964 14.121972 -0.926007
v 0.401964 14.121972 -0.926007
v 0.401964 14.121972 0.926007
v 0.224430 34.628387 -0.476055
v 0.224430 34.628387 0.476055
v -0.224430 34.628387 -0.476055
v -0.224430 34.628387 0.476055
v -0.668161 39.140327 0.000000
v -0.224430 35.944668 0.000000
v 0.224430 35.944668 0.000000
v 0.668161 39.140327 0.000000
vt 0.089682 0.374806
vt 0.089684 0.374812
vt 0.089696 0.374805
vt 0.089693 0.374799
vt 0.090482 0.375157
vt 0.090476 0.375172
vt 0.090107 0.374993
vt 0.090474 0.375177
vt 0.090107 0.375001
vt 0.090100 0.375009
vt 0.090614 0.375231
vt 0.090480 0.375161
vt 0.090616 0.375227
vt 0.089711 0.374789
vt 0.089695 0.374791
vt 0.089700 0.374803
vt 0.089661 0.374820
vt 0.089678 0.374817
vt 0.089672 0.374806
vt 0.090114 0.374984
vt 0.090125 0.374976
vt 0.090489 0.375142
vt 0.090469 0.375193
vt 0.090089 0.375019
vt 0.090099 0.375001
vt 0.090114 0.374992
vt 0.090628 0.375214
vt 0.090619 0.375253
vt 0.090661 0.375250
vt 0.090100 0.374992
vt 0.090097 0.374995
vt 0.090102 0.374989
vt 0.090097 0.374998
vt 0.090102 0.374992
vt 0.090100 0.374995
vn 0.000000 -1.000000 0.000000
vn 0.000000 -1.000000 0.000000
vn 0.000000 -1.000000 0.000000
vn 0.000000 -1.000000 0.000000
vn 0.998889 0.047127 0.000000
vn 0.998889 0.047127 0.000000
vn 0.998889 0.047127 0.000000
vn -0.995525 0.033443 0.088380
vn -0.995525 0.033443 0.088380
vn -0.995525 0.033443 0.088380
vn -0.999997 0.002591 0.000000
vn -0.999997 0.002591 0.000000
vn -0.999997 0.002591 0.000000
vn 0.999997 0.002591 0.000000
vn 0.999997 0.002591 0.000000
vn 0.999997 0.002591 0.000000
vn 0.000000 -1.000000 0.000000
vn 0.000000 -1.000000 0.000000
vn 0.000000 -1.000000 0.000000
vn 0.000000 -1.000000 0.000000
vn 0.000000 -1.000000 0.000000
vn 0.000000 -1.000000 0.000000
vn 0.969503 0.026108 -0.243684
vn 0.969503 0.026108 -0.243684
vn 0.969503 0.026108 -0.243684
vn 0.969503 0.026108 -0.243684
vn 0.969503 0.026108 0.243684
vn 0.969503 0.026108 0.243684
vn 0.969503 0.026108 0.243684
vn 0.969503 0.026108 0.243684
vn -0.969503 0.026108 -0.243684
vn -0.969503 0.026108 -0.243684
vn -0.969503 0.026108 -0.243684
vn -0.969503 0.026108 -0.243684
vn -0.969503 0.026108 0.243684
vn -0.969503 0.026108 0.243684
vn -0.969503 0.026108 0.243684
vn -0.969503 0.026108 0.243684
vn 0.933724 0.013363 -0.357744
vn 0.933724 0.013363 -0.357744
vn 0.933724 0.013363 -0.357744
vn 0.933724 0.013363 -0.357744
vn -0.933724 0.013363 0.357744
vn -0.933724 0.013363 0.357744
vn -0.933724 0.013363 0.357744
vn -0.933724 0.013363 0.357744
vn -0.984230 0.018170 -0.175959
vn -0.984230 0.018170 -0.175959
vn -0.984230 0.018170 -0.175959
vn -0.984230 0.018170 -0.175959
vn -0.984230 0.018170 0.175959
vn -0.984230 0.018170 0.175959
vn -0.984230 0.018170 0.175959
vn -0.984230 0.018170 0.175959
vn 0.984230 0.018170 -0.175959
vn 0.984230 0.018170 -0.175959
vn 0.984230 0.018170 -0.175959
vn 0.984230 0.018170 -0.175959
vn 0.984230 0.018170 0.175959
vn 0.984230 0.018170 0.175959
vn 0.984230 0.018170 0.175959
vn 0.984230 0.018170 0.175959
vn -0.973750 0.095500 0.206615
vn -0.973750 0.095500 0.206615
vn -0.973750 0.095500 0.206615
vn -0.973750 0.095500 0.206615
vn 0.000000 0.000000 -1.000000
vn 0.000000 0.000000 -1.000000
vn 0.000000 0.000000 -1.000000
vn 0.985095 0.096613 -0.142314
vn 0.985095 0.096613 -0.142314
vn 0.985095 0.096613 -0.142314
vn 0.985095 0.096613 0.142314
vn 0.985095 0.096613 0.142314
vn 0.985095 0.096613 0.142314
vn 0.933724 0.013363 0.357744
vn 0.933724 0.013363 0.357744
vn 0.933724 0.013363 0.357744
vn 0.933724 0.013363 0.357744
vn 1.000000 0.000000 0.000000
vn 1.000000 0.000000 0.000000
vn 1.000000 0.000000 0.000000
vn -0.933724 0.013363 -0.357744
vn -0.933724 0.013363 -0.357744
vn -0.933724 0.013363 -0.357744
vn -0.933724 0.013363 -0.357744
vn -0.999963 0.008657 0.000000
vn -0.999963 0.008657 0.000000
vn -0.999963 0.008657 0.000000
vn -0.999963 0.008657 0.000000
vn 0.000000 -0.894426 0.447216
vn 0.000000 -0.894426 0.447216
vn 0.000000 -0.894426 0.447216
vn 0.000000 -0.894426 0.447216
vn 0.000000 -0.894426 -0.447217
vn 0.000000 -0.894426 -0.447217
vn 0.000000 -0.894426 -0.447217
vn 0.000000 -0.894426 -0.447217
vn 0.876509 -0.001014 0.481385
vn 0.876509 -0.001014 0.481385
vn 0.876509 -0.001014 0.481385
vn 0.876509 -0.001014 0.481385
vn -0.876509 -0.001014 -0.481385
vn -0.876509 -0.001014 -0.481385
vn -0.876509 -0.001014 -0.481385
vn -0.876509 -0.001014 -0.481385
vn 0.931286 -0.127590 -0.341214
vn 0.931286 -0.127590 -0.341214
vn 0.931286 -0.127590 -0.341214
vn 0.931286 -0.127590 -0.341214
vn 0.876509 -0.001014 -0.481385
vn 0.876509 -0.001014 -0.481385
vn 0.876509 -0.001014 -0.481385
vn 0.876509 -0.001014 -0.481385
vn -0.931286 -0.127590 -0.341214
vn -0.931286 -0.127590 -0.341214
vn -0.931286 -0.127590 -0.341214
vn -0.931286 -0.127590 -0.341214
vn -0.876509 -0.001014 0.481385
vn -0.876509 -0.001014 0.481385
vn -0.876509 -0.001014 0.481385
vn -0.876509 -0.001014 0.481385
vn -0.995525 0.033443 -0.088380
vn -0.995525 0.033443 -0.088380
vn -0.995525 0.033443 -0.088380
vn -0.931286 -0.127590 0.341214
vn -0.931286 -0.127590 0.341214
vn -0.931286 -0.127590 0.341214
vn -0.931286 -0.127590 0.341214
vn 0.931286 -0.127590 0.341214
vn 0.931286 -0.127590 0.341214
vn 0.931286 -0.127590 0.341214
vn 0.931286 -0.127590 0.341214
vn 0.995525 0.033443 0.088380
vn 0.995525 0.033443 0.088380
vn 0.995525 0.033443 0.088380
vn 0.995525 0.033443 -0.088380
vn 0.995525 0.033443 -0.088380
vn 0.995525 0.033443 -0.088380
vn -0.998889 0.047127 0.000000
vn -0.998889 0.047127 0.000000
vn -0.998889 0.047127 0.000000
vn 0.999963 0.008657 0.000000
vn 0.999963 0.008657 0.000000
vn 0.999963 0.008657 0.000000
vn 0.999963 0.008657 0.000000
vn -1.000000 -0.000000 -0.000000
vn -1.000000 -0.000000 -0.000000
vn -1.000000 -0.000000 -0.000000
vn -0.985095 0.096613 0.142314
vn -0.985095 0.096613 0.142314
vn -0.985095 0.096613 0.142314
s off
f 27/1/1 24/2/2 25/3/3 26/4/4
f 12/5/5 13/6/6 35/7/7
f 14/8/8 32/9/9 23/10/10
f 16/11/11 15/12/12 14/8/13
f 13/6/14 12/5/15 17/13/16
f 2/14/17 10/15/18 9/16/19
f 1/17/20 8/18/21 11/19/22
f 20/20/23 21/21/24 5/22/25 12/5/26
f 4/23/27 18/24/28 19/25/29 13/6/30
f 5/22/31 21/21/32 22/26/33 15/12/34
f 23/10/35 18/24/36 4/23/37 14/8/38
f 10/15/39 2/14/40 21/21/41 20/20/42
f 8/18/43 1/17/44 18/24/45 23/10/46
f 7/27/47 5/22/48 15/12/49 16/11/50
f 4/23/51 6/28/52 16/11/53 14/8/54
f 5/22/55 7/27/56 17/13/57 12/5/58
f 6/28/59 4/23/60 13/6/61 17/13/62
f 3/29/63 7/27/64 16/11/65 17/13/66
f 16/11/67 3/29/68 17/13/69
f 7/27/70 3/29/71 17/13/72
f 3/29/73 6/28/74 17/13/75
f 19/25/76 18/24/77 1/17/78 11/19/79
f 34/30/80 29/31/81 28/32/82
f 22/26/83 21/21/84 2/14/85 9/16/86
f 24/2/87 31/33/88 30/34/89 25/3/90
f 9/16/91 10/15/92 26/4/93 25/3/94
f 11/19/95 8/18/96 24/2/97 27/1/98
f 26/4/99 10/15/100 20/20/101 28/32/102
f 24/2/103 8/18/104 23/10/105 31/33/106
f 35/7/107 19/25/108 29/31/109 34/30/110
f 29/31/111 19/25/112 11/19/113 27/1/114
f 23/10/115 32/9/116 33/35/117 31/33/118
f 25/3/119 30/34/120 22/26/121 9/16/122
f 32/9/123 15/12/124 22/26/125
f 33/35/126 32/9/127 22/26/128 30/34/129
f 20/20/130 35/7/131 34/30/132 28/32/133
f 19/25/134 35/7/135 13/6/136
f 12/5/137 35/7/138 20/20/139
f 32/9/140 14/8/141 15/12/142
f 26/4/143 28/32/144 29/31/145 27/1/146
f 30/34/147 31/33/148 33/35/149
f 6/28/150 3/29/151 16/11/152
