# This file uses centimeters as units for non-parametric coordinates.

v 0.000000 13.041703 5.621536
v -0.000001 64.727951 4.952280
v -0.000000 83.041168 2.907274
v 1.043775 77.397858 -0.000004
v 1.140252 13.354643 0.000000
v 1.132648 64.663994 -0.000002
v -0.000000 29.260296 2.086676
v 1.136601 29.229588 -0.000001
v 1.134780 44.725151 0.000000
v -0.000000 44.771172 3.073340
v -0.000000 17.916515 2.825724
v 1.138956 19.280416 0.000000
v 0.834936 13.354643 -1.834289
v 0.834936 19.445004 -1.834290
v 0.834936 64.680801 -1.834293
v 0.834936 78.526962 -1.834290
v 0.260943 87.503265 -1.834293
v 0.834936 29.237736 -1.834290
v 0.834936 44.737309 -1.834291
v -0.000000 88.914093 -1.834290
v 0.784810 44.739353 0.947827
v 1.135561 38.075851 -0.000002
v 0.429285 61.609745 2.784016
v 0.238059 55.913521 3.082794
v 0.000000 15.344634 4.300755
v 0.340371 15.631456 2.649252
v 0.911667 29.235664 -1.367720
v 0.948518 19.132679 -1.148766
v 1.139582 15.866034 0.000000
v 0.530343 55.768955 2.213326
v 0.593339 61.108486 2.135176
v 0.958512 36.217831 -1.078313
v 0.755998 14.036172 1.443049
v 0.415763 13.155810 3.571788
v 1.079865 29.231121 -0.344989
v 0.697230 16.493504 1.465392
v -1.043776 77.397858 -0.000004
v -1.140252 13.354643 0.000000
v -1.132648 64.663986 -0.000002
v -1.136601 29.229586 -0.000001
v -1.134781 44.725155 0.000000
v -1.138957 19.280416 0.000000
v -0.834937 13.354642 -1.834289
v -0.834937 19.445004 -1.834290
v -0.834937 64.680801 -1.834293
v -0.834937 78.526962 -1.834290
v -0.260944 87.503258 -1.834293
v -0.834937 29.237738 -1.834290
v -0.834937 44.737312 -1.834291
v -0.784811 44.739353 0.947827
v -1.135562 38.075855 -0.000002
v -0.429286 61.609745 2.784016
v -0.238060 55.913521 3.082794
v -0.340372 15.631456 2.649252
v -0.911668 29.235664 -1.367720
v -0.948518 19.132679 -1.148766
v -1.139582 15.866033 0.000000
v -0.530344 55.768951 2.213326
v -0.593340 61.108486 2.135176
v -0.958513 36.217831 -1.078313
v -0.755998 14.036172 1.443049
v -0.415764 13.155809 3.571788
v -1.079865 29.231121 -0.344989
v -0.697231 16.493504 1.465392
v -0.000000 74.595078 4.787012
vt 0.090619 0.375253
vt 0.090476 0.375173
vt 0.089669 0.374810
vt 0.090469 0.375193
vt 0.090049 0.374999
vt 0.090057 0.374984
vt 0.090250 0.375071
vt 0.090243 0.375089
vt 0.089810 0.374889
vt 0.036225 0.127370
vt 0.090614 0.375227
vt 0.091744 0.331051
vt 0.091557 0.331056
vt 0.091730 0.331076
vt 0.091558 0.331081
vt 0.091287 0.331063
vt 0.091287 0.331088
vt 0.091183 0.332128
vt 0.091077 0.331069
vt 0.036224 0.127351
vt 0.090945 0.331072
vt 0.090639 0.375236
vt 0.090640 0.375252
vt 0.090862 0.331100
vt 0.090863 0.331075
vt 0.091862 0.331048
vt 0.090248 0.375077
vt 0.091635 0.332189
vt 0.090167 0.375034
vt 0.090437 0.375169
vt 0.090371 0.375143
vt 0.089826 0.374880
vt 0.089707 0.374841
vt 0.089732 0.374849
vt 0.091077 0.331078
vt 0.090942 0.331089
vt 0.090908 0.331098
vt 0.089757 0.374850
vt 0.090371 0.375138
vt 0.090432 0.375164
vt 0.091172 0.331077
vt 0.089690 0.374825
vt 0.089664 0.374817
vt 0.035725 0.127370
vt 0.036439 0.127387
vt 0.036442 0.127404
vt 0.035923 0.127342
vt 0.036058 0.127338
vt 0.035728 0.127359
vt 0.035679 0.127372
vt 0.035610 0.127487
vt 0.035611 0.127446
vt 0.035627 0.127403
vt 0.035656 0.127427
vt 0.035640 0.127469
vt 0.036543 0.127381
vt 0.036553 0.127393
vt 0.036610 0.127335
vt 0.091182 0.332146
vt 0.035923 0.127357
vt 0.090635 0.332093
vt 0.036095 0.127356
vt 0.035687 0.127402
vt 0.089774 0.374863
vt 0.090619 0.375253
vt 0.090469 0.375193
vt 0.090476 0.375173
vt 0.090614 0.375227
vt 0.090639 0.375236
vt 0.090640 0.375252
vt 0.036225 0.127370
vt 0.036095 0.127356
vt 0.036224 0.127351
vt 0.036439 0.127387
vt 0.036442 0.127404
vt 0.089669 0.374810
vt 0.089690 0.374825
vt 0.089664 0.374817
vt 0.091557 0.331056
vt 0.091744 0.331051
vt 0.091730 0.331076
vt 0.091558 0.331081
vt 0.091287 0.331063
vt 0.091172 0.331077
vt 0.091077 0.331078
vt 0.091077 0.331069
vt 0.090942 0.331089
vt 0.090945 0.331072
vt 0.091287 0.331088
vt 0.090908 0.331098
vt 0.090862 0.331100
vt 0.090863 0.331075
vt 0.091862 0.331048
vt 0.089661 0.374820
vt 0.090243 0.375089
vt 0.090248 0.375077
vt 0.090371 0.375143
vt 0.090049 0.374999
vt 0.090057 0.374984
vt 0.090167 0.375034
vt 0.089810 0.374889
vt 0.089826 0.374880
vt 0.089707 0.374841
vt 0.089732 0.374849
vt 0.090432 0.375164
vt 0.090371 0.375138
vt 0.035923 0.127342
vt 0.036058 0.127338
vt 0.035923 0.127357
vt 0.035728 0.127359
vt 0.035725 0.127370
vt 0.035679 0.127372
vt 0.035610 0.127487
vt 0.035611 0.127446
vt 0.035640 0.127469
vt 0.089757 0.374850
vt 0.089774 0.374863
vt 0.035656 0.127427
vt 0.035627 0.127403
vt 0.035687 0.127402
vt 0.036543 0.127381
vt 0.036553 0.127393
vt 0.036610 0.127335
vt 0.090437 0.375169
vt 0.090250 0.375071
vt 0.091183 0.332128
vt 0.091635 0.332189
vt 0.091182 0.332146
vt 0.090635 0.332093
vt 0.090550 0.375226
vt 0.090550 0.375226
vn 0.975588 0.005442 0.219543
vn 0.975588 0.005442 0.219543
vn 0.975588 0.005442 0.219543
vn 0.975588 0.005442 0.219543
vn 0.980147 0.114606 0.161791
vn 0.980147 0.114606 0.161791
vn 0.980147 0.114606 0.161791
vn 0.980147 0.114606 0.161791
vn 0.938096 0.000110 0.346375
vn 0.938096 0.000110 0.346375
vn 0.938096 0.000110 0.346375
vn 0.942263 -0.016636 0.334460
vn 0.942263 -0.016636 0.334460
vn 0.942263 -0.016636 0.334460
vn 0.942263 -0.016636 0.334460
vn 0.972047 0.116809 0.203669
vn 0.972047 0.116809 0.203669
vn 0.972047 0.116809 0.203669
vn 0.990736 0.003313 -0.135764
vn 0.990736 0.003313 -0.135764
vn 0.990736 0.003313 -0.135764
vn 0.990736 0.003313 -0.135764
vn 0.986868 0.000023 -0.161532
vn 0.986868 0.000023 -0.161532
vn 0.986868 0.000023 -0.161532
vn 0.986868 0.000023 -0.161532
vn 0.986631 0.000034 -0.162971
vn 0.986631 0.000034 -0.162971
vn 0.986631 0.000034 -0.162971
vn 0.986631 0.000034 -0.162971
vn 0.986993 0.000053 -0.160765
vn 0.986993 0.000053 -0.160765
vn 0.986993 0.000053 -0.160765
vn 0.986993 0.000053 -0.160765
vn 0.986481 0.000097 -0.163878
vn 0.986481 0.000097 -0.163878
vn 0.986481 0.000097 -0.163878
vn 0.986481 0.000097 -0.163878
vn 0.986481 0.000097 -0.163878
vn -0.000001 0.000003 -1.000000
vn -0.000001 0.000003 -1.000000
vn -0.000001 0.000003 -1.000000
vn 0.995216 0.063639 -0.074135
vn 0.995216 0.063639 -0.074135
vn 0.995216 0.063639 -0.074135
vn 0.937803 -0.020330 0.346572
vn 0.937803 -0.020330 0.346572
vn 0.937803 -0.020330 0.346572
vn 0.913031 -0.013841 0.407655
vn 0.913031 -0.013841 0.407655
vn 0.913031 -0.013841 0.407655
vn 0.913031 -0.013841 0.407655
vn 0.913031 -0.013841 0.407655
vn 0.905738 0.014802 0.423580
vn 0.905738 0.014802 0.423580
vn 0.905738 0.014802 0.423580
vn 0.905738 0.014802 0.423580
vn 0.966905 0.126933 0.221322
vn 0.966905 0.126933 0.221322
vn 0.966905 0.126933 0.221322
vn 0.972630 -0.008076 0.232219
vn 0.972630 -0.008076 0.232219
vn 0.972630 -0.008076 0.232219
vn 0.986751 0.000110 -0.162241
vn 0.986751 0.000110 -0.162241
vn 0.986751 0.000110 -0.162241
vn 0.986751 0.000110 -0.162241
vn 0.986633 0.000138 -0.162957
vn 0.986633 0.000138 -0.162957
vn 0.986633 0.000138 -0.162957
vn 0.986633 0.000138 -0.162957
vn 0.986532 0.000181 -0.163567
vn 0.986532 0.000181 -0.163567
vn 0.986532 0.000181 -0.163567
vn 0.972047 0.116809 0.203669
vn 0.972047 0.116809 0.203669
vn 0.972047 0.116809 0.203669
vn 0.966358 0.000258 0.257199
vn 0.966358 0.000258 0.257199
vn 0.966358 0.000258 0.257199
vn 0.926577 0.110248 0.359584
vn 0.926577 0.110248 0.359584
vn 0.926577 0.110248 0.359584
vn 0.953127 0.020049 0.301907
vn 0.953127 0.020049 0.301907
vn 0.953127 0.020049 0.301907
vn 0.986901 -0.000000 -0.161325
vn 0.986901 -0.000000 -0.161325
vn 0.986901 -0.000000 -0.161325
vn 0.986755 0.000116 -0.162216
vn 0.986755 0.000116 -0.162216
vn 0.986755 0.000116 -0.162216
vn 0.956187 -0.012036 0.292509
vn 0.956187 -0.012036 0.292509
vn 0.956187 -0.012036 0.292509
vn 0.956187 -0.012036 0.292509
vn 0.969509 0.000104 0.245056
vn 0.969509 0.000104 0.245056
vn 0.969509 0.000104 0.245056
vn 0.974555 -0.021011 0.223163
vn 0.974555 -0.021011 0.223163
vn 0.974555 -0.021011 0.223163
vn 0.964806 0.000103 0.262964
vn 0.964806 0.000103 0.262964
vn 0.964806 0.000103 0.262964
vn 0.974555 -0.021011 0.223164
vn 0.974555 -0.021011 0.223164
vn 0.974555 -0.021011 0.223164
vn 0.974554 -0.021011 0.223164
vn 0.974554 -0.021011 0.223164
vn 0.974554 -0.021011 0.223164
vn 0.972213 0.107165 0.208128
vn 0.972213 0.107165 0.208128
vn 0.972213 0.107165 0.208128
vn 0.972213 0.107165 0.208128
vn 0.986745 0.000116 -0.162279
vn 0.986745 0.000116 -0.162279
vn 0.986745 0.000116 -0.162279
vn 0.986745 0.000234 -0.162278
vn 0.986745 0.000234 -0.162278
vn 0.986745 0.000234 -0.162278
vn 0.958311 0.008607 0.285596
vn 0.958311 0.008607 0.285596
vn 0.958311 0.008607 0.285596
vn 0.958311 0.008607 0.285596
vn 0.914148 0.065464 0.400061
vn 0.914148 0.065464 0.400061
vn 0.914148 0.065464 0.400061
vn -0.975588 0.005442 0.219543
vn -0.975588 0.005442 0.219543
vn -0.975588 0.005442 0.219543
vn -0.975588 0.005442 0.219543
vn -0.980148 0.114606 0.161792
vn -0.980148 0.114606 0.161792
vn -0.980148 0.114606 0.161792
vn -0.980148 0.114606 0.161792
vn -0.938096 0.000110 0.346375
vn -0.938096 0.000110 0.346375
vn -0.938096 0.000110 0.346375
vn -0.942263 -0.016636 0.334460
vn -0.942263 -0.016636 0.334460
vn -0.942263 -0.016636 0.334460
vn -0.942263 -0.016636 0.334460
vn -0.972047 0.116809 0.203669
vn -0.972047 0.116809 0.203669
vn -0.972047 0.116809 0.203669
vn -0.990736 0.003313 -0.135764
vn -0.990736 0.003313 -0.135764
vn -0.990736 0.003313 -0.135764
vn -0.990736 0.003313 -0.135764
vn -0.986867 0.000023 -0.161532
vn -0.986867 0.000023 -0.161532
vn -0.986867 0.000023 -0.161532
vn -0.986867 0.000023 -0.161532
vn -0.986631 0.000034 -0.162971
vn -0.986631 0.000034 -0.162971
vn -0.986631 0.000034 -0.162971
vn -0.986631 0.000034 -0.162971
vn -0.986993 0.000053 -0.160766
vn -0.986993 0.000053 -0.160766
vn -0.986993 0.000053 -0.160766
vn -0.986993 0.000053 -0.160766
vn -0.986481 0.000097 -0.163878
vn -0.986481 0.000097 -0.163878
vn -0.986481 0.000097 -0.163878
vn -0.986481 0.000097 -0.163878
vn -0.986481 0.000097 -0.163878
vn -0.995216 0.063639 -0.074136
vn -0.995216 0.063639 -0.074136
vn -0.995216 0.063639 -0.074136
vn -0.000000 -0.000000 -1.000000
vn -0.000000 -0.000000 -1.000000
vn -0.000000 -0.000000 -1.000000
vn -0.000000 -0.000000 -1.000000
vn 0.000000 0.000000 -1.000000
vn 0.000000 0.000000 -1.000000
vn 0.000000 0.000000 -1.000000
vn 0.000000 0.000000 -1.000000
vn 0.000000 -0.000000 -1.000000
vn 0.000000 -0.000000 -1.000000
vn 0.000000 -0.000000 -1.000000
vn 0.000000 -0.000000 -1.000000
vn 0.000000 -0.000000 -1.000000
vn 0.000000 -0.000000 -1.000000
vn 0.000000 -0.000000 -1.000000
vn 0.000000 -0.000000 -1.000000
vn -0.000000 0.000000 -1.000000
vn -0.000000 0.000000 -1.000000
vn -0.000000 0.000000 -1.000000
vn -0.000000 0.000000 -1.000000
vn 0.000000 -0.000000 -1.000000
vn 0.000000 -0.000000 -1.000000
vn 0.000000 -0.000000 -1.000000
vn 0.000000 -0.000000 -1.000000
vn 0.000000 -1.000000 0.000000
vn 0.000000 -1.000000 0.000000
vn 0.000000 -1.000000 0.000000
vn 0.000000 -1.000000 0.000000
vn 0.000000 -0.998454 -0.055582
vn 0.000000 -0.998454 -0.055582
vn 0.000000 -0.998454 -0.055582
vn 0.000000 -0.998454 -0.055582
vn 0.000000 -0.998454 -0.055582
vn -0.937803 -0.020330 0.346572
vn -0.937803 -0.020330 0.346572
vn -0.937803 -0.020330 0.346572
vn -0.913031 -0.013841 0.407655
vn -0.913031 -0.013841 0.407655
vn -0.913031 -0.013841 0.407655
vn -0.913031 -0.013841 0.407655
vn -0.913031 -0.013841 0.407655
vn -0.905738 0.014802 0.423580
vn -0.905738 0.014802 0.423580
vn -0.905738 0.014802 0.423580
vn -0.905738 0.014802 0.423580
vn -0.966905 0.126933 0.221323
vn -0.966905 0.126933 0.221323
vn -0.966905 0.126933 0.221323
vn -0.972630 -0.008076 0.232220
vn -0.972630 -0.008076 0.232220
vn -0.972630 -0.008076 0.232220
vn -0.986751 0.000110 -0.162241
vn -0.986751 0.000110 -0.162241
vn -0.986751 0.000110 -0.162241
vn -0.986751 0.000110 -0.162241
vn -0.986633 0.000138 -0.162957
vn -0.986633 0.000138 -0.162957
vn -0.986633 0.000138 -0.162957
vn -0.986633 0.000138 -0.162957
vn -0.986532 0.000181 -0.163567
vn -0.986532 0.000181 -0.163567
vn -0.986532 0.000181 -0.163567
vn -0.972047 0.116809 0.203669
vn -0.972047 0.116809 0.203669
vn -0.972047 0.116809 0.203669
vn -0.966358 0.000258 0.257199
vn -0.966358 0.000258 0.257199
vn -0.966358 0.000258 0.257199
vn -0.926577 0.110248 0.359584
vn -0.926577 0.110248 0.359584
vn -0.926577 0.110248 0.359584
vn -0.953127 0.020049 0.301907
vn -0.953127 0.020049 0.301907
vn -0.953127 0.020049 0.301907
vn -0.986901 -0.000000 -0.161325
vn -0.986901 -0.000000 -0.161325
vn -0.986901 -0.000000 -0.161325
vn -0.986755 0.000116 -0.162216
vn -0.986755 0.000116 -0.162216
vn -0.986755 0.000116 -0.162216
vn -0.956187 -0.012036 0.292509
vn -0.956187 -0.012036 0.292509
vn -0.956187 -0.012036 0.292509
vn -0.956187 -0.012036 0.292509
vn -0.969509 0.000104 0.245054
vn -0.969509 0.000104 0.245054
vn -0.969509 0.000104 0.245054
vn -0.974555 -0.021011 0.223164
vn -0.974555 -0.021011 0.223164
vn -0.974555 -0.021011 0.223164
vn -0.964806 0.000103 0.262964
vn -0.964806 0.000103 0.262964
vn -0.964806 0.000103 0.262964
vn -0.974555 -0.021011 0.223164
vn -0.974555 -0.021011 0.223164
vn -0.974555 -0.021011 0.223164
vn -0.974555 -0.021011 0.223163
vn -0.974555 -0.021011 0.223163
vn -0.974555 -0.021011 0.223163
vn -0.972213 0.107165 0.208128
vn -0.972213 0.107165 0.208128
vn -0.972213 0.107165 0.208128
vn -0.972213 0.107165 0.208128
vn -0.986745 0.000116 -0.162280
vn -0.986745 0.000116 -0.162280
vn -0.986745 0.000116 -0.162280
vn -0.986745 0.000234 -0.162279
vn -0.986745 0.000234 -0.162279
vn -0.986745 0.000234 -0.162279
vn -0.958312 0.008607 0.285596
vn -0.958312 0.008607 0.285596
vn -0.958312 0.008607 0.285596
vn -0.958312 0.008607 0.285596
vn -0.914148 0.065464 0.400060
vn -0.914148 0.065464 0.400060
vn -0.914148 0.065464 0.400060
vn 0.968562 0.054044 0.242831
vn 0.968562 0.054044 0.242831
vn 0.968562 0.054044 0.242831
vn -0.968562 0.054044 0.242830
vn -0.968562 0.054044 0.242830
vn -0.968562 0.054044 0.242830
s off
f 4/11/1 65/130/2 2/4/3 6/2/4
f 17/22/5 20/23/6 3/1/7 4/11/8
f 21/10/9 22/62/10 9/20/11
f 30/45/12 24/46/13 21/10/14 9/20/15
f 5/3/16 33/42/17 34/43/18
f 15/13/19 16/12/20 4/14/21 6/15/22
f 19/16/23 32/41/24 27/35/25 18/19/26
f 18/19/27 27/35/28 28/36/29 14/21/30
f 15/13/31 6/15/32 9/17/33 19/16/34
f 14/21/35 28/36/36 29/37/37 5/24/38 13/25/39
f 20/23/40 17/22/41 47/69/42
f 16/12/43 17/26/44 4/14/45
f 10/8/46 21/27/47 24/31/48
f 7/5/49 8/6/50 22/29/51 21/27/52 10/8/53
f 11/9/54 12/32/55 8/6/56 7/5/57
f 25/33/58 26/34/59 11/9/60
f 6/2/61 31/40/62 30/39/63
f 27/47/64 32/48/65 22/62/66 35/60/67
f 28/49/68 27/47/69 35/60/70 12/44/71
f 29/50/72 28/49/73 12/44/74
f 1/51/75 34/52/76 25/55/77
f 5/3/78 29/38/79 33/42/80
f 11/9/81 26/34/82 36/64/83
f 26/54/84 33/53/85 36/63/86
f 19/16/87 9/17/88 32/41/89
f 22/62/90 32/48/91 9/20/92
f 31/56/93 23/57/94 24/46/95 30/45/96
f 6/58/97 23/57/98 31/56/99
f 2/4/100 23/30/101 6/2/102
f 6/2/103 30/39/104 9/7/105
f 2/4/106 24/31/107 23/30/108
f 10/8/109 24/31/110 2/4/111
f 25/55/112 34/52/113 33/53/114 26/54/115
f 35/18/116 22/28/117 8/59/118
f 12/61/119 35/18/120 8/59/121
f 36/63/122 33/53/123 29/50/124 12/44/125
f 11/9/126 36/64/127 12/32/128
f 65/131/129 37/68/130 39/67/131 2/66/132
f 47/69/133 37/68/134 3/65/135 20/70/136
f 50/71/137 41/73/138 51/72/139
f 58/74/140 41/73/141 50/71/142 53/75/143
f 38/76/144 62/78/145 61/77/146
f 45/79/147 39/82/148 37/81/149 46/80/150
f 49/83/151 48/86/152 55/85/153 60/84/154
f 48/86/155 44/88/156 56/87/157 55/85/158
f 45/79/159 49/83/160 41/89/161 39/82/162
f 44/88/163 43/92/164 38/91/165 57/90/166 56/87/167
f 46/80/168 37/81/169 47/93/170
f 16/12/171 46/80/172 47/93/173 17/26/174
f 15/13/175 45/79/176 46/80/177 16/12/178
f 19/16/179 49/83/180 45/79/181 15/13/182
f 18/19/183 48/86/184 49/83/185 19/16/186
f 14/21/187 44/88/188 48/86/189 18/19/190
f 13/25/191 43/92/192 44/88/193 14/21/194
f 5/24/195 38/91/196 43/92/197 13/25/198
f 1/94/199 62/78/200 38/76/201 5/3/202 34/43/203
f 10/95/204 53/97/205 50/96/206
f 7/98/207 10/95/208 50/96/209 51/100/210 40/99/211
f 11/101/212 7/98/213 40/99/214 42/102/215
f 25/103/216 11/101/217 54/104/218
f 39/67/219 58/106/220 59/105/221
f 55/107/222 63/109/223 51/72/224 60/108/225
f 56/110/226 42/111/227 63/109/228 55/107/229
f 57/112/230 42/111/231 56/110/232
f 1/113/233 25/115/234 62/114/235
f 38/76/236 61/77/237 57/116/238
f 11/101/239 64/117/240 54/104/241
f 54/118/242 64/120/243 61/119/244
f 49/83/245 60/84/246 41/89/247
f 51/72/248 41/73/249 60/108/250
f 59/121/251 58/74/252 53/75/253 52/122/254
f 39/123/255 59/121/256 52/122/257
f 2/66/258 39/67/259 52/124/260
f 39/67/261 41/125/262 58/106/263
f 2/66/264 52/124/265 53/97/266
f 10/95/267 2/66/268 53/97/269
f 25/115/270 54/118/271 61/119/272 62/114/273
f 63/126/274 40/128/275 51/127/276
f 42/129/277 40/128/278 63/126/279
f 64/120/280 42/111/281 57/112/282 61/119/283
f 11/101/284 42/102/285 64/117/286
f 3/1/287 65/130/288 4/11/289
f 3/65/290 37/68/291 65/131/292
