# This file uses centimeters as units for non-parametric coordinates.

v -1.918745 -21.094477 -0.000216
v -0.959587 -21.094528 -1.661575
v 0.959373 -21.094528 -1.661575
v 1.918745 -21.094477 -0.000214
v 0.959373 -21.094421 1.661469
v -0.959373 -21.094421 1.661469
v -1.012373 -23.878151 -0.000214
v -0.506401 -23.877991 -0.876654
v 0.505972 -23.877991 -0.876654
v 1.012588 -23.877937 -0.000214
v 0.506186 -23.878098 0.876760
v -0.506186 -23.878098 0.876760
v -2.126455 -16.382343 -0.000216
v -1.063228 -15.999593 -1.841605
v 1.063013 -16.382397 -1.841604
v 2.126455 -15.999538 -0.000215
v 1.063013 -16.382504 1.841497
v -1.063442 -15.999699 1.841497
v -2.678990 -15.414173 -0.000215
v -1.339602 -15.031423 -2.320111
v 1.339388 -15.414011 -2.320110
v 2.678990 -15.031369 -0.000215
v 1.339388 -15.414120 2.320004
v -1.339602 -15.031314 2.320004
v -2.678990 13.930911 -0.000215
v -1.339602 14.283408 -2.320111
v 1.339388 13.930857 -2.320110
v 2.678990 14.283460 -0.000215
v 1.339388 13.930750 2.320004
v -1.339602 14.283514 2.320004
v -2.124310 15.043705 -0.000215
v -1.062155 15.396204 -1.839674
v 1.062155 15.043652 -1.839673
v 2.124524 15.396255 -0.000215
v 1.062155 15.043545 1.839781
v -1.062369 15.396310 1.839781
v -2.307129 149.937988 -0.000214
v -1.153779 149.937836 -1.998138
v 1.153564 149.937836 -1.998138
v 2.307343 149.937790 -0.000214
v 1.153564 149.937729 1.998138
v -1.153564 149.937958 1.998138
v 0.000000 -23.878151 -0.000214
v -2.143192 9.866613 -0.000215
v -1.071596 10.160744 -1.856411
v 1.071596 9.866560 -1.856410
v 2.143407 10.160799 -0.000215
v 1.071596 9.866452 1.855874
v -1.071811 10.160637 1.855874
v 3.603303 150.356369 -0.000336
v -3.603089 150.356644 -0.000336
v -1.801574 150.356598 3.120483
v 1.801455 150.356293 3.120483
v -1.801909 150.356445 -3.120483
v 1.801454 150.356445 -3.120483
v 1.962617 172.883911 -0.000061
v -1.962425 172.884232 -0.000092
v -0.981411 172.884308 -1.699661
v 0.981261 172.884308 -1.699661
v 1.373191 181.654236 -0.000137
v -1.372976 181.654404 -0.000137
v -0.761751 181.654343 1.319519
v 0.761824 181.654190 1.319519
v -0.761893 181.654266 -1.319519
v 0.761824 181.654266 -1.319519
v 3.467282 152.815735 -0.000320
v 1.733453 152.815811 -3.002686
v -1.733883 152.815811 -3.002686
v -3.467067 152.815994 -0.000320
v -1.733560 152.815964 3.002686
v 1.733453 152.815659 3.002686
v 2.292557 153.835114 -0.000214
v 1.146173 153.835052 1.985336
v -1.146171 153.835297 1.985336
v -2.292342 153.835327 -0.000214
v -1.146384 153.835159 -1.985336
v 1.146173 153.835159 -1.985336
v 2.783789 155.052795 -0.000259
v 1.391754 155.052719 2.410751
v -1.391798 155.053024 2.410751
v -2.783574 155.053055 -0.000259
v -1.392057 155.052856 -2.410751
v 1.391754 155.052856 -2.410751
v -0.988279 172.884903 1.711868
v 0.988310 172.884537 1.711868
v -0.452872 191.046127 -0.000046
v 0.452945 191.046021 -0.000046
vt 0.005536 0.303527
vt 0.005537 0.303500
vt 0.005528 0.303501
vt 0.005531 0.303528
vt 0.005531 0.303529
vt 0.005528 0.303503
vt 0.005535 0.303529
vt 0.005536 0.303504
vt 0.005540 0.303529
vt 0.005544 0.303503
vt 0.005540 0.303528
vt 0.005544 0.303502
vt 0.005537 0.303491
vt 0.005528 0.303490
vt 0.005527 0.303493
vt 0.005536 0.303493
vt 0.005545 0.303494
vt 0.005545 0.303490
vt 0.106905 0.179475
vt 0.106963 0.179486
vt 0.106965 0.179454
vt 0.106891 0.179443
vt 0.106900 0.179492
vt 0.106885 0.179461
vt 0.106956 0.179483
vt 0.106956 0.179453
vt 0.107015 0.179494
vt 0.107031 0.179464
vt 0.107019 0.179477
vt 0.107035 0.179446
vt 0.106987 0.178671
vt 0.106928 0.178659
vt 0.106924 0.178665
vt 0.106979 0.178656
vt 0.107038 0.178668
vt 0.107042 0.178662
vt 0.106919 0.178534
vt 0.106991 0.178548
vt 0.106991 0.178514
vt 0.106934 0.178500
vt 0.106913 0.178539
vt 0.106929 0.178506
vt 0.106982 0.178527
vt 0.106984 0.178494
vt 0.107056 0.178542
vt 0.107042 0.178508
vt 0.107060 0.178537
vt 0.107045 0.178502
vt 0.005532 0.303340
vt 0.005541 0.303342
vt 0.005558 0.302697
vt 0.005548 0.302696
vt 0.005531 0.303343
vt 0.005547 0.302695
vt 0.005540 0.303343
vt 0.005557 0.302694
vt 0.005549 0.303344
vt 0.005567 0.302695
vt 0.005549 0.303341
vt 0.005567 0.302697
vt 0.005535 0.303528
vt 0.089922 0.297875
vt 0.089917 0.297980
vt 0.089863 0.297917
vt 0.089862 0.297969
vt 0.090446 0.298868
vt 0.090547 0.298798
vt 0.090564 0.298784
vt 0.090433 0.298875
vt 0.090559 0.298717
vt 0.090579 0.298679
vt 0.090468 0.298707
vt 0.090460 0.298665
vt 0.090364 0.298779
vt 0.090355 0.298859
vt 0.090314 0.298864
vt 0.090326 0.298759
vt 0.089963 0.297923
vt 0.089884 0.298046
vt 0.089886 0.297978
vt 0.090406 0.298584
vt 0.090278 0.298674
vt 0.090267 0.298775
vt 0.090381 0.298786
vt 0.090506 0.298699
vt 0.090520 0.298598
vt 0.090383 0.298551
vt 0.090495 0.298565
vt 0.090481 0.298664
vt 0.090359 0.298749
vt 0.090248 0.298738
vt 0.090258 0.298639
vt 0.090357 0.298511
vt 0.090466 0.298525
vt 0.090453 0.298622
vt 0.090334 0.298705
vt 0.090224 0.298693
vt 0.090234 0.298596
vt 0.089956 0.298059
vt 0.089978 0.297886
vt 0.089975 0.297939
vt 0.090023 0.297996
vt 0.090083 0.298002
vt 0.090078 0.298073
vt 0.090027 0.297930
vt 0.089918 0.297963
vt 0.089921 0.297892
vn -0.833524 -0.271405 -0.481224
vn -0.833524 -0.271405 -0.481224
vn -0.833524 -0.271405 -0.481224
vn -0.833524 -0.271405 -0.481224
vn 0.000000 -0.271410 -0.962464
vn 0.000000 -0.271410 -0.962464
vn 0.000000 -0.271410 -0.962464
vn 0.000000 -0.271410 -0.962464
vn 0.833410 -0.271415 -0.481417
vn 0.833410 -0.271415 -0.481417
vn 0.833410 -0.271415 -0.481417
vn 0.833410 -0.271415 -0.481417
vn 0.833525 -0.271358 0.481250
vn 0.833525 -0.271358 0.481250
vn 0.833525 -0.271358 0.481250
vn 0.833525 -0.271358 0.481250
vn 0.000000 -0.271322 0.962489
vn 0.000000 -0.271322 0.962489
vn 0.000000 -0.271322 0.962489
vn 0.000000 -0.271322 0.962489
vn -0.833540 -0.271378 0.481212
vn -0.833540 -0.271378 0.481212
vn -0.833540 -0.271378 0.481212
vn -0.833540 -0.271378 0.481212
vn -0.863697 -0.036648 -0.502678
vn -0.863697 -0.036648 -0.502678
vn -0.863697 -0.036648 -0.502678
vn -0.863697 -0.036648 -0.502678
vn -0.003472 -0.036689 -0.999321
vn -0.003472 -0.036689 -0.999321
vn -0.003472 -0.036689 -0.999321
vn -0.003472 -0.036689 -0.999321
vn 0.867120 -0.036648 -0.496750
vn 0.867120 -0.036648 -0.496750
vn 0.867120 -0.036648 -0.496750
vn 0.867120 -0.036648 -0.496750
vn 0.867159 -0.036649 0.496681
vn 0.867159 -0.036649 0.496681
vn 0.867159 -0.036649 0.496681
vn 0.867159 -0.036649 0.496681
vn -0.003472 -0.036691 0.999321
vn -0.003472 -0.036691 0.999321
vn -0.003472 -0.036691 0.999321
vn -0.003472 -0.036691 0.999321
vn -0.863734 -0.036687 0.502610
vn -0.863734 -0.036687 0.502610
vn -0.863734 -0.036687 0.502610
vn -0.863734 -0.036687 0.502610
vn -0.739219 -0.442010 -0.508116
vn -0.739219 -0.442010 -0.508116
vn -0.739219 -0.442010 -0.508116
vn -0.739219 -0.442010 -0.508116
vn -0.070393 -0.441937 -0.894280
vn -0.070393 -0.441937 -0.894280
vn -0.070393 -0.441937 -0.894280
vn -0.070393 -0.441937 -0.894280
vn 0.809618 -0.441978 -0.386230
vn 0.809618 -0.441978 -0.386230
vn 0.809618 -0.441978 -0.386230
vn 0.809618 -0.441978 -0.386230
vn 0.809650 -0.441976 0.386167
vn 0.809650 -0.441976 0.386167
vn 0.809650 -0.441976 0.386167
vn 0.809650 -0.441976 0.386167
vn -0.070403 -0.441892 0.894302
vn -0.070403 -0.441892 0.894302
vn -0.070403 -0.441892 0.894302
vn -0.070403 -0.441892 0.894302
vn -0.739329 -0.441909 0.508045
vn -0.739329 -0.441909 0.508045
vn -0.739329 -0.441909 0.508045
vn -0.739329 -0.441909 0.508045
vn -0.867174 0.018382 -0.497666
vn -0.867174 0.018382 -0.497666
vn -0.867174 0.018382 -0.497666
vn -0.867174 0.018382 -0.497666
vn 0.002579 0.018371 -0.999828
vn 0.002579 0.018371 -0.999828
vn 0.002579 0.018371 -0.999828
vn 0.002579 0.018371 -0.999828
vn 0.864556 0.018375 -0.502201
vn 0.864556 0.018375 -0.502201
vn 0.864556 0.018375 -0.502201
vn 0.864556 0.018375 -0.502201
vn 0.864566 0.018379 0.502183
vn 0.864566 0.018379 0.502183
vn 0.864566 0.018379 0.502183
vn 0.864566 0.018379 0.502183
vn 0.002581 0.018388 0.999828
vn 0.002581 0.018388 0.999828
vn 0.002581 0.018388 0.999828
vn 0.002581 0.018388 0.999828
vn -0.867204 0.018383 0.497613
vn -0.867204 0.018383 0.497613
vn -0.867204 0.018383 0.497613
vn -0.867204 0.018383 0.497613
vn -0.822779 0.395702 -0.407989
vn -0.822779 0.395702 -0.407989
vn -0.822779 0.395702 -0.407989
vn -0.822779 0.395702 -0.407989
vn 0.058088 0.395701 -0.916541
vn 0.058088 0.395701 -0.916541
vn 0.058088 0.395701 -0.916541
vn 0.058088 0.395701 -0.916541
vn 0.764703 0.395576 -0.508674
vn 0.764703 0.395576 -0.508674
vn 0.764703 0.395576 -0.508674
vn 0.764703 0.395576 -0.508674
vn 0.764762 0.395536 0.508617
vn 0.764762 0.395536 0.508617
vn 0.764762 0.395536 0.508617
vn 0.764762 0.395536 0.508617
vn 0.058098 0.395556 0.916602
vn 0.058098 0.395556 0.916602
vn 0.058098 0.395556 0.916602
vn 0.058098 0.395556 0.916602
vn -0.822867 0.395600 0.407910
vn -0.822867 0.395600 0.407910
vn -0.822867 0.395600 0.407910
vn -0.822867 0.395600 0.407910
vn -0.865979 -0.001176 -0.500079
vn -0.865979 -0.001176 -0.500079
vn -0.865979 -0.001176 -0.500079
vn -0.865979 -0.001176 -0.500079
vn -0.000093 -0.001176 -0.999999
vn -0.000093 -0.001176 -0.999999
vn -0.000093 -0.001176 -0.999999
vn -0.000093 -0.001176 -0.999999
vn 0.866010 -0.001175 -0.500026
vn 0.866010 -0.001175 -0.500026
vn 0.866010 -0.001175 -0.500026
vn 0.866010 -0.001175 -0.500026
vn 0.866064 -0.001175 0.499932
vn 0.866064 -0.001175 0.499932
vn 0.866064 -0.001175 0.499932
vn 0.866064 -0.001175 0.499932
vn -0.000094 -0.001175 0.999999
vn -0.000094 -0.001175 0.999999
vn -0.000094 -0.001175 0.999999
vn -0.000094 -0.001175 0.999999
vn -0.866033 -0.001175 0.499985
vn -0.866033 -0.001175 0.499985
vn -0.866033 -0.001175 0.499985
vn -0.866033 -0.001175 0.499985
vn 0.000000 -1.000000 -0.000185
vn 0.000000 -1.000000 -0.000185
vn 0.000000 -1.000000 -0.000185
vn 0.000000 -1.000000 -0.000181
vn 0.000000 -1.000000 -0.000181
vn 0.000000 -1.000000 -0.000181
vn 0.000211 -1.000000 -0.000062
vn 0.000211 -1.000000 -0.000062
vn 0.000211 -1.000000 -0.000062
vn 0.000211 -1.000000 -0.000060
vn 0.000211 -1.000000 -0.000060
vn 0.000211 -1.000000 -0.000060
vn 0.000000 -1.000000 0.000060
vn 0.000000 -1.000000 0.000060
vn 0.000000 -1.000000 0.000060
vn 0.000000 -1.000000 0.000064
vn 0.000000 -1.000000 0.000064
vn 0.000000 -1.000000 0.000064
vn -0.852875 -0.112612 -0.509827
vn -0.852875 -0.112612 -0.509827
vn -0.852875 -0.112612 -0.509827
vn -0.852875 -0.112612 -0.509827
vn -0.015094 -0.112545 -0.993532
vn -0.015094 -0.112545 -0.993532
vn -0.015094 -0.112545 -0.993532
vn -0.015094 -0.112545 -0.993532
vn 0.867941 -0.112569 -0.483742
vn 0.867941 -0.112569 -0.483742
vn 0.867941 -0.112569 -0.483742
vn 0.867941 -0.112569 -0.483742
vn 0.867953 -0.112594 0.483714
vn 0.867953 -0.112594 0.483714
vn 0.867953 -0.112594 0.483714
vn 0.867953 -0.112594 0.483714
vn -0.015112 -0.112645 0.993520
vn -0.015112 -0.112645 0.993520
vn -0.015112 -0.112645 0.993520
vn -0.015112 -0.112645 0.993520
vn -0.852905 -0.112614 0.509775
vn -0.852905 -0.112614 0.509775
vn -0.852905 -0.112614 0.509775
vn -0.852905 -0.112614 0.509775
vn -0.302691 -0.936936 0.174725
vn -0.302691 -0.936936 0.174725
vn -0.302691 -0.936936 0.174725
vn -0.302691 -0.936936 0.174725
vn -0.000085 -0.936948 0.349469
vn -0.000085 -0.936948 0.349469
vn -0.000085 -0.936948 0.349469
vn -0.000085 -0.936948 0.349469
vn 0.302646 -0.936954 0.174704
vn 0.302646 -0.936954 0.174704
vn 0.302646 -0.936954 0.174704
vn 0.302646 -0.936954 0.174704
vn 0.000000 -0.936952 -0.349457
vn 0.000000 -0.936952 -0.349457
vn 0.000000 -0.936952 -0.349457
vn 0.000000 -0.936952 -0.349457
vn -0.302674 -0.936954 -0.174658
vn -0.302674 -0.936954 -0.174658
vn -0.302674 -0.936954 -0.174658
vn -0.302674 -0.936954 -0.174658
vn 0.302609 -0.936952 -0.174785
vn 0.302609 -0.936952 -0.174785
vn 0.302609 -0.936952 -0.174785
vn 0.302609 -0.936952 -0.174785
vn -0.612995 0.706410 0.353867
vn -0.612995 0.706410 0.353867
vn -0.612995 0.706410 0.353867
vn -0.612995 0.706410 0.353867
vn 0.000067 0.706408 0.707805
vn 0.000067 0.706408 0.707805
vn 0.000067 0.706408 0.707805
vn 0.000067 0.706408 0.707805
vn 0.612993 0.706376 0.353938
vn 0.612993 0.706376 0.353938
vn 0.612993 0.706376 0.353938
vn 0.612993 0.706376 0.353938
vn 0.000000 0.706413 -0.707800
vn 0.000000 0.706413 -0.707800
vn 0.000000 0.706413 -0.707800
vn 0.000000 0.706413 -0.707800
vn -0.612947 0.706444 -0.353884
vn -0.612947 0.706444 -0.353884
vn -0.612947 0.706444 -0.353884
vn -0.612947 0.706444 -0.353884
vn 0.612953 0.706402 -0.353956
vn 0.612953 0.706402 -0.353956
vn 0.612953 0.706402 -0.353956
vn 0.612953 0.706402 -0.353956
vn -0.884974 0.051524 0.462782
vn -0.884974 0.051524 0.462782
vn -0.884974 0.051524 0.462782
vn -0.884974 0.051524 0.462782
vn 0.000007 0.044695 0.999001
vn 0.000007 0.044695 0.999001
vn 0.000007 0.044695 0.999001
vn 0.000007 0.044695 0.999001
vn 0.000000 0.043305 -0.999062
vn 0.000000 0.043305 -0.999062
vn 0.000000 0.043305 -0.999062
vn 0.000000 0.043305 -0.999062
vn -0.883391 0.050838 -0.465871
vn -0.883391 0.050838 -0.465871
vn -0.883391 0.050838 -0.465871
vn -0.883391 0.050838 -0.465871
vn 0.883320 0.050831 -0.466006
vn 0.883320 0.050831 -0.466006
vn 0.883320 0.050831 -0.466006
vn 0.883320 0.050831 -0.466006
vn 0.864983 0.047843 -0.499515
vn 0.864983 0.047843 -0.499515
vn 0.864983 0.047843 -0.499515
vn 0.864983 0.047843 -0.499515
vn 0.000000 0.047843 -0.998855
vn 0.000000 0.047843 -0.998855
vn 0.000000 0.047843 -0.998855
vn 0.000000 0.047843 -0.998855
vn -0.865060 0.047847 -0.499381
vn -0.865060 0.047847 -0.499381
vn -0.865060 0.047847 -0.499381
vn -0.865060 0.047847 -0.499381
vn -0.865069 0.047842 0.499366
vn -0.865069 0.047842 0.499366
vn -0.865069 0.047842 0.499366
vn -0.865069 0.047842 0.499366
vn 0.000004 0.047843 0.998855
vn 0.000004 0.047843 0.998855
vn 0.000004 0.047843 0.998855
vn 0.000004 0.047843 0.998855
vn 0.865026 0.047840 0.499440
vn 0.865026 0.047840 0.499440
vn 0.865026 0.047840 0.499440
vn 0.865026 0.047840 0.499440
vn 0.817570 -0.329802 0.472027
vn 0.817570 -0.329802 0.472027
vn 0.817570 -0.329802 0.472027
vn 0.817570 -0.329802 0.472027
vn -0.000036 -0.329811 0.944047
vn -0.000036 -0.329811 0.944047
vn -0.000036 -0.329811 0.944047
vn -0.000036 -0.329811 0.944047
vn -0.817606 -0.329803 0.471964
vn -0.817606 -0.329803 0.471964
vn -0.817606 -0.329803 0.471964
vn -0.817606 -0.329803 0.471964
vn -0.817599 -0.329836 -0.471953
vn -0.817599 -0.329836 -0.471953
vn -0.817599 -0.329836 -0.471953
vn -0.817599 -0.329836 -0.471953
vn 0.000000 -0.329808 -0.944048
vn 0.000000 -0.329808 -0.944048
vn 0.000000 -0.329808 -0.944048
vn 0.000000 -0.329808 -0.944048
vn 0.817517 -0.329815 -0.472111
vn 0.817517 -0.329815 -0.472111
vn 0.817517 -0.329815 -0.472111
vn 0.817517 -0.329815 -0.472111
vn 0.866627 0.039503 0.497391
vn 0.866627 0.039503 0.497391
vn 0.866627 0.039503 0.497391
vn 0.866627 0.039503 0.497391
vn 0.000006 0.039163 0.999233
vn 0.000006 0.039163 0.999233
vn 0.000006 0.039163 0.999233
vn 0.000006 0.039163 0.999233
vn -0.866667 0.039505 0.497321
vn -0.866667 0.039505 0.497321
vn -0.866667 0.039505 0.497321
vn -0.866667 0.039505 0.497321
vn -0.865375 0.039853 -0.499538
vn -0.865375 0.039853 -0.499538
vn -0.865375 0.039853 -0.499538
vn -0.865375 0.039853 -0.499538
vn 0.000000 0.039847 -0.999206
vn 0.000000 0.039847 -0.999206
vn 0.000000 0.039847 -0.999206
vn 0.000000 0.039847 -0.999206
vn 0.865300 0.039850 -0.499667
vn 0.865300 0.039850 -0.499667
vn 0.865300 0.039850 -0.499667
vn 0.865300 0.039850 -0.499667
vn 0.884935 0.051520 0.462856
vn 0.884935 0.051520 0.462856
vn 0.884935 0.051520 0.462856
vn 0.884935 0.051520 0.462856
vn -0.903830 0.088544 0.418631
vn -0.903830 0.088544 0.418631
vn -0.903830 0.088544 0.418631
vn -0.903831 0.088552 -0.418626
vn -0.903831 0.088552 -0.418626
vn -0.903831 0.088552 -0.418626
vn 0.903792 0.088553 0.418711
vn 0.903792 0.088553 0.418711
vn 0.903792 0.088553 0.418711
vn 0.903760 0.088558 -0.418778
vn 0.903760 0.088558 -0.418778
vn 0.903760 0.088558 -0.418778
vn 0.000015 0.139135 0.990273
vn 0.000015 0.139135 0.990273
vn 0.000015 0.139135 0.990273
vn 0.000015 0.139135 0.990273
vn 0.000006 0.139126 -0.990275
vn 0.000006 0.139126 -0.990275
vn 0.000006 0.139126 -0.990275
vn 0.000006 0.139126 -0.990275
s off
f 7/1/1 1/2/2 2/3/3 8/4/4
f 9/5/5 8/4/6 2/3/7 3/6/8
f 10/7/9 9/5/10 3/6/11 4/8/12
f 11/9/13 10/7/14 4/8/15 5/10/16
f 12/11/17 11/9/18 5/10/19 6/12/20
f 7/1/21 12/11/22 6/12/23 1/2/24
f 2/3/25 1/2/26 13/13/27 14/14/28
f 3/6/29 2/3/30 14/14/31 15/15/32
f 4/8/33 3/6/34 15/15/35 16/16/36
f 5/10/37 4/8/38 16/16/39 17/17/40
f 6/12/41 5/10/42 17/17/43 18/18/44
f 1/2/45 6/12/46 18/18/47 13/13/48
f 14/19/49 13/20/50 19/21/51 20/22/52
f 15/23/53 14/19/54 20/22/55 21/24/56
f 16/25/57 15/23/58 21/24/59 22/26/60
f 17/27/61 16/25/62 22/26/63 23/28/64
f 18/29/65 17/27/66 23/28/67 24/30/68
f 13/20/69 18/29/70 24/30/71 19/21/72
f 20/22/73 19/21/74 44/31/75 45/32/76
f 21/24/77 20/22/78 45/32/79 46/33/80
f 22/26/81 21/24/82 46/33/83 47/34/84
f 23/28/85 22/26/86 47/34/87 48/35/88
f 24/30/89 23/28/90 48/35/91 49/36/92
f 19/21/93 24/30/94 49/36/95 44/31/96
f 26/37/97 25/38/98 31/39/99 32/40/100
f 27/41/101 26/37/102 32/40/103 33/42/104
f 28/43/105 27/41/106 33/42/107 34/44/108
f 29/45/109 28/43/110 34/44/111 35/46/112
f 30/47/113 29/45/114 35/46/115 36/48/116
f 25/38/117 30/47/118 36/48/119 31/39/120
f 32/49/121 31/50/122 37/51/123 38/52/124
f 33/53/125 32/49/126 38/52/127 39/54/128
f 34/55/129 33/53/130 39/54/131 40/56/132
f 35/57/133 34/55/134 40/56/135 41/58/136
f 36/59/137 35/57/138 41/58/139 42/60/140
f 31/50/141 36/59/142 42/60/143 37/51/144
f 7/1/145 8/4/146 43/61/147
f 8/4/148 9/5/149 43/61/150
f 9/5/151 10/7/152 43/61/153
f 10/7/154 11/9/155 43/61/156
f 11/9/157 12/11/158 43/61/159
f 12/11/160 7/1/161 43/61/162
f 45/32/163 44/31/164 25/38/165 26/37/166
f 46/33/167 45/32/168 26/37/169 27/41/170
f 47/34/171 46/33/172 27/41/173 28/43/174
f 48/35/175 47/34/176 28/43/177 29/45/178
f 49/36/179 48/35/180 29/45/181 30/47/182
f 44/31/183 49/36/184 30/47/185 25/38/186
f 37/66/187 42/67/188 52/68/189 51/69/190
f 42/67/191 41/70/192 53/71/193 52/68/194
f 41/70/195 40/72/196 50/73/197 53/71/198
f 39/74/199 38/75/200 54/76/201 55/77/202
f 38/75/203 37/66/204 51/69/205 54/76/206
f 40/72/207 39/74/208 55/77/209 50/73/210
f 69/84/211 70/85/212 74/89/213 75/90/214
f 70/85/215 71/86/216 73/88/217 74/89/218
f 71/86/219 66/81/220 72/87/221 73/88/222
f 67/82/223 68/83/224 76/91/225 77/92/226
f 68/83/227 69/84/228 75/90/229 76/91/230
f 66/81/231 67/82/232 77/92/233 72/87/234
f 57/99/235 84/102/236 62/101/237 61/63/238
f 84/102/239 85/105/240 63/100/241 62/101/242
f 59/80/243 58/79/244 64/65/245 65/64/246
f 58/79/247 57/99/248 61/63/249 64/65/250
f 56/78/251 59/80/252 65/64/253 60/62/254
f 50/73/255 55/77/256 67/82/257 66/81/258
f 55/77/259 54/76/260 68/83/261 67/82/262
f 54/76/263 51/69/264 69/84/265 68/83/266
f 51/69/267 52/68/268 70/85/269 69/84/270
f 52/68/271 53/71/272 71/86/273 70/85/274
f 53/71/275 50/73/276 66/81/277 71/86/278
f 73/88/279 72/87/280 78/93/281 79/94/282
f 74/89/283 73/88/284 79/94/285 80/95/286
f 75/90/287 74/89/288 80/95/289 81/96/290
f 76/91/291 75/90/292 81/96/293 82/97/294
f 77/92/295 76/91/296 82/97/297 83/98/298
f 72/87/299 77/92/300 83/98/301 78/93/302
f 79/94/303 78/93/304 56/78/305 85/103/306
f 80/95/307 79/94/308 85/103/309 84/104/310
f 81/96/311 80/95/312 84/104/313 57/99/314
f 82/97/315 81/96/316 57/99/317 58/79/318
f 83/98/319 82/97/320 58/79/321 59/80/322
f 78/93/323 83/98/324 59/80/325 56/78/326
f 85/105/327 56/78/328 60/62/329 63/100/330
f 61/63/331 62/101/332 86/106/333
f 64/65/334 61/63/335 86/106/336
f 63/100/337 60/62/338 87/107/339
f 60/62/340 65/64/341 87/107/342
f 62/101/343 63/100/344 87/107/345 86/106/346
f 65/64/347 64/65/348 86/106/349 87/107/350
