# This file uses centimeters as units for non-parametric coordinates.

v -2.307129 149.937988 -0.000215
v -1.153779 149.937836 -1.998138
v 1.153564 149.937836 -1.998138
v 2.307343 149.937790 -0.000215
v 1.153564 149.937729 1.998138
v -1.153564 149.937958 1.998138
v 3.603303 150.356369 -0.000335
v -3.603089 150.356644 -0.000335
v -1.801574 150.356598 3.120480
v 1.801454 150.356293 3.120480
v -1.801909 150.356445 -3.120480
v 1.801454 150.356445 -3.120480
v 1.962689 172.884277 -0.000183
v -1.962474 172.884460 -0.000183
v -0.981229 172.884415 1.699657
v 0.981261 172.884216 1.699657
v -0.981411 172.884308 -1.699657
v 0.981261 172.884308 -1.699657
v 1.523754 175.008865 -0.000142
v -1.523539 175.009033 -0.000142
v -0.761751 175.008972 1.319526
v 0.761824 175.008820 1.319526
v -0.761893 175.008896 -1.319526
v 0.761824 175.008896 -1.319526
v 0.730305 176.262680 -0.000209
v -0.730090 176.262848 -0.000209
v 3.467282 152.815735 -0.000322
v 1.733453 152.815811 -3.002681
v -1.733883 152.815811 -3.002681
v -3.467067 152.815994 -0.000322
v -1.733560 152.815964 3.002681
v 1.733453 152.815659 3.002681
v 2.292557 153.835114 -0.000213
v 1.146173 153.835052 1.985333
v -1.146171 153.835297 1.985333
v -2.292342 153.835327 -0.000213
v -1.146384 153.835159 -1.985333
v 1.146173 153.835159 -1.985333
v 2.783789 155.052795 -0.000259
v 1.391754 155.052719 2.410755
v -1.391798 155.053024 2.410755
v -2.783574 155.053055 -0.000259
v -1.392057 155.052856 -2.410755
v 1.391754 155.052856 -2.410755
v -0.527749 155.255920 1.825806
v -0.527749 155.255920 -1.825806
v 0.527749 155.255920 1.825806
v 0.527749 155.255920 -1.825806
v 0.527749 192.481064 0.000000
v -0.527749 192.481064 -0.000000
v -0.527749 168.815720 6.095459
v -0.527749 168.815720 -6.095459
v 0.527749 168.815720 -6.095459
v 0.527749 168.815720 6.095459
v 0.527749 165.580750 5.780396
v 0.527749 162.398804 4.067627
v 0.527749 165.580750 -5.780396
v 0.527749 162.398804 -4.067627
v -0.527749 162.398804 -4.067627
v -0.527749 165.580750 -5.780396
v -0.527749 162.398804 4.067627
v -0.527749 165.580750 5.780396
v 0.000000 168.873611 -8.886597
v 0.000000 201.786942 0.000000
v 0.000000 168.873611 8.886597
v 0.000000 165.505493 8.498169
v 0.000000 162.216965 5.413208
v 0.000000 162.216965 -5.413208
v 0.000000 165.505493 -8.498169
v -0.527749 184.348129 2.094849
v -0.527749 178.895447 -3.499268
v 0.527749 178.609222 -3.572998
v 0.527749 184.176727 2.138916
v 0.000000 190.156845 3.140167
v 0.000000 181.928513 5.361816
v -0.131937 185.797150 3.663879
v 0.131937 185.754303 3.674896
v 0.000000 181.848755 -5.383301
v 0.000000 173.620422 -7.604950
v -0.317185 177.422089 -4.966923
v 0.317185 177.250061 -5.011236
vt 0.090446 0.298868
vt 0.090547 0.298798
vt 0.090564 0.298784
vt 0.090433 0.298875
vt 0.090559 0.298717
vt 0.090579 0.298679
vt 0.090468 0.298707
vt 0.090460 0.298665
vt 0.090364 0.298779
vt 0.090355 0.298859
vt 0.090314 0.298864
vt 0.090326 0.298759
vt 0.090381 0.298786
vt 0.090506 0.298699
vt 0.090481 0.298664
vt 0.090359 0.298749
vt 0.090520 0.298598
vt 0.090495 0.298565
vt 0.090406 0.298584
vt 0.090383 0.298551
vt 0.090278 0.298674
vt 0.090267 0.298775
vt 0.090248 0.298738
vt 0.090258 0.298639
vt 0.089956 0.298059
vt 0.090031 0.298005
vt 0.089975 0.297939
vt 0.089917 0.297980
vt 0.090035 0.297937
vt 0.089978 0.297886
vt 0.089963 0.297923
vt 0.089922 0.297875
vt 0.089886 0.297978
vt 0.089884 0.298046
vt 0.089862 0.297969
vt 0.089863 0.297917
vt 0.089917 0.297980
vt 0.089922 0.297875
vt 0.090357 0.298511
vt 0.090466 0.298525
vt 0.090453 0.298622
vt 0.090334 0.298705
vt 0.090224 0.298693
vt 0.090234 0.298596
vt 0.091996 0.298202
vt 0.091992 0.298125
vt 0.091991 0.298121
vt 0.091995 0.298199
vt 0.092790 0.298115
vt 0.092446 0.298062
vt 0.092590 0.298172
vt 0.092208 0.298277
vt 0.092191 0.298019
vt 0.092440 0.298057
vt 0.092588 0.298169
vt 0.092134 0.298213
vt 0.092074 0.298220
vt 0.092067 0.298090
vt 0.092126 0.298090
vt 0.092126 0.298094
vt 0.092067 0.298094
vt 0.092075 0.298224
vt 0.092134 0.298217
vt 0.092208 0.298280
vt 0.092191 0.298023
vt 0.090220 0.351668
vt 0.090224 0.351676
vt 0.090563 0.351664
vt 0.091331 0.352313
vt 0.091444 0.352201
vt 0.091603 0.352208
vt 0.091409 0.352347
vt 0.091441 0.352238
vt 0.091329 0.352349
vt 0.091471 0.352094
vt 0.091633 0.352059
vt 0.091476 0.352057
vt 0.091145 0.352674
vt 0.091145 0.352707
vt 0.092208 0.298277
vt 0.092208 0.298280
vt 0.092208 0.298279
vt 0.090777 0.352139
vt 0.090849 0.352267
vt 0.090771 0.352286
vt 0.090633 0.352118
vt 0.090854 0.352303
vt 0.090783 0.352176
vt 0.090798 0.352033
vt 0.090651 0.351970
vt 0.090793 0.351995
vt 0.090917 0.352683
vt 0.090912 0.352650
vt 0.091996 0.298202
vt 0.091995 0.298199
vt 0.092072 0.298222
vt 0.092794 0.298111
vt 0.090503 0.351825
vt 0.090504 0.351832
vt 0.090305 0.351938
vt 0.090746 0.351769
vt 0.090468 0.351802
vt 0.090715 0.351716
vt 0.090954 0.351690
vt 0.090711 0.351732
vt 0.090470 0.351816
vt 0.090011 0.351976
vt 0.090071 0.352028
vt 0.090011 0.351961
vt 0.090079 0.351632
vt 0.090269 0.351698
vt 0.089954 0.351684
vt 0.089986 0.351626
vt 0.089954 0.351700
vt 0.090276 0.351714
vn -0.302691 -0.936936 0.174725
vn -0.302691 -0.936936 0.174725
vn -0.302691 -0.936936 0.174725
vn -0.302691 -0.936936 0.174725
vn -0.000085 -0.936951 0.349462
vn -0.000085 -0.936951 0.349462
vn -0.000085 -0.936951 0.349462
vn -0.000085 -0.936951 0.349462
vn 0.302646 -0.936955 0.174702
vn 0.302646 -0.936955 0.174702
vn 0.302646 -0.936955 0.174702
vn 0.302646 -0.936955 0.174702
vn 0.000000 -0.936952 -0.349458
vn 0.000000 -0.936952 -0.349458
vn 0.000000 -0.936952 -0.349458
vn 0.000000 -0.936952 -0.349458
vn -0.302675 -0.936954 -0.174659
vn -0.302675 -0.936954 -0.174659
vn -0.302675 -0.936954 -0.174659
vn -0.302675 -0.936954 -0.174659
vn 0.302609 -0.936952 -0.174785
vn 0.302609 -0.936952 -0.174785
vn 0.302609 -0.936952 -0.174785
vn 0.302609 -0.936952 -0.174785
vn -0.612996 0.706410 0.353867
vn -0.612996 0.706410 0.353867
vn -0.612996 0.706410 0.353867
vn -0.612996 0.706410 0.353867
vn 0.000067 0.706408 0.707805
vn 0.000067 0.706408 0.707805
vn 0.000067 0.706408 0.707805
vn 0.000067 0.706408 0.707805
vn 0.612993 0.706376 0.353939
vn 0.612993 0.706376 0.353939
vn 0.612993 0.706376 0.353939
vn 0.612993 0.706376 0.353939
vn 0.000000 0.706417 -0.707796
vn 0.000000 0.706417 -0.707796
vn 0.000000 0.706417 -0.707796
vn 0.000000 0.706417 -0.707796
vn -0.612945 0.706443 -0.353889
vn -0.612945 0.706443 -0.353889
vn -0.612945 0.706443 -0.353889
vn -0.612945 0.706443 -0.353889
vn 0.612953 0.706402 -0.353957
vn 0.612953 0.706402 -0.353957
vn 0.612953 0.706402 -0.353957
vn 0.612953 0.706402 -0.353957
vn -0.852518 0.176121 0.492132
vn -0.852518 0.176121 0.492132
vn -0.852518 0.176121 0.492132
vn -0.852518 0.176121 0.492132
vn 0.000018 0.176122 0.984369
vn 0.000018 0.176122 0.984369
vn 0.000018 0.176122 0.984369
vn 0.000018 0.176122 0.984369
vn 0.852481 0.176111 0.492201
vn 0.852481 0.176111 0.492201
vn 0.852481 0.176111 0.492201
vn 0.852481 0.176111 0.492201
vn 0.000000 0.176123 -0.984368
vn 0.000000 0.176123 -0.984368
vn 0.000000 0.176123 -0.984368
vn 0.000000 0.176123 -0.984368
vn -0.852506 0.176137 -0.492148
vn -0.852506 0.176137 -0.492148
vn -0.852506 0.176137 -0.492148
vn -0.852506 0.176137 -0.492148
vn 0.852440 0.176121 -0.492268
vn 0.852440 0.176121 -0.492268
vn 0.852440 0.176121 -0.492268
vn 0.852440 0.176121 -0.492268
vn -0.759457 0.480629 0.438430
vn -0.759457 0.480629 0.438430
vn -0.759457 0.480629 0.438430
vn -0.759464 0.480586 -0.438464
vn -0.759464 0.480586 -0.438464
vn -0.759464 0.480586 -0.438464
vn 0.759439 0.480617 0.438475
vn 0.759439 0.480617 0.438475
vn 0.759439 0.480617 0.438475
vn 0.759429 0.480564 -0.438550
vn 0.759429 0.480564 -0.438550
vn 0.759429 0.480564 -0.438550
vn 0.000078 0.724971 0.688779
vn 0.000078 0.724971 0.688779
vn 0.000078 0.724971 0.688779
vn 0.000078 0.724971 0.688779
vn 0.000041 0.724856 -0.688900
vn 0.000041 0.724856 -0.688900
vn 0.000041 0.724856 -0.688900
vn 0.000041 0.724856 -0.688900
vn 0.864983 0.047843 -0.499515
vn 0.864983 0.047843 -0.499515
vn 0.864983 0.047843 -0.499515
vn 0.864983 0.047843 -0.499515
vn 0.000000 0.047843 -0.998855
vn 0.000000 0.047843 -0.998855
vn 0.000000 0.047843 -0.998855
vn 0.000000 0.047843 -0.998855
vn -0.865061 0.047847 -0.499380
vn -0.865061 0.047847 -0.499380
vn -0.865061 0.047847 -0.499380
vn -0.865061 0.047847 -0.499380
vn -0.865069 0.047843 0.499367
vn -0.865069 0.047843 0.499367
vn -0.865069 0.047843 0.499367
vn -0.865069 0.047843 0.499367
vn 0.000004 0.047843 0.998855
vn 0.000004 0.047843 0.998855
vn 0.000004 0.047843 0.998855
vn 0.000004 0.047843 0.998855
vn 0.865026 0.047840 0.499441
vn 0.865026 0.047840 0.499441
vn 0.865026 0.047840 0.499441
vn 0.865026 0.047840 0.499441
vn 0.817568 -0.329803 0.472031
vn 0.817568 -0.329803 0.472031
vn 0.817568 -0.329803 0.472031
vn 0.817568 -0.329803 0.472031
vn -0.000036 -0.329813 0.944046
vn -0.000036 -0.329813 0.944046
vn -0.000036 -0.329813 0.944046
vn -0.000036 -0.329813 0.944046
vn -0.817606 -0.329804 0.471964
vn -0.817606 -0.329804 0.471964
vn -0.817606 -0.329804 0.471964
vn -0.817606 -0.329804 0.471964
vn -0.817599 -0.329837 -0.471953
vn -0.817599 -0.329837 -0.471953
vn -0.817599 -0.329837 -0.471953
vn -0.817599 -0.329837 -0.471953
vn 0.000000 -0.329813 -0.944046
vn 0.000000 -0.329813 -0.944046
vn 0.000000 -0.329813 -0.944046
vn 0.000000 -0.329813 -0.944046
vn 0.817517 -0.329816 -0.472111
vn 0.817517 -0.329816 -0.472111
vn 0.817517 -0.329816 -0.472111
vn 0.817517 -0.329816 -0.472111
vn 0.865332 0.039845 0.499613
vn 0.865332 0.039845 0.499613
vn 0.865332 0.039845 0.499613
vn 0.865332 0.039845 0.499613
vn 0.000004 0.039847 0.999206
vn 0.000004 0.039847 0.999206
vn 0.000004 0.039847 0.999206
vn 0.000004 0.039847 0.999206
vn -0.865372 0.039847 0.499543
vn -0.865372 0.039847 0.499543
vn -0.865372 0.039847 0.499543
vn -0.865372 0.039847 0.499543
vn -0.865365 0.039850 -0.499556
vn -0.865365 0.039850 -0.499556
vn -0.865365 0.039850 -0.499556
vn -0.865365 0.039850 -0.499556
vn 0.000000 0.039847 -0.999206
vn 0.000000 0.039847 -0.999206
vn 0.000000 0.039847 -0.999206
vn 0.000000 0.039847 -0.999206
vn 0.865286 0.039847 -0.499693
vn 0.865286 0.039847 -0.499693
vn 0.865286 0.039847 -0.499693
vn 0.865286 0.039847 -0.499693
vn -0.000045 -1.000000 -0.000001
vn -0.000045 -1.000000 -0.000001
vn -0.000045 -1.000000 -0.000001
vn -0.000045 -1.000000 -0.000001
vn -0.000045 -1.000000 -0.000001
vn -0.000045 -1.000000 -0.000001
vn 0.000000 -1.000000 0.000000
vn 0.000000 -1.000000 0.000000
vn 0.000000 -1.000000 0.000000
vn 0.000000 -1.000000 0.000000
vn -1.000000 0.000000 0.000000
vn -1.000000 0.000000 0.000000
vn -1.000000 0.000000 0.000000
vn 1.000000 0.000000 0.000000
vn 1.000000 0.000000 0.000000
vn 1.000000 0.000000 0.000000
vn 1.000000 0.000000 0.000000
vn 1.000000 -0.000000 0.000000
vn 1.000000 -0.000000 0.000000
vn 1.000000 -0.000000 0.000000
vn 1.000000 -0.000000 0.000000
vn -1.000000 -0.000000 0.000000
vn -1.000000 -0.000000 0.000000
vn -1.000000 -0.000000 0.000000
vn -1.000000 -0.000000 0.000000
vn 1.000000 0.000000 0.000000
vn 1.000000 0.000000 0.000000
vn 1.000000 0.000000 0.000000
vn 1.000000 0.000000 0.000000
vn -1.000000 0.000000 0.000000
vn -1.000000 0.000000 0.000000
vn -1.000000 0.000000 0.000000
vn -1.000000 0.000000 0.000000
vn 1.000000 -0.000000 0.000000
vn 1.000000 -0.000000 0.000000
vn 1.000000 -0.000000 0.000000
vn 1.000000 -0.000000 0.000000
vn -1.000000 -0.000000 0.000000
vn -1.000000 -0.000000 0.000000
vn -1.000000 -0.000000 0.000000
vn -1.000000 -0.000000 0.000000
vn -0.092787 -0.086652 -0.991908
vn -0.092787 -0.086652 -0.991908
vn -0.092787 -0.086652 -0.991908
vn 0.955458 -0.175781 0.237068
vn 0.955458 -0.175781 0.237068
vn 0.955458 -0.175781 0.237068
vn 0.955458 -0.175781 0.237068
vn -0.955458 -0.175781 0.237068
vn -0.955458 -0.175781 0.237068
vn -0.955458 -0.175781 0.237068
vn -0.955458 -0.175781 0.237068
vn -0.981950 -0.020038 0.188077
vn -0.981950 -0.020038 0.188077
vn -0.981950 -0.020038 0.188077
vn -0.981950 -0.020038 0.188077
vn 0.981950 -0.020038 0.188077
vn 0.981950 -0.020038 0.188077
vn 0.981950 -0.020038 0.188077
vn 0.981950 -0.020038 0.188077
vn 0.930279 -0.109855 0.350017
vn 0.930279 -0.109855 0.350017
vn 0.930279 -0.109855 0.350017
vn -0.930279 -0.109855 0.350017
vn -0.930279 -0.109855 0.350017
vn -0.930279 -0.109855 0.350017
vn 0.000000 -0.458098 0.888902
vn 0.000000 -0.458098 0.888902
vn 0.000000 -0.458098 0.888902
vn 0.955458 -0.175781 -0.237068
vn 0.955458 -0.175781 -0.237068
vn 0.955458 -0.175781 -0.237068
vn 0.955458 -0.175781 -0.237068
vn -0.955458 -0.175781 -0.237068
vn -0.955458 -0.175781 -0.237068
vn -0.955458 -0.175781 -0.237068
vn -0.955458 -0.175781 -0.237068
vn -0.981950 -0.020038 -0.188077
vn -0.981950 -0.020038 -0.188077
vn -0.981950 -0.020038 -0.188077
vn -0.981950 -0.020038 -0.188077
vn 0.981950 -0.020038 -0.188077
vn 0.981950 -0.020038 -0.188077
vn 0.981950 -0.020038 -0.188077
vn 0.981950 -0.020038 -0.188077
vn -0.930279 -0.109855 -0.350017
vn -0.930279 -0.109855 -0.350017
vn -0.930279 -0.109855 -0.350017
vn 0.930279 -0.109855 -0.350017
vn 0.930279 -0.109855 -0.350017
vn 0.930279 -0.109855 -0.350017
vn 0.000000 -0.458098 -0.888902
vn 0.000000 -0.458098 -0.888902
vn 0.000000 -0.458098 -0.888902
vn -1.000000 0.000000 0.000000
vn -1.000000 0.000000 0.000000
vn -1.000000 0.000000 0.000000
vn -1.000000 0.000000 0.000000
vn 1.000000 -0.000000 0.000000
vn 1.000000 -0.000000 0.000000
vn 1.000000 -0.000000 0.000000
vn 0.027159 0.402521 0.915008
vn 0.027159 0.402521 0.915008
vn 0.027159 0.402521 0.915008
vn 0.977601 0.054004 0.203419
vn 0.977601 0.054004 0.203419
vn 0.977601 0.054004 0.203419
vn 0.977601 0.054004 0.203419
vn 0.977601 0.054004 0.203419
vn -0.977595 0.054024 0.203445
vn -0.977595 0.054024 0.203445
vn -0.977595 0.054024 0.203445
vn -0.977595 0.054024 0.203445
vn -0.977595 0.054024 0.203445
vn -0.980279 0.050432 0.191078
vn -0.980279 0.050432 0.191078
vn -0.980279 0.050432 0.191078
vn -0.980279 0.050432 0.191078
vn -0.980279 0.050432 0.191078
vn 0.980287 0.050428 0.191036
vn 0.980287 0.050428 0.191036
vn 0.980287 0.050428 0.191036
vn 0.980287 0.050428 0.191036
vn 0.980287 0.050428 0.191036
vn 0.981060 0.049088 -0.187380
vn 0.981060 0.049088 -0.187380
vn 0.981060 0.049088 -0.187380
vn 0.981060 0.049088 -0.187380
vn 0.981060 0.049088 -0.187380
vn -0.981055 0.049081 -0.187408
vn -0.981055 0.049081 -0.187408
vn -0.981055 0.049081 -0.187408
vn -0.981055 0.049081 -0.187408
vn -0.981055 0.049081 -0.187408
vn -0.978243 0.053206 -0.200524
vn -0.978243 0.053206 -0.200524
vn -0.978243 0.053206 -0.200524
vn -0.978243 0.053206 -0.200524
vn -0.978243 0.053206 -0.200524
vn 0.978257 0.053177 -0.200464
vn 0.978257 0.053177 -0.200464
vn 0.978257 0.053177 -0.200464
vn 0.978257 0.053177 -0.200464
vn 0.978257 0.053177 -0.200464
vn 0.098506 0.572862 -0.813711
vn 0.098506 0.572862 -0.813711
vn 0.098506 0.572862 -0.813711
vn -0.021972 0.119896 0.992543
vn -0.021972 0.119896 0.992543
vn -0.021972 0.119896 0.992543
s off
f 1/1/1 6/2/2 9/3/3 8/4/4
f 6/2/5 5/5/6 10/6/7 9/3/8
f 5/5/9 4/7/10 7/8/11 10/6/12
f 3/9/13 2/10/14 11/11/15 12/12/16
f 2/10/17 1/1/18 8/4/19 11/11/20
f 4/7/21 3/9/22 12/12/23 7/8/24
f 30/13/25 31/14/26 35/15/27 36/16/28
f 31/14/29 32/17/30 34/18/31 35/15/32
f 32/17/33 27/19/34 33/20/35 34/18/36
f 28/21/37 29/22/38 37/23/39 38/24/40
f 29/22/41 30/13/42 36/16/43 37/23/44
f 27/19/45 28/21/46 38/24/47 33/20/48
f 14/25/49 15/26/50 21/27/51 20/28/52
f 15/26/53 16/29/54 22/30/55 21/27/56
f 16/29/57 13/31/58 19/32/59 22/30/60
f 18/33/61 17/34/62 23/35/63 24/36/64
f 17/34/65 14/25/66 20/28/67 23/35/68
f 13/31/69 18/33/70 24/36/71 19/32/72
f 20/28/73 21/27/74 26/37/75
f 23/35/76 20/28/77 26/37/78
f 22/30/79 19/32/80 25/38/81
f 19/32/82 24/36/83 25/38/84
f 22/30/85 25/38/86 26/37/87 21/27/88
f 25/38/89 24/36/90 23/35/91 26/37/92
f 7/8/93 12/12/94 28/21/95 27/19/96
f 12/12/97 11/11/98 29/22/99 28/21/100
f 11/11/101 8/4/102 30/13/103 29/22/104
f 8/4/105 9/3/106 31/14/107 30/13/108
f 9/3/109 10/6/110 32/17/111 31/14/112
f 10/6/113 7/8/114 27/19/115 32/17/116
f 34/18/117 33/20/118 39/39/119 40/40/120
f 35/15/121 34/18/122 40/40/123 41/41/124
f 36/16/125 35/15/126 41/41/127 42/42/128
f 37/23/129 36/16/130 42/42/131 43/43/132
f 38/24/133 37/23/134 43/43/135 44/44/136
f 33/20/137 38/24/138 44/44/139 39/39/140
f 40/40/141 39/39/142 13/31/143 16/29/144
f 41/41/145 40/40/146 16/29/147 15/26/148
f 42/42/149 41/41/150 15/26/151 14/25/152
f 43/43/153 42/42/154 14/25/155 17/34/156
f 44/44/157 43/43/158 17/34/159 18/33/160
f 39/39/161 44/44/162 18/33/163 13/31/164
f 4/7/165 5/5/166 6/2/167 1/1/168 2/10/169 3/9/170
f 45/45/171 46/46/172 48/47/173 47/48/174
f 50/49/175 71/50/176 70/51/177
f 54/52/178 53/53/179 72/54/180 73/55/181
f 55/56/182 56/57/183 58/58/184 57/59/185
f 60/60/186 59/61/187 61/62/188 62/63/189
f 55/56/190 57/59/191 53/53/192 54/52/193
f 51/64/194 52/65/195 60/60/196 62/63/197
f 48/47/198 58/58/199 56/57/200 47/48/201
f 45/45/202 61/62/203 59/61/204 46/46/205
f 81/66/206 80/67/207 78/68/208
f 56/69/209 55/70/210 66/71/211 67/72/212
f 62/73/213 61/74/214 67/72/215 66/71/216
f 51/75/217 62/73/218 66/71/219 65/76/220
f 55/70/221 54/77/222 65/76/223 66/71/224
f 47/78/225 56/69/226 67/72/227
f 61/74/228 45/79/229 67/72/230
f 45/80/231 47/81/232 67/82/233
f 57/83/234 58/84/235 68/85/236 69/86/237
f 59/87/238 60/88/239 69/86/240 68/85/241
f 60/88/242 52/89/243 63/90/244 69/86/245
f 53/91/246 57/83/247 69/86/248 63/90/249
f 46/92/250 59/87/251 68/85/252
f 58/84/253 48/93/254 68/85/255
f 48/94/256 46/95/257 68/96/258
f 70/51/259 71/50/260 52/65/261 51/64/262
f 73/55/263 72/54/264 49/97/265
f 77/98/266 76/99/267 75/100/268
f 74/101/269 77/98/270 73/102/271 49/103/272 64/104/273
f 50/105/274 70/106/275 76/99/276 74/101/277 64/104/278
f 75/100/279 76/99/280 70/106/281 51/107/282 65/108/283
f 54/109/284 73/102/285 77/98/286 75/100/287 65/108/288
f 79/110/289 81/66/290 72/111/291 53/112/292 63/113/293
f 52/114/294 71/115/295 80/67/296 79/110/297 63/113/298
f 78/68/299 80/67/300 71/115/301 50/105/302 64/104/303
f 49/103/304 72/111/305 81/66/306 78/68/307 64/104/308
f 81/66/309 79/110/310 80/67/311
f 77/98/312 74/101/313 76/99/314
