# This file uses centimeters as units for non-parametric coordinates.

v -2.307129 149.937988 -0.000214
v -1.153779 149.937836 -1.998138
v 1.153564 149.937836 -1.998138
v 2.307343 149.937790 -0.000214
v 1.153564 149.937729 1.998138
v -1.153564 149.937958 1.998138
v 3.603303 150.356369 -0.000336
v -3.603089 150.356644 -0.000336
v -1.801574 150.356598 3.120483
v 1.801455 150.356293 3.120483
v -1.801909 150.356445 -3.120483
v 1.801454 150.356445 -3.120483
v 1.962617 172.883911 -0.000061
v -1.962425 172.884232 -0.000092
v -0.981411 172.884308 -1.699661
v 0.981261 172.884308 -1.699661
v 1.373191 181.654236 -0.000137
v -1.372976 181.654404 -0.000137
v -0.761751 181.654343 1.319519
v 0.761824 181.654190 1.319519
v -0.761893 181.654266 -1.319519
v 0.761824 181.654266 -1.319519
v 3.467282 152.815735 -0.000320
v 1.733453 152.815811 -3.002686
v -1.733883 152.815811 -3.002686
v -3.467067 152.815994 -0.000320
v -1.733560 152.815964 3.002686
v 1.733453 152.815659 3.002686
v 2.292557 153.835114 -0.000214
v 1.146173 153.835052 1.985336
v -1.146171 153.835297 1.985336
v -2.292342 153.835327 -0.000214
v -1.146384 153.835159 -1.985336
v 1.146173 153.835159 -1.985336
v 2.783789 155.052795 -0.000259
v 1.391754 155.052719 2.410751
v -1.391798 155.053024 2.410751
v -2.783574 155.053055 -0.000259
v -1.392057 155.052856 -2.410751
v 1.391754 155.052856 -2.410751
v -0.988279 172.884903 1.711868
v 0.988310 172.884537 1.711868
v -0.452872 191.046127 -0.000046
v 0.452945 191.046021 -0.000046
vt 0.089922 0.297875
vt 0.089917 0.297980
vt 0.089863 0.297917
vt 0.089862 0.297969
vt 0.090446 0.298868
vt 0.090547 0.298798
vt 0.090564 0.298784
vt 0.090433 0.298875
vt 0.090559 0.298717
vt 0.090579 0.298679
vt 0.090468 0.298707
vt 0.090460 0.298665
vt 0.090364 0.298779
vt 0.090355 0.298859
vt 0.090314 0.298864
vt 0.090326 0.298759
vt 0.089963 0.297923
vt 0.089884 0.298046
vt 0.089886 0.297978
vt 0.090406 0.298584
vt 0.090278 0.298674
vt 0.090267 0.298775
vt 0.090381 0.298786
vt 0.090506 0.298699
vt 0.090520 0.298598
vt 0.090383 0.298551
vt 0.090495 0.298565
vt 0.090481 0.298664
vt 0.090359 0.298749
vt 0.090248 0.298738
vt 0.090258 0.298639
vt 0.090357 0.298511
vt 0.090466 0.298525
vt 0.090453 0.298622
vt 0.090334 0.298705
vt 0.090224 0.298693
vt 0.090234 0.298596
vt 0.089956 0.298059
vt 0.089978 0.297886
vt 0.089975 0.297939
vt 0.090023 0.297996
vt 0.090083 0.298002
vt 0.090078 0.298073
vt 0.090027 0.297930
vt 0.089918 0.297963
vt 0.089921 0.297892
vn -0.302691 -0.936936 0.174725
vn -0.302691 -0.936936 0.174725
vn -0.302691 -0.936936 0.174725
vn -0.302691 -0.936936 0.174725
vn -0.000085 -0.936948 0.349469
vn -0.000085 -0.936948 0.349469
vn -0.000085 -0.936948 0.349469
vn -0.000085 -0.936948 0.349469
vn 0.302646 -0.936954 0.174704
vn 0.302646 -0.936954 0.174704
vn 0.302646 -0.936954 0.174704
vn 0.302646 -0.936954 0.174704
vn 0.000000 -0.936952 -0.349457
vn 0.000000 -0.936952 -0.349457
vn 0.000000 -0.936952 -0.349457
vn 0.000000 -0.936952 -0.349457
vn -0.302674 -0.936954 -0.174658
vn -0.302674 -0.936954 -0.174658
vn -0.302674 -0.936954 -0.174658
vn -0.302674 -0.936954 -0.174658
vn 0.302609 -0.936952 -0.174785
vn 0.302609 -0.936952 -0.174785
vn 0.302609 -0.936952 -0.174785
vn 0.302609 -0.936952 -0.174785
vn -0.612995 0.706410 0.353867
vn -0.612995 0.706410 0.353867
vn -0.612995 0.706410 0.353867
vn -0.612995 0.706410 0.353867
vn 0.000067 0.706408 0.707805
vn 0.000067 0.706408 0.707805
vn 0.000067 0.706408 0.707805
vn 0.000067 0.706408 0.707805
vn 0.612993 0.706376 0.353938
vn 0.612993 0.706376 0.353938
vn 0.612993 0.706376 0.353938
vn 0.612993 0.706376 0.353938
vn 0.000000 0.706413 -0.707800
vn 0.000000 0.706413 -0.707800
vn 0.000000 0.706413 -0.707800
vn 0.000000 0.706413 -0.707800
vn -0.612947 0.706444 -0.353884
vn -0.612947 0.706444 -0.353884
vn -0.612947 0.706444 -0.353884
vn -0.612947 0.706444 -0.353884
vn 0.612953 0.706402 -0.353956
vn 0.612953 0.706402 -0.353956
vn 0.612953 0.706402 -0.353956
vn 0.612953 0.706402 -0.353956
vn -0.884974 0.051524 0.462782
vn -0.884974 0.051524 0.462782
vn -0.884974 0.051524 0.462782
vn -0.884974 0.051524 0.462782
vn 0.000007 0.044695 0.999001
vn 0.000007 0.044695 0.999001
vn 0.000007 0.044695 0.999001
vn 0.000007 0.044695 0.999001
vn 0.000000 0.043305 -0.999062
vn 0.000000 0.043305 -0.999062
vn 0.000000 0.043305 -0.999062
vn 0.000000 0.043305 -0.999062
vn -0.883391 0.050838 -0.465871
vn -0.883391 0.050838 -0.465871
vn -0.883391 0.050838 -0.465871
vn -0.883391 0.050838 -0.465871
vn 0.883320 0.050831 -0.466006
vn 0.883320 0.050831 -0.466006
vn 0.883320 0.050831 -0.466006
vn 0.883320 0.050831 -0.466006
vn 0.864983 0.047843 -0.499515
vn 0.864983 0.047843 -0.499515
vn 0.864983 0.047843 -0.499515
vn 0.864983 0.047843 -0.499515
vn 0.000000 0.047843 -0.998855
vn 0.000000 0.047843 -0.998855
vn 0.000000 0.047843 -0.998855
vn 0.000000 0.047843 -0.998855
vn -0.865060 0.047847 -0.499381
vn -0.865060 0.047847 -0.499381
vn -0.865060 0.047847 -0.499381
vn -0.865060 0.047847 -0.499381
vn -0.865069 0.047842 0.499366
vn -0.865069 0.047842 0.499366
vn -0.865069 0.047842 0.499366
vn -0.865069 0.047842 0.499366
vn 0.000004 0.047843 0.998855
vn 0.000004 0.047843 0.998855
vn 0.000004 0.047843 0.998855
vn 0.000004 0.047843 0.998855
vn 0.865026 0.047840 0.499440
vn 0.865026 0.047840 0.499440
vn 0.865026 0.047840 0.499440
vn 0.865026 0.047840 0.499440
vn 0.817570 -0.329802 0.472027
vn 0.817570 -0.329802 0.472027
vn 0.817570 -0.329802 0.472027
vn 0.817570 -0.329802 0.472027
vn -0.000036 -0.329811 0.944047
vn -0.000036 -0.329811 0.944047
vn -0.000036 -0.329811 0.944047
vn -0.000036 -0.329811 0.944047
vn -0.817606 -0.329803 0.471964
vn -0.817606 -0.329803 0.471964
vn -0.817606 -0.329803 0.471964
vn -0.817606 -0.329803 0.471964
vn -0.817599 -0.329836 -0.471953
vn -0.817599 -0.329836 -0.471953
vn -0.817599 -0.329836 -0.471953
vn -0.817599 -0.329836 -0.471953
vn 0.000000 -0.329808 -0.944048
vn 0.000000 -0.329808 -0.944048
vn 0.000000 -0.329808 -0.944048
vn 0.000000 -0.329808 -0.944048
vn 0.817517 -0.329815 -0.472111
vn 0.817517 -0.329815 -0.472111
vn 0.817517 -0.329815 -0.472111
vn 0.817517 -0.329815 -0.472111
vn 0.866627 0.039503 0.497391
vn 0.866627 0.039503 0.497391
vn 0.866627 0.039503 0.497391
vn 0.866627 0.039503 0.497391
vn 0.000006 0.039163 0.999233
vn 0.000006 0.039163 0.999233
vn 0.000006 0.039163 0.999233
vn 0.000006 0.039163 0.999233
vn -0.866667 0.039505 0.497321
vn -0.866667 0.039505 0.497321
vn -0.866667 0.039505 0.497321
vn -0.866667 0.039505 0.497321
vn -0.865375 0.039853 -0.499538
vn -0.865375 0.039853 -0.499538
vn -0.865375 0.039853 -0.499538
vn -0.865375 0.039853 -0.499538
vn 0.000000 0.039847 -0.999206
vn 0.000000 0.039847 -0.999206
vn 0.000000 0.039847 -0.999206
vn 0.000000 0.039847 -0.999206
vn 0.865300 0.039850 -0.499667
vn 0.865300 0.039850 -0.499667
vn 0.865300 0.039850 -0.499667
vn 0.865300 0.039850 -0.499667
vn 0.884935 0.051520 0.462856
vn 0.884935 0.051520 0.462856
vn 0.884935 0.051520 0.462856
vn 0.884935 0.051520 0.462856
vn -0.903830 0.088544 0.418631
vn -0.903830 0.088544 0.418631
vn -0.903830 0.088544 0.418631
vn -0.903831 0.088552 -0.418626
vn -0.903831 0.088552 -0.418626
vn -0.903831 0.088552 -0.418626
vn 0.903792 0.088553 0.418711
vn 0.903792 0.088553 0.418711
vn 0.903792 0.088553 0.418711
vn 0.903760 0.088558 -0.418778
vn 0.903760 0.088558 -0.418778
vn 0.903760 0.088558 -0.418778
vn 0.000015 0.139135 0.990273
vn 0.000015 0.139135 0.990273
vn 0.000015 0.139135 0.990273
vn 0.000015 0.139135 0.990273
vn 0.000006 0.139126 -0.990275
vn 0.000006 0.139126 -0.990275
vn 0.000006 0.139126 -0.990275
vn 0.000006 0.139126 -0.990275
vn -0.000045 -1.000000 0.000001
vn -0.000045 -1.000000 0.000001
vn -0.000045 -1.000000 0.000001
vn -0.000045 -1.000000 0.000001
vn -0.000045 -1.000000 0.000001
vn -0.000045 -1.000000 0.000001
s off
f 1/5/1 6/6/2 9/7/3 8/8/4
f 6/6/5 5/9/6 10/10/7 9/7/8
f 5/9/9 4/11/10 7/12/11 10/10/12
f 3/13/13 2/14/14 11/15/15 12/16/16
f 2/14/17 1/5/18 8/8/19 11/15/20
f 4/11/21 3/13/22 12/16/23 7/12/24
f 26/23/25 27/24/26 31/28/27 32/29/28
f 27/24/29 28/25/30 30/27/31 31/28/32
f 28/25/33 23/20/34 29/26/35 30/27/36
f 24/21/37 25/22/38 33/30/39 34/31/40
f 25/22/41 26/23/42 32/29/43 33/30/44
f 23/20/45 24/21/46 34/31/47 29/26/48
f 14/38/49 41/41/50 19/40/51 18/2/52
f 41/41/53 42/44/54 20/39/55 19/40/56
f 16/19/57 15/18/58 21/4/59 22/3/60
f 15/18/61 14/38/62 18/2/63 21/4/64
f 13/17/65 16/19/66 22/3/67 17/1/68
f 7/12/69 12/16/70 24/21/71 23/20/72
f 12/16/73 11/15/74 25/22/75 24/21/76
f 11/15/77 8/8/78 26/23/79 25/22/80
f 8/8/81 9/7/82 27/24/83 26/23/84
f 9/7/85 10/10/86 28/25/87 27/24/88
f 10/10/89 7/12/90 23/20/91 28/25/92
f 30/27/93 29/26/94 35/32/95 36/33/96
f 31/28/97 30/27/98 36/33/99 37/34/100
f 32/29/101 31/28/102 37/34/103 38/35/104
f 33/30/105 32/29/106 38/35/107 39/36/108
f 34/31/109 33/30/110 39/36/111 40/37/112
f 29/26/113 34/31/114 40/37/115 35/32/116
f 36/33/117 35/32/118 13/17/119 42/42/120
f 37/34/121 36/33/122 42/42/123 41/43/124
f 38/35/125 37/34/126 41/43/127 14/38/128
f 39/36/129 38/35/130 14/38/131 15/18/132
f 40/37/133 39/36/134 15/18/135 16/19/136
f 35/32/137 40/37/138 16/19/139 13/17/140
f 42/44/141 13/17/142 17/1/143 20/39/144
f 18/2/145 19/40/146 43/45/147
f 21/4/148 18/2/149 43/45/150
f 20/39/151 17/1/152 44/46/153
f 17/1/154 22/3/155 44/46/156
f 19/40/157 20/39/158 44/46/159 43/45/160
f 22/3/161 21/4/162 43/45/163 44/46/164
f 1/5/165 2/14/166 3/13/167 4/11/168 5/9/169 6/6/170
