# This file uses centimeters as units for non-parametric coordinates.

v -0.230040 11.320499 14.983826
v -0.230040 11.320499 -14.983803
v 0.230040 11.320499 14.983826
v 0.230040 11.320499 -14.983803
v 0.230040 14.829218 -14.983803
v -0.230040 14.829218 -14.983803
v 1.917066 15.123714 0.000000
v -1.917066 15.123715 0.000000
v -1.917066 10.854158 0.000000
v 1.917066 10.854158 0.000000
v -0.823646 11.159027 5.993536
v -0.823646 13.261449 5.993535
v 0.823646 13.261449 5.993535
v 0.823646 11.159027 5.993536
v -0.638719 11.633286 11.387710
v -0.638719 13.735709 11.387710
v 0.638719 13.735709 11.387710
v 0.638719 11.633286 11.387710
v 0.823646 13.261449 -5.993524
v -0.823646 13.261449 -5.993524
v -0.823646 11.159027 -5.993524
v 0.638719 13.735709 -11.387698
v -0.638719 13.735709 -11.387698
v -0.638719 11.633286 -11.387698
v 0.638719 11.633286 -11.387698
v 1.315684 11.021837 -3.296430
v 0.740428 11.372446 -8.420907
v 0.082365 11.159027 -5.993524
v 0.823646 12.105118 -5.993524
v 0.230040 13.776708 14.983827
v 0.344478 14.523013 13.976842
v -0.230040 13.776708 14.983827
v -0.344478 14.523013 13.976842
v -0.497701 -15.757474 0.456708
v -0.497701 -15.757474 -0.456708
v 0.497701 -15.757474 0.456708
v 0.497701 -15.757474 -0.456708
v 0.497701 -10.158918 0.677026
v 0.497701 -10.158918 -0.677026
v -0.497701 -10.158918 0.677026
v -0.497701 -10.158918 -0.677026
v -1.145633 -10.113586 0.000143
v 1.145633 -10.113586 0.000143
v 0.785984 -10.628005 1.606894
v -0.785984 -10.628005 1.606894
v -1.314219 -1.519000 0.115830
v 1.276832 -2.668369 0.508434
v 0.841139 -1.589488 2.004004
v -1.070125 -1.414961 2.148807
v -1.314607 6.084608 -0.145352
v 1.252163 6.573921 -0.201451
v 0.878579 6.479466 2.093124
v -1.046891 6.351463 1.788803
v -1.304014 11.077738 0.000232
v 1.304014 11.077738 0.000232
v 0.925255 11.077738 2.591442
v -0.925255 11.077738 2.591441
v 0.785984 -10.628005 -1.606750
v -0.785984 -10.628005 -1.606750
v 1.152835 -1.427985 -1.842563
v -0.841139 -1.589488 -2.004004
v 0.878579 6.440084 -1.814770
v -0.878579 6.479466 -2.092838
v 0.925255 11.077738 -2.591441
v -0.925255 11.077738 -2.591442
v -1.537891 -14.948185 -3.300394
v -1.537891 -11.137219 -3.300395
v -1.537891 -9.231736 -0.000001
v -1.537891 -11.137218 3.300394
v -1.537891 -14.948184 3.300394
v -1.537891 -16.853668 0.000000
v 1.537891 -14.948185 -3.300394
v 1.537891 -11.137219 -3.300395
v 1.537891 -9.231736 -0.000001
v 1.537891 -11.137218 3.300394
v 1.537891 -14.948185 3.300394
v 1.537891 -16.853668 0.000000
v -1.537891 -15.468025 0.000000
v -1.537891 -14.255363 -2.100393
v -1.537891 -14.255362 2.100393
v -1.537891 -11.830037 2.100393
v -1.537891 -10.617374 0.000000
v -1.537891 -11.830039 -2.100394
v 1.537891 -14.255363 -2.100393
v 1.537891 -11.830039 -2.100393
v 1.537891 -10.617374 0.000000
v 1.537891 -11.830037 2.100393
v 1.537891 -14.255362 2.100393
v 1.537891 -15.468025 0.000000
vt 0.091191 0.275907
vt 0.091193 0.275907
vt 0.091265 0.275719
vt 0.091264 0.275710
vt 0.091258 0.275936
vt 0.091401 0.275769
vt 0.091259 0.275935
vt 0.091396 0.275776
vt 0.091480 0.275260
vt 0.091589 0.275307
vt 0.091595 0.275293
vt 0.091484 0.275245
vt 0.091423 0.275556
vt 0.091420 0.275563
vt 0.091355 0.275534
vt 0.091135 0.276082
vt 0.091132 0.276085
vt 0.091511 0.275393
vt 0.091507 0.275401
vt 0.091442 0.275373
vt 0.091444 0.275365
vt 0.091310 0.275618
vt 0.091400 0.275446
vt 0.091355 0.275531
vt 0.091389 0.275541
vt 0.091199 0.276114
vt 0.091077 0.276190
vt 0.091150 0.276230
vt 0.091072 0.276196
vt 0.091190 0.276202
vt 0.091200 0.276111
vt 0.091188 0.276208
vt 0.091153 0.276223
vt 0.090143 0.276245
vt 0.090129 0.276016
vt 0.090128 0.275973
vt 0.090142 0.276205
vt 0.091110 0.275916
vt 0.091128 0.276147
vt 0.091100 0.275959
vt 0.091118 0.276188
vt 0.079854 0.251820
vt 0.079886 0.251753
vt 0.080273 0.251764
vt 0.080266 0.251849
vt 0.079862 0.251874
vt 0.080268 0.251915
vt 0.079897 0.251831
vt 0.080275 0.251859
vt 0.080643 0.251780
vt 0.080640 0.251869
vt 0.080634 0.251939
vt 0.080635 0.251879
vt 0.080854 0.251803
vt 0.080854 0.251907
vt 0.080846 0.251960
vt 0.080843 0.251878
vt 0.079875 0.251709
vt 0.080280 0.251709
vt 0.079883 0.251764
vt 0.080282 0.251777
vt 0.080644 0.251723
vt 0.080638 0.251794
vt 0.080851 0.251725
vt 0.080843 0.251779
vt 0.090932 0.277848
vt 0.091389 0.277853
vt 0.091346 0.277675
vt 0.090873 0.277670
vt 0.091595 0.278212
vt 0.091559 0.278044
vt 0.091335 0.278580
vt 0.091289 0.278422
vt 0.090861 0.278575
vt 0.090798 0.278417
vt 0.090665 0.278203
vt 0.090595 0.278035
vt 0.090834 0.278205
vt 0.091003 0.277978
vt 0.090960 0.278440
vt 0.091260 0.278443
vt 0.091426 0.278210
vt 0.091296 0.277980
vt 0.091249 0.277806
vt 0.090946 0.277803
vt 0.091384 0.278042
vt 0.091211 0.278281
vt 0.090901 0.278278
vt 0.090770 0.278036
vn 0.000000 -0.998709 0.050801
vn 0.000000 -0.998709 0.050801
vn 0.000000 -0.998709 0.050801
vn 0.000000 -0.998709 0.050801
vn 0.983763 0.000000 0.179471
vn 0.983763 0.000000 0.179471
vn 0.983763 0.000000 0.179471
vn 0.983763 0.000000 0.179471
vn 0.000000 0.954965 0.296719
vn 0.000000 0.954965 0.296719
vn 0.000000 0.954965 0.296719
vn 0.000000 0.954965 0.296719
vn -0.983763 0.000000 0.179471
vn -0.983763 0.000000 0.179471
vn -0.983763 0.000000 0.179471
vn -0.983763 0.000000 0.179471
vn 0.000000 0.000000 -1.000000
vn 0.000000 0.000000 -1.000000
vn 0.000000 0.000000 -1.000000
vn 0.000000 0.000000 -1.000000
vn 0.000000 -0.000000 1.000000
vn 0.000000 -0.000000 1.000000
vn 0.000000 -0.000000 1.000000
vn 0.000000 -0.000000 1.000000
vn 0.000000 0.954965 -0.296720
vn 0.000000 0.954965 -0.296720
vn 0.000000 0.954965 -0.296720
vn 0.000000 0.954965 -0.296720
vn -0.983763 0.000000 -0.179472
vn -0.983763 0.000000 -0.179472
vn -0.983763 0.000000 -0.179472
vn -0.983763 0.000000 -0.179472
vn 0.777371 -0.609085 0.157194
vn 0.777371 -0.609085 0.157194
vn 0.777371 -0.609085 0.157194
vn -0.999413 0.000000 0.034263
vn -0.999413 0.000000 0.034263
vn -0.999413 0.000000 0.034263
vn -0.999413 0.000000 0.034263
vn 0.000000 0.996157 -0.087583
vn 0.000000 0.996157 -0.087583
vn 0.000000 0.996157 -0.087583
vn 0.000000 0.996157 -0.087583
vn 0.999413 0.000000 0.034263
vn 0.999413 0.000000 0.034263
vn 0.999413 0.000000 0.034263
vn 0.999413 0.000000 0.034263
vn 0.000000 -0.996157 0.087583
vn 0.000000 -0.996157 0.087583
vn 0.000000 -0.996157 0.087583
vn 0.000000 -0.996157 0.087583
vn 0.000000 0.956745 -0.290927
vn 0.000000 0.956745 -0.290927
vn 0.000000 0.956745 -0.290927
vn 0.000000 0.956745 -0.290927
vn 0.993604 0.000000 0.112918
vn 0.993604 0.000000 0.112918
vn 0.993604 0.000000 0.112918
vn 0.000000 -0.996239 -0.086652
vn 0.000000 -0.996239 -0.086652
vn 0.000000 -0.996239 -0.086652
vn 0.000000 -0.996239 -0.086652
vn 0.000000 0.996157 0.087583
vn 0.000000 0.996157 0.087583
vn 0.000000 0.996157 0.087583
vn 0.000000 0.996157 0.087583
vn -0.999413 0.000000 -0.034263
vn -0.999413 0.000000 -0.034263
vn -0.999413 0.000000 -0.034263
vn -0.999413 0.000000 -0.034263
vn 0.000000 0.956745 0.290928
vn 0.000000 0.956745 0.290928
vn 0.000000 0.956745 0.290928
vn 0.000000 0.956745 0.290928
vn -0.993604 0.000000 -0.112918
vn -0.993604 0.000000 -0.112918
vn -0.993604 0.000000 -0.112918
vn -0.993604 0.000000 -0.112918
vn 0.000000 -0.996239 0.086653
vn 0.000000 -0.996239 0.086653
vn 0.000000 -0.996239 0.086653
vn 0.000000 -0.996239 0.086653
vn 0.993604 0.000000 -0.112918
vn 0.993604 0.000000 -0.112918
vn 0.993604 0.000000 -0.112918
vn 0.993604 0.000000 -0.112918
vn 0.000000 -0.996157 -0.087582
vn 0.000000 -0.996157 -0.087582
vn 0.000000 -0.996157 -0.087582
vn 0.999413 0.000000 -0.034263
vn 0.999413 0.000000 -0.034263
vn 0.999413 0.000000 -0.034263
vn 0.983763 -0.000001 -0.179471
vn 0.983763 -0.000001 -0.179471
vn 0.983763 -0.000001 -0.179471
vn 0.983763 -0.000001 -0.179471
vn 0.000000 -0.998709 -0.050801
vn 0.000000 -0.998709 -0.050801
vn 0.000000 -0.998709 -0.050801
vn 0.000000 -0.998709 -0.050801
vn 0.733030 -0.574344 -0.364412
vn 0.733030 -0.574344 -0.364412
vn 0.733030 -0.574344 -0.364412
vn 0.983763 0.000000 -0.179472
vn 0.983763 0.000000 -0.179472
vn 0.983763 0.000000 -0.179472
vn 0.000000 -0.998709 -0.050801
vn 0.000000 -0.998709 -0.050801
vn 0.000000 -0.998709 -0.050801
vn 0.999413 0.000000 -0.034263
vn 0.999413 0.000000 -0.034263
vn 0.999413 0.000000 -0.034263
vn 0.999413 0.000000 -0.034263
vn 0.000001 -0.996157 -0.087583
vn 0.000001 -0.996157 -0.087583
vn 0.000001 -0.996157 -0.087583
vn 0.000001 -0.996157 -0.087583
vn -0.993604 0.000000 0.112918
vn -0.993604 0.000000 0.112918
vn -0.993604 0.000000 0.112918
vn -0.993604 0.000000 0.112918
vn 0.000000 0.803408 0.595428
vn 0.000000 0.803408 0.595428
vn 0.000000 0.803408 0.595428
vn 0.000000 0.803408 0.595428
vn 0.993604 0.000000 0.112918
vn 0.993604 0.000000 0.112918
vn 0.993604 0.000000 0.112918
vn 0.993604 0.000000 0.112918
vn -0.993604 0.000000 0.112918
vn -0.993604 0.000000 0.112918
vn -0.993604 0.000000 0.112918
vn 0.000000 -1.000000 0.000000
vn 0.000000 -1.000000 0.000000
vn 0.000000 -1.000000 0.000000
vn 0.000000 -1.000000 0.000000
vn 1.000000 0.000000 0.000000
vn 1.000000 0.000000 0.000000
vn 1.000000 0.000000 0.000000
vn 1.000000 0.000000 0.000000
vn 0.000000 1.000000 -0.000001
vn 0.000000 1.000000 -0.000001
vn 0.000000 1.000000 -0.000001
vn 0.000000 1.000000 -0.000001
vn -1.000000 0.000000 -0.000000
vn -1.000000 0.000000 -0.000000
vn -1.000000 0.000000 -0.000000
vn -1.000000 0.000000 -0.000000
vn 0.000000 -0.039322 -0.999227
vn 0.000000 -0.039322 -0.999227
vn 0.000000 -0.039322 -0.999227
vn 0.000000 -0.039322 -0.999227
vn 0.000000 -0.039322 0.999227
vn 0.000000 -0.039322 0.999227
vn 0.000000 -0.039322 0.999227
vn 0.000000 -0.039322 0.999227
vn 0.967280 -0.024804 0.252495
vn 0.967280 -0.024804 0.252495
vn 0.967280 -0.024804 0.252495
vn 0.967280 -0.024804 0.252495
vn 0.038938 -0.050855 0.997947
vn 0.038938 -0.050855 0.997947
vn 0.038938 -0.050855 0.997947
vn 0.038938 -0.050855 0.997947
vn -0.986605 -0.030997 0.160159
vn -0.986605 -0.030997 0.160159
vn -0.986605 -0.030997 0.160159
vn -0.986605 -0.030997 0.160159
vn 0.978288 0.006706 0.207144
vn 0.978288 0.006706 0.207144
vn 0.978288 0.006706 0.207144
vn 0.978288 0.006706 0.207144
vn -0.041326 0.017247 0.998997
vn -0.041326 0.017247 0.998997
vn -0.041326 0.017247 0.998997
vn -0.041326 0.017247 0.998997
vn -0.991837 0.006621 0.127340
vn -0.991837 0.006621 0.127340
vn -0.991837 0.006621 0.127340
vn -0.991837 0.006621 0.127340
vn 0.988169 -0.022366 0.151732
vn 0.988169 -0.022366 0.151732
vn 0.988169 -0.022366 0.151732
vn 0.988169 -0.022366 0.151732
vn -0.074985 -0.136464 0.987803
vn -0.074985 -0.136464 0.987803
vn -0.074985 -0.136464 0.987803
vn -0.074985 -0.136464 0.987803
vn -0.989947 -0.000331 0.141439
vn -0.989947 -0.000331 0.141439
vn -0.989947 -0.000331 0.141439
vn -0.989947 -0.000331 0.141439
vn 0.991616 -0.027604 -0.126237
vn 0.991616 -0.027604 -0.126237
vn 0.991616 -0.027604 -0.126237
vn 0.991616 -0.027604 -0.126237
vn 0.046800 -0.035450 -0.998275
vn 0.046800 -0.035450 -0.998275
vn 0.046800 -0.035450 -0.998275
vn 0.046800 -0.035450 -0.998275
vn -0.976337 -0.015832 -0.215675
vn -0.976337 -0.015832 -0.215675
vn -0.976337 -0.015832 -0.215675
vn -0.976337 -0.015832 -0.215675
vn 0.992563 0.012513 -0.121089
vn 0.992563 0.012513 -0.121089
vn 0.992563 0.012513 -0.121089
vn 0.992563 0.012513 -0.121089
vn 0.116420 -0.001527 -0.993199
vn 0.116420 -0.001527 -0.993199
vn 0.116420 -0.001527 -0.993199
vn 0.116420 -0.001527 -0.993199
vn -0.975771 -0.007239 -0.218677
vn -0.975771 -0.007239 -0.218677
vn -0.975771 -0.007239 -0.218677
vn -0.975771 -0.007239 -0.218677
vn 0.984257 -0.021642 -0.175411
vn 0.984257 -0.021642 -0.175411
vn 0.984257 -0.021642 -0.175411
vn 0.984257 -0.021642 -0.175411
vn 0.074651 -0.136398 -0.987837
vn 0.074651 -0.136398 -0.987837
vn 0.074651 -0.136398 -0.987837
vn 0.074651 -0.136398 -0.987837
vn -0.984062 -0.010236 -0.177531
vn -0.984062 -0.010236 -0.177531
vn -0.984062 -0.010236 -0.177531
vn -0.984062 -0.010236 -0.177531
vn 0.000000 -0.952388 0.304890
vn 0.000000 -0.952388 0.304890
vn 0.000000 -0.952388 0.304890
vn 0.000000 -0.952388 0.304890
vn 0.000000 -0.952380 -0.304915
vn 0.000000 -0.952380 -0.304915
vn 0.000000 -0.952380 -0.304915
vn 0.000000 -0.952380 -0.304915
vn 0.000000 1.000000 0.000000
vn 0.000000 1.000000 0.000000
vn 0.000000 1.000000 0.000000
vn 0.000000 1.000000 0.000000
vn 0.000000 1.000000 0.000000
vn 0.000000 1.000000 0.000000
vn 0.000000 1.000000 0.000000
vn 0.000000 1.000000 0.000000
vn 0.000000 -0.000000 -1.000000
vn 0.000000 -0.000000 -1.000000
vn 0.000000 -0.000000 -1.000000
vn 0.000000 -0.000000 -1.000000
vn 0.000000 0.866025 -0.500000
vn 0.000000 0.866025 -0.500000
vn 0.000000 0.866025 -0.500000
vn 0.000000 0.866025 -0.500000
vn 0.000000 0.866026 0.500000
vn 0.000000 0.866026 0.500000
vn 0.000000 0.866026 0.500000
vn 0.000000 0.866026 0.500000
vn 0.000000 0.000000 1.000000
vn 0.000000 0.000000 1.000000
vn 0.000000 0.000000 1.000000
vn 0.000000 0.000000 1.000000
vn -0.000000 -0.866025 0.500000
vn -0.000000 -0.866025 0.500000
vn -0.000000 -0.866025 0.500000
vn -0.000000 -0.866025 0.500000
vn 0.000000 -0.866026 -0.500000
vn 0.000000 -0.866026 -0.500000
vn 0.000000 -0.866026 -0.500000
vn 0.000000 -0.866026 -0.500000
vn -1.000000 0.000000 0.000000
vn -1.000000 0.000000 0.000000
vn -1.000000 0.000000 0.000000
vn -1.000000 0.000000 0.000000
vn -1.000000 0.000000 0.000000
vn -1.000000 0.000000 0.000000
vn -1.000000 0.000000 0.000000
vn -1.000000 0.000000 0.000000
vn -1.000000 0.000000 0.000000
vn -1.000000 0.000000 0.000000
vn -1.000000 0.000000 0.000000
vn -1.000000 0.000000 0.000000
vn -1.000000 -0.000000 0.000000
vn -1.000000 -0.000000 0.000000
vn -1.000000 -0.000000 0.000000
vn -1.000000 -0.000000 0.000000
vn -1.000000 -0.000000 -0.000000
vn -1.000000 -0.000000 -0.000000
vn -1.000000 -0.000000 -0.000000
vn -1.000000 -0.000000 -0.000000
vn -1.000000 0.000000 -0.000000
vn -1.000000 0.000000 -0.000000
vn -1.000000 0.000000 -0.000000
vn -1.000000 0.000000 -0.000000
vn 1.000000 -0.000000 0.000000
vn 1.000000 -0.000000 0.000000
vn 1.000000 -0.000000 0.000000
vn 1.000000 -0.000000 0.000000
vn 1.000000 -0.000000 0.000000
vn 1.000000 -0.000000 0.000000
vn 1.000000 -0.000000 0.000000
vn 1.000000 -0.000000 0.000000
vn 1.000000 -0.000000 0.000000
vn 1.000000 -0.000000 0.000000
vn 1.000000 -0.000000 0.000000
vn 1.000000 -0.000000 0.000000
vn 1.000000 -0.000000 0.000000
vn 1.000000 -0.000000 0.000000
vn 1.000000 -0.000000 0.000000
vn 1.000000 -0.000000 0.000000
vn 1.000000 0.000000 0.000000
vn 1.000000 0.000000 0.000000
vn 1.000000 0.000000 0.000000
vn 1.000000 0.000000 0.000000
vn 1.000000 0.000000 0.000000
vn 1.000000 0.000000 0.000000
vn 1.000000 0.000000 0.000000
vn 1.000000 0.000000 0.000000
vn 0.000000 0.866025 0.500000
vn 0.000000 0.866025 0.500000
vn 0.000000 0.866025 0.500000
vn 0.000000 0.866025 0.500000
vn 0.000000 0.866025 -0.500000
vn 0.000000 0.866025 -0.500000
vn 0.000000 0.866025 -0.500000
vn 0.000000 0.866025 -0.500000
vn 0.000000 0.000000 -1.000000
vn 0.000000 0.000000 -1.000000
vn 0.000000 0.000000 -1.000000
vn 0.000000 0.000000 -1.000000
vn 0.000000 -0.866025 -0.500000
vn 0.000000 -0.866025 -0.500000
vn 0.000000 -0.866025 -0.500000
vn 0.000000 -0.866025 -0.500000
vn -0.000000 -0.866025 0.500001
vn -0.000000 -0.866025 0.500001
vn -0.000000 -0.866025 0.500001
vn -0.000000 -0.866025 0.500001
vn -0.000000 0.000000 1.000000
vn -0.000000 0.000000 1.000000
vn -0.000000 0.000000 1.000000
vn -0.000000 0.000000 1.000000
s off
f 14/1/1 11/2/2 9/3/3 10/4/4
f 13/5/5 14/1/6 10/4/7 7/6/8
f 12/7/9 13/5/10 7/6/11 8/8/12
f 11/2/13 12/7/14 8/8/15 9/3/16
f 2/9/17 6/10/18 5/11/19 4/12/20
f 30/28/21 32/33/22 1/27/23 3/29/24
f 7/6/25 19/13/26 20/14/27 8/8/28
f 9/3/29 8/8/30 20/14/31 21/15/32
f 28/24/33 27/23/34 29/25/35
f 15/16/36 16/31/37 12/7/38 11/2/39
f 16/31/40 17/26/41 13/5/42 12/7/43
f 17/26/44 18/17/45 14/1/46 13/5/47
f 18/17/48 15/16/49 11/2/50 14/1/51
f 33/30/52 31/32/53 17/26/54 16/31/55
f 31/32/56 18/17/57 17/26/58
f 1/27/59 15/16/60 18/17/61 3/29/62
f 20/14/63 19/13/64 22/18/65 23/19/66
f 21/15/67 20/14/68 23/19/69 24/20/70
f 23/19/71 22/18/72 5/11/73 6/10/74
f 24/20/75 23/19/76 6/10/77 2/9/78
f 25/21/79 24/20/80 2/9/81 4/12/82
f 22/18/83 25/21/84 4/12/85 5/11/86
f 27/23/87 24/20/88 25/21/89
f 22/18/90 27/23/91 25/21/92
f 7/6/93 26/22/94 29/25/95 19/13/96
f 26/22/97 9/3/98 21/15/99 28/24/100
f 28/24/101 29/25/102 26/22/103
f 7/6/104 10/4/105 26/22/106
f 10/4/107 9/3/108 26/22/109
f 19/13/110 29/25/111 27/23/112 22/18/113
f 27/23/114 28/24/115 21/15/116 24/20/117
f 32/33/118 33/30/119 15/16/120 1/27/121
f 30/28/122 31/32/123 33/30/124 32/33/125
f 3/29/126 18/17/127 31/32/128 30/28/129
f 15/16/130 33/30/131 16/31/132
f 34/34/133 35/35/134 37/36/135 36/37/136
f 36/37/137 37/36/138 39/38/139 38/39/140
f 38/39/141 39/38/142 41/40/143 40/41/144
f 40/41/145 41/40/146 35/35/147 34/34/148
f 35/35/149 41/40/150 39/38/151 37/36/152
f 40/41/153 34/34/154 36/37/155 38/39/156
f 44/42/157 43/43/158 47/44/159 48/45/160
f 45/46/161 44/42/162 48/45/163 49/47/164
f 42/48/165 45/46/166 49/47/167 46/49/168
f 48/45/169 47/44/170 51/50/171 52/51/172
f 49/47/173 48/45/174 52/51/175 53/52/176
f 46/49/177 49/47/178 53/52/179 50/53/180
f 52/51/181 51/50/182 55/54/183 56/55/184
f 53/52/185 52/51/186 56/55/187 57/56/188
f 50/53/189 53/52/190 57/56/191 54/57/192
f 58/58/193 60/59/194 47/44/195 43/43/196
f 59/60/197 61/61/198 60/59/199 58/58/200
f 42/48/201 46/49/202 61/61/203 59/60/204
f 51/50/205 47/44/206 60/59/207 62/62/208
f 60/59/209 61/61/210 63/63/211 62/62/212
f 61/61/213 46/49/214 50/53/215 63/63/216
f 62/62/217 64/64/218 55/54/219 51/50/220
f 63/63/221 65/65/222 64/64/223 62/62/224
f 50/53/225 54/57/226 65/65/227 63/63/228
f 43/43/229 42/48/230 59/60/231 58/58/232
f 44/42/233 45/46/234 42/48/235 43/43/236
f 56/55/237 55/54/238 54/57/239 57/56/240
f 55/54/241 64/64/242 65/65/243 54/57/244
f 66/66/245 67/67/246 73/68/247 72/69/248
f 67/67/249 68/70/250 74/71/251 73/68/252
f 68/70/253 69/72/254 75/73/255 74/71/256
f 69/72/257 70/74/258 76/75/259 75/73/260
f 70/74/261 71/76/262 77/77/263 76/75/264
f 71/76/265 66/66/266 72/69/267 77/77/268
f 66/66/269 71/76/270 78/78/271 79/79/272
f 71/76/273 70/74/274 80/80/275 78/78/276
f 70/74/277 69/72/278 81/81/279 80/80/280
f 69/72/281 68/70/282 82/82/283 81/81/284
f 68/70/285 67/67/286 83/83/287 82/82/288
f 67/67/289 66/66/290 79/79/291 83/83/292
f 72/69/293 73/68/294 85/84/295 84/85/296
f 73/68/297 74/71/298 86/86/299 85/84/300
f 74/71/301 75/73/302 87/87/303 86/86/304
f 75/73/305 76/75/306 88/88/307 87/87/308
f 76/75/309 77/77/310 89/89/311 88/88/312
f 77/77/313 72/69/314 84/85/315 89/89/316
f 79/79/317 78/78/318 89/89/319 84/85/320
f 78/78/321 80/80/322 88/88/323 89/89/324
f 80/80/325 81/81/326 87/87/327 88/88/328
f 81/81/329 82/82/330 86/86/331 87/87/332
f 82/82/333 83/83/334 85/84/335 86/86/336
f 83/83/337 79/79/338 84/85/339 85/84/340
