# This file uses centimeters as units for non-parametric coordinates.

v 0.000000 146.227005 0.000000
v 0.000000 137.832733 2.998093
v 0.000000 137.832733 -2.998032
v 0.000000 143.194992 2.058350
v 0.000001 143.194992 -2.058350
v -0.941577 24.898970 1.259371
v -0.941577 24.898970 -1.259371
v 0.941577 24.898970 -1.259371
v 0.941577 24.898970 1.259371
v 0.941663 51.455338 1.259369
v 0.941663 51.455338 -1.259369
v -0.941662 51.455334 -1.259369
v -0.941662 51.455334 1.259369
v -0.367056 142.484390 0.000000
v 0.367057 142.484390 0.000000
v 0.000000 132.883194 3.195587
v 0.668161 132.831635 1.259369
v 0.668161 132.831635 -1.259369
v 0.000000 132.883194 -3.195587
v -0.668161 132.831635 -1.259369
v -0.668161 132.831635 1.259369
v -0.668161 136.440460 0.000000
v 0.668161 136.440460 0.000000
v 0.333846 24.898970 -2.160238
v -0.333760 24.898970 -2.160238
v -0.333760 46.132805 -3.195583
v 0.000000 53.035835 -3.195583
v 0.333846 46.132809 -3.195583
v 0.333846 24.898970 2.160263
v -0.333760 24.898970 2.160263
v -0.333760 46.132805 3.195583
v 0.333846 46.132809 3.195583
v 0.000000 53.035835 3.195583
v 0.941585 27.432915 -1.259371
v 0.941585 27.432915 1.259371
v 0.333846 27.432911 3.195583
v -0.333760 27.432911 3.195583
v -0.941585 27.432911 1.259371
v -0.941585 27.432911 -1.259371
v -0.333760 27.432911 -3.195583
v 0.333846 27.432911 -3.195583
v 0.794007 95.388092 -1.259369
v 0.823150 86.716965 1.259369
v -0.789574 96.706924 -1.259369
v -0.818555 88.084213 1.259369
v 0.000000 81.124084 3.195587
v 0.000000 86.488815 3.195587
v 0.205787 82.245819 2.711517
v -0.204639 82.587631 2.711517
v 0.000000 96.556458 -3.195587
v 0.000000 103.967896 -3.195587
v -0.197393 101.199020 -2.711517
v 0.198502 100.869324 -2.711517
v -0.941614 36.530952 -0.845665
v -0.941621 38.567078 0.845665
v -0.333760 34.616989 -2.884867
v 0.333846 39.400555 2.947750
v 0.941611 35.450516 -0.911442
v 0.941618 37.486633 0.911442
v -0.333760 39.783558 3.195583
v 0.333846 34.233963 -3.195583
vt 0.091033 0.377336
vt 0.091048 0.377319
vt 0.091048 0.377328
vt 0.091034 0.377344
vt 0.091548 0.377566
vt 0.091550 0.377562
vt 0.091423 0.377477
vt 0.091403 0.377528
vt 0.091562 0.377549
vt 0.091553 0.377588
vt 0.091595 0.377585
vt 0.091041 0.377336
vt 0.091041 0.377328
vt 0.091128 0.299123
vt 0.091059 0.377311
vt 0.090777 0.377193
vt 0.090920 0.299121
vt 0.090759 0.377222
vt 0.091023 0.377354
vt 0.090745 0.377227
vt 0.090865 0.299105
vt 0.091124 0.299108
vt 0.090781 0.377204
vt 0.090908 0.299087
vt 0.091111 0.299089
vt 0.090755 0.377210
vt 0.091117 0.299095
vt 0.090788 0.377194
vt 0.090861 0.299092
vt 0.090748 0.377221
vt 0.090793 0.377189
vt 0.090787 0.377190
vt 0.090749 0.377225
vt 0.090919 0.299126
vt 0.091127 0.299129
vt 0.091120 0.299123
vt 0.090863 0.299120
vt 0.091110 0.299095
vt 0.090907 0.299092
vt 0.090859 0.299107
vt 0.091114 0.299110
vt 0.090162 0.299109
vt 0.090166 0.299096
vt 0.090161 0.299098
vt 0.090165 0.299085
vt 0.090128 0.299091
vt 0.090130 0.299102
vt 0.091099 0.299108
vt 0.091093 0.299094
vt 0.091087 0.299089
vt 0.091086 0.299095
vt 0.091089 0.299109
vt 0.091096 0.299123
vt 0.091102 0.299129
vt 0.091103 0.299123
vt 0.090485 0.299101
vt 0.090923 0.377261
vt 0.090876 0.377265
vt 0.090559 0.299089
vt 0.090473 0.299114
vt 0.090930 0.377273
vt 0.090883 0.377277
vt 0.090547 0.299102
vt 0.090794 0.377249
vt 0.090932 0.377312
vt 0.090859 0.377268
vt 0.090862 0.377274
vt 0.090875 0.377227
vt 0.091009 0.377288
vt 0.090944 0.377269
vt 0.090941 0.377263
vt 0.091008 0.299122
vt 0.090983 0.299108
vt 0.091032 0.299128
vt 0.090973 0.299088
vt 0.091021 0.299107
vt 0.090996 0.299093
vt 0.090968 0.299093
vt 0.091037 0.299122
vn 0.967425 0.042483 0.249569
vn 0.967425 0.042483 0.249569
vn 0.967425 0.042483 0.249569
vn 0.967425 0.042483 0.249569
vn -0.967425 0.042483 0.249569
vn -0.967425 0.042483 0.249569
vn -0.967425 0.042483 0.249569
vn -0.967425 0.042483 0.249569
vn 0.916234 -0.080195 -0.392535
vn 0.916234 -0.080195 -0.392535
vn 0.916234 -0.080195 -0.392535
vn 0.916234 -0.080195 -0.392535
vn 0.916235 -0.080192 0.392533
vn 0.916235 -0.080192 0.392533
vn 0.916235 -0.080192 0.392533
vn 0.916235 -0.080192 0.392533
vn -0.916213 -0.080204 -0.392583
vn -0.916213 -0.080204 -0.392583
vn -0.916213 -0.080204 -0.392583
vn -0.916213 -0.080204 -0.392583
vn -0.916215 -0.080202 0.392579
vn -0.916215 -0.080202 0.392579
vn -0.916215 -0.080202 0.392579
vn -0.916215 -0.080202 0.392579
vn -0.973751 0.095500 0.206614
vn -0.973751 0.095500 0.206614
vn -0.973751 0.095500 0.206614
vn -0.973751 0.095500 0.206614
vn 0.000000 0.000000 -1.000000
vn 0.000000 0.000000 -1.000000
vn 0.000000 0.000000 -1.000000
vn 0.985095 0.096613 -0.142314
vn 0.985095 0.096613 -0.142314
vn 0.985095 0.096613 -0.142314
vn 0.985095 0.096613 0.142314
vn 0.985095 0.096613 0.142314
vn 0.985095 0.096613 0.142314
vn -0.967424 0.042486 -0.249572
vn -0.967424 0.042486 -0.249572
vn -0.967424 0.042486 -0.249572
vn -0.967424 0.042486 -0.249572
vn -0.985095 0.096613 0.142314
vn -0.985095 0.096613 0.142314
vn -0.985095 0.096613 0.142314
vn -0.999994 0.003361 0.000000
vn -0.999994 0.003361 0.000000
vn -0.999994 0.003361 0.000000
vn -0.999994 0.003361 0.000000
vn -1.000000 -0.000003 -0.000000
vn -1.000000 -0.000003 -0.000000
vn -1.000000 -0.000003 -0.000000
vn -1.000000 -0.000003 -0.000000
vn 0.000000 -1.000000 -0.000000
vn 0.000000 -1.000000 -0.000000
vn 0.000000 -1.000000 -0.000000
vn 0.000000 -1.000000 -0.000000
vn 1.000000 -0.000003 0.000000
vn 1.000000 -0.000003 0.000000
vn 1.000000 -0.000003 0.000000
vn 1.000000 -0.000003 0.000000
vn 0.999994 0.003361 0.000000
vn 0.999994 0.003361 0.000000
vn 0.999994 0.003361 0.000000
vn 0.999994 0.003361 0.000000
vn 1.000000 0.000000 0.000000
vn 1.000000 0.000000 0.000000
vn 1.000000 0.000000 0.000000
vn -1.000000 0.000000 0.000000
vn -1.000000 0.000000 0.000000
vn -1.000000 0.000000 0.000000
vn 0.982071 0.041082 -0.183979
vn 0.982071 0.041082 -0.183979
vn 0.982071 0.041082 -0.183979
vn 0.982071 0.041082 -0.183979
vn 0.982072 0.041083 0.183977
vn 0.982072 0.041083 0.183977
vn 0.982072 0.041083 0.183977
vn 0.982072 0.041083 0.183977
vn 0.967424 0.042486 -0.249571
vn 0.967424 0.042486 -0.249571
vn 0.967424 0.042486 -0.249571
vn 0.967424 0.042486 -0.249571
vn -0.982072 0.041083 0.183976
vn -0.982072 0.041083 0.183976
vn -0.982072 0.041083 0.183976
vn -0.982072 0.041083 0.183976
vn -0.982071 0.041082 -0.183979
vn -0.982071 0.041082 -0.183979
vn -0.982071 0.041082 -0.183979
vn -0.982071 0.041082 -0.183979
vn 0.000000 -1.000000 0.000000
vn 0.000000 -1.000000 0.000000
vn 0.000000 -1.000000 0.000000
vn 0.000000 -1.000000 0.000000
vn -0.134369 -0.161349 -0.977707
vn -0.134369 -0.161349 -0.977707
vn -0.134369 -0.161349 -0.977707
vn 0.000000 -1.000000 0.000002
vn 0.000000 -1.000000 0.000002
vn 0.000000 -1.000000 0.000002
vn 0.000000 -1.000000 0.000002
vn 0.280275 0.336536 0.898994
vn 0.280275 0.336536 0.898994
vn 0.280275 0.336536 0.898994
vn 0.000000 -0.378236 -0.925709
vn 0.000000 -0.378236 -0.925709
vn 0.000000 -0.378236 -0.925709
vn 0.000000 -0.378236 -0.925709
vn 0.000000 -0.378228 0.925712
vn 0.000000 -0.378228 0.925712
vn 0.000000 -0.378228 0.925712
vn 0.000000 -0.378228 0.925712
vn 0.000001 0.000000 -1.000000
vn 0.000001 0.000000 -1.000000
vn 0.000001 0.000000 -1.000000
vn 0.000001 0.000000 1.000000
vn 0.000001 0.000000 1.000000
vn 0.000001 0.000000 1.000000
vn 0.912101 0.044111 -0.407586
vn 0.912101 0.044111 -0.407586
vn 0.912101 0.044111 -0.407586
vn -0.912098 0.044100 -0.407593
vn -0.912098 0.044100 -0.407593
vn -0.912098 0.044100 -0.407593
vn -0.912098 0.044100 0.407593
vn -0.912098 0.044100 0.407593
vn -0.912098 0.044100 0.407593
vn 0.912101 0.044111 0.407586
vn 0.912101 0.044111 0.407586
vn 0.912101 0.044111 0.407586
vn 1.000000 -0.000003 0.000000
vn 1.000000 -0.000003 0.000000
vn 1.000000 -0.000003 0.000000
vn 1.000000 -0.000003 0.000000
vn 0.958156 -0.008237 0.286128
vn 0.958156 -0.008237 0.286128
vn 0.958156 -0.008237 0.286128
vn 0.958156 -0.008237 0.286128
vn 0.185264 0.010014 0.982638
vn 0.185264 0.010014 0.982638
vn 0.185264 0.010014 0.982638
vn 0.185264 0.010014 0.982638
vn -0.962396 0.004783 0.271609
vn -0.962396 0.004783 0.271609
vn -0.962396 0.004783 0.271609
vn -0.962396 0.004783 0.271609
vn -1.000000 -0.000003 -0.000000
vn -1.000000 -0.000003 -0.000000
vn -1.000000 -0.000003 -0.000000
vn -1.000000 -0.000003 -0.000000
vn -0.960070 -0.007664 -0.279656
vn -0.960070 -0.007664 -0.279656
vn -0.960070 -0.007664 -0.279656
vn -0.960070 -0.007664 -0.279656
vn -0.220700 0.021664 -0.975101
vn -0.220700 0.021664 -0.975101
vn -0.220700 0.021664 -0.975101
vn -0.220700 0.021664 -0.975101
vn 0.960416 0.006537 -0.278494
vn 0.960416 0.006537 -0.278494
vn 0.960416 0.006537 -0.278494
vn 0.960416 0.006537 -0.278494
vn -0.999994 0.003361 0.000000
vn -0.999994 0.003361 0.000000
vn -0.999994 0.003361 0.000000
vn -0.999994 0.003361 0.000000
vn 0.999994 0.003361 0.000000
vn 0.999994 0.003361 0.000000
vn 0.999994 0.003361 0.000000
vn 0.999994 0.003361 0.000000
vn 0.916830 0.003081 0.399266
vn 0.916830 0.003081 0.399266
vn 0.916830 0.003081 0.399266
vn 0.916830 0.003081 0.399266
vn 0.916830 0.003081 0.399266
vn 0.916830 0.003081 0.399266
vn -0.916830 0.003081 0.399266
vn -0.916830 0.003081 0.399266
vn -0.916830 0.003081 0.399266
vn -0.916830 0.003081 0.399266
vn -0.916830 0.003081 0.399266
vn -0.916830 0.003081 0.399266
vn -0.097849 -0.117491 0.988242
vn -0.097849 -0.117491 0.988242
vn -0.097849 -0.117491 0.988242
vn 0.940891 0.000586 0.338710
vn 0.940891 0.000586 0.338710
vn 0.940891 0.000586 0.338710
vn 0.940891 0.000586 0.338710
vn 0.903647 0.000731 0.428278
vn 0.903647 0.000731 0.428278
vn 0.903647 0.000731 0.428278
vn 0.903647 0.000731 0.428278
vn -0.903773 0.000753 0.428011
vn -0.903773 0.000753 0.428011
vn -0.903773 0.000753 0.428011
vn -0.903773 0.000753 0.428011
vn -0.940999 0.000572 0.338408
vn -0.940999 0.000572 0.338408
vn -0.940999 0.000572 0.338408
vn -0.940999 0.000572 0.338408
vn -0.904522 0.000579 -0.426426
vn -0.904522 0.000579 -0.426426
vn -0.904522 0.000579 -0.426426
vn -0.904522 0.000579 -0.426426
vn -0.941869 0.000735 -0.335979
vn -0.941869 0.000735 -0.335979
vn -0.941869 0.000735 -0.335979
vn -0.941869 0.000735 -0.335979
vn 0.929303 0.003123 -0.369305
vn 0.929303 0.003123 -0.369305
vn 0.929303 0.003123 -0.369305
vn 0.929303 0.003123 -0.369305
vn 0.929303 0.003123 -0.369305
vn 0.929303 0.003123 -0.369305
vn 0.089143 0.107041 -0.990250
vn 0.089143 0.107041 -0.990250
vn 0.089143 0.107041 -0.990250
vn 0.904399 0.000565 -0.426688
vn 0.904399 0.000565 -0.426688
vn 0.904399 0.000565 -0.426688
vn 0.904399 0.000565 -0.426688
vn 0.941773 0.000755 -0.336250
vn 0.941773 0.000755 -0.336250
vn 0.941773 0.000755 -0.336250
vn 0.941773 0.000755 -0.336250
vn -0.929303 0.003123 -0.369305
vn -0.929303 0.003123 -0.369305
vn -0.929303 0.003123 -0.369305
vn -0.929303 0.003123 -0.369305
vn -0.929303 0.003123 -0.369305
vn -0.929303 0.003123 -0.369305
vn 1.000000 -0.000003 0.000000
vn 1.000000 -0.000003 0.000000
vn 1.000000 -0.000003 0.000000
vn 1.000000 -0.000003 0.000000
vn 0.957257 0.007821 0.289134
vn 0.957257 0.007821 0.289134
vn 0.957257 0.007821 0.289134
vn 0.957257 0.007821 0.289134
vn 0.177292 -0.018642 0.983982
vn 0.177292 -0.018642 0.983982
vn 0.177292 -0.018642 0.983982
vn 0.177292 -0.018642 0.983982
vn -0.963466 -0.005760 0.267769
vn -0.963466 -0.005760 0.267769
vn -0.963466 -0.005760 0.267769
vn -0.963466 -0.005760 0.267769
vn -1.000000 -0.000003 -0.000000
vn -1.000000 -0.000003 -0.000000
vn -1.000000 -0.000003 -0.000000
vn -1.000000 -0.000003 -0.000000
vn -0.954398 0.013268 -0.298242
vn -0.954398 0.013268 -0.298242
vn -0.954398 0.013268 -0.298242
vn -0.954398 0.013268 -0.298242
vn -0.230147 -0.012913 -0.973070
vn -0.230147 -0.012913 -0.973070
vn -0.230147 -0.012913 -0.973070
vn -0.230147 -0.012913 -0.973070
vn 0.962315 -0.003392 -0.271918
vn 0.962315 -0.003392 -0.271918
vn 0.962315 -0.003392 -0.271918
vn 0.962315 -0.003392 -0.271918
s off
f 2/8/1 16/19/2 17/1/3 23/13/4
f 21/4/5 16/19/6 2/8/7 22/12/8
f 24/14/9 41/55/10 34/48/11 8/22/12
f 36/50/13 29/25/14 9/27/15 35/49/16
f 40/54/17 25/35/18 7/36/19 39/53/20
f 30/38/21 37/51/22 38/52/23 6/41/24
f 1/11/25 5/9/26 14/5/27 15/6/28
f 14/5/29 1/11/30 15/6/31
f 5/9/32 1/11/33 15/6/34
f 1/11/35 4/10/36 15/6/37
f 20/3/38 22/12/39 3/7/40 19/15/41
f 4/10/42 1/11/43 14/5/44
f 20/42/45 44/60/46 45/63/47 21/43/48
f 39/53/49 7/36/50 6/41/51 38/52/52
f 7/36/53 8/22/54 9/27/55 6/41/56
f 8/22/57 34/48/58 35/49/59 9/27/60
f 11/21/61 42/56/62 43/59/63 10/29/64
f 17/45/65 18/44/66 23/46/67
f 21/43/68 22/47/69 20/42/70
f 23/13/71 3/7/72 5/9/73 15/6/74
f 2/8/75 23/13/76 15/6/77 4/10/78
f 3/7/79 23/13/80 18/2/81 19/15/82
f 22/12/83 2/8/84 4/10/85 14/5/86
f 3/7/87 22/12/88 14/5/89 5/9/90
f 25/35/91 24/14/92 8/22/93 7/36/94
f 53/71/95 52/70/96 51/69/97
f 29/25/98 30/38/99 6/41/100 9/27/101
f 49/67/102 46/64/103 48/66/104
f 24/14/105 25/35/106 40/54/107 41/55/108
f 30/38/109 29/25/110 36/50/111 37/51/112
f 26/28/113 27/31/114 28/32/115
f 31/33/116 32/30/117 33/20/118
f 28/32/119 27/31/120 11/16/121
f 12/23/122 27/31/123 26/28/124
f 31/33/125 33/20/126 13/18/127
f 10/26/128 33/20/129 32/30/130
f 34/48/131 58/76/132 59/77/133 35/49/134
f 32/24/135 57/75/136 59/77/137 10/29/138
f 37/51/139 36/50/140 57/75/141 60/78/142
f 38/52/143 37/51/144 60/78/145 55/73/146
f 12/37/147 54/72/148 55/73/149 13/40/150
f 26/34/151 56/74/152 54/72/153 12/37/154
f 41/55/155 40/54/156 56/74/157 61/79/158
f 34/48/159 41/55/160 61/79/161 58/76/162
f 45/63/163 44/60/164 12/37/165 13/40/166
f 43/59/167 42/56/168 18/44/169 17/45/170
f 43/58/171 48/66/172 10/26/173
f 17/1/174 48/66/175 43/58/176
f 45/62/177 49/67/178 21/4/179
f 13/18/180 49/67/181 45/62/182
f 49/67/183 48/66/184 47/65/185
f 17/1/186 16/19/187 47/65/188 48/66/189
f 10/26/190 48/66/191 46/64/192 33/20/193
f 13/18/194 33/20/195 46/64/196 49/67/197
f 21/4/198 49/67/199 47/65/200 16/19/201
f 12/23/202 52/70/203 50/68/204 27/31/205
f 20/3/206 19/15/207 51/69/208 52/70/209
f 42/57/210 53/71/211 18/2/212
f 11/16/213 53/71/214 42/57/215
f 53/71/216 50/68/217 52/70/218
f 11/16/219 27/31/220 50/68/221 53/71/222
f 18/2/223 53/71/224 51/69/225 19/15/226
f 44/61/227 52/70/228 12/23/229
f 20/3/230 52/70/231 44/61/232
f 59/77/233 58/76/234 11/21/235 10/29/236
f 59/77/237 57/75/238 36/50/239 35/49/240
f 60/78/241 57/75/242 32/24/243 31/39/244
f 55/73/245 60/78/246 31/39/247 13/40/248
f 55/73/249 54/72/250 39/53/251 38/52/252
f 54/72/253 56/74/254 40/54/255 39/53/256
f 61/79/257 56/74/258 26/34/259 28/17/260
f 58/76/261 61/79/262 28/17/263 11/21/264
