# This file uses centimeters as units for non-parametric coordinates.

v -0.000000 12.418470 3.285355
v 0.000000 12.418470 -3.285355
v -0.000000 54.392635 0.000000
v -0.000000 34.208820 3.233883
v 0.000000 34.208820 -3.233881
v 0.000000 47.416389 2.133987
v 0.000001 47.416389 -2.133987
v -1.043774 41.773075 0.000000
v 1.043775 41.773075 0.000000
v -1.140252 12.418470 -0.970067
v -1.140252 12.418470 0.970067
v 1.140252 12.418470 0.970067
v 1.140252 12.418470 -0.970067
v 1.132647 34.144855 0.970066
v 1.132647 34.144855 -0.970066
v -1.132648 34.144855 0.970066
v -1.132648 34.144855 -0.970066
v 0.000000 21.324701 -2.086676
v -1.136601 21.293989 -0.620804
v -1.136601 21.293989 0.620804
v -0.000000 21.324701 2.086676
v 1.136600 21.293989 0.620804
v 1.136601 21.293989 -0.620804
vt 0.090628 0.375214
vt 0.090489 0.375142
vt 0.090481 0.375161
vt 0.090612 0.375230
vt 0.090469 0.375193
vt 0.090619 0.375253
vt 0.090477 0.375169
vt 0.090614 0.375226
vt 0.090482 0.375158
vt 0.090476 0.375173
vt 0.090661 0.375250
vt 0.088583 0.355004
vt 0.088589 0.355052
vt 0.088864 0.355009
vt 0.088854 0.354962
vt 0.088335 0.355091
vt 0.088332 0.355043
vt 0.088324 0.355019
vt 0.088327 0.355068
vt 0.088584 0.355028
vt 0.088578 0.354980
vt 0.088852 0.354938
vt 0.088862 0.354985
vt 0.089711 0.374789
vt 0.089700 0.374791
vt 0.089704 0.374799
vt 0.089661 0.374820
vt 0.089673 0.374818
vt 0.089669 0.374810
vt 0.090076 0.374967
vt 0.090084 0.374959
vt 0.090049 0.374999
vt 0.090057 0.374984
vt 0.090077 0.374973
vt 0.090059 0.374987
vt 0.089324 0.354890
vt 0.089321 0.354913
vn -0.916647 0.043384 -0.397337
vn -0.916647 0.043384 -0.397337
vn -0.916647 0.043384 -0.397337
vn -0.916647 0.043384 -0.397337
vn -0.916647 0.043384 0.397336
vn -0.916647 0.043384 0.397336
vn -0.916647 0.043384 0.397336
vn -0.916647 0.043384 0.397336
vn 0.916647 0.043384 -0.397337
vn 0.916647 0.043384 -0.397337
vn 0.916647 0.043384 -0.397337
vn 0.916647 0.043384 -0.397337
vn 0.916647 0.043384 0.397336
vn 0.916647 0.043384 0.397336
vn 0.916647 0.043384 0.397336
vn 0.916647 0.043384 0.397336
vn -0.814358 0.067356 0.576441
vn -0.814358 0.067356 0.576441
vn -0.814358 0.067356 0.576441
vn -0.814358 0.067356 0.576441
vn 0.000000 0.000000 -1.000000
vn 0.000000 0.000000 -1.000000
vn 0.000000 0.000000 -1.000000
vn 0.962272 0.079590 -0.260189
vn 0.962272 0.079590 -0.260189
vn 0.962272 0.079590 -0.260189
vn 0.962272 0.079590 0.260190
vn 0.962272 0.079590 0.260190
vn 0.962272 0.079590 0.260190
vn -0.962272 0.079590 0.260190
vn -0.962272 0.079590 0.260190
vn -0.962272 0.079590 0.260190
vn -1.000000 0.000308 0.000000
vn -1.000000 0.000308 0.000000
vn -1.000000 0.000308 0.000000
vn -1.000000 0.000308 0.000000
vn 0.000000 -1.000000 0.000000
vn 0.000000 -1.000000 0.000000
vn 0.000000 -1.000000 0.000000
vn 0.000000 -1.000000 0.000000
vn 1.000000 0.000308 0.000000
vn 1.000000 0.000308 0.000000
vn 1.000000 0.000308 0.000000
vn 1.000000 0.000308 0.000000
vn 0.000000 -1.000000 0.000000
vn 0.000000 -1.000000 0.000000
vn 0.000000 -1.000000 0.000000
vn 0.000000 -1.000000 -0.000000
vn 0.000000 -1.000000 -0.000000
vn 0.000000 -1.000000 -0.000000
vn 0.853573 -0.030112 -0.520103
vn 0.853573 -0.030112 -0.520103
vn 0.853573 -0.030112 -0.520103
vn 0.853573 -0.030112 -0.520103
vn 0.853573 -0.030112 0.520102
vn 0.853573 -0.030112 0.520102
vn 0.853573 -0.030112 0.520102
vn 0.853573 -0.030112 0.520102
vn -0.853573 -0.030112 -0.520103
vn -0.853573 -0.030112 -0.520103
vn -0.853573 -0.030112 -0.520103
vn -0.853573 -0.030112 -0.520103
vn -0.853573 -0.030112 0.520102
vn -0.853573 -0.030112 0.520102
vn -0.853573 -0.030112 0.520102
vn -0.853573 -0.030112 0.520102
vn 0.999932 0.011650 0.000000
vn 0.999932 0.011650 0.000000
vn 0.999932 0.011650 0.000000
vn -0.999932 0.011650 0.000000
vn -0.999932 0.011650 0.000000
vn -0.999932 0.011650 0.000000
vn -0.855970 0.045013 -0.515063
vn -0.855970 0.045013 -0.515063
vn -0.855970 0.045013 -0.515063
vn -0.855970 0.045013 -0.515063
vn -1.000000 0.000411 -0.000000
vn -1.000000 0.000411 -0.000000
vn -1.000000 0.000411 -0.000000
vn -1.000000 0.000411 -0.000000
vn -0.855970 0.045013 0.515063
vn -0.855970 0.045013 0.515063
vn -0.855970 0.045013 0.515063
vn -0.855970 0.045013 0.515063
vn 0.855970 0.045013 0.515063
vn 0.855970 0.045013 0.515063
vn 0.855970 0.045013 0.515063
vn 0.855970 0.045013 0.515063
vn 1.000000 0.000411 0.000000
vn 1.000000 0.000411 0.000000
vn 1.000000 0.000411 0.000000
vn 1.000000 0.000411 0.000000
vn 0.855970 0.045013 -0.515063
vn 0.855970 0.045013 -0.515063
vn 0.855970 0.045013 -0.515063
vn 0.855970 0.045013 -0.515063
s off
f 7/1/1 5/2/2 17/3/3 8/4/4
f 4/5/5 6/6/6 8/4/7 16/7/8
f 5/2/9 7/1/10 9/8/11 15/9/12
f 6/6/13 4/5/14 14/10/15 9/8/16
f 3/11/17 7/1/18 8/4/19 9/8/20
f 8/4/21 3/11/22 9/8/23
f 7/1/24 3/11/25 9/8/26
f 3/11/27 6/6/28 9/8/29
f 6/6/30 3/11/31 8/4/32
f 19/12/33 20/13/34 16/14/35 17/15/36
f 11/16/37 10/17/38 13/18/39 12/19/40
f 22/20/41 23/21/42 15/22/43 14/23/44
f 2/24/45 13/25/46 10/26/47
f 1/27/48 11/28/49 12/29/50
f 5/2/51 15/9/52 23/30/53 18/31/54
f 21/32/55 22/33/56 14/10/57 4/5/58
f 18/31/59 19/34/60 17/3/61 5/2/62
f 20/35/63 21/32/64 4/5/65 16/7/66
f 9/36/67 14/23/68 15/22/69
f 16/14/70 8/37/71 17/15/72
f 10/26/73 19/34/74 18/31/75 2/24/76
f 10/17/77 11/16/78 20/13/79 19/12/80
f 1/27/81 21/32/82 20/35/83 11/28/84
f 12/29/85 22/33/86 21/32/87 1/27/88
f 12/19/89 13/18/90 23/21/91 22/20/92
f 18/31/93 23/30/94 13/25/95 2/24/96
