# This file uses centimeters as units for non-parametric coordinates.

v -1.918745 -21.094477 -0.000216
v -0.959587 -21.094528 -1.661575
v 0.959373 -21.094528 -1.661575
v 1.918745 -21.094477 -0.000214
v 0.959373 -21.094421 1.661469
v -0.959373 -21.094421 1.661469
v -1.012373 -23.878151 -0.000214
v -0.506401 -23.877991 -0.876654
v 0.505972 -23.877991 -0.876654
v 1.012588 -23.877937 -0.000214
v 0.506186 -23.878098 0.876760
v -0.506186 -23.878098 0.876760
v -2.126455 -16.382343 -0.000216
v -1.063228 -15.999593 -1.841605
v 1.063013 -16.382397 -1.841604
v 2.126455 -15.999538 -0.000215
v 1.063013 -16.382504 1.841497
v -1.063442 -15.999699 1.841497
v -2.678990 -15.414173 -0.000215
v -1.339602 -15.031423 -2.320111
v 1.339388 -15.414011 -2.320110
v 2.678990 -15.031369 -0.000215
v 1.339388 -15.414120 2.320004
v -1.339602 -15.031314 2.320004
v -2.678990 13.930911 -0.000215
v -1.339602 14.283408 -2.320111
v 1.339388 13.930857 -2.320110
v 2.678990 14.283460 -0.000215
v 1.339388 13.930750 2.320004
v -1.339602 14.283514 2.320004
v -2.124310 15.043705 -0.000215
v -1.062155 15.396204 -1.839674
v 1.062155 15.043652 -1.839673
v 2.124524 15.396255 -0.000215
v 1.062155 15.043545 1.839781
v -1.062369 15.396310 1.839781
v -2.307129 149.937988 -0.000214
v -1.153779 149.937836 -1.998138
v 1.153564 149.937836 -1.998138
v 2.307343 149.937790 -0.000214
v 1.153564 149.937729 1.998138
v -1.153564 149.937958 1.998138
v 0.000000 -23.878151 -0.000214
v -2.143192 9.866613 -0.000215
v -1.071596 10.160744 -1.856411
v 1.071596 9.866560 -1.856410
v 2.143407 10.160799 -0.000215
v 1.071596 9.866452 1.855874
v -1.071811 10.160637 1.855874
v 3.603303 150.356369 -0.000336
v -3.603089 150.356644 -0.000336
v -1.801574 150.356598 3.120483
v 1.801455 150.356293 3.120483
v -1.801909 150.356445 -3.120483
v 1.801454 150.356445 -3.120483
v 3.467282 152.815735 -0.000320
v 1.733453 152.815811 -3.002686
v -1.733883 152.815811 -3.002686
v -3.467067 152.815994 -0.000320
v -1.733560 152.815964 3.002686
v 1.733453 152.815659 3.002686
v 2.292557 153.835114 -0.000214
v 1.146173 153.835052 1.985336
v -1.146171 153.835297 1.985336
v -2.292342 153.835327 -0.000214
v -1.146384 153.835159 -1.985336
v 1.146173 153.835159 -1.985336
v 3.167652 155.052795 -0.000259
v 2.577127 155.052719 2.410751
v -2.577373 155.053024 2.410751
v -3.167434 155.053055 -0.000259
v -2.577852 155.052856 -2.410751
v 2.577127 155.052856 -2.410751
v 3.693927 158.846481 2.355927
v -3.694172 158.846634 2.355927
v -3.693110 158.846512 -2.354965
v 3.692382 158.846512 -2.354965
v -6.380749 188.349457 -0.000046
v -5.854002 188.978149 -0.000046
v 7.577127 155.052856 -2.410751
v 6.342167 191.046021 -0.000046
v 5.882408 191.018921 -0.000046
v 4.017093 163.616653 -2.005814
v 4.669576 173.201904 -1.304199
v 4.344217 168.417953 -0.764343
v 5.902170 166.890182 -1.677170
v -6.811758 178.081863 0.868286
v -6.833799 177.424286 -0.912399
v -4.955032 177.628143 0.980560
v -5.294219 176.862854 -1.036240
v -7.249979 164.911011 -1.750488
v -4.900444 167.011719 1.757996
v -4.845158 166.200272 -1.816696
v -7.382184 160.924088 2.017517
v -7.037657 171.287064 1.323410
v -7.234857 165.360184 0.144958
v -6.177566 166.305496 1.723770
v 5.285153 155.052719 2.410751
v 7.577127 155.052750 0.393478
v 7.268387 164.051041 1.808060
v 5.920601 156.671097 2.387360
v 5.761133 155.052750 1.417801
v -6.077523 155.053024 2.410751
v -7.538101 156.234283 2.331635
v -7.538565 156.234100 -2.331635
v -6.395958 155.052856 -2.410751
v 7.187252 166.415817 -1.213837
vt 0.005536 0.303527
vt 0.005537 0.303500
vt 0.005528 0.303501
vt 0.005531 0.303528
vt 0.005531 0.303529
vt 0.005528 0.303503
vt 0.005535 0.303529
vt 0.005536 0.303504
vt 0.005540 0.303529
vt 0.005544 0.303503
vt 0.005540 0.303528
vt 0.005544 0.303502
vt 0.005537 0.303491
vt 0.005528 0.303490
vt 0.005527 0.303493
vt 0.005536 0.303493
vt 0.005545 0.303494
vt 0.005545 0.303490
vt 0.106905 0.179475
vt 0.106963 0.179486
vt 0.106965 0.179454
vt 0.106891 0.179443
vt 0.106900 0.179492
vt 0.106885 0.179461
vt 0.106956 0.179483
vt 0.106956 0.179453
vt 0.107015 0.179494
vt 0.107031 0.179464
vt 0.107019 0.179477
vt 0.107035 0.179446
vt 0.106987 0.178671
vt 0.106928 0.178659
vt 0.106924 0.178665
vt 0.106979 0.178656
vt 0.107038 0.178668
vt 0.107042 0.178662
vt 0.106919 0.178534
vt 0.106991 0.178548
vt 0.106991 0.178514
vt 0.106934 0.178500
vt 0.106913 0.178539
vt 0.106929 0.178506
vt 0.106982 0.178527
vt 0.106984 0.178494
vt 0.107056 0.178542
vt 0.107042 0.178508
vt 0.107060 0.178537
vt 0.107045 0.178502
vt 0.005532 0.303340
vt 0.005541 0.303342
vt 0.005558 0.302697
vt 0.005548 0.302696
vt 0.005531 0.303343
vt 0.005547 0.302695
vt 0.005540 0.303343
vt 0.005557 0.302694
vt 0.005549 0.303344
vt 0.005567 0.302695
vt 0.005549 0.303341
vt 0.005567 0.302697
vt 0.005535 0.303528
vt 0.090446 0.298868
vt 0.090547 0.298798
vt 0.090564 0.298784
vt 0.090433 0.298875
vt 0.090559 0.298717
vt 0.090579 0.298679
vt 0.090468 0.298707
vt 0.090460 0.298665
vt 0.090364 0.298779
vt 0.090355 0.298859
vt 0.090314 0.298864
vt 0.090326 0.298759
vt 0.090406 0.298584
vt 0.090278 0.298674
vt 0.090267 0.298775
vt 0.090381 0.298786
vt 0.090506 0.298699
vt 0.090520 0.298598
vt 0.090383 0.298551
vt 0.090495 0.298565
vt 0.090481 0.298664
vt 0.090359 0.298749
vt 0.090248 0.298738
vt 0.090258 0.298639
vt 0.090357 0.298511
vt 0.090466 0.298525
vt 0.090234 0.298596
vt 0.089918 0.297963
vt 0.089921 0.297892
vt 0.090466 0.298525
vt 0.090234 0.298596
vt 0.089921 0.297892
vt 0.089918 0.297963
vt 0.090234 0.298596
vt 0.090188 0.298492
vt 0.090095 0.298283
vt 0.090185 0.298373
vt 0.090141 0.298387
vt 0.090111 0.298200
vt 0.090034 0.298239
vt 0.090141 0.298237
vt 0.090053 0.298284
vt 0.090317 0.298454
vt 0.090154 0.298526
vt 0.090202 0.298313
vt 0.090306 0.298440
vt 0.090466 0.298525
vt 0.090350 0.298560
vt 0.090193 0.298209
vt 0.090466 0.298525
vt 0.090411 0.298518
vt 0.090453 0.298622
vt 0.090453 0.298622
vt 0.090373 0.298524
vt 0.090141 0.298493
vt 0.090224 0.298693
vt 0.090224 0.298693
vt 0.090334 0.298705
vt 0.090217 0.298460
vt 0.090452 0.298625
vt 0.090213 0.298667
vt 0.090436 0.298601
vt 0.090222 0.298693
vt 0.090135 0.298374
vn -0.833524 -0.271405 -0.481224
vn -0.833524 -0.271405 -0.481224
vn -0.833524 -0.271405 -0.481224
vn -0.833524 -0.271405 -0.481224
vn 0.000000 -0.271410 -0.962464
vn 0.000000 -0.271410 -0.962464
vn 0.000000 -0.271410 -0.962464
vn 0.000000 -0.271410 -0.962464
vn 0.833410 -0.271415 -0.481417
vn 0.833410 -0.271415 -0.481417
vn 0.833410 -0.271415 -0.481417
vn 0.833410 -0.271415 -0.481417
vn 0.833525 -0.271358 0.481250
vn 0.833525 -0.271358 0.481250
vn 0.833525 -0.271358 0.481250
vn 0.833525 -0.271358 0.481250
vn 0.000000 -0.271322 0.962489
vn 0.000000 -0.271322 0.962489
vn 0.000000 -0.271322 0.962489
vn 0.000000 -0.271322 0.962489
vn -0.833540 -0.271378 0.481212
vn -0.833540 -0.271378 0.481212
vn -0.833540 -0.271378 0.481212
vn -0.833540 -0.271378 0.481212
vn -0.863697 -0.036648 -0.502678
vn -0.863697 -0.036648 -0.502678
vn -0.863697 -0.036648 -0.502678
vn -0.863697 -0.036648 -0.502678
vn -0.003472 -0.036689 -0.999321
vn -0.003472 -0.036689 -0.999321
vn -0.003472 -0.036689 -0.999321
vn -0.003472 -0.036689 -0.999321
vn 0.867120 -0.036648 -0.496750
vn 0.867120 -0.036648 -0.496750
vn 0.867120 -0.036648 -0.496750
vn 0.867120 -0.036648 -0.496750
vn 0.867159 -0.036649 0.496681
vn 0.867159 -0.036649 0.496681
vn 0.867159 -0.036649 0.496681
vn 0.867159 -0.036649 0.496681
vn -0.003472 -0.036691 0.999321
vn -0.003472 -0.036691 0.999321
vn -0.003472 -0.036691 0.999321
vn -0.003472 -0.036691 0.999321
vn -0.863734 -0.036687 0.502610
vn -0.863734 -0.036687 0.502610
vn -0.863734 -0.036687 0.502610
vn -0.863734 -0.036687 0.502610
vn -0.739219 -0.442010 -0.508116
vn -0.739219 -0.442010 -0.508116
vn -0.739219 -0.442010 -0.508116
vn -0.739219 -0.442010 -0.508116
vn -0.070393 -0.441937 -0.894280
vn -0.070393 -0.441937 -0.894280
vn -0.070393 -0.441937 -0.894280
vn -0.070393 -0.441937 -0.894280
vn 0.809618 -0.441978 -0.386230
vn 0.809618 -0.441978 -0.386230
vn 0.809618 -0.441978 -0.386230
vn 0.809618 -0.441978 -0.386230
vn 0.809650 -0.441976 0.386167
vn 0.809650 -0.441976 0.386167
vn 0.809650 -0.441976 0.386167
vn 0.809650 -0.441976 0.386167
vn -0.070403 -0.441892 0.894302
vn -0.070403 -0.441892 0.894302
vn -0.070403 -0.441892 0.894302
vn -0.070403 -0.441892 0.894302
vn -0.739329 -0.441909 0.508045
vn -0.739329 -0.441909 0.508045
vn -0.739329 -0.441909 0.508045
vn -0.739329 -0.441909 0.508045
vn -0.867174 0.018382 -0.497666
vn -0.867174 0.018382 -0.497666
vn -0.867174 0.018382 -0.497666
vn -0.867174 0.018382 -0.497666
vn 0.002579 0.018371 -0.999828
vn 0.002579 0.018371 -0.999828
vn 0.002579 0.018371 -0.999828
vn 0.002579 0.018371 -0.999828
vn 0.864556 0.018375 -0.502201
vn 0.864556 0.018375 -0.502201
vn 0.864556 0.018375 -0.502201
vn 0.864556 0.018375 -0.502201
vn 0.864566 0.018379 0.502183
vn 0.864566 0.018379 0.502183
vn 0.864566 0.018379 0.502183
vn 0.864566 0.018379 0.502183
vn 0.002581 0.018388 0.999828
vn 0.002581 0.018388 0.999828
vn 0.002581 0.018388 0.999828
vn 0.002581 0.018388 0.999828
vn -0.867204 0.018383 0.497613
vn -0.867204 0.018383 0.497613
vn -0.867204 0.018383 0.497613
vn -0.867204 0.018383 0.497613
vn -0.822779 0.395702 -0.407989
vn -0.822779 0.395702 -0.407989
vn -0.822779 0.395702 -0.407989
vn -0.822779 0.395702 -0.407989
vn 0.058088 0.395701 -0.916541
vn 0.058088 0.395701 -0.916541
vn 0.058088 0.395701 -0.916541
vn 0.058088 0.395701 -0.916541
vn 0.764703 0.395576 -0.508674
vn 0.764703 0.395576 -0.508674
vn 0.764703 0.395576 -0.508674
vn 0.764703 0.395576 -0.508674
vn 0.764762 0.395536 0.508617
vn 0.764762 0.395536 0.508617
vn 0.764762 0.395536 0.508617
vn 0.764762 0.395536 0.508617
vn 0.058098 0.395556 0.916602
vn 0.058098 0.395556 0.916602
vn 0.058098 0.395556 0.916602
vn 0.058098 0.395556 0.916602
vn -0.822867 0.395600 0.407910
vn -0.822867 0.395600 0.407910
vn -0.822867 0.395600 0.407910
vn -0.822867 0.395600 0.407910
vn -0.865979 -0.001176 -0.500079
vn -0.865979 -0.001176 -0.500079
vn -0.865979 -0.001176 -0.500079
vn -0.865979 -0.001176 -0.500079
vn -0.000093 -0.001176 -0.999999
vn -0.000093 -0.001176 -0.999999
vn -0.000093 -0.001176 -0.999999
vn -0.000093 -0.001176 -0.999999
vn 0.866010 -0.001175 -0.500026
vn 0.866010 -0.001175 -0.500026
vn 0.866010 -0.001175 -0.500026
vn 0.866010 -0.001175 -0.500026
vn 0.866064 -0.001175 0.499932
vn 0.866064 -0.001175 0.499932
vn 0.866064 -0.001175 0.499932
vn 0.866064 -0.001175 0.499932
vn -0.000094 -0.001175 0.999999
vn -0.000094 -0.001175 0.999999
vn -0.000094 -0.001175 0.999999
vn -0.000094 -0.001175 0.999999
vn -0.866033 -0.001175 0.499985
vn -0.866033 -0.001175 0.499985
vn -0.866033 -0.001175 0.499985
vn -0.866033 -0.001175 0.499985
vn 0.000000 -1.000000 -0.000185
vn 0.000000 -1.000000 -0.000185
vn 0.000000 -1.000000 -0.000185
vn 0.000000 -1.000000 -0.000181
vn 0.000000 -1.000000 -0.000181
vn 0.000000 -1.000000 -0.000181
vn 0.000211 -1.000000 -0.000062
vn 0.000211 -1.000000 -0.000062
vn 0.000211 -1.000000 -0.000062
vn 0.000211 -1.000000 -0.000060
vn 0.000211 -1.000000 -0.000060
vn 0.000211 -1.000000 -0.000060
vn 0.000000 -1.000000 0.000060
vn 0.000000 -1.000000 0.000060
vn 0.000000 -1.000000 0.000060
vn 0.000000 -1.000000 0.000064
vn 0.000000 -1.000000 0.000064
vn 0.000000 -1.000000 0.000064
vn -0.852875 -0.112612 -0.509827
vn -0.852875 -0.112612 -0.509827
vn -0.852875 -0.112612 -0.509827
vn -0.852875 -0.112612 -0.509827
vn -0.015094 -0.112545 -0.993532
vn -0.015094 -0.112545 -0.993532
vn -0.015094 -0.112545 -0.993532
vn -0.015094 -0.112545 -0.993532
vn 0.867941 -0.112569 -0.483742
vn 0.867941 -0.112569 -0.483742
vn 0.867941 -0.112569 -0.483742
vn 0.867941 -0.112569 -0.483742
vn 0.867953 -0.112594 0.483714
vn 0.867953 -0.112594 0.483714
vn 0.867953 -0.112594 0.483714
vn 0.867953 -0.112594 0.483714
vn -0.015112 -0.112645 0.993520
vn -0.015112 -0.112645 0.993520
vn -0.015112 -0.112645 0.993520
vn -0.015112 -0.112645 0.993520
vn -0.852905 -0.112614 0.509775
vn -0.852905 -0.112614 0.509775
vn -0.852905 -0.112614 0.509775
vn -0.852905 -0.112614 0.509775
vn -0.302691 -0.936936 0.174725
vn -0.302691 -0.936936 0.174725
vn -0.302691 -0.936936 0.174725
vn -0.302691 -0.936936 0.174725
vn -0.000085 -0.936948 0.349469
vn -0.000085 -0.936948 0.349469
vn -0.000085 -0.936948 0.349469
vn -0.000085 -0.936948 0.349469
vn 0.302646 -0.936954 0.174704
vn 0.302646 -0.936954 0.174704
vn 0.302646 -0.936954 0.174704
vn 0.302646 -0.936954 0.174704
vn 0.000000 -0.936952 -0.349457
vn 0.000000 -0.936952 -0.349457
vn 0.000000 -0.936952 -0.349457
vn 0.000000 -0.936952 -0.349457
vn -0.302674 -0.936954 -0.174658
vn -0.302674 -0.936954 -0.174658
vn -0.302674 -0.936954 -0.174658
vn -0.302674 -0.936954 -0.174658
vn 0.302609 -0.936952 -0.174785
vn 0.302609 -0.936952 -0.174785
vn 0.302609 -0.936952 -0.174785
vn 0.302609 -0.936952 -0.174785
vn -0.612995 0.706410 0.353867
vn -0.612995 0.706410 0.353867
vn -0.612995 0.706410 0.353867
vn -0.612995 0.706410 0.353867
vn 0.000067 0.706408 0.707805
vn 0.000067 0.706408 0.707805
vn 0.000067 0.706408 0.707805
vn 0.000067 0.706408 0.707805
vn 0.612993 0.706376 0.353938
vn 0.612993 0.706376 0.353938
vn 0.612993 0.706376 0.353938
vn 0.612993 0.706376 0.353938
vn 0.000000 0.706413 -0.707800
vn 0.000000 0.706413 -0.707800
vn 0.000000 0.706413 -0.707800
vn 0.000000 0.706413 -0.707800
vn -0.612947 0.706444 -0.353884
vn -0.612947 0.706444 -0.353884
vn -0.612947 0.706444 -0.353884
vn -0.612947 0.706444 -0.353884
vn 0.612953 0.706402 -0.353956
vn 0.612953 0.706402 -0.353956
vn 0.612953 0.706402 -0.353956
vn 0.612953 0.706402 -0.353956
vn 0.864983 0.047843 -0.499515
vn 0.864983 0.047843 -0.499515
vn 0.864983 0.047843 -0.499515
vn 0.864983 0.047843 -0.499515
vn 0.000000 0.047843 -0.998855
vn 0.000000 0.047843 -0.998855
vn 0.000000 0.047843 -0.998855
vn 0.000000 0.047843 -0.998855
vn -0.865060 0.047847 -0.499381
vn -0.865060 0.047847 -0.499381
vn -0.865060 0.047847 -0.499381
vn -0.865060 0.047847 -0.499381
vn -0.865069 0.047842 0.499366
vn -0.865069 0.047842 0.499366
vn -0.865069 0.047842 0.499366
vn -0.865069 0.047842 0.499366
vn 0.000004 0.047843 0.998855
vn 0.000004 0.047843 0.998855
vn 0.000004 0.047843 0.998855
vn 0.000004 0.047843 0.998855
vn 0.865026 0.047840 0.499440
vn 0.865026 0.047840 0.499440
vn 0.865026 0.047840 0.499440
vn 0.865026 0.047840 0.499440
vn 0.676030 -0.686782 0.267048
vn 0.676030 -0.686782 0.267048
vn 0.676030 -0.686782 0.267048
vn 0.676030 -0.686782 0.267048
vn -0.000024 -0.329811 0.944047
vn -0.000024 -0.329811 0.944047
vn -0.000024 -0.329811 0.944047
vn -0.000024 -0.329811 0.944047
vn -0.676036 -0.686810 0.266959
vn -0.676036 -0.686810 0.266959
vn -0.676036 -0.686810 0.266959
vn -0.676036 -0.686810 0.266959
vn -0.676019 -0.686868 -0.266852
vn -0.676019 -0.686868 -0.266852
vn -0.676019 -0.686868 -0.266852
vn -0.676019 -0.686868 -0.266852
vn 0.000000 -0.329809 -0.944048
vn 0.000000 -0.329809 -0.944048
vn 0.000000 -0.329809 -0.944048
vn 0.000000 -0.329809 -0.944048
vn 0.676005 -0.686775 -0.267130
vn 0.676005 -0.686775 -0.267130
vn 0.676005 -0.686775 -0.267130
vn 0.676005 -0.686775 -0.267130
vn -0.801451 -0.090867 0.591118
vn -0.801451 -0.090867 0.591118
vn -0.801451 -0.090867 0.591118
vn 0.000000 0.014450 0.999896
vn 0.000000 0.014450 0.999896
vn 0.000000 0.014450 0.999896
vn 0.000000 0.014450 0.999896
vn 0.000000 0.014704 -0.999892
vn 0.000000 0.014704 -0.999892
vn 0.000000 0.014704 -0.999892
vn 0.000000 0.014704 -0.999892
vn -0.055820 0.066559 -0.996220
vn -0.055820 0.066559 -0.996220
vn -0.055820 0.066559 -0.996220
vn -0.055820 0.066559 -0.996220
vn -0.053036 0.083959 0.995057
vn -0.053036 0.083959 0.995057
vn -0.053036 0.083959 0.995057
vn -0.053036 0.083959 0.995057
vn 0.372759 0.109846 -0.921404
vn 0.372759 0.109846 -0.921404
vn 0.372759 0.109846 -0.921404
vn 0.000010 1.000000 -0.000010
vn 0.000010 1.000000 -0.000010
vn 0.000010 1.000000 -0.000010
vn 0.000010 1.000000 -0.000010
vn -0.997693 0.067891 0.000328
vn -0.997693 0.067891 0.000328
vn -0.997693 0.067891 0.000328
vn -0.997693 0.067891 0.000328
vn 0.988623 0.150205 -0.007989
vn 0.988623 0.150205 -0.007989
vn 0.988623 0.150205 -0.007989
vn 0.988623 0.150205 -0.007989
vn 0.000037 -1.000000 0.000037
vn 0.000037 -1.000000 0.000037
vn 0.000037 -1.000000 0.000037
vn -0.010877 0.021281 0.999714
vn -0.010877 0.021281 0.999714
vn -0.010877 0.021281 0.999714
vn -0.010877 0.021281 0.999714
vn -0.010638 0.022280 -0.999695
vn -0.010638 0.022280 -0.999695
vn -0.010638 0.022280 -0.999695
vn -0.010638 0.022280 -0.999695
vn 0.000000 -1.000000 -0.000020
vn 0.000000 -1.000000 -0.000020
vn 0.000000 -1.000000 -0.000020
vn 0.000000 0.014704 -0.999892
vn 0.000000 0.014704 -0.999892
vn 0.000000 0.014704 -0.999892
vn 0.851704 -0.328517 0.408261
vn 0.851704 -0.328517 0.408261
vn 0.851704 -0.328517 0.408261
vn 0.000000 -1.000000 0.000080
vn 0.000000 -1.000000 0.000080
vn 0.000000 -1.000000 0.000080
vn 0.000000 -1.000000 -0.000014
vn 0.000000 -1.000000 -0.000014
vn 0.000000 -1.000000 -0.000014
vn -0.545869 -0.057206 -0.835915
vn -0.545869 -0.057206 -0.835915
vn -0.545869 -0.057206 -0.835915
vn -0.287364 0.258084 -0.922396
vn -0.287364 0.258084 -0.922396
vn -0.287364 0.258084 -0.922396
vn 0.053355 0.069284 -0.996169
vn 0.053355 0.069284 -0.996169
vn 0.053355 0.069284 -0.996169
vn 0.053355 0.069284 -0.996169
vn 0.037730 0.069322 -0.996881
vn 0.037730 0.069322 -0.996881
vn 0.037730 0.069322 -0.996881
vn 0.037730 0.069322 -0.996881
vn -0.997693 0.067890 0.000328
vn -0.997693 0.067890 0.000328
vn -0.997693 0.067890 0.000328
vn -0.997693 0.067890 0.000328
vn -0.999126 0.041685 -0.003027
vn -0.999126 0.041685 -0.003027
vn -0.999126 0.041685 -0.003027
vn -0.062333 0.083819 -0.994530
vn -0.062333 0.083819 -0.994530
vn -0.062333 0.083819 -0.994530
vn -0.062333 0.083819 -0.994530
vn 0.980221 0.061382 -0.188147
vn 0.980221 0.061382 -0.188147
vn 0.980221 0.061382 -0.188147
vn -0.060792 0.069453 -0.995731
vn -0.060792 0.069453 -0.995731
vn -0.060792 0.069453 -0.995731
vn -0.060792 0.069453 -0.995731
vn 0.998075 0.023631 -0.057340
vn 0.998075 0.023631 -0.057340
vn 0.998075 0.023631 -0.057340
vn 0.998075 0.023631 -0.057340
vn -0.061965 0.063786 0.996038
vn -0.061965 0.063786 0.996038
vn -0.061965 0.063786 0.996038
vn -0.066775 0.072529 0.995128
vn -0.066775 0.072529 0.995128
vn -0.066775 0.072529 0.995128
vn -0.999448 0.033234 0.000098
vn -0.999448 0.033234 0.000098
vn -0.999448 0.033234 0.000098
vn -0.999448 0.033234 0.000098
vn -0.999448 0.033234 0.000098
vn -0.999448 0.033234 0.000098
vn -0.999448 0.033234 0.000098
vn -0.999448 0.033234 0.000098
vn -0.866255 0.218436 0.449320
vn -0.866255 0.218436 0.449320
vn -0.866255 0.218436 0.449320
vn -0.999448 0.033234 0.000098
vn -0.999448 0.033234 0.000098
vn -0.999448 0.033234 0.000098
vn -0.048416 0.069774 0.996387
vn -0.048416 0.069774 0.996387
vn -0.048416 0.069774 0.996387
vn -0.048416 0.069774 0.996387
vn -0.053477 0.067357 0.996295
vn -0.053477 0.067357 0.996295
vn -0.053477 0.067357 0.996295
vn -0.053477 0.067357 0.996295
vn -0.000008 -1.000000 -0.000035
vn -0.000008 -1.000000 -0.000035
vn -0.000008 -1.000000 -0.000035
vn -0.000008 -1.000000 -0.000035
vn 0.999412 0.034291 0.000001
vn 0.999412 0.034291 0.000001
vn 0.999412 0.034291 0.000001
vn 0.999412 0.034291 0.000001
vn 0.046685 0.069073 0.996519
vn 0.046685 0.069073 0.996519
vn 0.046685 0.069073 0.996519
vn 0.046685 0.069073 0.996519
vn 0.046685 0.069073 0.996519
vn 0.000001 0.014450 0.999896
vn 0.000001 0.014450 0.999896
vn 0.000001 0.014450 0.999896
vn 0.000001 0.014450 0.999896
vn -0.000000 -1.000000 -0.000025
vn -0.000000 -1.000000 -0.000025
vn -0.000000 -1.000000 -0.000025
vn -0.000000 -1.000000 -0.000025
vn 0.733371 -0.080950 0.674992
vn 0.733371 -0.080950 0.674992
vn 0.733371 -0.080950 0.674992
vn 0.426782 -0.495354 0.756625
vn 0.426782 -0.495354 0.756625
vn 0.426782 -0.495354 0.756625
vn -0.999448 0.033234 0.000098
vn -0.999448 0.033234 0.000098
vn -0.999448 0.033234 0.000098
vn -0.671873 -0.740321 0.022616
vn -0.671873 -0.740321 0.022616
vn -0.671873 -0.740321 0.022616
vn -0.671873 -0.740321 0.022616
vn 0.357543 0.058201 -0.932081
vn 0.357543 0.058201 -0.932081
vn 0.357543 0.058201 -0.932081
vn 0.999412 0.034291 0.000001
vn 0.999412 0.034291 0.000001
vn 0.999412 0.034291 0.000001
s off
f 7/1/1 1/2/2 2/3/3 8/4/4
f 9/5/5 8/4/6 2/3/7 3/6/8
f 10/7/9 9/5/10 3/6/11 4/8/12
f 11/9/13 10/7/14 4/8/15 5/10/16
f 12/11/17 11/9/18 5/10/19 6/12/20
f 7/1/21 12/11/22 6/12/23 1/2/24
f 2/3/25 1/2/26 13/13/27 14/14/28
f 3/6/29 2/3/30 14/14/31 15/15/32
f 4/8/33 3/6/34 15/15/35 16/16/36
f 5/10/37 4/8/38 16/16/39 17/17/40
f 6/12/41 5/10/42 17/17/43 18/18/44
f 1/2/45 6/12/46 18/18/47 13/13/48
f 14/19/49 13/20/50 19/21/51 20/22/52
f 15/23/53 14/19/54 20/22/55 21/24/56
f 16/25/57 15/23/58 21/24/59 22/26/60
f 17/27/61 16/25/62 22/26/63 23/28/64
f 18/29/65 17/27/66 23/28/67 24/30/68
f 13/20/69 18/29/70 24/30/71 19/21/72
f 20/22/73 19/21/74 44/31/75 45/32/76
f 21/24/77 20/22/78 45/32/79 46/33/80
f 22/26/81 21/24/82 46/33/83 47/34/84
f 23/28/85 22/26/86 47/34/87 48/35/88
f 24/30/89 23/28/90 48/35/91 49/36/92
f 19/21/93 24/30/94 49/36/95 44/31/96
f 26/37/97 25/38/98 31/39/99 32/40/100
f 27/41/101 26/37/102 32/40/103 33/42/104
f 28/43/105 27/41/106 33/42/107 34/44/108
f 29/45/109 28/43/110 34/44/111 35/46/112
f 30/47/113 29/45/114 35/46/115 36/48/116
f 25/38/117 30/47/118 36/48/119 31/39/120
f 32/49/121 31/50/122 37/51/123 38/52/124
f 33/53/125 32/49/126 38/52/127 39/54/128
f 34/55/129 33/53/130 39/54/131 40/56/132
f 35/57/133 34/55/134 40/56/135 41/58/136
f 36/59/137 35/57/138 41/58/139 42/60/140
f 31/50/141 36/59/142 42/60/143 37/51/144
f 7/1/145 8/4/146 43/61/147
f 8/4/148 9/5/149 43/61/150
f 9/5/151 10/7/152 43/61/153
f 10/7/154 11/9/155 43/61/156
f 11/9/157 12/11/158 43/61/159
f 12/11/160 7/1/161 43/61/162
f 45/32/163 44/31/164 25/38/165 26/37/166
f 46/33/167 45/32/168 26/37/169 27/41/170
f 47/34/171 46/33/172 27/41/173 28/43/174
f 48/35/175 47/34/176 28/43/177 29/45/178
f 49/36/179 48/35/180 29/45/181 30/47/182
f 44/31/183 49/36/184 30/47/185 25/38/186
f 37/62/187 42/63/188 52/64/189 51/65/190
f 42/63/191 41/66/192 53/67/193 52/64/194
f 41/66/195 40/68/196 50/69/197 53/67/198
f 39/70/199 38/71/200 54/72/201 55/73/202
f 38/71/203 37/62/204 51/65/205 54/72/206
f 40/68/207 39/70/208 55/73/209 50/69/210
f 59/77/211 60/78/212 64/82/213 65/83/214
f 60/78/215 61/79/216 63/81/217 64/82/218
f 61/79/219 56/74/220 62/80/221 63/81/222
f 57/75/223 58/76/224 66/84/225 67/85/226
f 58/76/227 59/77/228 65/83/229 66/84/230
f 56/74/231 57/75/232 67/85/233 62/80/234
f 50/69/235 55/73/236 57/75/237 56/74/238
f 55/73/239 54/72/240 58/76/241 57/75/242
f 54/72/243 51/65/244 59/77/245 58/76/246
f 51/65/247 52/64/248 60/78/249 59/77/250
f 52/64/251 53/67/252 61/79/253 60/78/254
f 53/67/255 50/69/256 56/74/257 61/79/258
f 63/81/259 62/80/260 68/86/261 69/87/262
f 64/82/263 63/81/264 69/87/265 70/113/266
f 65/83/267 64/82/268 70/113/269 71/119/270
f 66/84/271 65/83/272 71/119/273 72/118/274
f 67/85/275 66/84/276 72/118/277 73/88/278
f 62/80/279 67/85/280 73/88/281 68/86/282
f 97/107/283 95/106/284 96/120/285
f 70/113/286 69/87/287 74/91/288 75/114/289
f 73/88/290 72/118/291 76/117/292 77/92/293
f 76/117/294 105/122/295 91/116/296 93/105/297
f 79/94/298 78/89/299 87/100/300 89/102/301
f 86/99/302 107/125/303 80/95/304
f 75/114/305 74/91/306 77/92/307 76/117/308
f 82/93/309 84/97/310 85/98/311 74/91/312
f 76/117/313 93/105/314 92/104/315 75/114/316
f 103/121/317 106/124/318 71/119/319
f 70/113/320 75/114/321 104/123/322 103/121/323
f 76/117/324 72/118/325 106/124/326 105/122/327
f 68/86/328 73/88/329 80/95/330
f 73/88/331 77/92/332 80/95/333
f 102/112/334 101/111/335 98/108/336
f 72/118/337 71/119/338 106/124/339
f 71/119/340 70/113/341 103/121/342
f 86/99/343 85/98/344 84/97/345
f 83/96/346 85/98/347 86/99/348
f 86/99/349 80/95/350 77/92/351 83/96/352
f 82/93/353 81/90/354 86/99/355 84/97/356
f 74/91/357 85/98/358 83/96/359 77/92/360
f 88/101/361 87/100/362 78/89/363
f 90/103/364 88/101/365 78/89/366 79/94/367
f 89/102/368 90/103/369 79/94/370
f 93/105/371 91/116/372 88/101/373 90/103/374
f 92/104/375 93/105/376 90/103/377 89/102/378
f 92/104/379 97/107/380 75/114/381
f 89/102/382 97/107/383 92/104/384
f 88/101/385 96/120/386 95/106/387 87/100/388
f 105/122/389 104/123/390 94/115/391 96/120/392
f 97/107/393 96/120/394 94/115/395
f 91/116/396 96/120/397 88/101/398
f 89/102/399 87/100/400 95/106/401 97/107/402
f 75/114/403 97/107/404 94/115/405 104/123/406
f 99/109/407 102/112/408 68/86/409 80/95/410
f 100/110/411 99/109/412 80/95/413 107/125/414
f 74/91/415 101/111/416 100/110/417 81/90/418 82/93/419
f 74/91/420 69/87/421 98/108/422 101/111/423
f 69/87/424 68/86/425 102/112/426 98/108/427
f 101/111/428 99/109/429 100/110/430
f 102/112/431 99/109/432 101/111/433
f 105/122/434 96/120/435 91/116/436
f 103/121/437 104/123/438 105/122/439 106/124/440
f 86/99/441 81/90/442 107/125/443
f 100/110/444 107/125/445 81/90/446
