# This file uses centimeters as units for non-parametric coordinates.

v 33.719753 13.858952 -11.986074
v 13.699078 33.570660 -9.783179
v -13.858861 33.719791 -11.986074
v -33.643299 14.043911 -11.986074
v -34.032715 -14.201733 -10.498079
v -14.043666 -33.643253 -11.986074
v 13.858476 -33.719627 -11.986074
v 33.643227 -14.043730 -11.986074
v 33.257473 13.858952 -0.317370
v 14.043510 33.643242 1.580448
v -13.858861 33.719791 1.580448
v -33.518070 13.830159 -0.602935
v -33.719780 -13.859015 1.580448
v -14.043666 -33.643253 1.580448
v 13.619465 -34.032413 -0.565732
v 33.643227 -14.043730 1.580448
v 0.000000 0.000000 -11.986074
v 31.655088 13.010416 3.971482
v 13.183910 31.583607 3.971482
v -13.010180 31.655291 3.971482
v -31.583509 13.184321 3.971482
v -31.655317 -13.010244 3.971482
v -13.183905 -31.583233 3.971482
v 13.010363 -31.655216 3.971482
v 31.583055 -13.183604 3.971482
v 31.655088 13.010416 27.208551
v 13.183910 31.583607 27.208551
v -13.010180 31.655291 27.208551
v -31.583509 13.184322 27.208551
v -31.655317 -13.010244 27.208551
v -13.183905 -31.583233 27.208551
v 13.010315 -31.654968 27.208551
v 31.583055 -13.183605 27.208551
v 19.144264 10.081052 40.162403
v 8.229386 19.343369 41.568001
v 0.140398 0.765957 47.758011
v -7.834107 20.021305 38.829189
v -19.253477 7.622981 40.210159
v -19.272991 -11.763845 37.849117
v -8.545668 -20.532442 38.691040
v 10.552083 -19.552729 38.515060
v 20.747950 -7.588402 40.824402
v 25.959814 18.737053 10.146016
v 18.879230 25.856724 10.146016
v 18.879230 25.856724 21.033775
v 25.959814 18.737053 21.033775
v 5.107374 31.605646 10.145895
v -4.933644 31.633251 10.145895
v -4.933644 31.633251 21.033775
v 5.107374 31.605646 21.033775
v -18.737347 25.960012 10.145895
v -25.856916 18.879311 10.145895
v -25.856916 18.879311 21.033775
v -18.737347 25.960012 21.033775
v -31.605427 5.107358 10.145895
v -31.632839 -4.933741 10.145895
v -31.632839 -4.933741 21.033775
v -31.605427 5.107358 21.033775
v -25.959944 -18.737000 10.146016
v -18.879177 -25.856596 10.146016
v -18.879177 -25.856596 21.034018
v -25.959944 -18.737000 21.034018
v -5.107726 -31.605045 10.146016
v 4.933596 -31.633007 10.146016
v 4.933596 -31.633007 21.034018
v -5.107726 -31.605045 21.034018
v 18.736629 -25.959562 10.146016
v 25.856741 -18.879011 10.146016
v 25.856741 -18.879011 21.033775
v 18.736629 -25.959562 21.033775
v 31.605385 -5.106737 10.145895
v 31.633049 4.933880 10.145895
v 31.633049 4.933880 21.033775
v 31.605385 -5.106737 21.033775
v 26.981014 26.833469 15.589956
v 0.104433 38.052906 15.589834
v -26.833725 26.981123 15.589835
v -38.052715 0.104352 15.589835
v -26.981171 -26.833479 15.589956
v -0.104454 -38.052597 15.589956
v 26.833313 -26.981026 15.589956
v 38.053024 -0.104331 15.589835
vt 0.090088 0.246353
vt 0.090088 0.246353
vt 0.090088 0.246353
vt 0.090088 0.246353
vt 0.090088 0.246353
vt 0.090088 0.246353
vt 0.090088 0.246353
vt 0.090088 0.246353
vt 0.090088 0.246353
vt 0.090088 0.246353
vt 0.090088 0.246353
vt 0.090088 0.246353
vt 0.090088 0.246353
vt 0.090088 0.246353
vt 0.090088 0.246353
vt 0.090088 0.246353
vt 0.090088 0.246353
vt 0.090088 0.246353
vt 0.090088 0.246353
vt 0.090088 0.246353
vt 0.090088 0.246353
vt 0.090088 0.246353
vt 0.090088 0.246353
vt 0.090088 0.246353
vt 0.090088 0.246353
vt 0.089355 0.323753
vt 0.089355 0.323753
vt 0.089355 0.323753
vt 0.089355 0.323753
vt 0.089355 0.323753
vt 0.089355 0.323761
vt 0.089355 0.323753
vt 0.089355 0.323761
vt 0.090820 0.253052
vt 0.090820 0.253052
vt 0.089355 0.323753
vt 0.090800 0.282820
vt 0.090800 0.282820
vt 0.090800 0.282820
vt 0.090800 0.282820
vt 0.090800 0.282820
vt 0.090800 0.282820
vt 0.090800 0.282820
vt 0.090800 0.282820
vt 0.090800 0.282820
vt 0.090800 0.282820
vt 0.090800 0.282820
vt 0.090800 0.282820
vt 0.090800 0.282820
vt 0.090800 0.282820
vt 0.090800 0.282820
vt 0.090800 0.282820
vt 0.090800 0.282820
vt 0.090800 0.282820
vt 0.090800 0.282820
vt 0.090800 0.282820
vt 0.090800 0.282820
vt 0.090800 0.282820
vt 0.090800 0.282820
vt 0.090800 0.282820
vt 0.090800 0.282820
vt 0.090800 0.282820
vt 0.090800 0.282820
vt 0.090800 0.282820
vt 0.090800 0.282820
vt 0.090800 0.282820
vt 0.090800 0.282820
vt 0.090800 0.282820
vt 0.090800 0.282820
vt 0.090800 0.282820
vt 0.090800 0.282820
vt 0.090800 0.282820
vt 0.090800 0.282820
vt 0.090800 0.282820
vt 0.090800 0.282820
vt 0.090800 0.282820
vt 0.090800 0.282820
vt 0.090800 0.282820
vt 0.090800 0.282820
vt 0.090800 0.282820
vt 0.090800 0.282820
vt 0.090800 0.282820
vt 0.090800 0.282820
vt 0.090800 0.282820
vt 0.090800 0.282820
vt 0.090800 0.282820
vt 0.090800 0.282820
vt 0.090800 0.282820
vt 0.090800 0.282820
vt 0.090800 0.282820
vt 0.090800 0.282820
vt 0.090800 0.282820
vt 0.090820 0.253052
vt 0.090820 0.253052
vt 0.090820 0.253052
vt 0.090820 0.253052
vt 0.090820 0.253052
vt 0.090820 0.253052
vt 0.090820 0.253052
vt 0.090820 0.253052
vt 0.090820 0.253052
vt 0.090820 0.253052
vt 0.090820 0.253052
vt 0.090820 0.253052
vt 0.090820 0.253052
vt 0.090820 0.253052
vt 0.090820 0.253052
vt 0.090820 0.253052
vt 0.090820 0.253052
vt 0.090820 0.253052
vt 0.090820 0.253052
vt 0.090820 0.253052
vt 0.090820 0.253052
vt 0.090820 0.253052
vt 0.090820 0.253052
vt 0.090820 0.253052
vt 0.090820 0.253052
vt 0.090820 0.253052
vt 0.090820 0.253052
vt 0.090820 0.253052
vt 0.090820 0.253052
vt 0.090820 0.253052
vt 0.090820 0.253052
vt 0.090820 0.253052
vt 0.090820 0.253052
vt 0.090820 0.253052
vt 0.090820 0.253052
vt 0.090820 0.253052
vt 0.090820 0.253052
vt 0.090820 0.253052
vn 0.709523 0.704681 0.001410
vn 0.709523 0.704681 0.001410
vn 0.709523 0.704681 0.001410
vn 0.709523 0.704681 0.001410
vn 0.004187 0.999987 -0.002969
vn 0.004187 0.999987 -0.002969
vn 0.004187 0.999987 -0.002969
vn 0.004187 0.999987 -0.002969
vn -0.708429 0.705717 0.009602
vn -0.708429 0.705717 0.009602
vn -0.708429 0.705717 0.009602
vn -0.708429 0.705717 0.009602
vn -0.999757 0.011787 0.018606
vn -0.999757 0.011787 0.018606
vn -0.999757 0.011787 0.018606
vn -0.999757 0.011787 0.018606
vn -0.702700 -0.711257 0.018080
vn -0.702700 -0.711257 0.018080
vn -0.702700 -0.711257 0.018080
vn -0.702700 -0.711257 0.018080
vn -0.008864 -0.999881 -0.012601
vn -0.008864 -0.999881 -0.012601
vn -0.008864 -0.999881 -0.012601
vn -0.008864 -0.999881 -0.012601
vn 0.705881 -0.708328 -0.002115
vn 0.705881 -0.708328 -0.002115
vn 0.705881 -0.708328 -0.002115
vn 0.705881 -0.708328 -0.002115
vn 0.999813 0.006163 0.018315
vn 0.999813 0.006163 0.018315
vn 0.999813 0.006163 0.018315
vn 0.999813 0.006163 0.018315
vn -0.032288 0.078558 -0.996387
vn -0.032288 0.078558 -0.996387
vn -0.032288 0.078558 -0.996387
vn 0.079816 0.032805 -0.996270
vn 0.079816 0.032805 -0.996270
vn 0.079816 0.032805 -0.996270
vn -0.000000 0.000000 -1.000000
vn -0.000000 0.000000 -1.000000
vn -0.000000 0.000000 -1.000000
vn -0.021830 -0.052295 -0.998393
vn -0.021830 -0.052295 -0.998393
vn -0.021830 -0.052295 -0.998393
vn -0.052858 0.022065 -0.998358
vn -0.052858 0.022065 -0.998358
vn -0.052858 0.022065 -0.998358
vn 0.000000 0.000000 -1.000000
vn 0.000000 0.000000 -1.000000
vn 0.000000 0.000000 -1.000000
vn -0.000000 0.000000 -1.000000
vn -0.000000 0.000000 -1.000000
vn -0.000000 0.000000 -1.000000
vn 0.000000 0.000000 -1.000000
vn 0.000000 0.000000 -1.000000
vn 0.000000 0.000000 -1.000000
vn 0.282529 0.190257 0.940202
vn 0.282529 0.190257 0.940202
vn 0.282529 0.190257 0.940202
vn -0.141194 0.367740 0.919147
vn -0.141194 0.367739 0.919147
vn -0.141194 0.367740 0.919147
vn -0.241362 0.324186 0.914685
vn -0.241362 0.324186 0.914685
vn -0.241362 0.324186 0.914685
vn -0.394210 -0.110712 0.912327
vn -0.394210 -0.110712 0.912327
vn -0.394210 -0.110712 0.912327
vn -0.293261 -0.270734 0.916898
vn -0.293261 -0.270734 0.916897
vn -0.293261 -0.270734 0.916898
vn 0.029033 -0.401531 0.915385
vn 0.029033 -0.401531 0.915385
vn 0.029033 -0.401531 0.915385
vn 0.177879 -0.330495 0.926894
vn 0.177879 -0.330495 0.926894
vn 0.177879 -0.330495 0.926894
vn 0.342190 0.066174 0.937298
vn 0.342190 0.066174 0.937298
vn 0.342190 0.066174 0.937298
vn 0.632634 0.597146 0.493143
vn 0.632634 0.597146 0.493143
vn 0.632634 0.597146 0.493143
vn 0.632635 0.597146 0.493143
vn 0.002075 0.757276 0.653092
vn 0.002075 0.757276 0.653092
vn 0.002075 0.757276 0.653092
vn 0.002075 0.757276 0.653092
vn -0.632295 0.602461 0.487076
vn -0.632295 0.602461 0.487076
vn -0.632295 0.602461 0.487076
vn -0.632295 0.602461 0.487076
vn -0.867282 0.024550 0.497211
vn -0.867282 0.024550 0.497211
vn -0.867282 0.024550 0.497211
vn -0.867282 0.024550 0.497211
vn -0.536919 -0.533983 0.653131
vn -0.536919 -0.533983 0.653131
vn -0.536919 -0.533983 0.653131
vn -0.536919 -0.533983 0.653131
vn 0.014263 -0.842247 0.538903
vn 0.014263 -0.842247 0.538903
vn 0.014263 -0.842247 0.538904
vn 0.014263 -0.842247 0.538904
vn 0.589567 -0.620509 0.517087
vn 0.589567 -0.620509 0.517087
vn 0.589567 -0.620509 0.517087
vn 0.589567 -0.620509 0.517087
vn 0.876651 0.021945 0.480626
vn 0.876651 0.021945 0.480626
vn 0.876651 0.021945 0.480626
vn 0.876651 0.021945 0.480626
vn 0.541318 0.538880 0.645433
vn 0.541318 0.538880 0.645433
vn 0.541318 0.538880 0.645433
vn 0.541318 0.538880 0.645433
vn -0.030789 0.735839 0.676457
vn -0.030789 0.735839 0.676457
vn -0.030789 0.735839 0.676457
vn -0.030789 0.735839 0.676457
vn -0.492060 0.509661 0.705778
vn -0.492060 0.509661 0.705778
vn -0.492060 0.509661 0.705778
vn -0.492060 0.509661 0.705778
vn -0.694105 -0.035851 0.718981
vn -0.694105 -0.035851 0.718981
vn -0.694105 -0.035851 0.718981
vn -0.694105 -0.035851 0.718981
vn -0.509666 -0.523254 0.682969
vn -0.509666 -0.523254 0.682969
vn -0.509666 -0.523254 0.682969
vn -0.509666 -0.523254 0.682969
vn 0.016842 -0.702187 0.711793
vn 0.016842 -0.702187 0.711793
vn 0.016842 -0.702187 0.711793
vn 0.016842 -0.702187 0.711793
vn 0.519423 -0.541151 0.661328
vn 0.519423 -0.541151 0.661328
vn 0.519423 -0.541151 0.661328
vn 0.519423 -0.541151 0.661328
vn 0.752516 0.036201 0.657579
vn 0.752516 0.036201 0.657579
vn 0.752516 0.036201 0.657579
vn 0.752516 0.036201 0.657579
vn 0.709051 0.705157 0.000011
vn 0.709051 0.705157 0.000011
vn 0.709051 0.705157 0.000011
vn 0.709051 0.705157 0.000011
vn 0.709058 0.705150 0.000000
vn 0.709058 0.705150 0.000000
vn 0.709058 0.705150 0.000000
vn 0.709058 0.705150 0.000000
vn 0.709051 0.705157 -0.000011
vn 0.709051 0.705157 -0.000011
vn 0.709051 0.705157 -0.000011
vn 0.709051 0.705157 -0.000011
vn 0.709045 0.705163 0.000000
vn 0.709045 0.705163 0.000000
vn 0.709045 0.705163 0.000000
vn 0.709045 0.705163 0.000000
vn 0.002740 0.999996 0.000000
vn 0.002740 0.999996 0.000000
vn 0.002740 0.999996 0.000000
vn 0.002740 0.999996 0.000000
vn 0.002729 0.999996 0.000000
vn 0.002729 0.999996 0.000000
vn 0.002729 0.999996 0.000000
vn 0.002729 0.999996 0.000000
vn 0.002740 0.999996 0.000000
vn 0.002740 0.999996 0.000000
vn 0.002740 0.999996 0.000000
vn 0.002740 0.999996 0.000000
vn 0.002729 0.999996 0.000000
vn 0.002729 0.999996 0.000000
vn 0.002729 0.999996 0.000000
vn 0.002729 0.999996 0.000000
vn -0.705155 0.709053 -0.000016
vn -0.705155 0.709053 -0.000016
vn -0.705155 0.709053 -0.000016
vn -0.705155 0.709053 -0.000016
vn -0.705148 0.709061 0.000000
vn -0.705148 0.709061 0.000000
vn -0.705148 0.709061 0.000000
vn -0.705148 0.709061 0.000000
vn -0.705155 0.709053 0.000016
vn -0.705155 0.709053 0.000016
vn -0.705155 0.709053 0.000016
vn -0.705155 0.709053 0.000016
vn -0.705130 0.709078 0.000000
vn -0.705130 0.709078 0.000000
vn -0.705130 0.709078 0.000000
vn -0.705130 0.709078 0.000000
vn -0.999996 0.002738 0.000046
vn -0.999996 0.002738 0.000046
vn -0.999996 0.002738 0.000046
vn -0.999996 0.002738 0.000046
vn -0.999996 0.002783 0.000000
vn -0.999996 0.002783 0.000000
vn -0.999996 0.002783 0.000000
vn -0.999996 0.002783 0.000000
vn -0.999996 0.002738 -0.000046
vn -0.999996 0.002738 -0.000046
vn -0.999996 0.002738 -0.000046
vn -0.999996 0.002738 -0.000046
vn -0.999996 0.002714 0.000000
vn -0.999996 0.002714 0.000000
vn -0.999996 0.002714 0.000000
vn -0.999996 0.002714 0.000000
vn -0.709041 -0.705167 -0.000001
vn -0.709042 -0.705167 -0.000001
vn -0.709041 -0.705167 -0.000001
vn -0.709041 -0.705167 -0.000001
vn -0.709046 -0.705162 0.000000
vn -0.709046 -0.705162 0.000000
vn -0.709046 -0.705162 0.000000
vn -0.709046 -0.705162 0.000000
vn -0.709042 -0.705167 0.000001
vn -0.709042 -0.705167 0.000001
vn -0.709042 -0.705167 0.000001
vn -0.709042 -0.705167 0.000001
vn -0.709047 -0.705161 0.000000
vn -0.709047 -0.705161 0.000000
vn -0.709047 -0.705161 0.000000
vn -0.709047 -0.705161 0.000000
vn -0.002758 -0.999996 0.000031
vn -0.002758 -0.999996 0.000031
vn -0.002758 -0.999996 0.000031
vn -0.002758 -0.999996 0.000031
vn -0.002734 -0.999996 0.000007
vn -0.002734 -0.999996 0.000007
vn -0.002734 -0.999996 0.000007
vn -0.002734 -0.999996 0.000007
vn -0.002751 -0.999996 -0.000012
vn -0.002751 -0.999996 -0.000012
vn -0.002751 -0.999996 -0.000012
vn -0.002751 -0.999996 -0.000012
vn -0.002701 -0.999996 0.000000
vn -0.002701 -0.999996 0.000000
vn -0.002701 -0.999996 0.000000
vn -0.002701 -0.999996 0.000000
vn 0.705163 -0.709045 0.000017
vn 0.705163 -0.709045 0.000017
vn 0.705163 -0.709045 0.000017
vn 0.705163 -0.709045 0.000017
vn 0.705191 -0.709018 0.000000
vn 0.705191 -0.709018 0.000000
vn 0.705191 -0.709018 0.000000
vn 0.705191 -0.709018 0.000000
vn 0.705159 -0.709049 0.000000
vn 0.705159 -0.709049 0.000000
vn 0.705159 -0.709049 0.000000
vn 0.705159 -0.709049 0.000000
vn 0.705200 -0.709009 0.000006
vn 0.705200 -0.709009 0.000006
vn 0.705200 -0.709009 0.000006
vn 0.705200 -0.709009 0.000006
vn 0.999996 -0.002751 -0.000023
vn 0.999996 -0.002751 -0.000023
vn 0.999996 -0.002751 -0.000023
vn 0.999996 -0.002751 -0.000023
vn 0.999996 -0.002729 0.000000
vn 0.999996 -0.002729 0.000000
vn 0.999996 -0.002729 0.000000
vn 0.999996 -0.002729 0.000000
vn 0.999996 -0.002752 0.000023
vn 0.999996 -0.002752 0.000023
vn 0.999996 -0.002752 0.000023
vn 0.999996 -0.002752 0.000023
vn 0.999996 -0.002765 -0.000000
vn 0.999996 -0.002765 -0.000000
vn 0.999996 -0.002765 -0.000000
vn 0.999996 -0.002765 -0.000000
vn 0.458023 0.455508 -0.763366
vn 0.458023 0.455508 -0.763366
vn 0.458023 0.455508 -0.763366
vn -0.119693 0.992811 0.000000
vn -0.119693 0.992811 0.000000
vn -0.119693 0.992811 0.000000
vn 0.458017 0.455502 0.763373
vn 0.458017 0.455502 0.763373
vn 0.458017 0.455502 0.763373
vn 0.992139 -0.125139 0.000000
vn 0.992139 -0.125139 0.000000
vn 0.992139 -0.125139 0.000000
vn 0.001776 0.645955 -0.763373
vn 0.001776 0.645955 -0.763373
vn 0.001776 0.645955 -0.763373
vn -0.786672 0.617372 0.000000
vn -0.786672 0.617372 0.000000
vn -0.786672 0.617371 0.000000
vn 0.001776 0.645955 0.763373
vn 0.001776 0.645955 0.763373
vn 0.001776 0.645955 0.763373
vn 0.790040 0.613055 0.000000
vn 0.790040 0.613055 0.000000
vn 0.790040 0.613055 0.000000
vn -0.455516 0.458016 -0.763365
vn -0.455516 0.458016 -0.763365
vn -0.455516 0.458016 -0.763365
vn -0.992810 -0.119700 0.000000
vn -0.992810 -0.119700 0.000000
vn -0.992810 -0.119700 0.000000
vn -0.455516 0.458016 0.763365
vn -0.455516 0.458016 0.763365
vn -0.455516 0.458016 0.763365
vn 0.125128 0.992141 0.000000
vn 0.125128 0.992141 0.000000
vn 0.125128 0.992141 0.000000
vn -0.645948 0.001763 -0.763379
vn -0.645948 0.001763 -0.763379
vn -0.645948 0.001763 -0.763379
vn -0.617360 -0.786681 0.000000
vn -0.617360 -0.786681 0.000000
vn -0.617360 -0.786681 0.000000
vn -0.645948 0.001763 0.763380
vn -0.645948 0.001763 0.763379
vn -0.645948 0.001763 0.763380
vn -0.613059 0.790038 0.000000
vn -0.613059 0.790038 0.000000
vn -0.613058 0.790038 0.000000
vn -0.458008 -0.455510 -0.763373
vn -0.458008 -0.455510 -0.763373
vn -0.458008 -0.455510 -0.763373
vn 0.119706 -0.992809 0.000000
vn 0.119706 -0.992809 0.000000
vn 0.119706 -0.992809 0.000000
vn -0.458014 -0.455516 0.763366
vn -0.458014 -0.455516 0.763366
vn -0.458014 -0.455516 0.763366
vn -0.992139 0.125141 0.000000
vn -0.992139 0.125141 0.000000
vn -0.992139 0.125141 0.000000
vn -0.001799 -0.645949 -0.763378
vn -0.001799 -0.645949 -0.763378
vn -0.001799 -0.645949 -0.763378
vn 0.786670 -0.617373 0.000000
vn 0.786670 -0.617373 0.000000
vn 0.786670 -0.617373 0.000000
vn -0.001799 -0.645957 0.763371
vn -0.001799 -0.645957 0.763371
vn -0.001799 -0.645957 0.763371
vn -0.790034 -0.613063 0.000000
vn -0.790034 -0.613063 0.000000
vn -0.790034 -0.613063 0.000000
vn 0.455485 -0.458030 -0.763376
vn 0.455485 -0.458030 -0.763376
vn 0.455485 -0.458030 -0.763376
vn 0.992814 0.119669 0.000000
vn 0.992814 0.119669 0.000000
vn 0.992814 0.119669 0.000000
vn 0.455478 -0.458024 0.763383
vn 0.455478 -0.458024 0.763383
vn 0.455478 -0.458024 0.763383
vn -0.125166 -0.992136 0.000000
vn -0.125166 -0.992136 0.000000
vn -0.125166 -0.992136 0.000000
vn 0.645935 -0.001780 -0.763391
vn 0.645935 -0.001780 -0.763391
vn 0.645935 -0.001780 -0.763391
vn 0.617362 0.786679 0.000000
vn 0.617362 0.786679 0.000000
vn 0.617362 0.786679 0.000000
vn 0.645935 -0.001780 0.763391
vn 0.645935 -0.001780 0.763391
vn 0.645935 -0.001780 0.763391
vn 0.612992 -0.790089 0.000000
vn 0.612992 -0.790089 0.000000
vn 0.612992 -0.790089 0.000000
s off
f 1/1/1 2/2/2 10/3/3 9/4/4
f 2/2/5 3/5/6 11/6/7 10/3/8
f 3/5/9 4/7/10 12/8/11 11/6/12
f 4/7/13 5/9/14 13/10/15 12/8/16
f 5/9/17 6/11/18 14/12/19 13/10/20
f 6/11/21 7/13/22 15/14/23 14/12/24
f 7/13/25 8/15/26 16/16/27 15/14/28
f 8/15/29 1/1/30 9/4/31 16/16/32
f 2/2/33 1/1/34 17/17/35
f 3/5/36 2/2/37 17/17/38
f 4/7/39 3/5/40 17/17/41
f 5/9/42 4/7/43 17/17/44
f 6/11/45 5/9/46 17/17/47
f 7/13/48 6/11/49 17/17/50
f 8/15/51 7/13/52 17/17/53
f 1/1/54 8/15/55 17/17/56
f 34/36/57 35/33/58 36/32/59
f 35/33/60 37/31/61 36/32/62
f 37/31/63 38/30/64 36/32/65
f 38/30/66 39/29/67 36/32/68
f 39/29/69 40/28/70 36/32/71
f 40/28/72 41/27/73 36/32/74
f 41/27/75 42/26/76 36/32/77
f 42/26/78 34/36/79 36/32/80
f 9/4/81 10/3/82 19/18/83 18/19/84
f 10/3/85 11/6/86 20/20/87 19/18/88
f 11/6/89 12/8/90 21/21/91 20/20/92
f 12/8/93 13/10/94 22/22/95 21/21/96
f 13/10/97 14/12/98 23/23/99 22/22/100
f 14/12/101 15/14/102 24/24/103 23/23/104
f 15/14/105 16/16/106 25/25/107 24/24/108
f 16/16/109 9/4/110 18/19/111 25/25/112
f 26/45/113 27/46/114 35/54/115 34/53/116
f 27/46/117 28/47/118 37/55/119 35/54/120
f 28/47/121 29/48/122 38/56/123 37/55/124
f 29/48/125 30/49/126 39/57/127 38/56/128
f 30/49/129 31/50/130 40/58/131 39/57/132
f 31/50/133 32/51/134 41/59/135 40/58/136
f 32/51/137 33/52/138 42/60/139 41/59/140
f 33/52/141 26/45/142 34/53/143 42/60/144
f 18/37/145 19/38/146 44/62/147 43/61/148
f 19/38/149 27/46/150 45/63/151 44/62/152
f 27/46/153 26/45/154 46/64/155 45/63/156
f 26/45/157 18/37/158 43/61/159 46/64/160
f 19/38/161 20/39/162 48/66/163 47/65/164
f 20/39/165 28/47/166 49/67/167 48/66/168
f 28/47/169 27/46/170 50/68/171 49/67/172
f 27/46/173 19/38/174 47/65/175 50/68/176
f 20/39/177 21/40/178 52/70/179 51/69/180
f 21/40/181 29/48/182 53/71/183 52/70/184
f 29/48/185 28/47/186 54/72/187 53/71/188
f 28/47/189 20/39/190 51/69/191 54/72/192
f 21/40/193 22/41/194 56/74/195 55/73/196
f 22/41/197 30/49/198 57/75/199 56/74/200
f 30/49/201 29/48/202 58/76/203 57/75/204
f 29/48/205 21/40/206 55/73/207 58/76/208
f 22/41/209 23/42/210 60/78/211 59/77/212
f 23/42/213 31/50/214 61/79/215 60/78/216
f 31/50/217 30/49/218 62/80/219 61/79/220
f 30/49/221 22/41/222 59/77/223 62/80/224
f 23/42/225 24/43/226 64/82/227 63/81/228
f 24/43/229 32/51/230 65/83/231 64/82/232
f 32/51/233 31/50/234 66/84/235 65/83/236
f 31/50/237 23/42/238 63/81/239 66/84/240
f 24/43/241 25/44/242 68/86/243 67/85/244
f 25/44/245 33/52/246 69/87/247 68/86/248
f 33/52/249 32/51/250 70/88/251 69/87/252
f 32/51/253 24/43/254 67/85/255 70/88/256
f 25/44/257 18/37/258 72/90/259 71/89/260
f 18/37/261 26/45/262 73/91/263 72/90/264
f 26/45/265 33/52/266 74/92/267 73/91/268
f 33/52/269 25/44/270 71/89/271 74/92/272
f 43/93/273 44/94/274 75/95/275
f 44/94/276 45/96/277 75/95/278
f 45/96/279 46/97/280 75/95/281
f 46/97/282 43/93/283 75/95/284
f 47/98/285 48/99/286 76/100/287
f 48/99/288 49/101/289 76/100/290
f 49/101/291 50/102/292 76/100/293
f 50/102/294 47/98/295 76/100/296
f 51/103/297 52/104/298 77/105/299
f 52/104/300 53/106/301 77/105/302
f 53/106/303 54/107/304 77/105/305
f 54/107/306 51/103/307 77/105/308
f 55/108/309 56/109/310 78/110/311
f 56/109/312 57/111/313 78/110/314
f 57/111/315 58/112/316 78/110/317
f 58/112/318 55/108/319 78/110/320
f 59/113/321 60/114/322 79/115/323
f 60/114/324 61/116/325 79/115/326
f 61/116/327 62/117/328 79/115/329
f 62/117/330 59/113/331 79/115/332
f 63/118/333 64/119/334 80/120/335
f 64/119/336 65/121/337 80/120/338
f 65/121/339 66/122/340 80/120/341
f 66/122/342 63/118/343 80/120/344
f 67/123/345 68/124/346 81/125/347
f 68/124/348 69/126/349 81/125/350
f 69/126/351 70/127/352 81/125/353
f 70/127/354 67/123/355 81/125/356
f 71/128/357 72/129/358 82/130/359
f 72/129/360 73/35/361 82/130/362
f 73/35/363 74/34/364 82/130/365
f 74/34/366 71/128/367 82/130/368
