# This file uses centimeters as units for non-parametric coordinates.

v 0.000000 13.671968 3.926008
v 0.000000 13.671968 -3.926008
v 0.000000 135.000000 0.000000
v 0.000000 40.240623 3.926004
v 0.000000 119.510841 2.998079
v 0.000000 119.510841 -2.998075
v 0.000001 131.967987 2.058336
v 0.000000 131.967987 -2.058332
v -0.941577 13.671968 1.826006
v -0.941577 13.671968 -1.826007
v 0.941577 13.671968 -1.826007
v 0.941577 13.671968 1.826006
v 0.941663 40.228336 1.826008
v 0.941663 43.108486 -2.008334
v 0.391006 119.419464 -0.899012
v 0.391006 119.419464 0.899008
v -0.391006 119.419464 0.899000
v -0.391006 119.419464 -0.899004
v -0.941662 40.228329 -2.010764
v -0.941662 40.228329 1.826009
v -0.367056 131.257370 -0.000002
v 0.367056 131.257385 -0.000002
v 0.000000 80.525574 3.465122
v 0.668161 79.561157 1.365583
v 0.668161 79.561157 -1.365587
v 0.000000 79.612717 -3.465124
v -0.668161 79.561157 -1.365587
v -0.668161 79.561157 1.365583
v -0.401964 14.121972 0.926007
v -0.401964 14.121973 -0.926007
v 0.401964 14.121972 -0.926007
v 0.401964 14.121972 0.926007
v 0.402072 40.219936 -0.435150
v 0.402063 40.223080 0.926008
v -0.402063 40.223068 -0.383283
v -0.402071 40.219936 0.926007
v 0.224430 78.658043 -0.476057
v 0.224430 78.658043 0.476061
v -0.224430 78.658043 -0.476057
v -0.224430 78.658043 0.476061
v -0.668161 83.169975 0.000000
v -0.224430 79.974319 -0.000004
v 0.224430 79.974327 -0.000004
v 0.668161 83.169975 0.000000
v 0.000000 76.553307 3.500936
v -0.434305 79.134262 2.105630
v 0.434305 79.134262 2.105630
v 0.000000 127.950516 -2.361412
v 0.000000 124.836227 -2.596348
v -0.094338 126.500275 -1.943470
v 0.094339 126.500275 -1.943470
v 0.000000 41.524117 -3.817607
v 0.000000 51.446770 -3.748254
v 0.423748 44.895203 -3.023679
v -0.423748 43.599136 -2.941629
vt 0.089684 0.374812
vt 0.089696 0.374805
vt 0.089693 0.374799
vt 0.089682 0.374806
vt 0.090099 0.375001
vt 0.090114 0.374984
vt 0.090482 0.375157
vt 0.090476 0.375172
vt 0.090474 0.375177
vt 0.090480 0.375161
vt 0.090114 0.374992
vt 0.090100 0.375009
vt 0.089839 0.374865
vt 0.089828 0.374873
vt 0.089830 0.374879
vt 0.089841 0.374871
vt 0.090614 0.375231
vt 0.090616 0.375227
vt 0.089711 0.374789
vt 0.089695 0.374791
vt 0.089700 0.374803
vt 0.089661 0.374820
vt 0.089678 0.374817
vt 0.089672 0.374806
vt 0.090125 0.374976
vt 0.090489 0.375142
vt 0.090469 0.375193
vt 0.090089 0.375019
vt 0.089843 0.374858
vt 0.089810 0.374891
vt 0.089821 0.374875
vt 0.089847 0.374869
vt 0.089825 0.374886
vt 0.090628 0.375214
vt 0.090619 0.375253
vt 0.090661 0.375250
vt 0.090102 0.374989
vt 0.090097 0.374995
vt 0.090097 0.374998
vt 0.090102 0.374992
vt 0.090107 0.375001
vt 0.090100 0.374995
vt 0.090100 0.374992
vt 0.090107 0.374993
vt 0.090068 0.375009
vt 0.090090 0.375012
vt 0.090090 0.375008
vt 0.090598 0.375198
vt 0.090529 0.375162
vt 0.090562 0.375192
vt 0.090564 0.375190
vt 0.089784 0.374821
vt 0.089991 0.374915
vt 0.089850 0.374856
vt 0.089852 0.374862
vn -0.000001 -1.000000 -0.000001
vn -0.000001 -1.000000 -0.000001
vn -0.000001 -1.000000 -0.000001
vn -0.000001 -1.000000 -0.000001
vn 0.999971 0.007646 0.000000
vn 0.999971 0.007646 0.000000
vn 0.999971 0.007646 0.000000
vn -0.999795 0.007174 0.018959
vn -0.999795 0.007174 0.018959
vn -0.999795 0.007174 0.018959
vn 1.000000 -0.000004 0.000003
vn 1.000000 -0.000004 0.000003
vn 1.000000 -0.000004 0.000003
vn 1.000000 -0.000004 0.000003
vn -1.000000 -0.000004 -0.000003
vn -1.000000 -0.000004 -0.000003
vn -1.000000 -0.000004 -0.000003
vn -1.000000 -0.000004 -0.000003
vn -0.999998 0.002023 0.000000
vn -0.999998 0.002023 0.000000
vn -0.999998 0.002023 0.000000
vn 0.999998 0.002023 0.000000
vn 0.999998 0.002023 0.000000
vn 0.999998 0.002023 0.000000
vn 0.000000 -1.000000 -0.000000
vn 0.000000 -1.000000 -0.000000
vn 0.000000 -1.000000 -0.000000
vn 0.000000 -1.000000 -0.000000
vn 0.000000 -1.000000 -0.000000
vn 0.000000 -1.000000 -0.000000
vn 0.969655 0.006231 -0.244400
vn 0.969655 0.006231 -0.244400
vn 0.969655 0.006231 -0.244400
vn 0.969655 0.006231 -0.244400
vn 0.969978 0.006289 0.243111
vn 0.969978 0.006289 0.243111
vn 0.969978 0.006289 0.243111
vn 0.969978 0.006289 0.243111
vn -0.969655 0.006231 -0.244399
vn -0.969655 0.006231 -0.244399
vn -0.969655 0.006231 -0.244399
vn -0.969655 0.006231 -0.244399
vn -0.969978 0.006289 0.243111
vn -0.969978 0.006289 0.243111
vn -0.969978 0.006289 0.243111
vn -0.969978 0.006289 0.243111
vn 0.065300 -0.105517 -0.992271
vn 0.065300 -0.105517 -0.992271
vn 0.065300 -0.105517 -0.992271
vn 0.912470 -0.000001 0.409143
vn 0.912470 -0.000001 0.409143
vn 0.912470 -0.000001 0.409143
vn 0.912470 -0.000001 0.409143
vn -0.912470 -0.000001 0.409143
vn -0.912470 -0.000001 0.409143
vn -0.912470 -0.000001 0.409143
vn -0.912470 -0.000001 0.409143
vn -0.984163 0.014342 0.176685
vn -0.984163 0.014342 0.176685
vn -0.984163 0.014342 0.176685
vn -0.984163 0.014342 0.176685
vn 0.984163 0.014342 0.176686
vn 0.984163 0.014342 0.176686
vn 0.984163 0.014342 0.176686
vn 0.984163 0.014342 0.176686
vn -0.973751 0.095500 0.206613
vn -0.973751 0.095500 0.206613
vn -0.973751 0.095500 0.206613
vn -0.973751 0.095500 0.206613
vn -0.000000 0.000001 -1.000000
vn -0.000000 0.000001 -1.000000
vn -0.000000 0.000001 -1.000000
vn 0.985095 0.096613 -0.142316
vn 0.985095 0.096613 -0.142316
vn 0.985095 0.096613 -0.142316
vn 0.985095 0.096613 0.142314
vn 0.985095 0.096613 0.142314
vn 0.985095 0.096613 0.142314
vn 0.932934 0.007587 0.359967
vn 0.932934 0.007587 0.359967
vn 0.932934 0.007587 0.359967
vn 0.932934 0.007587 0.359967
vn 1.000000 0.000000 0.000000
vn 1.000000 0.000000 0.000000
vn 1.000000 0.000000 0.000000
vn -0.999989 0.004622 0.000003
vn -0.999989 0.004622 0.000003
vn -0.999989 0.004622 0.000003
vn -0.999989 0.004622 0.000003
vn -0.932934 0.007587 0.359967
vn -0.932934 0.007587 0.359967
vn -0.932934 0.007587 0.359967
vn -0.932934 0.007587 0.359967
vn -0.000000 -0.894425 0.447218
vn -0.000000 -0.894425 0.447218
vn -0.000000 -0.894425 0.447218
vn -0.000000 -0.894425 0.447218
vn 0.000000 -0.894426 -0.447216
vn 0.000000 -0.894426 -0.447216
vn 0.000000 -0.894426 -0.447216
vn 0.000000 -0.894426 -0.447216
vn 0.917336 -0.002215 0.398107
vn 0.917336 -0.002215 0.398107
vn 0.917336 -0.002215 0.398107
vn 0.917336 -0.002215 0.398107
vn 0.857658 -0.000003 -0.514221
vn 0.857658 -0.000003 -0.514221
vn 0.857658 -0.000003 -0.514221
vn 0.857658 -0.000003 -0.514221
vn -0.919497 -0.002675 0.393088
vn -0.919497 -0.002675 0.393088
vn -0.919497 -0.002675 0.393088
vn -0.919497 -0.002675 0.393088
vn -0.857660 -0.000003 -0.514217
vn -0.857660 -0.000003 -0.514217
vn -0.857660 -0.000003 -0.514217
vn -0.857660 -0.000003 -0.514217
vn 0.927329 0.002579 0.374238
vn 0.927329 0.002579 0.374238
vn 0.927329 0.002579 0.374238
vn 0.927329 0.002579 0.374238
vn 0.931286 -0.127590 -0.341213
vn 0.931286 -0.127590 -0.341213
vn 0.931286 -0.127590 -0.341213
vn 0.931286 -0.127590 -0.341213
vn 0.876521 -0.000550 -0.481363
vn 0.876521 -0.000550 -0.481363
vn 0.876521 -0.000550 -0.481363
vn 0.876521 -0.000550 -0.481363
vn -0.931287 -0.127590 -0.341212
vn -0.931287 -0.127590 -0.341212
vn -0.931287 -0.127590 -0.341212
vn -0.931287 -0.127590 -0.341212
vn -0.931094 0.002810 0.364768
vn -0.931094 0.002810 0.364768
vn -0.931094 0.002810 0.364768
vn -0.931094 0.002810 0.364768
vn -0.876523 -0.000550 -0.481359
vn -0.876523 -0.000550 -0.481359
vn -0.876523 -0.000550 -0.481359
vn -0.876523 -0.000550 -0.481359
vn -0.999795 0.007174 -0.018959
vn -0.999795 0.007174 -0.018959
vn -0.999795 0.007174 -0.018959
vn -0.931287 -0.127590 0.341213
vn -0.931287 -0.127590 0.341213
vn -0.931287 -0.127590 0.341213
vn -0.931287 -0.127590 0.341213
vn 0.931286 -0.127590 0.341214
vn 0.931286 -0.127590 0.341214
vn 0.931286 -0.127590 0.341214
vn 0.931286 -0.127590 0.341214
vn 0.999795 0.007174 0.018959
vn 0.999795 0.007174 0.018959
vn 0.999795 0.007174 0.018959
vn 0.999795 0.007174 -0.018959
vn 0.999795 0.007174 -0.018959
vn 0.999795 0.007174 -0.018959
vn -0.999971 0.007646 0.000000
vn -0.999971 0.007646 0.000000
vn -0.999971 0.007646 0.000000
vn 0.999989 0.004622 -0.000002
vn 0.999989 0.004622 -0.000002
vn 0.999989 0.004622 -0.000002
vn 0.999989 0.004622 -0.000002
vn -1.000000 -0.000000 0.000000
vn -1.000000 -0.000000 0.000000
vn -1.000000 -0.000000 0.000000
vn -0.985095 0.096613 0.142316
vn -0.985095 0.096613 0.142316
vn -0.985095 0.096613 0.142316
vn 0.000000 0.475569 0.879678
vn 0.000000 0.475569 0.879678
vn 0.000000 0.475569 0.879678
vn -0.952929 0.003549 0.303173
vn -0.952929 0.003549 0.303173
vn -0.952929 0.003549 0.303173
vn 0.952929 0.003549 0.303173
vn 0.952929 0.003549 0.303173
vn 0.952929 0.003549 0.303173
vn 0.953181 0.002060 0.302395
vn 0.953181 0.002060 0.302395
vn 0.953181 0.002060 0.302395
vn -0.953180 0.002060 0.302397
vn -0.953180 0.002060 0.302397
vn -0.953180 0.002060 0.302397
vn 0.000000 -0.698879 0.715240
vn 0.000000 -0.698879 0.715240
vn 0.000000 -0.698879 0.715240
vn 0.000000 -0.276917 -0.960894
vn 0.000000 -0.276917 -0.960894
vn 0.000000 -0.276917 -0.960894
vn 0.985031 0.013385 -0.171857
vn 0.985031 0.013385 -0.171857
vn 0.985031 0.013385 -0.171857
vn 0.985031 0.013385 -0.171857
vn 0.983293 0.014111 -0.181482
vn 0.983293 0.014111 -0.181482
vn 0.983293 0.014111 -0.181482
vn 0.983293 0.014111 -0.181482
vn -0.984333 0.015331 -0.175653
vn -0.984333 0.015331 -0.175653
vn -0.984333 0.015331 -0.175653
vn 0.000000 0.365239 -0.930914
vn 0.000000 0.365239 -0.930914
vn 0.000000 0.365239 -0.930914
vn 0.984333 0.015331 -0.175653
vn 0.984333 0.015331 -0.175653
vn 0.984333 0.015331 -0.175653
vn -0.985031 0.013385 -0.171857
vn -0.985031 0.013385 -0.171857
vn -0.985031 0.013385 -0.171857
vn -0.985031 0.013385 -0.171857
vn -0.983293 0.014111 -0.181482
vn -0.983293 0.014111 -0.181482
vn -0.983293 0.014111 -0.181482
vn -0.983293 0.014111 -0.181482
vn -0.868484 -0.003451 -0.495705
vn -0.868484 -0.003451 -0.495705
vn -0.868484 -0.003451 -0.495705
vn -0.893838 0.013567 -0.448185
vn -0.893838 0.013567 -0.448185
vn -0.893838 0.013567 -0.448185
vn 0.900750 0.014412 -0.434099
vn 0.900750 0.014412 -0.434099
vn 0.900750 0.014412 -0.434099
vn 0.888768 -0.002842 -0.458350
vn 0.888768 -0.002842 -0.458350
vn 0.888768 -0.002842 -0.458350
vn -0.475744 0.257852 -0.840940
vn -0.475744 0.257852 -0.840940
vn -0.475744 0.257852 -0.840940
vn 0.904373 0.000059 -0.426742
vn 0.904373 0.000059 -0.426742
vn 0.904373 0.000059 -0.426742
vn 0.904373 0.000059 -0.426742
vn 0.938121 0.007048 -0.346235
vn 0.938121 0.007048 -0.346235
vn 0.938121 0.007048 -0.346235
vn 0.938121 0.007048 -0.346235
vn -0.941504 0.006180 -0.336946
vn -0.941504 0.006180 -0.336946
vn -0.941504 0.006180 -0.336946
vn -0.941504 0.006180 -0.336946
vn -0.908681 0.000866 -0.417490
vn -0.908681 0.000866 -0.417490
vn -0.908681 0.000866 -0.417490
vn -0.908681 0.000866 -0.417490
s off
f 32/4/1 29/1/2 30/2/3 31/3/4
f 15/7/5 16/8/6 44/44/7
f 17/9/8 41/41/9 28/12/10
f 34/14/11 32/4/12 31/3/13 33/13/14
f 29/1/15 36/15/16 35/16/17 30/2/18
f 21/17/19 18/10/20 17/9/21
f 16/8/22 15/7/23 22/18/24
f 2/19/25 11/20/26 10/21/27
f 1/22/28 9/23/29 12/24/30
f 25/6/31 26/25/32 6/26/33 15/7/34
f 5/27/35 23/28/36 24/5/37 16/8/38
f 6/26/39 26/25/40 27/11/41 18/10/42
f 28/12/43 23/28/44 5/27/45 17/9/46
f 55/55/47 53/53/48 54/54/49
f 4/30/50 1/22/51 12/24/52 13/31/53
f 1/22/54 4/30/55 20/33/56 9/23/57
f 5/27/58 7/35/59 21/17/60 17/9/61
f 7/35/62 5/27/63 16/8/64 22/18/65
f 3/36/66 8/34/67 21/17/68 22/18/69
f 21/17/70 3/36/71 22/18/72
f 8/34/73 3/36/74 22/18/75
f 3/36/76 7/35/77 22/18/78
f 24/5/79 45/45/80 4/30/81 13/31/82
f 43/43/83 38/38/84 37/37/85
f 36/15/86 40/39/87 39/40/88 35/16/89
f 4/30/90 45/45/91 28/12/92 20/33/93
f 10/21/94 11/20/95 31/3/96 30/2/97
f 12/24/98 9/23/99 29/1/100 32/4/101
f 11/20/102 14/29/103 33/13/104 31/3/105
f 13/31/106 12/24/107 32/4/108 34/14/109
f 19/32/110 10/21/111 30/2/112 35/16/113
f 9/23/114 20/33/115 36/15/116 29/1/117
f 14/29/118 25/6/119 37/37/120 33/13/121
f 44/44/122 24/5/123 38/38/124 43/43/125
f 24/5/126 13/31/127 34/14/128 38/38/129
f 28/12/130 41/41/131 42/42/132 40/39/133
f 27/11/134 19/32/135 35/16/136 39/40/137
f 20/33/138 28/12/139 40/39/140 36/15/141
f 41/41/142 18/10/143 27/11/144
f 42/42/145 41/41/146 27/11/147 39/40/148
f 25/6/149 44/44/150 43/43/151 37/37/152
f 24/5/153 44/44/154 16/8/155
f 15/7/156 44/44/157 25/6/158
f 41/41/159 17/9/160 18/10/161
f 37/37/162 38/38/163 34/14/164 33/13/165
f 39/40/166 40/39/167 42/42/168
f 7/35/169 3/36/170 21/17/171
f 46/46/172 45/45/173 47/47/174
f 28/12/175 45/45/176 46/46/177
f 24/5/178 47/47/179 45/45/180
f 24/5/181 23/28/182 47/47/183
f 28/12/184 46/46/185 23/28/186
f 46/46/187 47/47/188 23/28/189
f 50/50/190 48/48/191 51/51/192
f 22/18/193 51/51/194 48/48/195 8/34/196
f 6/26/197 49/49/198 51/51/199 15/7/200
f 50/50/201 18/10/202 21/17/203
f 50/50/204 51/51/205 49/49/206
f 22/18/207 15/7/208 51/51/209
f 8/34/210 48/48/211 50/50/212 21/17/213
f 18/10/214 50/50/215 49/49/216 6/26/217
f 55/55/218 10/21/219 19/32/220
f 27/11/221 55/55/222 19/32/223
f 54/54/224 25/6/225 14/29/226
f 11/20/227 54/54/228 14/29/229
f 55/55/230 54/54/231 52/52/232
f 2/19/233 52/52/234 54/54/235 11/20/236
f 54/54/237 53/53/238 26/25/239 25/6/240
f 27/11/241 26/25/242 53/53/243 55/55/244
f 55/55/245 52/52/246 2/19/247 10/21/248
