# This file uses centimeters as units for non-parametric coordinates.

v 0.000000 13.671968 2.617074
v 0.000000 13.671968 -2.617075
v 0.000000 135.000000 0.000000
v 0.000000 40.240623 -2.617079
v 0.000000 119.510841 1.998522
v 0.000000 119.510841 -1.998518
v 0.000000 131.967987 1.372087
v 0.000000 131.967987 -1.372084
v -0.941577 13.671968 -0.000000
v 0.941577 13.671968 -0.000000
v 0.941663 40.228336 -0.370430
v 0.515865 119.419464 -0.000002
v -0.515865 119.419464 -0.000002
v -0.941662 40.228329 -0.370429
v -0.367056 131.257370 -0.000002
v 0.367056 131.257385 -0.000002
v 0.000000 79.612717 2.309855
v 0.668161 79.561157 -0.000002
v 0.000000 79.612717 -2.309851
v -0.668161 79.561157 -0.000002
v 0.000000 116.344200 -2.023232
v 0.000000 113.041374 -2.101059
v 0.128966 115.662514 -1.523596
v -0.128966 115.662514 -1.523596
v 0.000000 45.089844 2.563535
v 0.000000 38.592266 2.593808
v 0.235415 40.237553 1.870198
v -0.235415 40.237553 1.870198
vt 0.090108 0.374996
vt 0.090120 0.374993
vt 0.090479 0.375164
vt 0.090477 0.375169
vt 0.090117 0.375005
vt 0.090614 0.375231
vt 0.090616 0.375227
vt 0.089711 0.374789
vt 0.089695 0.374791
vt 0.089700 0.374803
vt 0.089661 0.374820
vt 0.089678 0.374817
vt 0.089672 0.374806
vt 0.090125 0.374976
vt 0.090489 0.375142
vt 0.090469 0.375193
vt 0.090089 0.375019
vt 0.089858 0.374854
vt 0.089843 0.374858
vt 0.089821 0.374875
vt 0.089847 0.374869
vt 0.089825 0.374886
vt 0.090628 0.375214
vt 0.090619 0.375253
vt 0.090661 0.375250
vt 0.090470 0.375133
vt 0.090288 0.375050
vt 0.090465 0.375144
vt 0.090464 0.375147
vt 0.089950 0.374955
vt 0.089736 0.374856
vt 0.089816 0.374883
vt 0.089818 0.374889
vn 0.000000 -1.000000 -0.000000
vn 0.000000 -1.000000 -0.000000
vn 0.000000 -1.000000 -0.000000
vn 0.000000 -1.000000 0.000000
vn 0.000000 -1.000000 0.000000
vn 0.000000 -1.000000 0.000000
vn 0.964270 0.002875 0.264905
vn 0.964270 0.002875 0.264905
vn 0.964270 0.002875 0.264905
vn 0.964270 0.002875 0.264905
vn 0.000000 -0.591154 -0.806559
vn 0.000000 -0.591154 -0.806559
vn 0.000000 -0.591154 -0.806559
vn -0.964270 0.002875 0.264905
vn -0.964270 0.002875 0.264905
vn -0.964270 0.002875 0.264905
vn -0.964270 0.002875 0.264905
vn 0.932530 -0.002519 -0.361083
vn 0.932530 -0.002519 -0.361083
vn 0.932530 -0.002519 -0.361083
vn 0.932530 -0.002519 -0.361083
vn -0.932530 -0.002519 -0.361083
vn -0.932530 -0.002519 -0.361083
vn -0.932530 -0.002519 -0.361083
vn -0.932530 -0.002519 -0.361083
vn -0.968007 0.012391 -0.250619
vn -0.968007 0.012391 -0.250619
vn -0.968007 0.012391 -0.250619
vn -0.968007 0.012391 -0.250619
vn -0.968007 0.012391 0.250618
vn -0.968007 0.012391 0.250618
vn -0.968007 0.012391 0.250618
vn -0.968007 0.012391 0.250618
vn 0.968007 0.012391 -0.250619
vn 0.968007 0.012391 -0.250619
vn 0.968007 0.012391 -0.250619
vn 0.968007 0.012391 -0.250619
vn 0.968007 0.012391 0.250618
vn 0.968007 0.012391 0.250618
vn 0.968007 0.012391 0.250618
vn 0.968007 0.012391 0.250618
vn -0.948758 0.093049 0.301995
vn -0.948758 0.093049 0.301995
vn -0.948758 0.093049 0.301995
vn -0.948758 0.093049 0.301995
vn -0.000000 0.000001 -1.000000
vn -0.000000 0.000001 -1.000000
vn -0.000000 0.000001 -1.000000
vn 0.972853 0.095413 -0.210840
vn 0.972853 0.095413 -0.210840
vn 0.972853 0.095413 -0.210840
vn 0.972853 0.095412 0.210839
vn 0.972853 0.095412 0.210839
vn 0.972853 0.095412 0.210839
vn 0.942892 0.006144 -0.333041
vn 0.942892 0.006144 -0.333041
vn 0.942892 0.006144 -0.333041
vn 0.942892 0.006144 -0.333041
vn -0.942893 0.006144 -0.333040
vn -0.942893 0.006144 -0.333040
vn -0.942893 0.006144 -0.333040
vn -0.942893 0.006144 -0.333040
vn 0.000001 0.402592 0.915380
vn 0.000001 0.402592 0.915380
vn 0.000001 0.402592 0.915380
vn -0.972853 0.095412 0.210843
vn -0.972853 0.095412 0.210843
vn -0.972853 0.095412 0.210843
vn 0.967020 0.003695 -0.254674
vn 0.967020 0.003695 -0.254674
vn 0.967020 0.003695 -0.254674
vn -0.967020 0.003695 -0.254674
vn -0.967020 0.003695 -0.254674
vn -0.967020 0.003695 -0.254674
vn -0.968387 0.001669 -0.249446
vn -0.968387 0.001669 -0.249446
vn -0.968387 0.001669 -0.249446
vn -0.968387 0.001669 -0.249446
vn 0.968387 0.001669 -0.249447
vn 0.968387 0.001669 -0.249447
vn 0.968387 0.001669 -0.249447
vn 0.968387 0.001669 -0.249447
vn 0.000000 0.215151 -0.976581
vn 0.000000 0.215151 -0.976581
vn 0.000000 0.215151 -0.976581
vn 0.963386 0.002401 -0.268108
vn 0.963386 0.002401 -0.268108
vn 0.963386 0.002401 -0.268108
vn 0.963386 0.002401 -0.268108
vn -0.963386 0.002401 -0.268108
vn -0.963386 0.002401 -0.268108
vn -0.963386 0.002401 -0.268108
vn -0.963386 0.002401 -0.268108
vn -0.953740 0.004190 0.300602
vn -0.953740 0.004190 0.300602
vn -0.953740 0.004190 0.300602
vn 0.953740 0.004190 0.300602
vn 0.953740 0.004190 0.300602
vn 0.953740 0.004190 0.300602
vn 0.953741 0.003801 0.300604
vn 0.953741 0.003801 0.300604
vn 0.953741 0.003801 0.300604
vn -0.953741 0.003801 0.300604
vn -0.953741 0.003801 0.300604
vn -0.953741 0.003801 0.300604
vn 0.000001 -0.141452 0.989945
vn 0.000001 -0.141452 0.989945
vn 0.000001 -0.141452 0.989945
vn 0.958738 0.002558 0.284281
vn 0.958738 0.002558 0.284281
vn 0.958738 0.002558 0.284281
vn 0.958738 0.002558 0.284281
vn 0.943019 0.000998 0.332737
vn 0.943019 0.000998 0.332737
vn 0.943019 0.000998 0.332737
vn 0.943019 0.000998 0.332737
vn -0.943019 0.000998 0.332737
vn -0.943019 0.000998 0.332737
vn -0.943019 0.000998 0.332737
vn -0.943019 0.000998 0.332737
vn -0.958738 0.002558 0.284281
vn -0.958738 0.002558 0.284281
vn -0.958738 0.002558 0.284281
vn -0.958738 0.002558 0.284281
s off
f 2/8/1 10/9/2 9/10/3
f 1/11/4 9/12/5 10/13/6
f 5/16/7 17/17/8 18/1/9 12/3/10
f 23/28/11 24/29/12 21/26/13
f 20/5/14 17/17/15 5/16/16 13/4/17
f 2/8/18 4/18/19 11/19/20 10/9/21
f 4/18/22 2/8/23 9/10/24 14/21/25
f 8/23/26 6/15/27 13/4/28 15/6/29
f 5/16/30 7/24/31 15/6/32 13/4/33
f 6/15/34 8/23/35 16/7/36 12/3/37
f 7/24/38 5/16/39 12/3/40 16/7/41
f 3/25/42 8/23/43 15/6/44 16/7/45
f 15/6/46 3/25/47 16/7/48
f 8/23/49 3/25/50 16/7/51
f 3/25/52 7/24/53 16/7/54
f 4/18/55 19/14/56 18/2/57 11/19/58
f 20/5/59 19/14/60 4/18/61 14/21/62
f 27/32/63 28/33/64 26/31/65
f 7/24/66 3/25/67 15/6/68
f 18/2/69 23/28/70 12/3/71
f 13/4/72 24/29/73 20/5/74
f 6/15/75 21/26/76 24/29/77 13/4/78
f 12/3/79 23/28/80 21/26/81 6/15/82
f 23/28/83 22/27/84 24/29/85
f 18/2/86 19/14/87 22/27/88 23/28/89
f 20/5/90 24/29/91 22/27/92 19/14/93
f 9/12/94 28/33/95 14/22/96
f 27/32/97 10/13/98 11/20/99
f 18/1/100 27/32/101 11/20/102
f 28/33/103 20/5/104 14/22/105
f 27/32/106 25/30/107 28/33/108
f 18/1/109 17/17/110 25/30/111 27/32/112
f 27/32/113 26/31/114 1/11/115 10/13/116
f 1/11/117 26/31/118 28/33/119 9/12/120
f 28/33/121 25/30/122 17/17/123 20/5/124
