# This file uses centimeters as units for non-parametric coordinates.

v 0.000000 79.863251 0.000000
v 0.000000 71.468979 2.998085
v 0.000000 71.468979 -2.998039
v 0.000000 76.831238 2.058350
v 0.000001 76.831238 -2.058350
v -0.941577 24.898970 1.259371
v -0.941577 24.898970 -1.259371
v 0.941577 24.898970 -1.259371
v 0.941577 24.898970 1.259371
v 0.941663 44.232712 1.259369
v 0.941663 44.232712 -1.259369
v -0.941662 44.232708 -1.259369
v -0.941662 44.232708 1.259369
v -0.367056 76.120636 0.000000
v 0.367057 76.120636 0.000000
v 0.000000 66.519440 3.195595
v 0.668161 66.467880 1.259369
v 0.668161 66.467880 -1.259369
v 0.000000 66.519440 -3.195583
v -0.668161 66.467880 -1.259369
v -0.668161 66.467880 1.259369
v -0.668161 70.076706 0.000000
v 0.668161 70.076706 0.000000
v 0.333846 24.898970 -2.160238
v -0.333760 24.898970 -2.160238
v -0.333760 38.910179 -3.195583
v 0.000000 45.813210 -3.195583
v 0.333846 38.910183 -3.195583
v 0.333846 24.898970 2.160263
v -0.333760 24.898970 2.160263
v -0.333760 38.910179 3.195583
v 0.333846 38.910183 3.195583
v 0.000000 45.813210 3.195583
v 0.941585 27.432915 -1.259371
v 0.941585 27.432915 1.259371
v 0.333846 27.432911 3.195583
v -0.333760 27.432911 3.195583
v -0.941585 27.432911 1.259371
v -0.941585 27.432911 -1.259371
v -0.333760 27.432911 -3.195583
v 0.333846 27.432911 -3.195583
v 0.794007 55.479897 -1.259369
v 0.823150 53.193295 1.259369
v -0.789574 56.798729 -1.259369
v -0.818555 54.560543 1.259369
v 0.000000 47.600414 3.195583
v 0.000000 52.965145 3.195583
v 0.205787 48.722149 2.711517
v -0.204639 49.063961 2.711517
v 0.000000 56.648262 -3.195583
v 0.000000 64.059700 -3.195583
v -0.197393 61.290825 -2.711517
v 0.198502 60.961128 -2.711517
v -0.941614 32.277145 -0.845663
v -0.941621 34.313271 0.845665
v -0.333760 30.363182 -2.884867
v 0.333846 35.146748 2.947750
v 0.941611 31.196709 -0.911442
v 0.941618 33.232826 0.911442
v -0.333760 35.529751 3.195583
v 0.333846 29.980156 -3.195583
vt 0.091403 0.377528
vt 0.091023 0.377354
vt 0.091033 0.377336
vt 0.091041 0.377328
vt 0.091034 0.377344
vt 0.091041 0.377336
vt 0.091128 0.299123
vt 0.091103 0.299123
vt 0.091099 0.299108
vt 0.091124 0.299108
vt 0.091087 0.299089
vt 0.091111 0.299089
vt 0.091117 0.299095
vt 0.091093 0.299094
vt 0.091102 0.299129
vt 0.091127 0.299129
vt 0.091120 0.299123
vt 0.091096 0.299123
vt 0.091110 0.299095
vt 0.091086 0.299095
vt 0.091089 0.299109
vt 0.091114 0.299110
vt 0.091595 0.377585
vt 0.091562 0.377549
vt 0.091548 0.377566
vt 0.091550 0.377562
vt 0.091553 0.377588
vt 0.091048 0.377328
vt 0.091423 0.377477
vt 0.091059 0.377311
vt 0.090162 0.299109
vt 0.090473 0.299114
vt 0.090547 0.299102
vt 0.090166 0.299096
vt 0.090865 0.299105
vt 0.090485 0.299101
vt 0.090559 0.299089
vt 0.090861 0.299092
vt 0.090165 0.299085
vt 0.090161 0.299098
vt 0.090128 0.299091
vt 0.090130 0.299102
vt 0.091048 0.377319
vt 0.090941 0.377263
vt 0.090944 0.377269
vt 0.091009 0.377288
vt 0.090862 0.377274
vt 0.090794 0.377249
vt 0.090859 0.377268
vt 0.090788 0.377194
vt 0.090793 0.377189
vt 0.090787 0.377190
vt 0.090749 0.377225
vt 0.090748 0.377221
vt 0.090745 0.377227
vt 0.090777 0.377193
vt 0.090781 0.377204
vt 0.090759 0.377222
vt 0.090755 0.377210
vt 0.091021 0.299107
vt 0.090996 0.299093
vt 0.090908 0.299087
vt 0.090973 0.299088
vt 0.090968 0.299093
vt 0.090983 0.299108
vt 0.090863 0.299120
vt 0.091008 0.299122
vt 0.090859 0.299107
vt 0.090919 0.299126
vt 0.091032 0.299128
vt 0.091037 0.299122
vt 0.090876 0.377265
vt 0.090883 0.377277
vt 0.090932 0.377312
vt 0.090875 0.377227
vt 0.090923 0.377261
vt 0.090930 0.377273
vt 0.090907 0.299092
vt 0.090920 0.299121
vn 0.967425 0.042484 0.249569
vn 0.967425 0.042484 0.249569
vn 0.967425 0.042484 0.249569
vn 0.967425 0.042484 0.249569
vn -0.967425 0.042484 0.249569
vn -0.967425 0.042484 0.249569
vn -0.967425 0.042484 0.249569
vn -0.967425 0.042484 0.249569
vn 0.916234 -0.080195 -0.392535
vn 0.916234 -0.080195 -0.392535
vn 0.916234 -0.080195 -0.392535
vn 0.916234 -0.080195 -0.392535
vn 0.916235 -0.080192 0.392533
vn 0.916235 -0.080192 0.392533
vn 0.916235 -0.080192 0.392533
vn 0.916235 -0.080192 0.392533
vn -0.916213 -0.080204 -0.392583
vn -0.916213 -0.080204 -0.392583
vn -0.916213 -0.080204 -0.392583
vn -0.916213 -0.080204 -0.392583
vn -0.916215 -0.080202 0.392579
vn -0.916215 -0.080202 0.392579
vn -0.916215 -0.080202 0.392579
vn -0.916215 -0.080202 0.392579
vn -0.973751 0.095500 0.206615
vn -0.973751 0.095500 0.206615
vn -0.973751 0.095500 0.206615
vn -0.973751 0.095500 0.206615
vn 0.000000 0.000000 -1.000000
vn 0.000000 0.000000 -1.000000
vn 0.000000 0.000000 -1.000000
vn 0.985095 0.096613 -0.142314
vn 0.985095 0.096613 -0.142314
vn 0.985095 0.096613 -0.142314
vn 0.985095 0.096613 0.142314
vn 0.985095 0.096613 0.142314
vn 0.985095 0.096613 0.142314
vn -0.967424 0.042485 -0.249571
vn -0.967424 0.042485 -0.249571
vn -0.967424 0.042485 -0.249571
vn -0.967424 0.042485 -0.249571
vn -0.985095 0.096613 0.142314
vn -0.985095 0.096613 0.142314
vn -0.985095 0.096613 0.142314
vn -0.999921 0.012596 -0.000156
vn -0.999921 0.012596 -0.000156
vn -0.999921 0.012596 -0.000156
vn -0.999921 0.012596 -0.000156
vn -1.000000 -0.000003 -0.000000
vn -1.000000 -0.000003 -0.000000
vn -1.000000 -0.000003 -0.000000
vn -1.000000 -0.000003 -0.000000
vn 0.000000 -1.000000 -0.000000
vn 0.000000 -1.000000 -0.000000
vn 0.000000 -1.000000 -0.000000
vn 0.000000 -1.000000 -0.000000
vn 1.000000 -0.000003 0.000000
vn 1.000000 -0.000003 0.000000
vn 1.000000 -0.000003 0.000000
vn 1.000000 -0.000003 0.000000
vn 0.999913 0.013170 0.000194
vn 0.999913 0.013170 0.000194
vn 0.999913 0.013170 0.000194
vn 0.999913 0.013170 0.000194
vn 1.000000 0.000000 0.000000
vn 1.000000 0.000000 0.000000
vn 1.000000 0.000000 0.000000
vn -1.000000 0.000000 0.000000
vn -1.000000 0.000000 0.000000
vn -1.000000 0.000000 0.000000
vn 0.982071 0.041082 -0.183979
vn 0.982071 0.041082 -0.183979
vn 0.982071 0.041082 -0.183979
vn 0.982071 0.041082 -0.183979
vn 0.982072 0.041083 0.183977
vn 0.982072 0.041083 0.183977
vn 0.982072 0.041083 0.183977
vn 0.982072 0.041083 0.183977
vn 0.967424 0.042485 -0.249571
vn 0.967424 0.042485 -0.249571
vn 0.967424 0.042485 -0.249571
vn 0.967424 0.042485 -0.249571
vn -0.982072 0.041083 0.183977
vn -0.982072 0.041083 0.183977
vn -0.982072 0.041083 0.183977
vn -0.982072 0.041083 0.183977
vn -0.982071 0.041082 -0.183979
vn -0.982071 0.041082 -0.183979
vn -0.982071 0.041082 -0.183979
vn -0.982071 0.041082 -0.183979
vn 0.000000 -1.000000 0.000000
vn 0.000000 -1.000000 0.000000
vn 0.000000 -1.000000 0.000000
vn 0.000000 -1.000000 0.000000
vn -0.134369 -0.161348 -0.977708
vn -0.134369 -0.161348 -0.977708
vn -0.134369 -0.161348 -0.977708
vn 0.000000 -1.000000 0.000002
vn 0.000000 -1.000000 0.000002
vn 0.000000 -1.000000 0.000002
vn 0.000000 -1.000000 0.000002
vn 0.280271 0.336532 0.898996
vn 0.280271 0.336532 0.898996
vn 0.280271 0.336532 0.898996
vn 0.000000 -0.378236 -0.925709
vn 0.000000 -0.378236 -0.925709
vn 0.000000 -0.378236 -0.925709
vn 0.000000 -0.378236 -0.925709
vn 0.000000 -0.378228 0.925712
vn 0.000000 -0.378228 0.925712
vn 0.000000 -0.378228 0.925712
vn 0.000000 -0.378228 0.925712
vn 0.000001 0.000000 -1.000000
vn 0.000001 0.000000 -1.000000
vn 0.000001 0.000000 -1.000000
vn 0.000001 0.000000 1.000000
vn 0.000001 0.000000 1.000000
vn 0.000001 0.000000 1.000000
vn 0.912101 0.044111 -0.407586
vn 0.912101 0.044111 -0.407586
vn 0.912101 0.044111 -0.407586
vn -0.912098 0.044100 -0.407593
vn -0.912098 0.044100 -0.407593
vn -0.912098 0.044100 -0.407593
vn -0.912098 0.044100 0.407593
vn -0.912098 0.044100 0.407593
vn -0.912098 0.044100 0.407593
vn 0.912101 0.044111 0.407586
vn 0.912101 0.044111 0.407586
vn 0.912101 0.044111 0.407586
vn 1.000000 -0.000006 0.000001
vn 1.000000 -0.000006 0.000001
vn 1.000000 -0.000006 0.000001
vn 1.000000 -0.000006 0.000001
vn 0.958876 -0.011447 0.283593
vn 0.958876 -0.011447 0.283593
vn 0.958876 -0.011447 0.283593
vn 0.958876 -0.011447 0.283593
vn 0.186742 0.015397 0.982288
vn 0.186742 0.015397 0.982288
vn 0.186742 0.015397 0.982288
vn 0.186742 0.015397 0.982288
vn -0.962580 0.007480 0.270896
vn -0.962580 0.007480 0.270896
vn -0.962580 0.007480 0.270896
vn -0.962580 0.007480 0.270896
vn -1.000000 -0.000004 0.000000
vn -1.000000 -0.000004 0.000000
vn -1.000000 -0.000004 0.000000
vn -1.000000 -0.000004 0.000000
vn -0.961066 -0.009759 -0.276147
vn -0.961066 -0.009759 -0.276147
vn -0.961066 -0.009759 -0.276147
vn -0.961066 -0.009759 -0.276147
vn -0.211214 0.055357 -0.975871
vn -0.211214 0.055357 -0.975871
vn -0.211214 0.055357 -0.975871
vn -0.211214 0.055357 -0.975871
vn 0.959628 0.015479 -0.280845
vn 0.959628 0.015479 -0.280845
vn 0.959628 0.015479 -0.280845
vn 0.959628 0.015479 -0.280845
vn -0.999928 0.012020 -0.000412
vn -0.999928 0.012020 -0.000412
vn -0.999928 0.012020 -0.000412
vn -0.999928 0.012020 -0.000412
vn 0.999933 0.011574 -0.000531
vn 0.999933 0.011574 -0.000531
vn 0.999933 0.011574 -0.000531
vn 0.999933 0.011574 -0.000531
vn 0.906398 0.011988 0.422255
vn 0.906398 0.011988 0.422255
vn 0.906398 0.011988 0.422255
vn 0.908065 0.010602 0.418696
vn 0.908065 0.010602 0.418696
vn 0.908065 0.010602 0.418696
vn -0.904765 0.011427 0.425757
vn -0.904765 0.011427 0.425757
vn -0.904765 0.011427 0.425757
vn -0.905708 0.010796 0.423765
vn -0.905708 0.010796 0.423765
vn -0.905708 0.010796 0.423765
vn -0.097849 -0.117490 0.988242
vn -0.097849 -0.117490 0.988242
vn -0.097849 -0.117490 0.988242
vn 0.941531 0.001723 0.336923
vn 0.941531 0.001723 0.336923
vn 0.941531 0.001723 0.336923
vn 0.941531 0.001723 0.336923
vn 0.904093 0.007143 0.427275
vn 0.904093 0.007143 0.427275
vn 0.904093 0.007143 0.427275
vn 0.904093 0.007143 0.427275
vn -0.903865 0.006798 0.427764
vn -0.903865 0.006798 0.427764
vn -0.903865 0.006798 0.427764
vn -0.903865 0.006798 0.427764
vn -0.941583 0.001699 0.336777
vn -0.941583 0.001699 0.336777
vn -0.941583 0.001699 0.336777
vn -0.941583 0.001699 0.336777
vn -0.903899 0.001850 -0.427742
vn -0.903899 0.001850 -0.427742
vn -0.903899 0.001850 -0.427742
vn -0.903899 0.001850 -0.427742
vn -0.943387 0.004910 -0.331657
vn -0.943387 0.004910 -0.331657
vn -0.943387 0.004910 -0.331657
vn -0.943387 0.004910 -0.331657
vn 0.938765 0.010752 -0.344391
vn 0.938765 0.010752 -0.344391
vn 0.938765 0.010752 -0.344391
vn 0.940656 0.012349 -0.339137
vn 0.940656 0.012349 -0.339137
vn 0.940656 0.012349 -0.339137
vn 0.089141 0.107040 -0.990251
vn 0.089141 0.107040 -0.990251
vn 0.089141 0.107040 -0.990251
vn 0.903846 0.001828 -0.427855
vn 0.903846 0.001828 -0.427855
vn 0.903846 0.001828 -0.427855
vn 0.903846 0.001828 -0.427855
vn 0.943424 0.004817 -0.331555
vn 0.943424 0.004817 -0.331555
vn 0.943424 0.004817 -0.331555
vn 0.943424 0.004817 -0.331555
vn -0.937693 0.011349 -0.347281
vn -0.937693 0.011349 -0.347281
vn -0.937693 0.011349 -0.347281
vn -0.938116 0.011780 -0.346121
vn -0.938116 0.011780 -0.346121
vn -0.938116 0.011780 -0.346121
vn 1.000000 -0.000004 0.000000
vn 1.000000 -0.000004 0.000000
vn 1.000000 -0.000004 0.000000
vn 1.000000 -0.000004 0.000000
vn 0.957851 0.012650 0.286989
vn 0.957851 0.012650 0.286989
vn 0.957851 0.012650 0.286989
vn 0.957851 0.012650 0.286989
vn 0.172912 -0.034149 0.984345
vn 0.172912 -0.034149 0.984345
vn 0.172912 -0.034149 0.984345
vn 0.172912 -0.034149 0.984345
vn -0.964064 -0.008263 0.265541
vn -0.964064 -0.008263 0.265541
vn -0.964064 -0.008263 0.265541
vn -0.964064 -0.008263 0.265541
vn -1.000000 -0.000006 0.000001
vn -1.000000 -0.000006 0.000001
vn -1.000000 -0.000006 0.000001
vn -1.000000 -0.000006 0.000001
vn -0.951996 0.028397 -0.304791
vn -0.951996 0.028397 -0.304791
vn -0.951996 0.028397 -0.304791
vn -0.951996 0.028397 -0.304791
vn -0.231323 -0.017294 -0.972723
vn -0.231323 -0.017294 -0.972723
vn -0.231323 -0.017294 -0.972723
vn -0.231323 -0.017294 -0.972723
vn 0.962673 -0.004289 -0.270632
vn 0.962673 -0.004289 -0.270632
vn 0.962673 -0.004289 -0.270632
vn 0.962673 -0.004289 -0.270632
s off
f 2/1/1 16/2/2 17/3/3 23/4/4
f 21/5/5 16/2/6 2/1/7 22/6/8
f 24/7/9 41/8/10 34/9/11 8/10/12
f 36/11/13 29/12/14 9/13/15 35/14/16
f 40/15/17 25/16/18 7/17/19 39/18/20
f 30/19/21 37/20/22 38/21/23 6/22/24
f 1/23/25 5/24/26 14/25/27 15/26/28
f 14/25/29 1/23/30 15/26/31
f 5/24/32 1/23/33 15/26/34
f 1/23/35 4/27/36 15/26/37
f 20/28/38 22/6/39 3/29/40 19/30/41
f 4/27/42 1/23/43 14/25/44
f 20/31/45 44/32/46 45/33/47 21/34/48
f 39/18/49 7/17/50 6/22/51 38/21/52
f 7/17/53 8/10/54 9/13/55 6/22/56
f 8/10/57 34/9/58 35/14/59 9/13/60
f 11/35/61 42/36/62 43/37/63 10/38/64
f 17/39/65 18/40/66 23/41/67
f 21/34/68 22/42/69 20/31/70
f 23/4/71 3/29/72 5/24/73 15/26/74
f 2/1/75 23/4/76 15/26/77 4/27/78
f 3/29/79 23/4/80 18/43/81 19/30/82
f 22/6/83 2/1/84 4/27/85 14/25/86
f 3/29/87 22/6/88 14/25/89 5/24/90
f 25/16/91 24/7/92 8/10/93 7/17/94
f 53/44/95 52/45/96 51/46/97
f 29/12/98 30/19/99 6/22/100 9/13/101
f 49/47/102 46/48/103 48/49/104
f 24/7/105 25/16/106 40/15/107 41/8/108
f 30/19/109 29/12/110 36/11/111 37/20/112
f 26/50/113 27/51/114 28/52/115
f 31/53/116 32/54/117 33/55/118
f 28/52/119 27/51/120 11/56/121
f 12/57/122 27/51/123 26/50/124
f 31/53/125 33/55/126 13/58/127
f 10/59/128 33/55/129 32/54/130
f 34/9/131 58/60/132 59/61/133 35/14/134
f 32/62/135 57/63/136 59/61/137 10/38/138
f 37/20/139 36/11/140 57/63/141 60/64/142
f 38/21/143 37/20/144 60/64/145 55/65/146
f 12/66/147 54/67/148 55/65/149 13/68/150
f 26/69/151 56/70/152 54/67/153 12/66/154
f 41/8/155 40/15/156 56/70/157 61/71/158
f 34/9/159 41/8/160 61/71/161 58/60/162
f 45/33/163 44/32/164 12/66/165 13/68/166
f 43/37/167 42/36/168 18/40/169 17/39/170
f 43/72/171 48/49/172 10/59/173
f 17/3/174 48/49/175 43/72/176
f 45/73/177 49/47/178 21/5/179
f 13/58/180 49/47/181 45/73/182
f 49/47/183 48/49/184 47/74/185
f 17/3/186 16/2/187 47/74/188 48/49/189
f 10/59/190 48/49/191 46/48/192 33/55/193
f 13/58/194 33/55/195 46/48/196 49/47/197
f 21/5/198 49/47/199 47/74/200 16/2/201
f 12/57/202 52/45/203 50/75/204 27/51/205
f 20/28/206 19/30/207 51/46/208 52/45/209
f 42/76/210 53/44/211 18/43/212
f 11/56/213 53/44/214 42/76/215
f 53/44/216 50/75/217 52/45/218
f 11/56/219 27/51/220 50/75/221 53/44/222
f 18/43/223 53/44/224 51/46/225 19/30/226
f 44/77/227 52/45/228 12/57/229
f 20/28/230 52/45/231 44/77/232
f 59/61/233 58/60/234 11/35/235 10/38/236
f 59/61/237 57/63/238 36/11/239 35/14/240
f 60/64/241 57/63/242 32/62/243 31/78/244
f 55/65/245 60/64/246 31/78/247 13/68/248
f 55/65/249 54/67/250 39/18/251 38/21/252
f 54/67/253 56/70/254 40/15/255 39/18/256
f 61/71/257 56/70/258 26/69/259 28/79/260
f 58/60/261 61/71/262 28/79/263 11/35/264
