# This file uses centimeters as units for non-parametric coordinates.

v 2.323170 11.149173 -1.341284
v 2.323171 11.149173 1.341283
v 0.000000 11.149173 2.682567
v -2.323170 11.149173 1.341284
v -2.323171 11.149173 -1.341283
v 0.000000 11.149173 -2.682567
v 1.225152 -9.992993 -0.707342
v 1.225152 -9.992993 0.707341
v 0.000000 -9.992993 1.414683
v -1.225152 -9.992993 0.707342
v -1.225152 -9.992993 -0.707341
v 0.000000 -9.992993 -1.414683
v 2.452507 0.000000 -1.415956
v 0.000000 0.000000 -2.831911
v -2.452507 0.000000 -1.415955
v -2.452507 0.000000 1.415956
v 0.000000 0.000000 2.831911
v 2.452507 0.000000 1.415955
v 1.874248 5.632729 -1.082098
v 1.874248 5.632729 1.082097
v 0.000000 5.632729 2.164195
v -1.874248 5.632729 1.082098
v -1.874248 5.632729 -1.082097
v 0.000000 5.632729 -2.164195
v 2.124978 -0.447783 -1.226857
v 0.000000 -0.447783 -2.453713
v -2.124978 -0.447783 -1.226856
v -2.124977 -0.447783 1.226857
v 0.000000 -0.447783 2.453713
v 2.124978 -0.447783 1.226856
v -1.537891 -14.948186 -3.300395
v -1.537891 -11.137220 -3.300395
v -1.537891 -9.231737 -0.000001
v -1.537891 -11.137218 3.300394
v -1.537891 -14.948183 3.300395
v -1.537891 -16.853668 0.000000
v 1.537891 -14.948185 -3.300395
v 1.537891 -11.137220 -3.300395
v 1.537891 -9.231737 -0.000001
v 1.537891 -11.137218 3.300395
v 1.537891 -14.948183 3.300395
v 1.537891 -16.853668 0.000000
v -0.999226 -13.863745 -1.422090
v -0.999226 -12.221657 -1.422091
v -0.999226 -14.684790 0.000000
v -0.999226 -13.863745 1.422091
v -0.999226 -12.221655 1.422090
v -0.999226 -11.400612 0.000000
v 0.999226 -12.221657 -1.422091
v 0.999226 -11.400614 0.000000
v 0.999226 -12.221657 1.422090
v 0.999226 -13.863745 1.422091
v 0.999226 -14.684790 0.000000
v 0.999226 -13.863745 -1.422090
v -1.699226 -13.575070 -0.922090
v -1.699226 -12.510333 -0.922091
v -1.699226 -14.107439 0.000000
v -1.699226 -13.575070 0.922091
v -1.699226 -12.510332 0.922090
v -1.699226 -11.977963 0.000000
v 1.699226 -12.510333 -0.922091
v 1.699226 -11.977963 0.000000
v 1.699226 -12.510332 0.922090
v 1.699226 -13.575070 0.922091
v 1.699226 -14.107439 0.000000
v 1.699226 -13.575070 -0.922090
v -0.369087 13.976624 14.533270
v -0.369087 13.976624 -14.533270
v 0.369087 13.976624 14.533270
v 0.369087 13.976624 -14.533270
v 0.369087 15.459057 14.983818
v 0.369087 15.459057 -14.983818
v -0.369087 15.459057 14.983818
v -0.369087 15.459057 -14.983818
v 3.075840 15.123714 0.000000
v -3.075840 15.123714 0.000000
v -3.075840 10.854158 0.000000
v 3.075840 10.854159 0.000000
v -1.321499 11.159029 5.993526
v -1.321499 13.261448 5.993526
v 1.321500 13.261448 5.993526
v 1.321500 11.159029 5.993526
v -1.024794 12.053173 11.387703
v -1.024794 14.155596 11.387701
v 1.024794 14.155596 11.387701
v 1.024794 12.053173 11.387703
v 1.321500 13.261448 -5.993527
v -1.321499 13.261448 -5.993527
v -1.321499 11.159029 -5.993527
v 1.321500 11.159029 -5.993527
v 1.024794 14.155596 -11.387702
v -1.024794 14.155596 -11.387702
v -1.024794 12.053173 -11.387702
v 1.024794 12.053173 -11.387702
vt 0.016884 0.251982
vt 0.016890 0.252021
vt 0.016621 0.252000
vt 0.016628 0.251953
vt 0.016888 0.252123
vt 0.016618 0.252128
vt 0.016881 0.252179
vt 0.016622 0.252197
vt 0.016876 0.252135
vt 0.016628 0.252142
vt 0.016878 0.252040
vt 0.016631 0.252026
vt 0.017139 0.251963
vt 0.017120 0.252036
vt 0.017119 0.252154
vt 0.017138 0.252210
vt 0.017158 0.252141
vt 0.017159 0.252011
vt 0.016177 0.252001
vt 0.016162 0.252026
vt 0.016159 0.252091
vt 0.016171 0.252128
vt 0.016186 0.252100
vt 0.016189 0.252038
vt 0.016608 0.251963
vt 0.016611 0.252029
vt 0.016608 0.252136
vt 0.016601 0.252185
vt 0.016597 0.252122
vt 0.016600 0.252006
vt 0.090932 0.277848
vt 0.091389 0.277853
vt 0.091346 0.277675
vt 0.090873 0.277670
vt 0.091595 0.278212
vt 0.091559 0.278044
vt 0.091335 0.278580
vt 0.091289 0.278422
vt 0.090861 0.278575
vt 0.090798 0.278417
vt 0.090665 0.278203
vt 0.090595 0.278035
vt 0.090834 0.278205
vt 0.091003 0.277978
vt 0.090960 0.278440
vt 0.091260 0.278443
vt 0.091426 0.278210
vt 0.091296 0.277980
vt 0.091296 0.277980
vt 0.091003 0.277978
vt 0.090834 0.278205
vt 0.090960 0.278440
vt 0.091260 0.278443
vt 0.091426 0.278210
vt 0.091249 0.277806
vt 0.091384 0.278042
vt 0.091211 0.278281
vt 0.090901 0.278278
vt 0.090770 0.278036
vt 0.090946 0.277803
vt 0.091384 0.278042
vt 0.091249 0.277806
vt 0.091211 0.278281
vt 0.090901 0.278278
vt 0.090770 0.278036
vt 0.090946 0.277803
vt 0.091191 0.275907
vt 0.091193 0.275907
vt 0.091265 0.275719
vt 0.091264 0.275710
vt 0.091258 0.275936
vt 0.091401 0.275769
vt 0.091259 0.275935
vt 0.091396 0.275776
vt 0.091480 0.275260
vt 0.091589 0.275307
vt 0.091595 0.275293
vt 0.091484 0.275245
vt 0.091186 0.276237
vt 0.091077 0.276190
vt 0.091072 0.276196
vt 0.091184 0.276245
vt 0.091423 0.275556
vt 0.091420 0.275563
vt 0.091355 0.275534
vt 0.091356 0.275527
vt 0.091135 0.276082
vt 0.091200 0.276111
vt 0.091199 0.276114
vt 0.091132 0.276085
vt 0.091511 0.275393
vt 0.091507 0.275401
vt 0.091442 0.275373
vt 0.091444 0.275365
vn 0.994772 0.102124 -0.000000
vn 0.994772 0.102124 -0.000000
vn 0.994772 0.102124 -0.000000
vn 0.994772 0.102124 -0.000000
vn 0.497386 0.102124 0.861497
vn 0.497386 0.102124 0.861497
vn 0.497386 0.102124 0.861497
vn 0.497386 0.102124 0.861497
vn -0.497386 0.102124 0.861498
vn -0.497386 0.102124 0.861498
vn -0.497386 0.102124 0.861498
vn -0.497386 0.102124 0.861498
vn -0.994772 0.102124 0.000000
vn -0.994772 0.102124 0.000000
vn -0.994772 0.102124 0.000000
vn -0.994772 0.102124 0.000000
vn -0.497386 0.102124 -0.861497
vn -0.497386 0.102124 -0.861497
vn -0.497386 0.102124 -0.861497
vn -0.497386 0.102124 -0.861497
vn 0.497386 0.102124 -0.861498
vn 0.497386 0.102124 -0.861498
vn 0.497386 0.102124 -0.861498
vn 0.497386 0.102124 -0.861498
vn 0.000000 1.000000 -0.000000
vn 0.000000 1.000000 -0.000000
vn 0.000000 1.000000 -0.000000
vn 0.000000 1.000000 -0.000000
vn 0.000000 1.000000 -0.000000
vn 0.000000 1.000000 -0.000000
vn 0.000000 -1.000000 -0.000000
vn 0.000000 -1.000000 -0.000000
vn 0.000000 -1.000000 -0.000000
vn 0.000000 -1.000000 -0.000000
vn 0.000000 -1.000000 -0.000000
vn 0.000000 -1.000000 -0.000000
vn 0.403565 -0.590373 -0.698996
vn 0.403565 -0.590373 -0.698996
vn 0.403565 -0.590373 -0.698996
vn 0.403565 -0.590373 -0.698996
vn -0.403566 -0.590372 -0.698996
vn -0.403566 -0.590372 -0.698996
vn -0.403566 -0.590372 -0.698996
vn -0.403566 -0.590372 -0.698996
vn -0.807131 -0.590372 0.000000
vn -0.807131 -0.590372 0.000000
vn -0.807131 -0.590372 0.000000
vn -0.807131 -0.590372 0.000000
vn -0.403565 -0.590373 0.698996
vn -0.403565 -0.590373 0.698996
vn -0.403565 -0.590373 0.698996
vn -0.403565 -0.590373 0.698996
vn 0.403566 -0.590373 0.698996
vn 0.403566 -0.590373 0.698996
vn 0.403566 -0.590373 0.698996
vn 0.403566 -0.590373 0.698996
vn 0.807131 -0.590372 -0.000000
vn 0.807131 -0.590372 -0.000000
vn 0.807131 -0.590372 -0.000000
vn 0.807131 -0.590372 -0.000000
vn 0.996705 -0.081111 -0.000000
vn 0.996705 -0.081111 -0.000000
vn 0.996705 -0.081111 -0.000000
vn 0.996705 -0.081111 -0.000000
vn 0.498353 -0.081111 0.863172
vn 0.498353 -0.081111 0.863172
vn 0.498353 -0.081111 0.863172
vn 0.498353 -0.081111 0.863172
vn -0.498353 -0.081111 0.863172
vn -0.498353 -0.081111 0.863172
vn -0.498353 -0.081111 0.863172
vn -0.498353 -0.081111 0.863172
vn -0.996705 -0.081111 0.000000
vn -0.996705 -0.081111 0.000000
vn -0.996705 -0.081111 0.000000
vn -0.996705 -0.081111 0.000000
vn -0.498353 -0.081111 -0.863172
vn -0.498353 -0.081111 -0.863172
vn -0.498353 -0.081111 -0.863172
vn -0.498353 -0.081111 -0.863172
vn 0.498352 -0.081111 -0.863172
vn 0.498352 -0.081111 -0.863172
vn 0.498352 -0.081111 -0.863172
vn 0.498352 -0.081111 -0.863172
vn 0.497793 -0.093854 -0.862203
vn 0.497793 -0.093854 -0.862203
vn 0.497793 -0.093854 -0.862203
vn 0.497793 -0.093854 -0.862203
vn -0.497793 -0.093854 -0.862203
vn -0.497793 -0.093854 -0.862203
vn -0.497793 -0.093854 -0.862203
vn -0.497793 -0.093854 -0.862203
vn -0.995586 -0.093854 0.000000
vn -0.995586 -0.093854 0.000000
vn -0.995586 -0.093854 0.000000
vn -0.995586 -0.093854 0.000000
vn -0.497793 -0.093854 0.862203
vn -0.497793 -0.093854 0.862203
vn -0.497793 -0.093854 0.862203
vn -0.497793 -0.093854 0.862203
vn 0.497793 -0.093854 0.862203
vn 0.497793 -0.093854 0.862203
vn 0.497793 -0.093854 0.862203
vn 0.497793 -0.093854 0.862203
vn 0.995586 -0.093854 -0.000000
vn 0.995586 -0.093854 -0.000000
vn 0.995586 -0.093854 -0.000000
vn 0.995586 -0.093854 -0.000000
vn 0.000000 0.000000 -1.000000
vn 0.000000 0.000000 -1.000000
vn 0.000000 0.000000 -1.000000
vn 0.000000 0.000000 -1.000000
vn 0.000000 0.866025 -0.500000
vn 0.000000 0.866025 -0.500000
vn 0.000000 0.866025 -0.500000
vn 0.000000 0.866025 -0.500000
vn -0.000000 0.866026 0.500000
vn -0.000000 0.866026 0.500000
vn -0.000000 0.866026 0.500000
vn -0.000000 0.866026 0.500000
vn -0.000000 0.000000 1.000000
vn -0.000000 0.000000 1.000000
vn -0.000000 0.000000 1.000000
vn -0.000000 0.000000 1.000000
vn 0.000000 -0.866025 0.500000
vn 0.000000 -0.866025 0.500000
vn 0.000000 -0.866025 0.500000
vn 0.000000 -0.866025 0.500000
vn 0.000000 -0.866026 -0.500000
vn 0.000000 -0.866026 -0.500000
vn 0.000000 -0.866026 -0.500000
vn 0.000000 -0.866026 -0.500000
vn -0.961252 0.238738 0.137835
vn -0.961252 0.238738 0.137835
vn -0.961252 0.238738 0.137835
vn -0.961252 0.238738 0.137835
vn -0.961252 0.238738 -0.137835
vn -0.961252 0.238738 -0.137835
vn -0.961252 0.238738 -0.137835
vn -0.961252 0.238738 -0.137835
vn -0.961252 -0.000000 -0.275671
vn -0.961252 -0.000000 -0.275671
vn -0.961252 -0.000000 -0.275671
vn -0.961252 -0.000000 -0.275671
vn -0.961252 -0.238738 -0.137835
vn -0.961252 -0.238738 -0.137835
vn -0.961252 -0.238738 -0.137835
vn -0.961252 -0.238738 -0.137835
vn -0.961252 -0.238738 0.137835
vn -0.961252 -0.238738 0.137835
vn -0.961252 -0.238738 0.137835
vn -0.961252 -0.238738 0.137835
vn -0.961252 0.000000 0.275670
vn -0.961252 0.000000 0.275670
vn -0.961252 0.000000 0.275670
vn -0.961252 0.000000 0.275670
vn -1.000000 -0.000000 -0.000000
vn -1.000000 -0.000000 -0.000000
vn -1.000000 -0.000000 -0.000000
vn -1.000000 -0.000000 -0.000000
vn -1.000000 -0.000000 -0.000000
vn -1.000000 -0.000000 -0.000000
vn 1.000000 0.000000 0.000000
vn 1.000000 0.000000 0.000000
vn 1.000000 0.000000 0.000000
vn 1.000000 0.000000 0.000000
vn 1.000000 0.000000 0.000000
vn 1.000000 0.000000 0.000000
vn 0.961252 -0.238738 0.137835
vn 0.961252 -0.238738 0.137835
vn 0.961252 -0.238738 0.137835
vn 0.961252 -0.238738 0.137835
vn 0.961252 -0.238738 -0.137835
vn 0.961252 -0.238738 -0.137835
vn 0.961252 -0.238738 -0.137835
vn 0.961252 -0.238738 -0.137835
vn 0.961252 -0.000000 -0.275670
vn 0.961252 -0.000000 -0.275670
vn 0.961252 -0.000000 -0.275670
vn 0.961252 -0.000000 -0.275670
vn 0.961252 0.238738 -0.137835
vn 0.961252 0.238738 -0.137835
vn 0.961252 0.238738 -0.137835
vn 0.961252 0.238738 -0.137835
vn 0.961252 0.238738 0.137835
vn 0.961252 0.238738 0.137835
vn 0.961252 0.238738 0.137835
vn 0.961252 0.238738 0.137835
vn 0.961252 0.000000 0.275670
vn 0.961252 0.000000 0.275670
vn 0.961252 0.000000 0.275670
vn 0.961252 0.000000 0.275670
vn -0.581238 -0.000001 -0.813733
vn -0.581238 -0.000001 -0.813733
vn -0.581238 -0.000001 -0.813733
vn -0.581238 -0.000001 -0.813733
vn -0.581238 -0.704714 -0.406867
vn -0.581238 -0.704714 -0.406867
vn -0.581238 -0.704714 -0.406867
vn -0.581238 -0.704714 -0.406867
vn -0.581238 -0.704714 0.406867
vn -0.581238 -0.704714 0.406867
vn -0.581238 -0.704714 0.406867
vn -0.581238 -0.704714 0.406867
vn -0.581238 0.000001 0.813733
vn -0.581238 0.000001 0.813733
vn -0.581238 0.000001 0.813733
vn -0.581238 0.000001 0.813733
vn -0.581239 0.704713 0.406867
vn -0.581239 0.704713 0.406867
vn -0.581239 0.704713 0.406867
vn -0.581239 0.704713 0.406867
vn -0.581239 0.704713 -0.406868
vn -0.581239 0.704713 -0.406868
vn -0.581239 0.704713 -0.406868
vn -0.581239 0.704713 -0.406868
vn 0.581239 0.704714 -0.406866
vn 0.581239 0.704714 -0.406866
vn 0.581239 0.704714 -0.406866
vn 0.581239 0.704714 -0.406866
vn 0.581238 0.704714 0.406866
vn 0.581238 0.704714 0.406866
vn 0.581238 0.704714 0.406866
vn 0.581238 0.704714 0.406866
vn 0.581238 0.000001 0.813734
vn 0.581238 0.000001 0.813734
vn 0.581238 0.000001 0.813734
vn 0.581238 0.000001 0.813734
vn 0.581238 -0.704714 0.406867
vn 0.581238 -0.704714 0.406867
vn 0.581238 -0.704714 0.406867
vn 0.581238 -0.704714 0.406867
vn 0.581238 -0.704714 -0.406867
vn 0.581238 -0.704714 -0.406867
vn 0.581238 -0.704714 -0.406867
vn 0.581238 -0.704714 -0.406867
vn 0.581238 -0.000001 -0.813733
vn 0.581238 -0.000001 -0.813733
vn 0.581238 -0.000001 -0.813733
vn 0.581238 -0.000001 -0.813733
vn 0.000000 -0.998709 0.050801
vn 0.000000 -0.998709 0.050801
vn 0.000000 -0.998709 0.050801
vn 0.000000 -0.998709 0.050801
vn 0.959732 0.000000 0.280919
vn 0.959732 0.000000 0.280919
vn 0.959732 0.000000 0.280919
vn 0.959732 0.000000 0.280919
vn 0.000000 0.954965 0.296720
vn 0.000000 0.954965 0.296720
vn 0.000000 0.954965 0.296720
vn 0.000000 0.954965 0.296720
vn -0.959732 0.000000 0.280919
vn -0.959732 0.000000 0.280919
vn -0.959732 0.000000 0.280919
vn -0.959732 0.000000 0.280919
vn 0.000000 -0.290791 -0.956787
vn 0.000000 -0.290791 -0.956787
vn 0.000000 -0.290791 -0.956787
vn 0.000000 -0.290791 -0.956787
vn 0.000000 -0.290791 0.956787
vn 0.000000 -0.290791 0.956787
vn 0.000000 -0.290791 0.956787
vn 0.000000 -0.290791 0.956787
vn 0.000000 0.954965 -0.296720
vn 0.000000 0.954965 -0.296720
vn 0.000000 0.954965 -0.296720
vn 0.000000 0.954965 -0.296720
vn -0.959732 0.000000 -0.280919
vn -0.959732 0.000000 -0.280919
vn -0.959732 0.000000 -0.280919
vn -0.959732 0.000000 -0.280919
vn 0.000000 -0.998709 -0.050801
vn 0.000000 -0.998709 -0.050801
vn 0.000000 -0.998709 -0.050801
vn 0.000000 -0.998709 -0.050801
vn 0.959732 0.000000 -0.280919
vn 0.959732 0.000000 -0.280919
vn 0.959732 0.000000 -0.280919
vn 0.959732 0.000000 -0.280919
vn -0.998491 0.000000 0.054922
vn -0.998491 0.000000 0.054922
vn -0.998491 0.000000 0.054922
vn -0.998491 0.000000 0.054922
vn 0.000000 0.986538 -0.163530
vn 0.000000 0.986538 -0.163530
vn 0.000000 0.986538 -0.163530
vn 0.000000 0.986538 -0.163530
vn 0.998491 0.000000 0.054922
vn 0.998491 0.000000 0.054922
vn 0.998491 0.000000 0.054922
vn 0.998491 0.000000 0.054922
vn 0.000000 -0.986539 0.163529
vn 0.000000 -0.986539 0.163529
vn 0.000000 -0.986539 0.163529
vn 0.000000 -0.986539 0.163529
vn -0.978928 -0.025464 0.202613
vn -0.978928 -0.025464 0.202613
vn -0.978928 -0.025464 0.202613
vn -0.978928 -0.025464 0.202613
vn 0.000000 0.940147 -0.340769
vn 0.000000 0.940147 -0.340769
vn 0.000000 0.940147 -0.340769
vn 0.000000 0.940147 -0.340769
vn 0.978928 -0.025464 0.202613
vn 0.978928 -0.025464 0.202613
vn 0.978928 -0.025464 0.202613
vn 0.978928 -0.025464 0.202613
vn 0.000000 -0.853142 0.521679
vn 0.000000 -0.853142 0.521679
vn 0.000000 -0.853142 0.521679
vn 0.000000 -0.853142 0.521679
vn 0.000000 0.986538 0.163530
vn 0.000000 0.986538 0.163530
vn 0.000000 0.986538 0.163530
vn 0.000000 0.986538 0.163530
vn -0.998491 0.000000 -0.054922
vn -0.998491 0.000000 -0.054922
vn -0.998491 0.000000 -0.054922
vn -0.998491 0.000000 -0.054922
vn 0.000000 -0.986538 -0.163529
vn 0.000000 -0.986538 -0.163529
vn 0.000000 -0.986538 -0.163529
vn 0.000000 -0.986538 -0.163529
vn 0.998491 0.000000 -0.054922
vn 0.998491 0.000000 -0.054922
vn 0.998491 0.000000 -0.054922
vn 0.998491 0.000000 -0.054922
vn 0.000000 0.940147 0.340769
vn 0.000000 0.940147 0.340769
vn 0.000000 0.940147 0.340769
vn 0.000000 0.940147 0.340769
vn -0.978928 -0.025465 -0.202613
vn -0.978928 -0.025465 -0.202613
vn -0.978928 -0.025465 -0.202613
vn -0.978928 -0.025465 -0.202613
vn 0.000000 -0.853142 -0.521679
vn 0.000000 -0.853142 -0.521679
vn 0.000000 -0.853142 -0.521679
vn 0.000000 -0.853142 -0.521679
vn 0.978928 -0.025465 -0.202613
vn 0.978928 -0.025465 -0.202613
vn 0.978928 -0.025465 -0.202613
vn 0.978928 -0.025465 -0.202613
s off
f 19/1/1 20/2/2 18/3/3 13/4/4
f 20/2/5 21/5/6 17/6/7 18/3/8
f 21/5/9 22/7/10 16/8/11 17/6/12
f 22/7/13 23/9/14 15/10/15 16/8/16
f 23/9/17 24/11/18 14/12/19 15/10/20
f 24/11/21 19/1/22 13/4/23 14/12/24
f 1/13/25 6/14/26 5/15/27 4/16/28 3/17/29 2/18/30
f 7/19/31 8/20/32 9/21/33 10/22/34 11/23/35 12/24/36
f 14/12/37 13/4/38 25/25/39 26/26/40
f 15/10/41 14/12/42 26/26/43 27/27/44
f 16/8/45 15/10/46 27/27/47 28/28/48
f 17/6/49 16/8/50 28/28/51 29/29/52
f 18/3/53 17/6/54 29/29/55 30/30/56
f 13/4/57 18/3/58 30/30/59 25/25/60
f 1/13/61 2/18/62 20/2/63 19/1/64
f 2/18/65 3/17/66 21/5/67 20/2/68
f 3/17/69 4/16/70 22/7/71 21/5/72
f 4/16/73 5/15/74 23/9/75 22/7/76
f 5/15/77 6/14/78 24/11/79 23/9/80
f 6/14/81 1/13/82 19/1/83 24/11/84
f 26/26/85 25/25/86 7/19/87 12/24/88
f 27/27/89 26/26/90 12/24/91 11/23/92
f 28/28/93 27/27/94 11/23/95 10/22/96
f 29/29/97 28/28/98 10/22/99 9/21/100
f 30/30/101 29/29/102 9/21/103 8/20/104
f 25/25/105 30/30/106 8/20/107 7/19/108
f 31/31/109 32/32/110 38/33/111 37/34/112
f 32/32/113 33/35/114 39/36/115 38/33/116
f 33/35/117 34/37/118 40/38/119 39/36/120
f 34/37/121 35/39/122 41/40/123 40/38/124
f 35/39/125 36/41/126 42/42/127 41/40/128
f 36/41/129 31/31/130 37/34/131 42/42/132
f 31/31/133 36/41/134 45/43/135 43/44/136
f 36/41/137 35/39/138 46/45/139 45/43/140
f 35/39/141 34/37/142 47/46/143 46/45/144
f 34/37/145 33/35/146 48/47/147 47/46/148
f 33/35/149 32/32/150 44/48/151 48/47/152
f 32/32/153 31/31/154 43/44/155 44/48/156
f 56/49/157 55/50/158 57/51/159 58/52/160 59/53/161 60/54/162
f 61/55/163 62/56/164 63/57/165 64/58/166 65/59/167 66/60/168
f 39/36/169 50/61/170 49/62/171 38/33/172
f 40/38/173 51/63/174 50/61/175 39/36/176
f 41/40/177 52/64/178 51/63/179 40/38/180
f 42/42/181 53/65/182 52/64/183 41/40/184
f 37/34/185 54/66/186 53/65/187 42/42/188
f 38/33/189 49/62/190 54/66/191 37/34/192
f 44/48/193 43/44/194 55/50/195 56/49/196
f 43/44/197 45/43/198 57/51/199 55/50/200
f 45/43/201 46/45/202 58/52/203 57/51/204
f 46/45/205 47/46/206 59/53/207 58/52/208
f 47/46/209 48/47/210 60/54/211 59/53/212
f 48/47/213 44/48/214 56/49/215 60/54/216
f 49/62/217 50/61/218 62/56/219 61/55/220
f 50/61/221 51/63/222 63/57/223 62/56/224
f 51/63/225 52/64/226 64/58/227 63/57/228
f 52/64/229 53/65/230 65/59/231 64/58/232
f 53/65/233 54/66/234 66/60/235 65/59/236
f 54/66/237 49/62/238 61/55/239 66/60/240
f 82/67/241 79/68/242 77/69/243 78/70/244
f 81/71/245 82/67/246 78/70/247 75/72/248
f 80/73/249 81/71/250 75/72/251 76/74/252
f 79/68/253 80/73/254 76/74/255 77/69/256
f 68/75/257 74/76/258 72/77/259 70/78/260
f 73/79/261 67/80/262 69/81/263 71/82/264
f 75/72/265 87/83/266 88/84/267 76/74/268
f 77/69/269 76/74/270 88/84/271 89/85/272
f 78/70/273 77/69/274 89/85/275 90/86/276
f 75/72/277 78/70/278 90/86/279 87/83/280
f 83/87/281 84/88/282 80/73/283 79/68/284
f 84/88/285 85/89/286 81/71/287 80/73/288
f 85/89/289 86/90/290 82/67/291 81/71/292
f 86/90/293 83/87/294 79/68/295 82/67/296
f 73/79/297 84/88/298 83/87/299 67/80/300
f 71/82/301 85/89/302 84/88/303 73/79/304
f 69/81/305 86/90/306 85/89/307 71/82/308
f 67/80/309 83/87/310 86/90/311 69/81/312
f 88/84/313 87/83/314 91/91/315 92/92/316
f 89/85/317 88/84/318 92/92/319 93/93/320
f 90/86/321 89/85/322 93/93/323 94/94/324
f 87/83/325 90/86/326 94/94/327 91/91/328
f 92/92/329 91/91/330 72/77/331 74/76/332
f 93/93/333 92/92/334 74/76/335 68/75/336
f 94/94/337 93/93/338 68/75/339 70/78/340
f 91/91/341 94/94/342 70/78/343 72/77/344
