# This file uses centimeters as units for non-parametric coordinates.

v -2.307129 149.937988 -0.000215
v -1.153779 149.937836 -1.998138
v 1.153564 149.937836 -1.998138
v 2.307343 149.937790 -0.000215
v 1.153564 149.937729 1.998138
v -1.153564 149.937958 1.998138
v 3.603303 150.356369 -0.000335
v -3.603089 150.356644 -0.000335
v -1.801574 150.356598 3.120480
v 1.801454 150.356293 3.120480
v -1.801909 150.356445 -3.120480
v 1.801454 150.356445 -3.120480
v 1.962689 172.884277 -0.000183
v -1.962474 172.884460 -0.000183
v -0.981229 172.884415 1.699657
v 0.981261 172.884216 1.699657
v -0.981411 172.884308 -1.699657
v 0.981261 172.884308 -1.699657
v 1.523754 175.008865 -0.000142
v -1.523539 175.009033 -0.000142
v -0.761751 175.008972 1.319526
v 0.761824 175.008820 1.319526
v -0.761893 175.008896 -1.319526
v 0.761824 175.008896 -1.319526
v 0.730305 176.262680 -0.000209
v -0.730090 176.262848 -0.000209
v 3.467282 152.815735 -0.000322
v 1.733453 152.815811 -3.002681
v -1.733883 152.815811 -3.002681
v -3.467067 152.815994 -0.000322
v -1.733560 152.815964 3.002681
v 1.733453 152.815659 3.002681
v 2.292557 153.835114 -0.000213
v 1.146173 153.835052 1.985333
v -1.146171 153.835297 1.985333
v -2.292342 153.835327 -0.000213
v -1.146384 153.835159 -1.985333
v 1.146173 153.835159 -1.985333
v 2.783789 155.052795 -0.000259
v 1.391754 155.052719 2.410755
v -1.391798 155.053024 2.410755
v -2.783574 155.053055 -0.000259
v -1.392057 155.052856 -2.410755
v 1.391754 155.052856 -2.410755
v -0.527749 158.344818 4.285767
v -0.527749 155.255920 -1.825806
v 0.527749 158.344818 4.285767
v 0.527749 155.255920 -1.825806
v 0.527749 196.945633 -3.082153
v -0.527749 196.945633 -3.082153
v -0.527749 191.272797 2.732788
v -0.527749 186.303238 -4.228638
v 0.527749 186.303238 -4.228638
v 0.527749 191.272797 2.732788
v 0.527749 167.120880 4.585815
v 0.527749 162.637787 -4.289551
v -0.527749 162.637787 -4.289551
v -0.527749 167.120880 4.585815
v 0.000000 200.342819 -2.104370
v 0.000000 193.582413 4.410034
v 0.000000 166.939056 5.931274
v 0.527749 177.420578 -4.507080
v -0.527749 177.420578 -4.507080
v -0.527749 179.804749 4.403809
v 0.000000 179.742477 6.470337
v 0.527749 179.804749 4.403809
v -0.527749 172.545959 4.507935
v 0.527749 172.606171 4.507080
v 0.000000 174.535522 6.362799
v 0.000000 168.866058 6.012408
v -0.343037 172.510559 5.087237
v 0.343037 172.549683 5.086682
vt 0.090446 0.298868
vt 0.090547 0.298798
vt 0.090564 0.298784
vt 0.090433 0.298875
vt 0.090559 0.298717
vt 0.090579 0.298679
vt 0.090468 0.298707
vt 0.090460 0.298665
vt 0.090364 0.298779
vt 0.090355 0.298859
vt 0.090314 0.298864
vt 0.090326 0.298759
vt 0.090381 0.298786
vt 0.090506 0.298699
vt 0.090481 0.298664
vt 0.090359 0.298749
vt 0.090520 0.298598
vt 0.090495 0.298565
vt 0.090406 0.298584
vt 0.090383 0.298551
vt 0.090278 0.298674
vt 0.090267 0.298775
vt 0.090248 0.298738
vt 0.090258 0.298639
vt 0.089956 0.298059
vt 0.090031 0.298005
vt 0.089975 0.297939
vt 0.089917 0.297980
vt 0.090035 0.297937
vt 0.089978 0.297886
vt 0.089963 0.297923
vt 0.089922 0.297875
vt 0.089886 0.297978
vt 0.089884 0.298046
vt 0.089862 0.297969
vt 0.089863 0.297917
vt 0.089917 0.297980
vt 0.089922 0.297875
vt 0.090357 0.298511
vt 0.090466 0.298525
vt 0.090453 0.298622
vt 0.090334 0.298705
vt 0.090224 0.298693
vt 0.090234 0.298596
vt 0.091996 0.298202
vt 0.091992 0.298125
vt 0.091991 0.298121
vt 0.091995 0.298199
vt 0.092790 0.298115
vt 0.092191 0.298023
vt 0.092208 0.298280
vt 0.092208 0.298277
vt 0.092191 0.298019
vt 0.092794 0.298111
vt 0.092141 0.298249
vt 0.092129 0.298054
vt 0.092129 0.298059
vt 0.092141 0.298252
vt 0.092067 0.298090
vt 0.092074 0.298220
vt 0.092075 0.298224
vt 0.092067 0.298094
vt 0.090715 0.351716
vt 0.090711 0.351732
vt 0.090954 0.351690
vt 0.090011 0.351976
vt 0.090071 0.352028
vt 0.090011 0.351961
vt 0.091521 0.352204
vt 0.091403 0.352185
vt 0.091476 0.352057
vt 0.091633 0.352059
vt 0.091400 0.352222
vt 0.091471 0.352094
vt 0.091145 0.352674
vt 0.091331 0.352313
vt 0.091409 0.352347
vt 0.091329 0.352349
vt 0.091145 0.352707
vt 0.092208 0.298277
vt 0.092208 0.298280
vt 0.092208 0.298279
vt 0.090821 0.352131
vt 0.090826 0.352168
vt 0.090798 0.352033
vt 0.090793 0.351995
vt 0.090854 0.352303
vt 0.090849 0.352267
vt 0.091996 0.298202
vt 0.090917 0.352683
vt 0.089954 0.351700
vt 0.089954 0.351684
vt 0.092103 0.298236
vt 0.092103 0.298233
vt 0.091410 0.352272
vt 0.091408 0.352290
vt 0.091433 0.352316
vt 0.091489 0.352245
vt 0.091362 0.352258
vt 0.091359 0.352294
vn -0.302691 -0.936936 0.174725
vn -0.302691 -0.936936 0.174725
vn -0.302691 -0.936936 0.174725
vn -0.302691 -0.936936 0.174725
vn -0.000085 -0.936951 0.349462
vn -0.000085 -0.936951 0.349462
vn -0.000085 -0.936951 0.349462
vn -0.000085 -0.936951 0.349462
vn 0.302646 -0.936955 0.174702
vn 0.302646 -0.936955 0.174702
vn 0.302646 -0.936955 0.174702
vn 0.302646 -0.936955 0.174702
vn 0.000000 -0.936952 -0.349458
vn 0.000000 -0.936952 -0.349458
vn 0.000000 -0.936952 -0.349458
vn 0.000000 -0.936952 -0.349458
vn -0.302675 -0.936954 -0.174659
vn -0.302675 -0.936954 -0.174659
vn -0.302675 -0.936954 -0.174659
vn -0.302675 -0.936954 -0.174659
vn 0.302609 -0.936952 -0.174785
vn 0.302609 -0.936952 -0.174785
vn 0.302609 -0.936952 -0.174785
vn 0.302609 -0.936952 -0.174785
vn -0.612996 0.706410 0.353867
vn -0.612996 0.706410 0.353867
vn -0.612996 0.706410 0.353867
vn -0.612996 0.706410 0.353867
vn 0.000067 0.706408 0.707805
vn 0.000067 0.706408 0.707805
vn 0.000067 0.706408 0.707805
vn 0.000067 0.706408 0.707805
vn 0.612993 0.706376 0.353939
vn 0.612993 0.706376 0.353939
vn 0.612993 0.706376 0.353939
vn 0.612993 0.706376 0.353939
vn 0.000000 0.706417 -0.707796
vn 0.000000 0.706417 -0.707796
vn 0.000000 0.706417 -0.707796
vn 0.000000 0.706417 -0.707796
vn -0.612945 0.706443 -0.353889
vn -0.612945 0.706443 -0.353889
vn -0.612945 0.706443 -0.353889
vn -0.612945 0.706443 -0.353889
vn 0.612953 0.706402 -0.353957
vn 0.612953 0.706402 -0.353957
vn 0.612953 0.706402 -0.353957
vn 0.612953 0.706402 -0.353957
vn -0.852518 0.176121 0.492132
vn -0.852518 0.176121 0.492132
vn -0.852518 0.176121 0.492132
vn -0.852518 0.176121 0.492132
vn 0.000018 0.176122 0.984369
vn 0.000018 0.176122 0.984369
vn 0.000018 0.176122 0.984369
vn 0.000018 0.176122 0.984369
vn 0.852481 0.176111 0.492201
vn 0.852481 0.176111 0.492201
vn 0.852481 0.176111 0.492201
vn 0.852481 0.176111 0.492201
vn 0.000000 0.176123 -0.984368
vn 0.000000 0.176123 -0.984368
vn 0.000000 0.176123 -0.984368
vn 0.000000 0.176123 -0.984368
vn -0.852506 0.176137 -0.492148
vn -0.852506 0.176137 -0.492148
vn -0.852506 0.176137 -0.492148
vn -0.852506 0.176137 -0.492148
vn 0.852440 0.176121 -0.492268
vn 0.852440 0.176121 -0.492268
vn 0.852440 0.176121 -0.492268
vn 0.852440 0.176121 -0.492268
vn -0.759457 0.480629 0.438430
vn -0.759457 0.480629 0.438430
vn -0.759457 0.480629 0.438430
vn -0.759464 0.480586 -0.438464
vn -0.759464 0.480586 -0.438464
vn -0.759464 0.480586 -0.438464
vn 0.759439 0.480617 0.438475
vn 0.759439 0.480617 0.438475
vn 0.759439 0.480617 0.438475
vn 0.759429 0.480564 -0.438550
vn 0.759429 0.480564 -0.438550
vn 0.759429 0.480564 -0.438550
vn 0.000078 0.724971 0.688779
vn 0.000078 0.724971 0.688779
vn 0.000078 0.724971 0.688779
vn 0.000078 0.724971 0.688779
vn 0.000041 0.724856 -0.688900
vn 0.000041 0.724856 -0.688900
vn 0.000041 0.724856 -0.688900
vn 0.000041 0.724856 -0.688900
vn 0.864983 0.047843 -0.499515
vn 0.864983 0.047843 -0.499515
vn 0.864983 0.047843 -0.499515
vn 0.864983 0.047843 -0.499515
vn 0.000000 0.047843 -0.998855
vn 0.000000 0.047843 -0.998855
vn 0.000000 0.047843 -0.998855
vn 0.000000 0.047843 -0.998855
vn -0.865061 0.047847 -0.499380
vn -0.865061 0.047847 -0.499380
vn -0.865061 0.047847 -0.499380
vn -0.865061 0.047847 -0.499380
vn -0.865069 0.047843 0.499367
vn -0.865069 0.047843 0.499367
vn -0.865069 0.047843 0.499367
vn -0.865069 0.047843 0.499367
vn 0.000004 0.047843 0.998855
vn 0.000004 0.047843 0.998855
vn 0.000004 0.047843 0.998855
vn 0.000004 0.047843 0.998855
vn 0.865026 0.047840 0.499441
vn 0.865026 0.047840 0.499441
vn 0.865026 0.047840 0.499441
vn 0.865026 0.047840 0.499441
vn 0.817568 -0.329803 0.472031
vn 0.817568 -0.329803 0.472031
vn 0.817568 -0.329803 0.472031
vn 0.817568 -0.329803 0.472031
vn -0.000036 -0.329813 0.944046
vn -0.000036 -0.329813 0.944046
vn -0.000036 -0.329813 0.944046
vn -0.000036 -0.329813 0.944046
vn -0.817606 -0.329804 0.471964
vn -0.817606 -0.329804 0.471964
vn -0.817606 -0.329804 0.471964
vn -0.817606 -0.329804 0.471964
vn -0.817599 -0.329837 -0.471953
vn -0.817599 -0.329837 -0.471953
vn -0.817599 -0.329837 -0.471953
vn -0.817599 -0.329837 -0.471953
vn 0.000000 -0.329813 -0.944046
vn 0.000000 -0.329813 -0.944046
vn 0.000000 -0.329813 -0.944046
vn 0.000000 -0.329813 -0.944046
vn 0.817517 -0.329816 -0.472111
vn 0.817517 -0.329816 -0.472111
vn 0.817517 -0.329816 -0.472111
vn 0.817517 -0.329816 -0.472111
vn 0.865332 0.039845 0.499613
vn 0.865332 0.039845 0.499613
vn 0.865332 0.039845 0.499613
vn 0.865332 0.039845 0.499613
vn 0.000004 0.039847 0.999206
vn 0.000004 0.039847 0.999206
vn 0.000004 0.039847 0.999206
vn 0.000004 0.039847 0.999206
vn -0.865372 0.039847 0.499543
vn -0.865372 0.039847 0.499543
vn -0.865372 0.039847 0.499543
vn -0.865372 0.039847 0.499543
vn -0.865365 0.039850 -0.499556
vn -0.865365 0.039850 -0.499556
vn -0.865365 0.039850 -0.499556
vn -0.865365 0.039850 -0.499556
vn 0.000000 0.039847 -0.999206
vn 0.000000 0.039847 -0.999206
vn 0.000000 0.039847 -0.999206
vn 0.000000 0.039847 -0.999206
vn 0.865286 0.039847 -0.499693
vn 0.865286 0.039847 -0.499693
vn 0.865286 0.039847 -0.499693
vn 0.865286 0.039847 -0.499693
vn -0.000045 -1.000000 -0.000001
vn -0.000045 -1.000000 -0.000001
vn -0.000045 -1.000000 -0.000001
vn -0.000045 -1.000000 -0.000001
vn -0.000045 -1.000000 -0.000001
vn -0.000045 -1.000000 -0.000001
vn 0.000000 -0.892485 0.451077
vn 0.000000 -0.892485 0.451077
vn 0.000000 -0.892485 0.451077
vn 0.000000 -0.892485 0.451077
vn -1.000000 0.000000 0.000000
vn -1.000000 0.000000 0.000000
vn -1.000000 0.000000 0.000000
vn 1.000000 0.000000 0.000000
vn 1.000000 0.000000 0.000000
vn 1.000000 0.000000 0.000000
vn 1.000000 0.000000 0.000000
vn 1.000000 0.000000 0.000000
vn 1.000000 0.000000 0.000000
vn 1.000000 0.000000 0.000000
vn -1.000000 -0.000000 0.000000
vn -1.000000 -0.000000 0.000000
vn -1.000000 -0.000000 0.000000
vn -1.000000 -0.000000 0.000000
vn 1.000000 0.000000 0.000000
vn 1.000000 0.000000 0.000000
vn 1.000000 0.000000 0.000000
vn 1.000000 0.000000 0.000000
vn -1.000000 0.000000 0.000000
vn -1.000000 0.000000 0.000000
vn -1.000000 0.000000 0.000000
vn -1.000000 0.000000 0.000000
vn 0.000000 0.276593 -0.960987
vn 0.000000 0.276593 -0.960987
vn 0.000000 0.276593 -0.960987
vn -0.984391 0.123926 0.124970
vn -0.984391 0.123926 0.124970
vn -0.984391 0.123926 0.124970
vn -0.984391 0.123926 0.124970
vn 0.984391 0.123926 0.124970
vn 0.984391 0.123926 0.124970
vn 0.984391 0.123926 0.124970
vn 0.984391 0.123926 0.124970
vn 0.967395 0.036942 0.250565
vn 0.967395 0.036942 0.250565
vn 0.967395 0.036942 0.250565
vn 0.967395 0.036942 0.250565
vn -0.967395 0.036942 0.250565
vn -0.967395 0.036942 0.250565
vn -0.967395 0.036942 0.250565
vn -0.967395 0.036942 0.250565
vn 0.931444 -0.012434 0.363674
vn 0.931444 -0.012434 0.363674
vn 0.931444 -0.012434 0.363674
vn -0.931443 -0.012434 0.363674
vn -0.931443 -0.012434 0.363674
vn -0.931443 -0.012434 0.363674
vn 0.000000 -0.188050 0.982159
vn 0.000000 -0.188050 0.982159
vn 0.000000 -0.188050 0.982159
vn 0.000000 0.031331 -0.999509
vn 0.000000 0.031331 -0.999509
vn 0.000000 0.031331 -0.999509
vn 0.000000 0.031331 -0.999509
vn 0.000000 -0.316589 -0.948563
vn 0.000000 -0.316589 -0.948563
vn 0.000000 -0.316589 -0.948563
vn 0.000000 -0.316589 -0.948563
vn 0.000000 0.107108 -0.994247
vn 0.000000 0.107108 -0.994247
vn 0.000000 0.107108 -0.994247
vn 0.000000 0.107108 -0.994247
vn 0.000000 -0.014713 -0.999892
vn 0.000000 -0.014713 -0.999892
vn 0.000000 -0.014713 -0.999892
vn 0.000000 -0.014713 -0.999892
vn -1.000000 -0.000000 0.000000
vn -1.000000 -0.000000 0.000000
vn -1.000000 -0.000000 0.000000
vn -1.000000 -0.000000 0.000000
vn 1.000000 0.000000 0.000000
vn 1.000000 0.000000 0.000000
vn 1.000000 0.000000 0.000000
vn -0.013179 0.244862 0.969468
vn -0.013179 0.244862 0.969468
vn -0.013179 0.244862 0.969468
vn 1.000000 0.000000 0.000000
vn 1.000000 0.000000 0.000000
vn 1.000000 0.000000 0.000000
vn 1.000000 0.000000 0.000000
vn -1.000000 0.000000 0.000000
vn -1.000000 0.000000 0.000000
vn -1.000000 0.000000 0.000000
vn 0.965092 -0.001479 0.261907
vn 0.965092 -0.001479 0.261907
vn 0.965092 -0.001479 0.261907
vn 0.965092 -0.001479 0.261907
vn 0.965092 -0.001479 0.261907
vn -0.965070 -0.001455 0.261988
vn -0.965070 -0.001455 0.261988
vn -0.965070 -0.001455 0.261988
vn -0.965070 -0.001455 0.261988
vn -0.965070 -0.001455 0.261988
vn -0.940430 -0.002212 0.339980
vn -0.940430 -0.002212 0.339980
vn -0.940430 -0.002212 0.339980
vn -0.940430 -0.002212 0.339980
vn -0.940430 -0.002212 0.339980
vn 0.940463 -0.002163 0.339891
vn 0.940463 -0.002163 0.339891
vn 0.940463 -0.002163 0.339891
vn 0.940463 -0.002163 0.339891
vn 0.940463 -0.002163 0.339891
vn 0.031277 -0.536519 0.843308
vn 0.031277 -0.536519 0.843308
vn 0.031277 -0.536519 0.843308
s off
f 1/1/1 6/2/2 9/3/3 8/4/4
f 6/2/5 5/5/6 10/6/7 9/3/8
f 5/5/9 4/7/10 7/8/11 10/6/12
f 3/9/13 2/10/14 11/11/15 12/12/16
f 2/10/17 1/1/18 8/4/19 11/11/20
f 4/7/21 3/9/22 12/12/23 7/8/24
f 30/13/25 31/14/26 35/15/27 36/16/28
f 31/14/29 32/17/30 34/18/31 35/15/32
f 32/17/33 27/19/34 33/20/35 34/18/36
f 28/21/37 29/22/38 37/23/39 38/24/40
f 29/22/41 30/13/42 36/16/43 37/23/44
f 27/19/45 28/21/46 38/24/47 33/20/48
f 14/25/49 15/26/50 21/27/51 20/28/52
f 15/26/53 16/29/54 22/30/55 21/27/56
f 16/29/57 13/31/58 19/32/59 22/30/60
f 18/33/61 17/34/62 23/35/63 24/36/64
f 17/34/65 14/25/66 20/28/67 23/35/68
f 13/31/69 18/33/70 24/36/71 19/32/72
f 20/28/73 21/27/74 26/37/75
f 23/35/76 20/28/77 26/37/78
f 22/30/79 19/32/80 25/38/81
f 19/32/82 24/36/83 25/38/84
f 22/30/85 25/38/86 26/37/87 21/27/88
f 25/38/89 24/36/90 23/35/91 26/37/92
f 7/8/93 12/12/94 28/21/95 27/19/96
f 12/12/97 11/11/98 29/22/99 28/21/100
f 11/11/101 8/4/102 30/13/103 29/22/104
f 8/4/105 9/3/106 31/14/107 30/13/108
f 9/3/109 10/6/110 32/17/111 31/14/112
f 10/6/113 7/8/114 27/19/115 32/17/116
f 34/18/117 33/20/118 39/39/119 40/40/120
f 35/15/121 34/18/122 40/40/123 41/41/124
f 36/16/125 35/15/126 41/41/127 42/42/128
f 37/23/129 36/16/130 42/42/131 43/43/132
f 38/24/133 37/23/134 43/43/135 44/44/136
f 33/20/137 38/24/138 44/44/139 39/39/140
f 40/40/141 39/39/142 13/31/143 16/29/144
f 41/41/145 40/40/146 16/29/147 15/26/148
f 42/42/149 41/41/150 15/26/151 14/25/152
f 43/43/153 42/42/154 14/25/155 17/34/156
f 44/44/157 43/43/158 17/34/159 18/33/160
f 39/39/161 44/44/162 18/33/163 13/31/164
f 4/7/165 5/5/166 6/2/167 1/1/168 2/10/169 3/9/170
f 45/45/171 46/46/172 48/47/173 47/48/174
f 50/49/175 52/50/176 51/51/177
f 54/52/178 53/53/179 49/54/180
f 66/55/181 62/56/182 53/53/183 54/52/184
f 63/57/185 64/58/186 51/51/187 52/50/188
f 48/47/189 56/59/190 55/60/191 47/48/192
f 45/45/193 58/61/194 57/62/195 46/46/196
f 49/63/197 50/64/198 59/65/199
f 50/64/200 51/66/201 60/67/202 59/65/203
f 54/68/204 49/63/205 59/65/206 60/67/207
f 65/69/208 66/70/209 54/71/210 60/72/211
f 64/73/212 65/69/213 60/72/214 51/74/215
f 47/75/216 55/76/217 61/77/218
f 58/78/219 45/79/220 61/77/221
f 45/80/222 47/81/223 61/82/224
f 62/83/225 63/84/226 52/85/227 53/86/228
f 57/87/229 56/88/230 48/89/231 46/90/232
f 52/91/233 50/64/234 49/63/235 53/92/236
f 57/87/237 63/84/238 62/83/239 56/88/240
f 57/62/241 58/61/242 67/93/243 63/57/244
f 68/94/245 62/56/246 66/55/247
f 72/95/248 71/96/249 70/97/250
f 55/60/251 56/59/252 62/56/253 68/94/254
f 63/57/255 67/93/256 64/58/257
f 69/98/258 72/95/259 68/99/260 66/70/261 65/69/262
f 67/100/263 71/96/264 69/98/265 65/69/266 64/73/267
f 61/77/268 70/97/269 71/96/270 67/100/271 58/78/272
f 61/77/273 55/76/274 68/99/275 72/95/276 70/97/277
f 72/95/278 69/98/279 71/96/280
