# This file uses centimeters as units for non-parametric coordinates.

v 0.000000 21.130638 5.966291
v 0.000000 21.130638 -5.966291
v -0.000000 75.831902 4.795174
v 0.000000 75.831902 -4.795174
v -1.140252 20.588531 -4.110596
v -1.140252 20.588531 4.110596
v 1.140252 20.588531 4.110596
v 1.140252 20.588531 -4.110596
v 1.132648 75.767944 2.592949
v 1.132648 75.767944 -2.592949
v -1.132648 75.767944 2.592949
v -1.132648 75.767944 -2.592949
v 0.000000 37.343220 -4.025112
v -1.136601 37.312508 -2.158680
v -1.136601 37.312508 2.158680
v 0.000000 37.343220 4.025112
v 1.136601 37.312508 2.158680
v 1.136601 37.312508 -2.158680
v -1.134780 49.290684 -2.104755
v 0.000000 46.674889 -3.906147
v 1.134780 49.290684 -2.104755
v 1.134780 49.290684 2.104755
v -1.134780 49.290684 2.104755
v 0.000000 110.593002 -2.997833
v -1.132648 92.215836 -2.592949
v -1.043774 109.515938 0.000000
v -0.000000 92.279785 4.795174
v -1.132648 92.215836 2.592949
v 1.043775 109.515938 0.000000
v 1.132648 92.215836 -2.592949
v 1.132648 92.215836 2.592949
v -0.000000 117.569244 0.000000
v -1.140252 20.042961 -2.037077
v -1.140252 20.042961 2.037077
v 1.140252 20.042961 -2.037077
v 1.140252 20.042961 2.037077
v -1.140252 15.690868 -2.037077
v -1.140252 15.690868 2.037077
v 1.140252 15.690868 -2.037076
v 1.140252 15.690868 2.037077
v -1.136615 37.245361 -0.909782
v -1.136615 37.245361 0.909782
v -1.134780 51.291519 0.863091
v -1.134780 51.291519 -0.863091
v -1.140012 24.941601 -1.428425
v -1.140012 24.941601 1.428425
v -1.132728 55.247108 0.000000
v 1.136615 37.245361 0.909782
v 1.136616 37.245361 -0.909782
v 1.134780 51.291519 -0.863091
v 1.134780 51.291519 0.863091
v 1.140012 24.941601 -1.428425
v 1.140012 24.941601 1.428425
v 1.132728 55.247108 0.000000
v 0.000000 44.341972 3.935890
v 0.000000 53.964142 4.128403
v 0.555326 47.954979 3.024601
v -0.555326 47.954979 3.024601
v 0.000000 88.167816 -4.795174
v 0.000000 96.858093 -4.345840
v -0.684434 92.241142 -3.464417
v 0.000000 106.014694 3.447174
v -0.427154 110.152229 1.771004
v 0.684434 92.241142 -3.464417
v 0.427155 110.152229 1.771004
v 0.000000 112.337067 2.248375
v 1.134372 54.357265 -2.198174
v 1.133966 59.393772 -2.291039
v 1.134253 57.043579 -1.478012
v -1.132648 78.792976 2.592949
v -1.132648 76.417023 1.140564
vt 0.090612 0.375230
vt 0.090661 0.375250
vt 0.090628 0.375214
vt 0.090614 0.375226
vt 0.090489 0.375142
vt 0.080774 0.279042
vt 0.090477 0.375169
vt 0.090481 0.375161
vt 0.080777 0.279091
vt 0.090482 0.375158
vt 0.090476 0.375173
vt 0.089704 0.374799
vt 0.089669 0.374810
vt 0.089700 0.374791
vt 0.090469 0.375193
vt 0.089661 0.374820
vt 0.089711 0.374789
vt 0.089673 0.374818
vt 0.081296 0.278962
vt 0.080766 0.279018
vt 0.080769 0.279067
vt 0.081294 0.278938
vt 0.081304 0.278984
vt 0.081766 0.278890
vt 0.081763 0.278912
vt 0.090084 0.374959
vt 0.081025 0.279004
vt 0.090077 0.374973
vt 0.081031 0.279051
vt 0.090059 0.374987
vt 0.090049 0.374999
vt 0.081026 0.279027
vt 0.090057 0.374984
vt 0.081020 0.278980
vt 0.090076 0.374967
vt 0.081150 0.278984
vt 0.090263 0.375059
vt 0.090271 0.375043
vt 0.081146 0.278960
vt 0.090263 0.375055
vt 0.081154 0.279007
vt 0.090250 0.375071
vt 0.081157 0.279031
vt 0.090252 0.375071
vt 0.090481 0.375161
vt 0.090477 0.375169
vt 0.090469 0.375193
vt 0.090482 0.375158
vt 0.090476 0.375173
vt 0.081304 0.278984
vt 0.081294 0.278938
vt 0.081296 0.278962
vt 0.081306 0.279008
vt 0.080777 0.279091
vt 0.080774 0.279042
vt 0.080766 0.279018
vt 0.080769 0.279067
vt 0.080777 0.279091
vt 0.080774 0.279042
vt 0.080766 0.279018
vt 0.080769 0.279067
vt 0.081031 0.279051
vt 0.081157 0.279031
vt 0.081150 0.278984
vt 0.080899 0.279023
vt 0.081020 0.278980
vt 0.081146 0.278960
vt 0.081154 0.279007
vt 0.081026 0.279027
vt 0.080777 0.279091
vt 0.080769 0.279067
vt 0.080766 0.279018
vt 0.081299 0.278961
vt 0.080289 0.278822
vt 0.018430 0.127364
vt 0.018511 0.127365
vt 0.018513 0.126957
vt 0.018437 0.126956
vt 0.018513 0.127371
vt 0.018431 0.127370
vt 0.018438 0.126953
vt 0.018516 0.126954
vt 0.018401 0.127819
vt 0.018529 0.127821
vt 0.018531 0.127837
vt 0.018401 0.127835
vt 0.018478 0.126837
vt 0.018477 0.126842
vt 0.081247 0.278560
vt 0.080524 0.278840
vt 0.080369 0.278831
vt 0.081289 0.278745
vt 0.080344 0.278960
vt 0.080403 0.278918
vt 0.080365 0.278928
vt 0.081279 0.278719
vt 0.080540 0.278811
vt 0.080422 0.278887
vt 0.081238 0.278539
vt 0.080312 0.278794
vt 0.080390 0.278802
vt 0.090146 0.375044
vt 0.090356 0.375141
vt 0.090246 0.375080
vt 0.090247 0.375080
vt 0.090489 0.375142
vt 0.090559 0.375178
vt 0.090485 0.375152
vt 0.090544 0.375223
vt 0.090615 0.375242
vt 0.090486 0.375150
vt 0.090617 0.375240
vt 0.090640 0.375252
vt 0.080540 0.278888
vt 0.090274 0.375062
vt 0.090377 0.375106
vt 0.080622 0.278843
vt 0.090337 0.375061
vt 0.080714 0.278848
vt 0.090477 0.375169
vt 0.081258 0.278611
vt 0.081303 0.278995
vt 0.081306 0.279008
vt 0.090489 0.375175
vt 0.080774 0.279042
vt 0.080777 0.279091
vt 0.080766 0.279018
vt 0.081020 0.278980
vt 0.081020 0.278980
vt 0.081026 0.279027
vt 0.080769 0.279067
vt 0.081026 0.279027
vt 0.081146 0.278960
vt 0.081294 0.278938
vt 0.081146 0.278960
vt 0.081294 0.278938
vt 0.081304 0.278984
vt 0.081299 0.278961
vt 0.081304 0.278984
vt 0.081154 0.279007
vt 0.081154 0.279007
vt 0.081299 0.278961
vn -0.923467 0.119689 0.364532
vn -0.923467 0.119689 0.364532
vn -0.923467 0.119689 0.364532
vn -0.923467 0.119689 0.364532
vn 0.000000 0.000000 -1.000000
vn 0.000000 0.000000 -1.000000
vn 0.000000 0.000000 -1.000000
vn 0.950114 0.123143 -0.286564
vn 0.950114 0.123143 -0.286564
vn 0.950114 0.123143 -0.286564
vn 0.000000 0.375473 0.926833
vn 0.000000 0.375473 0.926833
vn 0.000000 0.375473 0.926833
vn -1.000000 0.000131 -0.000000
vn -1.000000 0.000131 -0.000000
vn -1.000000 0.000131 -0.000000
vn -1.000000 0.000131 -0.000000
vn 0.000000 -1.000000 0.000000
vn 0.000000 -1.000000 0.000000
vn 0.000000 -1.000000 0.000000
vn 0.000000 -1.000000 0.000000
vn 1.000000 0.000131 0.000000
vn 1.000000 0.000131 0.000000
vn 1.000000 0.000131 0.000000
vn 1.000000 0.000131 0.000000
vn 0.000000 -0.959880 -0.280411
vn 0.000000 -0.959880 -0.280411
vn 0.000000 -0.959880 -0.280411
vn 0.000000 -0.959880 0.280411
vn 0.000000 -0.959880 0.280411
vn 0.000000 -0.959880 0.280411
vn 0.848793 0.004362 -0.528708
vn 0.848793 0.004362 -0.528708
vn 0.848793 0.004362 -0.528708
vn 0.848793 0.004362 -0.528708
vn -0.848793 0.004362 -0.528708
vn -0.848793 0.004362 -0.528708
vn -0.848793 0.004362 -0.528708
vn -0.848793 0.004362 -0.528708
vn 0.000000 0.244566 0.969633
vn 0.000000 0.244566 0.969633
vn 0.000000 0.244566 0.969633
vn 0.999987 0.005137 0.000000
vn 0.999987 0.005137 0.000000
vn 0.999987 0.005137 0.000000
vn -0.999987 0.005137 0.000000
vn -0.999987 0.005137 0.000000
vn -0.999987 0.005137 0.000000
vn -0.855616 0.060852 -0.514022
vn -0.855616 0.060852 -0.514022
vn -0.855616 0.060852 -0.514022
vn -0.855616 0.060852 -0.514022
vn -1.000000 0.000276 0.000000
vn -1.000000 0.000276 0.000000
vn -1.000000 0.000276 0.000000
vn -1.000000 0.000276 0.000000
vn -0.855616 0.060852 0.514022
vn -0.855616 0.060852 0.514022
vn -0.855616 0.060852 0.514022
vn -0.855616 0.060852 0.514022
vn 0.855616 0.060852 0.514022
vn 0.855616 0.060852 0.514022
vn 0.855616 0.060852 0.514022
vn 0.855616 0.060852 0.514022
vn 1.000000 0.000276 0.000000
vn 1.000000 0.000276 0.000000
vn 1.000000 0.000276 0.000000
vn 1.000000 0.000276 0.000000
vn 0.855616 0.060852 -0.514022
vn 0.855616 0.060852 -0.514022
vn 0.855616 0.060852 -0.514022
vn 0.855616 0.060852 -0.514022
vn -0.873346 -0.012021 -0.486953
vn -0.873346 -0.012021 -0.486953
vn -0.873346 -0.012021 -0.486953
vn -0.873346 -0.012021 -0.486953
vn 0.889146 -0.008365 -0.457548
vn 0.889146 -0.008365 -0.457548
vn 0.889146 -0.008365 -0.457548
vn 1.000000 0.000519 0.000000
vn 1.000000 0.000519 0.000000
vn 1.000000 0.000519 0.000000
vn -1.000000 0.000519 0.000000
vn -1.000000 0.000519 0.000000
vn -1.000000 0.000519 0.000000
vn -0.889276 0.000000 0.457372
vn -0.889276 0.000000 0.457372
vn -0.889276 0.000000 0.457372
vn 0.000000 -0.187524 -0.982260
vn 0.000000 -0.187524 -0.982260
vn 0.000000 -0.187524 -0.982260
vn 0.889276 0.000000 0.457372
vn 0.889276 0.000000 0.457372
vn 0.889276 0.000000 0.457372
vn 0.889276 0.000000 0.457372
vn 1.000000 0.000000 0.000000
vn 1.000000 0.000000 0.000000
vn 1.000000 0.000000 0.000000
vn 1.000000 0.000000 0.000000
vn -1.000000 0.000000 0.000000
vn -1.000000 0.000000 0.000000
vn -1.000000 0.000000 0.000000
vn -1.000000 0.000000 0.000000
vn -1.000000 0.000000 0.000000
vn -1.000000 0.000000 0.000000
vn -1.000000 0.000000 0.000000
vn 0.000000 -0.967085 -0.254452
vn 0.000000 -0.967085 -0.254452
vn 0.000000 -0.967085 -0.254452
vn 0.000000 -0.967085 -0.254452
vn 1.000000 0.000000 -0.000000
vn 1.000000 0.000000 -0.000000
vn 1.000000 0.000000 -0.000000
vn 1.000000 0.000000 -0.000000
vn 0.000000 -0.967085 0.254452
vn 0.000000 -0.967085 0.254452
vn 0.000000 -0.967085 0.254452
vn 0.000000 -0.967085 0.254452
vn -1.000000 0.000000 0.000000
vn -1.000000 0.000000 0.000000
vn -1.000000 0.000000 0.000000
vn -1.000000 0.000000 0.000000
vn 0.000000 -0.000000 -1.000000
vn 0.000000 -0.000000 -1.000000
vn 0.000000 -0.000000 -1.000000
vn 0.000000 -0.000000 -1.000000
vn 1.000000 0.000000 -0.000000
vn 1.000000 0.000000 -0.000000
vn 1.000000 0.000000 -0.000000
vn 1.000000 0.000000 -0.000000
vn 0.000000 0.000000 1.000000
vn 0.000000 0.000000 1.000000
vn 0.000000 0.000000 1.000000
vn 0.000000 0.000000 1.000000
vn -1.000000 0.000141 0.000115
vn -1.000000 0.000141 0.000115
vn -1.000000 0.000141 0.000115
vn -1.000000 0.000141 0.000115
vn -1.000000 0.000141 -0.000115
vn -1.000000 0.000141 -0.000115
vn -1.000000 0.000141 -0.000115
vn -1.000000 0.000141 -0.000115
vn -1.000000 0.000055 0.000000
vn -1.000000 0.000055 0.000000
vn -1.000000 0.000055 0.000000
vn -1.000000 0.000055 0.000000
vn -1.000000 0.000262 0.000229
vn -1.000000 0.000262 0.000229
vn -1.000000 0.000262 0.000229
vn -1.000000 0.000262 0.000229
vn -1.000000 0.000262 -0.000228
vn -1.000000 0.000262 -0.000228
vn -1.000000 0.000262 -0.000228
vn -1.000000 0.000262 -0.000228
vn -1.000000 0.000130 -0.000607
vn -1.000000 0.000130 -0.000607
vn -1.000000 0.000130 -0.000607
vn -1.000000 0.000130 -0.000607
vn -1.000000 0.000004 0.000000
vn -1.000000 0.000004 0.000000
vn -1.000000 0.000004 0.000000
vn -1.000000 0.000004 0.000000
vn -1.000000 0.000130 0.000607
vn -1.000000 0.000130 0.000607
vn -1.000000 0.000130 0.000607
vn -1.000000 0.000130 0.000607
vn 1.000000 0.000141 -0.000115
vn 1.000000 0.000141 -0.000115
vn 1.000000 0.000141 -0.000115
vn 1.000000 0.000141 -0.000115
vn 1.000000 0.000141 0.000115
vn 1.000000 0.000141 0.000115
vn 1.000000 0.000141 0.000115
vn 1.000000 0.000141 0.000115
vn 1.000000 0.000055 -0.000000
vn 1.000000 0.000055 -0.000000
vn 1.000000 0.000055 -0.000000
vn 1.000000 0.000055 -0.000000
vn 1.000000 0.000262 -0.000228
vn 1.000000 0.000262 -0.000228
vn 1.000000 0.000262 -0.000228
vn 1.000000 0.000262 -0.000228
vn 1.000000 0.000262 0.000228
vn 1.000000 0.000262 0.000228
vn 1.000000 0.000262 0.000228
vn 1.000000 0.000262 0.000228
vn 1.000000 0.000136 0.000415
vn 1.000000 0.000136 0.000415
vn 1.000000 0.000136 0.000415
vn 1.000000 0.000136 0.000415
vn 1.000000 0.000136 0.000415
vn 1.000000 0.000004 0.000000
vn 1.000000 0.000004 0.000000
vn 1.000000 0.000004 0.000000
vn 1.000000 0.000130 -0.000607
vn 1.000000 0.000130 -0.000607
vn 1.000000 0.000130 -0.000607
vn 1.000000 0.000130 -0.000607
vn 0.874417 -0.011781 0.485032
vn 0.874417 -0.011781 0.485032
vn 0.874417 -0.011781 0.485032
vn 0.874417 -0.011781 0.485032
vn 0.874417 -0.011781 0.485032
vn -0.874417 -0.011781 0.485032
vn -0.874417 -0.011781 0.485032
vn -0.874417 -0.011781 0.485032
vn -0.874417 -0.011781 0.485032
vn -0.874417 -0.011781 0.485032
vn -0.849188 0.004222 0.528073
vn -0.849188 0.004222 0.528073
vn -0.849188 0.004222 0.528073
vn -0.849188 0.004222 0.528073
vn -0.849188 0.004222 0.528073
vn 0.849189 0.004222 0.528073
vn 0.849189 0.004222 0.528073
vn 0.849189 0.004222 0.528073
vn 0.849189 0.004222 0.528073
vn 0.849189 0.004222 0.528073
vn 0.927454 0.048995 -0.370715
vn 0.927454 0.048995 -0.370715
vn 0.927454 0.048995 -0.370715
vn 0.927454 0.048995 -0.370715
vn 0.927454 0.048995 -0.370715
vn 0.889276 0.000000 -0.457372
vn 0.889276 0.000000 -0.457372
vn 0.889276 0.000000 -0.457372
vn 0.889276 0.000000 -0.457372
vn 0.889276 0.000000 -0.457372
vn -0.889275 0.000000 -0.457372
vn -0.889275 0.000000 -0.457372
vn -0.889275 0.000000 -0.457372
vn -0.889275 0.000000 -0.457372
vn -0.889275 0.000000 -0.457372
vn -0.927454 0.048995 -0.370715
vn -0.927454 0.048995 -0.370715
vn -0.927454 0.048995 -0.370715
vn -0.927454 0.048995 -0.370715
vn -0.927454 0.048995 -0.370715
vn -0.950114 0.123143 0.286564
vn -0.950114 0.123143 0.286564
vn -0.950114 0.123143 0.286564
vn -0.950114 0.123143 0.286564
vn -0.923589 0.049825 0.380134
vn -0.923589 0.049825 0.380134
vn -0.923589 0.049825 0.380134
vn -0.923589 0.049825 0.380134
vn -0.923589 0.049825 0.380134
vn 0.923589 0.049825 0.380134
vn 0.923589 0.049825 0.380134
vn 0.923589 0.049825 0.380134
vn 0.923589 0.049825 0.380134
vn 0.923589 0.049825 0.380134
vn 0.950114 0.123143 0.286564
vn 0.950114 0.123143 0.286564
vn 0.950114 0.123143 0.286564
vn 0.950114 0.123143 0.286564
vn 0.000000 0.310548 -0.950558
vn 0.000000 0.310548 -0.950558
vn 0.000000 0.310548 -0.950558
vn 0.000000 -0.213457 0.976953
vn 0.000000 -0.213457 0.976953
vn 0.000000 -0.213457 0.976953
vn 0.000000 -0.180664 0.983545
vn 0.000000 -0.180664 0.983545
vn 0.000000 -0.180664 0.983545
vn 1.000000 0.000078 -0.000127
vn 1.000000 0.000078 -0.000127
vn 1.000000 0.000078 -0.000127
vn 0.852285 -0.009574 -0.522990
vn 0.852285 -0.009574 -0.522990
vn 0.852285 -0.009574 -0.522990
vn 0.867684 -0.014259 -0.496912
vn 0.867684 -0.014259 -0.496912
vn 0.867684 -0.014259 -0.496912
vn 0.867684 -0.014259 -0.496912
vn 1.000000 0.000132 0.000780
vn 1.000000 0.000132 0.000780
vn 1.000000 0.000132 0.000780
vn 1.000000 0.000132 0.000780
vn -1.000000 0.000000 0.000000
vn -1.000000 0.000000 0.000000
vn -1.000000 0.000000 0.000000
vn -0.889276 0.000000 0.457371
vn -0.889276 0.000000 0.457371
vn -0.889276 0.000000 0.457371
vn -0.889276 0.000000 0.457371
vn -1.000000 0.000000 0.000000
vn -1.000000 0.000000 0.000000
vn -1.000000 0.000000 0.000000
vn -1.000000 0.000000 0.000000
s off
f 32/2/1 24/3/2 26/1/3 29/4/4
f 26/1/5 32/2/6 29/4/7
f 24/3/8 32/2/9 29/4/10
f 65/112/11 63/110/12 62/109/13
f 41/75/14 42/76/15 43/77/16 44/78/17
f 38/58/18 37/59/19 39/60/20 40/61/21
f 48/79/22 49/80/23 50/81/24 51/82/25
f 2/17/26 8/14/27 5/12/28
f 1/16/29 6/18/30 7/13/31
f 20/38/32 21/40/33 18/35/34 13/26/35
f 13/26/36 14/28/37 19/37/38 20/38/39
f 57/104/40 58/105/41 55/102/42
f 29/24/43 31/50/44 30/51/45
f 28/53/46 26/25/47 25/52/48
f 5/12/49 14/28/50 13/26/51 2/17/52
f 45/83/53 46/84/54 42/76/55 41/75/56
f 1/16/57 16/31/58 15/30/59 6/18/60
f 7/13/61 17/33/62 16/31/63 1/16/64
f 53/85/65 52/86/66 49/80/67 48/79/68
f 13/26/69 18/35/70 8/14/71 2/17/72
f 20/38/73 19/37/74 12/8/75 4/5/76
f 4/5/77 10/10/78 68/116/79
f 51/82/80 50/81/81 54/87/82
f 44/78/83 43/77/84 47/88/85
f 70/120/86 27/47/87 28/46/88
f 60/107/89 64/111/90 61/108/91
f 3/15/92 9/11/93 31/49/94 27/47/95
f 9/23/96 10/22/97 30/51/98 31/50/99
f 70/120/100 71/124/101 11/7/102
f 6/9/103 5/6/104 33/55/105 34/54/106
f 5/6/107 8/20/108 35/56/109 33/55/110
f 8/20/111 7/21/112 36/57/113 35/56/114
f 7/21/115 6/9/116 34/54/117 36/57/118
f 34/54/119 33/55/120 37/59/121 38/58/122
f 33/55/123 35/56/124 39/60/125 37/59/126
f 35/56/127 36/57/128 40/61/129 39/60/130
f 36/57/131 34/54/132 38/58/133 40/61/134
f 15/29/135 23/43/136 43/63/137 42/62/138
f 19/36/139 14/27/140 41/65/141 44/64/142
f 5/34/143 6/39/144 46/67/145 45/66/146
f 6/41/147 15/32/148 42/69/149 46/68/150
f 14/125/151 5/126/152 45/70/153 41/65/154
f 23/74/155 11/89/156 47/90/157 43/91/158
f 11/89/159 71/121/160 12/92/161 47/90/162
f 12/92/163 19/93/164 44/94/165 47/90/166
f 18/127/167 21/128/168 50/129/169 49/72/170
f 22/130/171 17/131/172 48/71/173 51/132/174
f 7/133/175 8/134/176 52/73/177 53/135/178
f 8/136/179 18/137/180 49/138/181 52/73/182
f 17/139/183 7/140/184 53/141/185 48/142/186
f 21/95/187 67/114/188 69/117/189 54/97/190 50/98/191
f 10/96/192 9/99/193 54/97/194
f 9/99/195 22/100/196 51/101/197 54/97/198
f 56/103/199 57/104/200 22/42/201 9/11/202 3/15/203
f 23/44/204 58/105/205 56/103/206 3/15/207 11/7/208
f 15/30/209 16/31/210 55/102/211 58/105/212 23/44/213
f 16/31/214 17/33/215 22/42/216 57/104/217 55/102/218
f 64/111/219 60/107/220 24/3/221 29/4/222 30/48/223
f 10/10/224 4/5/225 59/106/226 64/111/227 30/48/228
f 4/5/229 12/8/230 25/45/231 61/108/232 59/106/233
f 24/3/234 60/107/235 61/108/236 25/45/237 26/1/238
f 63/110/239 66/113/240 32/2/241 26/1/242
f 27/47/243 62/109/244 63/110/245 26/1/246 28/46/247
f 65/112/248 62/109/249 27/47/250 31/49/251 29/4/252
f 32/2/253 66/113/254 65/112/255 29/4/256
f 61/108/257 64/111/258 59/106/259
f 65/112/260 66/113/261 63/110/262
f 57/104/263 56/103/264 58/105/265
f 68/116/266 69/118/267 67/115/268
f 20/38/269 67/115/270 21/40/271
f 4/5/272 68/116/273 67/115/274 20/38/275
f 54/97/276 69/117/277 68/119/278 10/96/279
f 12/19/280 71/122/281 25/52/282
f 11/7/283 3/15/284 27/47/285 70/120/286
f 25/52/287 71/122/288 70/123/289 28/53/290
