# This file uses centimeters as units for non-parametric coordinates.

v 0.000000 12.572966 7.107666
v 0.000000 12.572966 -7.107666
v 0.000000 135.000000 0.000000
v 0.000000 131.967987 2.100037
v 0.000000 131.967987 -2.100037
v -0.941577 12.572966 3.305817
v -0.941577 12.572966 -3.305817
v 0.941577 12.572966 -3.305817
v 0.941577 12.572966 3.305817
v -0.367056 131.257385 0.000000
v 0.367056 131.257385 0.000000
v 0.000000 121.704491 3.333710
v 0.668161 124.641937 1.314117
v 0.668161 124.641937 -1.314117
v 0.000000 121.704491 -3.333710
v -0.668161 124.641937 -1.314117
v -0.668161 124.641937 1.314117
v -0.401964 13.022970 1.673676
v -0.401964 13.022970 -1.673676
v 0.401964 13.022970 -1.673676
v 0.401964 13.022970 1.673676
v 0.668161 124.517311 -0.460144
v 0.668161 124.517311 0.460144
v -0.668161 124.517311 -0.460144
v -0.668161 124.517311 0.460144
v -0.668161 128.250748 0.000000
v 0.668161 128.250748 0.000000
v 1.501964 13.022966 0.000092
v -1.501964 13.022966 -0.000092
v 0.873494 40.479328 -2.809845
v 0.851842 49.353867 2.652130
v -0.872989 40.686024 -2.806213
v -0.851378 49.544083 2.648773
v 0.483569 47.202564 1.301636
v -0.473559 43.009880 -1.347290
v 0.473295 42.899067 -1.348480
v -0.483830 47.311787 1.300476
v 1.270589 44.997906 0.000092
v -1.268479 45.289539 -0.000061
v 0.753630 35.395096 -6.300060
v -0.540973 50.530704 5.776482
v 0.494478 40.519386 -6.107376
v -0.235584 56.371948 5.563068
v 0.393072 37.383263 -4.749935
v -0.383120 52.183300 4.306694
v 0.383329 52.097706 4.308205
v -0.392845 37.476276 -4.748299
v -0.489843 128.559692 0.535873
v 0.489843 128.559692 0.535873
v 0.000000 125.047501 2.931877
v 0.000000 129.666077 2.376724
v -0.220429 128.132339 1.672852
v 0.220429 128.132339 1.672852
vt 0.113509 0.348179
vt 0.113508 0.348184
vt 0.113536 0.348187
vt 0.113537 0.348182
vt 0.113398 0.349130
vt 0.113397 0.349027
vt 0.113407 0.349064
vt 0.113407 0.349066
vt 0.113397 0.349033
vt 0.113399 0.349133
vt 0.113582 0.382661
vt 0.113551 0.348177
vt 0.113550 0.348188
vt 0.113464 0.382650
vt 0.113495 0.348183
vt 0.113496 0.348172
vt 0.113426 0.349030
vt 0.113448 0.383512
vt 0.113421 0.383617
vt 0.113376 0.383503
vt 0.113374 0.383612
vt 0.113426 0.349036
vt 0.113393 0.383647
vt 0.113418 0.349022
vt 0.113408 0.349021
vt 0.113408 0.349023
vt 0.113418 0.349024
vt 0.113523 0.348173
vt 0.113522 0.348192
vt 0.113520 0.348389
vt 0.113463 0.348452
vt 0.113519 0.348401
vt 0.113463 0.348464
vt 0.113478 0.348437
vt 0.113504 0.348412
vt 0.113505 0.348407
vt 0.113477 0.348442
vt 0.113491 0.348420
vt 0.113490 0.348437
vt 0.113569 0.382748
vt 0.113447 0.382813
vt 0.113501 0.383173
vt 0.113403 0.383240
vt 0.113537 0.365612
vt 0.113446 0.365720
vt 0.113447 0.365715
vt 0.113537 0.365618
vt 0.113398 0.349092
vt 0.113398 0.349088
vt 0.113375 0.383535
vt 0.113374 0.383589
vt 0.113386 0.366330
vt 0.113386 0.366328
vn 0.000000 -1.000000 0.000000
vn 0.000000 -1.000000 0.000000
vn 0.000000 -1.000000 0.000000
vn 0.000000 -1.000000 0.000000
vn 0.959735 0.096114 0.263952
vn 0.959735 0.096114 0.263952
vn 0.959735 0.096114 0.263952
vn -0.959735 0.096114 0.263952
vn -0.959735 0.096114 0.263952
vn -0.959735 0.096114 0.263952
vn 0.000000 -1.000000 0.000000
vn 0.000000 -1.000000 0.000000
vn 0.000000 -1.000000 0.000000
vn 0.000000 -1.000000 0.000000
vn 0.000000 -1.000000 0.000000
vn 0.000000 -1.000000 0.000000
vn 0.960293 0.058313 -0.272832
vn 0.960293 0.058313 -0.272832
vn 0.960293 0.058313 -0.272832
vn 0.960293 0.058313 -0.272832
vn -0.048709 -0.395427 -0.917205
vn -0.048709 -0.395427 -0.917205
vn -0.048709 -0.395427 -0.917205
vn 0.072117 0.658983 0.748692
vn 0.072117 0.658983 0.748692
vn 0.072117 0.658983 0.748692
vn -0.960293 0.058313 -0.272832
vn -0.960293 0.058313 -0.272832
vn -0.960293 0.058313 -0.272832
vn -0.960293 0.058313 -0.272832
vn -0.974569 0.095581 0.202682
vn -0.974569 0.095581 0.202682
vn -0.974569 0.095581 0.202682
vn -0.974569 0.095581 0.202682
vn 0.000000 0.000000 -1.000000
vn 0.000000 0.000000 -1.000000
vn 0.000000 0.000000 -1.000000
vn 0.985488 0.096652 -0.139544
vn 0.985488 0.096652 -0.139544
vn 0.985488 0.096652 -0.139544
vn 0.985488 0.096652 0.139544
vn 0.985488 0.096652 0.139544
vn 0.985488 0.096652 0.139544
vn 0.000000 -0.964029 0.265796
vn 0.000000 -0.964029 0.265796
vn 0.000000 -0.964029 0.265796
vn 0.000000 -0.964029 0.265796
vn 0.000000 -0.964029 -0.265797
vn 0.000000 -0.964029 -0.265797
vn 0.000000 -0.964029 -0.265797
vn 0.000000 -0.964029 -0.265797
vn 0.955711 -0.004236 0.294276
vn 0.955711 -0.004236 0.294276
vn 0.955711 -0.004236 0.294276
vn 0.955711 -0.004236 0.294276
vn -0.957334 -0.004066 -0.288954
vn -0.957334 -0.004066 -0.288954
vn -0.957334 -0.004066 -0.288954
vn -0.957334 -0.004066 -0.288954
vn 0.986716 -0.002326 -0.162437
vn 0.986716 -0.002326 -0.162437
vn 0.986716 -0.002326 -0.162437
vn 0.986716 -0.002326 -0.162437
vn -1.000000 0.000000 0.000000
vn -1.000000 0.000000 0.000000
vn -1.000000 0.000000 0.000000
vn -0.985022 -0.002418 0.172410
vn -0.985022 -0.002418 0.172410
vn -0.985022 -0.002418 0.172410
vn -0.985022 -0.002418 0.172410
vn -0.959737 0.096114 -0.263947
vn -0.959737 0.096114 -0.263947
vn -0.959737 0.096114 -0.263947
vn -1.000000 0.000000 0.000000
vn -1.000000 0.000000 0.000000
vn -1.000000 0.000000 0.000000
vn -0.985488 0.096651 0.139545
vn -0.985488 0.096651 0.139545
vn -0.985488 0.096651 0.139545
vn -0.000003 -1.000000 0.000000
vn -0.000003 -1.000000 0.000000
vn -0.000003 -1.000000 0.000000
vn 0.845371 0.004996 -0.534157
vn 0.845371 0.004996 -0.534157
vn 0.845371 0.004996 -0.534157
vn 0.845371 0.004996 -0.534157
vn 0.846096 0.004913 0.533008
vn 0.846096 0.004913 0.533008
vn 0.846096 0.004913 0.533008
vn 0.846096 0.004913 0.533008
vn -0.846198 0.004915 0.532846
vn -0.846198 0.004915 0.532846
vn -0.846198 0.004915 0.532846
vn -0.846198 0.004915 0.532846
vn 0.000003 -1.000000 0.000000
vn 0.000003 -1.000000 0.000000
vn 0.000003 -1.000000 0.000000
vn -0.845413 0.004999 -0.534090
vn -0.845413 0.004999 -0.534090
vn -0.845413 0.004999 -0.534090
vn -0.845413 0.004999 -0.534090
vn 1.000000 0.000000 0.000000
vn 1.000000 0.000000 0.000000
vn 1.000000 0.000000 0.000000
vn 1.000000 0.000000 0.000000
vn 1.000000 0.000000 0.000000
vn 1.000000 0.000000 0.000000
vn 0.959737 0.096114 -0.263947
vn 0.959737 0.096114 -0.263947
vn 0.959737 0.096114 -0.263947
vn 0.984980 -0.002421 0.172650
vn 0.984980 -0.002421 0.172650
vn 0.984980 -0.002421 0.172650
vn 0.984980 -0.002421 0.172650
vn -0.986756 -0.002324 -0.162198
vn -0.986756 -0.002324 -0.162198
vn -0.986756 -0.002324 -0.162198
vn -0.986756 -0.002324 -0.162198
vn 0.957299 -0.004069 -0.289072
vn 0.957299 -0.004069 -0.289072
vn 0.957299 -0.004069 -0.289072
vn 0.957299 -0.004069 -0.289072
vn -0.955751 -0.004231 0.294147
vn -0.955751 -0.004231 0.294147
vn -0.955751 -0.004231 0.294147
vn -0.955751 -0.004231 0.294147
vn 0.909613 0.004487 -0.415432
vn 0.909613 0.004487 -0.415432
vn 0.909613 0.004487 -0.415432
vn 0.909613 0.004487 -0.415432
vn 0.911553 0.004527 0.411158
vn 0.911553 0.004527 0.411158
vn 0.911553 0.004527 0.411158
vn 0.911553 0.004527 0.411158
vn -0.911751 0.004523 0.410718
vn -0.911751 0.004523 0.410718
vn -0.911751 0.004523 0.410718
vn -0.911751 0.004523 0.410718
vn -0.909784 0.004483 -0.415058
vn -0.909784 0.004483 -0.415058
vn -0.909784 0.004483 -0.415058
vn -0.909784 0.004483 -0.415058
vn -0.941428 0.016588 -0.336806
vn -0.941428 0.016588 -0.336806
vn -0.941428 0.016588 -0.336806
vn -0.941428 0.016588 -0.336806
vn -0.941428 0.016588 -0.336806
vn -0.932195 0.009768 -0.361824
vn -0.932195 0.009768 -0.361824
vn -0.932195 0.009768 -0.361824
vn -0.932195 0.009768 -0.361824
vn -0.932195 0.009768 -0.361824
vn 0.980537 0.007176 -0.196202
vn 0.980537 0.007176 -0.196202
vn 0.980537 0.007176 -0.196202
vn 0.980537 0.007176 -0.196202
vn 0.980537 0.007176 -0.196202
vn 0.988817 -0.001989 -0.149122
vn 0.988817 -0.001989 -0.149122
vn 0.988817 -0.001989 -0.149122
vn 0.988817 -0.001989 -0.149122
vn 0.988817 -0.001989 -0.149122
vn 0.947251 0.012997 0.320230
vn 0.947251 0.012997 0.320230
vn 0.947251 0.012997 0.320230
vn 0.947251 0.012997 0.320230
vn 0.947251 0.012997 0.320230
vn 0.944891 0.009091 0.327258
vn 0.944891 0.009091 0.327258
vn 0.944891 0.009091 0.327258
vn 0.944891 0.009091 0.327258
vn 0.944891 0.009091 0.327258
vn -0.969040 0.008082 0.246771
vn -0.969040 0.008082 0.246771
vn -0.969040 0.008082 0.246771
vn -0.969040 0.008082 0.246771
vn -0.969040 0.008082 0.246771
vn -0.984572 0.002331 0.174962
vn -0.984572 0.002331 0.174962
vn -0.984572 0.002331 0.174962
vn -0.984572 0.002331 0.174962
vn -0.984572 0.002331 0.174962
vn 0.000000 0.377873 0.925857
vn 0.000000 0.377873 0.925857
vn 0.000000 0.377873 0.925857
vn 0.959736 0.096116 0.263949
vn 0.959736 0.096116 0.263949
vn 0.959736 0.096116 0.263949
vn -0.959736 0.096116 0.263949
vn -0.959736 0.096116 0.263949
vn -0.959736 0.096116 0.263949
vn -0.937542 0.071918 0.340357
vn -0.937542 0.071918 0.340357
vn -0.937542 0.071918 0.340357
vn -0.937542 0.071918 0.340357
vn -0.937542 0.071918 0.340357
vn 0.937542 0.071918 0.340356
vn 0.937542 0.071918 0.340356
vn 0.937542 0.071918 0.340356
vn 0.937542 0.071918 0.340356
vn 0.937542 0.071918 0.340356
vn 0.979166 0.050459 0.196692
vn 0.979166 0.050459 0.196692
vn 0.979166 0.050459 0.196692
vn 0.979166 0.050459 0.196692
vn 0.979166 0.050459 0.196692
vn -0.979166 0.050459 0.196693
vn -0.979166 0.050459 0.196693
vn -0.979166 0.050459 0.196693
vn -0.979166 0.050459 0.196693
vn -0.979166 0.050459 0.196693
vn 0.071913 0.621357 -0.780221
vn 0.071913 0.621357 -0.780221
vn 0.071913 0.621357 -0.780221
vn -0.033832 -0.286044 0.957619
vn -0.033832 -0.286044 0.957619
vn -0.033832 -0.286044 0.957619
vn 0.000000 -0.417103 0.908859
vn 0.000000 -0.417103 0.908859
vn 0.000000 -0.417103 0.908859
s off
f 21/1/1 18/2/2 19/3/3 20/4/4
f 11/5/5 49/49/6 27/7/7
f 26/8/8 48/48/9 10/10/10
f 2/11/11 8/12/12 7/13/13
f 1/14/14 6/15/15 9/16/16
f 14/17/17 15/18/18 5/19/19 11/5/20
f 47/47/21 42/42/22 44/44/23
f 46/46/24 45/45/25 41/41/26
f 10/10/27 5/19/28 15/18/29 16/22/30
f 3/23/31 5/19/32 10/10/33 11/5/34
f 10/10/35 3/23/36 11/5/37
f 5/19/38 3/23/39 11/5/40
f 3/23/41 4/21/42 11/5/43
f 7/13/44 8/12/45 20/4/46 19/3/47
f 9/16/48 6/15/49 18/2/50 21/1/51
f 20/4/52 8/12/53 30/30/54 36/36/55
f 18/2/56 6/15/57 33/33/58 37/37/59
f 23/25/60 13/6/61 31/31/62 34/34/63
f 17/9/64 26/8/65 25/26/66
f 24/27/67 16/22/68 32/32/69 35/35/70
f 10/10/71 16/22/72 26/8/73
f 26/8/74 16/22/75 24/27/76
f 4/21/77 3/23/78 10/10/79
f 21/1/80 20/4/81 28/28/82
f 28/28/83 20/4/84 36/36/85 38/38/86
f 28/28/87 38/38/88 34/34/89 21/1/90
f 29/29/91 18/2/92 37/37/93 39/39/94
f 19/3/95 18/2/96 29/29/97
f 29/29/98 39/39/99 35/35/100 19/3/101
f 13/6/102 23/25/103 27/7/104
f 22/24/105 14/17/106 27/7/107
f 27/7/108 14/17/109 11/5/110
f 36/36/111 30/30/112 14/17/113 22/24/114
f 37/37/115 33/33/116 17/9/117 25/26/118
f 34/34/119 31/31/120 9/16/121 21/1/122
f 35/35/123 32/32/124 7/13/125 19/3/126
f 38/38/127 36/36/128 22/24/129 27/7/130
f 34/34/131 38/38/132 27/7/133 23/25/134
f 39/39/135 37/37/136 25/26/137 26/8/138
f 35/35/139 39/39/140 26/8/141 24/27/142
f 32/32/143 47/47/144 40/40/145 2/11/146 7/13/147
f 16/22/148 15/18/149 42/42/150 47/47/151 32/32/152
f 30/30/153 44/44/154 42/42/155 15/18/156 14/17/157
f 8/12/158 2/11/159 40/40/160 44/44/161 30/30/162
f 31/31/163 46/46/164 41/41/165 1/14/166 9/16/167
f 13/6/168 12/20/169 43/43/170 46/46/171 31/31/172
f 33/33/173 45/45/174 43/43/175 12/20/176 17/9/177
f 6/15/178 1/14/179 41/41/180 45/45/181 33/33/182
f 52/52/183 50/50/184 53/53/185
f 27/7/186 49/49/187 13/6/188
f 26/8/189 17/9/190 48/48/191
f 17/9/192 12/20/193 50/50/194 52/52/195 48/48/196
f 49/49/197 53/53/198 50/50/199 12/20/200 13/6/201
f 11/5/202 4/21/203 51/51/204 53/53/205 49/49/206
f 48/48/207 52/52/208 51/51/209 4/21/210 10/10/211
f 47/47/212 44/44/213 40/40/214
f 46/46/215 43/43/216 45/45/217
f 52/52/218 53/53/219 51/51/220
