# This file uses centimeters as units for non-parametric coordinates.

v 1.825178 7.061227 -1.151753
v 1.825178 7.061227 1.502801
v 0.000000 7.061228 3.005602
v -1.825178 7.061227 1.502801
v -1.825178 7.061227 -1.151753
v 0.000000 7.061228 -2.654554
v 1.845347 -13.511328 -0.673686
v 1.845347 -13.435576 2.912919
v 0.000000 -13.142553 5.015093
v -1.845347 -13.435577 2.912923
v -1.845347 -13.511326 -0.673683
v -0.000000 -12.903588 -2.775856
v 1.926790 -8.329912 -0.877305
v 0.000000 -8.329912 -2.293260
v -1.926790 -8.329912 -0.319010
v -1.926790 -8.329912 1.954606
v 0.000000 -8.329912 3.370561
v 1.926790 -8.329912 1.954606
v 1.602835 -0.001513 0.958343
v 0.000000 -0.001513 2.199635
v -1.602835 -0.001513 0.958344
v -1.602835 -0.001513 -0.921333
v 0.000000 -0.001513 -2.162624
v 1.602835 -0.001513 -0.921333
v 0.745347 -14.656657 -0.497503
v 0.745347 -14.898012 1.980838
v 0.000000 -14.834913 2.829918
v -0.745347 -14.898013 1.980839
v -0.745347 -14.656659 -0.497501
v 0.000000 -14.411188 -1.346583
v 0.000000 11.550422 -3.352436
v -1.825178 11.550422 -1.676218
v -1.825178 9.435365 1.676218
v 0.000000 8.650898 3.352436
v 1.825178 9.435365 1.676218
v 1.825178 11.550422 -1.676219
v 1.752632 11.827872 1.698117
v -1.752632 11.827872 1.698117
v 0.000000 10.674141 3.396235
v 0.000000 13.449941 -3.396235
v 1.752632 13.449941 -1.698118
v -1.752632 13.449941 -1.698117
v 1.825178 7.061227 -0.369278
v 1.926790 -8.329912 0.054946
v 1.602835 -0.001513 0.489745
v 1.926790 -8.329912 0.899024
v 0.641030 8.926415 2.763722
v 0.633777 7.061228 2.483768
v -1.309184 -8.329912 2.408471
v -0.703852 -8.329912 2.853315
v -0.823330 -0.001513 1.562020
v 0.368996 11.550422 -3.013555
v -0.459502 -0.001513 -1.806769
v -1.260610 7.061227 -1.616602
v -0.788985 -0.001513 -1.551606
v -0.546168 -8.329912 -1.891893
v 0.000000 -10.366209 -2.508121
v -1.825178 11.083722 -0.936482
v -1.825178 7.061227 1.025209
v -1.825178 7.061227 0.475096
v -0.745347 -14.747606 0.436389
v -1.845347 -13.490835 0.296479
v -1.926790 -8.329912 0.240344
v -0.000297 52.722328 -7.499084
v 0.000000 30.637371 2.199341
v -0.000606 45.149220 0.097988
v -0.000296 51.429958 -3.930073
v -0.941577 11.073022 0.000000
v 0.941577 11.073022 0.000000
v 0.941663 30.357853 -0.402796
v 0.849741 44.269306 -2.146938
v -0.850953 44.269306 -2.146938
v -0.941663 30.357849 -0.402794
v -0.578593 50.127201 -5.025150
v 0.577999 50.127201 -5.025150
v 0.607540 11.073020 -2.515063
v -0.487875 11.073020 -2.515063
v 0.607540 30.112720 -2.905922
v -0.487875 30.112720 -2.905922
v 0.851985 43.624340 -4.253849
v -0.592955 43.624340 -4.253849
v 0.408227 50.121067 -6.209957
v -0.220290 50.121067 -6.209957
v -0.941607 16.790264 0.000000
v -0.487875 16.794350 -2.515067
v 0.607540 16.794350 -2.515066
v 0.941607 16.790264 0.000000
v -0.551963 11.073022 2.617075
v 0.551962 11.073022 2.617075
v 0.551963 17.537430 2.617075
v 0.000000 20.372440 2.617075
v -0.551963 17.537430 2.617075
vt 0.197338 0.351571
vt 0.197333 0.351476
vt 0.197611 0.351444
vt 0.197617 0.351526
vt 0.197338 0.351626
vt 0.197612 0.351575
vt 0.197333 0.351588
vt 0.197601 0.351543
vt 0.197328 0.351498
vt 0.197595 0.351464
vt 0.197328 0.351441
vt 0.197600 0.351414
vt 0.197121 0.351505
vt 0.197100 0.351588
vt 0.197094 0.351619
vt 0.197103 0.351594
vt 0.197124 0.351513
vt 0.197129 0.351481
vt 0.197157 0.351491
vt 0.197177 0.351432
vt 0.197162 0.351511
vt 0.197128 0.351648
vt 0.197107 0.351712
vt 0.197121 0.351634
vt 0.198001 0.351420
vt 0.197976 0.351379
vt 0.197963 0.351444
vt 0.197905 0.351553
vt 0.197902 0.351601
vt 0.197941 0.351535
vt 0.197860 0.351533
vt 0.197848 0.351592
vt 0.197829 0.351551
vt 0.197820 0.351456
vt 0.197830 0.351396
vt 0.197850 0.351433
vt 0.197940 0.351564
vt 0.197922 0.351623
vt 0.197983 0.351544
vt 0.198094 0.351403
vt 0.198062 0.351353
vt 0.198045 0.351431
vt 0.197853 0.351462
vt 0.197334 0.351507
vt 0.197616 0.351506
vt 0.197336 0.351535
vt 0.197916 0.351578
vt 0.197852 0.351571
vt 0.197334 0.351600
vt 0.197336 0.351612
vt 0.197606 0.351559
vt 0.197981 0.351387
vt 0.197599 0.351428
vt 0.197823 0.351438
vt 0.197598 0.351439
vt 0.197328 0.351457
vt 0.197261 0.351437
vt 0.197950 0.351468
vt 0.197827 0.351534
vt 0.197825 0.351514
vt 0.197116 0.351543
vt 0.197153 0.351548
vt 0.197329 0.351516
vt 0.197024 0.278558
vt 0.196723 0.278527
vt 0.196726 0.278497
vt 0.197025 0.278541
vt 0.196735 0.278471
vt 0.196733 0.278490
vt 0.197021 0.278496
vt 0.196554 0.278495
vt 0.196557 0.278461
vt 0.196531 0.278583
vt 0.197506 0.278451
vt 0.197441 0.278457
vt 0.197439 0.278446
vt 0.197284 0.278534
vt 0.197030 0.278490
vt 0.197286 0.278506
vt 0.196506 0.278493
vt 0.196512 0.278461
vt 0.197450 0.278502
vt 0.197279 0.278456
vt 0.196506 0.278458
vt 0.197279 0.278602
vt 0.197263 0.278655
vt 0.197269 0.278637
vt 0.197335 0.278653
vt 0.197319 0.278673
vt 0.197016 0.278603
vt 0.196542 0.278659
vt 0.196721 0.278599
vt 0.196723 0.278584
vt 0.197016 0.278581
vt 0.197451 0.278625
vt 0.197268 0.278494
vt 0.197027 0.278463
vt 0.197025 0.278473
vt 0.196737 0.278418
vt 0.196737 0.278433
vt 0.196667 0.278403
vt 0.196542 0.278453
vt 0.197419 0.278507
vt 0.197402 0.278531
vt 0.197485 0.278513
vt 0.197259 0.278567
vt 0.197016 0.278561
vt 0.197258 0.278586
vt 0.090479 0.375164
vt 0.090469 0.375193
vt 0.089810 0.374891
vt 0.089821 0.374875
vt 0.090477 0.375169
vt 0.089825 0.374886
vt 0.089725 0.374830
vt 0.089692 0.374825
vt 0.089667 0.374813
vt 0.089672 0.374806
vt 0.089669 0.374819
vt 0.089695 0.374831
vt 0.089730 0.374842
vt 0.089678 0.374817
vt 0.090619 0.375253
vt 0.090614 0.375231
vt 0.090616 0.375227
vt 0.093670 0.323843
vt 0.093646 0.323859
vt 0.093650 0.323869
vt 0.093650 0.323863
vt 0.090661 0.375250
vt 0.092674 0.324148
vt 0.092670 0.324138
vt 0.092672 0.324158
vt 0.092679 0.324175
vt 0.093646 0.323855
vt 0.092794 0.324116
vt 0.092791 0.324106
vt 0.093019 0.324046
vt 0.093022 0.324055
vt 0.093551 0.323907
vt 0.093551 0.323899
vt 0.093563 0.323911
vt 0.093025 0.324064
vt 0.093029 0.324081
vt 0.093563 0.323921
vt 0.092794 0.324126
vt 0.092800 0.324142
vt 0.089690 0.374834
vt 0.092675 0.324175
vt 0.092679 0.324183
vn 0.999244 0.038868 -0.000000
vn 0.999244 0.038868 -0.000000
vn 0.999244 0.038868 -0.000000
vn 0.999244 0.038868 -0.000000
vn 0.597470 0.114877 0.793620
vn 0.597470 0.114877 0.793620
vn 0.597470 0.114877 0.793620
vn 0.597470 0.114877 0.793620
vn -0.588408 0.112572 0.800689
vn -0.588408 0.112572 0.800689
vn -0.588408 0.112572 0.800689
vn -0.999244 0.038868 0.000000
vn -0.999244 0.038868 0.000000
vn -0.999244 0.038868 0.000000
vn -0.708481 -0.007650 -0.705688
vn -0.708481 -0.007650 -0.705688
vn -0.708481 -0.007650 -0.705688
vn -0.708481 -0.007650 -0.705688
vn 0.601376 0.015849 -0.798809
vn 0.601376 0.015849 -0.798809
vn 0.601376 0.015849 -0.798809
vn 0.601376 0.015849 -0.798809
vn 0.000000 0.827150 0.561980
vn 0.000000 0.827150 0.561980
vn 0.000000 0.827150 0.561980
vn 0.000001 -0.960660 -0.277728
vn 0.000001 -0.960660 -0.277728
vn 0.000001 -0.960660 -0.277728
vn 0.759470 0.068264 -0.646951
vn 0.759470 0.068264 -0.646951
vn 0.759470 0.068264 -0.646951
vn -0.744220 0.038169 -0.666843
vn -0.744220 0.038169 -0.666843
vn -0.744220 0.038169 -0.666843
vn -0.744220 0.038169 -0.666843
vn -0.744220 0.038169 -0.666843
vn -0.999876 -0.015754 0.000211
vn -0.999876 -0.015754 0.000211
vn -0.999876 -0.015754 0.000211
vn -0.999876 -0.015754 0.000211
vn -0.570924 0.265474 0.776897
vn -0.570924 0.265474 0.776897
vn -0.570924 0.265474 0.776897
vn 0.678247 0.181310 0.712115
vn 0.678247 0.181310 0.712115
vn 0.678247 0.181310 0.712115
vn 0.678247 0.181310 0.712115
vn 0.999873 -0.015950 -0.000000
vn 0.999873 -0.015950 -0.000000
vn 0.999873 -0.015950 -0.000000
vn 0.676315 -0.016980 -0.736417
vn 0.676315 -0.016980 -0.736417
vn 0.676315 -0.016980 -0.736417
vn -0.686118 0.000521 -0.727491
vn -0.686118 0.000521 -0.727491
vn -0.686118 0.000521 -0.727491
vn -0.686118 0.000521 -0.727491
vn -0.999282 0.033284 0.018115
vn -0.999282 0.033284 0.018115
vn -0.999282 0.033284 0.018115
vn -0.999282 0.033284 0.018115
vn -0.685990 0.000445 0.727611
vn -0.685990 0.000445 0.727611
vn -0.685990 0.000445 0.727611
vn -0.685990 0.000445 0.727611
vn 0.673162 0.013644 0.739369
vn 0.673162 0.013644 0.739369
vn 0.673162 0.013644 0.739369
vn 0.999254 0.033780 0.018706
vn 0.999254 0.033780 0.018706
vn 0.999254 0.033780 0.018706
vn 0.999254 0.033780 0.018706
vn 0.000000 1.000000 0.000000
vn 0.000000 1.000000 0.000000
vn 0.000000 1.000000 0.000000
vn 0.000000 0.902364 0.430976
vn 0.000000 0.902364 0.430976
vn 0.000000 0.902364 0.430976
vn 0.000000 0.902364 0.430976
vn 0.620284 -0.083345 0.779936
vn 0.620284 -0.083345 0.779936
vn 0.620284 -0.083345 0.779936
vn 0.620284 -0.083345 0.779936
vn -0.626685 -0.082398 0.774904
vn -0.626685 -0.082398 0.774904
vn -0.626685 -0.082398 0.774904
vn -0.626685 -0.082398 0.774904
vn -0.999505 -0.031466 0.000000
vn -0.999505 -0.031466 0.000000
vn -0.999505 -0.031466 0.000000
vn -0.621371 -0.046884 -0.782112
vn -0.621371 -0.046884 -0.782112
vn -0.621371 -0.046884 -0.782112
vn -0.621371 -0.046884 -0.782112
vn 0.624156 -0.049698 -0.779717
vn 0.624156 -0.049698 -0.779717
vn 0.624156 -0.049698 -0.779717
vn 0.624156 -0.049698 -0.779717
vn 0.999505 -0.031466 0.000000
vn 0.999505 -0.031466 0.000000
vn 0.999505 -0.031466 0.000000
vn 0.766715 -0.641748 -0.017523
vn 0.766715 -0.641748 -0.017523
vn 0.766715 -0.641748 -0.017523
vn 0.766715 -0.641748 -0.017523
vn 0.500180 -0.690589 0.522405
vn 0.500180 -0.690589 0.522405
vn 0.500180 -0.690589 0.522405
vn 0.500180 -0.690589 0.522405
vn -0.500179 -0.690589 0.522405
vn -0.500179 -0.690589 0.522405
vn -0.500179 -0.690589 0.522405
vn -0.500179 -0.690589 0.522405
vn -0.735574 -0.676981 -0.025051
vn -0.735574 -0.676981 -0.025051
vn -0.735574 -0.676981 -0.025051
vn -0.735574 -0.676981 -0.025051
vn -0.514574 -0.589926 -0.622255
vn -0.514574 -0.589926 -0.622255
vn -0.514574 -0.589926 -0.622255
vn -0.514574 -0.589926 -0.622255
vn 0.514573 -0.589927 -0.622255
vn 0.514573 -0.589927 -0.622255
vn 0.514573 -0.589927 -0.622255
vn 0.514573 -0.589927 -0.622255
vn -0.664375 -0.093400 -0.741540
vn -0.664375 -0.093400 -0.741540
vn -0.664375 -0.093400 -0.741540
vn -0.664375 -0.093400 -0.741540
vn -1.000000 0.000000 -0.000000
vn -1.000000 0.000000 -0.000000
vn -1.000000 0.000000 -0.000000
vn -1.000000 0.000000 -0.000000
vn -0.665427 -0.097140 0.740116
vn -0.665427 -0.097140 0.740116
vn -0.665427 -0.097140 0.740116
vn -0.665427 -0.097140 0.740116
vn 0.664310 -0.080607 0.743098
vn 0.664310 -0.080607 0.743098
vn 0.664310 -0.080607 0.743098
vn 0.664310 -0.080607 0.743098
vn 1.000000 0.000000 0.000000
vn 1.000000 0.000000 0.000000
vn 1.000000 0.000000 0.000000
vn 0.672022 -0.113755 -0.731742
vn 0.672022 -0.113755 -0.731742
vn 0.672022 -0.113755 -0.731742
vn 0.000001 -0.995292 -0.096927
vn 0.000001 -0.995292 -0.096927
vn 0.000001 -0.995292 -0.096927
vn 0.000001 -0.997250 0.074110
vn 0.000001 -0.997250 0.074110
vn 0.000001 -0.997250 0.074110
vn 1.000000 -0.000000 -0.000000
vn 1.000000 -0.000000 -0.000000
vn 1.000000 -0.000000 -0.000000
vn 1.000000 -0.000000 -0.000000
vn 0.999505 -0.031465 -0.000001
vn 0.999505 -0.031465 -0.000001
vn 0.999505 -0.031465 -0.000001
vn 0.999876 -0.015753 0.000264
vn 0.999876 -0.015753 0.000264
vn 0.999876 -0.015753 0.000264
vn 0.999876 -0.015753 0.000264
vn 0.999244 0.038868 -0.000000
vn 0.999244 0.038868 -0.000000
vn 0.999244 0.038868 -0.000000
vn 0.999244 0.038868 -0.000000
vn 0.999505 -0.031466 -0.000000
vn 0.999505 -0.031466 -0.000000
vn 0.999505 -0.031466 -0.000000
vn 0.999505 -0.031466 -0.000000
vn 0.999244 0.038868 -0.000000
vn 0.999244 0.038868 -0.000000
vn 0.999244 0.038868 -0.000000
vn 0.999873 -0.015950 -0.000000
vn 0.999873 -0.015950 -0.000000
vn 0.999873 -0.015950 -0.000000
vn 0.700989 -0.015435 0.713005
vn 0.700989 -0.015435 0.713005
vn 0.700989 -0.015435 0.713005
vn 0.667252 -0.134315 0.732622
vn 0.667252 -0.134315 0.732622
vn 0.667252 -0.134315 0.732622
vn 0.667252 -0.134315 0.732622
vn 0.633182 -0.087756 0.769012
vn 0.633182 -0.087756 0.769012
vn 0.633182 -0.087756 0.769012
vn -0.599413 0.116746 0.791881
vn -0.599413 0.116746 0.791881
vn -0.599413 0.116746 0.791881
vn -0.599413 0.116746 0.791881
vn -0.720850 0.142711 0.678239
vn -0.720850 0.142711 0.678239
vn -0.720850 0.142711 0.678239
vn -0.720850 0.142711 0.678239
vn -0.570924 0.265474 0.776897
vn -0.570924 0.265474 0.776897
vn -0.570924 0.265474 0.776897
vn -0.599959 0.114166 0.791843
vn -0.599959 0.114166 0.791843
vn -0.599959 0.114166 0.791843
vn -0.599959 0.114166 0.791843
vn -0.609815 -0.089858 0.787433
vn -0.609815 -0.089858 0.787433
vn -0.609815 -0.089858 0.787433
vn 0.673163 0.013643 0.739368
vn 0.673163 0.013643 0.739368
vn 0.673163 0.013643 0.739368
vn 0.687208 0.002506 -0.726456
vn 0.687208 0.002506 -0.726456
vn 0.687208 0.002506 -0.726456
vn 0.687208 0.002506 -0.726456
vn 0.651110 -0.100781 -0.752262
vn 0.651110 -0.100781 -0.752262
vn 0.651110 -0.100781 -0.752262
vn 0.651110 -0.100781 -0.752262
vn -0.611366 -0.054985 -0.789435
vn -0.611366 -0.054985 -0.789435
vn -0.611366 -0.054985 -0.789435
vn -0.612245 0.012401 -0.790571
vn -0.612245 0.012401 -0.790571
vn -0.612245 0.012401 -0.790571
vn 0.591676 -0.040940 -0.805135
vn 0.591676 -0.040940 -0.805135
vn 0.591676 -0.040940 -0.805135
vn -0.631106 -0.119157 -0.766490
vn -0.631106 -0.119157 -0.766490
vn -0.631106 -0.119157 -0.766490
vn -0.630126 -0.050611 -0.774842
vn -0.630126 -0.050611 -0.774842
vn -0.630126 -0.050611 -0.774842
vn -0.630126 -0.050611 -0.774842
vn -0.599815 0.014419 -0.800009
vn -0.599815 0.014419 -0.800009
vn -0.599815 0.014419 -0.800009
vn -0.599815 0.014419 -0.800009
vn -0.590043 0.084720 -0.802915
vn -0.590043 0.084720 -0.802915
vn -0.590043 0.084720 -0.802915
vn 0.759470 0.068264 -0.646951
vn 0.759470 0.068264 -0.646951
vn 0.759470 0.068264 -0.646951
vn -0.998967 0.038432 0.024247
vn -0.998967 0.038432 0.024247
vn -0.998967 0.038432 0.024247
vn -1.000000 -0.000000 0.000000
vn -1.000000 -0.000000 0.000000
vn -1.000000 -0.000000 0.000000
vn -0.999505 -0.031466 -0.000000
vn -0.999505 -0.031466 -0.000000
vn -0.999505 -0.031466 -0.000000
vn -0.999505 -0.031466 -0.000000
vn -0.999505 -0.031466 0.000000
vn -0.999505 -0.031466 0.000000
vn -0.999505 -0.031466 0.000000
vn -1.000000 -0.000000 0.000000
vn -1.000000 -0.000000 0.000000
vn -1.000000 -0.000000 0.000000
vn -1.000000 -0.000000 0.000000
vn 0.000001 -0.995292 -0.096927
vn 0.000001 -0.995292 -0.096927
vn 0.000001 -0.995292 -0.096927
vn 0.000001 -0.995292 -0.096927
vn -0.779378 -0.626390 -0.014324
vn -0.779378 -0.626390 -0.014324
vn -0.779378 -0.626390 -0.014324
vn -0.779378 -0.626390 -0.014324
vn -0.999874 -0.015844 0.000202
vn -0.999874 -0.015844 0.000202
vn -0.999874 -0.015844 0.000202
vn -0.999874 -0.015844 0.000202
vn -0.999244 0.038868 0.000000
vn -0.999244 0.038868 0.000000
vn -0.999244 0.038868 0.000000
vn -0.999244 0.038868 0.000000
vn 0.940565 0.048538 0.336127
vn 0.940565 0.048538 0.336127
vn 0.940565 0.048538 0.336127
vn 0.940565 0.048538 0.336127
vn -0.940563 0.048460 0.336144
vn -0.940563 0.048460 0.336144
vn -0.940563 0.048460 0.336144
vn -0.940563 0.048460 0.336144
vn 0.989098 -0.000002 0.147257
vn 0.989098 -0.000002 0.147257
vn 0.989098 -0.000002 0.147257
vn 0.989098 -0.000002 0.147257
vn -0.989098 -0.000002 0.147257
vn -0.989098 -0.000002 0.147257
vn -0.989098 -0.000002 0.147257
vn -0.989098 -0.000002 0.147257
vn -0.941465 0.182434 0.283480
vn -0.941465 0.182434 0.283480
vn -0.941465 0.182434 0.283480
vn -0.941465 0.182434 0.283480
vn 0.941465 0.182364 0.283526
vn 0.941465 0.182364 0.283526
vn 0.941465 0.182364 0.283526
vn 0.941465 0.182364 0.283526
vn -0.675872 0.581856 0.452372
vn -0.675872 0.581856 0.452372
vn -0.675872 0.581856 0.452372
vn -0.675872 0.581856 0.452372
vn 0.000000 -0.690003 -0.723807
vn 0.000000 -0.690003 -0.723807
vn 0.000000 -0.690003 -0.723807
vn 0.940305 0.320000 0.115875
vn 0.940305 0.320000 0.115875
vn 0.940305 0.320000 0.115875
vn -0.940305 0.320000 0.115875
vn -0.940305 0.320000 0.115875
vn -0.940305 0.320000 0.115875
vn 0.000000 -1.000000 0.000001
vn 0.000000 -1.000000 0.000001
vn 0.000000 -1.000000 0.000001
vn 0.000000 -1.000000 0.000001
vn 0.986276 0.084639 -0.141763
vn 0.986276 0.084639 -0.141763
vn 0.986276 0.084639 -0.141763
vn 0.000000 -0.000001 -1.000000
vn 0.000000 -0.000001 -1.000000
vn 0.000000 -0.000001 -1.000000
vn 0.000000 -0.000001 -1.000000
vn 0.000000 -0.099268 -0.995061
vn 0.000000 -0.099268 -0.995061
vn 0.000000 -0.099268 -0.995061
vn 0.000000 -0.099268 -0.995061
vn 0.000000 -0.288306 -0.957538
vn 0.000000 -0.288306 -0.957538
vn 0.000000 -0.288306 -0.957538
vn 0.000000 -0.288306 -0.957538
vn 0.997511 -0.013354 -0.069233
vn 0.997511 -0.013354 -0.069233
vn 0.997511 -0.013354 -0.069233
vn 0.997511 -0.013354 -0.069233
vn -0.988641 -0.017352 -0.149295
vn -0.988641 -0.017352 -0.149295
vn -0.988641 -0.017352 -0.149295
vn -0.988641 -0.017352 -0.149295
vn 0.991294 -0.000003 -0.131664
vn 0.991294 -0.000003 -0.131664
vn 0.991294 -0.000003 -0.131664
vn 0.991294 -0.000003 -0.131664
vn -0.984115 -0.000003 -0.177534
vn -0.984115 -0.000003 -0.177534
vn -0.984115 -0.000003 -0.177534
vn -0.984115 -0.000003 -0.177534
vn -0.983420 -0.019216 -0.180323
vn -0.983420 -0.019216 -0.180323
vn -0.983420 -0.019216 -0.180323
vn -0.983420 -0.019216 -0.180323
vn 0.997712 0.035188 -0.057738
vn 0.997712 0.035188 -0.057738
vn 0.997712 0.035188 -0.057738
vn 0.997712 0.035188 -0.057738
vn 0.000000 -0.444040 -0.896007
vn 0.000000 -0.444040 -0.896007
vn 0.000000 -0.444040 -0.896007
vn -0.977479 0.190310 0.091199
vn -0.977479 0.190310 0.091199
vn -0.977479 0.190310 0.091199
vn 0.977479 0.190310 0.091199
vn 0.977479 0.190310 0.091199
vn 0.977479 0.190310 0.091199
vn 0.000000 -1.000000 0.000000
vn 0.000000 -1.000000 0.000000
vn 0.000000 -1.000000 0.000000
vn 0.000000 -1.000000 0.000000
vn 0.000000 0.000000 1.000000
vn 0.000000 0.000000 1.000000
vn 0.000000 0.000000 1.000000
vn 0.000000 0.000000 1.000000
vn 0.000000 0.000000 1.000000
vn 0.000000 0.000000 1.000000
vn 0.000000 0.000000 1.000000
vn -0.984069 -0.005248 -0.177712
vn -0.984069 -0.005248 -0.177712
vn -0.984069 -0.005248 -0.177712
vn -0.984069 -0.005248 -0.177712
vn 0.000001 -0.029334 -0.999570
vn 0.000001 -0.029334 -0.999570
vn 0.000001 -0.029334 -0.999570
vn 0.000001 -0.029334 -0.999570
vn 0.991268 -0.003893 -0.131804
vn 0.991268 -0.003893 -0.131804
vn 0.991268 -0.003893 -0.131804
vn 0.991268 -0.003893 -0.131804
vn 0.943245 0.011425 0.331902
vn 0.943245 0.011425 0.331902
vn 0.943245 0.011425 0.331902
vn 0.943245 0.011425 0.331902
vn -0.943245 0.011425 0.331902
vn -0.943245 0.011425 0.331902
vn -0.943245 0.011425 0.331902
vn -0.943245 0.011425 0.331902
s off
f 19/64/1 46/65/2 44/66/3 45/67/4
f 17/5/5 18/1/6 19/4/7 20/6/8
f 20/6/9 50/50/10 17/5/11
f 15/68/12 63/69/13 22/70/14
f 55/55/15 56/56/16 15/9/17 22/10/18
f 23/12/19 24/3/20 13/2/21 14/11/22
f 37/39/23 38/37/24 39/38/25
f 25/13/26 29/17/27 30/18/28
f 57/57/29 7/19/30 12/20/31
f 15/9/32 56/56/33 57/57/34 12/20/35 11/21/36
f 62/71/37 63/69/38 15/68/39 11/72/40
f 17/5/41 50/50/42 9/23/43
f 18/1/44 17/5/45 9/23/46 8/24/47
f 8/73/48 44/66/49 46/65/50
f 40/74/51 52/75/52 31/76/53
f 31/26/54 32/27/55 42/42/56 40/41/57
f 42/42/58 58/58/59 33/28/60 38/37/61
f 33/28/62 34/29/63 39/38/64 38/37/65
f 37/39/66 47/47/67 35/30/68
f 35/30/69 36/25/70 41/40/71 37/39/72
f 41/40/73 40/41/74 42/42/75
f 41/40/76 42/42/77 38/37/78 37/39/79
f 20/6/80 19/4/81 2/31/82 48/48/83
f 21/8/84 51/51/85 3/32/86 4/33/87
f 59/59/88 21/8/89 4/33/90
f 54/54/91 55/55/92 22/10/93 5/34/94
f 1/36/95 24/3/96 23/12/97 6/35/98
f 43/77/99 24/78/100 1/79/101
f 7/19/102 8/24/103 26/14/104 25/13/105
f 8/24/106 9/23/107 27/15/108 26/14/109
f 9/23/110 10/22/111 28/16/112 27/15/113
f 61/80/114 62/71/115 11/72/116 29/81/117
f 11/21/118 12/20/119 30/18/120 29/17/121
f 12/20/122 7/19/123 25/13/124 30/18/125
f 31/26/126 54/54/127 5/34/128 32/27/129
f 58/58/130 59/59/131 4/33/132 33/28/133
f 4/33/134 3/32/135 34/29/136 33/28/137
f 47/47/138 48/48/139 2/31/140 35/30/141
f 36/82/142 43/77/143 1/79/144
f 52/75/145 6/83/146 31/76/147
f 25/84/148 61/80/149 29/81/150
f 28/16/151 26/14/152 27/15/153
f 2/31/154 43/43/155 36/25/156 35/30/157
f 19/64/158 45/67/159 2/85/160
f 7/19/161 13/2/162 44/44/163 8/24/164
f 45/45/165 44/44/166 13/2/167 24/3/168
f 2/31/169 45/45/170 24/3/171 43/43/172
f 18/1/173 46/46/174 19/4/175
f 8/24/176 46/46/177 18/1/178
f 34/29/179 37/39/180 39/38/181
f 3/86/182 48/87/183 47/88/184 34/89/185
f 20/90/186 48/87/187 3/86/188
f 16/7/189 49/49/190 51/51/191 21/8/192
f 9/23/193 49/49/194 16/7/195 10/22/196
f 9/91/197 50/92/198 49/93/199
f 51/94/200 49/93/201 50/92/202 20/90/203
f 3/86/204 51/94/205 20/90/206
f 34/89/207 47/88/208 37/95/209
f 36/25/210 52/52/211 40/41/212 41/40/213
f 1/36/214 6/35/215 52/52/216 36/25/217
f 23/12/218 53/53/219 6/35/220
f 14/11/221 53/53/222 23/12/223
f 14/11/224 13/2/225 7/19/226
f 6/83/227 54/96/228 31/76/229
f 6/83/230 53/97/231 55/98/232 54/96/233
f 14/99/234 56/100/235 55/98/236 53/97/237
f 57/101/238 56/100/239 14/99/240
f 14/99/241 7/102/242 57/101/243
f 32/103/244 58/104/245 42/105/246
f 5/34/247 60/60/248 32/27/249
f 22/10/250 21/8/251 60/60/252 5/34/253
f 60/106/254 21/107/255 59/108/256
f 32/103/257 60/106/258 59/108/259 58/104/260
f 25/13/261 26/14/262 28/16/263 61/61/264
f 10/22/265 62/62/266 61/61/267 28/16/268
f 16/7/269 63/63/270 62/62/271 10/22/272
f 22/10/273 63/63/274 16/7/275 21/8/276
f 71/109/277 66/110/278 65/111/279 70/112/280
f 65/111/281 66/110/282 72/113/283 73/114/284
f 87/115/285 90/116/286 89/117/287 69/118/288
f 88/119/289 92/120/290 84/121/291 68/122/292
f 66/110/293 67/123/294 74/124/295 72/113/296
f 67/123/297 66/110/298 71/109/299 75/125/300
f 64/126/301 83/127/302 74/128/303 75/129/304
f 74/128/305 64/126/306 75/129/307
f 64/130/308 67/123/309 75/125/310
f 67/123/311 64/130/312 74/124/313
f 77/131/314 76/132/315 69/133/316 68/134/317
f 82/135/318 64/126/319 75/129/320
f 76/132/321 77/131/322 85/136/323 86/137/324
f 78/138/325 79/139/326 81/140/327 80/141/328
f 80/141/329 81/140/330 83/127/331 82/135/332
f 78/138/333 80/141/334 71/142/335 70/143/336
f 73/144/337 72/145/338 81/140/339 79/139/340
f 76/132/341 86/137/342 87/146/343 69/133/344
f 84/147/345 85/136/346 77/131/347 68/134/348
f 83/127/349 81/140/350 72/145/351 74/128/352
f 80/141/353 82/135/354 75/129/355 71/142/356
f 82/135/357 83/127/358 64/126/359
f 84/121/360 92/120/361 91/148/362
f 90/116/363 87/115/364 91/148/365
f 89/149/366 88/150/367 68/134/368 69/133/369
f 88/119/370 89/117/371 90/116/372 92/120/373
f 91/148/374 92/120/375 90/116/376
f 79/139/377 85/136/378 84/147/379 73/144/380
f 86/137/381 85/136/382 79/139/383 78/138/384
f 87/146/385 86/137/386 78/138/387 70/143/388
f 65/111/389 91/148/390 87/115/391 70/112/392
f 84/121/393 91/148/394 65/111/395 73/114/396
